<svg xmlns="http://www.w3.org/2000/svg" width="1344" height="566"><path d="M0 283V0h1344v566H0V283m733 182c1-1 6-1 11-1s12-1 14-1c6-1 17-4 21-5 2-1 7-2 11-3 7-1 13-2 30-7 4-1 11-3 15-4s9-2 10-3c5-2 24-2 40-1 15 1 15 1 17-1s2-3 2-12c0-6-1-15-2-19-5-22-7-49-5-63l1-7-4-8c-5-10-9-13-22-18-7-3-14-8-15-11 0-2-1-3-2-4-1-2-11-5-18-6-5-1-7-4-5-6 3-2 9-3 16-2 11 1 11 0 8-28-1-9-3-22-5-28-2-7-5-19-6-26-2-7-4-15-5-17 0-1-2-6-3-10s-3-10-4-14c-3-10-6-21-6-22 0-7-14-39-23-52-9-15-27-29-51-41-20-10-32-11-54-5-6 1-14 3-19 4-24 5-31 9-41 22-15 21-20 35-26 90-1 6-2 13-3 15-2 8-3 73-2 93 1 10 1 20 2 22 0 6-2 8-11 10s-17 2-25 0c-9-2-27-2-32 0-2 1-7 5-11 8-4 4-9 8-12 10s-8 5-11 8c-4 2-15 10-25 16-10 7-21 15-24 18-8 6-13 9-21 10-11 2-16 6-18 13-1 2-4 10-8 18-8 18-9 21-14 36-2 6-6 15-8 19-3 6-3 7-2 9 3 3 24-1 35-6 1-1 7-3 11-3 5-1 12-3 16-4 6-2 10-2 34-3 21 0 28 0 33-2 7-2 19-1 27 2 7 3 29 7 42 8 6 0 16 2 22 3 11 2 13 1 22-2 6-2 30-3 40-1 5 1 12 2 16 3 12 1 20 4 24 8l4 3 9-1c5 0 9-1 10-1z"/></svg>