<svg xmlns="http://www.w3.org/2000/svg" width="1344" height="566"><path d="M0 283V0h1344v566H0V283m588 102c7-1 14-2 17-3 2 0 9-2 13-3 5 0 13-2 17-3 23-7 45-11 53-11 5 0 25 3 42 6 9 2 13 3 16 2 2-1 9-2 16-2s16-2 18-2c3-1 10-3 14-4 5-1 14-3 19-4 11-2 17-3 28-1 10 2 14 2 16 1 1-2 1-4 0-12-1-5-2-16-3-23-1-14-2-23-4-34s0-21 5-21c3 0 4-2 3-7 0-2 0-6 1-9 0-2 2-12 3-22 3-30-1-83-8-113-1-7-3-15-3-18-2-8-6-21-9-27-4-7-17-20-25-25-13-8-30-12-46-11-18 1-41 10-51 18-7 7-18 24-18 28 0 1-1 5-2 8-2 6-2 9-2 52 0 34 0 48 1 55 1 5 2 13 3 17 0 4 1 11 2 15 0 5 1 11 1 15 0 6 0 7-2 9-3 2-4 2-14 3-38 0-67 2-70 3-2 1-7 3-12 5-4 1-8 3-9 3 0 0-3 2-6 5s-8 7-12 9c-6 3-8 3-16 3h-21l-10-1-3 3c-1 1-4 5-6 7-3 4-6 5-12 8-4 2-8 4-9 4-2 2-8 15-13 30-3 8-6 16-6 18-1 2-2 7-3 11-1 6-1 7 0 9 2 2 4 2 10 2 12 0 28-2 35-5 8-3 12-3 16 0 1 2 2 4 2 5 0 3 4 7 7 8 4 1 18 1 37-1z"/></svg>