<svg xmlns="http://www.w3.org/2000/svg" width="1344" height="566"><path d="M0 283V0h1344v566H0V283m738 280c6-1 22-1 99-3 19 0 49 0 67 1 40 1 69 0 73-3 7-4 6-6-4-40-13-39-14-50-12-82 1-21 3-83 3-98 0-16-5-29-16-44-8-11-33-35-42-42-3-2-8-6-10-7-2-2-6-5-9-8-9-7-8-7-9-37 0-28 0-34-6-52-5-18-18-37-33-49-21-17-37-28-43-31-8-3-20-6-36-7-7-1-16-1-20-2-9-1-15 0-32 5-7 2-24 10-34 17-6 5-22 20-27 28-5 7-14 27-19 41-3 8-4 12-7 38 0 9-2 17-2 19-1 3-6 8-13 12-2 1-17 9-34 17-48 24-55 31-57 60-2 18-4 32-7 48-2 8-4 17-5 20-1 7-4 19-7 30-4 14-10 44-13 64-1 8-3 17-4 21s-2 9-2 13c-1 6-3 11-5 11-1 0-6 4-13 9-4 4-9 4-14 0l-3-3-9 3c-5 2-14 5-19 7-24 11-58 21-80 22-5 1-12 2-14 2-2 1-9 1-16 2-8 1-11 0-13-1-4-2-14-5-20-5-4 0-7 1-12 3-4 2-7 4-8 4-1 2 4 5 11 5 3 1 11 1 16 2s11 1 15 0c11-2 45-4 54-4 5 0 13 0 19 1 11 1 38 1 74 1 20-1 29 1 37 5l7 4h24c13 1 56 1 96 2 39 0 73 0 76 1 9 1 50 1 58 0z"/></svg>