<svg xmlns="http://www.w3.org/2000/svg" width="1344" height="566"><path d="M0 283V0h1344v566H0V283m826 278c5-1 15-1 22-1 14 0 14 0 17-2 2-3 3-8 1-14-2-7-5-27-4-29 1-3-1-7-5-12-8-8-13-23-13-37 0-9 0-11-2-14-3-4-8-8-18-13-5-2-18-9-30-14-12-6-26-13-32-15-33-15-57-27-61-30-2-1-3-4-5-8-2-8-2-44 1-72 3-33 3-44-1-68-2-10-4-22-5-26-4-27-23-77-39-106-18-30-45-55-74-66-16-6-40-10-53-9-11 1-16 3-32 12-8 4-18 9-22 10-18 7-30 18-42 44-7 14-10 24-14 39-5 26-6 42-7 74 0 17 0 32-1 35 0 4 1 41 3 69 1 17 4 44 6 60 1 4 2 12 2 16 1 9 1 10-11 13-5 1-16 5-23 8-7 4-20 10-28 13-30 14-49 23-51 26-1 0-2 7-4 14-1 8-3 17-3 20-1 4-2 10-2 14v6l6 7c7 6 14 10 29 16 5 3 20 9 33 16 12 6 26 12 30 14 5 1 11 4 14 6 5 2 5 2 29 3 14 1 45 1 71 1 25 1 46 1 47 1 0 1 262 0 271-1z"/></svg>