<svg xmlns="http://www.w3.org/2000/svg" width="1344" height="566"><path d="M0 283V0h1344v566H0V283m500 275c14-1 114-2 162-2 4 0 11 0 16 1 14 2 48 3 62 2 6-1 52-1 102-2 120-1 111-1 155 0 38 1 41 1 41-2 0-1-1-2-2-3-3-3-29-20-36-24-4-2-10-6-15-9-5-2-18-9-29-15-38-17-37-17-43-24-3-3-8-9-11-13-8-9-10-13-9-18 1-11 37-92 48-111 6-11 12-17 19-18 8-3 14-7 21-14 6-7 19-24 23-34 7-12 9-35 6-42l-7-7c-7-5-8-8-6-18 0-5 2-13 3-19 0-6 1-13 2-16 7-40 10-71 7-84-1-3-5-13-9-22-4-10-9-20-10-22-3-7-11-18-18-23-6-6-15-11-23-12-10-2-48-3-116-3-75 0-90 1-98 6-6 5-23 37-29 58-8 25-11 40-13 66-1 17-4 33-6 38 0 1-2 3-3 3-1 1-3 1-6 2-6 1-12 7-15 14-2 5-2 7-2 20 0 12 0 16 2 25 2 6 4 13 6 17 3 8 13 20 20 26 6 5 8 8 9 17s-2 44-4 58c-4 17-10 33-17 41l-6 5h-8c-5 0-16 0-24-1-11-1-17-1-20 0-4 1-14 10-23 22-9 10-24 26-32 32s-16 11-29 16c-4 2-12 6-18 10s-17 10-25 15c-9 5-21 11-27 15s-15 8-19 11c-12 6-29 17-40 26-15 10-13 12 8 13 18 1 60 0 86-1z"/></svg>