<svg xmlns="http://www.w3.org/2000/svg" width="1344" height="566"><path d="M0 283V0h1344v566H0V283m748 275c2-2 3-4 4-9 0-4 1-8 2-11 3-5 3-14-1-28-3-15-6-26-6-28l2-2c1 0 4 2 8 7 14 13 26 23 30 25 5 2 11 10 14 15 2 4 2 7 2 14 0 9 0 9 3 11 2 2 4 3 12 3 10 1 12 1 12-4 0-6-3-22-7-37-1-2-3-7-7-10-3-4-7-10-8-13-2-3-7-10-10-15-4-4-8-11-9-13-3-5-3-5-3-18 1-11 3-23 6-39 6-24 6-29 5-57-1-39-1-38 6-46 7-7 13-22 15-35 2-7-5-49-10-64 0-2-1-8-1-14-1-16-2-20-9-29-6-10-9-14-13-26-10-24-11-28-15-32-3-6-11-10-17-11-7-1-21 2-27 5-6 2-14 9-15 12v8c-1 3-1 8-1 12-1 5-1 8 0 11 1 2 2 6 2 7 0 2 1 7 2 11 3 11 1 17-9 21-3 1-6 2-7 2-4 0-14 6-21 13-3 4-11 10-17 14-7 4-14 9-17 12-5 4-20 11-30 15-3 1-8 5-11 7l-5 5-11-1h-11l-5 3c-6 3-10 7-10 9 0 1 1 2 2 3 2 3 18 9 22 9 1 0 7 3 14 6 9 5 13 6 17 6s11-3 15-6c3-3 8-5 17-6 13-1 28-7 38-15 2-2 3-3 4-3 2 0 4 5 4 12 1 9 2 13 5 20 1 2 2 7 3 9 0 7 1 9 7 12 3 2 5 4 5 4 0 1-1 4-3 7-3 5-3 6-4 23-1 12-1 21-3 28-4 18-3 45 2 59 0 2 2 13 3 24 3 27 4 32 10 60 1 9 3 19 4 23s3 10 4 15c3 7 4 9 7 10 5 3 13 3 15 0z"/></svg>