<svg xmlns="http://www.w3.org/2000/svg" width="1344" height="566"><path d="M0 283V0h1344v566H0V283m719 269c7-2 9-2 12-1 8 2 63 0 72-2 3-1 6-3 11-8 4-4 8-7 11-9 8-3 10-6 14-17 3-6 5-11 8-14 7-8 11-16 19-37 9-22 12-27 25-37 8-7 26-19 42-29 6-4 11-10 11-13 0-1-6-7-14-16-12-12-16-15-22-18-7-4-23-17-43-37-12-11-19-17-38-30s-37-29-48-39c-10-11-10-12-2-23 3-5 8-11 10-15 2-3 6-8 8-10 5-6 5-5 11-42 1-8 1-41 0-46-3-10-10-17-28-26-34-17-55-16-73 3-11 12-12 16-15 56-2 30-3 32-11 38-14 11-21 15-41 22-8 2-18 6-21 8-4 2-12 6-19 9s-15 8-18 10c-6 4-22 20-28 27-2 3-8 10-14 16-25 29-31 37-37 52-5 15-6 21-7 31 0 13 0 16 7 27 3 4 5 8 5 10 0 3-5 11-12 20-5 7-14 21-15 25 0 2 0 4 2 6s19 13 39 26 24 17 22 27v20c-1 12-1 14-3 18l-2 4 2 5c2 3 4 6 5 7 2 0 7 2 12 3 9 2 16 2 82 2 71-1 73-1 81-3z"/></svg>