<svg xmlns="http://www.w3.org/2000/svg" width="1344" height="566"><path d="M0 283V0h1344v566H0V283m156 195c8-10 14-15 16-16 4-1 9-6 14-13 2-3 8-9 14-15 9-8 24-27 28-34 3-6 18-28 21-30 2-2 4-3 11-5 4-1 3-3-4-6-12-5-13-6-11-13 3-5 2-9-2-16-2-4-4-10-6-14-6-18-13-28-26-34-7-3-8-3-17-3s-11 0-16 2c-6 4-15 12-20 19-2 3-7 12-11 21-7 13-8 15-15 22-17 16-22 20-26 21-3 1-6 2-7 3-3 2-11 3-17 2-2 0-2 0-2 6 0 4 1 8 1 9 1 1 5 6 9 11 5 5 9 10 10 11 0 2 1 10 2 19l1 17 3 2c2 2 6 5 8 6 4 3 6 5 9 10s4 8 9 23c1 3 3 6 4 7 3 4 5 3 20-12z"/></svg>