<svg xmlns="http://www.w3.org/2000/svg" width="1344" height="566"><path d="M0 283V0h1344v566H0V283m482 140c4-1 12-3 18-4 6-2 15-5 20-6 9-2 10-2 15-1 6 2 16 2 52 1 21-1 28-1 35-3 14-3 25-4 50-4 15 0 24 0 26-1 2 0 5-1 7-1 2-1 6-2 8-4 5-3 5-3 9-2 2 1 5 3 7 5 4 5 4 5 13-1 5-3 6-3 9-2 6 2 13 0 17-6 1-2 4-5 7-8 4-3 7-7 8-8 1-4 5-5 13-7 8-1 13-3 13-5 0-1-1-3-1-4-1-3-1-4 2-8 6-9 12-15 18-19 9-7 16-14 19-20 2-3 3-7 3-8l4-8c6-10 6-14-6-26-5-5-5-5-9-5-6 1-8 3-9 7-1 5 0 11 4 16 2 2 3 4 3 6s1 5 1 8c1 3 1 4 0 6-2 3-10 9-14 10-3 1-12-4-18-9-9-9-10-14-5-26 4-8 6-10 11-13 2-1 4-3 4-3 0-1-4-2-8-2-3-1-9-1-12-2-4 0-6-1-9-3-4-5-5-8-2-13 1-2 3-6 3-9 1-2 3-9 6-15l3-10-2-5c-3-6-4-10-2-16 1-2 2-6 2-10 1-7 4-20 6-22 1-2 4-5 5-8 3-3 5-6 8-7 5-3 5-5 1-10-4-4-4-4-6-24-1-13-2-19-4-23-1-1-7-7-13-12-11-11-22-18-31-19-2-1-5-2-6-3-2-1-7-1-16-1-23 0-50 6-62 13-13 7-30 29-36 46-5 14-6 22-7 50 0 36 1 53 6 73 4 16 4 18 0 20-3 1-7 1-10 0-4-3-19-3-26-1-9 2-14 4-22 11-11 8-15 14-22 26-6 14-7 14-26 27-7 5-15 9-19 11-4 1-11 4-16 7-10 6-15 7-29 7-10 0-11 0-14 2s-18 31-24 48c-3 8-4 11-3 13 1 1 11 8 21 14 3 1 23 1 32 0z"/></svg>