<svg xmlns="http://www.w3.org/2000/svg" width="1344" height="566"><path d="M0 283V0h1344v566H0V283m328 278c12-2 37-2 166-2 83 1 172 1 198 2 36 1 52 1 65 0 12-1 71-1 175-2 86 0 158 0 161-1 5 0 9-4 8-6 0-1-2-3-5-3-3-2-9-7-23-20-18-17-39-33-48-38-8-4-24-17-33-27s-10-13-16-27c-7-16-10-21-17-29-14-14-42-36-53-42l-6-4h-52c-56 0-54 1-56-5-2-3 3-28 6-35 2-5 3-6 8-9 8-4 12-10 14-18 1-4 1-15 2-33 0-23 0-28-2-37-3-13-5-18-11-28-5-9-20-41-25-52-11-28-41-76-59-95-9-8-22-19-31-24-10-6-31-15-39-17-7-1-11-1-43-1-29 0-38 0-43 1-4 1-10 2-14 3-11 1-25 3-31 5-14 4-32 16-46 29-17 16-22 23-32 43-13 27-17 40-17 61l-1 12 4 6c8 12 9 17 7 38-1 9-1 20-2 26 0 12-1 11 7 32l3 8v21c1 18 1 21 3 27 5 16 12 26 31 45 12 12 13 13 15 19 1 5 1 7 0 14-1 9-3 12-9 20-9 11-30 25-36 25-4 0-5-2-12-16s-12-19-18-19-9 2-13 10-5 12-6 29-2 20-8 25c-5 5-7 4-11-5-2-4-5-11-6-16-4-16-8-48-10-76-1-29-3-40-7-47-3-5-5-7-10-7-4 0-7 1-8 5-2 3-6 27-9 46-3 30-4 33-4 33-2 1-5-5-6-9 0-2-4-14-7-26-11-42-15-51-23-55-5-3-9-3-12 1-4 4-4 9-3 31 1 27 4 49 10 74 1 8 1 11-2 10-1-1-10-18-12-23 0-3-2-8-3-12-2-3-4-10-6-14-7-22-11-28-21-28-5 0-8 3-10 8s-1 21 3 36c2 7 4 15 4 18 2 11 9 37 12 44 4 10 5 15 3 15s-9-8-20-22c-14-18-23-25-31-25-4 0-9 4-10 9 0 4 2 16 5 23 5 11 20 33 41 62 6 7 12 16 15 20 8 11 14 16 21 19 5 1 34 1 51 0m890-1 14-1 3-3c2-2 3-4 3-5s-1-10-3-19c-1-8-3-21-3-28-3-25-4-28-6-34-3-5-8-9-17-13-18-7-20-8-24-14-4-8-15-42-17-57-1-2-2-8-3-14-2-7-3-14-4-18 0-5-4-27-6-39-3-15-4-30-5-61 0-48-2-57-9-63-5-5-10-5-14-1-2 2-3 5-5 13-1 6-3 11-3 11-2 3-4-2-5-11-1-12-6-35-8-41 0-3-2-6-4-8-7-9-20-8-25 1-3 6-5 6-9 1-5-6-9-8-13-8-7 0-12 5-18 17-3 7-5 11-11 16-10 10-17 27-21 50 0 3-1 23-1 45 0 49-1 44 20 86 14 26 23 42 31 54 18 29 25 42 37 78 4 13 9 29 11 35s4 13 5 17c0 3 1 6 1 6 0 1 3 2 7 5 5 3 6 4 16 4 12 1 66 0 86-1z"/></svg>