<svg xmlns="http://www.w3.org/2000/svg" width="1344" height="566"><path d="M0 283V0h1344v566H0V283m261 277c33-1 36-1 39-3 5-2 14-21 17-34 1-5 3-12 4-16s2-8 3-11c0-5 2-9 5-9 0-1 8-1 16-1 16 0 48-2 57-3 11-1 24-4 27-5 4-1 14-4 23-6 17-3 42-12 71-25 5-2 10-4 12-4 1-1 4-2 5-4 3-3 3-4 3-8-1-5 0-5-8-8-1 0-2-3-2-5-2-6-4-7-9-5-2 1-7 3-12 5s-11 4-12 5c-3 1-13 1-17 0-3-2-5-7-6-13-1-4-3-7-5-6-2 2-8 12-10 18-5 11-8 13-21 15-20 2-32 2-65-1-9-1-15-3-19-7-1-2-4-7-6-12-5-9-5-11-7-24-1-8-3-15-3-17-1-1-2-5-3-8-1-5-1-6 3-14 4-9 7-16 10-18 1-1 4-1 11 0 8 0 11 0 13-1 3-1 15-12 28-25 4-4 5-5 6-13 2-7 9-26 13-31 2-5 3-11 2-18-2-12-9-24-22-36-13-11-22-14-37-12-18 3-29 12-42 31-3 5-7 9-8 9 0 1-3 1-5 1-3 0-6 1-8 3-8 5-11 6-24 7-24 2-46 11-80 30-10 6-13 9-24 19-11 12-22 24-33 40-11 14-34 57-42 76-2 5-6 15-8 21-4 9-5 11-4 13 2 2 11 1 17-1 4-1 5-2 6-6 5-16 8-25 10-26 2 0 5 1 9 4 2 2 2 2 4 1 4-3 6-2 7 3 3 7-1 16-5 16-2 0-3 1-4 1-2 2-1 11 1 18 3 7 2 9-4 9-4 0-14 3-16 5s2 4 6 4c5 0 12 3 12 6 1 1 1 5 0 8-1 5-1 7 0 11s1 5-1 10c-1 2-2 7-3 9 0 5-5 11-9 11-7 0-7 4 1 13 9 11 10 11 25 11 13 0 26 2 31 4 2 1 10 1 26 0 14 0 41 0 61-1z"/></svg>