<svg xmlns="http://www.w3.org/2000/svg" width="1344" height="566"><path d="M0 283V0h1344v566H0V283m720 267c6-1 17-2 24-2 11-1 13-1 15-3s2-2 1-5c-2-6-1-8 5-7 4 0 5 0 8-4 4-5 4-5 7-7 1-1 2-3 3-5 0-3 1-4 5-6s5-2 10-1c5 0 6 0 14-4s10-4 22-6c7 0 15-1 17-2 2 0 9-2 16-3 9-1 17-2 25-5 17-5 20-7 30-19 3-4 6-6 7-6s4 1 7 3c3 1 5 2 7 2 1-1 7-5 12-9 12-9 24-16 29-17 4 0 10 2 13 6 1 1 4 3 7 6 9 6 11 6 17-3 5-6 7-11 7-16 0-6-11-24-27-42-13-16-14-17-21-29-4-6-8-13-10-16-1-3-6-11-11-17-4-6-12-19-19-31-14-25-22-38-28-46-2-3-6-9-9-14-2-5-8-13-11-18-4-6-8-14-11-18-2-4-6-9-10-13-18-18-35-33-44-40-6-5-10-9-11-10 0-1 1-5 3-10s4-10 4-12c1-2 2-8 4-14 4-18 2-46-4-64-5-11-16-22-30-28-11-4-29-7-38-7-14 1-28 8-34 16s-8 14-10 31c-1 12 0 29 4 57 2 16 2 19 0 24-2 4-13 15-18 17-6 4-52 18-76 25-4 0-12 4-19 7s-17 8-22 10c-14 6-43 26-62 43-25 22-28 25-32 34-6 11-6 15-6 29 1 12 1 13 5 26 5 14 8 19 14 23 5 3 26 2 39-1 9-3 10-3 15-9 3-3 6-6 7-6 0 0 3 2 6 5l6 4v6c0 8 2 10 9 14 12 5 16 10 14 19-1 6-3 15-5 19 0 1-1 7-2 13s-2 15-4 20c-3 14-4 25-4 44 0 16 0 17 2 22 2 3 3 8 4 10 0 5 0 5-4 9s-4 4-4 10c1 9 5 18 9 21 7 3 108 4 133 0z"/></svg>