<svg xmlns="http://www.w3.org/2000/svg" width="1344" height="566"><path d="M0 283V0h1344v566H0V283m617 277c4 0 21-1 47 0h82c36 0 40 0 43-1 3-3 5-8 6-20 1-20-3-40-17-93-1-4-4-12-7-17-4-10-5-13-4-22 2-9 0-12-9-16-7-4-53-25-59-27-7-3-26-12-30-14-6-4-7-8-4-25 3-18 6-56 7-75 0-14-3-59-5-76-1-5-2-14-3-20-2-15-7-37-11-50-3-11-12-28-19-39-7-10-18-21-25-27-9-7-31-18-45-22-17-6-26-5-50 3-3 1-10 3-15 3-6 1-12 2-14 2-18 6-41 32-52 58-10 23-15 43-26 98-7 36-9 51-11 78-1 13-1 59 1 66 1 6 0 10-5 15-3 2-5 3-11 3-8 1-11 2-23 6-14 5-25 10-34 15-5 3-14 8-20 11-14 6-21 12-24 17-2 3-4 9-5 17-1 6-3 16-5 20-2 5-5 17-6 26-2 9-5 22-7 29-5 19-12 56-12 62 0 8 2 10 12 13 8 2 87 2 102 1 7-1 18-1 39 0 15 1 46 1 67 2 21 0 39 0 39 1 1 0 107-1 113-2z"/></svg>