<svg xmlns="http://www.w3.org/2000/svg" width="1344" height="566"><path d="M0 283V0h1344v566H0V283m355 277c7-1 45-1 85-2h104c17 0 41 0 54 1 31 1 218 2 226 0 7-1 9-2 11-6 1-4 2-15 1-27-2-16-6-24-21-38-9-8-28-22-38-28-26-16-52-35-56-40-6-7-11-15-12-21-1-4-1-5 1-8 1-3 8-14 17-25 18-24 25-35 30-45 2-4 4-10 5-12 3-6 8-21 11-35 1-6 4-18 7-27 9-29 12-50 12-78 0-43-5-61-23-87-7-10-34-36-45-44-12-8-21-11-40-12-12-1-17-2-24-4-5-1-12-3-14-4-11-3-43 0-55 4-26 10-51 31-68 57-12 19-15 29-19 71-1 13-3 25-3 28-1 3-5 11-8 18-7 13-9 21-8 35 2 20 6 29 18 43 12 12 15 16 17 23 3 6 3 17 1 22-1 1-6 7-12 13-6 5-17 15-24 22-7 6-16 14-20 17-9 6-25 14-31 15s-12 4-26 10c-7 2-26 10-42 15-61 22-63 24-81 69-7 18-9 26-17 61-4 14-2 20 6 20 7 1 68 0 81-1z"/></svg>