<svg xmlns="http://www.w3.org/2000/svg" width="1344" height="566"><path d="M0 283V0h1344v566H0V283m830 276c5-2 6-3 11-12l5-9v-13l1-13 4-8c5-10 7-13 19-32 4-7 12-22 17-32 8-17 11-22 17-29 12-14 15-21 11-31-2-4-3-9-3-12-2-10-7-18-13-18-2 0-8 6-8 8 0 1-1 4-3 7-1 2-2 5-2 7 0 3-8 15-11 17-3 1-8 1-9-1-1-1-1-2 0-6 3-7 9-19 14-25 2-3 3-5 3-8 0-7-9-14-18-14s-11-4-6-12c2-2 3-6 4-8 0-2 1-5 2-6 0-2 1-6 2-10 0-7 0-8-2-12-3-4-8-6-14-6-5 1-7 4-9 9-2 7-21 29-29 33-4 2-6 2-13 2-17-1-19 0-24 4-8 7-19 27-24 42-4 10-5 14-10 35-3 14-9 33-13 41-22 47-39 77-45 79h-4c-4-1-34-31-36-36-1-3-3-9-3-14-2-11-10-28-16-35-4-4-13-10-30-21-3-1-5-3-5-5s1-3 12-6c8-2 14-6 17-12 2-4 12-41 20-75 3-12 5-33 5-49 0-12-3-61-4-65-1-1-1-6-2-12s-2-14-2-18c-1-5-3-13-3-20-3-21-10-45-16-58-12-22-32-45-55-60-19-13-31-17-50-18-12 0-14 0-24 2-5 2-14 4-19 4-5 1-9 2-10 2 0 1-4 1-8 2-9 1-22 7-29 13-10 7-24 26-32 42-9 17-18 44-24 71-2 9-4 20-5 23-1 5-4 26-10 81-2 13-3 18-7 46 0 7-1 25-2 44-1 30-2 47-4 52 0 2-3 6-6 11-12 18-29 49-34 63-3 8-10 27-14 37s-5 14-2 17c3 4 6 10 6 15 1 6 3 10 6 11 4 2 48 3 120 2 109 0 168-1 203-2 33 0 131 2 151 3 6 0 21 1 34 1 23 0 24-1 28-3z"/></svg>