<svg xmlns="http://www.w3.org/2000/svg" width="1344" height="566"><path d="M0 283V0h1344v566H0V283m611 277c6-1 16-1 34-1 43 2 131 1 134 0 1-1 3-3 4-5 2-3 2-5 2-24v-22l-5-25c-7-30-11-44-18-57l-4-10 1-7c1-6 1-8 0-11-1-4-2-5-13-10-13-7-28-14-56-26-25-11-29-13-32-16-3-4-3-5 1-32 7-57 7-60 7-74 0-17-3-60-4-65-1-2-1-5-1-8 0-12-8-53-14-66-9-24-26-51-38-61-18-15-54-31-68-31-7 0-19 3-29 7-6 2-10 3-18 4-11 0-17 2-26 8-10 7-22 19-30 32-10 15-21 43-27 74-4 16-6 27-8 37-1 6-3 16-4 23-4 18-8 40-9 55-2 17-2 45 0 55 1 10 2 27 2 30-2 5-5 6-18 7-15 1-27 4-43 12-6 3-19 10-29 15-19 10-27 16-31 22 0 2-2 8-3 14s-3 13-4 16c0 3-3 11-4 18-2 6-5 19-8 28-2 8-5 20-6 25s-4 15-5 22c-2 8-5 18-6 24-2 12-1 15 3 18 5 4 15 4 90 4 61 1 199 2 200 2 1 1 77 0 83-1z"/></svg>