<svg xmlns="http://www.w3.org/2000/svg" width="1344" height="566"><path d="M0 283V0h1344v566H0V283m247 275 3-3-1-18c0-19-3-44-6-55 0-3-1-7-1-9 0-1-1-7-3-12-2-10-3-18-1-21 0 0 3-2 5-3 6-3 7-6 6-12-1-3-1-8-2-11 0-5-2-11-6-18-15-33-19-40-22-47-4-8-6-14-7-22 0-5 0-6 2-10 1-2 3-7 4-10 3-8 7-16 8-18 1-1 3 0 9 1 7 2 8 2 15 1 9-1 12-3 14-7s3-28 2-40c-2-15-2-22 1-26 4-8 16-38 16-42 0-1-1-2-2-4-3-2-7-3-11 0-2 1-8 2-14 2s-13 2-17 2c-13 4-17 4-22 3-6-2-9-1-19 9-8 7-14 11-18 11 0 0-4-2-7-5-6-7-6-7 1-11 2-1 4-4 5-6 2-4 2-6 2-19v-14l-4-8c-2-5-6-14-9-21-6-18-7-19-13-23s-12-6-23-8c-11-3-17-2-26 0-10 3-14 6-20 11s-11 15-11 20c0 6 5 22 9 30 2 5 5 11 5 14 1 4 2 8 3 9 1 2 1 6 1 11s1 9 2 13c2 6 2 8 2 15-1 10-4 22-7 27-1 2-3 5-5 7-5 7-10 25-8 31 1 4 9 11 21 18 9 5 12 7 14 12 3 6 9 12 17 16 9 4 12 4 16 0 5-6 15-19 16-23 1-2 3-7 5-11 6-13 11-26 14-36 1-4 2-6 6-10 7-6 9-7 11-6s5 8 6 13c1 4 4 6 6 6 3-1 4 1 5 8 1 3 2 9 4 14 3 10 3 12-5 24-3 5-7 11-9 15-2 3-5 8-8 10-6 5-8 9-13 23-6 17-9 20-24 24-6 2-11 4-12 5-2 2-1 10 3 24 5 14 11 43 11 47 0 2 0 7-1 11-1 7-1 9 1 20 2 7 5 19 7 28s5 19 6 23c1 9 3 16 5 20 3 4 10 11 14 12 1 0 13 1 27 1h24l3-2z"/></svg>