<svg xmlns="http://www.w3.org/2000/svg" width="1344" height="566"><path d="M0 283V0h1344v566H0V283m978 138c3-2 4-5 5-15 0-5 1-13 2-18 1-4 3-14 4-22 1-9 3-21 4-28 4-27 5-53 2-59-1-1-4-6-8-10s-8-9-9-11c-4-8-6-14-7-21-1-4-1-8-1-8-1 0-1-7-2-14s-2-14-2-16c-1-2-3-7-4-12-4-11-7-20-10-25-4-6-15-17-20-19-11-5-24-3-38 3-7 4-8 5-12 10-8 12-7 10-8 36v23l-5 4c-5 4-7 6-10 12s-4 10-5 18c-1 11-2 14-6 18-2 1-3 4-4 6l-3 9c-1 2-2 5-3 6 0 2-3 6-9 12-12 12-13 14-13 28 0 13 1 17 5 24 5 7 11 11 18 12 4 0 6 1 10 4 3 3 5 4 7 3 4-1 5 1 4 9 0 7 0 7 3 11 3 3 6 4 10 6 29 9 52 15 81 20 6 1 12 2 14 3 5 2 7 2 10 1z"/></svg>