<svg xmlns="http://www.w3.org/2000/svg" width="1344" height="566"><path d="M0 283V0h1344v566H0V283m358 277h204c153 1 157 0 162-5l3-3v-11c-1-8-2-12-5-19-2-6-3-11-3-15 0-9-3-22-6-32-2-5-5-12-6-15-3-9-7-17-9-19-1-2-1-6-1-15 0-11 0-12-2-14s-9-6-17-9c-2-1-13-5-24-9-21-9-28-12-45-19-19-7-31-13-35-16-2-1-3-4-4-6-2-9 4-40 12-63 4-12 6-18 7-33 1-13 1-18-3-37-3-20-5-31-8-42-2-6-4-14-5-18-2-10-4-16-11-36-10-31-16-45-27-56-8-10-14-15-27-23-15-10-17-11-32-19-19-9-21-10-43-9h-19l-14 7c-27 14-41 21-45 25-8 6-15 15-22 29-10 20-14 33-19 66-6 31-11 104-11 154 0 30 0 33 5 52 4 12 5 20 3 23s-8 6-25 12c-18 6-23 8-32 14-13 11-40 28-49 32-14 8-17 12-17 25 0 4-2 11-6 24-3 9-6 20-7 24s-2 9-3 13c-3 10-5 28-5 34 1 3 1 6 3 8l2 2h60c33-1 90-1 126-1z"/></svg>