<svg xmlns="http://www.w3.org/2000/svg" width="1344" height="566"><path d="M0 283V0h1344v566H0V283m388 278c28-1 60-1 71-1 24 1 21 1 105 0 48 0 67 0 73 1 5 1 21 1 49 1 50 0 47 1 49-14 0-3 1-8 2-12 1-7 1-8-6-15-2-3-5-8-7-12-3-7-3-7-11-4h-9c-4-1-6-2-9-4-4-4-6-5-16-9-5-2-14-6-21-10-20-12-36-21-41-22-7-3-20-10-24-14-6-5-6-7-5-17 2-10 7-26 10-31 2-4 5-6 12-7 2-1 7-2 10-4 4-1 9-2 13-3 19-3 32-10 36-20 1-1 2-12 2-26 1-13 1-25 1-26 1-1 2-13 4-26 5-35 4-47-4-84l-3-16v-36c-1-36-1-43-6-60-4-14-10-20-25-30-11-8-63-32-79-37-26-8-50-10-76-6-7 1-17 5-29 11s-34 16-45 20c-13 4-16 6-21 12-6 6-11 14-16 28-5 13-13 39-16 51-2 12-8 52-10 65 0 6-2 17-2 24-1 7-3 25-4 40-1 16-3 36-4 44-1 9-3 24-3 33-1 9-3 27-4 41-2 13-5 33-7 45-5 35-6 38-25 57-11 11-23 22-38 32-8 6-20 18-23 24-6 12-3 16 12 18 8 1 66 1 140-1z"/></svg>