<svg xmlns="http://www.w3.org/2000/svg" width="1344" height="566"><path d="M0 283V0h1344v566H0V283m758 251c4 0 12-1 20-2 6-1 16-3 22-3 13-1 47-8 57-11 3-1 10-3 16-5s14-4 19-6c12-3 24-4 45-3h20c3-1 4-5 4-18 1-11 0-28-3-37-1-2-2-10-3-19 0-9-2-17-2-20-1-2-1-7-1-12 0-9-2-14-5-16-2-1-9-4-17-6-48-12-47-12-46-24 1-5 0-14-3-19-1-2-3-4-5-5-6-3-7-7-4-12l2-4-5-12c-3-7-7-17-9-22-5-12-10-26-10-31-1-2-2-7-4-11-1-3-5-12-7-18-3-10-20-53-28-73-4-10-13-24-22-34-15-15-26-22-51-30-26-9-44-10-70-4-24 7-36 12-50 21-9 6-16 14-23 23-6 9-8 13-12 25-6 13-6 13-8 24-2 10-2 12-2 44 1 18 2 48 3 66 1 17 1 34 1 36-1 3-2 6-4 8-3 3-20 16-29 20-9 5-18 15-21 25-1 5-6 10-8 10-1 0-4 1-8 3-3 2-7 3-7 3-1 0-3-1-5-3-2-1-5-2-6-2-2 0-11 5-15 8-3 2-8 4-21 8-12 5-17 8-23 15-3 4-7 8-8 9-6 4-15 6-22 6-6 0-6 0-10 4-8 6-20 37-21 52s0 19 1 23c3 8 5 8 24 5 6 0 13-2 15-3 9-3 24-5 32-4h11c1-1 9-1 15-2 12-1 23-3 27-5 3-2 16-2 20-1 1 1 6 2 11 3 7 0 11 2 18 5 20 10 28 11 71 11 17 0 35 0 40 1 4 0 15 1 25 2 23 1 31 3 39 6 7 2 9 3 18 10 3 2 4 2 8 1h14z"/></svg>