<svg xmlns="http://www.w3.org/2000/svg" width="1344" height="566"><path d="M0 283V0h1344v566H0V283m366 278c32 0 42 0 44-1s4-1 9 0c6 1 7 1 10 0 3-2 5-2 14-1 5 1 23 1 40 1h135c173 1 181 1 199 0 22-1 22-1 22-12 0-3 0-8 1-10 2-6 2-17 0-23-3-9-7-12-44-30-59-30-73-37-75-38-1-1-3-2-5-3-1-1-4-3-5-4-4-4-4-8 0-19 5-11 7-22 9-32 1-8 5-22 10-32 4-9 7-18 9-33 1-8 3-17 4-21 0-3 1-11 1-16 0-11-2-39-4-49-1-7-3-20-6-42-3-26-10-58-16-78-5-14-18-37-26-49-11-14-32-32-47-40-12-7-33-16-43-19-9-2-12-2-22-2-11 0-14 0-30 4-9 2-19 5-22 7-3 1-10 4-15 5-19 4-30 10-43 24-18 19-31 43-41 82-9 29-12 46-18 94-8 67-8 95-2 132 2 8 9 43 12 58 1 7 1 7-1 11-1 3-3 4-8 6-11 4-20 7-26 8-9 1-17 5-43 21-14 8-32 18-42 23-17 9-33 19-38 24-4 4-6 6-8 18-1 5-3 13-5 18-5 13-4 16 4 18 2 1 19 1 37 0h75z"/></svg>