<svg xmlns="http://www.w3.org/2000/svg" width="1344" height="566"><path d="M0 283V0h1344v566H0V283m610 278c53 0 74 0 77-1 6-2 7-4 8-19 1-8 1-16 2-19 0-5 0-7-3-13-2-3-6-9-9-13-2-3-7-9-9-13-6-10-15-19-29-28-6-4-14-10-18-13-22-17-32-25-34-27-3-3-2-9 2-14 2-3 5-7 7-11s5-9 7-11c5-6 5-8 8-25 1-7 3-14 4-16 1-3 8-9 15-13 6-4 11-12 12-23 1-9 4-19 6-23 0-2 2-7 3-13 0-6 1-11 2-12 0-1 1-5 2-9 0-4 2-10 3-13 4-10 4-18-1-38-5-18-6-30-5-53 1-15 0-39-2-51-5-22-14-34-35-47-23-13-32-17-69-28-10-3-22-4-34-1-6 1-14 1-25 1-19 0-24 1-39 6-17 7-34 18-44 29-8 8-16 21-20 34-5 17-15 52-18 68-7 39-11 60-19 114-2 13-4 27-5 32-7 68-10 77-30 92-10 7-21 12-35 16-6 2-14 4-18 5-8 4-28 15-48 27-11 7-24 22-30 36-2 6-7 23-8 29-1 2-3 12-6 23-7 27-7 33 0 35h435z"/></svg>