<svg xmlns="http://www.w3.org/2000/svg" width="1344" height="566"><path d="M0 283V0h1344v566H0V283m1307 274c4-1 12-1 17-2 14-1 15-2 17-18 1-14 1-93 0-193-1-82-2-98-8-112-1-2-4-10-7-16-7-20-15-35-30-55-2-3-9-14-16-24-13-20-20-28-26-31-3-2-6-5-7-7-3-3-9-6-23-11-4-2-11-4-15-6-8-4-12-5-36-7-13-1-27-4-32-5-2-1-5-3-8-5-7-6-11-7-35-8-42-1-52 3-76 27-13 14-25 29-30 41-4 11-9 25-9 28 0 1-1 6-3 11-6 16-7 40-7 84 1 38 2 47 5 55 4 7 12 15 19 19 6 3 14 10 19 17 3 4 10 26 10 33 0 5 0 6-3 11s-9 10-12 11-30 8-38 9c-8 2-8 2-17 10-5 4-9 9-10 11-3 4-2 5 4 8 2 1 4 3 4 3 0 3-4 7-16 19-22 21-53 61-60 75-1 3-2 7-2 10 0 4 1 6 4 9 6 7 12 9 27 10 20 1 391 0 400-1z"/></svg>