<svg xmlns="http://www.w3.org/2000/svg" width="1344" height="566"><path d="M0 283V0h1344v566H0V283m503 277c13-1 24-1 25-1 1 1 14 1 28 0h28c7 2 50 2 85 1 25-1 37-1 51 0 30 2 63 2 74 1 9-1 22-2 78-1 145 1 162 0 165-1 7-4 3-26-9-42-6-7-9-13-12-22-3-10-7-13-30-23-5-2-15-6-22-9l-22-11c-20-8-28-14-28-20 0-2 6-20 13-36 19-43 20-50 19-118-2-98-9-145-27-184-10-19-19-32-34-44-16-13-26-19-46-25-22-7-35-9-48-5-6 2-8 2-20 1-12 0-14 0-21 2-9 3-19 9-35 20-36 26-50 51-69 125-7 28-15 67-18 90-1 3-1 8-2 10-1 4-2 18-6 69 0 12-2 26-2 32-3 17-7 23-22 29-5 2-11 4-13 5-2 2-9 4-13 5-5 2-14 5-18 7-5 2-12 4-15 5l-12 6c-6 5-18 10-34 18-7 3-26 10-35 12-5 1-14 10-16 15-2 4 0 14 3 21 1 4 2 8 2 11 0 5-4 17-10 33-4 10-6 17-6 19 1 1 2 3 4 4s5 2 20 2c10 0 20 1 23 0 2 0 15 0 27-1z"/></svg>