<svg xmlns="http://www.w3.org/2000/svg" width="1344" height="566"><path d="M0 283V0h1344v566H0V283m760 277c11-3 14-4 15-7 0-2 0-9-1-17-1-7-1-17 0-22 0-5 0-14-1-20-2-25-3-59-1-80 3-41-1-72-11-97-5-12-8-16-23-31-12-12-17-19-17-23 0-5 5-25 10-40 3-10 7-19 7-21 1-3 2-16 2-30 1-21 1-27-1-41-6-49-19-68-65-90-29-15-48-18-84-14-51 5-73 18-92 53-8 16-12 28-14 47-4 22-6 34-8 37-1 1-3 3-5 4-6 3-8 6-7 17 1 24 1 30-2 36-3 7-12 20-19 28-5 6-17 14-23 16-13 3-77 42-96 58s-39 37-49 52c-21 30-23 34-26 42-7 26-8 31-11 62-1 15-1 17 1 25 1 8 1 12 1 28-1 18-1 20 1 23 3 5 4 5 59 4 138-2 173-2 226 0 31 2 65 2 100 2 29 0 67 0 84 1 36 1 37 1 50-2z"/></svg>