<svg xmlns="http://www.w3.org/2000/svg" width="1344" height="566"><path d="M0 283V0h1344v566H0V283m982 277c2-2 2-6 1-13-2-4-6-29-7-39-1-4 1-29 2-32 0-1 2-3 5-4 2-1 4-3 4-3 0-1-5-5-10-9-12-9-14-11-14-20 0-10-3-14-20-32-22-22-30-26-52-27-11 0-13-1-18-3-7-3-7-4-10-11-1-4-2-9-3-17-1-13-3-17-11-22-4-2-5-2-12-2-8 0-14 2-20 6-5 5-6 8-7 18-1 15 5 33 13 44 3 4 3 11 0 14-2 3-8 6-16 9-3 1-6 2-7 3-2 3-1 8 1 10s3 2 18 2h15l3 3c2 1 5 6 7 9 3 4 6 10 8 12 4 7 13 22 13 23 0 0 1 2 3 4 3 4 5 11 8 27 2 8 3 13 7 21 5 12 7 15 7 22 1 3 2 6 3 6 2 3 22 4 59 3 24 0 29 0 30-2z"/></svg>