<svg xmlns="http://www.w3.org/2000/svg" width="1344" height="566"><path d="M0 283V0h1344v566H0V283m79 276c15-1 33-2 39-2 9-1 34-2 79-2 78 0 82 0 87-7 2-4 2-16-1-30-2-8-4-23-5-35-3-36-5-50-6-58-1-4-2-10-3-13-2-19-12-53-21-72-7-16-19-27-50-47-21-14-21-14-20-18 0-4 10-24 15-31 2-3 4-8 6-11 2-5 2-6 2-14-1-9-1-10 5-19 2-3 4-6 5-8 1-5 4-10 9-16 6-6 8-11 10-20 0-6-2-15-8-29-8-15-10-24-11-43-2-27-3-31-12-49-4-9-9-18-10-20-3-5-9-9-15-10C166 4 9 3 4 4L1 5v274c0 255 0 274 2 277 3 6 0 6 76 3m515 0c72-1 232-1 341 0 131 2 175 2 177 0 3-2 2-6-1-16-7-17-12-26-27-41-5-6-12-13-14-16-6-8-21-21-38-35-8-6-20-16-27-22-14-13-27-23-41-33-5-3-14-10-20-14-12-10-17-14-22-15-2-1-10-1-18-2-18-1-23-2-31-9s-12-14-14-24c-2-9-1-28 3-40 3-13 5-17 14-26 17-19 29-45 29-62 0-4 0-10-2-16-4-11-4-14 0-36 2-14 1-36-2-47-4-15-12-28-23-39-12-12-34-25-52-31-27-9-63-9-89 0-15 5-36 19-46 30-8 9-16 23-19 36-2 9-7 45-8 71-1 16-2 27-6 50-2 10-1 26 1 42 4 20 6 26 14 42 4 7 8 16 10 20l9 18 7 14c1 6-5 10-34 25-29 14-41 21-61 36-32 24-44 36-59 56-5 6-11 14-14 17-6 9-12 20-14 27-1 3-4 11-6 18-5 15-5 19 0 22 2 0 24 2 29 1 1 0 25 0 54-1z"/></svg>