<svg xmlns="http://www.w3.org/2000/svg" width="1344" height="566"><path d="M0 283V0h1344v566H0V283m360 277h184c38 0 91 1 120 1 34 1 69 0 74-2 8-3 10-11 13-39 2-22 1-28-4-35-4-6-18-17-41-32-30-21-48-34-48-38 0-1 2-4 5-7 6-7 8-11 12-20 1-4 6-16 11-27 15-32 17-41 22-77 5-43 5-51 4-110-2-69-11-91-47-120-20-17-47-34-61-39-10-3-24-4-34-1-4 1-12 2-20 3-28 2-42 6-50 12-6 5-21 18-29 26-7 7-8 9-20 32-6 14-13 30-15 35-6 16-14 47-19 70-1 8-3 18-4 22-9 42-11 81-7 110 3 22 3 25 2 27-3 4-7 6-15 8-10 2-21 6-36 13-7 3-15 6-17 7s-12 1-21 2l-17 1-16 8c-9 4-21 10-26 12-13 6-17 9-24 19-7 9-7 10-12 23-11 35-19 48-62 97-10 12-11 14-10 17s7 4 29 3c8 0 89 0 179-1z"/></svg>