<svg xmlns="http://www.w3.org/2000/svg" width="1344" height="566"><path d="M0 283V0h1344v566H0V283m724 168c5-1 15-1 23-2 8 0 17-2 20-2 3-1 8-3 11-3 4-1 10-3 14-3 6-2 11-3 26-8 23-7 47-8 70-4 10 2 10 1 10-12 0-5-1-15-2-22-1-8-3-25-3-38-1-13-2-26-3-28-1-3-4-7-9-13-8-9-8-9-15-11-9-3-13-6-13-12 0-2-1-6-3-9l-2-5 3-3c4-4 4-6 4-20-1-17-11-70-18-94-2-6-5-16-9-33-2-12-8-27-13-37-10-20-23-33-48-47-25-15-37-17-63-10-7 2-15 4-20 4-16 3-28 10-37 23-9 11-15 24-19 43-2 5-5 30-7 52-1 6-2 13-2 15-1 4-1 20-2 54v51c0 2-5 4-22 8-14 4-17 4-34 4-24 1-24 1-39 15-14 14-25 23-38 31-6 3-14 9-18 12s-9 7-13 9c-6 3-7 4-15 4-7 0-9 0-11 1 0 1-3 6-5 11s-5 13-7 16c-5 10-9 21-13 31-1 5-4 12-5 16-4 10-3 11 3 12 3 1 6 1 13-1 5-1 10-3 11-3 2-1 7-1 12-1 12-1 34-3 53-7 8-1 17-3 20-3s7-2 9-3c4-1 5-1 12 0 5 1 12 2 16 4 7 2 12 3 27 6 6 1 25 3 40 4 8 0 13 0 15-1 6-2 26-2 37-1 5 1 13 2 17 3 9 0 22 4 26 6 3 2 5 2 16 1z"/></svg>