<svg xmlns="http://www.w3.org/2000/svg" width="1344" height="566"><path d="M0 283V0h1344v566H0V283m832 278c30-1 65-1 77-1h85c71 0 118-1 123-4 4-2 5-4 5-10-2-7-11-34-20-52-2-6-7-17-10-24-3-8-6-15-7-17-2-5-12-18-18-24-3-4-8-11-11-15-4-5-10-14-14-20-9-15-18-30-20-35 0-3-2-7-3-11-1-6-1-7 1-9 1-1 3-3 5-3 8-2 16-4 28-8 9-2 15-4 17-3 2 0 4 0 5-1 4-3 9-12 10-20 2-16 2-17-1-25-5-13-8-26-11-43-1-7-2-14-4-17-2-6-12-16-20-21-17-11-28-17-41-23-23-10-28-13-33-18s-9-15-13-29c-1-4-4-13-6-19-6-14-21-45-28-55-11-16-35-36-50-42-4-2-11-4-16-5-13-2-87-4-105-2-19 1-23 2-37 8-9 4-12 5-19 11-4 4-8 7-8 7l-13 13c-11 12-21 26-26 37-7 17-9 21-13 26-2 3-8 10-12 16-11 14-11 14-11 29 1 13 1 14 5 23 2 6 5 12 7 15s5 11 8 19c5 14 8 19 11 20 6 1 8 3 12 8 2 4 8 11 12 16s8 11 10 14c3 8 7 24 8 36 2 23 4 28 17 35 5 3 11 8 18 14 5 6 13 14 17 18 9 7 13 15 13 21 0 4-2 9-9 25-11 24-11 24-19 33-10 10-14 18-21 40-6 18-16 60-16 65 0 2 1 4 2 6 4 3 37 3 139 1z"/></svg>