<svg xmlns="http://www.w3.org/2000/svg" width="1344" height="566"><path d="M0 283V0h1344v566H0V283m753 250c8-2 23-5 29-7 4-1 9-2 13-3 8-1 18-4 33-8s18-5 27-7c4-1 11-3 15-4 14-4 26-7 32-8 5-1 19 0 35 2 10 1 10 0 10-19 0-10-1-20-1-25-1-4-3-16-4-27-2-23-4-31-6-36-1-3-6-6-12-7-7-2-28-8-35-11-10-4-10-6-11-25 0-14 0-15-2-17-1-2-4-3-6-4-5-1-9-5-9-7 0-3 4-5 9-6 7-1 7-2 1-16-1-2-4-11-7-20-4-8-7-16-8-18 0-2-1-6-2-8-1-3-3-10-5-15-2-6-6-17-9-25-3-9-8-24-12-35s-8-23-10-26c-3-9-8-18-15-28-7-9-20-22-27-27-10-7-43-21-56-24-10-2-32 1-72 11-21 5-34 14-43 33-4 9-10 22-13 35-4 11-6 26-7 45-1 10-2 26-3 36-1 14-1 24-1 49l1 32-3 3c-2 2-7 6-12 8-37 20-43 26-50 44-2 5-5 9-7 11-3 3-4 3-10 3-3 0-8 0-10-1s-3-1-14 5c-6 4-17 9-24 11-10 4-12 5-17 10-3 3-7 7-8 9-4 6-14 10-25 11-10 1-12 2-17 11-6 12-12 27-13 32-1 3-2 9-3 12-3 10-3 18-2 21 2 4 5 5 24 5 14-1 17-1 21-3 2-1 8-3 14-5 8-3 11-3 15-2 11 1 43-1 57-5 8-3 11-2 20 0 4 2 10 3 13 4 3 0 6 1 7 1 2 1 5 2 9 3s10 3 13 4c7 2 11 2 51 2 27 1 46 1 51 2 3 1 12 1 20 2 7 1 15 1 17 2 13 3 23 8 29 13 4 4 7 6 12 7s6 1 13 0z"/></svg>