<svg xmlns="http://www.w3.org/2000/svg" width="1344" height="566"><path d="M0 283V0h1344v566H0V283m811 277c2-1 4-3 5-4 3-6-1-45-9-83-2-13-3-20-3-27 0-12 0-15 16-63 8-26 9-28 12-37 2-7 2-12 2-22 0-14 0-15-6-30-7-17-8-21-8-42-1-11-1-22-2-25-1-7-1-9 5-12 5-3 6-5 6-15 0-7 0-12-3-22-1-7-4-19-4-26-1-8-2-16-3-19-1-8-11-20-21-25-3-2-5-2-16-2-7 0-13 0-15 1-5 2-12 8-17 15-4 6-10 25-11 34-2 10-3 12-9 16-10 8-14 14-17 27 0 5-2 13-3 19s-3 14-3 18c-1 4-2 9-2 11-2 8-14 27-19 29-1 1-2 1-5-1-9-6-16-8-23-8s-9 1-11 5c-2 3-2 3 0 8 3 6 6 9 11 11 2 2 4 4 7 11 3 5 6 11 8 13l4 4h7c6-1 9-2 18-6 7-4 13-6 15-6s5-1 8-2c3-2 6-3 7-3 3 0 5-2 4-5 0-2 4-7 6-7s3 1 3 5c0 2 2 6 3 9 3 7 3 13-3 26-2 6-6 16-9 21-6 12-6 17-2 20 1 1 4 2 6 2 13 2 11 3 18-3 6-5 15-10 19-10 2 0 11 7 13 11 0 2 1 4 1 6 0 4-6 17-16 35-18 30-17 29-17 57 0 21-1 23-3 27-4 8-11 20-14 24-3 3-3 5-3 8 1 2 2 5 4 6 3 3 4 3 6 2 2 0 6-2 8-3 8-5 9-6 14-6 7 0 13 7 19 22 2 4 4 8 5 9s4 2 13 3c0 0 3-1 4-1z"/></svg>