<svg xmlns="http://www.w3.org/2000/svg" width="1344" height="566"><path d="M0 283V0h1344v566H0V283m888 274c4-3 8-12 9-21 0-3 1-13 1-22s0-18 1-21c1-7 1-13 0-21-1-4-3-13-4-20 0-6-2-15-4-20s-3-11-3-15c-1-6-2-11-8-31-1-4-2-9-3-11s-2-7-3-9c-4-14-6-21-6-22 0-2-3-10-6-18-3-9-7-20-8-25-11-32-33-61-55-71-14-8-20-15-21-28 0-5 0-11 1-16 6-28 4-48-6-63-14-21-34-31-58-27-5 1-10 2-11 2-1 1-7 3-13 5-9 3-12 5-18 10-15 12-28 30-31 42-1 6-1 25 0 32 1 3 2 6 4 9 5 5 6 8 7 18v10l-5 9c-3 5-6 12-8 17-6 22-9 28-14 38-2 6-7 15-9 19-2 5-6 12-8 14-2 3-4 6-5 8-14 20-18 25-36 41-10 9-20 18-23 21-5 6-11 11-17 13-3 2-17 2-29 0-5 0-6 0-9 2-4 2-7 2-14-2-6-2-8-2-17 0-6 2-8 4-8 7 0 2-1 4-1 6-2 3-7 5-23 10-9 3-12 5-12 11 0 5 6 18 9 22 5 5 14 8 32 10 10 1 12 1 51-7 27-5 26-5 43 11 11 13 12 13 25 19l14 7 5-2c4-1 5-1 11 0 8 1 35 15 38 19 1 1 1 3 1 7l-1 6 11 11c14 14 15 15 40 15 9 1 17 1 19 2h87c81 0 86 0 88-1z"/></svg>