<svg xmlns="http://www.w3.org/2000/svg" width="1344" height="566"><path d="M0 283V0h1344v566H0V283m749 276c30-1 56-1 58-2 7-1 11-6 19-27 6-16 12-33 14-44 3-14 6-16 11-8 2 2 4 6 6 9 1 3 6 9 10 13 21 24 23 25 43 35 6 3 13 7 15 8 2 2 5 4 8 5 8 2 19 4 25 4 9 0 35-3 38-4 2-1 5-1 7-1 3 0 3 1 5 4l4 4c1 1 10 1 20 2 17 1 18 1 29-1 6-1 15-2 18-3 9-1 12-3 14-9s1-12-3-18c-7-10-15-18-24-24-7-5-12-10-15-14 0-2-2-7-4-14-2-6-4-12-5-14-7-13-21-24-43-32-12-4-14-6-32-21-4-4-13-10-19-14-11-6-12-7-24-21-22-24-23-26-23-35s-1-14-8-28c-3-7-7-17-9-23-1-5-2-10-3-10 0-1 0-22-1-47 0-69-2-92-11-119-6-19-14-30-27-36-10-5-30-12-41-14-26-4-59 3-77 16-8 5-16 17-22 29-8 16-13 32-24 76-8 30-9 36-13 46-2 4-5 11-7 17-5 15-14 32-19 39s-21 23-39 41c-7 8-18 20-23 27s-12 16-16 20c-25 33-49 67-55 80-4 7-12 31-16 46-6 22-6 26-7 37 0 11 0 13 2 16 2 5 9 8 18 9 14 1 187 1 246 0z"/></svg>