<svg xmlns="http://www.w3.org/2000/svg" width="1344" height="566"><path d="M0 283V0h1344v566H0V283m1091 277c8 0 11-1 12-2 2-2-2-14-7-24-4-9-8-15-21-29-5-6-12-13-14-17-6-7-17-18-29-27-12-8-18-13-37-32-17-15-25-21-45-36-4-3-11-9-17-13-14-11-17-12-37-13s-26-3-36-13c-5-5-7-8-10-14-5-14-6-29-2-50 2-12 4-16 14-28 14-17 22-31 26-45 3-10 3-16 0-27-2-9-3-19 0-30 1-7 1-15 1-29 0-19 0-20-2-28-8-22-18-35-39-48-18-12-35-19-52-23-14-2-49-2-61 0-14 3-23 7-35 15-33 22-45 42-46 82-1 7-2 19-3 27-1 9-2 19-3 24 0 5-1 17-3 26-4 28-4 28-2 42 5 32 9 47 13 56 2 3 5 10 7 16 7 17 8 19 16 26 4 3 9 7 11 8 4 2 7 7 6 10-2 4-6 6-50 29-18 9-33 20-60 41-19 16-31 27-39 37-4 6-10 13-13 18-14 17-19 25-25 48-5 14-5 17-1 20 2 2 2 3 22 3 11 0 43-1 72-1 88-2 171-2 208-1 19 1 70 1 114 2 44 0 89 1 100 1 19 1 47 1 67-1m-980-2c18-1 38-1 44-1 6-1 12-1 13-2 2-1 3-4 5-16 1-8 1-11-3-27s-6-29-9-52c-5-37-11-73-15-86-6-24-18-47-33-64-7-6-25-20-34-26-8-5-16-11-17-14 0-1-1-4-1-7 0-6 2-10 10-24 3-6 4-10 1-16-3-8-3-8 8-22 3-4 5-8 6-13 3-7 4-9 7-13 10-10 11-20 4-37-12-29-15-41-13-59 2-15 0-22-8-36-3-5-8-14-10-19-6-13-9-17-14-19C48 3 8 2 4 4L1 5v550l3 2c1 1 4 2 6 2 7 1 69 0 101-1z"/></svg>