<svg xmlns="http://www.w3.org/2000/svg" width="1344" height="566"><path d="M0 283V0h1344v566H0V283m892 278c24-1 55-1 68-2 23 0 25 0 27-2 1-1 2-3 1-4 0-2-5-13-11-26-5-13-10-24-10-24 0-1-4-10-10-21-8-18-16-35-20-45 0-2-1-5-1-6 0-4-2-10-6-14-1-2-4-6-6-10s-8-15-13-25c-5-9-10-19-12-21-2-3-5-7-6-9-3-5-12-32-13-39 0-6-1-4 14-18 13-11 20-27 23-51 1-8 3-21 4-28 2-8 3-21 4-29 1-21 0-33-5-49-15-46-26-63-59-86-21-16-41-22-73-24-14 0-17 0-27 2-6 1-16 3-21 4-18 2-47 10-60 16-9 4-25 15-32 22-4 3-9 9-12 14-16 23-22 48-22 82 0 19 2 33 7 52 4 14 6 26 10 48 1 12 4 25 9 42 2 6 5 17 7 23 14 51 24 64 53 67 17 2 22 3 24 5 4 2 13 15 14 20 1 6-1 8-13 20-6 6-15 16-20 22-4 6-15 17-23 25-12 13-16 17-20 25-6 9-14 29-15 36-1 4 1 7 6 8 3 1 133 0 239 0z"/></svg>