<svg xmlns="http://www.w3.org/2000/svg" width="1344" height="566"><path d="M0 283V0h1344v566H0V283m602 278c21-1 45-1 150-1 52 1 54 1 56-1 5-3 5-8 5-23-1-22-6-45-17-78-3-10-8-22-10-26-5-8-5-10-2-22 2-8 1-10-8-14-22-11-53-24-80-36-11-4-17-8-19-12s-2-18 0-34c1-6 3-17 4-24 0-8 1-16 2-19 1-8 1-34 0-48-1-7-2-16-3-21 0-4-1-12-2-17 0-5-1-15-2-21-1-7-2-17-3-22-1-6-2-14-3-18-1-10-8-29-14-41-7-14-29-39-41-46-10-7-22-12-36-17-12-4-13-4-25-4-11 0-12 0-22 3-8 3-14 4-21 5-5 1-11 2-14 3-13 4-28 18-39 34-16 23-28 61-36 111-8 53-11 79-11 103 0 19 0 21 3 36 4 19 4 21 4 26-2 8-13 15-28 16-5 1-10 2-11 3-2 1-8 3-13 5s-12 5-16 7-14 8-24 13c-31 16-30 16-32 20s-3 8-5 19c-2 14-4 24-8 38-5 19-8 38-11 66-2 22-2 26 2 31 5 5 8 5 46 5h91c31 0 64 0 75 1 28 1 93 1 118 0z"/></svg>