<svg xmlns="http://www.w3.org/2000/svg" width="1344" height="566"><path d="M0 283V0h1344v566H0V283m754 279h48c17 0 40 0 49-1 22 0 22 0 22-11 0-4 0-14 1-21 2-20 0-25-16-35-3-2-8-6-12-9-10-8-37-24-59-36-24-12-27-15-54-36-26-22-27-23-27-37 1-12 8-39 13-49 2-4 23-25 30-30 5-3 7-6 13-17 6-9 7-15 7-34 1-21-2-64-3-76-1-6-3-14-4-18-2-8-11-29-16-37-9-16-27-33-43-41-11-5-23-8-41-9-36-2-46-1-64 12-18 11-28 23-39 45-8 17-14 31-15 44-1 10 0 32 3 48 1 11 2 19 0 42-2 34-6 60-11 73-7 16-8 17-24 24-8 4-12 5-24 7-28 4-48 9-57 14-9 4-14 13-18 28-2 8-2 11-2 34 0 13 0 29 1 34 1 13 6 36 10 51 2 6 4 14 5 17 2 8 6 16 9 18 4 3 9 4 28 5 35 1 135 2 203 1h87z"/></svg>