<svg xmlns="http://www.w3.org/2000/svg" width="1344" height="566"><path d="M0 283V0h1344v566H0V283m898 279c22-2 23-3 19-15-6-14-3-22 7-22 13 0 28-4 46-13 13-7 16-13 17-35 0-13 0-14-2-18-4-8-18-22-46-46-29-25-36-33-38-39s0-18 3-26c1-4 2-10 3-17 1-5 2-14 3-19 2-8 2-12 2-23 0-15-1-20-9-41-11-26-19-39-33-51-15-14-31-21-51-24-11-2-34 0-59 4-24 4-29 5-44 10-22 7-32 13-36 20-3 4-3 6-3 21-1 15-1 16-5 30-5 14-8 28-8 38 0 12-4 28-13 52-3 6-3 7-3 18l1 12-3 5c-4 7-11 14-20 22-10 8-13 9-21 5-6-2-8-1-13 7-2 3-6 7-8 9-3 1-6 4-9 6-2 2-6 4-8 4-3 1-5 2-6 5-2 4-3 13 0 18 5 13 6 19 7 39 0 12 0 23-1 26 0 6-1 6-11 15-2 2-2 3-2 7 1 7 3 8 18 9 7 1 16 1 20 2s10 2 14 2c4 1 31 1 66 1 42 0 62 0 71 1 14 2 134 2 155 1z"/></svg>