<svg xmlns="http://www.w3.org/2000/svg" width="1344" height="566"><path d="M0 283V0h1344v566H0V283m358 276c76-1 134-2 140-3 2-1 6-1 10 0 14 2 150 4 167 3 12-1 14-2 12-7-1-2-3-8-5-14-10-28-16-41-26-52-8-9-8-9-32-19-27-11-39-15-76-28-46-16-47-17-49-20-5-6-1-19 13-43 4-5 7-10 8-11 2-3 9-5 19-6 20-2 35-7 44-14 6-6 8-12 9-27 0-7 1-14 2-15 0-2 1-5 1-8s1-9 2-14c7-27 8-38 8-55 0-15 0-17-8-40-8-25-11-48-11-80 0-19 0-24-2-33-2-11-6-23-12-33-4-9-16-21-26-28-12-8-10-8-108-7-111 0-105-1-125 18-17 16-29 37-40 67-6 19-9 27-12 39-2 7-6 20-8 27-2 8-6 23-8 32-5 19-7 27-12 40-2 8-14 48-18 62-4 15-7 24-12 38-2 6-5 16-7 21-2 6-5 15-8 22s-6 15-6 19c-1 3-5 14-8 24-6 17-6 21-6 27 0 15 3 22 11 29 4 3 5 3 10 3 7 0 9 1 7 6-1 2-12 13-24 26-26 26-29 30-29 42 0 13 1 13 85 12h130z"/></svg>