<svg xmlns="http://www.w3.org/2000/svg" width="1344" height="566"><path d="M0 283V0h1344v566H0V283m772 278c7-1 12-1 18 0 11 1 87 1 115 0 14-1 44-1 92 0 53 1 75 1 87 0 17-1 19-2 21-7s-2-26-13-65c-5-18-14-52-16-61-3-16-11-39-19-57-7-15-14-21-29-28-11-6-38-16-52-20-3-1-11-4-18-6-7-3-17-6-22-8-17-6-25-12-58-45-14-15-18-19-19-23s-1-27 0-37c1-5 2-9 4-14 2-3 6-9 7-12 7-11 8-20 8-38 0-14 0-15-4-31-3-9-7-23-9-31-7-26-10-34-20-53-6-13-9-17-17-19-7-2-90-3-154-2-57 1-54 0-63 14s-16 31-17 45c-1 5 1 44 3 56 1 4 3 15 5 25s6 27 7 37c4 20 6 25 16 39 7 11 11 15 19 20 13 8 25 21 36 42 6 10 6 14 3 20-2 4-7 8-11 11-2 1-7 5-11 9s-9 9-11 10-7 5-11 7c-4 3-13 8-19 12-22 11-48 29-49 33-1 3-1 5 1 14 6 20 5 26-4 62-3 10-6 22-6 27-4 18-12 36-23 49-9 9-8 12 7 14 22 3 33 4 39 6 10 3 49 5 75 5 15-1 25 0 32 1 12 1 65 1 80-1z"/></svg>