<svg xmlns="http://www.w3.org/2000/svg" width="1344" height="566"><path d="M0 283V0h1344v566H0V283m729 186c3-1 10-1 16-1 7 0 14-1 17-1 19-6 23-7 28-7 2-1 7-2 9-2 2-1 6-2 9-2 2-1 9-3 15-4 6-2 13-4 15-4 2-1 6-2 8-3 4-1 9-1 32-1 26 0 27-1 29-2 2-3 1-16-1-35-3-19-4-30-5-54 0-14 0-14-4-22-6-12-6-13-21-18-7-3-9-4-15-9-7-7-11-10-15-10-1 0-4-1-7-2-4-1-5-2-5-4 0-1 0-2 4-2 23 0 24 0 23-8-1-2-1-10-2-18-1-12-3-21-8-40l-4-16c-2-8-5-19-8-29-3-11-8-26-10-37-8-28-20-51-34-65-10-9-18-14-35-24-18-10-25-12-38-12-9 0-12 0-22 3-6 2-16 4-24 6-16 4-25 8-32 16-16 17-23 36-28 70 0 7-1 13-1 13-1 0-1 5-2 11-1 5-2 14-3 19-1 8-1 17-1 55 1 24 1 49 2 54 0 10 0 10-2 11-1 1-7 2-12 3-8 1-10 1-23-1-15-3-24-2-30 1-2 0-7 4-11 8s-9 8-11 9c-4 3-16 11-25 17-4 3-11 8-17 12-7 4-15 10-20 14-10 9-16 11-27 11-4 0-8 1-11 2l-3 1v7c1 6 1 6-5 19-12 29-14 35-15 39 0 2-1 8-2 11-3 9-2 11 2 13 3 1 4 1 9 0 4-1 9-3 13-4 5-1 10-2 21-2 17 0 31-1 48-4 9-1 16-2 19-2 3 1 6 0 8 0 5-2 24-1 31 1 4 2 25 5 40 7 5 0 14 2 19 2 14 3 18 2 24-1 4-2 5-2 22-2 10 0 19 1 23 1 4 1 10 2 13 2 11 2 20 4 24 8s5 4 16 2z"/></svg>