<svg xmlns="http://www.w3.org/2000/svg" width="1344" height="566"><path d="M0 283V0h1344v566H0V283m245 277c3-4 2-34-3-63-1-6-3-16-4-22 0-6-2-13-4-17-4-10-4-13 0-16 1-2 3-3 4-3 3 0 6-4 7-9 0-2 0-7-1-11 0-4-2-17-4-29-2-13-4-27-4-32-1-4-2-12-3-16 0-4-1-11-1-16-1-4-2-10-3-14 0-4-1-8-1-9-2-4 0-5 10-5s19-3 22-7 5-21 5-44c-1-23-1-22 11-36 7-10 10-15 11-23 0-5 0-6-2-9-4-6-10-7-23-4-4 1-6 1-10 0-8-3-15-2-26 2-12 4-12 5-12 18 0 8-1 10-2 13-2 3-2 5-2 8 1 4-1 7-3 7s-8-3-14-6c-2-2-8-4-13-6-15-6-21-10-21-15 0-3 5-8 10-10 2-2 5-4 6-5 2-3 4-14 4-26-1-8-1-11-3-15-5-10-6-13-7-18 0-2-1-8-3-13-3-11-9-16-26-22-25-7-50 0-60 17-3 5-3 7-3 14 0 17 0 16 16 36 3 3 8 11 11 16 3 6 8 15 11 19l5 9v9c0 5-1 13-2 18l-1 9-7 7c-6 5-7 7-8 12-3 9-3 11 3 17 11 12 14 17 19 31 2 5 4 9 9 13 7 8 9 12 16 27 6 14 7 16 12 17 4 1 5 1 13-3 10-5 13-5 18 0 2 3 5 4 8 4 8 2 11 10 7 23s-9 17-18 16c-8 0-15 3-23 12-4 4-8 7-9 7-2 0-6 2-7 5s-1 8 3 18c2 4 2 8 3 16 0 10 0 12 10 43 6 20 13 36 22 49 10 14 10 14 35 14 18 0 20 0 22-2z"/></svg>