<svg xmlns="http://www.w3.org/2000/svg" width="1344" height="566"><path d="M0 283V0h1344v566H0V283m695 278c34-1 36-1 38-3 1-2 1-4 1-14 0-7-1-17-1-22-2-13-2-25-1-29 2-4 8-8 10-8 1 0 6 3 11 6s12 7 15 9c4 2 14 8 24 13 20 10 32 13 46 13 8 0 9 0 25-8 17-7 18-8 26-16 14-14 34-42 45-63 2-5 8-33 8-41 0-5 0-6-4-9-5-5-8-5-23 1-11 5-12 6-22 6-11 0-18 0-24 3-5 1-9 1-13 0-3-2-10-10-11-14-1-2-1-9 0-17 0-15 0-17-9-21-3-1-7-4-10-7-4-5-5-5-9-5-3 0-9 1-14 2-6 1-12 1-17 1-21-2-28-3-32-4-3-2-8-2-18-2-15 0-28 2-44 6-19 5-20 4-16-13 2-5 5-16 8-26 8-32 11-48 11-63 0-6-2-26-4-32 0-2-2-8-2-14-1-5-2-10-2-11-1 0-2-6-3-13-2-14-8-40-11-51-2-4-4-12-6-17-6-23-22-48-39-63-10-8-27-20-36-24-11-5-19-6-36-6-10 1-16 1-24 3-5 2-15 3-21 4-7 1-14 2-17 3-18 7-37 27-48 50-14 31-21 65-23 119-2 55 0 79 10 123 1 8 1 16 0 20-3 4-7 7-20 13-11 6-32 20-45 31-7 6-21 21-24 25-3 7-2 21 4 57 3 21 3 23 3 45 0 19 0 24-1 30-1 3-2 9-2 11 0 4 1 4 4 4s4 0 5 3c1 4 2 4 9 6 2 0 7 2 10 4l6 4 18 1c29 1 256 0 295 0z"/></svg>