<svg xmlns="http://www.w3.org/2000/svg" width="1344" height="566"><path d="M0 283V0h1344v566H0V283m648 277h138c46 0 84 0 85-1 3-1 2-4-3-10-8-7-19-21-28-35-11-16-13-21-16-31-3-12-7-23-16-43-4-9-8-20-9-23-3-11-11-26-19-34-4-5-9-7-23-11-12-3-26-8-43-16-6-4-11-8-11-10 0-3 11-23 16-31 6-8 12-13 21-18 12-6 19-11 22-17 2-6 3-11 6-40 1-18 1-21 0-29-1-5-4-15-7-22s-7-19-9-25c-10-36-17-52-31-69-9-12-15-15-39-21-10-2-14-2-26-2-18-1-18 0-44 10-32 12-34 14-42 22-7 8-22 26-25 32-5 9-18 28-20 29-1 1-4 5-7 10s-6 10-8 12c-1 1-6 7-11 13-8 11-22 25-34 34l-13 13c-9 8-22 17-37 26-17 10-28 19-31 25-2 5-1 17 2 28s8 23 10 26c4 3 9 4 31 4 23 0 30 1 37 5 13 6 22 14 24 22s1 17-4 22c-3 4-15 27-17 33-6 20-22 63-31 84-6 14-10 25-10 30 0 3 2 6 4 7 4 3 77 3 218 1z"/></svg>