<svg xmlns="http://www.w3.org/2000/svg" width="1344" height="566"><path d="M0 283V0h1344v566H0V283m733 182c1-1 6-1 10-1 11 0 19-2 37-6 2-1 7-2 10-3 2 0 7-1 10-2 2 0 11-3 18-5 8-2 16-4 18-4 2-1 6-2 8-3 6-2 31-2 47-1 8 1 9 1 11-1 3-3 3-17-1-32-5-24-6-48-4-63 1-6 1-6-3-14-2-4-5-8-6-10-1-1-8-4-14-7-11-6-17-10-17-13 0-1-1-3-2-4-2-1-6-3-19-6-4-1-6-3-4-5 1-2 10-3 16-2 7 0 10-1 10-7 0-8-5-41-8-52-1-5-4-16-6-23-1-7-4-16-5-20-7-24-8-27-12-42-3-15-13-38-22-52s-28-30-51-41c-16-8-19-9-33-9-10 0-14 0-26 3-8 2-19 5-23 6-18 4-26 10-36 24-13 19-17 34-23 86-1 6-2 13-3 15-2 8-3 73-2 93 1 10 1 20 2 22 0 6-1 8-11 10-9 2-16 2-25 0-4-1-11-1-18-1-14 0-15 0-26 10-3 3-9 7-12 9-2 2-8 5-12 9-4 3-15 10-24 16-10 7-20 14-23 16-7 7-14 10-21 11-9 1-18 7-18 12 0 2-3 11-10 25-5 11-11 24-14 35-1 3-4 10-6 14-3 6-3 7-2 8 3 4 15 2 29-3 4-2 12-4 17-5 6-2 13-4 16-4 5-2 11-2 33-3 22 0 28 0 33-2 8-2 20-1 30 2 8 3 27 7 41 8 5 0 15 2 21 3 12 1 13 1 22-2 6-2 30-3 41-1 4 1 10 2 13 2 4 1 9 2 12 2 2 1 6 2 7 2 2 1 5 3 7 5l4 3 9-1c5 0 9-1 10-1z"/></svg>