<svg xmlns="http://www.w3.org/2000/svg" width="1344" height="566"><path d="M0 283V0h1344v566H0V283m614 278c8-1 57-2 108-2 89-2 152-2 236 0 12 1 54 1 94 2 39 0 73 0 75 1 6 0 42-2 44-2 4-2 3-12-3-25-3-8-13-21-18-25-1-2-8-9-16-18-7-8-13-15-14-15 0 0-5-4-11-9s-14-12-19-16-15-13-22-19c-15-14-26-23-41-33-6-5-16-13-23-18-6-5-14-9-16-10s-9-3-16-3c-21-2-24-3-30-9-3-2-7-7-9-11l-3-5v-14c0-18 3-37 6-45 2-4 4-7 8-10 14-12 23-23 30-41 9-20 10-35 4-47l-4-7 1-16c1-31 1-47-1-54-6-21-21-40-39-52-30-20-49-26-85-25-24 0-30 1-45 8-35 17-52 40-58 73-1 7-2 23-4 52-1 9-2 26-3 36-2 29-2 41 1 56 8 39 14 56 25 72 7 10 9 16 9 23-1 8-2 9-26 21-51 25-59 29-74 39-21 14-46 34-56 45-2 2-7 8-10 12-3 3-8 10-12 14-6 6-17 23-21 31-2 3-11 35-11 38 0 1 1 3 2 5 3 3 3 3 29 4 2 0 10 0 18-1m-386-3c6-1 13-1 16-2 4-1 32-1 111-1 9 0 21 0 27 1 7 1 19 1 30 1 18 0 19 0 21-3 2-2 2-3 2-13 0-6 0-17-1-25-3-22-6-46-7-53 0-4-1-10-1-15-1-5-2-11-2-14-2-16-8-36-15-53-9-22-18-36-31-50-15-14-30-24-56-36-32-14-35-16-32-23 3-9 11-24 16-33l6-9-1-13v-13l3-4c2-3 5-8 7-12 2-6 4-9 8-12 7-6 8-10 8-18s-2-17-7-35c-4-14-5-24-2-43 1-14 1-16 0-22-1-4-5-13-8-21-4-7-8-16-9-19-3-7-9-13-15-13C286 3 50 3 42 4 26 6 25 9 25 29c1 15 4 29 11 51 6 19 10 33 12 45 8 46 8 46 8 59-1 10-1 12-3 17-3 7-17 22-24 27-3 2-7 4-8 5-1 2-4 4-6 5-6 2-9 6-9 9 0 2-1 5-3 8l-2 4v292l2 3c1 2 3 4 5 5h29c15-1 36-1 47 0 24 1 131 0 144-1z"/></svg>