<svg xmlns="http://www.w3.org/2000/svg" width="1344" height="566"><path d="M0 283V0h1344v566H0V283m490 276c37-2 90-3 166-2 104 1 219 1 253 0 16-1 30-1 30 0h34c18 1 38 1 45 2 8 1 27 1 49 1 39-1 41-1 41-5 0-5-10-15-22-25-16-12-81-46-104-54-13-5-29-14-38-21-11-10-14-14-13-20 0-4 4-19 15-47 3-8 6-16 6-18 2-4 5-12 13-32 5-11 12-22 17-25 2-1 7-2 9-3 14-3 30-19 43-43 4-8 8-19 9-28 0-8-1-12-7-17-9-7-9-8-9-13 1-3 3-11 5-19 6-21 12-42 14-55 5-28 5-32 5-41 0-22-12-64-22-77-4-5-8-8-18-11-9-2-10-2-95-2-101-1-137 0-147 3-3 1-6 3-7 3 0 1-4 8-8 15-11 23-18 45-23 75-4 22-7 37-8 40-2 4-6 8-11 8-13 2-20 12-22 31-2 16 1 36 8 50 4 7 6 10 13 17 4 4 9 9 10 11 2 5 2 13 1 40-4 46-10 69-24 87-8 10-8 9-37 9-28-1-30-1-37 5-3 2-10 11-17 19-15 17-26 29-35 34-8 6-48 26-81 42-25 11-50 25-61 34-8 7-23 23-24 26-1 5 2 6 26 7 14 1 25 1 58-1z"/></svg>