<svg xmlns="http://www.w3.org/2000/svg" width="1344" height="566"><path d="M0 283V0h1344v566H0V283m849 279h225c30-3 30-3 33-5 3-3 2-5-4-18-2-5-7-16-9-23-4-9-8-17-12-24-9-13-14-23-15-31-4-14-2-41 6-87 3-20 4-27 4-39 0-13 0-15-2-18-1-3-2-3-5-3s-4 0-8 6c-6 8-8 8-11 0-1-4-3-11-4-16-2-9-4-13-8-15-3-1-3-1-6 1-1 1-3 3-4 5s-3 4-3 5c-2 1-2 1-4 0-1-1-2-4-3-6s-2-6-4-8c-6-6-10-4-16 8-4 8-6 8-13 5-5-3-7-3-10 1-4 4-7 13-8 26-2 20-2 21-9 21-5 0-8-1-29-10-9-3-19-7-24-9-15-6-25-11-27-13-1-3-1-4 1-17 6-30 7-39 6-68 0-30 0-37-6-53-3-10-4-11-13-24-4-7-9-13-13-16-6-6-25-18-38-24-14-7-32-12-49-13-19-1-32 3-51 13-20 11-34 24-43 40-4 6-10 23-11 31-1 4-2 11-4 16-6 23-9 34-10 46-2 21-2 31-1 40 2 9 2 16 0 19s-12 9-23 13c-32 11-55 17-64 17-11 0-12-3-12-27 0-19-1-24-4-26s-5-1-11 4c-9 7-9 7-14-11-3-12-10-16-14-10-5 7-11 13-12 13s-3-2-4-4c-5-7-8-8-13-3-3 2-4 4-6 15-1 5-2 7-5 10l-4 4h-7c-8-1-8-1-10 1s-3 4-4 6c0 5 2 28 3 33 1 2 2 6 2 9 1 3 2 8 3 11 0 3 1 7 1 9 0 3 3 17 6 28 6 24 8 36 7 48 0 20-16 60-29 77-7 8-11 17-11 25-1 8 0 10 7 13 7 1 30 2 162 1 68-1 86-1 99 0 11 2 25 2 60 1h99z"/></svg>