<svg xmlns="http://www.w3.org/2000/svg" width="1344" height="566"><path d="M0 283V0h1344v566H0V283m666 276c28 0 76 0 107-1 63 0 60 0 66-6 6-8 7-19 3-41-1-7-2-20-3-28-1-11-2-16-4-25-3-11-6-27-9-48 0-6-1-12-1-14-1-1-1-6-2-11-1-10-4-26-6-37-2-7-6-29-7-37 0-10-3-13-24-24-10-4-19-9-20-11-2-1-6-4-9-6-7-5-27-25-29-29-1-5-1-10 2-16 1-2 3-6 4-9 0-3 3-9 5-13 7-15 10-41 6-54-5-14-11-23-23-32-7-5-12-7-22-10-15-3-46-1-59 4-8 3-13 7-19 13-7 6-10 12-11 19 0 6 1 25 4 37 3 19 3 23 2 26-2 3-4 5-11 8-2 2-8 6-12 10-7 7-8 8-10 16-2 4-4 11-4 14-1 4-3 10-4 13-4 12-18 38-25 45-1 2-4 7-7 11-2 5-6 10-13 17-11 12-13 15-21 30s-9 20-9 32c0 18 4 30 11 35 2 1 7 3 10 4 5 1 7 1 16-1 16-2 18-4 30-16 9-10 10-10 11-9 2 1 2 3 2 17-2 33-7 75-12 98-3 11-5 22-4 25 2 4 13 6 35 5 9 0 39 0 66-1z"/></svg>