<svg xmlns="http://www.w3.org/2000/svg" width="1344" height="566"><path d="M0 283V0h1344v566H0V283m732 174c3 0 10-1 14-1 7 0 11-1 34-6 8-2 18-5 26-7 3 0 8-2 10-2 2-1 8-3 12-4s9-3 11-4c6-2 23-3 35-2 5 1 12 1 16 1 5 0 6 0 8-3 1-2 1-3 0-14 0-7-2-17-3-21-1-6-1-18-2-34 0-14 0-27-1-29-1-10-10-20-22-24-9-4-13-8-14-15 0-5-1-6-4-8-4-2-4-3-2-4 1 0 3-1 4-1 6 0 6-4 2-32-2-12-12-54-17-71-4-14-7-24-8-30-9-38-24-67-43-82-8-7-25-17-36-23-10-5-18-7-28-7-8 0-24 2-28 4-2 0-8 2-15 3-9 2-13 3-20 6-10 5-16 10-23 23-12 19-17 35-21 76-1 6-2 14-3 18-3 18-5 72-2 105 2 20 2 20-8 22-19 4-22 4-30 3-13-2-31-2-35 0-2 1-7 5-12 9s-12 9-16 11c-4 3-10 7-13 9-2 2-10 8-17 12-7 5-16 11-20 14-10 8-15 10-25 11-14 0-15 1-16 11-1 7-3 11-11 28-2 5-5 12-6 15-1 2-4 10-6 16-2 7-5 14-5 16-2 5-1 6 6 6 5 0 9-1 15-3 4-2 13-4 19-6 11-2 13-2 47-3 35 0 36 0 39-2 4-2 5-2 12-2 4 1 10 2 12 3 3 0 12 2 22 4 23 4 50 5 62 2 8-2 18-1 44 2 24 3 31 5 37 9 5 4 5 4 11 3 4 0 10-1 14-2z"/></svg>