<svg xmlns="http://www.w3.org/2000/svg" width="1344" height="566"><path d="M0 283V0h1344v566H0V283m281 276c4-1 72-1 125-1 42 1 73 0 79-2 5-1 11-1 29-1 15 1 26 1 29 0 5-1 15-1 39 0 44 3 99 3 101 2 4-4-6-24-22-41-5-5-11-8-23-12s-27-11-41-19c-8-3-18-8-26-10-21-7-36-14-40-19-4-4-4-6 1-18 4-9 21-41 26-49 3-4 6-7 9-9s5-2 15-2c16 0 36-3 43-6 7-4 10-7 13-13 3-5 3-6 3-24 0-20 1-30 6-43 10-34 11-46 3-82-4-16-7-56-6-71 2-16 1-29-1-43-4-21-11-41-19-52-5-7-16-19-21-22-3-2-27-12-36-15s-34-3-101-3c-63 1-65 1-70 3-15 6-45 32-60 52-8 12-18 35-27 63-2 8-7 24-10 36-6 19-7 23-11 39-3 14-10 37-14 44-2 4-4 8-4 10 0 5-2 12-8 24-4 8-5 11-5 15 0 5-1 9-13 41-2 5-4 10-5 12-1 1-5 10-8 18-6 15-14 32-28 61-6 12-9 21-9 30 0 4 0 5 2 8 3 3 9 6 16 7 9 1 11 3 19 17 3 6 6 13 6 14 0 3-7 14-17 27-7 9-16 22-17 25-1 5 2 8 10 9s63 1 68 0z"/></svg>