<svg xmlns="http://www.w3.org/2000/svg" width="1344" height="566"><path d="M0 283V0h1344v566H0V283m844 277h89c4 0 13 0 20 1 15 2 18 1 22-3l3-3v-13c-1-12-1-13-7-28-11-29-13-40-12-84 0-17 1-35 1-42 2-21 1-41-3-86-1-20-3-28-8-45-3-13-8-23-14-32-10-13-10-16-1-30 11-17 16-30 22-50 2-9 2-13 2-23 0-17-1-22-9-30-13-12-30-16-51-12-9 2-22 8-28 14-5 4-6 6-13 24-3 8-14 28-17 32-4 3-7 5-16 6s-13 3-22 9c-4 3-17 10-29 16-31 15-40 24-50 43-6 11-7 21-7 34 1 10 1 12-3 26-1 4-3 13-5 22-2 8-5 18-6 22-4 13-7 28-8 38-1 6-2 17-3 25 0 8-2 20-4 26-4 18-5 25-7 40-1 8-3 20-4 27-1 10-1 20-1 36 0 39 0 39 47 41 13 0 26 1 30 0 5 0 46-1 92-1z"/></svg>