<svg xmlns="http://www.w3.org/2000/svg" width="1344" height="566"><path d="M0 283V0h1344v566H0V283m746 279c14-1 44-1 68-1 60-1 91-2 94-3 6-3 5-7-10-47-9-23-10-30-10-40 1-5 1-6-1-9-5-7-21-16-77-42-8-5-16-8-16-8-1 0-6-2-12-5s-15-7-21-10c-12-6-16-9-19-16-2-5-2-7-3-27 0-13 0-28 1-40 1-10 1-30 1-43 0-23 0-25-2-37-2-8-4-17-5-20-8-49-11-59-28-93-13-26-25-42-42-55-13-11-22-16-39-22-23-8-25-8-40-9-21-1-28 1-45 12-11 6-16 8-23 10-11 4-14 5-23 12-5 4-9 7-14 15-12 16-17 29-23 56-7 30-9 46-9 84 0 41 2 104 3 141 1 28 1 29-1 33-1 3-4 5-20 13-11 6-28 14-38 19-37 18-41 20-44 24-1 2-2 6-3 9 0 3-1 10-3 15-3 15-5 28-3 31 4 8 17 19 30 26 4 2 11 6 15 8 12 8 25 14 34 15 4 1 25 1 46 1 22 1 42 1 46 2 15 1 182 2 236 1z"/></svg>