<svg xmlns="http://www.w3.org/2000/svg" width="1344" height="566"><path d="M0 283V0h1344v566H0V283m288 276c9-1 14-1 16 0 7 2 58 2 236 2 160 0 168 0 178-1 8-2 12-3 14-5s2-2 2-11c-1-27-1-32 5-40 3-4 2-5-5-8-4-2-5-4-9-12-3-5-6-12-7-14 0-3-5-13-9-22l-9-16v-10c0-11-1-14-6-16-1-1-11-5-22-9-11-5-23-10-27-11-4-2-12-5-17-7-45-18-51-20-55-25-4-4-4-7-4-18 1-10 5-28 12-45 4-12 6-23 6-33-2-18-5-50-7-62-6-35-20-79-34-104-10-19-29-41-42-50-22-14-50-23-76-22-12 1-13 1-20 4-49 25-53 27-63 41-9 12-19 35-23 53-7 25-13 64-18 109-1 10-3 25-4 32 0 7-2 25-3 40-1 25-1 28 1 50 2 27 2 26-9 31-3 2-6 3-7 3-3 0-20 8-27 14-5 3-12 7-14 9-3 2-9 6-13 8-4 3-12 8-18 11-16 8-20 13-20 23 0 6-1 10-5 23-8 23-14 48-16 63-2 11-1 20 2 24l2 2 28 1c40 1 74 0 87-2z"/></svg>