<svg xmlns="http://www.w3.org/2000/svg" width="1344" height="566"><path d="M0 283V0h1344v566H0V283m883 278c94 0 112 0 144-3 13-1 14-3 8-20-4-11-8-22-16-38-4-7-7-13-7-14s-3-8-14-32c-5-12-6-16-6-19 0-2-2-6-10-18-5-8-15-28-15-30 0-1-8-17-11-22-8-15-13-28-14-41-1-10 0-13 6-18 7-5 11-10 15-19 7-13 9-21 13-54 1-9 3-21 4-25 2-8 2-13 2-34 0-23 0-25-2-30-1-4-3-10-4-14-9-29-18-46-34-62-10-9-29-24-37-28-19-10-53-16-73-14-5 1-16 2-23 3-19 2-29 3-43 7-6 2-18 5-26 7-21 5-42 12-48 15-9 4-14 13-18 28-4 14-5 25-6 56-1 35 0 52 5 68 1 4 4 19 7 34 2 15 5 32 7 38 1 6 6 23 10 38 7 28 13 46 18 54 4 8 13 16 21 20 7 3 19 6 27 6 6 0 12 3 15 7 4 6 12 20 13 25s-1 7-12 19c-9 9-15 16-26 30-3 4-10 11-15 17-16 16-29 39-30 52 0 5 0 6 2 8 3 2 4 2 26 3 12 1 23 1 24 1 2 1 7 1 12 0 4 0 55 0 111-1z"/></svg>