<svg xmlns="http://www.w3.org/2000/svg" width="1344" height="566"><path d="M0 283V0h1344v566H0V283m336 276h61c4 1 6 1 9 0 3-2 6-2 16-1 8 1 27 1 51 1h163c23 1 115 1 145 1 24-1 26-1 29-3 2-2 2-3 1-9 0-3 0-10 1-15 1-8 1-10 0-15-1-2-2-6-2-7-2-7-15-16-40-27-20-9-85-42-88-45-4-3-4-4 0-12 1-4 4-12 7-19 3-8 6-18 8-23 5-11 17-54 20-68 2-9 2-14 2-28 0-17-1-40-3-57-1-5-2-17-3-28-4-36-11-73-17-89-1-3-5-11-9-17-20-38-39-57-73-74-27-13-38-16-54-16s-41 5-52 11c-3 1-10 3-16 4-19 3-30 10-46 27-22 23-36 57-48 113-3 14-10 63-11 83-1 10-3 22-3 28-1 6-1 23-1 40 0 31 1 46 5 67 6 25 7 38 5 42-4 5-19 11-34 14-9 2-19 6-33 15-6 4-18 10-24 13-7 3-16 8-21 11s-13 8-18 11c-12 7-23 14-28 19-3 3-5 7-6 20-1 5-2 13-4 18-4 12-3 14 2 16 2 1 16 1 38 0 19 0 51 0 71-1z"/></svg>