<svg xmlns="http://www.w3.org/2000/svg" width="1344" height="566"><path d="M0 283V0h1344v566H0V283m296 277h202l192 1 13-2c15-2 19-4 20-8s-2-18-4-21c-3-5-4-15-3-22 0-4 0-9-1-13-1-8-10-32-17-47l-5-10v-11c0-9 0-11-2-13s-17-9-38-18c-7-3-16-6-20-8s-13-5-20-8c-20-8-41-18-43-21-1-1-2-4-2-6 0-12 8-43 16-62 6-15 7-17 6-40 0-17 0-24-1-31-1-5-3-14-4-20-1-9-4-25-12-55s-21-61-32-75c-13-17-35-33-62-44-20-9-23-9-42-9l-17-1-12 7c-7 3-19 9-27 13-24 11-32 19-41 38-14 28-21 56-27 115-3 28-4 38-7 96-1 24 0 47 4 63 4 14 5 22 3 25s-11 7-30 13c-18 6-19 7-41 22-4 3-11 7-14 10-4 2-9 6-12 7-2 2-8 5-12 7-14 7-18 12-18 24 0 6-1 9-5 21-3 8-6 18-7 23s-3 11-4 14c-2 12-5 32-4 37 0 3 1 6 2 8l2 2 59-1h67z"/></svg>