<svg xmlns="http://www.w3.org/2000/svg" width="1344" height="566"><path d="M0 283V0h1344v566H0V283m306 276h34c2 0 4 0 7 1 4 1 5 1 7 0 3-2 5-2 16-1 7 1 29 1 51 1h91c32 0 57 0 63-1 8-1 18-1 36 0 34 1 164 2 167 0 5-2 6-5 5-12-1-8-5-22-7-29-1-3-2-10-2-17-1-13-2-17-8-22-3-3-40-22-56-29-4-1-13-5-22-9-8-4-19-9-24-11-16-8-32-16-35-19-4-3-4-6 1-17 2-5 4-9 4-10 0 0 4-8 8-18 10-21 13-30 18-46 8-22 9-32 9-56 0-18-2-41-6-68-1-4-2-14-3-22-5-35-14-67-26-90-7-15-21-35-27-41-8-7-38-26-48-32-13-6-18-6-51-6-26 0-29 0-36 2-5 1-10 3-13 5s-9 4-15 5c-17 4-27 10-39 22-15 15-24 33-34 63-9 26-16 60-25 112-5 28-7 39-12 64-7 39-8 50-6 95 1 31 1 34 0 37-3 4-6 7-11 8-6 0-27 10-35 15-16 10-35 21-52 29-24 13-27 15-30 22-4 10-17 34-20 39-5 8-12 21-13 26-2 6 0 10 4 11 3 1 45 1 135-1z"/></svg>