<svg xmlns="http://www.w3.org/2000/svg" width="1344" height="566"><path d="M0 283V0h1344v566H0V283m1067 278c12-1 22-1 24-2 3 0 5-3 5-6 0-4-7-18-16-30-12-20-25-32-60-61-10-9-26-25-33-32-8-9-13-19-15-26-1-5-1-5 1-7 1-2 19-7 23-7 2 0 10-5 20-12 3-2 5-5 7-15 1-8 1-10 0-13-1-2-6-14-12-26s-12-24-13-28c-3-7-10-18-19-28-4-4-11-12-16-18-4-5-10-11-12-14-6-5-11-15-11-22v-24c1-22 0-32-4-51-4-16-9-27-18-45-17-31-29-46-47-59-18-12-26-16-48-21-7-2-14-4-16-4-5-1-27-1-37 0s-30 8-37 12c-5 4-28 15-49 26-14 6-18 9-28 19-11 10-25 31-37 54-7 15-8 20-8 36 0 34 13 80 30 101 8 11 11 18 15 33 8 28 11 35 23 54 16 26 19 34 23 46 1 4 4 10 6 14 8 14 8 15 7 19-2 3-2 3-20 16-25 19-31 29-36 60-4 26-5 45-2 52 2 5 6 7 18 8 5 0 59 1 123 1 62-1 135 0 160 0 76 1 86 1 109 0z"/></svg>