<svg xmlns="http://www.w3.org/2000/svg" width="1344" height="566"><path d="M0 283V0h1344v566H0V283m170 274c1 0 4-3 6-6s5-5 6-5 2-1 4-2c1-2 2-2 3-1 7 4 8 5 16 5 37 3 36 3 39-2 2-4 3-14 1-32-1-11-5-32-6-35 0-1-2-2-4-2-3-1-3-3-1-9 1-3 2-7 2-11 0-8-2-11-9-11-5 0-6-1-4-8 2-9 2-9-1-12-5-5-6-7-5-12 1-3 1-3-2-6-4-4-4-9 2-9 4 0 5-6 2-13-1-3-3-7-4-10-1-2-2-5-2-6s-1-3-2-6c-2-4-6-12-7-18-2-5-5-14-6-17-4-8 2-18 26-49 2-2 5-6 7-8 6-8 10-6 10 4 0 5 0 6 2 8 3 2 4 2 7 2 6-1 12-5 14-8 2-4 3-22 3-44l1-20 3-6c2-4 6-9 8-13 5-6 9-17 9-21 0-1-1-3-2-5-3-2-4-2-12-2-11 0-12 1-21 9-8 9-9 12-10 23 0 8 0 9-2 12-2 2-4 2-10 3-8 1-9 1-12 6-4 6-5 6-11 0-3-2-6-5-6-6-1-2 1-18 3-25 1-4 4-9 8-14 11-14 11-13 12-24 0-9 0-11-1-14-2-4-7-6-12-6-2 0-5-1-6-2-5-3-7-3-15 3-5 4-7 5-10 5-8 0-14-6-14-14 0-5-4-20-7-25-4-7-13-12-27-15-13-2-22-2-31 1-14 5-21 10-25 20-5 9-4 12 4 37 7 21 8 24 9 31 0 5 0 7-1 8s-3 1-3 1c-1-1-4-5-7-11-4-5-9-12-12-16-3-3-7-7-8-9-2-2-6-5-9-7l-7-3H29c-13 0-15 1-18 3-5 3-7 5-8 12-2 9-2 73-1 100 1 13 1 43 1 66l1 44 5 14c3 7 8 21 11 30 3 8 7 20 9 24 3 8 3 11 4 21 0 9 0 14-1 19-1 4-2 11-3 14 0 4-3 12-4 18-7 20-11 39-11 48 0 4 0 6 2 8l2 2h75c42 0 76 0 77-1z"/></svg>