<svg xmlns="http://www.w3.org/2000/svg" width="1344" height="566"><path d="M0 283V0h1344v566H0V283m855 279h72l3-3c1-1 5-3 8-5 4-2 5-2 8-1 2 1 4 3 5 4 4 5 4 5 69 5 34 0 67 0 76-1 23-2 24-3 16-20-3-5-7-13-9-19-2-5-7-16-11-24s-8-17-8-21c-1-4-3-9-3-11-1-3-2-8-2-10 0-10 9-45 18-70 5-17 9-33 9-44s-5-16-13-13c-7 4-10 1-14-8-2-9-5-13-9-15-3-2-4-1-12 4-3 2-6 4-8 4-1 0-4-2-6-4-3-2-6-4-7-5-4 0-8 2-13 8-7 9-9 10-12 10-7 0-15 6-19 13-2 2-4 6-5 7-4 3-7 2-12-5-2-3-5-7-7-8-4-3-21-11-40-19-28-11-39-16-43-18-5-4-6-8-5-18 5-36 6-75 3-96-3-22-7-31-18-48-7-11-11-14-34-26-23-14-32-18-43-21-9-2-13-2-29-2-17 0-19 0-24 2-9 3-29 14-35 18-13 10-32 32-35 40-7 19-8 22-8 28 0 5-5 24-10 38-3 8-5 42-4 64 0 7 0 8-2 11s-7 6-13 8c-2 0-9 2-15 4s-14 5-18 6c-22 6-43 14-55 21-5 3-10 6-11 6-3 0-5-3-6-9-1-7-2-9-6-12-3-2-6 0-12 8-5 9-6 9-8 8-2 0-3-3-8-17-2-7-4-10-7-12-6-5-9-3-13 6-2 6-6 11-8 11-1 0-3-2-5-4-7-7-12-6-15 1-1 3-2 7-2 11-2 13-4 20-7 21 0 1-4 0-7-2-6-3-11-4-13-1-4 4-3 20 2 38 6 21 14 46 23 67 8 19 10 27 10 34-2 13-14 41-24 55-6 9-8 13-8 18 0 6 2 8 9 10 9 3 21 3 31 2 8-2 12-2 20-1 5 0 52 1 110 0 86 0 102 0 108 1 6 2 14 2 48 1h113z"/></svg>