<svg xmlns="http://www.w3.org/2000/svg" width="1344" height="566"><path d="M0 283V0h1344v566H0V283m586 279h120c64-1 254-2 370-1 37 0 39 0 41-2 1-2 2-4 2-5 0-5-3-17-8-27-4-11-5-14-3-26 1-10 1-10-1-13-3-4-9-7-25-14-15-7-41-18-73-34-24-12-30-16-32-23 0-2 1-13 2-24 3-33 4-37 5-51 2-25-1-101-5-136-4-30-11-66-19-88-3-12-17-38-24-48-13-17-32-33-50-41-10-4-30-12-42-15-17-4-34-3-48 5-8 4-9 4-21 5-13 1-16 2-26 8-15 8-30 22-36 33-14 23-21 47-25 81-3 22-4 85-2 112 2 25 2 35 0 41-1 2-3 7-4 10-5 14-9 19-27 29-14 8-13 6-12 38v26l-2 4c-3 5-8 8-13 8-2 1-5 2-7 2-2 1-7 3-11 5-3 1-13 5-22 9-28 12-52 23-59 25-4 2-8 4-9 6-2 2-2 2-1 9 0 4 1 9 0 11-2 14-6 29-11 42-3 8-6 19-7 24-2 8-2 10 1 13 2 1 29 3 44 2h40z"/></svg>