<svg xmlns="http://www.w3.org/2000/svg" width="1344" height="566"><path d="M0 283V0h1344v566H0V283m437 278c80 0 83 0 85-2l2-2 1-27c0-16 0-28 1-30 0-3 1-10 1-16 0-13 0-14-14-44-14-31-23-45-41-62-4-4-8-9-9-11-2-5-1-12 4-18 2-3 5-9 6-13 4-11 7-15 12-22 4-5 7-7 13-10 11-6 11-7 11-23-1-7-2-16-3-19 0-4-1-10-1-12 0-4-1-6-4-11-5-8-11-21-13-27-1-3-4-11-7-18-9-19-15-23-35-30-7-2-11-2-21-2-20 0-34 4-51 16-14 10-22 20-26 35-2 8-3 52-3 113 0 59 0 57 8 60 2 1 5 3 5 3 2 3 1 8-3 19-7 25-11 43-16 81-1 8-2 16-3 18-1 5-1 15 0 21 1 2 2 9 3 16 1 15 3 19 11 18 2-1 42-1 87-1m375-2c16-1 36-1 65 0 50 1 110 1 124 0 9-1 11-1 13-3 3-3 5-13 5-32 1-8 2-19 2-24 6-38 7-47 9-63 7-61 7-73 0-95-4-14-13-32-24-48-2-4-6-11-10-16-9-14-19-27-30-39-12-11-13-14-15-23-1-10-2-11-11-13-12-3-14-4-20-15-5-9-6-13-3-29 2-7 3-14 4-15 0-1 1-4 1-6 1-2 3-10 5-18 10-37 9-48-3-74-3-6-6-12-8-13-3-4-18-12-27-14-4-1-11-2-19-3-12 0-19 1-36 6-22 7-28 10-39 21-7 9-9 12-9 25-1 10-2 15-4 23-2 6-3 14-4 21-1 9-2 14-4 20-7 19-7 20-2 31 2 5 4 12 6 15 2 7 12 26 15 30 3 3 6 4 17 8 9 3 11 4 16 9 3 3 6 7 7 9 2 4-1 10-10 20-5 5-9 9-9 10-1 2-4 5-6 9-6 7-7 9-8 22-1 11-2 13-8 28-6 12-9 20-12 30-3 9-10 33-10 39-1 4-3 13-9 35-4 17-6 28-10 45-2 14-3 17-10 53-6 26-6 31-1 34 4 2 30 2 72 0z"/></svg>