<svg xmlns="http://www.w3.org/2000/svg" width="1344" height="566"><path d="M0 283V0h1344v566H0V283m1023 276c3-3 0-21-6-39-6-14-23-30-48-43-8-4-12-7-23-15-4-3-13-9-20-14-42-27-68-46-77-55-11-13-25-34-31-46-5-12-7-19-16-59-2-9-5-23-7-32-2-8-5-16-5-18 0-1-2-8-4-14-4-14-3-10-8-33-3-10-6-22-7-27-4-23-17-55-30-74-6-8-17-20-25-26-6-4-33-17-40-20-4-1-9-1-25-1-22 0-39 2-61 8-6 2-13 4-15 4-4 1-19 9-37 19-11 6-19 12-22 17-8 12-9 33-5 66 1 9 0 23-2 36-1 5-1 7 1 18 2 6 6 19 9 28 7 19 10 29 12 41 3 16 5 25 6 28 2 5 5 21 5 26s0 6-2 8c-3 2-19 9-27 11-2 1-6 3-9 6-7 5-11 7-18 9-10 2-25 9-30 13-7 7-8 10-11 35-1 12-3 24-3 28-1 4-1 10-1 16 1 13-1 52-4 78-2 13-1 15 5 18 2 2 5 2 24 2 58 0 98 0 104-1 4-1 9-1 13-1 4-1 9-1 12-1 3-1 7-1 14 1 19 4 33 5 228 4 151 0 184 0 186-1z"/></svg>