<svg xmlns="http://www.w3.org/2000/svg" width="1344" height="566"><path d="M0 283V0h1344v566H0V283m238 279c79 1 462-1 467-2s7-3 10-11c5-15 2-20-26-36-9-5-18-11-21-13-2-1-9-5-14-8-15-9-30-19-34-22-2-2-4-5-5-8-2-3-2-5-3-40 0-19-1-36-1-37-1-1-2-12-2-24-1-13-2-24-3-24 0 0 0-3-1-6s-2-9-3-13-2-11-3-16c-1-4-2-12-3-18 0-6-2-13-2-17-1-3-2-7-2-8 0-3-4-21-7-31-1-4-3-13-4-20-4-20-5-23-10-33-9-18-21-32-40-45-13-9-20-12-34-16-31-11-48-11-77 1-16 6-33 14-41 19s-9 4-16-10c-9-18-16-25-30-29-31-11-57-7-75 11-8 8-12 16-15 30-1 5-3 13-5 18-3 12-3 21 0 31 8 21 11 30 11 36 0 7 0 6-10 15-2 2-6 6-8 9s-5 6-6 7c0 1-4 5-6 8-3 4-9 11-12 14-7 8-28 27-39 35-13 9-20 20-24 38-3 9-6 28-8 39 0 4-1 8-1 11-2 8-5 38-5 46 0 9 2 25 4 35 1 3 3 11 5 17 2 13 9 38 12 49s5 12 17 17c6 2 7 2 24 2 10-1 30-1 46-1m834-3c2-1 7-5 12-10 9-8 9-8 13-8 3 1 9 3 13 5 7 3 12 4 17 5 4 0 11 1 15 2 23 3 36 5 46 5 14 1 46-1 52-2s8-4 8-9c-2-11-2-14-1-17 1-1 2-4 2-4 0-3-5-5-17-5-21-2-26-1-35 1-5 2-11 3-13 3-5 0-13-4-23-10-6-4-22-13-38-22-7-5-24-20-31-29-8-10-9-15-16-47-2-10-5-25-6-32-2-7-5-20-7-28-6-35-13-59-20-75-4-6-6-9-15-18-5-5-14-12-18-15-10-7-17-13-17-15 0-3 5-6 9-7 7-2 13-6 15-10 2-3 5-8 8-12 2-4 6-10 8-13 4-6 11-19 12-23 1-5-1-44-3-56-3-14-3-16-4-26 0-5-2-11-3-14-4-10-17-19-36-25-15-5-33-4-51 2-12 4-21 10-31 21-15 16-18 24-17 54 1 11 1 24 2 31 0 6 0 12-1 15-1 5-8 14-15 22-6 6-7 7-13 9-5 1-8 2-14 1-9 0-10 0-23 12-11 10-18 15-37 29-24 17-36 35-43 64-4 16-6 48-8 116 0 29 1 47 4 66 0 6 1 13 2 15 0 6 5 12 10 15 8 6 10 7 12 10 1 2 3 6 4 10 2 5 4 8 7 10 4 4 4 4 10 3 4 0 9 0 15 1 7 2 27 3 80 5 15 1 28 1 28 2h75c58-1 75-1 77-2z"/></svg>