<svg xmlns="http://www.w3.org/2000/svg" width="1344" height="566"><path d="M0 283V0h1344v566H0V283m866 277c73-1 151-1 173 0 39 0 75 0 135-2 33-1 52-3 64-7 10-3 11-6 10-17 0-4-1-9-2-12-2-5-14-16-25-22-5-4-11-7-12-8-6-6-18-34-25-59-5-14-9-24-12-28-4-4-8-5-17-7-11-1-15-3-20-7-5-6-9-12-20-32-10-19-13-27-18-43-23-65-23-66-31-95-11-43-17-57-25-64-3-3-5-4-9-4-6 0-8 3-10 11-1 4-2 8-3 9s-1 1-5-3c-2-2-5-7-7-12-6-13-17-33-21-36-3-3-8-5-13-4-1 1-4 3-7 6-3 2-5 4-6 4s-4-3-7-6c-6-6-10-8-14-8-8 0-11 5-12 19 0 7-1 10-2 11l-6-2c-7-3-10-2-14 3-2 3-2 4-2 15 1 11 3 24 7 43 3 12 3 15 7 27 5 15 8 25 9 38 3 16 5 21 38 65 6 8 15 20 20 27 38 43 47 57 65 96 10 20 14 30 12 32-1 1-6 1-10 0-3-1-19-10-32-18-5-3-13-7-17-9-8-5-19-13-22-18-1-2-6-12-11-21-10-20-13-24-32-39-21-16-30-22-43-26-10-3-41-2-77 3-15 2-32 1-36-1s-5-4-6-12c0-8 1-17 6-38 3-14 5-19 9-22 7-5 10-15 12-33 1-10 0-17-4-37-4-17-6-25-17-51-11-27-14-34-26-56-24-46-39-66-67-86-12-8-22-14-30-16s-29-2-74-1c-35 1-45 1-56 3-16 2-22 4-37 13-13 8-22 15-32 26-8 9-12 17-23 37-12 24-16 38-16 58 0 10 0 10 4 16 8 13 9 25 4 64-1 9 0 14 4 25 6 12 7 18 7 29 0 20 3 34 12 49 6 10 19 23 31 31 11 7 12 10 12 20-1 15-5 24-17 40-5 8-19 19-29 24-25 12-24 11-26 8-1-1-2-8-2-30l-1-28-4-13c-2-7-6-16-8-21-4-8-5-9-9-11s-5-2-8-1c-4 1-7 4-10 10-4 8-4 13-4 37 1 29 0 39-5 37s-13-32-18-66c-2-15-4-31-5-40-6-54-6-55-12-59-8-5-13-1-15 11-2 9-5 33-6 56-1 17-2 20-3 20-2 0-3-2-7-15-2-6-4-12-5-13 0-2-2-7-3-12-8-25-11-35-16-44-3-7-4-8-9-10-8-5-14-4-17 3-1 4-1 8 0 17 4 19 6 32 9 49 1 10 3 22 4 27 1 8 3 25 2 26-1 2-2 1-6-4-4-6-14-26-18-36-5-12-12-29-15-32-9-15-27-10-25 7 1 2 2 9 4 15 2 7 5 17 7 24 1 6 5 16 7 22 7 21 9 28 8 29s-5-2-17-15-17-16-21-18c-6-3-10-4-14-2s-5 7-4 13c2 10 16 33 32 53 4 5 10 13 13 17s11 15 18 24c13 16 37 51 46 67 3 5 7 10 8 12l3 4h42c23 0 50-1 60-1 19 0 185-1 224 0 13 0 26 1 28 1h216z"/></svg>