<svg xmlns="http://www.w3.org/2000/svg" width="1344" height="566"><path d="M0 283V0h1344v566H0V283m786 250c3 0 10-2 16-2 17-3 50-10 63-14 15-5 35-11 45-13 2 0 14-1 27-1l24-1 2-2c3-4 5-25 3-35-2-12-6-41-7-55-1-8-2-16-2-19-1-5-7-10-13-11-2-1-6-2-9-2-3-1-13-4-23-6-25-6-27-8-25-18 1-6 1-16-2-22-1-2-4-5-6-7-4-5-5-6-2-11 1-4 1-4-5-16-7-14-22-54-22-59 0-3-19-55-30-83-3-6-6-14-7-16-4-10-13-23-25-35-11-11-12-12-24-18-18-9-39-16-54-18-14-1-48 6-67 14-15 7-25 13-35 22-15 16-27 41-32 68-2 10-2 13-1 54 1 24 1 53 2 64 1 24 1 28-3 32s-20 15-29 20c-9 4-15 11-20 21-2 5-5 9-6 10s-5 3-9 5c-7 4-9 4-14 4-9-2-9-1-18 3-4 3-10 6-13 6-2 1-8 3-11 4-4 2-9 4-11 4-3 1-12 10-17 17-4 5-16 11-21 11-8 0-13 3-18 10-3 5-7 16-8 24-1 4-2 8-2 9-1 2-1 3 2 5 1 1 5 5 9 8 8 9 10 9 27 9 13 0 21 1 26 5 3 1 5 1 17 1 11-1 14-1 16 1 3 1 6 1 16-3s13-4 34-1c9 2 13 3 18 6 9 4 19 8 26 9 3 1 22 2 42 2 21 0 43 1 50 2 8 0 18 1 23 1 14 1 27 3 35 5 7 2 17 7 19 9 1 1 2 3 3 3 5 3 36 3 46 0z"/></svg>