<svg xmlns="http://www.w3.org/2000/svg" width="1344" height="566"><path d="M0 283V0h1344v566H0V283m847 278c7 0 8-1 11-3 3-4 3-7-2-23-6-24-12-33-39-63-14-16-16-18-23-21-9-6-16-12-27-26-15-19-17-21-17-27-3-19-7-35-13-47l-3-7 2-10c1-6 3-13 6-18 3-7 4-7 12-13 12-8 22-21 31-37 7-14 8-72 2-107-7-39-18-66-35-82-14-12-26-18-54-23-12-2-17-2-32-2-18 0-19 0-26 3-9 3-24 14-35 23-7 7-24 30-31 43-10 19-13 46-8 71 5 24 6 29 7 42v19c-1 2-1 9-1 15l-1 12 3 4c2 4 5 6 11 9 10 6 20 13 21 15 0 1-1 4-2 6-4 7-16 9-48 6-22-2-63 1-76 5-16 5-26 20-30 42-2 11-2 16-2 39 0 24 0 29 2 40 3 20 5 31 6 41 4 35 8 58 11 65 3 6 6 7 21 7 8 1 83 1 166 2 84 0 153 0 153 1 1 0 30 0 40-1z"/></svg>