<svg xmlns="http://www.w3.org/2000/svg" width="1344" height="566"><path d="M0 283V0h1344v566H0V283m700 274c8-4 8-7 8-35 1-18 1-25 2-30 4-13 7-39 9-64 1-9 1-16 2-16 0 0 1-6 1-13 1-7 3-18 5-25 1-7 3-15 3-19 2-9 6-21 9-29 1-4 3-10 3-12 1-3 3-10 5-16 2-5 4-12 5-16s3-8 4-10c8-17 10-22 10-23s1-2 2-4c0-2 2-6 2-9 1-6 2-7 5-8 5-1 9-5 9-7 0-3-4-8-7-9-1-1-3-3-5-6-1-3-4-8-6-11-3-3-5-6-5-9-1-5-4-11-8-20-2-4-4-9-4-11s-1-4-1-6c-1-1-2-4-3-7-1-6-5-14-8-18-6-6-12-8-21-8-6 0-8 0-10 2-1 1-5 3-7 4-3 1-7 4-9 7-8 9-12 19-17 39-2 10-5 20-6 21 0 1-5 5-10 8s-14 9-20 12c-11 8-17 10-29 12-9 2-19 7-26 12-10 8-20 13-28 14-6 0-8 1-9 3-3 4-2 6 4 12 7 7 11 9 20 10 7 1 8 1 11 0 1-1 4-2 6-2 4 0 8-4 8-7s2-5 6-5c10-1 25-4 27-5 3-1 20-6 26-7 3 0 7-1 9-2 4-1 8-1 10 0 0 1 1 5 1 8 1 4 2 8 2 10 2 3 0 7-7 10s-7 4-10 13c-4 14-5 28-1 34 0 2 3 4 6 6 9 6 9 7 9 16 0 5-1 13-1 19-3 16-3 38-2 43s4 8 6 8c0 0 2-2 3-5 1-2 3-4 4-4 3 0 3 6 3 40-1 20 0 36 0 39 2 13 1 36-3 52-2 6-2 10-2 15 1 5 1 7 3 9 3 2 4 2 9 2 3-1 6-2 8-2z"/></svg>