<svg xmlns="http://www.w3.org/2000/svg" width="1344" height="566"><path d="M0 283V0h1344v566H0V283m610 278c13-1 26-1 30-1h84c72 0 77 0 79-1 6-4 6-7 6-23-1-11-1-19-3-28-3-12-12-44-15-52 0-2-2-8-3-12s-3-10-5-13c-3-6-3-7-3-16 0-8 0-9-2-12s-7-6-17-10c-3-2-18-8-32-15-26-13-39-18-50-23-3-1-8-4-10-6-4-3-4-4-4-10 0-3 1-9 2-13s4-15 6-24c2-10 5-23 7-30 6-20 7-30 4-60-1-15-3-35-4-45-2-28-5-51-10-65-4-14-5-16-15-32-16-24-31-37-59-51-14-6-25-10-33-11-8 0-22 2-35 7-5 2-12 4-17 4-14 2-23 6-35 18-19 18-30 40-38 72-1 5-4 20-6 35-16 93-20 125-17 154 2 20 2 33 1 37-2 8-12 13-27 14-10 2-22 6-44 17-25 12-43 22-49 28-4 4-5 6-7 13-2 5-7 17-12 28-9 19-11 24-15 45-2 7-4 16-5 21-3 10-6 33-6 45 0 7 0 8 2 11l3 2 32 1h65c84 0 118 0 139 1 43 1 96 1 118 0z"/></svg>