<svg xmlns="http://www.w3.org/2000/svg" width="1344" height="566"><path d="M0 283V0h1344v566H0V283m338 278c66-1 67-1 122-1 114 0 137 0 158 2 25 2 97 1 101-1s5-6 5-16c0-4 1-11 2-14l1-7-4-8c-3-5-6-9-6-10-1 0-5-2-9-3-11-3-32-13-63-30-9-5-24-12-34-17-32-14-36-17-38-23 0-5 6-29 8-34 3-4 23-13 29-13 2 0 8-3 14-6 20-10 25-18 26-40 2-21 3-35 5-46 3-16 4-46 2-68-1-10-1-34-2-54-1-39-3-56-7-70-7-25-17-36-51-54-24-13-38-19-55-25-33-11-51-13-78-9-15 2-16 3-44 17-7 4-19 9-25 11-6 3-13 6-16 8-7 4-14 12-19 22-8 16-27 78-30 97-2 12-5 37-7 57-2 19-4 38-8 66-3 31-4 37-4 50 0 15-2 33-5 43-1 2-3 10-3 16-2 13-4 24-9 41-6 26-9 31-21 44-3 3-8 8-11 12-9 11-27 28-39 36-6 4-13 9-14 11-5 6-3 11 5 14 7 2 29 4 48 3 10 0 45-1 76-1z"/></svg>