<svg xmlns="http://www.w3.org/2000/svg" width="1344" height="566"><path d="M0 283V0h1344v566H0V283m529 278c9-2 14-2 16-1s26 1 74 1c57 0 72 0 80-2 17-2 17-2 17-33v-22l-7-18c-5-10-8-19-8-19 0-1-3-7-6-14-6-12-6-12-6-21 0-7 0-10-2-12-2-3-8-7-17-10-15-6-22-9-46-20-13-6-26-11-30-13-11-5-23-11-25-14-2-2-2-3-2-9 1-12 11-46 18-62 5-11 6-16 7-36 0-16 0-19-3-43-5-30-6-36-15-71-6-20-16-47-23-61-7-13-22-29-36-39-8-5-31-15-43-20-12-4-25-5-38-5-9 1-10 1-20 6-5 2-13 6-18 8-15 6-22 10-31 16-11 8-15 13-21 26-14 27-22 55-28 106-2 11-4 23-4 27-1 3-2 20-4 36-1 16-3 35-3 42-1 13-1 40 1 51 1 3 3 11 5 18 3 13 4 19 2 21-4 5-20 12-40 17-7 2-16 8-29 17-15 11-30 21-40 27-5 2-11 6-14 9-4 4-5 7-7 19-1 4-3 13-6 21-3 7-6 16-7 19s-1 6-2 7c0 1-2 8-2 15-1 7-3 16-3 19-1 4-1 7 0 10 2 7-1 7 68 7 39-1 63-1 65-2 3-1 6-1 9 0s45 1 106 2c56 0 102 0 102 1 1 0 1 0 16-1z"/></svg>