<svg xmlns="http://www.w3.org/2000/svg" width="1344" height="566"><path d="M0 283V0h1344v566H0V283m89 277c6 0 11 0 13-1 1-1 8-2 16-3 10-2 17-2 41-2 22 0 29 0 33-1 2-1 7-2 11-3 7-1 11-3 13-6 1 0 4-3 8-5 12-8 14-13 17-31 1-13 2-18 6-25 2-4 3-6 3-20v-15l-5-10c-3-6-5-12-6-16-1-10-3-13-11-22-7-7-8-8-16-12-5-2-9-4-10-5-2 0-4-1-7-2-2-1-9-4-17-7-7-3-18-8-24-10-18-6-31-12-37-17-12-8-34-28-36-32-3-5-4-14-4-25 0-9 1-12 3-21 2-6 3-15 4-21 0-5 2-19 3-30 1-19 1-21 0-30-1-5-3-12-4-16-2-5-2-9-2-19 1-33 1-33-3-47-4-13-15-41-20-52-2-4-6-8-14-16-6-6-12-12-14-13-2 0-5-3-7-4-3-4-12-7-18-7H1v544l2 1c1 1 5 2 9 2 7 1 61 0 77-1m534 0c21 0 40 0 42-1 30-2 52-2 104-2 43 0 63 0 68 1 10 1 147 3 208 3 43 0 44-1 46-3 4-4 1-9-19-35-5-5-10-12-13-15-2-4-11-11-21-20-10-7-27-23-40-34-12-12-25-24-29-27s-9-6-11-8c-2-3-7-6-22-18-10-7-21-13-28-14-3-1-11-1-17-2-17-1-22-3-32-13-6-7-8-10-10-16-3-7-3-9-4-24 0-14 0-17 2-24 3-11 5-14 13-26 15-19 21-30 24-42 2-9 3-18 0-27-1-7-1-13 2-29 5-37 0-67-16-88-13-17-41-34-65-41-20-5-49-6-70-2-48 10-80 36-87 71 0 4-1 13-1 19 0 12-2 28-4 38-1 3-3 13-4 23-1 9-3 22-4 28 0 6-1 16-1 22 0 19 6 50 13 70 3 7 6 16 7 20 5 15 11 23 26 32 5 3 8 6 9 7 1 2-4 6-15 12-7 4-15 8-19 11-4 2-9 5-11 6-10 4-36 21-54 35-4 4-11 9-16 13-11 9-23 21-36 38s-18 26-24 39c-6 12-7 18-4 21 3 4 7 4 113 2z"/></svg>