<svg xmlns="http://www.w3.org/2000/svg" width="1344" height="566"><path d="M0 283V0h1344v566H0V283m353 276c90 0 148-1 150-1 0-1 23 0 50 0 100 2 175 2 178 1 8-4 9-7 10-45 1-27 2-39 4-62 1-6 1-21 1-33 0-18 0-23-2-32-3-16-9-31-14-39-7-10-21-24-40-41-8-7-9-9-8-16 2-11 8-34 10-40 2-5 3-24 3-37-3-39-6-59-14-77-9-20-30-41-57-55-8-5-25-10-37-13-15-3-45-2-67 3-37 7-65 30-77 62-4 12-7 22-9 42-5 32-5 33-12 40l-4 8c0 4 0 14 2 24 1 5 2 16 3 24 0 16 0 17-2 20-3 5-10 9-29 18-7 3-19 9-26 12-17 8-42 22-60 33-19 13-39 32-54 52-16 21-18 25-21 30-13 20-18 32-24 52-4 13-4 14-5 33 0 18 0 20 2 27s5 11 10 11c1 1 11 1 21 0 10 0 63 0 118-1z"/></svg>