<svg xmlns="http://www.w3.org/2000/svg" width="1344" height="566"><path d="M0 283V0h1344v566H0V283m378 278c4-1 47-1 116-1 61-1 124-1 141-1 50-1 503 1 515 2 11 0 48-1 66-3 6-1 13-2 17-3s8-2 9-2c2-1 4-2 5-3 4-3 3-4-19-23-5-3-9-8-11-11-6-9-14-30-23-59-4-12-8-21-11-23-4-3-11-5-20-6l-9-1-7-7c-6-7-8-11-19-32-15-30-18-38-25-57-3-9-7-19-9-24-4-10-17-49-26-78-5-16-12-32-17-38-3-4-9-7-13-7s-8 4-11 10c-3 5-6 4-12-4-2-4-6-11-8-15-5-9-12-20-16-22-2-1-5-2-8-2-5 0-6 0-10 4-3 3-6 5-7 5s-3-2-5-5c-7-7-15-10-21-6-4 1-6 5-7 12 0 7-3 10-7 10-11 0-15 11-12 32 2 21 6 36 13 60 7 21 9 27 11 38 2 12 4 17 12 27 2 4 9 14 15 22 6 9 14 19 18 23 6 8 8 11 25 30 18 20 20 23 28 35 10 16 18 31 23 43 6 20 4 21-17 13-16-6-35-17-40-22s-13-19-17-28c-4-10-11-21-17-27-8-8-33-28-41-33-12-7-17-8-35-8-17 0-40 1-59 4-14 1-35 1-40 0-3-1-5-2-7-4s-2-3-2-9c0-12 8-55 12-63 1-1 3-3 6-5 5-3 7-7 9-16 3-17 1-30-7-59-11-38-17-55-36-93-14-29-18-37-28-49-13-18-29-33-45-43s-44-19-66-23c-13-1-32-1-48 2-58 10-90 24-111 49-17 21-32 51-37 75-3 12-2 28 1 34 7 13 8 26 6 55-3 23-3 19 6 42 4 11 4 12 5 28 1 9 2 19 3 23 4 17 18 35 41 53 5 4 9 8 11 11s2 4 2 14l-1 10-7 13c-6 12-7 14-15 22-5 5-11 10-14 12-8 5-28 13-30 12-3-1-4-5-5-27-1-24-2-27-9-46-4-11-6-14-9-16-6-6-12-5-18 1-6 7-7 14-8 47-1 26-1 30-4 30-8 0-17-35-20-80-1-10-2-19-2-19-1 0-2-7-2-15-3-20-5-34-7-39-4-14-16-17-20-5-3 6-5 24-7 54 0 14-2 26-2 26-1 2-3 0-4-4-1-3-3-8-4-13-2-5-6-15-9-23-3-11-8-23-14-39-4-11-17-18-24-15-2 1-3 3-4 4-2 3-1 12 1 23 2 6 4 15 4 19 2 9 5 27 8 41 0 6 1 12 2 14 2 9 2 19 1 20-3 1-11-12-22-37-8-18-13-29-16-33-3-5-7-8-13-8-4 0-6 1-8 3-2 1-3 4-4 6 0 5 3 19 12 49 2 7 5 17 7 22 6 16 7 20 7 22 0 6-3 3-17-10-14-14-19-18-26-21-11-4-17 1-16 12 1 6 10 23 16 32 5 7 26 33 47 58 4 5 13 16 19 26 18 27 22 30 35 31 12 1 65 1 72 0z"/></svg>