<svg xmlns="http://www.w3.org/2000/svg" width="1344" height="566"><path d="M0 283V0h1344v566H0V283m293 275c15-1 27-1 81 1 10 0 32 0 50-1 73-2 105-3 131-1 25 1 135 3 155 2 22-1 23-2 12-18-3-5-8-11-9-14-2-2-6-10-9-17-8-17-11-23-19-31-5-6-8-8-17-12-6-3-17-7-24-10s-15-6-16-6c-1-1-9-4-18-6-9-3-19-7-24-9s-19-7-32-11c-27-9-29-10-32-14-2-2-2-3-2-9s1-8 7-20c9-19 11-21 23-23 8-1 28-6 33-8 8-4 15-10 18-16s5-15 6-32c0-8 1-14 6-36 8-37 8-46-2-79-6-18-8-26-10-41-1-6-2-14-2-19-1-4-2-16-3-26 0-20-2-31-8-48-5-15-7-19-14-25-16-14-29-21-45-23-12-2-59-3-110-2-44 1-62 2-69 4-6 2-16 8-26 19-9 8-11 11-17 23-7 12-14 28-27 56-8 17-23 47-31 59-4 6-10 15-13 20-8 14-20 29-29 39-4 5-10 13-13 18-14 17-45 48-59 58-3 2-8 5-11 8-4 2-11 6-16 9s-11 6-12 7c-2 3-2 3-1 7 1 5 1 5-3 12-3 5-7 11-9 15-6 8-7 10-5 17 1 5 1 5-1 8-4 5-4 7-3 9 2 1 7 1 18-2 4-1 14-4 23-6 12-3 17-5 27-10 7-4 14-7 15-7 2 0 5-1 9-3 6-3 7-2 10 2 1 3 1 5-3 23-1 2-1 9-2 15 0 9 0 12 2 22 3 10 4 13 8 20 8 12 10 14 20 18 11 3 17 10 15 15-2 4-21 25-28 30-12 10-21 19-25 28-1 2-2 6-3 10 0 9 0 10 11 12 10 1 100 1 122-1z"/></svg>