<svg xmlns="http://www.w3.org/2000/svg" width="1344" height="566"><path d="M0 283V0h1344v566H0V283m1091 239c5-3 6-7 6-14 0-15 4-25 18-42 4-5 8-11 9-14 4-12 7-20 9-22 0-1 2-5 4-9 4-10 3-20-1-34-3-12-6-17-14-31-6-11-10-22-12-33-1-6-3-63-4-97 0-29-6-48-20-61-6-7-18-14-27-15-3-1-15-1-27-1h-22l-5 5c-3 3-7 7-9 11s-6 12-9 17-6 11-7 13c0 4-4 10-9 16-6 8-6 8-6 30 0 18 0 20 2 25 3 7 3 10 0 14s-5 6-14 8c-8 1-8 1-10 0-1-1-2-4-3-6 0-3-4-7-7-7-4 0-13 3-15 5-4 3-17 22-19 26-2 5-1 14 1 23 3 12 3 22 0 29-4 6-7 11-13 14-5 2-10 8-14 15-4 9-4 24 2 50 2 7 3 16 4 18 1 5 4 8 11 10 13 5 21 8 26 11 3 2 7 3 11 4 5 1 9 2 27 8 4 2 11 4 14 4 4 1 10 3 14 4 3 1 9 3 13 4s10 3 13 4c4 2 9 4 11 4 2 1 5 2 7 2 2 1 7 3 11 4s10 3 13 4c22 7 23 7 31 7 6 0 7 0 10-3z"/></svg>