<svg xmlns="http://www.w3.org/2000/svg" width="1344" height="566"><path d="M0 283V0h1344v566H0V283m612 277c2 0 43-1 93 0 98 0 95 0 98-6 3-5 3-25 0-42-2-22-16-68-24-83-4-10-5-12-2-21 1-8 1-7-2-11-3-3-14-9-31-16-4-2-8-3-8-4-1 0-8-4-16-7-7-3-18-8-24-11s-13-6-17-8c-12-5-13-8-9-31 1-9 2-22 3-30 1-7 2-18 3-24 2-17 1-32-2-71-5-61-10-82-21-110-10-23-25-42-43-54-9-6-27-16-38-20-8-3-9-3-20-3s-14 0-32 7c-4 1-11 2-16 3-15 1-24 6-37 18-18 17-27 34-36 65-6 22-8 30-16 75-9 52-11 71-11 102 0 21 0 26 2 36 4 19 2 25-5 29-4 2-7 3-16 3-9 1-12 2-23 6-13 4-18 7-44 21-35 20-35 19-36 35-1 12-4 25-8 35-2 5-4 10-5 13-4 11-18 70-20 86 0 7 2 12 7 14 7 3 39 4 78 3 38-1 89 0 134 1 38 2 138 2 144 0z"/></svg>