<svg xmlns="http://www.w3.org/2000/svg" width="1344" height="566"><path d="M0 283V0h1344v566H0V283m898 278c50-1 70-1 180 0 38 1 73-1 77-5 7-5-4-22-35-53-17-18-27-27-44-39-6-3-14-9-19-13-4-4-13-10-19-14-13-9-27-24-34-36s-17-28-22-35c-7-9-18-27-21-33-2-4-5-9-6-11-6-8-20-28-21-32-2-3-2-7-1-9 0-1 4-5 9-9 12-9 17-16 23-32 2-7 2-8 3-40 0-43-2-67-7-84-1-2-3-7-4-12-4-10-13-29-19-38-11-16-29-30-54-43-12-7-20-9-35-12-23-4-51-2-69 5-4 2-11 5-17 7s-17 6-23 7c-15 4-26 10-37 18s-16 14-24 25c-10 15-16 29-18 48-1 5-2 15-3 22-1 8-1 19-1 29 0 17 1 23 13 57 4 12 8 26 10 32 3 13 7 28 10 37 2 3 4 9 5 12 7 18 29 59 35 66 3 4 12 10 19 13 5 2 9 3 16 4 5 0 9 1 10 2s0 3-3 8c-8 12-10 14-23 21-11 7-15 10-34 24-17 14-25 24-29 39-1 7-1 8 2 28 2 15 2 18 0 23-2 3-2 5-1 10 1 7 3 10 9 11 2 1 26 2 64 2 98 1 105 1 138 0z"/></svg>