<svg xmlns="http://www.w3.org/2000/svg" width="1344" height="566"><path d="M0 283V0h1344v566H0V283m792 279c67-1 116-1 184 0 52 1 76 1 95 0 33-1 34-2 36-5 1-2 1-3-4-17-7-22-7-22-13-32-8-12-14-26-16-35-3-11-2-27 1-49 12-71 14-88 8-95-3-3-7-3-13 2-2 2-4 4-5 4-2 0-4-5-7-13-2-11-3-13-7-16s-7-3-12 2c-2 2-5 4-5 4-1 0-4-2-7-4-3-3-6-5-7-5-3-1-8 2-10 6-7 10-6 9-13 10-9 1-15 6-17 18-1 3-2 8-2 11-1 2-2 6-2 7-2 7-6 6-32-4-34-13-53-22-56-26l-2-3 2-13c8-47 8-92-2-118-5-15-16-33-25-41-10-10-49-31-63-34-11-3-33-4-44-3-9 1-13 2-30 12-22 12-37 25-47 42-3 5-10 26-10 29 0 2-4 16-9 38-1 4-2 7-3 8s-1 6-1 11-1 14-1 20c-2 10-2 12 0 24 2 15 2 17 0 21-3 6-28 16-92 35-8 3-10-1-10-21-1-21-3-28-6-31-2-2-2-2-5-1-1 1-5 3-7 6-2 2-5 4-6 4-2 0-5-6-7-13 0-4-3-9-4-11-3-4-4-4-6-4-3 0-4 2-9 8-2 4-5 8-6 8s-4-1-6-3c-5-5-8-5-11-2-3 4-4 6-5 13-1 4-2 9-3 12-3 6-6 7-13 5-10-4-13-1-15 9 0 7 0 9 4 30 1 3 2 10 3 14 0 5 1 11 2 12s1 5 2 8c1 7 3 18 6 26 0 2 2 9 4 16 1 6 2 12 3 14 2 8 2 17 1 26-4 18-8 31-14 46-4 12-5 14-11 22-7 11-5 13 13 15 9 1 13 1 16 0s9-1 19-1c18 0 21 0 64-1h48c22 0 116 2 132 3 7 0 16 1 20 0h38z"/></svg>