<svg xmlns="http://www.w3.org/2000/svg" width="1344" height="566"><path d="M0 283V0h1344v566H0V283m944 277c16-1 40-1 52-2l23-1 3-2c1-2 2-5 3-10 0-7-1-30-3-39-1-3-2-14-3-24 0-10-1-21-2-25 0-5 0-8 2-14 2-5 3-9 3-10 0-3-8-14-13-17-10-8-50-27-58-29-2 0-6-2-9-3-5-3-6-4-13-14-1-2-4-5-6-6s-4-3-5-5c-1-3-1-3 1-6 1-1 3-3 4-3 2-1 4-2 5-3 2-2 3-3 3-15 1-8 1-17 2-22 2-11 2-47 0-62-1-6-3-18-4-25-1-13-2-18-10-58-6-34-8-41-20-66-18-40-38-57-90-76-23-9-29-10-43-8-14 3-36 10-60 21-12 5-13 6-22 14-8 8-10 11-15 22-4 6-8 13-8 15 0 1-2 6-4 9-5 16-6 21-6 38 0 16 1 33 3 46 1 5 2 20 3 33 1 24 3 39 6 57 1 8 1 16 1 42 0 30 0 33-2 43-3 15-4 17-13 16-3 0-9-1-12-2-4-1-8-1-12-1-9 1-20 6-22 9-1 1-1 6-2 14l-1 11 4 4c2 3 6 8 8 12 2 5 6 11 9 14 5 5 6 6 4 9-3 5-28 18-35 18-1 0-3 1-5 1-4 4-8 1-10-6 0-2-1-6-2-9-1-2-2-5-2-7s-1-4-5-7c-4-4-9-13-9-16 0-7-12-21-18-21-2 0-4-1-6-3-5-4-10-4-23-3-10 1-13 2-18 5-3 1-7 3-9 4-2 0-8 2-13 5-9 5-15 11-21 20-4 6-8 11-10 11 0 0-2-1-3-3s-1-2 1-7c3-4 3-5 2-11 0-4-1-6-3-8-3-3-5-9-6-18-1-6-2-8-6-11-4-2-9-1-18 3-5 2-8 3-16 3-19 2-21 3-30 20-3 6-10 16-13 21-8 9-17 24-17 25 1 0 5 4 11 7 5 3 12 8 15 10l6 3h9c9-1 14 0 18 2 0 1 1 3 1 4 0 2 2 7 4 11 3 8 3 8 3 17-1 8-1 12-5 22-4 12-4 13-3 16 1 1 4 4 8 6 6 3 7 3 15 3 15-1 23-6 28-17 2-4 4-7 5-8 2-1 7-2 17-4 8-2 10-2 11-7s8-13 16-20c4-2 8-6 9-7 1-2 4-4 7-5 2-1 5-3 6-5 1-1 3-4 5-6 1-2 4-6 6-10 3-8 6-9 9-6 1 0 2 2 3 4 1 7 12 14 16 10 0-1 3-1 6-1 5 1 6 2 8 4s3 4 3 5c0 2-4 5-10 8-7 3-24 14-28 17-5 5-6 8-7 16-1 15-3 21-10 27-4 4-4 4-3 5 5 4 17 5 41 5 25 0 23 1 40-6 13-5 16-6 22-10 4-2 5-3 6-2s1 2-1 6c-3 6-3 8 1 10 3 2 5 2 14 1 5 0 12-1 16-1 26-4 46-4 54-1 4 1 8 1 21 1h19c1 1 14 2 49 5 7 1 17 1 22 2s17 1 28 1 22 1 25 1c7 1 44 1 78 0z"/></svg>