<svg xmlns="http://www.w3.org/2000/svg" width="1344" height="566"><path d="M0 283V0h1344v566H0V283m258 277c30-1 41-1 43-2 3-1 5-4 9-13 3-6 6-15 7-19 4-15 9-34 10-36 2-3 6-4 24-4 21 0 54-2 61-4 4-1 8-2 9-2 2 0 7-1 11-2s14-4 22-6c9-2 17-4 19-5s6-2 9-3c5-1 12-3 19-6 2-1 5-2 5-2 1 0 5-2 10-4s12-5 16-6c4-2 8-4 10-4 2-1 4-6 4-10 0-3-4-8-6-8-1 0-3-1-3-2-5-10-5-10-15-6-30 12-39 12-43-1-2-6-4-8-6-8-2 1-7 9-9 16-4 13-9 15-36 16-17 0-29 0-52-3-12-1-16-4-23-18-4-8-5-10-7-22-2-13-3-19-7-27-2-6-1-7 5-21 6-12 7-12 18-12 13 1 14 1 40-22 5-5 7-10 9-19 0-2 3-10 6-17 9-21 9-21 7-30-2-12-6-19-16-30-11-10-20-17-27-18-2 0-9 0-14 1-18 2-30 10-41 27-9 13-9 13-14 13-4 0-7 1-15 6-4 3-7 3-16 4-25 2-47 10-82 31-8 5-14 9-21 16-9 8-29 31-33 38-1 1-4 5-6 8-17 23-55 101-52 106 2 2 15 1 19-1 2 0 3-2 4-4 0-1 1-6 3-9 1-4 3-10 4-12 2-7 2-7 12-6 11 0 13 2 15 9s1 12-3 18c-3 5-4 7-4 13 0 4-1 8-2 9s-5 2-8 2c-7 1-12 3-12 5 0 1 3 2 5 2 6 1 13 5 14 9 0 1 0 3-1 4s-1 7-1 11c-1 7-1 11-3 14-1 2-2 6-2 8-1 5-4 8-9 11-2 1-4 3-5 4 0 1 4 8 9 12 5 5 9 6 19 5 8 0 21 2 30 5 8 3 8 3 29 2 10 0 36-1 58-1z"/></svg>