<svg xmlns="http://www.w3.org/2000/svg" width="1344" height="566"><path d="M0 283V0h1344v566H0V283m888 278h145c60-1 89-2 93-4s2-8-5-17c-2-3-12-12-23-21-13-11-22-19-27-25-4-5-8-11-10-13s-9-8-15-12c-7-5-15-10-19-13-6-5-18-13-30-19-4-2-8-5-11-8-6-6-15-20-15-22 0 0-3-4-7-9-4-4-11-14-16-21-6-8-12-17-14-20-9-13-12-18-15-29-2-6-4-14-5-17-5-12-5-13 7-24 11-11 13-14 19-27 4-9 4-12 8-34 4-31 5-44 4-60-3-42-17-78-36-98-14-14-27-23-42-30-20-9-33-13-56-16-12-1-15-1-25 0-7 1-17 3-23 5-7 2-19 5-26 7-19 5-49 16-58 21-6 3-19 16-26 26-8 11-17 31-20 42-3 10-4 31-3 47 1 12 3 21 8 43 4 15 5 23 7 43 1 13 6 34 12 52 2 7 7 22 10 34 14 45 20 51 53 58 4 1 6 2 6 4 0 3-1 3-37 19-17 7-49 23-56 28-18 12-27 22-32 35-2 6-2 7-2 22v16l5 12c8 15 11 19 18 19 21 3 28 3 47 4 13 0 38 1 56 2s35 1 36 1h14c7 0 55 0 106-1z"/></svg>