<svg xmlns="http://www.w3.org/2000/svg" width="1344" height="566"><path d="M0 283V0h1344v566H0V283m754 276c15 0 41 0 56-1 31 0 37 0 43-3 7-2 13-7 15-11 1-2 3-5 5-8 5-6 8-12 11-23 3-12 4-14 10-10 4 2 26 13 31 15 7 2 16 3 27 4 6 0 14 2 19 3s13 3 19 4c10 1 10 1 27-2 17-2 19-3 22-8 2-5 1-9-4-21-3-10-5-12-10-18-8-8-9-9-11-20-2-7-3-11-6-15-3-5-12-13-19-18-8-5-15-13-20-19-5-8-11-15-20-26-9-9-11-17-11-40 0-18-2-38-4-45-3-10-8-19-15-29-3-4-7-10-9-14-4-7-4-7-26-13-23-7-28-10-26-14 1-3 5-4 16-5 12-1 15-2 29-15 13-12 15-15 15-17s-4-6-11-12c-22-22-35-39-57-77-18-29-42-51-69-61-7-3-26-6-37-5-12 1-29 8-44 18-3 2-15 13-27 24-12 12-24 22-26 24-12 10-30 20-53 31-26 13-32 17-32 20s3 4 14 5c12 1 15 3 13 7-4 7-14 18-28 31-12 9-13 13-8 23 4 7 12 14 23 18 16 8 22 13 24 22 2 6-1 17-7 29-7 13-13 33-16 49-1 7-4 80-3 119 0 31 0 33 2 37 3 8 20 20 32 25 9 3 11 5 18 18 3 7 7 14 9 16 4 5 8 6 25 7 13 1 56 3 62 2 2 0 16 0 32-1z"/></svg>