<svg xmlns="http://www.w3.org/2000/svg" width="1344" height="566"><path d="M0 283V0h1344v566H0V283m752 279c2-1 13-1 34-1 16-1 33-1 38-2 6-1 31-1 79-1 65 0 70 0 72-1s3-3 4-5c0-3-5-26-10-42-8-24-10-33-10-46 0-11 2-56 4-72 0-7 1-32 1-58v-46l-2-6c-5-12-11-21-23-33-11-11-18-17-42-36-5-5-11-10-12-12-4-5-5-12-5-32-1-10-2-22-2-26-2-14-11-36-21-52-5-8-4-7-40-34-5-4-13-9-17-11-8-4-10-4-23-6-32-5-47-4-69 4-29 9-43 19-61 43-11 15-23 38-25 49-1 4-2 15-2 24-1 13-2 20-3 23-3 6-13 13-33 23s-40 21-46 26c-8 5-17 14-20 20-2 4-5 13-5 21-2 16-8 44-10 54-2 4-4 16-9 35 0 4-3 14-5 22-5 23-8 41-11 72-2 12-2 14-5 21l-9 12c-7 6-17 13-19 13 0 0-4 1-7 3s-9 4-13 6c-4 1-9 3-11 4-2 2-17 8-30 13-21 9-46 13-82 14-13 0-26 1-28 1-10 3-13 4-12 8 1 1 2 2 3 2 3 1 12 1 21 0 27-3 48-4 62-3 5 1 29 1 53 1 49 0 57 1 65 5 4 3 7 3 15 4 5 1 50 1 100 1 79 0 91 0 97 1 5 2 12 2 38 2 21-1 33-1 36-2z"/></svg>