<svg xmlns="http://www.w3.org/2000/svg" width="1344" height="566"><path d="M0 283V0h1344v566H0V283m715 280c7-1 32-1 55-1 30-1 44-1 48-2 3-1 21-1 75-1 76-1 74 0 76-6 1-4-2-16-6-31-10-37-10-37-10-53 0-8 0-19 1-25 1-7 2-21 3-33s1-22 2-22c0-1 1-17 1-37 1-20 1-42 2-50 0-17-1-22-8-37-3-8-5-10-15-21-6-6-20-18-30-27s-20-17-21-19c-5-5-6-9-7-25-1-21-4-37-6-46-3-10-9-24-14-31-6-8-19-20-30-27-4-3-11-7-13-10-9-6-16-11-21-13-11-4-34-10-54-12-15-2-43 6-62 19-8 5-18 13-21 16-14 16-33 49-37 63-1 3-3 12-4 20s-3 16-3 18c-4 7-12 12-42 27-16 8-33 18-38 21-11 7-20 16-24 24-3 5-6 19-8 34 0 8-6 34-11 50-2 7-5 19-7 26-1 8-4 16-4 19-1 3-3 8-4 11-1 4-3 14-5 28-1 4-2 10-3 15 0 5-1 14-2 21-1 6-2 14-2 17-1 3-2 13-2 22-1 16-1 20-6 43-2 6-3 15-4 19 0 6 0 7 2 10 2 2 4 3 7 3 2 1 47 1 101 2 53 0 100 0 104 1 11 1 33 1 47 0z"/></svg>