<svg xmlns="http://www.w3.org/2000/svg" width="1344" height="566"><path d="M0 283V0h1344v566H0V283m762 277c62 0 114-1 115-1 3-2 2-5-1-8-15-12-25-24-37-42-10-14-14-23-15-30-1-3-2-9-3-12-3-8-19-39-28-57-5-7-9-16-10-20-4-10-6-11-27-15-6 0-16-3-22-5-5-2-16-5-23-8-7-2-20-6-27-9-8-3-20-6-26-8-21-8-26-11-28-20-1-14 1-24 8-31 4-4 5-5 15-7 24-5 32-12 32-28 0-2 1-13 2-24 1-10 2-23 2-29 0-10 0-13-3-21-4-12-5-17-7-29-1-13-4-23-9-33-5-12-8-22-11-34-3-13-6-19-12-25-7-5-15-9-36-16-23-7-29-8-49-8-20-1-26 1-41 7-12 5-15 8-27 19-11 10-20 23-26 37-10 21-12 29-26 95-13 56-19 81-29 114-10 36-10 36-10 51 1 14 1 14-2 20-1 3-4 7-9 11-11 9-18 16-20 20-2 5-4 12-9 36-12 58-14 72-12 93 1 14 2 14 16 16 6 0 29 1 51 1s41 0 41 1c0 0 43 0 95-1h208z"/></svg>