<svg xmlns="http://www.w3.org/2000/svg" width="1344" height="566"><path d="M0 283V0h1344v566H0V283m930 275c1-1 1-2 1-4-1-1-1-8-2-15-1-13-1-13 1-16 1-1 4-3 6-4 25-7 32-11 32-18 0-2-3-11-6-21-4-10-6-20-6-22 0-4 0-5 7-10 3-4 7-7 8-8 9-5 13-13 13-21 0-4 0-7-4-14-5-9-7-11-26-29-18-15-15-7-29-83-5-32-8-57-8-80 0-18 0-21 1-24 2-4 14-13 22-17 5-3 7-5 17-17 14-19 21-33 23-50 2-10 1-15-4-25-4-6-6-10-12-15-10-10-13-11-30-11h-14l-9 4c-14 6-22 15-30 31-11 22-22 36-30 41-2 1-8 2-16 2-15 1-18 2-18 7 0 7-2 10-11 18-11 11-19 21-31 40-13 22-16 28-17 42-1 6-3 20-5 30-4 24-6 41-7 54 0 6-1 25-2 43-2 39-4 108-2 119 1 7 1 9 5 14 6 7 8 10 9 14 1 2 3 6 5 9 3 2 6 6 7 8 0 2 2 5 3 6s2 6 3 10c1 8 2 9 6 12 3 2 7 2 76 2 66 0 72 0 74-2z"/></svg>