<svg xmlns="http://www.w3.org/2000/svg" width="1344" height="566"><path d="M0 283V0h1344v566H0V283m511 276c5-4 6-11 5-24-1-12-6-38-8-47 0-2-2-8-3-12-1-5-3-13-5-18-7-22-13-28-47-50-10-6-12-9-12-16 0-5 1-7 3-13 10-21 16-27 33-33 5-2 11-5 13-6l2-3v-63l-6-10c-6-11-9-18-13-34-6-19-14-33-25-40-4-3-20-7-34-9-30-4-57 4-75 22-15 15-20 26-22 49-1 7-1 40-2 75 0 95 0 97-10 115-6 12-12 30-13 40-1 3-4 16-7 27-4 13-6 23-6 26 0 8 4 23 6 24 2 2 16 2 104 2 56 0 102 0 102 1h9c7-1 9-1 11-3m307 1c11-1 49-1 131-1 92 0 116-1 118-2 3-2 5-6 6-16 3-18 9-76 10-99 1-18 0-39-4-50-6-21-26-60-44-85-5-7-12-15-28-30-22-21-24-24-26-35-1-9-3-11-9-11-8-1-12-3-15-6-3-5-9-16-10-23-2-6-2-7 0-17 1-7 3-13 3-15 1-3 11-42 15-58 5-20 4-37-4-54-3-5-5-11-6-12-2-6-7-11-15-16-20-12-42-16-64-11-19 4-41 11-50 16-7 4-17 15-21 22-2 5-3 7-3 18-1 10-1 15-4 24-2 7-3 16-4 23-1 12-3 20-9 36-4 11-4 13-1 19 5 8 7 12 9 21 1 5 4 13 7 20 7 16 12 20 30 24 8 2 12 5 17 12 8 10 8 11 4 14-1 2-4 5-5 7s-6 7-10 12c-19 21-22 26-23 41-1 8-2 11-7 25-6 15-12 30-17 41-4 11-11 37-17 65-3 13-5 30-6 49-1 27 0 34 4 43 3 6 6 9 11 10 3 1 18 1 37-1z"/></svg>