<svg xmlns="http://www.w3.org/2000/svg" width="1344" height="566"><path d="M0 283V0h1344v566H0V283m806 278c31-1 71-1 89-1 69 1 177 0 184-1 18-3 18-5 3-46-6-14-10-26-10-27s-2-7-5-13c-4-11-5-14-11-21-14-16-19-23-24-30-2-3-7-11-11-16-3-5-9-13-12-17-12-15-14-19-19-29-5-9-5-11-5-17-1-9 1-11 12-17 13-7 17-9 26-11 5-1 9-3 11-4s9-14 10-19c1-6-2-17-6-29-1-6-6-18-9-27-9-29-14-36-31-47-24-15-29-17-40-23-7-4-14-9-16-11-5-4-8-13-11-24-3-14-12-37-25-61-13-26-33-47-55-57-15-8-22-8-92-8-55 0-57 0-66 2-12 3-18 6-24 13-2 3-6 6-8 7-3 2-22 23-25 29-2 2-7 11-12 20-11 19-17 28-32 44-6 6-11 13-12 16-3 5-2 12 0 23s5 17 14 36c4 8 7 16 8 19 3 9 6 12 26 35 6 6 12 11 13 12 10 5 16 18 19 42 2 17 5 23 16 30 3 2 9 7 14 12s11 10 14 13c11 9 24 27 24 34 0 2-7 20-15 36-3 6-7 12-11 16-11 13-17 24-22 39-7 24-9 32-11 39 0 4-2 13-4 19-3 13-3 15 0 18 2 1 5 2 23 3 23 1 36 1 118-1z"/></svg>