<svg xmlns="http://www.w3.org/2000/svg" width="1344" height="566"><path d="M0 283V0h1344v566H0V283m598 276c35 0 75-1 88-2s33-1 44-1c19 0 104 2 122 2 31 2 217 3 222 2 2-1 3-2 4-3 2-4-4-18-14-30-2-2-8-9-13-16-9-11-17-19-32-31-21-16-26-20-34-28-16-15-24-21-31-26-3-2-8-6-10-8-10-10-38-30-45-33-5-2-7-2-21-3-13-1-16-1-22-3-17-7-26-19-30-41-3-19 3-45 14-60 6-7 12-17 18-28 8-18 11-31 8-44-2-8-2-13 0-36 1-14 1-33-1-43-5-23-19-42-42-57-17-11-29-15-47-19-20-4-56-4-74 1-20 6-42 21-56 41-11 15-14 25-16 52-1 10-2 23-3 30s-2 18-3 25c0 8-1 18-2 24-4 15-3 33 1 52 4 22 6 30 11 42 4 13 13 33 17 38 1 2 6 6 11 9 16 11 18 16 11 23-2 2-12 8-22 14s-23 13-28 16c-24 14-66 47-81 64-21 24-43 60-43 70 0 8 4 9 25 9 6-1 39-1 74-2z"/></svg>