<svg xmlns="http://www.w3.org/2000/svg" width="1344" height="566"><path d="M0 283V0h1344v566H0V283m712 278c10-2 12-6 13-23 1-13 1-15-3-28 0-3-1-7-1-8-1-2-2-5-4-7-3-5-7-13-11-25-2-4-4-9-5-11 0-2-3-8-5-12-5-12-6-14-5-22 1-12 2-11-27-23-23-10-40-17-53-22-7-2-15-5-18-6s-11-5-17-7c-10-5-12-6-14-10-4-7-1-25 11-61l7-20 1-16c0-16-1-32-6-59-9-49-14-68-29-102-8-18-16-28-34-43-29-25-51-35-77-35-15-1-20 1-41 12-9 4-17 7-20 8-14 2-31 18-42 39-6 12-13 31-16 44-5 19-11 48-14 73-6 36-7 57-9 102-1 17-1 31-2 31 0 1 1 10 2 20 2 28 2 27-18 35-12 5-20 10-26 14-9 7-31 21-44 28-8 5-16 9-17 10-3 3-5 8-6 16 0 4-2 11-4 17-2 7-6 16-7 20-2 5-4 12-4 14-1 2-2 8-2 12-3 17-4 22-4 30 0 9 1 12 5 14 2 1 18 1 63 1 33-1 63-1 67-1 12 0 143 1 144 1 0 1 268 0 272 0z"/></svg>