<svg xmlns="http://www.w3.org/2000/svg" width="1344" height="566"><path d="M0 283V0h1344v566H0V283m280 278c29-2 94-2 162 0 25 0 33 0 47-2 10-1 19-1 23-1 4 1 36 1 73 1 58 1 113 1 227 4h31l2-2c7-7 6-17-4-31-12-17-23-27-35-34-13-6-60-23-95-32-18-5-23-8-31-18-5-4-9-11-11-14-3-6-2-8 3-15 1-2 5-9 9-16 3-7 8-16 10-20s6-13 9-19c2-7 6-15 7-18 4-7 14-26 17-33 7-17 11-45 14-91 1-12 3-27 3-34 2-16 1-35-2-53-3-16-6-27-14-45-12-29-22-44-35-56-10-9-26-20-34-23-5-3-8-3-20-4-21-1-143-1-151 0-3 1-7 2-9 3-15 8-39 30-47 43-13 21-20 44-23 79-2 20-4 27-10 44-3 9-5 19-6 23-2 14 0 33 5 44 3 6 3 13 0 25-1 5-3 14-3 19-2 15 0 20 9 39 11 24 20 50 20 57 0 5-10 20-29 44-9 11-12 14-17 17-10 6-24 11-57 20-4 2-14 4-20 6-7 2-15 5-19 5-6 2-31 11-45 17-3 1-11 5-17 8-11 6-13 7-19 14-11 12-18 27-16 37 1 8 6 12 17 13 8 1 56 0 81-1z"/></svg>