<svg xmlns="http://www.w3.org/2000/svg" width="1344" height="566"><path d="M0 283V0h1344v566H0V283m359 278c14-1 81-1 187-1h612c35 0 69-3 82-6 7-3 5-9-9-19-13-10-18-14-22-24-5-9-17-45-17-50 0-4-7-24-9-27-4-4-10-6-22-9-15-3-16-3-20-9-4-5-11-20-13-27-1-3-4-10-7-17-7-14-11-25-16-40-1-7-6-22-10-34s-9-27-10-34c-5-18-7-26-9-36-7-30-13-48-20-53-3-3-9-4-13-2-3 2-5 7-5 12 1 8 0 17-2 17-1 0-2-2-2-3s-2-7-4-13-4-13-6-16-5-9-8-14c-7-14-11-18-17-18-3 0-10 4-12 7-3 4-5 4-10-2-7-7-12-9-17-5-3 2-7 8-9 14-1 4-2 6-6 9-9 8-13 21-13 49 0 21 1 26 4 46 2 8 3 20 4 27 1 12 3 20 7 27 7 14 44 67 70 99 5 6 10 13 12 16s5 8 7 11c8 13 21 41 31 67 2 5 1 9-3 10-2 0-8-3-25-14-5-4-16-10-23-15-26-15-30-19-36-34-3-7-7-16-9-21-5-9-6-11-14-19-18-17-42-36-53-40-5-2-8-2-22-3-9 0-25 0-36 1-10 1-26 1-36 2-20 0-23-1-26-7-2-6 0-29 6-47 3-9 5-12 9-16s6-9 10-23c3-7 4-10 7-12 4-4 4-6 1-19-1-5-2-11-3-14-1-4-3-10-6-15s-7-14-10-21-8-20-12-28c-4-9-8-18-10-22-5-14-12-29-22-44-20-33-27-43-40-56-18-17-35-26-68-35-12-4-27-5-49-3-33 2-38 3-47 4-24 4-36 8-52 18-16 9-33 25-41 38-7 10-21 40-25 50-3 11-5 22-5 35 0 9 0 10 4 16 6 10 7 16 7 30-1 6-2 16-3 21-2 18-2 24 3 35 7 18 7 21 7 34-1 17 2 33 8 44 2 6 11 17 20 28 11 12 16 20 16 26 1 7-1 19-4 28-3 8-4 9-13 19-11 10-18 14-30 18-11 4-11 3-13-21-1-18-3-24-12-43-7-14-11-18-17-18-7 0-12 5-15 13-2 7-3 20-2 45 1 17 1 20 0 22-2 1-2 1-4-1-7-9-17-53-21-89-3-34-7-58-10-65-5-10-14-12-19-3-4 7-5 17-8 58 0 16-3 19-6 10-5-13-8-24-14-48-5-17-8-23-12-28-6-5-12-7-17-4-5 2-7 7-7 14 0 4 1 18 3 32 4 33 4 37 4 39-1 1-1 1-3 0 0-1-1-2-1-3s-1-4-3-7c-4-12-6-16-6-18-2-6-7-16-10-18-5-3-10-4-14-1-5 2-8 7-8 13 0 7 10 59 12 63 0 1 2 6 3 12 4 17 5 18 5 20 1 1 1 2 0 3-2 0-5-2-12-12-18-25-25-31-34-31-4 0-7 1-9 5s-1 13 2 20c1 2 2 5 2 5 0 1 2 5 4 10 7 15 8 17 66 104 10 15 20 26 27 29 3 1 8 2 16 3 11 1 15 1 50-1z"/></svg>