<svg xmlns="http://www.w3.org/2000/svg" width="1344" height="566"><path d="M0 283V0h1344v566H0V283m828 278c7 0 9-1 11-3 7-6 3-17-13-38-8-10-11-15-16-26-4-10-7-14-11-19-4-4-9-10-12-13-7-8-15-13-31-18-29-9-35-11-46-14l-27-9c-20-6-43-12-61-15-22-3-23-4-23-14 0-5 0-7 3-9 2-2 3-3 4-3s7-2 14-5c18-7 29-15 34-27 2-5 2-7 2-18 0-6 0-16-1-22-1-8-1-20 0-39 0-23 0-29-1-37-2-11-8-28-16-43-7-14-9-22-12-50-3-25-5-37-10-46-6-12-14-24-22-32-11-10-19-15-42-20-35-9-51-12-79-14-29-2-48 0-69 9-28 12-39 19-61 41l-13 13-7 14c-4 8-9 19-11 25-4 14-13 51-16 70-3 18-5 25-11 37-10 24-37 75-49 91-11 16-20 26-35 41-9 10-18 19-19 22-1 2-3 8-5 13s-5 12-6 14c-11 16-17 27-17 29 1 1 3 6 5 10 3 9 3 10 3 19-1 8-1 11 0 14 2 3 7 7 10 7 1 0 4 1 8 3 7 4 16 14 23 27 2 5 6 11 8 13 5 5 20 13 31 16 5 1 11 3 14 4 4 1 10 1 39 0h77c75 1 138 0 192-1 66-2 61-2 88 0 12 0 46 1 75 2s54 1 55 1c6 1 37 1 46 0z"/></svg>