<svg xmlns="http://www.w3.org/2000/svg" width="1344" height="566"><path d="M0 283V0h1344v566H0V283m489 129c5-2 13-5 17-7 5-2 13-6 18-7l10-4 6 3c5 2 7 2 15 3 6 0 14 1 19 1 28 6 38 7 94 9 15 1 30 1 34 2 12 2 24 2 34 1 4-1 12-2 15-3 4 0 9-1 10-1 1-1 7-2 11-2 5-1 11-2 13-3 2 0 12-3 22-5 10-3 22-6 25-7 9-2 16-3 32-5 6-1 12-2 13-2 2-2 3-9 1-28-1-20-2-26-5-33-4-11-5-13-6-20-2-9-6-16-13-21-6-3-8-8-11-15l-1-5 4-4c3-3 5-5 5-6 0-2-3-12-11-40-4-15-8-31-11-48-3-13-5-17-11-32-6-13-14-25-23-34-11-10-30-21-47-26-12-3-34-1-60 7-23 7-37 22-46 49-3 12-5 20-6 41 0 9-1 20-2 26 0 6-1 15-1 21 0 15-2 26-4 29-2 2-3 3-11 3-8 1-11 1-16 4-4 2-9 5-12 7-2 2-6 5-8 6-7 5-13 13-18 26-4 11-9 17-20 26-10 9-16 12-34 20-14 6-24 8-34 8-3 0-7 0-8 1-3 2-9 12-16 31-2 3-5 11-7 17-5 12-6 16-3 18 1 1 26 3 34 2 2 0 8-1 13-3z"/></svg>