<svg xmlns="http://www.w3.org/2000/svg" width="1344" height="566"><path d="M0 283V0h1344v566H0V283m956 277c7-2 7-3 6-25 0-19 1-48 3-53 1-3 3-3 6 1 3 2 3 2 6 1 5-2 7-6 11-22 5-15 5-18 1-22-1-2-4-7-6-11-5-9-12-17-26-29-21-18-34-25-56-32-11-4-15-6-17-9-1-2-1-8-1-16 0-13 0-14-3-18-4-6-8-8-15-9-11-1-23 5-28 12-4 6-4 17 0 31 1 6 3 13 4 14 2 4 1 9-1 13-1 3-2 7-2 24-1 23-1 24-9 29-7 4-11 8-11 10 1 1 3 2 9 2 5 0 9 1 10 2 1 0 2 3 2 6 4 28 7 39 10 41 1 0 4 1 7 1 5 1 7 2 9 4s2 3 2 8c-1 7-2 7-6 11-4 3-20 10-24 10s-11 3-11 5c-1 0 0 3 0 5 2 5 6 8 15 11 18 5 22 6 68 6 27 0 45 0 47-1z"/></svg>