<svg xmlns="http://www.w3.org/2000/svg" width="1344" height="566"><path d="M0 283V0h1344v566H0V283m817 279c11-1 13-2 13-8 0-4-4-21-10-39-5-15-6-22-7-56-1-31-2-37-7-49-2-6-4-13-4-17-1-4-1-8-2-10 0-3 0-7 1-11 4-13 4-25 1-52-3-30-5-47-10-68-1-8-4-20-4-25-3-17-7-34-9-38-4-9-13-23-21-30-11-11-28-20-44-23-8-2-36-2-46 0-20 3-33 9-41 16-7 8-16 26-18 39 0 3-2 7-2 10-1 2-2 6-2 7 0 4-4 19-6 22-1 2-3 6-5 9-6 8-6 12-4 27 0 6 2 17 3 24 2 16 4 24 9 28 2 2 6 4 8 5 14 4 23 8 23 11 0 1-2 5-5 8-4 6-9 14-21 33 0 1-5 3-10 5-15 7-31 15-35 18-5 3-38 37-41 42-4 5-8 14-10 21 0 3-3 11-6 17-4 11-4 12-4 22 0 11 2 21 8 35s10 19 19 21c4 1 31 3 74 4 17 1 37 2 44 2 17 1 159 1 171 0z"/></svg>