<svg xmlns="http://www.w3.org/2000/svg" width="1344" height="566"><path d="M0 283V0h1344v566H0V283m702 277c12 0 16-2 18-6 1-5 1-8-1-17 0-4-1-12-2-18-1-10-2-14-9-35-5-14-10-28-12-31-3-6-3-8-3-17 0-14-2-16-21-24-8-4-17-8-44-20-10-5-21-9-25-11-7-2-27-12-32-15-2-1-4-4-5-6-1-3-1-4 1-18s9-38 16-53c7-17 7-41 2-75-2-12-4-25-5-30-1-4-3-11-4-14 0-4-2-11-3-16-2-11-12-38-17-52-9-20-20-35-38-50-19-15-33-23-54-29-12-3-38-4-48-2-7 1-21 8-39 19-27 16-33 22-43 44-9 17-12 30-17 55-6 27-9 47-13 84-1 10-3 28-5 41-7 54-7 75 3 99 7 15 7 16-24 27-10 4-18 7-28 14-20 15-32 23-43 29-10 5-17 11-19 15 0 1-1 5-1 9-1 5-2 9-7 19-9 21-13 33-15 54-3 20-3 26 1 29 2 2 4 2 61 2 32-1 63-1 68-2h14c2 1 86 1 189 2 102 0 186 0 186 1h5c2-1 9-1 13-2z"/></svg>