<svg xmlns="http://www.w3.org/2000/svg" width="1344" height="566"><path d="M0 283V0h1344v566H0V283m711 85c2-1 8-2 12-2 5 0 17-1 27-3 9-2 20-3 24-4 3 0 8-1 11-2 18-6 24-6 44-6 11-1 20-1 21-1 1-1 0-24-2-31 0-3-1-11-2-18 0-12 0-13 2-15 1-2 4-4 5-5 2 0 5-2 7-3 2-2 4-3 15-3 17-1 16 1 16-31 0-14 0-32-1-40-1-9-1-22-2-31-2-28-6-51-13-73-5-15-8-19-17-28-11-12-27-22-39-24-12-3-29-2-47 4-24 7-36 18-44 40-2 7-2 9-3 37-2 44-2 53 1 68 2 18 2 44 0 49-1 2-3 3-5 4h-39c-35 1-36 1-40 3-3 1-10 4-16 7-6 2-13 5-15 7-3 2-6 4-8 5-1 1-4 4-7 5-2 2-5 4-7 5-1 0-9 0-17-1-22-2-24-2-32 7-6 5-12 9-18 10-16 4-20 5-20 10 0 1-2 7-4 13-3 5-5 11-6 13 0 1-2 7-4 12-5 10-6 17-3 19 1 2 3 2 11 2 9-1 11-1 18-4 5-2 11-5 13-7 5-4 7-5 14-3 12 3 29 5 40 6 7 0 13 1 14 1 1 1 21 4 31 5 3 0 21 1 38 2 18 0 33 1 34 1 2 1 9 1 13 0z"/></svg>