<svg xmlns="http://www.w3.org/2000/svg" width="1344" height="566"><path d="M0 283V0h1344v566H0V283m829 277c3-1 4-3 7-8 5-11 14-49 14-62 0-10-4-29-11-54-6-21-8-27-15-62-2-10-3-18-4-18 0 0-1-5-1-11-1-5-2-11-3-13s-1-10-2-18c-2-30-4-40-7-45-2-4-10-10-25-19-11-5-14-8-12-10 1-1 3-2 6-2 2 0 8-1 12-3 13-4 16-9 10-21-4-9-8-13-23-24s-22-17-24-20c-1-2-1-10-2-27 0-22 0-25-2-31-4-17-13-27-28-34-17-8-31-9-60-1-25 7-33 12-39 25-4 7-4 17-1 27 2 9 3 18 0 23-1 5-4 13-4 17-1 4-8 12-16 16-10 5-12 9-15 31-2 18-3 23-8 33-4 9-6 12-11 16-3 1-5 4-8 10-2 4-7 14-11 21-6 10-8 15-9 22-3 14-5 31-5 42 0 9 0 11 2 15 2 3 5 6 8 8 6 4 6 4 14 4 7 0 13-1 30-7 13-5 12-5 15-2s3 2 0 72c-2 41-2 97-1 102 2 7 3 7 22 7 10 0 22 0 26 1 5 0 47 1 94 1 63 0 84 0 87-1z"/></svg>