<svg xmlns="http://www.w3.org/2000/svg" width="1344" height="566"><path d="M0 283V0h1344v566H0V283m748 197c9-1 17-1 18-2 5-2 19-5 26-7 10-1 25-5 38-9 3-1 8-2 10-3 2 0 7-1 9-2 8-3 23-4 41-3 25 2 25 2 25-17-1-7-1-15-2-19-1-5-4-36-4-49v-12c1-9 0-17-5-22-2-3-20-10-30-13s-16-6-25-16c-4-5-8-10-8-11s1-3 3-5l3-2-1-10c0-11-8-67-11-82-10-51-21-84-37-107-10-15-27-29-46-39-17-8-24-10-35-11-12 0-18 1-29 6-6 4-9 4-18 6-14 1-21 5-31 13-14 13-24 36-32 66-5 22-6 29-9 54-2 22 0 78 5 111 2 11 1 11-9 11-5 0-11-1-14-2-4 0-11-1-18-2-14 0-15 0-30 15-6 6-13 12-16 14-4 2-10 6-14 9-6 5-26 19-32 22-1 1-5 4-9 7-11 9-16 11-26 11-12 0-11-1-18 18-2 5-5 12-7 17-6 12-11 26-13 35 0 5-2 10-3 12-1 4 0 6 4 8s6 1 18-3c13-4 22-7 25-7 2 0 6-1 10-1 12-3 24-3 31-2 5 2 8 2 14 1h12c6 1 6 1 11-1 5-3 6-3 12-2 3 0 8 1 11 2 28 9 48 11 92 10 29 0 50 1 65 4 11 2 14 3 19 8 4 3 5 3 9 3 2-1 12-1 21-2z"/></svg>