<svg xmlns="http://www.w3.org/2000/svg" width="1344" height="566"><path d="M0 283V0h1344v566H0V283m794 278c49-1 94-1 100-2h56c26 1 57 1 70 1 29 0 32 0 35-5 1-3 1-5-1-13s-9-32-13-44c-2-7-7-27-11-42-1-7-4-19-11-41-2-5-4-13-5-17-2-9-7-26-10-31-1-3-5-7-8-10-6-6-12-8-34-14-57-14-66-18-70-24-6-10-8-13-14-17-16-13-39-37-49-51-9-14-10-19-5-39 6-30 8-51 7-78-2-40-11-64-34-84-15-12-31-21-50-26s-71-5-93-1c-15 4-21 7-31 19-2 4-10 12-15 18-6 6-14 15-16 20-7 9-15 25-18 34-1 4-4 11-7 18l-5 10-1 15c0 17 1 21 11 52 4 11 7 23 8 26 4 18 18 31 42 41 2 2 9 5 15 8 14 8 15 9 15 21 0 15-5 22-29 41-12 9-33 20-51 27-13 4-15 5-41 20-25 14-31 18-38 25-14 13-20 27-22 58-2 15-3 21-5 46-1 5-2 13-3 16 0 4-1 9-1 11 0 4 3 10 6 10 12 3 171 4 326 2z"/></svg>