<svg xmlns="http://www.w3.org/2000/svg" width="1344" height="566"><path d="M0 283V0h1344v566H0V283m996 279h57c2 0 5-4 5-8 0-8-11-54-19-78-6-18-8-25-6-27 2-1 5-1 10 1 2 0 6 1 9 1 7 0 12-2 18-8 5-6 6-12 6-27-1-17-6-29-25-61-10-17-11-19-13-31-2-14-3-20-5-23-1-2-6-9-12-15-10-10-12-13-17-22-3-6-5-13-6-16-3-16-4-27-5-37-2-17-5-41-7-47-2-10-7-21-11-27-5-8-15-17-23-21-11-6-18-7-36-5-14 2-15 2-23 6-10 5-15 9-22 16-6 6-11 15-12 21-1 5 1 32 3 48 4 26 7 33 19 46l7 8v8c-1 11-7 32-13 50-6 15-6 16-4 37 1 11 2 16 6 30 5 19 8 29 9 41 1 10 3 16 8 27 4 10 5 13 2 19-4 8-5 16-4 23 1 6 0 13-4 27-4 13-8 27-9 35 0 4 0 6 1 7 3 3 16 4 42 3 11 0 44 0 74-1z"/></svg>