<svg xmlns="http://www.w3.org/2000/svg" width="1344" height="566"><path d="M0 283V0h1344v566H0V283m364 278c41 0 84 0 95 1 6 1 13 1 16 1 4-1 8-1 10-1h27c31-1 47 0 146 0 82 1 84 1 84-2 0-1-8-5-21-10-19-8-33-12-55-15-16-3-21-4-26-9-5-3-15-16-19-22-3-6-3-8 7-24 11-19 16-30 20-40s6-15 10-20 7-11 10-19c1-4 3-10 5-12 3-5 3-6 4-21 1-10 0-26-1-48-2-58-6-81-16-105-11-25-18-35-33-51-13-13-22-19-38-26-12-5-22-8-36-9-6-1-16-2-23-3-6-1-17-1-25-1-13 0-15 0-23 2-15 5-23 9-36 17-28 18-43 37-53 68-5 13-5 14-9 40-2 11-5 30-7 41-3 18-4 23-4 34s0 12 3 17c2 4 2 8 3 14 0 5 1 12 2 14s2 9 3 16c1 6 2 13 2 17 1 4 1 12 2 19v12l5 11c8 16 8 17-2 30-17 21-19 22-46 26-19 3-22 4-53 11-40 8-66 17-77 24-5 4-12 14-12 18 0 3 3 5 9 6 5 1 101 1 152-1z"/></svg>