<svg xmlns="http://www.w3.org/2000/svg" width="1344" height="566"><path d="M0 283V0h1344v566H0V283m657 275h472c46 0 47 0 49-2 2-1 2-2 2-7-1-3-2-8-3-11-1-2-5-10-8-17-6-14-20-40-27-50-6-9-21-26-31-34-17-14-32-22-65-35-31-13-35-15-56-25-10-6-23-11-30-14-13-4-24-10-34-17-10-8-16-13-18-16-3-6-1-21 4-38 4-12 7-15 18-20 6-3 10-6 15-11 13-12 20-26 22-41 0-8-1-12-6-16-4-4-4-4-4-9 0-2 1-9 3-15 6-30 11-58 10-71-2-19-11-45-20-53-3-2-8-7-13-12-8-7-22-16-45-28-8-4-19-6-28-6-41 3-51 5-70 14-5 2-12 6-17 9-7 4-9 6-13 13-16 22-25 48-31 95 0 3-1 8-2 11-2 4-3 6-7 8-6 4-10 8-13 13-1 3-1 6-1 15-1 16 1 24 9 39 7 13 10 23 13 39 4 20 4 26 4 42 0 19 0 20-9 28-18 16-43 31-57 34-15 4-22 6-84 31-38 15-56 25-72 41-27 27-46 60-53 92-2 13-2 20 1 23 1 2 2 2 18 2 20-1 118-1 128 0 3 0 8 1 10 0 3 0 20 0 39-1z"/></svg>