<svg xmlns="http://www.w3.org/2000/svg" width="1344" height="566"><path d="M0 283V0h1344v566H0V283m519 276c43-3 201-4 221-2 6 1 33 1 88 1h200c29 1 32 0 34-3 2-4-1-11-8-19-4-5-17-16-25-23-3-1-9-6-14-10-12-9-26-18-37-24-36-20-49-29-49-36 0-3 6-20 11-33 4-9 16-33 21-40 1-2 5-10 9-17 17-29 24-39 32-46 24-20 36-37 44-60 2-8 3-14 4-20v-8l-5-5c-9-9-9-8 0-42 10-44 14-78 10-102-2-15-14-45-19-51-3-4-13-9-23-13-8-2-44-3-141-2-101 1-97 0-107 17-8 12-10 17-16 39-7 22-11 43-14 66-1 9-2 17-3 18-1 3-5 4-13 6-5 2-9 3-11 5-17 16-11 66 12 93 11 12 11 13 11 20 0 25-9 62-20 85-9 18-12 19-36 20-25 1-34 3-39 6-5 2-11 11-21 27-7 11-16 25-21 30s-19 16-28 22c-4 2-16 10-25 17-10 6-26 17-36 22-25 15-42 28-62 47-13 12-12 14 8 16 14 1 45 1 68-1z"/></svg>