<svg xmlns="http://www.w3.org/2000/svg" width="1344" height="566"><path d="M0 283V0h1344v566H0V283m552 277c17-1 129-2 224-2 83 0 79 0 79-8 0-4-3-9-14-21-10-11-17-17-35-29-25-16-42-25-70-34-24-9-43-19-45-24-5-8 1-25 16-52 3-5 7-13 10-18 30-53 32-57 45-66 20-13 38-43 43-70 2-14 1-18-5-22-8-5-9-8-3-39 6-28 7-33 9-51 4-43 2-67-11-92-7-14-12-21-17-23-9-5-17-5-96-6-80 0-140 1-153 3-13 3-13 3-21 20-8 16-13 31-17 49-3 14-7 41-8 57-1 14-3 22-5 25-2 2-4 2-10 4-10 1-14 4-17 10-3 7-4 18-4 26 1 10 5 27 7 33 2 8 11 21 18 29 11 11 12 13 10 31-2 28-7 51-14 64-5 11-7 12-28 13-16 1-30 2-41 4-7 1-11 5-22 25-16 28-24 38-43 54-8 7-8 8-8 27 1 9 1 20 2 23 1 4 2 16 2 27 2 15 2 20 4 23 4 8-1 7 78 8 56 0 72 0 76 1 3 1 42 3 48 2 1 0 9 0 16-1z"/></svg>