<svg xmlns="http://www.w3.org/2000/svg" width="1344" height="566"><path d="M0 283V0h1344v566H0V283m274 277c19-1 21-2 23-9 1-3 2-7 3-9 1-4 2-11 3-24 1-9 2-22 2-27 1-5 2-12 3-15 0-9 2-10 13-11 39-3 47-4 67-8 29-6 35-7 44-8 5-1 12-3 14-3l6-2c1 0 4-2 8-4l18-9c11-5 15-9 13-12 0-1-3-2-5-2-7-1-8-3-6-10 1-3 1-3 0-5-2-1-2-1-7 0-20 7-27 8-32 5-4-1-5-3-6-10 0-6-3-12-6-12-2 0-5 3-5 5 0 1-2 6-5 11-10 19-9 19-46 18-32 0-37 0-41-4-3-3-7-13-8-22 0-6-5-27-8-34-1-5-1-11 0-23 1-8 1-9-1-13-2-5-3-8-1-12 1-1 2-5 3-9 2-9 7-21 10-24 1-2 6-4 9-5 4-1 8-3 9-3 4-4 15-25 18-34 2-9-1-50-5-66-2-7-12-16-25-23-7-3-17-5-31-5-11 0-14 0-19 2-7 3-9 5-16 13-5 7-7 13-9 25-2 17-3 22-5 24-2 5-10 14-14 16-3 2-9 5-14 8-25 14-44 30-65 53-16 17-20 23-28 39-6 11-7 15-13 32-1 4-3 9-4 11 0 1-1 6-2 9-1 10 2 43 4 50 2 6 2 29 0 43l-1 9-7 6c-5 5-7 8-9 12-3 10-3 12 7 27 8 13 29 36 32 36 0 0 7 0 16 1 9 0 19 0 23 1 5 1 11 2 15 2 7 1 57 0 81-1z"/></svg>