<svg xmlns="http://www.w3.org/2000/svg" width="1344" height="566"><path d="M0 283V0h1344v566H0V283m598 99c3-1 9-2 12-3 4-1 16-3 27-6 26-7 43-10 59-11 16-2 20-1 26 0 3 1 7 2 9 2 1 0 5 1 8 2 6 3 26 4 34 2 5-1 11-3 28-7 8-2 10-2 27-2h22l4 1v-8c0-5-1-14-2-20 0-6-1-15-1-18 0-4-1-12-2-17-2-9-2-11-1-18 1-4 1-7 1-8l3-3c1-2 3-5 3-6 1-1 2-5 2-8 1-4 3-15 4-26 2-22 2-17-2-75-2-15-3-23-5-33-7-31-11-41-20-52-7-8-17-16-23-19-7-4-19-8-27-9-9-2-25 0-33 3-2 1-8 3-12 4-12 3-20 8-27 15-8 8-13 17-17 31-2 8-2 11-2 19 1 6 2 15 3 21 0 6 1 18 1 29 0 16 1 30 3 40 0 2 1 9 2 15s1 13 2 16c1 8 1 16 0 19-1 2-3 3-5 4-2 0-13 1-26 2-16 0-25 1-28 2-2 1-10 1-16 2-10 1-13 1-21 4-9 4-10 5-16 11-10 10-14 12-30 11h-18c-9-1-11 0-18 7-3 4-6 6-11 8-3 2-7 3-8 3-3 0-8 6-10 14-2 4-5 11-7 16-2 4-5 11-6 15 0 4-2 9-3 12s-1 6-1 7c1 4 5 5 23 5 15 0 16 0 23-3 4-2 7-3 8-3s4 3 7 6c4 4 8 7 10 8 5 1 41 0 47-1z"/></svg>