<svg xmlns="http://www.w3.org/2000/svg" width="1344" height="566"><path d="M0 283V0h1344v566H0V283m858 278c82 0 110 0 114-2 4-1 6-3 6-7 0-3-7-17-22-44-19-35-27-53-33-82-6-24-10-48-11-75-3-34-4-44-15-107-3-16-4-34-2-41 1-3 3-10 4-15 5-13 10-34 14-53 3-15 3-19 3-30-1-11-1-13-3-17-3-5-13-13-20-16-18-7-43-3-61 9-10 7-15 15-20 32-3 11-10 26-14 32-3 4-9 7-18 10-12 3-18 6-30 18-7 7-13 12-17 14-13 7-26 24-26 34 0 2 0 5-1 7-2 5-2 18-2 60-1 25-1 39-2 43-1 3-3 8-5 11-8 11-9 14-11 23-3 17-4 34-5 109 0 84 0 81 7 85 2 1 6 2 8 3 3 1 24 1 52 0 25 0 75 0 110-1z"/></svg>