<svg xmlns="http://www.w3.org/2000/svg" width="1344" height="566"><path d="M0 283V0h1344v566H0V283m816 275c2-2 3-4 3-8 1-2 2-7 3-10 1-5 2-4-2-32-1-5-3-17-4-26-3-16-3-21-3-36 0-19 0-24 8-64 5-24 6-33 8-62 1-18 1-18 4-22 13-19 17-26 20-37 2-11 1-22-2-39-2-7-4-17-4-22-3-18-3-17-16-30s-13-13-11-21c1-2 2-7 3-12 1-7 1-9-1-22-4-18-8-33-10-36-4-6-11-13-18-15-8-3-12-3-20-1-3 1-7 2-8 2-2 0-10 6-13 9-6 8-7 11-9 49-1 26-2 27-14 30-7 2-12 5-14 8-3 5-9 29-11 41 0 2-1 7-2 10 0 3-1 9-2 14-2 17-7 32-12 42-3 5-5 6-11 4-7-3-18-5-20-3-2 1-3 12-2 15 0 1 3 3 5 4 4 2 6 2 10 1 7-1 13 2 23 13 8 9 10 9 16 6 6-2 9-1 13 2 2 1 5 3 7 4 6 2 7 4 7 11 0 4 0 6 2 8 1 2 10 7 19 11 25 13 35 22 35 31 0 6-4 17-13 35-5 8-10 20-12 24-6 13-7 15-15 21-7 6-7 5-3 23 3 14 4 21 4 29 0 7 0 9-4 15-2 5-4 9-4 11 0 5 2 10 4 13 3 3 4 3 10 3 3 0 11 1 17 1 10 2 10 2 15 6l5 5h8c8 0 8 0 11-3z"/></svg>