<svg xmlns="http://www.w3.org/2000/svg" width="1344" height="566"><path d="M0 283V0h1344v566H0V283m1076 277c13 0 24-1 25-2 5-3 1-11-14-33-14-21-30-36-65-64-28-23-44-41-43-48 1-2 3-6 6-11 6-9 12-24 12-30 0-3-2-11-5-17-4-9-6-17-7-23-2-10-9-26-15-37-10-17-15-25-20-32s-9-15-10-19c-1-5-1-23 0-56 1-30 1-35-4-56-5-17-10-31-19-46-15-27-21-35-36-47-17-14-38-23-63-28-9-2-13-2-28-2-15 1-18 1-24 3-3 1-9 4-14 5-5 2-13 5-18 8-5 2-13 5-16 7-31 12-42 17-52 25-9 7-15 14-27 32-12 19-17 28-21 41-2 8-2 10-2 27 0 15 0 20 2 29 1 5 2 12 3 16 2 8 9 29 13 36 1 3 4 8 7 12 7 9 10 16 14 32 5 22 9 33 26 66 8 17 16 33 17 35 0 2 2 7 3 10 2 6 5 12 7 14 5 3 7 16 5 19-2 2-14 12-26 21-21 15-27 26-30 51-2 13-1 44 1 50 3 6 8 9 16 11 6 1 43 2 64 1 13-1 273 1 274 1 1 2 42 1 64-1z"/></svg>