<svg xmlns="http://www.w3.org/2000/svg" width="1344" height="566"><path d="M0 283V0h1344v566H0V283m361 277c5-1 51-1 101-2 113-1 111-1 137 1 24 1 217 2 225 1 14-2 16-4 15-22 0-23-3-32-17-45-11-11-27-23-38-31-5-3-12-8-15-10-4-3-9-6-12-8-23-14-43-34-43-45 0-4 6-14 22-35 14-18 19-26 26-40 9-15 12-25 18-56 1-5 4-15 6-22s4-15 4-18c6-20 9-60 6-85-3-32-15-54-42-80-15-15-24-22-34-27-9-4-17-6-39-8-7-1-15-2-20-4-11-3-29-4-45-2-19 2-31 7-49 20-19 14-35 32-45 53-7 13-9 25-12 57-2 28-3 33-6 39-10 19-11 21-12 29-2 15 1 35 8 46 2 2 7 8 12 13 10 10 14 17 16 24 3 12 2 18-7 23-2 1-13 11-25 22-11 12-24 23-27 25-10 7-22 12-31 14-5 1-13 4-20 6-11 5-33 14-60 23-36 13-48 21-57 39-11 24-26 74-29 95 0 7 2 11 8 11 7 1 71 0 81-1z"/></svg>