<svg xmlns="http://www.w3.org/2000/svg" width="1344" height="566"><path d="M0 283V0h1344v566H0V283m1041 280c12-1 34-1 49-1 25-1 26-1 28-3l2-2-2-7c-2-4-4-11-5-14-2-4-4-10-5-14-13-36-13-35-22-49-3-4-6-11-8-15-4-11-4-12-29-22-6-3-16-7-23-9-14-6-45-18-51-22-11-5-11-11-3-31 5-12 11-27 14-38 9-29 3-138-11-199-10-46-22-73-42-94-8-9-35-30-43-33-4-2-8-3-22-3-25-2-80-2-87 0-17 4-43 25-58 45-11 15-23 44-33 84-12 47-17 83-21 156-2 39-6 72-10 80s-17 16-36 22c-8 2-15 5-19 8-10 6-29 17-33 19-2 0-7 3-11 5-12 8-23 12-51 23-2 1-4 2-5 4-3 3-3 15 0 23 1 3 2 7 3 9 0 3-3 17-10 36-4 12-5 16-6 24 0 9 0 10 2 12s3 3 8 3c6 1 89 1 108 0h31c27 1 204 2 252 2 29 0 52 1 63 2 19 1 48 1 86-1z"/></svg>