<svg xmlns="http://www.w3.org/2000/svg" width="1344" height="566"><path d="M0 283V0h1344v566H0V283m882 271c13-3 30-7 38-9 7-1 18-4 24-5 15-3 40-4 48-2 10 2 18 2 20 1 1-1 1-7 2-16 0-14 0-21-5-43 0-4-1-16-2-26 0-10-1-18-2-19v-18l-1-17-2-4c-5-6-9-11-14-14-4-3-20-8-31-10-10-2-12-3-16-7-6-5-7-7-6-14 0-5 0-6-3-8-2-2-4-3-6-3-4 0-16-5-16-8-1-1 0-2 1-4 2-2 3-2 12-2 10 0 15-1 16-6 2-7-2-26-8-40-6-11-17-43-19-52-1-2-2-6-3-7 0-1-2-6-4-11-1-5-3-11-4-14-1-2-4-10-6-16-4-10-7-20-13-34-1-3-3-7-4-9-4-13-19-40-26-49-15-19-38-37-60-47-27-13-38-14-68-6-6 2-13 4-17 5-11 2-34 10-40 13-17 10-31 29-39 54-4 12-10 37-12 47 0 3-1 7-1 8-1 1-2 8-3 16 0 7-1 14-1 14-1 0-2 8-3 17-3 21-4 59-4 99 0 29 0 30-2 33-1 2-2 2-6 2h-16l-12-1-10 6c-6 2-13 7-15 9-7 6-17 11-25 12-3 1-8 2-9 3-1 0-4 1-7 2-8 0-12 2-18 8-10 8-17 12-23 13-7 2-23 10-27 14-1 2-4 6-5 8-2 2-6 4-8 6-5 2-7 2-20 2-15 0-29 2-32 4-2 2-1 5 4 8 6 4 8 7 8 12 0 1-2 7-3 12-2 5-6 15-8 22-6 17-8 23-8 27 0 3-1 4-2 5-1 0-2 3-4 5-8 15-10 20-8 22 1 1 2 1 4 0s5-1 12 0c8 1 10 0 18-1 14-3 45-6 58-6 9 1 12 1 18-1s9-2 14-2c6 1 7 1 12-2 4-1 8-3 12-3s10-2 12-2c6-3 15-2 25 2 8 3 34 9 45 10 16 2 29 2 38 1 7-1 22-1 48-1 35 0 40 0 52 2 21 4 31 7 39 14 3 2 5 3 6 4 6 1 25 2 60 2l39-1 22-4z"/></svg>