<svg xmlns="http://www.w3.org/2000/svg" width="1344" height="566"><path d="M0 283V0h1344v566H0V283m783 278h135c10 0 11 0 18-3 4-2 9-4 9-4 1 0 3 1 5 2 5 5 5 5 45 6 43 1 107-1 112-4s4-7-4-25c-2-5-5-12-6-15-1-4-5-11-8-16-6-11-7-16-6-34 0-10 0-13 3-24 5-14 9-27 12-32 4-7 12-34 14-43 1-11 0-19-4-23-3-3-5-3-10 2-5 4-6 4-9 1-2-2-3-4-4-9-1-13-4-19-11-19-3 0-4 1-10 7-4 4-7 6-8 6s-3-3-5-6c-4-6-5-7-10-7-4 0-5 1-12 7-5 6-8 8-11 9-8 2-13 4-17 8-8 6-13 5-19-4-2-2-4-6-6-7-4-4-23-14-45-23-5-2-15-6-23-10-26-11-25-10-22-39 2-29 2-72 0-84-3-16-8-27-13-36-10-15-18-23-35-33-31-19-43-23-72-25-16-1-21-1-34 5-21 8-41 23-54 39-9 11-10 14-15 27-3 9-4 13-3 16 0 4-4 18-11 36-6 15-7 20-7 39 1 8 1 20 2 26v10l-3 3c-3 4-12 7-38 14-15 5-38 13-46 17-11 5-27 15-31 19-2 3-3 3-4 2s-2-2-2-3c0 0-1-2-3-4-6-6-11-3-17 9-2 4-4 7-5 7s-3-4-5-10c-6-17-8-21-11-24-5-4-9-2-13 6-6 11-7 12-15 6-5-4-7-4-10-1-4 3-5 6-7 18-3 17-5 18-16 14l-5-2-2 2c-4 3-5 10-4 17 3 19 15 51 30 85 3 6 6 14 7 17 1 6 1 19 0 25-2 7-11 25-18 36-10 15-10 20-1 24l5 2 54-1c60-1 205-1 214 1 3 1 7 1 9 1 5 1 75 0 76-1z"/></svg>