<svg xmlns="http://www.w3.org/2000/svg" width="1344" height="566"><path d="M0 283V0h1344v566H0V283m694 279c27 0 73-1 102-1 44-1 52-1 55-2 3-2 4-5 3-10 0-5-8-30-12-39-3-9-6-19-9-27-2-4-3-10-4-17 0-9-1-11-3-14l-7-7c-5-3-22-12-39-20-59-26-69-31-80-38-3-3-8-6-9-7-1-2-3-7-4-15-2-9-2-13-2-23 1-12 4-34 5-36 2-2 4-23 5-40 0-20 0-25-9-60-16-65-24-91-34-107-8-15-27-38-35-44-3-2-7-6-9-7-5-5-29-16-42-20-12-3-13-3-31-3s-19 0-27 2c-7 3-13 6-23 12-1 1-8 3-15 5-15 3-19 6-28 14-18 20-32 51-39 86-7 37-9 56-9 105 0 38 2 96 4 113 0 8 1 18 1 22 0 7 0 8-2 9-1 1-4 2-5 2-4 0-15 4-23 9-7 3-46 22-68 32-7 3-14 7-16 8-3 3-3 4-3 8 1 7 8 23 13 28 10 11 27 22 51 35 5 2 12 6 15 8 7 6 13 9 21 12 4 2 14 6 22 10s17 8 20 9c27 6 32 7 85 8h43c0 1 87 0 142 0z"/></svg>