<svg xmlns="http://www.w3.org/2000/svg" width="1344" height="566"><path d="M0 283V0h1344v566H0V283m780 249c5-2 10-3 13-3 5 0 14-2 25-4 12-3 38-10 51-14 7-1 16-4 19-5 13-3 28-4 47-3 21 1 20 2 21-17 0-14-1-22-3-34-3-11-6-36-8-57-1-13-2-14-15-17-14-4-26-7-36-9-12-1-18-4-18-7-1-1-1-8-1-15-1-13-1-14-7-22-1-2-2-5-2-8 0-5-1-7-10-26-3-7-7-15-8-19-1-3-3-7-4-9 0-1-1-5-2-7 0-2-1-5-2-6-1-2-4-12-8-22-12-38-29-80-35-91-5-9-18-25-24-30-14-10-29-18-53-25-9-3-10-3-27-3s-18 0-31 3c-16 4-24 7-33 11-31 15-47 34-57 68-5 16-7 28-7 38 1 5 1 22 2 39 0 16 2 39 2 50 2 36 2 37-9 45-4 2-10 6-13 7-9 5-20 13-23 17-2 3-6 8-8 13-4 7-5 9-9 11-5 2-10 2-16 0-2-1-3-1-14 5-6 3-16 8-22 10-17 6-19 7-26 15-9 9-16 13-27 14-4 0-8 1-10 2-3 2-7 6-10 13-5 9-13 33-14 40-1 3-2 8-2 10-4 11-3 17 3 20 4 2 5 2 13 0 3 0 7-1 8-1 2 0 6-1 8-2 13-5 28-7 40-5 8 1 10 1 18-1 8-1 11-2 13-1s5 1 7 0c26-6 29-7 45-3 7 2 15 4 17 5s9 4 15 5c9 4 12 4 28 5 9 0 19 1 20 0 3 0 45 2 69 3 17 2 22 2 37 5 8 1 18 5 22 9 7 5 9 6 27 6 15-1 17-1 24-3z"/></svg>