<svg xmlns="http://www.w3.org/2000/svg" width="1344" height="566"><path d="M0 283V0h1344v566H0V283m780 278c45-1 210-2 241-2 17 0 80 2 81 2 1 1 72-1 80-2 13-2 15-5 11-19-4-15-18-39-28-50-10-9-18-14-46-28-22-11-36-19-50-30-3-2-10-6-16-9-15-8-21-13-34-27-16-19-18-19-41-16-11 2-13 2-18-2-4-3-11-17-12-23 0-5 1-7 11-20 9-11 14-20 16-25 1-2 2-10 2-18 1-16 1-16 9-36 19-47 23-58 28-84 3-17 3-21 3-31-1-10-1-13-4-23-5-13-6-15-12-21-2-3-5-7-6-9s-5-6-8-9c-4-2-7-7-10-11-5-8-8-9-22-9-12 1-13 0-19-9-2-3-4-7-6-8-3-4-11-6-18-6-2 0-9-1-14-3-11-3-23-3-53-1-21 1-29 3-47 10-18 6-31 12-39 18-12 9-28 27-35 41-6 10-8 17-11 32-1 6-6 24-11 40-4 17-8 33-9 37-2 13-3 77-2 89 1 10 4 28 8 49 1 3 4 11 6 19 5 13 11 31 16 52 2 9 5 14 9 20 5 6 5 9 1 10-53 23-58 26-84 44-21 15-37 31-44 43-5 9-6 18-4 21 2 2 6 4 12 5s80 1 169-1z"/></svg>