<svg xmlns="http://www.w3.org/2000/svg" width="1344" height="566"><path d="M0 283V0h1344v566H0V283m756 277c10-2 89-2 202-1 81 1 124 0 132-2 8-3 11-2 19 1l6 3h45c69 0 81-2 74-11-8-10-16-38-21-70-3-25-5-27-30-37-16-6-18-9-29-37-7-17-12-33-18-58-2-10-6-27-9-38-5-22-5-25-7-51-4-46-6-58-10-67s-12-13-17-8c-4 3-5 7-6 20 0 5-1 11-2 12-3 5-5 0-7-17-3-18-9-40-12-46-5-9-12-12-20-8-5 4-6 7-6 20 0 9 0 12-1 13-2 2-3 1-4-11-2-12-6-19-10-22-9-5-18 1-24 15-2 5-5 10-8 14-10 11-16 26-18 46-1 12 0 36 2 80 1 9 3 16 8 26 5 13 29 52 50 84 26 40 31 50 39 73 1 5 5 15 8 23 15 36 16 42 8 42-5 0-12-5-24-15-20-17-32-26-51-38-9-5-23-16-31-25-5-5-12-16-16-26-7-19-11-24-33-42-26-21-36-28-48-29-8-1-49 0-76 1-17 0-20 0-23-3-2-2-3-11-1-23 2-14 3-17 12-24 10-10 13-18 13-30 0-15-1-30-2-38-1-10-6-28-8-32-1-2-4-9-6-16-2-6-7-18-11-27-4-8-8-19-10-24-10-23-18-38-35-65-12-18-21-30-30-39-17-15-30-22-57-31-24-8-31-9-49-8-8 1-18 2-23 2-4 1-9 2-11 2-7 0-39 5-51 8-18 5-33 14-51 31-13 12-20 22-30 40-13 26-17 42-17 64l-1 11 5 7c7 11 7 13 7 25 0 5 0 15-1 22-3 18-3 27 0 34 1 4 4 11 6 18l4 10-1 12c0 13 0 19 5 32 3 11 8 20 18 32 12 14 20 26 21 30 2 7 2 19-1 25-3 7-11 17-20 25-7 5-19 13-22 13s-5-3-6-11c-2-14-16-45-22-49-10-6-20 2-24 19-1 7-1 12 0 32 0 25-1 30-5 31-3 0-8-10-13-25-4-13-6-20-9-40-4-25-5-32-6-45-2-22-5-45-7-50s-7-10-11-11c-2 0-6 2-9 6-2 4-6 26-7 46-1 18-3 36-4 37-1 2-3-1-3-3s-2-7-3-12c-2-6-5-14-6-20-2-5-4-12-5-16s-2-8-3-10c-2-12-8-27-11-30-2-3-10-6-13-6-4 0-9 5-10 9-1 7 4 58 8 75 0 3 1 7 1 11 1 4 2 9 3 11 1 7 2 16 0 16-1 0-9-14-9-16 0-1-2-6-4-10-4-10-9-25-13-35-3-10-5-14-11-17-5-3-10-3-14 0-4 2-5 8-5 17 1 6 2 9 7 30 1 4 4 14 6 22s4 17 5 20c4 10 11 32 11 34-1 2-3 1-11-9-19-23-29-33-33-36-13-8-25-2-21 12 1 2 4 10 8 18 7 13 14 24 30 45 10 13 29 38 33 43 4 7 13 16 17 18s6 2 26 2c11 0 30 0 42-1 14-1 45-1 97-1 62 1 131 1 189 1h30c36 2 81 3 86 2 3 0 9-1 14-1z"/></svg>