<svg xmlns="http://www.w3.org/2000/svg" width="1344" height="566"><path d="M0 283V0h1344v566H0V283m878 275c11 0 13-2 15-13 2-6 4-48 4-64 0-15-3-31-8-47-3-8-5-17-6-19 0-2-2-9-3-15-2-7-5-17-7-24-1-8-4-17-6-22-2-4-3-9-3-11s-5-17-7-23c-1-2-4-9-6-16-7-21-16-40-26-51-2-3-8-9-12-14-7-7-10-9-17-12-11-5-16-10-19-18-4-7-4-17-1-29 2-12 2-34 0-43-6-19-20-35-37-42-6-2-9-2-18-2-10 0-13 0-19 3-3 1-10 3-14 5-4 1-9 3-11 4-9 4-31 27-36 37-4 8-6 22-4 29 0 3 3 10 5 15s4 12 5 18c3 14 3 16-2 22-5 8-7 12-10 23s-11 29-15 35c-1 2-3 7-5 11-4 9-7 15-13 24-2 3-7 9-9 12-6 10-20 26-25 30-3 2-12 11-21 20-16 16-17 17-31 25-9 5-16 9-17 9-1 1-11 0-22 0-27-2-26-2-32 2-2 1-7 4-11 4-20 5-24 8-26 14-1 5-1 7 2 16 4 10 8 16 13 19 4 2 25 8 31 9 4 0 10-1 24-6 26-9 36-12 47-12 6 0 6 0 9 3 18 22 20 24 37 30 8 4 12 4 16 4 19-1 40 1 44 3 2 1 5 5 7 8 3 6 4 7 4 12 0 6 0 6 6 13 18 21 18 21 43 22 39 2 173 4 187 2z"/></svg>