<svg xmlns="http://www.w3.org/2000/svg" width="1344" height="566"><path d="M0 283V0h1344v566H0V283m402 278c28-1 59-1 70-1 24 1 58 0 114 0 28 0 54 0 76 1 34 1 93 1 96-1 4-1 5-5 5-14 0-13-2-22-4-28-6-11-23-22-47-32-15-6-56-27-60-31-3-4-3-4-3-9 1-3 3-11 7-20 3-8 7-18 9-22 4-9 7-16 12-23 4-6 8-13 10-18 2-6 8-37 19-92 1-6 3-16 3-23 1-7 2-18 3-26 2-21 3-32 3-46 0-13-2-33-3-36-1 0-2-5-2-10-3-17-10-38-15-47-2-3-7-10-11-14-6-7-9-9-20-14-22-11-46-21-77-30-21-7-28-8-45-8-16 1-23 2-32 7-3 1-11 5-18 7-29 9-45 17-58 27-12 10-34 61-41 98-6 28-8 46-10 79-2 24-4 39-6 59-1 6-2 13-3 16 0 4-1 12-2 20-1 7-2 17-3 24 0 6-2 18-3 28s-2 28-3 44c-1 23-1 26-3 30-1 2-3 5-5 6-2 2-8 6-13 10-5 3-16 13-24 20-13 13-31 28-43 35-9 5-13 9-16 15-4 8-5 13-2 15 5 6 9 6 145 4z"/></svg>