<svg xmlns="http://www.w3.org/2000/svg" width="1344" height="566"><path d="M0 283V0h1344v566H0V283m888 274c7-5 11-19 11-43 0-9 0-18 1-22 1-6 1-15-1-22-1-2-2-10-3-17-1-8-3-18-5-21-1-4-3-11-3-16-1-8-2-12-8-32-1-4-3-10-4-14-1-3-2-7-3-9 0-1-2-6-3-11s-4-14-6-20-6-16-8-23c-12-37-33-66-57-77-19-10-24-20-19-46 3-15 3-36 1-44-7-22-24-39-44-43-8-2-26-1-32 2-2 0-7 2-11 4-13 4-17 6-29 18s-16 18-21 28c-2 6-2 7-2 22-1 19 0 22 5 28 5 5 5 5 6 14 1 10 1 12-3 19-5 6-9 15-11 26-4 12-6 18-13 31-3 6-7 15-9 20-4 8-9 15-27 40-2 2-10 11-19 18-8 8-20 19-25 24-12 11-18 15-24 15-2 0-6 1-8 1-4 1-5 1-9 0-6-3-9-2-13 0-4 3-7 2-14-2-6-2-12-3-16-1-1 1-3 2-5 2-3 0-5 2-5 7-1 5-4 8-14 10-16 5-20 7-22 10-3 5-2 9 2 17 7 15 12 17 38 20 12 1 9 2 53-7 7-1 16-2 20-2 8 0 11 2 22 13 9 10 13 13 26 20 9 4 11 5 14 4h11c6 0 7 0 23 8 19 9 20 11 19 19v5l11 11c14 14 15 15 39 15 10 1 18 1 19 2h87c80 0 86 0 88-1z"/></svg>