<svg xmlns="http://www.w3.org/2000/svg" width="1344" height="566"><path d="M0 283V0h1344v566H0V283m612 277h81c47-1 70 0 105 1h44c23-1 23-1 146 0h125l24 1 3-4c5-5 4-10-4-36-4-12-5-15-4-17 1-4 1-10 0-13-1-1-7-5-14-9-6-3-15-9-19-11-4-3-13-8-19-12-26-15-33-21-35-27 0-1 0-7 1-12 1-6 3-18 5-27 1-10 3-20 3-23 2-10 5-60 5-79s-2-38-5-64c-2-8-4-23-6-33-8-54-18-93-31-114-15-25-35-43-64-57-30-15-48-19-63-13-3 0-11 2-19 2-17 1-24 3-40 11-19 10-33 21-46 39-11 15-18 29-28 58-7 18-10 28-11 41-1 5-3 15-4 22-4 16-6 25-7 42-1 8-3 19-4 24-2 15-5 48-6 68-1 22-6 51-10 58s-19 14-41 18c-15 3-45 13-58 20-9 4-13 6-41 16-17 6-25 10-27 13-2 1-2 3-2 12v9l-9 30c-6 16-12 36-15 43-3 8-5 15-5 16 0 4 4 7 11 8 3 0 16 1 29 0 13 0 38 0 55-1z"/></svg>