<svg xmlns="http://www.w3.org/2000/svg" width="1344" height="566"><path d="M0 283V0h1344v566H0V283m294 278c25-1 142-2 160 0 17 1 53-1 58-3 4-1 9-1 20 0 7 2 17 2 44 1h137c39 1 86 1 105 2 42 1 39 1 42-1 5-6 1-23-9-37-3-4-7-9-9-13-3-3-7-8-11-11-9-9-16-12-52-24-29-10-40-14-50-15-13-3-17-4-22-7-4-2-16-15-21-23-5-7-5-10-1-16 4-5 8-11 20-31 3-6 6-13 10-23 2-9 5-17 6-19s3-8 5-14c2-5 4-11 5-12 2-4 11-37 12-46 1-4 2-15 3-23 1-9 2-24 3-33 3-35 3-56 2-69-3-31-12-58-28-86-10-16-18-26-31-36-15-12-20-15-34-16-17-1-146-2-161-1-13 1-21 3-29 10-22 19-27 24-37 45-10 20-14 36-17 60-2 17-4 28-10 51-5 21-5 22-6 39 0 16 0 19 3 31 2 13 2 15 1 22v23c0 19 0 22 15 50 5 12 11 24 11 26 1 3 3 8 4 11 3 7 3 8-9 24-28 38-26 36-70 51-5 1-19 5-31 8-35 9-73 22-95 33-13 6-24 18-31 33-3 6-3 8-3 14 0 15 5 23 15 25 15 2 43 2 86 0z"/></svg>