<svg xmlns="http://www.w3.org/2000/svg" width="1344" height="566"><path d="M0 283V0h1344v566H0V283m294 277c10-1 36-1 56-1h41c2 0 6 0 9 1 3 0 6 0 9-1 3-2 5-2 14-1 6 1 61 1 147 2h167c33 0 71-1 74-2 2-1 3-3 3-11 0-5 1-13 1-17 2-16-4-25-23-35-6-3-13-7-17-9-9-3-78-38-84-42-3-2-6-4-7-6-1-3-1-4 2-11 1-3 3-10 5-15 2-4 5-14 8-21 15-39 24-71 25-95 1-12-2-54-7-89 0-6-1-16-2-21-4-37-11-65-20-82-18-36-40-60-70-76-27-14-45-20-61-20-15 0-38 5-50 10-5 2-12 4-16 5-18 3-31 10-46 26-31 32-48 86-59 181-5 43-6 57-6 84 0 32 1 42 10 88 3 14 3 19 0 22-6 6-21 12-34 15-10 1-18 5-32 14-6 3-17 10-25 14-9 4-20 10-25 13-5 4-12 8-15 10-6 3-23 15-27 18-3 4-5 9-7 20-1 6-3 14-4 18s-2 8-1 9c2 7 14 8 67 5z"/></svg>