<svg xmlns="http://www.w3.org/2000/svg" width="1344" height="566"><path d="M0 283V0h1344v566H0V283m666 277h244l2-3c2-2 2-2 1-5-1-1-6-7-12-12-7-8-12-12-18-16-19-10-33-23-46-41-7-10-10-16-16-33-2-6-5-15-7-20s-5-13-6-18c-2-14-3-18-11-29-3-5-6-10-6-11 0-3 3-7 7-9s9-1 15 4c2 1 5 3 7 3 5 0 11-8 14-20 3-9 5-13 11-20 10-11 14-23 11-36-1-7-7-19-16-39-8-16-11-25-13-39-1-11-6-32-9-47-5-20-10-33-18-50-7-15-7-16-17-26-12-12-18-16-31-21-17-5-28-7-46-7l-14 1-26 8c-36 12-45 17-54 30-18 23-24 56-22 124 0 32-1 47-4 56-1 3-4 12-7 20-3 7-8 19-11 26-4 7-8 15-9 18-2 8-5 13-9 18-2 2-5 7-6 9-2 2-5 7-8 11-10 15-19 28-20 31 0 2-5 13-11 25-17 32-20 38-24 48-7 18-15 58-14 65 2 5 3 5 47 6h50c3 0 49 0 102-1z"/></svg>