<svg xmlns="http://www.w3.org/2000/svg" width="1344" height="566"><path d="M0 283V0h1344v566H0V283m909 278h69c45 1 73 0 79-2 6-1 20-1 45 0 22 2 73 2 122 0 34-1 33-1 31-20-2-13-4-21-13-41-10-23-20-39-32-51-11-13-40-28-67-37-9-3-20-7-25-9-6-3-16-7-22-9-17-6-19-7-38-22-15-12-19-14-27-15-6 0-9 0-15 2-14 4-15 3-24-10-7-11-11-17-13-25-2-9-1-12 8-27 8-14 12-25 13-40 1-12 2-14 16-49 8-21 10-28 14-49 3-15 3-18 3-30-1-15-3-28-8-41-2-5-14-22-22-30-3-3-7-8-9-12-5-8-7-10-21-16-6-3-16-8-21-11-14-10-17-10-49-11-29 0-49 1-57 5-2 0-8 2-13 4-13 3-23 7-36 15-26 15-42 32-50 55-3 7-3 10-4 23-1 18-1 18-9 40-10 30-12 39-12 52 0 6 0 15 1 20 0 6 1 22 2 36 1 19 2 30 3 42 5 27 5 27 17 52 3 8 9 21 12 31 9 29 14 37 28 46 4 2 7 4 7 5 0 3-27 25-45 36-17 11-36 25-41 31-2 2-6 7-8 11-3 3-8 9-10 11-3 2-7 7-9 10-3 3-6 6-10 8-6 3-10 8-10 14 0 3 0 4 3 6 2 0 7 1 11 2h236z"/></svg>