<svg xmlns="http://www.w3.org/2000/svg" width="1344" height="566"><path d="M0 283V0h1344v566H0V283m632 277h98c52 1 86 0 87 0 7-4 8-20 3-46-3-18-19-67-25-80-3-6-3-5-1-20 1-8 1-8-62-39-9-4-19-9-23-10-4-2-13-6-19-9-16-8-16-7-9-42 3-15 5-22 11-50l4-18v-19c-1-10-2-26-3-35-1-8-3-23-4-32-2-22-5-36-7-44-3-15-15-43-22-52-13-17-23-27-40-37-18-11-35-17-48-19-7 0-19 2-34 7-5 2-12 4-17 5-18 3-26 7-36 17s-16 19-22 33c-13 26-19 50-28 117 0 6-2 22-4 35-7 43-7 58-2 91 3 26-1 33-23 37-12 2-34 10-44 16l-14 7c-14 6-35 19-41 24-3 4-4 6-8 16-2 6-5 15-7 20-6 15-9 22-12 38-2 9-5 22-7 29-3 17-7 49-6 54 2 6-3 6 128 6 65 1 119 1 120 1 1 1 102 0 117-1z"/></svg>