<svg xmlns="http://www.w3.org/2000/svg" width="1344" height="566"><path d="M0 283V0h1344v566H0V283m476 139c7-1 19-4 29-8 12-4 28-6 33-4 2 1 4 1 10-1 7-1 16-1 47 1 9 1 35 1 58 1 38 1 42 1 49 3 15 4 57 3 65-1 1 0 4-1 7-2 3 0 8-1 12-2 3-1 12-4 21-6 16-5 28-10 33-14 4-4 10-7 19-9 16-5 19-7 23-14 2-5 2-6 1-16 0-6-1-14-2-17 0-10-4-13-13-16-9-2-12-4-12-7 0-1 1-5 2-9 2-10 1-17-3-23-4-5-4-11-3-19 1-6 1-8-1-15-1-4-4-15-6-24s-5-20-6-25c-2-5-4-16-6-25-3-18-5-25-12-40-2-6-5-14-6-17-5-14-23-33-40-41-10-5-26-11-37-14-7-1-9-1-17 0-18 2-36 7-48 14-17 9-32 30-37 54-4 14-5 34-6 83-1 37-1 40-3 42s-1 2-16 0c-10-1-19 4-37 21-4 3-7 8-11 15-9 17-11 20-18 24-3 2-8 5-10 7-6 5-45 25-53 27-5 1-7 1-11 0-7-1-12-1-15 0-3 2-11 11-13 15-3 6-16 44-16 47 0 4 4 7 9 8 3 1 8 2 12 4 10 4 12 4 28 3z"/></svg>