<svg xmlns="http://www.w3.org/2000/svg" width="1344" height="566"><path d="M0 283V0h1344v566H0V283m568 277c69 1 197 0 259-1 78-2 118-2 193 0 60 1 99 0 106-2 3-1 5-4 4-9-3-9-16-30-31-50-8-9-22-20-55-41-2-1-8-5-12-7-4-3-10-7-14-8-4-2-9-6-12-8-13-11-22-16-34-20-15-5-19-8-37-27-22-23-23-23-40-24-11 0-13-1-15-2-3-3-6-11-5-19 0-10 3-16 11-22 3-3 10-9 14-15 11-12 17-23 19-32 2-12 1-15-9-28-2-3-2-4-2-10 0-3 1-10 1-14 1-4 3-11 3-15 4-18 11-63 13-86 1-6-1-13-6-24-9-17-24-33-49-53-18-13-44-24-65-28-20-3-42-1-58 5-5 2-14 6-21 9-34 14-49 25-63 46-14 24-22 49-25 79-1 8-2 20-3 28-3 30-3 35-1 56 0 10 1 28 2 39 2 37 9 65 26 99 8 14 8 16 4 23-2 4-5 9-7 12-3 3-7 7-9 10-3 4-16 12-30 17-37 15-42 17-66 33-29 20-39 31-50 52-12 25-13 30-8 34 3 3 15 4 26 3h46z"/></svg>