<svg xmlns="http://www.w3.org/2000/svg" width="1344" height="566"><path d="M0 283V0h1344v566H0V283m301 276c6-1 12-1 12 0 1 0 73 1 174 1 46 0 59 0 64-1 6-1 9-1 21 0 10 1 37 1 85 2 78 0 76 0 78-6 1-6-3-35-7-53-6-21-11-35-21-57-7-15-7-15-7-24 0-6-1-9-2-11-3-4-11-8-34-16-10-3-20-7-22-8s-9-4-16-6c-23-9-27-12-26-20 1-3 2-8 3-11 4-19 10-42 11-55 3-16 2-43-2-70 0-5-1-14-2-20-8-79-14-103-29-126-13-19-45-44-63-49-12-4-21-5-34-5-6 1-14 2-18 2-3 1-12 3-20 5-18 2-24 4-32 8-16 8-34 25-41 39-11 22-19 45-27 88-4 17-10 56-12 69 0 4-1 13-3 22-7 46-9 73-6 91 1 4 1 10 1 13-2 8-11 15-31 20-18 5-20 6-53 28-8 6-20 13-25 16-10 5-22 14-22 17-1 2-1 5-1 8-1 3-3 9-9 20-12 24-19 50-19 74 0 7 2 13 4 15 3 2 109 2 131 0z"/></svg>