<svg xmlns="http://www.w3.org/2000/svg" width="1344" height="566"><path d="M0 283V0h1344v566H0V283m176 279c9-4 12-4 39-3 14 1 27 1 29 0 2 0 4-1 5-3 3-5-1-62-5-74-1-1-2-6-2-10-1-8-3-16-7-23-2-4-3-11-1-14 1-2 3-4 4-6 3-3 3-4 2-7 0-2-1-5-2-7 0-1-1-6-1-9 0-4-1-7-2-10-1-2-2-5-2-6s-8-21-12-28c-6-11-12-27-13-33-2-9-2-14-1-20 2-7 15-29 17-30 3-2 7-1 14 1 6 2 8 2 12 1 9-2 14-5 16-9 2-6 2-27-1-41s-3-15 4-30c5-12 7-23 7-28-2-8-3-12-6-14-2-1-3-1-11 1-5 1-10 3-12 4-5 1-16 4-21 5-3 0-5 1-6 3-2 3-3 5-3 16s0 15-2 20c-1 4-2 8-3 9 0 3-3 2-10-2-8-6-20-11-32-15s-15-6-15-11 2-9 7-13c3-2 6-6 8-8 2-4 2-4 2-18-1-9-1-16-2-20-2-4-2-7-1-16 1-13 3-17 11-22 6-3 21-17 24-22 2-3 2-5 2-11 0-9-2-13-6-15-2-1-4-2-6-2s-6-1-9-1c-7-3-9-2-18 2-8 4-9 4-14 4-3-1-6-1-7 0-3 3-5 9-6 19-1 8-2 11-3 12-2 2-4 2-23 0-6-1-8-1-10 1-2 0-5 1-7 2-3 0-6 1-7 2-2 1-5 2-6 2-1 1-5 3-9 6-8 8-12 18-9 28 0 2 1 6 2 8s5 11 9 20c7 15 7 16 8 23 0 9-1 13-3 13-3 0-6-4-10-14-2-5-5-10-6-11-2-2-4-5-5-8-3-5-9-10-15-13-5-2-8-2-21-2-15 0-17 0-22 4l-2 2v424h86c73-1 86-1 89-3z"/></svg>