<svg xmlns="http://www.w3.org/2000/svg" width="1344" height="566"><path d="M0 283V0h1344v566H0V283m276 278c5-1 14-1 18-2 6-1 11-1 13 0 6 2 68 2 239 2 118 0 167 0 171-1 3 0 8-1 10-2 4 0 6-1 8-3s2-3 2-9c-1-3-1-9-2-13-2-10-1-19 3-26s4-8-3-11c-3-2-4-4-8-13-3-5-7-14-9-19-2-4-6-14-9-20l-6-12v-10c0-9 0-10-3-13-1-2-4-4-7-5-2-1-14-5-25-10-22-8-44-17-57-22-32-12-34-13-38-19-2-3-2-4-2-14 1-11 3-18 11-42 6-19 7-24 7-36 0-10-4-48-6-63-6-41-25-93-42-119-12-19-28-34-45-42-21-11-36-16-54-17s-21-1-44 11c-33 16-41 21-50 33-8 11-17 30-23 50-4 13-9 46-15 91-1 6-3 22-4 34s-2 27-3 33c-1 5-1 22-2 38 0 22 0 31 1 44 2 15 2 16 0 20s-5 6-18 11c-18 6-16 5-49 27-8 6-19 13-24 15-16 8-18 10-19 25-1 6-2 12-5 19-2 6-4 16-6 23-2 6-4 14-5 18-3 9-5 25-5 35 0 7 0 8 3 11l2 3h27c30 1 60 0 73 0z"/></svg>