<svg xmlns="http://www.w3.org/2000/svg" width="1344" height="566"><path d="M0 283V0h1344v566H0V283m848 278c19-1 57-1 82 0h78c17-1 28-1 31-2 6-2 78-1 87 1 10 2 33 3 46 2 6 0 21-1 33-2s28-1 36-2c20-1 19-1 19-14-1-9-4-19-12-35-17-34-32-55-45-64-7-5-19-11-34-16-8-3-22-9-32-14s-24-11-33-15l-15-5-15-14c-16-16-22-20-33-20-4 0-8 1-14 3-4 2-9 3-11 3-4 0-8-4-14-13-8-13-10-17-10-26 0-7 1-10 6-25 3-11 6-20 7-27 1-11 4-20 10-34 7-16 11-27 13-33 2-4 5-12 7-18 6-18 8-27 9-48 0-20 0-20-7-44-3-10-3-10-10-18-4-4-9-9-10-12-1-2-4-5-5-6-5-3-9-8-9-10s-1-4-2-7c-2-5-8-8-15-8-6 0-16-5-24-12-4-3-7-6-8-6-4-2-13-4-18-4-3 0-9-1-14-2-14-2-27-1-40 3-6 2-16 5-22 6-14 2-18 4-36 10-22 9-45 22-53 32-6 7-16 25-18 30 0 2-1 10-2 18-1 15-3 22-11 45-11 28-12 34-12 45 0 6 1 13 1 16 1 5 2 23 4 87v22l5 11c3 6 6 12 7 15 1 2 3 6 4 9 2 3 6 14 9 25 8 22 13 30 18 37 5 4 14 9 20 11 13 2 15 4 8 9-2 1-11 8-19 14-8 7-18 13-21 15-14 9-24 16-31 21-4 4-9 8-11 9s-6 5-8 7c-3 3-10 9-15 13-13 9-20 18-23 30-2 6 0 8 8 8 9 1 125 0 164-1z"/></svg>