<svg xmlns="http://www.w3.org/2000/svg" width="1344" height="566"><path d="M0 283V0h1344v566H0V283m417 278c5-1 32-1 149-2 20-1 47 0 60 0h62c58-1 110-1 144 0 32 1 49 1 56-2 2-1 7-4 11-8 10-8 10-11 10-30-2-47-4-52-19-69-10-9-21-19-35-27-4-2-13-9-19-14s-16-14-23-19c-6-6-16-14-20-19-8-8-10-11-15-21-7-14-8-18-12-50l-1-14 2-4c2-2 9-10 16-17 15-15 17-17 21-27 2-4 5-10 8-14 10-12 9-18-4-40-7-10-12-16-17-17-2-1-5-1-13 1-10 3-12 2-13-2-1-8-4-13-10-14s-11 1-26 9c-25 14-30 16-34 16-3-1-7-2-10-3-9-3-17-4-21-4-1 1-5 3-7 6l-5 6-6-3c-6-4-19-16-22-20-1-3-3-14-4-30-2-52-15-81-42-98-13-9-27-14-47-16-25-4-44-1-75 12-20 8-36 22-44 38-10 20-12 29-10 55 1 25 1 25-2 36-3 10-3 11-2 17 2 15 22 47 32 55 3 2 6 5 7 7s3 11 5 19c4 16 4 16 2 21-2 8-5 13-9 18-3 3-7 8-10 12-9 12-20 24-25 27-2 2-8 7-12 11-5 4-11 9-14 11-4 2-8 4-10 6-1 1-6 3-10 5-6 2-11 5-17 10-9 7-19 14-24 17-7 3-10 6-14 14-4 7-4 9-5 19-1 9-1 13 0 27 3 20 6 40 8 46 1 4 1 10 1 25l1 20 3 6c5 9 7 10 18 11 21 2 80 3 92 1z"/></svg>