<svg xmlns="http://www.w3.org/2000/svg" width="1344" height="566"><path d="M0 283V0h1344v566H0V283m607 277c2 0 38-1 84 0 60 0 82 0 85-1 6-2 7-5 8-21 2-17 0-25-9-67-5-20-9-32-14-43l-4-8 1-11c0-9 0-11-1-13-2-3-13-9-25-14-4-1-14-6-22-10-9-4-23-10-33-14-14-6-18-9-21-12-5-5-5-5-2-18 1-4 2-11 2-15 1-4 2-11 3-17 0-7 1-15 2-20 0-4 1-9 1-12 3-15 3-62 0-83-1-5-2-12-2-15-2-18-10-55-16-68-10-26-24-48-35-58-13-10-39-25-54-30-7-2-9-2-18-2-10 1-20 3-28 7-4 1-9 3-17 3-11 2-13 2-20 5-20 11-38 33-49 62-6 15-14 46-19 71-1 7-3 18-5 26-9 43-11 59-12 88 0 18 0 25 2 34 2 14 2 27 2 31-2 4-5 5-18 6-16 1-28 4-43 13-6 3-19 10-29 15-21 10-29 16-32 23-1 3-3 10-4 16s-4 17-5 24c-2 6-5 15-6 20s-3 11-4 15-3 11-4 17c-1 5-3 14-5 20-3 11-7 32-8 41-1 5 1 9 5 11 10 4 15 4 96 4 63 0 190 1 191 1 0 1 79 0 82-1z"/></svg>