<svg xmlns="http://www.w3.org/2000/svg" width="1344" height="566"><path d="M0 283V0h1344v566H0V283m506 276c25-1 66-1 123 0h135c60-1 147-1 172 0 14 0 21 0 29-1 11-2 15-4 20-8 5-5 6-8 6-18 0-17-3-27-13-42-4-5-8-12-10-17s-6-11-8-14c-1-2-4-7-4-9-3-8-8-13-22-21-3-1-7-5-10-7-4-3-9-7-12-8-18-11-87-71-94-83-3-6-7-22-7-31 0-8 0-9 4-16 4-8 4-9 4-15 1-6 1-7 6-15 3-5 5-11 6-14 1-6 1-15-1-22-1-4-1-6 1-13 3-12 3-19 0-25-2-5-5-7-12-13-12-11-14-11-23-11-7 0-9 0-16-3-12-5-17-4-31 7-10 7-23 16-27 18-4 3-8 2-15 0-10-3-14-6-16-9 0-2-1-8-2-17-3-33-7-53-15-72-6-13-10-20-19-28-17-17-41-26-76-27-17 0-27 1-41 6-8 3-24 10-32 16-19 13-33 33-37 51-3 10-4 23-3 32 0 5 1 15 2 22 1 11 1 12-1 21-2 10-3 15-1 22 5 17 13 30 29 47 14 13 15 17 20 35s4 25-5 39c-14 25-25 35-52 51-6 4-15 9-19 12s-10 6-14 8-9 6-15 12c-5 5-12 10-16 13-13 8-17 11-20 18s-5 14-6 18c-1 5 4 65 6 74 0 2 1 5 1 7s1 6 2 8 2 6 2 9c0 6 2 12 5 13 7 2 54 2 122 0z"/></svg>