<svg xmlns="http://www.w3.org/2000/svg" width="1344" height="566"><path d="M0 283V0h1344v566H0V283m648 279c34-1 62-1 63-1 2-2 42-3 54-2 8 1 77 1 182 1 181 0 173 0 176-5 2-4 0-16-5-34-3-10-6-16-18-37-11-19-16-26-32-42-15-14-21-18-44-31-8-5-19-12-26-16-6-3-12-7-13-7-1-1-8-5-15-9-8-5-16-10-18-11s-10-6-17-10-15-8-18-10c-3-1-8-4-11-5-4-3-10-6-26-11-6-3-7-4-9-7-5-9-4-41 0-57 5-15 7-22 10-30 5-11 11-33 13-42 2-10 1-17-3-27-3-9-4-12-6-44-2-29-11-50-27-65-5-5-16-13-21-16s-25-10-38-14c-25-6-58-6-81 0-35 9-67 31-80 55-8 16-10 30-8 57 1 10 2 38 2 62 1 46 1 47 7 66 8 22 14 37 27 64 6 12 11 24 12 26 0 3 0 4-6 10-5 5-20 17-31 26-2 1-9 7-17 13-9 8-24 18-42 29-15 10-31 20-36 23-27 18-36 24-49 30-7 4-16 9-19 11-8 6-14 9-18 7-1-1-3-3-4-6-2-2-4-5-4-6-4-3-8-15-14-41-3-14-7-30-9-36-4-9-17-33-24-43-16-22-29-34-53-47-13-7-74-37-85-41-27-12-33-16-54-31-11-9-14-12-16-16-6-10-5-24 3-48 5-16 8-23 11-25 1-1 6-3 10-5 14-6 25-16 33-29s10-26 6-38c-2-7-2-12 0-19 1-2 4-11 7-18 6-17 10-32 11-42v-7l-3-3-4-4H108C10 4 7 4 4 6L1 7v547l3 3 3 3h36c19-1 53-1 73-2 21 0 39 0 39-1 1 0 47 0 102-1 55 0 101 0 103-1 2 0 17 0 33 1 22 1 33 1 38 0 6-1 9-1 16 1 9 1 26 2 73 4 45 2 45 2 56 1h72z"/></svg>