<svg xmlns="http://www.w3.org/2000/svg" width="1344" height="566"><path d="M0 283V0h1344v566H0V283m636 278h406c24 0 29 0 33-4 1-2 1-2-1-10-1-4-3-12-5-17l-3-9 2-11c2-8 2-11 1-12-2-5-10-9-51-30-26-13-59-30-65-35-7-4-8-7-8-16 0-6 6-52 6-54 1 0 2-10 3-21 1-22 1-65-1-102-3-62-13-109-31-146-8-17-14-26-26-38-17-17-33-27-65-39l-13-5-15-1c-17 0-22 0-34 6-6 3-9 3-19 4-13 1-16 2-28 8-13 6-28 20-36 34-5 9-13 26-16 35-7 18-13 50-15 79-1 18-1 67 0 91l1 20-3 8c-8 19-11 22-25 30-12 6-15 8-16 14-2 5-2 19-1 29 1 4 1 13 2 20 0 12 0 14-1 17-2 3-3 4-16 4-6 1-11 2-17 4-5 2-11 4-15 5-11 4-32 13-40 16-7 3-9 4-26 10-18 6-20 8-17 17 3 6 2 11-1 20l-4 12c-1 4-4 13-7 20-8 19-12 32-13 38 0 5 0 6 2 7 4 3 26 4 56 3 14 0 69 0 122-1z"/></svg>