<svg xmlns="http://www.w3.org/2000/svg" width="1344" height="566"><path d="M0 283V0h1344v566H0V283m376 276c44-1 90-1 104-2 13-1 25-1 26-1s12 0 22 1c24 1 148 3 159 3 11-1 12-3 8-12-2-3-7-15-13-27-8-17-12-23-17-31-4-5-9-10-11-12-2-1-8-4-13-6-6-2-14-5-17-7-7-3-38-15-52-20-26-9-38-13-42-15-3-1-10-4-15-6-12-4-14-6-13-14 1-3 2-8 3-12 3-7 14-28 17-31 2-3 11-6 19-7 12-2 24-5 32-8 13-6 19-15 19-29 0-3 1-9 1-11 1-3 1-10 2-15 0-5 2-11 2-15 5-19 9-41 9-52 0-13-1-21-6-37-3-8-5-18-6-22s-2-10-2-13c-3-12-7-35-8-49-2-31-7-54-17-72-4-9-17-22-27-27-7-2-9-3-22-5-12-1-23-1-92-1-98 1-91 0-110 18-11 9-16 15-25 32-8 14-20 47-29 76-2 8-6 20-8 26-2 7-5 19-8 28-2 8-8 27-13 42-5 14-11 35-14 45-7 26-26 81-32 96-2 4-5 11-6 16-15 47-15 48-15 58 1 12 3 17 13 26 11 13 13 15 13 17 0 3-8 13-16 19-7 7-22 24-26 31-2 4-5 15-4 18 1 2 2 4 3 4 6 4 5 4 227 3z"/></svg>