<svg xmlns="http://www.w3.org/2000/svg" width="1344" height="566"><path d="M0 283V0h1344v566H0V283m374 276c8-1 53-1 99-1 47 0 86 0 86-1 3-1 155 1 213 3 25 1 31 1 41 0 17-3 19-4 20-21 1-11 0-24-2-31-3-10-14-23-32-38-9-8-14-11-43-31-18-12-26-18-32-25-6-5-15-19-24-36-6-13-6-14-6-20 0-8 2-15 8-27 4-8 12-28 20-50 4-11 8-22 9-24 5-9 5-15 6-49 1-65 1-68-1-80-9-49-25-78-58-102-28-21-29-21-67-22-29 0-63 1-73 4-12 2-24 8-34 15-25 19-45 52-50 82-3 12-2 22 1 51 2 25 2 25 1 35-4 23-3 44 3 60 3 8 4 9 12 17s11 10 19 14c9 4 12 6 14 12 3 5 7 17 7 20 0 4-8 15-22 29-24 24-32 29-50 34-8 2-21 7-44 16-7 3-20 8-28 11-42 14-53 21-63 41-11 23-21 48-27 74-11 40-10 40 13 41 21 1 68 0 84-1z"/></svg>