<svg xmlns="http://www.w3.org/2000/svg" width="1344" height="566"><path d="M0 283V0h1344v566H0V283m329 278c33-1 48-2 127-1h172c101-1 247-1 281-1 2 0 28 1 57 1 60 1 85 0 97-3 6-2 7-2 13-1 4 1 10 2 13 4l7 2h38c22 0 46 0 54-1l14-1 3-3c4-4 4-5-1-29-2-9-4-20-4-25-2-13-5-18-9-23-4-3-6-3-25-9-9-2-13-6-19-19-6-12-18-48-25-72-2-7-7-20-10-30-9-26-13-38-22-76-7-26-16-44-23-48-7-3-14 0-18 8-2 3-4 5-4 5-2 0-8-9-16-25-4-7-9-15-11-18-7-8-14-9-23-4-7 5-9 5-14-1-5-5-10-9-14-9s-10 4-11 7c-1 2-3 5-3 8-1 7-3 9-7 9s-9 4-11 8c-5 7-3 36 3 59 2 6 6 19 10 29 8 19 10 27 10 34s3 17 6 24c6 13 36 55 57 82 15 19 30 43 37 60 4 9 9 26 9 30 0 6-9 9-18 7-2-1-8-4-13-7s-14-9-21-13c-10-5-15-8-20-13-6-6-7-7-11-18-7-17-13-30-18-36-3-4-28-26-39-35-7-6-15-10-23-12-9-2-34-3-60 0-22 1-51 1-56 0-2-1-3-2-4-3-2-3-1-22 2-46 4-29 5-33 11-46l5-10v-20c0-18 0-20-2-32-6-23-18-56-30-79-6-12-22-42-30-55-11-18-24-31-46-45-17-12-34-19-56-25-22-5-42-6-62-1-3 0-13 2-20 3-20 4-40 10-57 19-28 15-40 29-61 69-9 20-14 37-14 53 0 9 0 11 3 19 9 21 8 19 8 48v26l3 9c1 5 4 11 5 13 4 8 4 11 5 25 2 22 4 31 13 44 8 11 16 19 27 26 13 8 17 11 19 14 3 4 4 10 3 15-1 6-16 34-21 40-10 12-24 22-38 27-4 2-10 4-12 5s-5 2-5 2c-3 0-5-4-5-14-1-12-2-17-8-34-8-24-11-28-18-28-6 0-10 3-14 9-5 8-5 12-6 41 0 16-1 29-1 30-3 7-10-4-16-24-3-13-9-49-11-66-1-20-3-33-5-45-2-18-11-30-19-27-6 2-8 10-9 47-1 25-2 37-5 39-1 1-3-2-9-19-17-45-24-60-28-66-3-4-9-7-15-7-4 0-5 0-7 3-4 4-4 8 0 21 1 7 4 17 6 24 1 8 5 25 8 39 8 37 9 43 6 43s-25-41-33-60c-4-12-9-21-12-24-3-2-5-3-9-3-8 0-13 5-12 15 1 8 10 37 24 76 2 7 4 17 2 17-1 0-9-7-25-25-7-8-11-11-15-13-5-2-6-2-9-1s-5 2-6 5c-2 4-2 4-1 10 4 13 16 32 43 65 13 17 25 29 29 32 7 3 8 3 75 1z"/></svg>