<svg xmlns="http://www.w3.org/2000/svg" width="1344" height="566"><path d="M0 283V0h1344v566H0V283m820 278c21-1 22-1 24-7 0-2-1-9-2-17-2-7-3-16-3-19-2-9-3-12-6-14-3-1-4-3-6-7 0-2-3-8-5-12-4-11-6-19-6-27-1-10-2-11-13-19-9-6-14-9-23-13-4-1-13-5-19-8-14-7-22-11-41-19-30-13-45-21-48-25-2-2-3-5-4-7-2-6-2-41 0-55 0-5 1-14 2-18 2-23 3-36 1-47-1-9-8-45-11-59-4-14-14-48-19-58-20-52-51-85-95-100-15-6-25-7-40-7-18-1-22 1-42 11-7 3-17 8-22 10-5 1-12 5-15 7-14 9-30 35-38 61-3 8-7 27-9 42-4 28-5 104-2 144 2 20 5 41 6 46s3 19 4 33c1 8 1 10-1 11-1 1-2 2-3 2-3 0-19 5-31 10-26 10-76 33-80 37-2 3-2 4-2 7 1 3 2 9 4 13 3 6 4 9 11 15 12 11 30 25 41 31 6 3 13 7 16 10 15 11 37 22 57 28 2 1 10 5 19 9 20 9 27 11 44 12 21 1 335 0 357-1z"/></svg>