<svg xmlns="http://www.w3.org/2000/svg" width="1344" height="566"><path d="M0 283V0h1344v566H0V283m761 277c104-1 115-1 117-2 1-1 1-3 1-3l-9-9c-14-11-30-31-42-50-7-10-8-14-11-23-1-5-6-17-14-35-7-16-14-31-16-35-11-25-12-27-25-29-12-1-25-4-50-13-14-4-30-10-34-11-20-6-32-10-35-12-5-2-7-6-7-14 0-5 1-7 4-15 5-10 10-15 15-18 2-1 10-4 18-6 14-3 22-6 26-10 1-1 3-3 4-5 2-5 2-9 0-24-1-10-2-41-1-49 1-5 1-6-4-13-11-20-15-31-19-50-2-11-5-17-18-34-4-5-10-14-12-18-9-18-14-22-29-27-22-7-39-10-62-9-20 1-31 3-43 9-22 11-36 27-49 55-6 14-9 25-19 63-8 33-10 40-18 62-2 6-5 13-6 15-3 9-16 36-27 55-17 29-19 35-13 42 2 2 6 7 8 12 3 7 5 10 9 14 7 7 12 14 12 16s-3 6-9 11c-13 13-15 17-27 54-4 11-9 26-12 34-6 17-9 32-10 52 0 17 0 17 11 19 13 1 105 2 193 1h203z"/></svg>