<svg xmlns="http://www.w3.org/2000/svg" width="1344" height="566"><path d="M0 283V0h1344v566H0V283m734 171c3-1 10-2 15-2 5-1 11-1 13-2 3-2 16-5 24-6 4-1 8-2 10-3 3 0 10-3 18-5 7-2 15-4 18-5 4 0 9-1 11-2 5-1 30-1 46 1 9 0 9 0 9-13-1-7-2-16-3-22 0-6-2-22-2-35-1-31-2-34-8-42-1-1-4-5-6-8-3-3-5-5-7-6-1 0-5-1-8-2-5-2-7-3-8-6-3-5-3-14 0-19 2-4 2-5 1-10-1-4-1-11-2-17-1-7-2-16-3-22-5-23-11-48-13-54-1-4-3-10-4-14 0-3-2-8-2-10-1-3-3-11-5-17-4-19-13-41-21-53-4-6-17-19-23-23-13-10-33-20-42-23s-22-3-36 1c-7 1-15 3-19 4-24 4-35 11-45 27-12 19-18 39-21 74-1 7-2 16-3 20 0 5-2 19-3 32-1 25-1 46 1 72l1 15-3 3c-2 2-5 3-7 3-3 1-10 3-16 4-10 3-11 3-24 2-17 0-28 1-34 5-2 1-7 5-11 9-3 3-9 8-12 10s-9 6-14 9c-4 4-13 10-18 13-6 4-13 9-16 12-9 7-16 10-25 10-6 0-8 0-10 2-1 1-4 7-7 13-2 6-6 14-7 18-5 9-11 24-13 34-1 2-2 7-4 10-3 9-3 11 2 12 4 1 8 0 18-4 14-5 32-7 66-7l28-1 6-2c6-3 7-3 14-2 4 0 9 1 10 1 4 2 17 6 23 6 3 1 10 2 15 3 13 1 32 2 44 0 15-2 45 0 68 5 10 2 13 3 17 5 5 4 6 4 13 3 4 0 10-1 14-1z"/></svg>