<svg xmlns="http://www.w3.org/2000/svg" width="1344" height="566"><path d="M0 283V0h1344v566H0V283m929 276c3-2 2-4 0-21-4-23-3-26 6-33 2-1 5-4 6-5 2-3 2-4 1-13 0-5-3-18-5-29-9-41-10-50-8-52 1-1 4-4 8-6 8-5 13-9 18-18 3-5 3-6 3-10-1-2-2-6-3-8-3-6-20-22-24-24s-4-3-5-10c-1-3-2-6-3-7s-2-4-3-6c-3-4-6-26-7-48-1-10-2-24-2-31-1-7-3-19-4-26-3-26-3-23 4-28 11-9 15-11 23-15s13-8 18-17c1-2 4-7 7-10 5-7 15-28 18-37 3-14-1-27-15-42-10-12-19-16-38-15-20 1-30 9-47 36-5 9-11 19-12 21-5 6-14 16-19 19-4 3-5 3-15 3-11 0-17 2-19 5-1 1-1 4-1 8 0 3-1 6-1 8l-10 10c-14 13-24 29-33 54-4 12-5 17-7 28-3 19-5 42-6 63-1 10-1 25-2 34-3 45-4 77-5 111 0 32 0 37 1 42 2 7 7 12 12 12 1 0 4 1 6 4 5 4 8 15 11 33s5 21 15 21h71c53 0 65 0 66-1z"/></svg>