<svg xmlns="http://www.w3.org/2000/svg" width="1344" height="566"><path d="M0 283V0h1344v566H0V283m734 278c8-3 13-5 15-8 4-4 6-10 6-15 0-3 0-8 1-12 1-5 1-9 0-17-1-7-1-14 0-25 1-9 1-23 2-32 1-8 2-22 2-30 2-18 3-49 1-58-1-9-6-22-12-37-7-16-12-23-26-39-4-4-8-9-9-12l-2-4 4-12c2-7 6-18 9-26l4-12 1-22c2-52 2-62-8-92-6-21-15-32-38-48-9-6-30-16-41-20-17-6-25-7-39-7-17 0-27 2-60 12-13 3-25 10-32 17-8 8-16 18-21 27-4 8-9 25-11 34-2 11-8 38-9 42-1 1-3 4-5 6-2 1-5 3-5 4-1 2-1 11-1 33 0 28-1 32-2 35-4 7-18 14-45 25-34 14-67 32-97 54-14 11-43 39-53 51-9 11-26 36-28 42 0 2-2 7-4 11-9 25-10 31-10 70 0 41 2 56 8 61 3 2 4 2 44 2 22 0 50 0 62-1 14-1 34-1 57-1 20 1 56 1 80 2 25 0 54 1 64 1 33 2 50 2 121 3 69 0 71 0 77-2z"/></svg>