<svg xmlns="http://www.w3.org/2000/svg" width="1344" height="566"><path d="M0 283V0h1344v566H0V283m986 278h98c57 1 68 0 71-3s3-11-1-20c-6-14-13-24-33-39-7-6-15-12-17-14-9-9-47-38-53-42-1 0-5-3-7-5-3-2-11-8-19-14-14-11-18-15-24-24-5-9-21-33-28-43-3-5-9-14-14-19-8-11-18-29-21-40-2-7-2-17-1-21 2-3 7-8 16-14 7-6 11-11 14-17 6-11 14-41 18-65 2-12 2-17 2-31-1-18-1-22-7-45-5-25-25-54-46-71-8-7-19-13-34-20-8-5-9-5-22-6-19-2-73-1-82 1-4 1-9 2-12 3-16 3-31 8-43 13-7 3-14 6-17 7-9 2-12 4-21 12-11 10-16 16-20 28-7 17-9 38-7 69 2 17 5 38 7 43 1 5 5 28 6 40 2 27 6 43 22 79 6 13 13 32 17 45 3 13 6 18 13 24 7 7 13 9 26 12 12 3 17 5 18 9 1 2 1 4-1 6-2 3-7 5-43 23-26 12-32 16-35 23-2 3-2 4-1 6 2 3 13 16 24 27 5 5 9 10 11 14 2 3 5 8 6 10 2 2 4 5 4 7 1 2 2 5 3 7s2 6 3 9c1 2 3 7 5 11s4 8 6 10c1 4 2 5 7 6 2 1 6 2 8 3 5 3 25 5 48 5 10 0 26 1 35 1h121z"/></svg>