<svg xmlns="http://www.w3.org/2000/svg" width="1344" height="566"><path d="M0 283V0h1344v566H0V283m527 76c5-1 11-2 16-4 4-2 10-3 13-4 3 0 7-1 8-1 4-1 17 0 46 5 14 2 32 3 65 4 29 0 30 0 33-2 6-4 12-4 20-3 6 2 6 2 19 0 8-2 17-3 21-3 4-1 9-2 11-2 2-1 7-2 11-3 4 0 9-1 12-2s8-1 24-1c15 0 21-1 22-2s1-3 0-12c-3-30-2-35 5-49 5-10 5-10 26-10 20 0 19 0 20-12 1-5 0-28 0-52-1-33-1-45-2-50-1-4-3-12-4-18-3-21-9-42-15-54-6-11-19-23-35-31s-28-8-53-2c-26 7-39 18-47 41l-3 10-1 28c-1 14-1 31-2 36 0 6 0 14 2 26 2 13 2 21 2 27-1 13-3 21-5 24-2 2-3 2-6 2-4-1-39-3-60-3h-14l-14 6c-17 9-21 11-25 14-8 6-18 8-31 5-6-1-18 0-22 2-2 1-6 3-9 6-10 8-14 9-33 10s-21 2-23 7c-1 2-1 2 0 4 1 1 3 2 4 2 3 0 7 2 8 4 1 4-2 16-7 32-6 20-7 24-6 26 2 1 11 1 29-1z"/></svg>