<svg xmlns="http://www.w3.org/2000/svg" width="1344" height="566"><path d="M0 283V0h1344v566H0V283m849 279c62 0 72 0 76-1 5-2 10-2 16-1 5 2 64 3 97 2 12-1 30-1 39-2 23-1 25-2 19-16-1-3-4-11-5-16-2-5-7-16-11-24-9-17-12-27-12-42 0-13 5-37 11-57 8-23 14-50 14-61 0-5-2-9-5-11-3-1-3-1-8 4-3 2-5 4-6 4-3-1-7-11-8-18-1-8-4-13-8-14-4-2-8 0-13 8s-7 8-12-1c-4-7-5-8-10-8s-7 2-14 12c-2 3-5 5-6 5-1 1-4 1-6 2-6 0-14 8-17 17-1 3-3 7-5 9l-3 3-6-5c-7-7-14-11-48-25-38-15-39-16-43-20-3-3-4-7-2-16 5-26 6-45 6-71-1-19-1-25-3-34-4-18-15-40-24-50-5-5-16-12-43-27-18-10-27-12-55-14-15 0-16 0-23 2-10 3-33 16-43 24-9 8-21 20-25 28-4 6-11 26-11 31s-4 20-10 35l-4 14-1 20c-1 11 0 24 0 32 1 16 1 18-13 23-3 2-12 5-20 7-44 14-56 19-73 28l-4 2-2-2c-2-1-2-4-4-13-1-13-2-17-5-18-3-2-5-1-11 5-3 3-7 5-8 5-2 0-6-5-8-12-3-8-6-13-10-15-3-1-3-1-6 1-1 1-4 4-6 7-5 7-7 8-12 5-8-5-13-4-15 2-1 2-2 8-2 13-1 8-2 11-4 15-1 2-3 4-3 4-1 1-5 0-8-2-4-1-8-2-10-2-6 0-8 8-6 23s5 27 21 71c11 30 14 39 14 45 0 9-3 21-8 34-7 16-9 20-14 28-11 17-12 23-1 26 8 2 28 2 36 1 6-2 10-2 18-1 6 0 51 1 107 0 83 0 98 0 103 1 5 2 13 2 50 1h116z"/></svg>