<svg xmlns="http://www.w3.org/2000/svg" width="1344" height="566"><path d="M0 283V0h1344v566H0V283m565 107c4-1 11-2 17-2 17-2 55-9 68-13 2-1 11-3 19-5 13-2 16-2 30-2 11 1 19 2 27 4 7 1 14 2 16 3 5 1 26-2 38-5 6-1 14-3 16-3 3-1 6-2 7-2 2-1 20-4 26-4 2 0 9 1 15 1 8 2 12 2 13 1 1-2 1-7 0-17-1-4-2-13-3-20 0-12-1-16-4-34-2-9 0-14 5-17 3-3 3-3 3-9 0-3 1-9 1-14 8-43 6-103-4-140-4-19-11-37-16-45s-23-20-39-25c-6-2-8-2-21-2s-16 0-24 2c-22 6-37 15-43 24-9 13-12 30-12 58 0 10 0 29-1 42 0 15 0 26 1 31 2 13 4 47 3 52-2 9-1 9-44 9h-37l-12 6c-10 5-15 8-20 12-4 4-9 8-12 10-6 3-6 3-12 2-3 0-8-1-10-1-3 0-8-1-12-2-7-1-7-1-11 1-3 1-6 4-7 7-4 5-9 8-15 10-3 1-6 3-7 3-3 2-6 10-6 15 0 3-1 7-6 23-2 7-5 15-7 21-3 6-4 11-2 13 3 2 27 1 37-2 5-1 11-2 14-3 5 0 6 0 8 2s3 4 3 5c0 3 2 7 6 9s5 2 14 1z"/></svg>