<svg xmlns="http://www.w3.org/2000/svg" width="1344" height="566"><path d="M0 283V0h1344v566H0V283m742 275c49 0 135 0 192-1 120 0 102 0 142 1 17 1 46 1 64 1 32 0 33 0 35-2 1-2 1-3 0-8-1-7-3-10-18-39s-34-54-50-69c-25-21-43-32-76-45-8-3-25-11-40-18s-30-14-34-16c-17-5-30-12-43-23-8-7-25-19-29-21-5-3-6-6-7-18 0-12 2-22 6-29 2-5 4-6 10-9 11-6 15-10 21-18 11-16 15-28 13-40-1-7-1-8-6-13-4-5-4-8 1-35 3-22 6-48 4-58 0-6-3-17-6-21-1-1-3-5-3-8-3-8-18-27-22-27-1 0-4-3-8-6-3-3-6-6-7-6s-8-4-17-8C841 9 838 8 814 9c-42 0-64 6-86 23-10 8-19 19-23 26-5 10-13 43-17 72-4 26-5 33-8 39-2 6-2 9-3 21 0 16 1 22 8 46 2 8 6 22 8 32 5 17 10 32 17 48 4 10 5 18 2 21-2 3-14 14-21 19-6 4-21 12-29 14s-45 16-83 32c-24 10-46 23-58 34-16 14-37 42-47 61-8 17-14 38-14 51 0 5 0 7 2 9l3 2 49-1c28 0 55 0 63 1 7 0 28 1 45 0 18 0 72 0 120-1z"/></svg>