<svg xmlns="http://www.w3.org/2000/svg" width="1344" height="566"><path d="M0 283V0h1344v566H0V283m327 278c38-1 154-1 176 1 8 1 15 1 19 0 14-2 89-2 140 0 41 1 154 1 160-1 3 0 5-2 6-2 1-2 1-2 0-6-5-9-18-17-44-25-11-4-35-10-44-12s-25-7-27-9c-4-3-15-18-23-29-4-7-5-10-6-14 0-5 0-6 4-12 3-3 8-10 11-16s7-13 9-15c6-8 23-37 26-45s6-28 7-46c0-15 0-22-2-44-6-51-7-61-16-85-9-27-19-46-34-63-11-12-19-18-39-28-13-7-20-9-27-11-22-5-57-7-75-3-12 2-30 6-38 10-25 11-50 33-62 58-8 15-11 27-15 55-3 21-5 31-9 50-6 25-6 42-1 59 2 6 4 12 5 22 0 8 1 15 1 16 1 1 1 5 2 9 2 12 6 29 9 38 2 5 4 11 5 15s3 9 4 11c2 7 2 11 0 15-2 5-14 17-18 18-7 3-24 8-35 10-52 9-82 16-99 22-12 4-27 12-32 16-10 9-22 27-22 33 0 3 3 6 7 8 4 0 32 2 38 1 2 0 20 0 39-1z"/></svg>