<svg xmlns="http://www.w3.org/2000/svg" width="1344" height="566"><path d="M0 283V0h1344v566H0V283m492 130c5-2 10-4 13-6 6-3 23-9 28-9 2 0 6 1 9 2s7 1 10 1c5-1 16 0 35 3 16 3 32 4 64 5 35 2 43 2 49 3 13 2 29 2 38 1 5-1 12-2 15-3 4 0 9-1 11-2 2 0 6-1 9-1s8-1 11-2 14-4 25-6c10-3 21-6 25-7 6-2 17-4 30-6s13-2 15-5c1-3 1-5 0-21-1-21-3-30-7-41-2-4-4-11-5-15-2-10-3-13-7-17-13-10-14-11-16-19l-1-5 4-4c3-4 4-5 4-8-1-3-7-26-14-51-2-8-5-21-7-29-4-17-8-29-14-41-8-17-17-29-27-36-8-7-24-15-35-19-8-3-9-3-22-3-11 0-16 0-24 2-31 7-44 14-54 29-6 8-10 18-13 29-3 8-3 13-4 28-1 10-2 25-2 34-1 8-2 21-2 30-1 22-2 25-11 25-14 0-24 4-35 13-11 10-16 15-20 23-9 19-10 20-15 26-14 12-19 15-26 19-29 13-36 16-48 16s-13 1-20 15c-3 6-6 13-7 15 0 2-3 8-5 14-3 7-6 14-7 16-1 5-1 5 1 7s6 3 27 3c16-1 18-1 25-3z"/></svg>