<svg xmlns="http://www.w3.org/2000/svg" width="1344" height="566"><path d="M0 283V0h1344v566H0V283m277 278c34-1 120-2 127-1 4 1 6 1 8-1 3-1 5-1 13-1 21 2 52 2 76 2 13-1 67-1 118 0 125 0 157 0 178-1 14-1 17-1 19-3 2-1 2-2 2-5-1-2 0-8 1-14 2-9 2-10 0-16-2-9-5-13-12-18-3-2-26-14-52-27-62-32-67-34-67-40 0-3 7-22 19-53 10-27 12-36 19-66 4-20 5-22 3-47-2-18-3-28-7-60-1-9-2-20-3-24-6-51-19-87-40-116-7-9-26-27-37-34-13-9-39-21-52-25-10-3-13-3-24-3-16 0-35 4-53 11-3 2-9 3-13 4-16 3-28 9-42 23-27 27-46 75-56 140-4 31-9 67-11 95-1 14-1 53 1 65 4 28 4 30 9 56 3 14 3 18-1 22-6 7-20 13-34 15-9 1-15 4-31 14-7 5-21 12-30 17-19 9-47 27-58 36-4 3-7 9-8 18-1 4-2 12-4 18-5 17-5 18 11 20 1 0 15 0 31-1z"/></svg>