<svg xmlns="http://www.w3.org/2000/svg" width="1344" height="566"><path d="M0 283V0h1344v566H0V283m628 277h244l5-2c5-3 6-4 9-8 2-5 2-8 3-24 1-19 1-23-1-38-3-26-7-38-19-50-8-9-49-40-63-48s-19-12-27-23c-14-20-26-45-26-53 0-2 3-12 11-28 6-13 11-24 11-25 0 0 4-8 8-17l9-18 1-14c1-9 3-20 4-26 7-38 4-75-8-104-5-14-10-21-19-31-12-13-29-25-42-29-2 0-12-1-21-2s-19-2-23-3c-9-2-29-2-38 0-3 1-12 5-18 8-27 12-46 33-57 62-4 9-4 15-5 44l-1 29-3 8c-3 9-3 10-3 23l-1 13 4 8c5 9 8 13 23 26 13 12 15 16 16 30 1 21-4 33-20 49-20 21-39 31-84 44-49 14-62 19-69 26-6 5-12 17-19 35-14 36-16 41-21 54-8 22-14 40-20 54-8 21-8 24-3 28 4 2 13 3 49 2h214z"/></svg>