<svg xmlns="http://www.w3.org/2000/svg" width="1344" height="566"><path d="M0 283V0h1344v566H0V283m816 275c6-6 4-57-4-89-1-6-1-12-1-25 0-16 0-17 4-33 2-9 4-18 4-20 1-2 3-8 5-15 10-34 10-35 10-52 1-18 0-18-7-35-5-13-7-22-8-51-1-22-1-23 1-26 5-7 6-10 6-16 0-5-3-19-6-30-1-3-1-11-2-20 0-15 0-16-4-24-5-11-11-17-19-21-6-3-8-4-17-4-12 0-16 1-26 11-6 5-8 8-12 18-5 10-6 13-7 23-2 14-3 17-8 20-8 6-13 24-15 47-1 5-2 11-3 14 0 4-1 9-2 13 0 4-2 9-4 12-3 8-11 19-14 21-2 1-2 1-7-1-10-6-20-9-23-6 0 1-1 5-2 8-3 9-2 11 4 14 5 2 5 3 9 13 4 9 8 14 11 14 5 0 24-5 30-8 7-3 9-2 16 2 4 3 5 5 9 12 5 11 8 13 14 12 6 0 10 1 15 4 2 2 4 3 5 3 6 0 11 6 13 14 1 2 3 5 5 8 6 7 7 11 6 16-2 6-9 21-13 27-7 11-14 27-16 36-1 3 0 9 1 18 2 17 1 25-2 32s-6 20-4 21c1 1 3 0 7-3 7-4 10-6 12-5 3 1 7 12 9 23 2 14 5 24 8 27 2 3 3 3 11 3s9 0 11-2z"/></svg>