<svg xmlns="http://www.w3.org/2000/svg" width="1344" height="566"><path d="M0 283V0h1344v566H0V283m890 272c1-1 4-6 5-10 2-7 2-9 2-26 0-16 0-21 2-29 2-10 2-8-1-33-2-14-3-18-6-32-2-6-4-16-4-21-1-13-4-25-7-38-2-7-4-15-5-18 0-4-2-10-3-13-3-6-5-13-9-33-4-21-12-41-26-59-10-13-14-17-27-23-13-7-20-13-22-20-1-5 1-22 2-27 1-2 3-10 4-18 2-19 1-29-4-39-7-13-19-25-32-29-13-5-34-4-43 0-2 1-4 2-5 2-3 0-18 7-22 10l-13 13c-13 15-18 27-18 44 0 8 1 11 5 12 2 1 5 22 5 33 0 9 0 10-6 17-5 7-8 12-12 23-2 5-7 16-11 25-5 9-11 20-14 27-7 13-10 17-16 24-2 3-8 10-11 14-7 9-9 11-24 23-4 4-13 11-19 17-9 7-14 11-22 15-12 7-16 7-26 5-15-5-56-8-66-6s-12 6-8 17c1 3 2 6 3 7 0 3-4 7-10 8-8 3-9 4-10 13 0 6 0 7 3 13 7 13 11 16 24 14 4-1 11-2 15-2 21-3 37-7 74-18 20-7 26-8 29-6 6 4 16 15 19 21 3 7 4 10 2 18-1 5-1 5 2 12 4 7 9 14 12 14 1 0 7-6 11-11l2-3 7 1h21c14 0 15 1 15 3 0 1-1 5-2 7-2 4-2 8-3 18 0 12 0 12 3 16 1 2 4 5 6 7 2 1 5 5 8 8 2 3 6 7 8 9 8 5 27 6 85 6 26 0 56 0 65 1 10 0 29 1 42 1l23-1 3-3z"/></svg>