<svg xmlns="http://www.w3.org/2000/svg" width="1344" height="566"><path d="M0 283V0h1344v566H0V283m575 277c29 0 96-1 149-1s112 0 132-1c108-3 117-3 125-2 4 1 11 1 17 1 18-2 102-2 122 0 18 1 45 2 49 1 2 0 4-3 4-6s-2-11-4-17-19-37-25-45c-12-19-32-38-48-46-11-5-25-11-36-15-5-2-20-6-32-11-12-4-29-9-38-12-34-11-39-14-43-19-1-2-1-3 2-23 1-4 3-11 3-15 6-31 10-45 14-51 2-3 5-5 12-8 16-8 26-19 36-38 6-14 9-25 9-36 0-15-4-22-15-27-7-3-8-10-6-23 5-25 7-67 5-93-1-21-5-42-8-49-7-13-13-16-33-19-12-1-29-1-124-1-97 1-111 1-121 2-6 1-12 3-14 4-6 4-18 27-23 46-5 17-7 28-9 58-3 49-4 63-6 70-2 6-3 21-1 29s7 23 12 36c3 6 6 14 8 18 1 3 3 8 4 11 6 11 25 67 25 72 0 2-1 4-2 5-2 2-11 4-18 4-1 0-7 1-13 2-26 7-30 8-35 14-3 2-10 14-21 32-19 30-29 41-50 55-8 5-20 14-27 20-8 6-18 13-22 16-16 10-28 19-33 21-13 8-40 31-42 35-1 3-1 3 0 5 2 1 5 2 24 2 13 0 27 1 33 0 6 0 35 0 64-1z"/></svg>