<svg xmlns="http://www.w3.org/2000/svg" width="1344" height="566"><path d="M0 283V0h1344v566H0V283m622 275c22-1 69-1 125 0 32 1 69 2 110 2l63-1 9-3c13-4 22-9 43-23 7-5 13-9 18-15l7-8-2-5c-1-2-2-5-2-6 0-2-5-7-9-8-3-1-12-2-24-3-13-1-20-1-24-3-4-1-13-3-22-4s-17-3-18-4c-4-1-6-5-6-11-1-7-7-13-13-13-12-1-19 1-29 7-2 2-6 5-8 6-5 3-12 8-24 19-4 3-10 8-13 10-7 4-28 12-36 13-9 2-9 2-22-26-11-23-15-31-39-80-6-12-11-24-11-25 0-3 1-4 10-9 5-2 8-4 12-10 3-4 7-7 10-9l12-8c3-3 8-7 10-9 3-1 6-4 8-7 2-2 7-5 11-8 8-6 10-10 15-26 3-13 5-20 15-38 4-8 9-21 13-29 5-14 12-27 23-45 8-14 8-16-4-31-8-8-10-12-18-24-7-12-12-17-23-26-18-16-39-28-61-36-21-7-47-7-70 1-4 1-13 5-20 9-13 7-20 13-35 30-10 12-14 18-23 36-5 8-11 18-14 22-6 9-18 18-24 22-3 1-15 4-26 7-26 7-27 8-43 28-10 13-12 16-13 24-1 4-2 9-3 13s-2 8-2 10-1 8-3 13c-1 6-2 11-2 12 0 4 3 8 10 13 8 5 10 7 8 12 0 2-7 13-15 25-16 24-20 31-31 59-4 10-11 25-15 32-8 16-9 19-6 32 3 23 3 26 2 31s-4 6-10 5c-5-1-41-26-47-33-2-3-6-6-8-8-7-4-48-47-49-51 0-1 3-10 7-21 9-28 9-31 8-51-2-24-4-32-14-40-5-4-8-9-8-12 0-1 1-5 3-9 3-10 4-26 2-38-1-11-3-15-8-17-4-2-5-2-8-1-6 2-11 7-16 16-3 4-6 9-8 10-5 4-6 7-6 18 0 16-2 18-21 21-5 1-10 2-12 3-5 3-15 14-20 22-7 11-10 20-13 39-6 47-6 47-13 55-6 6-8 7-20 7-6 0-10 0-12 2-3 1-5 1-11 1l-8-1-4 5c-2 3-4 6-4 7 1 2 5 3 11 5 3 0 6 1 9 4 3 4 5 6 8 15 5 16 12 25 39 51l23 23c0 2 1 5 2 8 0 6 3 12 7 15 4 4 12 6 36 10 28 5 44 5 137 5 46 0 84 1 85 1 1 1 142 0 162-1z"/></svg>