<svg xmlns="http://www.w3.org/2000/svg" width="1344" height="566"><path d="M0 283V0h1344v566H0V283m356 277c30 0 55 0 57-1 1 0 5 0 8 1 4 1 6 1 9-1 4-1 6-1 14 0 7 1 35 1 140 2h164c34 1 86 0 91-2 2-1 3-2 3-2 0-2 1-26 1-34 0-18-1-19-52-44-41-21-69-35-75-39-7-4-7-7-4-17 3-7 8-27 8-30 0-4 5-21 10-33 5-14 8-24 10-36 1-4 2-12 3-17 3-15 2-38-2-69-1-7-3-19-4-25 0-6-2-16-2-21-2-18-9-51-16-73-5-15-17-39-26-50-10-14-30-32-46-40-11-7-33-16-43-19-9-2-12-2-24-2-11 0-14 0-28 3-8 2-18 6-22 8-4 1-11 4-16 5-18 3-29 9-42 21-18 20-32 47-43 89-8 28-11 46-18 99-4 37-4 40-4 67 0 26 0 30 2 42 4 27 7 40 11 54 2 8 3 18 4 22 0 7 0 8-2 10-3 3-16 7-31 10s-22 6-45 20c-22 13-41 24-53 30-9 4-25 15-30 20-4 3-5 7-8 18-1 4-4 12-6 17-2 4-3 9-3 11 1 6 9 8 38 7 10 0 43 0 72-1z"/></svg>