<svg xmlns="http://www.w3.org/2000/svg" width="1344" height="566"><path d="M0 283V0h1344v566H0V283m328 277c16-1 62-1 245 0h500c21-1 32 0 34 0 4 2 81 1 102 0 27-3 37-5 38-8 1-2-2-7-16-19-7-6-8-8-13-18-3-6-7-14-8-19-1-4-3-10-4-12 0-2-2-11-4-20-3-15-6-24-11-28-2-3-6-4-23-9-4-1-8-3-10-3-3-1-7-8-12-16-7-16-21-54-25-72-2-8-6-22-9-32s-6-22-7-27c-2-9-6-41-8-55-1-16-6-37-11-45-3-5-6-7-11-7-7 0-12 6-12 17 0 3-2 5-4 3-1-1-5-10-9-21-8-27-11-31-17-35-8-4-18 2-18 12 0 2-1 3-2 4-1 0-3-2-11-11-9-11-18-8-25 8-1 5-4 9-7 12-8 9-13 23-16 41-1 12-1 25 1 51 0 7 1 19 2 26 1 17 3 22 9 34 3 8 18 33 23 40 1 1 6 8 10 15 5 8 13 20 19 28 21 29 37 57 44 77 2 5 7 19 12 31s9 22 9 24c0 4-2 7-6 7-3 0-14-7-31-19-13-10-22-16-34-23-13-7-25-16-31-22-5-5-11-16-12-22-1-2-4-8-6-14-5-11-6-12-15-20-17-16-35-30-47-36-11-6-19-6-51-6-14 1-28 1-32 2-9 1-28 1-32 0-10-4-10-13-3-46 2-10 4-13 9-19s8-15 9-28c1-5 2-12 3-15 1-6 1-6-1-20-3-14-15-48-22-65-2-5-7-17-11-25-7-19-11-27-19-41-20-33-34-52-46-63-18-16-31-23-59-32l-18-6h-22c-16 0-24 0-30 1-5 1-12 2-17 2-13 1-37 6-48 9-18 6-38 20-55 37-7 9-12 16-21 32-13 26-18 40-19 59v13l6 12 6 11-1 13c0 7-1 19-1 27-3 18-2 22 4 36s7 20 7 33c-1 16 1 26 6 38 4 10 13 21 21 30 8 7 15 16 17 22 3 6 2 16-2 28-4 13-5 15-16 25-12 10-16 13-25 16-12 4-13 3-15-21-3-19-4-25-10-39-7-14-11-18-16-21-8-2-14 1-18 11-2 5-3 6-3 36 0 28 0 31-1 33-2 1-2 1-4 0-2-2-8-18-12-34-4-14-9-46-11-67-2-18-7-49-9-54-3-7-9-12-13-12-10 0-11 7-14 62-1 13-2 25-3 25-2 2-6-9-12-30-1-4-3-11-4-16-3-12-7-24-10-31-5-15-19-22-27-13-2 3-2 3-2 16 1 13 4 37 6 48 0 3 1 9 1 13 1 4 2 10 3 14 2 9 2 19 0 19s-3-3-7-12c-1-3-3-7-4-10-1-2-3-6-3-9-3-8-9-23-12-28-9-18-28-17-28 1 0 5 6 30 11 48 1 3 3 11 5 17l7 21c5 14 7 21 5 22-1 2-4-1-19-18s-20-21-27-25c-7-3-12-3-15 0-6 5-4 13 5 30 7 13 14 24 32 47 8 10 19 24 26 32 6 9 14 19 17 23 7 11 16 21 21 23 4 2 20 4 29 3 3 0 12 0 21-1z"/></svg>