<svg xmlns="http://www.w3.org/2000/svg" width="1344" height="566"><path d="M0 283V0h1344v566H0V283m726 278c8-1 11-2 13-3 5-5 6-18 5-53-1-20-1-23-3-28-4-9-10-14-51-42-25-17-31-23-31-32s10-52 16-66c8-20 9-25 12-34 1-5 2-12 3-16 2-11 5-26 7-37 2-5 4-15 5-21 2-11 3-14 6-33 0-6 2-15 3-20 0-5 1-18 2-29 0-17 0-21-2-34-6-35-17-51-49-71-13-8-25-13-46-21-21-7-27-8-38-7-4 1-16 1-28 0-15 0-21 0-26 1-9 2-20 7-27 11-5 4-32 30-37 37-11 15-14 21-20 40-4 13-7 21-15 53-8 27-20 87-24 116-3 19-8 51-10 57-1 2-3 8-4 13-2 11-3 14-7 18-4 3-22 14-38 22l-10 6h-16c-18 0-18 0-32 8-4 2-13 6-20 9s-15 6-18 8c-9 5-17 15-28 35-9 15-10 17-20 27-11 11-22 20-44 35-6 5-12 10-13 11-3 3-4 9-4 19 0 11 1 16 6 19 2 1 10 1 198 1h210c19-1 79 1 80 1 1 2 85 1 95 0z"/></svg>