<svg xmlns="http://www.w3.org/2000/svg" width="1344" height="566"><path d="M0 283V0h1344v566H0V283m733 182c1 0 8-1 15-1 6-1 13-2 16-2 5-2 16-5 26-6 7-2 17-4 24-6 2-1 8-3 12-4s11-3 15-4c11-3 26-4 44-2 19 2 19 2 19-13 0-7-1-13-2-21-5-23-7-48-5-61l1-7-4-8c-5-10-9-13-22-18-7-3-14-8-15-11-1-5-6-8-21-11-3 0-5-2-4-4 1-3 4-3 14-3 11 0 12-1 12-7 0-9-4-38-7-50-2-6-5-18-6-25-2-7-4-15-5-17 0-1-2-6-3-10s-3-10-4-14c-3-10-6-21-6-22 0-4-6-20-12-32-9-20-14-27-26-37-12-11-37-26-51-31-9-3-26-2-39 1-6 2-15 4-21 5-23 5-31 10-43 27-12 18-16 33-22 85-1 6-2 13-3 15-2 8-3 73-2 93 1 10 1 19 2 22 0 6-1 8-8 10-9 2-19 3-27 1-10-3-28-3-33-1-2 1-7 5-11 8-4 4-10 9-12 10-3 2-8 5-11 8-4 2-15 10-25 17-11 7-22 14-24 17-6 5-16 10-21 10-4 0-13 4-15 7-1 1-3 4-3 6-1 2-4 10-8 18-8 18-9 21-15 38-3 7-6 16-8 19-2 4-2 5-1 7 1 1 3 1 9 1 7-1 20-4 26-7 1-1 6-3 11-3 4-1 11-3 15-4 7-2 10-2 34-3 21 0 28 0 33-2 9-2 20-1 30 2 8 3 27 7 40 8 6 0 15 2 21 3 12 1 14 1 23-2 5-2 31-3 38-1 2 0 8 1 13 2s12 2 15 3c2 0 6 1 7 1 2 1 5 3 7 5l4 3 8-1c5 0 10-1 11-1z"/></svg>