<svg xmlns="http://www.w3.org/2000/svg" width="1344" height="566"><path d="M0 283V0h1344v566H0V283m802 278c4-1 25-1 56-1 27-1 63-1 80-2 31-1 77 0 84 2 2 1 8 1 14 1 10 0 12 0 15-2s3-2 3-6c0-5-7-35-10-41-1-3-6-9-10-15-5-6-9-13-10-15s-1-5-2-8-2-5-5-7c-4-4-26-14-50-23-19-7-21-8-34-14-8-4-13-7-15-10-5-5-5-7 13-56 7-20 9-27 10-50 2-37-2-127-7-162-6-39-17-69-36-94-16-20-44-40-70-48-9-2-11-2-29-2-33-1-55 2-68 9-14 6-30 18-41 29-10 11-16 18-23 33-5 9-16 39-21 57-2 10-10 47-12 64-1 6-3 15-4 21-3 16-6 47-7 75-1 37-3 56-5 61 0 2-1 7-2 11-2 12-7 20-17 23l-10 5c-3 2-10 4-15 6-12 3-19 6-30 11-8 4-12 6-32 17-10 6-31 15-45 20-11 4-16 7-19 13-3 5-2 13 1 23s2 14-4 34c-9 23-10 27-10 32s2 7 7 8c4 1 116 0 132-1 6-1 10 0 12 0 3 1 16 1 50 1 68-1 71-1 81 1 13 1 77 1 85 0z"/></svg>