<svg xmlns="http://www.w3.org/2000/svg" width="1344" height="566"><path d="M0 283V0h1344v566H0V283m795 278c75 0 78-1 81-3 3-1 5-3 6-5 3-6 2-29-4-70-3-20-23-38-80-74-10-7-22-16-26-20-3-3-11-17-20-35-4-7-4-9-4-15s0-8 5-18c6-13 19-37 24-45 8-12 12-20 13-26 1-3 3-10 4-16 2-7 4-16 5-22 5-19 6-32 6-53 0-14 0-22-1-29-5-30-20-54-47-76-18-15-29-19-53-21-7 0-17-2-21-3-14-3-37-1-53 4-21 7-49 33-61 55-7 15-10 29-12 53-2 27-3 34-9 44l-4 9v16c0 19 1 22 9 36 4 7 13 17 19 21 4 3 7 12 8 22 2 16 0 21-18 38-12 12-22 20-31 25-5 4-30 13-50 19-18 5-56 17-62 19-16 6-22 12-31 31-7 13-26 58-26 60 0 0-14 35-19 46-5 12-9 23-9 26 0 1 1 3 2 4l3 2h57c32 0 68 1 81 1h318z"/></svg>