<svg xmlns="http://www.w3.org/2000/svg" width="1344" height="566"><path d="M0 283V0h1344v566H0V283m482 135c8-1 15-3 24-7 12-6 26-7 68-4 55 4 69 4 93 5 15 0 29 0 33 1 12 2 31 2 39 1 3-1 10-2 13-2 16-2 34-5 56-11 20-6 25-7 39-13 8-4 13-5 19-6 12-1 14-3 14-12 0-18-2-34-6-45-1-6-3-13-3-15 0-3-1-7-3-11-1-4-3-7-3-8-1-1-3-3-6-5-2-1-6-4-8-6-3-3-4-4-4-10-1-7-1-8 1-10 4-5 4-6 3-13-7-25-9-35-12-45-2-6-5-17-7-24-5-27-9-38-16-52-7-15-18-29-30-37-13-9-32-17-46-19-17-2-51 5-69 16-19 11-32 36-34 64-2 24-3 48-4 70-1 30-2 31-15 31s-19 3-32 14-15 13-22 28c-6 13-7 15-17 21-2 2-7 5-11 8s-9 7-13 9c-4 1-10 4-15 7-15 7-17 8-30 9-11 0-12 1-14 3-2 1-3 3-4 4 0 2-3 7-5 14-5 10-9 18-13 28-1 2-3 7-4 10-2 6-2 10 1 10 9 3 32 3 43 2z"/></svg>