<svg xmlns="http://www.w3.org/2000/svg" width="1344" height="566"><path d="M0 283V0h1344v566H0V283m299 276c1-1 3-1 4-1 4-1 6-5 6-11 0-2 0-5 1-6 1-2 1-3 0-6s-2-9-2-15c-1-6-2-14-3-18s-2-12-3-16c-1-5-1-13-2-16-1-11-1-18 1-21s7-5 14-5c3 0 8-1 9-1 2-1 5-2 8-2 2-1 7-2 12-3 22-5 27-6 38-8 6-1 15-2 19-3 19-3 45-13 51-20 4-4 4-10 0-14-2-2-4-5-4-7-1-1-2-3-3-3-1-1-13 0-24 3-9 1-11 1-16-1-4-2-5-3-6-9-2-7-5-16-7-16-1-1-2-1-3 0-2 2-11 18-13 25-1 3-3 6-4 7-3 4-12 7-27 9-16 2-23 2-41-2-10-2-13-5-15-12-1-4-3-47-3-60 0-5 1-16 2-24 6-39 6-41 1-47-3-5-4-6-2-10 2-3 8-6 14-6 14 0 24-15 26-40 1-13 0-21-4-35-2-4-4-10-4-14-3-13-6-17-12-23-11-11-27-16-45-16-12 0-18 1-28 6s-13 8-18 16l-3 7v17c1 10 1 19 2 23l2 7-5 10c-5 10-14 20-26 31-18 15-40 38-48 51-2 3-6 8-7 11-4 6-12 27-15 37 0 4-1 8-1 10 0 5-1 16-4 26 0 4-2 12-3 19 0 7-2 17-3 23-2 5-3 12-4 16 0 4-1 14-3 24-3 16-3 18-2 30 2 20 4 27 12 36 3 3 8 10 11 14 8 11 27 29 31 31 4 1 53 3 104 2h45z"/></svg>