<svg xmlns="http://www.w3.org/2000/svg" width="1344" height="566"><path d="M0 283V0h1344v566H0V283m883 279c10 0 15-1 16-2 3-2 2-6 0-11-1-2-2-5-1-6 0-1 3-3 7-5s8-4 9-5c2-2 6-4 11-7 4-2 8-5 9-6 4-4 12-19 15-27s3-9 3-23c0-26-4-35-34-66-19-19-26-27-30-34-2-5-2-6-2-16 0-11 0-15 5-42 4-20 5-33 2-46-3-14-11-33-22-52-6-11-22-26-33-32-12-6-28-11-39-12-37-3-53-2-90 9-16 4-22 7-37 17-22 14-24 18-26 35-1 6-2 18-4 25-1 7-3 17-3 21-2 17-8 42-16 71-2 9-3 23-1 32 3 9 2 13-1 20-4 7-8 11-13 12-6 1-8 2-18 13-11 10-17 21-21 34-4 10-6 26-6 33 3 26 3 35 2 47l-1 12 2 3c3 2 16 4 31 4 5 0 12 1 15 1 7 2 47 3 77 2 16-1 22-1 29 0 8 2 23 2 80 2 39 0 77 0 85-1z"/></svg>