<svg xmlns="http://www.w3.org/2000/svg" width="1344" height="566"><path d="M0 283V0h1344v566H0V283m611 277c7-1 17-1 21-1 5 0 49 0 98 1 72 1 91 1 93 0 5-3 6-7 6-20-1-21-5-37-17-70-3-10-7-21-8-25s-3-10-5-13l-3-8 1-9c1-9 1-10 0-12-2-3-29-17-41-22-4-1-14-5-22-9-9-5-17-8-17-8-1 0-7-3-15-6-8-5-14-8-15-10-3-3-3-4-3-13 0-12 3-44 7-67 2-17 2-45-1-74-2-12-4-29-5-36-3-36-7-52-15-72-5-10-7-15-18-28-16-20-30-30-60-42-12-5-22-6-31-5-7 1-19 5-23 7-1 0-8 2-16 3-18 3-25 6-37 18-26 26-42 68-52 136-2 12-4 25-5 30-4 28-4 32-4 60 0 23 0 29 1 39 2 6 2 15 2 22 0 12 0 12-3 15-4 5-13 9-24 10-5 1-15 4-21 6-28 9-73 31-78 37-1 1-5 10-7 18-6 15-15 35-20 44-3 5-12 24-12 25s-2 7-5 13c-3 7-7 16-9 21-1 5-4 13-6 18-6 15-5 21 3 24 5 2 86 3 125 2 18-1 83 0 124 2 24 1 102 0 117-1z"/></svg>