<svg xmlns="http://www.w3.org/2000/svg" width="1344" height="566"><path d="M0 283V0h1344v566H0V283m702 170c3-1 8-10 8-12 0-1 1-4 2-6 1-3 2-6 2-7 0-3 3-17 6-26 0-3 1-7 2-10 1-10 4-22 6-28 4-9 9-16 25-32 7-8 14-15 15-17 3-6 5-13 6-26 2-12 2-13 7-23 3-6 5-11 5-12s1-4 2-7c3-8 4-18 3-30-1-13-2-17-5-21-2-2-4-5-5-7-2-3-3-6-3-8s-1-7-1-11c-1-4-2-11-3-15-1-18-10-29-24-29-11 0-20 7-27 24-5 9-5 10-5 19v9l-4 3c-2 2-7 6-11 9-13 11-20 15-43 25-2 1-7 5-12 9-4 4-8 7-9 7s-4 1-7 3c-6 3-6 5-1 13 4 6 4 9 3 22-2 10 1 12 9 9 4-1 6-5 6-11 0-4 1-5 5-8 2-3 7-7 9-10 5-5 6-5 13-7 12-2 21-5 27-7 6-4 8-3 9 1 1 1 2 4 3 7 1 2 2 6 3 9 0 4 0 5-4 9-2 3-5 7-6 10-2 3-7 9-12 14-8 8-8 9-8 13 0 3-1 10-1 16-1 6-2 16-2 22 0 10 0 11 1 12 2 1 3 1 6 0 5-3 7-7 8-14 1-3 2-7 2-9 4-6 13-13 15-10 1 1-2 12-7 23-6 10-8 18-9 27-1 5-2 11-2 13-1 2-1 12-2 22 0 21 0 21-9 37-5 8-4 12 3 15 5 2 8 2 11 1z"/></svg>