<svg xmlns="http://www.w3.org/2000/svg" width="1344" height="566"><path d="M0 283V0h1344v566H0V283m994 277c24-1 28-2 30-5 1-6-7-28-22-58-3-7-8-19-11-25-2-7-6-16-7-20-3-8-5-16-7-23 0-1-1-3-2-5-6-7-11-17-20-35-6-11-12-21-14-24-5-6-11-22-16-39-4-18-4-18 5-24 8-5 18-16 22-23 3-7 5-15 7-35 1-7 3-19 5-28 3-20 4-50 1-66-6-34-22-65-44-86-10-9-25-19-33-23-8-5-23-9-36-12-15-2-41-2-52 1-4 1-12 2-18 3-20 2-41 7-57 14-13 5-34 19-44 29-8 9-20 38-24 56-5 25-4 52 3 75 4 13 7 28 9 47 1 19 3 28 11 56 9 30 16 54 21 62 2 5 6 10 10 15 7 6 8 7 16 9 5 2 12 4 18 4 15 1 18 3 27 18 5 9 7 14 6 17-1 2-6 8-13 15-6 6-13 14-15 16-8 10-16 20-26 30-13 15-19 23-26 38-6 14-7 20-4 23 2 2 4 2 22 2 5 0 17 1 26 1 19 2 213 2 252 0z"/></svg>