<svg xmlns="http://www.w3.org/2000/svg" width="1344" height="566"><path d="M0 283V0h1344v566H0V283m167 193c4-4 10-11 13-14 4-5 6-7 9-8 2-1 5-2 6-4 3-4 10-11 23-23 7-7 12-13 17-20 3-6 10-15 13-20 4-6 8-13 10-17 1-3 3-7 4-8 2-3 2-3 1-7-1-3-2-6-3-7-1-2-1-4 0-9 1-6 1-7-4-22-6-18-9-25-17-32-8-8-15-11-27-12-12 0-18 1-26 8-7 6-10 11-18 26-3 6-6 13-7 16-2 3-6 7-13 13-6 5-13 12-17 16-6 6-10 9-14 9-1 0-4 2-7 4-4 3-5 3-8 2s-4-1-4 5c0 5 2 9 10 18 3 3 7 7 7 9 1 2 2 10 3 19s1 16 2 18c0 1 4 4 8 6s8 6 10 8c2 4 8 18 10 25 1 5 6 9 9 9 1 0 5-2 10-8z"/></svg>