<svg xmlns="http://www.w3.org/2000/svg" width="1344" height="566"><path d="M0 283V0h1344v566H0V283m890 273c2-1 4-5 5-8 5-10 6-14 5-31 0-10 0-19 1-24 1-8 1-9-3-29 0-3-1-9-2-14l-4-16c-2-5-4-15-4-21-1-6-3-15-4-20-2-5-4-13-5-19-2-6-4-13-5-16-1-2-2-7-2-10-1-3-4-12-7-19-2-7-5-16-6-18-7-27-22-53-39-70-6-5-11-9-15-11-11-4-16-8-19-11-6-7-7-20-4-39 6-29 2-48-12-65-6-7-12-12-21-16-6-2-7-2-22-2-13 0-16 0-19 1s-9 3-14 5-11 4-12 5c-4 3-17 15-24 23s-10 13-13 25c-2 8-3 11-2 19 0 13 0 13 5 18 4 5 6 10 8 21 1 6 1 7-1 11-1 2-2 4-3 5-2 1-7 12-12 28-4 10-8 22-11 28-3 7-8 15-10 20s-7 13-11 19c-4 5-10 12-12 16-6 8-11 13-38 39-17 17-28 25-30 25-1 0-6-2-11-5-5-2-12-5-16-5-23-5-32-6-45-6-12-1-14-1-18 1-7 3-7 8 3 16 6 5 8 9 7 12-1 2-8 5-15 7-5 1-9 5-9 8 0 5 8 15 15 20 12 8 14 8 39 8 13 0 25 0 29-1 4 0 12-1 19-2 11 0 12 0 16 2 7 4 12 9 22 19 7 7 12 11 17 14l8 4 4-2c4-2 5-2 15-2 11 1 24 4 29 7 5 2 8 9 9 19l1 9 10 11c10 11 13 14 20 15 11 3 83 5 172 5l39-1 2-2z"/></svg>