<svg xmlns="http://www.w3.org/2000/svg" width="1344" height="566"><path d="M0 283V0h1344v566H0V283m760 278h162c144-1 143 0 148-5 1-2 2-4 2-6 0-6-17-55-25-73-5-9-13-21-21-30-5-6-16-21-27-38-3-6-10-15-13-21-8-11-17-30-17-35 0-3 2-6 9-8 2-1 7-3 11-5 5-2 8-2 18-3 13-1 14-1 18-7 2-4 5-22 5-28-1-3-2-10-4-15s-5-15-7-22c-4-16-6-24-10-31-6-12-16-23-29-30-23-12-45-26-50-31-6-5-8-11-13-29-2-10-6-21-7-26-5-12-19-41-24-50-6-9-27-29-37-36-15-10-36-19-53-23-10-2-67-3-82-1-14 1-35 6-41 8-9 4-37 29-48 44-13 18-36 44-43 51-18 16-20 19-21 30-1 12 3 28 14 53 4 8 8 19 11 25 9 23 20 37 36 47 3 3 8 6 10 9 4 4 5 8 7 25 1 12 3 20 6 24 1 2 5 6 9 9s9 8 11 11c2 2 7 8 12 13 17 18 27 34 28 45 0 6-1 11-9 29-4 9-7 13-13 21-5 5-10 13-12 16-8 14-20 56-22 75 0 10 1 14 5 17 4 2 37 3 62 2 10 0 30 0 44-1z"/></svg>