<svg xmlns="http://www.w3.org/2000/svg" width="1344" height="566"><path d="M0 283V0h1344v566H0V283m862 279c63-1 95-2 98-4 3-3-1-9-20-24-16-13-27-24-28-28-2-7-1-11 1-14 2-1 4-2 13-2 7-1 10-1 14-3 2-1 5-2 6-2 4 0 22-9 29-15 4-3 10-9 13-12 10-11 13-19 9-24-1-2-13-11-21-15-2-2-10-7-18-12-7-5-15-10-18-12-13-7-30-19-35-24-9-10-9-16-2-30 3-6 5-11 6-15 0-3 1-10 3-15 7-28 10-50 8-63-3-24-13-44-28-58-19-18-43-29-71-33-17-3-22-3-49 0-25 3-30 4-49 12-11 5-16 8-19 11-6 5-7 9-8 24-1 11-1 12-6 23-7 16-9 21-9 35-2 27-3 32-10 52-3 9-4 14-3 27 1 7 1 8-1 13-2 4-2 6-2 20 0 17 3 41 6 47 1 2 4 6 6 9 6 6 5 8-2 17-10 12-11 13-13 13-5 0-13-9-13-14 0-3-4-11-8-14-3-3-4-3-12-3-10 0-10 0-11-6-1-2-3-6-4-10l-4-7-8 1c-10 0-22 3-26 8-4 3-13 21-16 27-2 7-4 13-5 28-3 16-2 26 0 30 1 3 2 6 2 14 0 23 0 26 3 29 4 4 10 6 15 6 4-1 7 0 9 1s3 1 6 0 7 0 7 2 5 4 13 6c6 1 21 1 52 2 23 1 46 1 50 2 3 0 25 1 47 0h103z"/></svg>