<svg xmlns="http://www.w3.org/2000/svg" width="1344" height="566"><path d="M0 283V0h1344v566H0V283m738 278c96 0 130 0 135-1 8-2 85-2 102 0 13 1 49 1 61 0 9-1 12-3 12-8 0-4-5-24-7-30s-12-40-15-50c-1-5-3-12-4-17-2-10-6-22-10-35-2-4-4-14-6-21-7-28-16-44-27-50-9-4-27-9-62-17-25-5-31-7-37-13-3-2-9-7-14-10-19-13-32-25-43-40s-13-23-9-37c9-31 11-47 11-80 1-25 0-32-5-46-7-25-25-45-50-59-20-11-37-14-78-14-23 0-29 0-36 1-15 3-18 5-36 23-26 25-31 30-39 46-4 8-7 16-8 18s-3 8-6 13l-5 15c-1 7 2 32 5 44 2 6 5 21 7 31 6 32 7 34 16 43 7 7 15 12 32 20 8 3 15 7 16 8 6 5 9 16 7 30-1 11-4 16-10 21-3 2-8 6-12 10-15 14-27 21-51 30-15 7-17 7-40 22-41 27-49 35-54 64-2 7-2 18-3 44-2 44-3 41 19 44 14 2 42 3 80 2 20 0 93 0 164-1z"/></svg>