<svg xmlns="http://www.w3.org/2000/svg" width="1344" height="566"><path d="M0 283V0h1344v566H0V283m311 275c41-1 56-1 87 0 31 0 81-1 82-2 1 0 16-1 34-1 43 0 56 0 80 1 12 1 35 1 52 1 39 1 38 1 31-12-4-9-8-15-16-24-7-9-11-11-25-15-13-4-27-10-42-19-10-5-15-7-39-16-15-6-24-10-25-12-4-5-1-15 10-36 3-7 8-15 10-18 1-3 4-7 5-9 1-3 3-6 5-7 5-6 7-6 31-7 16 0 24-1 27-2 10-4 18-11 20-19 1-2 1-11 1-21 0-23 1-34 7-49 0-2 3-10 5-16 2-11 3-14 3-22 0-11-2-23-5-37s-4-35-4-74c-1-39-1-44-6-63-7-26-12-35-23-46-10-10-16-13-38-21-20-8-34-9-118-8l-60 1-6 3c-16 8-44 31-57 49-10 13-19 33-30 67-3 12-8 27-11 34-2 8-5 19-7 26-8 27-25 75-32 92-3 7-6 15-7 20 0 5-2 12-4 16-1 3-3 10-4 15-3 13-8 24-15 39-6 11-9 15-17 24-14 15-15 17-16 24-1 4-2 9-5 16-7 13-7 16 0 24 3 4 6 7 8 8 1 1 7 2 14 2 12 1 13 1 15 7 1 3 4 10 6 17 3 7 5 14 5 15 0 4-2 8-12 21-18 26-20 30-16 33 2 2 17 3 45 2 9 0 35 0 57-1z"/></svg>