<svg xmlns="http://www.w3.org/2000/svg" width="1344" height="566"><path d="M0 283V0h1344v566H0V283m1002 168c5-5 18-22 19-25 1-2 2-6 2-10 1-10 11-38 18-48 6-9 6-12 6-30 0-21 0-22-12-35-12-12-15-17-15-25 0-3 0-10-1-17 0-6-2-21-2-33-3-40-10-60-23-71-12-10-28-15-42-12-18 4-24 7-31 17-6 9-9 17-10 30 0 6-1 11-1 12-1 0-2 5-2 9-1 9-6 26-8 30-1 1-5 3-9 5-12 6-19 16-21 31-3 20-9 44-11 45-1 1-5 3-8 5-7 4-15 13-16 19-1 5-1 14 0 21s5 14 12 22c5 4 11 7 19 9 5 0 17 5 19 6 1 1 2 1 4 0 5-2 6 0 3 8-2 6-2 6 15 17 1 1 5 2 10 3 14 4 41 11 53 14 8 3 23 6 26 6 2 0 4-1 6-3z"/></svg>