<svg xmlns="http://www.w3.org/2000/svg" width="1344" height="566"><path d="M0 283V0h1344v566H0V283m602 277c14-1 27-1 29-1h94l89 1 3-3 2-2v-19c-1-18-1-21-4-34-2-7-6-18-7-24-2-7-4-13-5-15 0-2-2-7-4-12s-3-9-3-10-2-6-5-11l-4-9 2-9c2-9 2-9 0-12-1-2-15-9-34-17-5-2-16-7-25-11-9-5-17-8-18-9-1 0-9-3-18-8-18-8-19-9-18-22 1-9 5-48 7-63 2-17 2-32 1-56-5-57-8-83-16-110-6-22-26-53-41-66-18-14-53-30-67-30-6 0-19 3-28 7-6 3-10 3-18 4-11 1-12 1-20 5-7 4-10 6-18 14-21 21-33 45-42 88-6 24-13 66-16 98-3 30-3 71 0 88 4 20 3 27-6 32-6 4-10 6-18 7-13 1-53 16-74 28-5 3-12 6-16 9-10 5-11 7-14 22-1 6-4 17-7 24-3 8-5 15-6 16 0 1-2 7-5 12-6 14-23 74-23 84 0 6 3 9 9 11 8 2 46 3 90 1h42c22 0 86 2 106 3 21 1 78 0 106-1z"/></svg>