<svg xmlns="http://www.w3.org/2000/svg" width="1344" height="566"><path d="M0 283V0h1344v566H0V283m802 278c10-2 143-2 206-1l36 1 3-2c2-3 2-3 2-10-1-8-4-22-7-26 0-2-4-7-8-13-3-5-8-13-10-17-6-11-5-11-58-34-40-18-41-19-41-26 0-3 8-28 14-45 6-15 9-27 11-46 2-15 2-21 2-59 0-40-2-88-4-110-2-21-8-47-14-63-8-23-18-38-34-55-16-15-29-23-47-29-24-7-38-9-50-5-6 2-8 2-20 1-12 0-16 0-21 1-9 2-20 8-26 12-2 2-8 7-12 10-12 9-31 28-36 37-7 9-14 26-20 44-5 14-13 46-15 59-1 4-2 11-3 16-9 36-15 79-18 111-1 22-4 41-7 50-2 5-4 10-4 13-1 6-8 16-13 19-2 2-6 4-10 5s-8 3-10 4c-1 1-6 3-10 4-13 4-39 16-48 21-14 8-35 17-52 23-9 3-17 6-19 7-5 3-10 8-11 12s0 13 3 20c3 9 1 19-7 40-6 12-9 22-9 25l3 3c3 3 9 3 108 2h70c14 1 41 0 60 0 28-1 38-1 52 0 21 2 64 2 74 1z"/></svg>