<svg xmlns="http://www.w3.org/2000/svg" width="1344" height="566"><path d="M0 283V0h1344v566H0V283m1182 278c9-1 17-1 18-2s3-2 3-4c2-3 2-4 0-15-1-7-3-17-4-22-1-6-2-14-3-19-1-10-4-18-8-22-3-4-10-8-19-10-9-1-17-5-20-9s-12-23-13-28c-1-2-4-11-7-19-3-9-7-20-8-25-1-4-7-23-13-40-11-34-18-57-18-59 0-4-10-36-14-45-5-13-9-18-14-20-8-5-15-2-18 6-2 7-7 4-14-10-10-20-17-30-24-33-5-2-11-1-16 2l-6 4c-1 0-4-3-7-6-8-7-10-8-15-8-7 0-12 6-12 17 0 3-1 6-1 7-1 0-4 1-7 1-5 0-6 0-9 3-3 4-4 9-4 19 0 20 6 49 16 74 6 14 8 21 10 35 1 10 2 13 5 20 6 13 21 35 53 78 19 25 26 35 35 53 10 19 18 44 17 50-1 3-5 6-9 6s-10-3-19-9c-5-3-12-8-17-10-12-6-28-17-32-21-1-2-4-7-6-10-16-35-18-39-29-49-24-23-41-36-55-40-8-3-25-3-68 0-39 3-45 2-49-2l-3-3v-13c1-17 3-37 6-53 3-12 4-17 8-23 1-1 3-8 4-14 4-14 4-28 1-42-4-20-21-64-31-84-2-3-6-11-10-19-18-32-25-43-32-52-11-13-27-25-45-36-13-8-37-16-55-20-13-2-38-2-52 1-7 1-16 3-21 3-21 4-53 16-70 27-9 5-23 20-30 30-20 31-31 61-31 84 0 8 0 10 3 18 8 20 9 24 7 49-1 21-1 24 6 42 5 13 5 14 7 28 1 17 4 30 8 37 6 13 22 30 36 39 13 8 15 12 15 22 0 9-2 16-10 30-5 10-7 13-15 21-11 11-16 14-31 20-17 6-17 6-19-10-2-17-9-43-15-55-3-4-4-6-7-7-4-2-4-2-8-1-9 4-13 13-15 29-1 5-1 18-1 28s-1 20-1 21c-1 4-3 5-6 3-4-4-12-28-14-44-1-4-1-9-2-11-2-7-4-24-7-55-2-30-6-45-13-51-6-5-10-5-14 2-2 4-3 22-5 64-1 12-1 23-2 23 0 1-4-2-5-5 0-1-2-7-5-13-2-6-6-17-9-25-3-7-6-15-7-18-4-11-11-26-14-30-4-4-11-7-16-7-1 0-3 1-5 3-4 4-4 9 1 26 1 8 4 20 6 26 7 35 11 50 13 58 2 9 3 18 1 18-5 0-21-29-36-63-8-17-12-22-19-24-4 0-6 0-8 2-6 4-6 11-2 24 8 28 12 39 16 51 11 27 12 31 10 32s-7-4-19-18c-13-14-15-16-21-19-7-4-12-4-16 0-2 3-2 4-2 9 2 13 12 29 42 65 5 7 12 16 15 20s9 11 13 15c7 6 8 7 14 8 7 1 77-1 108-2 18-1 27-1 37 0 9 1 37 1 93 0 77 0 141-1 346-1 54 0 110 0 126 1 40 2 81 0 89-3 3-1 6-2 8-2 4 0 13 3 17 5 3 1 7 2 16 2 18 1 57 0 78-1z"/></svg>