<svg xmlns="http://www.w3.org/2000/svg" width="1344" height="566"><path d="M0 283V0h1344v566H0V283m854 275c9-4 11-8 12-19 1-13-4-35-9-45-10-19-22-31-33-35-12-6-19-10-28-16-11-10-42-42-48-51-1-2-8-10-15-17-7-8-13-15-14-17-2-4-4-14-4-24s2-12 15-18c20-9 26-13 29-22 1-3 4-10 7-16 7-14 8-16 5-30-2-11-3-13-9-26-10-22-15-27-35-34-11-4-18-4-27 0-14 4-20 6-34 6-11 1-16 1-22 0-4-1-12-2-18-3-13-1-18-4-20-10-3-13-6-36-6-56 0-21-5-44-14-62-5-11-6-12-15-21-8-8-11-10-19-15-11-5-22-9-36-12-7-1-12-1-26-1-19 1-24 2-36 7-26 10-45 23-54 36-12 18-15 30-16 63 0 23 0 25-2 32-3 8-3 19-1 27 1 3 5 11 8 17 6 10 8 13 17 22 5 6 10 12 11 13 2 4 4 13 5 22 0 8 0 9-2 13-4 11-11 19-32 40-22 22-24 23-43 31l-12 6c-2 2-8 4-12 6-8 2-16 6-25 13-4 2-11 7-16 9-15 7-24 17-28 31-1 5-1 13-2 75 0 46 0 71 1 73 2 6 11 8 45 11 26 1 50 1 62-1 4-1 32-1 70-2h102c15 1 74 1 132 2 87 0 107 0 118 1s21 2 40 1h26l8-4z"/></svg>