<svg xmlns="http://www.w3.org/2000/svg" width="1344" height="566"><path d="M0 283V0h1344v566H0V283m695 215c8-4 8-5 7-31 0-18 0-22 1-25 1-2 2-8 2-30 1-24 1-29 3-36 3-11 9-25 16-35 10-16 12-21 15-40 2-10 4-12 10-7 5 4 9 12 9 17 0 6 2 9 5 7s7-13 7-20c0-6 0-7-2-10l-4-2c-3 0-12-8-13-11-1-2-1-3 1-7 0-3 2-7 3-11 0-3 1-7 2-9 2-3 2-45 0-51-1-5-5-9-9-11-1-1-5-4-8-7l-5-5 1-14c0-16-1-31-4-36-5-8-14-12-26-11-7 1-12 3-20 11-4 3-5 5-5 8 0 5-2 18-4 27-1 5-2 11-2 13 0 5-1 6-9 10s-20 14-31 25c-6 5-8 7-10 7s-5 1-7 2-6 3-9 5c-4 2-7 4-9 7-7 9-8 10-14 10-15 0-13 14 3 18 10 3 18 6 20 7 0 1 2 3 4 6 3 7 15 15 37 27 5 2 6 3 9 8 4 8 7 11 14 9 2 0 5-1 7-1 3 0 7 3 7 5 0 4-2 19-4 23 0 3-3 13-5 22l-4 17v53l-2 4c-2 2-3 6-4 8-1 3-2 7-3 9-1 1-3 5-4 9 0 3-2 7-4 10-1 3-2 5-2 7 1 3 10 8 15 8s8 1 10 6c2 4 5 7 8 7 1 0 4-1 7-2z"/></svg>