<svg xmlns="http://www.w3.org/2000/svg" width="1344" height="566"><path d="M0 283V0h1344v566H0V283m896 276c32-1 44-1 60 0 24 2 44 1 51-2 6-3 15-12 18-19 2-4 5-9 6-12 5-7 7-16 7-28 0-17-2-20-10-13l-5 5c-2 0-9-4-13-8-3-4-12-9-15-9l-6 4c-2 2-6 4-9 5-6 3-7 5-8 13 0 6-1 6-3 6-7-1-14 0-19 2-9 4-19 2-37-6-15-7-48-11-73-9-10 1-16 2-25 5-6 2-14 3-17 4-5 0-6 0-9-3-2-1-8-10-13-20s-13-23-17-30c-4-6-12-20-17-31-10-17-19-34-28-48-7-11-7-16-4-24 3-4 8-10 10-10 1 0 5-4 10-8 16-15 22-20 29-25 9-7 11-11 14-26 3-17 4-20 10-34 9-21 30-65 35-74 13-21 13-22 3-33-10-10-15-16-20-26-8-14-17-23-37-38-17-12-51-27-71-31-16-3-42 0-58 6s-36 20-50 35c-6 6-14 20-23 39-7 14-15 28-20 33-4 7-13 11-24 15-5 2-16 5-23 7-21 7-25 9-40 26-12 12-16 19-20 35l-7 21c-4 13-4 20-1 26 2 4 5 7 19 17 7 5 12 10 13 11 2 3 1 8-3 15-5 8-16 28-21 37-4 7-7 15-17 41-3 8-8 20-10 26-5 13-6 19-3 33 5 29 5 28 4 62v33c1 1 3 2 5 3 4 2 5 2 220 3h217c0 1 7 1 45-1m-494-4c1-1 2-3 2-3 0-1-17-15-28-24-4-3-11-9-14-11-3-3-8-6-10-8-2-1-8-5-12-8-5-3-13-7-18-9s-11-5-13-7c-4-2-40-39-42-42s-1-6 4-22c8-28 10-34 10-46 0-6-1-16-2-23-2-15-4-21-11-27-3-3-7-7-8-10l-3-5 3-11c2-9 2-12 2-25-1-18-2-22-9-26-4-2-4-2-7-1-6 3-13 11-19 23s-8 18-8 28c0 5 0 7-2 8-3 3-14 6-22 7-7 0-8 1-14 6-16 12-22 28-26 59-1 12-6 43-7 48-1 4-13 15-17 16-2 1-6 1-10 1s-7 1-10 2c-5 3-6 3-16 0-18-6-31-5-37 2-3 5-3 8 5 23 4 9 5 13 6 18 1 8 4 20 7 25 1 2 3 6 4 9 2 3 4 5 5 6 1 0 6 1 13 1 9 1 11 1 16 3 3 2 6 3 8 3 4 0 14 3 18 6 9 7 24 10 58 13 29 3 27 3 123 2 76 0 79 0 81-1z"/></svg>