<svg xmlns="http://www.w3.org/2000/svg" width="1344" height="566"><path d="M0 283V0h1344v566H0V283m744 279c3-1 10-3 15-4 10-4 12-5 13-13 0-5 0-6-3-8-3-3-3-3-4-12 0-9 0-10-4-17l-3-6v-16c1-21 4-53 6-74 2-29 0-52-6-70-10-26-18-39-34-56-9-10-12-15-12-20 0-3 7-27 14-44 3-9 3-10 4-28 1-24 0-57-2-67-6-28-12-41-23-53-9-9-17-15-30-23-20-12-43-21-59-23s-47 2-69 9c-23 7-35 15-47 31-14 20-19 31-26 70-4 21-4 22-11 29-6 7-7 10-5 27 1 16 1 40 0 45-3 9-16 18-48 31-36 15-73 36-99 57-13 10-46 44-52 51-14 20-23 34-25 41 0 2-2 7-4 11l-4 12c-7 18-9 42-7 76 2 27 2 33 6 37 3 3 4 4 10 4h50c77-2 254 0 267 2 4 1 40 1 85 2 44 0 80 0 80 1 1 0 19-1 27-2z"/></svg>