<svg xmlns="http://www.w3.org/2000/svg" width="1344" height="566"><path d="M0 283V0h1344v566H0V283m163 277c13-1 84-1 175-2h160c5-1 8-2 10-3 4-3 5-3 9 0 6 5 11 5 71 4 32 0 68 0 80-1 71-3 84-3 128-3 26 1 50 1 54 2 9 1 112 3 187 3 68 0 69 0 70-5 0-3-10-18-18-27-3-4-10-11-13-16-5-6-11-12-19-19-7-5-15-12-19-15s-12-10-18-17c-19-18-31-29-47-41-8-6-18-14-23-17-14-12-30-18-46-18-8 0-20-3-25-7-18-12-25-40-18-69 3-10 5-15 15-27 13-16 20-29 24-40 2-8 1-20-1-29-2-7-2-11 1-33 2-12 2-39 0-48-5-29-23-51-54-67-34-17-78-20-116-7-21 7-32 14-45 27-8 8-10 10-14 19-6 13-7 17-9 39 0 9-2 22-3 28s-3 19-4 30c-2 11-4 24-4 29-3 19-2 39 4 70 2 12 9 32 16 48 4 11 10 17 21 26 8 6 9 8 5 12-3 2-17 10-41 22-21 11-40 25-66 45-27 22-53 53-69 80-2 5-5 10-6 10-3 0-5-4-7-15-5-31-27-68-49-85-11-8-18-12-27-16-4-1-19-7-33-12-14-6-33-13-43-17-24-9-50-21-61-28-5-3-11-6-13-7-2 0-7-4-12-7-4-3-11-6-14-8-7-4-15-11-18-16-5-10-6-27-5-54 1-12 1-24 2-27s3-8 6-13c2-4 7-12 10-17 9-14 14-24 15-32 3-13 2-20-3-24-2-3-5-10-8-20-1-9-5-14-11-17-3-1-7-4-9-6-5-3-7-3-24-6-4 0-10-6-14-13-4-6-4-7-4-14 0-13 2-23 5-30 4-9 4-16 0-21-6-6-18-11-38-15-26-5-42-5-68 0-22 5-29 7-38 12-3 2-8 4-10 5-5 2-26 20-31 28-6 9-8 18-6 29 1 8 0 14-3 30-1 7-1 16-1 47 0 43 1 59 5 78 1 8 3 18 4 24 1 5 4 16 6 24l4 14v34c1 38 0 39-8 58-3 6-6 16-8 22s-3 13-4 15c-1 4-1 100 0 105 2 8 3 10 7 11 2 1 11 2 20 2 22 1 107 0 134-1z"/></svg>