<svg xmlns="http://www.w3.org/2000/svg" width="1344" height="566"><path d="M0 283V0h1344v566H0V283m754 276c74-1 71-1 75-8 6-8 9-21 11-45 1-9 2-20 3-22 0-3 1-8 2-11 1-9 4-11 5-4 1 6 7 22 12 32 9 16 19 25 35 34 5 2 12 6 14 8l6 4s5 1 11 1c8 2 26 2 46 2h10c3-1 3-1 9 5 1 2 3 3 10 4 20 2 60-1 67-4 3-2 6-7 5-13 0-4-1-6-5-13-6-10-14-19-19-22s-10-7-13-12c-1-2-3-7-4-15-2-13-4-17-11-24-5-4-14-10-23-15s-18-12-26-19c-10-9-20-18-27-23-8-7-17-17-28-31-14-19-14-19-15-32 0-12 0-14-9-35-4-8-7-16-8-18-1-3-4-7-7-11-7-7-9-12-8-19 2-11 2-98 1-113-2-32-9-52-22-65-7-7-29-16-46-20-8-2-12-2-27-2-17 0-18 0-29 3-26 8-36 17-48 41-3 7-7 16-9 22-5 16-15 48-17 58-8 28-18 55-31 79-12 24-14 26-34 44-25 23-29 27-41 48-3 6-10 16-14 22-9 14-37 59-41 69-8 15-12 28-18 56-5 20-6 28-6 37 0 21 9 24 84 27 36 1 105 1 180 0z"/></svg>