<svg xmlns="http://www.w3.org/2000/svg" width="1344" height="566"><path d="M0 283V0h1344v566H0V283m268 278c20-1 134-2 146-1 14 1 34 2 82 1 80-2 145-1 317 2 16 0 24 0 25-1 3-1 5-7 5-11 0-7-13-27-23-39-8-7-17-13-30-18-38-14-69-24-86-27-2 0-8-2-13-5-8-3-9-5-17-13-7-9-12-16-12-19 0-1 2-5 5-10s8-15 12-23 8-16 10-18c1-2 3-7 5-12 4-9 18-38 24-48s11-33 13-63c1-9 2-26 3-38 2-16 2-30 2-48 0-26 0-27-2-38-5-19-16-49-26-66-11-20-20-30-42-45-21-15-22-15-54-16-30-1-108-1-121 0-11 1-15 2-27 11-26 16-41 34-51 59-7 18-9 26-13 55-3 25-3 27-8 42-8 23-9 28-9 47 0 16 0 17 3 26 3 11 4 17 2 29-1 6-2 11-1 22 1 16 2 19 14 45 9 19 17 42 16 45-1 4-12 20-21 30-5 6-11 13-14 17-3 5-6 7-11 11-8 5-20 10-31 13-12 4-50 14-60 17-12 3-49 17-65 25-14 6-15 7-22 15-9 10-17 23-18 32 0 9 4 15 15 16 7 1 61 0 78-1z"/></svg>