<svg xmlns="http://www.w3.org/2000/svg" width="1344" height="566"><path d="M0 283V0h1344v566H0V283m488 276h110c4 1 60 1 125 1 113 0 119 0 123-1 6-3 8-7 8-21 0-22-3-31-18-45-10-10-30-26-44-35-4-3-9-6-10-7-1-2-5-4-8-6-20-12-36-29-43-47-1-4-2-7-2-8 1-4 7-13 32-45 11-15 22-30 24-33 5-8 10-20 14-36 2-8 6-19 8-25 11-27 15-52 15-84 0-51-10-78-41-108-21-20-28-24-51-27-6-1-20-3-30-5-14-3-20-4-31-5-29-1-45 3-66 18-18 11-30 23-41 40-10 17-14 29-18 62-4 24-6 30-12 38-9 11-13 23-12 42 1 17 8 32 21 41 13 10 14 11 15 16 4 12 3 34-1 39-1 1-5 4-9 6-3 2-8 5-10 6-6 4-20 16-27 23-18 17-30 24-43 26-10 2-20 5-36 12-6 3-21 8-33 12-41 14-52 19-62 29-7 7-11 15-17 30-13 32-15 39-20 56-4 18-7 32-6 35 0 3 3 6 6 7 1 1 21 1 44 0 24 0 90 0 146-1z"/></svg>