<svg xmlns="http://www.w3.org/2000/svg" width="1344" height="566"><path d="M0 283V0h1344v566H0V283m557 277c89-1 189 0 223 0h79c16-1 18-1 23-3 4-2 5-3 8-9l2-6v-25c0-33-2-50-9-63-3-7-19-23-30-31-14-10-34-24-41-29-18-11-21-13-24-17-2-2-5-6-7-9-1-2-4-7-6-10-7-11-15-28-16-34-1-5-1-6 1-13 2-6 8-20 18-45 2-5 4-10 5-12 0-1 2-7 5-12l5-10 1-21c1-11 2-27 3-36 3-33-1-64-13-93-4-11-7-16-14-24-10-13-25-25-42-31-12-6-20-7-37-7-9 0-18 0-21-1-30-6-69 13-92 46-17 25-22 43-19 80 1 20 1 31-1 40-2 7-2 20 0 27 4 14 13 26 26 33 10 7 15 11 17 18 4 12 2 26-4 37-4 6-24 27-31 32-3 1-6 4-8 5-3 3-17 9-30 14-5 2-15 4-34 9-5 2-12 4-16 5s-11 3-16 5c-18 4-29 9-34 13-9 9-18 27-40 79-4 11-13 32-19 46-19 46-19 46-13 50 3 2 21 3 33 2h168z"/></svg>