<svg xmlns="http://www.w3.org/2000/svg" width="1344" height="566"><path d="M0 283V0h1344v566H0V283m1341 279c1-2 2-7 2-168 0-91 0-167-1-170-1-5-3-5-9 0-4 4-5 6-7 13-2 5-7 16-11 25-4 8-8 17-8 20-2 8-7 20-12 26l-5 6v28c0 18 0 28-1 29-1 2-3 4-5 5-3 3-5 3-18 4-7 1-14 1-16 2-1 0-3 4-5 7-3 4-6 9-9 12-4 4-5 5-10 6-4 1-8 2-10 4-4 3-11 13-17 23-2 4-5 9-7 12-2 2-5 8-7 12-4 6-4 7-4 12 1 3 3 9 4 15 3 7 4 12 4 18 1 9 4 15 9 19 3 2 4 6 5 14 1 4 2 6 4 9 1 1 3 4 4 5s3 2 8 3c4 1 11 2 17 4 9 3 13 3 36 5 13 0 26 1 28 1 2 1 11 1 21 1 17 0 18 0 20-2z"/></svg>