<svg xmlns="http://www.w3.org/2000/svg" width="1344" height="566"><path d="M0 283V0h1344v566H0V283m988 276 27-1 3-2c4-5 5-23 0-43-3-16-4-24-5-41-1-10-1-21-2-24-2-12-2-16 0-23l1-8-3-4c-8-12-7-12-35-23-26-10-44-19-49-23-5-6-14-21-15-27-1-3-1-7-2-9-2-6-4-21-5-38-1-10-2-28-3-41s-2-34-2-46c-1-24-4-53-6-66-3-13-9-28-15-40-8-17-23-34-37-45-6-5-26-15-28-15 0 0-4-1-8-3-13-6-22-8-38-8-9 0-17 0-22 1-3 1-9 2-12 2-7 1-23 4-33 7-8 1-24 8-33 14-8 4-10 7-15 20s-6 14-16 31c-11 18-19 35-21 43-2 7-4 19-5 33-1 11-3 16-14 32-5 7-10 14-10 15-2 4-1 13 1 19 2 3 3 8 4 12 0 4 1 9 2 12 0 3 1 10 1 15 0 6 1 10 2 13s2 10 2 18c1 15 2 18 6 22 4 5 24 17 27 17 2 0 4 2 3 3 0 1-8 1-16 0-14 0-18 0-29 2s-16 2-22 2c-11-1-21 0-26 3-2 1-7 5-11 8-4 4-10 8-14 10l-6 3-5-2c-7-3-10-2-20 5-4 3-9 7-12 9-3 3-8 5-23 12-7 3-15 10-21 18-2 4-4 6-10 8l-8 4-10-1c-14-1-28-1-40 1-11 1-15 3-16 7 0 3 2 5 8 8 8 4 11 8 11 12-1 5-11 34-14 38-1 2-3 6-4 9s-4 11-7 18c-7 14-8 17-6 19 3 3 58 4 69 1 4-1 7-1 20 0 23 3 42 2 51-1 12-5 44-5 58 0 2 1 6 2 10 2 3 1 10 2 16 2 11 2 59 3 85 1 10 0 29 0 47 1 52 2 243 4 300 2z"/></svg>