<svg xmlns="http://www.w3.org/2000/svg" width="1344" height="566"><path d="M0 283V0h1344v566H0V283m1043 278c21-1 23-2 22-8-1-7-7-18-20-34-6-9-13-17-14-19-3-3-22-19-31-25-8-6-19-15-30-26-7-6-16-13-20-17-4-3-11-9-16-14-16-15-35-29-44-33-5-2-7-3-24-3s-19-1-25-3c-14-6-19-13-22-31-6-25-3-40 11-68 5-10 11-21 13-25 9-15 11-25 13-68 2-33 2-40 0-54-2-13-8-30-13-38-6-8-14-16-25-23-13-9-23-14-40-19-19-7-29-8-60-8-25 0-26 0-32 2-17 6-39 25-55 47-10 13-15 22-20 39-3 8-6 18-8 23-5 15-7 32-7 58 1 12 1 23 2 27 0 4 2 13 2 21 2 17 4 24 6 32 1 3 4 13 7 23 2 10 5 20 6 22 4 8 15 19 27 27 13 9 14 10 14 13 0 7-10 18-28 27-18 10-38 22-46 28-16 12-34 26-46 39-14 14-20 22-36 48-13 20-17 33-12 38 2 1 4 1 42 1 45 0 87-1 142-2 41-1 113-1 152 1 62 2 186 4 215 2z"/></svg>