<svg xmlns="http://www.w3.org/2000/svg" width="1344" height="566"><path d="M0 283V0h1344v566H0V283m916 278c17-1 23-3 27-7 2-1 6-4 11-6 9-5 17-10 19-13 3-3 7-16 7-23s-3-15-10-22l-4-4-15 1c-10 0-18 0-23-1-3 0-12-1-19-2-15 0-17-1-19-9-1-6-6-10-11-11-2 0-7 0-12 1-8 1-10 2-20 7-11 6-18 10-27 19-4 2-8 5-10 6-4 2-24 7-29 7-7 0-9-3-20-27-5-12-10-24-11-26-3-8-16-37-26-59-5-10-9-20-9-21-1-5 8-20 14-25 3-2 7-6 9-9 2-2 6-5 7-6 2 0 6-4 10-8s10-8 12-10c8-5 10-10 12-26 0-7 2-15 3-19 2-8 9-23 18-40 4-8 10-17 12-22 2-4 6-11 8-15 9-16 12-25 10-30-1-1-7-8-13-15-9-9-14-14-17-20-14-23-45-45-83-59-20-7-32-9-51-7-15 1-23 3-37 9-9 4-10 5-21 16-21 20-30 33-45 61-16 32-24 40-56 49-21 5-24 7-39 23-12 13-16 20-16 30-2 12-3 22-6 36-4 17-4 18 8 29s12 10-2 36c-5 9-23 49-33 72l-3 9v18c0 37 0 43-1 60 0 10-1 19-2 19-1 3-5 3-9 1-6-3-16-10-34-26-5-4-13-10-17-14-9-5-29-23-38-34-2-3-11-13-19-21l-15-16v-7c0-5 1-10 2-13s3-10 4-16c1-5 3-13 4-17 4-12 5-19 4-31-2-19-4-25-12-33-9-9-9-10-5-28 2-9 1-32-1-37s-6-6-10-4-16 14-21 20c-2 4-3 5-3 12 0 22 0 21-13 24-5 0-11 1-13 1-8 0-16 6-24 17-7 10-14 28-17 41-4 18-9 47-8 50 1 2-1 13-3 17-1 3-4 6-6 8-6 7-4 12 11 28 9 9 13 15 14 25 1 11 5 23 8 28 4 8 26 28 39 36 19 11 39 14 81 10 15-1 21-1 30 0 18 2 46 3 61 3 16 0 24 1 30 4 2 1 8 3 12 3 12 1 197 2 207 1 6-1 32-1 78 0 38 1 88 1 110 1s42 1 44 1c8 1 14 1 32 0z"/></svg>