<svg xmlns="http://www.w3.org/2000/svg" width="1344" height="566"><path d="M0 283V0h1344v566H0V283m582 277h112c91 1 121 0 173 0 24-1 46-1 47-1 29 1 40 1 67 0 17-1 33-2 35-2 2-1 4-2 5-5 2-5 1-18-2-32-4-21-5-27-5-38 0-5-1-16-2-24-2-19-2-24 0-30s1-8-5-16c-5-5-7-7-12-9-4-2-7-3-8-3-3 0-22-8-35-14-5-3-13-6-17-8-6-3-9-6-13-9-5-6-10-14-11-19-1-1-2-5-3-8-3-6-5-21-6-32 0-4-1-20-2-35 0-15-1-36-2-47-1-12-1-27-2-33-1-34-8-66-17-87-14-33-33-51-73-68-26-11-33-12-53-9-38 6-46 7-57 11-25 7-33 14-38 31-3 7-6 14-14 25-18 24-28 42-31 62-6 26-5 23-21 55l-7 13v9c1 5 2 10 2 13 2 3 2 10 3 23 0 10 1 21 1 24 1 3 2 12 2 19 3 21 6 27 20 33 4 1 11 3 17 4 7 0 12 2 13 3 2 2 1 5-5 11-6 7-13 10-21 10-4 0-5 0-10-6l-5-5h-5c-3 1-8 2-11 3-4 1-8 1-23 2-24 0-22-1-28 4-2 2-7 7-11 10-8 6-12 9-17 12l-4 2-5-2-4-2-3 2c-1 1-4 2-6 3-2 0-7 3-11 6-5 3-12 7-16 9-13 6-18 10-26 19-6 7-8 8-15 12l-9 4-20-1h-22l-5 3c-7 4-8 7-4 12 4 4 4 8 4 16-1 4-1 11-2 16 0 5-2 11-2 13-2 3-2 6-1 9 0 4 0 5-2 8-4 4-4 5 0 10 2 2 4 5 4 5 0 3 5 6 11 7 18 2 25 3 39 4 11 1 19 2 24 3 8 2 10 2 24 2 9-1 19-1 23-1 20 0 36 1 46 2 15 2 40 3 47 2h10z"/></svg>