<svg xmlns="http://www.w3.org/2000/svg" width="1344" height="566"><path d="M0 283V0h1344v566H0V283m463 276c4-2 5-7 5-19 1-5 1-10 1-11 2-2 4-1 11 2 7 2 7 2 11 1 1-1 4-2 6-2 1 0 3-1 4-2 2 0 5-1 8-1 5 0 6-1 10-8 2-4 3-9 1-12-1-3-15-19-22-26-3-3-5-5-5-6l-4-4c-3-2-5-3-9-3-2 0-5 0-6-1-3-2-5-7-5-14s5-32 9-41c2-5 3-34 1-39-3-11-9-26-14-37-6-11-7-13-14-21-5-4-12-10-16-14-9-7-10-10-7-14 1-2 5-8 8-13 4-9 5-11 10-14 4-2 7-5 8-7 2-3 4-12 5-27 2-11 2-14 0-19 0-4-2-15-2-27-2-17-2-20-4-25-4-7-9-12-21-18-10-5-20-8-34-10-9-1-11-1-19 1-18 4-30 13-36 25-3 7-6 20-7 31-3 25-4 55-5 84l-1 34-4 8c-7 15-14 31-14 35-1 3-2 7-3 10s-2 7-2 8-1 4-2 7c-1 2-1 10-2 20 0 10-2 23-4 32-1 9-2 19-3 24 0 10 2 32 6 46 3 9 3 13 4 32 1 24 2 26 8 29 5 2 5 2 9 1 2-1 6-1 9-1 5 0 5 0 9 4l4 3 15 1h58c36 0 43 0 45-2m875-1c2-2 3-4 4-12V236l-5-9c-3-5-8-12-10-15-4-4-4-5-14-8-16-5-22-13-26-30-2-10-1-18 1-31 3-13 5-24 6-46 1-10 2-19 3-23s1-8 1-16c-1-12-2-15-6-17-5-1-31-3-51-3-17 0-18 0-33 3-18 5-24 7-28 12-4 4-11 17-15 24-2 5-2 6-2 23 1 18 3 39 5 54 3 14 13 44 18 48 1 1 6 4 11 6 7 3 9 4 11 7 5 8 1 17-15 33-13 14-20 25-22 37-1 4-3 10-4 12 0 2-2 8-3 12-2 6-5 17-12 37 0 3-2 10-2 16s-2 23-3 38c-2 27-3 32-5 42-2 6-3 8-11 17-11 14-25 25-30 25-3 0-25-8-39-13-6-3-10-4-12-1-4 3-2 9 5 15l6 6c3 6-2 14-16 23-3 3-6 5-6 6-2 3 1 6 6 8 4 2 5 3 6 6 1 2 2 5 2 7 0 4 2 5 8 3 3-1 6-2 7-2 2 0 7 4 10 9 2 2 2 3 15 3 7 0 13 1 14 1 2 2 17 5 21 5 2 0 13-1 24-2 18-2 20-2 24 0 8 2 53 4 110 4h49l3-4m-622 2c8 1 19 0 40-1 14-1 28-1 38-1 10 1 38 1 62 1 43 0 45 0 47-1 4-4 5-7 5-20 0-7 0-15-1-18-1-4-1-26-2-50-1-51 0-70 7-126 4-31 4-40-1-58-2-7-5-16-5-21-1-5-3-13-4-18-3-20-12-41-24-57-8-10-9-13-9-23 0-6 0-7-2-9-2 0-6-2-9-2s-7-2-9-2c-3-3-8-10-12-17-3-7-4-24-1-42 1-7 1-17 1-27l1-14-4-8c-5-10-11-17-20-23-10-7-14-9-23-11-15-4-30-2-49 7-13 7-21 13-27 21-5 6-6 12-5 24 0 9 0 12-2 19-2 8-2 10-1 15 1 6 1 12-1 28 0 6 0 7 3 11 2 2 6 9 9 14 6 11 15 23 18 26 2 0 7 2 11 3 10 2 15 4 16 7 2 4 0 11-4 18-6 8-11 17-12 22 0 5-7 26-14 49-4 9-8 26-10 36-2 9-5 24-7 32s-4 18-5 22c-2 6-7 26-11 45 0 3-2 11-4 16-2 6-4 16-6 23-2 8-4 21-6 30-2 8-5 19-6 23 0 5-1 9-2 9-1 3-7 33-7 39 0 5 0 6 2 8s3 2 21 1h24z"/></svg>