<svg xmlns="http://www.w3.org/2000/svg" width="1344" height="566"><path d="M0 283V0h1344v566H0V283m394 278c21 0 41 0 44-1h28c14 1 54 1 89 0 49 0 69 0 81 1 19 1 94 1 97 0 4-1 5-4 6-19v-14l-6-7c-3-4-7-10-9-13-2-6-4-7-9-5-6 2-14 1-19-4-3-2-9-5-15-7-6-3-15-7-20-10-20-12-31-18-44-24-10-5-16-9-19-12l-5-5v-5c1-3 2-11 4-17 4-18 7-20 28-20 15 0 35-6 43-14 8-7 8-8 9-35 0-12 1-23 1-24 1-1 1-8 2-16 1-7 2-20 3-28 3-17 3-43 1-55-1-5-2-14-3-20s-2-13-2-15c-1-2-1-19-1-37-1-61-5-75-25-90-10-9-14-10-64-32-12-6-25-10-39-14-8-2-14-2-27-3-20 0-29 1-47 8-7 3-12 5-13 5 0 0-4 2-9 5s-12 6-16 7c-9 4-24 10-30 13-8 4-17 19-23 37-12 36-17 52-19 63 0 6-2 15-2 20-2 12-4 25-5 34 0 4-1 15-3 25-2 19-3 21-6 51-3 19-5 39-7 68-1 7-2 21-3 32-1 10-3 27-4 38-3 43-2 40-24 60-17 16-30 27-45 38-14 11-20 17-23 24s-4 12-1 14c1 2 6 3 13 4 1 1 24 1 51 0 27 0 66 0 87-1z"/></svg>