<svg xmlns="http://www.w3.org/2000/svg" width="1344" height="566"><path d="M0 283V0h1344v566H0V283m1154 276c2-1 3-3 4-5 1-4-1-12-5-22-1-6-4-13-5-16-3-10-16-34-21-41-6-8-29-33-37-40-8-8-27-18-56-30-27-13-70-34-71-36-2-4 2-20 7-31 1-2 3-7 3-12 1-4 3-10 6-14 2-3 6-11 8-17 3-5 7-11 8-13 4-6 5-10 6-35 1-26 1-26 6-40s5-18-2-40c-8-29-8-27-5-57 1-14 0-21-7-31-8-12-26-29-36-35-3-2-10-5-17-7-6-3-13-5-14-6s-8-3-15-5c-6-1-14-4-17-5-7-4-13-5-18-3-3 2-8 2-24 2-33 0-47 3-58 15l-16 16c-20 19-27 28-32 43-4 12-7 47-4 62 1 4 3 16 6 27 9 36 13 65 13 89 0 13 0 16-3 26-2 7-4 14-5 15s-5 4-10 7c-8 4-11 6-21 13-6 6-34 23-42 27-9 4-23 9-27 10-3 1-9 3-14 5-10 4-46 19-59 25-5 3-12 6-16 7-12 5-33 17-43 24-11 7-31 26-39 37-6 9-14 23-20 36-6 14-14 39-15 45 0 5 0 6 2 8l3 3 24-1h168c134-1 153-1 178 0h141c78 0 118 0 119 1 2 1 14 1 36 1 28-1 33-1 36-2z"/></svg>