<svg xmlns="http://www.w3.org/2000/svg" width="1344" height="566"><path d="M0 283V0h1344v566H0V283m958 277c22 0 60 0 84-1 56 0 78-2 82-7s-1-22-10-32c-4-5-13-13-23-20-11-7-21-17-34-31-13-15-12-15-43-35-25-17-38-30-49-51-3-6-6-11-7-13-7-9-10-13-12-16-2-5-15-17-20-18-2-1-5-3-7-4s-3-2-4-2-11-8-12-10c-2-7-2-21 2-30 3-7 7-11 18-17 8-4 20-15 23-20 0-1 2-6 3-11 2-6 2-12 3-36 0-16 1-31 2-34s1-13 1-22c0-17-3-36-7-48-2-6-10-24-12-29-13-21-32-40-57-55-14-8-19-9-41-10-36-1-49 0-88 5-24 4-45 12-59 25-9 9-27 35-33 50-5 10-7 24-8 44 0 17 0 22 2 38 2 12 5 27 8 38s5 22 6 24c2 16 10 41 30 90 9 24 15 36 22 45 6 8 7 9 5 11-2 1-14 6-33 14-17 7-42 19-50 24-11 8-19 18-18 23 1 1 3 4 5 6 23 21 34 33 41 44l7 7c9 5 10 7 10 12s1 8 5 17c3 6 6 13 8 14 1 1 3 5 4 7 2 6 5 7 17 10 10 2 62 4 97 4 20 0 58 1 59 2h21c11-1 39-1 62-2z"/></svg>