<svg xmlns="http://www.w3.org/2000/svg" width="1344" height="566"><path d="M0 283V0h1344v566H0V283m889 274c7-5 11-24 10-43 0-7 0-14 1-20 2-11 2-17-1-29-1-5-2-13-3-17 0-4-1-10-2-13-3-9-6-24-6-28 0-8-6-35-10-49-1-2-2-7-3-10-1-4-2-9-4-12-2-7-7-26-8-33s-6-19-12-33c-11-22-29-42-41-47-13-4-19-8-23-18-1-4-1-23 0-29 3-7 4-26 4-35-2-16-7-27-19-38-12-12-23-16-42-15-10 1-12 1-21 5-5 2-11 4-14 5-6 2-9 4-22 18-16 17-22 30-22 45 0 7 1 12 5 16 3 3 4 5 7 22 2 12 2 15-4 23-6 7-9 14-10 19-2 6-7 18-16 36-4 10-10 21-12 25-2 5-6 11-8 13-2 3-8 11-14 18-8 11-14 17-24 25-7 6-17 16-23 22-12 11-22 18-27 19-3 0-5-1-13-5-9-4-12-5-21-7-6-1-19-2-30-3-21 0-26 0-28 4-4 5-1 14 6 20 5 5 4 7-2 11-4 2-7 3-11 3-7 0-9 2-9 10s3 15 10 21c6 6 12 7 27 7 8 0 33-4 36-5 1-1 29-6 44-8 17-3 26 4 36 24 5 10 6 11 13 15l7 5 6-3c5-3 6-3 14-3 6 0 9 0 13 2 4 1 6 2 9 2 2-1 6-1 8-2 4 0 5 0 7 2s3 6 1 13c-2 6-2 20 0 23 0 1 6 7 12 14 7 8 12 13 14 14s9 2 15 2c6 1 15 2 20 2 5 1 21 1 47 1 21-1 46 0 56 0 9 0 29 1 45 1 28 0 29 0 32-2z"/></svg>