<svg xmlns="http://www.w3.org/2000/svg" width="1344" height="566"><path d="M0 283V0h1344v566H0V283m694 183c3-2 9-8 11-12 1-1 2-7 2-12 1-14 3-24 5-29 0-2 1-8 2-13s1-9 1-10c1-1 1-6 2-12 2-15 7-25 26-44 14-15 18-24 19-40 1-12 4-21 7-26 5-8 9-19 11-32 1-11 1-14 0-25-1-13-1-15-7-24-1-2-3-5-3-7 0-3-2-8-2-12-1-5-3-13-4-18-5-21-10-28-23-29-6 0-7 0-14 5-9 6-10 7-15 22-2 7-3 10-3 17 0 10-2 13-9 15-2 1-6 3-8 5-3 2-7 6-10 8-4 2-9 7-13 11-5 5-8 6-13 8-12 4-16 6-23 13-4 4-8 7-10 8-6 1-9 2-11 5-3 3-2 6 2 11 3 4 4 4 13 6 12 1 12 1 15-2 6-6 20-11 31-11 2 0 7-2 13-5 8-4 9-4 11-3 1 2 8 20 8 24 0 3-4 7-8 8-5 2-10 5-14 11-4 4-4 4-3 6 2 1 2 2 1 4 0 1-2 13-3 27-1 18-3 26-4 31-2 8-2 10 1 11 5 1 10-6 11-13 1-3 2-8 3-11 2-5 3-7 11-14 7-6 9-7 10-6 3 2 2 6-9 28-4 8-8 17-9 21-2 7-3 21-5 46 0 21-1 26-7 37-3 6-5 11-5 12 0 4 4 8 9 9 5 2 7 2 10 1z"/></svg>