<svg xmlns="http://www.w3.org/2000/svg" width="1344" height="566"><path d="M0 283V0h1344v566H0V283m356 276c7-1 73-1 151-1 108 0 155 0 215 1 96 3 102 2 105-7 2-6-1-24-7-46-5-20-9-27-23-40-10-9-42-30-62-41-11-6-26-17-30-20-3-4-5-7-19-30-15-25-16-25-2-51 5-9 11-23 15-30 3-8 8-20 12-27 11-21 13-31 15-61 1-10 1-25 2-33 1-18 1-51-1-65-3-13-9-36-14-46-5-9-11-18-17-24-8-9-30-26-38-30-7-3-9-3-21-4-16-1-102 0-113 1-10 1-15 4-27 14-11 9-17 16-26 29-18 26-22 45-20 83 1 23 1 37 0 41-5 13-6 16-7 24 0 10 2 26 6 36 3 8 9 17 17 25 8 9 22 27 25 34 1 3 3 8 3 11 0 6-1 7-22 29-27 28-38 36-57 42-6 2-16 6-24 9-7 2-18 6-24 8-27 8-47 16-56 21-13 6-21 16-26 27-1 4-6 14-10 22-11 27-18 44-29 72-8 24-7 27 12 28 15 1 82 0 97-1z"/></svg>