<svg xmlns="http://www.w3.org/2000/svg" width="1344" height="566"><path d="M0 283V0h1344v566H0V283m744 279c3-1 8-3 12-4 10-5 14-13 9-19-2-2-3-4-3-9-1-8-2-16-5-26-2-8-2-10-1-27 1-21 2-38 5-57 1-16 1-48 0-57-2-11-7-25-14-41-7-13-12-21-23-34-12-13-15-17-15-21 0-2 2-9 4-17 14-43 16-51 15-77-2-33-4-48-10-67-7-25-23-42-58-60-12-7-21-10-35-14-15-4-28-4-48-1-36 5-59 14-73 27-17 16-29 42-32 72-2 8-6 30-7 34l-6 6c-2 2-5 5-6 7-1 4-1 5 0 22 2 21 2 37 1 43-3 9-16 17-48 30-30 12-69 34-90 50-3 2-7 5-8 6-6 4-39 37-45 46-13 16-27 37-29 44-1 1-3 8-6 16-8 24-9 28-10 54-1 28 1 60 5 66 2 5 3 6 31 5 15 0 37 0 50-1 13 0 59-1 102 0 70 0 103 1 167 4 9 0 44 1 78 1 35 0 63 0 63 1 1 1 25-1 30-2z"/></svg>