<svg xmlns="http://www.w3.org/2000/svg" width="1344" height="566"><path d="M0 283V0h1344v566H0V283m763 250c4 0 10-2 12-3 5-1 13-3 21-5 4-1 10-2 14-3 3-1 11-3 16-4s12-3 16-4c5-2 12-4 24-6 3-1 11-3 17-5 11-3 12-3 29-3 13 0 21 0 26 1 10 3 10 2 11-12 0-12-1-35-3-40-1-3-3-24-6-49 0-4-1-9-2-11-3-6-8-8-36-16-8-2-17-4-20-6-6-3-7-6-6-21 0-11 0-12-2-14-1-2-4-3-6-4-4-1-7-4-7-8 0-2 3-4 7-6 2 0 3-1 4-2s1-1-12-32c-5-13-8-21-9-27-1-3-5-12-8-22-4-9-9-23-12-31-3-9-7-19-9-24-4-11-6-16-7-22-2-7-5-12-16-28-4-6-18-21-25-27-11-8-27-16-51-24-16-5-26-5-53 2-7 2-18 4-26 6-16 4-24 8-34 17-7 6-8 8-14 20-6 14-13 33-16 46s-4 72-3 121l1 27-2 3c-3 3-10 7-25 15-8 5-20 12-24 16-4 3-12 17-12 21 0 1-1 4-3 6-4 8-12 12-19 9-3-1-4-1-8 1-7 6-16 10-25 13-5 2-12 4-15 6-5 2-15 11-18 15-2 5-16 11-27 12-4 0-8 1-10 2-3 2-6 6-8 11-1 3-3 8-4 11-3 5-7 17-12 33-3 9-3 16 0 18 3 3 10 4 15 3 2-1 8-1 13-2 6 0 12-1 13-2 1 0 6-2 10-2 4-1 9-3 11-4 5-1 10-1 15 0 3 1 6 1 14 0 11-2 12-2 23-1 6 0 10 0 17-2 4 0 10-1 12-1 19 3 26 4 31 6 4 2 9 3 12 4 2 1 7 2 9 3 3 0 9 1 15 1h41c24 0 33 0 38 1 4 1 13 2 21 3 24 1 40 5 52 16 10 7 17 8 35 4z"/></svg>