<svg xmlns="http://www.w3.org/2000/svg" width="1344" height="566"><path d="M0 283V0h1344v566H0V283m538 277c3-1 10-1 16-1 91 1 193 0 243-2 29-1 50-1 92 2 29 2 52 2 77 1 13-1 25-1 26-2 5-1 1-7-10-15-10-7-43-37-48-43-3-4-10-11-15-16-7-8-9-12-10-16-3-9-6-13-31-36-11-10-26-28-31-38-7-13-8-19-10-52-1-38-1-37-16-90-12-43-11-39-11-60 1-17 1-18-2-33-2-9-4-19-5-23-2-5-3-11-3-13-2-7-8-27-13-37-3-7-6-10-13-18-8-9-10-10-20-15-14-8-35-15-48-16-25-4-37-3-49 2-4 2-10 4-14 5-4 0-10 3-15 5-5 3-11 6-14 6-5 2-7 3-9 7-2 2-6 7-9 9-5 5-7 7-13 19-9 18-11 25-12 46 0 11 0 19 2 30 1 14 1 18 0 26-2 20 2 33 17 52 4 5 7 15 7 23 0 9-2 22-5 29-2 5-2 7-2 12 2 10-4 18-14 20-8 1-15 8-26 28-4 8-13 17-26 27-9 7-13 8-22 8-6 0-9 0-13 2-4 3-7 4-25 9-4 1-12 3-20 3-8 1-13 2-16 3-4 2-26 19-31 25-3 2-9 13-18 27-6 12-10 21-14 32-3 7-5 13-8 17l-4 6 1 4c1 2 2 5 2 7-1 10 0 14 3 18 2 2 5 5 6 7s4 4 7 6c4 2 5 2 14 2 5 0 14 1 20 2 8 1 21 1 68 0 33 0 61 0 64-1m-225-8c4-4 5-6 8-14 2-5 4-11 4-12 1-2 1-7 1-10 1-7 3-18 7-29 1-2 4-9 6-16 3-7 6-16 8-19 6-16 23-47 33-61 5-6 9-12 9-14 1-2 1-5-2-13-2-8-2-12-3-27 0-17 0-17 2-20 3-2 7-3 10-1 2 1 6 2 18 4 6 1 8 0 13-7l5-5-1-7c0-4-1-8-2-9-1-2-1-5 0-9 0-5 0-6-3-10-2-3-6-7-10-10-7-5-8-6-6-12 2-9-1-11-14-9-8 1-10 2-13 4-2 2-4 5-5 7-2 1-4 6-7 9-2 4-5 9-7 13-1 3-3 8-5 11s-4 6-4 7c0 2-1 4-2 7 0 2-2 6-2 9-1 3-2 7-3 9s-3 10-4 19c-3 14-5 23-9 29-5 11-30 46-44 62-16 20-25 32-28 38-2 4-6 9-8 12-2 4-5 9-7 12-2 4-4 7-4 8-1 1-5 8-9 16-4 7-8 14-8 15-3 4-11 18-11 20 0 1 1 3 3 4 3 2 5 2 20 2h18c0 1 12 1 26 1h26l4-4z"/></svg>