<svg xmlns="http://www.w3.org/2000/svg" width="1344" height="566"><path d="M0 283V0h1344v566H0V283m833 275c66-1 83-1 187 1 29 1 56 1 69 0 21-1 22-1 25-3 3-3 2-3 0-10-3-8-17-28-32-44-11-13-31-28-54-42-5-2-12-6-16-9-3-3-9-6-12-7-2-2-9-7-14-11-14-11-27-20-31-20-5-1-20-8-23-10-5-4-17-16-28-28s-17-16-29-17c-4 0-9-1-10-2-6-3-8-13-4-27 3-7 3-9 7-11 5-4 16-17 21-23 6-8 13-23 15-31 2-11 1-14-7-22-6-7-6-7-6-12 0-3 1-12 2-21 3-25 5-49 6-72 0-12 0-23 1-25 2-4 1-13-1-19-6-19-27-46-44-58-9-6-25-14-41-19l-12-3h-20c-20 0-21 0-30 2-6 2-14 4-18 5-10 3-17 6-31 15-6 3-16 9-22 13-17 10-31 25-39 44-11 22-14 31-18 68-1 6-3 16-4 22-1 7-2 14-2 17-1 7 1 46 4 64 1 8 2 20 3 27 2 26 8 47 23 75 12 25 15 32 12 37-1 2-13 11-19 15-2 2-16 8-31 15-4 1-12 4-18 6-22 8-47 22-73 42-12 10-22 19-30 30-5 8-21 38-21 41s4 6 10 7c3 1 24 1 54 0 27 0 52 0 56 1 8 1 160 0 245-1z"/></svg>