<svg xmlns="http://www.w3.org/2000/svg" width="1344" height="566"><path d="M0 283V0h1344v566H0V283m499 276c5-2 7-2 17-2 6 1 13 2 17 3s9 1 14 0c8 0 26-5 32-8 2-1 5-2 7-2 5-1 13-7 12-8 0-1-1-1-2-1-3 2-13-6-13-9 0-5 15-20 19-20 1 0 3 1 5 3s4 3 6 3c1 0 6-2 11-5 6-4 10-7 19-17 13-13 17-19 28-43 3-7 9-17 11-21 13-19 20-38 25-60 3-16 4-21 2-23s-4-1-11 3c-11 7-16 9-18 7-1-1-1-3 2-12 2-5 4-13 4-17 1-4 2-11 3-15s2-11 3-15c0-7 0-7-2-10-1-1-4-3-6-3-5-1-11 0-19 6-7 6-19 12-22 12s-5-2-10-10c-6-10-10-12-39-28-15-8-20-12-20-15 0-4 3-8 13-19 19-22 21-28 23-48 1-16 3-36 6-48 2-16 1-38-3-47s-19-24-38-36c-12-8-19-10-41-9-18 0-25 1-36 7-10 4-22 18-29 31-10 20-19 59-22 92-2 17-2 49 0 58 3 17 4 14-9 26-6 6-15 13-18 16-10 7-10 8-15 20-5 9-5 10-5 18 0 4 0 10 1 13 2 9 4 39 5 64 1 26 3 62 5 71 0 4 1 12 1 19 1 12 2 14 8 37 1 4 3 11 3 17 2 12 3 15 8 20 5 4 9 5 29 6 30 1 32 1 39-1z"/></svg>