<svg xmlns="http://www.w3.org/2000/svg" width="1344" height="566"><path d="M0 283V0h1344v566H0V283m811 277c3-1 4-3 5-5v-19c-1-18-4-44-9-65-3-18-4-29-1-43 1-6 3-13 3-15 1-2 3-7 4-11 3-13 6-22 9-31 2-4 4-13 6-20 3-12 3-14 3-30v-17l-4-12c-5-15-7-25-5-39 2-22 2-27 1-34l-1-8 4-6c2-4 5-8 5-10 1-5 0-19-3-33-1-5-2-10-2-12 0-6-7-32-11-38-5-10-16-17-25-17-17 0-29 3-36 11-7 6-8 10-9 34-1 23-2 25-7 27-10 2-15 6-20 16-3 7-11 38-13 50-1 10-5 21-9 27-5 9-9 14-11 14-1 1-5-1-10-3-9-5-16-6-25-4-11 2-12 6-2 15 3 4 8 8 11 9 5 2 6 3 11 13 6 13 8 14 15 14 5-1 16-4 23-9 5-2 5-2 18-1 9 1 14 2 15 3 4 3 3 29 0 37-3 5-2 11 0 13 1 1 4 2 6 3 5 2 6 2 14-4 5-3 10-5 14-3s10 6 13 11c6 8 3 16-16 48-7 11-12 22-16 30l-5 13 1 16c0 18-1 26-4 37-5 15-6 19-6 23 1 6 5 11 8 12 1 0 5-2 10-4 6-3 10-4 13-4 4 0 5 1 10 5 3 3 6 7 7 9 3 6 4 6 17 8 0 0 3-1 4-1z"/></svg>