<svg xmlns="http://www.w3.org/2000/svg" width="1344" height="566"><path d="M0 283V0h1344v566H0V283m716 277c1 0 6-1 9-2 12-1 14-5 11-22-2-13-1-20 3-29 2-3 3-7 3-7l-5-5c-3-2-5-4-9-11-2-5-5-14-8-20-2-5-6-15-9-21l-6-11v-9c0-6 0-10-1-12s-6-6-13-8c-3-1-15-6-25-10-29-12-40-16-46-18-3-1-8-3-12-4-3-2-8-4-12-5-11-4-19-9-21-12-4-7-2-25 7-48 10-31 12-42 10-62-4-40-6-51-12-76-10-37-24-73-38-94-7-11-27-30-38-38-19-12-39-18-68-18-13 0-17 1-29 8-4 2-13 7-21 12-29 15-35 21-46 44-13 27-18 50-26 117-3 18-4 29-7 68-1 7-1 29-1 48 0 30 0 36 1 46 2 12 2 12 0 15s-5 5-23 12c-13 5-16 6-37 20-12 9-27 18-33 21s-12 6-13 7c-4 4-6 9-6 15s-3 19-8 34c-2 5-4 12-4 14-1 2-2 10-4 17-6 24-6 38-1 43l2 2h52c30-1 57-1 62-2 8-1 13-1 18 0 16 2 398 4 404 1z"/></svg>