<svg xmlns="http://www.w3.org/2000/svg" width="1344" height="566"><path d="M0 283V0h1344v566H0V283m482 131c3-1 8-2 10-3 2 0 11-4 20-8 8-4 15-7 16-7s3-2 5-3c7-5 11-7 13-6 2 2 1 4-1 5-5 3 1 8 9 8 6 0 19 1 29 3 8 2 36 5 42 5 14 0 66 1 71 2 3 1 11 1 18 2 12 1 13 1 34-2 31-6 30-5 48-10 37-10 43-12 62-13 11-1 15-2 16-3 4-3 5-14 2-30 0-4-1-11-1-13 0-3-2-10-4-16-2-9-5-22-5-29 0-2-7-10-12-12-5-3-10-8-10-11-2-10-2-11 2-15 5-6 5-6 2-12 0-3-3-12-5-20-1-8-5-21-7-28-1-7-4-19-5-26-3-14-5-20-12-35-8-18-20-35-32-43-8-6-28-16-37-19-5-2-8-2-18-2-11 0-14 0-30 4-27 7-38 14-47 28-12 18-16 35-18 69-1 10-2 23-2 28-1 4-2 14-3 20 0 13-2 22-5 24-1 0-4 1-7 1-7 0-17 3-22 8-3 2-8 6-11 8-9 6-14 13-20 25-7 13-12 20-16 23-2 1-6 5-9 8-4 5-8 8-14 11-17 8-29 12-40 14-7 1-13 1-15 2-2 0-4 1-6 3-4 4-26 55-26 60 0 4 3 4 15 5 7 0 14 1 17 1 2 0 6-1 9-1z"/></svg>