<svg xmlns="http://www.w3.org/2000/svg" width="1344" height="566"><path d="M0 283V0h1344v566H0V283m763 279c14-1 64-1 111-1 48-1 102-1 122-2 29-1 43-1 76 0 72 2 105 2 123 0s20-2 20-8-3-17-8-25c-12-23-16-29-25-39-11-10-20-16-46-28-10-5-21-10-25-13-16-9-33-19-35-21-1-1-6-4-10-6-6-3-9-5-23-20-10-10-17-17-20-18-4-2-3-2-31 0-10 0-12 0-15-6-2-4-6-16-6-23-1-6 0-10 8-22 2-4 5-8 6-11 2-5 4-16 4-27 1-13 2-16 15-48 17-44 21-55 24-80 1-17 1-34-1-43-3-11-7-19-12-24-2-3-6-8-7-11-2-4-5-6-9-9-5-3-8-7-10-13-1-4-5-8-9-10-2-1-6-1-13 0-8 2-12 0-20-9-8-10-10-11-23-12-6 0-14-1-19-1-5-2-10-2-13-2-2 1-15 1-28 2-32 1-38 2-63 12-22 9-30 14-45 28-9 10-14 16-17 22-11 17-11 17-15 44-2 11-7 30-14 52l-5 20v72c1 19 1 33 2 38 3 19 7 33 10 42 2 6 5 16 7 22s3 12 4 13c0 1 1 5 2 9 2 12 6 22 10 27 1 2 6 6 9 8 7 5 8 6 8 9-2 3-8 7-29 17-29 14-45 23-53 31-5 4-15 11-17 11s-4 4-6 9c-2 7-7 14-11 18-1 1-3 5-5 7-2 6-2 11 1 15 2 2 2 3 38 3 20 0 36 1 37 1 1 1 21 1 51 0z"/></svg>