<svg xmlns="http://www.w3.org/2000/svg" width="1344" height="566"><path d="M0 283V0h1344v566H0V283m976 277c4-2 6-6 6-13 0-8-3-16-10-32-7-14-11-26-16-47-3-12-3-16-4-36-1-13-1-38-1-55 0-32-1-50-6-87-3-29-9-51-17-67-7-14-7-17-2-26 8-12 18-33 22-47 5-18 6-26 4-35-3-17-10-26-24-32-7-3-8-3-21-3-15-1-23 1-34 7s-15 11-19 23c-5 14-7 17-15 28-6 10-10 14-13 15-20 4-21 4-27 9-10 8-18 13-33 21-22 12-28 17-36 29-4 5-4 7-5 16-1 13-2 18-7 31-9 25-10 29-12 35 0 4-3 16-6 26-6 24-8 37-9 68-1 24-2 30-7 44-3 12-5 19-8 45-3 22-3 26-3 48 1 31 1 31 17 34 13 2 227 2 231 0 5-2 7-6 8-12 0-6 2-9 4-8 1 1 4 4 6 9 5 9 6 10 12 12 5 2 21 2 25 0z"/></svg>