<svg xmlns="http://www.w3.org/2000/svg" width="1344" height="566"><path d="M0 283V0h1344v566H0V283m889 277 6-6c1-3 4-5 5-5 0 0 4 2 6 5 3 3 7 6 9 7h18l16 1 3-3 2-3-1-11c-1-5-2-12-2-13-2-6-5-29-5-36 0-4 0-7 1-8 1 0 4-1 10 0 9 0 9 0 12-3 2-2 3-4 3-6 1-15 0-65-1-69-2-8-8-17-17-24-15-11-25-16-54-22-18-3-18-3-18-20-1-15-2-18-6-22-10-12-31-8-39 7-3 6-3 18 1 32 1 7 2 13 2 15-1 1-3 4-5 6-5 7-8 12-10 18-1 3-2 17-2 31-1 14-1 27-1 28 0 3 0 4 3 4 4 2 6 4 7 8s1 6 0 11c-1 4-1 10-1 15 1 22 0 27-2 33-3 8-4 17-2 21 3 6 13 9 34 10 17 1 24 0 28-1z"/></svg>