<svg xmlns="http://www.w3.org/2000/svg" width="1344" height="566"><path d="M0 283V0h1344v566H0V283m670 279c3-1 27-1 58-1 49 0 91-1 155-3 14-1 40-1 58-1s52 0 76-1c30-1 47-1 61 0 10 1 37 1 61 2h42l2-2c2-2 2-5-1-14-1-5-17-35-25-50-6-11-26-40-33-50-15-18-42-41-58-50-12-6-19-8-39-14-10-3-27-8-38-12-26-9-37-12-51-15-13-3-14-4-46-20-17-9-24-11-33-11-10 0-15-5-22-19-13-31-17-56-11-80 1-4 3-10 4-14 3-14 4-26 3-41-1-7-2-19-3-28-1-25-6-48-14-65-2-6-4-8-11-14-5-4-11-10-14-13-16-17-20-20-37-21-6 0-13-1-17-2-7-2-36-3-45-1-3 1-12 1-20 2-15 1-24 3-31 8-2 1-10 5-17 9-13 7-14 7-20 15-7 9-13 20-16 30-2 8-2 10-2 58v50l4 17c10 41 17 56 50 106 17 24 24 33 34 40 7 4 8 5 8 8 0 4 0 5-8 12-9 8-17 14-29 20-25 12-54 27-62 32-5 3-12 7-15 8-12 7-32 22-50 40-10 9-20 18-23 20-8 5-13 13-15 25-1 4-3 12-5 18-3 12-4 15-1 17 5 5 12 5 64 6 58 1 126 0 132-1z"/></svg>