<svg xmlns="http://www.w3.org/2000/svg" width="1344" height="566"><path d="M0 283V0h1344v566H0V283m788 276c20-1 26-1 28-3 4-2 7-11 14-35 2-7 4-10 7-9 1 1 8 6 16 13 15 12 28 23 35 26 10 5 11 5 84 7 38 0 72 1 74 2 3 0 23 0 43-1 33-1 39-1 40-3 1-1 0-2-10-12s-11-11-15-20c-3-5-5-11-6-13-5-19-26-38-54-46-5-2-9-3-10-3l-6-2c-6-2-15-8-33-21-9-7-24-16-35-22-5-3-13-8-17-10-8-7-31-28-38-36-6-7-6-7-10-20-7-29-7-26-6-76 1-43 1-45-1-58-1-7-3-22-4-31-7-62-9-69-23-86-8-9-15-15-22-17-3 0-11-2-17-4-20-5-29-6-42-6-10 0-13 0-24 3-6 2-15 5-20 6-4 1-10 3-14 5-12 6-25 21-39 48-9 15-18 30-20 35-17 22-33 40-57 61-18 15-33 30-35 34-5 10-5 22-1 31 2 2 3 8 4 12 2 8 8 21 11 23 1 1 4 3 7 4s7 2 8 3c2 1 11 9 12 11 2 2-2 7-12 19-13 14-23 27-39 48-24 32-37 51-41 56-5 11-12 39-18 74l-1 7 2 3 3 2 32 1c59 1 224 1 250 0z"/></svg>