<svg xmlns="http://www.w3.org/2000/svg" width="1344" height="566"><path d="M0 283V0h1344v566H0V283m968 276c9-5 12-7 15-13 5-11 9-32 7-44-2-13-9-27-20-42-9-12-18-27-25-39-4-6-9-15-12-20-3-4-5-9-6-10 0-2-3-6-6-11s-8-14-12-20c-9-17-11-19-21-29-13-14-15-18-18-44-1-5-2-13-3-17-2-6-2-13-3-30-3-74-2-68-9-82-3-7-3-8-4-21 0-14-1-24-4-33-1-4-2-5-6-8-2-2-7-7-10-12-10-12-10-13-13-15-9-4-38 8-53 21-4 3-9 12-9 16 0 0-2 5-4 9l-4 8 1 11c1 10 1 12 0 17-3 9-4 11-10 12-2 1-7 4-10 5-9 6-19 9-31 9-10 0-11 0-14-2-7-5-10-13-11-34-1-36-10-67-24-86-9-11-23-21-41-27-8-3-28-7-38-8-15-1-37 2-54 9s-28 15-41 27c-9 10-11 13-15 21-8 15-9 22-9 35 0 6 0 19 1 28 1 15 0 16-2 24-3 11-2 21 1 31 3 8 15 27 28 41 8 9 10 13 13 20 4 10 9 30 8 37-1 5-5 13-14 26-11 17-21 27-39 37-5 3-11 7-14 9-3 3-6 5-8 6-1 0-4 3-7 5-2 2-8 6-13 8-7 3-9 5-18 14-9 10-10 11-20 17-13 6-14 7-17 12-4 7-5 17-5 35 1 27 3 43 4 50 1 3 2 9 2 14 1 4 2 10 3 12 0 3 1 8 1 12 0 5 0 6 3 8l2 2h147c80 0 160 0 177 1h68c105-2 121-2 152 1 5 0 20 1 33 1l25-1 6-3z"/></svg>