<svg xmlns="http://www.w3.org/2000/svg" width="1344" height="566"><path d="M0 283V0h1344v566H0V283m104 277c8-1 12-2 17-4l7-4 19 1c21 0 24 0 32-7 9-7 19-14 28-18 14-7 21-16 28-34 2-5 5-14 8-19 6-13 6-20 3-33-3-15-10-29-14-34-3-2-5-4-5-4-2 0-7-10-7-13 0-1-1-4-2-6-2-2-4-5-4-7-1-2-4-4-7-6s-6-4-7-5-3-2-6-3c-2-1-5-3-6-5-3-7-11-15-17-18-4-2-8-5-11-7-2-2-7-6-11-8-14-7-15-10-15-29 0-12 0-14 2-21 3-9 4-14 1-21-2-6-5-21-5-24 1-2 2-7 3-11 4-10 4-17-1-26-4-6-7-18-7-24 0-1-2-7-4-12-6-13-7-20-7-40 0-15 0-16-4-30-3-11-6-18-12-29-12-24-17-29-34-38-7-4-8-4-20-5-6-1-13-1-13 0-1 0-4 0-7-1-8-2-16-3-18-2-3 1-5 6-5 10 0 2 0 4-1 4-1 1-1 90-1 265v264l3 2c3 4 3 4 52 3 23 0 41 0 48-1m548 0c17-1 39-2 50-2 25-1 136-1 144 0 12 2 176 4 226 2 20 0 23-1 24-2 4-4 1-10-14-27-4-5-10-13-13-17-6-9-12-15-19-20-15-13-24-21-37-33-20-20-32-30-43-39-5-4-13-10-18-13-15-13-25-19-34-22-3 0-12-2-21-2-18-2-21-3-30-12-6-5-7-8-10-14-4-11-6-24-6-36 1-16 6-27 18-42 15-18 22-32 24-47 1-8 1-10 0-18-2-11-2-15 0-30 3-18 3-46 0-58-6-24-19-42-39-55-10-6-30-15-39-18-19-5-49-7-68-3-35 6-65 22-78 44-10 14-14 27-15 49-1 9-2 21-3 27-10 64-12 84-8 106 4 28 9 42 20 70 5 12 11 19 21 25 4 2 8 5 9 6 4 5 4 5-29 24-8 4-17 9-20 10-8 4-23 14-33 21-34 25-51 41-62 55-3 4-9 12-14 18-13 19-21 34-22 44 0 7 2 9 10 10 9 1 94 0 129-1z"/></svg>