<svg xmlns="http://www.w3.org/2000/svg" width="1344" height="566"><path d="M0 283V0h1344v566H0V283m792 277c8 0 22 0 31-1h28c17 1 230 0 235-1s8-3 11-7c3-5 2-36-2-50-3-8-20-43-25-49-4-5-20-15-51-32-23-13-32-20-32-24 0-2 4-10 9-18 5-7 13-14 23-20 14-9 23-16 33-27 11-12 19-24 19-32 1-3 2-7 3-10 4-12 3-20-8-41-10-21-20-34-49-64-26-25-34-35-43-50-19-28-24-34-49-58-24-23-32-29-50-37-13-7-29-10-45-10-11 0-12 0-22 3-6 2-14 5-18 7-6 3-8 4-21 5-11 2-15 3-20 5-7 4-21 16-28 26-5 7-17 30-19 37-1 2-3 10-6 16-6 16-9 24-10 30-2 15-5 32-11 52-2 7-4 15-5 17 0 5 0 5 5 10 2 3 6 8 8 11s7 9 12 13c7 7 10 9 21 14 4 1 6 4 10 9 12 15 17 30 20 50 1 15 1 23-2 26-4 5-26 14-74 28-6 2-20 8-30 13-32 14-39 16-61 19-10 1-12 2-17 10-2 3-8 13-15 23-10 16-15 24-22 35-5 6-8 13-10 20-1 4-5 13-9 19-3 6-8 15-10 18-5 8-5 11-1 12 10 3 67 4 169 3 2 0 14 0 27 1h55c17 0 38 0 46-1z"/></svg>