<svg xmlns="http://www.w3.org/2000/svg" width="1344" height="566"><path d="M0 283V0h1344v566H0V283m516 277c4-2 5-5 4-20 0-10 0-16 1-25 3-16 2-40-1-47-1-2-3-8-5-12-5-13-19-39-24-47-3-4-11-14-18-22-9-9-14-15-15-18-2-7-1-16 6-31 9-21 13-27 28-33 4-2 9-5 10-7 2-2 2-3 2-14-1-6-2-15-2-20-1-4-2-10-2-13 0-5 0-7-4-12-6-8-11-18-14-28-6-15-15-31-23-37-5-4-14-8-22-11-4-1-8-1-17-1-29 2-46 9-65 26-8 8-14 19-16 30-1 3-1 17-2 34 0 16 0 31-1 32v102l3 2c2 2 3 3 7 3s7 2 7 4c0 1-2 6-3 13-6 18-13 51-19 86-3 23-3 28 0 40 0 4 1 8 1 10 0 5 2 10 6 14l3 3h86c58 0 87 0 89-1m329-1h93c43 1 71 1 77 0 6-2 9-4 11-7s4-18 6-38c0-10 2-22 2-26 2-11 5-38 8-68 4-45 4-52-2-71-5-14-17-39-26-52-4-6-11-15-15-21-4-7-13-17-24-28-17-19-19-21-20-32-2-9-2-9-16-13-4-1-8-2-10-3-2-2-8-17-10-22 0-4 3-21 5-32 1-3 5-17 8-30 8-30 8-36 4-50-3-11-12-28-16-33-5-6-22-14-37-17-6-1-12-2-14-2-6 0-23 4-33 7-5 1-11 4-14 5-8 2-16 8-24 16s-10 13-10 22c0 8-1 15-5 27-1 5-3 14-3 21-2 15-2 15-7 30-5 12-5 13 1 27 6 13 18 36 20 39s14 9 20 10c8 2 20 12 22 17 1 5-1 8-7 15-27 33-27 32-28 46-1 10-1 12-7 24-16 38-19 50-26 86-1 6-4 20-7 32s-8 37-13 62c0 4-2 15-4 24-5 27-5 28-4 31 1 2 3 3 4 4 4 1 22 2 28 1 3 0 36 0 73-1z"/></svg>