<svg xmlns="http://www.w3.org/2000/svg" width="1344" height="566"><path d="M0 283V0h1344v566H0V283m484 276c15-1 60-1 101-2h85c7 0 21 0 32 1 16 1 50 1 125 0 113-1 222-1 269 1 27 0 30 0 31-1 8-8-11-31-38-49-12-8-51-26-65-32-3 0-8-3-12-4-11-6-20-10-35-15-23-8-28-11-39-21-10-9-11-13-6-29 2-5 5-13 7-18 1-4 4-13 7-19 2-6 5-14 6-17 5-15 10-26 14-31 5-4 11-8 15-8 1 0 6-2 10-4 14-7 30-25 39-46 4-9 5-12 6-19 0-12-1-15-8-22l-6-6v-6c1-4 2-11 4-16 10-29 15-53 19-82 3-20 2-27-2-47-6-24-16-49-24-55-5-5-11-6-39-7-36-1-186-1-198 0-17 2-19 3-28 21-15 27-20 45-29 90-2 11-4 22-5 24-2 6-5 10-12 12-9 2-15 10-18 22-2 8-1 25 1 38 2 10 3 13 7 22 4 7 8 14 11 17 9 11 9 9 8 41 0 23 0 31-1 40-5 31-12 47-24 52-3 2-6 2-25 1h-25c-7 1-12 5-29 22-27 27-31 30-56 40-15 6-25 10-39 16-6 2-17 7-26 10-26 8-37 14-61 27-11 7-18 13-29 23-10 10-16 19-21 26-2 5-2 5 0 7s4 2 18 3c9 1 18 1 19 1 5 1 34 0 66-1z"/></svg>