<svg xmlns="http://www.w3.org/2000/svg" width="1344" height="566"><path d="M0 283V0h1344v566H0V283m481 114c3-1 8-5 12-8 7-5 15-9 18-7 4 1 6 3 6 7 0 2 1 4 1 5 1 0 6 1 11 1 8 1 9 1 13-1 5-2 17-5 23-5 5 0 25 3 27 4 3 2 33 4 57 4 18 0 32 0 41 1s20 2 26 2c11 0 31-2 33-3 2-2 24-7 31-7 4-1 13-2 20-4 19-4 33-7 38-7 3 0 10 1 15 2 8 1 11 1 12 0s1-20 0-29c-1-4-1-13-2-22-1-16-3-27-5-31 0-2-3-5-6-7-2-2-5-6-7-9-1-3-4-7-6-10-4-3-4-5-4-9 0-5 0-6 4-9 6-6 6-6 7-32 0-21 0-26-2-44-8-63-18-89-38-109-9-8-21-16-33-22-8-4-10-4-19-5-10 0-8-1-38 7-17 5-24 10-34 22-10 15-14 26-16 54-1 10-2 23-3 29-2 18-3 37-4 55 0 14 0 17 1 20 4 8 2 11-7 13-7 1-10 3-10 7 0 2 0 3-5 5-4 3-5 3-11 2-5 0-9-1-11-3-3-1-6-2-8-3-3 0-7-1-9-2-5-1-6-1-11 0-3 1-7 3-8 4-2 1-6 2-9 3-19 5-28 14-33 31-1 5-4 11-5 13-6 10-27 22-47 28-5 1-9 4-9 7 0 0-4 10-9 21-6 11-10 21-11 24-1 2-2 6-3 8-2 5-3 10-1 11 0 1 6 1 12 1 9 0 12-1 16-3z"/></svg>