<svg xmlns="http://www.w3.org/2000/svg" width="1344" height="566"><path d="M0 283V0h1344v566H0V283m490 276c19-1 127-1 250-1h366c25 1 27 1 29 0 3-3 3-6 0-11-9-17-34-39-58-50-11-6-39-18-47-21-2 0-9-3-14-6-13-5-19-7-39-15-19-7-27-11-36-19s-11-12-10-18 11-35 16-48c2-5 6-14 8-20 6-16 14-31 18-33 1-1 6-2 10-3 10-3 17-6 25-14 13-14 25-33 28-47 2-8 2-18 0-22 0-2-4-6-7-9-5-4-5-5-5-10 0-3 1-9 3-14 13-41 20-79 20-104 0-10 0-14-3-25-6-26-15-48-22-56-6-6-10-7-40-8-38-1-189-1-199 0-13 2-17 3-21 8-4 6-13 25-18 37-6 15-10 28-15 56-9 44-9 43-21 47-5 1-11 9-13 15-3 8-4 24-3 34 3 22 9 37 19 49 9 11 10 16 10 46 0 42-7 75-18 83-7 5-7 5-31 5-19 0-24 0-28 2-4 1-8 4-27 22-25 24-29 27-37 31-13 6-59 26-82 34-10 4-21 8-25 9-12 5-38 19-49 27-15 11-38 37-38 44 0 3 3 4 19 6 17 1 45 1 85-1z"/></svg>