<svg xmlns="http://www.w3.org/2000/svg" width="1344" height="566"><path d="M0 283V0h1344v566H0V283m768 252c3-1 9-2 14-4 4-1 12-2 18-3 5 0 13-2 16-3 7-2 11-3 30-8 18-5 27-7 38-10 16-5 29-6 49-4 10 0 17 1 18 0 3-2 4-7 4-22 0-11 0-16-3-27-4-19-8-50-8-60 0-14-2-15-44-23-21-4-21-4-24-7s-3-3-3-13c0-13-1-19-6-25-2-4-3-6-2-7 2-5 1-7-8-26s-12-26-14-36c-1-3-2-6-3-6 0-1-4-9-7-19-3-9-8-22-10-28s-6-15-8-21c-13-36-18-46-26-57-15-21-32-32-64-42-24-8-39-9-67-2-28 8-49 19-63 33-13 14-23 35-28 59-3 11-3 20-1 53 2 46 3 76 3 85 0 8 0 10-2 13-2 4-10 10-17 13-3 1-10 5-15 9-9 5-10 7-15 13-3 5-5 9-5 10 0 5-4 10-10 13s-7 3-9 2c-7-2-8-2-14 2-11 7-23 12-33 14-6 1-12 5-19 13-9 9-15 13-29 16-5 1-11 3-12 4-3 2-5 7-10 18-1 3-3 8-4 10-3 8-5 14-5 17s-1 7-2 10c-1 6-1 12 0 14 0 0 3 2 5 3 4 1 6 2 10 1 3-1 8-2 10-2 7-3 35-5 45-3 4 0 9 1 9 1 1-1 6-2 11-3 7-1 11-1 13 0 3 1 5 1 21-4 4-1 11-2 14-2 6 0 26 5 31 8 2 1 9 3 15 5l12 4 40 1c23 1 46 1 51 2s15 1 22 2c26 2 44 7 51 13 5 4 8 5 16 6 11 1 17 1 24 0z"/></svg>