<svg xmlns="http://www.w3.org/2000/svg" width="1344" height="566"><path d="M0 283V0h1344v566H0V283m610 93c6-2 21-5 47-11 7-1 15-3 19-4s13-1 23-2c15 0 17 0 23 2 3 1 10 3 15 5 9 2 10 2 22 2 9-1 14-1 18-3 4-1 7-2 8-2s5-1 8-2c20-6 33-7 45-5 17 3 16 3 16-11-1-6-1-14-2-18-2-16-3-33-3-41 0-9 1-13 6-17 2-3 3-4 3-7 0-1 1-6 2-9 2-7 5-39 5-55 0-15-3-45-6-64-2-10-3-15-7-30-10-33-24-49-50-59-10-4-11-4-23-5-11 0-14 0-23 2-11 3-21 7-29 11-7 5-16 15-20 23-8 15-9 27-7 48 1 5 1 24 1 42 1 22 1 34 2 40 1 5 2 17 3 27v17l-2 2c-3 3-4 3-14 3-18 1-43 3-46 5-2 0-8 1-14 2-8 1-11 1-20 5-10 4-13 7-18 14-1 2-5 4-8 6-5 3-6 3-18 3-7-1-16-1-20-1-8-1-11 0-19 7-6 6-10 8-18 10s-12 7-20 22c-7 15-9 18-10 27s-1 16 2 18c2 2 17 3 26 2 9-2 9-2 19-6l7-3 8 4c6 3 11 4 17 5 4 1 10 2 13 3 9 2 30 1 39-2z"/></svg>