<svg xmlns="http://www.w3.org/2000/svg" width="1344" height="566"><path d="M0 283V0h1344v566H0V283m670 278c205 0 194 0 198-1 7-3 7-3 7-35 0-17-1-28-2-30 0-1-1-4-2-8-2-11-5-16-16-28-14-14-27-23-74-53-17-11-22-16-30-31-13-26-13-23-12-33 0-9 0-10 4-19 3-5 8-15 12-21 3-6 8-14 10-18s6-11 10-16c6-9 6-10 9-24 2-8 4-18 5-22 6-17 9-32 10-56 2-28-1-47-10-66-7-15-14-24-29-38-20-21-32-27-55-30-8 0-18-2-24-3-9-2-13-2-27-2-17 1-25 2-36 7-10 5-21 13-33 25-23 22-32 42-36 79-2 29-3 31-9 42-7 15-8 23-6 42 1 7 3 12 5 15 7 13 13 22 19 28 7 8 9 12 10 28 1 17-1 21-19 40-18 18-26 23-44 31-8 3-19 7-25 8-5 2-17 6-27 9-60 18-64 20-73 36-6 9-18 36-26 57-7 20-15 40-20 50-5 13-9 26-9 29 0 2 1 4 2 5 2 2 3 2 64 2 35 0 79 0 99 1 20 0 39 1 43 0h137z"/></svg>