<svg xmlns="http://www.w3.org/2000/svg" width="1344" height="566"><path d="M0 283V0h1344v566H0V283m902 276c29-1 59-1 66-1 34 0 84-3 93-7 4-2 9-8 13-17 3-6 4-7 4-16s-1-10-5-18c-5-11-12-22-21-33-3-4-10-13-16-20s-18-20-27-29c-17-16-20-21-25-38-2-10-8-22-13-29s-22-13-48-18c-17-3-17-3-29-14-7-6-7-9-7-24 2-40 2-50 0-68-4-34-10-58-18-72-5-8-18-20-28-28-2-2-9-6-13-8-8-3-9-3-20-3-10 0-15 0-26 3-17 4-21 5-33 13-22 13-33 23-35 31-2 5-1 66 0 92 2 21 3 23 8 30 1 1 5 6 8 10 10 17 10 18 7 21-2 2-15 14-29 29-32 31-37 35-45 38-7 3-14 7-18 12-4 4-4 4-4 11 0 13 4 22 15 37 3 4 7 9 7 11 1 2 3 13 5 25s4 26 6 31c10 37 11 39 17 42 5 2 24 5 49 6 10 1 19 1 19 2 1 0 91 0 143-1z"/></svg>