<svg xmlns="http://www.w3.org/2000/svg" width="1344" height="566"><path d="M0 283V0h1344v566H0V283m808 278c8-1 14-1 19 0s17 1 31 1c19-1 24-1 27-2 6-3 5-5-4-26-15-32-20-44-23-59-3-9-2-14 0-16 1-1 6-3 13-4 15-4 25-8 31-14 4-4 8-10 18-29 3-6 4-16 2-21-1-1-2-5-3-8-1-4-1-6 1-12 1-4 3-10 3-13 2-11 3-12 8-16s7-8 9-15c1-4 1-5 0-7s-3-3-4-3c-2 0-7 3-12 7-5 5-18 11-23 11-2 0-6 1-9 2-5 2-7 2-10 1-6-2-11-1-16 3-1 2-4 3-4 3-1-1-4-8-6-16-11-34-15-42-27-56-4-5-9-10-10-12-3-4-9-7-23-13-5-2-9-5-11-6-5-4-4-8 3-30 7-19 12-44 15-66 1-5 2-10 2-12 2-5 1-20-2-25-3-6-8-12-18-20-19-16-27-18-54-18h-17l-8 4c-13 6-20 14-29 32-6 11-7 14-9 22-1 8-1 11 0 16 0 3 1 8 1 12v6l-6 6c-10 9-12 14-10 25 0 8 3 11 12 14s11 4 13 7c2 2 2 3 1 7-2 5-10 18-15 25-4 5-9 9-23 18-6 4-21 20-24 25-5 8-6 18-7 49-2 47 1 95 5 108 1 3 3 8 4 12 5 18 10 29 18 42 7 12 7 13 7 19 0 4-1 13-3 20-3 17-2 19 4 21 3 1 14 1 67 2h65c1 1 13 1 31-1z"/></svg>