<svg xmlns="http://www.w3.org/2000/svg" width="1344" height="566"><path d="M0 283V0h1344v566H0V283m565 277c17-2 31-3 54-2 47 2 114 1 123-1 8-2 9-8 4-16-4-6-7-17-7-23 0-1-1-6-2-10-3-9-4-24-3-39 1-11 1-13 3-15l2-2 19 1c18 2 21 2 42 0 12-1 27-3 33-3 6-1 15-2 21-3 5-1 10-1 10-2 1 0 6 0 13-1 12-1 31-5 44-10 10-3 28-13 37-20 8-6 18-18 21-26 1-4 1-4-1-11-4-12-9-20-20-35-19-24-30-34-52-45-12-7-14-8-25-18-11-12-16-14-27-17-8-1-16-5-34-14-14-7-16-8-23-8-3-1-9-2-12-3-7-2-30-15-46-25-7-4-9-9-9-18 0-8-13-65-17-76-1-2-4-8-8-14-7-10-9-13-17-19-15-13-34-21-60-26-25-6-39-6-55 0-10 3-28 12-34 16-2 2-6 5-9 8-9 6-24 19-29 25-8 11-9 13-15 25-9 15-15 29-18 41-5 15-4 14-28 32-19 13-22 15-34 19-7 3-17 9-30 19-10 8-13 10-28 15-24 9-31 14-41 29-8 13-11 21-13 38-2 13-2 22-1 35 2 14 2 16 9 25 4 5 8 12 10 17 4 7 4 9 5 21 1 18 3 26 5 31s7 11 14 16c8 6 8 8 7 31-1 22-2 25-4 35-1 4-2 10-3 13 0 6 0 7 2 8 2 2 4 2 51 1h67c11 1 32 1 48 1s32 0 36 1c7 1 10 1 25-1z"/></svg>