<svg xmlns="http://www.w3.org/2000/svg" width="1344" height="566"><path d="M0 283V0h1344v566H0V283m1016 277c72 0 108 0 112-2 4-3 4-6 0-14s-13-17-28-30c-14-11-23-20-32-31-5-8-13-13-36-29-9-5-18-11-20-13s-8-5-13-8c-10-6-17-14-23-25-3-5-7-11-10-14-4-5-15-19-20-26-2-3-6-9-9-12-6-9-12-18-18-34-6-15-9-27-8-30 0-1 3-3 5-5 12-9 16-14 25-31 4-9 5-12 6-20 1-4 2-16 4-25 2-14 2-20 2-39s0-23-2-35c-6-28-17-55-30-70-12-13-31-28-44-34-21-9-53-17-69-17-6 0-25 4-48 10-33 9-48 14-68 23-10 5-12 7-18 13-10 10-18 23-26 38-7 16-9 25-11 42-2 26 0 47 12 86 1 4 3 15 4 24 2 17 6 35 13 56 2 7 7 21 10 31 6 19 10 30 14 36 6 10 15 15 31 20 16 4 16 6-2 13-36 15-64 29-78 39-20 13-25 18-30 29-5 10-6 16-6 33l1 15 5 10c3 5 6 11 6 11 0 3 5 9 9 10 8 2 30 4 98 6 13 0 69 1 124 0 54 0 130 0 168-1z"/></svg>