<svg xmlns="http://www.w3.org/2000/svg" width="1344" height="566"><path d="M0 283V0h1344v566H0V283m890 273c4-4 10-17 11-27 0-3 0-7-1-10s-1-8 0-17c2-17 2-22-1-33-1-5-3-14-3-19-1-6-3-13-5-18-1-4-3-12-3-18-1-7-3-16-5-20-1-5-3-12-4-15-2-11-3-15-5-20-1-3-2-8-3-11-1-4-3-12-6-19s-6-17-8-23c-8-26-21-48-39-65-6-7-10-9-15-11-18-7-23-14-23-31 0-5 1-13 2-19 3-17 4-25 2-35-4-21-18-38-37-46-6-2-8-2-21-2s-14 0-24 4c-6 2-12 4-13 4-3 0-11 6-23 18-15 15-17 18-22 33-1 6-2 10-2 18 0 13 1 17 6 21 3 2 4 4 5 10 1 3 2 9 3 12 0 6 0 6-3 11-6 9-8 12-11 22-6 21-8 26-14 36-2 7-7 15-9 20-4 9-4 9-21 33-10 13-15 19-25 27-6 6-17 16-24 23-12 11-19 16-22 16-1 0-5-2-9-4-10-5-15-6-24-6-4 0-8-1-12-2-4-2-9-2-23-3-16-1-17-1-21 1-6 3-5 10 4 16 5 3 8 8 7 10-1 3-7 6-11 7-10 3-15 6-15 11 0 3 7 15 10 17 1 1 6 4 11 6 7 3 10 3 20 4 11 1 26 0 46-2 5-1 13-1 18-2 8 0 9 0 14 3 3 1 11 8 17 14 12 11 24 20 29 22 1 0 4-1 6-2 4-2 5-2 12-2 11 1 27 5 32 8 5 4 8 11 8 20v6l11 12c9 11 12 13 16 14 10 4 64 5 167 5h48l2-2z"/></svg>