<svg xmlns="http://www.w3.org/2000/svg" width="1344" height="566"><path d="M0 283V0h1344v566H0V283m563 278c24-1 87-1 149-1h154c26 0 75 0 108 1h112l2-3c2-2 2-3 1-6 0-6-3-16-10-36l-6-16v-14c0-12 0-14-2-16-3-4-12-9-25-14-24-10-79-36-85-40-4-4-5-9-5-20 1-9 2-16 12-55 4-19 5-36 5-63-1-31-2-46-6-76-11-84-28-133-57-162-8-8-32-27-39-30-6-4-17-5-34-5h-43c-34 0-40 1-57 12-13 9-23 18-32 30s-24 43-30 63c-1 7-4 15-5 18-2 8-6 29-9 53-5 37-6 50-5 97 2 41-1 99-5 108-2 7-20 15-40 19-13 2-14 2-32 11-22 11-76 38-82 42s-7 8-7 19c0 13-2 19-11 43-7 18-11 30-11 34 0 3 5 6 11 7 9 1 26 2 35 1 4 0 26 0 49-1z"/></svg>