<svg xmlns="http://www.w3.org/2000/svg" width="1344" height="566"><path d="M0 283V0h1344v566H0V283m244 277c3-2 4-12 4-20-2-22-6-47-9-58-1-4-4-24-5-34 0-7 1-10 6-11 7-2 7-3 6-13-1-5-3-18-5-29-1-11-3-25-4-31s-2-13-2-16c-1-2-1-7-2-11 0-4-1-9-2-13 0-4-1-10-2-15-1-11-1-13 6-12 6 1 21-3 25-6 4-5 5-12 5-39 1-27 1-26 10-38 5-7 12-22 13-28 1-8-5-13-14-11-3 0-14 0-25 1-23 0-28 1-32 6-2 4-2 7-1 17 1 9 0 12-4 15-3 2-5 2-10 2-6-1-10-2-22-7-22-8-25-12-17-19 2-2 5-4 5-4 1 0 3-1 5-3 4-3 6-10 6-24 1-11 0-12-3-19-6-13-6-14-6-17 0-2-1-8-3-13-3-9-4-10-8-14-6-5-9-6-17-9-13-3-23-4-31-3-16 4-26 11-31 21l-3 6 1 13c0 14 2 20 11 30 3 3 8 9 10 13s6 12 10 17c10 14 9 12 8 30-1 10-2 17-2 19-1 1-4 5-7 7-5 6-8 12-9 22-1 4-1 4 2 8 7 7 10 12 16 22 3 6 8 14 12 19s10 13 13 17c6 8 7 9 12 9 3 0 5 1 9 4 7 5 12 5 21 0 11-6 11-6 16-1 4 4 4 4 9 4s6 0 8 3 3 6 0 18c-2 11-4 15-10 15-7 2-15 4-17 7-2 2-4 3-6 3-1 1-3 3-5 6-3 4-5 6-16 11-8 4-13 7-14 8-2 4-1 11 4 21 4 9 4 10 5 22 1 13 3 23 10 45 2 7 4 15 5 19 6 21 16 37 23 38 5 2 8 2 27 2 18 0 20 0 21-2m288-98c3-4 8-14 8-17 0-2-1-4-2-5-2-4-3-8-1-10s12-2 18 0 11 1 22-4c10-4 17-6 27-7 4 0 14-1 20-2 15-2 40-1 49 1 4 0 10 1 14 1l7-1v-4c1-2 1-11 2-18 1-11 1-15 3-21 3-7 3-10 3-19 0-10 0-11-3-21-3-6-5-12-5-14-2-6-2-32-1-49 1-22 2-27 5-34 2-3 4-8 6-12 1-4 4-9 6-11l4-6c0-2-5-21-6-24l-6-6c-6-5-9-8-9-9s2-3 5-6l5-5v-6c-1-7-3-9-11-15-6-4-8-7-9-20 0-9-2-12-6-18-6-7-12-11-21-12-6 0-7 0-11 2-5 3-15 11-17 15-2 3-1 30 2 41l1 8-3 6c-3 8-6 10-19 16-8 3-9 3-11 2-2-3-1-5 8-14 9-10 9-10 8-40 0-25 0-26-8-33-5-5-8-7-17-8-4-1-9-3-11-4-6-3-12-2-18 3-3 3-7 6-9 8-7 5-7 8-14 36-1 7-3 13-4 14s-4 3-6 5c-3 1-8 6-15 13-10 12-15 17-20 21-6 4-25 23-27 27-1 2-4 6-6 10-3 5-3 6-4 17 0 18 3 30 8 34 6 3 8 17 4 30-1 4-1 11-1 19-1 14-3 27-7 34-3 5-6 17-6 26-1 4-2 9-3 12-2 7-1 19 2 25s14 14 33 21c8 3 16 8 21 12 2 1 4 4 5 7 2 8 8 13 15 13 2 0 3-1 6-4z"/></svg>