<svg xmlns="http://www.w3.org/2000/svg" width="1344" height="566"><path d="M0 283V0h1344v566H0V283m474 276c6-1 121-2 189-1 61 1 158 1 167 0 5 0 51 0 94 2 27 0 29 0 43-7 10-5 14-8 17-15 4-8 5-15 5-33 0-22-3-32-12-43-6-8-17-19-23-23-4-3-16-8-25-11-3 0-6-2-8-3-2-2-7-4-11-6-4-3-14-11-26-20-18-15-28-23-34-26-9-7-34-33-39-42-1-2-3-9-4-14-2-15-1-19 5-25 8-8 20-23 23-28 3-6 3-7 2-12-3-13-3-16-2-21 0-3 1-9 2-13 3-16-1-32-12-42-6-5-19-13-26-15-2-1-8-3-13-5-11-5-24-7-30-7-2 1-6 2-8 3-13 9-49 21-56 18-3 0-4-3-6-14-1-5-2-10-3-10 0-1-1-7-1-14-3-36-16-69-34-85-24-20-72-29-107-20-18 4-38 15-51 28-26 24-33 46-28 85 1 16 1 21-1 28-1 4-2 8-2 14 0 8 0 10 3 18 6 13 12 23 25 37 12 13 17 20 20 28 2 10 4 25 4 31-1 6-5 16-11 24-4 7-16 21-23 27-6 5-30 22-38 26-2 1-6 4-9 6-2 2-7 6-12 8-7 3-9 5-19 15-9 10-13 13-19 16-9 5-13 8-17 15-3 6-3 7-4 22 0 21 1 34 7 63 1 5 2 12 2 16 1 11 3 19 4 21 1 4 3 4 40 5 40 1 56 0 62-1z"/></svg>