<svg xmlns="http://www.w3.org/2000/svg" width="1344" height="566"><path d="M0 283V0h1344v566H0V283m601 91c13-4 30-8 33-8 2 0 6-1 10-2 5-1 7-1 10 0 7 2 22-1 34-6 3-2 5-2 20-1 16 1 17 1 34 8 5 2 7 2 13 2 4-1 9-2 12-2 3-1 8-2 11-3 13-2 18-3 24-5 5-2 9-2 22-2h21c7 1 8 0 8-8-1-3-1-14-2-24s-2-22-2-27c-2-14-1-22 4-22 1 0 4-2 6-5 4-4 6-6 7-12 1-3 2-8 3-10 2-8 4-32 3-49-2-38-7-74-12-90 0-3-1-7-2-10 0-2-2-6-3-8-1-3-3-8-4-11-3-8-8-13-19-22-16-13-29-17-46-17-19 0-47 9-58 19-5 5-13 17-14 23-1 2-3 7-4 9-1 4-1 10-1 49v75c1 16 1 31 1 32-2 6-6 7-20 7-26 0-65 6-76 11-4 2-8 4-10 4-1 1-5 4-8 9-4 4-9 8-12 9-5 3-5 3-18 2-7-1-16-1-18-2-7 0-10 0-16 7-7 6-14 10-22 13-9 2-18 14-25 34-4 11-5 19-3 24 2 7 3 8 12 8 14 1 26-2 34-10 6-5 10-5 21 0 5 2 12 5 15 5 4 1 9 3 11 4 7 4 15 5 26 2z"/></svg>