<svg xmlns="http://www.w3.org/2000/svg" width="1344" height="566"><path d="M0 283V0h1344v566H0V283m759 250c4-1 10-3 13-3 13-4 22-6 27-7 3 0 9-2 13-3s10-2 12-3c7-2 17-5 22-6 2-1 8-2 12-3 8-2 16-4 23-6 2-1 9-3 14-4 10-1 14-1 38 1 16 2 15 3 15-23-1-12-1-22-2-26s-3-14-4-23c-3-31-3-33-5-37s-3-5-13-8c-5-1-14-4-20-6-14-3-22-8-24-12-2-3-2-5-2-17 0-15-1-17-7-19-5-1-10-5-10-8 0-2 4-5 9-6 3 0 4-1 4-3 0-1-4-13-9-26-6-13-11-28-12-33-2-4-4-10-5-12-3-8-11-31-15-43-6-18-8-22-10-29-2-4-4-11-6-16-5-14-16-32-29-43-15-14-28-22-60-33-12-5-24-5-44-1-42 9-48 10-56 15-9 5-20 15-24 23-8 15-17 43-19 54-3 21-4 53-4 99 0 35-1 47-2 49s-9 7-25 16c-5 3-11 7-14 8-2 2-5 4-7 5s-5 3-7 5c-3 4-10 17-10 20 0 2-5 11-8 12-1 1-4 2-7 3-3 0-5 0-9-2l-4-2-6 3c-15 9-21 11-30 14-11 4-17 8-24 16-6 8-14 12-26 13-6 0-9 1-11 2-6 4-11 15-25 54-3 8-6 17-7 19-2 4-2 4 0 7 3 4 6 5 27 4h19l8-4c5-2 11-4 13-5 3-2 8-3 18-3 21-1 35-3 40-4 16-3 26-4 29-2 1 0 6 2 12 2 6 1 12 3 14 3 2 1 9 3 15 5l12 3 42 1c37 0 53 1 56 3 0 0 8 0 17 1 23 1 35 5 45 14 2 2 6 5 8 6 5 2 15 3 25 1z"/></svg>