<svg xmlns="http://www.w3.org/2000/svg" width="1344" height="566"><path d="M0 283V0h1344v566H0V283m825 277c7-2 10-5 16-17l5-9 1-12v-12l4-8c2-5 10-18 16-29s15-27 18-36c8-18 10-21 18-30 7-8 12-18 12-22 0-2-1-4-2-6 0-2-2-7-3-12-3-12-4-14-9-18-2-2-5-5-5-6-1-2-2-3-6-3-2 0-4-1-6-3s-2-2-1-7c2-4 2-5 1-6-2-1-2-1-5 0-2 1-3 1-5-2-2-2-2-3-2-11 1-13 0-18-4-22-4-3-5-3-10-3s-6 0-9 2c-1 2-2 4-2 6 0 3-1 5-10 17-14 17-20 21-31 19-7-1-14-1-16 0-5 3-10 9-17 20-10 17-13 25-19 49-6 30-9 39-19 62-1 4-3 7-3 7 0 1-6 12-12 24-11 20-23 39-28 43-2 2-2 2-4 1s-4-4-6-7-8-9-12-14c-11-12-25-29-27-32-1-1-3-7-4-13-3-13-10-29-17-36-2-3-10-8-18-13-16-11-18-13-18-16 0-1 2-4 4-6 2-3 8-13 14-23 12-21 19-32 29-44 16-22 20-35 20-76 0-14 1-29 1-36 4-53 5-80 1-104-2-15-6-23-15-34-6-9-10-12-34-27-36-24-57-32-81-31-7 1-21 1-31 2-24 1-30 2-50 13-21 10-33 23-46 51-10 21-23 60-28 86-1 9-5 25-9 43-3 13-5 27-9 54-2 9-4 22-6 29-3 17-4 21-5 38 0 8-1 20-2 27-1 13-1 13 1 21 1 5 2 11 2 13 0 5-4 15-6 18-3 3-21 39-27 54-4 9-10 23-14 32-8 19-9 22-4 30 2 4 3 8 4 13 1 7 3 9 9 10 18 3 201 4 294 1 46-1 142 0 162 1 27 2 58 2 65 0z"/></svg>