<svg xmlns="http://www.w3.org/2000/svg" width="1344" height="566"><path d="M0 283V0h1344v566H0V283m791 276c18 0 35-1 38-2 7-2 17-8 21-14 1-3 4-6 5-8 5-5 11-19 13-32 3-15 3-17 6-17 2 0 8 6 8 9s4 5 10 6c4 0 9 1 12 2 4 1 9 2 12 3 4 0 8 1 10 2 1 0 8 1 14 2 12 1 14 3 14 8 0 1 1 3 2 4 2 2 3 2 8 1h12c20 0 25 0 31-2 4-1 9-2 13-3 9 0 11-2 13-7 2-6 1-11-5-23-5-11-7-13-15-20-6-5-7-8-8-19-1-16-7-23-27-37-10-6-21-17-25-24-2-2-7-9-13-15-17-19-22-32-22-63 0-27-1-32-14-49-5-6-10-13-11-15-4-5-6-6-20-10-23-7-26-8-34-12-4-2-9-5-12-8l-4-4v-10c1-5 2-17 4-26 3-26 4-31 5-66 1-25 1-33 0-40-1-11-6-20-12-24-13-10-58-28-74-29-8 0-18 2-31 8-12 5-16 8-28 20s-25 30-50 66c-15 24-25 42-29 53-2 7-1 22 1 31 1 2 2 8 3 12 2 14 0 17-15 26-16 8-16 8-19 27-1 12-1 12-20 52-16 34-16 36-22 75-5 30-5 42-5 77l-1 32 3 6c5 11 19 18 42 23 6 1 12 3 15 4l14 14c6 6 12 12 14 13 3 1 22 4 34 4 9 1 100 0 139-1z"/></svg>