<svg xmlns="http://www.w3.org/2000/svg" width="1344" height="566"><path d="M0 283V0h1344v566H0V283m517 278c14-1 28-2 33-3 13-2 52-4 65-2 26 3 49 4 113 4 77 1 208-1 227-2 16-1 19-2 22-8 2-3 5-19 8-33 4-21 9-27 22-29 8 0 16 2 28 8 8 3 15 4 19 1 1-1 8-6 14-13 20-19 45-36 63-43 10-4 29-14 32-17 11-9 14-35 8-58-4-13-7-22-12-29-4-4-21-20-25-22-2-1-6-4-10-6-6-5-21-15-31-21-5-3-12-5-24-7-14-3-26-9-35-17-4-3-8-7-9-9-2-4-1-13 3-21 7-15 6-33-2-62-3-11-17-32-28-45-10-10-17-18-32-36-11-14-40-44-48-50-7-6-26-19-33-22-2 0-8-3-13-4-8-3-9-3-24-3-16 0-17 0-24 3-4 1-14 4-21 7-7 2-17 5-22 8-9 4-23 14-29 20-8 9-27 40-41 67-7 14-15 27-20 32-8 7-22 16-27 18-9 2-9 8 0 12 4 2 6 2 19 2 12 0 15 0 20 2 8 3 16 7 19 11 2 2 4 12 5 28 0 8 2 19 4 30 2 10 4 21 4 24 0 4 0 5-4 9-4 5-9 8-17 9-3 1-12 3-20 6s-17 6-21 7-9 3-13 5-10 5-14 6l-12 4c-2 0-8 2-13 3-5 0-9 2-11 3-1 0-3 3-3 6-2 6-10 16-19 25-13 14-15 18-22 35-7 20-27 57-35 66-2 3-7 7-11 9-8 6-16 15-30 33-12 15-29 33-35 36-2 1-6 2-9 3-2 0-6 1-7 2-4 1-11 10-11 12 0 8 24 9 89 6z"/></svg>