<svg xmlns="http://www.w3.org/2000/svg" width="1344" height="566"><path d="M0 283V0h1344v566H0V283m513 276c3-3 6-8 6-15 1-8-1-27-6-44 0-3-1-7-1-9 0-11-8-38-15-52-5-10-16-20-37-32-6-3-12-8-14-9-2-3-2-4-2-9 1-5 2-9 7-20 8-15 11-18 25-24 20-7 18-3 19-42v-32l-6-9c-8-12-10-17-13-28-7-24-13-36-24-44-6-5-14-7-32-10-15-3-27-2-40 1-18 4-28 10-40 22-9 10-15 19-17 29-3 9-4 39-4 116-1 39-1 72-2 74-1 4-2 6-8 15-4 7-10 20-10 22 0 1-1 5-2 8s-2 8-3 11c0 7-1 12-7 34-2 7-4 14-4 17-2 6 1 29 3 30 1 1 24 2 103 2h113c7 0 10-1 11-2m309 1c18-1 91-2 176-1 50 0 66-1 69-3 3-3 4-7 7-28 5-44 7-67 8-96 0-27 0-28-2-38-4-15-15-39-29-62-16-27-18-30-42-54-25-24-26-26-28-38-1-4-2-7-3-8s-4-2-7-3c-10-2-13-4-17-11l-7-14-2-8 1-11c1-5 3-13 4-16 6-19 17-67 18-75 0-14-2-25-10-42-7-14-9-16-19-23-14-9-41-15-55-12-23 5-45 12-56 17-8 4-18 15-22 22-3 6-3 7-3 14 0 8-1 18-5 28-1 5-3 14-4 23-1 13-2 16-6 29-3 9-5 17-5 18 0 2 2 7 4 12 3 5 6 13 7 16 2 12 10 29 15 34 3 4 11 8 17 9 2 0 7 2 10 3 5 2 6 3 11 9 8 12 8 12 5 15-1 1-4 5-5 8-2 2-8 9-12 14-17 18-20 24-21 38-1 10-1 11-11 33-3 7-7 18-9 25-3 6-6 13-7 15 0 2-1 5-2 7 0 3-2 9-3 14-7 22-12 49-13 68-3 27-2 50 3 63 2 6 3 7 7 9 5 2 8 2 43 0z"/></svg>