<svg xmlns="http://www.w3.org/2000/svg" width="1344" height="566"><path d="M0 283V0h1344v566H0V283m900 277c14-1 31-1 38 0h48c40 0 38 0 39-7 0-3 0-12-1-21s-2-22-3-30c-2-25-7-44-13-50-2-2-10-8-23-16-5-3-13-9-20-16-7-6-16-14-19-16-18-13-18-13-19-24 0-7-1-8-4-11-4-5-4-8 0-13l2-4-1-9c-2-10-9-49-12-69-1-7-3-15-4-18 0-3-2-8-3-12-2-9-6-23-7-29-1-3-3-8-3-12-2-6-11-36-18-54-5-12-21-47-28-60-10-16-26-31-51-43-17-8-38-13-57-13-15 0-35 3-46 8-21 8-50 27-62 40-11 11-14 20-17 41-2 16-5 34-6 38 0 2-2 10-3 17-1 11-1 13 0 20 1 4 2 10 3 13 0 4 1 9 2 12 1 6 1 18-1 27-1 3-2 9-2 13 0 7 0 7 10 26 14 29 18 41 21 60 0 4 0 5-2 7-5 4-22 8-55 14-12 2-22 5-25 9-1 1-4 4-6 7-4 7-13 16-24 25-12 9-17 14-25 24-3 4-7 9-9 10-3 3-16 8-21 8-2 0-4 1-5 1-2 1-7 3-13 4-8 2-12 4-14 6-3 2-22 36-25 43-1 2-3 5-5 7-4 4-14 10-17 10-2 0-5 3-5 6 1 1 3 3 5 4 5 4 5 5 4 10 0 3 0 4 3 8 5 7 9 9 17 9 12 2 148 0 179-1 43-3 67-3 76-2 4 1 13 1 20 1s15 0 17 1c3 1 13 2 23 2 25 1 138 0 167-1z"/></svg>