<svg xmlns="http://www.w3.org/2000/svg" width="1344" height="566"><path d="M0 283V0h1344v566H0V283m908 278c14-1 100-1 101-1 1 1 105 1 123 0 20-1 23-2 25-6 3-7-7-21-37-52-17-18-23-23-57-47-11-9-24-18-29-22-10-8-20-20-26-31-2-4-9-14-15-23-10-14-19-29-28-44-2-3-6-10-9-14-4-5-9-13-13-19-9-15-9-14 6-29 6-7 12-13 13-15 2-4 5-14 6-23 2-10 2-14-1-70-1-21-4-35-10-56-5-14-16-37-24-45-6-9-17-18-28-24-36-20-39-21-61-24-27-3-46-2-60 4-17 7-32 13-43 16-14 4-20 6-32 14-17 12-34 32-40 49-6 18-10 41-11 71 0 15 0 18 2 28 2 8 5 18 8 26 7 16 11 30 14 42 7 28 24 69 44 106 7 12 9 14 17 19 11 6 20 9 31 10 7 0 10 1 10 2 1 2 1 2 0 4s-2 3-13 9c-3 2-8 5-12 8-3 2-9 6-13 7-8 5-28 20-39 30-9 10-13 16-17 30-2 10-2 11-1 24v15c0 1 0 6-1 10-2 15 0 20 8 21 5 1 195 0 212 0z"/></svg>