<svg xmlns="http://www.w3.org/2000/svg" width="1344" height="566"><path d="M0 283V0h1344v566H0V283m513 78c2-1 7-2 9-2 3-1 9-3 14-5 9-3 10-3 21-3 14 0 50 4 59 6 3 1 23 1 46 2l42 1 5-2c6-3 14-4 20-2 2 1 5 1 11 0 4-1 13-3 20-4 7 0 15-2 19-3s10-2 15-3c5 0 10-1 12-2s10-1 22-1c16 0 19 0 20-2 0 0 0-10-1-21-1-22-1-23 4-37 5-12 5-12 23-12 17 0 21-1 23-5s1-92-1-107c-6-37-11-58-19-75-3-8-17-21-27-27-16-9-19-10-34-9-13 0-16 0-26 3-28 7-40 18-48 42-3 9-3 10-4 39-2 44-2 48 0 62 1 12 1 34-1 43-2 8 1 8-43 7l-39-1-11 6c-7 3-14 7-17 8-4 1-8 4-11 6-2 2-6 5-8 5-3 1-6 3-9 3-3 2-5 2-13 0-6-1-11-1-16-1-8 1-8 1-20 11-7 6-8 6-40 9-9 1-12 3-10 6 0 1 2 2 4 2 4 1 7 5 6 7 0 2-1 6-2 9 0 4-3 12-4 16-7 18-10 29-10 31 1 1 12 2 19 0z"/></svg>