<svg xmlns="http://www.w3.org/2000/svg" width="1344" height="566"><path d="M0 283V0h1344v566H0V283m749 102c1-1 6-2 10-2 10-2 19-5 25-6 3-1 8-2 11-3s11-2 17-4c12-2 19-2 35 0 13 2 15 1 13-10 0-3-1-13-1-22-1-8-2-21-2-28l-1-13 3-7c3-8 5-11 10-12 4 0 5-2 3-6s-2-7 0-16c1-4 3-14 4-21 2-12 2-17 2-49v-36l-3-16c-9-43-13-55-25-70-4-5-16-14-27-19-18-9-26-10-45-7-18 4-25 6-34 11-11 6-16 10-20 18-9 15-12 30-13 52-1 7-2 17-2 21-2 10-4 28-5 56-1 10-1 27-2 36-1 19-2 24-6 26-4 3-22 4-52 4h-27l-14 5c-18 6-20 7-29 16-4 4-9 7-10 7-2 0-12-8-17-14-8-11-13-11-45-2-9 3-11 4-14 14-1 5-1 6 1 16 1 7 2 13 1 18 0 8 0 9 3 14 3 4 4 5 9 7 3 1 9 3 14 3 8 0 9 1 11 3s2 3 2 8c-2 16-2 18 0 20s3 2 21 0c13-2 47-3 79-2 10 0 11 0 12-2 3-3 4-3 5 1 1 2 3 5 5 5 3 2 19 5 33 6 6 0 12 1 14 1 6 1 48 0 51-1z"/></svg>