<svg xmlns="http://www.w3.org/2000/svg" width="1344" height="566"><path d="M0 283V0h1344v566H0V283m716 278c96-1 135-1 158-2 17-1 47-2 68-3 40-1 160-1 209 1 17 0 32 1 33 1 3 0 6-3 6-8s-3-13-11-28c-15-28-25-43-39-57-13-12-22-19-35-26-12-7-16-8-51-19-14-4-32-10-40-12-16-6-24-8-39-13-13-3-27-10-30-14s-4-5-2-27c1-18 3-30 7-37 2-5 2-5 10-9 16-7 28-19 37-38 9-20 12-39 8-50-2-6-5-10-12-13-8-4-9-7-5-38 3-24 3-25 3-65 0-37 0-42-2-54-2-14-4-17-12-28-9-13-11-14-33-16-19-2-222-2-236 0-12 1-17 4-23 10s-11 14-16 30c-11 36-15 54-16 79-1 10-2 30-3 45 0 15-1 31-1 35 2 14 5 29 12 55 2 6 4 14 5 19 2 9 4 19 13 45 8 25 9 32 9 35-1 3-5 5-24 13-15 6-16 7-25 21-7 10-7 11-18 29-19 31-30 43-52 58-7 4-17 12-21 16-9 7-21 16-30 22-27 18-50 35-50 39s14 5 80 4h168z"/></svg>