<svg xmlns="http://www.w3.org/2000/svg" width="1344" height="566"><path d="M0 283V0h1344v566H0V283m346 276c56 0 117 0 135-1 18 0 38-1 43 0 11 0 152 2 188 2 19 0 21-1 24-3 5-2 7-6 9-18 2-8 2-15 2-31 0-11 0-25 1-32 0-6 2-22 3-35 1-21 1-27 0-38-2-20-9-41-19-57-5-7-30-33-38-38-12-8-14-12-12-22 1-3 2-8 3-10 0-3 2-11 4-18 5-16 6-29 4-58-2-46-11-69-33-91-21-21-47-35-74-40-13-2-26-3-45 0-19 2-28 4-39 8-21 8-37 20-49 37-11 17-17 35-22 74-3 19-3 21-8 27-6 7-7 9-4 25 2 9 2 19 3 31 0 16 0 18-2 21-3 5-11 9-34 20-12 5-28 12-35 16-59 31-80 49-114 97-13 19-23 39-29 57-1 4-2 10-3 13-3 9-3 45 0 54 1 4 3 8 4 9 2 2 7 3 23 2 7 0 58 0 114-1z"/></svg>