<svg xmlns="http://www.w3.org/2000/svg" width="1344" height="566"><path d="M0 283V0h1344v566H0V283m291 276c2-1 4-1 8 0 6 2 378 3 388 1 3-1 9-2 12-3 7-4 9-7 10-20 1-6 2-16 3-23 3-18 3-22-3-38-2-7-4-14-4-15 0 0-2-6-5-12-5-11-5-11-5-21 0-9 0-10-3-13s-39-20-73-33c-35-14-53-23-57-26l-3-3v-11c1-14 5-31 11-46 10-27 12-39 8-69-1-10-2-19-3-21s-2-6-2-10c-2-13-6-26-16-56-8-24-19-49-27-61-11-17-39-40-61-50-11-6-16-7-29-9-14-1-25-1-37 0-11 2-14 3-23 9-10 6-14 8-24 14-24 13-40 36-49 73-6 21-11 54-13 79-1 7-1 17-2 23-1 15-3 45-4 78 0 32 0 42 5 62 3 10 3 20 0 23-1 1-6 4-13 6l-14 7c-2 1-10 6-18 11-25 17-33 22-46 30-15 8-17 10-17 20-1 10-3 16-7 28-7 21-14 54-13 67 0 5 0 6 2 9l3 2h59c46-1 60-1 62-2z"/></svg>