<svg xmlns="http://www.w3.org/2000/svg" width="1344" height="566"><path d="M0 283V0h1344v566H0V283m1003 279h43c35 0 37 0 41-6 1-3 1-5 1-15-1-11-6-44-11-72-2-7-4-18-4-25-2-12-5-28-7-37-3-10-7-25-9-35-1-3-1-6-1-9 0-7-7-28-12-39-4-8-7-12-12-18-7-6-9-7-23-14-9-4-17-8-18-8-4-2-23-10-25-11-1-1-5-3-28-11-24-9-31-12-44-24-13-11-37-37-40-43-2-5-2-5-1-18 2-20 4-36 6-41 1-2 4-8 7-12 6-11 8-16 11-26 2-11 2-30 0-42-5-25-10-43-14-46-4-5-7-5-28-6-28-1-187-1-208 0-22 1-24 2-26 16-1 9 0 28 3 40 2 14 5 30 6 41 2 19 5 29 14 44 8 14 15 31 19 42 2 6 5 15 7 20 4 10 5 20 3 25-1 2-3 4-5 6s-7 8-10 13c-7 12-9 13-28 21-7 3-18 8-23 11-5 2-14 6-19 8-11 4-18 8-22 13-6 7-3 18 15 49 7 12 10 20 11 27 2 7-1 18-8 40-3 10-7 23-7 26-2 16-3 21-6 28-3 10-3 18 1 26 3 7 6 19 9 39 2 9 4 12 13 16l8 3 62 1c35 0 70 0 79 1s37 1 67 1c74 0 114 0 132 1 9 0 28 1 43 0h38z"/></svg>