<svg xmlns="http://www.w3.org/2000/svg" width="1344" height="566"><path d="M0 283V0h1344v566H0V283m822 278c22 0 35-2 37-4s2-22 0-29c-1-4-2-9-2-12-1-3-2-7-4-10-2-2-6-10-9-16l-5-12-1-12c0-7-1-13-2-15-2-4-10-9-22-15-6-3-20-9-31-15-10-5-19-9-19-9-1 0-9-4-20-9-52-24-52-23-55-32-2-10-2-32 0-66 4-43 4-50-2-85-2-15-5-31-6-35-17-53-31-83-47-104-28-36-66-56-108-56-12 0-14 0-21 2-5 2-14 6-21 10s-16 8-21 9c-22 8-39 31-51 68-6 23-10 55-10 106-1 54 0 83 6 128 5 45 5 45 0 46-6 1-16 4-26 9-37 16-80 36-83 40-2 1-3 4-4 9 0 3-2 12-3 20-4 17-5 25-3 29 4 7 15 14 34 21 5 2 18 8 30 14 11 6 25 12 30 14s11 5 14 6c9 4 16 5 87 6 68 1 302 0 338-1z"/></svg>