<svg xmlns="http://www.w3.org/2000/svg" width="1344" height="566"><path d="M0 283V0h1344v566H0V283m868 273c4-3 7-14 8-30s8-67 9-74c1-3 2-10 3-16s2-14 3-18c2-7 2-7 1-24-2-27-2-30 6-26 3 1 7 4 10 6 5 5 12 9 15 9 8 0 11-10 7-22-3-9-11-25-16-31-16-20-21-30-26-52-2-9-5-20-6-24-1-3-4-13-5-20-6-21-8-25-22-31-10-4-13-7-15-14-1-5-1-7 1-14 2-10 2-10 0-19-3-10-8-18-13-24-7-6-8-7-15-9-13-3-19-1-27 8-6 6-9 13-11 21-1 4-1 7 0 14 4 19 5 34 3 39-1 1-5 6-10 10-7 7-9 9-12 17-3 5-7 16-9 24-4 13-4 16-5 32-1 21 0 69 2 79 1 10 8 24 15 32 3 4 6 8 7 9 0 1 1 5 3 9s4 10 6 13c5 14 13 26 22 36 5 5 11 10 13 11 9 6 14 11 16 20 1 6 4 26 5 42 1 15 1 16 4 18 2 2 3 2 16 2 12-1 14-1 17-3z"/></svg>