<svg xmlns="http://www.w3.org/2000/svg" width="1344" height="566"><path d="M0 283V0h1344v566H0V283m866 76c6-3 7-5 8-7 3-6 5-18 5-30 1-6 2-15 2-21 2-12 0-18-7-27s-6-8-11-34c-1-3-1-9-1-14s0-11-1-14c-1-2-1-8-2-14-2-23-10-37-27-46-5-2-6-2-16-2s-12 0-18 3c-8 3-13 9-16 16-2 7-4 29-3 38 0 7 0 8-2 10-1 1-3 2-6 2-5 0-11 3-14 7-1 2-2 6-3 16-1 9-2 15-3 17-10 19-11 21-16 24-10 6-16 10-18 12-3 4-6 24-5 31 0 2 1 5 2 6 1 3 9 6 20 6 6 1 14 2 21 4 15 4 27 7 37 8 4 1 12 2 16 3 5 1 17 3 26 5 8 2 16 3 16 4 1 1 9 0 16-3z"/></svg>