<svg xmlns="http://www.w3.org/2000/svg" width="1344" height="566"><path d="M0 283V0h1344v566H0V283m1339 279c2-3 2-4 3-16 1-8 1-91 1-187l-1-173-2-2c-3-2-11-3-18 0-4 1-7 1-12 0-15-1-36 7-49 19-6 5-8 8-12 16-2 6-6 13-8 17-2 3-5 8-6 11 0 3-2 6-4 8s-5 8-8 14l-5 9-1 15c-1 8-1 20-1 26 0 11 0 12-3 16s-5 6-11 9c-5 2-10 5-13 9-4 3-10 7-15 10l-8 5-9 12c-4 6-10 15-13 18-7 8-11 15-11 19 0 2 2 7 4 12 4 10 5 18 3 23-1 1-5 6-8 9-6 4-8 7-11 12-4 8-4 8 2 27 3 7 5 14 5 16 2 8 12 20 23 25 10 5 33 12 39 12 4 0 5 1 7 4 1 3 2 4 29 5 10 1 19 1 19 2h92l2-2z"/></svg>