<svg xmlns="http://www.w3.org/2000/svg" width="1344" height="566"><path d="M0 283V0h1344v566H0V283m593 278c25-1 28-2 46-14 10-7 14-10 20-18 10-11 12-16 10-27v-32c-1-19-1-25-2-30-2-8-2-9 3-36 7-32 7-60 0-72-3-7-13-19-23-28-26-23-40-38-40-45 0-3 5-7 13-8 4-1 9-2 10-2 5-2 9-7 12-16 2-5 4-11 6-15 4-8 5-14 5-30-2-27-3-36-11-59-2-4-4-11-5-14-2-9-8-21-14-27-8-9-15-12-43-18-10-2-17-2-36-1-12 1-15 2-22 7-9 6-14 11-19 17-3 4-7 9-9 11-3 4-13 20-15 25s-4 30-4 58c-1 18-1 29-2 30-1 3-5 3-10 2s-5-1-13 2c-4 2-10 4-12 5-3 1-9 5-13 8s-10 6-12 8c-14 8-20 12-21 15-1 2-1 8-1 21 1 10 1 19 0 20-2 7-5 3-9-12-3-9-6-17-8-17-4-2-13 2-35 14-27 14-41 25-45 34-3 6-6 24-7 39 0 12 0 12 2 16 4 6 7 8 19 15 19 11 36 16 62 17 19 1 24 2 28 6 1 1 2 6 3 14 1 6 2 14 3 18 0 4 1 9 1 13 0 7 0 9 4 22 5 16 9 42 8 59-1 14-2 13 9 18 7 4 8 4 23 5 19 1 59 1 79 0h20c2 1 8 2 13 2s9 1 10 1 11 0 22-1z"/></svg>