<svg xmlns="http://www.w3.org/2000/svg" width="1344" height="566"><path d="M0 283V0h1344v566H0V283m280 276c2-1 5-1 13 0 13 2 215 2 223 0 4-1 11-1 23 0 9 0 40 1 68 2 58 0 68 0 72-5 2-2 2-2 2-16 0-15-1-18-5-22-6-5-7-11-5-19 1-4 1-6-3-18-3-7-7-18-9-24-4-9-5-11-4-16 1-9-2-14-9-19-3-2-8-4-10-5-12-4-66-28-80-35-9-5-11-7-9-17 1-3 4-15 8-25 13-37 15-44 17-55 3-16 3-25 2-43-3-29-5-49-6-67-2-36-6-58-15-77-8-19-33-44-57-58-26-16-56-20-81-11-4 1-13 3-21 5s-17 4-20 6c-12 5-30 20-38 32-9 14-19 39-23 58 0 5-2 16-4 24-5 21-12 78-14 100-1 8-1 15-2 17 0 2-2 17-5 47-1 12-1 38 0 46 1 7 1 7-2 11-3 5-15 12-26 16-4 2-9 4-12 4-9 4-18 9-28 17-15 12-19 15-31 22-14 9-27 18-29 22 0 2-1 5-2 8s-4 11-9 19c-9 17-12 24-15 39-3 19-3 33 2 36 4 2 18 3 81 3 44-1 61-1 63-2z"/></svg>