<svg xmlns="http://www.w3.org/2000/svg" width="1344" height="566"><path d="M0 283V0h1344v566H0V283m765 276c70-1 68-1 74-9 3-4 7-19 12-43 1-9 2-11 5-11 1 0 6 5 13 11 16 17 31 25 48 29 8 2 14 2 30 2 13 0 22 0 23 1 2 1 4 3 6 5 2 3 4 4 10 5 13 3 29 5 38 3 4-1 12-2 16-2 10-2 13-4 15-11 1-5 0-8-6-21-6-11-9-15-17-20-6-4-9-10-11-20-4-18-11-27-34-40-8-4-12-7-19-14-12-12-39-40-41-43-4-5-15-24-19-31l-3-8v-13c1-19 0-23-14-50-7-12-10-15-16-17-3-1-8-3-12-5-11-5-11-7-7-16 4-8 5-14 8-29 1-7 3-16 5-22l3-10v-28c0-40-1-54-6-62-3-7-22-29-27-32-6-3-23-10-34-13-14-4-24-5-41-5-16 0-21 1-35 8-21 11-34 27-42 50-4 11-9 29-13 44-12 51-21 75-32 95-6 11-18 22-29 28-9 3-14 9-23 24-4 7-9 15-11 17-5 7-9 15-23 42-13 26-17 36-29 72-8 24-14 50-16 64 0 4-1 11-2 14-3 19-2 34 1 39 3 4 14 10 27 14 7 2 13 2 23 3s15 1 17 3c3 1 7 2 27 2 39 1 96 1 161 0z"/></svg>