<svg xmlns="http://www.w3.org/2000/svg" width="1344" height="566"><path d="M0 283V0h1344v566H0V283m612 279c15-2 15-2 21-10 11-15 14-18 22-27 13-14 15-19 12-35-1-6-1-12-1-21 1-12 2-85 2-109 0-21-5-37-15-45-7-7-34-31-43-37-7-6-13-13-15-17-1-2-1-3 0-5 3-4 6-6 14-8 15-4 15-4 25-30l7-17 1-13c0-19-2-40-9-69-4-16-8-25-14-34s-12-13-37-20c-12-3-13-3-28-3h-16l-8 3c-5 2-11 5-14 6-6 2-8 3-14 10-5 5-10 11-12 14s-5 8-8 11c-2 4-5 9-6 12-3 9-5 36-5 74 0 26-1 36-2 38-2 3-7 7-11 8-2 0-6 1-7 2-2 0-6 1-9 2-15 2-45 23-48 34-1 2-1 8 0 16 2 17 1 40-1 42-2 3-3 2-6-5-6-11-8-10-23 7-20 23-23 27-27 37-2 5-6 12-8 15-4 7-7 14-7 19 0 7 5 24 10 35 7 16 13 25 20 28 5 3 6 3 19 3h22l8-1 4 5c6 6 8 10 9 27 1 7 2 15 2 18 1 2 1 8 2 14 0 5 0 10 1 12 0 2 8 8 13 10 9 3 58 4 105 1 13-1 21-1 23 0 1 1 8 1 16 1 7 1 15 1 16 2 5 1 10 1 20 0z"/></svg>