<svg xmlns="http://www.w3.org/2000/svg" width="1344" height="566"><path d="M0 283V0h1344v566H0V283m713 277c34-1 124-1 200-1 130 0 139-1 141-2 1-2 1-2-1-4-1-1-8-7-17-13-14-9-17-10-28-14-7-2-14-5-16-6-4-2-18-11-30-19-3-2-8-5-12-7-3-2-9-6-14-10-5-3-12-8-17-10-15-8-26-17-36-26-5-5-10-11-11-13-5-6-27-51-29-58-1-4-3-9-4-11-4-7-22-27-32-35l-5-4 1-6c0-8 4-23 6-26 2-4 9-15 15-21 8-10 14-19 22-35 9-19 10-26 10-49 0-32-5-62-12-79-7-18-29-41-46-49-9-4-25-8-44-10-23-2-28-1-52 7-26 10-32 13-40 21-16 16-26 40-39 88-11 46-20 73-39 125-4 10-8 21-8 24-1 7-1 7 1 13 4 8 5 13 5 17-1 2-6 11-12 20-8 13-15 24-29 53-10 21-21 42-23 48-3 5-8 16-12 24-10 19-10 22-10 44 0 19 0 19 2 21 2 3 3 3 17 3 38 1 143 1 198 0z"/></svg>