<svg xmlns="http://www.w3.org/2000/svg" width="1344" height="566"><path d="M0 283V0h1344v566H0V283m354 277c27-2 212-3 244-1 31 1 217 2 226 0 10-1 11-3 12-13 1-8 0-21-1-28-3-11-9-19-24-32-10-9-25-20-35-27-26-16-42-27-50-34-6-5-14-16-16-24l-2-6 3-7c2-3 6-11 11-16 21-28 30-42 37-56 6-15 8-21 11-32 4-18 7-29 10-40 10-31 12-56 11-90-2-35-6-49-23-73-6-9-29-32-41-41-14-10-24-14-47-15-12-1-15-1-26-5-11-3-12-3-26-3-31 0-49 6-72 24-24 19-43 47-48 69-1 5-3 19-4 31-3 35-4 38-11 53-8 16-10 22-9 35 2 21 6 31 17 43 4 5 10 10 13 13 6 7 8 12 9 21 1 10-1 13-14 25-6 6-17 15-23 22-6 6-15 13-19 17-10 7-25 15-33 17s-17 5-28 10c-5 2-19 7-31 11-12 5-26 10-31 12-30 10-43 20-51 39-11 27-16 43-23 69-6 25-5 32 4 33 4 1 66 0 80-1z"/></svg>