<svg xmlns="http://www.w3.org/2000/svg" width="1344" height="566"><path d="M0 283V0h1344v566H0V283m520 278c29 0 77 0 105-1 65-1 83-1 128 0 20 1 55 1 78 1 46 0 46 0 48-6 1-3 0-13-4-27-1-4-2-12-3-18-1-20-6-26-30-34-3-1-13-6-23-10-18-9-34-16-44-20-11-4-23-10-25-13-5-5-5-12-1-43 3-16 6-29 9-36 5-8 8-15 11-31 8-33 9-56 8-98-1-25-2-36-5-78-4-36-11-58-25-79-8-12-20-20-39-28-7-3-40-13-56-17-28-8-59-10-77-4-23 8-60 27-72 39-12 11-24 32-35 58-5 14-10 28-11 35-2 6-8 60-10 75 0 3-2 20-4 36-5 45-6 54-7 64 0 5-1 18-3 30-1 10-2 25-3 32-4 40-8 56-17 66-5 7-22 22-32 28-5 4-13 9-17 12-4 4-13 10-19 14-16 10-25 17-27 21-2 3-9 23-9 26s2 5 5 7c1 1 20 1 76 0 42 0 100 0 130-1z"/></svg>