<svg xmlns="http://www.w3.org/2000/svg" width="1344" height="566"><path d="M0 283V0h1344v566H0V283m767 277c58-1 106-1 107-1 4-2 3-4-5-12-10-10-20-23-29-35-9-15-11-19-15-32-2-9-4-15-8-21-25-45-31-55-34-63-2-4-4-8-6-9-1 0-5-2-10-3-15-2-28-6-44-12-9-4-25-9-35-13-26-8-47-16-53-20-7-3-8-6-8-21 1-22 3-24 19-29 7-1 13-4 15-5 5-2 12-9 13-12 1-5 10-46 11-56 1-9 1-18-2-27-3-10-7-28-8-37-1-5-2-11-3-14-4-13-8-29-10-40-2-19-6-26-18-35-9-7-33-16-52-21-9-3-26-5-32-5-17 0-39 7-55 18-10 7-24 21-30 30-13 20-20 38-33 99-3 11-10 41-16 66-13 57-17 75-19 100-2 10-4 22-6 25-2 5-8 11-18 18-23 18-23 18-27 50 0 8-2 19-3 23-6 33-7 50-5 74 1 12 2 15 6 17s22 3 63 3c21 0 39 0 39 1 0 0 47 0 103-1h208z"/></svg>