<svg xmlns="http://www.w3.org/2000/svg" width="1344" height="566"><path d="M0 283V0h1344v566H0V283m652 278h157c36 0 60 0 62-1l6-3c2-2 2-3 2-18 0-24-4-51-8-60-5-8-22-26-34-35-10-7-45-30-48-31-5-3-16-11-20-15s-13-18-22-35c-5-10-5-11-5-18s0-8 3-15c7-12 31-52 35-57 6-8 7-10 10-24 2-8 4-16 5-19 2-8 7-28 9-40 3-22 2-58-4-77-5-15-17-34-31-49-13-13-20-18-31-24-8-3-11-4-20-6-6 0-15-2-20-3-30-4-30-4-44-3-15 1-26 4-37 10-22 12-42 33-52 55-6 14-8 20-13 61-2 18-3 21-8 30-6 9-7 15-7 30 1 13 3 21 11 33 5 8 9 12 16 18 5 4 7 9 9 24 2 17 1 20-5 29-7 8-30 30-39 37s-27 14-48 21c-7 2-18 5-25 7-6 2-16 5-21 7-24 6-40 13-46 20-5 5-12 16-17 28-2 5-6 14-9 20-5 11-12 27-17 42-2 5-6 15-9 22-8 17-12 30-11 33 1 5 0 5 66 5 34 0 77 0 96 1 18 0 40 1 49 0h115z"/></svg>