<svg xmlns="http://www.w3.org/2000/svg" width="1344" height="566"><path d="M0 283V0h1344v566H0V283m1180 279c6-1 15-6 19-9 7-7 8-13 3-18-2-3-19-17-30-24-2-2-7-5-10-8-4-3-9-7-12-9-20-16-40-35-43-41-2-4-3-14-1-23 3-18 5-40 7-65 0-16 1-30 2-30 0-1-2-54-3-73-1-4-1-14-2-23-2-22-4-39-11-73-10-52-22-79-47-102-14-13-32-24-58-33-27-9-38-10-61-5-7 2-16 4-20 5-7 1-23 7-33 11-19 9-37 25-49 41-13 20-18 33-21 55-1 10 0 31 3 43 2 9 2 27 0 48-2 17-2 58-1 80 1 15-1 46-4 50-2 4-4 6-12 7-3 1-8 3-11 4s-11 3-17 4c-6 0-14 2-18 2-3 1-8 2-10 2-3 1-11 2-17 4-17 4-48 10-60 11-18 2-28 6-37 16-10 10-21 33-28 55-6 21-15 41-21 51-7 11-17 32-18 38 0 3 0 4 2 5 5 3 19 4 55 4 27-1 74-1 88-1 25 1 193 0 203-1s24-1 44 0c55 2 219 3 229 2z"/></svg>