<svg xmlns="http://www.w3.org/2000/svg" width="1344" height="566"><path d="M0 283V0h1344v566H0V283m869 277c1-1 3-3 3-4 0-3-5-13-11-22-5-7-11-10-41-22-6-2-15-4-43-11-24-6-28-8-35-15-11-10-25-32-25-37s4-16 8-23c3-4 7-12 10-16 3-5 8-14 12-20 3-6 8-13 9-16 6-14 12-39 14-59 0-10-2-64-3-84-4-37-15-71-31-94-14-22-34-39-57-49-20-9-53-14-83-14-16 0-18 0-30 3-15 3-29 9-37 13-18 10-36 25-44 37-12 16-21 42-24 65-1 10-5 34-7 40-4 14-6 34-6 47v14l4 8c3 7 3 8 4 20s2 26 3 31c1 1 1 8 2 14 1 16 3 21 11 37 12 23 12 29-1 42-4 5-9 9-10 10-6 4-30 9-67 15-14 3-24 5-34 8-7 3-17 6-20 6-13 3-40 14-47 19-4 3-14 17-19 26-3 7-3 8-3 15-1 10 1 12 8 15 5 1 13 1 133 2h168c44-1 70 0 136 1 25 0 69 1 98 0 49 0 53 0 55-2z"/></svg>