<svg xmlns="http://www.w3.org/2000/svg" width="1344" height="566"><path d="M0 283V0h1344v566H0V283m501 276c4-4 3-15-3-30 0-2-2-8-2-11-2-17-10-42-16-51-7-11-24-24-47-37-9-5-13-8-13-12-1-3 0-6 5-11 2-2 5-9 8-15 7-15 15-22 31-30 5-2 10-5 12-7l3-4v-57l-5-10c-5-10-6-14-12-42-6-25-15-39-30-45-4-2-14-5-22-6-27-6-48-5-64 1-8 4-20 12-28 20-18 17-22 33-24 87-1 17-1 34-2 37-1 4-1 29-2 56l-1 48-2 6c-2 3-3 7-3 7 0 1-2 5-3 8-7 13-14 33-14 44-1 4-2 11-4 17-6 22-7 32-4 36l2 2 49 1h49s31 1 70 1h70l2-3m592-1c8 0 10-2 13-7 2-4 5-17 6-27 0-5 1-12 1-16 4-28 5-73 3-84-3-14-7-26-17-46-9-19-20-36-37-58-13-17-18-23-40-42-5-5-11-11-12-13-1-1-3-7-4-11-2-5-4-10-5-11s-4-2-10-3c-10-1-13-3-16-7-2-4-7-16-8-23-1-6 0-18 2-23 1-1 2-5 3-9 0-3 1-6 1-7 1 0 2-5 3-10s4-16 6-23c12-33 12-40 7-66-2-13-4-16-8-25-3-6-7-12-10-15-6-6-23-14-37-16-3 0-9-2-13-3-8-1-9-1-31 2-14 2-35 9-45 14-8 4-24 19-28 25-2 4-2 5-3 17 0 7-1 15-1 17-1 3-3 9-4 14-2 5-3 14-4 20-2 16-3 24-8 34-5 13-5 19 1 29 2 5 4 9 4 10 0 5 13 39 16 45 4 4 7 6 18 9 13 4 21 8 26 14s8 13 8 16c-1 2-5 6-9 10-5 4-11 10-13 13l-13 13c-8 9-10 14-12 26-1 6-4 13-8 23-5 12-11 26-16 39 0 2-2 8-4 13-1 4-4 14-6 20-2 7-5 17-7 24-1 6-3 16-5 22-6 25-12 59-12 67 0 5 0 6 2 8l2 2 69-1c77 0 170 0 212 1 14 0 29 1 32 0 2 0 7 0 11-1z"/></svg>