<svg xmlns="http://www.w3.org/2000/svg" width="1344" height="566"><path d="M0 283V0h1344v566H0V283m738 278c7-1 17-1 22-2 7-1 12 0 19 1 11 1 29 2 41 0 5-1 35-1 98-1 134 1 158 0 162-1 8-2 8-9 1-38-2-11-4-19-12-51-2-7-4-18-6-25-4-20-11-43-15-52-10-26-19-36-43-46-25-10-20-9-65-24-12-4-25-9-28-10-9-5-17-12-40-34-13-13-24-23-29-26-16-11-17-13-20-29-2-11-1-36 3-42 1-3 6-8 12-12 7-4 10-8 13-15 7-15 6-32-1-54-2-7-6-20-8-28-2-9-5-21-7-26-4-12-13-33-15-35-1-1-4-3-6-4-4-2-8-2-34-3-38-1-147-1-167 0-24 1-25 2-33 25-5 16-7 33-7 59 0 18 0 23 2 37 5 29 11 48 21 64 3 6 8 15 11 20 6 11 16 26 21 29 12 7 22 17 35 34 9 11 7 15-14 35-9 10-15 15-23 20-12 7-32 17-49 25-19 8-50 25-60 33-10 7-13 12-18 22-7 14-7 17-8 49-1 38-2 46-4 71-3 25-2 28 4 31 3 2 5 2 19 2 129 0 187 1 193 2 5 1 13 1 35-1m-417-6c7 0 16-2 21-2 5-1 23-1 41-1 29 0 33 0 34-2 1-1 1-1-1-3-5-4-23-16-27-18-6-3-19-6-30-7-5-1-11-1-12-2-5-2-20-23-26-35-2-5-2-6-2-17 0-7 0-17 1-23 2-13 5-38 5-45 0-4-5-31-7-37 0-2-4-7-9-12s-9-10-10-11c0-2 0-6 1-10 1-9 1-13-3-24-3-12-7-16-13-18-6-1-12 10-13 25 0 8 0 11 1 14 2 4 3 11 1 13-1 1-17 7-25 8-11 2-21 6-27 11-5 4-6 6-9 17-1 7-2 14-2 49s0 41-1 46c-3 9-6 12-16 16-8 3-10 3-20 3-13 1-25-2-42-7-5-2-14-4-19-4-8-1-10-1-16 0-25 7-71 39-76 53-3 7-2 9 4 13 5 2 6 2 29 3 14 0 34 1 47 2 12 1 30 2 40 2 9 1 29 2 44 3 58 3 112 3 137 0z"/></svg>