<svg xmlns="http://www.w3.org/2000/svg" width="1344" height="566"><path d="M0 283V0h1344v566H0V283m600 267c5-1 16-2 26-1 17 0 33-1 42-3 2-1 11-1 19-2 17-1 27-2 33-5 4-2 8-2 30-6 13-2 15-3 24-7 7-3 9-5 11-8 3-4 11-10 22-16 4-3 9-6 12-9 4-4 10-15 13-25 6-18 10-26 18-34 6-5 30-22 45-30 13-7 16-10 16-14 0-5-4-9-18-20-17-12-41-36-55-54-12-13-32-34-42-41-6-5-27-28-32-35-2-4-3-10-1-14 1-1 4-5 7-8 12-16 18-24 20-27 0-2 2-8 2-14 1-6 2-15 2-18 1-4 1-17 1-28l1-21-3-5c-4-7-11-13-23-21-19-10-30-14-46-13-12 1-18 4-28 14-8 9-12 17-14 27 0 3-2 15-3 26-1 25-2 32-4 36-2 3-6 5-24 14-12 6-17 8-27 11-6 2-15 4-19 5-9 4-25 12-35 20-21 16-67 73-75 93-10 23-11 44-4 58 4 7 4 11 1 16-2 4-12 17-17 21-9 9-32 38-35 45-2 5-1 14 2 14 1 0 6-2 10-5 6-3 10-4 12-4 6 0 15 2 28 8 27 10 31 14 31 27 0 6 0 9 2 14 2 4 3 8 3 10s1 4 2 6c1 3 1 4 0 6-3 6 0 9 12 12 19 7 35 8 58 5z"/></svg>