<svg xmlns="http://www.w3.org/2000/svg" width="1344" height="566"><path d="M0 283V0h1344v566H0V283m713 277c3 0 9-1 12-2 12-2 12-2 11-25 0-17 0-18 2-24 2-4 3-8 3-9s-2-3-4-4c-4-2-5-5-10-15-3-6-5-12-5-13 0-2-5-12-11-24l-5-11v-9c0-10 0-10-3-13-3-4-4-4-18-10-4-2-15-6-23-10-19-7-34-13-46-17-9-3-27-11-33-14-5-3-9-7-9-11-1-11 2-24 8-41 10-28 10-29 11-46 0-11 0-20-2-36-3-28-4-35-10-58-9-38-24-75-39-98-7-10-18-22-29-29-20-15-54-24-80-23-8 0-9 1-21 7-38 19-50 26-58 36-6 7-15 25-21 43-9 28-16 69-23 151-3 35-3 82 0 103s4 20-24 31c-14 5-19 8-44 24-9 6-21 14-27 17-16 9-17 11-19 24-1 5-3 14-5 20-7 23-8 28-9 35-1 4-2 8-2 10-2 4-4 24-4 30 1 12-1 11 42 12 22 0 46 0 59-1 25-2 25-2 56-1 69 3 368 3 380 1z"/></svg>