<svg xmlns="http://www.w3.org/2000/svg" width="1344" height="566"><path d="M0 283V0h1344v566H0V283m490 129c4-1 13-5 20-8 8-4 16-7 17-7s4-1 6-3c4-2 7-2 8 1 0 1 2 3 4 4 4 2 6 3 14 3 5-1 13 0 18 1 23 3 32 4 103 6 8 0 18 0 21 1s11 1 18 2c11 0 15 0 27-2 8-2 18-3 22-4s13-2 19-4 13-4 17-5 10-3 14-4c15-4 20-5 36-6 9-1 17-1 18-2 5-1 7-12 5-25-1-5-2-12-2-17-1-6-2-12-4-18-2-5-4-14-4-19-1-5-1-10-2-11-3-5-6-9-11-11-7-4-11-9-11-16-1-6-1-6 2-9 4-5 5-7 4-10-1-2-2-9-4-17-2-7-5-19-6-26-5-18-7-26-9-38-3-15-12-37-22-52s-23-25-44-35c-15-7-19-8-32-8-10 0-14 0-29 4-32 8-43 16-54 39-6 13-10 34-12 63-1 9-2 19-3 24 0 5-1 13-2 18 0 11-3 22-5 24-1 1-4 2-9 2-9 1-17 4-23 9-2 3-7 6-9 8-7 5-13 12-20 26-6 11-8 14-18 24-12 12-13 13-35 22-12 5-16 6-26 8-6 1-13 1-14 2-5 1-8 6-17 26-17 38-17 38-12 41 4 2 37 1 46-1z"/></svg>