<svg xmlns="http://www.w3.org/2000/svg" width="1344" height="566"><path d="M0 283V0h1344v566H0V283m941 276c44-1 49-1 53-4 3-2 3-5-3-20-5-13-7-20-17-40-3-6-8-17-11-25-5-16-11-29-17-41-2-5-7-16-10-25-4-12-5-17-6-25-1-10-1-11-11-27-4-6-8-13-9-16-1-2-4-6-6-8-6-7-11-12-13-16-3-5-7-17-7-19 0-1-3-7-6-13-9-17-8-21 2-35 6-8 7-11 11-24 7-31 10-88 5-109 0-3-1-8-1-11 0-5 0-7-4-17-2-4-3-9-4-11-2-7-11-24-18-32-3-4-7-9-8-10-3-4-19-18-25-20-7-4-14-5-40-6-27-1-104 0-118 2-22 2-41 13-62 34-17 17-27 37-30 61-2 19 0 57 4 75 1 3 5 11 7 17 8 15 11 22 13 35 4 19 11 43 22 73 1 3 3 8 3 10 7 21 15 35 23 43 6 6 7 7 15 10 8 2 10 2 26 3 17 0 17 0 21 3 7 5 16 22 15 28-1 1-6 7-11 13-5 5-15 16-20 22-6 7-16 18-22 24-16 17-21 25-23 39 0 8 2 15 10 35 8 17 10 20 15 23 4 2 19 4 36 5 24 1 174 1 221-1z"/></svg>