<svg xmlns="http://www.w3.org/2000/svg" width="1344" height="566"><path d="M0 283V0h1344v566H0V283m647 280c12-1 26-1 32-2 9-1 18-1 48 0 36 1 44 1 124-2 35-1 151-3 198-3 18 0 44 0 57 1 13 0 36 1 49 1 29 0 29 1 28-8-1-10-26-56-46-88-17-26-30-41-52-58-16-12-26-17-61-27-9-3-24-7-32-11-9-3-19-6-22-7s-8-3-12-4c-3-2-9-4-14-5-19-3-28-7-59-24-7-4-15-7-18-8-15-3-21-5-24-10-4-6-11-20-15-32-3-12-3-13-3-28l-1-14 7-16c4-8 8-18 9-22 2-11 1-24-3-36-1-5-3-12-3-16-5-46-9-67-16-79-2-2-6-7-9-10s-8-9-11-13c-15-19-20-22-42-24-5-1-13-2-17-3-9-4-30-5-41-3-3 1-10 3-15 4-13 2-30 7-42 13-13 7-32 18-36 21-3 3-8 15-12 26l-3 10-1 41v42l3 18c9 52 17 71 51 123 15 23 22 32 31 41 5 4 6 6 6 9 0 5-8 14-21 23-8 5-13 8-15 8s-43 21-58 30c-21 11-37 21-40 23-1 1-5 4-10 7-11 9-52 51-55 57-2 2-4 8-5 12s-4 12-7 18c-4 12-5 17-2 19 1 1 6 3 12 4 8 1 19 1 61 2h107z"/></svg>