<svg xmlns="http://www.w3.org/2000/svg" width="1344" height="566"><path d="M0 283V0h1344v566H0V283m811 277c26-1 55-2 64-2 11-1 49-1 118-1h102l1-2c1-1 2-4 2-6 0-5-4-20-7-26-4-7-15-16-32-26-3-2-13-5-23-9-9-3-20-7-26-10-12-6-28-18-37-25-6-6-15-11-26-17-9-4-19-12-37-30-15-14-16-16-21-25-2-5-6-12-9-15-8-11-10-17-20-48-3-12-3-14-1-20 1-4 3-12 4-23 0-9 1-21 2-27s2-15 2-21c2-17-1-63-5-85-6-37-19-59-38-69-10-4-32-10-46-11-12-1-27 0-37 3-9 2-34 13-40 17-14 9-26 26-50 72-26 50-57 96-83 126-9 8-6 10 7 4 11-6 12-6 14-3 2 2 2 2-1 12-3 9-3 10-3 22 0 15 0 15 10 27 6 6 8 9 8 11 0 3-4 10-18 29-6 9-20 28-30 44-10 15-22 33-27 40-17 26-19 33-22 63-1 15-1 20 0 23 2 7 3 7 29 8 25 1 195 0 276 0z"/></svg>