<svg xmlns="http://www.w3.org/2000/svg" width="1344" height="566"><path d="M0 283V0h1344v566H0V283m673 278c18 0 39-1 47-1 15-1 20-1 55-1 14 1 95 1 179 1 171 0 159 1 161-6 2-6-2-23-10-42-5-13-23-45-32-56-11-13-29-29-43-38-3-2-12-7-19-11s-14-8-15-8c-1-1-8-5-16-10-8-4-18-9-22-12-3-3-11-7-16-10s-11-7-14-8c-4-3-28-16-36-20-7-4-14-6-22-8-7-2-10-6-12-12-1-3-1-10-1-21 0-21 2-32 10-56 8-21 10-28 13-39 3-15 3-23-1-36-3-9-3-13-4-28-1-10-1-20-2-23-1-10-6-28-10-36-7-14-27-33-41-39-9-4-31-12-40-13-34-7-71-4-98 8-17 7-29 15-41 27s-18 21-22 34c-2 8-2 9-2 35 0 14 0 45 1 68 1 37 1 44 3 51 3 11 7 23 12 34 3 5 6 12 8 16s8 17 14 29c7 15 10 23 11 26 0 5 0 5-4 10-3 2-11 10-20 16-8 7-17 14-21 17-13 11-29 23-34 26-3 2-10 7-17 11-6 3-16 10-22 14-6 3-17 10-25 15-20 14-63 36-68 36-2 0-6 1-10 3-10 3-11 4-12 1-1-1-3-7-3-13-9-47-16-74-27-93-17-31-34-50-55-64-13-8-80-40-101-49-16-7-24-11-34-17-14-10-25-19-28-24-4-8-3-11 18-50 4-7 9-19 11-25 3-7 7-18 10-25 6-14 16-47 18-57 0-4 0-13 1-20V36c2-28 1-29-15-31C220 4 10 3 5 5H1v273c0 268 0 273 2 277 1 2 3 4 3 5 2 2 25 2 36 0 4 0 27-1 50-1s43 0 43-1c3 0 91-2 154-3h67c2 0 11 0 21 1 20 2 40 2 47 0h12c4 1 10 1 14 2 6 1 67 4 94 4 17 1 94 0 129-1z"/></svg>