<svg xmlns="http://www.w3.org/2000/svg" width="1344" height="566"><path d="M0 283V0h1344v566H0V283m240 278c40-1 37-1 50 0 10 1 39 1 132 0h172c32 1 65 1 87 0 32-1 36-1 40-3 4-1 5-3 7-6 2-6 1-9-5-15-3-5-4-8-6-21-2-17-7-23-18-22-6 1-21-1-26-4-2-2-4-2-7-1-3 0-4 0-7-2-5-5-6-17-1-25 2-5 2-6 3-26 0-22-1-33-4-47-1-5-3-12-4-15 0-4-2-9-3-11-6-11-11-38-15-79-3-30-10-56-20-73-4-7-16-17-22-21-11-7-40-18-60-23s-42-1-69 13c-23 11-36 26-41 47-7 27-8 36-9 76-1 33 0 66 4 103 0 9 1 19 1 22-2 16-15 24-21 12-2-4-2-8-3-28-2-22-4-35-6-44-1-2-1-7-2-12-1-4-2-12-3-17-5-24-10-34-18-41-2-2-8-7-12-11-12-9-17-13-22-16-6-3-7-5-7-10 0-3 1-4 7-10 7-7 9-9 11-19 4-13 6-51 4-70-1-12-4-27-7-37-6-17-22-29-47-34-26-6-49 0-65 16-6 6-7 7-9 14s-2 9-2 35v28l4 8c9 18 11 32 8 43 0 1-3 3-6 5-5 2-8 4-10 7-7 9-24 27-31 33-4 4-9 9-11 12-2 2-9 10-17 17-17 15-26 25-29 31-8 14-11 28-12 54-1 10-2 28-3 38-1 12-1 27-1 34 0 13 0 15 3 24 6 19 8 29 8 41 0 9 0 13 1 15 2 3 7 8 9 8 1 0 4 1 7 3 3 1 7 3 9 3 4 1 43 3 56 2 5 0 22 0 38-1m636-2h116c20-1 60-1 88-1 46 0 52 0 57 1 11 3 32 2 43-2 8-4 12-9 13-19 1-8 0-14-3-28-5-17-6-21-7-44-3-39-4-50-6-60 0-6-2-15-3-22-8-63-14-91-26-108-5-9-14-19-20-24-7-5-22-12-34-17-13-5-37-18-43-22-11-8-14-14-12-26s5-20 12-27c3-4 8-10 10-14 4-8 4-13 1-18-3-4-3-4-2-26 0-22 0-27-4-36-4-13-28-29-51-35-14-4-27-1-46 12-12 8-16 15-25 55-1 5-3 11-4 13-5 10-5 29 1 41 3 7 8 23 9 33 0 8-1 10-7 13-4 2-16 10-21 14-7 5-17 11-30 17-33 14-45 21-56 32-17 16-29 37-38 66-11 37-25 95-27 109 0 4 0 13 2 22 2 20 1 31-3 42-3 11-3 16 1 26 3 4 6 12 8 18 1 6 4 12 5 13 1 2 4 3 7 3 7 1 84 0 95-1z"/></svg>