<svg xmlns="http://www.w3.org/2000/svg" width="1344" height="566"><path d="M0 283V0h1344v566H0V283m453 277c29-1 86-1 127-1h190c26 0 58 0 70 1 55 3 70 2 80-2 6-3 14-10 15-16 2-7 1-22-2-32-3-8-18-35-25-44-3-4-6-9-8-12s-5-7-6-9c-2-2-6-8-10-13-9-13-18-23-36-41-19-21-38-44-43-53-1-4-3-8-3-9l-4-10c-4-11-8-19-12-31-3-8-3-9-3-20l1-12 4-8c2-4 6-10 8-13 4-8 5-12 1-21-5-9-5-13-1-19 2-5 3-7 3-13 0-7 0-7-8-19-6-9-10-13-14-14-1 0-7 0-14 1-9 1-12 1-16-1-5-1-14-1-22 0-6 1-16 6-25 12-7 5-10 6-20 6-4 0-10 1-14 2s-11 3-16 4c-10 2-12 1-16-7-4-7-6-15-8-38-1-23-5-42-10-55-13-33-37-51-80-57-23-4-45-1-73 10-10 5-14 7-22 14-14 11-20 17-24 26-11 20-13 32-11 64 1 20 1 21-2 30-2 8-2 10-1 16 2 13 21 46 29 50 4 2 12 12 15 18 2 5 6 24 6 29 0 7-5 16-14 27-4 5-8 10-10 13-5 7-11 13-25 26-25 22-29 25-42 31-6 3-13 7-18 11-4 4-10 8-12 9-8 4-18 11-21 14-8 10-10 26-8 54 1 15 5 41 7 48 1 2 1 12 1 22 1 18 1 20 3 24 2 5 3 5 11 7 5 1 68 3 73 2 1 0 26-1 55-1z"/></svg>