<svg xmlns="http://www.w3.org/2000/svg" width="1344" height="566"><path d="M0 283V0h1344v566H0V283m857 276c10-1 62-1 126-2 122 0 113 1 113-7 0-6-3-18-5-23-3-6-14-16-26-22-14-8-21-11-35-15-19-6-36-16-56-33-7-5-13-10-22-14-15-8-19-11-32-23-21-18-26-25-38-45-13-22-12-20-16-32l-7-21c-4-12-4-11 0-30 2-7 3-18 3-25 1-7 2-20 3-30 2-26 2-32-3-75-1-20-3-29-8-44-5-17-10-27-18-36-9-9-15-12-34-17-35-9-54-8-83 5-19 8-27 15-38 28-9 11-15 23-31 54-8 15-17 33-21 40-16 27-19 32-26 44-11 16-23 31-33 41-13 14-12 17 2 12 10-2 10-2 12 0 2 1 2 2 1 11-2 25 0 34 6 38 5 3 10 9 11 11 1 4-5 14-16 29-8 11-25 37-40 61-4 6-12 19-18 28-13 19-16 26-18 35-3 11-5 48-3 52 1 5 6 5 29 6 36 1 301 0 321-1z"/></svg>