<svg xmlns="http://www.w3.org/2000/svg" width="1344" height="566"><path d="M0 283V0h1344v566H0V283m824 277c5 0 59-1 119 0 108 0 149-1 156-3 3-1 5-2 6-6 3-5 3-17 2-30-1-11-3-16-12-33-4-7-8-15-9-18-4-10-13-19-30-28-4-2-9-6-12-8-3-1-9-5-14-7-15-7-35-20-43-27s-8-9 1-19c8-10 14-12 25-8 5 1 5 1 7 0 3-2 8-10 12-21s10-21 14-24c8-5 22-13 32-17 17-7 19-8 22-13 3-6 3-7-8-15-9-7-12-11-12-19 0-6 1-9 6-15 6-6 6-8 1-15-6-11-30-32-44-39-10-6-26-18-37-29-9-9-13-14-32-42-7-10-12-16-28-34-30-32-31-34-51-45-20-12-34-16-53-18-17-2-30 1-48 10-7 3-9 4-18 4-20 2-29 6-45 22-17 18-21 26-33 67-7 24-9 31-13 58-1 7-3 19-4 25l-2 11 2 5c1 3 2 7 3 10 1 2 2 5 4 7 3 4 13 11 17 12 8 1 18 9 22 19 2 2 4 6 6 9 5 6 10 16 13 23 2 7 2 9 3 29v21l-2 3c-2 1-4 3-5 4-2 0-7 2-12 4-10 5-27 10-53 18-13 4-28 10-53 21-13 6-23 9-39 10-6 1-13 3-15 3-2 1-8 10-20 28-10 14-20 29-23 34-7 9-11 17-13 25-1 3-7 13-13 24-6 10-11 19-11 21 0 3 2 4 11 4 5 1 13 1 19 2 7 1 19 1 30 1 36-1 182-1 183 0s79 0 91-1z"/></svg>