<svg xmlns="http://www.w3.org/2000/svg" width="1344" height="566"><path d="M0 283V0h1344v566H0V283m490 122c6-1 15-3 18-5 9-2 26-6 30-6 12 0 29 2 34 3 4 1 11 3 17 3 6 1 14 2 17 3 7 1 39 1 80 1h30c20 0 33-1 46-3 12-2 18-4 19-4 0-1 3-1 6-2s7-2 9-2c8-3 23-7 35-9 11-1 14-1 24 0 15 2 14 2 14-13-1-20-4-38-6-43-2-6-5-8-13-9-7-2-12-4-14-7-2-2-2-3-1-12 0-9 0-12-2-18-2-10-4-12-13-14-15-3-15-11 0-11 11 0 11-1 8-20-10-69-15-90-26-112-8-16-22-29-44-42-22-12-32-13-60-6-10 3-21 6-25 8-11 5-23 18-29 31-5 10-9 30-11 54-1 7-2 18-2 23-1 5-2 14-2 20-1 6-2 15-2 21-1 9-2 10-4 13-5 3-9 4-27 3-8 0-17-1-19 0-5 1-24 11-27 14-2 2-2 3-2 15 0 25-7 40-24 48-10 4-30 11-38 12s-12 3-15 6c-3 2-9 17-18 40-7 15-8 19-7 21 1 1 4 1 14 1 8 0 15 1 16 1 2 0 8-1 14-3z"/></svg>