<svg xmlns="http://www.w3.org/2000/svg" width="1344" height="566"><path d="M0 283V0h1344v566H0V283m842 278h110c64-1 95-1 98-2 6-2 50-1 64 1 26 3 40 3 70 1 15-1 34-2 42-2 18 0 30-1 32-4 3-2 3-5 2-14-2-11-6-24-16-42-24-48-35-59-70-71-6-2-15-6-21-9-19-9-43-19-52-22-11-4-17-8-29-19-19-19-29-22-44-16-9 2-15 3-19 0-6-3-19-24-21-34-2-9-1-11 5-23 8-17 10-23 11-34 1-10 6-25 12-38 4-10 11-27 18-48 10-32 10-58 1-89-3-9-5-12-11-18-3-4-7-8-8-10-1-3-5-7-8-10-4-4-6-6-7-10-2-4-8-11-10-11 0 0-3 0-7-1-7-1-16-6-26-13-4-3-10-6-13-8-12-5-31-6-49-4-15 2-56 13-66 18-2 1-5 2-8 3-6 2-28 12-39 19s-16 13-26 30c-6 9-7 14-8 30 0 14-2 20-14 54-8 25-8 26-8 35 0 4 1 13 2 18 1 6 2 19 2 40 2 64 2 68 5 74 7 13 19 40 24 54 6 19 10 29 15 35 5 5 14 11 23 13 9 3 10 4 6 7-3 1-10 7-18 13-7 6-19 15-27 20-26 18-38 27-50 39-6 7-13 13-15 14-8 3-14 12-19 21-3 9-3 9-2 11 2 1 7 2 49 2 26 1 52 1 56 1 5 1 18 0 29 0s27-1 35-1z"/></svg>