<svg xmlns="http://www.w3.org/2000/svg" width="1344" height="566"><path d="M0 283V0h1344v566H0V283m887 278c46 0 92 0 100 1 18 0 31-1 34-4 3-2 2-5-1-13-2-5-3-11-3-15-1-4-2-11-4-16s-3-9-3-10c0-2-7-26-14-49-2-6-3-15-4-21-1-11-2-14-10-36s-10-27-15-45c-5-21-11-36-15-40-6-5-16-8-34-12-20-4-33-10-46-18-12-8-18-13-20-17-1-3-1-3 2-10 2-4 4-8 4-9 0-2 1-6 2-10 5-16 5-42 0-70-4-21-7-30-18-41-11-12-27-22-41-25-8-1-15-1-25 2-3 0-11 2-16 2-13 2-17 4-25 9-17 11-25 20-31 32-2 5-2 6-2 21s0 16 3 29c4 13 4 15 3 23v8l-9 9c-11 11-16 18-19 24-6 11-15 44-15 53 0 1-1 6-2 10-1 6-2 10-7 18-4 6-8 15-10 20s-5 13-7 18-5 14-7 20c-2 9-5 15-11 27-8 15-13 27-18 45-2 10-2 12-2 29 0 16 0 21 1 27 5 17 11 24 29 28 7 2 11 2 21 2 7-1 15-2 18-2 3-1 8-2 11-3 5 0 6 0 9 2 2 2 5 4 6 5 3 2 29 3 74 2h117z"/></svg>