<svg xmlns="http://www.w3.org/2000/svg" width="1344" height="566"><path d="M0 283V0h1344v566H0V283m946 277c37 0 81 0 100 1 21 0 39 1 51 0 28-2 32-3 32-13 0-2-1-7-2-10-4-12-11-20-47-54-21-21-27-26-34-31-5-3-12-8-16-11-18-12-27-21-35-32-2-3-7-10-12-16-12-17-19-27-23-35-7-11-23-35-35-52-3-4-7-11-9-14-4-6-4-8-5-15 0-12 0-14 12-25 10-9 11-11 15-19 6-13 8-21 15-58 3-18 3-43 0-59-4-16-12-39-16-44-1-1-4-5-6-9-10-16-11-19-16-24-8-8-42-30-51-33s-92-3-116 0c-7 0-28 7-39 12-5 2-11 4-15 6-6 2-21 13-26 20-5 6-20 37-22 46-4 19-6 43-5 58 1 12 3 20 7 34 5 16 9 34 11 47 3 20 4 23 9 35 3 6 8 20 11 30s7 21 9 24c1 3 4 10 6 15 5 12 8 17 18 25l9 8h14c16 1 20 2 23 7 3 7-3 17-12 21-3 1-13 6-23 10-9 5-20 10-23 12-8 3-18 9-31 18-20 15-26 28-30 69-3 32-4 44-3 48 2 6 4 7 21 9 8 1 173 0 289-1z"/></svg>