<svg xmlns="http://www.w3.org/2000/svg" width="1344" height="566"><path d="M0 283V0h1344v566H0V283m1038 278c39-1 71-1 75-2 9-1 12-4 12-9 0-9-8-26-16-34-3-2-9-7-14-11s-12-11-16-15c-14-17-30-30-51-44-11-8-27-17-35-22s-16-10-18-11c-4-3-14-15-18-23-1-2-4-6-7-9-5-5-10-14-23-35-10-18-28-54-29-59s1-8 7-14c14-15 18-23 25-47 9-29 11-39 11-62 0-16-2-27-7-49-7-28-18-48-38-67-12-12-25-20-46-29-20-8-27-9-46-10-18 0-18 0-79 13-17 4-47 14-59 20s-21 14-28 23c-6 8-15 26-18 35-3 11-5 31-5 51 0 16 0 20 3 34 3 16 7 30 10 40 2 7 7 24 8 35 2 10 7 27 13 46 5 15 9 30 13 42 1 4 4 12 6 16 7 13 14 18 34 23 6 1 12 3 14 4 3 2 4 5 1 8-3 4-19 13-42 24-23 10-51 28-62 41-10 11-12 19-11 42 1 18 2 21 7 28 2 2 6 8 8 12 3 6 4 7 7 9 7 3 35 5 68 6h346z"/></svg>