<svg xmlns="http://www.w3.org/2000/svg" width="1344" height="566"><path d="M0 283V0h1344v566H0V283m736 278c125 0 135 0 144-3 11-4 14-27 8-66-3-22-6-27-20-40-11-11-18-16-62-46-24-16-27-18-39-41-5-11-9-20-10-23-1-7 4-21 14-40 3-5 10-18 15-30 10-19 10-20 12-32 1-6 4-18 5-26 5-17 6-37 6-61-1-18-2-26-6-38-7-22-23-42-48-61-14-11-28-16-45-18-5 0-15-1-23-2-32-3-54 2-74 16-16 11-33 30-39 44-8 16-10 29-12 59-1 24-2 29-7 39-3 7-4 8-4 21 0 17 1 23 6 34 5 9 13 19 20 22 5 3 11 20 11 34 0 5 0 6-4 12-5 6-27 27-33 31-1 1-4 3-6 4-4 3-17 8-26 11-2 1-7 2-11 4-4 1-11 3-16 4-16 5-44 13-55 17-21 7-27 12-37 31-8 16-23 50-39 91-4 9-8 19-10 22-4 9-8 21-8 24 0 1 1 3 3 4 2 2 3 2 61 2 33 0 67 1 77 1s42 1 72 0h180z"/></svg>