<svg xmlns="http://www.w3.org/2000/svg" width="1344" height="566"><path d="M0 283V0h1344v566H0V283m777 201c22-1 26-1 31 1 5 1 10 1 25 1 10-1 21-2 25-2 3-1 11-2 18-3 10-1 14-3 19-5l6-3 23-1c24-1 31-2 36-4 5-3 16-16 16-21 0-1 1-5 2-9 3-11 3-14-1-17-1-1-4-2-6-2-1 0-4 0-6-1s-12-9-13-12c-1-1-1-8-1-15 0-14-1-15-4-21-3-7-30-48-41-62-4-5-8-12-11-15-14-20-43-52-55-61l-6-6c-4-3-9-7-30-20l-48-36c-18-15-32-24-46-30-11-5-44-21-51-25-2-2-10-5-17-7s-14-5-15-6c-3-2-10-9-16-18-13-16-26-23-45-23-15 0-21 3-33 17-10 13-15 22-17 34s-2 15 0 23c2 9 5 14 8 16 6 3 8 5 12 12s8 11 17 18c7 5 9 8 9 14 0 3-1 5-5 10-6 8-19 21-27 27-3 3-11 10-17 16s-14 13-18 16c-9 7-10 8-30 36-17 24-24 34-32 43-6 7-10 15-16 31-5 13-5 13 8 13 11 0 14-1 25-11 14-12 18-16 25-19 3-2 8-5 12-7 8-5 14-7 21-7 3 0 5 0 6-1 0-1-1-2-3-4-2-3-2-4-2-8 1-3 2-8 4-12 3-7 5-9 15-18 7-6 16-14 20-17 16-15 35-27 41-27 3 0 8 5 20 20 4 5 10 13 14 16 3 4 8 11 11 14 5 7 10 10 14 10 1 0 3 1 6 2 4 2 7 6 7 10 0 3-8 19-11 22 0 1-2 4-3 8-3 6-5 9-12 19-6 8-16 13-31 15-7 2-8 2-11 6-3 3-4 5-4 6 1 2 1 12 2 24 0 18 0 23-1 26-2 5-1 13 1 17 2 3 3 6 3 7 1 4 3 5 17 6 9 1 12 1 14 0s4-4 7-11c3-5 6-11 7-13 3-3 9-5 14-3 4 1 5 5 5 17 1 4 1 8 2 8 1 1 5 2 12 3 14 1 72 0 105-1z"/></svg>