<svg xmlns="http://www.w3.org/2000/svg" width="1344" height="566"><path d="M0 283V0h1344v566H0V283m335 278c96-2 260-1 277 0 19 2 103 2 107 0 5-2 6-4 7-13 0-11 1-12 4-16l3-3-4-6c-2-3-5-8-7-12-4-8-5-9-16-12-12-3-28-11-56-26-5-3-18-10-30-15-49-23-47-22-43-37 0-4 2-8 4-11 4-8 20-23 27-25 4-1 16-8 23-13 4-3 9-8 11-13 3-6 5-14 6-35 1-11 3-27 4-36 3-18 3-47 1-116-1-46-2-58-8-74-8-25-16-33-58-56-18-9-30-15-52-22-23-8-30-9-50-9-27 0-38 2-58 13-8 5-18 10-24 12-5 2-14 6-19 8-12 6-19 12-25 24-5 9-28 74-30 86-2 8-6 32-6 42-1 4-2 15-2 24-1 9-2 23-3 32-1 8-2 20-3 26-3 33-4 46-4 59 0 19-2 37-4 49-2 5-3 14-4 20-2 20-11 53-16 62-1 2-6 9-12 14-5 5-12 12-15 17-9 12-24 26-37 34-20 13-23 20-10 25 6 3 28 5 47 4 10 0 43-1 75-1z"/></svg>