<svg xmlns="http://www.w3.org/2000/svg" width="1344" height="566"><path d="M0 283V0h1344v566H0V283m697 277c22-2 23-2 55 0 21 1 34 1 48 0 20-1 141-1 252 0h58l2-3c2-3 2-5-1-18-5-20-13-39-22-53-13-19-30-40-42-51-11-9-34-23-63-37-16-8-33-18-39-21-5-3-16-10-23-15-20-12-46-25-56-27-4-1-11-2-15-3-12-1-15-4-17-20-2-14-1-31 4-48 1-2 1-7 2-11s2-10 3-13c10-34 12-45 10-66-1-8-1-23-1-33 0-20-1-26-4-41-3-10-7-19-14-28-5-7-10-12-20-18-22-14-43-22-70-27-7-1-36 0-44 1-23 4-48 13-66 25-6 4-19 17-25 24-11 14-12 23-12 62 0 17 0 46-1 65-2 50 0 56 18 100 16 40 19 45 33 54 4 2 8 5 8 6 2 3-2 7-16 19-8 7-21 18-28 25-18 16-28 24-39 31-9 5-46 30-64 43-23 16-41 30-49 38-10 10-21 28-21 34 0 3 2 5 7 6 6 1 233 1 252 0z"/></svg>