<svg xmlns="http://www.w3.org/2000/svg" width="1344" height="566"><path d="M0 283V0h1344v566H0V283m655 278c39-1 40-1 48-25 9-24 9-24 9-37 0-18-4-41-10-54-2-5-3-9-4-16-1-12-4-16-16-21-5-2-16-6-33-13-7-3-14-6-15-6-1-1-5-2-8-4-3-1-11-4-17-6-19-8-34-15-37-19-4-4-4-8-4-20 1-11 5-29 12-52 3-11 6-30 6-42 0-9-2-28-6-45-2-12-4-18-13-50-8-26-21-54-35-73-9-12-25-26-46-38s-24-14-39-16c-8-1-17-2-22-2-10 0-25 3-30 6-2 1-8 4-11 6-4 2-10 5-12 7-3 1-9 5-13 7-15 9-25 20-34 40-11 22-17 45-24 92-5 34-10 89-11 126 0 33 1 42 12 60 3 5 5 11 5 12 0 4-5 7-20 12-19 7-27 11-43 23-20 15-26 18-35 23s-17 12-19 16c-1 1-2 6-2 10-1 5-2 10-6 20-7 15-13 40-15 56-2 15-1 17 2 20l3 3 52-1c29 0 60 0 68-1 9-1 17-1 17 0 1 0 38 1 179 1 58 1 104 1 105 1h62z"/></svg>