<svg xmlns="http://www.w3.org/2000/svg" width="1344" height="566"><path d="M0 283V0h1344v566H0V283m480 136c5-1 13-4 19-6 15-7 18-8 24-6 3 1 11 1 27 0 14 0 26 0 33 1 28 3 37 3 71 4 38 0 40 0 63 5 9 1 10 1 20 0 7-1 14-2 18-2 4-1 8-2 11-2 2-1 6-2 9-2s7-1 9-2c2 0 6-2 10-3 22-5 44-12 50-16 8-5 18-9 27-10 13-2 13-2 13-15 0-5 0-16-1-25-1-15-2-18-6-24-1-1-2-4-3-6-1-5-2-6-6-6-6 0-8-2-8-8 0-3-2-9-5-14-4-10-6-19-4-26 1-4 1-6-1-12-1-4-4-14-5-22-2-8-5-19-6-24-3-9-7-28-9-38-2-11-10-33-16-46-5-10-12-19-22-28-9-8-14-12-28-17-22-9-33-10-53-7-30 5-52 18-65 38-12 21-14 35-16 110-1 45-1 44-7 43-14-3-18-2-24 1-8 3-18 11-26 19-4 4-7 9-12 17-6 13-10 17-25 27-10 8-42 25-51 27-3 1-9 2-15 2-8 0-9 0-12 3-3 2-10 17-17 35-3 6-6 14-7 16s-2 7-3 9c-1 4-1 5 1 6 1 1 5 2 8 3 3 0 7 1 9 2 6 1 20 1 31-1z"/></svg>