<svg xmlns="http://www.w3.org/2000/svg" width="1344" height="566"><path d="M0 283V0h1344v566H0V283m715 276c4-1 8-1 22 0s28 1 60 0c47-1 109-1 233 0 64 1 87 1 89 0 4-2 4-7-3-29-7-23-14-37-34-63-23-31-40-44-93-71-17-8-33-17-37-19-39-24-41-25-56-33-15-7-22-9-35-11s-16-3-19-7c-3-6-4-14-4-28 0-16 4-37 14-88 3-11 3-14 3-42 0-48-3-66-12-84-10-19-21-29-45-40-20-10-37-14-60-16-25-2-46 1-70 11-24 9-33 16-47 30-20 20-24 33-20 64 1 13 1 17 0 27-1 7-2 28-2 46-1 44 0 53 10 79 2 5 4 12 5 15 3 8 14 34 17 40 4 8 13 17 21 21 4 2 7 4 7 4 0 1 0 2 1 2 0 3-8 12-34 35-29 25-34 30-42 36-26 17-50 35-66 46-4 4-12 10-18 15-14 10-34 30-40 39-8 12-10 20-4 22 4 2 253 1 259-1z"/></svg>