<svg xmlns="http://www.w3.org/2000/svg" width="1344" height="566"><path d="M0 283V0h1344v566H0V283m889 274c3-2 4-4 6-11 3-8 3-10 4-29 0-13 0-23 1-27 2-8 2-13-1-30-1-4-2-11-3-14 0-4-1-10-2-14-3-9-5-19-6-26-1-13-5-35-8-47-1-4-3-9-3-11-1-6-2-8-6-16-1-3-4-14-6-23-4-19-5-24-13-41-7-13-18-29-28-38-5-4-8-7-14-9-13-5-16-7-21-16-2-5-2-18 1-34 6-25 5-40-3-54-6-13-19-24-31-28-13-4-32-4-40 0-2 1-8 3-12 5-11 3-13 4-21 11-7 7-20 23-22 27-1 2-3 7-4 12-4 12-4 25 1 31 4 4 7 14 8 25s0 13-5 20-10 17-12 25c-2 6-27 58-31 64-2 2-8 11-16 20-11 14-15 19-26 28-7 6-17 15-22 19-4 4-9 9-12 11-5 4-17 10-19 10s-7-2-11-4c-11-6-21-8-47-9-29-2-35 0-35 8 0 5 4 12 8 17 6 6 5 8-7 13-10 5-10 6-9 11 2 5 8 12 16 15 5 3 8 3 23 4s19 1 26 0c4-1 11-3 15-3 3-1 13-3 22-5s19-3 22-3c18 0 30 12 30 32 0 6 2 9 9 13s9 4 14 0c6-4 11-5 22-3 5 1 12 2 16 2 7 0 12 2 13 5 0 1-1 5-1 9-1 4-2 11-2 16 0 9 0 9 4 13 2 3 4 5 5 6 2 2 5 6 9 9 6 8 10 10 17 11 18 3 32 3 75 3 26 0 54 0 63 1 10 0 28 1 42 1 23 0 24 0 27-2z"/></svg>