<svg xmlns="http://www.w3.org/2000/svg" width="1344" height="566"><path d="M0 283V0h1344v566H0V283m812 277c4-2 6-5 7-14 1-17-1-46-7-78-5-26-1-54 11-98 6-19 7-32 7-52 0-16 0-19-2-30-3-14-3-15 0-36 2-17 3-37 1-42-7-18-8-26-5-36 2-4 2-6 2-16-2-23-6-51-9-57-3-7-10-13-17-17-7-3-8-3-14-2-16 1-25 5-31 12-7 9-8 12-9 33 0 32-1 32-11 33-10 2-13 4-17 13s-10 29-14 51c-2 9-3 18-4 21-1 5-7 18-11 23s-5 5-13 2c-6-3-9-3-16-3s-9 0-11 2c-4 3-4 6 2 13 5 5 7 7 12 9 7 3 8 4 15 19l2 4h5c2 0 6 0 8-1 1-1 5-2 7-2 3 0 6-1 10-3l6-3 5 2c3 2 7 3 10 4 7 1 9 2 10 15 1 5 2 11 3 12 2 5 1 8-2 14-4 8-5 13-3 16 2 2 9 5 15 6 5 0 6 0 8-3 1-1 2-4 3-6 3-12 7-13 19-3 5 4 9 9 9 14 1 4-4 16-15 35-5 7-11 19-14 25s-7 14-9 17l-4 6 1 11c2 22 1 35-4 47-3 9-4 16-2 23 1 3 3 6 5 7s3 1 10-2c8-2 9-2 14-1 9 2 9 2 14 9 2 3 5 6 6 7 2 1 14 1 17 0z"/></svg>