<svg xmlns="http://www.w3.org/2000/svg" width="1344" height="566"><path d="M0 283V0h1344v566H0V283m280 276c8-1 14-1 20 0 5 1 77 1 196 1h186l6-2c7-3 11-8 12-14 1-4 2-10 4-26 1-6 2-11 2-12-1 0-2-6-3-12-1-12-8-34-12-43-2-4-4-12-4-17 1-16 0-17-22-27-20-9-62-28-69-31-13-4-35-16-38-19s-3-4-3-9c1-9 8-31 14-47 6-17 8-22 9-32 2-18-3-70-9-93-11-40-19-61-29-80-13-25-28-40-52-57-20-14-31-18-51-21-20-2-41 0-50 7-4 2-6 4-29 16-21 12-33 27-44 56-8 21-17 63-20 94-1 6-1 14-2 17 0 4-1 14-2 22-1 9-1 21-2 27s-1 23-2 39c-1 33-1 38 5 66 1 2 1 6 1 9 0 8-2 10-12 14-18 6-28 12-50 28-3 1-7 4-10 6-2 2-11 7-18 11-8 5-16 9-17 10-3 4-6 9-6 15 0 4-3 13-9 27-2 8-5 19-11 53-3 15-2 23 2 25 3 1 100 1 119-1z"/></svg>