<svg xmlns="http://www.w3.org/2000/svg" width="1344" height="566"><path d="M0 283V0h1344v566H0V283m907 278c6-1 7-7 0-19-8-16-15-21-37-29-12-5-54-16-74-21-14-3-18-6-31-23-9-12-9-13-9-18 0-6 3-13 11-27 4-6 8-13 9-16s6-12 10-21c20-39 21-49 23-123 0-45 0-54-6-74-8-34-29-69-51-89-10-8-31-22-39-25-20-7-34-9-70-12-17-2-21-2-43 3-25 5-34 9-47 18-18 13-30 26-39 41-12 21-19 43-22 79 0 4-1 12-2 17-5 25-6 36-6 52 0 13 0 16 2 22 3 8 3 14 3 33l1 17 3 1c2 0 4 1 5 2 3 3 5 11 4 15 0 2 1 10 2 18 1 7 1 17 2 20 0 6 0 9 2 14 5 13 4 16-10 30-7 6-11 9-16 11-6 3-35 11-50 14-25 6-50 13-82 25-22 7-26 10-32 21-2 4-6 10-8 13-6 9-8 15-8 19 0 6 2 8 8 10 7 2 36 3 78 2 23-1 78-1 123-1h127c30-1 47-1 51 0 13 2 209 3 218 1z"/></svg>