<svg xmlns="http://www.w3.org/2000/svg" width="1344" height="566"><path d="M0 283V0h1344v566H0V283m506 277c3-2 8-12 10-20 5-17 7-31 7-39 0-9-3-26-5-31-1-1-4-9-6-16-3-8-8-21-12-28-6-13-7-14-18-25-6-6-14-14-19-18-13-12-14-16-6-31 2-5 6-12 8-16 5-12 12-19 24-25s14-8 14-17c0-3 0-7-1-9s-2-11-2-19c-1-18-1-18-9-29-5-6-8-13-14-29-8-19-17-32-27-37-11-4-17-6-34-5-26 0-38 3-55 16-23 16-29 31-29 75 0 7-1 15-1 18-1 3-1 15-1 28 0 12 0 28-1 35 0 7-1 22-1 34 0 24-1 23 7 26 3 1 5 3 5 4 1 1-1 9-8 26-2 6-5 13-5 17s-1 10-2 14-3 14-5 21c-1 7-3 17-4 22-6 24-5 21-3 35 1 7 2 14 2 16s1 4 3 6l2 2h92c51 0 93-1 94-1m388-1c24-1 63 0 86 0 42 1 44 1 50-1 5-2 6-3 8-5 1-4 3-15 6-42 1-11 2-23 3-27 1-5 3-20 5-41 2-18 4-57 4-65-1-14-5-27-16-48-15-30-29-50-53-75-21-21-23-25-25-35-1-7-4-11-9-11s-14-5-17-10c-9-14-11-22-7-39 4-14 9-33 10-36 1-2 3-10 5-17 3-14 3-15 3-27-1-15-3-22-9-34-7-13-13-18-25-24s-32-11-41-9c-14 1-48 11-56 16-7 4-20 18-22 23-1 4-2 7-2 13s-1 12-3 21c-2 6-4 16-4 22-1 14-2 17-7 33-3 8-5 15-5 16 0 2 2 6 4 10s7 15 12 25c5 11 9 19 11 21 3 3 15 8 21 10 8 1 14 6 17 12 1 2 2 5 2 6 0 2-8 13-16 22-5 5-14 18-17 23-1 1-2 7-2 14-2 10-2 12-8 25-12 27-18 42-20 51 0 3-1 7-2 10-2 6-3 14-8 40-1 7-3 15-4 20-4 16-6 28-8 38-1 7-3 15-3 18-1 4-2 10-3 14s-2 11-3 16c-2 11-3 19-3 22l4 4c3 2 4 2 53 1h94z"/></svg>