<svg xmlns="http://www.w3.org/2000/svg" width="1344" height="566"><path d="M0 283V0h1344v566H0V283m867 276c6-1 8-4 9-9 6-19 5-76-1-100-2-9-7-16-16-25-12-11-32-26-46-35-20-13-22-14-27-19-10-9-23-28-29-42-2-4-5-9-6-12-5-7-5-11-1-17 16-28 31-60 38-82 1-4 3-11 4-16 0-4 2-15 4-22 5-21 5-26 5-44 0-17-1-30-4-40-2-10-8-24-13-32-10-14-32-34-47-41-7-3-8-3-25-4-10-1-18-1-22-2-11-4-28-4-44 0-9 2-24 10-34 17-27 23-41 52-41 88 0 4 0 12-1 18-1 9-2 12-5 18-5 11-6 17-6 30 1 10 1 12 4 18 2 4 7 11 11 15 4 5 7 9 7 9 0 1 2 2 4 3 6 4 9 10 12 24 4 22 3 37-6 54-5 10-13 18-25 27-11 8-29 18-42 22-34 11-65 23-73 28-8 4-13 9-16 15s-8 21-15 46c-2 7-4 16-5 19-4 14-18 73-19 81 0 5 0 6 2 8 1 2 3 3 5 3h231c155 0 231 0 233-1z"/></svg>