<svg xmlns="http://www.w3.org/2000/svg" width="1344" height="566"><path d="M0 283V0h1344v566H0V283m564 277c1-1 21-1 45-1 63 0 110-1 114-2 2-1 6-2 7-4l4-3-5-4c-4-4-5-5-6-11 0-7 1-54 2-68 0-5 2-10 2-11l2-3h25c27 0 36-1 72-5 30-3 42-5 52-6 5-1 13-3 18-4 12-2 19-4 30-11 20-11 33-21 41-33 5-10 5-14 0-25s-13-23-26-39c-18-20-25-25-45-35-10-5-11-6-24-19-7-7-14-13-16-14s-7-3-11-4c-12-2-20-5-28-10-4-2-10-6-13-8-7-3-7-3-16-3-10 1-12 1-33-10-7-5-18-10-23-12-13-5-15-8-15-16 0-4 0-10-1-13-1-4-2-14-2-22-4-31-13-58-24-73-10-12-27-24-46-30-18-6-49-12-59-11-19 2-26 5-47 15-18 9-26 14-33 22-13 14-29 41-38 62s-11 26-14 28c-2 1-5 3-6 5-4 3-20 13-32 19-6 3-19 10-29 16-21 14-33 19-53 27-9 3-18 6-20 7-9 5-23 23-28 35-5 13-7 36-5 54 3 17 5 22 15 36 7 11 11 15 19 23 8 7 12 12 15 18 8 13 9 18 7 43-1 10-2 20-2 24 0 8-3 28-8 52-2 10-3 20-3 20 1 1 2 3 3 3 2 2 7 2 45 1 43-1 133 0 149 1 10 1 42 0 44-1z"/></svg>