<svg xmlns="http://www.w3.org/2000/svg" width="1344" height="566"><path d="M0 283V0h1344v566H0V283m480 136c8-1 19-5 26-8 10-5 38-6 68-4 32 3 67 4 92 4 25 1 37 2 45 4 5 1 17 1 25 0 4-1 15-3 24-4 16-2 28-4 42-9 5-1 12-2 14-3 8-1 19-6 30-11 8-3 14-5 20-6 11-2 13-2 14-7 1-3 1-7 1-11-1-4-1-13-2-19 0-8-2-14-3-20-2-4-3-11-4-15 0-4-1-8-3-12-1-2-3-6-3-7-1-1-4-3-7-6-9-4-12-8-12-17-1-5-1-6 2-10 4-4 4-4 1-14-1-4-3-12-5-17-1-5-3-15-5-22-4-12-9-34-11-42-1-7-8-28-13-37-8-16-18-29-29-38-9-5-27-14-37-17-23-6-63 2-84 16-14 11-27 34-29 56-1 6-3 40-4 71-1 29-2 34-5 36-1 1-6 1-10 1-8 0-16 2-22 5-2 1-8 6-14 12-11 10-11 11-17 23-7 13-10 18-17 21-2 2-5 4-6 5-5 5-15 12-24 16-6 2-13 5-15 7-9 5-17 7-27 7-9 0-10 0-12 2-3 2-16 30-22 44-1 4-3 8-4 11-3 6-3 10-1 12 3 3 29 5 43 3z"/></svg>