<svg xmlns="http://www.w3.org/2000/svg" width="1344" height="566"><path d="M0 283V0h1344v566H0V283m909 278c28-2 30-2 29-12-1-9-6-17-16-28-5-5-10-11-11-13 0-2-2-4-2-6-2-4-4-5-15-8-11-4-21-8-34-17-13-8-23-16-27-23-9-15-14-25-23-43-5-11-5-13-5-19s0-9 3-15c3-8 6-12 13-16 4-2 5-4 8-10 3-4 7-10 10-13 4-5 5-7 7-12 0-4 1-11 1-17s0-13 1-15c2-8 5-34 5-42 0-6-1-11-6-26-5-17-16-34-28-46-18-17-27-21-60-27-8-1-20-3-26-4-16-3-26-2-40 2l-21 7c-18 4-25 9-29 22-2 6-3 7-3 40 0 34 0 39-6 61-1 5-1 13-2 30v24l-4 5c-6 8-20 21-26 26-7 5-8 7-8 20 0 15-3 17-13 9-12-10-12-10-19-9-8 0-8 1-15 6-11 10-19 23-24 41-1 5-4 14-6 19-4 8-4 10-5 18 0 5-1 12-2 15-1 7-1 7 0 13 2 4 2 8 2 11-1 7 0 14 2 15 1 0 3 1 5 2 4 2 10 9 16 19 3 6 7 10 10 11 11 3 67 5 166 5 38 0 83 1 99 1 36 1 77 0 99-1z"/></svg>