<svg xmlns="http://www.w3.org/2000/svg" width="1344" height="566"><path d="M0 283V0h1344v566H0V283m792 275c35-1 38-1 42-3 2-1 4-3 5-4 4-4 9-19 12-39 2-11 4-16 6-16 1 0 7 4 12 10 16 14 27 20 44 25 9 2 13 2 33 2l22 1 5 3c17 11 34 14 52 7 4-1 9-2 12-2 12 0 15-12 8-28-5-11-8-15-13-18-7-4-11-9-14-22-4-19-8-23-40-43-4-3-10-8-16-15-5-6-15-16-21-22-9-9-14-16-19-24-11-17-15-26-15-32 0-30 0-30-2-38-2-4-6-12-9-17-3-6-7-13-8-15-4-6-6-8-15-11-10-3-17-7-19-10s-1-6 1-16c2-5 4-13 5-19 1-7 4-19 6-28 2-14 3-22 4-38 2-32 1-51-4-60-1-2-8-9-16-17-12-11-15-14-23-17-17-9-30-13-55-15-6-1-12-1-13-2 0 0-4 1-8 1-21 3-47 22-58 42-8 15-11 25-25 78-8 32-8 34-12 45-5 14-12 29-16 35-6 7-20 18-28 22-7 3-15 8-18 12l-5 10c-1 4-5 12-9 18-9 15-25 46-34 68-12 26-13 30-20 54-12 40-17 70-17 96 0 19 2 22 25 29 16 5 16 5 29 6 10 1 12 1 17 4l5 3 25 1c28 1 122 0 182-1z"/></svg>