<svg xmlns="http://www.w3.org/2000/svg" width="1344" height="566"><path d="M0 283V0h1344v566H0V283m714 276c3-1 7-1 18 0 9 1 37 1 92 0 92-1 86-1 194 0 96 1 87 2 85-11-2-16-7-32-12-42-14-30-40-63-58-75-15-11-26-18-33-21-30-15-61-33-90-51-3-2-14-8-23-13-17-8-19-9-31-12-10-2-14-3-15-5-4-4-5-10-5-32 1-20 1-20 10-47 17-49 18-59 12-78-2-5-2-9-3-29-1-13-1-26-2-29-7-37-23-56-57-71-26-11-43-15-69-15-24-1-38 2-59 11-26 10-40 20-52 36-7 10-11 18-14 29-3 9-3 12-2 87 1 40 1 57 3 63 1 9 3 14 13 40 5 14 13 33 14 34 1 0 2 3 3 5 0 2 4 11 9 18 4 8 7 15 7 16 0 2-1 4-2 5-4 5-21 19-33 29-7 5-15 12-18 14-6 6-20 15-50 33-12 7-26 16-33 20-6 3-16 10-22 13-24 14-42 27-51 37-5 6-13 18-17 27-4 8-4 13 2 15 1 0 65 1 143 1 112-1 143-1 146-2z"/></svg>