<svg xmlns="http://www.w3.org/2000/svg" width="1344" height="566"><path d="M0 283V0h1344v566H0V283m864 15c2-4 6-8 8-11 4-6 4-9-2-20-4-4-6-9-6-10s-2-7-4-13c-9-26-9-30 0-39 6-7 12-10 24-12 12-3 13-3 22 2 7 3 10 6 14 15 2 4 4 6 4 6 1 0 2-4 2-9s1-9 1-10c1-1 4-4 7-6 3-3 6-5 6-6l-4-6c-2-2-5-7-7-10-2-2-8-9-13-14s-10-12-12-15-5-7-7-7c-5-3-6-6-4-22 2-18-1-28-11-34-4-3-5-3-13-3-11 0-15 1-22 5-7 5-10 12-12 27-1 10-1 13 0 20 1 5 2 10 3 12 0 1 3 2 6 3 6 2 11 6 11 8 0 1-1 3-2 4-5 4-10 9-13 14-4 6-13 11-16 9-3-1-5-5-6-11-1-13-11-24-32-37-2-2-6-5-8-6-2-2-5-4-7-4-4-2-7-6-9-15-1-4-1-7 1-15 3-18 3-22-3-28-4-5-9-7-18-7-7 0-10 1-15 3-8 3-10 6-13 16-1 6-1 7 0 17 1 6 3 12 4 15 2 7 5 17 5 19s-1 3-5 7c-8 6-10 9-13 20-2 4-4 10-4 11-1 1-2 6-4 11-2 7-2 12-4 34-1 2-1 5-2 6 0 1 0 2 1 3 2 0 4-1 8-5 9-9 10-9 23-9 8 1 13 1 17 3 7 3 8 4 12 10 7 13 11 32 9 46-1 4-1 5 3 12 7 12 10 15 12 9 7-16 11-29 12-39 0-10 2-17 4-19 1 0 6-2 11-2 5-1 13-2 17-3 15-2 15-2 17 0 1 3 1 5 1 15-1 7-1 24-2 38 0 22 0 27 2 29 1 4 3 4 7 1 3-3 4-3 8 1 2 1 4 2 5 2s4-3 6-6z"/></svg>