<svg xmlns="http://www.w3.org/2000/svg" width="1344" height="566"><path d="M0 283V0h1344v566H0V283m501 277c2-2 2-3 2-9 0-7-1-10-5-22-1-2-2-8-2-13-1-13-6-28-11-40-7-16-15-24-35-36-6-4-13-8-15-10-2-1-5-3-7-4-8-5-9-11-3-18 1-2 5-9 8-14l7-14c4-5 16-14 24-17 3-2 8-4 10-6 6-4 6-5 6-36v-27l-4-9c-6-11-8-18-12-35-4-23-10-36-19-45-8-8-16-11-51-17-15-2-38 0-50 5-7 4-19 12-26 19-17 17-21 32-23 86-1 17-2 35-2 40-1 5-1 26-2 53v47c-1 4-8 20-11 27-6 12-13 34-13 42 0 3-1 8-2 13-7 20-9 36-5 39 1 1 11 1 50 2h49s31 1 70 1c67 0 70-1 72-2m593-2c4 0 7-1 8-1 5-2 8-15 10-33 0-6 1-15 2-20 2-15 4-50 4-61 0-6-1-14-1-19-6-28-26-66-56-106-11-15-20-24-28-31-4-3-11-10-16-15l-9-8-2-10c-3-12-4-13-15-14-13-2-15-4-20-18s-5-21-2-34c2-4 4-11 5-16 2-11 7-29 9-33 3-9 9-31 10-38 0-8-1-19-4-34-2-11-10-27-16-34-5-5-20-13-31-15-3-1-10-3-14-4-11-2-20-2-36 1-13 2-34 8-43 13-8 3-26 18-30 24-3 4-4 5-4 19-1 13-1 16-4 26-3 7-4 15-5 21-2 18-4 28-8 38-5 13-5 19-1 28 2 3 5 10 6 15 3 10 11 32 14 37 3 6 6 9 15 12 22 6 29 11 35 22 5 9 4 11-10 23-6 5-11 10-11 10s-4 5-9 10c-10 11-12 15-14 27-1 8-2 12-7 22-3 7-11 26-17 42 0 2-2 8-4 12-1 5-4 14-6 20-3 10-6 21-10 40-1 5-3 13-4 16-1 4-3 13-4 19s-3 16-4 22c-3 15-3 21 0 24l2 2 79-1h96c32-1 131 1 132 2h6c3-1 8-1 12-2z"/></svg>