<svg xmlns="http://www.w3.org/2000/svg" width="1344" height="566"><path d="M0 283V0h1344v566H0V283m472 277c6-1 20-1 30-2 9 0 30 0 46-1 15-1 38-1 50-1 12 1 33 0 45 0 17-1 24-1 30 1 12 1 51 2 159 1 114-2 134-2 172-1 33 1 36 1 33-4-1-2-24-18-37-25-4-2-10-6-14-8-5-3-24-13-59-29-3-2-8-5-10-7-7-7-19-22-21-25-3-5-2-11 1-18 1-3 3-8 4-11 3-7 25-56 31-69 14-28 20-35 30-39 14-4 24-14 36-33 8-12 13-24 14-31 1-9 1-23 0-25s-4-5-7-8l-6-6v-6c0-3 1-10 2-17 2-9 8-47 10-64 2-12 3-32 2-41-1-8-1-10-12-32-13-25-16-30-26-39C959 5 961 5 853 4c-82 0-85 0-98 2-8 1-15 3-17 4-6 4-22 36-30 57-7 22-9 35-12 63s-4 36-6 40c-1 4-5 7-8 7-1 0-4 1-7 2-12 7-17 28-11 55 5 20 12 33 26 45 7 6 9 11 9 24s-3 44-5 54c-4 18-12 35-19 40-3 2-4 2-19 2-8 0-19 0-23-1-8-1-15 0-19 3-1 1-8 8-15 16-15 17-30 32-37 38-6 4-14 8-27 14-5 2-12 6-16 9-4 2-17 10-27 16-12 6-24 13-28 16-4 2-11 6-17 9-11 6-34 21-43 29-5 4-7 6-7 7 1 3 4 4 29 5 28 1 32 1 46 0z"/></svg>