<svg xmlns="http://www.w3.org/2000/svg" width="1344" height="566"><path d="M0 283V0h1344v566H0V283m944 279c25 1 143 1 158 0 16-1 17-1 23-4 8-3 18-12 20-18 1-2 2-5 2-8 0-5-3-8-8-8-4 0-5-1-16-13-4-5-6-5-17-2-10 2-13 2-19-3-2-2-7-5-9-6-10-6-17-17-33-58-3-8-8-19-10-24-2-4-7-15-10-23-14-39-25-61-36-68-2-2-18-11-35-19-18-9-34-18-37-20-7-6-9-10-9-24 0-6 0-16 1-20 2-13 2-39 0-48-3-19-12-39-24-54-6-7-8-10-20-17-34-23-40-25-67-29-19-2-30-1-42 2-11 4-33 14-42 20-9 8-23 24-29 36-2 5-7 21-8 30 0 7-2 13-11 30-3 7-6 15-7 18-1 2-1 12-2 22 0 15 0 17-2 21-3 5-9 9-22 13-29 10-52 20-65 29-17 12-21 18-27 40-4 11-10 29-15 39-8 20-25 56-35 73-11 21-15 30-21 51-2 6-5 15-7 20-2 4-4 9-4 9 1 3 5 5 12 6 5 1 11 2 71 4 30 1 76 1 138 0 31 0 38 0 42 1 4 2 48 2 122 0 38 0 50 0 62 1 7 0 14 1 14 1 1 1 5 1 9 0h15z"/></svg>