<svg xmlns="http://www.w3.org/2000/svg" width="1344" height="566"><path d="M0 283V0h1344v566H0V283m713 279c3-3-1-16-7-29-9-17-22-28-48-38-14-5-27-8-43-10-12-1-20-4-27-8-6-4-12-10-14-15-1-3-1-3 1-5l2-2s5-2 9-4c13-5 17-9 25-25 3-7 7-16 8-20 5-18 8-27 11-32 6-12 14-39 15-51 1-4 2-9 3-12s2-7 2-9c0-7 5-4 12 7l10 15c6 8 8 10 10 10h2v-12c0-14-3-28-10-54-2-6-4-14-5-18-1-3-2-8-3-12-1-3-3-10-4-16-6-24-9-34-17-50-4-9-10-19-13-23-6-9-28-31-40-40-19-15-26-17-86-26-25-4-53 1-78 14-27 14-47 35-59 62-8 17-10 32-10 62 0 21-2 49-3 55-2 8-4 31-5 57-1 27-1 27 8 47 4 10 4 11 4 18 0 6 0 9-2 11-7 12-17 25-20 29-6 7-15 11-31 15-8 2-16 4-19 4-3 1-8 2-10 2-9 2-41 9-51 13-12 3-32 12-38 16-10 7-17 16-20 28-3 14-1 23 8 31 6 6 10 8 20 11 7 2 8 2 78 3h151c115 0 200 0 212 1 18 1 70 1 72 0z"/></svg>