<svg xmlns="http://www.w3.org/2000/svg" width="1344" height="566"><path d="M0 283V0h1344v566H0V283m421 278c29 0 59 0 66 1 14 0 16-1 17-6 1-4-1-22-2-25-1-2-3-8-4-14-2-15-4-25-6-32-3-10-10-22-15-27-7-8-24-20-39-28-7-4-10-7-12-10-2-4-1-7 3-11 3-3 5-8 8-14 5-13 5-13 15-22 6-5 11-8 17-11 5-3 11-6 13-8 3-4 3-1 2-38l-1-24-5-9c-5-10-7-16-9-28-2-10-7-27-11-35-2-4-6-10-9-13-8-9-15-12-41-17-17-3-20-3-30-3-25 2-41 9-58 27-15 16-19 30-21 79-1 15-2 35-3 44-1 14-1 27 0 56 0 34 0 39-1 45-1 4-3 8-4 10-1 1-3 4-3 7-1 2-4 7-6 12s-5 12-6 15c-1 4-3 9-3 10-1 1-2 7-2 12-1 8-2 14-5 24-3 8-4 15-5 21-1 13-5 12 51 12 25 0 47 0 47 1h4c3-1 29-1 58-1m673-3c8 0 11-2 13-7 2-3 3-6 3-8 2-7 4-29 6-47 0-10 1-23 2-29 1-13 1-33 0-41-3-20-17-51-36-81-17-27-33-45-59-69-11-10-13-13-16-23-2-10-4-12-15-13-6-1-10-2-11-4-3-2-7-10-10-20-2-10-2-14 1-26 1-3 2-9 2-13 2-11 7-30 11-40 1-4 4-13 7-21 4-16 4-23 1-43-3-14-5-20-10-30-10-16-21-22-53-29-14-3-40-1-63 7-19 6-26 11-40 24-8 8-9 12-10 26 0 12 0 13-4 27-4 10-5 16-6 26-1 14-3 21-8 35-2 5-4 11-4 13s2 6 4 10c2 3 5 11 6 18 4 13 12 33 15 38 2 4 6 7 18 10 20 7 25 10 31 21 6 10 4 13-11 26-9 7-22 21-29 30-1 2-3 7-4 13-3 15-5 19-8 26-8 19-17 44-21 58-2 5-4 12-5 16-6 19-16 61-18 75-1 5-3 12-3 15-5 22-5 28 1 30 2 1 21 1 80 0h93c37 0 132 1 132 2h6c3-1 8-1 12-2z"/></svg>