<svg xmlns="http://www.w3.org/2000/svg" width="1344" height="566"><path d="M0 283V0h1344v566H0V283m732 279c3-1 15-1 47-2 34 0 45 0 54-1 10-2 16-2 42-1 28 1 67 1 79-1 3 0 6-1 7-1 3-3 0-16-10-52l-5-16v-28c1-14 2-35 3-46 0-11 1-29 1-42 0-15 1-28 2-36 2-25 1-32-7-48-7-15-16-25-53-58-11-10-15-15-16-21-1-2-1-13-2-25-1-24-2-34-5-44-8-25-19-41-42-56-5-4-13-10-17-14-5-3-11-8-13-9-9-6-28-10-54-12-12-1-16-1-24 1-33 5-65 27-83 55-8 14-15 28-18 37-2 5-4 14-5 23-3 20-5 25-17 33-3 2-20 10-37 19-18 9-34 17-37 19-6 5-16 16-19 21-3 7-6 17-7 29-1 16-3 28-8 44-2 8-4 20-6 26-1 6-4 16-6 22-5 19-8 34-12 51 0 5-1 8-1 9-1 0-2 6-2 12-3 20-7 26-27 39-16 10-41 22-61 29-23 8-23 8-71 12-22 1-27 1-38-2-4-2-12-4-17-4-13-2-19-5-22-11-2-4-4-7-7-7 0 0-3 2-7 5-6 6-20 13-24 13-5 0-12 4-18 10-3 3-7 6-8 7-3 2-4 3-1 6 1 1 4 2 8 2 12 2 52 4 62 4 5 0 12 1 14 1 6 2 18 2 29 0 10-1 158-2 167 0 2 0 6 1 9 3 2 1 7 2 12 3s44 1 100 2c50 0 96 0 101 1 16 1 66 1 70-1z"/></svg>