<svg xmlns="http://www.w3.org/2000/svg" width="1344" height="566"><path d="M0 283V0h1344v566H0V283m336 278c60-2 213-3 264-1 38 1 204 1 215 0 8-1 10-2 12-4 4-4 5-12 3-29-2-20-5-27-19-40-12-12-52-41-68-49-8-5-21-14-24-17-9-12-15-22-15-24 0-1 1-3 2-5 1-1 4-6 6-11 5-10 17-25 35-43 9-9 15-15 19-21 9-14 31-58 35-72 11-33 15-69 11-94-2-11-7-26-12-37-6-13-19-31-30-43-13-12-19-16-37-22-8-2-18-6-24-8-18-8-30-10-52-10-16 0-26 2-40 7-32 13-55 33-68 58-5 11-8 18-15 40-8 25-10 31-19 40-8 9-11 15-14 26-3 12-3 30 0 38s12 27 16 30c6 6 6 9 5 25-2 23-2 26-8 29-8 4-15 10-30 24-8 8-18 17-21 20-9 8-22 14-33 18-5 1-12 3-16 5-10 4-27 11-32 13-28 10-54 21-61 24-15 8-24 20-31 40-2 4-4 11-6 15-5 12-12 38-16 61-2 10 0 16 7 17 5 1 27 1 61 0z"/></svg>