<svg xmlns="http://www.w3.org/2000/svg" width="1344" height="566"><path d="M0 283V0h1344v566H0V283m777 276c30-1 35-1 39-3 5-3 9-9 13-25 1-3 3-6 4-6 1-1 6 1 9 4 3 2 16 12 25 18 3 2 9 5 14 7l8 3h30c42 0 110 1 122 2 11 1 72 0 74-1 2-2 1-4-3-11-3-4-7-12-10-19-11-29-12-31-25-39-17-11-22-13-40-18-12-4-32-16-53-31-10-8-17-13-25-16-17-8-22-12-43-34l-18-20-6-14c-8-17-15-37-15-42 0-1 1-7 3-12 2-8 2-9 3-41 0-18 0-39-1-47s-1-20-2-27c-1-17-4-40-8-57-3-19-8-27-22-38-9-7-20-12-37-16-25-6-49-6-65 0-3 1-11 3-16 5-13 3-21 7-28 13-6 6-18 24-30 46-19 33-33 50-64 82-12 13-27 29-32 36-19 23-19 23-15 28 1 3 2 5 2 9 0 5 0 6 4 10 4 5 4 7 5 17 2 14 4 19 12 21 14 4 18 6 18 12 0 4-3 9-12 21-4 4-10 13-13 18-12 18-25 35-41 56-18 24-22 31-26 45-3 12-8 45-8 54 0 8 1 9 12 10 8 1 230 1 261 0z"/></svg>