<svg xmlns="http://www.w3.org/2000/svg" width="1344" height="566"><path d="M0 283V0h1344v566H0V283m692 189c12-6 13-7 14-28 1-9 1-17 2-19 1-1 2-12 3-24 2-41 2-39 23-64 5-5 11-12 14-15 3-4 7-8 9-9 5-3 6-5 3-14-1-3-2-9-3-13 0-7 0-8 3-13 9-16 13-29 14-44 1-9-1-28-3-33-1-2-3-5-5-7-5-4-7-8-7-15 0-4 0-9-1-12-1-6-6-25-9-32-2-5-6-8-12-10-9-2-15 0-22 8-3 3-6 7-7 8-1 4-5 24-5 29 0 2-1 5-3 8-4 5-5 6-15 10-1 0-5 3-8 6-4 3-9 7-12 9s-7 6-8 7c-3 4-12 9-16 9-1 0-4 1-6 3s-6 4-8 5-4 4-6 6c-2 5-7 7-13 10-3 0-6 2-6 2-3 5 2 12 11 15 11 3 12 3 17-2 6-5 7-6 17-6 4-1 9-2 10-3s4-2 5-2c2-1 6-1 9-2s7-3 10-4c4-2 4-2 6 0s9 19 9 22c0 2-1 4-2 6-2 2-5 6-7 9s-5 7-7 9c-6 8-7 11-8 27 0 17 0 19 5 19s8-3 15-12c6-8 8-9 11-6 3 2 2 6-6 25-2 5-5 12-6 15-2 4-3 8-4 10s-3 29-5 55c-1 19-2 23-9 40-5 12-5 13 3 17 7 4 8 4 16 0z"/></svg>