<svg xmlns="http://www.w3.org/2000/svg" width="1344" height="566"><path d="M0 283V0h1344v566H0V283m623 34c1-1 2-5 3-8 2-6 2-8 1-12-1-3-1-6-1-7 2-3 7-4 19-3l10 2 6 6c7 7 8 8 15 6 5-1 7-5 8-17 0-6 2-13 3-15 0-3 2-7 2-9 2-8 6-21 8-24 3-4 6-6 15-7 18-2 20-3 21-4s1-4 1-8c-1-6-2-8-8-21-28-53-26-52-46-59-10-3-19-8-20-11-1-1-2-8-2-14-1-15-2-18-9-25-9-9-17-10-28-3-6 4-9 8-9 14 0 7 3 19 6 25 2 4 3 8 4 13v7l-9 9c-13 12-16 19-19 37-1 5-1 7 1 11 1 4 1 7 1 23-1 12-1 20-3 24-1 5-4 21-4 24 0 1 4 8 8 15 5 7 9 14 9 16 0 1 3 3 6 6 3 2 5 4 6 5 0 3 2 5 4 5l1-1z"/></svg>