<svg xmlns="http://www.w3.org/2000/svg" width="1344" height="566"><path d="M0 283V0h1344v566H0V283m481 133c7 0 17-3 23-7 3-1 9-3 13-5 8-2 10-2 17-1h24c9 1 21 2 30 3 16 2 40 4 80 5 16 1 31 1 34 2 12 2 26 2 34 1 4-1 12-2 17-3s12-2 14-3c3 0 7-1 9-1 3 0 10-2 16-3 7-2 16-5 20-5 4-1 11-3 17-5 21-7 28-9 36-10 10 0 14-2 15-6 0-1 0-11-1-22-1-19-1-21-5-32-2-6-4-13-4-14s-1-6-3-11c-3-9-3-9-10-14-9-6-10-9-11-17 0-6 0-6 3-10 4-4 4-4 1-12-1-4-3-12-5-18-2-7-4-17-6-22-3-9-6-21-11-44-3-17-11-36-21-50-8-13-24-26-43-34-21-9-34-10-61-3-26 6-39 13-49 27-12 17-18 39-18 69 0 6-1 14-1 19-1 4-1 17-2 29-1 22-2 28-5 30-1 0-6 1-11 1-12 1-19 4-29 12-14 12-17 15-23 28-7 15-9 18-16 23-3 2-8 6-11 8-3 3-9 7-15 10-5 2-12 6-16 8-10 5-18 7-28 7-12 0-15 2-19 10-4 10-14 31-16 36-5 13-7 19-7 20 0 3 5 4 19 5 8 0 16 1 17 0 1 0 5 0 8-1z"/></svg>