<svg xmlns="http://www.w3.org/2000/svg" width="1344" height="566"><path d="M0 283V0h1344v566H0V283m800 279c27-1 50-1 51-1 0-1 20 0 43 0 49 1 78 0 83-2 6-4 6-8-6-43-9-29-10-33-11-51 0-9 0-22 1-31 1-8 2-27 2-42 0-14 1-32 2-39 1-14 1-20-4-33-5-12-9-19-23-34-12-13-24-23-43-38-17-13-18-14-19-39-2-44-6-61-21-82-8-12-14-17-28-27-39-28-45-30-82-32-27-1-28-1-46 6-25 10-43 24-57 46-5 9-18 38-21 46 0 3-1 9-1 14 0 11-2 28-3 33-2 5-10 10-41 26-30 15-36 18-45 26-11 9-13 16-15 40-2 18-3 23-8 43-1 8-4 21-6 28s-4 18-6 22c-1 5-3 14-4 20-9 39-11 55-12 82 0 13-1 30-2 38v15l3 3c3 4 4 4 13 4 4 1 44 1 88 1 44 1 81 1 81 2h43c24-1 66-1 94-1z"/></svg>