<svg xmlns="http://www.w3.org/2000/svg" width="1344" height="566"><path d="M0 283V0h1344v566H0V283m1069 277c22-1 23-3 16-20-9-22-20-35-50-63-18-16-44-45-53-59-5-7-12-20-13-25 0-6 1-7 8-7 3 0 9-1 13-2 24-6 33-9 42-15 9-5 16-10 19-11 3-3 6-9 7-17 0-7 0-8-4-13-2-3-6-8-8-12-6-6-13-16-22-30-2-5-8-13-13-18-10-9-34-29-45-36-7-5-17-13-19-17-1-3-2-8-4-37-1-13-4-28-8-44-3-12-9-26-18-43-14-26-25-40-48-56-12-10-21-14-40-20-22-8-29-8-54-5-19 3-28 5-37 10-4 2-13 6-20 10-16 9-39 23-50 31-15 11-21 18-30 33-2 5-9 16-15 25-5 9-11 18-11 20-3 7-4 21-3 33 1 15 4 27 11 49 8 24 12 33 22 44 14 16 17 21 19 41 4 24 4 25 13 35 7 7 23 30 30 43 2 4 5 12 7 16 1 5 4 12 6 16l3 8-5 5c-3 3-10 9-15 13-14 11-24 26-28 40-2 9-9 53-9 61-1 10 1 14 7 16 4 1 42 1 188 1 34 0 71 0 82 1 26 1 109 0 129-1z"/></svg>