<svg xmlns="http://www.w3.org/2000/svg" width="1344" height="566"><path d="M0 283V0h1344v566H0V283m743 276c4 0 8-1 9-1 3-3-1-12-10-26-4-5-11-16-15-25-4-8-10-18-12-21-3-4-7-9-9-12s-5-7-7-8c-4-3-39-16-63-24-13-5-34-12-45-16s-25-8-29-10c-14-3-22-6-24-9-2-2-2-3-2-10s0-9 5-20c5-13 7-16 10-18 1-1 10-4 19-6 31-8 39-14 42-35 1-4 2-11 5-16 3-8 3-10 4-24s1-17 4-32c4-15 2-32-5-52-9-25-11-31-13-48-2-10-3-23-3-30-1-15-2-23-8-44-7-30-12-38-28-50-13-9-17-11-31-15s-96-5-141-2c-18 1-38 5-45 9-13 6-29 25-42 47-10 18-17 27-30 45-30 39-63 74-93 95-6 4-12 9-14 11-5 4-23 16-32 21-23 12-30 15-52 25-8 3-17 6-23 7-7 1-32 5-41 6-14 1-18 5-14 13 3 7 6 8 16 9 11 1 14 3 15 8 4 19 6 24 8 24h9c8 0 9 1 9 3 0 1-1 3-4 5-9 6-8 11 2 14 2 1 7 3 11 5 6 2 6 3 9 9l5 10c1 2 2 5 3 6 4 2 15 2 27 1 30-3 33-3 37-2 5 2 5 4 3 11-2 9-2 12-1 15 1 1 5 4 10 6 11 6 15 10 17 17 3 11 8 18 16 22 2 1 7 2 12 4 5 1 10 3 12 3 2 2 7 11 9 17 1 4-1 11-5 16-7 10-16 22-28 33-7 6-14 14-17 17-4 6-4 7-4 11 1 8 3 9 15 11 12 1 75 1 109-1 17-1 35-1 59 0 19 1 50 1 69 0h40c3 0 22-1 43-1 25-1 44-1 56 0 9 1 43 1 74 2 31 0 56 1 57 1 0 1 26 1 40-1z"/></svg>