<svg xmlns="http://www.w3.org/2000/svg" width="1344" height="566"><path d="M0 283V0h1344v566H0V283m827 278c7-2 11-6 16-17 4-9 5-10 5-21s0-12 3-19c5-9 14-25 22-37 3-5 9-18 14-28 10-21 11-23 18-31 6-6 10-14 11-20 1-2 0-5-1-10-2-4-3-10-4-12 0-7-2-11-6-16-2-3-4-6-5-7-2-4-3-4-9-4-4 0-7-1-9-2-1-1-4-2-6-3-5-2-7-4-5-8 1-1 1-8 1-17 0-17-1-20-6-23-7-5-17-2-19 5-1 2-1 4-1 5s-15 20-20 25c-2 2-6 5-8 6-5 2-8 2-18 0-11-3-17 1-26 14-10 15-17 33-21 54-4 17-7 30-10 40-5 12-13 32-17 38-1 2-5 9-8 15-9 19-25 44-29 46-2 0-5-2-14-13l-16-16c-1-2-5-7-9-11-7-6-7-7-8-15-3-13-5-18-10-28-6-11-11-17-25-26-12-9-15-12-13-14 1-1 3-3 5-4 11-5 21-20 39-59 14-29 16-36 17-59 1-18 1-20-3-48-1-4-2-17-2-28-2-53-5-74-11-99-4-18-12-31-28-45-25-22-56-41-75-45-14-3-21-2-40 1-10 2-20 3-21 3-4 0-27 7-36 10-7 3-11 6-16 10-22 21-42 59-55 109-1 5-4 13-5 18-3 10-6 25-13 60-2 12-5 26-7 32-1 8-2 16-3 28-1 23-3 35-8 53-7 21-7 24 1 40 8 17 8 16-7 44-10 20-22 45-31 66-1 5-5 12-6 16-5 10-5 14-2 19 4 6 6 9 6 15 1 6 3 9 7 10 10 3 157 4 264 1 57-1 94-1 147 0 30 1 57 2 59 2 10 1 51 1 57 0z"/></svg>