<svg xmlns="http://www.w3.org/2000/svg" width="1344" height="566"><path d="M0 283V0h1344v566H0V283m582 278h62c4 0 25 0 48-1h59c10 1 29 1 44 1 30 0 31 0 33-7 1-5 1-9-1-32-2-37-11-80-17-94-2-3-6-9-9-13-6-8-20-21-26-26-3-1-7-5-10-7-4-3-10-7-14-9-15-8-47-29-57-37-9-9-27-36-28-44-1-5 0-9 13-45 1-3 2-7 2-9s1-10 3-19c2-14 3-15 7-21 4-7 4-7 4-16s-3-58-4-60c-1 0-2-9-4-19s-4-20-5-22c-2-6-12-19-18-24-9-9-22-16-36-19-23-7-44-2-76 17-5 3-12 7-16 9-4 3-6 5-8 8s-7 11-12 17c-10 15-13 21-14 28-1 3-1 15-2 27-1 25-1 25-8 32-3 3-4 4-4 8-1 7 1 26 4 34 3 7 10 16 17 20 4 2 5 3 8 8 7 16 11 48 7 61-3 10-11 15-36 21-31 8-52 18-72 36-10 9-19 22-26 40-2 3-4 9-6 14s-5 11-5 14c-3 11-7 24-9 30-1 1-3 7-4 12-4 12-8 21-12 30-4 8-5 12-7 24-1 5-3 12-3 16-3 8-2 14 0 16s4 2 92 1h146z"/></svg>