<svg xmlns="http://www.w3.org/2000/svg" width="1344" height="566"><path d="M0 283V0h1344v566H0V283m356 277c7-1 42-1 78-1 82-1 111-2 119-3 4-1 10-1 21 0 9 1 48 1 98 2 45 0 85 1 88 1 3 1 9 1 12 0 4 0 12 0 18 1 9 1 15 1 24 0 24-2 24-3 24-24-1-17-2-22-8-31-7-10-34-33-54-45-4-3-10-6-12-8s-10-7-16-11c-22-14-33-25-38-39l-2-5 3-6c1-4 4-9 7-12 28-40 35-50 42-64 5-12 11-33 12-45 1-4 4-17 7-30 7-28 9-43 9-67 0-27-3-49-8-65-3-8-13-27-20-34-2-4-11-12-18-18-29-26-36-30-66-32-14-2-19-2-26-5-9-2-10-2-29-2-23 0-31 1-48 9-14 7-24 15-37 28-17 18-28 37-32 56-3 10-3 15-7 52-1 19-3 27-10 42l-3 10v14c0 24 3 34 16 49 7 8 8 10 11 18 2 5 3 13 4 18 1 8 1 8-1 12-3 5-40 41-49 48-9 6-22 13-29 14-9 2-12 3-26 9-12 5-40 15-60 22-31 11-45 20-54 36-4 8-17 42-19 52-3 11-9 34-10 41-1 6 0 11 3 13 2 1 70 1 86 0z"/></svg>