<svg xmlns="http://www.w3.org/2000/svg" width="1344" height="566"><path d="M0 283V0h1344v566H0V283m890 273c7-6 11-24 9-36-1-4-1-9 0-18 2-15 2-26 0-34-1-4-3-12-3-18-1-5-3-13-5-17-1-4-3-12-3-18-1-6-3-15-5-19-1-5-3-11-3-13-1-6-5-18-6-21-2-5-5-18-5-20 0-1-2-6-4-12s-6-15-8-21c-11-37-34-69-56-79-17-8-22-15-22-28 0-5 1-14 3-22 2-17 3-25 1-36-4-21-21-39-41-45-4-2-8-2-19-2-12 1-14 1-21 4-4 2-9 3-12 4-6 1-13 7-23 16-14 14-19 20-23 33-2 5-2 9-2 21 0 8 0 16 1 17 0 1 2 3 5 5s4 3 5 8c0 3 1 9 2 13 0 6 0 7-3 12-7 10-8 14-15 36-1 3-5 13-8 20-4 7-8 17-11 22-3 7-7 14-28 42-2 2-11 11-20 19-9 9-19 19-23 22-6 7-15 14-20 15-1 0-5-1-9-3-5-2-9-2-16-3-8 0-9 0-13 2-3 2-5 3-6 3 0 0-3-2-5-3-4-4-4-4-13-4-5 0-12-1-16-1-10-2-11 0-4 6 10 9 8 18-5 21-8 2-17 6-19 9-1 1-2 4-2 6 0 3 6 17 9 20 4 5 15 8 31 9 13 0 18 0 51-6 6-1 15-2 19-3 10 0 13 1 28 16 11 10 20 17 29 21 3 2 3 2 8 0 6-3 11-2 24 1 22 7 28 12 28 27v5l10 11c8 9 12 12 15 13 3 2 10 2 22 3 10 1 21 1 26 2h89c78 0 80 0 82-2z"/></svg>