<svg xmlns="http://www.w3.org/2000/svg" width="1344" height="566"><path d="M0 283V0h1344v566H0V283m844 275c3-2 3-6 0-15-1-4-2-9-2-16 0-17-3-42-6-57-2-8-4-20-5-26l-1-12 3-4c3-5 5-11 6-22 1-4 2-10 2-12 3-7 2-22 0-29-5-13-10-20-19-25-3-2-9-5-11-7-3-2-6-3-8-3-3 0-7-3-7-6-1-1-1-7-1-12-1-13-4-21-9-24-8-5-22-1-26 6-2 5-2 18 0 26 3 9 3 12-2 20-4 7-9 12-21 21-5 3-9 6-10 7-1 3-4 15-5 26 0 8 0 8 4 16 2 5 4 11 6 19 1 8 3 13 4 14 2 3 6 5 10 5 5 0 7 2 8 7 1 3 2 6 2 7 0 2 1 7 2 12 1 4 2 9 2 10 1 2 1 5 2 8 1 4 2 4 7 7 9 4 9 4 9 14-1 7-1 10-4 15-3 6-4 13-2 20s7 9 14 5c2-1 6-2 8-2 4 0 4 0 6-4 5-8 11-8 16 1 4 8 6 9 13 11 9 1 12 1 15-1z"/></svg>