<svg xmlns="http://www.w3.org/2000/svg" width="1344" height="566"><path d="M0 283V0h1344v566H0V283m700 279h93c9-2 11-5 9-16-1-4-3-13-4-20-2-7-4-20-4-28-5-55-11-98-16-109-4-12-17-27-29-35-5-3-12-8-15-11-4-3-9-7-13-10-3-2-9-6-14-10s-10-7-11-8-8-6-14-12c-10-10-12-11-20-25-6-11-9-16-9-18 0-4 4-16 8-25 4-7 6-16 8-28 1-5 3-15 5-22 2-12 3-15 2-18-1-5-2-22-3-39 0-24-7-44-21-61-4-5-13-12-24-18-14-8-20-9-41-8-20 1-23 2-32 9-4 3-11 8-15 10-12 6-22 18-29 35l-3 7-1 26c-1 28 0 27-7 37-3 4-3 5-3 14 0 10 1 16 6 27 3 6 6 10 12 13 7 4 14 21 14 34v23c0 6 0 7-2 10-2 2-5 3-7 4-38 9-56 18-73 34-5 4-10 10-12 14-5 8-12 25-15 33-1 3-3 9-4 13-4 8-8 21-11 32-2 4-4 11-5 14-2 4-4 10-4 13-3 12-5 20-7 26-1 4-3 10-4 15s-3 10-4 13-1 11-1 29c0 27 0 29 6 33 3 2 6 2 79 2 42 1 76 1 77 1 0 1 34 1 74 1 41-1 79-1 84-1z"/></svg>