<svg xmlns="http://www.w3.org/2000/svg" width="1344" height="566"><path d="M0 283V0h1344v566H0V283m402 277h114c63 1 88 1 102 0 9-1 19-1 21-1s39 0 81 1c84 0 85 0 89-5 2-3 3-25 1-38-1-10-9-44-15-61-2-7-4-14-4-15s-2-6-4-10c-4-8-4-9-5-20 0-7-1-11-2-12-2-3-8-6-22-12-7-4-20-10-29-14s-18-8-19-9c-6-1-33-15-35-17-2-3-2-4-2-9 0-6 4-29 8-45 9-35 10-53 8-87-3-27-7-70-8-80-2-11-13-45-18-53-5-7-17-23-24-29-13-14-43-30-62-34l-8-2-11 2c-6 1-14 4-18 5-5 2-13 4-20 5-16 2-22 4-33 13-18 15-31 39-42 73-5 16-7 26-14 66-1 6-3 17-5 24-4 24-6 39-8 62-2 25-2 33 2 52 2 10 2 12 1 17-1 2-2 6-3 7-3 4-11 7-22 8-17 3-32 9-71 28-29 15-29 14-36 36-1 5-5 15-8 22-10 22-13 30-17 52-1 6-4 16-7 23-9 29-12 53-5 56 3 1 30 2 76 1h74z"/></svg>