<svg xmlns="http://www.w3.org/2000/svg" width="1344" height="566"><path d="M0 283V0h1344v566H0V283m730 274c22-1 44-6 73-15 36-11 52-16 58-18 4-1 17-5 29-10 12-4 25-8 29-9 8-1 30-3 63-4 23 0 26-1 28-2 2-2 2-3 1-6 0-2-1-4-1-5-2-3-5-27-6-44-1-18-5-38-9-49-1-3-7-15-13-27s-12-26-15-31c-9-22-20-36-33-43-10-6-36-17-52-23-34-13-43-18-63-38-10-10-11-14-5-27 2-4 5-13 8-19 4-11 5-16 11-37 6-19 8-26 12-32 10-15 14-27 15-48 0-9 0-15-2-26-3-18-5-30-8-33-5-8-16-8-142-8-112 1-106 0-108 8-2 4-1 25 2 62 2 34 3 37 17 64 6 11 9 18 10 24 1 5 3 11 3 14 2 7 2 14-1 21-2 5-17 28-22 34-4 6-11 10-29 16-14 5-26 10-29 13-1 1-2 4-2 5s3 9 8 16c10 18 18 37 19 45 0 7-1 13-9 34-3 11-8 29-11 40-2 9-4 15-13 31-5 9-9 17-9 19-2 7 3 40 6 47 2 3 3 10 5 27 3 17 6 26 11 31 6 5 7 5 86 4 40 0 80-1 88-1z"/></svg>