<svg xmlns="http://www.w3.org/2000/svg" width="1344" height="566"><path d="M0 283V0h1344v566H0V283m724 277c6-1 12-2 14-2 5-3 4-8-6-22-8-12-12-18-21-37-9-18-14-24-25-31-8-5-40-17-70-28-8-2-16-5-18-6s-13-4-24-8c-35-11-37-11-41-13-6-3-7-7-7-14 1-10 11-33 16-36 2-1 9-4 16-5 19-4 28-7 35-12 8-5 11-10 12-19 1-7 3-17 11-44 2-10 4-21 5-25 0-3 1-12 1-18 2-16 0-27-8-50-8-25-9-31-9-64 0-31-1-39-7-56-7-20-12-31-18-37-10-10-24-19-36-23-14-5-21-6-54-6-35-1-112 0-123 2-15 2-23 7-40 22-10 10-13 15-25 37-12 23-14 25-29 46-24 32-34 42-81 86-13 12-26 24-30 27-3 2-7 5-10 7-5 3-22 16-29 19-2 2-17 12-33 22-15 10-33 21-41 25-7 4-14 8-15 10-3 4-5 10-4 17s3 11 8 16 5 5 11 5c3 0 10-1 16-2 10-2 11-2 21 0 8 1 14 2 18 4s10 4 13 4c4 1 6 2 7 5 2 2 2 2 6 2 5 0 10 2 11 4 1 3 0 7-5 20-3 7-5 12-5 13 0 3 2 4 10 4h7l5 5c3 3 5 5 10 6 8 3 12 4 13 7 1 1 4 8 6 14 3 9 4 11 6 13 5 2 7 1 19-4 6-4 12-6 13-6 11 0 14 21 6 39-6 12-19 28-33 39-10 8-20 19-24 25-3 6-3 17 0 19 0 1 1 2 1 2 1 0 3 1 6 1 7 2 104 1 124 0 8-1 22-1 33-1 31 1 87 1 161-1 47-1 46-1 69 1 11 0 41 1 67 2 26 0 53 1 62 1 8 0 16 1 18 0 2 0 8 0 14-1z"/></svg>