<svg xmlns="http://www.w3.org/2000/svg" width="1344" height="566"><path d="M0 283V0h1344v566H0V283m996 276c10-1 10-2 19-9 8-5 26-24 32-33 4-5 7-12 7-16s-3-9-8-14c-2-1-4-5-5-7-1-6-4-9-6-9 0 0-5 3-9 7-4 5-8 8-9 8-3 0-9-4-14-8-4-4-5-5-9-5-3 0-5 1-8 4-3 2-7 5-10 7-7 4-9 7-8 10 1 4-1 7-7 9-3 0-7 2-9 3-4 3-10 3-16 2-11-3-23-6-28-8-4-2-6-2-27-3-24 0-31 0-74 9-16 3-22 3-25 0-2-1-6-7-9-12-7-14-39-70-45-80-22-39-27-49-27-51s8-16 11-19c1-1 3-3 5-4 3-1 8-5 12-9 18-17 25-23 28-25 5-4 9-7 11-10 1-2 3-11 5-20 3-16 3-18 15-42 1-4 5-13 8-20 5-14 16-36 23-46 6-10 9-18 9-20-1-2-3-5-6-7-7-6-16-17-24-29-16-23-43-44-78-58-19-8-25-9-40-10-31-1-59 10-86 33-9 8-22 27-33 50-19 38-26 44-62 54-20 5-23 7-31 13-6 5-21 23-25 29-1 2-3 9-5 14-2 6-5 16-7 22-7 20-6 27 7 37 3 3 8 7 11 10 5 4 5 5 5 9s-1 7-5 15c-3 5-6 12-8 15-8 12-15 27-23 50-3 8-9 23-13 32l-7 15 1 14c0 11 0 15 2 24 3 11 3 11 3 35 0 22-1 24-2 26-3 3-4 3-9-1-3-2-8-6-11-8-4-3-11-8-16-11-4-4-11-10-16-13s-10-7-13-9c-2-1-9-5-15-8l-12-6-20-20c-25-25-23-21-16-43 2-7 6-20 8-27l3-13-1-17c-2-17-4-27-8-33-1-1-4-5-7-8-3-2-6-7-7-9-2-4-2-4 1-12 2-8 2-10 2-23 0-18-1-24-6-29-3-3-4-4-8-4-5 0-5 0-11 6-3 4-7 10-9 13-2 4-5 9-7 12-2 4-2 6-3 15 0 6 0 11-1 13 0 3-14 8-24 8-5 0-9 3-18 11-13 14-18 27-21 62-1 6-2 14-2 17-1 2-2 8-2 12-1 10-4 16-12 23l-6 6h-6c-4-1-8-2-10-2-2-1-4-1-7 0-5 2-5 2-18-1-10-3-14-3-20-3-10 1-19 4-22 8-2 3-2 4-1 9s4 12 9 20c2 5 3 7 3 12 0 3 0 8 1 10 0 3 1 6 1 8 1 3 3 6 11 14l10 11 12-1c11 0 13 0 17 2 2 1 7 3 11 4s11 4 16 7c10 5 22 8 54 11 22 3 14 2 177 3 24 0 41 1 43 1 2 1 42 1 115 1h405c13 0 28 0 33 1 15 1 18 1 27-1z"/></svg>