<svg xmlns="http://www.w3.org/2000/svg" width="1344" height="566"><path d="M0 283V0h1344v566H0V283m498 277c2-4 3-13 2-22-1-4-2-9-2-10-1-2-2-5-3-9-5-17-15-43-20-51-6-8-17-20-23-25-8-5-26-19-30-23-6-5-5-8 1-14 3-2 5-6 6-8 3-8 9-21 14-26 5-6 8-8 18-12 9-4 15-8 17-11 1-2 1-10 1-31v-28l-5-8c-6-10-10-19-12-29-7-32-15-49-27-56-9-5-41-11-59-11-21 0-32 3-48 14s-27 25-32 42c-2 8-5 29-6 57-1 11-1 22-2 25-1 9-4 50-6 71 0 6-1 15-2 18-1 5-1 12-1 23 0 15 0 16-3 24-6 19-7 21-8 23-1 1-2 8-2 14-1 10-2 15-5 28-5 17-6 24-4 29 3 7 1 6 47 7 24 0 76 1 117 1 72 0 75-1 77-2m368-2c36-1 62-1 125 0 83 1 103 1 107-2 3-2 5-6 7-18 1-9 2-15 5-52 1-8 1-25 1-40 0-25 0-27-2-34-5-17-16-41-25-56-2-3-6-10-9-15-6-10-19-28-27-37-5-7-8-10-28-27-7-6-13-13-14-15-2-3-4-8-4-12-3-10-4-11-14-13-5-1-10-2-11-3-4-2-7-7-11-16-4-11-5-22-1-32 1-3 2-8 3-10 2-12 8-35 11-41 1-4 4-13 5-20 5-17 5-28 2-45-3-13-10-30-16-37-4-5-16-12-27-16s-33-7-39-7c-14 2-23 3-30 5-11 3-28 10-35 14-7 3-25 19-27 23-1 2-1 8-2 16 0 14 0 15-4 28-3 9-4 15-5 25-1 12-3 20-9 36-4 11-4 15 1 24 2 4 5 12 7 19 5 17 12 34 16 38 4 5 7 7 17 9 10 3 19 7 24 13s8 12 8 16c-1 1-8 9-18 19-10 9-19 19-20 21-4 5-8 16-9 22-1 10-2 15-9 30-15 34-22 57-30 90-5 23-6 28-8 37-1 5-3 15-4 21s-3 17-4 23c-2 9-2 12-1 14s2 4 2 5c4 2 34 2 102 0z"/></svg>