<svg xmlns="http://www.w3.org/2000/svg" width="1344" height="566"><path d="M0 283V0h1344v566H0V283m579 213c5-3 5-9-1-20-3-7-3-8 3-14 3-3 6-7 6-8 1-1 1-16 1-32 1-22 1-30 2-35 4-13 7-27 9-36 1-5 3-13 5-17 5-11 6-33 3-48-1-2-2-7-2-12-1-5-3-11-3-14-1-4-2-14-3-31-1-32-1-34-12-47-4-6-5-11-3-25 3-19 1-31-6-34-4-3-15-5-20-5s-23 4-27 5c-3 2-11 11-13 15s-4 19-4 34v15l-4 6c-6 10-14 36-14 44 0 2 0 4 1 5 1 2 11 6 15 6s7 2 9 7 2 11-2 22c-2 7-2 8-2 31 0 26-2 19 12 66 3 9 3 21 1 42-1 9-1 23-1 32v14l4 12c2 6 5 11 5 12 1 1 18 8 26 10s11 2 15 0z"/></svg>