<svg xmlns="http://www.w3.org/2000/svg" width="1344" height="566"><path d="M0 283V0h1344v566H0V283m764 193c4-1 9-2 12-3 4-1 15-4 26-6 10-3 22-6 26-7 35-9 39-10 65-8 22 2 21 2 21-13 0-5-1-13-1-16-1-4-2-13-3-21-1-9-1-21-2-27s-1-15-1-19c0-8-3-19-7-23-1-2-6-5-10-8-10-5-12-7-19-13-3-2-8-5-10-6-5-1-16-5-21-8-1 0-2-2-2-3 0-2 1-3 5-4 8-3 8-4 7-14-1-4-2-14-3-21 0-8-2-18-2-22-5-27-6-34-9-44-3-16-6-27-7-32-1-3-3-8-4-12-4-18-20-53-29-64-16-19-47-39-68-43-15-3-26-1-39 6-6 2-9 3-15 4-17 2-25 5-35 15-16 18-27 44-36 87-3 15-3 20-4 57 0 38 0 53 4 83 1 9 1 10 0 12-3 2-9 2-18 1-14-3-29-4-33-4-6 1-12 6-20 15-6 6-9 9-13 11-7 3-10 5-23 14-4 3-12 9-18 13s-14 10-18 13c-10 8-16 10-26 10-12 0-13 1-14 10-1 7-5 19-12 32-3 8-9 25-11 31 0 3-1 7-2 9-3 7-2 10 0 11 4 3 8 2 17-1 17-6 19-7 23-7 3-1 8-2 12-3 10-2 52-2 65 1 3 0 4 0 7-2 2-2 4-2 11-2 5 0 11 1 14 2 15 4 30 7 46 8 26 3 30 3 36 1 9-2 21-2 32-1 5 0 15 1 22 2 18 2 30 4 35 8l3 3h20c11-1 22-1 26-2z"/></svg>