<svg xmlns="http://www.w3.org/2000/svg" width="1344" height="566"><path d="M0 283V0h1344v566H0V283m690 279c4 0 31-1 58-1 28-1 84-1 124-1 40-1 75-1 77-2 4 0 8-4 8-6 0-3-15-45-24-65-2-6-2-7-2-18l1-11-4-3c-2-2-5-4-6-5-5-3-40-21-52-26-24-11-29-14-46-22-10-4-20-10-22-11-6-5-11-17-15-37-2-10-2-16-3-44 0-33-2-58-4-73-1-4-3-13-4-19-4-23-6-31-18-64-2-4-4-11-11-26-2-6-12-23-17-30-14-22-47-48-68-55-12-4-31-7-45-7-11 0-12 0-19 3-4 2-11 6-15 9-10 7-10 7-22 10-15 4-24 10-34 23-11 13-14 20-21 39-6 20-11 44-13 69-1 7-1 15-2 16v38c0 51 2 90 7 125 1 10 2 22 2 26 0 6 0 7-3 10l-8 4c-13 4-37 15-44 21-1 1-12 6-22 12-19 9-26 14-28 19 0 1-2 8-4 15s-4 16-5 19c-6 21-8 45-3 51 4 6 20 11 34 12 5 0 15 0 23 1 9 0 19 1 24 0 6 0 9 0 14 1 4 2 6 2 10 1s31-1 74 2h128z"/></svg>