<svg xmlns="http://www.w3.org/2000/svg" width="1344" height="566"><path d="M0 283V0h1344v566H0V283m626 277c8-1 19-1 34-1 13 1 54 1 91 1h68l2-2c4-4 5-8 5-22-1-20-6-40-23-90-1-5-4-11-6-15-3-6-3-6-3-17l1-11-3-3c-1-1-10-6-19-10-32-15-48-22-55-25-14-6-27-13-30-17l-3-3v-12c1-10 7-46 12-73 2-9 2-13 2-26-1-15-4-51-6-55 0-1 0-7-1-13-2-26-8-52-16-72-8-22-10-25-24-41-13-16-29-26-56-37-10-4-11-4-22-4-12 0-13 0-28 6-6 2-12 3-18 4-13 1-15 2-22 5-12 6-28 24-37 42-12 23-20 51-30 104-2 12-5 26-6 31-5 30-8 56-8 74 0 5 1 16 2 24 3 20 3 25 0 31s-10 10-24 12c-13 2-25 6-45 15-9 4-22 10-30 13-15 7-22 12-25 17-1 1-3 8-5 14-3 12-7 21-12 31-4 8-6 15-10 34-2 8-5 16-5 18-1 2-4 10-6 18-2 7-4 17-5 21-2 4-3 11-4 15-1 11 1 15 12 17 6 1 42 2 88 2 42-1 90 0 128 1 41 1 129 0 142-1z"/></svg>