<svg xmlns="http://www.w3.org/2000/svg" width="1344" height="566"><path d="M0 283V0h1344v566H0V283m275 276c2-1 3-1 8 0 7 1 43 2 227 1h108c49 0 50 0 54-2 6-2 7-6 7-18l1-9-6-8c-3-5-6-9-7-11s-1-8 0-13c1-3 1-5-4-19-3-9-7-19-9-23-3-7-3-8-3-15 0-14-3-17-27-27-31-13-62-26-72-32-4-2-8-5-10-6-2-3-2-4-2-8 1-7 11-38 16-51s7-21 11-37c3-13 3-22 1-37-1-5-1-15-2-24s-2-21-2-28c-1-6-2-15-2-20-2-18-5-42-7-52-3-12-8-24-14-33-7-10-23-25-41-36-25-17-33-21-49-24-13-2-31-1-39 2-6 3-14 5-32 9-19 3-37 16-49 33-19 29-32 84-42 179-1 11-3 30-5 42-2 21-2 26-2 44 1 15 1 23 2 27 3 8 2 9-1 13-3 3-14 10-21 13-31 12-35 14-55 30-6 4-17 12-24 16-16 10-28 20-29 25-1 2-1 4-1 6 0 1-2 6-16 33-2 4-4 10-5 13s-2 10-3 15c-3 16-2 27 2 31 3 2 13 3 79 3 51 0 63-1 65-2z"/></svg>