<svg xmlns="http://www.w3.org/2000/svg" width="1344" height="566"><path d="M0 283V0h1344v566H0V283m912 277c19 0 61-1 102 0 56 1 73 1 89-1 36-2 39-4 32-17-4-8-7-12-19-25-6-6-16-16-22-23-13-14-22-21-41-35-20-15-28-21-45-37-7-7-19-22-24-32-7-12-20-33-21-34s-3-4-5-7-5-8-7-11c-5-7-18-27-22-36-3-5-3-9-4-14 0-7 0-8 3-11 2-2 6-6 9-8 7-5 16-14 19-20s8-20 8-25c1-3 2-12 4-20 3-24 4-40 3-55-4-42-16-76-38-99-8-10-11-12-19-18-12-8-18-11-27-16-16-8-28-10-69-8-28 1-44 3-55 7-3 1-9 3-13 4-24 6-24 6-36 14-17 12-28 22-33 33-8 15-10 29-9 78 1 21 1 39 2 46s2 20 3 30c2 28 3 36 19 81 14 40 19 52 28 62 5 6 8 7 28 11 8 1 16 2 17 3 5 3 8 10 4 14-1 1-6 3-12 5-5 2-15 6-22 10-6 4-14 8-17 9-9 3-31 19-41 30-10 10-16 26-18 44 0 4-1 10-2 13-2 5-2 7-2 16 1 5 2 16 2 23 0 8 1 15 2 16 1 3 3 3 12 4 11 1 199 0 237-1z"/></svg>