<svg xmlns="http://www.w3.org/2000/svg" width="1344" height="566"><path d="M0 283V0h1344v566H0V283m617 277c6-1 24-1 49-1 22 1 110 1 196 2 169 0 161 0 163-5 1-4-1-14-3-18-1-2-5-7-9-10-3-4-10-10-14-14-7-7-10-10-31-22-29-18-51-34-53-39-1-2-2-5-3-9 0-3-2-10-4-16s-5-13-5-16c-5-15-15-37-27-58-17-29-36-74-39-97-1-5-4-15-7-23s-8-22-11-31c-6-19-15-44-20-56-4-12-13-24-24-35-10-11-22-19-37-27-17-9-20-9-42-9-17 0-20 0-32 2-15 3-34 9-47 14-12 5-34 17-39 21-6 5-7 8-10 25-2 7-4 15-6 20-4 7-12 20-14 22-5 4-5 7-6 32-1 29-1 28-11 53-7 16-7 17-7 23 1 6 2 10 4 16 4 8 15 41 17 50 1 3 2 10 3 17 2 7 4 15 5 18 3 7 3 8-1 12-6 7-37 19-55 22-14 3-18 5-29 12-5 4-11 9-12 11-3 4-4 8-2 20 2 10 1 33-1 48-3 11-4 31-3 35 1 5 3 8 6 10 3 1 7 1 36 1 38-1 63 0 69 1s44 0 56-1z"/></svg>