<svg xmlns="http://www.w3.org/2000/svg" width="1344" height="566"><path d="M0 283V0h1344v566H0V283m801 278c33-3 112-4 128-2 7 1 34 1 45 0 9-1 12-3 13-11 1-5 1-8 0-16-3-16-4-33-3-38 0-3 0-6-2-10-4-11-7-33-9-52-1-6-2-17-2-24-3-26-4-37-3-45 0-6 0-9-1-12-3-7-6-19-7-27-1-5-3-16-5-26-4-24-7-32-11-40-6-10-12-15-32-27-22-13-24-14-29-19-4-5-4-11 0-17 5-8 12-23 13-31 1-9 0-32-3-46-2-11-9-26-14-33s-14-15-20-18c-7-3-23-5-37-5-10 1-12 1-18 4-10 4-19 14-27 30-5 11-6 15-5 24 1 5 2 12 3 17l2 9-6 12c-9 22-10 22-8 34 2 14 0 30-3 34-3 2-13 8-24 12-9 3-16 7-22 11-4 4-3 1-6 33-1 9-3 23-3 30-3 22-4 49-4 54 1 7 7 25 11 30 2 5 8 11 15 15 5 4 5 5 1 12-2 5-2 6-2 24 0 12-1 25-2 36-1 10-2 24-2 34 0 15 0 16-2 18-3 2-5 7-6 15 0 6 0 8 1 9 4 2 64 4 86 2z"/></svg>