<svg xmlns="http://www.w3.org/2000/svg" width="1344" height="566"><path d="M0 283V0h1344v566H0V283m630 279c14 0 69-1 124-1 55-1 105-1 112-2 8 0 29-1 48-1 20 0 52-1 72-1 39-2 61-2 86 0 9 0 34 1 56 1 38 0 40-1 42-2 4-4 2-11-13-41-21-41-51-80-81-102-19-15-26-18-67-32-13-4-28-10-33-12-12-4-27-9-47-15-16-5-24-8-38-16-20-12-30-16-39-15-4 1-4 1-10-4-6-6-7-9-12-20-5-14-7-24-8-40 0-16 0-24 5-51 12-58 13-69 10-93-2-16-5-24-10-36-3-7-6-10-14-18-5-5-11-12-14-15-5-7-6-8-16-13-7-3-11-4-19-6-5 0-12-2-14-2-4-2-12-4-28-5-10-2-15-2-24-1-21 2-35 6-75 21-8 2-16 11-22 23-3 6-6 13-6 17-2 6-4 27-4 40 0 6-1 14-3 24-4 19-5 36-3 48 3 18 8 43 11 54 3 7 9 20 19 42 16 32 20 38 27 47 5 5 15 11 22 13 5 0 11 4 12 6 3 5-1 14-8 21-6 5-20 15-25 17-3 2-14 7-24 12-10 4-24 11-30 14-50 27-63 36-92 66-15 16-19 21-23 34-2 5-5 14-7 19-5 10-5 18-2 20 2 2 5 3 17 4 12 2 110 2 148 1z"/></svg>