<svg xmlns="http://www.w3.org/2000/svg" width="1344" height="566"><path d="M0 283V0h1344v566H0V283m889 274c5-3 11-18 10-29 0-2 0-8-1-14 0-9 0-14 1-21 2-8 2-11 1-16-3-17-8-42-10-49-1-4-2-10-2-14-1-5-2-13-4-18-1-6-3-16-5-22s-4-14-5-17c-1-2-2-7-3-10 0-3-2-11-5-19-3-7-6-16-7-19-6-26-21-52-38-69-8-8-12-10-21-13s-16-11-18-19c-2-6-1-25 2-32 2-8 2-31 0-38-3-13-14-28-24-35-16-10-34-12-56-4-2 1-8 3-12 4-9 3-10 4-23 17-16 15-21 23-24 40-2 8 0 23 4 28 4 8 6 13 8 20 2 10 1 12-2 18-6 7-8 11-13 28-4 9-8 21-11 28-3 6-8 15-10 20-3 7-7 13-12 20-9 12-16 21-19 26l-17 17c-8 7-19 17-25 23s-13 12-16 13l-6 3-9-4c-13-5-15-6-27-7-5-1-13-1-18-2-12-1-32 0-33 2-2 2-1 4 2 6 1 1 4 3 6 5 5 5 5 9 2 13-2 3-15 8-18 8-1 0-2 1-3 2-7 6 6 23 21 29l7 2 36-1c49-2 47-2 54 2 7 5 14 11 19 18 4 5 21 18 24 18 1 0 3-1 5-1 4-3 11-3 25-2 7 1 14 2 15 1 3 0 8 3 9 6 1 1 2 5 2 9 3 20 2 18 8 25 3 3 8 8 10 11 3 4 7 7 9 8 9 5 43 6 176 7 36 0 38 0 41-2z"/></svg>