<svg xmlns="http://www.w3.org/2000/svg" width="1344" height="566"><path d="M0 283V0h1344v566H0V283m516 278c20-1 136-2 198-2 5 0 18-1 31-1 17-1 25-2 30-1 8 1 41 2 79 1 17 0 30 0 38 1 20 2 90 1 95-1 1-1 2-2 2-3s-8-11-22-25c-12-12-24-25-27-29-7-9-16-21-17-26-3-10-7-15-19-27-21-21-31-34-39-52-5-11-8-20-11-42-5-28-7-37-13-52-3-9-8-25-12-36s-8-22-9-24c-4-6-8-17-9-24-2-6-2-12-2-29 0-21 0-23-2-36-2-7-4-15-5-18s-2-8-2-10c-1-6-8-28-11-37-6-17-18-28-40-38-28-12-30-13-56-14-22-1-29-1-37 3-3 2-9 4-14 5s-11 4-16 6c-4 3-11 6-14 8-5 2-7 4-8 6l-8 8c-5 6-7 9-13 22-7 13-8 16-9 25-2 11-2 26 0 54 0 7 0 12-1 17-4 20 0 35 15 51 6 5 7 8 8 13 1 3 2 7 3 9 1 1 1 5 1 8 0 7-3 27-5 32 0 2-1 6-1 9 0 8-4 13-12 16-9 2-15 9-26 29-6 12-12 20-16 22-3 1-6 4-8 5-2 2-7 5-11 8-8 4-8 4-16 4s-9 0-21 5c-18 8-26 11-34 12-9 0-18 3-24 7-14 9-27 23-32 31-1 3-5 10-8 15-3 4-9 15-12 22l-7 14-1 12c0 8-1 15-2 17 0 2-1 7-1 12 0 7 0 9 1 11 4 5 6 6 33 6 14 1 31 2 37 2 15 1 47 0 82-1z"/></svg>