<svg xmlns="http://www.w3.org/2000/svg" width="1344" height="566"><path d="M0 283V0h1344v566H0V283m606 276c25-2 61-2 116 0 75 2 145 1 170-4 4 0 12-1 16-1 3-1 9-1 13-2 4 0 8 0 11 1s19 1 36 2c24 1 31 1 38-1 5 0 11-1 13-1 4 0 20-2 24-4 3 0 10-7 14-12 4-4 4-4 4-14 1-10 1-11-1-16-2-3-3-6-3-8s-1-5-1-6c-2-2-8-6-10-6l-6 6c-6 8-10 11-18 12-5 0-5 0-10-3l-6-4-6 1c-13 4-14 3-16-5-2-7-4-8-22-9-53-6-66-8-74-12-4-2-4-3-8-13-1-6-4-8-10-10s-12-1-24 6c-14 7-21 12-31 21-4 4-10 9-12 11-5 4-28 13-34 14-5 0-5 0-8-3-1-1-9-15-17-31-8-15-15-29-16-30-2-2-13-24-27-50-8-16-8-17 1-23 3-2 8-7 10-10 3-3 6-6 11-9 6-3 18-13 30-24 4-3 9-7 11-8 10-6 10-8 17-31 3-12 6-20 15-38 3-7 7-14 8-16 5-16 13-32 20-46 5-9 9-18 10-20 0-5-2-9-10-19-3-3-9-13-14-20-16-24-35-41-63-55-34-16-58-20-88-12-11 3-17 5-30 13-8 5-12 8-19 16-20 22-25 29-36 49-12 23-19 31-31 39-8 5-16 8-36 13-17 4-23 7-32 17-16 17-21 25-23 36-1 3-3 10-4 16-2 6-5 15-6 20-2 12-1 15 8 21 12 9 12 9 12 13s-2 8-15 27c-12 18-20 33-25 49-11 26-13 32-19 44-9 18-9 25-4 42 0 4 1 12 2 21 0 13 0 14-2 16-1 1-3 2-3 2-3 0-15-7-25-14-6-5-13-10-17-12-3-1-7-5-10-7-2-2-8-7-14-11s-12-9-16-14c-4-4-13-13-20-21l-13-13v-5c1-3 3-12 7-21 9-28 10-36 7-63-2-15-3-18-13-28-8-9-8-9-8-14 0-2 1-8 2-12 2-5 2-9 2-21 0-20-2-27-10-29-3-1-4-1-8 1-12 6-23 28-23 46 0 5 0 8-2 10-2 3-10 6-22 8-5 0-11 2-12 2-7 3-22 21-26 32-3 8-5 22-8 47-4 25-5 28-12 35-7 8-9 9-19 9-5 0-9 1-12 2s-6 1-20-1c-6 0-13 2-15 5-3 6 0 11 10 20s14 16 17 29c0 5 2 10 3 11s4 3 7 4c7 2 31 19 39 28 4 4 8 9 10 12 9 14 12 17 14 19 4 3 12 4 57 10 11 1 116 3 149 3 21-1 32-1 41 0 16 2 143 3 170 1z"/></svg>