<svg xmlns="http://www.w3.org/2000/svg" width="1344" height="566"><path d="M0 283V0h1344v566H0V283m247 278c48-1 49-1 53-6 1-1 3-4 4-6s4-7 6-10c2-4 4-9 6-18 4-16 8-30 9-31 1 0 4-1 7-1 12 0 42-2 58-4 13-1 26-3 38-7 12-3 19-4 27-6 4 0 12-3 17-5 4-1 9-3 11-3 1 0 4-1 7-2 11-4 16-6 19-7 5 0 14-4 18-7s10-11 10-14c1-4-1-6-5-6-5 0-6-2-5-6 0-2 0-3-2-4-2-2-2-2-7-1-2 1-6 3-8 3-1 0-6 2-10 4-6 2-10 3-15 3s-6 0-8-3c-2-2-3-5-3-7-1-2-2-5-3-6-3-4-6-2-11 11-8 16-9 17-30 19-16 1-32 1-50-1-19-2-25-4-29-11-5-8-7-15-10-32-2-10-4-20-5-23s-2-7-2-9c0-4 12-29 15-31 3-1 4-1 8 0 12 3 16 1 30-13 5-5 12-11 14-14 5-3 5-4 7-14 3-12 7-25 11-32 5-9 4-16-3-29-4-6-15-18-21-24-10-8-12-8-25-9-9 0-12 0-17 2-13 4-20 10-28 22-6 8-11 14-14 15-1 0-7 3-12 6-9 5-11 5-19 6-11 1-26 4-34 7-9 3-35 15-49 24-19 11-30 21-51 50-21 28-46 77-45 87 1 6 3 6 9 1 5-5 12-9 14-9 3 0 8 5 10 9 1 2 2 7 3 11s2 11 3 14c1 6 1 10 1 18-3 36-3 36-9 45-3 3-5 7-7 13-2 8-4 10-9 12-2 1-4 3-5 3 0 3 3 8 8 14 8 7 9 8 20 8 7 0 14 1 21 2 16 4 16 4 30 3 6 0 32 0 57-1z"/></svg>