<svg xmlns="http://www.w3.org/2000/svg" width="1344" height="566"><path d="M0 283V0h1344v566H0V283m880 278c9 0 13-1 14-3 2-3 1-10-2-18-1-5-3-11-3-14-1-2-3-8-5-12-2-6-5-16-10-32 0-3-1-6-1-8 0-1-1-4-1-8-3-7-2-12 0-14 1-1 6-4 12-5 13-5 30-13 36-18 5-5 11-8 14-8s7-3 11-8c2-4 2-4 6-3 4 0 5 0 9-4 2-3 6-7 7-9 3-5 3-5 7-5s6-1 9-8c1-2 5-7 8-10 7-7 9-12 11-22 0-4 1-9 2-11 0-3 0-4-2-7-3-3-4-3-8-3-5 0-12 3-30 14-5 3-13 7-16 8-4 1-9 4-13 6-9 6-15 9-23 11-7 2-16 3-19 1-3 0-5-4-6-11-1-4-3-10-6-15-2-5-5-12-7-16-7-21-23-49-39-68-11-13-15-20-15-23 0-2 1-6 2-9 1-4 4-13 6-20 3-13 3-14 3-27 0-7 1-16 1-21 2-6 2-15 2-31 0-21 0-22-2-27-6-12-31-28-48-32-13-3-31-3-39-1-14 5-29 18-36 31-4 7-5 10-14 36-9 24-9 24-1 32 5 6 9 13 9 15 0 4 2 7 5 8 4 0 7 4 8 9s-2 14-12 33c-9 17-9 17-21 28-17 18-23 28-33 56l-4 12c-4 10-5 24-4 48 0 34 2 47 7 62 1 3 4 11 6 18 1 7 4 15 4 18 1 2 2 6 3 7 1 5 9 21 15 30l7 14c0 2 0 10-1 16 0 13 0 13 2 15s4 3 8 3c2 1 5 1 5 2 2 0 172-1 182-2z"/></svg>