<svg xmlns="http://www.w3.org/2000/svg" width="1344" height="566"><path d="M0 283V0h1344v566H0V283m479 277c3-1 7-2 25-1 12 1 60 1 107 1h128c68 1 85 0 89-1 2-1 20-1 66 0 42 1 73 1 94 0 38-1 36 0 36-14 0-5-1-13-2-17-3-15-5-30-6-46-1-9-1-19-2-22-1-9-1-17 1-25 1-6 1-6-1-12-7-15-12-20-29-26-7-3-17-7-21-9-5-2-13-5-16-7-12-5-16-8-25-16s-10-10-5-16l2-4-1-7c-3-12-4-21-5-58-2-80-4-99-9-132-3-14-4-19-9-33-12-32-30-51-61-68-33-17-59-20-102-9-18 4-37 11-44 14-7 4-13 10-17 18-6 12-13 23-19 33-3 5-9 15-12 22-9 17-12 26-15 55-2 13-6 26-13 36s-9 18-5 30c2 7 4 29 3 33s0 47 1 53 6 12 13 16c6 3 9 6 9 8-1 0-7 1-15 1-9 0-16 0-19 1-4 1-16 4-26 7-21 5-45 10-50 10-7 0-13 2-18 6-2 2-6 5-8 6s-7 4-10 6c-4 3-11 7-14 9-8 3-13 7-25 15-7 4-9 7-16 16-4 4-10 9-17 11-2 1-14 2-29 2-24 0-26 1-29 3-7 5-9 14-5 18 4 3 6 8 6 12-1 7-5 18-10 33-3 10-7 25-7 29 0 2 1 4 4 7 3 4 4 4 12 5 4 1 20 1 35 1 25 1 27 1 31 3 7 4 9 4 31 4 16 0 22 0 24-1z"/></svg>