<svg xmlns="http://www.w3.org/2000/svg" width="1344" height="566"><path d="M0 283V0h1344v566H0V283m526 276c11-1 54-3 68-2 41 1 164 1 228 1 125-1 319-1 348 0 28 1 29 0 29-5s-10-19-22-33c-9-9-26-22-35-26-20-10-34-16-40-18-5-1-9-2-33-12-36-13-47-17-55-20-18-6-42-19-55-29-2-2-6-5-9-7-6-5-7-8-6-18 2-15 15-71 20-87 4-13 5-15 17-21 16-7 24-16 35-37 7-14 9-20 8-32 0-12-1-15-9-24-6-7-8-12-6-21 0-4 3-16 4-28 2-13 4-29 5-41 1-17 1-21 0-32-4-23-8-34-18-47-6-7-14-11-25-14-9-1-74-3-153-2-56 0-76 1-85 4-5 1-6 2-10 9-6 10-8 14-14 29-5 16-10 42-13 63 0 9-2 19-3 23-1 5-3 14-5 21-1 7-3 15-3 19-3 10-3 24-2 33 1 12 7 32 13 46 3 7 7 21 11 31 3 10 7 25 10 32 9 28 11 42 9 61-1 11-3 14-8 17-3 2-6 3-22 3-24 1-22 0-52 30-13 13-26 25-29 27-6 4-19 10-31 15-3 2-15 7-25 11-18 9-46 21-51 22-3 1-21 10-31 17-11 6-23 16-32 26-11 13-11 15 5 16 5 1 10 1 10 1 4 2 50 1 62-1z"/></svg>