<svg xmlns="http://www.w3.org/2000/svg" width="1344" height="566"><path d="M0 283V0h1344v566H0V283m918 171c4 0 11-2 15-3l8-1 3 3c2 2 3 3 4 3 0 0 4-4 9-8 6-5 8-8 8-9-1-3-5-2-11 1-7 5-10 5-15 1-5-5-5-6-4-16 1-8 1-8-1-12-2-2-4-7-6-11-2-3-5-8-7-10-2-3-6-11-11-20-4-8-8-16-8-17-1-1-5-8-9-15-10-20-19-35-32-54-19-27-29-38-42-48-5-3-14-10-18-14-5-3-13-9-17-13-17-13-47-32-65-42-20-9-23-12-26-18-2-5-6-9-10-9-2 0-22-6-28-8-5-3-11-9-15-17-6-11-18-23-27-28-7-3-21-7-29-7-6 0-14 2-20 6-6 3-20 17-23 24-4 6-12 36-13 46-2 11 0 20 4 26 4 5 8 6 10 4 3-4 5-2 10 6 2 4 6 10 8 13 6 9 11 18 12 22s-1 14-5 24c-2 5-5 14-6 19-2 4-5 11-6 15-2 4-3 8-3 11 0 5 0 6 5 10 7 7 13 11 20 16 7 4 27 23 32 30 6 9 8 18 12 47 1 11 5 15 11 12 7-3 17-5 22-5s6 1 8 4c1 3 2 4 2 11-1 4-1 9-1 11-1 3-1 5 1 7 1 2 2 5 2 7l1 2 11 1c10 0 11 0 12-2 2-2 2-2 1-7s-1-6 0-7c2-3 4-2 11 1 6 3 7 3 17 2 8 0 14 0 22 1 6 1 16 2 22 3s14 2 18 2 9 2 11 2c7 3 32 6 54 7 11 1 22 1 25 2 7 1 36 1 47-1z"/></svg>