<svg xmlns="http://www.w3.org/2000/svg" width="1344" height="566"><path d="M0 283V0h1344v566H0V283m754 277c3-1 40-2 100-2 52-1 99-1 104-2h138c8 0 29 0 48 1s36 1 37 1c4-1 4-3 2-9-4-16-26-50-41-64-8-8-24-20-31-24-8-3-33-14-43-17s-49-15-67-19c-8-2-18-5-21-7-4-1-9-4-13-4-7-2-24-11-28-14-2-1-4-4-5-6-2-4-2-5-2-14 1-6 2-17 4-24 6-37 7-39 17-44 14-6 17-8 23-14 12-12 20-25 25-44 4-10 4-18 3-26-1-9-3-12-10-19-9-10-10-13-5-44 4-27 5-46 4-67-1-33-4-51-13-69-10-20-10-20-28-23-10-1-23-1-118-2-131 0-141 0-148 8-4 4-15 26-21 43-4 12-10 33-11 43-1 5-2 24-2 43-1 35-2 42-5 50-1 3-1 9-2 18 0 11 0 15 2 27 3 15 7 29 12 41 4 9 9 24 13 39 2 6 4 14 5 18 7 26 8 32 7 35-1 2-9 6-26 13-6 2-12 5-14 5-3 2-12 13-19 24-8 12-30 41-38 50-10 10-18 17-38 31-14 10-34 24-57 42-6 5-14 10-17 13-13 10-12 11 8 12 17 1 62 1 75 0 11-1 78 0 124 2 29 1 65 0 72-1z"/></svg>