<svg xmlns="http://www.w3.org/2000/svg" width="1344" height="566"><path d="M0 283V0h1344v566H0V283m680 279c12-1 30-2 39-3 11-1 21-1 31-1 15 1 189 2 300 2 63 0 61 0 63-6s-2-26-9-44c-9-20-27-49-41-64-20-20-26-24-84-57-9-4-19-10-23-13-3-2-10-6-15-9s-11-6-13-8c-4-2-14-8-31-17-8-4-20-9-26-11-14-4-16-8-17-29 0-22 2-36 12-63 10-28 15-48 14-59-1-4-2-10-4-14-2-7-2-12-3-26-3-48-10-66-36-88-16-14-43-23-74-27-14-2-43-1-55 2-40 8-75 34-87 63-5 14-5 15-4 84 1 36 2 67 2 71 1 7 5 19 9 29 4 12 19 43 29 63 10 19 10 20 9 23-2 4-14 15-39 34-4 4-14 11-21 17-7 5-16 12-20 15-13 8-53 33-60 38-21 14-61 34-69 35-4 0-16 6-18 9-1 0-2 1-3 1-4 0-6-5-12-37-7-37-11-52-20-70-7-13-20-33-29-43-11-14-35-30-63-43-4-1-16-7-28-13s-27-13-33-16c-31-12-49-24-54-33-3-5-3-4 12-35 18-37 18-38 29-74 7-21 9-38 10-78 1-25 1-35 0-44-1-12-2-14-8-17-3-1-14-2-119-2C46 4 5 4 4 5L1 6v272c0 267 0 272 2 276 1 2 3 4 4 5 2 2 16 2 28 1 5 0 30-1 56-1 26-1 56-1 69-2 12 0 59 0 105-1h89c3 0 12 0 19 1 16 1 41 1 54 0 6-1 11-1 18 0 6 1 25 3 50 3 22 1 42 2 44 2 5 1 114 0 141 0z"/></svg>