<svg xmlns="http://www.w3.org/2000/svg" width="1344" height="566"><path d="M0 283V0h1344v566H0V283m464 135c1 0 2-2 3-4 2-5 4-6 12-9 15-7 21-10 25-14 14-12 21-13 21-4 0 3 1 4 2 6 3 2 3 2 10 1 4-1 9-2 11-3 6-3 20-4 29-2 4 1 9 2 12 2s9 1 12 2c11 2 41 3 63 3 16-1 21-1 30 1 21 3 58-1 76-8 1-1 6-2 11-2 10-1 19-3 30-6 10-2 27-3 39-2 11 1 14 0 15-4 1-3-2-38-4-56-1-5-2-13-2-19-1-8-1-10-4-16-4-8-5-12-3-14 2-1 3-1 6 1 4 3 6 2 5-4 0-3-1-5-3-9-2-2-4-5-4-6v-34c-1-38-2-56-8-88s-13-46-31-64c-12-12-17-16-31-22-8-3-9-3-22-3-10 0-16 0-20 1s-11 3-17 4c-17 3-24 8-33 19-11 17-17 38-17 66 0 6-1 14-1 18-1 4-2 15-2 23-1 9-2 20-3 23-1 4-1 13-1 20 0 12 0 13-2 15-4 3-7 4-17 5-11 1-18 4-19 7l-3 3c-1 0-5 1-8 3-6 2-8 2-14 2-7-1-19-5-21-8-2-2-5-1-8 3-3 3-6 6-14 9-8 4-12 7-15 11-5 5-10 14-10 17 0 1-1 5-2 8-2 6-3 8-7 11-15 13-29 19-46 22-3 0-6 1-7 2-2 1-2 2-1 5 1 4 1 5-9 28-2 4-5 13-8 19s-6 14-8 17c-2 6-2 7-2 14 1 7 2 10 5 11 2 1 9 0 10-1z"/></svg>