<svg xmlns="http://www.w3.org/2000/svg" width="1344" height="566"><path d="M0 283V0h1344v566H0V283m772 277c13-2 77-3 248-4h72c7 0 28 0 46 1 32 1 34 1 36-1 1 0 2-2 2-3 0-6-14-36-23-49-3-4-12-13-20-21-24-24-43-34-79-45-24-7-36-10-48-14-7-1-18-5-24-7-7-2-12-4-13-4-2 0-25-9-31-13-13-6-15-11-13-29 1-6 2-16 3-23 0-6 1-14 2-18 1-11 5-33 7-38 3-5 7-8 17-13 17-8 34-35 39-61 1-4 1-11 1-16-1-12-4-18-11-24s-8-10-7-24c4-36 4-48 4-71-1-26-3-44-7-56-7-16-10-18-35-21-10-2-25-2-118-2-120 0-144 1-151 6-2 1-4 6-7 12-12 31-18 62-18 102 0 18-4 49-7 57-3 10-2 28 2 48 5 19 10 31 21 48 7 11 14 28 25 55 8 23 10 28 6 31-1 2-1 2-15 6-12 3-33 10-38 13s-10 8-26 30c-30 43-39 52-66 70-9 6-21 14-26 18-25 18-35 25-44 31-12 8-29 22-30 24-1 1-1 2 0 3 2 2 24 2 114 1 20 0 45 0 56 1 34 1 142 1 156 0z"/></svg>