<svg xmlns="http://www.w3.org/2000/svg" width="1344" height="566"><path d="M0 283V0h1344v566H0V283m276 276c3-1 5-1 10 0 6 1 120 2 218 1h102c47 1 62 1 68-2 5-2 6-6 6-18v-12l-4-5c-1-2-4-6-6-8-3-5-4-9-2-15l2-5-5-13c-2-7-6-18-9-24-4-9-4-11-4-18 0-14-2-16-29-27-16-6-26-11-52-22-23-10-28-14-28-21 0-5 8-34 15-51 11-31 15-56 12-75-1-6-4-41-6-64-3-46-7-65-15-80-9-18-26-38-45-50-27-18-44-24-69-24-14 0-17 1-29 5-3 1-9 3-14 4-19 3-29 8-42 18-23 19-34 42-46 104-5 25-7 37-8 54-1 9-2 20-3 24s-2 15-2 23c-1 9-3 24-4 34-1 9-2 21-3 26-1 11 0 35 3 46 1 8 1 10-4 15-4 3-17 10-29 14-17 6-27 11-36 19-13 10-21 16-33 23-13 8-27 18-28 22 0 1-1 5-2 7-1 5-5 13-16 33-8 15-13 49-9 58 2 4 4 4 14 5 15 1 128 0 132-1z"/></svg>