<svg xmlns="http://www.w3.org/2000/svg" width="1344" height="566"><path d="M0 283V0h1344v566H0V283m1154 277c8 0 15-1 16-1 4-4-4-28-14-39-22-27-40-45-61-62-4-3-14-11-21-18-19-18-26-23-41-35-7-5-16-12-19-14-4-3-10-7-14-10-8-7-15-10-20-11-1-1-9-1-17-2-9-1-15-1-17-3-5-2-17-14-18-19-2-5-2-26 0-42s4-23 13-30c20-16 32-37 37-59 2-11 1-17-3-27-5-10-5-13-2-36 2-20 1-36-3-47-7-20-21-37-43-51-19-12-32-17-51-20-15-2-40-3-52-1-20 4-46 19-59 34-6 8-12 18-16 26-3 8-7 27-7 39-2 28-6 77-7 84-2 11-1 30 1 42 3 18 12 48 16 57 2 4 7 13 11 19 7 11 7 12 8 18 0 4 0 7-1 9-2 1-10 6-28 15-14 7-28 13-30 14-12 5-34 19-52 31-12 9-37 30-43 37-11 11-26 30-34 43-8 12-11 20-18 44-2 7-2 8-1 11 3 6 2 5 68 4 33-1 75-1 92-2 46-1 124-1 205 1 94 2 196 3 205 2 3 0 13 0 20-1m-940-2c10-1 20-1 22-2 4-1 123-2 138-1 4 1 11 1 14 2 7 1 32 0 35-2 4-2 5-13 3-26-1-3-2-14-2-23-2-24-5-46-6-56-1-5-2-11-2-14-1-9-6-32-8-38-3-11-16-39-22-49-8-11-22-25-36-35-7-5-22-13-37-20-22-11-27-14-27-16-1-2 0-6 11-28 12-23 13-26 13-30-1-2-1-7-2-10 0-7 0-8 3-12 2-2 5-8 8-13 3-6 5-9 8-12 11-9 11-20 1-51-5-15-6-24-6-43 0-16 0-18-2-25-3-8-19-40-23-44-5-6 0-6-130-6C101 3 42 4 36 4c-13 1-18 3-20 8-1 4 0 26 1 35 1 7 8 36 12 49 5 15 8 27 13 52 9 43 9 46 0 62-4 9-15 22-27 32-2 2-6 7-9 11l-5 8v145c0 145 0 145 2 148 1 2 3 4 4 5h29c15-1 34-1 44 0 20 1 107 0 134-1z"/></svg>