<svg xmlns="http://www.w3.org/2000/svg" width="1344" height="566"><path d="M0 283V0h1344v566H0V283m496 67c4-2 6-3 15-4 6-1 11-1 12 0 1 0 5 1 9 1 4 1 10 1 12 2 11 3 20 3 36 3 26-1 29-2 35-7 8-7 15-9 24-7 3 1 4 1 5 0 3-2 2-4 0-14-4-12-9-37-12-53-1-12-3-16-9-22-14-12-27-20-45-25-14-4-18-5-21-7-4-3-15-25-17-33-1-3-2-8-2-11-1-3-2-9-3-13-1-5-2-11-4-14-3-6-3-7-2-14 0-4 2-12 2-18 3-15 1-24-7-32-6-7-12-9-22-9-9 0-10 0-14 2-8 5-13 14-15 29-1 10-3 13-7 17-5 4-10 7-17 8s-19 8-24 14c-6 6-9 16-8 33 0 7 1 18 1 24 1 6 2 14 2 18 0 7 0 7-8 22-6 12-7 15-8 22-1 9-1 9 2 20 4 13 4 14 8 20 5 5 9 19 8 23 0 2 0 3 3 5 1 1 4 2 6 3s4 2 5 3c3 5 12 8 26 6 7 0 8 0 12-5 6-7 10-11 14-13 2-1 4-3 5-3 2-2 3-2 3 2 0 3 3 3 4-1 1-2 1-2-1-4s-2-2 0-5c1-1 2-4 3-5 2-3 6-4 7-2 0 2-3 21-5 24-2 5-9 15-12 18-1 2-2 3-2 4 1 1 2 1 6-2z"/></svg>