<svg xmlns="http://www.w3.org/2000/svg" width="1344" height="566"><path d="M0 283V0h1344v566H0V283m300 279c14-1 44-1 65-1 25 0 40-1 41-1 2-1 4-1 8 0 6 1 7 1 12-1 5-1 6-1 18 0 8 1 22 1 40 1h236c46 1 65 1 84 0 27-2 28-2 28-9 0-2 1-7 2-12 2-8 2-10 1-16-2-10-4-14-14-21-5-3-34-18-65-33-39-20-51-26-53-30-1-3-1-4 2-10 5-14 10-30 11-38 1-6 3-13 8-25 10-27 11-30 14-55s2-48-5-97c-1-7-2-16-2-22-2-17-9-50-16-73-4-11-15-33-23-44-11-17-33-37-49-46-12-7-33-16-43-19-9-2-12-2-23-2s-14 0-29 4c-10 2-19 5-21 6-3 2-10 4-17 5-19 4-31 11-45 26-16 17-30 46-39 79-2 6-4 13-5 17-7 24-14 78-18 134-3 36-2 52 5 93 1 4 2 11 3 15s2 12 4 18c3 15 3 16-1 21-5 5-19 12-29 13-13 2-23 7-45 20-7 5-20 12-30 17-25 14-39 22-50 31-5 5-7 9-9 21-1 4-2 11-4 16-5 14-4 17 8 18 10 1 15 1 45 0z"/></svg>