<svg xmlns="http://www.w3.org/2000/svg" width="1344" height="566"><path d="M0 283V0h1344v566H0V283m992 151c1-1 1-5 1-10 0-8 0-8 5-19 6-10 6-11 6-17 0-9 2-15 11-34l8-15 1-13c1-15 1-17-3-29-2-8-3-10-13-21-4-5-7-9-7-10-2-7-5-23-6-30-1-4-1-8-2-8 0-1-1-5-2-10-1-10-5-26-7-36-3-8-10-22-15-27-2-3-8-7-11-10l-7-5-9 1c-18 0-30 4-38 10-4 4-10 15-12 23-1 4-1 12-1 26 1 23 1 22-8 27-2 1-5 3-7 4-2 3-6 14-9 25-1 3-3 9-4 13-3 7-7 20-9 27-1 3-2 5-6 7-6 4-15 15-17 20-1 2-1 7-1 14 0 14 2 18 10 28 4 5 6 6 12 8 10 3 11 4 15 11 2 4 4 9 6 11s4 6 5 8c3 5 11 9 24 12 5 1 13 3 16 4 4 1 12 3 18 4 5 2 13 4 16 5 4 1 11 3 16 3 4 1 9 2 10 3 5 1 12 1 14 0z"/></svg>