<svg xmlns="http://www.w3.org/2000/svg" width="1344" height="566"><path d="M0 283V0h1344v566H0V283m650 279c12 0 24 0 27-1 7-1 27-1 55 0 21 1 37 1 122-2 24-1 100-2 188-3 21-1 39-1 44 0 13 1 89 3 93 2 7-2 5-9-8-36-13-26-20-38-33-58-18-28-30-41-52-59-17-14-28-19-63-28-21-7-41-13-61-22-3-1-10-3-15-4-26-6-27-6-55-21-17-9-23-12-31-14-13-3-14-4-18-9-8-9-17-36-19-52-1-14 1-21 8-34 9-18 10-24 10-39 0-11 0-12-3-21-4-11-5-13-6-31s-5-40-7-49c-3-11-6-16-15-25-4-5-10-12-12-15-7-9-14-16-17-18-5-2-15-5-26-7-5 0-13-2-17-3-5-2-10-3-18-3-11-1-12-1-30 3-34 8-44 11-58 20-3 2-9 6-14 8-11 6-14 10-18 17-8 15-10 25-11 52-2 41-1 59 8 100 6 29 13 47 29 74 14 25 33 51 45 63 5 5 8 9 8 10 0 4-4 9-10 15-9 9-18 15-30 20-17 6-64 32-90 48-15 11-29 23-52 48-4 4-8 8-10 9-5 4-9 12-17 34-9 24-8 27 8 30 7 1 18 1 59 2h71c11 0 29 0 41-1z"/></svg>