<svg xmlns="http://www.w3.org/2000/svg" width="1344" height="566"><path d="M0 283V0h1344v566H0V283m748 204c14 0 18-1 28-3 6-2 14-4 18-5 3 0 7-1 7-2 0 0 4-1 8-1 9-2 20-6 22-6 1-1 7-3 14-5 18-4 33-6 50-4 23 2 22 2 24 0s2-3 2-13c0-7-1-16-3-26-2-15-4-38-5-56 0-7 0-10-1-12-2-2-16-11-19-12-1 0-4-1-5-1-2-1-8-3-13-4-5-2-11-5-12-6-4-2-6-6-6-11s-3-10-9-14c-3-2-5-4-5-5 0-2 3-4 6-5 3-2 4-4 3-12-1-4-1-14-2-21-2-23-5-48-10-68-1-5-2-10-3-12-1-10-8-35-11-46-6-17-15-36-24-47-16-21-46-40-74-46-14-3-20-2-34 4-6 2-11 3-17 4-17 2-27 6-37 17-11 13-20 30-25 52-10 39-13 61-14 101-1 25-1 34 1 56l1 26-2 2c-2 2-2 2-12 1-15-2-36-2-40 0-3 1-11 9-22 20-21 20-31 28-44 35-15 9-21 13-27 18-7 7-12 9-23 9-9 0-9 0-12 3-2 3-7 12-15 32-7 15-9 21-10 30 0 6-2 11-3 14-2 4-2 5-1 6 2 3 10 2 18-1 6-2 7-2 27-2 12 0 24 0 28-1s12-2 17-2c10-1 18-3 31-7 8-3 12-2 19 0 34 12 52 14 106 12 10-1 17-1 24 0 4 1 14 2 22 2 7 1 15 3 18 3 4 1 7 2 9 2 1 0 3 1 5 2 6 5 11 7 14 6 1 0 10 0 18-1z"/></svg>