<svg xmlns="http://www.w3.org/2000/svg" width="1344" height="566"><path d="M0 283V0h1344v566H0V283m932 278c3-1 8-3 13-4 5-2 11-5 14-6 11-3 15-11 17-28 0-8 0-9-8-22-4-6-4-7-24-7-9-1-19-1-21-2-3-1-11-1-19-2-19-1-21-3-22-12-1-2-2-5-4-7-3-3-3-4-11-4s-10 0-18 3c-16 5-20 8-38 23-12 11-15 13-34 17-16 4-16 4-28-23-15-33-20-45-41-89-5-9-8-18-8-20s1-3 3-5c1-1 5-6 8-11 3-4 5-8 6-8 0 0 4-3 9-7 4-4 10-9 12-11 3-2 7-5 9-8 2-2 7-7 11-9 8-5 12-12 12-21 2-17 5-24 15-47 15-32 22-48 31-62 6-11 7-13 7-18s-1-6-12-19c-4-4-11-13-15-18-3-6-8-13-11-16-9-11-30-26-51-36-25-12-43-17-59-17-20 0-50 8-60 17-16 14-32 31-41 44-3 4-9 15-13 23-9 18-17 30-23 35-6 6-14 10-28 13-24 8-26 8-32 12-6 5-14 13-22 24-6 8-8 12-8 19 0 9-3 24-6 35-2 6-4 12-4 13 0 5 3 9 8 13 9 6 11 8 11 12s-4 14-12 27c-10 15-12 20-27 56-3 7-7 17-9 22-9 15-9 21-6 38 3 10 3 31 0 36-1 3-2 4-5 4-6 0-15-5-26-13-4-5-12-10-16-13-7-4-13-11-41-38-28-29-29-30-29-35 0-2 1-8 3-13s5-16 8-25l4-16-1-13c-1-29-3-34-14-45-8-7-8-9-6-17 5-13 5-17 5-33 0-13-1-15-3-19-3-5-8-8-12-6-5 2-10 7-14 13-2 4-6 9-9 12-5 5-6 6-6 21-1 5-1 10-2 11-1 3-8 5-19 7-13 2-17 5-25 15-13 17-19 32-22 57-1 8-2 18-3 20s-1 8-2 13c0 8 0 10-4 17-3 7-4 8-10 11-7 3-10 6-10 10 0 1 3 6 9 12 10 12 13 18 15 28 1 3 3 8 4 11 5 9 19 30 25 37 4 4 8 9 10 12 3 7 8 14 13 16 3 2 23 7 34 9 9 1 29 2 122 3 37 1 74 1 80 2 17 1 164 1 178 0 6-1 13-1 17-1 39 1 138 2 173 2 25 0 50 1 56 1 9 1 45 0 52 0z"/></svg>