<svg xmlns="http://www.w3.org/2000/svg" width="1344" height="566"><path d="M0 283V0h1344v566H0V283m745 177c6 0 14-2 18-3 3-1 10-3 15-4 5 0 11-2 14-3 4-1 9-2 12-3 16-4 22-5 30-7 5-2 12-3 14-4 6-1 24-1 38 0 9 0 10 0 12-2s2-3 2-12c0-6-1-13-1-17-3-12-5-31-4-47 0-23 0-23-2-29-3-8-11-16-18-18-2-1-7-3-10-5-5-2-5-3-8-8-2-5-2-5-9-8-6-3-8-4-8-6s6-4 12-3c3 0 4 0 5-2 2-2 2-4 1-12-1-13-5-31-8-43-1-5-3-13-4-18-1-4-4-13-6-20-6-23-11-41-13-48-3-15-14-39-22-52-10-15-25-28-49-40-16-9-17-10-34-9-14 0-16 0-26 3-7 1-15 3-19 4-17 2-29 10-39 24-12 18-18 35-21 68-2 14-4 31-6 41-2 8-3 66-2 79 2 24 2 31 2 33-1 3-3 4-14 6-13 3-17 3-25 2-8-2-28-3-33-1-1 1-5 4-9 7s-9 7-12 9c-2 1-8 5-12 8s-14 10-23 15c-9 6-19 14-23 17-11 9-17 11-26 11-4 0-8 0-9 1-2 1-5 7-5 10s-4 12-10 25-10 24-13 33c-1 4-3 11-5 15-4 9-4 10 4 11 5 0 8-1 15-4 15-6 19-7 27-8 5 0 13-2 19-3 9-1 12-1 23 0 7 0 13 1 16 0h10c4 1 5 1 9-1 3-3 5-3 13-3 6 0 11 1 14 2 18 6 49 9 74 8 21-2 37-2 46 0 3 0 11 1 17 2 13 1 23 4 28 8 4 3 5 3 15 3 7-1 17-1 23-2z"/></svg>