<svg xmlns="http://www.w3.org/2000/svg" width="1344" height="566"><path d="M0 283V0h1344v566H0V283m839 277c3-1 15-1 43 0 60 1 204 0 230-1 22-2 22-2 25-4l2-3-2-11c-5-26-22-68-36-88-10-14-19-22-34-30-15-7-20-9-43-14-10-2-26-6-36-9s-23-7-28-7c-20-4-29-8-43-22-13-12-17-13-30-9-13 3-15 2-24-15-7-14-10-28-6-34 1-2 4-7 8-10 10-12 18-24 22-39 4-10 4-14 0-26-3-11-2-12 4-38s7-32 8-50c3-25 3-30-3-52-4-17-7-21-17-32-5-4-11-10-13-13-7-10-11-13-16-16-2-1-6-2-7-2-4 0-17-3-21-5-2 0-6-3-9-6-9-7-10-7-41-7-26 1-32 2-40 7-6 4-10 6-20 9-7 3-36 15-46 21-24 13-43 39-46 64-1 5-1 15-2 23s-2 21-3 29c-3 22-3 37-2 49 0 6 1 19 2 30s1 24 2 28c1 9 6 22 12 37 2 5 5 12 7 16 1 3 6 16 12 28 5 12 11 27 13 32 3 9 7 20 11 28 2 4 2 6 1 8-1 4-28 24-43 31-4 3-10 6-13 8-3 1-14 8-25 14-41 25-68 49-74 68-3 6-2 8 2 11 2 1 8 2 100 2 54 0 111 0 126 1 37 1 87 0 93-1z"/></svg>