<svg xmlns="http://www.w3.org/2000/svg" width="1344" height="566"><path d="M0 283V0h1344v566H0V283m852 74c2-1 6-3 8-6 3-2 6-4 7-5 4-3 6-10 7-30 1-18 1-33-2-38 0-1-4-6-8-10-4-5-7-10-8-11 0-2-1-14-2-27-1-23-3-41-5-45-1-1-1-4-2-7-2-8-6-14-14-20-11-9-17-9-40-4-3 1-6 3-10 7-9 9-9 9-9 35 0 22 0 22-3 25-1 2-3 2-7 2-5 0-6 0-9 3-3 4-4 5-5 21-1 12-1 13-5 20-6 12-8 14-17 20-5 3-10 7-11 9-3 3-6 15-6 24-1 11 3 14 21 15 6 1 16 2 21 4 10 2 16 4 32 6 5 1 15 3 24 5s18 4 21 4c4 1 9 2 12 3 3 0 6 1 6 1 1 0 3-1 4-1z"/></svg>