<svg xmlns="http://www.w3.org/2000/svg" width="1344" height="566"><path d="M0 283V0h1344v566H0V283m690 278h128c42 0 67-1 75-3 3-1 4-2 6-5 3-9-1-51-7-63-3-5-18-21-29-30-4-3-11-8-14-10-3-3-15-11-26-19-22-14-32-22-36-27-2-2-7-13-12-24-9-18-10-21-10-26-1-5 1-8 20-43 13-24 13-25 18-31s10-19 14-32c2-7 5-17 6-24 6-18 7-21 8-34 3-16 3-47 1-59-5-27-17-49-42-72-16-16-26-21-44-24-20-3-28-4-35-6-5-1-12-1-23-1-12 0-16 0-24 2-27 7-53 28-68 55-9 14-13 30-15 55-3 27-5 35-13 45-8 12-10 33-3 50 3 8 11 19 18 25 4 3 8 8 9 10 5 10 7 35 3 41-3 8-33 35-49 46-10 6-24 13-38 16-18 5-46 12-62 16-25 6-34 9-41 15-5 6-15 20-26 37-4 7-11 19-16 26-4 7-10 18-13 23-3 6-9 16-12 22-12 21-21 39-21 42 0 2 1 3 3 5 2 1 8 1 89 1 48 0 87 1 88 1 0 1 24 1 55 0h138z"/></svg>