<svg xmlns="http://www.w3.org/2000/svg" width="1344" height="566"><path d="M0 283V0h1344v566H0V283m596 276c16-1 41-1 58-1 103 3 178 3 226 1 15-1 61-1 102-1 81 0 79 0 77-6-2-9-14-21-42-42-23-17-32-23-51-32-17-9-23-13-32-22-11-11-11-13-1-38 9-22 15-34 25-53 6-11 15-26 19-33 11-22 14-25 26-33 6-3 17-14 21-20 11-17 14-21 17-28 6-15 8-30 4-36-1-2-4-4-6-5-7-4-7-6 1-37 9-36 13-64 13-89 0-14 0-17-3-27-3-13-11-34-15-41-3-5-7-8-15-9-11-3-17-3-100-3-107-1-139 0-149 5-3 2-11 15-16 25-8 19-15 50-18 80-1 4-2 11-3 17-2 13-4 15-12 17-9 1-12 2-16 6-6 7-7 13-7 30 0 25 7 45 22 63 3 4 6 8 7 9 2 3 2 21 0 34-1 6-3 14-3 18-3 20-15 49-24 60-6 6-7 6-37 6-25 0-27 1-30 3-2 1-7 6-13 16-23 33-31 42-43 50-3 2-8 5-12 8-24 16-43 28-62 38-17 9-29 16-44 29-14 11-35 31-36 35s2 5 16 7c15 1 114 1 156-1z"/></svg>