<svg xmlns="http://www.w3.org/2000/svg" width="1344" height="566"><path d="M0 283V0h1344v566H0V283m359 277c6-1 52-1 103-2 113-1 110-1 137 1 28 1 218 2 227 0 8-1 10-2 12-8 1-3 1-6 1-17-1-22-5-30-20-44-13-12-22-19-35-28-6-4-13-8-16-10-2-2-8-6-12-8-22-14-34-25-40-37-6-11-6-12 7-29 4-6 9-12 11-15 1-2 5-7 8-11 8-10 19-29 24-40 4-8 7-20 13-44 1-6 4-18 7-27 5-18 7-27 9-45 2-23 1-53-3-70-4-23-17-43-38-64-16-15-24-21-34-26-10-6-18-8-36-9-10-1-17-2-22-3-13-4-20-5-36-5-25 1-39 6-59 20-17 13-32 28-42 46-10 16-13 26-16 61-3 33-5 39-11 50-6 10-6 13-8 24-2 13 1 32 8 43 1 2 7 9 13 15 13 15 16 20 16 32 0 8 0 9-3 12-2 1-4 3-5 4-1 0-10 9-21 19-20 19-26 24-33 29s-21 11-29 13c-5 1-13 4-18 6-11 4-59 22-70 26-26 8-40 19-48 36-9 18-19 46-24 69-6 23-6 28-5 33 2 3 3 4 11 4 9 1 66 0 77-1z"/></svg>