<svg xmlns="http://www.w3.org/2000/svg" width="1344" height="566"><path d="M0 283V0h1344v566H0V283m600 277c13-1 27-1 30-1h96c62 1 90 1 91 0 3-2 5-6 5-14 0-9-2-26-4-35-1-8-9-35-14-50-2-4-4-12-6-16-1-5-3-11-5-14-3-6-4-7-1-23 0-3 0-5-1-7-2-2-13-8-33-16-5-2-17-8-25-12-9-4-16-7-17-7 0 0-5-2-11-5-26-12-27-13-27-23 0-3 1-12 1-19 1-7 2-18 3-24s2-20 3-30c3-23 2-37-5-106-2-17-7-43-11-56-7-23-25-51-42-65-7-5-25-16-30-17-1-1-5-2-8-4-6-3-23-8-27-8s-18 4-28 7c-7 3-12 4-18 4-11 1-17 3-26 9-14 9-29 28-38 48-12 25-19 55-27 114-9 60-10 97-4 128 4 17 1 23-10 29-4 2-8 3-14 4-5 1-11 2-13 2-18 6-52 20-62 26-3 2-9 6-14 8-10 5-13 9-15 17-3 13-5 22-9 30-1 5-4 12-6 16-1 5-4 12-6 16-6 10-21 64-23 78-1 12 3 14 33 15 26 0 35 0 65-1 28-1 39 0 97 1 75 2 83 2 108 2 13 0 35-1 48-1z"/></svg>