<svg xmlns="http://www.w3.org/2000/svg" width="1344" height="566"><path d="M0 283V0h1344v566H0V283m823 275c1 0 3-4 4-7s4-8 5-11c2-3 4-8 4-10 1-4-1-27-2-32-1-1-2-9-3-19-3-19-4-33-2-45 1-4 1-12 2-16 1-5 2-11 3-13 0-2 1-5 1-7 1-5 3-11 6-22 5-16 7-27 7-48v-20l-5-13c-3-10-4-15-4-19v-12c0-11 0-17 1-30 0-7 1-14 1-15 1 0 1-7 1-14 0-22-2-28-17-41l-6-6 1-15c0-11 0-17-1-25-2-14-6-27-10-32-3-5-12-14-18-18-4-3-5-3-15-3-13 0-17 1-25 10-7 7-9 9-11 18-2 12-1 28 4 46 2 7 2 11 1 13-1 1-5 4-9 7-3 2-7 6-9 8-3 5-11 32-14 47-3 20-15 53-27 72-2 4-4 7-4 8 0 4 6 14 10 17s6 3 15-1c4-2 8-4 9-4s3 1 5 3c1 2 4 4 5 5 4 2 20 1 24-1 8-4 9 0 6 14-3 11-3 13 9 20 10 6 19 14 21 18 4 6 4 16 2 46-3 46-3 51 6 77 4 15 7 33 7 51 0 14 1 19 4 20 3 2 16 1 18-1z"/></svg>