<svg xmlns="http://www.w3.org/2000/svg" width="1344" height="566"><path d="M0 283V0h1344v566H0V283m779 250c5 0 10-1 13-2 2-1 5-1 8-1 4 0 47-9 56-11 2-1 8-3 13-5 5-1 11-3 13-4 3 0 9-2 14-4 10-2 12-2 36-3h26l2-3c1-2 1-6 2-17 0-13 0-16-2-29-2-8-4-21-5-29 0-8-1-16-2-18s-1-7-1-10c0-9-2-13-6-16-2-1-9-3-16-5-32-7-39-10-42-12-4-3-4-3-3-8 2-12-2-25-7-28-7-4-9-8-5-13 3-3 3-4 0-11-16-36-23-54-23-59 0-1-1-5-2-7s-5-12-8-21c-8-23-9-25-16-41-3-8-7-17-8-20-1-4-3-9-4-12-2-4-5-9-13-21-4-7-19-22-25-27-8-5-15-8-29-14-20-7-29-9-45-9-14 0-15 0-30 4-9 2-19 5-23 7-11 3-24 11-33 17-18 14-32 40-39 71-2 10-2 11-1 54 1 24 1 50 2 58 1 23 1 32-1 37-2 4-10 11-25 19-5 3-10 6-13 8-5 4-10 12-13 19-1 3-3 6-4 7 0 1-5 4-11 6l-9 3-5-2c-5-3-6-3-13 1-13 8-18 10-25 12-17 6-22 9-29 18-6 8-14 12-26 13l-9 1-4 4c-4 4-11 17-13 24 0 2-2 8-4 12-1 3-3 10-3 14s-1 9-2 11c-2 8 0 18 4 21 3 2 5 2 10 2 10 0 23-1 28-4 18-6 18-6 32-7 7 0 17 0 21-1s9-1 11-1c2 1 5 0 6 0 11-5 29-7 36-5 2 0 8 1 12 2 6 1 10 2 16 5 9 5 18 8 26 9 3 1 23 2 44 2 38 1 53 2 83 5 20 1 29 4 39 12l4 4h16c9 0 19-1 24-2z"/></svg>