<svg xmlns="http://www.w3.org/2000/svg" width="1344" height="566"><path d="M0 283V0h1344v566H0V283m336 279c9-1 17-3 20-3 3-1 9-2 30-1 31 1 31 1 34-7 2-6 5-23 5-31 0-6 2-7 6-7 11 2 10 2 17-1 4-2 8-4 9-4 5 0 11-7 11-12 0-4-6-11-16-21-5-4-8-8-8-10-1-5-5-9-9-10-6-2-7-3-10-9-1-3-2-6-2-13 0-8 4-31 7-38 1-3 1-7 1-18 0-13 0-14-4-26-4-14-10-27-16-35-3-6-15-18-21-22-7-5-12-10-12-12 0-1 2-4 4-7s5-8 6-11c3-8 6-12 10-14 6-3 9-7 10-16 3-13 4-28 3-33-1-2-1-7-1-11 0-11-3-33-5-39-3-7-7-11-21-18-10-5-13-6-22-8-14-2-21-3-30 0-20 5-29 15-34 37-2 9-3 12-5 34-3 43-4 82-2 89 1 5 0 8-7 18-3 4-6 9-7 12-1 2-3 7-4 9-1 3-2 6-2 7s-1 4-2 7c-6 18-9 33-10 54 0 7-1 19-2 26-1 11-1 15 0 29 2 17 3 22 7 32 3 10 4 18 3 44-1 25 0 34 3 37 1 1 7 1 25 2 12 0 23 1 24 1s8-1 17-1m971-2c3-3 2-1 6-37 4-40 5-149 2-176-3-28-14-63-27-85-5-8-9-12-22-26-10-10-18-19-22-24-8-11-10-13-19-15-7-1-10-3-14-7-4-3-4-5-7-18-2-9-2-13-2-28 1-32 0-59-1-65s-8-21-12-25c-5-7-18-13-30-15-8-1-27 1-36 4-20 7-39 25-42 39-1 5-1 7 0 12 1 4 2 11 2 17 0 14 3 35 6 49 1 5 4 12 7 19 2 3 3 8 4 11 2 7 5 11 14 14 3 1 7 3 9 5 3 3 3 9 0 15-3 4-16 18-25 25-5 4-5 5-5 8 1 2 0 6-1 9 0 4-2 9-3 13s-3 10-5 15c-6 18-11 34-11 37 0 1-1 7-2 12-2 11-5 41-6 61-1 19-3 28-8 34-11 14-26 27-32 27-2 0-16-5-28-10-9-4-17-5-19-3-4 4-2 8 5 16 7 7 7 9-3 19-5 5-10 10-12 11-3 2-3 3-3 5 0 3 1 4 7 7 4 2 6 3 7 6 0 2 2 5 3 7 2 4 3 4 6 4 11-2 14-2 17 0 1 1 2 3 2 4s1 2 1 4c2 2 3 2 18 2 8 1 16 2 18 2 3 2 5 6 5 11 0 3 1 5 2 6 3 3 23 4 97 5 41 0 75 0 75 1h41c39 0 41 0 43-2m-635-1c2-1 21-1 44-1h88c26 1 54 1 63 1 27 2 28 1 27-21-1-8-2-19-3-26-1-9-1-19-1-33 2-60 3-97 4-115 5-63 5-61 4-75-1-17-5-29-13-43-9-18-30-44-39-51-18-14-24-19-28-26-4-8-7-10-11-10-2 0-4-1-6-1-7-4-10-13-10-34 0-8-1-14-2-18s-1-6 0-11 1-9-1-19c-2-24-3-26-13-35-8-8-14-11-24-13-18-3-36 3-52 18-9 10-10 11-11 32s-1 38 2 45c2 5 9 17 27 45 8 13 10 16 10 20 0 3-4 8-12 17-9 11-13 18-19 34-3 9-6 19-7 22s-4 12-6 21-5 21-7 28c-4 17-16 76-17 91-2 16-5 28-9 35-2 6-2 6-1 11 2 6 2 14-1 37-1 12-3 25-3 32-1 6-2 13-3 15-2 7-1 14 1 18 1 2 4 5 8 7 7 4 12 5 21 3z"/></svg>