<svg xmlns="http://www.w3.org/2000/svg" width="1344" height="566"><path d="M0 283V0h1344v566H0V283m771 278c36 0 74 0 85-1 17 0 19-1 21-3 2-1 2-2 2-7-1-7-6-23-16-46-7-19-9-27-9-36 0-10-2-14-13-21-4-3-9-5-10-6-1 0-16-7-33-15-17-9-39-19-49-24-17-8-30-15-34-18-3-3-4-7-6-20-2-11-2-16-2-29 1-9 2-18 2-22 1-4 3-11 3-17 1-6 2-12 3-14 2-6 2-13 1-21-2-8-3-12-6-33 0-7-2-14-3-18-2-11-6-26-7-31-1-2-3-9-5-14-3-14-6-22-11-33-23-52-56-85-100-98-11-3-19-4-35-4-12 0-17 0-21 1-8 3-16 6-20 10-6 5-8 6-17 8-21 3-37 17-49 43-16 32-23 67-26 120-2 29-2 138 0 162 1 19 1 20 0 22-1 1-4 2-6 3s-11 5-22 10c-28 14-34 16-69 32-11 5-10 5-11 21 0 23 0 24 1 27 3 4 9 11 15 16 3 2 14 8 26 14 26 14 42 22 50 26s27 11 37 13c18 4 149 5 334 3z"/></svg>