<svg xmlns="http://www.w3.org/2000/svg" width="1344" height="566"><path d="M0 283V0h1344v566H0V283m764 278c33 0 59-1 61-1 2-1 15-1 28-1 34 0 33 0 35-1 4-2 4-6-1-19-2-8-5-16-7-19-2-5-2-6-10-27-10-30-10-30-10-40 0-13 1-15 14-16 16-2 31-9 39-18 2-3 6-6 9-8 6-3 7-4 7-11 0-5 0-5 6-11 3-3 8-7 11-9 6-5 18-23 24-35 1-5 4-10 6-12 4-5 6-9 6-14 0-6-1-8-6-9-7-2-11 0-16 6-4 5-6 6-15 10s-12 5-16 5c-6 0-6 0-8 3-1 2-3 4-4 4-1 1-3 1-4 1-3 1-4 2-5 6-5 10-19 18-26 14-3-1-4-5-6-12-1-3-3-8-4-11-2-4-4-9-5-11-2-10-10-27-17-42l-8-16-14-12c-8-9-15-14-21-17-4-3-8-6-9-7-2-3-1-8 3-19 9-23 10-28 13-45 4-16 4-20 5-43l1-25-2-6c-6-11-28-28-42-32-10-3-25-5-36-5-9 1-10 1-19 5-11 6-21 15-26 25-6 12-14 32-16 43-1 6-3 12-4 15-2 4-3 4-12 9-12 6-16 9-19 15-2 5-3 10 0 15 3 8 10 13 20 14 5 1 10 2 12 3 3 1 7 2 10 2 4 0 5 0 6 2s-2 10-7 17c-1 3-4 7-5 9-2 5-9 11-22 23-25 22-34 44-38 86-2 18-2 28-1 41 1 4 1 15 2 23 1 25 7 50 17 73 5 13 8 17 15 26 4 4 7 9 8 11 0 2 1 11 2 21 1 28 2 29 31 28 7 0 38 0 70-1z"/></svg>