<svg xmlns="http://www.w3.org/2000/svg" width="1344" height="566"><path d="M0 283V0h1344v566H0V283m433 62c2-1 10-1 18-1 19-1 24-2 29-7 5-4 5-4 7-1 3 3 4 3 10 0 5-2 6-4 8-7 1-3 1-3-1-6-4-2-4-3 0-6 5-4 6-4 11 2 4 5 8 7 15 6 4 0 5 0 8 2 5 5 12 9 16 10h22c22-1 27-2 34-10l5-5h10c7 0 9 0 10-1 0-1-1-8-3-15-1-8-3-17-4-21 0-4-1-9-2-11s-1-6-1-10c1-5 1-8 0-10-2-5-10-13-17-18s-24-13-34-16c-14-5-18-8-25-15-9-9-15-21-19-38-2-10-5-15-13-22s-8-6-4-24c3-14 3-27 0-33-3-8-10-15-18-17-12-4-27 0-33 8-2 4-5 16-6 28-1 6-2 7-6 11-4 5-14 11-18 11-3 0-12 5-16 8s-10 14-10 17c0 1 2 4 5 7s5 7 5 9c3 11 4 25 5 40 0 14 1 18 2 21 2 4 4 16 3 20-3 10-12 21-18 23-2 0-5 1-6 2-3 1-6 7-6 12 0 6 5 22 9 31 4 7 6 9 10 13 7 5 8 6 6 9-1 3-1 3 0 5 1 1 2 1 6 0 2 0 5-1 6-1z"/></svg>