<svg xmlns="http://www.w3.org/2000/svg" width="1344" height="566"><path d="M0 283V0h1344v566H0V283m280 276c3-1 6-1 14 0 13 2 214 2 224 0 4 0 11-1 22 0 24 2 120 2 131 1 8-1 10-1 12-3 2-3 2-4 2-21 0-19-1-25-7-38-2-3-6-12-8-19-2-6-6-16-8-21-4-9-4-11-4-17 0-15-4-19-32-29-6-3-16-7-22-10-7-2-14-5-18-7-3-1-12-5-19-9-11-5-14-7-15-10-2-3-2-3 0-13 2-6 7-21 12-34 13-36 15-43 15-65 0-13-2-44-4-59-1-4-2-20-3-35-3-37-4-46-9-62-6-19-14-31-30-44-33-28-58-39-85-39-13 0-20 1-28 5-3 1-12 3-19 4-11 2-16 4-21 6-27 13-49 42-59 78-4 13-12 60-15 86 0 3-1 12-2 20-1 7-2 17-3 22 0 5-1 15-3 24-1 9-3 22-3 30-1 9-2 19-3 24s-1 17-1 26c0 16 0 19-2 22-4 7-13 14-27 18-12 4-30 13-40 21-13 10-26 19-37 26-5 2-12 7-16 11-7 6-7 7-8 13-1 5-3 9-9 21-4 8-8 17-10 21-4 11-7 28-8 39 0 11 0 12 2 14 1 2 3 4 4 4 4 1 137 1 140-1z"/></svg>