<svg xmlns="http://www.w3.org/2000/svg" width="1344" height="566"><path d="M0 283V0h1344v566H0V283m609 277c3 0 39-1 85 0 61 0 79 0 82-1 6-2 7-5 8-21 1-14 1-16-1-30-6-34-16-70-22-82-4-6-4-7-3-23 1-9 1-9-41-28-24-11-27-13-37-17-13-5-22-10-24-13s-3-9-1-15c1-4 4-30 6-45 0-4 1-13 2-21s2-18 2-23c1-14-2-60-4-66-1-2-1-6-1-9 0-12-10-54-16-69-8-20-20-41-29-51-15-16-59-38-76-38-5 0-22 4-30 8-4 1-8 2-17 3-11 1-12 1-20 5-10 5-22 16-31 28-6 8-14 23-18 35-6 15-16 52-20 79-1 4-4 18-6 30-7 34-9 51-9 80 0 20 0 26 1 34 1 6 2 14 2 17 0 7 0 8-3 10-3 3-4 3-11 3-14 0-31 5-48 14-6 3-19 9-29 15-20 10-28 15-30 22-1 2-3 9-4 17-2 7-4 17-5 21-2 4-4 11-4 15-1 3-3 11-5 16-1 4-4 15-5 22-2 8-5 20-7 27-8 32-9 40-7 44 5 6 8 6 95 7 62 0 198 1 199 1 0 1 78 0 82-1z"/></svg>