<svg xmlns="http://www.w3.org/2000/svg" width="1344" height="566"><path d="M0 283V0h1344v566H0V283m564 277c3-1 25-2 80-2h76l6-2c11-6 13-11 6-14-4-2-5-3-5-10-1-7 1-68 2-75 0-6 3-8 10-7h23c18 0 29-1 59-4 10-1 22-2 27-3 8-1 17-2 38-6 14-2 28-6 34-10 26-13 41-24 49-39 3-5 3-6 3-12-1-5-2-8-4-13-9-17-26-39-44-55-8-8-11-10-21-14-15-7-18-9-31-21-6-6-12-11-14-12-1-1-8-3-14-4-8-3-13-4-21-9-27-15-26-14-31-13-13 2-14 1-39-13-7-4-17-10-22-12-4-2-9-5-9-6-2-3-3-8-7-39-3-23-8-47-12-57-7-18-23-35-43-44-18-9-51-16-70-16s-33 4-52 15c-16 8-27 16-33 21-8 9-21 27-28 40-6 13-9 19-16 38-3 7-4 9-10 15-7 7-22 16-37 24-6 3-15 8-20 12-24 15-38 22-56 29-7 2-15 6-19 7-14 6-29 26-34 46-4 17-2 56 4 68 5 10 26 36 29 38 4 1 16 16 19 25 1 4 1 27 0 36-1 3-1 12-2 20-1 16-3 31-9 56-2 12-3 18-2 19 2 4 4 4 43 3 21-1 45-1 55-1 28 0 103 1 110 2s28 0 32-1z"/></svg>