<svg xmlns="http://www.w3.org/2000/svg" width="1344" height="566"><path d="M0 283V0h1344v566H0V283m677 278c4-1 9-2 11-3 6-2 11-8 12-14 1-2 4-9 7-14 4-9 4-11 4-17 0-14-9-45-18-63-3-7-3-8-4-19l-1-11-3-3c-2-2-9-5-15-8-7-3-15-6-18-8-13-6-45-19-52-22-8-3-18-8-24-12-5-3-7-5-7-11 0-12 9-42 19-63 4-9 5-15 6-39 1-19 1-22-2-36-1-9-3-20-3-26-4-24-15-67-23-88-11-27-20-41-38-56-8-8-12-10-24-16-25-13-41-17-61-16-10 1-12 1-20 5-5 2-15 6-23 9-20 7-25 10-38 22-11 11-13 15-20 34-4 8-10 29-13 41-5 22-12 70-14 108-1 11-2 24-3 29-4 37-3 66 6 98 2 10 1 11-12 18-5 3-12 6-16 6-3 1-7 3-9 3-1 1-5 2-8 3-7 1-17 7-33 19-14 11-26 18-37 25-10 5-16 10-18 14-1 1-2 6-3 10 0 7-3 17-8 28-4 10-7 19-10 38-3 22-3 29 0 32l2 2h54c30 0 60 0 66-1h24c9 1 181 1 228 1 3 0 15 0 26 1 22 1 100 0 113 0z"/></svg>