<svg xmlns="http://www.w3.org/2000/svg" width="1344" height="566"><path d="M0 283V0h1344v566H0V283m1028 276c9-1 10-3 7-8-3-6-17-20-30-30-19-15-46-33-54-36-3-1-15-7-27-13-13-6-25-13-29-14-6-3-12-8-12-10 0-3 15-17 37-32 22-17 54-44 63-55 14-18 26-35 33-46 2-5 6-12 9-17 14-22 40-73 43-85 4-12 8-28 10-42 2-10 2-13 1-27-1-24-5-46-10-67-3-13-21-46-32-62-7-9-11-10-90-10-51-1-111 0-127 2-6 1-10 2-12 3-7 4-17 16-25 31-7 11-6 10-17 37-4 11-11 27-15 36-8 18-12 22-26 29-12 6-18 11-21 20-7 18-5 44 4 64 5 12 4 22-4 41-7 19-24 53-33 64-5 8-15 20-19 25-7 7-8 7-28 7-10-1-23-2-29-3-9-1-12-1-14 0s-12 10-25 23c-24 24-33 31-54 40-13 6-35 17-37 19-2 1-52 28-77 41-30 15-42 25-49 39-2 6-3 9-4 15 0 10 1 13 7 17l6 3h48c40 0 50 0 54-2 3-1 12-1 49 0 74 0 108 1 123 0 8 0 24 0 34 1 12 1 24 1 28 1 150-1 175-1 186 0 12 2 145 2 158 1z"/></svg>