<svg xmlns="http://www.w3.org/2000/svg" width="1344" height="566"><path d="M0 283V0h1344v566H0V283m813 275c3-3 3-3 3-12 0-14-5-49-10-72-4-16-5-29-3-39 1-7 11-39 20-65 8-24 11-35 11-49 0-9-2-16-7-28-6-14-7-20-7-42v-26c-1-6-1-8 5-9 2-1 4-3 5-5 2-3 2-5 2-17-1-8-1-16-2-18 0-2-1-6-2-8s-2-7-3-9c0-2-2-9-2-15-3-18-8-27-20-35-5-3-7-4-13-5-8 0-23 1-27 4-13 6-15 12-19 40-1 6-2 13-3 15 0 3-3 6-9 9-9 4-16 16-19 30 0 3-2 11-3 17-2 6-4 15-5 20-2 13-8 26-16 35-4 4-6 4-10 0-2-1-6-3-9-5-4-2-5-2-18-2-12 0-13 0-15 2-3 2-2 6 1 9 5 4 16 12 19 13 4 2 5 3 7 9 5 10 11 19 13 20 5 1 14-1 26-7 8-4 12-5 15-5 5 0 20-1 22-2 1-1 2 0 4 2s2 3 2 10c-1 4-2 10-3 13-1 4-2 8-2 10-1 2-3 7-5 11s-3 7-3 10c0 4 0 5 3 8 4 2 10 5 14 5 1 0 4-2 8-6 5-4 9-6 13-8l6-2c2 0 11 9 13 12 0 2 1 4 1 5 0 5-12 27-27 52-9 14-11 25-10 47 0 17 0 23-5 31-9 21-10 28-6 33 3 4 6 4 15-1 14-8 20-6 28 8 6 12 8 13 13 14 9 1 11 1 14-2z"/></svg>