<svg xmlns="http://www.w3.org/2000/svg" width="1344" height="566"><path d="M0 283V0h1344v566H0V283m781 279c9 0 56-1 106-1 110 0 120-1 127-2 8-2 63-2 102-1 64 3 93 3 102 2 3-1 13-2 20-3 16 0 18-1 18-6s-4-18-8-26c-4-7-16-28-22-39-8-11-11-15-17-21-10-10-17-14-38-22-26-10-29-12-45-23-4-2-10-6-15-7-17-8-21-10-35-24-20-19-26-21-48-15-6 1-12 2-13 2-4 0-9-5-13-13-7-13-9-20-10-29 0-7 0-8 4-18 2-7 5-16 6-22 1-5 3-12 4-16 0-4 4-13 7-20 8-15 9-18 16-37 10-26 14-45 16-71 1-15 0-20-5-36s-7-19-15-25c-4-4-7-8-8-9-1-2-4-6-8-10-5-4-6-6-7-10-1-10-3-11-15-13-10-1-19-6-26-12-7-7-9-8-17-7-5 1-8 1-13-1-18-5-29-6-58-1-23 4-29 5-43 12-5 2-11 4-12 4-10 3-36 18-45 25-5 5-14 18-20 30-4 10-4 10-5 23-1 20-2 21-8 38-16 43-18 50-15 70 3 13 5 76 4 101l-1 11 6 9c3 4 6 11 7 13 1 3 4 9 6 13 2 5 5 12 6 16 2 8 9 26 12 32s14 15 26 21c8 4 11 6 11 8 0 3-26 25-40 31-14 8-40 25-43 29-1 1-7 6-13 11-12 8-16 13-22 23-4 6-5 12-3 14s3 3 10 3c11 1 69 0 90-1z"/></svg>