<svg xmlns="http://www.w3.org/2000/svg" width="1344" height="566"><path d="M0 283V0h1344v566H0V283m636 277h129c43 0 74-2 85-5 5-2 7-3 11-7 6-6 10-13 10-16 0-2-1-6-2-8-7-20-20-61-21-70-1-2-3-12-5-21s-5-22-7-30c-3-22-10-54-12-57-1-1-2-7-2-13-2-18-3-26-5-29s-5-4-33-16c-11-5-39-30-44-40-3-8-4-13 0-18 3-7 12-33 14-45 3-16 2-31-3-41-2-4-6-10-11-14-6-6-9-9-16-12-15-8-29-9-52-6-21 2-36 8-45 17-11 10-13 18-11 31 1 5 3 13 4 18 0 4 2 11 3 14 0 4 1 9 2 12 0 6 0 6-4 10-3 3-5 4-8 5-8 1-14 5-20 11s-8 11-12 28c-1 6-3 13-4 16-2 7-9 20-16 28-3 4-9 10-12 15s-9 14-13 19c-17 20-18 23-23 43-7 29-7 40 2 51 4 5 6 6 15 6 13 1 28-2 35-9 10-8 23-17 25-17 1 0 2 1 2 8 1 8 1 54 0 110-1 29 0 31 15 32h29z"/></svg>