<svg xmlns="http://www.w3.org/2000/svg" width="1344" height="566"><path d="M0 283V0h1344v566H0V283m761 249c5-1 12-3 15-4 4 0 8-1 9-2 2-1 6-1 10-2 3-1 9-2 11-2 12-4 28-8 44-12 13-3 26-7 29-8 1 0 7-2 13-3 12-2 18-2 42 0 14 1 14 3 13-21 0-14 0-22-1-27-1-4-3-15-4-23-3-34-4-37-8-41-2-2-19-8-22-8 0 0-7-2-13-4-20-6-22-8-21-28 0-15-1-17-7-19-5-1-10-5-10-8 0-2 4-5 9-6 3 0 4-1 4-3s-1-5-2-8c-12-29-17-42-20-51-1-5-3-12-5-16-3-7-12-32-12-35-2-4-9-25-13-34-1-5-4-13-6-17-6-17-21-37-39-51-7-5-21-13-37-19-27-11-30-11-80 0-24 5-31 8-40 15-10 7-15 14-23 34s-12 34-13 51c0 7-2 20-2 29-1 10-1 34-1 60 0 43-1 44-3 47-1 1-9 7-18 12-18 10-31 19-35 22-2 3-9 17-9 19s-6 11-8 12c-1 1-5 2-7 3-4 0-5 0-9-2l-4-2-6 3c-4 2-10 6-13 7-4 2-11 5-17 7s-11 4-12 5-6 5-10 10c-8 8-10 10-16 12-3 1-8 2-12 2-11 0-15 3-21 18-2 3-4 9-5 11-1 3-5 12-7 21-3 9-7 19-8 22-3 8-3 10 1 12 2 2 6 2 22 2 19 0 20 0 26-3 7-3 14-6 20-8 2-1 8-1 16-2 14 0 32-1 38-3 20-4 24-4 28-3 3 1 9 3 14 3 5 1 11 2 12 3 2 1 9 3 16 5l12 3 42 1c35 0 44 0 52 1 4 1 15 3 23 3 21 1 34 6 44 15 3 2 7 5 9 6 5 1 15 1 25-1z"/></svg>