<svg xmlns="http://www.w3.org/2000/svg" width="1344" height="566"><path d="M0 283V0h1344v566H0V283m752 279c24-1 126-2 168-2h140c13 0 33-1 38-2 4-1 6-3 7-7 2-6-5-47-10-60-4-10-6-13-19-31-3-4-7-10-9-13-6-11-7-12-62-40-28-14-57-28-65-31-18-7-19-8-19-12 0-3 2-6 8-14 5-6 19-33 27-55 7-17 9-23 11-44 2-23 3-34 3-62 0-24 0-32-1-36-7-26-19-43-40-58-5-4-16-13-24-20-21-19-30-25-51-32-10-3-11-3-26-4-19 0-24 1-40 8-9 5-11 6-16 6-9 0-19 2-25 4-7 2-26 18-31 25-7 10-15 29-21 51-1 4-3 10-4 12-1 4-5 21-10 41-3 10-6 34-8 66-2 33-1 38 5 56 4 15 6 21 8 34 0 4 1 5 8 12 12 12 13 14 7 19-4 3-24 12-43 20-9 3-22 9-30 12-22 10-24 11-39 14s-18 4-21 9c-2 4-16 26-22 34-10 13-20 33-24 46-1 3-4 11-7 18-7 17-10 25-10 28 0 4 3 5 27 6 12 1 58 1 103 2h82c0 1 2 1 4 1 2-1 16-1 31-1z"/></svg>