<svg xmlns="http://www.w3.org/2000/svg" width="1344" height="566"><path d="M0 283V0h1344v566H0V283m730 280c3-1 25-1 50-2 24-1 46-1 50-2 4 0 25-1 49 0 23 0 50 0 58-1 20-1 21-1 20-10-1-8-4-18-9-34-8-24-8-27-6-49 1-7 3-22 4-34 0-12 2-26 2-31 1-4 1-21 1-36 1-15 1-32 2-36 1-6 1-14 1-21-1-10-1-13-4-19-8-19-13-25-55-62-7-7-13-13-15-16-2-4-4-14-4-25 0-27-8-54-21-74-6-11-23-27-35-34-5-3-13-8-17-10-11-7-19-11-31-13-37-7-59-5-85 9-27 13-43 31-61 65-7 14-9 20-12 36-3 19-6 24-14 30-3 2-14 8-26 14-39 19-48 25-60 37-8 8-11 15-14 33s-6 36-10 46c-1 5-3 13-4 18-3 11-5 22-8 32-5 19-6 24-8 33-1 5-3 15-4 21-2 7-3 17-4 22-2 17-7 32-13 41-2 2-4 8-5 12-3 8-6 14-9 15-1 0-3 1-4 2-4 1-5 3-6 13-1 9 0 11 4 11 1 0 6 1 9 3 6 2 8 3 10 6s4 5 5 6c5 2 29 3 114 3 46 0 88 0 93 1 13 1 65 1 72 0z"/></svg>