<svg xmlns="http://www.w3.org/2000/svg" width="1344" height="566"><path d="M0 283V0h1344v566H0V283m474 276h150c3 0 27 0 52 1 31 1 53 1 64 0 20-1 99-1 242 0 84 0 97 0 107-1 11-2 11-2 16 0s8 2 40 2c65 0 94-3 94-9 0-1-4-6-8-11-14-14-20-30-29-75-4-20-9-26-27-31-9-2-17-6-20-11-4-5-12-23-15-32-1-3-3-8-4-9-2-5-12-40-16-55-2-7-4-15-4-17-3-7-9-31-9-35-1-2-1-8-2-14-5-56-7-65-14-78-2-4-4-6-8-7-4-2-4-2-7-1-3 2-7 9-8 15 0 6-2 8-5 5 0-1-3-8-5-14-7-21-10-30-12-33-3-7-8-11-14-11-4 0-12 7-12 11 0 5-3 5-8-1-14-14-23-13-30 4-2 4-5 9-8 12-11 13-17 34-17 61 0 15 4 70 5 77 1 3 3 8 5 12 7 15 33 58 51 83 11 15 29 43 36 56 3 7 7 17 9 23 4 11 11 28 17 41 5 11 6 18 3 21-2 3-6 3-10 0-4-2-16-12-23-18-5-5-25-18-36-24-12-7-23-15-30-22s-10-12-17-30c-6-16-10-21-26-35-31-26-41-32-56-34-6-1-18-1-39 0-18 1-38 1-45 1-13 0-14 0-17-2-2-2-3-2-3-12 0-16 5-34 12-43 3-2 6-8 8-12 3-7 3-7 4-24v-20c2-9-11-56-22-79-2-5-8-18-12-28-9-21-9-22-18-38-26-41-37-56-53-69-15-13-27-19-52-26-31-11-37-11-80-4-4 1-12 2-18 3-24 3-31 4-40 8-18 5-32 15-49 31-11 12-16 19-27 41-13 25-18 42-17 61 1 8 1 9 6 19 6 13 7 18 5 40-3 24-2 32 2 44 7 16 7 16 8 38 1 19 1 21 3 28 5 14 13 25 24 37 8 8 16 17 17 21 2 2 2 6 2 13 0 11-2 20-8 29-2 4-17 18-23 22-5 3-14 6-18 6s-6-4-7-18c-1-11-2-16-5-24-4-12-10-26-14-30-7-9-18-8-24 3-3 7-4 19-4 46 0 21 0 23-1 25-2 1-2 1-4 0-4-2-10-17-14-32-4-16-10-53-11-68-1-8-2-21-3-28-4-27-6-33-12-37-8-4-14-1-16 9-2 9-4 31-5 54-1 13-1 24-2 24-1 2-3-1-4-5-4-10-10-32-14-48-8-29-12-37-19-41-7-3-11-3-15 1l-3 3v13c0 7 0 15 1 18 0 3 1 10 2 15 1 6 2 19 4 30 4 25 4 29 3 29-2 1-3 0-6-6s-8-19-10-25c-7-19-10-27-14-31-5-7-13-9-19-6-7 4-7 18 2 48 2 6 4 15 6 21 4 14 7 25 11 36 3 8 4 15 1 16l-11-11c-16-19-27-30-32-33-9-4-15-2-18 4-3 8 8 32 27 57 6 8 9 11 24 31 12 15 27 35 30 40 4 6 13 15 17 17 7 4 10 4 32 3 12 0 87-1 166-1z"/></svg>