<svg xmlns="http://www.w3.org/2000/svg" width="1344" height="566"><path d="M0 283V0h1344v566H0V283m652 277c26 0 77 0 113-1h168c13 1 36 0 55 0 30-1 32-2 34-3 1-3 2-18 0-24-2-7-4-24-5-39-1-7-2-19-2-25-2-21-2-28 0-34 1-5 1-5-1-10-6-14-11-20-20-24s-19-8-19-8c-1 0-7-3-15-6-7-3-16-7-18-7-7-3-13-7-20-15-7-7-8-9-5-14 1-2 1-5 1-8-1-2-1-7-2-10v-44c2-58 1-85-5-126-4-28-8-42-16-60-13-26-34-46-63-60-26-12-46-16-68-13-23 4-63 15-76 22-3 1-8 5-12 9-6 6-8 9-14 21-4 8-9 19-11 25-2 5-6 15-9 22-6 14-9 30-13 56-1 5-2 13-4 18-7 29-7 33-4 52 1 8 1 23 2 46l1 34 2 4c2 2 5 7 9 9 11 9 10 11-8 10-14 0-27 1-34 4-12 4-51 11-70 13-11 1-14 2-16 4-5 4-31 21-39 26-18 11-21 12-26 17l-10 10c-7 10-11 11-40 12-36 2-42 4-45 14-1 7-1 8 4 12 2 2 5 4 6 6 1 3 1 4-2 15-2 6-5 15-7 19s-4 9-5 11c0 2-2 4-2 6-1 2-3 8-5 14-4 10-5 13-3 15 2 1 27 3 57 3 18 0 30 0 32 1 5 2 41 2 68 1 11-1 20-1 26 0 11 2 37 2 136 0z"/></svg>