<svg xmlns="http://www.w3.org/2000/svg" width="1344" height="566"><path d="M0 283V0h1344v566H0V283m310 277c23 0 45-1 50 0 4 0 12 0 17-1 9-1 11-1 17 1 6 1 6 1 11-1 4-2 4-2 15-1 9 1 136 2 200 1 4 0 34 0 66 1 49 1 65 1 90 0 17-1 31-2 32-2 3-1 3-5 2-12-1-5-1-9 0-14 2-14-2-27-10-34-5-4-11-8-50-26-38-17-64-30-69-34-4-3-4-6-1-14 1-2 5-12 8-20 2-9 7-22 9-29 9-24 18-64 20-80 0-7 0-18-1-30-1-11-3-28-4-38 0-10-2-23-2-28-1-5-3-15-4-21-1-15-5-38-8-47-3-13-12-34-24-53-6-9-10-14-20-25-16-15-24-21-48-32-32-16-50-18-81-10-6 1-14 4-18 6-5 2-11 4-19 5-19 3-29 9-45 26-14 14-22 27-31 51-6 14-8 21-13 43-7 29-11 56-18 125-3 27-3 61-1 81 1 7 2 15 3 17 0 6 4 24 6 31 0 4 1 10 2 15 0 8 0 8-3 11-4 5-15 9-31 12-9 2-18 6-32 14-6 4-17 10-24 13-7 4-20 11-28 16s-18 11-22 13c-5 2-11 7-14 10-8 6-9 9-11 24-1 6-3 14-5 19-4 10-4 14-1 16 4 2 12 3 30 2 10 0 37 0 60-1z"/></svg>