<svg xmlns="http://www.w3.org/2000/svg" width="1344" height="566"><path d="M0 283V0h1344v566H0V283m763 247c5-1 13-3 17-4 9-3 18-5 25-6 3 0 10-2 15-3 4-2 12-4 16-5s12-3 18-4c5-2 11-4 12-4 2 0 7-2 11-3 16-6 22-7 44-7 18 0 21 0 22-2 3-3 4-24 2-39-2-14-4-24-5-39-1-6-2-14-3-17-3-7-5-9-16-12-21-5-32-9-37-14-4-3-5-8-6-24-1-15-2-17-9-20-5-1-10-5-10-7 0-3 5-6 10-6 3 0 5-1 6-2 2-2 2-2-3-14-4-13-6-18-10-27-3-7-6-17-8-25 0-3-2-8-3-9 0-2-3-9-5-16-9-24-24-67-26-74-3-8-10-20-16-28-5-6-18-18-24-23-7-5-33-17-45-22-20-6-23-6-72 5-35 7-46 16-58 44-10 22-15 41-17 71 0 11-1 25-2 30s-1 26-1 48c0 44 0 42-6 46-2 1-10 5-18 10-8 4-17 10-20 11-12 7-18 15-24 31-2 8-6 11-13 13-7 1-10 1-11-1-2-2-6-1-21 7-4 3-12 6-19 9-12 4-16 7-23 17-3 5-5 6-12 9-4 2-9 4-12 5-9 1-11 1-14 4-3 2-8 11-8 14 0 1-2 5-3 9-4 8-5 13-3 17 1 1 2 5 2 8 0 4 1 6 2 8 2 3 3 3 12 3 8 0 9 0 12 2 4 3 6 4 17 1 9-1 9-1 19 1 9 2 11 2 21 1 6 0 12-1 13-1 5 0 13-2 17-3 2-1 6-3 9-4 6-1 6-1 10 0 2 1 8 3 14 5 6 1 13 3 15 4 5 3 19 7 28 8 5 1 20 1 43 1 31 0 38 0 61 2 28 3 34 4 46 11 4 1 8 4 9 6 6 6 9 7 18 7 4-1 12-2 17-3z"/></svg>