<svg xmlns="http://www.w3.org/2000/svg" width="1344" height="566"><path d="M0 283V0h1344v566H0V283m944 276c22-1 41-1 43-2 9-1 8-7-5-42-4-12-9-25-11-29-5-14-14-37-20-50-3-8-7-19-9-25-3-9-3-11-3-18 1-7 1-10 4-15 7-14 11-29 10-36-1-2-4-9-7-16s-9-19-12-27c-5-15-12-28-24-47-15-23-17-27-18-46-1-10-1-16 1-30 2-20 1-54-1-69-3-15-13-38-28-60-9-14-26-32-35-36-12-5-16-5-75-5-56 0-58 0-70 4-2 0-10 3-18 5-11 3-18 6-25 9-17 9-23 14-32 26-3 4-8 11-12 15-16 17-24 33-26 53-2 16 1 48 6 65 4 17 9 25 20 34 7 6 9 11 14 35 3 16 9 32 24 70s18 46 24 52c10 11 29 16 47 11 3-1 10-2 14-3 8-1 8-1 11 1s9 12 10 18c1 5 1 6-1 9s-12 14-23 26c-32 34-34 37-34 50 0 6 1 8 8 23 5 10 10 20 12 23 1 3 4 7 6 10 5 11 9 14 19 16 13 3 130 3 216 1z"/></svg>