<svg xmlns="http://www.w3.org/2000/svg" width="1344" height="566"><path d="M0 283V0h1344v566H0V283m690 276c36 0 76 0 90-1 26 0 27 0 32-6 3-3 13-19 17-28 3-6 9-24 12-36 1-6 3-10 4-11 2 0 5 2 10 10s31 34 35 37c2 1 4 2 5 3 1 0 8 4 17 9 8 4 16 8 18 10 6 5 7 5 29 5 17 0 22 0 30-2 14-3 23-4 24-4l4 4c3 5 6 6 34 9 10 0 40-2 44-4 6-4 8-14 3-24-4-8-14-20-22-25-15-9-18-13-25-34-7-17-10-21-26-32-7-5-13-8-25-11-9-3-16-9-32-22-5-5-10-8-16-11-4-2-10-6-13-8-6-4-23-22-33-34l-6-8v-7c0-9-2-17-7-28-6-13-10-28-10-34 0-4 0-12 1-18 1-9 1-18 0-47-1-20-2-36-2-37-1 0-1-7-2-15-3-33-11-60-23-73-5-6-13-11-23-14-23-9-38-12-53-11-22 2-38 6-51 13-21 11-36 37-45 78-1 4-4 15-6 25-3 10-5 20-6 23-1 6-2 11-11 36-3 10-15 37-21 46-7 11-20 26-38 44-8 9-18 20-22 24-3 5-12 17-20 27-25 32-46 59-51 69-6 9-9 17-15 35-9 29-12 43-12 58-1 12 1 15 6 17 8 5 30 5 201 3z"/></svg>