<svg xmlns="http://www.w3.org/2000/svg" width="1344" height="566"><path d="M0 283V0h1344v566H0V283m609 277h95c71 0 93-1 95-2 4-2 5-6 4-24 0-20-2-31-9-59-6-24-11-37-16-47-5-8-4-8-2-24 0-4 0-5-2-8-2-2-14-8-28-14-4-2-15-6-24-11-26-11-34-15-42-19-14-6-15-10-12-28 1-6 3-18 3-26 1-9 3-21 4-28 2-23 1-47-4-100-1-13-6-44-7-50-2-6-6-20-10-30-10-25-25-44-44-58-9-7-28-17-39-21-8-3-10-3-20-3-11 0-12 0-25 4-10 4-16 5-24 6s-11 1-18 5-10 6-19 15c-12 12-15 16-23 31-10 19-17 45-26 99-9 45-12 66-13 91-1 21 0 46 2 57 3 9 2 18 0 22-4 6-8 7-21 8-7 1-13 1-14 2-1 0-6 2-11 4-10 3-13 5-35 17-6 4-16 9-22 12-11 6-16 11-19 15 0 1-1 7-2 13-2 14-5 26-11 43-1 2-3 10-5 17s-5 20-7 29c-5 22-9 40-9 47 0 6 2 9 8 12 5 2 44 3 77 2 46-1 79 0 146 2 27 1 128 0 129-1z"/></svg>