<svg xmlns="http://www.w3.org/2000/svg" width="1344" height="566"><path d="M0 283V0h1344v566H0V283m484 276c28-1 69-2 97-2 2 0 30 0 63 1h320c111 2 127 2 130 1 9-5-4-21-32-39-18-12-64-36-82-43-31-13-44-21-54-34-3-5-4-7-4-10 0-4 6-20 10-31 2-4 5-11 7-16 6-18 20-48 25-56 6-8 9-11 17-14 15-4 23-11 36-28 8-9 17-27 19-36 3-12 0-21-8-26-2-2-4-4-5-6-1-4 1-12 7-30 7-23 14-48 16-64 5-34 5-38 0-58-6-25-12-39-20-51-5-6-10-9-19-11-7-2-154-3-195-2-38 1-43 2-48 7-4 3-16 27-21 41-6 15-10 30-14 51-5 24-8 35-10 38-3 3-5 5-14 7-14 3-20 18-19 42 1 25 8 42 21 56 4 4 8 9 9 10 2 5 1 15-2 45-2 28-4 38-10 53-5 13-16 29-22 33-4 1-27 2-45 0-17-2-18-1-38 22-21 24-33 33-61 46-7 3-20 9-27 12s-20 9-27 12c-27 11-55 26-69 38-12 9-28 29-30 36-1 1 0 2 1 4 2 1 5 2 20 2 10 1 20 1 22 1 2 1 7 1 12 0 5 0 24-1 44-1z"/></svg>