<svg xmlns="http://www.w3.org/2000/svg" width="1344" height="566"><path d="M0 283V0h1344v566H0V283m554 278c3 0 7-1 9-1 2-1 17-1 55-2 97 0 96 0 99-2l3-2 1-25c0-14 1-34 1-44 2-15 2-19 4-21 2-3 1-3 28-1 11 1 22 1 24 1 2-1 15-2 28-3 43-4 63-6 92-12 11-2 14-3 24-8 17-9 22-12 33-23 10-10 16-18 16-24 0-3-6-18-9-23-2-2-4-6-7-9-6-11-26-35-33-41-9-7-11-9-23-14-13-6-18-10-25-20-6-9-14-17-21-22-5-3-8-6-10-8-3-7-5-7-9-2l-5 4-6-1c-3-1-10-4-16-7-11-5-12-5-17-4h-10c-5 0-15-4-28-12-5-3-14-8-20-11-5-3-11-6-12-8-1-1-2-4-2-8-1-3-2-11-3-18-1-8-2-17-3-20-1-11-10-49-14-56-5-11-12-19-21-26-11-9-19-13-34-18-21-7-36-9-54-9s-24 1-47 11c-25 11-35 19-50 42-13 19-23 38-31 57-4 11-8 17-14 21-13 10-32 21-44 25-2 1-9 5-15 9-28 18-31 20-54 28-27 10-31 13-44 33-8 12-10 18-12 36-1 15-1 24 3 40 2 10 3 10 10 20 3 4 8 11 11 16s9 11 12 14c7 6 17 19 20 26 1 3 1 8 1 34-1 17-1 33-2 37-2 14-4 30-5 37-1 14-9 12 73 13 68 0 120 1 121 2h13c7-1 15-1 19-1z"/></svg>