<svg xmlns="http://www.w3.org/2000/svg" width="1344" height="566"><path d="M0 283V0h1344v566H0V283m459 278c14 0 26-1 26 0 1 0 8 0 17-1 19 0 19 0 21-14 0-5 1-16 1-25 0-16 0-18 6-29 3-7 4-16 4-24-1-12-3-23-4-25-1-1-1-4-1-6s-1-7-2-11-2-10-3-14c0-6-3-14-8-25-5-8-13-16-28-26-17-11-18-12-18-14s2-5 4-8c5-6 5-7 11-19 4-8 9-14 14-17 2-1 5-3 7-5 3-4 3-4 4-17 2-26 2-29 0-34-3-8-5-15-5-27-1-14-4-29-8-36-4-8-11-14-16-15-2 0-7-2-11-3-14-6-26-8-41-8-11 0-14 0-20 2-15 5-31 18-38 31-5 8-6 16-6 45 0 33-2 102-3 113-1 10-4 17-14 29-7 11-15 26-18 38-1 4-4 14-6 21s-4 17-5 21c-1 5-2 11-2 15-4 16-8 53-8 65 0 6 1 11 2 14 3 9 1 9 56 10 26 0 52 1 57 0 6 0 22 0 35-1m508 0c3-1 9-2 16-2 20 0 19 2 20-52 1-42 2-57 5-93 1-11 1-31 1-46 1-30 0-31-9-53-5-14-8-19-29-50-9-14-15-22-23-31-15-15-17-18-18-27-1-4-3-8-3-10-2-2-7-4-11-4-3 0-11-4-14-8-3-3-7-10-8-15 0-5 2-23 5-32 1-4 4-16 7-26 7-29 6-35-4-61-6-16-9-20-20-26-12-6-20-8-32-9-9 0-12 0-20 2-11 3-30 9-36 13-6 3-18 14-22 20-3 5-3 6-3 15 0 8 0 12-2 20-2 5-4 16-4 23-1 8-2 14-4 17-1 3-3 9-4 14l-1 8 4 8c2 5 5 12 6 16 3 9 12 26 16 29 2 2 8 4 13 6 15 5 17 7 21 15 5 10 1 18-15 36-8 8-9 11-11 22-3 23-4 24-12 42-6 16-9 24-12 40-9 39-10 45-11 48 0 2-1 8-2 12-5 21-6 27-8 38-1 7-3 16-4 20 0 3-1 9-2 12 0 5-2 13-6 37-5 21-5 25-2 27 4 3 39 4 115 3 32 0 112 1 113 2s4 1 10 0z"/></svg>