<svg xmlns="http://www.w3.org/2000/svg" width="1344" height="566"><path d="M0 283V0h1344v566H0V283m648 278h275c179-1 185-1 187-3 2-1 2-2 2-7-1-6-4-15-9-27-2-8-2-11 0-27 0-5 0-5-4-9s-8-6-24-13c-15-6-81-38-91-44-7-4-9-5-11-9s-2-5-2-15c1-6 2-15 3-22 5-41 5-57 4-99-2-67-4-86-13-130-5-27-10-41-20-60-17-36-42-59-79-72-26-10-40-13-56-11-7 1-10 2-18 5-9 5-9 5-22 6s-14 1-22 5c-15 8-32 23-40 37-12 19-20 44-24 68s-5 43-3 104v56l-4 11c-8 22-8 21-29 33-16 8-15 3-12 53 1 19-1 22-12 24-3 0-9 2-14 4s-12 4-14 5c-3 1-10 4-14 6-5 2-12 5-14 6-3 1-10 4-15 6s-16 7-23 10c-20 8-18 6-18 19 1 10 1 13-2 24-1 7-6 21-9 31-4 12-7 22-8 26 0 5 0 6 2 7 4 3 26 4 47 3 8 0 55 0 106-1z"/></svg>