<svg xmlns="http://www.w3.org/2000/svg" width="1344" height="566"><path d="M0 283V0h1344v566H0V283m654 276c62-1 435-1 457 0 11 1 25 1 43 0 28-1 29-2 29-7 0-6-16-42-28-62-19-34-55-63-96-79-12-4-32-14-47-21-28-15-34-18-45-22-14-5-18-7-28-14-26-20-31-25-30-38 1-7 5-20 8-29s7-12 17-17c14-7 24-17 32-34 2-6 3-9 4-16 0-8-1-12-6-18-4-4-5-9-3-16 1-4 4-17 7-30 4-22 4-23 4-41 0-17 0-19-2-25l-4-12c-2-9-9-20-14-25-7-7-22-18-33-24-6-3-14-8-18-10s-11-5-16-6c-10-3-13-3-44-1-20 1-32 5-48 13-17 8-23 13-30 24-9 13-11 17-15 31-5 16-6 21-11 49-2 13-5 25-5 27-1 2-4 5-7 7-9 8-12 20-10 39 2 12 4 17 10 33 2 5 5 14 6 20 3 11 9 40 10 48 1 7 1 23 0 26-2 4-27 25-39 32-8 6-20 11-29 13s-9 2-47 18c-13 6-29 13-36 15-19 8-38 18-49 25-23 16-46 43-61 73-13 26-17 49-8 53 2 1 15 1 53 0 28 0 57 0 65 1 8 0 15 1 16 1 2 0 23 0 48-1z"/></svg>