<svg xmlns="http://www.w3.org/2000/svg" width="1344" height="566"><path d="M0 283V0h1344v566H0V283m748 278c7-1 14-1 24 0 8 1 20 1 28 1 9-1 24-1 34-1 9 0 28 0 41-1 16-1 44-1 88 0 65 1 95 0 105-2 6-2 6-4 6-16-2-23-16-88-30-138-1-4-3-9-3-12-2-7-9-20-14-26-4-6-12-12-20-17-9-5-43-19-55-23-23-8-42-17-52-25-4-2-16-15-28-27-15-15-25-25-31-28-11-8-14-11-14-19-1-6 1-29 4-41 1-6 2-7 7-12 20-18 23-24 23-46 0-12-1-19-5-30-4-10-7-21-8-31-2-11-6-28-11-41-6-14-7-16-12-19-4-2-6-2-38-3-18-1-67-1-108-1-82 1-79 0-84 7-4 4-10 22-12 33-3 13-3 31-2 45 4 46 7 63 12 74 7 15 28 58 31 61 2 2 6 6 9 8s7 6 8 8c2 2 5 6 7 9 11 12 16 22 15 27-1 7-6 15-16 26-12 12-19 16-46 29-22 9-66 31-79 40-11 6-17 12-17 16 0 2 2 6 10 21 10 16 17 32 19 40 2 11 0 22-8 49-3 8-6 18-7 23-1 6-4 13-7 20-6 11-7 14-3 16 1 0 11 0 23 1 26 0 31 0 39 3 6 2 9 2 68 2 34 1 62 1 63 1 1 1 34 0 46-1z"/></svg>