<svg xmlns="http://www.w3.org/2000/svg" width="1344" height="566"><path d="M0 283V0h1344v566H0V283m1296 279h41l3-2 2-3V57l-3-3c-4-4-13-7-23-8-9 0-15 1-28 5-14 4-16 5-21 10-2 2-5 4-5 4-1 0-3 1-5 3-1 2-6 5-10 6-7 4-10 7-12 13s-2 47-1 59c3 24 9 48 16 65 3 5 8 11 10 11 1 0 4 1 8 3 3 2 7 3 8 3 3 0 8 3 8 5 2 3 1 10-1 12-2 3-11 13-24 27-9 10-13 17-17 33-2 5-5 15-8 22-13 34-17 56-19 111 0 30-1 33-12 46-9 11-30 25-34 24-1-1-10-4-21-8-22-7-27-8-29-5-3 4-2 7 5 14 5 5 6 6 6 9 0 4-5 10-15 17-5 3-9 7-9 8-2 4 0 8 3 9l10 5c6 3 7 3 21 4 26 1 46 1 50 0s6-1 14 2c5 1 10 1 28 0 12 0 41 0 64-1m-361-1c10-2 13-3 16-9 2-3 2-5 3-14 0-6 1-15 2-20 0-4 1-10 1-11 0-2 1-7 2-11 1-5 2-10 2-12 0-3 2-15 6-36 7-35 10-73 10-105 0-28 1-27-18-69-7-14-24-45-30-53-1-2-5-7-9-11-7-9-11-17-11-21 0-9-4-13-12-13-4 0-5-1-10-6-6-6-11-16-12-25 0-8 1-27 5-49s4-29 1-39c-5-14-11-21-23-32-5-4-11-9-14-10-5-2-7-2-21-2-18 0-23 1-43 11-12 5-14 6-21 13-8 9-10 13-10 30-1 7-2 17-3 23-1 7-3 17-3 24 0 6-1 14-2 18l-1 6 3 6c2 3 5 8 7 12 5 11 14 26 16 27 1 1 5 3 8 4 11 4 18 8 21 11l2 4-3 3c-2 2-6 7-9 11-3 5-6 10-8 12-3 5-6 14-8 21 0 4-7 21-12 31-3 7-9 22-12 34-2 10-8 37-8 40s-3 18-7 30c-2 10-5 24-8 41-4 22-8 38-16 69-2 10-2 14-3 35 0 17 0 23 1 24s4 2 8 3c5 0 8 1 10 3l4 3 33-1c18 0 48-1 67-1h38c4 2 36 3 50 2 7 0 16-1 21-1m-408-1c2-1 7-2 10-3 7-1 10-3 13-9s3-10-3-17c-7-8-8-10-8-14s-2-6-9-8c-5-2-6-3-6-5 0-3-2-5-8-9-7-3-8-7-8-19 0-10 1-19 6-32 3-8 5-20 5-26 0-2-1-7-1-10-1-4-2-8-2-11 0-2-1-5-1-6-1-2-2-6-3-9-4-17-13-35-19-43-3-3-8-7-10-9-12-8-14-9-18-13-3-3-4-4-4-8 0-3 1-5 3-8 2-2 5-6 5-8 3-6 9-14 16-17 8-4 9-7 11-18 1-5 2-11 2-15 1-8 1-15 0-21-1-3-2-10-2-16-2-26-6-40-15-47-5-4-18-10-31-15-7-2-10-2-22-2s-14 0-22 2c-11 4-15 6-21 11-14 14-17 33-20 127 0 16-1 32-2 35 0 2-5 14-10 24-6 12-11 22-12 27-1 7-5 20-8 28-1 3-2 11-2 21-1 14-1 18-4 29-3 12-3 14-3 28 0 21 1 32 9 54 6 20 8 23 13 26 6 4 23 7 33 7 13-2 132-1 134 1 1 1 10 0 14-2z"/></svg>