<svg xmlns="http://www.w3.org/2000/svg" width="1344" height="566"><path d="M0 283V0h1344v566H0V283m943 153c0-1-3-17-8-32-1-4-5-14-8-22-7-18-17-47-20-59-1-5-2-12-2-18 0-11 1-12 10-13 7-1 33 0 39 2 3 1 6 1 8 1 5 0 10 4 25 16 13 12 14 12 29-1 5-5 8-9 12-17l5-9 2-24c0-14 1-26 2-28 0-4-2-13-7-22-4-8-8-14-12-16-4-1-17-4-32-7-22-3-36-8-48-18-11-10-16-18-31-51-7-14-10-21-18-33l-3-5 1-8c2-9 1-10-5-13-6-2-24-1-32 4-4 2-17 15-20 19-6 9-8 14-8 18 1 3 9 25 14 34 3 6 17 21 22 23 3 2 5 2 8 1 11-1 12 1 15 21s4 25 6 33c1 8 1 18-1 23-1 1-4 5-6 7-4 5-4 5-10 5-3 0-6 1-8 2-1 1-1 1 1 3 1 1 5 2 9 3 9 1 12 3 14 6 4 5 0 8-17 12-10 2-14 3-20 9-11 10-11 29 0 43 3 2 8 9 12 13 10 12 11 14 15 27 8 20 8 22 13 24 7 3 16 15 19 25 1 4 1 5-1 8-3 5-2 6 5 6 4 0 6 1 10 3 2 1 5 2 6 2s5 1 7 2c6 3 7 3 8 1z"/></svg>