<svg xmlns="http://www.w3.org/2000/svg" width="1344" height="566"><path d="M0 283V0h1344v566H0V283m691 251c8-7 9-12 11-42 1-12 2-22 3-25 2-7 3-17 4-45 1-27 2-31 5-47 4-21 5-25 7-33 2-3 4-10 5-14 3-13 12-30 15-30 2 0 8-6 8-8 0 0-2-3-5-6-5-6-5-8-1-17 2-4 3-7 3-8s1-4 2-7c4-13 6-40 4-51-1-5-2-7-6-12-5-4-6-7-8-13-1-4-3-10-5-13-1-3-3-9-4-15-2-13-5-18-10-24-5-5-9-7-17-9s-13 0-21 9c-9 10-13 18-16 30 0 4-1 7-2 8 0 1-1 6-1 11v9l-6 3c-3 2-8 5-11 7-3 3-8 6-10 8-2 1-7 5-10 7-4 4-7 6-14 8-14 5-20 8-28 16-8 7-12 9-19 11-6 0-7 2-7 5s2 6 7 9c2 1 5 4 7 6s5 3 6 3c2 0 4 0 6 1s4 1 8 0c8-2 11-4 11-9s1-5 8-7c4 0 11-2 16-4 4-1 11-3 14-3 2-1 7-3 11-4 9-4 9-5 14 9 4 12 4 13-1 19-2 3-4 6-4 7s-2 4-4 7c-3 3-5 6-5 7-1 1-1 5-2 8-1 4-2 16-2 26-1 14-1 22-2 26-3 10-3 12-1 14 1 1 2 2 4 2s2 0 7-14c3-6 8-14 16-26 5-6 7-6 9-2 1 3 0 50-1 59-1 8-1 63 0 73 3 21 2 38-2 57-1 5-2 12-3 16 0 5 0 6 2 8 4 4 10 4 15-1z"/></svg>