<svg xmlns="http://www.w3.org/2000/svg" width="1344" height="566"><path d="M0 283V0h1344v566H0V283m850 278c9 0 17 0 18-1 3 0 4-4 5-12 0-5 0-14 1-21 0-9 0-15-1-17-1-5-8-11-17-16-4-2-10-6-14-9-3-2-11-7-16-10-4-3-11-7-14-9s-14-8-25-14c-22-11-27-15-47-32-8-6-17-14-21-16-10-9-13-15-11-30 1-9 6-29 10-40 4-10 13-19 33-34 6-3 8-6 14-17s7-25 5-73c-1-41-5-57-19-84-9-19-17-30-33-41-14-10-28-15-50-17-26-2-34-2-42-1-10 2-16 4-27 11-17 11-27 23-40 52-13 28-16 45-12 76 1 9 1 19 1 36 0 21 0 27-2 44-5 29-6 35-11 46-5 13-6 14-22 21-10 4-12 5-28 8-21 3-43 8-50 11-15 7-21 20-23 48-2 18-1 25 4 40 6 20 7 25 7 42 1 17 3 26 9 42 4 9 5 10 10 13 7 4 16 4 64 5 55 1 322 0 344-1z"/></svg>