<svg xmlns="http://www.w3.org/2000/svg" width="1344" height="566"><path d="M0 283V0h1344v566H0V283m932 277c29-2 31-2 31-6s-22-21-41-32c-7-4-12-9-13-13-2-8-3-10-7-13-6-5-8-14-4-20 4-5 6-6 18-4 11 2 14 2 20-1 3-2 16-17 20-24 1-3 4-6 5-8 1-1 4-8 8-14 9-20 8-25-13-37-10-7-25-14-30-15-1-1-9-2-16-2-16-2-21-4-25-10-3-5-2-9 3-17 6-10 11-14 18-14 3 0 10-4 10-5s-3-2-6-3c-8-3-9-5-9-13 5-50 5-59 0-75-7-21-18-38-30-48-8-6-27-16-39-21-8-3-28-6-44-7-20 0-46 1-54 4-7 2-26 9-33 12-6 3-12 9-14 14-2 6-3 17-3 27 0 8 0 10-5 24-4 13-5 18-6 27 0 7-2 13-2 15-1 1-2 8-2 17-3 45-2 44-5 51-2 5-3 9-3 14s-1 8-3 11c-1 3-3 6-4 8s-2 5-4 6c-2 3-2 4-2 6 2 9 0 13-7 14-6 1-9-1-9-6v-4l-8-1c-7 0-9 0-14-2-9-5-13-5-17-1-2 2-6 4-8 5-6 1-9 5-18 19-10 16-12 20-16 48-5 25-4 32 4 34 6 2 8 4 9 9 1 3 3 8 5 12 2 3 4 8 5 9 0 2 2 5 5 7 5 4 5 4 5 10 1 5 2 7 3 8 4 4 35 5 117 6h76c0 1 128 0 152-1z"/></svg>