<svg xmlns="http://www.w3.org/2000/svg" width="1344" height="566"><path d="M0 283V0h1344v566H0V283m871 274c65-1 64-1 113 0l42 1 1-2c2-2 2-2 0-6-5-12-48-47-77-63-8-4-17-9-20-10-10-4-18-7-22-9-3-1-9-3-14-5-17-7-31-15-36-22-7-8-2-22 19-50 6-9 15-23 20-31 24-38 27-42 47-60 10-9 15-15 24-32 9-15 12-23 13-35v-10l-5-5c-4-5-5-7-5-9 0-4 3-20 7-35 10-36 13-62 11-80-2-20-8-42-15-57-3-7-6-10-13-18-6-5-11-10-13-11-9-4-19-4-96-4-106-1-134 0-144 5-7 4-16 18-23 35-6 14-14 39-15 48-1 5-3 17-5 28s-4 21-5 23c-2 5-7 8-13 8-3 1-7 2-10 4-4 3-6 4-8 10-3 6-3 7-3 23 0 14 0 17 2 26 4 13 11 26 20 37 4 4 8 10 9 11 3 5 2 11 0 27-6 40-15 65-26 76-7 8-11 8-42 8-23 0-25 1-28 3-4 2-9 8-15 15-24 31-33 39-68 60-8 4-17 10-19 12-8 7-27 19-39 25-13 6-18 10-20 16-1 5-1 38 0 42 1 2 3 4 5 6 6 4 16 4 67 4 58 0 171 1 172 2 0 1 144 0 227-1z"/></svg>