<svg xmlns="http://www.w3.org/2000/svg" width="1344" height="566"><path d="M0 283V0h1344v566H0V283m752 279c11-2 15-3 18-6 2-2 3-4 3-11 2-16 1-43-1-59-3-22-4-43-1-66 2-27 2-52-1-68-2-13-8-32-12-39-2-6-9-14-19-24-8-9-10-12-11-17-1-4 0-14 3-28 1-5 2-13 3-17 0-4 3-15 6-25 2-9 5-19 5-22 2-7 4-32 4-39s-3-30-5-42c-2-10-7-24-11-31-5-7-16-19-23-25-14-11-38-23-52-27-30-8-30-8-45-8-9 0-17 0-22 1-4 1-11 2-16 3-19 2-36 11-50 24-10 11-16 19-21 30-7 16-11 33-13 53-1 7-2 17-3 23-1 10-1 10-11 18-6 4-7 9-5 20 5 34 4 37-14 58-14 16-17 19-40 30-17 8-52 29-66 40-18 13-33 26-47 42-16 17-35 41-42 54-5 8-12 23-12 28-1 2-2 7-3 11-4 17-5 22-6 41l-1 19 3 22c3 24 5 28 10 32 3 2 4 2 35 2 17 0 51 0 74-1 41-1 116-1 119 0 1 1 16 1 33 1 94 2 163 3 163 4 1 0 68 0 74-1z"/></svg>