<svg xmlns="http://www.w3.org/2000/svg" width="1344" height="566"><path d="M0 283V0h1344v566H0V283m810 278c7-1 31-1 53-2 34 0 42 0 52 2 9 1 14 1 21 0h39c41 1 125 0 145-1 17-1 23-2 27-5s2-9-2-9-11-5-14-10c-1-3-3-5-4-6s-6-1-15 0h-12l-10-6c-4-4-10-8-11-10-5-4-18-32-25-52-2-4-4-10-5-12s-2-6-3-10c-2-3-5-11-9-18-3-7-6-15-7-18-11-34-27-66-37-73-4-3-9-6-41-22-29-14-36-19-39-24-2-5-3-12-2-45 2-39 0-51-11-72-9-17-17-27-32-37s-29-18-39-22-27-7-47-7c-14 0-16 0-25 2-22 7-41 18-53 32-17 20-21 28-25 55-2 9-3 13-12 30-5 12-6 16-7 35 0 9 0 18-1 20-2 8-8 12-25 18-43 14-62 24-78 40-6 7-7 9-14 33-9 28-25 64-51 113-9 16-12 24-15 35 0 3-3 13-5 22-4 15-4 16-3 19 1 1 3 3 5 3 8 3 71 4 192 1 51-1 57-1 63 0 4 1 8 2 10 2 4 1 59 0 72-1z"/></svg>