<svg xmlns="http://www.w3.org/2000/svg" width="1344" height="566"><path d="M0 283V0h1344v566H0V283m651 278h58c37 1 39 1 51-1 14-3 18-4 18-6 1-2-1-40-2-53-1-5-2-13-3-17-4-15-5-26-5-46 0-11 0-24 1-30 2-14 2-43 0-54-3-23-9-44-15-55-2-3-8-11-15-17-12-13-14-16-14-23 0-6 5-29 9-38 8-21 11-38 11-65 0-25-4-48-12-69-4-12-14-24-26-32-20-14-36-22-57-29-20-6-38-7-61-4-28 4-43 9-58 19-21 14-39 46-44 77-2 19-5 35-6 39-1 2-3 5-7 7-3 3-6 5-6 7-1 1-2 9-2 21-1 23-1 23-11 39-16 23-18 24-47 38-12 6-48 28-63 39-21 15-50 43-62 59-11 15-24 36-28 43-6 13-11 33-15 57-1 14-1 34 0 39 0 2 1 12 2 22 0 22 1 26 7 30l3 2 72-1c96-1 180-1 206 1 48 3 74 3 121 1z"/></svg>