<svg xmlns="http://www.w3.org/2000/svg" width="1344" height="566"><path d="M0 283V0h1344v566H0V283m82 273c6-1 14-1 18-1h31c13 1 27 1 30 2 7 0 10-1 14-7 2-3 4-5 5-5 0-1 5 1 9 3l7 4h23c14 1 23 0 24 0 4-2 5-6 5-19 0-7 0-15-1-18-2-8-5-31-7-43 0-6-2-13-3-16-1-4-3-10-3-13-2-9-3-10-9-5-5 3-7 2-8-1 0-3-2-5-7-7-6-3-8-6-9-11 0-2-1-5-2-7-1-3-1-3 3-7 5-4 5-6 0-15-3-6-4-10-2-12 3-2 7 1 13 8 5 5 7 6 7 2 0-1-1-2-1-3-2-2-4-7-7-17-1-3-4-10-6-14-3-5-5-11-6-13 0-2-2-7-4-11-5-10-4-12 8-30 9-14 18-25 21-27 2-1 4-5 6-8 4-10 6-10 8-5 1 3 2 7 2 9 0 6 4 11 9 11 3 0 12-4 14-7 2-2 2-37 0-46-1-4-1-10-1-14 0-6 0-7 7-20s8-15 9-20c0-8-1-10-6-13-9-5-15-4-25 6-10 9-19 16-22 17-1 0-3 0-5-1-1 0-3-1-4-1-2 0-6 5-6 7 0 3 4 14 7 16 2 2 1 11-2 15-2 5-6 5-12 0-3-2-8-5-11-7-9-5-10-7-10-18 2-24 4-49 5-51 2-5 19-21 22-23 2-1 5-3 7-5 4-3 4-4 4-9 0-10-4-17-10-20-4-2-18-3-23-2-2 0-6 3-9 5-7 6-11 6-18 4-3-1-8-3-11-5-8-3-18-6-29-7-11 0-16 1-27 6-10 4-16 11-19 18-4 10-2 19 6 37 3 7 6 13 6 14 0 2 3 7 6 11l3 3-5 10c-2 5-5 10-6 11-2 0-6-3-10-8-1-3-4-6-6-7-4-2-8-11-11-22-2-6-9-13-14-15-6-2-25-2-29-1-6 2-10 7-11 15-1 9-1 116 1 122 1 6 1 35 0 40-1 2-1 12-1 25l1 20 5 12c11 26 14 34 15 42 1 4 3 11 5 14 2 6 2 8 3 21 0 10 0 15-1 19-1 3-2 8-3 12 0 3-2 10-3 14-2 5-4 14-5 20-2 5-4 12-4 15-1 2-2 9-3 14 0 8 0 9 2 11l2 3h27c15 0 31-1 37-1z"/></svg>