<svg xmlns="http://www.w3.org/2000/svg" width="1344" height="566"><path d="M0 283V0h1344v566H0V283m459 141c7-2 7-2 10-9 4-9 9-12 34-18 8-3 10-3 27-3 18 0 19 0 22-2 8-5 10-5 18-5 5 1 11 2 15 2 13 3 69 6 89 5 6 0 13 0 21 1 9 2 13 2 28 1 19-1 37-4 47-7 5-2 15-4 29-6 4-1 8-2 9-2 1-1 8-2 15-3 13-2 13-2 36 2 6 1 6-1 5-16-1-7-2-17-2-23-1-6-1-15-2-21-1-5-1-14-2-20 0-6-1-11-3-15-4-7-5-12-4-13 0-1 2-3 5-3 6-3 7-5 4-10-1-4-1-5 0-21 1-21 1-40 0-55-1-10-2-18-7-49-1-12-6-33-9-40-4-10-8-17-16-27-11-13-43-29-59-29-7 0-36 8-45 13-16 7-28 21-36 41-4 10-5 18-6 42-1 11-2 27-2 34-1 7-3 24-4 36 0 12-2 24-2 25-1 3-4 3-9 0l-3-2-3 2c-2 2-4 3-7 3-5 0-17 2-19 3 0 1-1 2-1 3 0 3-2 4-10 5-6 0-6 0-10-2-4-4-7-4-8 1-1 4-4 4-9 0-3-3-3-3-12-4h-9l-9 5c-4 3-10 7-13 8-5 4-13 13-16 19-1 2-3 7-4 11-2 10-4 14-11 20-9 9-25 16-34 16-4 0-16 6-17 8 0 0 1 2 3 4 2 1 3 3 3 4 0 2-7 19-12 29-3 6-10 23-15 36s-6 24-3 27c2 2 5 1 13-1z"/></svg>