<svg xmlns="http://www.w3.org/2000/svg" width="1344" height="566"><path d="M0 283V0h1344v566H0V283m712 278c92 0 96-1 98-2 4-4 4-8 4-23-1-14-4-32-8-48-5-16-16-49-20-56-4-9-4-10-1-19 0-2 1-6 1-8s-1-3-4-6c-2-2-6-4-9-5s-11-4-17-7c-30-13-44-20-61-27-22-8-23-12-17-56 2-12 4-28 5-35 2-17 1-36-5-86-1-6-2-15-2-19-2-16-8-49-11-60-6-15-12-27-19-36-10-12-25-27-32-32-16-9-40-18-53-20-10-1-19 0-32 5-5 2-13 4-20 4-16 3-23 6-36 19-12 11-19 21-26 36-9 19-17 48-22 75-6 34-12 87-14 111 0 16 2 42 6 51 0 3 1 8 2 13 0 11-1 14-11 19-5 3-8 4-16 5-5 1-11 2-14 4-4 1-10 3-13 5-4 1-10 3-13 5-4 2-17 9-30 15-13 7-25 14-27 15-4 4-5 9-5 18 0 10-1 13-6 36-9 38-10 44-13 74-1 21-1 22 1 26 2 5 7 8 15 8 4 1 25 1 47 0 45 0 76 0 128 1 20 0 63 1 96 0h154z"/></svg>