<svg xmlns="http://www.w3.org/2000/svg" width="1344" height="566"><path d="M0 283V0h1344v566H0V283m508 277c23-2 48-3 101-3 31-1 63-1 71-2 12 0 17 0 25 2 9 1 18 1 83 1 94 0 148-1 149-1 0-1 22 0 47 0 47 1 51 1 51-2 0-2-4-5-9-9-1-1-7-5-12-8-9-6-31-21-37-23-2-1-7-4-11-5-12-6-21-12-30-22-17-20-18-22-16-31 2-11 22-53 42-90 14-27 19-32 34-41 19-10 28-20 38-41 6-12 9-23 9-33 0-9-1-12-8-17-8-6-8-8-4-31 2-10 4-20 4-22 1-3 2-9 3-15 6-34 6-37 6-55 0-19 0-22-7-39-3-8-15-28-19-34-5-5-17-16-25-21-4-3-14-7-23-10-7-2-38-4-101-4-79 0-80 1-93 11-11 9-26 35-33 58-9 27-12 44-16 78-2 24-4 28-12 30-2 0-6 1-9 3-5 3-10 10-12 18-3 14 1 41 7 55 5 9 12 19 20 26 9 7 10 9 8 29-2 33-8 58-16 74-5 9-10 15-14 18-4 1-16 1-34-1-7-1-15-1-17-1-5 1-12 7-25 22-14 14-24 24-32 29-2 1-13 7-24 12s-23 11-27 14c-9 6-31 18-38 21-11 4-53 29-64 36-9 7-20 18-20 20 0 4 3 4 23 5 22 1 51 0 67-1z"/></svg>