<svg xmlns="http://www.w3.org/2000/svg" width="1344" height="566"><path d="M0 283V0h1344v566H0V283m504 275c9-2 12-2 16-1 12 3 29 3 40 1 4 0 11-6 13-11 1-2 3-7 3-10 1-4 2-8 3-9 4-6 10-19 14-28 5-12 7-13 14-10s23 3 27 0 24-32 30-46c6-12 11-24 11-28l4-14c5-14 12-29 18-36 4-5 11-21 14-30 3-10 4-22 4-36 0-9 0-12 2-15s2-4 1-6c-1 0-2-1-3 0-2 0-25 13-27 15-1 0-6 3-12 6-7 4-14 8-16 9-8 6-8 6-15 4s-9-1-18 7c-3 3-7 6-8 6-3 0-6-5-11-19-4-12-8-20-12-23-5-5-26-17-36-21-11-5-15-8-15-11 0-1 2-7 5-12 5-8 7-11 15-18 17-16 23-28 25-50 0-6 2-15 3-21 2-5 3-14 4-18 1-9 0-28-2-36-3-8-10-19-20-29-8-8-10-9-22-15-9-5-15-7-19-8s-9-2-13-3c-5-1-7-1-15 0-15 2-29 8-37 16-8 9-18 30-27 62-3 11-9 40-11 52 0 6-3 24-7 42-2 9-3 17-3 18 1 2 4 5 7 8 4 4 6 6 6 8 0 1-2 6-5 10-3 5-6 11-8 14-2 2-6 8-9 13l-6 8v9c0 5 1 16 2 24 3 32 3 57-1 66-1 4-1 18 0 31 2 9 4 17 8 23 2 4 5 22 11 54 1 7 3 15 3 19 1 4 2 12 2 17 0 11 0 11 3 14 1 1 5 4 8 6 4 2 6 3 14 3 20 1 35 1 48-1z"/></svg>