<svg xmlns="http://www.w3.org/2000/svg" width="1344" height="566"><path d="M0 283V0h1344v566H0V283m632 279h39c92 1 203-1 212-3 5-1 5-3 5-14-1-9-4-17-9-26-2-4-5-12-7-17-1-6-3-13-4-17-2-8-4-22-4-25 1-3-2-9-7-13-5-5-72-38-97-49-15-6-37-17-39-20-2-1-3-4-4-6-2-5-2-36-1-52 3-30 3-38 3-56 0-16 0-21-2-36-4-21-5-28-10-44-12-41-26-73-39-93-6-9-16-20-23-27-5-5-20-17-27-21-6-4-22-10-35-13-11-3-14-3-29-3-18 0-19 0-38 10-6 4-15 8-20 10-10 3-18 8-25 16-20 21-35 59-38 97-1 7-1 13-2 14 0 1-1 18-1 38-1 40 0 86 2 103 1 6 2 16 3 23 0 6 1 14 2 18 0 3 1 11 2 18 1 6 1 11 2 13 0 3-4 7-7 7-4 0-19 5-34 12-7 3-20 8-28 12-25 11-45 21-46 23s-2 6-3 10-2 13-3 19c-3 16-2 19 10 30 10 9 16 13 44 29 10 6 17 9 30 12 2 1 5 2 8 4 11 9 29 13 60 15 30 2 96 3 124 2h36z"/></svg>