<svg xmlns="http://www.w3.org/2000/svg" width="1344" height="566"><path d="M0 283V0h1344v566H0V283m514 79c6-2 15-5 19-7 8-4 14-4 31-2 5 1 13 2 18 2 4 0 9 1 12 1 9 2 14 3 42 4 17 1 33 1 36 2 4 1 12 1 18 1 11 0 13 0 20-3 6-2 7-2 16-1 7 0 12 0 20-2 7-1 15-2 19-3 4 0 10-1 14-2 3-1 8-2 10-2s6-1 8-1c6-2 20-4 27-4h13c7 0 9 0 11-1 1-2 1-2-1-29-1-15 0-23 4-28 1-2 3-4 3-6 3-7 5-8 21-8 8-1 16-1 17-2 4-2 4-4 4-58-1-44-2-58-3-64-1-1-1-5-2-10-1-10-8-36-12-46-4-11-8-17-16-24-10-10-26-18-38-21-11-2-35 1-52 8-14 5-24 15-31 28-6 14-6 18-7 49-1 52-1 54 2 64 1 7 1 13 1 26 0 24-2 26-15 24-4-1-20-1-38-1h-32l-10 5c-5 3-13 6-17 8-5 2-10 5-13 8-4 3-7 5-8 5s-3 1-5 2c-3 2-5 2-10 1-3 0-7-1-9-1-3-1-6-1-11 0-8 1-11 2-17 8-9 7-15 9-28 10-15 1-24 2-26 3-2 2-1 6 2 7 2 1 3 2 4 3 0 4-5 21-9 29-3 7-5 14-8 26-1 3-1 4 0 6 2 2 12 1 26-4z"/></svg>