<svg xmlns="http://www.w3.org/2000/svg" width="1344" height="566"><path d="M0 283V0h1344v566H0V283m986 276c27-1 30-1 32-3 2-1 2-2 2-21-1-13-1-21-2-25-3-10-5-25-6-42-1-9-1-19-2-22-1-9-1-22 0-28 1-4 1-5-1-9-2-3-4-6-6-7-4-4-14-10-17-11-6-1-34-13-47-19-10-5-13-8-18-16-1-2-4-7-6-10-3-4-3-5-3-12 0-4-1-13-2-21-2-8-3-18-3-21-1-4-2-15-3-24-2-16-4-41-6-77-2-33-5-50-12-73-12-39-34-62-76-81-15-7-19-9-32-11-12-1-21-1-42 3-41 8-39 7-58 17-14 7-19 11-22 20-3 8-13 28-20 40-8 13-17 31-19 37-1 4-2 11-4 31-2 15-3 20-12 33-5 7-9 14-10 16-3 4-2 12 0 21 2 3 3 9 3 12s1 8 1 11c1 4 2 11 2 16 0 7 0 10 1 13 2 4 2 8 3 19 0 14 1 15 4 19 2 3 4 5 10 8 3 2 8 5 10 6s4 3 5 4c6 3-1 4-14 2-8-2-11-2-17-1-4 1-11 3-16 3-5 1-14 2-21 2-12 0-18 2-29 9-3 2-7 4-9 5-5 2-17 4-21 4-5 0-12 3-23 12-10 8-12 10-22 14-14 5-22 11-28 21-1 3-4 5-10 8l-8 4-22-1c-30-1-40 1-43 8-1 2-1 2 1 5 1 1 5 3 8 5 3 1 6 3 7 5 2 3 2 9-1 16-1 3-4 10-6 17-2 6-5 13-6 15s-4 9-6 15c-2 5-6 13-8 18-4 9-6 14-4 16 4 2 95 1 117-2 11-1 21-3 26-5 2 0 7-1 11-2 3 0 8-1 10-2 5-2 15-3 22-1 2 0 7 2 12 4 4 2 11 3 15 4 4 0 15 2 23 3 19 3 61 3 87 1 19-1 55-1 72 1 23 3 40 4 125 4 47 1 85 1 86 1 0 1 4 1 9 0 5 0 22 0 39-1z"/></svg>