<svg xmlns="http://www.w3.org/2000/svg" width="1344" height="566"><path d="M0 283V0h1344v566H0V283m816 276 3-3c1-2 4-20 5-28 0-9-1-35-3-47-6-35-6-48-2-66 1-6 3-16 4-21 1-10 3-21 8-41 6-25 6-45 0-60-4-10-7-20-7-24 0-2-1-12-2-22-2-10-3-22-3-27 0-7-1-10-4-18l-3-10 1-16c1-9 1-23 1-33-1-34-8-48-26-55-6-3-8-3-16-3-7 0-9 0-13 3-7 3-14 11-18 18-1 3-4 7-5 9-5 7-6 8-7 22-1 9-1 14 0 16 1 4 0 8-2 8s-7 6-10 11c-3 7-7 21-7 32-1 5-2 13-2 18-1 4-2 11-3 15-1 9-4 17-10 26-7 10-9 11-14 10h-11c-7 0-9 1-12 7-2 4-2 4-1 6s4 4 7 4c3 1 5 3 6 3 0 1 3 6 5 11 4 9 5 11 8 12 4 2 5 2 14 1 17-2 27-8 36-21 5-8 7-10 11-10 5 0 14 3 17 6 2 1 6 4 9 7l7 6v8c0 6 0 7-4 12-2 3-4 6-4 7s2 4 4 7 4 7 5 9c0 5 2 9 8 15 6 7 8 11 8 16-1 2-5 12-9 22-12 25-14 32-14 57l1 18-4 6c-6 10-9 13-16 16-12 6-14 10-7 13 6 4 14 3 24-1 9-5 17-5 19-2 2 2 4 10 5 27 1 24 3 27 14 26 4-1 8-1 9-2z"/></svg>