<svg xmlns="http://www.w3.org/2000/svg" width="1344" height="566"><path d="M0 283V0h1344v566H0V283m813 90c2-2 14-31 16-38 2-9 3-26 0-35 0-3-3-10-6-16-5-9-5-10-5-17 0-6-1-9-3-14-2-6-2-7-1-18 0-8 0-14-1-21-1-6-2-14-2-18 0-6-1-10-2-13-2-5-2-8 2-10 3-2 4-5 6-14 3-10 2-14-5-37-10-28-13-32-28-38-6-2-23 1-27 4-3 3-11 13-11 16 0 0-2 5-5 10l-4 10v10c1 5 1 10 2 11s4 3 7 5c7 3 10 8 12 17 2 7 1 8-8 21-4 5-7 11-8 14-3 11-6 16-11 16-1 0-5-2-8-4-19-12-27-12-36 0-3 3-5 7-5 9s3 5 6 5c7 0 25 17 25 25 0 5 3 9 14 21 4 5 8 7 14 11 9 4 13 8 13 12 0 3-3 6-5 6s-6 4-6 7c0 4 3 6 10 7 6 2 8 5 9 15 1 5 2 9 3 11s13 10 29 19c2 2 7 5 10 7 5 5 7 6 9 4z"/></svg>