<svg xmlns="http://www.w3.org/2000/svg" width="1344" height="566"><path d="M0 283V0h1344v566H0V283m522 278c6-1 14-1 17-1 4 0 10-1 14-1 3-1 13-2 21-3s17-2 20-3c4 0 9-1 13-2 5 0 7 0 13 3s8 3 27 5c25 1 101 2 257 1 18 0 49-2 52-3 7-3 12-10 15-20 1-2 3-11 6-19 7-23 15-32 30-37 4-2 9-2 23-2 22 0 22 0 37-19 6-9 13-18 16-21 8-7 28-22 38-26 13-7 29-17 34-21 5-6 8-11 9-19 1-9 0-27-3-34-1-3-3-9-5-14-4-15-12-25-25-34-9-6-37-20-55-27-24-10-26-12-27-21 0-4 0-8 1-10 1-3 1-5-3-14-2-6-6-14-9-18-2-3-7-11-10-16-9-16-11-20-17-27-9-10-24-25-27-25-2 0-14-9-18-13-5-6-11-14-15-21-5-8-16-24-23-35-13-18-38-37-60-47-12-5-14-6-28-5-13 0-14 0-23 3-8 4-13 5-28 8-9 2-22 9-30 14-4 3-11 9-16 14-9 10-9 10-19 32-20 40-22 44-28 50-2 3-7 8-9 9-6 4-9 7-10 10-3 7 4 12 17 14 19 4 19 4 20 22 0 7 0 13 1 15 0 1 2 6 3 11 0 5 2 11 3 13 3 5 15 17 22 21s9 7 9 13c-1 6-4 15-7 18-3 4-21 13-33 16-5 2-12 4-14 5-8 3-16 5-17 5s-5 2-9 4c-11 5-20 8-23 8-2 0-5 1-7 2s-8 4-14 5c-5 2-11 4-13 5-1 1-6 3-10 4-9 2-9 3-11 9-2 5-8 13-26 36-6 6-7 9-13 24-3 9-18 40-23 47-12 19-13 20-27 32-6 5-13 14-23 28s-22 29-31 38c-5 5-9 9-9 10 0 2 4 4 10 5 7 1 54 0 70-1z"/></svg>