<svg xmlns="http://www.w3.org/2000/svg" width="1344" height="566"><path d="M0 283V0h1344v566H0V283m723 174c4-1 11-1 16-2 14-2 28-4 33-6 2 0 6-1 8-2 2 0 5-1 6-1 1-1 5-2 9-3 10-2 21-4 24-6 1 0 3-1 6-2 2 0 7-1 10-2 10-3 22-4 37-3 7 1 15 1 18 2 3 0 4 0 7-2l2-3-1-12c0-7-2-17-3-21 0-6-2-21-2-35s-1-27-2-29c-3-11-11-19-24-26-10-4-12-6-13-17 0-5 0-6 2-9s3-5 3-7c-1-1-2-8-3-15-1-14-4-28-9-49-2-7-4-15-4-19-1-4-3-10-4-14l-4-12c0-3-2-7-2-9-1-2-2-6-3-9-3-18-7-30-15-46-11-24-26-39-59-56-13-7-20-9-30-9-9 0-23 2-31 4-2 1-8 2-12 3-10 2-19 5-26 9-19 12-34 44-37 79 0 9-3 27-5 43-2 12-2 18-2 50 0 25 0 40 1 48 1 6 1 12 1 14-1 3-5 5-14 7-4 0-10 2-14 3-6 1-8 1-15 0-5-1-14-1-20-1-13 1-14 1-28 12-5 4-10 8-13 10-2 1-6 4-8 6-3 2-12 8-21 15-10 6-20 13-24 16-8 6-13 8-22 8s-9 0-11 3c-2 2-3 5-4 7-1 3-2 6-2 8-1 4-12 27-13 29 0 0-3 7-6 16-3 8-6 17-7 20s-2 7-2 7c1 3 10 2 17 0 25-9 37-11 99-11 4 0 7-1 11-3s5-2 11-2c3 1 10 2 15 4 5 1 12 3 16 3 3 1 9 2 13 3 3 0 10 1 14 1s9 1 11 1c2 1 6 1 17 0 25-2 29-2 41-1 31 2 46 6 53 12 2 2 5 3 6 3 1-1 4-1 8-2z"/></svg>