<svg xmlns="http://www.w3.org/2000/svg" width="1344" height="566"><path d="M0 283V0h1344v566H0V283m875 276c10-1 11-1 14-3 3-4 4-7 5-45 1-41 0-52-6-73-3-8-6-19-7-24-1-6-3-13-4-17s-2-8-3-11c-2-10-5-19-8-26-1-3-4-13-6-22-6-26-17-53-27-70-5-9-18-25-26-32-5-5-18-12-21-12-2 0-8-6-10-11-5-10-6-17-2-41 4-32-4-55-25-71-9-6-17-8-32-8h-13l-9 4c-5 2-10 4-11 4-3 0-13 5-19 9-8 7-23 23-27 32s-5 21-4 36c1 9 2 10 5 13 4 5 5 7 6 18l1 11-4 7c-5 8-8 14-11 25-1 4-6 16-10 25-5 10-9 19-9 20s-8 16-10 19c-2 2-5 7-8 11-11 16-18 24-41 47-17 17-26 25-31 29-14 9-20 12-23 13-1 1-11 1-26 0l-23-1-4 2c-3 2-6 3-9 4-2 0-7 1-12 3-18 5-21 10-14 28 4 9 8 14 16 16 9 3 29 4 38 2 11-2 34-7 39-8 6-2 24-2 28-1 2 1 6 5 11 12 5 6 10 12 12 13 2 2 9 5 16 8l13 6h13c10 1 15 1 19 3 3 1 7 3 10 3 6 3 13 8 14 11 1 1 1 4 1 7 0 4 0 5 11 16 15 16 13 15 40 17 12 1 42 1 66 1 24 1 44 1 45 1 1 1 57 1 72 0z"/></svg>