<svg xmlns="http://www.w3.org/2000/svg" width="1344" height="566"><path d="M0 283V0h1344v566H0V283m706 279c11-2 101-2 162-1 74 2 104 2 107 0 1-1 2-2 3-4 0-1-1-10-2-20-2-10-3-19-4-21-1-11-14-43-20-51-5-5-10-9-25-17-12-7-18-11-33-22-12-10-13-12-13-30-1-7-1-14-2-18-2-6-2-8-1-13 0-3 1-11 1-19 0-15-1-20-7-33-2-3-3-6-3-7 0-2-4-14-11-34-3-9-7-23-11-39-7-25-12-34-29-59-5-6-10-14-12-17-10-21-27-36-45-40-13-4-34-2-46 4-9 4-25 17-33 26-3 4-10 12-16 17-9 9-18 21-22 29-3 7-7 27-8 38 0 11 1 49 3 56 1 2 2 6 2 8 1 2 1 8 0 14 0 13-2 15-9 17-10 3-17 7-25 15-11 11-25 33-31 48-5 11-6 17-10 39-4 23-6 27-16 37-8 7-9 10-12 17-2 4-5 12-8 17-5 8-6 10-14 16-9 7-9 8-14 19-10 20-11 25-5 27 2 1 14 2 33 2 38 1 168 0 176-1z"/></svg>