<svg xmlns="http://www.w3.org/2000/svg" width="1344" height="566"><path d="M0 283V0h1344v566H0V283m578 275c53-1 119-1 166 0 39 1 138 1 160-1 8-1 32-1 52-1h42c36 0 121 0 142 2 17 0 18 0 20-5 1-3 1-5 0-9-1-3-2-7-2-8 0-3-10-24-16-33-10-16-18-25-29-35-7-7-24-19-32-22-7-4-34-14-46-17-13-5-25-8-35-12-4-2-12-4-16-5-8-3-26-10-33-15-9-5-10-9-10-22 1-6 2-13 3-17 1-8 6-32 6-41 1-9 5-23 7-29 3-6 5-9 15-13 10-5 16-11 24-21 11-16 17-33 18-52 1-18-2-25-14-31-9-4-9-6-6-33 2-29 2-71 0-89-4-27-6-33-11-37-3-2-5-3-23-6-14-2-18-2-114-2-128-1-156 0-164 5-1 1-4 6-6 11-9 17-13 37-16 70 0 12-1 27-1 33s-1 16-1 22c-1 6-2 15-3 20s-2 12-2 15c-1 8-1 19 3 31 3 16 6 22 19 49s14 30 25 58c11 29 11 31 11 33-1 4-3 5-17 8-6 1-17 4-23 6s-13 5-16 6c-7 2-14 10-31 38-22 34-32 45-68 69-5 4-12 9-15 11s-10 8-16 11c-5 4-12 10-15 12-4 3-11 7-16 11-13 9-39 30-39 32s2 3 7 4c6 1 59 0 116-1z"/></svg>