<svg xmlns="http://www.w3.org/2000/svg" width="1344" height="566"><path d="M0 283V0h1344v566H0V283m620 279c17-1 56-1 88-1 59 0 138-1 176-3 18-1 108-2 149-2 7 0 21 0 32 1 11 0 37 1 58 1 42 0 44 0 46-5 1-4-1-8-11-30-10-21-20-38-28-49-3-3-7-9-11-14-7-9-27-30-39-40-9-8-22-17-30-21-3-1-18-7-32-12-15-5-35-12-43-16-17-6-36-13-39-13-2 0-21-6-26-9-4-2-12-7-18-10-7-4-15-9-18-10-5-3-15-5-22-5-3 0-4-1-8-5-6-6-10-14-13-27-3-12-5-33-5-43 1-7 5-24 7-33 4-10 5-17 8-39 5-30 6-43 5-61-1-13-1-17-4-24-6-18-11-26-20-34-3-3-8-9-11-13-5-6-7-8-11-10-12-6-16-7-22-8-4-1-11-2-15-4-21-8-63-9-88-2-9 2-23 9-28 13-2 2-8 4-13 6-11 4-13 5-17 10s-10 17-11 24c-1 3-2 13-2 22-1 19-2 26-6 42-4 18-6 33-5 45 3 36 8 57 20 83 19 44 28 61 36 69 4 4 12 9 21 12 4 2 7 4 8 5 2 3 2 3 1 6-2 5-12 15-22 22-8 6-18 11-47 24-23 10-61 31-72 39-25 17-34 25-47 41-9 13-16 26-24 44-6 14-8 19-8 24 0 4 2 6 8 8 9 2 102 4 153 2z"/></svg>