<svg xmlns="http://www.w3.org/2000/svg" width="1344" height="566"><path d="M0 283V0h1344v566H0V283m520 278c4-1 36-1 92-1s95 0 110-1c14-1 29-1 35-1 6-1 19-1 31-2 20-1 32-1 58 1 47 3 82 4 116 4 38-1 38-1 37-7-1-3-10-12-15-15-4-2-25-16-38-27-5-4-17-15-26-24-15-15-17-17-20-24-3-6-5-9-8-11-7-5-44-41-53-52-4-5-6-8-7-14-4-11-5-19-4-40 2-33 2-48-1-63-6-27-8-39-11-54-3-14-3-17-3-32 0-20-1-24-7-52-9-40-13-51-24-67-8-12-16-20-27-25-18-9-36-15-49-17-25-3-36-2-47 3-3 2-9 3-13 4-3 1-10 3-15 5s-11 5-14 5c-4 2-7 4-15 12-10 10-15 17-24 35-6 11-8 43-4 69 1 12 1 15 0 19-1 3-1 10-1 15 0 15 3 23 15 40 5 8 8 19 8 26-1 2-1 8-2 12-1 5-2 11-3 14s-2 7-2 11c0 5-3 14-6 18-2 1-4 2-9 2-4 1-8 2-10 3-4 3-9 9-13 17-5 10-11 18-20 27-11 10-19 15-31 16-5 1-10 3-13 4-7 3-30 8-46 9s-17 1-30 12c-15 12-20 17-28 32-15 24-19 34-20 51-2 15-2 19 0 26 1 3 2 9 3 14 1 11 4 17 10 21 3 1 9 1 30 2 41 1 106 1 114 0z"/></svg>