<svg xmlns="http://www.w3.org/2000/svg" width="1344" height="566"><path d="M0 283V0h1344v566H0V283m395 277c30 0 32-1 35-3 4-3 5-7 6-26v-17l4-1c1 0 5 1 8 2 2 1 8 3 12 3 5 1 10 1 11 1 4 1 12-6 16-15 5-10 4-12-4-21-7-8-8-11-6-14s0-7-3-10c-3-2-5-3-13-3-6-1-12-1-15 0-5 0-7-1-10-9-2-8 0-22 7-50 5-18 4-28-4-50-9-24-18-37-33-49-14-12-15-14-11-21 1-2 4-8 7-12 4-8 5-10 10-14 7-4 7-4 9-15 3-14 5-29 4-33-1-2-1-11-2-20-1-27-5-37-14-43-17-11-22-13-39-16-13-2-15-2-26 1-26 7-34 19-38 55-3 22-4 34-5 64-1 15-1 29-2 32 0 2 0 5 2 8 3 8 2 9-2 16-6 9-16 30-16 33 0 2-1 5-2 8s-2 8-2 10c-1 3-2 7-2 9-1 3-2 11-3 20-1 8-1 16-1 16-1 0-1 6-2 13s-2 15-2 18c-1 6-1 7 2 35 1 4 2 12 4 18 4 12 5 24 4 44-1 24 0 28 10 33 9 5 15 5 106 3m941-2c5-6 6-19 6-124v-92l-2-11c-2-6-3-14-4-17-9-27-11-34-15-41-7-15-11-20-28-37-9-9-19-20-22-24-8-11-12-14-25-18-5-1-10-5-12-10-1-1-3-6-4-11-4-12-5-29-2-43 1-6 1-13 1-26V86l-4-8c-2-5-5-13-5-16-3-12-9-17-22-23-7-2-8-2-22-2-24 0-33 2-47 13-9 7-20 21-23 28-2 9 1 49 6 74 2 12 13 41 17 45 1 1 5 4 10 6 4 2 9 5 10 6 4 7-2 18-28 45-2 3-4 5-4 10-4 15-5 19-10 32-8 22-11 37-14 54 0 6-1 13-2 15 0 2-1 10-2 18-2 35-3 43-5 48-3 11-22 33-33 37-4 1-4 1-10 0-8-2-23-8-27-10s-15-3-17-1c-2 3-1 7 4 14 3 4 5 8 6 10 0 3-4 10-12 17l-9 9c-2 4 0 8 6 8 3 0 4 1 7 8 6 11 6 11 11 8 3-1 5-2 6-2 4 0 9 3 12 6 4 4 8 5 23 7 11 0 18 4 20 9 3 6 8 8 23 9 4 0 61 1 124 1l116-1 2-2m-459 1c14 0 14 0 17-3l2-2v-13c-1-8-2-20-3-27-1-8-2-23-2-33-1-10-2-21-2-25-2-10-2-55 0-76 4-46 5-57 6-72 1-33-4-47-34-91-10-16-15-22-25-32-9-10-12-14-13-17-3-11-4-12-12-13-3-1-6-1-7-2s-4-5-7-10l-4-9V98c1-29 0-43-1-48-3-11-10-19-16-23-7-3-23-7-32-8-7 0-10 0-17 3-11 4-21 9-28 15-10 10-12 17-13 40 0 18 0 22 6 45 5 20 12 35 21 47 3 4 6 10 8 13l2 5-2 5c-1 2-5 8-9 12-9 9-10 11-11 20s-4 17-8 29c-3 8-6 19-9 30 0 4-1 8-2 9-1 3-7 36-9 51-1 5-2 11-2 12l-14 70c-1 7-3 21-5 31-2 9-4 22-5 28-3 29-4 35-6 43 0 5-2 12-3 16-3 9-2 12 0 14s3 2 7 2c2-1 41-1 87-1 75 0 114 0 115 2h8c5-1 15-1 22-1z"/></svg>