<svg xmlns="http://www.w3.org/2000/svg" width="1344" height="566"><path d="M0 283V0h1344v566H0V283m818 276c5-2 7-5 7-13 1-3 2-8 4-12 2-5 2-6 2-17-1-11-3-24-6-39-6-32-7-58-4-83 1-4 2-14 2-23 1-8 3-20 4-27 5-27 4-38-6-56-3-6-6-14-6-17-3-10-4-31-4-63-1-21-1-31-2-33-1-3-1-9 0-25 0-19 0-23-2-35-3-18-5-30-8-35s-8-10-15-13c-4-3-6-3-16-3h-11l-9 8c-5 5-10 11-12 15s-5 9-6 11c-2 3-3 7-4 16l-1 11 7 7c4 4 8 8 8 10 1 2 2 8 2 13v8l-5 5c-6 5-6 6-7 11 0 7 1 9 6 10 6 1 16 6 16 8 1 1 1 5 0 8 0 4-1 10-2 14-1 8-3 12-7 14-6 2-6 2-4 15 1 7 3 13 6 18 4 10 7 25 5 32-1 5-1 5 2 9 5 5 9 14 10 23 2 12 4 15 18 28 9 7 14 13 15 15 2 5 1 11-3 20-11 25-13 32-13 42 0 9 3 24 9 42 7 21 9 31 10 58 1 18 1 19 3 22 2 2 3 2 8 2 3 0 8-1 9-1z"/></svg>