<svg xmlns="http://www.w3.org/2000/svg" width="1344" height="566"><path d="M0 283V0h1344v566H0V283m607 277c12 0 23-1 24-1h26c13 1 56 1 95 1l72 1 3-3c3-3 3-3 3-14 0-7 0-15-1-20-2-16-12-48-20-70-2-4-4-10-5-12-1-3-2-8-4-10-2-6-3-11-2-24 0-5 0-5-3-8-1-1-11-6-21-11-9-5-25-12-34-16s-20-9-24-11c-11-4-26-12-28-15-2-2-2-3-2-13 1-13 6-54 9-67 1-6 2-14 3-17 0-9-2-37-4-50 0-5-2-14-2-20-3-33-9-66-15-83-10-25-13-30-31-48-15-16-28-23-53-33-19-7-25-7-49 3-6 2-11 3-20 4-17 2-24 5-37 19-10 10-15 18-22 32-11 22-20 52-25 83-1 7-2 15-3 17-1 3-2 10-2 16-1 6-3 20-5 32-4 30-5 51-3 71 0 9 2 18 2 20 2 6 1 18-1 22-4 7-15 13-26 15-8 0-25 6-47 16-31 13-44 19-48 22-4 4-7 10-11 22-3 10-15 35-24 50-10 18-33 71-37 84-1 6-1 7 0 9s4 3 6 4c5 1 52 2 96 2 53-1 114 0 143 1 33 2 98 2 127 0z"/></svg>