<svg xmlns="http://www.w3.org/2000/svg" width="1344" height="566"><path d="M0 283V0h1344v566H0V283m294 276h67c6 0 13 0 16 1s21 1 48 0c48-1 49-1 97 0 22 0 38 0 45-1 9-1 18-1 38 0 15 1 59 1 99 1 72 0 73 0 76-2 4-3 4-8 0-21-1-6-3-12-4-14 0-2-1-6-3-9-2-5-2-7-2-17 0-16-1-17-19-27-14-7-46-23-52-25-3-1-11-4-17-7-6-4-16-8-22-11-15-6-28-13-31-16-4-3-4-7-1-15 2-3 3-7 4-9 1-3 4-11 8-18 14-31 20-49 25-71 2-10 2-13 2-34 0-13 0-29-1-37s-3-22-4-30c-6-60-18-102-36-130-11-18-18-25-31-35-42-29-41-29-88-28-29 1-36 2-46 7-4 2-9 3-14 4s-11 2-13 3c-19 7-40 29-51 54-4 9-12 31-14 38 0 2-3 10-5 19-6 26-13 59-18 93-1 3-3 16-5 26-9 48-11 56-12 74-1 15 0 38 3 63 1 9 2 18 2 20-2 7-8 11-21 13-14 2-25 8-64 31-5 3-15 9-22 13-26 13-29 15-34 27s-12 26-19 39c-7 11-11 22-11 26 0 2 4 6 6 6 2 1 43 1 124-1z"/></svg>