<svg xmlns="http://www.w3.org/2000/svg" width="1344" height="566"><path d="M0 283V0h1344v566H0V283m634 277c22-1 84-1 139-1s101 0 102-1c1 0 2-1 2-3 0-1-2-4-9-9-22-19-49-55-54-73-1-4-6-17-11-28-25-54-28-60-32-64-3-4-8-6-19-8-12-2-34-9-53-16-16-5-32-11-33-11s-4-2-9-3c-8-4-9-6-7-13 2-9 20-32 28-37 2-1 8-3 14-5 21-6 30-11 33-18 1-4 1-12 0-18-1-3-2-14-3-25-1-18-1-20 0-25 1-2 2-6 2-8 0-3-5-12-14-22-8-9-13-16-17-25-9-25-12-30-31-50-8-8-17-18-19-21s-5-7-6-7c-3-3-27-10-36-12-17-3-49 0-67 5-38 12-54 29-68 72-3 9-7 21-8 26-10 35-25 69-40 90-15 20-35 51-37 54-4 8-2 11 5 16 5 2 6 4 9 10 3 5 6 8 9 11 7 6 26 27 31 33 3 6 5 11 4 14-1 2-6 9-13 15-12 13-18 21-23 33-12 27-26 62-27 68-8 49-8 52 8 54 3 1 14 1 24 2 25 1 181 1 226 0z"/></svg>