<svg xmlns="http://www.w3.org/2000/svg" width="1344" height="566"><path d="M0 283V0h1344v566H0V283m944 179c9-2 14-3 20-6 3-1 12-4 19-6 13-4 17-6 27-13 8-4 10-8 15-22 9-22 9-24 10-54 0-23 0-28-1-33-2-6-2-13-1-17 1-1 2-5 2-7 1-5-1-62-2-67s-8-15-16-24c-7-8-12-10-25-13-22-3-32-6-41-11-17-10-23-16-29-29-2-4-5-9-7-11-1-3-7-12-12-22-13-25-25-42-32-46-9-6-24-6-36-1-10 5-21 16-28 29-2 4-3 22-1 28s7 13 20 27c14 14 16 15 27 14 9 0 15 1 17 5 1 2 4 19 4 30 1 13 6 29 11 43 3 7 5 14 5 15 0 2-2 4-8 8s-14 12-16 16c-1 2-2 7-3 11 0 3-2 7-3 8-2 2-7 4-13 4s-10 4-11 8c0 3 1 5 3 8 3 2 6 4 9 5 8 3 19 5 22 4 5 0 8 1 10 4 2 4 5 20 6 32 1 10 3 12 10 12 4 0 5 1 7 3 4 4 9 18 10 26 0 9-1 12-8 16-6 3-12 8-12 10 0 3 2 4 8 6 8 2 15 5 21 9 2 1 5 3 7 3 1 0 8-1 15-2z"/></svg>