<svg xmlns="http://www.w3.org/2000/svg" width="1344" height="566"><path d="M0 283V0h1344v566H0V283m708 83c5-2 6-2 18-2 10 1 15 1 24-1 7-1 13-2 13-3 0 0 4 0 9-1 4-1 8-2 9-2 3-1 19-5 29-6 5-1 15-1 23-1 11 0 15 0 16-1 1-2 0-12-2-35 0-5-1-14-1-19 0-9 2-13 6-15 1 0 4-1 6-3 3-2 5-2 16-3 7 0 13-1 14-1 2-2 3-9 4-32 0-26-1-79-3-87-1-3-2-8-2-12-2-14-9-41-14-53-7-14-27-30-47-38-8-3-26-3-39 0-20 5-31 10-40 19-7 7-11 14-15 25-2 8-3 9-3 34 0 15 0 30-1 36-1 10-1 12 1 25 1 8 3 16 3 18 1 4 1 28 0 34 0 2-2 4-3 6-3 2-3 2-43 2h-40l-9 5c-5 3-11 6-14 7s-7 3-9 5c-2 1-6 4-8 5-3 1-6 4-9 6-4 3-4 3-12 3-19-2-27-2-31-2-2 1-5 3-10 7-10 9-16 12-34 13-8 1-15 1-16 2-2 0-1 3 2 5 2 1 3 3 3 4s-2 5-3 9c-2 4-5 9-5 13-1 3-4 9-6 14-5 10-6 15-3 19 1 2 2 2 7 1 4-1 8-1 11-1 4 0 6-1 11-4 4-2 9-6 11-9 3-2 6-4 8-5 4-1 30 4 38 7 5 2 11 3 15 4s11 2 16 3 17 2 25 3c9 0 25 1 34 2 10 1 23 2 28 2 6 0 12 1 14 1 1 0 5-1 8-3z"/></svg>