<svg xmlns="http://www.w3.org/2000/svg" width="1344" height="566"><path d="M0 283V0h1344v566H0V283m878 278c72 0 104 0 131-2 23-2 80-1 107 0 37 3 73 3 87 2 6-1 18-2 27-3 18 0 20-1 19-8-2-9-6-19-20-43-12-19-17-27-26-36-10-9-20-15-47-26-7-3-21-10-31-15-9-6-21-12-27-15-9-4-11-6-26-21-14-13-18-16-22-17-6-3-14-2-24 0-13 3-16 3-20-1-6-5-15-28-17-39 0-4 0-6 3-14 6-14 8-21 10-33s4-18 12-34c9-19 20-51 24-68 2-12 4-31 4-44 0-12-2-20-8-35-3-9-6-13-14-19-3-2-6-5-7-7 0-1-3-5-6-7-5-4-7-7-8-13 0-3-1-6-4-8-3-4-4-4-13-4-12-1-15-3-24-13l-8-7h-10c-7 0-12 0-20-2-11-2-18-3-21-1-1 1-12 2-24 2-12 1-25 3-29 4-10 2-42 15-52 21-17 10-32 25-42 41-8 13-8 16-11 34-2 15-5 27-14 56-6 17-7 19-7 30 0 6 0 16 1 24 1 13 3 53 3 84 1 11 1 20 2 22 0 2 3 9 6 15 8 15 11 22 13 32 3 16 10 33 19 42 5 6 9 9 21 16 6 5 6 7-4 16-11 9-19 14-30 20-10 5-31 20-34 24-1 2-9 9-25 21-9 6-20 21-19 26s3 5 72 4c35 0 96 0 133-1z"/></svg>