<svg xmlns="http://www.w3.org/2000/svg" width="1344" height="566"><path d="M0 283V0h1344v566H0V283m290 276c5-1 7-1 12 0 4 1 10 1 15 1h109c56 0 104 0 107-1 3 0 18 0 33 1 16 0 53 1 87 0h59l3-3c2-2 2-3 2-9-2-14-6-35-10-50-6-21-10-31-18-48l-7-14 1-8c0-7 0-9-1-11-2-3-10-8-18-10-2-1-12-5-22-9s-21-7-24-8c-9-3-23-9-30-13s-9-7-9-14c1-5 8-31 11-42 10-33 10-47 4-105-2-15-4-33-4-41-5-47-10-67-18-84-5-10-14-21-23-28-17-13-44-30-57-34-13-5-38-5-51 0-2 0-10 2-16 3-15 2-23 4-33 10s-14 10-24 24c-16 21-27 48-34 84-4 17-10 48-12 64-1 4-2 11-2 16-1 6-2 15-3 20-1 6-2 18-3 28-3 25-5 51-5 67 0 27-1 29-24 37-7 2-14 4-18 6-9 4-25 15-37 23-10 8-20 14-33 21-8 4-17 12-17 16-3 12-5 17-9 26-8 14-9 15-12 27-5 17-7 33-7 43 0 9 0 10 2 13l2 3h16c27 1 112 0 118-1z"/></svg>