<svg xmlns="http://www.w3.org/2000/svg" width="1344" height="566"><path d="M0 283V0h1344v566H0V283m570 277c113 0 162 0 181-1 30-1 38-1 93 0 55 2 98 1 126 0 11-1 26-1 35-2 20 0 19 1 19-19-1-7-2-16-3-20s-1-15-2-33c-2-37-2-41 0-47 2-3 2-6 2-8-1-4-7-13-13-20-5-4-17-12-29-16l-14-7c-4-1-11-4-15-6-4-1-10-5-14-7-8-5-19-15-20-17 0-3 3-6 8-8 8-2 9-3 11-18 2-17 2-38 0-53-3-30-8-70-10-83-1-4-2-10-3-13 0-2-1-7-2-10 0-4-2-13-4-22-3-21-5-26-9-38-15-37-32-57-62-73-24-12-45-19-63-20-9 0-12 0-23 3-51 13-67 18-76 26-11 9-16 17-25 37-8 18-8 18-10 45 0 13-1 27-2 30 0 4-1 11-1 16s-1 13-2 18c-6 30-5 55 2 74 3 10 5 16 11 38 7 29 7 31 4 35-4 3-21 8-34 11-2 0-6 1-8 2-2 0-7 2-12 2-6 1-9 2-18 6-5 3-11 7-14 8-4 3-4 3-9 2-8-2-40-3-45-1-3 1-5 3-9 7-3 4-7 8-9 10-5 5-22 19-30 24-10 7-22 18-25 22-1 3-2 6-3 10-1 7-1 7-14 17-4 3-8 7-10 9-1 2-3 5-5 6-5 3-12 21-14 32-1 11-7 19-17 23-10 5-17 9-19 14-4 6-4 10 0 12 3 1 51 1 87 1 10-1 25 0 33 0 25 2 51 3 55 2h30z"/></svg>