<svg xmlns="http://www.w3.org/2000/svg" width="1344" height="566"><path d="M0 283V0h1344v566H0V283m667 277c7-1 40-3 63-3 7 0 20-1 29-1 8-1 26-2 40-3 24-1 24-1 31 1 6 2 7 2 55 2 46 0 48 0 50-1 3-4 2-9-6-27-4-9-11-24-14-33-8-20-18-40-25-48-6-8-10-18-14-31s-7-22-10-27c-1-2-3-5-4-7-4-6-13-16-18-19-12-10-15-12-32-30-3-3-6-5-8-5-4-1-7-3-9-6-3-4-2-6 9-9 8-2 11-3 11-5 0-1-1-5-3-9s-4-13-5-18c-2-12-7-26-11-35-1-3-5-12-8-20-4-8-8-17-10-20-4-9-14-33-19-48-15-43-17-48-36-84-15-27-22-38-33-50-11-11-17-15-26-18-5-1-12-2-118-2H432l-5 3c-7 4-26 22-32 32-11 17-19 35-22 53-3 14-3 18 1 23 2 2 3 4 4 6 2 7 0 22-7 44-2 7-2 12-3 23 0 17 0 21 11 53 4 12 7 24 7 26s-1 8-2 14c-3 14-2 22 2 39 1 6 2 12 2 13-1 5-5 8-17 16-9 6-15 11-33 28-12 12-28 27-36 34s-17 15-21 18c-18 16-40 39-49 52-6 11-11 21-12 29-3 14 3 41 10 47l3 3 61-1h106c92 0 171 1 182 2 6 0 27 1 46 1 27 0 35 0 39-2z"/></svg>