<svg xmlns="http://www.w3.org/2000/svg" width="1344" height="566"><path d="M0 283V0h1344v566H0V283m388 276c18-1 59-3 67-3 45 0 64 0 97-1 38-1 56-1 79 2h319c15 0 60 2 68 3 11 1 11-3 4-18-3-6-7-13-11-17-18-21-67-55-99-68-26-10-40-19-40-23 0-5 17-24 25-29 3-2 9-6 13-9 7-6 12-10 26-18 12-7 34-30 45-46 10-15 12-18 22-28 5-5 10-12 12-14 4-7 12-26 13-34 2-9 12-34 25-60 15-31 15-31 15-50 0-15 0-16-5-36-9-38-15-49-34-72-9-11-20-22-25-26-9-6-27-8-86-8-72 0-132 2-143 5-4 1-10 7-18 18s-15 25-22 47c-10 30-14 41-21 59-7 17-11 29-15 53-5 23-14 48-26 69-11 19-30 46-47 67-18 23-22 27-29 30-5 2-39 3-49 2-17-2-16-2-20 0-2 2-6 6-10 11-25 32-32 38-63 56-20 11-28 16-36 22-4 3-15 11-25 17-31 19-53 34-65 46-10 11-31 43-30 47s5 6 13 7 58 0 76-1z"/></svg>