<svg xmlns="http://www.w3.org/2000/svg" width="1344" height="566"><path d="M0 283V0h1344v566H0V283m749 279c6-4 13-11 15-17 5-12 5-13 6-19 0-2 0-9 1-14 1-7 1-9 0-11-1-1-2-9-2-16-1-16-1-30 3-65 4-38 1-65-10-90-5-10-9-16-21-29-14-14-15-17-15-29 1-9 7-37 10-47 4-10 8-28 9-38 1-5 1-17 1-29-1-20-1-21-6-40-5-22-9-30-17-40s-33-27-49-34c-26-13-33-15-49-16-21-1-46 3-69 10-11 4-16 6-23 11-16 11-29 27-37 49-4 11-7 26-9 45-1 12-4 24-6 28 0 2-3 4-5 5-3 1-5 4-7 6l-2 4 1 21v22l-2 5c-3 6-17 23-24 29-4 4-11 7-36 19-24 12-49 27-78 48-6 4-25 22-34 30-5 6-24 29-29 36-1 2-4 6-6 9-6 7-12 21-17 36 0 2-1 6-2 7-5 14-8 43-7 62 2 29 5 44 10 47 3 2 4 2 44 2h91c51-1 163 0 186 2 6 1 28 1 49 1s44 1 53 1h48c27 0 32 0 35-1z"/></svg>