<svg xmlns="http://www.w3.org/2000/svg" width="1344" height="566"><path d="M0 283V0h1344v566H0V283m338 278c15-1 37-1 50-1 23 0 76 0 280-1 242 0 274 0 307 1 43 2 78 0 87-3 4-1 8-2 9-2 4 0 15 3 19 5 3 2 7 2 20 3 17 0 82-2 88-3 5-1 8-4 8-8 0-3-4-29-6-32 0-1-1-8-2-15s-3-16-4-18c-2-9-9-13-26-17-12-3-16-7-23-20-5-11-20-53-23-64-1-5-5-18-9-29-7-20-14-44-15-49-16-62-23-79-34-85-6-3-14 0-17 7-3 8-7 4-19-18-9-18-14-24-20-26-5-2-10-1-15 3-2 2-5 3-6 3s-4-2-7-5c-9-9-13-11-20-7-5 2-7 6-8 13-1 8-2 10-7 10-6 0-10 3-12 9-3 8 0 36 5 58 2 6 6 19 9 29 7 18 9 23 10 36 1 15 5 24 22 48 13 19 17 25 36 51 18 24 22 29 32 48 9 15 11 20 16 36s4 20-3 22c-3 1-5 1-9 0-6-2-7-3-17-10-3-2-11-6-18-10-14-7-23-14-27-19-2-2-5-8-7-13-8-19-17-34-22-40-6-7-28-26-37-33-7-5-21-12-29-13-7-1-32-1-66 1-35 3-46 2-48-5-1-6 2-48 6-69 2-10 3-13 6-19 6-9 8-20 8-38 1-14-2-26-9-47-12-35-26-64-53-109-6-12-9-15-20-26-21-21-45-35-75-44-17-5-26-6-42-6-14 0-21 0-53 7-14 2-34 9-48 16-26 12-38 23-54 50-22 36-30 71-22 91 9 19 9 23 8 48-2 24-1 27 6 44 5 12 5 15 6 24 2 18 4 29 6 35 6 15 23 35 39 44 10 6 13 10 15 17 1 7 0 12-6 27-7 16-11 22-21 31-9 9-17 14-29 18-5 2-11 4-12 5-3 1-3 1-5-1-2-1-2-4-3-13-1-13-1-14-6-29-7-21-10-30-14-32-3-2-9-2-13-1-3 2-7 8-9 13-3 6-4 20-4 38 0 25 0 27-2 29l-2 2-2-2c-5-4-13-28-16-46 0-5-2-11-2-13-1-4-3-24-5-46-4-38-8-53-16-58-6-3-11 0-13 7-1 4-2 22-4 57-2 34-3 35-13 7-10-29-24-64-29-70-5-7-17-9-22-5-3 4-3 11 2 29 2 9 5 20 6 26s3 13 4 17c3 13 7 32 9 40 3 10 3 17 1 18-1 0-9-10-15-20-5-9-15-31-16-34-2-6-12-26-15-28-3-4-7-6-12-6-6 0-10 4-10 13 0 7 11 43 25 79 3 8 4 15 3 16-2 1-6-4-19-18-12-14-16-18-23-20-6-3-9-2-12 1-4 3-4 8-1 16 4 12 13 26 34 52 6 8 14 18 18 22 7 10 18 21 21 23 2 1 6 2 10 2 7 1 37 0 72-1z"/></svg>