<svg xmlns="http://www.w3.org/2000/svg" width="1344" height="566"><path d="M0 283V0h1344v566H0V283m602 276c48 0 54 0 98-2 29-1 99 0 149 1 31 1 152 3 197 2h41l3-2 2-3-2-7c-3-9-8-18-16-27-4-4-11-13-16-19-12-14-15-17-35-34-9-7-23-19-32-26-15-15-27-25-34-30-3-2-8-6-12-9-14-11-27-21-32-23s-14-4-24-4c-11 0-20-2-25-4-11-7-18-17-24-34-2-7-2-10-2-20 0-9 0-13 1-16 1-2 3-8 4-12 2-7 4-11 13-24 12-18 17-28 20-40 3-11 4-21 2-30-2-7-2-14-1-26 5-35 2-56-11-78-13-23-48-45-81-51-11-2-43-2-56 0-34 5-70 32-81 61-2 8-4 18-5 32-1 7-2 23-3 36-2 12-3 26-4 32 0 5-2 15-3 22-2 14-1 28 2 44 5 25 9 42 18 61 6 15 11 21 25 30 7 5 10 11 7 17-2 3-8 8-18 13-50 27-51 27-84 53-27 22-41 37-61 65-9 13-17 32-18 43-2 10 2 11 35 10 11 0 39 0 63-1z"/></svg>