<svg xmlns="http://www.w3.org/2000/svg" width="1344" height="566"><path d="M0 283V0h1344v566H0V283m761 279c117-1 104 1 105-15 0-8 1-11 2-13 2-3 2-3 0-11-3-12-6-17-11-21l-6-4c-1 0-5-3-9-8-10-9-33-23-62-38-22-12-27-15-44-29-8-6-17-13-20-15-8-7-14-12-15-14-2-3 3-28 9-48 3-8 6-13 15-22 4-4 10-10 12-14 3-3 8-10 12-14 9-12 13-19 14-28 2-13 1-75-1-90-2-23-12-51-21-64-6-10-28-31-36-36-13-8-31-12-58-13-14 0-19 0-26 1-17 4-31 13-49 31-15 16-24 31-29 50-6 19-6 28-1 61 2 12 2 16 1 34 0 10-1 22-2 26-3 17-4 20-10 34-6 17-17 39-24 50-3 5-5 8-8 9-5 3-6 3-29 8-13 2-35 9-41 12-5 2-13 10-15 15-5 10-7 18-6 41 0 14 0 26 1 35 1 7 2 16 3 20 1 9 9 41 13 53 3 9 6 12 12 14 2 1 34 1 95 2 50 1 92 1 93 1 1 1 10 1 20 0h116z"/></svg>