<svg xmlns="http://www.w3.org/2000/svg" width="1344" height="566"><path d="M0 283V0h1344v566H0V283m272 276c36-1 36-1 38-8 1-3 2-7 3-9 1-5 1-5-1-9-1-3-1-6-1-18 1-8 1-16 2-17 0-2-1-4-4-8-2-3-5-6-5-8-3-5-5-16-6-24 0-7 0-8 2-11 3-3 9-6 16-7 3 0 8-1 12-2 12-4 38-10 41-10 1 0 5-1 8-2 3 0 10-1 15-2 4 0 11-2 14-2 17-5 23-8 35-13 5-2 6-4 8-7 4-8 0-15-7-15-3 0-5-1-8-4-4-3-6-4-16-1-10 2-17 1-20-1-4-3-6-9-7-16 0-7-2-10-5-10s-4 3-11 18c-4 8-8 16-9 17-3 3-9 6-16 6-2 1-8 2-12 3-9 2-22 1-36-3-10-2-11-3-14-6-2-2-3-4-3-5-1-23-1-38-2-45-1-9 0-34 2-42 1-6 4-27 4-33 0-5-1-7-3-10-7-10-1-18 16-20 12-2 20-18 22-41 0-9 0-10-3-19-1-5-4-14-5-19-4-19-12-30-25-38-11-6-19-9-33-8-11 0-14 0-21 2-14 5-24 13-28 25-3 7-3 24 0 39 3 12 2 14-2 19-1 3-3 6-3 8-2 5-9 13-28 31-9 8-20 19-24 24-9 11-24 32-27 40-6 14-11 32-11 47-1 6-2 13-2 16-1 2-2 8-3 13-2 17-4 29-6 34-1 3-2 9-2 12-1 4-2 13-4 20-3 15-3 20-1 38s6 28 12 33c1 1 5 7 9 11 11 13 22 26 28 31l6 5h26c14 1 30 2 37 2 6 0 14 1 18 0 4 0 22-1 40-1z"/></svg>