<svg xmlns="http://www.w3.org/2000/svg" width="1344" height="566"><path d="M0 283V0h1344v566H0V283m741 278c125 0 132 0 139-4 5-2 7-8 8-22 1-20-4-55-9-65-6-10-27-30-47-42-2-2-7-5-11-8s-9-6-12-8c-10-6-25-17-31-22-4-3-6-7-12-17-13-26-13-27-13-33 0-12 8-30 24-55 12-18 18-31 20-39 1-3 3-14 6-24 5-23 7-35 8-60 0-15 0-20-1-28-5-27-18-51-39-70-22-20-35-26-59-29-4 0-13-1-20-2-10-2-16-2-24-2-22 2-36 6-51 16-11 8-29 25-35 35-10 14-16 34-18 56-1 7-2 18-3 26-2 12-2 14-6 22-3 5-6 11-6 14-2 11 1 32 5 40 7 14 13 21 19 26 2 1 5 3 5 5 3 5 5 17 5 27s0 10-4 16-26 28-33 32c-1 1-4 3-6 4-2 2-6 4-9 6-7 3-30 10-43 14l-16 4c-5 2-12 4-16 5-28 8-45 15-51 22-5 5-13 21-19 34-2 5-5 13-7 17-4 8-12 27-20 48-4 9-9 22-12 28-7 15-10 25-9 27 1 5 2 5 63 5 31 0 66 1 79 1 12 0 48 1 80 0h181z"/></svg>