<svg xmlns="http://www.w3.org/2000/svg" width="1344" height="566"><path d="M0 283V0h1344v566H0V283m261 280c41-1 79-1 85-2 21-2 22-2 25-1 2 1 37 2 255 2 244-1 253-1 256-2 2-2 3-2 9-1 13 2 23 2 38 1 8-1 19-2 24-3 7 0 9-1 11-3s2-2 1-11c-1-5-2-11-2-15-9-40-9-50-1-55 6-4 27-12 37-15 19-4 82-12 97-12 17 0 31 5 48 16 10 7 14 8 32 8 13 0 15 0 20-2 7-3 9-5 10-11 1-10 4-17 8-22 2-2 4-5 4-6 0-6-7-10-22-13-7-1-12-4-15-8-1-2-1-3 0-7 3-9 2-12-6-14-4-2-17-1-70 1-18 0-18 0-20-2s-2-3-2-12c1-9 1-10-1-12-2-3-3-3-8-3-6 1-18 5-35 14l-11 5-16 1c-18 0-29-1-36-4-6-2-18-13-22-19-3-6-7-16-12-38-6-20-8-32-9-48-1-19-2-22-6-31-2-4-4-9-4-10 0-6 5-11 13-16 6-4 9-5 20-6 4-1 10-2 11-3 3-1 12-11 17-18 2-3 6-9 10-13 15-17 16-21 16-60 0-28 0-30-2-37-3-10-5-15-11-21-5-5-10-8-23-14-15-6-30-8-41-5-10 2-11 2-22 9s-19 16-22 24c-2 6-5 20-5 28 0 19-8 41-22 59-10 11-12 13-26 14-6 1-12 1-13 2-4 1-7 5-8 11s-4 12-10 20c-15 20-22 34-29 55-6 18-9 32-13 66-4 37-5 45-8 45-2 0-3-5-5-27-4-41-14-106-22-135-13-43-27-72-42-87-11-9-33-22-48-27-25-9-51-12-66-8-6 2-17 7-22 9-2 1-8 4-13 6-26 11-41 27-50 56-6 17-6 23-5 57 1 16 1 35 1 43 1 14 2 27 8 67 5 33 5 36 12 56 3 9 5 18 6 22 0 6 0 7-2 9-2 1-6 2-11 3-6 1-11 2-18 5-5 3-21 9-36 14-42 13-44 14-48 22-2 4-7 18-8 23-1 6-7 26-9 29-7 11-15-6-18-35 0-9-1-23-2-32s-2-25-3-35c-1-11-3-29-4-40 0-11-1-23-2-26-3-18-12-44-23-66-4-11-5-18-2-24s8-11 14-14c8-3 12-8 20-22 4-6 9-13 11-17 8-10 8-11 4-29-2-9-5-21-5-27-3-15-6-24-14-31-7-6-14-10-25-14-8-2-10-2-30-2-19 0-21 0-26 2-13 5-16 9-20 26-3 11-3 12-3 27 1 8 1 17 2 20 2 9 1 17-3 25-4 9-8 13-16 17s-13 8-17 16c-2 5-6 11-12 17-11 11-13 15-17 29-1 5-4 13-6 17-9 18-17 39-20 52-7 30-10 56-11 100 0 32-2 72-2 75-1 1-2 10-3 21-1 14-1 19 0 21 2 4 7 5 21 6 19 1 15 1 96 0z"/></svg>