<svg xmlns="http://www.w3.org/2000/svg" width="1344" height="566"><path d="M0 283V0h1344v566H0V283m879 278c4-1 19-1 86 0 102 1 120 1 161-1 53-2 58-3 60-9 2-7-4-30-14-57-8-21-15-34-29-53-5-7-8-10-14-14-18-12-27-16-67-26s-61-16-70-21c-6-2-12-7-20-14-20-16-21-17-35-14-8 1-10 1-12 0-7-4-18-25-18-35 0-6 3-11 12-21 14-14 18-22 21-34 1-10 1-18-3-27s-3-15 6-47c4-13 5-19 7-35 3-25 2-38-3-53-1-3-2-7-2-9 0-4-2-13-4-17-1-2-6-7-10-11s-8-10-9-13c-8-15-17-22-30-22-9 0-16-2-26-9-13-8-22-10-44-10-14 0-16 0-25 2-11 3-14 5-21 9-2 2-10 5-17 7-10 3-17 6-29 13-8 4-17 10-20 12-8 6-21 20-25 30-7 14-7 13-10 45-1 6-2 15-3 19-7 32-7 34-7 60 0 28 1 55 4 70 1 13 12 42 24 70 11 25 15 37 17 46 1 4 4 11 6 16s3 10 4 12c0 3 0 4-5 8-2 3-9 7-14 10-4 4-10 8-12 9-4 3-11 8-25 15-4 2-10 6-13 7-5 4-24 16-36 23-12 6-27 19-29 23-1 3-5 8-8 12-8 9-14 19-15 24 0 3 0 4 2 6 4 4 9 4 51 4 21 0 54 0 73 1 19 0 68 1 110 1 61 0 76-1 80-2z"/></svg>