<svg xmlns="http://www.w3.org/2000/svg" width="1344" height="566"><path d="M0 283V0h1344v566H0V283m556 276h316c23-1 51-1 63 0 22 1 54 0 60-2 5-1 10-6 14-13 3-5 3-5 3-20 0-11 0-16-1-21-1-3-2-8-2-10s-1-6-1-8c-1-2-2-7-2-9 0-5-1-7-5-14-2-5-5-11-7-13-3-7-7-10-18-16-12-5-15-7-36-28-23-21-31-28-43-34-18-9-40-30-53-51-9-13-8-10-16-35l-7-21v-14c1-7 1-15 2-18 0-4 0-5-4-12l-3-6-1-17c-1-17 0-15-8-27-2-1-4-5-6-8s-5-6-6-6c-1-1-7-1-13-2-7 0-14-1-17-1-8-3-18-2-33 3-6 1-12 2-19 3-10 0-11 0-13-2-3-3-3-3-4-16-2-33-12-63-26-81-12-16-34-28-59-32-30-6-56-3-78 8-32 17-51 37-58 64-4 13-4 25-1 44 2 15 3 25 1 32-3 7-2 18 0 25 5 16 18 35 27 41 7 5 15 15 17 20 1 2 3 10 5 17 4 18 4 25-2 35-5 8-6 9-14 21-10 12-14 15-40 32-2 1-8 4-11 6-4 2-8 4-11 6-2 1-7 5-12 7-6 3-11 7-19 14-7 8-12 11-18 14-9 5-15 10-18 15s-5 14-5 20c0 10 2 59 3 65 1 4 1 15 2 24 1 20 1 21 10 22 2 1 23 1 45 0 22 0 77 0 122-1z"/></svg>