<svg xmlns="http://www.w3.org/2000/svg" width="1344" height="566"><path d="M0 283V0h1344v566H0V283m1032 277c62 0 89-1 93-3 5-2 5-9 0-19s-13-18-31-32c-8-7-14-13-18-18-13-16-32-32-50-42-3-2-10-5-14-8-3-3-9-6-11-7-12-6-19-12-28-25-3-5-9-14-14-20-4-5-10-14-14-20-4-5-9-12-11-15-5-6-12-19-12-21 0-1-2-6-5-11-7-14-11-24-11-29 0-3 1-4 7-9 12-9 17-15 22-24 8-17 8-16 14-52 3-23 4-49 0-69-7-41-22-69-47-89-20-16-41-27-65-32-7-2-13-2-25-2-17-1-28 1-52 7-9 3-20 6-24 7-11 2-41 12-50 17-4 2-10 6-13 9-12 10-29 38-35 55-4 12-7 34-7 50 0 15 3 38 7 50 3 9 7 23 12 42 2 9 7 27 11 39 5 13 10 32 13 42 10 35 12 40 16 47 5 6 13 12 20 15 5 1 9 4 8 6-1 1-17 10-36 19-39 20-53 29-63 39-10 9-13 14-15 25-2 8-2 11-1 23 0 17 2 21 8 29 3 4 6 9 8 12 1 3 4 6 5 7 5 4 23 5 90 8 18 1 109 1 318-1z"/></svg>