<svg xmlns="http://www.w3.org/2000/svg" width="1344" height="566"><path d="M0 283V0h1344v566H0V283m694 279c19 0 25 0 30-2 8-2 36-2 76 0 23 1 31 1 39 0 13-2 14-3 16-12 0-4 1-9 2-13 2-6 2-9 2-31 0-24 0-26-2-38-3-10-4-14-12-29-9-18-12-27-14-41 0-7-4-25-6-36-2-8-4-20-5-28-1-5-2-24-2-44-1-13-1-16-3-21-3-7-9-17-15-24-3-3-6-8-7-10-3-8-1-20 7-34 7-15 9-25 7-42-1-13-5-28-9-35-3-7-11-15-18-19-5-3-20-13-25-18-4-3-17-9-25-11-4-1-11-4-16-6-16-6-44-10-64-8-7 1-10 2-18 5-16 7-23 12-37 26-9 10-13 15-21 30-6 10-8 13-18 23-7 6-13 13-14 14-1 3-2 6-2 22-1 25-2 27-12 35-3 1-14 8-25 14-47 28-62 40-78 61-13 17-15 25-12 50 1 6 2 20 2 32 1 20 1 21 5 36 4 14 7 31 9 40 0 6 10 50 14 66s9 27 15 34c2 3 6 6 7 6 8 5 41 7 101 7 20 0 45 1 56 1 10 0 25 1 33 0h39z"/></svg>