<svg xmlns="http://www.w3.org/2000/svg" width="1344" height="566"><path d="M0 283V0h1344v566H0V283m761 278c21 0 55 0 76-1h59c32 1 115 1 141 0 33-1 33-2 29-18-4-13-16-46-23-61-4-8-11-19-19-28s-25-34-51-76c-3-5-7-16-7-20 0-3 4-6 16-11l12-4h11c10 0 11 0 13-2 5-4 8-10 9-23l1-11-4-12c-2-6-5-16-7-23-4-17-7-23-12-33-7-15-15-22-41-36-10-5-30-18-35-21-6-6-9-13-12-26-7-28-11-39-23-65-13-27-31-44-71-67-19-11-29-14-62-15-26-1-47 0-57 3-4 1-11 3-16 5-15 4-24 8-35 18-21 19-33 34-52 61-4 6-13 17-20 24-8 8-14 16-15 18-3 8-4 17-2 28 3 19 21 65 31 81 9 13 17 21 31 31 8 5 9 9 12 34 2 15 3 17 16 30 25 25 40 43 45 54 2 4 2 7 2 13s0 8-4 16c-8 20-12 27-18 33-12 15-18 28-27 65-6 23-6 33 0 37 2 2 5 2 25 3 12 0 27 1 34 0 7 0 29 0 50-1z"/></svg>