<svg xmlns="http://www.w3.org/2000/svg" width="1344" height="566"><path d="M0 283V0h1344v566H0V283m488 277c8-1 68-3 122-4h58c8-1 13-1 19 1 8 1 16 1 90 1 45 0 95 0 113-1 42 0 78-1 109 0 26 0 27 0 28-1 2-3 0-4-15-14-17-11-36-22-50-29-27-12-32-15-42-28-11-12-13-15-15-20-3-6-3-7 11-41 7-17 33-69 40-81 7-11 8-13 14-14 7-2 8-3 17-10 14-11 29-34 34-52 1-4 2-11 2-16 0-10-2-14-8-20-8-6-8-8-3-39 11-64 10-63 10-80 0-11 0-18-1-21-2-8-18-41-24-49-5-8-18-21-27-27-4-3-10-5-22-8-7-2-72-3-122-3-55 1-59 1-69 6-4 2-14 12-17 18-5 8-14 29-20 45-9 26-11 37-15 77-2 30-3 31-13 34-12 4-17 10-19 26-2 13 2 38 10 53 3 6 5 9 14 18 6 6 12 12 12 14 3 6 1 37-3 61s-14 46-23 51c-4 1-3 1-40-1-12 0-12 0-16 2-3 2-10 9-19 19-24 27-36 36-56 44-6 2-13 6-17 8-10 7-31 19-41 24-5 2-12 6-15 8-4 3-10 6-14 8-11 5-46 28-51 33-2 2-2 4 0 6s63 4 74 2z"/></svg>