<svg xmlns="http://www.w3.org/2000/svg" width="1344" height="566"><path d="M0 283V0h1344v566H0V283m912 275c2-1 3-2 4-3 1-3 1-17-1-29-2-15-1-29 2-35 4-7 3-15-5-46-5-23-7-32-8-44-1-16 1-25 6-37 6-12 8-20 8-30 1-7 1-7-9-24-8-15-11-31-11-60-1-23-2-30-6-43-4-12-5-26-2-29 0-1 2-2 4-2 3 0 15-5 23-10 3-2 10-6 14-8 9-4 10-5 15-14 2-4 6-9 7-12 2-2 6-10 11-19 9-18 10-23 7-35-2-6-9-19-15-24-3-4-15-10-25-13-6-2-8-2-18-1-12 1-13 2-20 6-9 6-16 15-25 32-4 8-8 17-10 20-4 5-19 20-24 24-4 2-4 2-13 2-15-1-18 1-20 11 0 5-1 6-11 16-24 23-33 41-44 78 0 3-2 7-3 8 0 2-1 6-1 9 0 4 0 8-1 10-2 8-3 62-2 78 1 10 1 20 0 35-1 11-1 34-1 51v30l2 6c2 3 5 7 6 9 8 8 26 35 31 46 6 12 7 17 7 30 0 8 1 12 2 13 4 5 17 6 74 6 36-1 49-1 52-2z"/></svg>