<svg xmlns="http://www.w3.org/2000/svg" width="1344" height="566"><path d="M0 283V0h1344v566H0V283m306 278c12 0 39-1 60-1h47c4 1 6 1 9 0 3-2 6-2 15-2 6 1 13 1 17 2 5 1 15 1 40 0h220c47 1 62 1 82 0 13-1 26-2 27-3 3 0 4-4 6-14 2-12 2-15 2-21-2-12-10-18-44-35-81-41-87-44-88-49-1-2-1-4 2-11 6-13 11-30 12-38 0-4 2-9 2-11 6-13 14-36 17-48 2-11 5-33 5-40 0-13-3-48-6-68-1-11-3-24-3-30-2-17-11-59-17-75-7-21-22-46-37-61-15-16-28-25-52-37-20-9-30-11-48-11-12 0-15 0-28 3-7 2-16 4-19 5-14 5-16 6-22 7-32 6-56 32-74 80-9 23-18 56-21 82-4 22-11 90-12 112-1 21 2 49 8 81 7 38 7 41 4 47-3 4-18 11-30 14-14 3-21 6-38 16-8 6-20 13-27 16-17 9-29 16-44 26-21 14-21 15-24 29 0 5-2 14-4 19s-3 10-3 11c1 3 5 5 14 6s17 1 52-1z"/></svg>