<svg xmlns="http://www.w3.org/2000/svg" width="1344" height="566"><path d="M0 283V0h1344v566H0V283m1121 277c3-2 2-6-4-23-7-21-15-39-23-51-5-9-7-12-8-19-2-9-4-12-12-16-7-4-46-20-55-24-4-1-14-6-23-10-17-9-21-12-23-19 0-4 4-28 9-48 9-35 11-59 7-106-1-26-2-32-9-76-2-13-9-48-12-59-6-18-16-41-25-55-8-12-29-32-46-43-7-5-17-6-35-6-9 0-26 0-38-1-25 0-50 1-55 3-14 6-37 26-49 44-9 13-13 22-21 48-10 29-10 31-14 51-7 33-12 68-14 109-1 13-2 25-3 27 0 1 0 13-1 25s-1 25-2 29c-1 3-2 13-2 22-2 18-3 21-10 27-5 5-17 10-25 11-10 1-22 6-35 14-20 12-46 26-69 36-12 4-18 8-20 10s-2 3-2 17l1 15-7 22c-8 23-10 32-10 39 0 5 2 7 12 8 8 1 78 1 174 0 28-1 77-1 108-1 69-1 77-1 103 0 11 1 44 1 73 1 30 0 71 0 92 1 50 1 71 0 73-2z"/></svg>