<svg xmlns="http://www.w3.org/2000/svg" width="1344" height="566"><path d="M0 283V0h1344v566H0V283m273 277h73c11 0 20-1 21-1 1-1 8 0 18 1 14 1 23 1 57 1 23-1 57-1 75-1s45 0 58-1c19-1 27-1 37 0 13 1 123 2 144 1 12 0 14 0 16-3 2-2 2-3 2-6-1-7-5-28-7-32 0-3-1-7-2-11 0-8-2-17-4-20-3-7-16-15-48-29-4-2-20-10-36-17-15-8-29-14-29-14-2 0-19-9-20-11-2-1-2-3-2-5 1-5 9-25 15-39 10-22 12-27 17-43 5-17 8-27 9-40 0-11-2-44-5-71-2-14-3-28-4-31-2-22-13-70-22-90-4-11-14-27-23-37-15-18-52-42-79-49-14-4-21-5-32-5-14 1-36 7-49 13-3 1-10 4-16 5-13 4-20 8-29 15-23 18-40 52-57 116-7 26-9 34-16 70-18 91-21 107-20 150 1 34 1 35-11 41-4 2-13 7-20 11-12 7-32 18-42 23-3 2-9 5-14 7-9 4-19 10-23 14-1 1-4 7-7 13-5 13-8 18-16 30-4 5-9 14-12 19-8 16-9 21-3 25 3 2 22 3 41 2 6 0 36 0 65-1z"/></svg>