<svg xmlns="http://www.w3.org/2000/svg" width="1344" height="566"><path d="M0 283V0h1344v566H0V283m536 278c30 0 77 0 104-1 47-1 83-1 113 0 14 1 68 1 100 1 21 0 21 0 24-2 3-4 3-10-2-28-1-5-2-14-3-20-1-12-1-13-4-18-2-3-4-6-5-7-2-2-9-6-24-12-6-2-16-7-22-10-14-7-33-15-40-18-8-2-23-9-25-12-5-5-6-14-3-37 2-20 5-32 12-42 6-11 9-19 13-49 1-11 3-23 3-26 2-11 2-53 1-82-2-61-6-86-16-111-5-13-17-28-28-36-10-6-29-14-47-19-5-2-10-3-12-4-6-2-26-8-36-10-7-1-16-2-26-3-20 0-30 1-43 7-5 2-14 6-21 10-23 10-41 21-49 31-10 13-21 31-31 58-6 16-7 19-10 32-3 14-5 32-11 89-3 38-4 46-6 56 0 6-1 17-2 26-1 8-1 17-2 20-1 5-5 37-7 56-2 15-7 39-9 44-5 11-20 25-41 40-5 4-12 8-15 11-3 2-12 9-20 14-18 12-25 17-26 21-3 6-8 21-8 25 0 3 1 4 3 6l3 2 82-1c45 0 106 0 136-1z"/></svg>