<svg xmlns="http://www.w3.org/2000/svg" width="1344" height="566"><path d="M0 283V0h1344v566H0V283m340 276c1 0 4 0 7 1 5 1 7 1 10 0 3-2 6-2 15-1 7 1 27 1 50 1h90c30 0 57 0 65-1 10-1 18-1 34 0 13 1 46 1 92 1 70 0 71 0 74-2 2-1 3-3 3-7 0-7-4-27-9-39-1-4-2-8-2-14 0-12-2-17-8-22s-19-12-46-23c-12-6-28-13-36-17s-15-7-16-7c0 0-15-7-26-13-5-2-9-5-10-6-2-3-2-3-1-7 2-9 6-20 13-34 14-30 20-46 25-71 2-8 2-12 2-29 0-19-2-49-5-70-1-5-2-13-2-17-2-14-8-47-14-65-5-16-10-27-19-43-10-19-18-28-36-40-23-17-39-25-52-28-16-3-52-2-66 2-4 1-9 3-13 5-3 2-11 4-18 6-16 4-25 8-36 19-17 15-28 36-40 72-5 17-14 56-21 90-3 17-9 42-12 57-3 14-6 34-8 44-2 17-2 19-2 62 0 41-1 44-2 46-1 1-6 4-11 6-12 5-23 10-36 18-19 11-36 20-45 24-4 2-12 6-16 9-9 6-12 10-15 18-2 5-11 22-19 33-7 12-13 24-15 32-1 5-1 5 1 7 4 5 2 5 90 4 46 0 84 0 86-1z"/></svg>