<svg xmlns="http://www.w3.org/2000/svg" width="1344" height="566"><path d="M0 283V0h1344v566H0V283m620 275c18-1 62-1 106 0 58 2 191 2 198 0 12-2 33-12 46-22 1-1 5-3 8-5 7-3 22-18 22-21 0-4-8-17-11-19-2-2-5-2-19-3-10-1-21-2-31-4-8-1-21-4-27-4-6-1-13-3-15-3-4-2-7-7-7-10 0-1-1-4-2-7-3-6-8-8-18-8-8 0-11 1-24 9-11 7-19 13-31 23-8 7-14 11-26 15-21 8-25 9-29 7-1-1-7-11-15-27-6-14-14-30-17-35-3-6-7-14-9-19-3-5-9-17-14-27-10-19-11-23-10-26 0 0 4-3 7-5 6-2 9-4 14-11 4-4 9-8 11-9s7-4 10-7c4-3 9-7 11-9 3-3 8-6 10-9 3-2 8-6 11-8 7-4 9-9 13-25 4-15 6-20 17-41 4-9 10-22 12-28 3-7 10-21 17-33 11-21 12-24 10-29-1-2-5-7-10-13s-12-15-16-21c-12-21-36-41-64-54-28-14-46-17-71-14-17 2-26 6-43 16-11 6-14 9-28 25-14 15-19 23-27 38-3 6-7 15-10 19-7 9-20 22-27 26-3 1-14 4-24 7s-21 6-23 7c-6 2-13 8-18 15-2 3-6 9-9 13-6 7-7 10-9 18 0 2-1 8-3 12-1 5-2 11-3 14 0 4-1 8-2 11 0 2-1 7-1 10 0 6 2 9 10 14 9 6 10 8 5 16-2 4-5 9-21 33-9 13-11 18-23 46-6 15-13 30-15 34s-5 9-6 11c-1 6-1 17 1 27 1 5 1 13 1 18 0 9 0 10-2 12-4 4-8 2-29-12-10-6-22-16-27-20-11-10-39-38-50-50l-7-8 1-4c0-3 2-9 4-15 10-28 10-29 10-47 0-28-3-37-14-48-4-3-7-7-8-9 0-1 1-5 2-9 4-12 4-18 4-32-1-14-2-20-7-24-8-6-18-1-27 14-1 3-4 7-5 9-5 6-6 9-7 21 0 6-1 12-1 13-1 2-8 4-21 6-8 2-10 3-15 6-7 5-15 15-21 26-5 10-6 16-10 51-4 24-5 29-13 37-6 6-10 7-19 7-6-1-7-1-14 3-7 3-8 4-8 7s1 5 5 9c5 6 6 7 9 17 1 4 3 9 6 12 2 4 5 9 7 12 3 6 18 20 39 40 7 6 11 12 11 18 1 6 5 14 9 17 5 3 37 9 56 11 18 2 102 3 147 2 27 0 44 0 47 1 5 1 145 0 166-1z"/></svg>