<svg xmlns="http://www.w3.org/2000/svg" width="1344" height="566"><path d="M0 283V0h1344v566H0V283m791 278c73 0 87-1 90-3 3-3 3-7-1-18-3-12-13-40-18-50-2-6-4-16-3-23 0-6-1-9-7-14-4-4-57-31-78-40-16-7-48-23-52-26-2-2-5-5-6-7-2-4-2-5-2-32 0-22 0-31 1-40 6-38 6-39 1-62 0-4-2-12-2-19-3-21-9-44-19-77-3-9-11-28-17-37-19-36-45-60-80-74-15-6-25-7-46-7-22-1-26 0-38 8-12 9-12 9-22 11-14 3-19 6-29 15-15 16-21 29-33 72-2 7-7 31-8 48-4 29-5 136-2 188 1 15 1 22 0 23 0 2-3 4-6 5s-13 6-22 10c-18 9-37 17-52 24-18 8-21 9-24 12-2 3-2 3-3 14v19c-1 7-1 8 1 13 3 7 13 16 27 24 6 3 13 8 17 10 3 2 10 5 14 8 5 2 12 4 14 6 3 1 13 5 22 9 16 7 18 7 28 8 31 3 214 4 355 2z"/></svg>