<svg xmlns="http://www.w3.org/2000/svg" width="1344" height="566"><path d="M0 283V0h1344v566H0V283m633 277c99-2 118-2 172-2 31 0 83 0 117 1 32 1 100 1 149 1 86 0 90 0 92-1 3-2 3-3 3-7-1-7-7-21-11-28-2-3-9-11-16-18-6-7-13-15-15-18-4-5-6-7-34-30-8-6-21-18-30-25-16-16-29-26-42-35-5-3-13-10-19-14-17-13-24-16-43-16-8 0-9 0-16-3-7-4-15-12-18-18-4-10-5-28-2-47 2-12 5-17 16-28 16-16 23-25 29-41 4-9 6-23 6-29-1-2-2-8-4-12-4-10-4-12-1-34 5-41 0-62-22-85-8-7-13-12-26-20-23-13-45-19-76-19-19 0-26 1-39 5-15 5-28 13-39 24-20 19-27 36-31 75 0 9-1 18-2 20 0 2 0 10-1 18-1 7-2 21-3 30-4 24-4 31-3 43 4 36 16 70 31 93 10 14 11 18 6 22-2 3-34 19-49 26-27 11-62 35-91 61-15 14-42 48-50 63-2 4-12 33-13 38 0 5 2 9 6 10 5 1 18 1 69 0m-423-2c8-1 16-2 17-2 4-2 126-2 131-1 6 2 50 2 53 0 4-2 5-8 3-23-2-30-4-48-5-55 0-4-1-11-2-15-1-13-5-40-7-51-5-23-19-55-31-70-6-9-20-21-31-29-7-4-21-12-36-19-18-9-24-12-25-14s0-5 7-18c4-9 9-19 12-24l5-9v-12l-1-12 3-4c2-3 5-9 7-12 2-6 4-9 8-12 12-12 12-19 1-54l-4-14-1-23c-1-17-1-25-2-29-2-7-18-39-23-45-1-1-4-4-6-5-4-2-7-2-133-2C13 3 15 3 10 8c-2 2-3 3-3 14-1 14 1 26 5 44 2 7 5 18 7 25s4 16 5 20c2 7 12 58 14 72 1 7-1 18-4 24-1 2-3 5-4 8-2 5-6 11-16 21-3 3-6 8-8 12-2 3-3 6-4 6-1 1-1 47-1 148 0 145 0 148 2 152 1 2 3 4 4 4 1 1 13 1 26 1 13-1 32-1 41 0 21 1 119 0 136-1z"/></svg>