<svg xmlns="http://www.w3.org/2000/svg" width="1344" height="566"><path d="M0 283V0h1344v566H0V283m1177 276c5-3 5-5 2-15-4-11-13-35-17-42-5-10-11-19-21-32-22-27-39-39-81-57-17-8-41-19-56-27-5-3-13-6-18-8-12-4-17-6-19-9-2-5-1-9 15-47 22-51 25-62 27-83 1-15 3-22 6-31 3-11 4-17 1-30-4-15-6-33-7-60-1-25-2-28-8-38-7-11-26-30-38-37-3-2-10-4-15-6s-12-4-15-6-9-4-13-6c-5-1-12-4-16-5l-8-3-7 1c-9 3-25 3-34 2-12-2-30 1-42 7-6 3-27 22-40 36-16 18-21 33-21 68 0 10 2 31 3 35 1 0 3 12 5 27 8 44 9 47 12 57 2 6 3 13 4 17 0 10-2 29-6 41-3 10-6 13-19 23-5 4-13 10-17 13-14 11-40 24-52 27-9 2-17 5-24 7-3 2-15 7-26 11-70 29-90 40-110 61-25 25-40 51-49 84-5 15-5 20-2 23 2 2 2 2 33 2 36-1 87-1 111 0h55c62-1 427 0 438 1 15 1 66 1 69-1z"/></svg>