<svg xmlns="http://www.w3.org/2000/svg" width="1344" height="566"><path d="M0 283V0h1344v566H0V283m756 279c6-1 17-1 23-1h141c63-1 101-1 114 0 25 2 65 0 69-2 3-3 3-6 2-14s-10-39-15-53c-3-9-8-28-14-50-2-9-5-19-7-24s-4-11-5-13c-2-7-9-23-13-31s-9-13-17-18c-6-4-11-6-44-17-13-5-43-14-56-17-17-4-23-8-53-36-7-6-16-15-20-18-11-10-12-12-12-30 0-20 1-25 8-36 7-13 10-20 11-31 2-14 0-25-6-42-3-8-7-21-10-29-8-26-18-49-28-64-5-9-21-25-27-28s-14-4-53-5c-46 0-101 1-110 4-7 1-8 2-16 9-12 13-26 36-33 54-4 12-5 25-3 52 2 22 5 37 11 56 2 7 5 18 7 24 4 22 9 35 23 57 8 13 13 23 14 27 3 9 16 30 23 38 4 5 4 8 1 16-4 7-22 22-38 31-12 5-44 27-46 30-2 2-2 5-2 12 0 11-2 24-7 42-2 7-5 17-6 23-4 19-5 23-8 29-3 8-13 25-21 34-11 11-8 13 22 14 12 1 24 1 28 2 4 0 21 1 38 2s37 1 45 2c7 0 19 1 26 1 22 1 50 1 64 0z"/></svg>