<svg xmlns="http://www.w3.org/2000/svg" width="1344" height="566"><path d="M0 283V0h1344v566H0V283m608 278c13-1 39-1 58-1 110 1 152 1 155-1 5-2 6-5 6-17 0-19-4-39-14-70-9-26-12-35-16-42-3-7-4-8-1-22 0-5 0-5-3-8s-24-13-69-33c-20-9-34-16-37-19-2-3-2-4-2-14 1-11 8-55 11-70 4-19 4-25-2-77-6-56-9-71-19-96-8-18-11-23-23-37-12-13-23-22-40-30-7-4-25-11-31-12-9-2-24 1-35 6-5 3-11 4-22 5-9 1-12 2-18 5-12 6-27 22-37 39-4 8-12 27-15 36-6 23-12 47-17 79-1 7-3 16-4 21-4 24-6 42-7 59-1 20-1 28 3 51 1 12 0 19-4 24-3 4-13 9-22 9-8 1-26 7-47 17-9 4-19 8-24 10-15 6-22 11-26 15s-5 6-9 21c-2 6-6 17-8 23-5 10-7 17-14 42-1 4-4 13-6 19s-5 16-6 21c-1 4-3 11-4 14s-3 9-3 14c-2 9-1 11 6 14 6 3 6 3 118 4 45 0 93 0 106 1 36 1 98 1 122 0z"/></svg>