<svg xmlns="http://www.w3.org/2000/svg" width="1344" height="566"><path d="M0 283V0h1344v566H0V283m815 277c5 0 9-5 15-17l5-11 1-12c0-10 0-13 2-18s10-19 20-35c4-6 12-20 17-31s12-22 14-25c2-2 6-7 8-10 5-6 10-15 10-19 0-1-1-4-2-6s-3-8-5-13c-1-5-3-11-4-12-1-4-6-7-8-7-4 1-12 16-12 23-2 11-12 20-24 20-7 0-9-2-7-6 0-2 4-8 8-15 13-21 15-26 11-32-4-7-17-9-27-5-5 2-9 2-10 0s-1-2 10-21c7-11 11-24 9-28s-9-9-13-9c-5 0-9 2-12 9-4 8-19 26-25 31-5 4-9 6-16 5-18-3-21-2-28 6-5 7-16 29-19 38-3 8-6 21-9 30-5 21-8 29-15 46-9 19-23 46-27 53-2 2-5 7-7 11-4 7-10 13-13 13-1 0-5-4-10-8-5-5-11-10-13-12-4-3-5-5-7-10-1-4-2-9-3-12 0-7-9-26-15-32-2-3-8-8-13-11-19-11-20-13-13-20 5-5 7-8 11-21 2-6 7-21 11-34 9-28 11-37 14-61 2-29 1-60-6-109-2-11-9-44-12-53-4-13-6-18-10-28-11-25-22-38-48-59-22-17-51-23-74-16-5 2-12 3-22 4-23 2-32 6-48 19-15 13-27 28-33 42-9 23-14 38-18 54l-4 16c-4 20-15 70-16 81-1 5-2 12-3 17-3 19-4 52-3 94 2 34 1 35-19 63s-25 37-31 54c-2 6-7 18-10 27-8 21-8 23-4 31 1 4 4 10 4 15 3 11 3 12 9 14l4 2h128c217 0 319 0 337 1 17 1 63 0 70-1z"/></svg>