<svg xmlns="http://www.w3.org/2000/svg" width="1344" height="566"><path d="M0 283V0h1344v566H0V283m949 277c15 0 26-1 27-2 3-2 3-5 1-16-4-23-5-29-6-53 0-22 0-23-2-28-3-4-6-20-6-26 0-2-2-7-5-12-9-18-36-39-56-44-6-2-15-5-19-8-3-1-13-10-14-12-1 0-1-7-2-14-1-16-4-22-14-28-8-5-23-1-31 7-3 4-4 5-5 13-1 7 0 22 2 31 0 3 5 12 9 16l3 3v11c-1 6-2 11-2 13-2 2-4 3-13 7-6 2-11 4-11 4-5 0-7 9-3 12 2 2 4 2 19 2l17-1 4 3c3 3 6 6 8 11 4 7 9 23 9 30 0 5 2 9 8 15 6 7 7 9 7 18s2 19 6 28c1 3 3 8 3 10 1 6 3 9 5 10 3 1 27 1 61 0z"/></svg>