<svg xmlns="http://www.w3.org/2000/svg" width="1344" height="566"><path d="M0 283V0h1344v566H0V283m509 276h412c2 0 21 0 41-1 39 0 40-1 38-5s-18-15-54-39c-5-3-14-9-20-13-7-6-16-11-28-17-19-9-20-11-18-16 3-5 19-21 25-24 6-4 20-8 28-9 6-1 8-2 12-4 8-6 11-6 20-6 14 2 17 3 24 9 7 5 14 9 22 10 4 0 6 0 11-3 8-4 21-14 25-20 3-5 6-13 6-17s-8-18-12-23c-5-6-5-7-6-29-1-27-2-41-5-48-3-8-8-28-10-35s-5-15-9-20c-5-8-23-35-24-39-5-9-18-19-35-27-9-4-15-8-28-23-13-13-18-19-25-29-9-13-25-32-50-60-24-26-65-53-94-61-9-2-11-2-31-2-28 0-31 0-59 14-7 4-11 5-21 7-7 2-14 3-16 3-4 0-16 4-22 7-21 12-27 19-42 47-10 18-12 25-19 54-2 10-6 22-7 28-6 19-6 24-6 40 1 8 1 19 2 24 3 17 6 37 8 56 2 16 2 20 6 30 4 12 11 23 16 27 6 4 11 6 14 6 11-3 11-3 16 3 2 2 7 9 11 15s10 13 13 17c9 9 9 10 9 26-1 19-3 22-19 28-6 1-12 3-13 3s-4 1-5 2c-4 2-19 6-36 9-26 4-27 5-84 24-38 14-49 17-73 19-12 0-16 3-20 9-1 2-6 9-10 14-14 19-20 27-21 33-1 3 1 5 6 6 3 0 22 1 44 0h113z"/></svg>