<svg xmlns="http://www.w3.org/2000/svg" width="1344" height="566"><path d="M0 283V0h1344v566H0V283m244 277c5-5 3-38-4-71-1-4-2-10-3-15s-2-10-4-14c-6-11-5-18 3-20 6-2 7-3 5-14-3-21-3-26-3-45-1-11-2-24-3-29 0-6-1-14-1-18-1-4-2-13-3-19s-1-12-1-12c1-2 2-2 6-2 8 0 17-3 20-5 4-5 9-30 9-48 0-8 1-13 1-15 1-1 6-7 12-14 9-10 11-13 13-18 3-8 3-13-1-16-2-2-4-3-13-4-5-1-10-2-11-2-1-1-3-4-5-7s-4-7-6-8c-5-4-15-3-20 1-1 2-2 5-3 7-2 6-5 9-8 9s-14 10-14 14c0 1 2 6 4 10 5 11 5 23 1 27-2 3-4 2-9-3-7-6-18-13-31-20-13-5-19-10-18-14 1-1 4-4 8-6 12-8 13-10 13-29 0-11 0-13-2-17-6-13-7-15-7-20 0-2-1-6-1-7-1-2-2-6-2-8-2-9-11-16-26-21-17-4-30-4-43 2-9 4-13 8-17 14-3 6-4 11-3 21v8l7 7c4 4 8 8 9 10s5 7 8 11c3 3 7 10 9 15 3 5 7 12 9 17l5 9v9c-1 11-4 28-6 29 0 1-3 3-6 4-5 3-8 7-9 14v6l10 10c9 10 11 13 18 29 2 4 5 10 7 12 10 13 12 17 13 23s1 7-2 13c-3 7-3 8-2 10 2 5 5 5 15 0 8-4 9-4 18-4 12 1 12 1 15 9 2 5 2 8 2 23s0 18-2 24c-2 8-6 13-9 13-2 0-3 2-3 3-3 9-8 12-20 12-8 0-9 1-9 14 0 8 0 12 2 16 1 3 3 7 4 10 10 27 16 41 28 61 9 15 13 19 19 20 2 0 11 1 20 1 14 0 16 0 17-2z"/></svg>