<svg xmlns="http://www.w3.org/2000/svg" width="1344" height="566"><path d="M0 283V0h1344v566H0V283m689 275c6-1 11-6 12-12 0-2 1-7 1-11 2-19 5-38 7-47 2-7 5-20 6-30 0-4 1-11 2-16 0-5 1-14 1-20 0-5 0-14 1-19 1-8 7-43 10-52 0-2 1-6 2-9 0-3 2-10 4-15 1-5 3-11 3-12s1-7 2-12c2-5 4-12 5-16 2-9 6-18 8-22 2-2 3-5 4-7 7-20 9-25 8-41 0-14-1-19-6-26-1-1-3-7-5-11-1-5-4-12-5-15-2-3-3-7-3-9-1-5-7-21-10-26-7-11-14-16-24-16-16 0-35 19-40 40 0 3-2 9-3 14-1 4-2 9-2 12 0 2-1 5-1 6-2 2-21 15-43 29-2 1-10 4-16 5-15 4-20 6-28 14-9 8-17 12-25 12-6 1-8 1-10 3-1 1-2 3-2 3 0 1 2 4 3 7 4 5 5 6 13 9 8 4 9 4 15 4 14-1 21-4 21-10 0-3 1-3 10-5 12-3 14-4 23-7 5-1 11-3 14-3 3-1 10-2 15-4 12-3 12-3 13 7 0 4 1 9 3 11l1 4-3 3c-2 2-5 4-7 6-4 3-10 18-10 27-1 8 1 23 3 26 0 1 3 3 5 5 8 4 8 5 4 24-2 9-3 22-4 29s-2 15-2 18c-1 5-1 7 1 10 3 6 5 8 8 6 4-2 6-6 8-14 1-7 2-10 4-10 4 0 6 29 3 53-1 14-1 16 0 29 1 8 2 15 1 15v12c-1 6-2 13-2 16-1 2-3 10-5 16-4 13-5 18-3 20 3 4 8 5 15 2z"/></svg>