<svg xmlns="http://www.w3.org/2000/svg" width="1344" height="566"><path d="M0 283V0h1344v566H0V283m536 276c18-2 24-6 29-15 1-3 1-3-2-6-4-5-4-6-1-14 3-7 6-15 10-26 2-7 3-9 6-11s4-2 17-1c20 1 18 2 33-21 5-7 10-15 11-17 5-10 15-40 17-54 1-8 3-13 7-22 3-6 6-13 7-14 0-1 3-5 6-9 6-5 7-7 10-14l3-9v-34l3-5c2-2 3-5 3-6 0-2-3-2-6 0-1 1-5 3-7 4s-6 3-7 5c-1 1-5 3-9 5-5 2-8 2-12 2-9-1-14 1-21 7-14 11-35 23-39 23s-10-8-17-23c-10-20-15-24-39-36-7-4-14-9-15-10-2-3-2-3-1-7 2-6 12-24 18-36 8-14 10-17 13-29 1-6 3-13 4-16 0-4 2-10 2-14 1-5 3-12 3-15 3-12 3-31 2-42-3-14-6-18-17-26-2-1-8-6-11-9-15-12-32-19-54-20-10 0-11 0-21 3-17 5-22 8-29 18-7 9-15 28-22 54-4 13-9 43-10 57-1 5-2 14-3 20-2 20-3 37-3 39 1 1 3 5 5 7 2 3 4 6 4 8 0 3-7 18-12 24-6 9-7 13-7 24 0 5 0 12 1 16 2 11 3 39 3 51-1 8-1 14-3 19-2 7-2 9-2 29 1 19 1 22 3 28 1 3 2 7 2 8s1 3 3 5c5 4 6 7 8 22 0 8 1 15 2 16 0 1 1 9 1 18 0 11 1 16 2 18s2 7 2 10c1 10 4 15 9 18 6 3 36 5 50 3 13-2 26-2 41 0 13 2 16 2 30 0z"/></svg>