<svg xmlns="http://www.w3.org/2000/svg" width="1344" height="566"><path d="M0 283V0h1344v566H0V283m724 275c4-1 12-1 19-2 7 0 15-1 19-1 19-4 64-5 81-1 9 1 27 1 31-1 1-1 6-5 10-9 14-13 16-14 31-19 7-3 20-8 28-13 18-8 21-9 26-4 4 3 6 9 8 18 1 11 7 23 12 27 5 5 13 6 26 6 6-1 13-1 15-2 6-2 9-7 9-13 0-9-2-13-9-21-8-8-11-13-16-26-4-11-8-22-19-43-5-10-9-20-9-21-3-9-29-55-52-91-15-25-29-46-33-53-7-12-10-17-18-26-7-8-24-24-29-27-4-3-35-36-37-40-3-6-3-10 6-28 4-7 6-16 9-27l4-15V78l-2-5c-4-7-11-13-22-19-14-7-29-12-44-13-8-1-19 1-26 4-6 3-15 11-17 16-6 12-8 31-6 47 1 10 3 33 3 46 0 7 0 10-1 13-3 4-10 11-17 14-8 4-53 18-62 19-24 4-32 6-41 11-5 2-11 6-14 9s-8 6-11 9c-15 9-36 24-44 31-10 8-27 25-33 34-9 11-13 24-15 40s-1 21 9 40c5 9 9 17 11 18 3 3 3 3 12 3 13 0 14 1 15 8 1 5 0 8-2 14-1 4-3 9-4 11-1 1-2 5-3 8-1 2-3 8-5 12l-3 6 1 14c1 9 1 16 2 19 3 7 2 15-3 23-5 9-5 11 0 14 3 1 7 3 10 3 5 2 7 3 15 11 12 12 17 14 29 15 5 1 11 1 13 2 7 2 21 3 37 4 20 1 98 0 106-1z"/></svg>