<svg xmlns="http://www.w3.org/2000/svg" width="1344" height="566"><path d="M0 283V0h1344v566H0V283m568 277c6-2 20-2 60-1 55 2 103 1 112-2 6-1 9-5 10-11 1-4 1-5-2-9-4-8-6-15-7-23 0-5-1-10-3-14-4-9-5-16-4-32 0-15 1-20 3-21 1-1 10 0 21 0 14 1 24 1 35 0 26-2 49-4 53-5 2 0 7-1 10-1 9-1 34-6 39-7 1 0 8-2 14-3 10-2 13-3 24-9 14-7 21-12 30-20 7-7 12-15 14-22 1-4 1-6 0-11-5-14-23-39-42-57-11-10-17-15-35-24-11-6-13-8-21-15-5-5-10-10-13-12-2-1-9-3-15-5-14-4-17-5-29-12-15-9-16-9-28-10-10-1-10-1-24-8-8-4-20-10-26-14-13-7-15-9-17-16 0-2-1-9-3-15-1-6-3-17-4-25-1-7-3-19-5-27-3-11-4-15-9-23-6-12-11-19-20-26-17-15-35-22-70-29-25-4-39-2-62 9-20 10-49 34-60 52-7 11-23 43-28 57-1 4-3 9-4 10-2 5-34 27-51 35-11 5-20 10-26 15-12 10-20 15-33 19-30 10-41 18-53 42-7 13-8 19-7 46 0 29 0 31 11 44 10 13 19 26 20 32 1 3 2 10 3 17 2 17 3 21 9 34 6 15 7 19 7 35-1 14-3 25-7 41s-5 17-2 19c2 2 5 2 58 1 32-1 57-1 58 0h33c18 0 37 1 43 1 16 1 37 1 43 0z"/></svg>