<svg xmlns="http://www.w3.org/2000/svg" width="1344" height="566"><path d="M0 283V0h1344v566H0V283m670 279c14-2 22-2 57-1 27 1 46 1 80-1 94-2 116-3 161-3 26-1 62-1 79-2 21 0 34 0 39 1 4 0 27 1 51 2 48 0 47 1 47-5s-3-14-12-33c-21-41-45-77-63-96-9-8-25-21-33-27-11-7-28-14-54-21-8-2-48-15-61-21-4-1-12-3-18-4-16-4-21-6-46-19-21-11-28-14-36-14s-16-6-20-14c-3-5-9-20-11-28-3-9-4-17-4-30-1-14 0-15 7-30 6-14 8-24 8-36-1-9-1-14-3-20-2-4-3-12-4-18-4-41-8-61-15-73-1-2-5-8-10-13s-12-13-15-17-8-8-10-10c-4-4-17-8-29-9-6-1-11-2-13-2-1-1-9-2-19-3-16-1-17-1-31 1-24 4-35 7-54 16-22 11-29 16-33 22-4 5-8 14-11 24-3 8-3 9-4 42-1 44 0 56 6 86 8 39 16 55 46 100 18 28 21 30 31 42 10 10 11 12 8 18-4 6-22 20-34 26-10 4-52 26-63 32-20 11-30 17-33 19-12 8-24 19-37 32-9 9-18 17-21 20-9 6-12 12-15 24-1 5-4 14-6 21-6 17-5 18 8 21 13 2 171 3 190 1z"/></svg>