<svg xmlns="http://www.w3.org/2000/svg" width="1344" height="566"><path d="M0 283V0h1344v566H0V283m480 276c17-1 54-2 114-2 27-1 54-1 59-1 8-1 13-1 19 0 4 1 14 2 20 2 7 0 17 1 22 1h23c7-1 42-1 77-1 36 0 80-1 98-1 22-1 48-1 78 0 40 1 44 1 46 0 1-2 1-2 0-4s-25-18-36-24c-3-2-11-7-17-11-6-3-14-7-17-9-4-1-8-3-10-4-1-1-9-5-18-9-17-7-21-10-25-15-1-2-6-7-10-11-8-9-11-14-11-20 0-10 42-103 54-119 5-7 7-9 18-12 11-4 20-13 31-31 11-17 16-31 16-45 0-10 0-12-9-20l-6-6v-7c1-7 4-29 9-56 7-41 7-69 0-81-1-2-6-11-10-20-9-19-13-25-23-34-13-11-18-13-53-14-33-1-148-1-159 0-15 2-22 3-25 5-6 4-22 36-29 56-8 24-11 41-13 67-1 14-3 31-5 37-1 3-2 4-5 6-1 0-4 1-5 1s-4 1-6 3c-13 8-16 30-9 58 5 17 12 29 26 41 8 8 8 9 8 35-1 33-5 54-15 72-3 6-6 9-9 11l-4 3-24-1c-21-1-25-1-28 0-2 1-7 6-12 11-4 4-13 15-20 22-21 22-29 29-51 37-4 2-10 5-13 7-7 5-30 18-36 21-3 2-9 6-15 9-5 3-16 9-24 14-18 10-39 23-46 30-5 5-5 5-4 7 2 1 6 1 27 2 25 2 35 2 57 0z"/></svg>