<svg xmlns="http://www.w3.org/2000/svg" width="1344" height="566"><path d="M0 283V0h1344v566H0V283m920 279c53 0 61 0 69-4 7-4 7-7 1-22-2-4-4-12-4-17-1-5-3-12-4-15-1-2-3-9-4-14-3-13-11-42-13-46 0-2-2-9-2-16-1-6-3-14-4-18-10-29-19-55-20-64-2-6-8-23-10-27-2-3-5-6-8-9-5-3-19-8-23-8-10 0-37-10-46-18-11-9-14-29-10-58 1-9 1-25-2-43-4-26-8-38-18-50-6-7-21-18-30-22-6-2-8-2-20-2-10 0-15 0-26 2-25 6-31 8-42 20-8 8-13 15-17 25-2 6-2 7-2 20 1 12 1 16 3 22 6 18 5 33-3 39-5 4-15 16-19 23-3 5-11 28-13 35-1 3-3 8-4 11-2 4-3 8-3 12-1 5-2 10-4 15-3 6-5 13-6 18-1 11-3 16-8 22s-5 6-10 22c-3 12-4 16-8 22-9 15-16 30-20 48-7 27-3 57 9 71 8 10 30 14 49 9 15-4 17-5 19-3 2 1 4 5 6 9 2 5 5 8 6 9 2 1 20 1 93 1 50 0 95 0 102 1 6 0 12 1 14 0h32z"/></svg>