<svg xmlns="http://www.w3.org/2000/svg" width="1344" height="566"><path d="M0 283V0h1344v566H0V283m342 278c58-1 65-1 116-1h90c28 0 57 0 63 1 19 2 58 2 85 1l25-1 3-3c2-2 3-5 4-10 1-3 3-8 5-11s3-6 3-7-2-5-4-8-6-9-7-13c-2-4-4-8-5-9s-7-4-14-6c-10-3-20-8-39-17-33-17-53-26-65-31-16-6-22-10-22-15 0-2 8-17 12-23 1-3 5-9 8-14 5-10 10-15 23-24 12-9 18-17 20-30 0-3 2-13 3-22 0-10 2-24 3-31 2-27 1-147-3-168-2-14-7-27-12-37-10-22-48-45-102-64-18-7-28-9-47-10-21-1-49 5-59 11-7 5-19 11-37 18-10 5-20 10-23 12-5 4-13 16-17 26-2 4-5 14-7 23-3 8-7 21-9 28-7 20-12 47-15 94-1 8-2 18-2 22-2 18-6 76-7 102-1 23-2 43-4 48 0 1 0 6-1 12-1 12-5 33-8 44-4 14-7 19-19 31-6 7-14 16-18 21-11 14-23 25-38 34-7 5-14 10-15 12-3 3-3 7 1 10 3 3 8 4 23 5 14 2 35 2 112 0z"/></svg>