<svg xmlns="http://www.w3.org/2000/svg" width="1344" height="566"><path d="M0 283V0h1344v566H0V283m340 277c136-1 199-2 208-4 6-1 9-1 19 0 7 1 26 2 42 3 26 1 35 1 66-1 44-2 176-2 187 0 8 2 130 3 194 3 57-1 56-1 56-7 0-3-6-13-16-25-4-5-11-13-15-18-5-7-12-13-25-24-10-8-24-21-32-28-19-18-31-28-46-39-6-5-14-12-18-15-16-14-28-18-47-20-16-1-21-3-29-7-4-3-7-5-10-10-10-15-12-35-6-57 3-13 4-14 20-36 9-11 14-19 17-28 3-12 4-21 1-33-2-9-2-15 1-32 1-6 1-15 1-28 0-19 0-21-2-28-9-30-21-44-53-61-19-10-36-14-62-15-24 0-40 3-63 12-13 5-23 11-32 20-9 8-14 16-19 26-4 11-6 18-7 37-1 9-3 27-5 41-2 13-5 29-6 34-2 14-3 31-2 40 0 10 5 39 7 46 0 3 1 6 1 7 0 2 6 15 14 33 7 15 7 16 17 25 5 5 9 9 9 10 0 2-5 6-17 13-7 3-14 7-15 8-2 1-8 5-14 8-15 7-29 16-44 28-6 5-16 13-21 17-13 10-31 26-38 34s-9 8-14-1c-10-14-30-31-48-40-13-7-32-15-53-23-24-9-32-12-53-22-8-4-17-8-20-10-3-1-10-5-16-9s-16-11-22-14c-7-4-15-9-18-12-11-7-14-14-14-39 0-26 6-55 15-68 7-10 17-33 19-44 3-8 3-12 3-26 0-9 1-19 1-23 1-6 2-15 2-28l-1-20-3-5c-2-3-4-8-6-13-1-4-3-9-4-10-3-5-19-24-26-32-8-7-10-9-20-14-15-7-25-10-45-11-19-1-43 2-65 8-7 1-33 12-38 16-7 4-12 9-15 15-2 4-4 7-5 8 0 1-3 7-6 13-2 5-6 12-8 15-25 32-28 39-31 72-4 46-2 64 11 96 5 13 12 26 18 35 4 5 8 14 11 19 5 12 14 42 14 47 0 7-9 23-23 41-13 16-14 17-35 33-4 2-32 16-39 19-6 3-15 11-18 17l-3 4v35c0 32 0 34 2 37 1 2 3 4 4 4 1 1 21 1 45 1 25 1 45 1 45 2h63c34-1 115-2 180-2z"/></svg>