<svg xmlns="http://www.w3.org/2000/svg" width="1344" height="566"><path d="M0 283V0h1344v566H0V283m752 278c23-1 31-2 42-7 4-2 10-4 14-5 6-1 20-6 51-17 17-6 35-10 59-14 16-3 19-3 22-7 3-2 3-3 3-7-1-7-12-29-19-38-6-9-8-9-31-16-25-6-26-7-49-11-11-2-22-5-24-6-7-3-23-16-33-26-9-8-13-14-13-19 0-1 3-9 7-17 5-8 10-21 12-27 6-17 10-24 14-29 12-17 15-38 11-73-3-28-4-32-8-44-9-31-21-52-38-64-9-7-32-19-37-20-6-1-39-1-45 0-2 1-11 2-19 2-27 1-38 6-54 21-9 10-20 24-25 36-8 15-11 44-9 86 1 13 2 27 2 30 1 3 3 8 3 12 3 12 6 18 12 24 4 5 5 7 9 18 4 12 4 13 4 24l1 12-6 11c-4 8-6 14-7 19-3 13-6 20-17 33-4 5-12 8-19 8-3 0-7 1-10 2-2 1-6 2-8 2-5 1-10 5-20 14-25 21-26 23-23 39 2 9 12 33 15 37s6 5 15 8c10 3 33 5 38 3 4-1 26 0 44 2 8 1 21 2 42 2 22 0 33 1 38 1 8 2 30 2 56 1z"/></svg>