<svg xmlns="http://www.w3.org/2000/svg" width="1344" height="566"><path d="M0 283V0h1344v566H0V283m854 276c15 0 72-1 127-1s103-1 105-1c8-1 10-5 6-17-2-9-5-15-12-22-12-11-31-20-56-27-12-3-22-9-50-31-10-6-20-13-27-16-15-8-20-12-41-33-17-16-18-17-25-29-10-19-14-26-15-33-1-3-3-10-5-16-3-10-3-10-3-23 1-7 2-16 2-21 2-12 4-73 4-97-2-39-9-76-19-95-7-15-17-24-32-30-18-6-37-9-56-9-13 1-15 1-26 5-18 6-35 15-43 22-13 12-19 21-36 60-13 27-36 72-47 89-13 20-23 34-30 42-4 5-8 10-8 12-2 3 1 6 6 6 9 0 11 3 12 21 0 7 1 14 1 15 1 2 3 4 5 6 11 9 11 15-3 36-14 20-30 44-37 56-4 8-11 20-16 28-24 39-25 40-28 54-1 9-3 39-2 43 2 6 4 6 29 7 38 1 291 0 320-1z"/></svg>