<svg xmlns="http://www.w3.org/2000/svg" width="1344" height="566"><path d="M0 283V0h1344v566H0V283m862 18c1-1 3-4 5-11 3-8 2-19-1-26l-4-12c-1-4-3-11-4-16-4-12-4-17-1-22 4-7 13-15 21-18 6-3 7-3 17-3 9 0 12 0 16 2l4 2 5-2c3-2 7-5 10-7 2-2 5-3 6-3 3 0 9-3 10-5 1-4-16-25-34-42l-9-8 1-12V97c0-8 0-9-2-13-3-3-5-5-10-8-5-2-6-2-14-2-12 0-22 4-25 10-3 5-5 19-5 28s0 11 2 15c1 2 2 6 2 7 0 5 4 9 8 10 6 2 8 4 8 8 0 3-1 4-6 9-3 3-8 8-9 10-5 7-13 14-24 20-6 4-11 3-15-1-3-3-3-3-3-11 0-17-6-33-16-43-5-4-25-17-29-18-9-2-15-21-11-35 2-6 2-15 1-19-2-3-7-7-11-10-5-2-17-1-24 2-7 4-10 6-11 12-2 6-3 10-1 23 1 13 5 22 12 29 6 5 6 8 1 10-2 1-5 4-8 7-7 6-10 14-14 36-1 4-3 9-3 11-1 3-2 7-2 9s-1 5-2 7c-2 6-3 18-1 20 1 0 2 0 3-2 3-5 11-12 14-12 1-1 5-2 7-3 8-4 19-3 28 0 12 5 18 8 22 11 3 1 4 2 6 1 2 0 8 1 16 3 12 3 13 3 32 3h19l3 3c9 8 12 19 13 52 0 16 1 22 2 24s3 3 5 1z"/></svg>