<svg xmlns="http://www.w3.org/2000/svg" width="1344" height="566"><path d="M0 283V0h1344v566H0V283m703 277c12 0 12 0 15-3s3-3 3-11c-1-7-2-17-6-37-1-11-14-48-19-57-3-6-3-9-4-14 0-15 0-15-4-19-3-3-9-6-26-14-30-13-50-21-61-26-16-6-29-12-33-16l-4-3v-9c1-8 4-21 8-31 5-16 9-26 12-31 4-7 6-17 7-35 1-14 1-26-4-63-4-32-5-35-15-61-14-38-23-53-40-71-15-14-18-16-36-24-23-11-31-14-47-16-7 0-15-1-18-1-6 0-15 3-25 8-5 3-14 8-20 12-27 14-38 23-45 39-8 16-15 37-19 57-5 25-14 82-16 105-1 6-2 15-3 19-6 34-8 68-5 84 0 4 3 12 5 18 7 18 7 18-20 27-16 6-23 10-35 19s-33 22-42 27c-8 4-15 11-17 15-1 1-2 5-2 9-1 5-2 10-6 20-9 21-13 35-16 56-1 16-1 22 3 26l2 2h62c35-1 65-1 67-2 4-1 7-1 9 0s38 1 85 2h83c0 1 216 0 227-1z"/></svg>