<svg xmlns="http://www.w3.org/2000/svg" width="1344" height="566"><path d="M0 283V0h1344v566H0V283m1206 279c38 1 47 0 61-1 29-4 32-4 45-3 27 2 25 3 27 0 3-3 3-4 3-16 1-7 1-84 1-170l-1-156-2-9c-8-23-8-25-8-39 1-8 1-16 2-20 0-4 1-17 2-30 0-28-1-37-6-49-5-8-13-16-24-22-4-1-8-4-10-5-4-3-14-4-38-4-21 0-32 1-36 4-2 1-3 4-4 6-1 3-3 9-5 14-1 4-4 11-5 14s-3 7-4 9c-2 6-1 43 3 67 4 29 13 55 20 61 3 3 12 7 17 8 4 1 8 6 8 11 0 4-1 6-4 10-6 9-15 20-20 26-9 7-16 23-21 44-5 20-6 21-9 32-7 22-8 32-10 64-1 26-4 48-6 54-2 7-5 11-15 22-12 10-22 17-28 16-2-1-10-3-19-6-29-10-29-10-32-7-2 2-3 4-3 5s3 5 7 9c5 4 8 8 9 9 1 4-4 10-12 16-11 8-12 10-12 13s2 5 6 6l7 7c5 5 6 6 16 8 7 1 46 3 62 2h38m-688-5c3-1 8-3 9-5 4-3 10-16 11-21v-5l-8-8c-4-5-9-10-10-13-2-5-3-6-8-8-2-1-7-5-10-7-2-3-6-6-7-7-7-4-5-29 3-51 2-6 5-20 5-25s-2-17-5-25c-1-4-2-8-3-10-1-11-12-34-19-41-2-3-9-9-15-13-17-12-17-14-11-21 1-3 5-8 7-13 5-9 6-11 13-15 6-3 8-8 10-19 0-5 1-12 2-17 1-7 1-10 0-15-1-3-2-11-3-19 0-7-1-17-2-23-4-19-7-23-35-34-18-8-39-8-58 0-20 7-27 21-29 61-1 12-2 26-3 31s-1 25-2 44v34l-11 22c-6 13-11 24-11 28-1 3-3 11-5 17-3 10-3 14-4 28-1 15-3 31-7 43-3 11 0 43 7 63 2 5 4 14 5 20 1 10 2 12 4 15 3 3 10 6 17 6 2 0 8 1 13 3s11 3 13 3c2 1 34 1 71 0h68l8-3m222 2c27-1 49-1 86 1 42 2 100 0 112-3 7-2 7-6 4-34-2-11-3-26-3-33-1-16 0-47 3-65 7-45 9-68 9-90 0-18-1-23-9-40-5-11-6-15-9-27-5-17-8-26-13-38-6-14-9-20-17-29-6-8-8-12-9-22 0-11-2-12-11-14-5 0-7-1-10-4-2-2-5-5-6-7s-3-6-5-8c-2-4-2-5-2-21 0-10 0-25 1-35 3-22 2-29-2-40-8-20-21-32-42-39-13-4-35-1-54 9-15 7-25 15-30 25l-3 6 1 13c0 11 0 15-2 22-1 5-1 12-2 21 0 7 0 16-1 18-2 8-1 10 6 21 3 5 9 14 12 19s7 11 9 13c4 4 12 8 20 10 7 2 12 5 14 10l2 4-2 4c-1 3-4 7-6 10-8 11-12 19-14 29-1 10-5 23-12 43-6 16-6 19-9 34-6 24-12 49-17 68-1 4-3 12-5 19-5 19-7 27-11 43-4 12-6 21-14 59-1 5-3 15-5 22-2 8-3 16-4 19 0 4 0 5 3 7 2 2 3 2 13 2 5-1 21-1 34-2z"/></svg>