<svg xmlns="http://www.w3.org/2000/svg" width="1344" height="566"><path d="M0 283V0h1344v566H0V283m692 277c1 0 11 0 22 1 24 1 87-2 92-4 3-1 9-1 19-1 12 0 15 0 16-2 3-2 3-7-6-38-1-3-4-12-7-18-5-12-7-18-7-22 1-5 3-6 11-4 12 2 19 1 24-2 9-6 14-14 18-29 1-4 3-8 3-8 1-1 3-1 6 0 8 1 9-4 3-9-11-10-20-30-23-47 0-3-1-7-2-8-2-4-5-14-6-22-2-8-4-14-6-22-1-4-3-11-5-16-6-23-9-29-19-40-8-7-9-8-17-11-11-5-19-9-29-18-7-6-9-11-8-16 1-3 2-5 5-6 5-4 9-8 10-13v-27c0-20 0-24-2-33-4-18-11-32-22-44-9-10-12-12-33-14-24-2-33-2-39 1-8 4-14 9-20 17-8 9-12 19-14 33-1 11-1 13 0 24 2 12 5 23 8 28 0 1 3 5 6 9 5 6 6 7 6 13 1 8 0 13-7 20-10 13-10 12-48 30-13 7-23 13-25 16-3 4-6 14-7 24-4 18-4 22-6 27 0 4-2 11-2 17s-2 14-2 19c-1 5-2 13-3 19-1 5-1 13-2 17-1 10-1 30 0 36 5 24 5 25 22 41 12 12 14 14 14 17s-5 21-8 27c0 1-2 6-3 11-5 13-4 22 3 25 5 2 27 3 58 2h32z"/></svg>