<svg xmlns="http://www.w3.org/2000/svg" width="1344" height="566"><path d="M0 283V0h1344v566H0V283m674 278c139 0 181 0 189-1 4 0 7-1 9-3l3-2v-29c0-17 0-29-1-31-1-1-2-6-3-9 0-4-2-10-4-14-6-12-28-31-58-51-35-22-42-28-47-33-6-8-21-36-22-43-2-9 2-20 15-43 4-7 9-16 11-20 3-4 6-10 9-14 7-10 8-13 11-27 1-8 4-19 6-25 8-29 11-68 6-95-5-23-20-46-43-67-16-14-29-20-49-22-6-1-16-2-23-4-20-3-39-2-57 3-23 8-51 34-64 59-5 11-10 29-11 49-2 21-4 31-7 37-9 15-9 15-8 32 0 18 0 21 9 36 6 9 10 15 16 19 2 1 4 2 4 4 2 4 5 16 6 27 0 10-1 14-8 24-9 11-35 34-44 38-7 4-33 13-48 17-14 4-52 17-62 20-16 7-20 10-27 21-5 9-22 47-25 56-1 4-4 11-7 17-5 13-14 35-19 49-2 6-5 13-5 16-1 9-5 8 66 8 34 0 77 1 96 1 18 0 39 1 46 0h140z"/></svg>