<svg xmlns="http://www.w3.org/2000/svg" width="1344" height="566"><path d="M0 283V0h1344v566H0V283m487 130c7-2 14-4 24-9 8-4 15-7 16-7l6-4c9-8 14-9 16-3 2 3 2 3 0 5-2 3 0 6 3 5s24 1 26 2c1 1 19 4 31 5 5 0 25 1 44 2 32 0 42 1 56 3 9 2 17 1 34-2 9-1 20-3 26-4 7 0 12-2 13-2s10-3 20-5c10-3 22-6 26-7 8-2 17-4 32-5 14-1 15-1 17-6 3-7 0-39-6-59-2-7-4-15-5-19 0-9-4-15-12-20s-10-8-11-15c0-6 0-6 3-10s4-5 4-8c-1-1-3-13-7-26-10-40-12-46-12-51-2-8-5-19-9-29-12-29-25-45-47-58-28-16-41-17-73-9-27 7-39 14-49 31-6 9-11 25-13 38-1 4-2 17-3 26-1 10-2 23-2 29-1 6-2 16-3 23-1 21-2 23-13 24-6 0-9 0-14 3-4 1-8 4-11 6-2 2-6 5-9 7-8 6-13 12-19 26-6 12-7 13-18 24-13 13-18 15-38 24-11 4-24 7-33 7-10 0-13 6-29 43l-4 12c-3 7-4 11-2 13 3 1 8 2 21 2 11 0 16 0 24-2z"/></svg>