<svg xmlns="http://www.w3.org/2000/svg" width="1344" height="566"><path d="M0 283V0h1344v566H0V283m481 113c8-4 9-4 22-5 7 0 14-1 16-2 1 0 6-1 9-1 9-1 21-4 28-7 8-3 19-3 33 0 6 1 18 2 27 3s18 1 19 2h25c14 0 27 0 34 1 13 2 15 2 39 0 19-1 28-3 49-8 4-2 11-4 15-4 4-1 10-2 14-3 14-4 20-3 45 1 6 1 7-3 4-19 0-5-2-17-2-28-1-10-2-21-2-24-1-4-1-9-1-12 0-6 2-9 9-11s7-2 6-8c0-4 0-9 2-16 3-13 4-27 5-54 1-32-1-48-9-86-3-17-6-25-11-35-5-11-15-22-24-28-8-5-22-12-30-15-13-3-45 2-62 11-8 4-17 12-24 21-9 12-12 24-12 45 0 6-1 19-2 29 0 10-2 35-2 57-1 27-1 40-2 44-2 7-2 8-6 10-3 1-9 1-20-2s-28-2-42 3c-8 2-20 9-23 12-3 2-16 9-18 9-1 0-5 2-8 4-5 3-9 5-12 10-7 9-9 10-16 8-10-2-11-7-3-20 6-9 6-13-1-27-6-13-9-15-24-20-4-1-8-2-10-3-3-1-6-2-9-2-4 0-10 2-10 4s-9 12-14 16c-5 3-6 4-8 10-2 9-3 22-1 26 2 3 2 18 1 28-1 4-2 12-3 18-1 7-2 16-3 21-3 9-4 14-10 35-2 8-2 9-1 11 2 2 9 5 13 5 1 0 6-2 10-4z"/></svg>