<svg xmlns="http://www.w3.org/2000/svg" width="1344" height="566"><path d="M0 283V0h1344v566H0V283m698 277c71 1 80 1 180 0h68c17 0 67-2 70-3 7-3 7-18 2-46-3-15-4-22-4-36-1-10-2-21-2-25-2-14-2-17 0-22 2-6 1-8-6-17-5-5-13-11-17-11-3 0-25-9-44-18-13-6-16-8-21-12-14-14-20-34-22-73-1-12-2-33-2-46-1-13-2-34-3-47-3-57-13-95-33-122-15-21-41-37-78-51-17-6-48-3-85 9-7 2-13 3-15 4-5 1-24 11-26 14-1 1-3 6-5 10-5 12-9 20-17 33-8 12-20 35-23 45-1 4-2 11-3 16-1 11-4 24-7 32-2 3-7 12-12 19-10 16-11 19-9 30 1 4 3 11 3 16 1 4 3 10 3 13 1 3 2 9 2 13 0 5 1 11 1 14 1 3 2 11 2 18 1 16 2 19 13 30 4 5 8 9 8 10 0 2-4 4-13 5-5 1-13 2-18 3-6 1-13 2-22 2-16 0-21 1-28 6-2 2-6 4-7 5-1 2-6 5-11 9-10 8-12 8-17 4-1-2-4-3-4-3-2 0-11 5-22 12-6 4-13 8-15 9-19 8-26 13-30 21-4 6-6 8-14 12l-7 3-19-1c-14-1-21-1-30 0-11 1-12 1-15 5-4 4-4 4-3 6s5 4 8 6c9 5 10 7 10 12-1 6-7 23-12 35-2 2-4 7-5 10-1 2-3 8-5 12s-4 10-6 14c-2 6-2 7 0 8 3 3 12 3 55 4 75 0 127 1 138 2 16 2 38 3 72 2h102z"/></svg>