<svg xmlns="http://www.w3.org/2000/svg" width="1344" height="566"><path d="M0 283V0h1344v566H0V283m762 280c4-1 14-2 22-2 7 0 19-1 27-1 17-2 70-1 101 0 32 2 69 0 73-3 5-3 3-14-5-41-9-32-9-31-7-94 1-41 1-49 1-84s0-39-1-44c-2-7-9-22-14-29-7-8-33-31-58-50-17-13-17-13-19-33-2-29-4-40-9-52-4-12-12-26-17-33-9-11-29-29-41-36-4-2-8-6-11-8-10-8-29-11-62-10-26 0-38 3-52 12-25 15-39 30-52 59-9 17-12 27-13 45-1 20-3 28-5 32-3 6-12 11-39 26-12 6-26 13-29 15-8 5-20 15-24 21-4 5-7 14-8 29-3 19-5 30-10 54-3 12-6 25-7 28 0 2-2 8-3 12-8 27-12 47-16 73-3 25-5 31-10 35-1 1-4 2-6 4-5 3-30 16-37 19-4 1-13 5-21 9-28 14-35 15-89 22-16 1-18 1-34-4-7-2-9-2-15-1h-17c-8 0-10 0-15-2-7-3-13-3-25 2-14 5-15 6-17 9-5 6 3 9 27 10 23 0 46 2 51 4 5 1 15 1 30-1 17-2 61-2 84-1 10 1 32 2 49 2 28 1 31 1 34 3 3 1 7 2 106 2 64 0 103 1 104 1 4 3 62 3 79 1z"/></svg>