<svg xmlns="http://www.w3.org/2000/svg" width="1344" height="566"><path d="M0 283V0h1344v566H0V283m1068 276c9-4 10-6 6-25-1-3-2-11-2-16 0-8 0-9 2-13 2-3 6-7 10-11 11-10 25-26 29-34 8-15 11-31 11-52 0-13 0-16-2-26-4-16-13-27-25-34l-7-3-10 1c-9 1-10 1-17 5-23 13-29 19-38 38-4 8-7 12-9 13-3 2-24-6-55-22-14-7-32-15-39-18-17-7-19-8-21-11-4-5 0-12 10-18 6-4 28-14 38-18 16-5 23-11 30-23 3-6 4-7 11-10 3-2 10-5 14-6 8-3 23-10 28-14 10-8 26-15 39-18 4 0 14-2 21-2 13-2 15-2 26-7 19-9 21-13 11-22-3-3-8-9-12-13-7-8-9-10-17-10-5-1-14-4-19-6-8-3-12-7-15-19-3-6-5-8-18-13-15-5-41-18-52-27-3-2-6-4-8-5-1 0-5-4-9-7-13-11-22-17-32-23-5-4-12-8-15-11-22-16-44-28-65-35-33-11-58-10-83 3-6 3-8 3-18 4-14 1-22 4-31 10s-19 17-25 26c-6 11-24 46-24 48s-9 23-12 29c-2 3-5 8-7 11-1 3-4 8-7 11-2 3-4 6-4 7s1 5 2 9 2 11 3 17 2 12 2 14c1 3 2 8 2 13 4 39 3 38 10 41 8 4 9 7 10 17 2 10 3 12 13 21s14 15 14 20c0 6-5 11-14 14-3 2-11 5-16 7-4 2-11 5-14 6-4 1-16 6-28 12-35 15-43 18-54 20-9 1-12 2-15 9-1 4-5 9-8 13-2 3-8 10-11 16-4 6-9 13-11 16s-6 11-9 17-6 15-9 20c-2 5-5 14-8 21-2 6-5 14-6 17-6 14-7 19-6 23 1 2 2 3 5 4 2 0 19 1 39 2 29 0 38 0 53-1 14-2 19-2 27-1 9 1 38 1 97 1h30c29-1 33-1 72 0 48 1 56 1 98 0 56-1 71-1 88 0 8 1 17 1 20 1 2 1 10 1 17 0 11 0 13 0 19-3z"/></svg>