<svg xmlns="http://www.w3.org/2000/svg" width="1344" height="566"><path d="M0 283V0h1344v566H0V283m1114 276c2-1 2-2 2-5-1-5-8-15-17-26-5-4-9-10-11-12-5-9-18-21-39-37-3-2-14-12-24-22-18-17-24-22-51-43-24-19-33-25-43-27-2-1-11-2-19-3-15-1-20-3-29-9-8-6-13-17-15-33-1-10 0-19 3-33 2-10 6-17 15-27 12-14 21-30 23-43 3-10 2-15 0-26l-2-10 2-19c4-25 4-44 1-56-5-19-14-35-26-44-15-13-38-26-53-29-11-3-34-6-44-6-23 0-56 10-75 23-9 5-21 17-26 24-4 6-8 18-11 26 0 3-1 11-2 18-1 17-4 41-8 66-7 43-7 49-3 76 5 27 8 35 17 59 6 16 11 24 17 29 7 5 11 9 11 11 0 3-4 5-19 14-41 22-52 29-76 48-6 5-15 11-20 15-4 4-11 9-14 11-8 7-8 7-21-1-13-9-33-19-47-24-29-11-48-20-82-39-39-22-68-42-73-52-2-4-2-6-2-25 0-21 0-22 3-35 3-15 7-24 13-31 6-8 11-16 18-30s14-33 14-40c0-3 1-8 1-12 5-27 5-61-1-82-3-11-9-26-16-35-5-7-23-23-33-29-14-9-24-15-28-16-9-5-45-7-67-5-17 2-25 4-37 9-18 6-24 10-33 19-11 11-17 20-24 36-3 8-8 18-11 23-12 22-18 36-24 58-3 14-3 16-4 35 0 23 1 53 4 65 1 8 9 32 12 38 1 2 6 9 11 16 6 10 11 19 17 32 4 10 8 19 8 20 0 4-34 37-51 49-3 2-13 8-21 14-9 5-24 14-33 19-9 6-23 14-30 18-18 11-24 15-33 22l-7 6v30c0 29 0 29 2 33 2 2 4 4 6 4 3 1 28 0 40 0 4-1 20-1 37 0 33 1 189 1 268 1 26-1 92-1 145-1 65-1 100-1 107-2 8-1 11-1 21 0 25 4 47 4 73 1 12-1 136-1 158 0 9 0 43 1 74 2s58 1 60 1c1 1 29 0 61 0 49 0 59 0 61-2z"/></svg>