<svg xmlns="http://www.w3.org/2000/svg" width="1344" height="566"><path d="M0 283V0h1344v566H0V283m664 278c3-1 22-1 52 0 61 1 93 1 99 0 8-2 9-3 9-14 0-10-3-47-4-56 0-4-1-11-2-15-1-5-1-10-2-10 0 0-1-5-1-11-5-28-12-42-33-61-3-4-8-8-10-9s-6-4-9-7c-3-2-7-5-9-6-4-1-12-6-22-13-4-3-9-6-13-9-25-16-30-21-41-38-5-7-12-21-12-24 0-1 1-5 3-9 8-21 11-31 12-37 10-40 9-39 16-49 3-5 4-8 2-17-2-6-4-33-3-38 0-2-1-11-2-20-4-35-6-40-19-53-12-13-23-20-41-25-14-5-15-5-29-2-18 3-28 7-51 19-10 5-13 7-15 9-1 2-6 9-11 16-15 20-18 25-20 37-1 8-3 31-3 43 0 3-1 4-4 7-8 7-9 13-7 25 1 3 2 9 2 13 1 4 2 9 3 11 3 5 12 14 17 17 6 4 9 15 13 36 2 19 0 33-7 40-3 3-14 6-28 10-7 2-15 4-19 5-30 9-57 27-70 47-5 7-18 34-18 37 0 0-1 4-3 7-2 4-4 10-4 13-3 8-6 19-6 20-1 1-2 4-3 7-3 12-6 18-10 25-2 3-4 10-5 14-3 14-5 22-7 28-1 2-2 6-2 8 0 1-1 5-2 8-3 9-3 17 0 20 2 2 2 2 57 1 13-1 237 1 237 2 1 0 18-1 25-2z"/></svg>