<svg xmlns="http://www.w3.org/2000/svg" width="1344" height="566"><path d="M0 283V0h1344v566H0V283m971 278c3-2 7-3 10-3 12-2 13-5 15-34 1-11 2-30 3-42 4-70 5-125 1-138 0-3-3-10-5-14-15-37-16-38-33-68-6-9-13-18-25-31-7-7-13-14-14-16s-2-7-3-11c0-4-2-8-2-9-1-1-4-2-8-2-11-2-16-4-21-15-2-4-2-6-2-12 0-8 3-27 5-33 1-3 5-17 8-31 2-13 1-26-3-40-6-19-12-28-23-34-11-7-18-8-32-8-9 0-13 0-22 2-23 6-33 10-43 19s-14 16-14 26c0 6-1 12-4 27-1 4-2 8-2 10s-2 14-5 25l-4 21 3 6c2 3 5 10 7 15 4 13 9 23 14 28 3 4 11 8 21 11 2 1 6 3 8 5 4 3 8 10 8 14 0 6-8 18-20 30-5 6-7 10-8 22-2 14-2 17-9 35-10 25-12 35-17 62-3 20-6 35-9 48-3 19-7 40-9 52-2 20-4 33-6 38 0 3-1 8-1 11s-1 11-2 17c-2 10-2 12 0 14 1 1 2 2 4 2s6 1 9 1c4 1 19 1 62 0 31-1 62-1 69-1 17-1 91 2 92 2 1 1 3 1 7-1m-489 0h47c23 0 31 0 32-1 4-3-6-11-19-15-8-3-11-5-15-12-4-9-4-30 1-43 4-8 6-17 6-25 0-7-3-25-4-28-1-1-1-4-1-6 0-3-1-7-2-10s-2-8-3-11c0-4-1-8-2-11-1-2-2-5-2-5 0-1-1-4-3-8-5-10-13-18-33-31-12-8-14-10-14-14 0-3 1-5 4-8 2-2 6-7 9-13 5-10 7-13 15-17 8-3 9-6 11-19 1-6 2-16 3-22 0-10 0-12-1-15-1-2-2-8-3-16-2-24-4-36-7-43-3-8-11-15-21-18-2 0-7-2-11-4-9-4-26-7-36-7-21 0-41 10-53 26-4 7-7 11-8 16-1 2-2 23-2 46-1 45-1 52-3 85-1 24-2 26-13 40-9 11-16 26-19 38l-4 16c-5 18-8 29-9 38-5 27-7 49-8 60-1 18 2 33 7 35 4 2 19 3 81 2h80z"/></svg>