<svg xmlns="http://www.w3.org/2000/svg" width="1344" height="566"><path d="M0 283V0h1344v566H0V283m758 251c5 0 12-1 19-2 6-1 16-3 21-3 16-1 46-7 64-13 6-2 15-4 20-6 5-1 11-3 13-4 8-2 24-3 43-2 21 0 21 0 22-6 2-14 2-29-2-48-1-6-2-14-3-18 0-5-1-13-2-18 0-5-1-12-1-16 0-9-2-14-5-16-2-1-9-4-17-6-40-10-45-12-45-16-1-1-1-7-1-13-1-11-2-15-9-19-5-4-6-7-3-13 2-3 2-4 1-7-1-1-3-7-5-12-2-4-6-14-9-20-2-7-6-16-7-20-5-18-19-57-28-78-3-7-7-18-10-24-6-17-14-31-25-43-15-15-25-21-50-30-18-7-24-7-41-7-15 0-16 0-30 3-25 7-35 11-49 21-9 6-16 13-23 22-9 13-16 30-21 48-2 10-2 13-2 34 0 23 1 46 3 87 1 25 1 31-3 35-2 3-21 16-30 20-5 3-14 12-16 17-1 2-3 5-4 8-1 5-6 10-8 10-1 0-4 1-8 3-8 4-9 4-13 0-1-1-4-2-5-2 0 0-5 2-11 6-5 3-14 7-21 9-16 6-18 7-24 13-9 11-12 13-18 15-5 2-9 3-14 3-7 0-7 0-11 4-7 6-20 38-20 50-1 4-1 10-1 13-1 5-1 6 1 10 1 2 3 5 3 6 2 3 16 3 31-1 4-1 10-3 14-4s9-1 18-1c8 0 17-1 22-1 4-1 10-1 14-2 7 0 18-2 22-4 3-2 16-2 20-1 1 1 7 2 11 3 7 1 12 2 18 5 20 10 28 11 71 11 17 0 35 0 40 1s19 2 31 3c28 2 39 4 47 12 5 4 8 5 13 4h13z"/></svg>