<svg xmlns="http://www.w3.org/2000/svg" width="1344" height="566"><path d="M0 283V0h1344v566H0V283m1000 279h40c25 1 51 0 56-2 4-1 5-14 3-24-1-5-2-8-11-54-3-14-7-31-9-38s-4-18-5-24c-5-26-17-64-24-75-8-14-14-20-24-25-11-6-41-19-52-23-5-2-15-5-22-8s-16-6-20-7c-17-6-29-15-55-43-22-25-22-24-20-46 1-20 2-23 9-35 7-13 9-19 12-32 2-12 1-25-2-38-1-5-3-16-5-24-7-31-12-49-16-54-2-3-6-5-14-5-11-2-202-2-216-1-16 1-19 2-22 6-5 5-6 12-7 30-1 25 1 42 10 82 1 5 3 17 4 26s2 18 3 20c3 6 19 30 29 42 5 6 11 13 14 15s7 6 9 8c5 6 11 18 12 23 0 5 0 5-5 10-2 3-6 6-8 7-1 1-8 7-15 13-12 12-23 20-39 28-11 6-37 22-45 28-2 1-5 4-7 5-6 5-5 10 1 25 3 6 6 16 8 22 3 9 3 11 3 19-1 5-2 13-6 23-6 19-8 28-9 38-1 5-2 14-3 19-1 8-1 11 0 21 0 7 1 15 1 18 0 9 2 12 9 16 4 1 11 5 17 7l10 4 66 1c36 1 74 1 85 1 81 0 207 0 216 1 7 0 16 1 22 0h22z"/></svg>