<svg xmlns="http://www.w3.org/2000/svg" width="1344" height="566"><path d="M0 283V0h1344v566H0V283m914 274c8-2 19-3 24-4s14-2 20-3c7-1 14-1 20 0 7 0 10 0 12-1s8-2 13-2c13-1 14-2 15-18 0-10 0-13-3-27-4-20-4-19-6-44 0-10-2-22-3-26-1-8-1-13 2-19l2-5-2-5c-3-7-11-14-17-18-3-1-9-3-14-5-5-1-12-3-16-5s-9-4-13-5c-3-1-8-2-9-3-3-3-3-3-3-9s-1-10-5-10c0 0-3-1-5-2s-5-2-6-2c-4 0-9-5-9-8 0-2 1-4 2-4 2-2 9-3 16-3 8 1 12 0 13-4 1-6-2-19-12-48-12-34-13-38-18-57-3-10-7-25-9-33-8-32-21-72-30-89s-22-32-41-44c-31-20-59-30-81-27-5 1-14 3-21 5s-18 5-25 6c-11 2-18 4-33 12-10 4-21 14-27 24-5 10-14 30-17 40-4 10-4 14-5 46 0 22 0 31-2 41-1 7-3 17-4 23 0 6-2 13-2 17-1 4-2 27-2 57-1 53-1 54-5 56h-48l-6 2c-5 3-13 8-27 18-11 8-20 11-29 9-3-1-11 2-20 8-5 4-12 8-20 11-16 6-17 7-27 17-13 13-19 15-40 13-12-1-20 0-27 3-5 3-5 5 0 8 5 2 11 9 11 12 0 2 0 4-1 6 0 1-1 6-2 11s-3 12-5 17c-1 5-3 11-4 14s-1 7-2 8c0 2 1 3 2 6 2 2 3 4 3 9l1 6-4 2c-5 2-5 5-1 8 5 5 9 5 26 5 9-1 17-2 19-3 3-1 25-2 27-1 1 1 24 0 35-2 4-1 9-2 13-3 3-1 8-2 11-2 3-1 8-2 10-3 5-1 19-1 22 1 4 2 32 9 41 11 5 0 16 2 24 3 9 0 18 1 21 2 3 0 8 0 13-2 6-1 12-1 41-1 39 0 60 1 74 5 4 2 12 3 18 4s14 2 19 3c6 1 22 1 64 1 56-1 58-1 74-3z"/></svg>