<svg xmlns="http://www.w3.org/2000/svg" width="1344" height="566"><path d="M0 283V0h1344v566H0V283m741 275c3-1 11-1 17 0h37c15 1 40 1 57 2 36 0 39 0 42-6 0-1 1-5 1-7 0-5 0-7 5-24 5-14 5-21 3-46-1-8-2-21-2-29-1-14-4-37-8-55 0-4-1-12-2-19 0-6-2-14-2-19-1-5-3-18-5-31-4-30-7-45-9-50-2-7-9-13-25-23-16-9-24-15-34-23-4-4-10-9-14-11-8-6-8-8-8-16 1-7 4-12 11-20s8-13 8-33c1-20-1-28-6-38-6-13-17-22-33-27-5-2-9-2-21-2-23-1-36 4-48 16-10 10-12 18-10 53 1 9 1 14 0 16 0 1-4 3-8 6-8 5-16 11-18 16-2 4-4 12-7 30-2 13-5 20-11 27-3 2-6 7-8 11-6 12-13 26-19 34-18 27-18 29-26 47-5 12-7 18-7 25 0 17 8 30 22 35 5 2 8 2 16 2 10-1 11-1 19-5 9-4 11-5 12-3 1 3-6 49-9 59-3 11-7 28-8 36-2 6-3 10-5 14-5 6-6 12-6 30-1 8-1 16-2 17 0 4 1 7 4 9 3 1 7 2 29 2 14 0 25 1 25 1 1 1 46 0 53-1z"/></svg>