<svg xmlns="http://www.w3.org/2000/svg" width="1344" height="566"><path d="M0 283V0h1344v566H0V283m440 277c50 0 110 0 132-1h126c91 0 173 0 230 1h152c90 1 118 1 124-2 4-2 5-6 3-12-1-2-3-8-4-12-6-15-10-33-16-58-4-19-8-24-28-27-5-1-11-3-13-3-3-2-9-11-12-18 0-3-4-12-7-19-9-25-12-31-16-45-3-8-8-25-12-38-5-12-10-31-14-42-18-62-23-75-35-80-6-3-11-1-15 7-4 7-8 3-24-25-5-10-10-15-16-18-6-2-7-2-14 2-3 2-6 3-7 3s-5-2-8-5c-7-7-12-9-18-7-5 2-7 6-8 17 0 9-1 11-5 9-5-3-11 0-14 7s-1 34 5 54c2 9 7 25 9 29 5 10 9 23 12 45 2 14 18 39 52 82 18 24 28 38 33 46 8 14 19 38 25 56 8 22 7 24-4 22-5-1-11-4-29-16-3-2-9-5-14-7-18-9-26-14-33-25-3-6-10-20-10-21 0-2-11-21-14-25-6-6-26-23-36-31-5-4-13-9-18-11-9-5-10-5-21-6-10 0-40 2-63 4-14 1-33 1-36 0-5-2-6-4-7-13-1-15 6-63 12-74 7-13 10-31 10-43-1-17-14-60-28-90-7-17-32-63-38-72-8-11-28-31-41-40-29-19-61-29-89-29-18 0-58 5-75 10s-41 16-51 24c-15 13-28 29-40 53-11 22-16 41-16 58 0 9 0 10 3 17 5 12 6 19 6 33 0 8 0 18-1 23-1 12 0 19 4 29 7 15 9 22 10 37 1 16 3 23 8 35 8 15 18 26 38 41 11 9 13 12 13 24-1 10-3 17-10 28-8 11-22 25-33 32-4 2-27 11-31 12-6 2-7-1-9-15-2-34-13-62-25-65-5-1-11 3-15 10s-5 16-5 43c0 21-1 24-2 26-2 1-2 1-4 0-3-3-7-16-11-36-5-18-7-32-11-68-5-39-7-49-14-55s-14-3-16 7c-1 9-3 28-3 39 0 14-2 39-3 40-2 2-4-1-6-7-1-5-4-15-17-46-11-26-16-34-23-37-7-4-13-4-16 0-4 5-4 5 10 61 2 6 4 15 5 20s3 13 4 18c4 19 5 23 3 24-1 1-1 1-3 0-4-4-18-30-31-57-8-19-14-25-23-25-3 0-5 1-7 3-3 2-3 4-3 9 0 3 1 8 2 11 3 12 17 54 21 63 5 12 6 17 4 18-3 0-4 0-18-16-10-11-14-14-19-17-8-4-14-4-17 0-2 3-1 12 2 20 4 10 17 29 32 47 12 14 25 31 30 38 4 6 14 17 18 20 2 1 5 3 8 3 2 1 23 1 45 0 23 0 83 0 134-1z"/></svg>