<svg xmlns="http://www.w3.org/2000/svg" width="1344" height="566"><path d="M0 283V0h1344v566H0V283m995 277c31-1 35-2 35-9 0-6-6-23-15-40-13-28-29-67-31-77 0-3-2-7-3-10-6-8-12-18-19-34-4-8-9-19-11-22-3-4-6-10-7-12-1-3-4-10-7-14-6-14-9-29-5-34 0-1 4-4 8-7 8-5 10-7 15-15 7-10 8-15 13-54 0-8 2-18 3-24 3-17 4-31 1-49-1-9-3-17-3-19-1-3-2-6-2-8-2-6-9-25-14-34-7-13-12-20-24-31-25-25-41-33-75-38-22-4-31-3-50 1-5 1-13 2-18 3-11 0-25 3-38 8-13 3-43 18-51 24-7 5-13 13-20 27-12 23-14 33-14 68 0 28 1 44 4 56 1 5 3 12 4 16 1 5 3 16 4 25 3 28 5 33 14 65 8 24 14 43 18 50 10 19 22 26 45 28 6 1 12 1 13 2 6 3 19 25 19 31 0 5-1 7-15 21-7 7-15 15-17 18-4 6-13 16-26 31-4 4-10 11-12 15-7 11-14 27-15 32 0 4 0 5 2 7s4 2 23 2c10 1 23 1 26 2 9 1 217 0 245-1z"/></svg>