<svg xmlns="http://www.w3.org/2000/svg" width="1344" height="566"><path d="M0 283V0h1344v566H0V283m721 279c25-1 50-1 55-2 6-1 15-1 29 0 23 1 82 2 126 2h29l4-4c4-3 5-7 7-11 2-9 2-11 0-21-3-13-3-14-7-83-1-22-4-44-7-51-2-6-6-24-6-27l-4-10c-3-6-5-9-10-13-7-6-16-11-19-11-1 0-4-1-6-2-5-2-9-4-17-7-6-2-12-7-18-15-2-2-6-6-8-7-12-8-19-17-23-32-1-6-3-11-9-19-2-4-3-13-2-17 2-4 13-15 18-20 5-3 6-9 7-28 0-27-3-55-8-71-8-25-24-43-48-55-21-10-36-12-60-9-8 1-18 2-22 3-24 2-47 18-57 39-7 13-9 24-9 39 0 9 0 14 4 31 2 11 4 25 5 29 0 9 0 10-2 12-1 2-6 5-10 7-5 2-10 5-13 7-18 15-20 17-23 23-6 10-15 31-16 37-3 9-6 25-7 32-2 12-5 19-18 34-6 5-11 14-11 17s-6 14-11 22c-6 8-8 13-13 25-6 17-10 25-19 33-4 5-9 11-11 13-4 7-18 34-22 44-2 5-5 13-7 18-5 15-9 37-6 42 2 5 9 5 76 5 33 0 63 0 65 1 6 1 51 1 104 0z"/></svg>