<svg xmlns="http://www.w3.org/2000/svg" width="1344" height="566"><path d="M0 283V0h1344v566H0V283m912 277h66c15 0 24-1 29-3 7-4 16-13 23-24 10-17 14-33 11-46-2-11-5-12-15-5-8 6-9 5-20-2-4-3-8-5-10-6-3 0-7 2-11 5-1 1-4 3-7 5-6 2-8 5-9 11-1 5-1 5-9 7-3 1-7 2-9 3-3 2-5 2-9 2-7 0-22-4-29-7-11-6-45-10-72-8-13 1-20 2-32 5-9 2-16 3-17 3-5-2-8-5-18-23-5-10-12-22-15-27s-9-15-13-22-9-17-13-22c-18-33-26-47-27-50-1-6 5-18 12-21 2-1 8-5 12-9 15-14 24-22 28-25 6-4 10-9 12-13 0-2 2-10 4-18 2-14 2-15 14-40 14-32 24-51 32-65 7-11 10-20 9-22 0-1-3-4-6-7-8-7-16-17-23-29-8-11-16-20-29-31-13-10-22-15-37-22-19-8-27-12-39-14-18-4-44-1-61 6s-34 19-48 33c-6 7-17 25-26 44-12 24-19 34-31 40-4 2-16 6-27 10-11 3-23 7-25 8-6 3-29 27-34 35-2 4-5 10-7 18-2 7-5 17-6 22-3 6-3 10-3 16-1 10 0 10 16 24 13 11 15 14 15 18 0 2-8 18-17 33-8 13-14 26-22 50-3 6-7 17-10 24-6 15-9 24-8 32 2 11 3 20 5 29 2 8 2 11 2 35s-1 27-2 29c-2 1-2 1-6 0-4-2-11-8-29-22-6-5-14-11-17-14-4-2-10-6-14-9s-11-7-15-9c-15-6-17-7-37-28l-20-20v-4c0-3 1-8 2-12 8-23 12-38 13-44 0-7-2-31-4-40s-4-13-10-19c-3-2-7-6-8-8-3-5-2-8 1-19s2-37-2-44c-1-4-7-7-11-7-5 0-16 12-23 25-5 10-7 17-7 28 0 5 0 6-3 8s-7 4-19 5c-8 2-10 2-14 6-16 11-24 31-26 58-1 12-7 45-9 50-1 4-12 15-16 16h-9c-6-1-9 0-12 1-5 1-5 1-16-2-18-5-24-5-33-4-10 2-15 5-21 10-4 4-4 5-4 11 0 7 2 11 8 16 3 2 5 5 7 9 2 5 2 6 2 17-1 12-1 14 6 22 2 2 4 5 4 5 0 1 3 2 6 4 6 3 8 3 16 4 5 0 12 1 17 2s12 2 17 2c8 0 10 0 18 4 11 4 23 6 45 9 10 1 21 2 23 2 9 2 182 3 192 2 9-1 11-1 17 1 7 2 12 2 120 1h117c16 0 200 1 204 1h56z"/></svg>