<svg xmlns="http://www.w3.org/2000/svg" width="1344" height="566"><path d="M0 283V0h1344v566H0V283m765 198c13-4 21-6 39-10 6-1 17-4 32-8 4-1 13-3 20-5 11-2 12-2 30-1 27 1 27 1 29-2 3-3 4-12 2-22-4-25-5-36-6-61 0-21-1-26-2-29-3-4-12-12-18-14-3-1-7-3-9-3-2-2-5-2-10-2-6 0-8 0-12-2-5-2-6-3-8-9-1-3-4-8-6-10s-4-5-4-5c0-1 1-3 3-5l2-4-2-22c-6-44-12-83-20-112-6-22-10-32-21-55-9-18-14-24-28-34-11-9-35-21-45-24-5-1-11-1-18-1-12 0-17 1-26 7-5 3-6 3-16 4-9 1-12 1-17 4-20 9-37 37-45 71 0 4-2 9-2 13-6 21-8 38-9 67s0 53 5 85c1 10 1 12 0 13-2 3-12 2-27 0-15-3-24-3-29 0-2 1-9 7-15 14-14 15-33 30-50 41-8 5-18 11-22 15-10 8-15 10-24 10s-14 2-16 7c-1 2-4 10-8 18-8 18-11 25-15 38-2 5-5 13-7 17s-3 8-3 9c1 2 2 2 8 2 7 0 8 0 23-6 11-4 25-8 33-9 3 0 8-1 12-2 6-1 7-1 15 1 8 1 10 1 18 0 5-1 13-2 18-3 12-3 20-2 31 2 5 2 10 4 13 5 2 0 7 1 12 2s14 2 21 3c6 1 16 1 22 2 8 1 11 1 17 0 21-4 76 0 87 7 3 2 6 3 15 3 21 1 30 1 33 0z"/></svg>