<svg xmlns="http://www.w3.org/2000/svg" width="1344" height="566"><path d="M0 283V0h1344v566H0V283m935 277c9-4 14-7 20-14 6-8 14-24 14-29 0-7-8-18-20-31-18-17-27-27-33-37-3-5-9-12-12-16-12-12-30-24-48-32-12-5-20-10-22-14-2-2-3-6-3-14-1-13-3-20-9-26-4-5-8-6-18-6-10 1-14 2-19 6s-6 7-8 21c-2 19 1 32 13 45 3 4 6 7 6 10 1 2 1 18 0 36v33l4 6c2 3 4 6 6 6 2 1 2 1 5-1 3-4 6-4 14 0 13 7 14 19 1 22-2 1-5 2-6 3-5 3-7 2-10-2-1-2-3-4-4-4s-3 2-5 5c-3 2-9 8-13 13l-9 9 5 5 6 6 22 1c13 1 26 1 30 0 3 0 16 0 28 1h40c16 0 18 0 25-2z"/></svg>