<svg xmlns="http://www.w3.org/2000/svg" width="1344" height="566"><path d="M0 283V0h1344v566H0V283m558 277c6-1 17-1 23-1 17 1 39 0 57 0 10-1 29-1 44-1 27-1 32-2 34-5 1-1 2-12 2-25 3-33 5-52 6-54 1-1 7-1 12 0 8 2 36 3 48 2 38-3 76-8 83-9 3-1 8-2 11-3 15-1 43-11 60-20 13-7 32-29 32-37 0-6-4-15-11-27-18-30-36-49-57-58-16-7-22-12-29-22-8-11-16-16-30-17-10-1-12-2-22-8-5-3-10-5-12-6s-6-3-9-5c-4-3-5-3-9-2-8 1-13 0-18-3-3-1-8-4-12-6-26-15-34-20-38-22-5-3-6-5-6-19 0-19-8-61-15-77-5-13-14-24-25-32-16-13-26-17-54-23-30-7-40-7-63-1-14 3-18 5-42 21-4 3-15 13-19 18-1 1-4 7-7 12s-9 15-13 21c-11 18-10 17-17 40-4 13-5 14-13 20-2 2-10 8-17 13-13 9-17 12-29 15-4 1-18 10-29 18-12 9-20 13-36 20-19 8-24 10-30 16-6 5-16 19-21 30-3 7-3 8-4 22-1 16-1 25 2 39 2 8 3 10 7 18 3 4 8 11 10 16 2 4 4 9 6 10 1 2 2 5 2 12 2 12 5 26 7 29 1 1 4 2 6 3 5 1 9 4 12 11 3 5 3 6 3 17 0 7-1 19-2 28-3 18-2 26 1 29 2 2 3 3 56 3 30 0 71 0 91 1 40 1 56 1 74-1z"/></svg>