<svg xmlns="http://www.w3.org/2000/svg" width="1344" height="566"><path d="M0 283V0h1344v566H0V283m774 279c37-2 153-3 188-2 34 1 101 0 134-2 21-1 24-2 24-10 0-4-5-20-12-36-9-22-12-29-15-38-5-12-12-24-21-34-8-8-10-11-28-40-14-22-18-30-22-39-4-12-2-18 4-19 10-2 19-5 26-7 4-2 10-3 15-4 7 0 8-1 11-4 4-4 6-10 8-21s1-16-5-30c-5-11-7-19-9-36-3-13-5-20-12-27-10-9-29-21-56-34-25-12-30-16-35-24-1-2-5-12-8-22-8-24-24-59-33-71-16-22-27-32-46-42-16-9-25-11-40-13-32-3-80-3-93 0-8 1-25 7-34 12-14 7-36 27-49 45-3 4-10 19-17 34-6 12-12 20-25 33-14 14-15 16-12 28 2 9 6 19 14 37 4 7 8 17 10 22 5 13 10 21 14 24 3 2 24 23 29 30 2 2 4 6 5 8 2 4 6 19 6 28 2 22 5 28 18 35 3 2 14 12 25 23 18 18 20 20 22 25 1 6 1 6 0 12-3 8-16 37-19 41-1 2-5 7-9 11-4 3-8 9-10 13-4 7-11 28-14 41-1 5-4 16-6 24-5 21-6 22-3 25 2 3 3 3 24 4 30 1 35 1 56 0z"/></svg>