<svg xmlns="http://www.w3.org/2000/svg" width="1344" height="566"><path d="M0 283V0h1344v566H0V283m762 276c32-1 48-2 50-3s7-6 9-10c5-10 14-40 20-64 1-4 3-9 4-10s1-1 3 1c2 1 5 7 8 12 3 6 8 12 16 21 14 16 18 20 36 28 6 3 13 7 16 9 8 5 21 7 44 7 13-1 20-1 24-3 9-2 12-1 14 3 2 5 5 6 25 7 16 1 17 1 28-1 5-1 14-3 18-3 4-1 8-1 9-2 3-2 6-9 6-13 0-9-13-26-27-35-11-7-15-13-18-22-6-25-9-28-20-37-8-6-14-10-29-16-11-4-13-6-28-19-5-4-12-9-15-11s-9-6-13-8c-3-3-8-7-11-10-2-2-8-9-12-14-5-5-11-12-13-15-4-6-4-7-4-12 0-9-2-16-8-29-3-7-7-15-7-18-1-3-3-9-5-14l-2-8v-49c-1-64-2-82-10-107-7-24-15-35-30-42-21-10-38-14-60-13-12 0-15 0-26 3-23 6-31 11-42 26-9 11-17 32-24 58-2 6-4 13-5 17-2 6-6 22-9 32-6 25-12 43-23 64-4 8-9 17-11 20-5 8-23 28-35 39-13 12-21 21-51 62-26 34-42 58-48 69-1 4-5 13-7 20-10 28-15 53-15 69 0 8 0 10 2 13 3 4 9 7 20 8 12 1 200 1 256 0z"/></svg>