<svg xmlns="http://www.w3.org/2000/svg" width="1344" height="566"><path d="M0 283V0h1344v566H0V283m500 277c4-5 4-14-2-30 0-2-2-7-2-9-2-9-8-31-11-39-8-19-15-27-40-43-9-6-17-11-19-12-4-3-7-6-8-10 0-3 0-4 4-9 3-3 7-9 10-16 8-15 14-22 28-28 18-8 18-9 17-34 0-12 0-20 1-25l1-8-5-12c-6-12-9-22-11-33-3-21-10-36-19-46-5-6-7-7-14-10-8-3-28-7-44-9-21-3-45 5-64 19-21 18-27 32-29 78-1 14-2 38-2 55-1 17-2 44-3 61 0 37-2 46-10 62-6 12-12 30-13 38 0 7-2 17-6 32-3 12-4 24-2 26s11 3 57 3h43s32 1 70 1h71l2-2m375-2c34-1 65-1 123 0 78 1 96 1 101-2 7-3 9-12 14-73 5-53 2-71-18-109-9-18-17-32-33-53-13-17-21-26-41-43-12-11-14-14-17-24-2-9-3-12-5-13-1 0-5-1-10-2-13-1-15-3-22-21-3-9-3-11-3-17 1-3 2-9 3-12 1-4 3-10 4-15 4-19 7-29 9-36 5-13 10-32 11-38 0-6 0-11-3-23-4-21-10-36-18-44-5-6-23-14-34-16-4-1-11-3-15-4-9-1-16-1-34 2-11 2-16 3-31 8-13 5-21 10-34 23-8 7-9 10-9 26-1 13-1 16-4 24-3 10-5 17-6 26-1 13-2 20-5 28-2 4-4 11-5 14-2 8-2 12 3 21 2 4 5 11 7 17 3 12 9 28 12 34s8 9 16 12c4 1 7 2 8 2s5 2 9 3c11 6 21 19 20 26-1 2-4 5-8 9-3 3-9 8-12 12-3 3-9 9-13 12-9 9-12 17-14 27 0 7-4 19-7 26-1 1-5 10-9 20-6 17-9 23-14 41-1 4-3 9-4 11 0 2-3 11-5 21-2 9-5 20-6 24s-3 13-4 20c-2 8-4 18-5 24-1 7-2 15-3 20 0 11 0 12 10 13 9 1 48 0 101-1z"/></svg>