<svg xmlns="http://www.w3.org/2000/svg" width="1344" height="566"><path d="M0 283V0h1344v566H0V283m576 278h470c19 1 39 1 45 0 10-1 10-1 13-4s3-4 3-8c-1-2-2-6-3-9-1-2-3-8-4-13-3-10-6-17-14-28-3-5-6-11-7-15-3-10-7-13-29-22-6-2-20-8-31-14-23-11-25-12-25-20 0-5 6-33 10-44 4-10 9-32 10-44 2-16 1-69-2-98-1-13-2-24-3-25 0-2-1-8-1-15-6-51-12-78-23-104-6-16-18-34-30-46-5-6-22-18-31-24-8-4-32-14-38-16-7-2-21-2-28 0-5 2-14 2-24 3-19 1-23 2-37 10-23 13-44 30-55 47s-21 41-27 66c-2 5-4 12-5 16-1 3-4 13-6 23s-5 22-6 29c-4 16-9 43-11 63-5 48-7 61-10 69-1 5-3 13-4 18-3 14-6 20-11 25-7 6-19 12-32 15-10 3-23 9-30 13-3 2-9 5-14 7-4 3-15 7-23 11-19 8-33 14-47 19-2 1-6 2-8 3-5 2-7 5-7 12 0 17-3 29-13 51-11 24-15 35-15 41 0 4 4 7 10 7 9 2 34 3 38 2 2 0 27 0 55-1z"/></svg>