<svg xmlns="http://www.w3.org/2000/svg" width="1344" height="566"><path d="M0 283V0h1344v566H0V283m878 278c7 0 14-1 15-2 3 0 3-4 1-9-3-10-2-13 5-15 2 0 4-1 6-3s3-3 3-8c1-5 3-13 4-18 0-1 4-5 7-9 14-14 18-22 19-37 0-8 0-11-2-16-7-22-18-37-48-70-6-6-12-14-14-18-6-9-6-15-2-43 2-17 2-27 2-39 0-15 0-17-2-26-9-26-24-54-39-69-13-12-23-16-53-22-11-2-14-2-32-2-15 1-22 1-32 3-13 3-13 3-50 21-8 4-24 15-28 18-1 2-3 5-5 7-2 5-2 7-2 21-1 15-1 16-5 31-3 8-6 18-7 23-3 21-6 34-9 44-2 6-4 15-6 21l-2 11 1 11c3 18 2 30-3 40-1 2-6 9-11 14s-11 12-12 15c-3 5-6 17-7 25-1 3-2 10-3 15-1 8-1 12 0 30 1 12 1 28 1 36v15l2 2c2 1 5 2 9 3 18 2 275 2 299 0z"/></svg>