<svg xmlns="http://www.w3.org/2000/svg" width="1344" height="566"><path d="M0 283V0h1344v566H0V283m666 278c16-1 18-1 23-3 6-3 9-6 12-14 2-3 4-8 6-11 5-7 6-12 6-26 0-11 0-12-4-25-8-21-9-25-15-37-5-11-5-11-5-21 0-9 0-10-3-12-3-3-14-8-32-15-6-2-15-6-20-8s-15-6-22-9c-17-6-33-13-37-16-5-3-5-7-4-19 1-5 3-14 4-21 2-6 4-13 5-16 0-2 2-9 3-14 5-18 7-42 5-65-1-9-2-21-3-27 0-12-1-15-3-34-2-11-3-14-8-38-9-40-25-68-51-89-7-6-26-16-35-19-19-6-41-7-53-2-3 1-11 4-18 6-14 3-33 12-43 19-10 8-21 20-25 28-18 33-30 92-37 170-3 40-3 70-1 89 2 15 2 31 1 36-2 9-19 22-34 26-21 7-23 8-46 25-9 7-24 18-34 24-21 14-22 15-22 26 0 7-1 12-6 25-2 5-4 13-5 22-1 8-3 19-4 24-2 13-1 17 2 19s4 2 63 1c33-1 62-1 64-1 4 0 145 1 155 1h83c36 1 93 1 106 1h32z"/></svg>