<svg xmlns="http://www.w3.org/2000/svg" width="1344" height="566"><path d="M0 283V0h1344v566H0V283m737 165c5 0 11-1 15-1 3 0 7-1 9-1 1-1 5-2 9-3 9-2 18-4 23-5 2-1 6-2 8-2 2-1 8-3 14-5 6-1 13-3 15-4 2 0 7-1 10-2 9-2 22-2 33 0 16 2 22 2 24 1 1-1 1-3 1-13-1-6-2-18-4-25-1-8-2-22-3-32s-2-21-3-24c-2-7-7-12-21-17-11-5-12-6-14-19 0-6-1-16 0-22v-19c0-7-3-32-3-35-1-1-2-8-4-16-4-25-5-30-7-39-1-5-3-12-4-17-10-44-20-65-37-82-12-11-37-26-51-31-9-3-22-3-35 1-6 1-15 3-20 4-12 2-16 3-23 7-16 8-31 30-37 55-2 8-6 34-8 48 0 4-1 8-1 10-2 8-4 45-5 76v35c-1 2-8 5-14 7-3 0-9 2-14 4-9 2-14 2-29 3-17 1-18 1-23 4-6 3-24 20-30 29-4 7-11 13-18 17-9 5-19 12-25 17-8 8-15 10-24 11-8 0-10 0-13 4-2 2-17 31-21 41s-11 29-11 32c0 5 8 6 23 0 5-1 13-3 18-4 4-1 10-2 14-2 9-2 23-4 31-3 5 0 11-1 20-3 17-3 28-3 36 0 4 1 12 3 19 5 28 6 34 7 93 6 28 0 29 0 41 2 8 2 14 4 17 6 5 3 7 3 13 3 4 0 11-1 16-2z"/></svg>