<svg xmlns="http://www.w3.org/2000/svg" width="1344" height="566"><path d="M0 283V0h1344v566H0V283m1241 279c19 0 40 0 48-1s20-1 31-1l17 1 3-2 2-3V319c0-236 0-237-2-244-3-11-9-19-19-24s-25-10-32-11c-5-1-19-1-35-1-35 1-37 1-38 13-1 17-3 38-3 39-1 0 0 10 0 23 1 34 5 59 12 77 3 9 9 22 12 24 2 2 16 7 20 7 2 0 4 1 6 2 3 3 3 12 0 17-4 6-13 16-22 26-8 7-10 10-14 17-2 5-4 9-4 10s-1 5-3 9c-2 3-4 11-5 16-2 10-5 19-9 34-4 13-7 34-8 65-3 41-4 47-14 60-8 10-18 18-28 23-4 2-5 2-9 1-2-1-7-2-9-3s-9-3-14-4c-4-2-10-4-12-4-9-3-14-3-16 1s0 7 7 14c4 4 6 6 6 8 0 4-5 9-15 17-8 6-9 8-9 10 0 3 5 8 9 8 2 1 4 2 6 5 4 6 6 7 24 8 8 0 20 1 26 1 7 0 23 1 35 0 12 0 38 0 56-1m-326-2c21-1 27-2 30-6 2-2 2-3 0-20-2-21-1-52 1-64 1-5 2-14 3-20 1-7 2-19 4-27 4-28 9-77 8-95-1-15-4-22-20-60-2-4-5-11-6-15-7-20-17-39-27-51-5-6-7-11-9-22 0-7-3-10-9-11-8-1-9-1-13-5-4-3-6-6-8-12-3-7-3-8-4-22 0-11 0-16 2-27 1-7 2-20 3-27 0-14 0-15-2-22-5-14-10-21-23-30-7-7-13-9-23-12-9-2-11-2-24 0-10 1-19 4-33 11-9 4-21 15-25 22-2 5-2 6-2 19 0 11 0 16-2 23-2 6-2 11-2 20 0 6 0 13-1 16-3 12-3 12 1 17 2 3 6 10 9 14 5 11 11 20 15 24 3 3 9 7 16 9 6 2 15 7 16 9 1 1 2 3 2 4 0 3-5 10-13 19-7 8-10 15-11 25s-5 21-10 36c-3 6-6 15-8 20-2 4-3 11-4 16-1 4-2 11-3 15s-3 12-4 17c-2 11-5 23-8 32-3 11-6 24-8 36-4 19-8 34-11 45-1 5-3 14-4 19-9 41-12 58-13 70 0 6 0 8 1 9 3 2 25 2 34 0 8-1 63-1 88 0 45 3 52 3 97 1m-417 0c4-1 12-1 16-2 15-1 20-4 24-14 4-8 4-14-1-19-2-3-6-9-10-13-3-5-8-10-10-12-2-1-6-4-8-6-3-3-6-6-8-7-4-3-5-7-5-17 0-8 3-23 8-35 3-9 3-11 3-22 0-12-1-19-5-31-1-5-2-10-3-12-1-6-5-17-10-26s-13-17-26-26c-8-5-12-9-12-12 0-1 1-4 3-6s5-8 7-12c6-12 7-14 14-17 3-2 6-4 7-6 2-3 4-13 5-29 1-10 1-13 0-17-1-3-2-12-3-21 0-9-1-19-2-22-1-8-6-18-9-21-4-3-23-11-35-14-19-6-39-3-55 5s-22 26-24 65c-1 11-1 26-2 33s-1 23-2 35c0 36 0 36-12 59-7 14-10 22-11 26 0 3-1 7-2 8-5 12-6 20-7 37-1 13-2 22-4 33-4 18-5 31-3 47 3 15 5 22 12 41 7 17 9 21 15 21 1 0 7 2 13 4 20 6 15 6 77 6 31 0 60-1 65-1z"/></svg>