<svg xmlns="http://www.w3.org/2000/svg" width="1344" height="566"><path d="M0 283V0h1344v566H0V283m1074 274c1-1 2-2 2-3 0-2-3-12-12-34-7-20-10-31-10-36s3-11 8-15c3-3 3-3 11-3 4 1 11 2 15 3 12 3 20 4 34 4 16 0 32-2 38-5 9-4 16-15 20-31 1-5 1-7-1-13 0-3-3-10-4-14-3-7-5-9-18-22-8-9-16-18-19-20-7-9-28-38-37-52s-17-23-21-26c-5-2-11-3-29-4-14-1-18-1-22-3-6-3-9-6-11-10-1-4-4-29-5-59-1-32-3-42-10-64-4-13-10-23-18-32-5-4-10-9-13-11-13-8-42-10-60-4-9 3-13 5-20 11-19 14-32 40-34 68 0 13-2 24-4 27-2 4-14 11-21 12-5 0-8 0-47-6-16-3-23-6-37-13-13-8-30-14-36-14-2 0-6-1-9-3-4-2-8-3-12-3-11-1-18-4-22-8-6-7-18-10-37-10-16 0-19 1-21 10 0 5 2 12 6 16 5 4 15 10 25 13s12 4 14 9c1 3 2 5 5 6s8 4 12 7c3 3 10 7 15 10s14 11 20 16c26 23 27 23 63 34 8 3 11 6 10 10 0 5-6 16-18 37-12 22-17 34-19 42s-7 26-8 31c0 2-1 7-3 11-1 5-3 11-4 15 0 4-3 16-7 28-3 11-6 25-8 31-2 9-6 23-11 38-2 3-3 10-4 15-1 8-1 9 0 11 1 1 4 2 5 2 2 1 40 1 85 1 94 0 84 1 89-10 4-10 8-11 20 0l7 6 16 2c36 2 47 3 78 3 17 0 35 1 38 1 4 0 14 1 21 0 11 0 14 0 15-2z"/></svg>