<svg xmlns="http://www.w3.org/2000/svg" width="1344" height="566"><path d="M0 283V0h1344v566H0V283m386 278c16-3 76-4 151-2h42c11-1 60-2 83 0 13 0 33 1 61 0 61-1 156-1 174 1 12 2 17 2 28 1 22-2 25-3 29-10 4-6 5-9 7-25 3-20 3-20 1-30-7-21-12-30-26-45-4-5-10-12-13-16-2-4-7-11-11-15-18-18-29-32-38-47-3-5-10-15-17-23-8-10-13-17-14-21-1-3-4-8-6-12l-5-10c-2-5-1-16 2-31 2-13 3-19 1-22-1-1-3-4-6-5-7-5-9-9-11-21-1-5-2-11-2-14-1-4-7-12-13-20-7-8-10-12-21-31s-13-20-22-20c-8 0-14-2-17-6-1-1-4-3-6-4-3-2-4-2-8-1-3 1-11 3-19 6-21 8-25 9-37 11-6 1-15 4-20 6s-10 3-11 3c-3-1-4-6-5-21-3-49-13-77-32-95-16-14-40-23-68-26-15-1-25 0-42 5-29 8-46 18-62 37-9 12-12 16-15 28-4 12-5 33-3 49 2 14 2 19 0 26-5 14-4 21 7 42 7 15 8 16 23 28 7 6 11 13 16 25 3 10 3 13 3 21s0 10-2 16c-4 8-10 17-19 26-4 3-10 10-15 14-4 4-12 11-18 15-14 10-13 9-23 18-5 4-11 8-13 9-5 2-16 8-23 14-3 3-11 8-17 11s-13 7-15 9c-4 4-4 6-7 30-1 11-1 55 1 61 1 2 1 14 2 28 0 27 0 28 5 31 2 1 10 2 28 2 13 0 26 1 27 1s6-1 11-1z"/></svg>