<svg xmlns="http://www.w3.org/2000/svg" width="1344" height="566"><path d="M0 283V0h1344v566H0V283m1035 274c2-1 2-2 1-4-2-4-20-20-35-31-41-30-45-33-80-50-26-13-28-14-35-21-11-11-11-15-4-28 6-13 12-22 26-39 12-15 17-22 39-53 8-12 13-18 19-23 9-8 15-14 24-24 9-11 19-33 22-49 1-6 1-6-2-13-4-9-4-14 1-35 10-43 11-49 14-66 4-21 2-48-4-66-4-9-6-13-17-23-11-11-21-18-28-22-11-5-16-5-106-6-110 0-122 0-129 9-7 7-14 21-24 51-6 18-8 26-13 53-3 17-5 20-16 23-21 6-28 19-26 47 2 21 8 36 20 52 10 11 10 13 10 22-1 12-8 47-13 62-4 16-14 34-22 42-3 2-3 2-21 2-11 0-21 0-24-1-13-3-15-3-21 2-2 2-11 10-18 18-25 28-32 33-61 44-6 3-19 9-27 14-9 5-23 11-30 14-50 20-49 20-71 23-8 1-13 4-14 8 0 1 0 15 1 29 2 30 2 30 9 35 4 3 21 3 64 2 53-1 93 0 136 2 17 1 33 1 56 0h38c3 1 43 1 88 1h101c72 0 100 0 110 1h36c22 0 25 0 26-2z"/></svg>