<svg xmlns="http://www.w3.org/2000/svg" width="1344" height="566"><path d="M0 283V0h1344v566H0V283m727 277c7-1 11-3 14-10 4-7 8-27 8-39 0-8 0-10-3-15-3-6-10-14-19-20-34-24-63-47-67-52-2-2-1-3 7-11 5-5 7-7 11-15 2-5 7-16 11-24 9-17 15-31 18-41 2-7 5-27 7-45 1-6 2-14 3-18 1-9 1-28 0-40-3-29-4-37-5-44-1-4-2-12-2-18-2-24-5-44-11-62-10-29-43-64-75-80-16-7-23-9-36-9-9 0-10 0-17 3s-9 3-27 4c-21 1-25 2-37 8-7 4-27 23-35 33-4 6-20 36-29 57-5 13-7 19-21 62-10 27-17 56-21 86-1 8-3 17-4 19-1 6-5 25-7 40-1 15-2 16-12 21-4 2-9 5-11 7-6 3-13 6-19 6-3 0-11-1-17-1-14-2-16-2-29 4-9 3-22 7-29 9-7 1-15 6-21 11-2 3-10 13-17 22-17 23-28 32-69 58-27 16-32 20-33 26-1 2-1 10-2 17v13l-4 4c-1 2-4 3-5 3s-4-2-7-5c-7-6-10-7-15-6-9 3-12 5-21 14-14 13-18 24-11 26 4 1 35-1 40-2 13-5 15-5 17-4 1 1 4 1 6 1 4 0 6 1 8 2 1 2 4 3 5 4 2 0 93 1 244 1 132 0 244 1 248 1 10 1 83 0 91-1z"/></svg>