<svg xmlns="http://www.w3.org/2000/svg" width="1344" height="566"><path d="M0 283V0h1344v566H0V283m845 17c3-2 4-2 7-1 4 1 5 1 7-1 1-2 3-4 4-6 1-1 3-5 6-7 5-6 5-8 0-17-2-4-5-11-7-17-2-5-4-12-5-14-6-18-5-27 4-34 8-7 23-12 33-12 5 0 15 4 19 8s10 16 11 22c1 10 6 7 5-3-1-3-1-9-2-12v-7l6-6c3-3 6-7 6-7 0-1-2-3-4-6-3-3-6-7-7-9s-5-7-9-11c-9-10-17-20-19-23 0-2-3-4-4-5-2-1-4-3-4-3v-20c0-17-1-19-3-23-5-10-9-12-23-12-9 0-10 0-17 4-7 3-8 4-10 9-4 7-5 25-4 40 0 11 1 13 9 15 4 1 10 5 10 8 0 0-2 3-4 5-3 1-5 5-6 6-6 10-15 17-20 15-3 0-5-5-6-12 0-7-3-12-9-18-7-8-26-21-37-27-8-4-11-16-8-31 1-5 2-11 2-15 0-8-3-15-10-18s-17-3-27 0c-10 4-12 8-14 23 0 7 1 14 7 35l2 11-3 3c-13 11-12 10-18 28-3 9-6 20-7 23-2 9-4 34-3 35s3 0 5-3c3-2 7-5 9-7 4-2 4-2 16-2 18 1 22 4 30 20 4 10 8 25 8 35 0 6 1 9 3 15 4 9 7 14 11 16 2 1 5 3 8 5 3 3 4 3 5 2l2-2c0-1 2-4 4-9 4-8 4-10-5-11-3 0-5-1-6-1 0-1 1-4 2-6 1-3 3-7 4-9 1-3 1-3 6-3s8-2 9-7c1-3 2-4 3-5 5-1 6-3 7-10 0-4 1-7 1-8 2-2 12-6 15-6 1 0 3 1 4 2 2 2 2 3 2 40 0 31 0 38 2 40 1 4 2 4 7 1z"/></svg>