<svg xmlns="http://www.w3.org/2000/svg" width="1344" height="566"><path d="M0 283V0h1344v566H0V283m806 275h106c13-1 44 0 82 0 32 1 37 1 39 0 1-1 2-3 2-4 0-5-40-37-72-59-9-5-28-15-55-28-17-7-24-12-29-18-8-10-8-12 1-30 9-17 10-18 26-42 8-11 18-27 23-35 12-19 19-28 30-37 5-4 12-10 15-13 8-8 19-25 24-36s7-23 5-40c-1-12 0-29 2-42 0-4 1-10 1-14 1-3 2-13 3-21 4-33 4-35 4-51-1-19-2-24-7-37-6-14-11-23-19-30-12-11-20-15-39-16-19-2-202-1-208 1-13 3-17 7-25 24-10 21-20 57-24 86-1 10-5 22-8 25-2 1-6 3-11 5-11 5-15 8-18 15-6 12-6 24-2 42 5 19 12 32 24 44 4 5 7 9 8 10 0 4 0 12-5 38-4 26-8 41-17 57-9 17-12 19-40 17-9-1-18-2-21-2-8-2-14 2-30 20-14 16-23 25-30 30-10 7-24 15-31 18-10 3-17 7-29 14-10 6-29 15-42 20-27 11-38 15-43 15-9 2-14 3-16 5-1 2-1 5-1 28 1 28 1 30 6 34 4 4 8 4 88 5 98 0 213 1 214 2 0 1 5 1 11 1 6-1 55-1 108-1z"/></svg>