<svg xmlns="http://www.w3.org/2000/svg" width="1344" height="566"><path d="M0 283V0h1344v566H0V283m734 162c1-1 7-2 12-3 18-1 49-7 70-15 17-5 29-7 44-7 8 0 15 0 20 1 9 2 12 2 14 1 2-2 1-20-1-28 0-4-2-11-3-16 0-6-1-11-1-11-1 0-1-7-2-15-1-9-1-16-2-18-2-3-5-5-19-9-7-2-10-4-11-5s-1-5 0-11c1-10 0-20-3-24-1-1-4-3-10-5-17-6-17-10-1-10 12 0 11 0 11-18-1-15-1-15-4-22-7-14-21-30-36-40-4-3-13-10-19-15-6-6-13-13-17-16-11-9-17-15-20-20-2-4-7-17-12-34-4-12-11-19-20-20-3-1-9-2-12-3-8-2-10-5-11-11-1-5-4-11-6-11-1 0-3 1-4 2-1 2-17 15-23 19-5 4-17 17-23 24-7 10-11 19-13 31-1 6-3 14-4 17-1 4-3 14-4 22-1 16-1 60 0 69 0 4 1 10 1 14 1 7 1 8-2 13-3 3-4 5-7 6-3 0-8 2-12 3-7 2-9 2-22 2-31-1-31-1-36 2-10 6-21 18-30 32-4 6-6 13-9 27 0 5-5 14-8 17-1 1-5 3-7 5-8 4-12 8-15 15-3 6-3 7-3 14 1 4 2 9 2 11 1 2 3 8 5 14 4 13 5 14 16 13 8-1 9-1 12-4l3-4 14 1c11 0 15 0 20 2 8 2 16 4 38 8h34c49-2 70 0 96 10 5 2 15 2 20 0z"/></svg>