<svg xmlns="http://www.w3.org/2000/svg" width="1344" height="566"><path d="M0 283V0h1344v566H0V283m386 277c19-1 63-1 97-1 71-1 103-2 109-3h46c23 1 62 1 88 1 26 1 50 1 54 2 24 1 59 2 69 1 15-2 18-5 19-18 1-16-3-29-11-40-7-8-39-33-76-58-14-9-18-13-25-22-8-11-13-21-13-26s0-6 12-20c4-5 11-14 15-19 3-5 8-11 9-13 5-5 25-36 28-42 1-4 6-17 10-29s9-26 11-31c7-18 13-52 13-72 0-28-5-53-14-71-7-15-24-34-39-47-14-12-19-14-40-17-8-1-19-4-26-6-16-5-28-6-46-6-21 1-33 5-54 17-30 18-50 46-58 78-1 5-3 17-5 27-3 22-5 28-11 35-2 2-6 8-8 13-4 8-4 8-5 21-1 27 3 36 23 52 6 5 8 8 10 12 4 9 4 31 1 39-2 3-3 4-8 7-8 3-13 8-25 19-15 12-33 27-40 31-6 3-9 4-17 6-12 1-14 2-37 11-10 4-29 11-41 15-36 11-51 20-59 33-7 11-21 49-28 75-10 39-10 42-3 46 4 1 26 1 75 0z"/></svg>