<svg xmlns="http://www.w3.org/2000/svg" width="1344" height="566"><path d="M0 283V0h1344v566H0V283m508 87c2-1 7-2 9-3 3-1 6-3 11-8 7-7 6-7 20-2 8 3 9 3 22 3 9 0 16 0 18 1 9 2 29 4 50 5 13 0 32 1 43 2 17 1 21 1 25 0 3-1 10-1 20-2 15 0 43-3 49-6 2 0 5-1 9-2 3 0 7-1 8-1 3-1 15-3 27-5 7-1 10-1 20 0 15 3 15 3 13-10-2-18-2-29-1-40l1-11 6-6c5-4 8-6 12-8 10-3 9 0 10-42 1-59-2-108-6-122-1-2-2-7-3-11-2-12-9-24-18-34-6-6-21-16-30-21-15-6-32-7-54 0-16 5-24 9-32 17-7 7-11 15-16 27l-2 9-1 33c0 50 0 57 2 70 3 15 3 36 0 42s-6 7-16 8c-43 1-60 2-64 3-3 1-9 3-13 4-5 0-9 2-12 4-2 1-6 3-9 5-3 1-5 2-5 3s-12 14-14 15-8 1-20 0c-11-1-20-1-22-1-1 1-5 3-7 6-6 5-13 9-23 12-9 3-14 7-19 17-15 32-18 43-12 49 2 2 3 2 11 1 5 0 11-1 13-1z"/></svg>