<svg xmlns="http://www.w3.org/2000/svg" width="1344" height="566"><path d="M0 283V0h1344v566H0V283m274 276c2-1 3-1 9 0 8 1 33 2 231 1h152c7-2 11-5 12-12 2-12 2-14-5-25-8-11-9-16-7-23 1-4 1-5-3-19-3-8-7-18-9-23-4-8-4-10-4-17 0-10-2-13-9-17-4-3-6-4-19-9-12-5-57-25-68-30s-15-9-15-14c0-4 11-40 17-55 7-18 12-38 13-52 0-5-1-17-1-28-1-10-2-22-3-26 0-4-1-11-1-15-1-4-2-19-4-33-3-37-8-54-18-72-11-20-52-51-79-60-16-5-37-5-54 1-6 2-14 4-18 4-16 3-23 5-30 9-29 16-47 48-58 109-5 25-7 35-8 45 0 4-2 15-3 24-1 8-3 23-4 32 0 9-1 17-2 18 0 2-1 11-2 21-3 24-3 56 0 70 1 9 1 9-1 12-2 4-12 10-20 13-4 2-12 5-20 8-13 6-22 11-40 25-5 4-14 10-20 14-6 3-15 9-19 13-7 6-9 8-10 11-1 2-2 6-2 8-1 5-8 18-12 25-5 8-7 12-10 28-5 22-4 35 1 39 3 1 17 2 78 2 51 0 63-1 65-2z"/></svg>