<svg xmlns="http://www.w3.org/2000/svg" width="1344" height="566"><path d="M0 283V0h1344v566H0V283m539 274h45c46 1 61 0 67-4 4-3 7-8 8-14 1-3 3-8 4-11 2-4 4-10 5-15 0-6 2-9 3-11 3-4 5-9 6-16 1-9 6-26 8-30 5-10 25-26 48-38 12-7 20-12 22-16 2-3 1-4-10-18s-11-14-10-24c0-9 0-10-2-16-2-4-5-8-10-14-4-4-10-11-13-16-4-5-10-12-14-16s-7-9-8-11c-1-6-5-11-13-16s-11-8-11-11 6-12 15-23c7-8 10-12 12-23 0-4 2-11 4-16l3-9-2-7c-2-6-2-11-2-21v-13l-5-6c-9-12-24-23-41-30-8-3-9-3-20-3l-11-1-5 4c-7 5-19 17-22 22-4 5-6 13-8 34 0 11-1 21-2 24-2 8-6 16-14 23-15 14-21 18-60 35-21 9-28 13-40 22-16 13-28 31-38 55-1 4-5 10-8 15-9 15-13 22-17 34-4 15-6 27-6 39 0 9 0 10-4 17-2 4-7 12-12 18-17 21-29 42-31 54-3 12 2 16 39 36 6 3 27 12 35 15 2 0 11 1 19 2h15c0 1 71 0 81 0z"/></svg>