<svg xmlns="http://www.w3.org/2000/svg" width="1344" height="566"><path d="M0 283V0h1344v566H0V283m463 278c16-1 33-1 38-2 5 0 35-1 66 0 76 1 68 1 167 0 143-1 171-1 192 0 20 1 54-1 57-2 0-1 1-2 1-3 0-2-11-17-20-28s-20-27-22-33c-1-2-3-8-4-11-1-4-4-12-7-18-5-8-7-11-18-22s-12-12-17-22c-6-13-10-28-13-50-2-19-4-28-7-33-1-3-7-12-13-21-6-8-13-19-15-22-5-9-14-18-21-24-15-10-24-18-27-22-1-3-1-5 1-17 1-11 1-19 1-41-1-26-1-30-3-40-2-7-4-15-4-18-1-3-3-9-4-13-6-29-11-39-21-47-22-19-31-24-52-32-9-3-10-3-30-4-22-1-29 0-39 5-2 1-8 3-13 3-8 2-27 11-34 16-2 1-7 6-12 11-7 7-9 11-13 19-6 13-7 19-9 32-1 14-1 25 1 39 1 13 1 19-3 28-2 6-2 8-2 16 1 9 1 10 5 19 2 6 6 12 8 15 4 5 8 12 14 21 4 9 5 15 4 26 0 4-1 12-2 18-1 5-2 13-3 16-2 7-3 8-9 12-8 5-9 7-23 31-3 4-7 11-11 15s-8 9-10 11c-2 3-4 5-6 6s-6 2-8 3c-3 2-8 3-14 3-7 0-11 1-16 3-4 2-8 4-11 4-2 1-7 4-11 6-10 6-24 13-33 16-17 7-22 9-25 13-2 2-7 8-11 13-8 9-14 18-20 28-9 12-12 17-18 23-7 8-8 9-9 17-1 4-2 8-3 10-3 4-6 16-6 19 1 2 2 3 6 5 4 1 8 2 31 3 15 1 27 1 27 2h12c7-1 25-1 41-2m-127-8c2-3 8-15 8-19 0-1 1-4 2-6s2-5 2-7c0-1 1-3 1-4 1-2 2-5 3-8 0-4 3-11 5-17 2-7 6-18 9-27 11-30 33-70 46-84 3-3 6-7 7-10 2-4 2-4 0-11-1-4-2-11-3-20-2-22 0-29 8-29 4 0 10 1 18 4 12 4 13 3 22-8 5-6 5-10 2-20-2-6-2-7-1-9s2-4 2-5c0-3-13-17-20-21s-8-6-6-11c3-9 1-10-13-10-13 0-16 1-26 8-8 7-10 10-11 19 0 4-2 11-3 15-2 4-3 8-3 9s3 7 7 12c3 5 6 11 6 12 0 2-3 5-9 12-9 9-12 13-14 22-2 7-8 20-13 26l-8 12c-5 9-20 27-35 45-23 27-31 37-41 55-9 15-35 67-35 70 0 1 1 2 1 3 1 0 9 1 18 1 8 1 19 2 23 2s17 1 28 1c19 0 20 0 23-2z"/></svg>