<svg xmlns="http://www.w3.org/2000/svg" width="1344" height="566"><path d="M0 283V0h1344v566H0V283m319 279c8-1 16-2 18-2 2-1 5-1 7 0 3 1 55 2 252 2h241c51 1 55 1 58-1 4-1 5-1 12 0 4 1 16 1 29 1 25 0 26 0 32-6 3-2 3-3 3-11 0-15-4-42-13-91-1-12-4-26-5-32-7-45-13-69-22-101-1-6-6-21-10-35-3-13-8-31-11-40-6-19-8-31-8-36 1-3 4-11 8-18 9-19 13-30 19-54s7-27 5-35-5-14-11-19c-6-6-12-9-23-12-8-3-9-3-18-3-18 1-36 8-45 17-7 7-11 14-16 29-2 6-5 14-7 19-2 4-5 10-6 14-3 8-6 12-12 13-11 3-20 5-23 7-1 1-5 5-7 9-7 10-17 17-21 14-2-1-3-4-8-18-6-15-16-36-20-43-11-16-24-27-47-37-24-12-34-15-50-15-12 0-19 2-31 6-6 3-12 4-19 5-17 3-24 7-35 17-17 18-30 44-36 71-7 31-9 55-10 124-1 49-2 58-3 61-3 5-4 5-10 4-3-1-12-2-19-3-26-4-26-5-35-32-2-8-8-23-12-33s-9-21-10-24c-5-12-7-19-8-28 0-8 0-9 3-14 3-4 5-5 13-9 5-3 11-6 13-8 3-3 10-16 10-18 0-1 2-5 4-10 4-8 5-15 3-20 0-2-3-14-5-28-3-19-5-26-7-30-4-9-17-19-33-24-7-2-9-2-25-2-21 0-28 1-37 6-8 6-21 26-21 33 0 1-1 4-2 6-3 3-3 4-3 22l-1 18-4 8c-3 7-5 9-9 13-6 4-7 6-12 16-3 6-6 12-7 13s-4 6-6 11c-3 5-8 13-11 18-4 5-8 11-10 14s-5 8-7 11c-7 11-14 27-22 51-17 53-18 56-19 66-1 6-2 16-3 23-1 8-1 20-1 45-1 29-1 35-2 43-2 9-2 11-1 27 1 21 3 27 9 31 5 3 9 3 41 4 48 1 64 1 79 0z"/></svg>