<svg xmlns="http://www.w3.org/2000/svg" width="1344" height="566"><path d="M0 283V0h1344v566H0V283m1136 279c13-1 13-1 16-4 2-2 2-3 2-10 0-5-2-13-3-18-2-8-2-9-1-14 2-11 2-11-1-15-2-2-12-9-21-15-10-7-22-15-26-18-5-4-15-10-21-14-7-4-13-10-16-12l-3-4v-15c1-9 1-20 2-25 0-5 1-16 2-24 1-9 2-20 2-24 1-5 1-21 2-34 0-27 0-38-4-72-2-12-3-24-4-28 0-13-4-39-6-50s-10-44-15-57c-11-36-38-66-74-83-33-15-48-18-67-12-7 2-9 2-21 2-11 0-13 0-21 3-23 7-45 23-60 43-7 10-18 30-22 39-8 19-18 55-18 65 0 2-2 13-3 25-2 11-4 25-5 31s-1 11-2 12c0 1-1 10-2 20s-2 19-3 20c0 1 0 17-1 35-1 42-2 53-6 60-2 4-3 6-8 8-8 5-21 9-37 12-9 2-20 4-24 5-12 4-51 17-58 20-4 1-13 5-20 7-8 3-16 6-18 7-6 3-7 5-7 15 0 8 0 9-7 31-7 20-15 41-22 58-4 9-6 14-7 20-1 4-1 4 1 6 3 4 15 4 51 3 38 0 73-1 76-1h226c38 0 206 1 220 2 19 1 20 1 34 0z"/></svg>