<svg xmlns="http://www.w3.org/2000/svg" width="1344" height="566"><path d="M0 283V0h1344v566H0V283m703 276c38-1 382-1 421 0 15 1 34 1 42 0 21-1 22-2 14-22-6-14-20-43-24-49-14-19-36-42-51-52-8-6-30-17-43-22-16-7-46-22-52-25-10-6-31-15-35-15s-18-8-22-12c-6-7-6-9 6-33 28-56 33-70 39-107 2-15 2-20 3-55 0-39 0-39-2-48-2-5-3-12-4-15-3-17-10-28-29-46-12-12-23-19-38-25-5-2-12-5-15-7-12-8-12-8-51-7h-35l-10 5c-12 6-17 9-29 20-5 4-11 9-14 11-6 5-17 18-20 24-3 8-4 13-5 33-1 14-1 20 1 34 2 32 2 33 0 40-6 16-7 20-7 27 0 13 4 23 14 39 7 11 8 12 8 17 2 9-4 46-8 53-2 5-7 9-21 19-27 20-47 32-60 34-5 1-53 19-62 24-2 1-11 5-20 8-36 15-52 25-70 43-29 29-49 64-53 95-1 7-1 8 0 10s3 3 4 4c2 0 11 1 23 0 26 0 93 0 111 1 17 1 50 0 94-1z"/></svg>