<svg xmlns="http://www.w3.org/2000/svg" width="1344" height="566"><path d="M0 283V0h1344v566H0V283m921 278c26 0 42-1 44-4 1-1 2-2 2-3 0-3-6-16-19-43s-19-42-21-51c-10-41-14-67-19-122-1-9-3-22-4-29-2-8-3-17-4-21-1-5-2-12-3-16-6-35-7-47-7-58v-12l5-11c9-19 18-62 18-83 0-16-1-19-8-27-11-10-24-14-42-12-22 2-41 14-49 30-2 4-4 10-5 15-4 13-13 31-18 35-2 2-5 4-6 4-1 1-6 2-11 4-11 3-17 6-21 11-2 2-10 10-18 17-8 6-16 14-18 16-7 9-8 17-3 30 5 10 5 13 2 22-2 6-2 10-3 40l-1 33-3 6c-2 4-7 11-11 15-9 10-9 11-13 33-1 9-3 59-2 60v56c0 52 0 55 2 58s5 5 17 6c6 1 27 2 102 1h117z"/></svg>