<svg xmlns="http://www.w3.org/2000/svg" width="1344" height="566"><path d="M0 283V0h1344v566H0V283m408 278c16 0 31-1 33-2 7-1 10-8 11-31 0-9 1-13 2-14 0 0 4 1 7 3 10 5 16 7 23 7 8 0 12-2 16-7 4-4 9-16 9-20 0-2-2-5-8-11l-8-10c0-1 1-3 1-4 1-3 1-3-1-5-4-5-11-7-25-8-11 0-11-1-13-3-3-4-4-15-1-28 4-17 6-27 7-32 1-3 2-9 2-16 0-11-1-14-8-33-7-18-20-37-36-51-10-8-11-12-8-17 1-2 4-7 6-11 4-8 7-11 14-15 6-4 7-7 9-19 3-17 4-26 2-33-1-3-2-12-2-20-1-23-6-35-15-41-3-2-5-3-6-3 0 0-2-1-5-3-9-6-25-10-39-10s-31 6-39 14-12 19-15 44c-5 31-8 98-5 107l1 5-8 17c-5 10-9 19-10 21 0 1-1 5-2 9-5 17-7 32-9 54-1 13-3 27-4 32-1 8-1 10 0 19 1 5 2 14 3 18 0 5 2 13 3 18s1 18 2 32c1 22 1 24 3 28 4 10 8 12 24 17 6 2 11 3 27 3 10 0 22 1 26 0 3 0 20 0 36-1m931-2 3-3v-75c1-110 1-219-1-222s-12-15-24-27c-5-6-12-14-15-18s-7-9-9-11c-4-2-15-7-21-9-1 0-4-1-5-2-6-3-11-16-13-32-1-10-1-11 1-23 6-23 6-45 3-61-6-25-9-28-32-37-7-3-8-3-22-3-15 0-16 0-39 5-21 5-24 7-29 26-2 9-2 16-1 27v14c-1 6-1 10 0 19 1 6 2 13 2 15 0 7 7 31 13 42 1 4 3 8 3 9 0 3 6 8 14 10 10 3 12 5 12 12 0 8-4 15-16 27-14 15-19 22-21 31-1 4-2 9-3 11 0 1-2 5-2 8-1 4-3 9-4 12 0 2-2 8-3 12-2 5-4 12-5 17-2 5-3 12-3 16-1 4-2 11-3 15 0 4-1 17-2 28-1 23-3 42-6 46-3 8-12 19-18 24-8 8-17 13-20 13s-20-6-36-12c-8-4-11-4-14-1-4 4-2 7 6 15 5 5 7 8 6 12s-7 10-16 15c-11 8-12 12-4 16 6 2 9 6 9 11 1 5 3 6 8 5 9-2 12-2 17 4l6 6h9c14 2 32 5 38 7 3 2 6 2 11 2 11 0 28 2 31 4 3 1 16 1 84 2 44 0 87 1 94 1h14l3-3m-455-2c1-1 3-4 3-7 1-2 2-26 2-52s1-53 2-60c0-8 1-19 2-26s2-20 3-28c9-54 9-87-1-119-8-26-27-66-38-79-7-8-10-14-11-21-1-11 0-11-12-13-7-1-7-1-15-11-7-8-7-10-7-25 0-8 0-17 1-20 2-10 3-33 2-39-1-7-5-15-12-22-3-4-7-6-13-10-5-2-12-5-14-7-14-8-38-3-63 12-10 5-15 11-19 18-2 5-3 7-3 19 0 7-1 16-2 18-1 4-1 6 1 14 2 11 2 16 0 25-2 10-2 13 3 21 3 4 6 9 8 13 4 7 10 15 15 20 4 3 12 6 19 6 2 0 4 1 6 2 2 3 1 4-7 13-13 15-13 17-15 31-1 4-3 13-5 20-8 25-9 28-13 51 0 6-2 13-3 15-1 7-5 21-6 26 0 3-2 10-3 16-2 6-4 18-6 27s-5 22-7 31c-1 9-3 18-4 21 0 3-2 11-3 17-5 19-8 35-9 44-1 5-3 16-4 24-4 23-4 33 1 36h52c27-1 50 0 52 0s12 1 23 0c11 0 29 0 40 1 12 0 30 1 40 0 17 0 19 0 20-2z"/></svg>