<svg xmlns="http://www.w3.org/2000/svg" width="1344" height="566"><path d="M0 283V0h1344v566H0V283m622 277c7-1 11-1 18 1 9 1 17 1 58 1 25-1 52-1 58-2 18 0 154 0 189 1 28 0 32 0 36-1 7-3 8-5 8-19 0-10 1-15 3-24 2-11 2-13 1-19-4-23-5-34-7-75-2-42-2-49-6-59-2-5-4-12-5-16-2-18-12-35-22-38-2 0-8-3-13-5-6-2-13-5-15-6-10-4-19-11-19-14 0-1-2-2-5-4-10-5-26-18-30-25-1-2-3-6-5-8-1-2-2-4-2-6 0-1-2-6-5-11l-4-8 2-9c1-8 1-8 11-19 5-6 10-12 10-14 4-7 5-33 2-55-4-39-17-61-44-80-19-13-42-19-63-16-43 5-54 9-71 26-16 15-20 28-20 52 0 14 1 21 7 41 0 3 1 10 2 17 0 14 0 15-13 22-11 6-16 10-27 22-6 6-9 10-14 21-7 15-9 21-12 40-1 14-4 25-7 31-1 3-6 8-10 13-10 10-12 14-14 23-3 10-4 12-12 20-6 6-6 7-12 24-8 20-10 23-18 33-4 3-8 9-10 12-5 7-15 29-20 43-2 6-5 13-6 17-5 12-7 28-7 45 0 15 0 18 5 22 3 3 8 4 35 5 14 1 33 2 43 2s18 1 20 0c1 0 5 0 10-1z"/></svg>