<svg xmlns="http://www.w3.org/2000/svg" width="1344" height="566"><path d="M0 283V0h1344v566H0V283m486 135c3-1 11-4 17-7 10-3 12-4 19-4 4 0 13-1 20-1 12-1 14-1 55 2 6 0 13 1 17 2 6 1 40 2 61 1 13 0 19 1 33 4 12 2 25 2 52-3 4 0 11-1 15-2 7-1 17-3 30-7 4-1 10-3 14-4 11-3 17-5 28-11 11-5 20-8 27-8 3 0 6-1 7-2 3-2 3-3 2-32 0-16-1-22-5-29-2-3-3-6-3-8 0-6-3-9-8-9-3 0-5-1-6-1 0-1-2-5-3-10-2-4-4-8-4-9-1 0-3-4-5-8s-4-8-5-9c-1-2-1-2 2-3 2-1 4-3 5-5s1-5-3-17c0-3-2-10-4-16-1-6-3-15-5-21s-4-14-5-19c-6-33-7-36-13-52-9-20-15-30-28-43-9-8-15-12-29-17-12-5-24-8-34-8-11 0-34 4-44 9-23 9-35 20-44 41-4 7-7 19-8 28-1 4-3 39-4 83-1 19-1 26-2 28-1 1-2 1-6 1-15-2-16-2-22 0s-14 8-26 20c-5 5-8 9-11 16-7 13-11 19-17 23-3 2-8 6-12 9-8 6-39 22-48 25-3 0-9 1-14 1-10 0-13 1-16 7-3 4-13 28-15 34-1 2-3 8-5 12-5 11-5 15-4 17 4 4 44 5 54 2z"/></svg>