<svg xmlns="http://www.w3.org/2000/svg" width="1344" height="566"><path d="M0 283V0h1344v566H0V283m831 277c7-2 9-4 13-12 5-9 6-14 4-22-1-5-1-6 2-11 3-8 13-28 22-41 3-5 11-19 17-31 9-18 11-22 17-29 8-9 13-18 13-24 0-2-1-6-2-9-2-3-3-9-4-12-2-12-9-19-14-14-4 3-11 15-11 20-1 6-7 15-12 17-7 3-13 2-13-2 0-3 5-13 11-23 6-9 6-10 6-16 0-7-1-8-7-12-3-1-7-1-22-1-6 1-6-1-1-8 4-5 12-20 14-26v-8c0-11-6-16-16-14-5 1-8 3-10 10-2 3-6 9-13 15-16 18-17 18-35 18-16 0-18 1-23 8-7 9-17 29-21 43-3 8-5 15-5 16 0 2-7 29-10 37-5 16-34 71-42 83-4 6-8 9-11 9s-9-4-17-12l-9-9c-5-2-7-7-10-20-1-9-3-14-7-22-6-13-10-16-23-25-7-4-13-9-14-10l-2-3 4-4c11-9 15-14 19-28 19-59 21-68 23-100 1-18 0-51-2-64-1-4-2-13-3-20 0-6-1-13-2-14 0-2-1-6-1-10-2-16-7-41-13-58-4-13-13-31-19-40-13-19-37-40-57-50-12-5-18-7-32-8-11 0-13 0-22 2-5 2-16 4-25 6-19 3-25 4-33 9-14 7-37 32-46 49-10 20-25 70-29 96 0 4-2 12-3 18-1 7-4 25-6 40-2 16-5 30-5 32-1 3-1 21-2 50 0 48-1 57-5 70-2 5-10 20-17 28-11 16-26 44-33 66-3 7-7 17-8 21-2 5-3 10-4 14 0 7 0 8 3 14l6 12c3 7 5 8 18 9s110 1 280 0c79-1 149 0 184 2 19 1 59 0 65-2z"/></svg>