<svg xmlns="http://www.w3.org/2000/svg" width="1344" height="566"><path d="M0 283V0h1344v566H0V283m827 277c7-2 10-5 15-15l5-9v-22l4-9c6-11 14-25 23-39 3-6 10-18 14-28 7-16 9-19 16-27 12-14 15-21 11-31-1-3-3-9-4-13-1-9-5-15-8-16-4-2-10 1-12 6 0 2-2 5-3 8-1 2-2 5-2 7s-1 5-3 7-4 5-5 6c-5 7-11 6-10-1 1-5 9-20 13-25 3-3 4-5 4-8 0-8-7-14-17-16-11-1-11-1-6-13 2-5 4-11 5-13 0-2 1-6 1-10 2-11-3-17-14-17-6 1-9 3-11 10-1 4-14 21-19 26-6 6-12 9-16 9-2 0-7-1-12-1-7-1-8-1-12 0-8 3-14 12-25 34-5 11-8 18-12 38-4 18-6 24-11 38-8 23-35 74-45 88-6 8-6 8-28-13-10-10-18-20-19-21s-2-7-3-13c-2-8-3-13-7-21-3-5-6-11-8-14-3-5-15-13-24-18-7-4-19-13-21-16-1-3-1-3 0-5 3-2 6-1 13 3s11 5 19 2c7-2 14-8 17-16 1-3 4-13 6-23 1-10 4-22 6-28 6-25 6-28 7-56 0-21 0-29-1-39-1-7-2-16-2-20-1-4-2-11-3-16 0-5-2-14-2-21-2-13-4-28-7-46-1-5-3-13-4-17-2-5-3-11-4-13-6-25-43-65-78-82-9-5-16-7-28-8-11-1-25 1-32 3-2 1-8 2-13 3s-10 1-11 1c-1 1-5 2-10 2-8 2-20 6-27 11-16 10-37 42-48 73-6 20-8 25-11 40-2 9-5 21-6 28-3 12-9 49-11 66-1 11-5 31-8 43-4 15-4 22-4 69l-1 45-3 5c-15 23-29 50-37 73-4 8-8 19-11 25-6 16-6 16-2 25 3 4 4 8 5 12 1 10 3 11 17 12 10 1 182 1 245 0 90-1 110-1 157 0 28 1 56 2 61 2s19 1 31 1c16 0 22 0 26-2z"/></svg>