<svg xmlns="http://www.w3.org/2000/svg" width="1344" height="566"><path d="M0 283V0h1344v566H0V283m714 272c8-6 11-16 7-31-2-11-3-31-1-36 1-2 2-11 3-24 3-54 4-70 9-88 1-4 2-9 2-12 4-13 6-22 10-33 2-6 5-14 6-17 6-21 9-28 22-49 12-20 12-23 12-47 0-20 0-25-5-28s-12-10-14-14c-4-10-7-21-10-39-1-4-2-8-4-11-6-11-24-20-35-17s-25 25-27 42c-1 4-2 10-3 15-2 5-3 10-4 13-1 4-2 4-14 12-7 5-14 10-16 10-2 1-6 4-10 7-6 4-10 5-30 12-11 4-23 9-30 15-11 8-17 11-28 11-7 1-10 2-13 3-6 4-6 8 1 14 9 9 27 12 44 9 4 0 6-2 11-7 7-6 10-8 26-11 4 0 11-2 15-3 19-5 22-6 26-8 3 0 7-2 9-3 7-3 10-1 10 7 0 3 1 7 2 10 0 3 1 6 1 7-1 0-5 3-10 6-5 2-9 5-11 6-5 5-5 36 1 47 0 1 3 3 6 5 2 1 6 4 8 6 3 3 3 3 2 10 0 4-2 15-4 24-2 8-4 18-4 22-1 3-2 7-2 9-1 1-2 8-3 15s-3 16-3 21c-1 5-2 10-3 13-2 6-1 16 1 18 2 3 11 3 17 0 9-5 11-4 12 9 1 6 1 10 3 12 3 5 3 13-1 22-3 10-5 24-3 31 3 12 3 13 6 15 3 3 12 3 16 0z"/></svg>