<svg xmlns="http://www.w3.org/2000/svg" width="1344" height="566"><path d="M0 283V0h1344v566H0V283m832 277c18-2 21-2 24-4 7-4 10-15 18-52 5-28 10-43 19-63 13-27 37-69 44-76 6-5 15-23 25-49 2-5 5-10 6-11 2-3 3-8 1-17 0-4-1-13-1-19-1-9-1-11-4-15-4-9-16-16-30-19-3-1-16-1-30-1-24-1-26-1-30-3-8-4-17-17-21-31-2-9-5-13-12-21-6-6-10-11-26-29-3-4-7-10-10-12-7-7-20-28-23-35-1-3-1-9-1-22 0-25 0-27-2-28-2-3-5-2-15 3-14 6-19 10-24 20-8 12-18 39-22 53-1 4-4 14-6 21-3 10-4 18-5 29-1 8-3 19-4 22-1 4-4 17-7 28s-7 25-9 31c-4 14-8 33-10 54-3 28-5 32-12 38-5 5-17 10-29 15-5 2-12 4-16 5-5 3-25 9-51 17-14 4-14 4-14 19 0 11 0 12-4 25-3 7-6 14-7 16-2 6-15 43-18 54-1 6-3 17-4 26-1 14-1 16 0 20 2 5 5 8 11 9 2 1 37 1 95 2 51 0 93 0 93 1 1 0 99 0 111-1z"/></svg>