<svg xmlns="http://www.w3.org/2000/svg" width="1344" height="566"><path d="M0 283V0h1344v566H0V283m989 276c26-1 26-1 29-3 5-6 5-17 0-41-2-10-3-22-4-27-1-26-2-40-4-45-1-7-1-10 2-17 1-3 1-4-1-8-4-9-14-17-22-19-2 0-5-1-6-2-2 0-7-2-11-4-5-2-11-4-14-6-2-1-11-5-18-8-15-7-18-10-25-21-7-14-12-34-13-64-1-11-1-25-2-30 0-6-2-24-2-40-3-40-4-54-7-69-5-32-15-58-29-75-14-19-45-40-70-48-11-3-30-4-47-2-36 6-74 18-86 28-2 2-4 6-9 19l-7 14c-16 26-25 43-28 53-2 5-5 19-6 34-1 13-3 17-14 34-6 7-10 15-11 17-2 5-1 11 2 19 2 4 3 8 3 11s1 8 1 11c1 3 2 9 2 14s1 11 2 15c0 4 1 12 2 19 1 18 3 22 14 28 9 6 12 11 8 14-1 1-6 2-14 2-7 0-15 2-19 3-5 1-11 1-23 1-15 0-16 1-21 3-3 2-9 5-13 9-10 7-19 13-22 13-1 0-3-1-4-2-6-3-8-3-23 7-7 6-17 11-21 13s-10 4-12 5c-6 3-13 9-17 15-5 7-6 8-14 12l-7 3-17-1c-15-1-20-1-31 0-12 2-14 2-16 5-3 3-4 6-1 8 1 1 4 3 8 5s7 4 8 7 1 3-2 14c-2 5-4 11-4 11 0 1-2 5-4 10-3 5-6 12-7 15-1 4-4 11-7 16-5 13-6 17-3 19 2 1 17 2 24 2 52 0 70 0 79 1 7 1 15 1 24 0 21-1 43 0 73 3 4 0 95 1 201 1s193 0 193 1c1 0 15 0 63-2z"/></svg>