<svg xmlns="http://www.w3.org/2000/svg" width="1344" height="566"><path d="M0 283V0h1344v566H0V283m1338 279c5-2 4 1 4-177V217l-3-4c-2-1-5-3-6-3s-5-1-9-2c-6-2-8-3-12-8-6-7-7-9-9-19-3-10-3-15 1-33 4-27 5-59 0-79-1-5-3-12-4-16-2-14-4-14-48-14h-28l-12 4c-15 5-19 7-21 10-1 1-5 9-9 17-7 17-7 15-5 42 2 31 4 48 7 57 6 21 10 31 15 36 1 2 5 4 8 6 10 4 17 11 17 17 0 4-7 13-19 26-9 9-11 12-16 21-3 6-6 14-7 19s-3 13-4 16c-1 4-3 9-3 12-1 2-3 9-5 15s-4 15-5 19c-3 22-4 29-5 39 0 14-2 29-4 43-2 9-3 13-6 18-4 7-16 20-26 27-7 6-11 6-19 3-5-2-21-8-32-12-7-2-7-2-9-1-5 4-3 12 5 18 3 2 5 6 5 9 0 4-5 10-14 16-7 6-10 9-10 12 0 2 3 5 7 5 3 0 7 4 8 8 0 2 1 4 2 5s7 1 12-1c2 0 8 4 11 9 1 2 3 4 5 5 5 2 21 2 90 3h71c1 1 80 1 82 0m-867-2c3-2 5-6 6-14 1-9 2-9 12-6 13 4 17 5 23 2 3-2 6-4 6-5 3-5 7-15 8-20 0-5 0-5-6-12l-9-9c-2-1-6-5-8-8-7-8-14-13-19-13-2 0-4-1-5-2-3-2-4-12-4-19 1-6 5-23 10-38 2-7 2-10 2-21 0-6 0-13-1-16-6-26-16-47-27-58-4-4-11-10-15-14-5-3-10-8-11-9-1-3-1-3 4-11 2-5 6-11 7-13 3-5 6-8 12-12l5-5c2-3 4-13 6-30 1-10 1-12 0-17-2-4-2-10-2-19 0-24-3-35-11-43-17-16-55-24-76-16-11 5-15 7-20 11-11 11-14 21-17 59-1 8-2 24-3 34 0 12-1 32-1 45v25l-5 10c-8 14-16 32-16 35 0 1-1 5-2 10-5 16-6 21-7 41-1 14-2 22-4 34l-3 16 2 14c1 14 4 27 7 37 1 4 3 12 3 22 1 8 2 17 3 19s4 9 4 9 5 0 11 1c9 0 11 0 17 3l6 3 45 1c50 1 70 1 73-1m245 0c13-1 19-1 23 0s7 1 15 0c13-1 51-2 63-1 5 1 28 1 51 1 37 0 43 0 46-1 4-3 7-7 8-13 0-6-2-55-4-78-1-19-2-88 0-98 3-17 5-40 5-51 0-10-1-15-2-24-2-6-4-17-5-25-6-31-18-63-28-76-7-8-9-13-9-21 0-6-2-12-4-12l-8-2c-8-1-9-2-12-6-8-11-10-16-11-32-1-11-1-16 0-21 1-4 1-16 2-26V55l-3-8c-5-10-10-17-18-24s-12-9-20-12c-16-5-38-2-58 9-13 6-18 10-24 18s-7 12-7 26c0 8 0 14-2 18-1 5-1 10-1 21v22l-1 8 5 9c4 5 8 12 10 16 10 17 17 23 27 24 13 2 20 7 20 14 0 5-2 9-7 17s-8 13-9 19c-1 4-2 10-4 15s-5 14-7 21c-1 6-5 17-7 23-2 7-5 17-6 23-3 14-11 47-17 70-2 8-6 23-8 32-4 17-12 48-14 52-1 3-8 32-10 40-2 12-6 28-7 33-3 7-2 16 0 18s11 3 38 1z"/></svg>