<svg xmlns="http://www.w3.org/2000/svg" width="1344" height="566"><path d="M0 283V0h1344v566H0V283m622 279h68c62 0 147-1 172-2 23-1 24-2 24-9 0-9-4-23-10-35-2-2-3-7-4-10-1-4-3-11-4-16-4-11-7-26-6-30 1-3-1-8-5-11-1-2-6-5-9-7-11-6-59-29-87-42-34-15-38-17-42-21l-4-8c-1-7-1-52 1-70 3-31 3-44 1-64-4-24-6-35-11-50-2-7-4-16-5-19-3-9-16-41-21-54-14-27-30-47-53-63-15-11-27-16-47-21-8-2-13-2-26-2-20-1-21 0-40 10-6 3-14 8-18 9-12 4-16 7-22 12-21 19-36 54-42 99-5 39-5 129 1 172 0 6 1 15 2 20 0 4 1 10 2 14 0 4 1 11 2 17 0 9 0 10-2 12-1 1-2 2-4 2-5 0-29 9-48 18-5 2-13 6-19 9-15 6-38 18-41 20-1 2-2 4-3 8 0 4-2 14-4 23-1 9-3 18-3 20 0 5 3 9 9 14s11 8 25 13c5 2 14 7 20 10s16 7 22 9 12 5 14 7c5 4 8 5 19 9 13 4 37 6 110 7h45c0 1 6 1 12 0h31z"/></svg>