<svg xmlns="http://www.w3.org/2000/svg" width="1344" height="566"><path d="M0 283V0h1344v566H0V283m742 277c8-1 11-1 22 0 16 1 139 2 156 1 15-1 20-2 25-5 4-3 9-11 11-18 0-3 2-9 4-14 1-5 5-15 8-24s7-21 10-28c2-8 5-16 5-19 0-5 0-5-3-8-2-1-11-6-19-10s-23-12-34-18c-11-5-27-13-35-18-19-9-28-15-32-22-3-5-7-15-12-29l-2-8v-54c0-33 0-56-1-61-1-4-1-12-2-17-2-21-6-35-17-70-6-21-13-35-21-50-10-16-32-38-48-47-9-5-27-12-40-15-9-2-14-2-25-2-16 0-19 1-32 7-6 2-13 5-18 6-14 2-17 4-32 25-22 30-30 50-38 99-7 37-7 42-7 110 0 44 0 65 1 74 1 7 1 17 1 23 0 15 1 15-19 23-8 3-17 7-18 7-6 2-31 13-37 17-4 1-12 5-18 9-7 3-14 6-15 7-2 3-3 6-8 26-2 7-5 17-6 22-2 5-3 11-4 13 0 3-2 12-4 20-3 18-5 36-3 41 3 7 1 6 69 6 34 0 72 0 84 1 13 1 40 1 61 2h38c1 2 47 0 55-2z"/></svg>