<svg xmlns="http://www.w3.org/2000/svg" width="1344" height="566"><path d="M0 283V0h1344v566H0V283m732 278c15-3 21-6 24-14 2-4 2-5 1-8s-2-9-2-13c-1-5-1-14-2-19-2-13 0-53 5-91 2-22 1-48-2-61-5-18-14-38-22-50-3-3-10-12-16-19-14-15-15-16-15-21 0-3 3-16 7-27 7-19 10-41 8-56-1-4-1-15-2-24-2-38-5-52-13-66-6-10-17-21-28-29-21-14-53-28-71-30-17-2-38 0-67 7-23 5-42 18-55 36-11 17-16 32-21 64-5 31-5 32-11 37-7 6-8 8-5 26 1 8 1 22 1 29 0 12 0 14-2 17-5 7-14 12-46 26-17 6-48 22-58 28-5 3-12 7-16 9-8 6-21 15-28 21-14 13-39 38-44 45-3 4-7 10-10 13-4 5-14 22-16 29-3 7-8 22-9 28-3 10-5 31-5 42 1 7 1 20 2 30 1 27 3 35 8 38 3 1 8 1 51 1 114-2 168-2 273 1 21 1 41 1 45 1h67c25 0 48 1 52 1 6 1 7 1 22-1z"/></svg>