<svg xmlns="http://www.w3.org/2000/svg" width="1344" height="566"><path d="M0 283V0h1344v566H0V283m615 278c1 0 4-2 6-3 5-5 11-9 15-10 7-1 14-5 21-12 10-8 13-12 17-20 6-13 6-15 6-48 0-19 0-33-1-35-3-10-3-17-2-31 1-8 3-17 4-21 2-9 3-39 1-50 0-5-2-11-3-13-2-4-18-20-27-26-8-5-27-21-30-25-1-1-2-3-2-5 0-4 11-25 15-29 2-2 6-3 10-5 9-2 12-5 12-13 1-3 2-11 3-19 1-14 1-32-1-44-1-5-3-15-3-24-2-17-5-30-8-34-2-4-11-12-15-15-2-1-7-4-12-6-29-12-40-14-57-10s-24 8-34 16c-9 7-13 11-17 19-4 5-4 8-8 30-1 4-2 12-4 20-4 19-5 24-6 47 0 12-1 21-2 23-2 4-5 5-21 6-9 0-18 1-20 1-13 3-23 6-29 10-5 4-8 5-13 6-11 2-15 4-18 11-2 5-3 5-5 5-1-1-3-1-5-2-5-1-24 7-54 23-13 7-28 18-34 25-12 13-24 43-24 61 0 5 1 7 4 13 2 3 5 11 7 17 6 15 6 15 22 23 19 9 23 12 27 17 3 5 16 33 21 46 5 14 8 21 14 34 8 19 9 21 12 32 2 10 4 13 8 13 2 0 5-3 9-11 3-6 4-6 7-6 2 0 3 1 6 4 2 3 5 6 7 8 3 2 4 2 12 2 6-1 9 0 11 0 2 2 48 3 101 3 7 0 13 1 14 1 2 1 7 2 12 2 10 1 47 0 51-1z"/></svg>