<svg xmlns="http://www.w3.org/2000/svg" width="1344" height="566"><path d="M0 283V0h1344v566H0V283m742 278c26 0 56 0 64-1 98-2 196-2 219-1 26 2 108 2 121 0 11-1 13-3 13-8 0-6-7-24-15-38-6-12-9-16-17-24-10-11-16-15-49-32-9-5-18-10-21-12-2-1-8-6-13-9-5-4-12-9-17-11-32-15-31-14-39-23-4-5-11-12-15-17-13-14-16-16-34-14s-21 1-25-10c-5-9-4-12 4-21s15-20 18-28c3-7 3-8 3-18-1-27-1-23 5-38 12-28 18-48 29-85 3-12 4-27 3-38-1-7-2-10-7-21-6-12-9-16-28-36-4-3-8-8-9-11-4-6-8-7-16-7-10 1-13 0-22-9-6-7-8-9-13-11-3-1-7-2-8-2-2 0-7-1-12-3-11-3-20-4-35-2-4 1-14 2-22 2-20 2-29 4-49 14-6 3-15 7-20 10-10 4-11 5-24 18-20 20-24 27-28 55-3 15-5 22-16 52-4 12-8 26-9 37-1 6-1 23-1 51v44l3 13c2 7 4 16 5 19 1 6 3 11 10 29 5 11 8 20 11 36 4 14 4 20 3 23-1 2-16 10-33 17-6 2-14 6-18 7-9 5-39 22-46 28-4 2-10 6-15 9-6 3-9 6-11 8-1 2-3 6-5 9-8 10-17 26-19 34l-3 9 2 2c3 3 5 4 16 5 8 1 95 0 185-1z"/></svg>