<svg xmlns="http://www.w3.org/2000/svg" width="1344" height="566"><path d="M0 283V0h1344v566H0V283m1064 275c9-1 17-2 19-2 5-2 6-5 3-13-3-7-19-39-25-49-3-5-7-12-10-17-2-5-8-13-13-18-19-22-32-36-40-44-14-14-20-22-26-35-3-6-8-17-12-26l-8-15-12-12c-13-12-14-14-14-19s6-17 11-21c8-6 15-12 18-17 5-7 11-24 13-35 2-12 3-13 11-41 7-21 7-22 7-35 1-25-1-40-11-68-7-23-25-46-49-64-13-10-20-14-30-17s-14-3-62-4c-39-1-42-1-58 1-8 1-18 3-20 4-9 2-28 12-35 17-13 10-25 27-33 44-3 7-10 30-13 40-2 8-2 27 0 45 1 10 2 21 3 26s2 15 2 24c3 26 5 39 11 68 1 5 3 13 4 19 1 5 3 15 5 22 7 27 15 35 44 42 14 3 18 6 21 10 3 7 0 9-22 21-20 10-33 19-42 28-16 15-21 29-14 43 4 9 9 23 10 28 1 3 3 9 6 15 3 5 6 11 7 13 1 5 3 8 6 9 4 1 11 11 15 19 1 4 4 8 5 8 5 3 14 5 35 6 11 1 21 1 21 2 3 1 257-1 272-2z"/></svg>