<svg xmlns="http://www.w3.org/2000/svg" width="1344" height="566"><path d="M0 283V0h1344v566H0V283m763 276 65-1 6-3c7-4 13-10 18-18 4-8 5-11 7-24 2-12 4-18 7-19 2 0 6 2 15 9 10 7 14 9 28 13 13 5 30 7 42 5 7 0 8 0 10 2 2 1 4 4 4 7l2 4 17 1c18 1 20 1 36-3 15-4 17-4 19-7 2-2 2-5 2-9 0-5 0-7-4-15-6-10-10-16-17-20-6-4-7-6-9-19-3-17-8-22-29-36-15-11-16-12-27-25-5-6-12-14-16-19-12-12-24-34-25-46-1-3-1-14-2-24-1-15-1-20-3-24-2-7-20-33-23-35-1-1-7-3-12-5-13-5-28-11-31-14-4-3-5-5-1-11 2-4 2-5 3-21 0-17 1-23 7-37 3-7 2-10-1-31-1-6-3-16-4-22-2-13-4-18-15-40-11-20-15-26-26-33-9-6-17-9-33-12-27-5-41-2-58 11-11 9-20 21-29 38-12 21-23 53-35 98-9 34-11 42-18 50-5 7-12 13-22 17-4 3-11 6-15 9-9 5-11 9-15 26-2 9-5 15-13 31-24 50-25 51-33 80-6 18-7 25-12 50-5 31-6 44-6 63 0 13 0 14 3 19 2 5 3 6 10 9 11 6 24 10 36 12 7 0 13 1 15 2 2 0 4 2 8 6 8 9 11 10 28 11 27 1 81 1 146 0z"/></svg>