<svg xmlns="http://www.w3.org/2000/svg" width="1344" height="566"><path d="M0 283V0h1344v566H0V283m1158 278c13-1 20-2 21-3 3-2 2-6-1-16-4-12-8-19-22-35-17-20-31-34-50-49-8-7-23-19-33-28-20-17-25-21-40-31-6-4-16-11-23-16-13-10-20-13-24-14-2-1-9-1-17-2-11-1-14-1-19-4-7-3-10-6-12-12-1-3-1-7 1-20 3-22 9-39 19-53 11-15 18-32 24-56 4-17 4-24 2-32-1-4-1-13-2-31-1-33-4-46-12-63-9-18-25-33-50-46-19-10-36-14-58-14-19 0-29 1-40 5-17 6-31 14-44 27-17 17-25 37-28 72-2 18-5 30-7 35-3 7-4 11-2 23 4 35 8 51 13 61 8 17 19 45 25 68 2 6 2 10 2 20 0 12-1 12-3 14s-18 9-56 27c-8 4-19 9-24 12-21 12-50 33-70 51-13 12-36 39-44 53-7 13-8 15-13 30-4 13-5 19-2 22 4 4 6 4 79 4 38 0 79 0 92-1 36-1 179-1 224 0 22 1 69 1 104 2 35 0 64 0 64 1 0 0 3 0 26-1M50 558c7-1 52-1 106 1 29 1 49 1 80 0 99-3 119-3 175-3 32 1 70 1 84 1 15 1 29 1 33 0s9-1 11-2c2 0 4-1 6-3l3-3-3-20c-2-11-4-28-6-39-8-65-9-67-26-100s-21-37-62-63c-9-5-37-20-48-24-7-3-49-24-60-30-21-11-36-24-41-33-3-7-3-8 0-20 5-27 12-46 17-51 1-1 5-3 9-5 9-5 15-9 21-17 14-17 19-34 14-51-2-9-1-16 4-32 6-20 7-29 7-41 1-11 0-13-6-17-4-2-29-3-148-2-110 0-103 0-106 6-4 7-12 48-14 71-1 15-1 42 2 57 1 11 2 15 8 37 3 13 6 30 5 34s-5 5-13 6c-9 2-16 6-33 21-25 23-35 30-53 36-5 1-9 3-10 4-5 4-5 4-5 144 0 128 0 131 2 135 1 2 3 4 3 4 2 1 36 0 44-1z"/></svg>