<svg xmlns="http://www.w3.org/2000/svg" width="1344" height="566"><path d="M0 283V0h1344v566H0V283m364 277c6-1 52-1 102-2 115-1 108-1 132 1 22 1 217 2 228 0 13-1 14-3 14-21 0-13-1-21-4-28-2-6-4-8-12-16-15-15-42-35-65-49-3-2-7-4-8-5s-6-5-11-8c-10-7-17-15-22-24-2-3-3-7-3-8 0-4 7-17 17-30 19-25 32-48 38-64 2-4 5-16 7-27s6-28 9-39c8-30 9-35 8-68 0-31-1-40-6-55-8-23-19-39-44-60-13-12-19-16-28-20-9-5-18-7-35-8-8-1-18-2-23-3-6-2-14-3-18-3-11-1-32 1-42 3-21 6-47 25-63 46-19 26-23 40-26 80-3 35-4 39-10 50s-8 17-8 30 2 22 6 31c3 6 6 10 16 21 14 14 16 16 17 28 0 8 0 8-9 16-4 2-14 12-24 21-9 9-20 19-24 22-9 7-24 15-32 16-7 1-13 3-27 9-7 3-17 7-24 9-53 19-65 25-76 34-9 9-16 24-28 60-5 16-12 47-12 53s3 9 9 9c7 1 68 0 81-1z"/></svg>