<svg xmlns="http://www.w3.org/2000/svg" width="1344" height="566"><path d="M0 283V0h1344v566H0V283m650 280c25-1 87-2 108-1 24 1 48 0 51-3 3-2 3-12 1-32-1-7-3-23-3-33-4-41-9-71-17-85-6-13-30-37-44-44-3-1-10-6-16-10-5-4-11-7-12-8s-6-4-10-6c-4-3-9-7-11-8-6-3-18-15-21-20-1-2-4-6-6-9-4-7-8-17-8-22 0-2 3-9 5-16 5-13 11-35 15-52 1-4 4-12 6-17 5-12 6-13 3-23-2-8-2-9-1-28 1-22 1-34-3-52-2-11-6-17-16-27-14-12-31-22-46-25-12-2-42 4-57 11-3 1-8 3-11 4-7 2-12 5-14 9-1 2-6 9-12 16-13 17-17 25-20 41-1 6-2 16-2 22 0 13-1 16-6 21-2 3-4 5-5 7-3 5 1 34 5 41 1 1 6 7 11 11l9 9 2 9c2 8 2 12 2 28l1 18-4 5c-7 11-10 13-30 17-33 6-60 21-78 40-7 8-21 31-24 42 0 1-2 6-4 11-14 37-21 57-28 79-10 34-13 44-13 50-1 4-2 9-2 12-1 7 0 12 4 14 3 2 31 4 45 2 11-1 125 0 200 2 20 0 37 1 38 0h18z"/></svg>