<svg xmlns="http://www.w3.org/2000/svg" width="1344" height="566"><path d="M0 283V0h1344v566H0V283m740 278c126 0 133 0 140-4 2-1 4-3 5-6 5-11 2-62-5-79-5-12-20-25-48-44-6-4-13-9-16-12-4-2-12-8-20-12-18-13-22-17-33-39-9-18-10-19-10-25 0-12 8-30 25-56 15-22 18-29 22-46 2-8 4-19 6-24 4-16 5-33 5-58 0-21 0-22-2-31-8-26-19-44-37-61s-30-23-48-26c-42-7-60-8-81-2-23 6-53 32-65 56-7 14-10 25-13 51s-4 32-10 42l-4 9-1 13c0 18 1 25 8 38 5 11 9 16 17 22 3 3 4 4 6 10 0 4 1 12 2 18 0 10 0 11-3 16-3 6-26 29-34 35-3 1-5 3-6 4-1 3-24 11-45 18-5 1-12 3-15 4-4 1-11 3-16 4-19 6-30 9-44 15-10 4-18 13-25 25-5 11-18 41-23 54-2 5-5 11-7 14-1 4-4 11-6 17s-7 18-11 27c-11 24-12 28-6 31 1 1 18 1 61 1 32 0 68 1 79 1 12 0 47 1 78 0h180z"/></svg>