<svg xmlns="http://www.w3.org/2000/svg" width="1344" height="566"><path d="M0 283V0h1344v566H0V283m597 274c18-1 35-1 37-1s52 0 110 1c114 1 110 1 114-4 1-3 1-5 1-12-1-5-2-14-2-19-2-7-2-21-3-54-1-30-1-47-2-54s-2-17-3-24c-2-26-3-37-4-43-1-4-3-11-4-17-2-12-3-14-9-22-5-8-6-10-17-21-23-26-22-26-40-35-12-6-20-10-29-17-6-5-15-12-20-15-9-6-12-10-12-15 0-2 2-11 4-19 6-22 7-39 7-64-1-24-2-29-8-42-8-15-21-27-41-33-10-3-12-3-24-3s-13 0-19 2c-10 4-19 12-22 18-5 9-5 15-4 42 2 19 2 25 1 29-2 8-1 12 6 25 3 6 6 12 6 13 0 2-4 9-6 11-4 2-21 11-33 15-37 13-61 24-81 37-27 17-32 21-46 39s-32 47-34 53c-1 8-9 31-12 37-1 4-3 10-4 14-2 10-5 22-7 25-1 1-9 11-19 21-10 11-20 22-23 25-8 9-21 30-28 44-3 7-8 16-12 21-3 4-7 10-9 13-2 2-3 5-3 6 0 3 15 11 28 14 2 1 8 2 12 4 10 3 21 4 51 5 15 1 28 1 30 1 6 1 143 0 173-1z"/></svg>