<svg xmlns="http://www.w3.org/2000/svg" width="1344" height="566"><path d="M0 283V0h1344v566H0V283m889 273c4-5 5-11 6-47 2-43 1-53-6-73-3-8-5-16-6-18 0-3-2-10-3-16-2-6-5-18-7-25-1-7-4-17-6-21s-3-10-4-14c-1-6-2-11-7-22l-6-18c-8-24-16-38-31-55-10-12-17-17-27-22-8-4-12-8-16-15-3-6-4-19-1-34 5-31-2-54-20-70-16-15-38-18-60-9-5 2-9 4-11 4-3 0-13 6-19 10-7 6-18 19-23 26-3 4-4 9-6 15-2 10-3 17 0 27 1 7 2 9 6 14 1 2 2 6 4 13 0 5 1 10 2 12 0 1-2 4-5 9s-6 10-7 13c-5 18-7 24-14 38-4 9-9 19-10 22-1 4-6 12-11 18-4 7-10 15-11 17-7 9-14 17-37 39-24 24-25 25-40 34-16 9-13 8-36 7-28-1-27-1-32 2-2 1-8 3-17 6-7 1-14 4-16 5-6 4-6 11-2 23 5 14 12 19 29 21 5 1 10 2 12 3 5 1 12 0 26-4 23-8 30-9 41-10 7 0 11 0 13 1 1 0 6 6 11 12 10 12 13 14 25 19 16 7 18 7 24 6 3-1 7-1 12 0s13 1 18 1c11 0 14 1 14 5 0 1 1 4 3 6 3 4 3 6 4 11 0 6 1 7 6 13 18 21 17 20 42 21 11 1 22 1 26 2h170l3-2z"/></svg>