<svg xmlns="http://www.w3.org/2000/svg" width="1344" height="566"><path d="M0 283V0h1344v566H0V283m884 275c5-1 7-4 10-14 2-7 2-12 2-20 0-6 1-18 1-27 1-14 1-18 0-29-2-13-5-25-7-32-2-4-5-19-7-27 0-2-1-8-3-13-1-5-3-11-4-14-2-9-6-21-8-30-2-4-3-8-3-9 0-2-6-21-8-24-1-1-2-6-4-11-3-13-7-23-14-35-6-13-12-21-24-33-7-7-10-9-18-13-10-5-15-9-18-15-4-7-5-18-3-27 1-2 2-10 2-17 2-11 2-14 1-22-3-15-7-25-16-34-16-18-37-23-59-16-5 2-11 4-14 5-12 3-16 5-28 18-19 19-24 29-24 47 0 9 0 10 3 14 5 6 8 17 9 30v12l-3 4c-5 7-9 15-11 22-2 12-10 29-15 37-2 2-4 6-5 8-1 7-7 17-10 22-2 2-7 9-12 15-10 15-17 24-31 36l-21 21c-10 10-12 11-26 20l-16 9-14-1c-8 0-19 0-24-1-9 0-10 0-14 3-3 2-10 4-17 6s-13 5-15 5c-8 5-8 18 2 33 3 5 4 7 10 9 3 2 11 4 17 6 13 3 14 3 27-1 8-2 28-8 40-12 5-1 11-2 14-2 4 0 5 0 13 10 12 12 16 15 32 22 13 6 14 6 26 4 6 0 9 0 18 3 12 3 12 3 20 9 6 5 8 7 8 13 0 5 1 7 12 19 11 14 13 14 37 15 10 1 22 1 27 2 15 1 160 1 165 0z"/></svg>