<svg xmlns="http://www.w3.org/2000/svg" width="1344" height="566"><path d="M0 283V0h1344v566H0V283m636 277c8-1 58-1 113-1 54-1 99-1 100-1 0-1 22-1 49-1 71-1 70-1 42-29-21-22-27-26-68-47-4-2-14-6-22-8-7-3-15-6-17-7s-4-2-5-2c-4 0-35-17-42-22-5-4-7-8-5-15 1-8 7-19 20-37 6-8 13-19 16-24 24-42 28-46 48-64 9-8 21-25 28-40 6-12 8-19 9-29v-9l-6-6c-8-7-8-9-5-20 11-49 15-70 16-94 1-27-3-50-13-68-7-12-12-19-17-23-10-9-15-9-101-10-40 0-86 0-104 1-44 1-49 3-56 13-5 7-12 22-15 31-7 18-14 49-16 74-4 28-4 30-15 32-15 5-20 8-24 17-2 4-2 8-3 15 0 12 1 18 6 34 6 19 10 25 20 36 5 4 9 9 10 11 0 1 1 5 1 8 0 12-6 51-10 63-2 8-13 28-16 30-5 4-14 6-52 8-7 0-12 1-14 2-4 2-13 13-24 30-9 13-19 25-29 34-6 5-10 8-18 12-14 7-14 7-13 25 0 9 0 22 1 29 1 8 2 19 3 26 1 13 3 18 9 21 7 3 34 4 92 5h54c1 1 59 1 73 0z"/></svg>