<svg xmlns="http://www.w3.org/2000/svg" width="1344" height="566"><path d="M0 283V0h1344v566H0V283m616 277c17-1 53-2 55-1 0 1 34 1 74 1 78 0 76 1 79-4 2-3 3-18 1-29-3-22-19-76-27-92-3-4-3-6-3-10 2-13 2-14 0-17-2-2-17-12-18-12s-14-7-31-15c-16-8-32-15-36-17-9-3-24-11-27-14-3-2-3-3-3-9 0-9 8-47 14-71 6-22 6-38 1-83-1-10-2-20-2-23 0-6-4-30-6-38-1-3-2-7-2-8 0-3-6-22-8-26-13-25-23-40-37-52-19-16-52-31-69-31-7 0-19 2-31 7-4 1-13 3-20 5-15 3-23 7-32 16-17 17-28 37-36 70-3 12-9 42-12 68-1 8-3 22-4 31-8 54-9 78-3 116 2 10 0 15-4 21-5 5-7 6-21 8-6 2-13 4-15 4-1 1-7 3-12 5s-13 6-17 8c-5 3-12 7-17 9-12 5-31 17-36 21-4 3-4 5-7 14-2 5-6 16-9 25-7 16-9 22-17 61-4 18-6 29-7 48v10l2 2c3 1 7 1 43 2h61c55 0 104 0 133 1 45 1 86 1 106-1z"/></svg>