<svg xmlns="http://www.w3.org/2000/svg" width="1344" height="566"><path d="M0 283V0h1344v566H0V283m1163 277c9 0 16-1 18-3 3-3 2-6-2-18-12-27-23-48-38-67-8-12-27-29-39-37-10-7-36-20-46-24-8-3-40-17-46-21-10-7-20-11-35-16-14-5-22-8-31-16-9-7-9-11-1-27 18-34 32-63 34-71 6-18 9-34 11-62 1-11 2-22 3-25 0-3 1-14 2-25 0-19 0-20-2-30-8-30-15-42-34-62-10-11-19-17-32-23-6-3-12-6-14-8-3-2-8-4-11-6-6-2-7-2-18-1h-54l-12 5c-22 11-45 28-55 41-12 16-13 24-13 74-1 38 0 37-8 45-2 3-4 7-6 10-2 5-2 7-2 15 0 15 4 27 18 45 4 6 6 10 7 13 2 8 2 21-1 38-2 16-3 20-5 24-2 2-15 12-29 22-3 2-8 6-12 8-10 8-25 16-35 18-8 2-44 16-61 24-4 2-13 5-20 8-18 7-41 19-52 26-13 9-31 27-46 48-4 5-16 27-19 35-5 12-8 25-8 33 1 10 0 10 35 9h76c25 1 63 1 84 0 61-1 434 0 450 1h49z"/></svg>