<svg xmlns="http://www.w3.org/2000/svg" width="1344" height="566"><path d="M0 283V0h1344v566H0V283m380 278c7-1 193-2 278-2h361c196 1 199 0 219-4 12-3 15-4 16-7 1-4-4-9-17-20-3-3-8-6-10-8-11-7-19-22-31-59-7-21-10-28-12-31-4-4-10-6-18-7s-17-5-24-12c-2-3-19-35-28-54-3-7-8-18-11-26-2-7-6-18-8-23-7-16-16-43-27-79-5-14-8-23-14-34-6-12-10-15-16-15s-8 2-11 7c-2 5-5 8-6 8-2 0-10-12-13-19-5-10-15-24-19-27-2-1-5-2-8-2-5 0-6 0-10 5-2 3-5 5-6 5s-4-2-6-5c-6-6-10-9-14-9-8 0-12 4-14 14 0 6-3 10-7 10-3 0-8 3-11 7-2 3-3 19-1 28 1 4 2 10 3 12 1 11 5 25 13 52 3 10 7 21 7 26 4 17 6 22 17 38 5 6 13 16 17 22 11 15 14 18 29 36 30 34 39 46 51 68 8 14 15 33 15 38 0 3-1 4-3 4-5 0-12-3-34-14-25-12-28-15-36-30-3-6-6-12-7-13-1-4-9-18-12-22-6-7-34-30-45-37-11-6-17-8-29-9-14 0-46 1-66 4-15 2-33 3-40 1-2 0-5-2-6-4-2-2-2-3-2-10 0-10 3-28 8-46 3-15 4-17 10-20 4-3 6-7 9-19 3-16 1-28-11-69-6-22-18-52-26-68-3-4-6-12-8-16-12-28-33-58-53-75-19-16-34-23-58-30-23-7-34-8-50-7-28 2-58 8-79 15-13 5-30 13-38 19-16 12-30 30-42 55-15 29-20 55-13 69 8 21 9 30 5 67-1 11 0 13 7 33 4 10 4 11 5 26 1 18 3 27 8 36 8 16 18 27 36 41 7 5 9 7 11 12s2 6 1 14c-1 10-4 18-13 32-4 8-10 13-21 22-5 4-29 15-32 15 0 0-2-1-3-2-1-2-1-8-2-27-1-15-1-25-2-29-3-9-10-27-13-32-4-7-10-10-15-7-11 6-14 17-14 55 0 20-1 24-3 25-3 2-5 0-8-6-5-10-8-27-14-71 0-7-2-18-3-24-6-52-7-54-12-59-4-4-9-5-13-2s-6 15-8 44c-2 34-4 44-8 35-3-8-6-16-8-24-7-19-18-48-20-52-4-7-10-11-17-12-4 0-5 0-8 3-3 2-3 4-3 8 0 3 1 12 3 19 5 20 9 39 13 66 0 4 1 12 2 16 1 6 1 8 0 9-3 3-11-10-25-42-13-29-14-31-20-34-10-5-18 0-18 12 0 4 2 12 8 33 1 4 3 11 4 16 2 5 4 11 5 13 0 2 2 6 3 9s3 9 4 13c5 12 2 12-9 0-10-11-24-23-30-26s-12-3-16 1c-2 2-2 3-2 9 1 8 5 17 15 33 7 9 12 15 35 44 18 21 24 29 43 57 4 6 12 15 16 17 2 2 6 3 11 3 13 1 64 1 72 0z"/></svg>