<svg xmlns="http://www.w3.org/2000/svg" width="1344" height="566"><path d="M0 283V0h1344v566H0V283m483 276c19-1 46-1 61-2h34c4 0 39 0 78 1h306c16 0 37 1 47 1 11 1 29 1 51 1 30 0 34-1 36-2 1-1 1-3 1-4-2-8-22-25-44-38-18-11-65-35-77-40-22-9-31-14-41-24-9-8-13-14-13-18 0-2 7-23 11-32 2-4 4-9 4-10 4-12 16-39 24-54 7-14 11-19 19-21 7-2 17-8 23-12 4-3 12-13 18-21 4-5 12-23 14-29s3-17 1-22c-1-1-4-5-7-8-5-4-5-5-5-10s1-8 7-29c6-18 12-39 14-50 2-15 5-38 5-44 0-11-7-41-13-56-5-12-14-24-19-27-9-4-10-4-96-5-47-1-95 0-114 0-43 1-42 1-52 19-15 28-20 43-30 93-2 11-5 21-6 24-3 5-4 5-15 8-5 1-11 7-14 12-8 15-6 49 4 69 3 7 6 10 12 16 5 5 9 10 10 12 2 4 1 12-2 45-4 42-9 57-24 77-3 5-5 7-10 9s-6 2-18 2c-7-1-18-2-25-2-12-1-13-1-17 1s-14 12-27 27c-14 16-29 29-45 36-4 2-14 6-22 10-20 9-30 14-47 21-22 9-50 25-62 35-8 6-22 22-27 29-6 9-3 12 11 12 6 0 15 1 20 1 6 0 14 1 18 0 5 0 24-1 43-1z"/></svg>