<svg xmlns="http://www.w3.org/2000/svg" width="1344" height="566"><path d="M0 283V0h1344v566H0V283m1033 278c55 0 84-1 90-3 4-2 5-5 3-13-4-14-10-24-27-37-5-4-13-11-16-15-15-18-32-32-54-46-19-13-20-14-33-21-21-12-27-18-38-34-2-4-6-10-8-12-5-7-10-14-40-71-10-18-11-20-11-25 0-4 0-5 5-11 9-10 15-19 18-26 5-11 15-45 17-58 5-39-7-95-27-122-8-10-22-25-29-30-16-10-45-23-61-26-20-3-46-1-86 9-49 12-75 21-89 35-9 8-22 28-26 41-4 11-6 34-6 58 1 19 1 23 4 36 8 40 13 62 15 74 2 8 5 20 9 31 3 10 9 28 13 40 12 36 16 42 28 48 4 2 11 5 16 5 14 4 20 7 15 12-3 4-19 13-32 19-26 12-54 30-66 42-7 7-11 14-14 22-2 10-1 39 3 45 0 2 3 5 5 8 1 2 4 7 5 10 4 9 6 10 28 13 21 2 65 3 206 2h183z"/></svg>