<svg xmlns="http://www.w3.org/2000/svg" width="1344" height="566"><path d="M0 283V0h1344v566H0V283m524 278c6-1 45-1 103-1 51-1 96-1 99-1 58-4 98-4 120-2 46 4 149 5 153 2 4-4-6-15-25-28-20-13-35-24-49-37-18-17-24-24-28-33-3-7-4-8-8-10-2-1-6-5-9-8s-8-8-12-10c-3-2-8-7-11-10-2-3-9-10-15-16-8-9-10-12-12-18-5-10-6-20-4-41 3-43 3-47-4-88-9-50-9-48-9-65 0-10-1-19-1-24-2-10-11-49-14-59-6-22-24-47-39-56-13-7-39-17-50-18-32-4-36-4-50 2-4 2-11 4-14 5-4 1-9 2-11 3s-8 3-13 5c-9 4-10 4-19 13-8 8-11 12-17 23-7 12-8 16-10 23-3 14-4 37-2 55 2 15 2 17 0 29-3 14 1 29 13 46 4 6 7 13 9 21 1 2 1 5 0 10 0 4-1 9-1 12-1 3-2 7-3 9s-2 7-2 11c-1 4-2 10-3 13-3 7-6 8-14 9-3 1-7 2-8 3-4 2-10 9-16 21-8 12-20 26-29 32-7 5-9 5-23 8-3 0-6 1-8 2-7 4-32 9-48 10-15 1-18 2-28 10-3 2-8 6-11 9-6 4-12 11-20 26-13 21-17 33-18 52-2 15-2 16 0 21 1 3 2 10 3 15 1 10 2 15 6 19 6 5 4 5 65 6h58c3 1 18 1 29 0z"/></svg>