<svg xmlns="http://www.w3.org/2000/svg" width="1344" height="566"><path d="M0 283V0h1344v566H0V283m814 277c3-1 5-6 5-12 1-3 2-6 3-8 1-5 1-15-1-29 0-6-1-16-2-21s-2-13-2-16c-1-4-2-13-3-20-1-11-1-15 0-27 1-7 3-17 3-21 1-3 3-12 4-19s3-15 4-19c1-7 4-23 5-41 2-11 3-17 7-29 5-17 8-31 8-35-1-2-1-9-2-18s-2-17-2-19c-1-3-1-9-2-16-1-12-3-16-11-27-16-20-15-19-11-42 3-14 3-17 3-31-1-25-3-30-17-37-9-4-10-4-18-4-13 0-21 3-29 10-8 9-9 11-10 43 0 31 0 30-13 32-10 3-14 5-17 12-4 11-11 38-15 63-2 13-4 23-9 32-5 11-6 12-15 9-13-5-27-3-27 3 0 3 4 10 9 14 3 2 5 3 13 4 11 1 13 2 25 12 7 6 8 7 16 5 5-1 5-1 9 1 2 2 6 4 9 5 6 2 6 2 8 12 0 5 1 6 4 9 2 2 11 7 20 12 14 7 18 9 24 15 11 11 11 15-1 38-4 7-11 20-15 30-7 13-10 18-15 23-3 4-6 8-6 9 0 2 1 6 2 10 1 5 1 13 1 24l1 16-4 7c-5 9-5 14-2 21 4 8 5 8 22 8s15-1 23 9l3 4h8c5 0 9 0 10-1z"/></svg>