<svg xmlns="http://www.w3.org/2000/svg" width="1344" height="566"><path d="M0 283V0h1344v566H0V283m722 276c8-2 12-8 12-15 0-3-1-5-4-9-5-7-7-10-8-19-1-4-2-9-2-13-2-10-2-43-1-47 2-6 3-6 21-5 19 3 41 3 64 1 39-4 52-5 58-6 3-1 9-1 14-2 22-3 51-12 64-21 12-10 27-27 28-35 1-6-1-14-10-30-9-15-18-28-30-41-9-10-20-18-36-25-10-5-16-10-30-22-5-5-9-7-17-11-6-2-12-5-13-6-2-2-8-5-13-7s-14-6-19-9c-8-4-9-4-16-4-8 0-12-2-24-9-6-4-10-7-21-13-14-9-30-26-36-40-1-2-3-9-4-17-4-39-8-50-23-70-6-9-20-21-28-26-13-7-29-12-52-15-21-3-33-2-49 4-6 2-13 4-17 5-13 4-28 13-38 23-7 8-10 13-15 25-2 6-3 8-10 21-3 4-8 13-12 20s-9 15-10 17c-4 5-18 12-29 15-5 2-13 5-18 7-12 5-12 5-22 6-9 1-11 2-22 9-14 9-35 20-44 22-3 0-17 4-25 7s-18 9-21 12c-5 5-16 23-20 30-2 4-2 8-3 16-1 14-1 17 7 37 11 27 19 36 61 70 4 4 10 8 13 10 8 6 14 12 16 19 1 5 1 9 1 30-1 42-5 72-13 93-4 11-2 17 5 19 1 0 13 0 25-1h86c99 0 108 1 135 0 14 0 40 0 59 1 41 1 81 1 86-1z"/></svg>