<svg xmlns="http://www.w3.org/2000/svg" width="1344" height="566"><path d="M0 283V0h1344v566H0V283m694 17c7-1 14-4 16-8 4-5 7-16 9-29 3-26 3-26 12-34 5-4 5-4 12-4 3 0 7 0 8-1 2-1 6-12 7-21 0-8-1-11-18-43-11-21-17-27-27-30-15-5-23-9-25-12-1-1-2-7-2-12-1-10-3-18-6-22-3-6-9-11-14-12-10-3-21 2-26 11l-2 5 1 10c1 5 4 13 6 17 4 9 6 18 4 22-1 1-3 4-6 7-3 2-8 8-11 13-6 8-7 9-7 15-1 3-2 9-2 12-1 2-1 9-2 14 0 7-1 12-4 21-2 6-5 16-6 21-2 4-4 11-5 15-5 16-4 20 5 22 9 3 15 7 18 12 2 3 4 4 5 4 2 0 3-1 3-6 0-9 1-9 15-8 6 1 12 2 13 2 4 2 10 9 14 15 2 5 3 6 7 5 1 0 4-1 8-1z"/></svg>