<svg xmlns="http://www.w3.org/2000/svg" width="1344" height="566"><path d="M0 283V0h1344v566H0V283m656 279c4-1 44-1 88-1 44-1 92-1 107-2s47-1 71-1c25-1 64-1 86-2 29-1 45-1 58 0 9 1 37 1 62 2h46l3-2c1-1 2-3 2-4 0-4-7-19-17-39-16-32-39-64-59-84-13-13-33-28-43-33-11-5-31-13-40-15-5-2-17-6-26-9-36-12-41-14-46-16-3 0-8-2-12-2-13-3-22-6-33-12-24-13-32-17-39-18-4 0-8-1-9 0-3 1-6-1-12-6-6-6-9-12-15-30-5-14-6-24-6-46 0-15 1-23 7-60 5-31 5-50 2-72-3-14-6-25-12-35-2-4-10-13-17-19-3-2-7-6-8-8-6-8-9-11-14-13-2-1-7-3-10-5-3-1-8-2-15-3-6-1-13-2-17-2-4-1-14-2-23-3-18 0-26 0-43 4-6 2-15 4-21 5-12 2-25 6-35 12-6 3-8 6-13 12-7 10-11 18-14 27-2 7-2 10-3 31 0 21 0 25-3 37-1 8-2 19-3 26 0 14 0 13 6 41 4 21 12 45 17 54 2 2 8 13 14 25 11 19 19 34 27 46 5 8 11 13 22 18 6 4 11 6 11 7 0 2-7 11-17 18-5 5-14 10-35 20-16 8-33 16-38 19-4 3-15 9-23 13-18 10-33 21-52 39-8 8-17 16-19 18-9 6-14 15-17 27 0 4-3 13-5 19-2 8-3 13-3 14 1 4 5 5 13 7 13 3 155 3 175 1z"/></svg>