<svg xmlns="http://www.w3.org/2000/svg" width="1344" height="566"><path d="M0 283V0h1344v566H0V283m667 278c156 0 199 0 202-1 2 0 4-1 5-3 2-2 2-4 2-16 0-37-2-53-9-65-2-6-22-26-30-32-11-7-45-30-48-31-1-1-7-5-12-8-14-10-17-14-35-47-3-6-4-14-3-20 1-7 7-19 16-34 4-6 9-14 11-18 2-3 6-10 10-16 4-7 6-10 7-15 2-12 6-27 9-37 10-33 12-80 3-106-8-24-32-54-55-68-11-6-21-10-35-11-6-1-15-2-21-3-15-3-22-3-36-2-26 2-45 12-67 35-20 21-28 43-31 76-2 20-4 33-6 38-2 2-4 7-6 10-3 6-3 7-4 18 0 15 1 26 5 33 11 18 13 21 18 26 7 7 9 12 11 24 2 18 1 23-6 33-6 7-26 26-34 33-8 5-25 13-44 19-7 2-20 6-28 9-7 2-19 6-26 7-13 4-32 11-38 15-5 4-10 10-15 19-4 8-17 39-26 62-3 8-9 21-12 29-9 23-13 34-14 38 0 3 0 4 3 6l2 2h63c35 0 80 0 99 1 20 0 38 1 40 0h135z"/></svg>