<svg xmlns="http://www.w3.org/2000/svg" width="1344" height="566"><path d="M0 283V0h1344v566H0V283m543 277c7-2 11-5 17-13 4-6 5-8 5-12 0-3 1-8 5-15 2-6 6-17 8-23 3-7 5-13 5-14 1-2 5-1 8 1 2 1 5 2 13 2 12 0 15-1 20-9 1-2 5-7 8-11l6-8c0-1 1-2 3-4 8-10 21-41 21-52 0-7 3-17 11-32 8-14 9-17 15-22 7-6 12-14 14-22 2-7 3-34 2-39 0-2-1-5-1-6-2-2-6-1-10 3-3 1-9 5-14 7-9 4-10 4-17 4-5 0-7 0-11 2-6 4-30 23-38 30s-12 9-14 7c-3-2-10-15-16-29-8-17-11-21-22-28-10-6-33-17-36-18-7-3-9-9-5-17 2-5 4-6 16-12 9-5 11-6 16-12 10-13 13-20 17-39 1-6 3-15 4-21 6-27 6-28 6-43 1-23-2-31-13-38-2-2-8-7-14-11-11-9-23-16-33-19-13-4-23-5-29-5-7 1-19 5-28 9-15 7-25 26-36 66-4 14-9 45-11 65-1 7-1 13-2 13l-2 14c0 7-2 14-2 16-2 7-1 11 2 14 2 2 4 3 4 3 2 0 7 5 7 7 0 3-4 10-8 15-2 1-5 7-8 13l-6 11v11c0 6 0 14 1 19 2 16 4 49 3 54 0 2-2 6-3 10-2 5-2 8-3 22 0 19 1 26 4 40 2 7 3 9 7 12 2 2 4 5 5 8 1 5 5 37 5 42 0 3 1 9 3 16 1 6 2 13 3 17 1 8 2 10 7 14 6 6 8 6 44 6 26-1 36-1 43 0 12 2 18 2 24 1z"/></svg>