<svg xmlns="http://www.w3.org/2000/svg" width="1344" height="566"><path d="M0 283V0h1344v566H0V283m797 278c10-2 73-2 189-1 24 1 46 0 48 0 7-1 8-3 8-12-1-11-3-18-11-29-4-7-8-14-10-20-3-7-5-10-8-13s-14-9-19-11c-1 0-11-4-21-9s-20-9-21-10c-1 0-9-3-17-7-13-6-14-7-16-11-3-6-3-9 2-20 2-6 5-13 7-17 1-3 4-10 6-16 9-20 11-30 13-53 3-36-1-139-7-173-6-40-20-74-39-96-10-12-30-27-43-32-10-5-32-11-42-12-9-1-11-1-25 2-5 2-8 2-15 1-20-2-32 2-55 20-34 25-45 41-58 80-7 18-8 22-12 40-2 7-4 15-5 18-3 12-8 37-11 54-1 9-3 20-4 24-1 10-3 28-5 55-3 26-4 37-6 48-4 27-7 32-24 37-3 2-8 4-11 5-2 1-9 4-15 6-20 7-33 12-50 22-20 10-44 20-62 25-5 1-10 5-14 11s-4 11 1 24c4 13 4 13-4 33-12 32-11 30-7 34l2 2h30c48 0 113-1 114-1 1-1 3-1 6 0 7 2 48 2 87 1 29-1 37-1 52 0 23 2 60 2 72 1z"/></svg>