<svg xmlns="http://www.w3.org/2000/svg" width="1344" height="566"><path d="M0 283V0h1344v566H0V283m734 182c3 0 7-1 10 0 4 0 19-2 24-3 5-2 16-5 26-7 4 0 12-2 16-4 17-4 24-6 30-7 3-1 8-2 10-3 3-1 11-1 27-1 21 1 24 0 26-2 1-2 1-19 0-24-2-11-3-15-5-28-1-10-1-18-1-32l1-18-5-8c-4-7-6-9-10-12-3-2-8-4-11-5-5-1-11-6-16-13-2-3-6-4-20-7-4-1-6-3-4-6 1-1 3-2 13-2 8 0 12 0 13-1 1-2 0-19-3-37-2-11-12-51-16-65-3-9-5-19-7-26-1-4-3-9-4-11 0-3-1-6-1-7 0-3-6-19-11-30-10-21-17-30-30-41-13-10-37-23-49-27-10-3-24-2-39 2-7 2-15 4-19 5-10 2-22 6-27 9-7 4-17 17-23 29-5 10-10 28-12 47-3 15-5 31-6 42-3 12-3 73-2 99 1 24 2 23-10 25-10 2-15 2-25 1-5-1-13-2-18-2-11 0-15 2-25 10-4 4-9 8-12 10s-8 5-11 7c-6 5-14 10-36 24-5 4-12 9-15 12-7 5-15 9-21 9-10 0-15 4-16 12-1 3-3 10-8 20-8 16-10 23-15 37-2 6-5 14-7 17-3 6-3 7-2 8 2 3 15 2 36-4 3-1 8-2 10-2s6-1 10-2c5-2 15-3 27-4 9 0 23-2 27-3 2-1 6-1 10 0 4 0 6 0 9-1 5-3 18-2 26 1 6 2 23 6 37 7 12 1 19 2 28 4 10 3 17 2 22 0 8-4 14-4 35-3 11 1 22 3 25 3 2 1 7 2 10 3 4 0 6 1 10 4l4 4 8-1c4 0 10-1 12-2z"/></svg>