<svg xmlns="http://www.w3.org/2000/svg" width="1344" height="566"><path d="M0 283V0h1344v566H0V283m290 276c2-1 4-1 7 0 4 1 62 1 196 1h191l5-2c9-3 12-7 15-19 1-5 2-11 2-13s1-7 2-11c2-5 2-9 2-16 0-9 0-11-5-25-3-9-7-20-9-24-3-7-3-8-4-20 0-11-1-12-3-15-3-2-13-7-40-19-10-5-20-9-23-10-4-2-17-7-25-10-11-4-38-17-40-20-3-3-3-3-3-12 1-15 5-28 16-56 4-11 5-16 7-27 1-12 1-15 0-25-2-23-10-60-17-78-1-3-5-14-9-24-6-20-16-41-24-54-16-24-50-50-75-57-17-5-41-6-56-3-9 2-11 3-22 9-6 4-15 9-20 12-12 6-18 11-25 19-13 16-21 34-28 62-3 13-9 51-11 66 0 4-1 14-2 21-1 16-4 60-5 93 0 26 1 36 6 56 2 11 3 18 1 21-1 2-9 6-20 11-11 3-19 8-32 18-16 11-32 21-43 27-14 7-16 10-17 23-1 6-2 12-5 20-8 21-15 57-15 72 0 6 0 6 2 9l3 2h61c41-1 61-1 62-2z"/></svg>