<svg xmlns="http://www.w3.org/2000/svg" width="1344" height="566"><path d="M0 283V0h1344v566H0V283m244 276c4-3 5-13 2-34-1-16-5-36-7-43-1-2-2-13-2-24-1-22-1-22 7-24 2-1 3-2 3-4 0-3-3-23-4-27 0-2-1-9-1-15 0-7-1-14-2-17 0-3-1-9-1-13 0-9-1-13-7-20-2-3-4-6-4-9-1-6 1-29 3-31 1 0 3-1 6-1 7 0 20-3 23-6 1-1 2-4 3-5 2-7 3-22 3-40v-18l2-4c2-3 7-9 11-14 10-13 11-14 12-25 0-8 0-9-2-11-2-1-4-2-14-2h-13l-6-5c-8-8-12-9-20-9-7 1-10 3-11 8-1 1-3 6-5 11-3 6-5 9-9 12-2 2-4 4-4 5 0 2 2 6 5 11 4 7 5 8 5 15 0 5 0 7-1 8-3 3-4 2-9-1-8-7-20-14-30-19-18-8-21-11-13-18 2-2 4-4 5-4 2 0 7-6 10-10 2-4 2-6 2-17v-13l-4-7c-2-4-4-10-4-13-1-2-2-6-2-8-1-2-3-7-4-11-2-5-3-7-6-11-5-4-11-7-21-10-18-4-31-3-44 4-8 4-11 7-15 14-3 5-3 7-3 15 0 16 3 26 10 35 4 5 7 9 11 16 1 3 4 7 5 10 2 2 6 6 8 10 4 6 4 7 4 13 0 4-1 12-1 18l-2 11-5 5c-6 5-8 9-10 18-2 11-2 12 4 19 3 3 8 10 11 15s9 13 12 18c4 5 11 16 16 23l10 14c1 0 2-3 3-5 0-3 1-6 2-7 2-2 9-1 14 1 3 1 6 2 7 2s6-2 11-5c10-6 13-6 16-2 4 5 5 6 9 6 6 0 10 2 11 5 0 3-3 21-5 25-1 3-3 4-9 6-9 4-10 5-14 13-3 6-4 7-10 10-35 17-39 19-39 25 0 2 3 9 6 15l5 12 1 15c1 15 1 17 7 38 3 12 7 25 8 29 1 3 4 11 7 17 8 16 9 17 43 17 14 0 18 0 20-2m448-142c1-1 1-6 1-15 0-11 1-16 2-22 1-5 2-10 2-19 0-11 0-12-4-21-2-4-4-11-5-13-2-6-3-37-2-46 1-4 2-14 3-23 1-13 2-17 5-25 5-11 8-16 14-20 3-3 3-4 3-6-1-2-1-6-2-9-1-8-4-13-11-19-7-5-7-6-9-15-1-7-2-8-6-13l-5-5-1-17c0-20-1-24-10-32-7-7-11-8-18-8-4 1-6 2-12 6-4 2-8 6-10 7-2 3-2 4-2 18 1 9 2 18 2 22 3 9 3 15-1 19-1 2-3 5-4 7-2 2-4 3-12 7-9 4-12 5-16 9-4 5-5 7-2 9 1 1 2 1 5 0 2-1 6-3 9-4 4-1 10-4 13-6 4-2 7-4 8-4s3-1 5-2l8-4c2-1 5-2 6-2 2 0 6-1 10-1 6-1 7-1 9 0 3 3 1 5-17 13-3 2-9 5-12 7-2 1-8 5-13 7-4 3-12 9-17 14-9 9-10 10-11 14 0 2-2 6-2 9-1 2-3 10-3 17-2 17 0 29 8 57 2 5 5 13 6 18 3 8 9 26 15 44 2 4 5 15 7 23 5 18 6 20 9 21 1 0 10 1 19 1 9 1 18 1 20 2 5 1 16 1 18 0z"/></svg>