<svg xmlns="http://www.w3.org/2000/svg" width="1344" height="566"><path d="M0 283V0h1344v566H0V283m295 276c7 0 51 0 96-1 45 0 94 0 107-1 40-1 115 0 172 2 13 0 15 0 16-2 3-2 2-8-4-21-6-12-12-20-21-28-7-7-11-9-28-15-7-2-19-8-26-11-7-4-18-9-22-11-5-2-12-4-14-6-3-1-10-4-16-6-18-6-21-8-26-11-5-4-6-6-5-12 1-4 14-33 18-41 7-12 10-15 13-20 6-6 9-7 19-7 16 0 38-4 46-8 5-3 12-10 14-15 2-4 3-6 3-25 0-22 0-26 7-51 8-27 8-37 1-62-2-9-4-20-5-25s-2-13-2-17c-1-4-1-21-2-38 0-36-1-40-8-60s-12-29-22-39c-14-14-24-19-42-22-9-2-19-2-77-2-71 0-99 1-106 3-5 2-12 7-24 18-13 12-25 27-33 42-11 20-18 41-38 123-4 17-13 45-18 59-10 28-23 62-30 76-1 4-5 14-9 22-7 19-19 40-35 65-19 28-19 28-17 30 2 1 4 2 10 2 11 1 19-1 33-8 12-6 14-7 17-4 3 2 3 12 0 24-1 5-2 10-2 13 0 2-1 8-3 12-3 7-5 11-17 25-30 38-34 44-27 49 5 4 21 6 62 5 18 0 38 0 45-1z"/></svg>