<svg xmlns="http://www.w3.org/2000/svg" width="1344" height="566"><path d="M0 283V0h1344v566H0V283m564 279h32c48 1 105 0 124-1 13-1 39-1 80-1 99 0 209 1 226 1 8 1 32 1 54 1 40 0 40 0 42-2l2-2-6-19c-3-11-7-22-9-26-4-11-12-28-17-35-3-5-5-9-6-13-1-3-2-7-3-9-1-3-7-8-12-10-66-25-90-36-95-42-5-5-5-7 8-50 2-8 4-16 5-18 4-15 5-61 3-93-2-21-5-47-7-57-1-2-2-10-2-16-2-17-11-57-17-72-8-25-21-47-35-61-11-11-34-28-41-30-10-3-100-4-112 0-16 4-37 20-53 41-11 15-15 23-25 55-11 36-15 55-21 96-5 31-7 56-10 103 0 14-3 40-4 45-1 2-2 9-2 16-1 7-3 14-4 17-4 9-13 15-29 18-11 3-24 8-36 16-5 3-12 7-15 9-4 2-8 5-10 6-5 3-35 18-47 22-16 6-18 8-18 17 0 4 1 9 2 12 2 7 1 11-7 36-5 12-8 26-9 30-2 13 0 15 21 16h53z"/></svg>