<svg xmlns="http://www.w3.org/2000/svg" width="1344" height="566"><path d="M0 283V0h1344v566H0V283m281 276c3-1 5-1 12 0 11 2 216 2 225 0h21c8 1 39 1 68 2 53 0 71 0 76-3 4-2 5-8 5-15-1-4-1-14-2-22 0-8-1-16-1-18 0-1-3-5-5-8-4-4-6-9-9-18-2-7-5-16-7-20-4-7-4-8-4-15 0-5-1-10-1-11-3-7-11-12-32-20-32-12-68-28-72-33-5-4-3-14 7-40 3-7 7-17 9-23 6-17 8-26 9-45 0-16-1-39-5-68 0-7-1-20-2-29-3-53-9-76-24-94-13-16-45-39-64-47-15-6-25-7-40-7-11 1-15 1-21 3-5 2-14 4-21 6-19 4-26 7-41 19-14 12-28 33-36 55-4 10-7 19-9 34-4 19-5 28-12 80-1 7-3 18-3 27-1 8-3 21-4 27s-3 19-3 28c-1 8-2 18-3 20 0 2 0 14-1 24 0 23-1 25-7 31-5 4-9 6-20 10-20 8-30 13-46 26-10 7-21 15-34 22-4 3-11 8-15 11-6 5-6 6-8 13 0 6-2 10-6 17-10 18-13 27-18 46-2 10-3 26-1 30 2 7 0 7 75 7 51-1 68-1 70-2z"/></svg>