<svg xmlns="http://www.w3.org/2000/svg" width="1344" height="566"><path d="M0 283V0h1344v566H0V283m870 278c87-1 120-1 123-2 5-2 5-4 3-12-6-16-15-37-26-57-7-14-15-33-18-43-1-2-2-6-3-8-2-2-3-7-4-10-1-5-2-8-7-13-3-3-8-12-11-18s-8-15-11-20c-2-5-6-12-9-17-2-5-6-10-7-13-3-4-10-29-10-36 0-5 0-5 5-9 21-17 30-33 33-57 1-14 4-29 5-38 3-11 3-32 2-46-1-12-2-16-6-28 0-2-2-7-2-10-2-5-11-24-15-31-12-19-40-45-58-53-25-11-57-14-87-9-7 2-18 3-23 4-16 2-43 10-54 15-10 5-24 15-31 21-17 15-28 41-31 70-2 20 0 61 3 74 1 3 3 15 7 41 2 15 5 26 11 47 2 7 5 17 6 21 6 20 15 44 18 52 9 16 17 21 42 25 7 2 15 3 16 4 3 1 10 10 13 16 1 3 2 7 2 9 0 4-1 5-8 12-4 5-8 9-8 9l-8 8c-16 20-22 26-32 35-5 6-12 14-15 18-6 9-17 34-18 40 0 4 0 5 2 7l3 3h74c8 0 68-1 134-1z"/></svg>