<svg xmlns="http://www.w3.org/2000/svg" width="1344" height="566"><path d="M0 283V0h1344v566H0V283m721 276c3-4 3-5 1-20-2-18-7-41-11-50 0-1-2-6-4-11-4-13-7-21-13-32-5-10-5-10-6-20 0-11-1-14-5-16s-27-11-43-17c-35-12-51-19-53-22-3-5 0-23 9-56 8-29 9-41 3-98-10-91-14-110-25-131-6-11-21-25-34-34-21-13-23-14-34-19-15-6-21-7-38-7-14 1-43 6-58 11-13 4-27 14-36 26-7 10-16 24-20 33-3 8-10 30-13 42-2 7-4 14-5 17-1 6-9 55-11 72-3 21-9 71-10 84-1 7-1 20-1 29 0 20-1 27-5 31-3 4-10 8-17 9-14 3-32 12-50 24-19 14-29 20-38 25-17 9-20 12-22 23-1 6-5 17-10 25s-6 13-10 25c-6 23-8 49-5 54 1 2 3 3 5 4h66c50 0 65 0 68-1s5-1 12 0c7 2 27 2 122 2 63-1 116-1 117-1 4 0 160 2 166 2 5 0 6 0 8-3z"/></svg>