<svg xmlns="http://www.w3.org/2000/svg" width="1344" height="566"><path d="M0 283V0h1344v566H0V283m805 278c22-1 144-1 231 1l54 1 4-3c3-4 3-5 3-10 0-6-1-9-4-17-4-8-4-10-3-15 0-8 3-19 8-32 7-18 8-22 17-39 10-21 13-28 14-38 1-13-4-19-11-16-9 4-12 2-15-9-2-5-3-8-5-9-5-5-8-4-16 3-3 3-7 6-8 6s-4-2-6-4c-4-4-7-6-10-6-4 0-7 2-14 9-6 5-8 6-12 7-7 1-15 1-17 0s-5-6-8-14c-4-11-21-35-28-39-5-3-31-15-45-21-9-3-30-14-34-17-6-4-6-6-6-24 3-75 2-89-10-114-8-16-21-29-44-42-37-21-43-23-72-23-15 0-22 2-34 7-10 5-27 14-32 18-12 10-27 28-30 38-4 11-6 19-6 24 0 9-7 28-17 43-2 5-2 6-2 14 0 5 0 17 1 26 1 18 1 23-2 28-2 4-5 5-33 14-37 13-56 22-70 35-6 6-9 11-12 23-8 32-11 39-14 40-1 0-3-1-5-2-6-3-10-3-14 2-3 3-6 7-7 9l-4 4c-1 0-4-5-7-10-6-10-10-14-14-14-3 0-5 2-8 9-2 5-5 10-8 10 0 0-3-2-7-5-7-5-11-6-13-3-2 1-4 7-4 12 0 3-3 8-6 10-2 1-5 1-11 1-8-1-9-1-11 1-1 1-2 4-2 5-1 4 2 17 5 25 7 15 25 46 39 65 5 8 11 16 12 19 4 8 6 9 13 10 3 1 7 2 9 3 3 1 10 1 42 1 68-1 84 0 137 0 40 1 54 1 59 3 3 0 7 1 8 1 4 1 64 0 85-1z"/></svg>