<svg xmlns="http://www.w3.org/2000/svg" width="1344" height="566"><path d="M0 283V0h1344v566H0V283m258 276h106c44-1 92-1 107-2 34-1 73 0 113 1 37 1 89 1 91 0 0 0 1-2 2-3 5-9-19-52-34-62-2-1-11-4-19-7s-22-8-32-13c-16-7-26-11-54-21-13-5-29-12-32-15-5-5-2-14 12-39 9-16 16-26 19-29 2 0 9-2 18-3 21-3 26-4 34-6 11-4 18-10 22-19 1-4 1-9 1-23 1-19 1-25 7-47 6-25 6-27 6-39-1-11-1-14-9-42-1-4-2-11-3-16 0-5-1-11-1-13-1-1-2-8-3-15-1-6-3-15-4-20-2-4-3-12-3-18-2-23-5-42-11-60-4-9-7-14-16-23-12-12-19-15-37-19-9-2-13-2-59-2-78 0-123 2-129 6s-29 27-37 37c-19 23-29 53-51 139-8 35-15 58-21 69-3 7-14 32-14 32 0 2-20 43-27 55-9 18-14 25-26 44-5 7-10 16-12 20-1 3-5 9-8 13-6 10-10 19-8 21 1 1 3 1 12 1h11l7 7c9 9 11 10 22 8 13-4 15-3 15 8 0 9-2 15-9 24-4 4-9 11-12 14-3 4-8 11-12 15-19 21-23 26-23 31 0 4 4 8 10 10 10 3 24 3 91 1z"/></svg>