<svg xmlns="http://www.w3.org/2000/svg" width="1344" height="566"><path d="M0 283V0h1344v566H0V283m530 278c6-1 15-1 20-2 17-2 43-3 47-3 3 1 52 3 71 3 52 2 256 1 292-1 19-1 21-1 24-9 1-2 3-8 4-13 2-17 5-30 6-32 1 0 2-1 3-1 2 0 9 7 17 18 4 5 9 10 10 11s5 1 9 1c6-1 9-2 23-9 10-4 22-10 28-12 6-3 18-9 28-13 14-7 19-9 27-11 6-1 12-3 13-4 5-3 9-11 12-24 2-11 2-14 2-29-1-13-2-19-3-23-2-7-2-7-14-23-4-5-9-14-12-18-10-18-15-23-29-34-7-5-15-9-21-11-9-2-15-6-25-15-11-11-13-13-21-23-3-4-7-10-10-13-7-10-14-28-16-43 0-4-1-11-2-16-1-6-2-14-3-18-3-19-16-52-33-82-4-7-9-17-13-24-18-33-49-65-73-76-12-5-18-6-31-6-14 0-23 2-32 6-4 2-11 5-17 6-20 6-35 16-45 30-10 15-23 60-39 129-4 20-5 24-10 38-4 13-4 14 3 16 6 2 10 5 12 11l8 8c8 7 11 12 11 18 0 4-1 5-4 8-4 4-6 5-14 7-11 4-20 7-23 7-4 1-23 9-32 13-10 4-18 6-38 9-9 2-10 2-14 8-5 9-13 19-22 27-5 5-10 10-12 13-1 2-3 9-5 16-4 13-10 27-17 37-3 4-8 11-12 17-9 14-9 14-19 21-7 5-13 11-27 25-29 31-33 35-40 39-4 1-8 3-10 4-5 0-7 2-23 17-14 14-17 18-15 20 4 5 31 7 106 5z"/></svg>