<svg xmlns="http://www.w3.org/2000/svg" width="1344" height="566"><path d="M0 283V0h1344v566H0V283m455 275h121c13 0 49 0 78 1 56 0 57 0 65-4 3-2 5-6 5-11s-1-7-5-9-5-5-4-19c1-6 2-23 2-37 2-35 2-35 24-34 10 0 19 0 27 2 12 2 15 2 29 1 27-2 40-3 49-5 5 0 13-2 18-2 19-2 45-9 62-17 20-9 38-26 43-41 1-5 1-6 0-12-1-3-5-15-10-25-4-10-8-20-9-22-2-5-16-19-22-23-3-2-9-7-14-12-5-4-9-8-10-8 0 0-3-2-6-5l-6-4c-1 0-4-3-8-7-6-6-8-7-17-11-6-2-14-5-18-6-30-8-32-9-50-17-16-7-29-13-31-13-3 0-25-11-34-17-12-8-20-15-27-24-8-12-10-16-12-33-6-40-12-55-32-76-20-19-41-29-72-33-25-2-42-1-55 4-10 4-32 15-39 20-12 8-21 22-27 43-3 10-6 18-15 32-8 13-12 17-20 22s-16 7-28 10c-5 1-15 4-23 7-11 3-15 4-23 5-12 0-13 1-27 10-14 8-28 15-43 18-29 8-39 13-47 20-5 5-18 23-20 28-1 1-1 5-1 9s0 10-1 13c-2 13 4 32 17 49 8 10 25 27 37 35 6 4 14 10 18 14 4 3 14 9 21 13 8 3 16 8 18 10 10 7 14 17 15 41 1 31-3 64-10 93-4 14-5 22-3 24 3 4 5 4 19 3h101z"/></svg>