<svg xmlns="http://www.w3.org/2000/svg" width="1344" height="566"><path d="M0 283V0h1344v566H0V283m827 277c7-1 10-4 15-14l4-8 1-13c0-12 0-13 3-19 5-9 14-25 21-36 3-4 10-18 15-30 9-17 12-22 18-28 8-11 11-14 12-21 1-4 1-5-1-11-1-3-3-9-3-13-3-13-8-19-14-16-3 1-10 12-11 19-1 5-7 15-11 18-3 2-9 4-11 2-4-2-1-10 9-26 5-9 7-12 7-17 0-4-1-6-6-9-3-3-5-3-14-3-6-1-11-1-12-1 0-1 1-2 2-4 4-6 8-12 8-14 0 0 1-3 2-5 1-3 2-8 3-12 1-7 1-8-1-12-2-5-8-8-13-8-5 1-8 4-12 12-2 6-5 9-14 18-6 6-12 12-14 13-3 1-7 2-18 2-16 1-18 1-25 12-11 15-19 34-24 56-7 31-10 38-20 61-14 31-33 64-39 69-2 2-4 2-6 2-1-1-8-7-17-15-16-16-18-19-20-32-1-10-10-28-15-35-4-3-17-13-28-19-6-4-9-7-9-10 0-1 3-2 7-4 12-5 15-9 18-27 3-12 8-29 10-33 2-3 8-20 10-28 5-16 8-55 6-77-1-7-2-18-2-24-1-13-4-39-7-57-9-54-20-78-48-105-11-11-22-19-34-26-13-6-22-9-37-10-10 0-12 0-21 2-5 2-14 4-20 5-6 0-11 1-11 1 0 1-4 1-9 2-13 2-25 8-35 18-9 9-19 20-25 32-8 14-20 47-24 67-1 5-3 15-5 21-3 12-5 22-12 66-2 13-4 27-5 30 0 4-1 10-2 12-2 11-3 37-3 72 0 19 0 40-1 45-1 9-1 9-7 19-15 22-30 49-37 68-3 7-7 18-10 26-3 7-6 14-6 17-1 4-1 5 2 10 3 4 4 8 5 12 2 9 4 12 14 13 7 1 162 1 244 0 77-1 169-1 202 0 16 1 29 1 29 2h24c18 0 24 0 28-2z"/></svg>