<svg xmlns="http://www.w3.org/2000/svg" width="1344" height="566"><path d="M0 283V0h1344v566H0V283m710 82 6-3 7 1c8 1 19 1 30-2 4 0 11-2 16-2 4-1 9-2 11-2 2-1 5-2 7-2 1 0 6-1 11-2 6-2 12-2 28-3 16 0 21-1 22-2s1-10-1-39c-3-25-2-25 8-31 6-3 7-3 19-4 10 0 13-1 14-2 3-3 5-33 5-54-2-42-3-58-4-66-1-5-3-14-4-21-3-16-7-31-12-42-6-13-22-27-41-36-12-6-25-6-44-2s-29 9-39 19c-8 7-13 15-16 29-3 8-3 9-3 34 0 13 0 28-1 32-1 7-1 11 0 21 1 7 2 14 3 16 2 5 2 27 2 35-1 6-2 8-4 10l-3 3h-79l-10 5c-4 3-11 6-15 7s-8 3-10 5c-1 2-5 4-7 5s-6 4-8 5c-4 4-9 5-17 3-4 0-11-1-16-1-11 0-13 1-21 9-9 7-16 10-36 11-12 1-16 1-17 2-1 2-1 2 0 3s2 2 3 2c0 0 2 1 3 2l2 2-3 7c-2 3-5 9-6 13s-4 10-6 15c-5 9-6 19-4 21 2 1 3 1 9 0 4 0 8-1 10-1 4 0 15-7 20-13 5-7 8-9 14-7 2 0 7 1 12 2 5 0 11 1 16 3s11 4 14 5c2 1 9 3 15 3 5 1 12 3 16 4 3 0 16 1 31 2 14 1 28 1 31 2 7 1 11 2 25 2 11 0 11 0 17-3z"/></svg>