<svg xmlns="http://www.w3.org/2000/svg" width="1344" height="566"><path d="M0 283V0h1344v566H0V283m684 276c24-1 63-1 87-1h188c53 0 122 0 153 1 51 0 56 0 58-1 2-2 3-3 3-6 0-6-17-42-30-63-18-30-34-47-57-66-14-10-34-21-57-29-16-6-26-11-51-23-9-4-20-9-26-11-14-4-28-11-36-17-4-3-9-7-12-9-4-2-8-6-10-8-3-1-7-4-10-5-8-5-12-8-14-13-5-10-3-31 3-43 2-4 4-7 7-9 13-9 23-20 28-32s5-28 1-39c-2-3-3-8-3-10s2-14 4-28c3-23 3-26 3-40-1-17-2-23-7-32-2-3-5-9-6-13-5-9-12-19-17-22-2-1-5-3-8-5-8-5-42-22-50-25-7-2-9-2-30-3-18 0-24 0-32 2-26 4-43 12-59 27-7 7-16 19-19 25-1 4-5 18-6 27-1 4-3 14-5 22-3 18-5 30-6 64-1 20-1 29 0 38 1 17 7 45 11 58 1 2 4 10 7 18 2 8 7 21 11 29 7 16 8 20 5 24-2 2-17 15-21 18-7 5-14 9-27 13-16 6-37 14-56 22-8 3-18 7-23 9-16 7-32 16-47 25-22 14-53 57-64 86-5 12-8 26-8 33 0 5 2 10 4 11 1 1 24 1 52 0 28 0 56 0 62 1 13 1 34 1 110 0z"/></svg>