<svg xmlns="http://www.w3.org/2000/svg" width="1344" height="566"><path d="M0 283V0h1344v566H0V283m278 276c2-1 3-1 6 0s24 1 104 1h206c71 1 81 1 84-3 3-2 4-10 3-20-1-7-2-9-10-20-5-7-6-11-4-17 2-5 2-6 0-14-2-5-5-14-7-20-3-8-4-12-4-16 0-7-2-14-5-18-2-2-8-5-25-12-12-5-38-16-54-23-7-3-15-7-19-9-3-1-8-4-10-6-5-4-5-4 11-50 2-6 5-14 7-18 5-11 7-19 10-34 2-14 2-15 1-42-1-15-1-28-2-30 0-1 0-8-1-17-2-32-6-60-11-75-7-21-15-34-31-49-28-25-61-40-88-40-7 0-10 1-31 5-7 2-17 4-23 6-19 4-31 11-43 25-18 24-28 51-37 109-5 29-10 67-11 82-1 8-2 17-3 18 0 2-1 12-2 22-2 16-2 25-2 51l-1 32-3 4c-5 4-17 10-31 15-15 5-23 10-36 19-16 12-19 14-32 22-21 13-26 18-28 28 0 2-4 11-9 20-9 19-11 24-15 42-2 10-2 14-1 19 0 7 2 11 4 13 3 1 15 2 77 2 50 0 64-1 66-2z"/></svg>