<svg xmlns="http://www.w3.org/2000/svg" width="1344" height="566"><path d="M0 283V0h1344v566H0V283m488 122c5-1 11-3 14-4 4-2 9-3 16-3 15-1 33-3 37-5 3-1 14 0 29 4 5 1 12 2 16 3s8 1 9 2c1 0 25 1 51 1 30-1 52 0 56 0 11 2 42-1 61-7 3 0 10-2 17-4 6-1 13-3 16-4 2 0 10-2 16-3 10-1 12-1 26 1 14 1 15 1 17 0 1-2 1 0-2-34-2-18-4-28-6-31-2-1-5-3-10-4-4-1-9-3-11-3-3-1-5-3-6-4-2-2-2-3-1-10 1-8 0-22-3-27-1-4-3-5-11-6-8-2-11-3-11-6 0-2 2-3 6-4 4 0 8-1 9 0 1 0 3-1 5-2s2-2 2-7c-1-14-7-55-11-72-5-28-10-41-17-56-8-17-23-30-46-42-16-9-29-11-46-7-5 1-13 3-18 4-16 4-29 12-37 23-11 15-16 28-18 50-1 6-2 13-2 16-1 3-2 13-2 21-1 9-2 16-3 17 0 1-1 10-1 21-2 22-3 24-8 26-7 4-15 5-30 5-17-1-21 0-32 6-10 6-11 8-12 18-1 9-5 23-9 31-4 9-7 13-13 16-9 5-34 12-43 14-8 1-11 4-18 19-4 7-8 16-9 20-2 4-4 10-6 13-6 17-7 16 14 16 12 0 18 0 25-2z"/></svg>