<svg xmlns="http://www.w3.org/2000/svg" width="1344" height="566"><path d="M0 283V0h1344v566H0V283m706 277c17-4 21-6 22-13 1-1 2-5 3-9s2-10 2-14c1-7 3-16 4-20 0-2-1-3-2-6-2-2-5-10-9-22-3-10-9-24-12-31-6-11-6-12-6-19 0-11-2-15-9-19-3-1-7-3-8-3-1-1-9-4-18-8-9-3-19-8-23-10-5-1-12-4-16-5-26-10-47-18-52-22-8-4-9-9-6-24 1-7 4-17 8-30 10-27 11-34 9-61-2-34-4-51-10-73-4-19-7-27-13-45-14-41-20-54-39-71-11-10-15-13-30-20-22-10-35-14-52-16-19-2-22-1-49 13-27 13-32 17-42 27-6 6-8 9-13 19-7 15-16 43-18 58-1 2-2 9-3 16-4 22-8 57-11 93-1 7-2 18-2 24-1 6-1 26-1 43 0 27 0 33 2 44 3 17 3 20-1 23-1 2-6 4-11 5-24 9-27 10-52 27-11 7-25 16-31 19s-12 7-13 8c-4 4-6 9-6 15 0 5-2 15-7 31-9 25-14 57-13 68 1 7 2 8 11 8 4 0 18 0 33 1 29 0 76-1 81-3 2-1 4-1 8 0 8 2 117 4 268 4 98 0 123-1 127-2z"/></svg>