<svg xmlns="http://www.w3.org/2000/svg" width="1344" height="566"><path d="M0 283V0h1344v566H0V283m713 277c6-2 8-6 8-14-1-10-4-29-7-41-3-14-13-43-18-52-3-5-3-7-3-14 0-10-1-14-4-18-3-3-15-9-35-18-6-2-20-8-31-14-12-5-21-9-22-9-2 0-24-10-28-13-7-5-7-7-6-20 2-11 6-23 14-42 11-26 10-24 12-49 1-14 1-19 0-29-1-6-3-17-4-23-2-17-8-46-13-61-1-4-3-11-4-15-5-16-12-30-23-47-6-10-25-30-36-38-10-7-30-16-42-20-10-2-12-2-31-2l-22-1-5 3c-3 2-8 4-11 6s-12 7-21 12c-26 15-32 20-41 39-9 18-15 37-19 60-5 30-13 85-15 107 0 5-1 13-2 18s-2 14-3 20-1 11-2 12c0 1 0 8-1 16-1 19 0 32 4 44 5 13 5 15 5 18-1 4-7 7-19 11-5 2-11 4-14 5-6 2-12 5-18 9-2 2-9 7-15 11s-13 9-15 10c-2 2-6 4-7 5s-6 4-11 6c-8 4-17 11-19 15-1 1-1 5-2 9-1 6-2 11-7 22-3 7-7 17-8 21s-3 10-3 12c-2 6-5 32-5 39 1 5 1 7 4 9l2 2h56c31-1 61-1 68-2h15c2 1 9 1 13 1 10 0 228 1 229 1 0 1 159 0 162-1z"/></svg>