<svg xmlns="http://www.w3.org/2000/svg" width="1344" height="566"><path d="M0 283V0h1344v566H0V283m818 278h107c0-1 32 0 71 0 71 1 102 0 111-2 10-3 9-18-2-34-2-2-10-11-17-19-32-33-38-39-50-46-6-4-12-9-14-10s-8-6-12-9c-12-8-32-25-39-33-5-5-11-14-23-34-9-13-20-27-27-36-8-8-11-13-15-26-3-9-3-12-3-20 0-6 0-11 1-13s6-8 12-14 11-13 13-16c4-7 11-27 11-34 1-5 4-23 7-41 2-15 2-36 0-48-5-22-16-48-31-69-11-16-18-22-48-40-17-10-21-10-66-10-33 0-42 1-53 4-2 1-9 2-15 4-7 1-16 3-20 5-11 3-31 13-36 16-10 8-27 32-32 48-3 9-7 29-8 43 0 13 2 28 6 46 5 16 6 24 7 46 0 9 2 20 3 25 3 16 15 56 22 71 2 6 5 12 6 15 4 10 6 13 10 17 5 4 12 8 16 9 6 2 34 15 36 18 2 2 4 5 5 9 1 5 1 5 0 7-3 4-17 12-45 22-21 9-34 17-50 32-10 10-17 26-19 42-1 4-2 8-2 9-4 8-5 30-4 48 1 12 2 14 5 16 4 2 33 4 56 3 11 0 68 0 126-1z"/></svg>