<svg xmlns="http://www.w3.org/2000/svg" width="1344" height="566"><path d="M0 283V0h1344v566H0V283m242 275c4-4 4-10-2-41 0-5-2-13-3-17-2-16-6-38-7-44-2-6-2-8 5-13 7-4 7-8-1-24-1-4-4-12-5-18-3-18-7-29-10-35-11-18-21-40-21-47 0-5 7-17 17-29 8-9 10-10 18-9 6 0 7 0 12-3 8-4 9-5 10-28 1-25 2-27 11-34 3-3 11-10 17-16 9-9 11-12 14-17 4-8 4-11 1-14-2-2-4-2-8-1-1 1-4 2-6 2-2 1-7 2-12 4-12 4-20 6-22 5-2 0-4-5-7-14 0-2-1-8-2-13-2-12-4-19-9-23-4-4-8-6-11-5-4 1-6 5-8 17-1 12-2 18-3 20-2 2-6 1-10-1-2-2-3-2-5-1 0 1-1 2-1 3 0 2 15 19 21 23 8 5 10 9 9 19 0 7 0 8-3 14-5 10-7 12-10 12-2 0-15-7-22-11-7-6-20-12-33-18-12-5-15-8-15-11 0-4 3-8 8-11 10-5 12-7 14-11s2-5 2-12c-1-12-3-19-8-27-2-4-4-8-4-10s-1-5-2-8c-1-2-3-8-5-12-2-7-3-8-7-10-2-1-6-2-7-2-3 0-6-2-6-4s10-11 16-15c4-3 10-6 12-8s6-5 8-6c2 0 4-2 4-2 1-2 1-19 0-21-1-3-7-5-12-5-1 0-4-1-6-2-3-1-4-1-8 0-8 2-19 8-24 13-4 3-10 15-10 18 0 1-2 5-4 9-9 20-9 21-7 23 1 0 5 1 9 2 8 1 14 3 15 5 0 2-2 11-6 24-1 3-3 9-4 13s-3 10-5 15c-1 5-5 15-7 24-5 19-9 30-16 44-3 5-9 16-13 24s-9 17-11 21c-6 11-5 15 7 21 12 8 14 9 23 19 4 6 13 15 19 21 12 12 15 18 18 32s8 31 11 38c6 13 10 31 12 44 0 4 1 10 2 14 1 9 10 33 16 50 3 7 7 17 8 21 0 3 2 8 2 9 1 1 1 6 2 11 0 9 2 14 6 18 3 2 4 2 16 3 8 0 19 1 27 1h13l3-3z"/></svg>