<svg xmlns="http://www.w3.org/2000/svg" width="1344" height="566"><path d="M0 283V0h1344v566H0V283m514 84c4-2 10-5 13-7s6-4 7-5c2 0 7 1 12 2 7 2 12 2 22 2 9 0 16 1 19 1 3 1 11 3 18 4 6 0 12 1 12 2h21c11 0 23 0 26 1 11 2 39 2 43 1 2-1 10-2 19-2 17-1 29-3 61-10 25-5 28-5 43-5 8 1 15 1 17 1 1 1 2 1 3-1 2-1 2-3 2-14-1-21-1-29 0-39 0-9 0-10 4-14s6-4 12-6c10-2 12-4 12-10 0-3 1-14 2-24 1-15 1-27 1-48-1-39-4-64-9-87-5-20-9-29-18-38-6-7-22-18-32-23-13-6-29-6-48-2-30 8-43 19-52 45l-3 9v28c-1 15-1 33-1 40-1 11-1 16 1 30 3 22 3 46 1 49-4 6-4 6-40 7-19 0-36 0-38 1-22 4-36 11-48 23-4 4-8 7-11 8s-24 0-31-2c-5-1-11 2-16 7-6 6-15 10-23 12-13 3-19 11-29 40-6 14-7 21-4 25l1 3 12-1c9 0 13-1 19-3z"/></svg>