<svg xmlns="http://www.w3.org/2000/svg" width="1344" height="566"><path d="M0 283V0h1344v566H0V283m660 277h153c50 0 92-1 93-1 5-3 3-7-7-18-7-7-15-13-27-20-11-6-25-21-37-38-6-9-8-12-15-31-3-8-7-19-9-24-2-4-5-12-6-17-2-11-6-19-12-28-8-10-6-15 6-22 6-4 8-4 13-1 6 4 8 4 11 1s7-15 8-23c2-7 4-10 11-14 6-3 7-4 10-8 2-6 3-14 1-23-3-9-8-22-13-31-10-16-15-29-17-42-1-5-2-13-3-20-1-6-3-16-4-22-5-26-9-42-20-63-5-12-7-14-15-23-12-11-18-16-33-20-15-5-25-7-39-7-15 0-18 1-44 9-38 12-41 14-53 27-13 13-19 29-23 54-3 15-5 45-5 73-1 14-1 32-2 41 0 15-3 37-5 44-1 2-6 13-12 25-7 14-12 23-15 27-12 14-33 46-36 54-1 4-8 19-16 34s-16 31-17 36c-4 9-10 32-12 41-1 3-2 9-3 14-2 9-1 12 3 15 2 1 6 2 41 2h64c13 0 52 0 86-1z"/></svg>