<svg xmlns="http://www.w3.org/2000/svg" width="1344" height="566"><path d="M0 283V0h1344v566H0V283m95 277c40-1 66-3 75-4 6-1 46-1 107 0 34 0 39 0 44-1 5-2 7-3 8-5 3-5 3-7-1-27-2-10-4-22-5-27-1-6-2-14-3-19 0-5-1-13-2-19s-1-10-1-11c-1 0-1-5-2-11-2-20-7-44-12-57-6-17-15-36-22-46-8-11-23-24-52-41-10-6-17-10-17-12-1-2 0-3 5-12 4-6 7-13 9-15 1-2 5-9 8-14 5-9 5-10 5-15v-11c-1-4-1-5 3-11 3-4 6-10 7-14 2-5 3-7 8-12 7-8 10-13 10-23 0-6-1-10-3-17-12-35-12-35-13-56 0-10 0-21-1-24-1-4-13-30-21-43-3-5-8-8-15-9C200 3 9 3 5 4L1 5v274c0 269 0 273 2 276 1 2 3 4 4 5 3 1 43 1 88 0m454 0c9 0 39-1 67-1 28-1 69-1 90-2 21 0 69 0 107 1s123 1 190 1c105 0 122 0 123-1 5-4-3-25-15-43-3-4-16-19-31-36-8-8-22-20-38-33-7-5-18-14-24-19-17-15-26-23-38-32-7-4-17-11-23-16-21-16-23-17-39-17-12 0-19-1-27-5-9-4-15-11-18-18-3-8-4-26-3-35 1-8 5-24 8-28 0-2 5-7 9-12 10-10 15-18 22-32 8-18 10-30 6-44-2-7-3-20-1-28 2-9 3-31 2-42-1-8-4-22-7-28-3-5-12-17-17-22-6-7-21-18-31-23-14-8-27-12-47-15-30-5-61 0-80 11-10 6-25 17-29 22-15 16-21 33-25 63 0 8-1 15-2 16 0 2-1 13-2 26 0 14-2 28-4 36-4 26-4 44 3 75 5 20 17 46 27 58 12 14 13 17 8 21-2 2-16 9-32 17-38 19-47 24-74 44-31 24-37 30-51 47-20 25-27 35-31 46-4 10-11 36-11 40 0 6 4 8 16 8 3 0 6 1 6 1s7 0 16-1z"/></svg>