<svg xmlns="http://www.w3.org/2000/svg" width="1344" height="566"><path d="M0 283V0h1344v566H0V283m554 278c3 0 7 0 9-1s24-1 77-1c78-1 80-1 82-5v-14c-1-12 0-60 2-71 2-10 1-10 26-9 22 1 31 0 71-3 20-2 45-5 55-7 4-1 12-3 18-4 5 0 12-2 14-3 8-2 31-15 40-22 12-9 23-24 23-30 0-3-1-5-6-16-6-14-26-41-43-56-7-7-10-9-22-15-14-7-19-11-30-24s-15-15-34-19c-8-1-14-4-28-11-11-6-14-7-20-5-3 0-6 1-8 0-4 0-15-6-26-13-5-3-14-8-20-10-16-8-16-8-17-21 0-6-1-13-2-16 0-3-1-10-2-15-2-18-10-50-16-60-5-11-10-17-20-25-13-11-29-18-49-23-33-7-52-7-71 1-26 10-43 20-51 29-10 11-25 32-33 49-3 6-5 11-12 28-2 4-4 9-5 11-3 3-15 13-24 19-6 4-10 6-28 14-4 2-14 8-20 12-19 12-34 19-50 25-18 6-26 10-31 15-6 5-15 18-20 28-4 7-4 9-6 21-1 8-1 17-1 22 1 12 5 28 8 34 4 8 23 33 31 40 7 6 13 15 17 24 3 5 3 7 3 18 0 20-2 52-3 62-5 26-6 39-5 41 2 6 2 6 46 5 39-1 149 0 150 2h13c7-1 15-1 18-1z"/></svg>