<svg xmlns="http://www.w3.org/2000/svg" width="1344" height="566"><path d="M0 283V0h1344v566H0V283m290 276h28c12 1 102 1 200 1 175 0 180 0 187-1 13-4 14-6 12-36-1-21-2-24-9-46-7-20-7-22-11-29-2-6-3-8-3-15 0-10-1-14-5-17-3-3-25-13-46-21-6-2-16-7-23-10-7-2-15-6-19-7-11-5-27-12-31-14-5-3-5-5-5-16 0-13 3-24 11-49 7-21 8-25 9-37 2-11 2-14 0-24-3-23-8-50-14-78-2-9-10-35-12-41-1-2-3-7-5-12-12-33-29-50-71-73-19-10-33-13-57-13-17 1-19 1-28 7-2 2-7 4-10 4-3 1-9 3-12 5-4 2-10 4-13 6-10 4-22 18-32 36-9 18-17 42-22 74-7 37-8 45-14 101-5 44-6 57-6 69 0 17 1 24 9 44 4 8 4 12 1 15-3 1-17 7-25 10-7 3-15 7-20 11-3 2-7 4-8 5s-5 4-8 6c-11 8-24 16-33 20-8 5-15 11-17 15-1 1-2 6-2 9-1 7-4 17-9 29-6 16-14 57-12 66 0 3 1 5 3 6l2 2h56c31-1 60-1 64-2z"/></svg>