<svg xmlns="http://www.w3.org/2000/svg" width="1344" height="566"><path d="M0 283V0h1344v566H0V283m714 277c4-1 9-2 10-2 2 0 5-1 6-2 2-2 2-2 2-23v-22l3-4c4-5 4-7-1-9-7-3-8-4-11-10-2-4-4-9-5-11-3-9-13-32-17-40s-4-8-4-17c0-12-1-14-9-17-7-2-41-16-46-18-2-1-8-4-14-6s-16-6-22-9c-37-14-39-15-39-30 0-10 2-19 9-40 8-24 8-29 8-46-1-16-5-55-8-66-6-31-18-67-30-89-15-31-36-53-65-67-15-8-32-12-51-12-11 0-18 2-28 7-5 3-14 7-20 10-22 9-29 14-38 26-10 12-22 39-27 59-5 22-9 43-12 61 0 6-2 15-2 21-4 20-8 60-9 77-1 9-1 23-2 31-1 9-1 25 0 37v22l-3 3c-2 3-6 5-12 7-12 6-17 8-39 23-10 7-24 15-30 19-19 9-22 13-22 27 0 5-1 9-5 20-4 12-7 20-12 38 0 4-2 13-3 21-3 20-1 30 4 32h62c32-1 61-1 64-1 12 0 152 1 153 1h129c116 0 129 0 136-1z"/></svg>