<svg xmlns="http://www.w3.org/2000/svg" width="1344" height="566"><path d="M0 283V0h1344v566H0V283m207 279h256c196-1 234-2 238-4 4-3 8-15 6-22s-10-13-56-40c-6-4-15-9-20-12s-11-7-15-9c-9-5-16-11-18-16-2-4-2-6-2-65-1-64-1-71-6-94 0-4-1-10-2-14-1-11-9-56-11-58 0 0-2-9-4-20-6-29-13-42-29-59-14-14-32-26-48-32-6-2-11-4-12-4 0 0-3-1-7-2-9-3-24-4-35-3-15 2-42 12-60 22-21 12-22 12-26 2-9-19-13-25-21-30-12-8-27-12-45-12-19 0-34 6-47 19-8 9-13 18-19 34l-3 12 1 14c1 13 1 14 6 27 7 18 8 23 8 30 0 5-2 7-8 12-2 1-5 4-8 7-2 4-6 9-8 11-3 2-7 7-9 11-5 8-17 18-33 32-13 11-26 26-32 37-4 7-7 16-10 28-1 9-9 66-9 78-1 11 1 28 8 56 8 33 13 48 16 52 3 5 14 11 21 13 5 1 39 0 43-1m928-3c10-1 13-1 15-2 5-3 3-9-4-15-3-4-26-30-30-35-1-2-4-5-5-7-4-4-12-17-16-25-2-6-4-14-4-31-1-19-3-31-7-50-1-9-3-22-4-28-1-15-6-45-9-56-2-10-9-26-13-32-5-7-14-15-25-23-5-3-11-7-15-9-4-3-7-6-8-8l-2-4 2-2c2-2 6-4 10-6 11-4 14-7 24-26 4-9 9-19 11-22 3-5 3-6 3-16-1-5-2-18-2-28-1-12-1-20-3-26-1-5-2-11-3-12 0-1 0-5 1-9 1-6 1-7 0-10-3-6-9-13-15-18-11-7-32-14-47-14-20 0-41 10-59 29-15 16-17 24-15 53 1 10 2 21 2 26 1 7 1 11 0 16-2 11-9 22-18 30s-11 9-21 9c-11 0-16 2-25 10-4 3-17 13-29 21-25 17-33 23-42 35-16 21-19 34-35 140-3 24-3 27-3 49 0 19 0 25-2 34-1 7-2 12-2 12 0 1-2 3-5 6-6 7-7 11-7 16 2 7 5 13 10 16 5 4 11 4 34 6 8 1 18 1 23 2 16 2 37 3 53 4 14 1 253 0 287 0z"/></svg>