<svg xmlns="http://www.w3.org/2000/svg" width="1344" height="566"><path d="M0 283V0h1344v566H0V283m821 90c1-1 2-4 3-6 0-2 1-5 2-6 0-2 2-8 3-13 2-4 4-11 5-13 2-6 2-24 1-35-1-7-2-10-6-18-5-10-5-11-6-20 0-9-1-11-3-14l-3-4 1-20c0-15 0-22-1-29-3-13-3-22 0-28 2-4 2-6 2-13-1-5-2-13-3-18-2-4-4-11-4-14-2-8-6-20-8-24-2-3-11-13-16-15-4-3-12-3-22 1-11 3-15 7-19 18-2 5-4 9-4 10-2 2-4 11-4 18 0 11 2 15 9 18 8 4 12 14 9 20-1 2-6 7-11 13-5 5-10 11-11 13s-1 7-1 14c0 10 0 12-2 13-2 2-21 2-29 0s-9-2-14 3c-4 5-4 9 1 15 2 2 3 2 9 2 7 0 10 2 10 6 0 1 1 5 3 9 1 4 3 8 4 10 1 4 13 13 19 15 2 1 8 2 11 2 9 0 10 2 11 14 1 8 1 10-1 13l-2 4 2 3c2 3 2 4 2 12 0 9 0 9 3 12 1 1 5 4 8 5 13 5 35 17 44 24 3 3 6 5 6 5 1 0 2-1 2-2z"/></svg>