<svg xmlns="http://www.w3.org/2000/svg" width="1344" height="566"><path d="M0 283V0h1344v566H0V283m758 253c16-4 21-5 24-6 1-1 6-2 10-3 5-1 12-2 16-3 5-1 11-3 14-3 4-1 9-2 31-9 19-5 24-6 30-8 4 0 9-2 13-2 9-2 23-2 38 0 16 2 15 2 16-15 0-13-1-28-4-43-2-6-5-30-6-48-1-9-1-9-4-12s-12-6-35-12c-27-7-26-6-27-26 0-7-1-14-1-15-1-1-3-2-6-3-7-3-7-10 1-13 2 0 3-2 4-2 0-2-3-11-9-26-7-16-9-20-11-26-4-11-8-22-12-32-3-6-7-17-10-25-3-7-7-19-9-25-3-6-6-16-8-21-5-13-15-31-24-42-17-18-40-33-66-41-13-5-28-5-41-2-48 12-56 14-66 20-12 7-18 13-25 28-6 14-12 29-15 43-2 7-2 14-2 52-1 39 0 52 2 86 0 11 0 12-2 15-3 3-11 9-24 16-10 6-21 12-25 16s-11 16-13 24c-1 3-3 6-4 7-2 3-9 5-14 5-4-1-6 0-15 5-5 3-15 7-23 10-16 5-20 7-25 14-6 9-9 11-17 14-5 3-10 4-16 4-7 0-9 1-11 2-2 3-14 31-18 44-1 3-4 10-7 16-6 13-6 14 2 17 3 2 5 2 10 2 3-1 11-1 18-2 11 0 12 0 20-4 13-6 17-7 33-7 12-1 16-1 20-2 5-2 5-2 9-1 4 2 17 2 26 0 6-1 7-1 22 2 8 1 18 4 20 4 3 1 8 3 12 4 11 4 19 4 37 3 13-1 22-1 41 1 13 0 26 1 28 1 3 1 11 1 19 2 26 2 38 6 53 18 3 2 12 5 16 5 2 0 6-1 10-1z"/></svg>