<svg xmlns="http://www.w3.org/2000/svg" width="1344" height="566"><path d="M0 283V0h1344v566H0V283m760 275h83l44 1 3-2c6-5 11-27 9-37-1-7 0-22 2-32 1-5 0-15-2-22-1-1-2-8-2-15-1-7-2-14-3-14-1-3-6-24-6-28s-3-19-6-35c-1-4-3-10-4-12s-3-9-4-14c-2-5-4-14-6-20s-5-14-5-18c-5-25-21-55-37-72-8-8-13-11-21-14-5-2-8-3-12-7-6-7-7-10-9-19-1-6-1-8 0-15 5-25 6-31 4-46-2-12-7-21-16-31-11-11-24-16-39-16-9-1-15 1-24 5-3 1-10 3-15 5l-8 2-12 12c-7 7-14 15-16 18-5 7-8 17-9 27 0 7 0 8 2 13 2 4 3 9 3 13 1 3 2 8 3 11 4 6 5 18 4 22-1 1-2 4-4 6-5 5-7 8-11 20-4 14-12 33-15 36-1 2-4 8-6 14-5 11-10 19-20 32-3 3-8 10-12 15-3 5-10 12-15 17-5 4-16 14-25 22-17 17-23 20-28 20-2 0-8-1-13-4-11-5-21-7-38-8-3-1-11-1-16-2-11-1-18 0-22 4-4 3-4 6 2 13 8 10 8 10 6 12-3 2-9 5-17 6-3 0-6 1-8 2-2 2-2 3-2 9 0 5 1 7 3 11 2 3 5 8 7 10 4 4 5 5 12 7 11 2 20 2 40-2 17-4 43-7 57-6 12 0 25 8 31 20 3 6 8 11 17 17l6 4 4-2c4-3 7-3 13-3 4 0 10 1 12 1 10 2 11 2 16 1 11-3 14 0 12 11-1 4-1 10-1 16l1 8 6 7c4 4 9 10 12 13 7 8 11 10 27 11 6 0 14 1 18 2 3 0 7 1 8 0h42z"/></svg>