<svg xmlns="http://www.w3.org/2000/svg" width="1344" height="566"><path d="M0 283V0h1344v566H0V283m556 279c5-1 8-5 8-14 1-4 2-8 3-10s1-2-2-6c-4-3-4-3-4-8 1-6 0-11-5-13-4-2-7-2-17-3-7 0-13 0-15-1-2 0-3-3-5-12-1-8 1-22 5-34 5-14 7-22 5-34 0-5-1-10-1-13 0-2-1-7-3-12s-4-12-5-16c-3-10-6-19-9-24-4-7-13-15-25-24-16-11-15-11-15-15 0-2 1-4 4-6 2-2 5-7 8-14 5-10 5-10 12-14 12-7 12-8 15-37 1-10 1-12 0-16-1-3-2-11-3-18-3-31-5-39-11-46-4-5-18-12-29-16-9-3-24-5-32-5-14 0-32 7-41 15-6 7-8 10-11 22-4 15-6 38-8 93-1 18-1 37-2 40-1 4-1 9-1 11 0 4-1 7-6 16-14 25-17 32-17 37-1 3-2 8-3 10-5 12-7 23-7 37-1 9-2 18-4 26-4 20-4 21-4 33 0 25 9 58 17 66 5 4 5 4 74 4 71 0 97 0 111 1 13 1 19 1 23 0m785-1c1-2 2-9 2-252 0-200 0-250-1-252s-2-3-6-3c-6 0-28 3-32 5-1 1-5 4-7 8-5 5-9 7-20 11-6 3-11 7-15 14-2 4-2 7-2 12 0 13 2 63 3 69 1 13 7 32 16 50 5 12 11 16 26 20 13 3 8 15-14 35-7 5-13 12-15 15-5 8-11 22-13 32-2 11-12 43-16 49-3 6-4 16-5 69-1 25-1 33-2 37-5 14-25 35-39 42l-5 2-6-2c-4-2-9-4-12-5-2-1-8-3-12-5-8-3-17-4-19-2-4 4-2 9 4 15 2 2 4 5 5 7 1 4 1 5-11 16-8 8-9 11-7 13 1 0 16 1 40 1 33 0 40 0 42-2 3-1 5-1 11 0 15 2 23 3 66 3 41 0 42 0 44-2m-527-2c31-1 50-1 70 0 19 1 34 1 44 0 8-1 17-1 19 0 4 0 6 0 11-2 7-3 8-5 9-13 2-18 6-43 11-65 0-4 2-11 2-15 1-5 2-8 2-9 2-2 6-37 7-53 1-10 2-21 2-25 2-12 2-41 1-49s-3-12-9-26c-11-25-35-63-49-79-11-11-14-16-15-25 0-3-1-7-2-8-1-3-7-5-11-5-8 0-14-5-19-17-3-6-3-8-4-16 0-12 1-27 4-33 0-3 2-11 4-19 2-13 2-16 1-22-2-15-11-34-20-43-5-5-15-12-22-14-6-2-24-2-30 0-3 0-8 2-12 3s-13 4-20 7c-10 5-12 6-19 13-11 11-11 11-12 30 0 9-1 17-1 18-2 2-4 20-4 28 0 4-1 12-2 17l-1 9 12 24c7 15 12 24 14 25s6 2 11 3 10 2 12 2c4 3 9 7 9 9s-8 13-15 21c-10 13-11 14-13 24-2 7-5 14-10 24-9 18-10 21-20 50-4 14-10 39-12 51-1 4-4 16-6 27-3 11-6 26-8 34s-5 21-7 28c-1 7-4 20-4 27-1 8-3 18-4 24-2 12-3 35-2 37 1 0 4 1 7 1s8 1 11 2c5 2 13 2 90 0z"/></svg>