<svg xmlns="http://www.w3.org/2000/svg" width="1344" height="566"><path d="M0 283V0h1344v566H0V283m488 278c1-1 19-1 40-1 23 0 41 0 43-1s5-1 7 0c6 2 51 2 85 1 24-1 35-1 47 0 25 2 70 2 81 0 5 0 14-1 19-1 31-1 189 1 190 1 1 1 9 1 19 0 21 0 21-1 21-10 0-7-3-20-6-27-1-3-5-10-10-16-7-10-12-19-12-23s-7-10-15-13c-18-9-28-13-45-20-32-13-38-16-43-22-2-2-3-4-3-5 0-4 8-28 14-45 8-19 12-34 13-48 1-6 1-34 1-62 0-48-1-74-3-93-2-16-8-47-11-55-1-4-3-10-4-12-2-7-14-32-19-39-10-15-32-34-47-42-27-13-56-19-72-14-5 2-8 2-17 2-15-1-22 0-34 6-17 8-28 16-41 29s-19 22-27 39c-9 21-14 34-24 72-3 12-6 26-7 31-3 9-6 28-9 57-1 8-3 33-4 57-2 52-5 71-12 81-3 5-26 15-39 19-14 3-34 12-47 20-14 8-43 21-56 25-16 6-18 7-23 14-4 6-4 7-4 12 1 4 2 10 4 14 3 11 3 16-7 42-2 5-5 11-6 15l-1 6 2 3c2 1 4 2 9 3 8 1 51 0 53 0z"/></svg>