<svg xmlns="http://www.w3.org/2000/svg" width="1344" height="566"><path d="M0 283V0h1344v566H0V283m294 276c3-1 8-1 15 0 8 1 170 1 229 1h52c71 0 121-1 125-3 1-1 3-3 4-6s1-6 1-14c-1-18-4-29-9-44-9-24-11-29-17-40-5-11-5-11-5-21 0-14-1-15-23-24-7-3-21-9-32-14-11-4-25-10-31-13-17-7-31-14-34-17-4-3-4-5-1-18 3-15 4-20 9-34 7-18 8-21 10-24 2-5 4-17 5-32 0-12 0-17-2-30-1-8-2-15-3-15 0 0 0-5-1-10-1-12-4-24-11-51-6-21-15-49-22-62-7-15-20-30-36-42-12-9-46-24-59-27-10-2-24-2-30-1-4 1-12 4-19 7-8 4-17 8-21 9-16 6-31 17-38 28-24 36-36 95-45 226-1 16 0 44 2 52 0 2 2 9 4 15 3 13 4 17 1 20-2 4-18 11-38 16-6 2-15 7-24 13-21 15-28 20-42 28-20 11-22 14-24 27 0 5-2 12-4 17-10 28-13 36-14 49-1 5-1 11-2 15-2 12-1 15 2 18l3 3h61c35-1 62-1 64-2z"/></svg>