<svg xmlns="http://www.w3.org/2000/svg" width="1344" height="566"><path d="M0 283V0h1344v566H0V283m273 89c5-3 6-8 7-17 3-36 4-38 8-41 2-1 2-1 5 1 4 3 7 9 8 23 3 19 5 21 17 17 9-3 10-5 7-15-3-9-2-17 1-28 3-8 3-8 2-14-4-13-4-46-1-59 1-6 1-13 1-37 1-42 0-64-2-68-1-1-4-5-7-8-4-4-7-8-9-13-4-9-9-28-10-42-1-11-2-13-7-16-4-3-23-4-28-2-2 1-8 2-13 3-16 2-18 5-12 20 1 3 2 7 2 8s2 5 4 9c1 4 3 8 3 10 0 1-2 5-4 9-11 20-13 28-13 44v8l6 6c9 8 10 15 8 39-3 25-3 38 0 47 2 7 2 12 5 43 1 8 2 13 4 20 3 9 5 26 5 37 0 6 2 14 4 17 2 2 6 1 9-1z"/></svg>