<svg xmlns="http://www.w3.org/2000/svg" width="1344" height="566"><path d="M0 283V0h1344v566H0V283m500 279c10-1 24-1 31-2 7 0 20 0 28-1 10-1 26-1 54 0 93 1 146 1 245 0 59 0 109-1 112-2 11-2 12-3 17-25 7-29 8-31 16-31 5 0 16 5 23 11 16 14 17 14 42-4 16-10 20-13 46-28 23-13 24-14 34-16 15-3 19-7 23-19 5-17 5-46-1-63-4-10-17-26-42-50-20-20-29-26-46-30-13-3-30-14-54-36-13-12-14-14-14-29 0-22-6-57-13-73-2-4-4-9-5-12-2-6-8-19-13-26-7-12-15-25-18-32-2-4-5-9-8-12-2-4-5-8-6-10-2-5-18-21-29-31-29-24-53-33-79-30-9 1-11 2-20 6-6 3-14 6-18 6-9 2-22 8-30 14-19 15-30 34-47 83-3 9-7 22-9 27-3 5-6 15-9 21-5 15-8 21-15 32-6 9-6 11 1 10 4 0 5 0 7 3 7 9 10 11 24 12 8 0 9 0 12 4 5 5 11 13 13 17 1 5 1 19-1 26-1 6-6 11-11 14s-18 6-27 8c-4 1-8 2-11 2-2 1-6 3-9 3-3 1-8 3-11 4-28 12-40 16-52 16-7 0-11 3-14 9-3 5-12 15-26 30-9 9-10 12-17 33-5 14-9 22-23 46-8 13-14 21-19 24-4 2-28 25-33 32-7 10-17 21-26 29-7 6-9 7-15 9-4 1-9 3-11 4-4 2-19 18-19 20s3 5 7 6c11 2 41 2 66 1z"/></svg>