<svg xmlns="http://www.w3.org/2000/svg" width="1344" height="566"><path d="M0 283V0h1344v566H0V283m237 279c28 0 127 0 219-1 93 0 187-1 208-1h39l2-3c2-2 2-3 1-11-1-6 0-11 0-17 2-10 1-13-4-17-3-4-26-17-46-28-21-11-54-31-62-36-4-2-6-5-8-8-3-6-4-16-2-64 2-35 2-82-1-110 0-12-4-38-9-65-5-28-15-46-36-67-20-19-38-27-70-34-11-3-19-2-32 0-23 5-44 14-65 28-6 4-12 8-13 8-2 0-4-3-9-12-7-15-19-24-38-30-16-6-42-6-57-1-11 4-16 7-21 13-8 9-11 21-11 46 0 21 1 31 6 46 3 11 3 15 3 22 1 12-1 15-7 17-4 2-7 4-10 8-3 3-8 9-12 13s-11 12-16 17c-5 6-12 12-14 14-3 2-7 6-9 10-2 3-10 12-17 19-14 14-17 18-21 28-8 19-17 88-16 116 1 14 4 27 10 44 3 8 6 23 6 28 0 13 6 20 20 25 10 4 19 5 33 4 4 0 31 0 59-1m753-2h148c25 0 24 1 29-8 1-2 4-6 6-8 1-2 3-4 4-6 2-3 1-15-1-21-1-3-2-7-2-9-1-3-3-9-5-14-3-11-4-17-8-40-5-31-9-50-17-74-3-7-6-17-7-21-3-10-15-47-18-55-1-4-4-12-7-17-7-12-18-23-34-35-11-7-14-11-14-15 0-1 7-15 12-23 2-2 6-9 10-16l7-13 1-13c1-7 2-17 3-23 2-10 2-12 1-19-1-10-1-21 0-28 3-8 2-14-1-21-6-11-16-20-33-28-14-5-22-6-39-6-11 1-15 1-18 3-13 5-36 25-40 34-6 10-6 15-7 44 0 36-1 42-12 58-8 14-13 18-30 25-38 15-68 31-88 45-7 5-21 19-25 25-10 14-17 34-24 67-3 11-8 30-11 42-10 43-9 38-10 77v39c0 6 3 14 11 22 3 4 8 11 10 15 4 7 7 11 12 15 3 1 6 2 25 2 13 0 28 1 34 0h138z"/></svg>