<svg xmlns="http://www.w3.org/2000/svg" width="1344" height="566"><path d="M0 283V0h1344v566H0V283m800 278c8-1 12-2 17-4 4-2 7-3 9-3 12 3 21 4 25 1 2 0 5-5 8-9 4-6 9-11 16-17 20-18 26-22 41-30 14-6 21-13 25-22 3-9 3-25-1-40-2-7-4-13-4-15-2-2-6-4-20-8-9-3-11-3-18-3-18 2-34 10-43 24-10 16-20 29-26 34-9 8-12 8-22 4-7-2-22-3-36-1-13 3-33 7-42 10-4 1-11 2-15 3-5 1-15 2-22 4-9 2-14 2-26 2-10 0-14 0-17-1-3-2-15-15-23-24l-11-11c-9-7-30-20-41-25-5-2-12-6-17-9s-10-6-12-8c-21-12-21-14-13-28 3-4 8-14 11-20 7-15 16-28 20-31 2-1 5-2 11-2 10 0 25-2 31-5 9-3 12-10 15-26 1-7 3-14 3-16 1-3 2-7 2-13s1-11 2-15 2-9 3-13c0-3 2-9 4-12 3-6 3-7 3-15-1-6-2-11-4-19-2-5-4-12-5-15s-2-9-3-12c-1-6-1-9 0-20 3-38 3-48 2-59-3-23-11-39-23-47-6-5-30-18-39-22-3-1-10-3-15-6-33-13-34-13-76-13l-30 1-10 3c-13 4-42 18-46 22-5 4-15 17-20 26-6 9-11 22-15 34-2 7-4 13-4 14-3 7-11 50-18 91-2 11-5 25-6 31s-2 13-3 16c0 3-1 9-2 14 0 4-1 10-1 14-1 3-2 9-3 14 0 5-2 18-4 29-4 25-6 35-11 53-5 16-6 28-4 31 1 2 5 5 8 7 4 3 7 5 8 7 0 2-2 8-9 17-9 11-22 32-29 45-3 7-11 21-16 31-12 21-13 24-9 40 2 14 4 16 14 17 4 0 67 0 140-1h164c40 0 130 2 131 3 1 0 90-1 101-2z"/></svg>