<svg xmlns="http://www.w3.org/2000/svg" width="1344" height="566"><path d="M0 283V0h1344v566H0V283m732 277c10-1 13-3 15-6 2-5 3-30 2-47s-1-45 2-83c1-27 1-48-2-60-8-36-16-50-40-71-5-5-14-12-20-15-12-9-14-11-14-18 1-8 3-18 6-30 6-20 6-21 7-47 0-23 0-27-2-41-7-45-26-71-67-92-19-10-27-13-49-16-12-1-15-1-28 0-27 2-36 4-55 13s-34 24-44 45c-7 13-10 25-14 56-5 29-5 30-10 34-6 5-7 10-4 27 1 6 3 18 4 26 1 15 1 16 0 21-3 7-10 12-26 19-18 9-47 23-53 27-3 2-9 5-13 7-10 6-24 14-33 21-17 13-52 51-67 73-7 11-7 12-16 35-5 17-6 27-5 48 1 9 3 19 4 24 1 7 1 9 0 18-1 5-1 13-1 18 0 8 1 9 3 11l2 3 48-1c26 0 56 0 66-1 26-2 159-1 190 2 16 1 30 1 46 1 12-1 32 0 44 0 32 1 115 0 124-1z"/></svg>