<svg xmlns="http://www.w3.org/2000/svg" width="1344" height="566"><path d="M0 283V0h1344v566H0V283m763 196c3 0 7-1 9-1 4-2 15-5 23-6 6-1 19-4 35-9 6-1 13-4 16-4 4-1 8-3 10-3 2-1 14-1 30-1 33-1 30 1 30-15-1-6-2-17-3-24-2-15-3-41-2-55 1-10 0-16-5-23-3-4-8-7-30-14-18-5-21-7-25-14-1-2-4-5-7-8l-4-6c0-1 1-3 3-4 4-4 4-5 3-14-1-5-3-16-3-26-1-10-3-23-4-29-1-10-2-16-7-37-1-5-3-13-4-18-8-35-20-66-32-82-11-15-28-28-48-38-16-7-22-8-36-8-10 0-12 0-18 2-3 2-8 4-10 6-3 2-6 2-14 3-12 1-14 2-22 6-18 11-33 37-41 72-5 22-6 28-9 51-1 10-1 59 0 70 1 5 2 17 2 26 1 9 2 19 3 22 1 4 1 5 0 7-2 2-13 2-23 0-5-1-13-2-20-2-14 0-13 0-28 15-14 14-42 35-60 45-2 1-7 5-12 9-10 9-14 10-25 10s-13 1-15 8c-3 8-9 22-12 28l-5 10c0 3-2 8-3 12-2 3-3 8-4 10 0 3-2 8-3 12-2 4-3 8-3 8 1 2 11 3 14 2 2 0 7-2 10-4 20-7 38-10 56-10 33 0 43 0 46-2 6-3 18-2 30 3 5 1 14 4 20 5s11 2 12 3c2 1 27 2 40 2 67 0 64 0 77 2 12 2 19 4 24 8 2 2 3 2 20 1 10 0 21 0 24-1z"/></svg>