<svg xmlns="http://www.w3.org/2000/svg" width="1344" height="566"><path d="M0 283V0h1344v566H0V283m906 278c25-1 81-1 141 0 38 0 69 1 70 1 1-1 9-1 17-2 18-1 23-2 25-5s1-6-2-12c-6-11-16-23-36-43-18-18-29-27-46-39-4-3-10-7-13-10-3-2-10-7-14-10-5-3-12-8-15-11-8-6-22-22-27-30-1-3-9-15-17-26-16-23-23-34-27-43-2-3-8-13-14-23-6-9-12-18-13-20-2-4-1-7 4-11 10-8 19-17 22-25 6-12 7-16 8-32 2-21-2-78-5-94-8-37-29-71-55-88-9-6-32-18-41-21-15-6-35-8-56-6-15 1-25 4-38 9-11 5-25 10-37 13-22 6-44 22-58 42-12 18-16 33-19 61-1 7-2 15-2 17-2 8-1 31 1 40 0 4 3 12 5 18 10 30 13 38 15 47 6 21 9 29 17 50 7 18 25 54 33 66 5 8 21 17 31 19h13c6 0 8 0 10 2 2 1 3 3 3 3 0 2-6 7-10 10-3 1-6 4-9 6-6 6-9 8-18 13-11 5-39 27-48 36-6 7-11 18-13 28-1 7-1 10 0 25 1 14 1 16-1 20-1 3-1 6-1 12 1 10 2 12 11 13 6 1 188 0 209 0z"/></svg>