<svg xmlns="http://www.w3.org/2000/svg" width="1344" height="566"><path d="M0 283V0h1344v566H0V283m526 276c23-1 47-2 54-3 17-1 152 0 163 1 14 1 138 1 165 0 13-1 24-1 26-1s82 2 107 2c18 0 20 0 22-1 3-3 3-4 0-9-5-9-14-18-45-42-19-14-28-20-42-27-7-3-13-6-14-6-1-1-4-3-6-4-6-3-18-14-21-19-3-3-3-5-3-8s6-21 10-32c3-6 19-37 31-57 24-42 25-44 38-53 9-7 19-17 26-28 10-15 18-37 18-47 0-6-3-11-7-14-6-3-7-5-7-8 0-2 2-12 5-22 9-33 13-59 15-87 1-24-2-40-13-67-6-14-9-17-17-19-11-4-20-4-103-4-118-1-140 0-149 6-6 3-13 17-20 36s-12 41-16 74c-1 9-3 18-4 20-1 4-4 5-13 7-15 3-22 16-21 41 1 22 10 44 22 58 8 9 9 12 9 21 0 15-6 54-10 63-5 14-15 33-19 38-5 5-7 5-31 6-30 0-33 0-38 5-3 3-8 9-11 15-11 16-22 30-29 37-6 7-22 19-34 26-3 2-8 5-12 8-10 7-28 18-40 24-28 15-46 28-67 48-20 19-19 21 4 23 16 1 17 1 77-1z"/></svg>