<svg xmlns="http://www.w3.org/2000/svg" width="1344" height="566"><path d="M0 283V0h1344v566H0V283m399 278h109c48-1 97-1 107-2 13-1 26-1 45 0 31 1 92 1 118 0 28-1 99 0 127 2 29 2 48 1 56-3 6-3 7-5 12-30 3-17 1-32-8-54-4-9-10-23-14-33-14-34-40-88-50-102-15-23-25-58-26-95-1-8-1-23-2-32-2-33-4-41-11-50-11-13-14-19-14-33-2-19-2-20-5-23s-3-3-10-3c-9 0-12-2-16-13-2-5-4-9-5-9-3-2-9 0-22 6-6 3-15 7-21 10-12 6-22 13-26 18-1 3-2 6-2 9-1 3-1 6-2 7 0 2 3 10 8 17 3 4 4 10 4 12-1 2-5 7-11 12-10 9-14 13-15 20 0 4 1 23 3 31 1 3 3 10 3 16 1 6 2 12 3 13 1 4 5 16 7 22 1 3 2 7 3 8 1 3 6 6 9 6 1 0 5 3 9 6 6 5 8 6 12 6 2 0 5 1 6 2 4 3 5 6 4 10-3 9-4 12-7 15-2 3-3 3-7 3-3-1-7-2-12-5-6-4-8-5-10-10-2-3-4-6-6-6-1 0-6 1-12 2-26 7-49 7-57 1-2-1-5-3-8-5-9-3-10-5-8-18 1-6 2-14 3-16 3-10 10-25 14-31 5-7 10-23 10-30 0-4 0-5-7-12s-8-8-9-15c-1-4-2-8-2-9s-2-5-4-10c-6-13-10-25-13-42-7-46-19-72-41-87-12-8-24-12-44-17-33-7-67 0-97 20-18 12-27 23-33 37-6 15-6 17-7 53-1 18-1 34-2 35-2 6-2 16 0 23 2 10 13 26 27 41 12 12 16 18 20 31 2 6 3 11 4 20 0 11 0 11-3 18-2 3-6 10-9 15-6 8-22 24-27 28-1 1-9 6-17 12-7 5-16 11-19 13s-7 6-9 8c-3 2-7 5-10 7-7 3-12 6-21 14-7 6-9 7-21 12-11 5-15 10-18 18l-2 7v59c0 52 0 60 1 63 3 6 6 7 31 8h25c1 0 11 0 22-1z"/></svg>