<svg xmlns="http://www.w3.org/2000/svg" width="1344" height="566"><path d="M0 283V0h1344v566H0V283m349 278c27-1 61-1 98-1h187c180-2 307-1 350 0 37 1 82 0 95-2 6-1 14-1 19 2 6 2 101 1 110-1 4-2 6-6 5-11 0-3-2-14-5-24-2-12-5-25-6-29-1-10-4-17-7-21-4-3-14-8-23-10-5 0-10-2-11-3-6-2-14-16-17-27-1-3-2-6-3-7-2-4-16-36-20-47s-9-24-21-54c-3-6-9-23-14-37-9-27-16-46-20-53-3-7-11-14-15-15-7-2-13 1-15 9-2 5-5 5-8 1-1-1-5-7-8-13-9-14-13-20-15-23-6-6-17-8-25-4-5 4-8 4-14-1s-8-6-12-6c-9 0-14 6-14 18 0 8-1 9-6 9-7-2-13 4-14 14 0 5 2 28 5 39 2 10 6 24 12 38 6 13 8 22 10 34 1 9 4 15 12 27 9 13 33 43 53 65 14 16 28 34 34 42 6 11 16 30 19 38 3 11 3 13 1 16-4 6-13 4-42-10-14-6-18-9-21-12-4-4-8-12-18-34-3-6-7-14-10-17-7-10-44-41-53-46-11-5-29-6-65-3-11 0-29 1-40 1-18 0-21 0-24-1-5-3-6-6-6-15s5-44 8-59c3-11 4-14 10-20 6-5 8-14 7-29-2-19-4-27-14-61-9-29-11-34-27-66-13-27-24-45-31-55-19-26-59-50-96-59-11-2-14-2-32-2-16 0-20 0-32 2-8 2-18 4-23 5-14 2-37 10-49 16-27 13-44 31-61 67-8 16-11 27-14 40-2 13-1 19 2 30 7 19 7 23 7 48-1 25-1 24 7 48 4 11 4 12 5 28 1 17 3 26 8 36 7 14 23 30 44 43 8 5 10 9 10 20 0 9-4 21-9 28-15 21-18 24-28 31-9 6-32 16-36 16-1 0-2-1-3-2s-2-9-3-18c-1-19-3-27-10-42-6-14-10-19-16-19-8 0-14 7-16 20-1 3-1 17-2 30-1 25-1 31-5 31-2 0-7-9-9-20-6-21-9-47-11-76s-5-50-9-58c-2-4-7-9-11-10-3 0-7 2-8 6-2 6-4 22-6 41-2 32-4 42-7 39-1-1-6-15-15-41-8-25-13-40-16-45-1-1-4-3-7-5-6-4-11-4-15 0-5 4-5 8-1 27 6 34 9 52 13 78 1 6 1 7 0 9-2 1-2 1-4-1-1-1-4-6-7-12-6-12-7-14-15-37-8-21-12-26-20-27-5 0-5 0-9 4s-6 10-4 18c1 7 12 45 14 54 4 12 7 23 6 24-1 3-5 0-17-13-14-15-20-19-27-19-4 0-8 4-10 8-1 5 2 13 7 24 5 10 12 20 34 50 8 10 16 21 19 26 7 10 15 18 21 21 3 2 6 2 16 3 8 0 14 1 16 1 1 0 20-1 43-2z"/></svg>