<svg xmlns="http://www.w3.org/2000/svg" width="1344" height="566"><path d="M0 283V0h1344v566H0V283m917 278c18-1 21-2 29-8 2-2 8-5 14-8 6-4 12-7 13-9 4-3 7-10 8-18 2-11-2-20-10-28l-5-4h-15c-8 0-19 0-24-1s-13-1-19-2c-10 0-11 0-14-3-2-1-3-3-3-6-1-2-3-5-5-7l-3-3h-12c-11 1-11 1-20 5-11 6-17 10-28 19-5 4-10 7-12 8-4 3-23 7-29 7-8 0-10-3-30-51-3-8-7-17-9-21-9-20-12-27-19-43-4-9-8-18-8-19-2-4 8-19 15-25 3-2 7-5 8-7 1-1 3-4 6-5 2-2 8-6 11-10 4-4 10-8 12-10 7-5 9-9 11-26 3-25 3-24 37-86 14-27 14-27 15-34v-6l-11-11c-9-9-14-14-19-21-9-14-13-19-23-27-19-15-34-24-59-33-19-8-27-9-47-9-20 1-28 3-44 11-11 5-12 5-25 19-21 22-25 29-39 56-8 15-17 29-23 34-7 6-17 10-35 15-20 6-23 8-37 24-13 13-15 19-17 32-1 12-3 22-6 36-1 7-2 13-2 14 1 2 5 7 10 12 12 11 12 12 2 29-6 13-12 26-22 49-3 7-8 17-10 22-8 16-8 20-7 41 1 24 1 32-1 55-1 17-1 21 0 24s2 6 2 8c2 6 5 9 14 14l8 4 25 1c13 1 31 1 38 1h91c40 0 61 0 66-1 4-1 12-1 18-1 14 1 71 2 144 2 33 0 63 1 66 1 7 1 10 1 29 0m-640-20c2-1 8-1 13-2 11-1 21-4 26-7 2-2 6-4 10-6l6-3 7 2c3 1 9 2 13 3 3 0 8 1 11 3 6 2 10 3 12 0 3-2 2-5 0-11-4-9-8-13-19-18-5-2-11-6-14-8-3-3-6-6-8-7-3-2-4-4-5-7s-3-5-6-7c-3-3-5-5-8-10-1-4-5-9-8-11-3-3-7-8-9-11s-7-9-11-12c-5-3-8-7-8-8-3-15-3-18 0-25 1-2 2-7 3-14 1-8 1-12 3-17 2-3 4-9 5-15 3-10 3-16-1-32-2-9-3-12-9-18-2-3-5-7-6-9-1-3-1-15 0-24 1-7 0-25-2-28s-5-3-10 0c-6 3-13 10-15 15-1 2-2 6-2 11 0 10-1 18-3 20-1 1-6 2-16 3-16 1-18 2-24 7-17 17-31 56-34 103-1 11-2 16-8 23-5 8-4 11 11 26 13 14 15 17 16 29 3 26 4 28 28 45 18 13 25 17 35 19 6 2 22 2 27 1z"/></svg>