<svg xmlns="http://www.w3.org/2000/svg" width="1344" height="566"><path d="M0 283V0h1344v566H0V283m607 276c34-1 65-1 69-2 10-1 130-1 144 0 17 2 124 3 195 3 72 0 69 0 69-6 0-3-6-12-15-24-3-3-9-11-12-16-7-9-9-11-24-24-10-7-19-15-21-17-3-1-13-11-23-20-10-10-22-21-27-25s-12-9-15-12-10-8-14-11c-20-16-25-18-47-19-19-1-23-2-32-11-12-10-16-21-17-43 0-12 0-13 2-22 4-13 6-17 18-35 18-27 21-37 19-67-1-8-1-13 0-21 3-14 4-40 2-50-1-9-6-22-11-32-9-18-32-36-58-46-21-8-51-11-77-7-18 3-43 12-53 20-9 7-28 27-30 32-3 7-5 16-5 25 0 8-1 12-4 24-2 8-5 17-7 20-1 3-3 7-3 9-1 2-3 7-5 11-3 7-3 8-4 19 0 11 0 13 2 19 1 4 2 9 2 15 0 5 0 13 1 16 1 4 1 11 2 16 2 18 9 40 20 69 6 16 10 20 24 28 4 1 8 4 10 5 2 3 2 3 1 6-1 1-5 4-9 7-6 4-12 7-45 25-7 4-15 9-18 11s-8 5-10 7c-18 13-44 35-52 44-11 13-33 44-39 57-4 9-5 17-2 21 3 2 12 3 27 2 6 0 38-1 72-1z"/></svg>