<svg xmlns="http://www.w3.org/2000/svg" width="1344" height="566"><path d="M0 283V0h1344v566H0V283m456 277c11-1 59-1 146-2 70 0 161 0 200-1 91-1 101-1 125 1 22 1 52 0 54-2 1 0 1-2 1-3-1-3-10-16-21-31-13-16-22-33-22-40 0-3-7-16-12-22-2-4-8-10-12-14-8-10-11-15-15-28-6-19-8-30-11-56 0-4-2-10-3-12-1-3-6-10-12-17s-13-16-17-21c-14-18-21-23-43-31-4-2-13-6-18-8-10-4-10-5-7-17 7-20 7-26 7-60 0-32 0-33-2-46-2-8-4-16-5-18 0-3-2-8-3-13-3-13-9-31-12-37-4-9-25-26-40-34-5-2-13-6-20-8-10-3-13-4-23-5-6 0-15-1-19-1-6-1-8-1-15 1-5 1-11 3-14 5-4 1-9 3-13 4s-12 4-21 8c-14 7-14 8-20 14-3 4-7 8-8 9-2 2-14 26-15 32-2 12-3 29-2 43 3 26 3 24-2 34-4 7-4 9-5 16-1 14 5 27 19 44 7 8 13 21 14 28 0 7-1 32-4 44-1 10-3 13-8 15-3 1-6 3-6 4-5 6-14 21-17 25-1 2-5 7-7 10-3 4-6 9-7 11-4 8-8 12-15 15-6 3-7 3-14 2-8 0-11 1-25 9-5 3-10 6-11 6 0 0-4 2-8 5s-10 6-14 8c-10 4-29 12-33 13-4 0-20 16-29 27-12 15-18 20-21 18-4-1-3-7 6-31 8-20 25-50 35-60 6-7 15-18 18-24 1-2 1-2-2-8-2-3-4-9-5-14-1-8-1-10 0-19 2-13 3-14 10-13 2 0 6 1 7 1 1 1 3 1 5 1 1 0 5 1 9 2 7 3 10 2 13-3 1-2 3-5 5-8 5-6 6-10 3-15-3-7-3-11-1-15 1-2 1-5 1-6-1-3-17-19-21-21-3-2-5-6-3-10 0-1 1-3 1-5 0-5-4-6-19-6-14 0-13 0-24 8-9 7-11 10-13 20-2 9-4 12-9 21l-5 6v8c2 12 2 13 0 28-1 16-3 21-9 33-10 21-26 42-54 73-17 19-29 34-34 43-14 24-19 34-34 62-1 2-4 7-6 11l-3 8 2 2c2 2 4 2 15 2h45c29 1 32 1 36 3s6 3 40 3c38 1 53 1 76-1z"/></svg>