<svg xmlns="http://www.w3.org/2000/svg" width="1344" height="566"><path d="M0 283V0h1344v566H0V283m280 276c9-1 17-1 17 0 1 0 17 0 255 2 125 0 134 0 141-1 13-4 15-6 19-20 1-7 2-13 3-25 0-17 0-22-7-39-2-5-4-11-5-14s-4-9-6-14c-4-8-5-9-5-19 0-14 0-15-5-17-5-3-23-11-41-18-8-4-16-7-18-8-2 0-9-3-15-6-19-7-23-8-34-13-5-3-10-6-11-7-4-8-2-24 8-53 6-18 7-24 8-34 2-16 2-27 0-43 0-6-1-16-2-20-1-11-4-32-7-45-1-5-2-12-3-14 0-2-2-11-4-19-10-41-18-57-39-76-14-14-33-25-56-33-19-7-42-8-55-2-4 2-16 7-28 12-11 4-23 10-26 11-15 9-33 40-41 71-8 30-15 74-21 131-1 10-3 25-4 34s-2 21-2 31c0 15 0 18 3 30 4 17 7 31 7 34 0 6-9 11-30 19-6 2-14 6-18 7-5 3-21 15-38 28-4 3-9 6-11 7-6 3-19 12-23 15-5 5-5 6-6 16-1 5-2 12-5 20-5 15-8 26-8 33-1 3-2 12-3 20-2 15-2 18 2 20 3 1 92 0 114-1z"/></svg>