<svg xmlns="http://www.w3.org/2000/svg" width="1344" height="566"><path d="M0 283V0h1344v566H0V283m504 276c22-2 104-3 179-3 6 0 14 0 18 1 6 1 26 1 109 1 66 0 107 0 115-1 16-2 14-2 48 0 39 1 52 1 55 0 1-2 1-2-3-6-11-10-37-26-63-39-10-5-19-11-22-13-6-5-24-27-26-31-3-4-2-7 1-16 6-17 25-56 42-89 14-26 15-27 29-35 16-9 27-19 36-33 10-18 16-42 12-52-1-2-4-5-6-8-8-6-9-7-6-25 1-8 3-16 3-18 1-4 3-17 7-44 1-8 3-19 3-26 2-24-1-37-13-59-9-19-15-27-26-35-5-4-11-8-13-10-2-1-5-3-8-4s-7-3-9-4c-9-4-50-6-120-6-48 1-56 1-61 2-10 3-13 5-22 14-6 6-9 9-14 20-14 28-26 67-28 94-2 20-5 41-7 43-1 3-3 4-9 6-10 4-12 5-16 14-3 6-3 7-4 19 0 10 0 15 2 23 4 19 10 30 25 45 8 8 9 9 9 14 1 7-1 35-3 50-4 24-9 38-19 52-6 7-8 8-20 8-6-1-12-1-15-2-2-1-8-1-13-2-9 0-10 0-14 2-3 2-9 8-15 14-30 33-39 40-64 49-5 2-13 6-17 9-13 8-31 18-41 23-32 15-66 36-78 48-6 5-6 6-5 8s6 3 29 4c25 1 38 1 58-2z"/></svg>