<svg xmlns="http://www.w3.org/2000/svg" width="1344" height="566"><path d="M0 283V0h1344v566H0V283m807 277c9-1 11-3 17-17 7-15 8-19 7-31v-10l5-10c3-7 8-14 10-18 14-22 18-29 25-44 7-13 11-20 16-26 9-11 12-15 14-21 1-6 1-8-3-18-1-4-4-10-5-13-1-4-3-8-5-10-5-5-9-4-14 6-1 4-3 8-3 9 0 4-4 14-7 17-9 9-24 9-21 0 0-1 4-9 9-17 6-12 8-16 8-20 1-8-1-11-7-14s-10-4-16-1c-5 1-11 1-13 0-1-2-1-3 1-6 11-18 14-23 14-25 0-1 1-4 2-6 5-9-2-19-13-19-6 0-10 3-13 9s-16 23-22 28c-2 2-6 5-9 6-4 2-5 2-13 1s-9-1-13 0c-3 1-6 3-7 4-6 7-15 23-19 34-2 4-4 9-5 11 0 2-4 16-8 30-6 24-8 29-13 41-12 26-26 53-32 62s-14 18-16 18c-1 0-5-3-9-8-5-4-11-9-13-11-6-5-9-10-11-21-1-11-10-29-16-35-3-2-10-8-17-12-15-9-15-10-9-17 5-5 9-13 11-21 0-2 2-9 5-16 16-46 19-56 20-76 2-27-1-73-6-103-1-9-3-20-4-24-6-44-21-80-41-102-15-15-33-28-46-34-15-7-35-8-50-4-4 1-12 3-18 4-24 3-25 3-34 7-19 9-37 25-47 41-3 5-6 11-6 13-1 2-3 6-4 9-4 9-10 26-13 38 0 3-2 10-4 16-6 22-11 48-15 76 0 6-1 11-1 12-1 1-2 11-3 23-3 26-3 46-1 77 1 25 1 33-2 44-3 6-4 9-12 19-18 22-37 56-45 80-2 6-5 16-7 21-3 7-4 12-4 16 0 3-1 9-2 15-2 7-2 10-1 11 1 3 8 7 17 11 4 1 8 1 118 1h224c65 0 117 0 127 1 18 1 59 0 68-1z"/></svg>