<svg xmlns="http://www.w3.org/2000/svg" width="1344" height="566"><path d="M0 283V0h1344v566H0V283m621 278c4-1 7-1 12 0 9 2 111 3 120 1 12-2 24-4 27-5 6-1 8-8 4-14-1-3-3-12-5-39-1-7-3-18-4-24-5-20-5-28-4-64 1-44 1-57-1-72-3-21-7-35-13-46-4-8-6-11-20-25-8-8-12-14-13-16-2-6 1-22 7-41 8-24 8-24 9-44 2-32 0-60-6-79-8-25-26-43-57-58-16-7-41-15-56-18-16-2-46-1-54 2-3 1-9 3-13 4-12 4-24 12-38 24s-30 43-32 63c-3 24-6 43-8 46-1 2-3 5-6 6-7 5-7 7-7 28l-1 20-3 7c-5 10-14 24-20 30-7 7-13 11-25 16-17 8-41 22-66 40-17 12-25 18-43 36-17 16-39 44-50 63-6 11-13 31-16 48-1 6-3 13-4 15-1 4-4 4-5-1-1-2-2-6-3-8-4-9-6-14-8-20-1-4-5-13-8-20-12-27-13-32-11-57 1-18 1-20-4-25-4-5-8-6-16-2-5 2-9 4-9 5-1 2-1 5-1 10l1 7-5 5c-2 2-6 5-7 6-4 4-4 7-1 14 4 8 4 11-3 24-5 9-6 13-6 18-1 8-2 9-7 10-5 2-8 2-21 1-30-5-28-4-30-3-1 2-1 2 0 8 5 14 13 32 20 43 2 4 5 9 5 12 3 8 8 17 16 28 11 16 14 19 18 21 5 2 11 2 23 0 9-3 11-3 13-8s6-19 7-24c0-3 2-10 4-17 5-15 8-19 14-21 5-1 4-1 9 2 4 4 8 12 9 21 1 4 2 12 3 19 2 9 2 15 2 21-1 10 0 11 7 19s6 8 45 7h92c84-2 101-2 122 0 10 1 25 2 32 2 19 1 82 0 89-1z"/></svg>