<svg xmlns="http://www.w3.org/2000/svg" width="1344" height="566"><path d="M0 283V0h1344v566H0V283m556 277h74c15 1 41 0 58 0 22-1 35-1 47 0 19 1 71 2 85 0h94c150 1 152 1 153-1 3-2 2-4 0-9-3-5-5-11-6-25-1-11-5-20-10-28-3-3-6-8-8-12-2-3-5-7-7-9-4-4-23-13-38-19-12-5-32-13-39-16-9-5-9-8-7-30 2-13 3-18 8-33 11-36 13-53 13-103 0-45-1-69-6-114-2-12-8-38-12-52-9-28-30-55-53-71-25-17-54-26-76-21-5 1-14 1-24 1-18 1-23 2-35 8-13 7-38 28-48 39-15 17-29 47-36 75-2 9-5 20-7 26-3 12-4 19-8 40-2 8-4 17-5 20 0 4-1 10-2 14s-2 11-3 16c0 4-2 19-4 32-5 42-6 50-7 56-2 9-7 26-10 31-5 10-20 20-41 27-8 3-53 24-58 27s-29 13-41 18c-17 5-20 7-24 12-5 6-6 12-4 24 1 6 1 7-1 14-1 3-4 10-7 15-12 25-17 38-16 43 2 5 5 5 28 6 13 0 26 1 29 0 4 0 28 0 54-1z"/></svg>