<svg xmlns="http://www.w3.org/2000/svg" width="1344" height="566"><path d="M0 283V0h1344v566H0V283m904 277h160c39 1 118-1 138-2 16-1 37-5 42-7s5-5 5-14c-1-7-1-10-4-14-3-6-11-14-24-22-5-4-11-7-12-9-6-7-19-39-24-59-4-17-9-25-16-29-5-2-15-4-23-4-9 0-10-2-34-51-10-22-33-91-43-129-6-25-13-45-18-55-4-7-10-12-14-12s-10 3-10 6c-1 1-1 3-2 6-1 5-3 7-6 5s-6-9-13-24c-2-5-6-12-8-16-6-8-10-11-17-11-4 0-5 1-9 5-3 3-5 5-6 5s-4-3-8-6c-8-8-13-10-19-6-4 2-7 8-7 16 0 5 0 7-2 9l-2 2-5-2c-6-1-6-1-10 1s-6 6-6 13c0 6 3 26 5 36 0 3 2 10 2 14 2 7 3 10 8 27 4 11 8 26 9 36 1 5 2 11 3 13 1 5 8 16 18 30 4 6 11 16 15 22s17 22 28 36 24 30 28 36c9 13 20 32 24 44 2 4 6 11 8 16 4 10 7 19 7 22 0 1-2 2-4 2-5 0-10-2-17-6-3-2-8-5-11-7l-14-7c-3-3-10-7-14-9s-10-6-14-9c-6-5-7-6-16-25-6-11-11-21-12-23-2-4-12-13-26-23-31-25-41-28-76-26-10 1-22 1-27 2-34 4-47 4-51-1-5-5-5-19 2-48 2-13 4-16 8-18 4-3 8-7 10-13 2-9 4-28 4-36-1-7-7-33-11-46-7-20-26-65-38-86-25-47-39-65-67-86C663 5 661 5 584 7c-64 1-71 3-93 15-17 10-31 23-40 37-7 10-19 32-23 43-5 13-7 22-8 38v14l4 5c6 10 7 15 7 29 0 8-1 19-2 26-2 16-1 22 3 33 6 14 7 18 7 31 0 20 2 31 10 46 6 10 21 25 33 33 10 7 12 9 12 17 0 6-3 18-5 23-9 17-20 29-35 39-4 3-25 12-28 12-4 0-4-4-5-28-1-27-2-31-7-46-9-23-12-28-20-28-6 0-10 3-13 10-5 8-5 14-4 42 0 21 0 25-1 28-4 10-9 2-15-24-4-16-6-27-9-46 0-6-2-16-2-22-1-6-2-16-3-23-1-16-4-34-5-38-2-4-7-9-11-9-8 0-10 8-14 52-1 8-2 20-3 26 0 5-1 10-1 11-1 0-2-1-2-2-2-3-11-30-17-48-3-14-9-31-12-36-4-8-14-14-21-11-6 3-6 11-2 34 2 14 6 37 7 50 1 6 1 11 2 11 0 1 3 22 3 26 1 12-15-17-28-49-5-16-7-20-11-24s-8-6-13-6c-11 0-13 9-7 32 4 15 9 32 11 39 1 3 3 7 3 9 1 3 3 8 5 13 3 9 4 13 1 14 0 0-6-6-12-13-18-22-28-29-37-25-6 4-6 9-1 22 3 9 17 32 24 41 2 4 8 11 12 18 5 6 13 17 18 24 6 7 12 16 14 18 12 16 41 62 41 65 0 0 1 2 3 3l2 2h56c31-1 67-1 82-1h193c10 0 20 1 23 1 2 0 30 1 62 0h192z"/></svg>