<svg xmlns="http://www.w3.org/2000/svg" width="1344" height="566"><path d="M0 283V0h1344v566H0V283m606 277c15-1 127-2 242-2 73-1 73 0 73-5 0-6-31-37-52-51-16-11-45-25-56-27-4-1-31-13-38-17-24-14-26-17-23-28 3-9 6-14 18-32 10-15 23-34 30-46 11-19 24-36 31-41 15-11 26-26 37-52 5-12 5-12 6-20 1-9 0-13-6-18l-6-6c-1-3-1-5 5-30 16-62 19-102 8-131-6-14-15-31-21-38-4-3-8-7-9-8-7-3-20-4-89-4-90-1-144 0-154 3-4 1-8 3-9 4-4 4-17 31-22 45-7 21-10 40-14 73-1 9-3 19-4 20-2 4-5 6-13 8-10 2-15 4-18 9-7 9-8 26-4 46 5 21 10 33 23 46 10 12 10 12 10 29-1 32-11 63-24 78-3 4-5 5-11 7s-9 2-32 2c-21 0-25 0-28 1-4 3-10 10-22 28-15 21-26 36-34 44-5 4-8 8-9 9-1 4 1 26 2 40 1 6 3 19 4 29 2 19 5 28 9 30 5 2 22 3 66 3 33-1 48-1 61 1 10 0 20 1 23 1 11 1 38 1 50 0z"/></svg>