<svg xmlns="http://www.w3.org/2000/svg" width="1344" height="566"><path d="M0 283V0h1344v566H0V283m586 276c24 0 61-1 82-1 44-2 130-2 174 0 18 0 55 1 82 1s68 1 90 1c47 1 76 0 79-3 4-5-5-25-18-40-5-5-11-13-15-17-10-14-25-28-44-42-3-2-11-9-18-16-7-6-17-15-22-20-15-13-56-43-62-46-3-1-8-2-17-3-17-1-28-4-33-7-8-4-18-18-22-32-2-9-2-29 1-42 3-12 6-18 14-28 11-14 19-30 23-45 3-9 2-13 0-26l-2-9 2-20c3-22 2-42 0-52-6-19-18-36-35-49-13-10-37-21-53-24-21-5-59-3-78 3-19 5-40 21-52 37-11 15-15 28-17 56-1 8-2 19-2 24-1 5-2 18-2 28-1 14-2 21-3 27-3 12-3 37-1 48 1 4 3 10 3 14 4 24 16 56 26 66 2 3 8 8 13 11 9 6 12 9 12 14 0 3-1 4-4 7-4 4-23 15-39 22-19 10-35 21-62 42-26 21-43 39-63 67-9 13-17 32-19 45 0 3 0 4 2 7 3 2 3 3 17 3h15c2 0 23 0 48-1z"/></svg>