<svg xmlns="http://www.w3.org/2000/svg" width="1344" height="566"><path d="M0 283V0h1344v566H0V283m764 247c5-1 12-3 16-4s10-3 14-3c16-4 21-5 28-7 3-1 10-3 14-4 3 0 9-2 11-2 2-1 8-3 13-4s11-3 14-4c18-7 21-7 45-8 19 0 23 0 25-1 1-1 1-5 2-15 0-12-1-22-4-45-1-3-1-8-1-10 0-12-4-30-8-33-1-1-4-3-8-4-3 0-7-2-9-2-20-5-33-11-35-16-2-3-4-19-4-28 0-7-2-11-8-12-4-2-9-4-10-7-1-4 4-7 10-7 3 0 5-1 6-2 2-2 2-2 1-6-10-22-22-56-22-60 0-2-1-5-2-7-2-5-12-33-19-53-2-6-6-17-8-23s-5-14-6-17c-2-6-9-18-15-26-5-6-19-19-25-24-10-7-39-20-55-24-9-3-15-2-30 1-6 1-14 2-17 3-39 7-53 13-64 31-14 20-23 51-25 86-1 10-2 22-2 25-1 4-1 27-2 51 0 32 0 44-1 45-1 2-8 6-34 21-20 11-26 18-31 34-1 4-4 8-5 10-6 5-15 7-21 3-3-1-3-1-16 6-6 3-16 8-22 10-12 4-15 6-23 16-7 9-14 13-25 15-4 1-9 3-11 4-5 2-10 9-10 14-1 2-2 6-4 8-1 3-2 7-3 10 0 4 0 5 2 8 2 2 3 5 3 8 0 7 2 8 13 9 6 1 11 2 13 2 2 2 4 2 5 1 4-1 19 0 27 2 7 2 10 2 23 2 18-1 24-2 28-4 2-1 6-3 10-4 6-1 6-1 10 0 3 2 13 4 21 6 2 1 6 2 8 3 3 2 6 3 7 3s4 1 7 2c10 4 28 5 59 4 23 0 33 0 46 1 8 1 21 2 27 3 19 2 33 7 42 15 2 3 5 5 7 6 2 2 17 1 28-2z"/></svg>