<svg xmlns="http://www.w3.org/2000/svg" width="1344" height="566"><path d="M0 283V0h1344v566H0V283m624 278h128l8-2c3-2 7-4 9-5 4-6 4-8 4-78 0-30 0-43 1-55 5-40 1-72-11-96-6-13-11-19-27-35-15-16-18-19-17-28 2-11 6-32 10-43 6-18 6-25 6-55-2-70-9-88-46-112-15-10-32-19-43-22-19-6-41-7-58-5-4 1-12 1-16 2-22 3-39 9-54 21-20 14-36 43-39 72-1 6-3 19-4 27-2 20-2 22-8 26-8 6-9 11-7 29 2 11 2 28 1 33-1 4-10 17-16 25-4 5-13 11-21 15-2 1-8 3-11 5-7 3-45 25-50 28-1 1-10 7-18 13-31 21-53 43-77 77-11 16-14 22-19 33-2 5-4 11-4 13-6 13-10 33-11 48 0 8 0 15 2 30 3 29 4 32 11 36 3 2 4 2 31 2 16 0 45 0 65-1 24-1 55-1 94-1 80 1 89 2 115 3 32 2 35 2 44 1 4 0 17 0 28-1z"/></svg>