<svg xmlns="http://www.w3.org/2000/svg" width="1344" height="566"><path d="M0 283V0h1344v566H0V283m513 275c14-1 59-1 135 0 67 0 179 0 238-1h44c3 1 20 1 38 2 18 0 53 0 79 1 44 0 46 0 48-2 2-1 2-2 2-4-2-7-17-21-37-33-18-12-72-41-84-44-2-1-10-5-18-8-11-6-14-8-22-15-4-5-9-10-11-13-2-4-2-4-1-10 1-4 3-10 4-15 6-14 14-34 15-37 0-2 9-22 16-37 4-10 11-20 15-23 2-1 5-3 8-4 9-2 19-8 25-14 19-19 33-48 31-65-1-4-2-5-8-11l-6-6v-7c1-3 3-14 6-23 10-31 14-47 18-77 3-22 3-29-3-51-7-23-13-38-20-46-5-5-8-7-16-9S863 3 812 4c-49 1-46 0-57 21-13 24-20 45-26 80-8 38-9 41-20 42-13 2-19 10-22 29-2 15 1 39 8 53 3 7 6 10 12 16 12 12 13 14 11 33-5 49-6 57-10 70-7 21-18 38-28 42-4 1-15 1-41-1-13-1-16-1-22 4-2 1-8 8-14 15-6 8-15 17-20 22-10 10-26 21-34 24-3 1-12 5-19 9-16 7-31 15-49 22-14 6-40 20-52 28-11 7-21 17-30 28s-10 15-6 17c3 1 26 2 67 1 23 0 47-1 53-1z"/></svg>