<svg xmlns="http://www.w3.org/2000/svg" width="1344" height="566"><path d="M0 283V0h1344v566H0V283m728 279c6-1 46-1 108-1 129 1 142 0 145-2 1 0 2-2 3-3 0-1-2-10-3-19-2-9-6-24-7-33-7-32-10-40-16-51-5-8-13-14-25-20-6-3-13-7-15-8s-7-4-12-6-11-6-14-9c-6-5-6-6-6-12-1-3-2-9-2-12-1-5-1-14-1-26 0-10 0-23-1-28-1-6-2-14-2-19-1-11-5-27-10-37-1-5-4-13-5-18-8-37-16-62-25-79-4-7-16-25-25-37-2-4-8-9-12-12-16-13-32-18-51-15-9 2-12 3-23 8-15 7-32 18-55 36-16 12-18 14-23 24-9 16-10 29-5 53 2 13 2 15 2 38 0 21 0 25-1 27s-6 5-10 7c-8 3-10 5-17 13-5 5-11 13-14 19-21 34-21 33-25 56-2 15-7 33-10 38-1 2-3 6-6 9-4 6-7 12-12 24-4 12-8 16-18 18-5 1-9 7-12 14-7 16-14 33-16 36-1 2-4 5-6 7-5 3-11 11-11 14s3 4 13 6c13 1 211 1 225 0z"/></svg>