<svg xmlns="http://www.w3.org/2000/svg" width="1344" height="566"><path d="M0 283V0h1344v566H0V283m577 276c2-1 14-1 39 0h110c13-1 19-1 21-2 6-3 8-8 4-13-5-8-7-13-8-24-1-6-1-12-2-14-2-9-3-29-3-39 1-14 1-14 15-14 29 2 34 2 51 1 9-1 21-3 26-4 4 0 14-1 21-2 20-2 45-5 50-7 3 0 6-1 8-1 3 0 19-6 26-9 21-10 31-18 40-28 8-11 9-13 9-20-1-9-12-27-28-49-16-18-21-23-46-37-12-7-15-10-26-19-13-13-15-14-27-16-5 0-11-3-32-15-18-11-24-13-33-14-6 0-9-1-15-4-5-2-9-5-10-5-1-2-11-7-25-15-3-2-7-4-7-5-1-2-2-8-2-20-1-18-2-24-7-38-2-4-4-13-6-18-1-6-3-13-5-15-6-13-19-28-31-37-11-8-28-14-50-19-24-6-31-6-43-5-26 4-49 17-76 43-7 7-12 12-17 19-9 15-27 51-30 64-1 3-3 6-6 9-7 7-40 29-52 34-11 4-18 9-31 20-11 8-15 10-31 16-23 9-29 14-38 27-8 12-10 17-13 28-2 7-2 11-2 28-1 24 0 28 7 44 7 13 7 17 4 37-2 17-2 21 0 32 1 10 6 18 10 21 2 1 7 3 12 4 15 4 18 7 19 19 0 8-2 32-6 45-2 11-3 14 0 17 1 1 3 1 23 0 28-1 166 0 173 1s37 0 40-1z"/></svg>