<svg xmlns="http://www.w3.org/2000/svg" width="1344" height="566"><path d="M0 283V0h1344v566H0V283m692 279c21-2 56-3 67-2 5 1 50 1 102 2 86 0 94 0 95-2 3-2 2-5-1-9-5-5-12-8-27-15-19-7-28-10-42-13-8-2-16-4-18-5-2 0-8-2-12-3-16-4-27-11-35-24-5-7-4-10 5-28l10-20c2-2 3-6 4-9 1-2 4-9 8-16 5-9 6-14 9-25 2-7 3-16 4-21 1-10 3-52 4-94 1-52-2-67-20-104-11-23-27-42-44-55-9-7-34-19-46-24-16-6-23-7-49-8-14-1-28-1-32 0-12 1-41 9-52 15-16 7-40 29-50 45-17 25-23 45-25 83-1 19-1 23-5 40-5 21-6 35-6 44 1 9 3 12 8 16 3 2 5 4 5 5 1 2 1 9-1 15-1 5-1 9-1 16 1 13 3 26 4 28 0 1 1 6 2 12 1 10 3 17 9 34 6 18 6 21 0 30-8 10-18 18-29 22-4 2-9 4-12 5-2 2-10 4-16 6-27 7-58 18-75 25-13 5-31 12-32 12-2 0-17 8-19 11-3 3-3 7 0 8 3 2 49 3 95 2 85-1 99-1 131 0 18 1 35 1 37 2 6 1 34 1 50-1z"/></svg>