<svg xmlns="http://www.w3.org/2000/svg" width="1344" height="566"><path d="M0 283V0h1344v566H0V283m575 109c16-1 48-7 64-12 7-2 15-4 18-5 3 0 7-1 9-2 10-3 39-2 59 3 5 1 11 2 13 2 8 2 41-3 48-6 2 0 5-1 6-1s4-1 6-2c6-2 19-4 27-5 4 0 12 0 19 2 16 2 15 2 15-11-1-5-2-16-3-23-3-31-4-34-8-35s-5-3-2-6c1-2 4-6 5-10 3-6 3-7 7-7 5 0 6-2 5-5 0-2 1-7 3-15 6-17 7-29 8-60 0-22 0-31-1-43-5-39-8-56-15-71-7-16-30-34-49-41-7-3-26-3-32-1-2 1-6 2-9 3-3 0-7 1-10 1-2 1-6 2-9 3-11 2-24 13-31 25-7 13-10 25-10 50 0 7 0 18-1 24-2 28-3 44-3 73-1 40-1 39-19 40-6 1-22 0-37-1l-26-1-9 2c-4 2-9 4-10 4-1 1-4 3-7 5-4 2-8 5-10 6-8 6-14 8-27 8h-18c-6-1-7-1-11 2-3 2-8 6-12 9-6 4-8 6-10 11-2 4-4 10-5 17s-2 12-5 18c-4 10-5 18-3 21 3 3 11 4 26 3 8-1 16-1 19-2 3 0 4 0 5 2 3 3 4 16 2 21-3 5-2 7 2 10 3 2 4 2 9 2 2-1 10-1 17-2z"/></svg>