<svg xmlns="http://www.w3.org/2000/svg" width="1344" height="566"><path d="M0 283V0h1344v566H0V283m854 278c6 0 11-1 12-1 2-1 4-7 4-14 0-3 1-7 2-9 2-3 2-5 1-13s-1-11-4-15c-3-6-5-8-15-12-3-2-10-6-14-10-5-3-12-8-17-11-4-2-11-7-15-10-5-2-15-8-24-13-15-8-23-13-38-25-3-3-12-10-18-16-17-13-19-15-21-20-1-3-1-5 1-15 2-14 8-37 12-46 4-7 12-15 24-23 9-6 19-17 23-24 5-11 6-20 5-55-1-59-3-73-20-105-6-13-8-16-16-24-15-16-28-24-44-28-4-1-17-3-30-4-38-3-48-1-71 17-10 9-20 24-31 47-14 28-16 42-11 76 1 10 1 20 1 40 0 24 0 26-3 44-3 21-6 29-13 42l-4 8-12 6c-12 6-17 8-37 10-15 2-31 6-38 8-15 5-21 11-27 28-2 8-2 10-2 23v15l6 14c16 36 18 47 12 64-3 7-3 9-3 16 1 8 6 24 9 27 4 6 19 8 49 9 27 1 351 0 367-1z"/></svg>