<svg xmlns="http://www.w3.org/2000/svg" width="1344" height="566"><path d="M0 283V0h1344v566H0V283m618 211c14-1 17-1 21-3 3-2 8-3 11-3 4-1 6-1 9 1s4 2 21 2h82c61-1 85-2 94-4 4-1 25-5 35-7 4-1 9-2 12-4 6-4 13-6 27-7 13-2 18-3 29-9 6-2 9-5 14-10 6-6 7-8 11-16 5-14 5-17 2-20s-4-3-10-3h-7l-5-5-4-4-5 1c-14 4-28 1-37-9-2-2-5-3-7-4-5-2-17-17-23-29-1-3-4-9-6-13-11-20-17-30-19-36-4-7-16-29-20-36-20-30-26-35-67-58-7-4-21-12-31-18-25-15-45-24-75-35-20-7-26-10-31-14s-23-10-39-14c-8-2-10-4-17-14-14-22-31-33-50-33-6 0-16 3-21 6-10 6-21 24-29 47-5 15-5 18 2 35 4 7 5 8 10 8s8 3 15 12c2 3 7 9 10 13 3 3 6 7 7 8 1 4-4 10-14 20-16 15-19 18-25 26-3 4-11 13-18 20l-13 13-8 17c-5 9-11 22-14 29-5 13-12 29-24 53-4 10-8 18-7 18 0 1 3 1 8 1 14-2 26-5 31-9 2-2 6-4 9-5 5-3 6-3 13-3 7 1 8 1 13 4 2 2 5 3 6 3s3-1 6-3c5-3 9-3 8 1 0 1 0 6-1 10 0 5 0 11-1 14 0 4 0 5 1 6 3 2 8 4 14 4 2 0 6 1 7 1 2 1 6 2 9 3 2 0 7 1 11 3l12 4c4 0 11 3 16 6 7 4 8 5 11 10 2 5 3 7 3 12 0 8 2 13 5 16 3 2 7 3 33 1z"/></svg>