<svg xmlns="http://www.w3.org/2000/svg" width="1344" height="566"><path d="M0 283V0h1344v566H0V283m382 276c29-2 64-3 98-3 20 0 52 0 72-1 29-1 41-1 52 0 27 2 46 2 172 2h153c31 0 83 1 91 3 6 0 9-2 8-6-1-5-9-19-15-28-10-15-36-38-65-56-9-6-39-21-45-23-8-3-32-15-33-17-3-4-2-8 2-14 9-11 37-34 51-42 11-6 15-9 28-24 14-16 22-25 28-35 3-3 10-12 16-19 12-13 17-20 19-26 3-6 6-18 7-22 0-3 2-10 5-18 3-12 7-19 31-66l3-6v-18c0-21-1-27-10-56s-13-36-32-55c-9-10-16-16-24-20-9-4-16-5-104-4-99 0-127 1-136 6-3 2-12 15-18 27-5 10-8 18-15 39-2 7-6 20-10 29-4 10-8 22-10 28-4 14-11 41-11 48-2 12-10 39-17 52-7 15-29 48-40 64-4 5-9 12-11 14-7 10-16 20-22 26-8 8-12 9-26 10-6 0-15 0-18 1-8 1-16 1-22-2-5-1-9-1-13 0-1 1-8 9-15 18-21 25-31 34-55 48-6 4-21 13-33 21s-25 16-30 19c-8 5-32 21-40 27-15 11-29 24-36 35-9 13-21 35-21 38 0 1 1 3 2 4 2 2 5 2 11 3 9 1 58 0 78-1z"/></svg>