<svg xmlns="http://www.w3.org/2000/svg" width="1344" height="566"><path d="M0 283V0h1344v566H0V283m482 134c8-1 17-4 23-8 3-1 8-3 12-4 8-2 10-2 34-1 14 1 28 1 31 2 9 2 50 4 84 5 17 1 33 1 36 2 10 2 27 2 35 1 4-1 12-2 17-3s11-1 12-2c2 0 6-1 10-1 3-1 9-2 13-3 13-4 18-5 24-6 4-1 15-5 25-8 15-5 21-6 28-7 8 0 10-1 12-3 3-3 3-8 2-18 0-5-1-13-2-18 0-7-1-12-4-20-1-5-3-12-4-15 0-3-1-8-2-10s-2-6-3-8-3-4-7-7c-9-5-11-8-11-16-1-6-1-7 1-9 4-5 4-6 2-15-1-4-4-13-5-19-2-6-4-15-6-20-2-8-7-26-10-40-3-17-11-39-20-52-5-8-12-16-19-21-7-6-23-14-33-18-16-6-31-6-54 0-27 6-39 13-49 27-12 18-18 39-18 69 0 6-1 14-1 19-1 4-1 17-2 29-1 22-2 28-5 30-1 0-6 1-11 1-12 1-19 4-30 14-15 12-16 15-22 27-7 15-9 17-16 22-3 2-8 6-11 8-3 3-9 7-15 10-5 2-12 6-16 8-10 5-19 7-30 7-11 1-13 1-18 13-6 12-14 30-15 33 0 1-2 6-4 10-3 9-4 11-2 13 3 2 33 4 44 2z"/></svg>