<svg xmlns="http://www.w3.org/2000/svg" width="1344" height="566"><path d="M0 283V0h1344v566H0V283m540 240c41-2 56-5 79-16 7-3 12-4 29-6 16-2 27-3 34-2h26c11-1 38-1 61-1 78-2 104-3 119-6 6-1 16-3 24-4 8-2 14-4 18-5 5-3 6-3 14-3 5 1 14 2 20 3s15 2 20 3c16 1 20-3 35-36 7-15 5-17-10-16-9 0-11 0-12-1-1-2-1-3 0-5 1-1 1-4 1-6-1-6-3-6-22-1-15 3-22 6-38 12-4 2-6 2-8 1s-3-2-4-3c0-1-1-7-1-13v-12l-8-18c-13-30-14-32-27-58-26-50-41-69-75-91-10-7-19-13-53-39-16-12-25-18-50-29-12-6-22-11-23-11 0 0-7-4-15-8l-22-11c-23-10-23-10-30-22-3-5-7-11-10-13-11-11-29-18-45-17-15 1-25 9-37 31-6 11-8 17-9 29-2 16 0 22 10 35 6 7 7 7 12 8s16 18 16 23c0 6-13 21-23 28-3 1-8 5-10 8s-9 10-15 17c-6 6-14 13-18 17-6 6-8 9-17 27-6 11-12 24-14 29s-4 10-5 11c-1 2-2 5-3 8-1 2-3 6-4 9-5 10-9 14-21 20-14 7-26 17-28 22-2 8-3 18-3 33 0 16 1 29 5 41 1 3 10 13 16 17 2 1 6 4 8 7 8 7 20 12 37 15 11 1 49 1 76-1z"/></svg>