<svg xmlns="http://www.w3.org/2000/svg" width="1344" height="566"><path d="M0 283V0h1344v566H0V283m759 192c2 0 9-2 15-4 5-1 12-3 16-4 4 0 8-1 10-2 3-1 11-3 22-6 3 0 8-2 10-2 2-1 7-2 10-3 2-1 7-2 10-3s10-1 31-1 26-1 27-2c2-1 2-3 2-13-1-7-1-16-2-20-1-10-4-37-5-55-1-17-2-21-5-26s-6-8-17-13c-5-3-11-7-14-10-4-3-7-5-11-7-3 0-7-2-9-3s-5-2-6-2c-2 0-4-1-6-2-2-2-2-3-1-4s4-2 7-3c11-2 12-4 10-13 0-2-1-10-2-18-2-22-7-47-15-77-5-21-8-32-9-38-2-9-15-39-22-51-10-16-28-32-47-42-14-8-21-11-30-13-14-2-22-1-36 5-5 2-11 4-17 5-18 2-23 4-32 13-6 5-17 21-21 31-8 16-15 46-19 74-2 17-2 76 0 97 3 36 3 36 2 38-3 2-13 2-25 0-6 0-15-1-20-2-12 0-15 1-26 12-6 6-9 9-14 11-3 2-8 4-10 6-15 11-21 16-30 21-7 4-15 10-19 13-4 4-10 7-13 9-5 2-7 2-14 2-8 0-9 0-12 2-3 3-3 3-3 9s0 8-4 16c-2 5-5 13-7 16-4 8-10 28-11 34-1 2-2 6-3 8l-2 4 2 3c5 3 9 4 19 0 12-4 38-9 53-9 13 0 44 1 47 2 1 0 3 0 5-2 3-2 5-2 13-1 5 0 13 1 19 2 5 1 13 2 16 3 4 1 9 2 10 2 3 1 35 3 46 3 4 0 9 0 13-1 8-1 28-1 51 2 17 2 24 4 28 7 2 2 3 3 21 3 11 0 22 0 24-1z"/></svg>