<svg xmlns="http://www.w3.org/2000/svg" width="1344" height="566"><path d="M0 283V0h1344v566H0V283m871 276c6-3 8-7 9-26 3-21 2-38 0-59-3-29-5-34-17-46-13-14-26-24-58-44-16-11-21-15-28-24-7-10-11-16-19-30-2-5-6-12-8-15-4-7-4-7 6-25 9-16 23-45 27-54 1-4 3-9 4-13 2-3 4-12 5-20 2-7 4-20 6-28 3-12 3-18 4-31 1-31-4-57-16-77-5-8-26-29-38-37s-19-10-35-10c-10 0-14 0-23-3-9-2-11-2-24-2-9 1-16 2-20 3-24 7-51 30-63 54-7 14-10 28-11 52-1 25-2 27-7 38l-5 10v12c0 20 4 27 23 46 13 13 14 14 17 32 4 30-3 53-22 70-20 16-32 22-70 36-16 6-31 11-34 12-3 2-9 4-13 6-13 6-20 12-25 22-2 5-5 16-11 39-2 7-5 17-6 21-6 21-17 69-18 82-1 4-1 5 1 7 1 2 3 3 5 3h231c212 0 230 0 233-1z"/></svg>