<svg xmlns="http://www.w3.org/2000/svg" width="1344" height="566"><path d="M0 283V0h1344v566H0V283m612 279c27 1 29 1 123 0 49-1 97-1 107-2 17 0 18 0 21-3s3-6-4-27c-2-10-6-21-13-37-4-12-7-23-7-30s-3-12-8-16c-3-2-14-8-25-13-20-10-30-15-56-26-23-11-42-21-48-26-3-4-5-9-5-18 0-3-1-8-1-10-1-8 1-36 5-48 1-4 3-12 3-17 1-5 2-10 3-11 3-8 0-25-10-65-2-10-6-24-8-31s-4-15-5-18c-2-9-4-16-5-20-1-2-3-7-4-11-9-25-17-39-35-61-10-13-20-21-38-31-12-6-19-9-32-12-12-3-14-3-30-3-15 0-17 0-24 2-5 2-12 5-16 8-6 3-14 6-23 9-8 2-16 5-17 6-9 4-21 19-30 39-8 18-10 23-17 47-2 7-4 19-8 45-3 24-3 114 1 166 0 11 1 26 1 32 1 14 1 13-10 16-3 1-17 7-31 14-13 7-34 16-46 22s-23 11-24 13c-4 3-4 7-3 13 1 3 2 8 2 11 1 7 4 11 10 17 12 12 24 19 41 28 7 3 17 9 21 11 8 6 43 24 51 26 3 1 8 3 12 5 9 3 31 5 85 6 26 0 47 0 47 1h16c9-1 24-1 34-1z"/></svg>