<svg xmlns="http://www.w3.org/2000/svg" width="1344" height="566"><path d="M0 283V0h1344v566H0V283m627 276c68-2 187-2 213-1 27 1 156 3 206 2 44 0 44 0 43-8-1-6-8-20-15-28-4-4-11-13-16-19-10-12-16-18-38-36-14-11-24-20-39-33-12-12-22-19-48-38-6-5-12-10-14-11-7-7-13-8-30-9s-21-2-28-6c-10-6-15-13-22-29-2-7-2-9-2-23 0-15 0-16 3-26 2-7 5-13 6-14 1-2 5-8 9-14 10-15 13-21 17-30 5-13 6-28 4-38-2-7-2-13 0-29 1-10 1-18 1-29-1-14-1-16-4-26-6-17-15-31-27-41-21-17-41-26-66-30-11-2-39-2-52 0-32 4-65 27-78 53-6 13-8 21-9 40-1 9-2 23-3 30s-2 19-3 26c-1 8-2 20-3 28-3 22-3 32 3 62 4 18 11 40 19 56 5 9 12 17 21 24 8 5 9 8 8 13 0 4-5 9-13 13-4 2-16 9-26 15-26 13-49 29-76 53-30 26-59 66-65 89-2 10-1 13 4 15 4 1 11 1 120-1z"/></svg>