<svg xmlns="http://www.w3.org/2000/svg" width="1344" height="566"><path d="M0 283V0h1344v566H0V283m497 277c15-2 71-3 114-4h57c13-1 19-1 26 1 8 1 19 1 113 1 84 0 107 0 118-2 11-1 18-1 36 0 12 1 31 1 43 2 19 0 21 0 22-1 2-3 1-5-4-8-2-1-5-3-8-5-12-9-34-22-50-30-20-9-29-15-35-22-2-2-7-8-10-12-4-5-8-10-9-13-2-4-2-4 0-10 1-6 2-7 13-32 12-28 41-84 46-89 1-2 7-5 12-8 13-6 23-14 31-25 10-14 15-26 17-43 1-8 1-11 0-15s-2-6-10-13c-5-3-5-5-1-24 2-14 7-45 10-67 2-17 3-40 1-49-2-8-16-36-24-48-4-7-16-18-26-25-9-6-21-11-31-12-21-2-58-3-108-3-63 1-64 1-76 10-13 10-21 23-31 50-13 37-16 48-20 86-2 26-4 32-10 34-10 2-17 8-21 17-3 9-2 31 1 45 2 5 4 12 6 16 4 8 13 19 20 24 7 6 8 8 8 23 0 14-4 49-7 61-5 15-13 30-20 36-4 4-7 4-32 1-23-2-24-2-34 9-5 5-13 13-18 19-17 18-31 28-50 36-5 2-11 5-14 6-12 8-31 19-46 27-23 12-35 18-48 26-12 8-28 19-31 23-2 2-2 5 1 6 7 2 64 3 79 1z"/></svg>