<svg xmlns="http://www.w3.org/2000/svg" width="1344" height="566"><path d="M0 283V0h1344v566H0V283m364 277c24-1 71-2 104-2 32 0 68-1 79-1 11-1 22-1 25-1h41c21 1 60 1 89 1 28 1 64 1 80 2 31 1 50 0 56-3 4-2 5-4 4-19 0-21-4-30-23-47-12-10-28-22-36-28l-12-8c-4-3-9-6-13-8-14-8-29-23-35-33-5-12-4-19 10-43 21-37 30-56 33-70 1-8 4-33 5-62 1-13 3-29 3-34 2-18 0-44-5-67-8-38-21-62-45-81-27-23-46-32-71-35-8-1-37-2-56-1-18 0-44 8-59 18-4 2-11 9-17 14-15 15-27 34-34 54-8 20-10 33-7 63 0 11 1 26 2 34 0 14 0 15-3 26-2 9-2 12-2 21 0 16 4 31 12 42 4 4 14 13 22 18 8 4 12 8 13 10 1 4-6 12-22 27-30 29-36 33-59 38-7 2-20 6-27 10-7 3-28 10-45 16-37 13-45 17-55 26-6 6-8 8-13 20-11 23-23 57-28 83-3 14-2 18 4 20 3 1 39 1 85 0z"/></svg>