<svg xmlns="http://www.w3.org/2000/svg" width="1344" height="566"><path d="M0 283V0h1344v566H0V283m995 157c0-1 1-4 1-8 0-8 1-10 9-23 5-7 5-8 5-14s2-13 8-30c5-12 6-14 9-16 4-3 5-8 5-23 0-11 0-14-3-20-3-11-4-13-12-22-10-11-12-14-13-30-1-7-2-13-2-14-1 0-2-6-2-11-3-16-6-31-7-37-6-17-7-21-11-27s-13-16-18-19c-2-1-5-3-7-4-3-2-4-2-12-1-10 1-28 6-31 8-6 4-13 14-16 23-2 7-2 10-2 21v21c2 11 0 14-8 18-3 1-6 4-7 5-3 3-11 20-13 28-1 3-3 12-5 18s-5 14-6 17c-1 5-2 7-6 10-7 5-13 12-16 17-6 13-2 36 10 46 3 3 12 7 16 7 0 0 2 1 3 2 2 3 2 6 0 15-2 6 0 8 8 11 3 0 7 2 10 3 4 3 12 6 30 10 16 4 23 6 44 12 16 4 31 8 35 8 1 0 3-1 4-1z"/></svg>