<svg xmlns="http://www.w3.org/2000/svg" width="1344" height="566"><path d="M0 283V0h1344v566H0V283m424 277h104c68-1 68-1 329-1 121 1 235 1 252 2 46 1 84 0 99-3 17-3 19-4 19-6 0-4-2-6-11-13-8-6-11-11-17-24-3-7-10-32-12-40-2-14-7-26-11-29-3-3-11-6-16-7-7 0-18-4-20-6-3-2-5-7-7-13-1-2-2-6-3-8-2-4-10-25-18-45-2-6-5-14-6-17-3-12-5-19-15-48-5-14-11-34-13-42-11-38-17-53-24-62-7-8-15-8-22 0l-4 4-3-2c-3-2-8-9-15-23-6-9-12-16-16-19-5-2-10-1-14 2-2 2-5 3-6 4-3 0-6-2-10-7-5-6-14-9-19-5-4 3-5 5-6 13-1 3-2 7-2 8-1 0-3 1-5 1-5 0-10 2-12 6-2 5-2 31 0 43 5 20 8 30 12 42 8 19 10 26 11 38 3 18 5 23 21 47 13 19 30 42 45 61 15 18 28 40 36 61 2 6 5 13 6 15 3 7 9 24 10 29 1 4 1 5 0 7-2 2-9 1-15-3-9-5-23-13-28-16-3-2-11-7-18-11-17-8-24-15-29-25-8-18-16-34-19-38-7-10-36-34-57-47-11-6-26-6-81-1-6 1-16 1-24 1-19 0-21-1-21-18 0-9 2-27 5-43 1-5 2-13 3-16 1-5 2-9 4-13 2-3 5-10 6-16 6-20 4-35-9-72-8-24-15-42-32-76-17-33-22-40-38-57-32-34-86-56-126-51-10 1-42 6-46 7-8 1-28 7-34 10-10 3-27 13-34 18-14 10-27 29-40 53-10 20-15 37-16 55 0 10 0 11 4 21 2 6 4 13 5 16 2 6 2 21 0 39-1 15 0 21 6 35 5 11 7 17 8 31s3 26 8 35c7 13 14 21 26 31 17 13 21 17 22 22 2 9-1 22-12 40-13 21-25 31-46 39-13 4-14 4-15 4-2-1-2-1-4-23-2-18-6-33-14-48-2-6-7-9-12-9-4 0-10 6-13 12-4 7-5 14-5 41-1 24-1 28-4 28-4 0-8-9-13-24-6-22-9-39-14-78-4-36-6-45-8-51-5-11-14-14-19-8-4 5-5 11-6 43-1 31-2 40-3 41-2 1-3-2-5-6 0-3-4-12-7-21-4-8-9-19-10-24-4-10-11-23-15-30-3-3-5-5-9-7-7-4-10-4-14 0-5 5-5 5 3 39 2 7 5 18 6 24 3 13 6 23 8 36 1 4 3 11 4 15 1 7 1 10-1 10-1 0-2-1-3-3s-4-6-6-10c-3-3-9-15-14-26-19-37-18-36-23-40-5-3-10-4-15-1-8 3-7 13 1 37 2 7 6 18 7 22 2 5 5 13 6 18 6 13 7 20 6 21 0 1-5-3-15-13-15-14-21-18-28-20-3 0-4 0-7 3s-3 4-3 9 1 7 4 14c6 13 19 31 28 42 10 10 30 36 37 46 5 8 16 20 20 22 2 1 5 3 6 3 2 1 27 1 56 0 29 0 75 0 104-1z"/></svg>