<svg xmlns="http://www.w3.org/2000/svg" width="1344" height="566"><path d="M0 283V0h1344v566H0V283m989 276 26-1 3-2c2-3 3-3 3-15s0-14-5-37c-1-5-3-20-3-32-1-12-2-24-3-26-1-7-1-15 1-21 1-5 1-5-1-10-4-7-12-14-19-17-14-5-21-8-33-13-21-9-30-14-35-19-5-6-12-18-14-25-5-22-6-30-7-47-1-9-1-22-2-28-1-16-3-39-4-57-1-33-5-70-8-85-2-7-9-24-12-30-7-11-23-29-37-40-7-6-17-12-27-16-24-9-28-9-48-9-13 0-19 0-28 2-36 7-51 11-67 20-10 5-14 9-16 15-2 8-11 26-20 41-5 9-12 20-15 27-4 10-5 12-7 26-2 8-3 17-3 19 0 9-3 17-12 30-13 18-13 20-13 28 1 4 2 8 3 11 1 2 2 7 3 13 0 5 1 10 2 11 1 2 1 7 1 12s1 11 2 14c0 3 2 12 2 19 1 15 2 20 9 25 4 3 20 12 24 13 2 0 3 1 4 2 3 3 0 3-17 2-16 0-18 0-26 2s-13 2-26 3c-22 0-25 1-37 13-5 4-15 10-18 10-1 0-4-1-7-2l-5-2-4 2c-3 1-9 6-15 10-7 5-14 9-22 13-13 5-22 11-24 16-3 6-10 12-16 14l-6 3-18-1c-19-1-40 0-44 3-3 2-5 5-5 8 0 2 2 3 8 7 4 2 8 5 9 6 1 2 1 7-2 14l-4 12c-1 4-4 11-6 15-2 5-4 9-4 10 0 0-1 3-2 5-5 11-10 24-11 27 0 2 0 3 1 4 3 2 22 4 45 3 31-1 40-1 54 1 12 1 27 0 39-2 9-2 33-1 50 1 24 3 34 4 66 4 18 1 40 0 48 0 9-1 22-1 34 0 11 1 72 1 136 2 63 0 116 0 116 1 0 0 10 0 22-1 12 0 33 0 47-1z"/></svg>