<svg xmlns="http://www.w3.org/2000/svg" width="1344" height="566"><path d="M0 283V0h1344v566H0V283m709 278c3-1 10-1 15-1h50c46-1 179-1 269-1 55 1 56 1 58-1 1-1 2-3 2-5 0-4-11-40-16-52-5-10-18-33-27-45-8-11-21-25-31-33-15-12-27-19-63-37-20-10-40-20-45-23s-12-8-15-10c-4-2-10-6-14-8-20-13-36-19-55-22-6 0-11-3-13-8s-3-24-1-35c1-11 4-18 9-32 5-11 12-33 13-41 1-4 1-10 1-15 0-8 0-10-4-18-3-10-5-19-5-32 0-45-14-74-43-91-20-12-50-21-76-23-18-1-47 3-61 8-27 11-48 26-61 43-15 21-18 39-15 78 1 10 3 35 3 57 1 28 2 41 3 46 4 12 18 46 35 81 9 19 11 24 10 29-1 4-17 19-37 34-16 13-37 28-56 39-6 3-19 12-29 19-11 7-25 16-33 20-34 22-44 30-54 50-5 10-8 19-8 23 1 1 2 3 4 4s6 2 49 2c26 0 77 0 114 1 75 1 119 0 127-1m-664-2c13 0 37 0 51-1 15 0 34 0 42-1h48c34 1 53 0 76-2 10-1 23-1 59 0 37 1 46 1 48 0 3-3 0-15-16-71-2-5-4-14-6-20-11-44-19-68-25-82-14-29-31-47-60-65-10-6-29-15-36-18-7-2-29-12-38-17-11-6-12-7-12-10 0-2 3-10 7-19 9-18 10-21 13-31 3-7 13-29 18-40 8-15 11-28 14-53 1-15 2-20 9-44 2-7 4-14 4-15 0-2-2-10-5-18-2-7-6-19-8-26-1-8-4-15-5-16-4-6-1-5-113-6C42 4 5 4 4 5L1 6v550l3 2c3 3 4 3 10 3 3-1 18-1 31-2z"/></svg>