<svg xmlns="http://www.w3.org/2000/svg" width="1344" height="566"><path d="M0 283V0h1344v566H0V283m830 277c8-3 10-8 16-34 4-16 4-19 4-32 0-16-1-21-9-48-7-20-8-26-11-38-1-5-3-12-4-16s-3-14-5-22c-5-24-7-33-9-41 0-4-1-15-2-25 0-14-1-18-3-24-1-4-3-9-5-10-2-3-14-10-30-19-2-2-6-4-7-5-3-4-2-6 6-6 10-1 17-4 21-8 3-3 3-3 2-6-2-10-9-20-22-29-14-11-23-19-25-24-1-4-1-7-1-21 0-31-7-50-22-62-8-6-11-8-20-12-8-2-9-2-18-2-15 1-41 7-54 13-18 8-24 24-18 47 3 7 2 17 0 25-1 3-2 7-2 9 0 4-2 7-8 15-4 5-7 7-8 7-4 0-9 4-11 8-3 6-4 9-5 22-1 7-2 15-3 18-2 8-10 21-15 26-6 6-7 8-21 37-5 9-7 15-11 31-1 5-1 14-2 24v18l3 4 8 8c4 3 5 3 11 3 8 0 12-1 30-7 7-2 12-3 13-3 5 2 5 2 4 68s-1 99 1 104c3 7 0 7 72 8h65c0 1 21 1 46 0 33 0 47 0 49-1z"/></svg>