<svg xmlns="http://www.w3.org/2000/svg" width="1344" height="566"><path d="M0 283V0h1344v566H0V283m1129 278c2-1 4-3 5-4 2-3 2-3 1-14-3-14-4-19-9-30-4-9-4-11-2-18 0-4-3-8-11-13-11-6-33-19-44-25-6-3-12-6-13-7s-4-3-8-5c-3-2-7-6-9-8-4-4-4-7-1-19 1-5 3-15 4-22 2-7 4-18 6-25 1-6 3-17 3-23 2-23 1-71-2-101s-13-94-20-122c-9-42-39-80-77-99-15-7-27-13-37-15-10-3-11-3-21-3-7 1-14 2-16 2-3 1-10 2-16 3-13 0-21 3-37 11-19 10-34 22-46 37-12 16-16 23-26 52-9 25-12 37-16 59-2 10-4 20-5 22-1 7-6 37-7 46 0 5-1 13-2 18 0 4-1 15-2 23s-1 16-2 17c0 1-1 9-2 18 0 9-2 20-4 26-1 7-3 15-4 20-1 9-3 14-8 18-5 5-15 10-25 13-29 7-50 15-62 21-6 3-22 9-50 20-27 10-26 9-26 22 0 11 0 12-10 42-4 10-8 21-9 26-2 5-5 12-7 17-1 4-3 10-3 12 0 3 0 4 3 5 6 4 16 4 42 3 27 0 33 0 70-1h65c62-1 70 0 97 1 15 1 34 1 48 1 48-2 225-2 248-1 25 2 42 1 47 0z"/></svg>