<svg xmlns="http://www.w3.org/2000/svg" width="1344" height="566"><path d="M0 283V0h1344v566H0V283m370 278c28-1 96-1 150-1 82 0 101 0 116 1 14 2 24 2 53 1 44 0 40 1 43-15 1-6 2-11 3-13 2-3 1-5-5-13-3-4-6-9-7-12-2-5-4-6-8-4-5 2-16-1-20-5-4-3-5-4-17-8-4-2-12-5-16-7-17-11-36-20-57-30-12-5-17-9-20-14-4-4-4-6-1-18 6-24 9-28 23-34 4-2 9-4 10-4l6-2c2-2 6-3 8-3 2-1 7-2 11-4 7-2 9-3 14-8 8-8 9-12 9-30 0-14 2-42 5-56 0-5 1-16 2-23 0-14-1-22-5-50-2-11-2-17-2-48-1-29-1-37-2-46-4-22-9-35-15-42-9-10-27-21-67-39-29-14-56-21-77-21-5 0-15 1-22 2-15 2-16 2-50 19-6 3-17 7-25 11-17 6-20 8-25 14s-9 13-16 34c-3 10-8 23-10 29-5 13-8 26-8 32 0 2-2 12-3 24-2 10-4 22-4 24-2 12-8 58-11 75-3 20-6 47-7 67 0 16-5 50-6 56-1 3-2 8-2 11s0 8-1 12-2 12-2 18c-2 12-5 24-8 29-3 6-42 45-61 59-11 9-13 11-16 17-2 4-3 7-3 8 0 4 3 6 12 7 16 2 18 2 134 0z"/></svg>