<svg xmlns="http://www.w3.org/2000/svg" width="1344" height="566"><path d="M0 283V0h1344v566H0V283m829 278c15 0 25-2 27-4 2-1 2-3 2-13 0-7-1-12-1-15-1-2-2-7-3-11 0-4-1-8-3-12-2-2-7-10-10-17l-6-13-1-13v-13l-4-4c-4-3-16-11-26-15-3-1-14-6-24-11-9-5-25-12-34-17-24-10-47-21-52-24-12-7-13-23-7-92 2-25 2-43-1-59-2-8-4-19-5-24 0-6-3-16-5-23s-5-17-6-22c-7-23-23-56-38-77-7-11-23-27-35-35-23-16-47-24-75-24-16 0-22 2-40 11-8 4-18 9-22 10-4 2-9 4-11 5-10 5-25 23-32 39-10 24-14 39-17 68-2 17-2 24-2 78 0 52 0 62 1 74 1 7 3 19 3 26 1 7 2 16 2 20 1 5 2 13 3 19s1 12 2 13c0 3-3 7-6 7-7 0-23 6-49 19-6 3-15 7-21 9-14 7-35 17-38 21-2 2-3 3-3 7 0 3-1 11-2 18-3 15-4 22-2 26 3 5 18 17 26 23 5 2 13 7 18 10 14 9 34 18 53 25 5 1 10 4 13 5 9 4 18 5 82 6 32 0 60 0 60 1 1 0 274-1 289-2z"/></svg>