<svg xmlns="http://www.w3.org/2000/svg" width="1344" height="566"><path d="M0 283V0h1344v566H0V283m274 277c2-1 5-1 7 0 5 1 207 1 213 0 4-1 25-1 64 0 78 2 140 1 145-1s6-5 3-16c-2-9-9-30-14-41-5-14-6-18-4-25 0-3 1-8 1-10 0-5 0-6-4-10-6-5-11-7-42-21-51-23-81-39-85-44-3-3-2-8 2-22 4-11 20-51 23-56 2-4 6-25 6-36 2-22-4-92-10-117-6-24-18-52-29-69-6-9-25-28-34-34-19-13-38-19-61-21-17-1-22 0-34 6-8 4-13 6-22 8-15 3-22 6-32 16-10 9-17 19-23 33-13 26-19 53-31 125-11 61-13 81-14 113v24l3 12c2 9 3 13 2 14-2 4-13 9-26 11-11 3-21 6-27 9-7 3-31 17-33 19-1 0-9 5-18 9-17 9-25 14-27 20 0 1-1 5-2 9 0 3-3 12-7 19-6 15-7 18-14 40-3 11-4 19-5 24 0 12 0 12 19 13 21 1 105 0 110-1z"/></svg>