<svg xmlns="http://www.w3.org/2000/svg" width="1344" height="566"><path d="M0 283V0h1344v566H0V283m1078 279c13 0 14-1 16-3 3-2 3-3 3-8 0-3-1-9-2-12-3-11-3-16 6-36 5-11 10-19 28-49 9-15 13-30 10-37-2-3-5-4-10-4-4 1-5 1-8-3-2-2-5-6-6-8-5-11-10-13-19-6-6 5-9 5-17 0-9-5-15-4-25 5-5 5-5 5-11 5-8 0-11-1-15-5-1-1-6-13-11-25-9-23-14-32-24-47-2-3-6-7-8-9-3-3-40-22-46-24-5-1-26-12-31-16-3-3-5-5-6-8-1-5-1-15 1-26 3-22 2-58-2-76-4-21-15-39-29-52-11-9-13-10-30-20-25-14-35-17-62-19-14-1-26 1-37 5-8 3-28 14-35 19-9 6-23 23-29 35-3 6-6 18-6 26s-3 18-13 36l-6 14v27c0 27-1 28-3 31s-10 7-21 11c-23 7-45 16-56 21-9 5-25 16-29 22-4 4-8 16-12 28-5 22-9 34-16 49-6 10-8 13-11 16-3 2-8 7-12 11-3 4-7 7-8 7l-6-6c-5-6-10-9-15-9-2 0-4 1-7 5s-6 6-7 6-4-1-6-2c-9-4-16-1-18 7-1 7-2 10-5 13-3 2-4 3-12 3s-8 0-11 2c-5 7-1 18 13 41 14 21 32 43 41 51 6 5 15 8 25 9 16 2 79 2 158 2 68 0 74 0 79 2 5 1 8 1 27 1 63-2 155-3 170-1 7 1 11 1 17 0s12-1 19-1c6 1 25 2 44 2h86z"/></svg>