<svg xmlns="http://www.w3.org/2000/svg" width="1344" height="566"><path d="M0 283V0h1344v566H0V283m373 278c52-1 58-2 61-5 2-1 4-4 6-7 2-4 3-5 3-20 1-18 3-28 8-36 1-2 6-7 11-12 8-7 30-31 33-36s1-8-7-11c-10-5-11-7-10-18 3-23 2-37-3-47-1-2-2-5-3-8 0-2-1-4-1-5-1-2-5-32-5-36 0-6 28-32 35-34 1 0 4-1 5-1 2-1 7-2 11-3 11-2 17-7 20-18 1-2 3-9 6-14 4-8 5-11 6-18 1-5 2-13 4-18 3-11 2-19-2-28-4-8-19-23-30-29-12-6-19-8-29-8-12 1-18 4-27 12-10 10-14 17-20 41-2 8-4 15-4 17-1 2-3 6-4 9-3 8-7 12-12 16-3 2-8 6-12 10-4 3-12 9-19 13-35 24-49 39-64 69-6 13-15 39-19 55-4 22-10 41-15 51-3 5-6 11-6 14-1 2-3 9-6 15-2 6-6 15-8 20-8 19-21 56-21 59 0 5 6 8 23 11 3 1 62 1 95 0z"/></svg>