<svg xmlns="http://www.w3.org/2000/svg" width="1344" height="566"><path d="M0 283V0h1344v566H0V283m851 279c77 0 72 0 79-6 5-3 8-3 14 3l3 3h30c29 1 73 0 112-2 18-1 19-2 11-23-1-3-3-9-5-13s-6-13-9-19c-9-17-13-30-14-42 0-5 0-12 1-17 2-12 8-35 11-44 6-16 14-50 14-60 0-6 0-7-3-10-3-4-6-4-11 1-3 2-5 3-6 3-3 0-7-8-8-15-1-8-1-9-4-12-1-2-3-3-5-3-3 0-8 2-10 5-2 2-9 5-11 4-1 0-3-1-4-3-2-4-5-6-9-6-3 0-3 0-15 13-3 3-5 4-6 4-4 0-12 4-15 8-2 1-4 5-6 9-6 12-8 13-16 4-2-3-6-6-9-7-8-4-38-18-51-23-19-7-29-12-32-16-2-2-2-3-2-10 1-4 2-11 3-14 2-15 4-40 4-60-1-34-4-48-15-68-7-12-14-19-22-24-3-2-12-8-20-12-18-11-26-15-39-19-9-2-11-2-29-2h-19l-8 3c-17 7-36 18-47 29-17 16-25 31-29 55-1 10-4 21-9 34-3 9-3 11-4 25 0 9-1 18-2 20v12c1 4 1 11 1 15 0 8-1 10-7 13-5 2-29 11-51 17-22 7-34 12-44 18-4 3-8 5-10 5-3 1-5-2-6-13-2-11-4-15-8-16-2 0-4 1-8 6-8 9-12 8-16-5-4-10-7-15-10-17-5-2-7 0-12 8-3 4-6 7-7 7-1 1-3 0-6-2-11-7-17-1-17 18 0 4-1 7-2 9-3 6-5 7-9 5-2-1-6-2-9-2-5-1-5-1-8 2-2 2-2 3-2 15 1 7 2 14 3 18 8 29 14 46 23 68 7 20 10 29 10 37 0 7-2 17-5 25l-7 14c-2 7-6 15-9 18-10 14-12 22-8 26 3 3 4 3 20 5 9 1 12 1 18-1 9-2 9-2 23 0 6 1 25 1 46 1 93-1 163 0 168 1 3 1 20 1 48 0h113z"/></svg>