<svg xmlns="http://www.w3.org/2000/svg" width="1344" height="566"><path d="M0 283V0h1344v566H0V283m557 278c6 0 24 0 41-1h132c13 0 31 0 39 1 11 1 26 1 54 1 64-2 235-2 254 0h29c12-1 12-1 15-3 2-4 3-7 0-19-2-12-5-25-8-29-1-2-3-6-5-9-2-4-4-9-5-12-1-4-2-7-4-10-4-4-25-16-38-22-16-6-40-19-43-22-2-3-2-4-2-9 1-9 12-45 19-63 4-9 6-20 5-46 0-36-3-68-9-106-1-13-3-24-4-26 0-2-2-9-3-16-3-19-9-47-13-57-17-45-44-74-83-92-28-13-43-16-56-11-4 2-9 2-20 3-17 1-21 2-35 9-24 12-47 31-58 46-10 16-21 43-28 68-1 6-3 13-4 16s-3 11-4 18c-1 6-3 17-5 24-3 12-7 37-8 48-1 3-2 10-3 16 0 5-1 15-2 22-3 28-6 51-10 64-1 5-3 11-4 15-1 8-6 18-11 22-6 6-13 9-42 18-7 2-19 8-28 12-16 8-25 11-62 27-15 5-24 10-26 11-2 3-3 4-3 16-1 14-3 21-14 51-6 15-12 33-12 37s3 7 8 8c15 2 30 2 56 0z"/></svg>