<svg xmlns="http://www.w3.org/2000/svg" width="1344" height="566"><path d="M0 283V0h1344v566H0V283m748 204c15-1 26-3 35-6 2 0 7-1 9-2 2 0 5-1 6-1 1-1 5-2 9-2 3-1 11-3 15-4 32-9 38-11 53-12 7 0 17 0 25 1s15 1 16 1c4-1 5-6 5-18-1-6-2-17-4-25-1-8-2-22-3-29-1-8-1-15-2-16 0-1 0-5 1-10 1-6 1-8-1-10-2-4-10-10-15-11-3-1-8-3-12-5-5-1-10-3-12-4-5 0-11-4-13-7-1-1-2-5-3-8-1-7-3-9-9-13-3-2-5-4-5-5-1-2 1-5 5-7s6-5 5-7c-1 0-2-9-2-20-2-25-6-46-11-73-1-4-2-10-3-12-1-7-8-35-10-40-1-3-3-8-4-12-7-17-17-36-25-45s-22-20-38-28c-30-16-47-19-66-9-6 2-10 3-16 4-12 1-19 3-26 7-11 7-24 24-31 41-3 6-7 24-10 40-1 4-3 11-4 15-5 28-8 68-6 113 1 30 0 37-1 39-1 1-4 1-11 0-16-2-36-2-40 0-3 1-11 9-21 19-10 9-20 18-22 20s-6 5-9 7c-2 2-8 6-13 8-13 8-24 15-28 19-1 2-5 4-8 6-4 2-6 2-14 2-6 0-10 1-11 2-2 1-5 8-14 28-10 22-13 30-13 37 0 5-1 7-3 12-2 3-3 6-3 7 2 4 8 3 19 0l11-4h18c10 0 21 0 24-1 3 0 12-1 19-2 8-1 16-2 18-3 13-4 28-6 34-4 4 2 19 7 29 9 16 4 43 5 80 4 14-1 20-1 29 0 6 1 13 2 17 3 4 0 10 1 15 2 4 1 8 2 9 2s4 2 8 5c6 3 7 4 10 4 2-1 10-1 18-2z"/></svg>