<svg xmlns="http://www.w3.org/2000/svg" width="1344" height="566"><path d="M0 283V0h1344v566H0V283m490 82c3 0 7-1 8-1 4 0 15-6 20-12 7-7 8-7 24-6 11 1 15 1 22 4 10 4 21 6 34 8 5 1 13 3 16 3 5 1 13 2 25 2 10 0 22 1 28 1 6 1 16 1 23 2 12 0 13 0 19-3 5-2 7-2 10-2 3 1 7 1 9 2 4 0 9 0 17-2 6-1 15-2 19-3 8-1 21-3 29-5 14-4 23-4 38-4 13 0 16 0 17-1 1-2 1-9-1-30 0-6-1-15-1-21v-10l5-5c9-8 9-8 23-8 17 0 17 0 19-15 0-6 1-18 1-25 0-17-3-71-4-80-1-4-2-10-2-14-2-18-9-42-15-53-1-4-5-9-7-12-10-10-29-23-40-26-9-2-24-1-37 2-21 4-32 10-42 20-6 8-10 15-14 27-2 8-2 9-2 30 1 15 0 23-1 32-1 14-1 20 3 44 3 13 3 18 3 24-1 11-3 16-5 19l-3 2h-78l-8 4c-6 4-14 7-22 10-2 1-6 3-8 6-3 2-6 4-7 4s-4 1-6 3c-4 3-5 3-13 2-16-1-26-1-30 1-3 1-7 3-10 6-8 8-15 10-39 13-6 1-10 1-11 2-1 2-1 2 2 5 2 1 3 3 3 4s-2 5-3 8c-2 4-5 9-5 12-1 3-4 10-7 15-5 11-7 18-4 21 2 2 2 2 8 0z"/></svg>