<svg xmlns="http://www.w3.org/2000/svg" width="1344" height="566"><path d="M0 283V0h1344v566H0V283m492 132c4-1 10-3 13-5 13-6 16-6 46-5 16 0 32 1 38 2 24 3 39 3 71 4 20 1 38 1 41 2 10 2 29 2 37 1 4-1 12-2 17-3s11-2 13-2c3-1 8-2 13-2 15-3 44-11 66-19 8-3 13-4 20-5 7 0 9-1 11-3 3-3 3-8 2-18 0-5-1-13-2-18 0-7-1-12-3-19-2-5-4-12-4-16-1-4-2-8-3-9-1-2-2-5-3-7-1-3-2-5-7-8-9-5-11-8-11-16-1-6-1-7 1-9 1-1 3-4 3-5 1-2 2-1-11-45-6-23-8-33-10-44-3-12-7-25-13-38-12-24-24-36-49-48-23-12-38-12-68-5-27 7-39 15-50 34-8 12-12 27-13 42-2 24-3 48-4 69-1 20-2 27-5 29-1 0-5 1-10 1-13 1-20 4-32 15-6 5-11 10-13 11-2 3-6 11-10 20s-7 12-14 17c-3 2-8 6-11 8-3 3-9 7-14 9s-13 6-18 9c-13 6-16 7-28 8-7 0-11 0-13 1-2 2-5 8-14 29-13 29-15 34-13 37 1 3 13 4 32 4 12-1 17-1 22-3z"/></svg>