<svg xmlns="http://www.w3.org/2000/svg" width="1344" height="566"><path d="M0 283V0h1344v566H0V283m290 276c3-1 5-1 9 0 3 1 62 1 195 1h190l7-2c10-3 13-7 15-19 1-4 2-10 2-12s1-8 2-13c4-14 3-24-4-44-3-10-7-20-9-23-3-6-3-8-4-18 0-11-1-12-3-14-3-4-38-19-80-36-24-10-45-20-48-23-4-3-4-6-2-18 1-14 4-24 12-44 6-15 7-19 9-30 2-13 2-14 0-25-5-41-9-59-15-76s-12-35-15-43c-4-10-15-31-20-40-12-18-38-40-60-51-10-5-19-8-33-9-15-2-22-2-35 0-12 2-13 2-29 12-6 4-14 9-19 11-18 10-31 26-40 50-7 18-10 30-14 55-7 37-10 82-12 138-1 36 0 48 4 69 4 17 4 22 1 25-2 2-8 5-16 9-15 5-22 9-36 19-17 12-29 20-39 26-17 9-19 12-20 25-1 5-3 13-6 25-3 9-7 20-7 24-3 9-6 29-7 39 0 9 0 9 2 12l3 2h60c40-1 60-1 62-2z"/></svg>