<svg xmlns="http://www.w3.org/2000/svg" width="1344" height="566"><path d="M0 283V0h1344v566H0V283m735 160c2-1 10-3 19-3 20-3 46-9 61-16 22-10 31-11 55-7 20 2 23 1 23-7 0-5-3-22-5-26-3-7-4-18-5-33-1-17-1-18-9-20-9-2-18-5-20-7s-2-4-1-10c2-5 2-20 1-24-2-5-5-7-14-9-13-4-14-4-15-6-2-4 3-8 15-10 4 0 6-1 8-3s2-2 1-12c0-6-1-11-1-12-1-1-2-4-2-6-2-5-9-17-15-23-2-3-7-7-12-10-4-3-9-7-11-9-4-4-29-27-41-37-5-4-10-9-12-12-4-6-11-21-15-31-4-12-10-17-30-23-4-1-12-4-16-6-5-2-9-4-9-4-7 3-30 22-34 29-2 3-6 7-8 11-5 6-5 6-6 18-1 6-4 17-6 23-3 10-3 12-4 31-1 24-1 42 1 53 1 3 2 10 2 15 0 8 0 8-4 13-5 6-5 7-14 9-21 6-20 6-32 4-14-2-26-2-31 1-2 1-7 6-12 10-7 7-9 10-12 18-3 6-6 12-8 14-1 3-2 6-3 11-2 16-6 24-15 29-10 5-11 8-12 17-2 15-1 20 1 23 1 2 4 4 6 4 2 1 4 3 5 5s3 5 4 6c3 3 3 3 7 2 3 0 10-1 16-1 9 0 13 0 19 3 17 5 22 6 27 7 3 0 8 1 10 2 5 1 18 1 39-2 14-1 29-1 54 2 12 2 15 2 32 7 10 3 22 4 28 2z"/></svg>