<svg xmlns="http://www.w3.org/2000/svg" width="1344" height="566"><path d="M0 283V0h1344v566H0V283m620 275h126c12-2 12-3 9-35-2-26-3-29-17-79-3-10-6-23-9-38-3-18-3-19-7-30-5-12-13-25-29-50-12-17-16-24-19-32-5-14-9-21-12-22-1-1-6-3-10-4-3-1-10-4-14-7-7-3-9-4-16-5-8-1-14-4-18-9-4-4-4-7 0-19 4-15 7-23 10-38 4-18 4-26-2-39-5-12-13-25-19-31-13-11-35-11-69 0-13 5-22 8-29 13-5 4-13 15-16 24-2 8-2 22 1 32 1 5 3 14 4 20 5 45 6 48 15 64 3 6 5 11 6 13 0 4 0 4-12 17-7 7-14 15-15 17-5 9-10 24-12 42-3 20-4 27-9 50-4 18-7 37-10 50-1 9-3 16-10 45-2 10-2 14-2 27-1 18 0 20 7 22 5 1 54 4 58 3 1 0 56 0 120-1z"/></svg>