<svg xmlns="http://www.w3.org/2000/svg" width="1344" height="566"><path d="M0 283V0h1344v566H0V283m1049 277c2-2 2-2 1-8-1-7-1-8 12-13 19-8 32-17 37-28l2-5-1-10c-2-9-4-17-8-28-1-4-2-7-6-28-1-4-3-13-5-18-7-25-11-41-13-56-2-17-6-30-9-34s-13-11-25-17c-16-8-20-11-27-17-11-8-13-16-9-29 4-12 3-17-7-65-2-11-5-24-6-29-5-26-7-30-13-42-12-23-31-33-62-33-30 0-46 8-62 30-8 11-13 31-12 45 1 3 2 12 3 21 0 8 1 16 2 16 0 1 5 31 6 40 0 8 0 9-9 14-11 5-45 34-62 51-6 6-11 11-12 11-3 0-9-9-20-29-4-8-12-17-24-25-15-13-17-13-29-2-5 4-7 4-13 0l-12-3c-9 0-12 1-14 8-2 6-3 22-1 28 1 2 5 9 10 15 9 13 13 20 19 32 9 16 31 35 45 39 7 2 9 5 8 12-1 10-5 29-7 35-2 4-3 7-3 7 0 1-3 9-6 18-8 20-19 43-23 51-5 7-8 13-13 27-7 17-7 16 11 16h32c10-1 31 0 46 0 15 1 43 1 61 1 31 1 94 2 153 4 14 0 33 1 44 0 17 0 20 0 21-2z"/></svg>