<svg xmlns="http://www.w3.org/2000/svg" width="1344" height="566"><path d="M0 283V0h1344v566H0V283m478 278 38-1 3-2c2-3 2-4 2-15 1-18 4-34 7-42 4-10 6-20 6-27 0-9-3-26-7-42-1-3-2-8-3-12-2-10-5-19-10-29-3-8-5-10-13-17-5-4-13-10-18-13-12-8-14-10-14-13 0-2 1-4 4-6s5-6 7-8c1-3 4-9 7-14 4-8 5-11 10-15 3-2 7-6 10-9l4-4v-13c2-23 1-31-3-40-2-6-3-10-5-19-2-22-6-34-12-43-5-6-7-7-15-9l-12-4c-16-6-36-7-50-4-17 3-34 15-43 28-7 12-9 35-8 132 0 18 0 32-1 36-1 8-5 16-14 29s-13 21-16 33c-1 5-4 15-6 22s-5 16-5 20c-1 4-2 14-4 21s-3 18-4 23c-1 6-2 14-3 18-1 10-1 25 0 30 2 8 3 8 29 9h139m491-1c3 0 9-1 15-1 11 0 14-1 17-6 1-3 1-8 2-38 1-35 2-55 4-63 2-10 5-43 7-78 1-16 1-20 0-29-3-16-10-34-22-53-4-6-9-13-11-17-8-15-18-29-25-36-8-8-17-19-19-23-1-1-2-5-3-8-2-8-5-12-12-13-8-2-10-3-14-7-6-6-9-14-9-21s2-20 6-31c2-10 9-39 10-47 2-10-2-24-10-44-6-12-7-14-16-19-15-8-32-12-46-10-12 2-38 10-46 15-6 3-18 15-21 20-2 4-2 5-3 15 0 10 0 13-3 22-2 7-3 14-4 22-1 9-1 12-5 20-5 12-5 19 0 27 1 2 4 8 6 13 3 10 12 28 15 31 2 1 8 4 13 6 6 2 12 5 14 5 3 2 14 15 14 18 0 0-2 3-3 5-2 2-5 5-6 7-2 4-6 10-14 18-7 8-9 12-11 29-2 11-3 16-6 23-11 27-13 34-17 48-5 25-7 31-10 50-2 10-5 20-5 23-4 14-8 34-12 59-1 7-4 22-7 34-4 22-5 26-3 29 1 4 7 4 88 5 106 0 135 1 136 1 1 2 11 1 16-1z"/></svg>