<svg xmlns="http://www.w3.org/2000/svg" width="1344" height="566"><path d="M0 283V0h1344v566H0V283m716 277c35-1 127-1 205-1 152 0 145 0 144-5-1-2-9-9-23-18-8-5-29-16-36-18-8-2-26-12-37-19-6-4-14-10-19-12-27-16-47-28-57-37-11-10-21-23-27-34-2-5-7-14-10-19-5-9-7-14-12-29-2-6-12-19-20-27-9-10-10-12-10-21 0-16 1-19 15-44 5-8 11-22 15-32s9-21 10-23c2-4 2-5 2-34 0-48-4-70-15-89-8-13-28-32-39-37-13-5-43-9-66-9l-14 1-21 7c-24 9-27 11-36 19-16 16-27 41-39 90-2 8-6 22-8 29s-5 16-6 19c-3 12-15 44-26 71-14 34-13 34-9 39 7 11 8 18 5 25-1 2-6 10-12 19s-13 21-17 29c-3 7-17 34-30 60-13 25-24 49-25 52s-1 10-1 20c0 15 1 21 4 25l2 3h57c1 1 97 1 156 0z"/></svg>