<svg xmlns="http://www.w3.org/2000/svg" width="1344" height="566"><path d="M0 283V0h1344v566H0V283m866 278c8-1 12-3 14-6s1-37-1-55c-2-16-5-26-8-32-9-14-32-32-75-59-10-7-24-17-27-21-3-3-22-39-24-44-2-7 2-19 13-40 3-5 8-13 11-20 4-6 8-12 9-14 6-8 10-16 11-22 1-4 2-9 2-12 4-12 8-31 10-42s2-16 2-36c1-25 0-31-5-46-7-20-20-39-41-57-19-17-28-20-51-22-7 0-18-2-24-3-9-2-14-2-23-2-28 2-46 10-68 31-24 23-33 44-36 83-2 25-3 34-8 42-7 12-8 23-6 37 3 16 9 28 22 41 5 5 9 10 10 12 2 4 5 18 5 25s-2 11-9 19c-7 9-26 26-36 33-7 5-12 7-26 12-10 3-23 7-29 9s-13 4-16 4c-2 1-8 3-14 5-35 11-44 15-51 22-7 8-23 41-38 79-3 9-9 24-13 34-13 30-14 32-14 36s0 5 2 6c2 2 5 2 58 2 31 0 67 1 80 1 28 1 384 0 394 0z"/></svg>