<svg xmlns="http://www.w3.org/2000/svg" width="1344" height="566"><path d="M0 283V0h1344v566H0V283m658 276c49-1 79-1 84-2 35-4 61-5 83-2 20 2 81 5 136 5 35 0 37-1 39-2 2-3 3-4 0-9-4-7-15-16-29-23-31-17-37-20-54-34-13-10-25-23-30-32-4-7-8-10-20-19-2-2-8-5-13-7-9-5-15-10-33-27-10-11-11-13-12-29 0-12 0-13 3-24 5-21 7-29 8-40 2-17 0-51-4-84-2-9-3-24-3-33-1-18-2-25-10-58-7-31-11-41-22-56-14-19-21-25-37-31-4-2-12-5-17-7-7-3-13-4-18-5-4-1-12-2-17-3-15-2-21-1-31 4-6 3-11 4-17 5-5 1-12 3-16 5s-10 4-13 5c-5 2-7 3-9 7-2 2-6 6-9 8-3 3-6 6-9 11-2 4-6 10-8 14-5 9-8 20-9 39-1 13-1 17 1 32l2 18-2 9c-4 16-1 32 8 46 3 5 7 11 9 16 3 7 3 8 3 16 0 4-1 12-2 18-1 5-3 13-4 17-1 10-4 15-8 17-1 1-5 2-8 3-4 1-9 2-11 3-6 1-7 4-16 19-6 10-14 22-20 27s-13 9-21 10c-3 1-10 3-14 4-4 2-10 4-13 5-4 1-10 2-15 3s-12 2-18 2c-10 0-22 2-29 5-16 7-17 7-21 13-3 4-5 8-6 10-2 4-7 10-8 10-3 0-9 10-9 15 0 1-1 5-3 9-4 12-6 21-7 30-2 12-2 14 0 20 0 2 2 8 2 12 5 24 7 29 13 33 4 3 32 3 284 2z"/></svg>