<svg xmlns="http://www.w3.org/2000/svg" width="1344" height="566"><path d="M0 283V0h1344v566H0V283m952 276c13-1 19-1 30 0 10 1 28 1 52 1 43 0 42 0 44-7 2-8-1-35-8-63-2-6-3-14-4-20 0-13 0-15 9-19 8-3 12-4 25-1 6 1 13 1 21 1 10-1 12-1 18-4 18-8 26-24 19-38-5-12-15-25-33-43-16-17-18-20-27-34-16-26-22-31-44-43-16-9-22-16-28-35-5-14-10-40-13-62-4-30-11-48-22-60-8-8-12-10-24-15-9-3-10-3-20-3-13 0-23 2-33 7-19 9-34 29-36 48 0 4 0 25 1 48l1 40-4 4c-3 3-8 7-11 11-7 6-19 15-27 21-6 3-10 5-24 8-11 3-16 3-23 0-13-5-42 0-48 7-3 3-3 4-3 10 0 5 1 7 3 13 2 3 4 7 6 9 4 3 12 6 25 8 6 0 15 2 19 2 5 1 11 2 15 2 4 1 6 2 8 3 2 3 3 19 2 31-2 24-3 42-3 100-1 66-1 66 4 69 1 0 13 1 28 1 25 1 42 2 47 4 2 1 35 0 58-1z"/></svg>