<svg xmlns="http://www.w3.org/2000/svg" width="1344" height="566"><path d="M0 283V0h1344v566H0V283m768 251c5-1 12-3 15-4s9-3 14-3 13-2 18-3c5-2 11-3 14-4 3 0 8-1 11-2s9-3 13-4 9-3 11-3c20-6 38-10 48-10 3 0 12 1 21 2 20 2 19 3 18-19 0-14 0-20-2-28-3-13-6-37-6-45s-2-23-4-26l-3-3c-4-2-16-6-35-10-21-6-23-7-25-11-2-3-4-15-4-22 0-6-2-9-6-12-2 0-3-2-4-4 0-2 1-3 4-7 4-3 4-4 4-7-1-2-7-15-16-35-3-7-7-15-7-18-1-3-4-9-6-14s-5-13-8-18c-2-6-6-17-9-24-3-8-6-17-8-21-7-20-15-38-20-45-5-9-16-22-23-28-14-12-32-21-54-29-7-2-11-2-22-3-17 0-24 1-56 11-37 12-50 24-64 61-2 4-5 14-7 20l-2 12 1 52c1 29 2 56 2 60s1 12 1 17c0 8 0 10-2 13s-15 12-22 15c-2 1-8 5-13 8-11 7-16 14-20 26-5 11-5 12-11 16-4 3-5 3-9 3-5-1-6 0-8 2-5 3-19 10-21 10s-17 5-23 8c-4 1-11 9-15 16-2 3-17 11-26 14-2 0-6 2-8 4-4 3-11 15-11 17 0 1-1 4-3 7-1 3-3 8-3 12-1 3-1 7-2 9 0 3 0 3 3 6 4 4 4 4 10 4s11-1 28-3c9-1 18 0 24 3l5 2 8-2c4-1 10-2 14-3 5 0 6 0 9 3 4 2 4 2 12 2 5-1 10-1 11-2 4-2 31 1 39 5 2 1 7 2 10 3 17 6 19 6 36 6 9 0 16 0 17-1 1 0 11 0 22 1 18 1 32 2 70 6 13 1 26 6 36 13s21 8 39 4z"/></svg>