<svg xmlns="http://www.w3.org/2000/svg" width="1344" height="566"><path d="M0 283V0h1344v566H0V283m612 277c6-1 16-1 34-1 15 1 50 1 79 1 58 0 56 0 60-6 1-2 1-5 2-18 0-19-1-29-7-54-6-29-10-43-16-55l-5-11 1-7c1-8 0-12-3-16-4-3-40-20-73-34-19-8-21-9-24-13-4-4-4-6-1-25 3-18 5-35 7-57 2-17 2-21 1-34-1-7-1-21-2-30-1-8-2-20-2-26-1-7-3-17-4-24-2-18-9-45-14-56-12-26-24-43-36-54-14-12-44-27-60-30-8-1-9-1-19 1-5 1-13 3-17 5-6 3-9 3-18 4-10 1-12 1-18 4-13 6-23 15-35 32-5 6-13 22-17 32-7 18-15 50-26 108-5 27-7 37-8 53-2 18-1 56 1 67 2 7 2 16 0 20s-6 5-16 5c-8 0-12 1-21 4-14 4-19 6-29 12-5 2-16 8-25 13-13 6-18 9-23 13-6 6-8 9-9 17 0 9-3 18-6 27-1 4-4 14-5 23-2 8-5 19-7 24-1 6-4 15-5 20-1 6-3 16-5 22-3 11-6 27-6 32s4 9 14 10 66 2 99 1h43c49 2 208 3 221 1z"/></svg>