<svg xmlns="http://www.w3.org/2000/svg" width="1344" height="566"><path d="M0 283V0h1344v566H0V283m644 278h61c60 0 134-1 177-3 19-1 92-2 150-2 6 0 20 0 31 1 11 0 38 1 60 1h40l3-3c2-2 2-3 2-6-2-7-18-42-27-57-18-29-47-61-72-80-14-11-22-14-53-24-14-5-33-12-42-16-16-7-35-14-38-14-1 0-6-1-11-3-10-3-22-9-32-15-17-12-28-16-39-16-5 0-6-1-11-7s-9-17-12-30c-2-8-2-14-2-27 0-14 0-16 2-24 3-10 6-19 9-30 1-4 4-19 6-34 4-25 4-29 4-47 0-22-1-28-7-43-5-11-8-16-15-23-3-3-8-9-11-13s-7-9-9-10c-6-4-17-9-24-10-4 0-12-2-17-4-15-5-37-8-53-8-18 1-31 4-43 8-13 4-15 6-22 11-3 2-8 5-12 6-9 4-15 10-21 20-5 10-7 17-8 32 0 16-2 29-6 44-5 21-7 33-5 47 4 39 8 57 18 82 16 39 27 62 35 70 4 5 12 9 22 13 2 1 5 3 6 4 2 3 2 3 0 7-4 6-14 15-23 22-7 5-17 9-53 25-17 9-52 27-63 34-21 13-41 32-52 49-15 22-30 54-30 65 0 3 4 7 10 7 9 2 54 3 115 2 34 0 62 0 62-1z"/></svg>