<svg xmlns="http://www.w3.org/2000/svg" width="1344" height="566"><path d="M0 283V0h1344v566H0V283m678 276c77-1 201-2 254-1 102 2 204 3 224 2 25 0 25 0 23-11-4-13-10-24-19-35-5-5-13-14-18-19-9-11-24-24-43-40-7-5-17-13-21-18-12-11-20-17-35-29-52-39-49-37-67-38-21-2-32-7-37-18l-3-6 1-16c2-27 4-41 8-48 0-2 4-5 8-8 10-7 16-15 23-30 6-13 9-21 11-32 2-12 1-17-4-25l-3-7-1-30c0-35 0-40-7-54-10-21-24-35-52-49-19-11-33-13-64-13-25-1-27 0-44 8-15 8-22 13-33 24s-17 21-22 36c-6 20-8 38-8 106l1 42 6 24c9 35 11 41 19 55l6 12v9c0 5-1 10-2 11s-7 5-20 11c-61 30-67 33-88 48-35 25-62 53-83 84-6 10-8 13-12 27-6 18-7 23-3 26 4 5 0 4 105 2m-632-1c3 0 37 1 76 1 77 1 121 1 133-3 5-1 13-1 43-1h40c26-1 54-1 64 0 7 1 21 1 32 2 25 1 27 1 29-6 1-3 1-6 0-17-2-23-5-50-5-52-1-1-2-9-2-16-4-37-9-58-19-80-16-35-26-47-62-70-16-10-18-11-43-22-32-14-36-15-52-23-25-12-34-19-34-26 0-6 6-22 18-46 8-15 12-20 21-23 15-6 24-13 33-25 10-15 13-24 13-36 0-8 0-9-4-15-3-5-4-6-4-9 3-19 5-25 8-39 4-21 5-37 4-42l-4-4c-4-2-35-3-136-2C115 4 89 4 87 5c-4 2-6 6-8 14-3 10-5 15-9 18-1 1-5 4-8 6-8 6-10 12-11 27 0 13 1 26 4 34 1 2 4 10 7 17 7 14 8 20 10 43 2 25 0 37-5 43-3 2-4 3-11 3-16 2-33 5-36 6-3 2-10 10-14 16-1 2-3 7-3 11-1 4-1 54-2 156 0 150 0 150 2 155 3 6 5 6 23 5 7 0 16 0 20-1z"/></svg>