<svg xmlns="http://www.w3.org/2000/svg" width="1344" height="566"><path d="M0 283V0h1344v566H0V283m938 171c17-1 22-2 27-6 2-2 6-4 8-4 21-6 42-16 45-22 0-1 3-7 5-12 3-4 6-13 9-20 4-13 5-23 3-48-3-30-6-38-18-55-12-16-18-21-29-21-5 0-7 0-9-2s-2-3-3-21c-1-20-1-22-8-35s-16-24-27-32c-10-7-15-14-20-23-7-13-11-19-17-20-12-4-14-6-22-28-2-5-11-17-16-22-4-4-6-6-12-7-8-2-13-2-21 0-13 3-25 14-33 29-3 7-3 8-3 14s0 8 7 21c6 13 8 15 16 23 5 5 10 10 13 12 4 2 7 3 18 2 7-1 8-1 10 1 4 3 5 7 8 24 3 26 7 36 16 54 6 13 5 17-5 21-7 3-14 6-19 11-2 3-7 6-9 7-3 2-6 4-7 5-1 3-1 3 0 6 1 1 3 4 5 5 4 3 11 13 18 27 5 10 7 15 10 29 2 9 5 18 6 19 1 3 5 5 9 4 5-1 9 1 14 7 5 9 7 16 7 22-1 2-1 9-1 13 0 7-1 11-3 14-4 9-3 10 8 10 3-1 12-2 20-2z"/></svg>