<svg xmlns="http://www.w3.org/2000/svg" width="1344" height="566"><path d="M0 283V0h1344v566H0V283m570 275c31 0 163 0 184 1 22 1 126 0 147-2 19-1 206-1 227 0 8 1 19 1 24 1 9 0 10 0 12-3 2-2 2-2 1-11-3-19-21-52-41-72-18-18-38-30-72-41-32-10-71-23-71-23-3 0-31-13-34-15-5-5-6-10-6-21 1-5 2-12 3-16 1-7 3-17 6-40 4-27 8-35 19-40 17-7 34-29 41-54 2-7 2-11 2-22 0-12 0-14-2-18s-6-8-12-11c-3-1-5-3-6-6s-1-4 2-47c3-32-1-81-7-99-2-7-6-9-17-11-5-1-10-2-12-2-5-2-166-3-219-2-37 1-49 2-57 5-3 1-4 3-8 10-10 19-14 43-17 90-1 21-3 50-5 69-2 24 3 44 19 77 11 21 18 37 23 52 2 6 6 17 9 24 7 17 8 20 5 22-1 1-7 3-15 5-13 3-31 9-40 14-5 2-13 12-22 26-14 22-26 39-35 48-6 7-20 18-32 26-9 7-18 13-33 24-13 9-14 11-31 22-13 10-25 18-37 28-6 5-8 8-8 10 0 1 1 2 2 2 1 1 3 1 5 1 2 1 75 0 108-1z"/></svg>