<svg xmlns="http://www.w3.org/2000/svg" width="1344" height="566"><path d="M0 283V0h1344v566H0V283m202 279c10-1 34-1 53-1 33-1 36-1 39-3 7-4 18-27 21-43 2-9 5-19 8-22 2-2 3-2 7-1 4 0 7 0 11-1 3-1 12-2 24-3 19-1 38-4 48-6 2-1 8-3 13-4 4-1 10-3 12-4 2 0 7-2 10-3 4 0 9-2 12-2 2-1 6-2 8-3 1-1 4-2 4-2 1 0 4-1 6-2s5-2 6-2l10-4c5-2 12-5 16-6 10-4 19-8 20-10 1-1 1-4 1-6 0-5-3-7-8-7s-5-1-4-5c1-3 1-4 0-6-2-2-10-1-19 3-11 6-17 8-23 8-5 0-6 0-8-3-2-2-3-5-4-9-2-7-3-10-4-10-2 0-4 4-5 9s-6 16-9 19c-3 5-8 6-23 8-27 3-60 1-70-4-8-4-13-13-15-31 0-7-2-17-3-22-3-16-3-20 7-40 4-9 6-10 16-10 10 1 14 0 22-9 9-10 13-14 19-20 6-5 6-5 8-13 1-11 4-21 7-31 3-11 4-13 1-22-2-9-8-18-20-29-10-9-14-11-27-12-20-1-36 8-50 28-5 8-14 15-25 21-5 3-8 4-16 5-30 3-47 9-81 29-12 7-15 9-26 19-15 16-31 37-43 58-12 20-22 42-22 47-1 6 1 7 9 4 4-3 5-3 7-2s6 8 8 15c1 4 4 11 5 15 5 11 5 17 4 35-1 21-2 24-11 33-4 5-7 9-8 12-2 4-6 10-11 12s-4 4 3 12c9 8 12 10 17 11 13 2 21 3 29 6 14 5 18 5 44 4z"/></svg>