<svg xmlns="http://www.w3.org/2000/svg" width="1344" height="566"><path d="M0 283V0h1344v566H0V283m654 275h244c179-1 183-1 208 1h44c22-1 24-1 25-3 2-2 2-3 2-7-2-9-24-54-34-70-10-14-29-33-48-46-5-4-36-20-43-22-6-2-44-19-52-24-12-7-27-14-42-19-15-6-24-12-40-25-11-9-13-12-13-21s5-28 8-37c4-8 7-10 15-13 7-3 12-6 19-14 12-12 18-24 19-37 0-10-1-13-7-19-4-4-4-6 1-29 6-29 8-43 8-59 0-13 0-14-3-24-5-16-11-29-17-35-3-2-8-7-11-10-6-6-20-16-26-18-1-1-7-4-12-7-12-6-20-9-32-10-7-1-10-1-14 0-2 1-10 2-17 2-6 1-15 2-20 3-16 4-46 19-50 25-1 1-5 6-8 10-11 16-19 41-25 80-3 25-4 25-15 35-2 2-5 6-7 9-2 4-2 6-2 17 0 15 2 24 10 40 6 11 8 17 13 41 5 27 6 50 3 58-3 5-27 24-42 33-11 7-19 10-27 12-7 1-25 8-52 20-8 3-19 8-25 10-21 9-42 19-54 27-20 13-39 35-53 58-13 23-21 44-21 59 0 5 0 6 2 8l3 2 56-1c32 0 64 0 72 1 9 0 19 1 22 0 3 0 20 0 38-1z"/></svg>