<svg xmlns="http://www.w3.org/2000/svg" width="1344" height="566"><path d="M0 283V0h1344v566H0V283m750 275h92c27-1 72-1 101-1 56-1 56 0 54-6-2-9-16-26-31-38-19-15-42-28-62-36-5-2-13-6-18-8-12-5-16-7-30-11-12-5-35-16-39-19-6-4-9-8-9-13 0-7 7-19 26-46 5-6 11-15 13-19 26-39 29-44 43-56 24-22 43-55 43-74v-7l-5-6c-8-8-8-8 2-49 9-36 12-66 8-91-6-39-17-62-32-69-12-5-42-6-156-5-89 1-92 1-98 9-3 4-14 25-17 33-5 14-11 37-15 55-6 30-7 35-12 41-3 4-6 6-12 9-9 4-12 7-15 13-8 23-1 59 16 82 4 4 8 10 9 12l4 4-1 14c0 9 0 18-1 22-1 5-2 11-3 14 0 5-2 11-7 28-2 8-9 21-13 27-5 6-14 8-52 8-19 1-18 0-28 13-3 5-11 15-16 22-15 21-30 34-50 44-12 5-22 12-25 17-4 6-5 24-2 59 1 20 3 23 18 25 12 2 53 3 113 3 26 0 47 1 48 1 0 1 24 1 57 0 32 0 77-1 102-1z"/></svg>