<svg xmlns="http://www.w3.org/2000/svg" width="1344" height="566"><path d="M0 283V0h1344v566H0V283m888 273c2-1 3-4 5-9 2-6 2-9 3-29 1-12 1-26 2-31 0-11-1-29-4-39-1-4-3-10-4-14-2-5-4-13-4-18-1-6-4-16-6-24-2-7-4-15-5-18 0-3-2-9-4-14-1-4-3-10-3-12l-7-21c-3-9-7-19-8-23-4-16-14-36-23-48-7-9-21-23-27-26-2-1-5-2-8-3-5-1-12-7-15-13-1-3-2-8-3-13-1-7-1-9 1-22 3-18 4-25 1-38-6-28-30-48-56-48-6 0-19 3-23 5-1 1-5 2-9 3-10 3-13 5-22 12-14 12-25 27-29 41-2 6-2 9-2 17 1 10 2 15 7 20 4 3 6 10 7 21v10l-5 6c-5 8-9 18-11 27-2 7-8 22-12 29-2 3-6 10-8 15s-6 13-8 17c-22 31-25 34-59 66-17 16-19 17-27 21-5 2-12 6-16 8-3 1-8 3-11 4-4 0-11-1-19-5-3-1-6-1-13-1l-9 1-5 5c-4 5-5 5-19 10-17 5-18 7-18 16 0 5 0 7 3 13 6 12 9 14 18 17 14 5 22 7 25 7s15-3 21-5c1-1 7-2 13-4s15-4 20-5c5-2 11-3 15-3 5 0 6 0 8 3l12 12c8 8 10 10 21 15 16 8 18 9 23 7s13-2 20-1c3 1 8 2 11 3 7 1 9 2 13 6 7 6 9 10 9 16 0 5 0 6 5 12 11 13 16 18 20 19 9 4 81 6 176 6 39 0 40-1 43-3z"/></svg>