<svg xmlns="http://www.w3.org/2000/svg" width="1344" height="566"><path d="M0 283V0h1344v566H0V283m742 164c12-1 20-2 28-5 3 0 8-2 12-2 11-3 20-5 32-9 7-2 14-4 15-4 2 0 5-1 7-2 3-1 9-1 18-2 12 0 18 0 33 3 10 2 11 2 10-12 0-7-1-17-3-25-1-8-3-21-4-30-2-25-3-29-8-33-2-2-11-7-16-8-2-1-5-3-7-4l-4-4-1-14c-1-9-1-22 0-31 0-16-1-27-7-61-1-6-3-15-3-20-4-20-8-36-17-64-12-38-25-55-56-73-23-13-33-16-50-13-5 1-12 3-15 4-4 1-9 2-12 3-25 3-39 12-51 34-8 16-12 30-16 59-1 8-3 20-4 25-2 16-4 49-5 81 0 19-1 31-1 32-4 4-38 12-49 11-9 0-24 2-29 4-8 4-26 22-30 31-5 8-14 17-22 20-4 1-13 8-21 15-10 8-15 11-22 11-8 0-13 1-16 4-3 4-19 36-24 50-1 2-3 8-5 13-3 9-3 9-1 11 1 2 2 2 8 2 3-1 11-2 17-4 6-3 13-4 16-4s7-1 9-2c4-2 13-3 34-4 11-1 19-2 27-4 13-3 17-3 33 2 6 2 13 4 16 5 12 2 15 3 23 4 18 2 30 3 47 2 24-2 32-2 48 0 14 1 26 4 32 8 4 2 5 2 14 2 5-1 14-1 20-2z"/></svg>