<svg xmlns="http://www.w3.org/2000/svg" width="1344" height="566"><path d="M0 283V0h1344v566H0V283m849 279h121c69 1 121 0 129-2 7-2 7-4 3-17-2-6-5-13-5-17-2-6-5-12-12-25-6-10-9-19-11-30-2-10-2-16 0-31 2-11 3-16 11-47 9-36 12-55 9-61-4-6-9-5-15 3-3 5-4 6-7 3-4-4-5-8-6-16 0-4-1-9-1-11-1-3-5-7-8-7s-8 5-11 13c-6 11-8 10-12-4-2-7-7-12-11-10-4 0-7 4-10 10-4 6-5 7-10 7-4 0-10 3-14 8-3 3-5 7-7 14-2 5-3 10-3 11 0 2-3 5-5 5 0 0-4-2-7-3-4-2-9-5-13-6-3-2-12-6-20-9-7-3-19-8-25-11-17-6-28-11-30-15-1-2-1-3 1-15 5-28 5-36 5-63 0-43-3-60-16-79-4-6-9-12-11-15-4-4-22-15-40-25-18-11-36-15-59-15-14 0-16 0-23 3-9 3-26 12-38 21-9 6-25 24-29 31-3 6-9 24-11 31-1 8-12 45-13 47 0 1 0 8-1 15v20c-1 4-1 8 0 13 4 21 4 21 3 23-3 5-17 10-49 21-28 8-39 12-48 17l-10 4c-4 0-6-6-8-27-1-13-3-16-8-16-2 0-4 1-7 5-1 3-4 5-5 5-3 2-6-2-8-8-5-20-11-27-17-23-1 1-4 5-6 9-5 8-7 9-13 4-4-4-8-5-12-2-3 2-4 4-5 18-1 10-1 14-3 16-3 6-4 6-12 2-15-8-20-3-17 17 2 10 3 13 21 66 6 18 12 38 13 44 2 10 2 11 1 19-4 18-15 46-23 57-6 8-10 15-10 19 0 3 4 7 9 7 3 1 12 1 21 0h63c88-1 172 0 184 1 9 2 20 2 55 1h96z"/></svg>