<svg xmlns="http://www.w3.org/2000/svg" width="1344" height="566"><path d="M0 283V0h1344v566H0V283m458 278c16-1 31-1 34-2 4 0 34-1 68 0 75 1 83 1 124 0h38c2 0 43 0 90-1 63-1 92-1 106 0 21 1 63 0 65-1 0-1 1-2 1-3 0-2-9-15-19-27-16-20-22-29-26-45-5-14-14-28-26-39-10-11-15-19-21-36-3-12-7-34-8-49-1-11-4-19-13-31-7-9-12-16-21-30-9-12-13-16-30-28-9-5-17-11-19-13-5-4-5-5-3-20 1-5 2-22 2-37 1-30 0-39-6-63-1-7-3-16-4-18-1-7-8-28-10-32-3-6-6-10-19-21-14-12-24-17-41-24l-12-4-21-1c-23-1-30 0-39 4-5 2-11 4-18 5-2 1-10 4-17 8-13 7-14 7-23 17-7 8-10 12-13 19-6 13-8 17-9 29-1 10-1 27 1 51 0 9 0 10-3 17-4 9-5 17-3 25 2 9 7 19 12 26s10 15 15 24l4 7v14c-1 20-2 30-4 37s-5 9-14 16c-3 3-6 6-9 11-11 19-15 25-19 30-3 2-7 7-9 11-4 6-6 7-11 9-4 1-8 3-9 4-2 0-6 1-9 0-4 0-7 0-12 2-7 3-27 12-32 15-6 4-18 10-25 13-4 1-10 4-15 6-9 4-10 4-20 16-6 6-12 14-14 17-19 26-25 34-31 40-3 3-5 6-5 6 0 3-3 13-4 16-3 6-6 19-6 22 1 2 2 4 5 5 4 2 6 2 31 3 14 1 27 1 27 2h11c5-1 22-2 38-2m-122-8c4-2 7-8 9-15 1-3 1-5 4-14 1-3 3-8 3-11 1-3 2-9 4-13 1-3 2-7 3-8 0-2 5-15 11-32 4-11 15-34 21-45 8-15 14-23 20-30 7-7 13-16 13-18 0-1-1-4-2-6-3-5-4-20-4-34 1-14 2-15 8-15 13 2 17 3 20 4 4 2 10 2 13 1 1-1 3-3 4-5s3-5 5-7c3-5 4-9 1-13-1-2-2-5-3-8-1-4-1-4 1-7 1-1 2-3 2-4 0-3-13-16-20-21l-5-4v-6c0-9 0-10-5-11-6-2-21 0-27 2-6 4-15 11-17 15-1 3-3 7-3 11-1 4-2 9-6 16-4 10-4 10-3 13 1 2 5 6 8 9s5 7 5 7c0 1-2 3-5 6-6 4-9 9-14 26-2 8-5 17-7 21-10 17-35 51-57 74-16 18-34 45-50 77-14 27-17 32-18 37-2 6-1 7 15 8 7 0 17 0 22 1 5 0 19 1 30 1 19 0 22 0 24-2z"/></svg>