<svg xmlns="http://www.w3.org/2000/svg" width="1344" height="566"><path d="M0 283V0h1344v566H0V283m546 278c80-2 156-1 206 0 37 1 113 0 151-2 18-1 191-2 199 0 2 0 10 0 18-1 13-1 16-1 18-3 4-3 3-7-2-17-8-13-16-21-36-33-9-6-56-30-57-30s-8-3-16-7c-19-9-32-14-41-17-18-6-27-12-48-31-11-11-14-15-13-22 1-2 2-11 4-18 8-43 16-79 21-92 3-9 5-12 16-18 7-3 10-5 16-12 7-7 9-10 14-20 9-19 11-28 11-39 0-14-3-19-13-24-3-2-6-4-6-5-1-2-1-13 0-20 7-45 8-77 4-104-2-13-7-26-13-31-3-3-10-6-20-8-12-3-48-4-144-3-75 0-89 0-101 3-6 1-7 2-12 8-5 7-6 10-11 33-7 28-8 37-9 69-2 32-3 35-9 44-8 11-10 26-6 46 5 19 11 35 21 48 2 3 5 8 6 10 5 10 14 38 18 55 2 9 2 35 0 42s-7 18-10 21c-4 5-7 5-27 4-12 0-19 0-22 1-5 1-14 11-29 29-5 7-12 15-15 18-7 7-19 14-32 20-5 2-12 6-16 8-4 3-18 10-33 17-26 13-31 16-50 28-19 13-38 31-44 43l-2 4 2 2c1 2 4 2 18 3 22 2 17 2 94 1z"/></svg>