<svg xmlns="http://www.w3.org/2000/svg" width="1344" height="566"><path d="M0 283V0h1344v566H0V283m757 276c5-1 16-1 46 0 48 2 88 2 98 1 10 0 11-2 12-12 1-3 3-14 5-22 4-16 4-17 3-25-2-18-4-39-4-55-1-18-2-28-6-44-1-6-3-17-4-24s-3-18-4-24-3-17-3-23c-5-37-9-55-13-62-2-4-11-11-21-17-4-2-11-6-14-9-4-2-10-6-12-7-3-2-7-5-9-7-2-1-7-6-12-9-11-9-11-10-9-19 1-7 4-11 11-21s7-13 7-33-1-28-7-38c-4-8-13-18-21-21-8-5-19-7-31-7-13 0-29 3-37 7s-17 13-21 20c-2 5-2 7-2 16v26c1 17 2 16-11 24-15 10-18 17-20 43-1 11-2 18-3 20-1 1-4 4-7 6-8 5-9 7-14 18-2 6-5 13-7 16-9 18-12 24-16 29-8 10-9 11-17 30l-8 17v10c1 18 6 27 19 34 7 3 9 3 17 4 9 0 10 0 19-3 10-4 12-5 13-2 0 2-2 20-3 29-1 3-3 13-4 20-2 7-5 18-6 24-2 6-4 13-4 16-1 3-2 9-4 13-2 3-3 8-4 10 0 2-1 6-3 8-3 8-3 14 3 21 2 2 3 4 3 4 0 3 9 15 12 17 2 1 8 1 18 1 9 0 17 0 18 1 3 1 49 0 57-1z"/></svg>