<svg xmlns="http://www.w3.org/2000/svg" width="1344" height="566"><path d="M0 283V0h1344v566H0V283m615 277c2 0 20-1 40 0h91c50 0 56 0 58-1 4-3 5-8 5-25-1-14-1-19-4-34-6-27-15-56-22-70l-4-9 1-7c3-10 3-14 0-17-3-2-33-17-34-17s-5-2-10-4c-10-5-21-10-32-14-22-8-26-11-28-21-1-8-1-11 4-51 5-37 5-46 0-88-1-8-3-23-4-32-1-10-2-20-3-22-1-3-2-11-3-19-2-16-3-17-8-29-6-15-9-22-18-33-21-26-36-37-68-48-8-3-12-3-20-4-11 0-17 1-28 5-5 2-10 3-17 4-18 2-27 6-41 21-11 11-17 20-25 36-13 27-20 54-29 109-9 57-8 54-8 82 0 25 0 28 2 42 2 8 3 17 3 19 0 9-9 15-25 17-9 1-26 7-37 13-3 2-16 9-29 16-30 16-35 20-35 32 0 6-3 21-6 31-2 5-9 39-12 56-1 8-5 42-5 47s3 10 8 12c3 2 7 2 20 3 23 0 46 0 64-1s36 0 78 0c92 3 171 3 181 1z"/></svg>