<svg xmlns="http://www.w3.org/2000/svg" width="1344" height="566"><path d="M0 283V0h1344v566H0V283m684 279c7 0 26 0 44 1 31 0 35 0 58-3 3 0 6-1 7-2 2-2 1-8-1-18-5-22-6-31-11-76-1-14-5-39-5-40-1 0-1-5-2-11-3-30-9-41-30-59-7-6-13-12-14-13-2-1-6-4-10-7-3-3-9-7-12-9-2-3-7-6-10-8s-7-5-9-8c-2-2-7-5-11-8-7-5-13-12-20-22-6-11-9-15-11-21-1-5-1-7 0-12 1-4 3-10 5-15 3-7 5-12 7-25 2-8 4-18 4-21 2-6 2-6-1-11l-2-6v-24c1-24 1-24-1-33-4-13-9-24-15-33-7-11-16-18-34-26l-8-4h-16c-15 0-16 0-20 2-3 2-11 6-17 10-18 9-28 18-37 32s-11 18-11 24c3 26 3 29 1 35-1 6-2 8-9 17-2 3-2 4-2 13 1 5 2 12 2 15 1 3 2 8 3 10 2 8 5 12 10 14 2 2 6 4 7 6 5 5 10 15 12 24 0 5 2 12 3 15 3 8 3 14 0 17-2 3-10 7-16 8-5 2-18 6-27 10-11 4-21 11-31 21-7 7-8 9-15 22-4 8-8 17-9 21-3 10-6 19-8 27-1 4-5 17-9 29-7 22-15 53-18 66-2 12-3 33-3 38 1 9 5 30 6 32 3 5 2 5 100 6 51 0 93 0 93 1h41c23-1 46-1 52-1z"/></svg>