<svg xmlns="http://www.w3.org/2000/svg" width="1344" height="566"><path d="M0 283V0h1344v566H0V283m273 278c31-2 130-2 144-1 15 1 44 2 88 1 18-1 53-1 79-1 52 0 214 2 237 3 21 1 25-1 25-11 0-6-3-13-14-28-9-13-14-18-26-24-9-5-50-20-66-25-12-4-31-8-34-8-1 0-5-2-10-4-6-3-9-5-15-12-14-14-15-19-7-31 2-4 6-10 7-14 2-3 6-11 9-17s8-17 11-24c4-7 8-16 10-20 1-3 5-10 7-16 1-5 4-10 5-12 1-3 5-16 8-31 2-9 3-20 6-47 0-10 1-23 2-29 1-5 1-18 2-30 1-38-5-63-22-101-9-19-20-35-31-45-6-5-23-17-31-22-3-2-8-4-11-5-12-2-141-4-156-2-17 2-46 24-60 46-14 21-21 43-25 80-2 15-4 26-5 31-2 4-4 13-6 19-6 19-7 25-7 44 1 11 1 20 2 23 2 7 2 14 1 38 0 20 0 23 7 38 12 25 23 54 23 62 0 3-1 5-6 13-4 4-8 10-10 12-1 2-4 6-6 9-9 11-18 21-24 24-3 1-7 4-10 5-8 5-17 8-39 13-25 7-56 16-83 26-14 5-37 16-42 20-10 9-21 27-22 38-1 10 3 14 15 16 7 1 57 1 80-1z"/></svg>