<svg xmlns="http://www.w3.org/2000/svg" width="1344" height="566"><path d="M0 283V0h1344v566H0V283m615 277c4-1 25-1 60-1 29 1 69 1 88 1 37 0 38 0 41-6 2-5 2-30 0-45-4-22-16-65-23-80-4-9-4-9-3-15 1-4 1-9 1-11 0-6-1-7-20-16-8-4-18-9-23-11-10-5-23-11-29-13-18-6-28-12-31-16-2-5-2-27 1-52 2-11 4-23 4-28 2-10 1-44-1-57-1-5-2-12-2-16-1-8-3-25-5-38-1-5-3-16-4-25-5-33-15-54-41-81-13-13-25-21-47-29s-36-8-56 0c-4 1-10 2-17 3-12 1-18 3-26 8s-21 19-28 29c-16 25-27 56-36 109-8 41-11 62-13 89s-1 40 3 60c1 5 2 12 2 13 0 9-8 14-25 16-7 1-13 3-22 7-15 6-65 31-70 35-6 5-7 8-9 22 0 7-2 17-4 22-7 24-13 56-15 73-1 6-2 17-3 23-2 18 0 23 9 27 3 2 8 2 29 3h28c1 0 11 0 22-1 27-1 52-1 88 0 86 3 163 3 177 1z"/></svg>