<svg xmlns="http://www.w3.org/2000/svg" width="1344" height="566"><path d="M0 283V0h1344v566H0V283m243 275c2-3 2-3 2-14-1-10-4-39-5-41-1 0-2-6-2-13-2-14-5-32-7-35-2-5-1-6 3-10l4-4v-7c-1-3-2-10-3-13-4-13-7-34-8-48-1-7-2-16-2-19-1-3-1-9-2-12s-1-10-2-16c-1-11-2-16-6-27 0-3-1-6-1-7 0-4 3-10 5-12 3-1 3-1 10 1 5 2 8 2 12 1 7 0 12-3 14-6 3-5 4-16 4-40v-24l3-10c3-8 4-12 5-25 1-10 1-16 0-17-2-3-5-3-12 0-7 2-8 2-12 1-6-2-9-2-15 0-2 1-6 3-9 4-6 2-6 4-6 18 1 10 1 11-1 13-1 2-3 3-4 3-4 1-4 4 0 8s5 7 3 12c-3 12-6 12-25-3-4-3-12-8-20-12-19-9-18-8-20-11s-2-3-1-6 6-8 12-11c6-4 8-6 9-12 1-4 1-6 0-9 0-3-1-7-2-10 0-4-2-9-5-16-13-24-19-39-20-43 0-3 0-4 4-8 2-2 5-5 7-6s6-4 10-6c3-3 8-6 12-8 9-5 9-5 9-15 0-14-3-17-17-21-7-1-7-1-14 1-10 3-20 9-25 15-4 4-9 13-12 22-1 3-3 8-4 12-2 3-5 10-7 15-7 19-10 26-21 47-5 10-10 21-11 24-2 4-4 9-4 10-1 1-3 9-6 17-6 16-8 20-18 36-13 21-22 30-31 35-2 1-4 3-5 5-2 3-2 5-2 13 1 12 3 17 12 22 3 2 9 5 12 7 4 2 9 4 12 5l4 1 1 5c1 3 2 8 3 11 2 5 3 12 1 14 0 1-3 0-6-2-8-3-10-3-12 3-1 2-3 8-5 13s-4 10-5 12c0 2-2 5-4 7-4 3-4 3 2 5 1 0 1 2-1 10-2 6-1 16 2 25 1 3 4 11 6 16 1 6 3 14 3 18 1 5 1 9 2 10 1 2 1 4 1 8-1 4-1 7 0 10 2 4 2 5 0 12-4 9-7 20-7 24 0 2-1 7-3 13-3 12-3 18 0 23 3 7 5 8 19 8 24 0 32-1 41-4 19-6 26-7 31-4 4 2 7 1 11-4 3-2 5-4 7-4 1 0 4-1 6-3 5-3 7-2 7 3 0 6 2 9 5 7 6-1 8-1 15 3 4 2 9 4 11 4s4 1 7 3c4 4 5 4 22 4 9 0 20 1 26 1 10 0 11 0 13-2z"/></svg>