<svg xmlns="http://www.w3.org/2000/svg" width="1344" height="566"><path d="M0 283V0h1344v566H0V283m356 276c6-2 9-2 35-2 32 1 33 1 35-5 1-2 2-6 2-8 2-16 4-28 5-29s3-1 4-1c2 1 5 1 8 2 3 0 5 0 10-3 6-4 8-4 11-3 4 0 5 0 7-3 1-1 3-5 4-8 1-6 2-6-9-17-6-7-11-15-11-19s-3-6-10-7c-4 0-9-1-11-1-3 0-4-1-5-5-4-7-3-27 4-52 5-17 4-27-3-50-7-22-17-37-34-51-13-10-15-13-11-17 1-1 5-7 8-14 6-11 8-14 12-17 4-2 7-8 8-18 1-5 2-12 2-16 1-5 1-9 0-14 0-3-1-14-1-23-1-16-1-17-4-24-4-9-8-14-19-20s-17-8-31-10-20-1-33 4c-12 5-19 11-23 23-4 10-6 21-7 39-4 47-4 57-4 80v24l-6 11c-4 6-7 12-8 15-2 4-7 20-10 36-1 4-2 9-3 9 0 1-1 9-1 18-1 9-3 24-4 33-1 16-1 18 0 34 1 11 3 19 4 23 1 3 3 8 4 11 2 5 2 8 2 21v29c-1 14-1 14 1 18 5 8 5 8 21 9 8 0 23 1 35 1 16-1 21-1 26-3m948 2c8 0 15-1 16-1 2-2 5-20 6-40 1-8 2-23 2-32 1-10 1-43 1-76 0-51 0-59-1-69-5-29-15-59-26-79-6-9-23-28-34-39-3-2-9-8-12-13-7-9-11-12-19-14-9-3-13-5-16-9-1-2-3-8-5-14-2-10-2-11-2-33v-42c0-18 0-19-2-28-4-11-7-19-10-21-1-2-11-6-24-11-4-2-26-2-36 0-14 2-30 13-41 27-8 10-10 15-8 23 0 4 1 14 1 24 1 30 6 53 13 64 1 2 3 7 4 10 3 9 6 12 15 16 10 4 13 10 9 19-2 4-13 16-27 30-3 3-4 4-4 7 0 2-1 5-1 8-1 2-3 8-4 12s-3 9-3 11c-1 1-2 5-3 7 0 2-1 6-2 8-5 15-10 34-10 40 0 3-1 8-2 12-3 10-5 27-6 51-1 15-2 20-3 23-6 15-27 35-36 35-4 0-16-4-33-11-8-4-12-4-14 0-2 3-2 3 0 6 0 2 3 5 5 8 5 5 6 8 3 13-3 7-6 10-12 14-7 3-9 6-9 10 0 3 1 5 6 5 4 1 7 4 7 6 0 3 5 12 7 12 0 1 3 0 5-1 4-2 5-2 10-1 4 2 8 5 9 9 1 2 8 3 16 3 10 0 19 2 22 5 1 0 3 4 3 7 2 4 3 5 4 5 1 1 5 1 7 2 3 1 39 1 88 2 46 0 84 0 84 1 1 0 48 0 62-1m-411-4 2-3v-15c-1-9-2-20-2-24-2-18-3-31-3-67 0-41 1-70 4-104 1-12 1-31 1-44 0-19 0-23-1-29-4-14-13-30-25-45-18-24-30-38-42-46-5-5-6-6-10-14-2-4-4-9-5-9-1-1-4-1-6-1-7 0-9-1-12-8-4-10-5-15-4-21 1-7 1-16-1-21-1-4-1-5 0-11 1-13-1-39-5-46-2-5-11-16-15-18-7-5-28-8-39-6-3 1-10 3-16 6-8 4-11 6-16 12-11 11-13 21-12 53 0 13 1 18 3 24 4 14 13 33 20 45 7 10 13 22 13 24-1 3-5 8-19 25-5 6-6 7-9 19-1 7-4 15-5 19-4 15-8 29-9 32 0 3-1 6-2 8-1 3-5 18-5 24-1 3-3 15-4 26-2 12-5 31-7 43s-5 30-7 40c-1 10-3 21-3 24s0 7-1 10c-1 2-2 12-3 21 0 10-1 20-2 23-1 6-3 23-4 41 0 8 0 10 1 11 1 0 6 2 11 2 8 2 15 2 39 1 18-1 49-1 85 0h75c10 0 19 1 20 1 0 1 4 1 9 1 7-1 8-1 11-3z"/></svg>