<svg xmlns="http://www.w3.org/2000/svg" width="1344" height="566"><path d="M0 283V0h1344v566H0V283m818 278c10 0 24-1 30-2 7-1 38-1 78-1 36 0 66 0 67-1 4-1 5-6 5-17-1-7-2-13-2-16-1-2-1-10-2-18 0-12-1-17-3-24-3-10-5-21-6-35-1-10-4-38-7-59-1-3-1-12-1-20 0-9 0-14-2-17-1-4-7-35-11-57-4-21-10-38-19-46-4-5-11-8-27-18-23-12-30-18-30-26 0-3 2-7 5-9 6-6 13-24 14-37 1-15-6-45-13-61-5-11-14-21-22-26-7-4-18-6-34-7h-14l-8 3c-7 3-9 4-15 10-8 8-15 21-15 27 0 2-1 6-2 9-1 6-1 10 1 22 0 4 0 4-3 6-10 5-11 6-12 15-3 12-2 28 1 37 3 8 4 29 2 33-2 3-13 10-20 12-9 3-22 9-27 13-2 3-5 6-5 8-3 7-5 47-6 99l-1 16 6 12c6 14 10 19 19 24s13 9 13 13c0 7-5 27-15 56-2 7-4 14-4 16s-1 5-2 7c-1 3-1 9-2 18 0 11 0 13-3 16-3 4-6 21-5 22 3 4 62 6 97 3z"/></svg>