<svg xmlns="http://www.w3.org/2000/svg" width="1344" height="566"><path d="M0 283V0h1344v566H0V283m748 165c10 0 17-1 19-2s6-2 9-3c2 0 6-1 7-2 1 0 5-1 8-2 2 0 6-1 7-1 1-1 5-2 9-3s10-3 13-4c18-5 39-7 60-4 18 2 18 2 18-9 0-8 0-11-4-36-1-8-2-23-3-32-1-23-2-25-12-34l-8-6c-1 0-5-1-8-3-8-3-10-6-10-14 0-5-2-9-5-11-3-3-3-5 1-7 4-3 5-6 5-17-1-14-3-31-6-44-1-6-3-16-4-22s-4-17-5-24c-2-6-4-14-4-18-8-35-16-56-28-73-9-14-30-29-54-40-14-7-28-7-49-1-6 2-14 3-18 4-10 1-16 4-25 10-20 14-32 42-36 83-1 6-2 15-2 21-5 28-7 75-5 99 2 23 2 23-14 27-5 1-12 3-16 4-4 2-12 2-24 3-19 1-23 2-29 5-2 1-11 10-21 20-10 9-20 18-22 19-10 6-22 14-28 19-8 7-14 10-24 11-7 0-9 1-11 2-2 2-13 24-21 41-3 7-10 28-11 35 0 2 0 3 1 4 3 2 13 1 22-3 6-2 9-3 16-3 4 0 11 0 15-1 3-1 16-2 28-2 12-1 23-2 24-3 2-1 13-3 20-4 6 0 12 1 29 7 3 0 8 1 12 2s9 2 11 2c3 1 8 1 13 2 5 0 15 0 21 1 7 0 13 0 18-1 3-1 15-1 25-1 24 0 46 3 55 8 6 3 5 3 41 1z"/></svg>