<svg xmlns="http://www.w3.org/2000/svg" width="1344" height="566"><path d="M0 283V0h1344v566H0V283m784 276c53-1 142-2 198-3h106c4 0 15 0 26 1 11 0 25 1 31 1 17 0 18-1 14-15-5-20-27-52-48-70-11-8-23-16-35-22-9-4-49-18-60-21-2 0-8-2-12-4-5-1-12-3-16-4-31-10-55-22-59-30-2-4-3-15-1-23 1-2 2-9 3-13 7-48 11-63 17-69 1-1 6-3 9-4 9-4 13-6 19-12 11-10 17-19 22-34 7-18 9-31 6-42-2-6-6-11-12-15-8-6-8-9-5-31 3-24 4-38 4-67-1-24-1-28-3-40-6-29-9-32-37-36-15-2-17-2-129-2-99 1-116 1-125 2-6 1-12 3-14 3-5 3-11 17-16 33-8 29-10 39-12 76-1 26-4 45-6 52-3 9-4 28-1 42 4 20 12 43 21 62 3 5 8 20 10 30 4 13 8 28 13 40 4 12 4 12 2 15-1 2-3 3-9 4-4 0-9 1-10 2-2 0-8 2-13 4-15 4-20 6-24 9s-12 13-27 34c-24 35-32 43-65 66-29 20-60 41-65 43-2 2-10 7-16 11-6 5-14 10-16 11-7 5-13 11-13 13 0 4 4 4 50 3 57-1 124 0 138 1 18 1 58 1 160-1z"/></svg>