<svg xmlns="http://www.w3.org/2000/svg" width="1344" height="566"><path d="M0 283V0h1344v566H0V283m778 252c4-1 10-2 12-3 1 0 6-1 11-2 8-1 21-3 43-8 5-1 14-4 20-6s13-4 16-5c3 0 11-2 17-4 11-3 12-3 37-4 22 0 25 0 27-2s2-3 2-21c0-14 0-21-1-27-1-5-2-14-3-21s-1-14-1-14c-1 0-1-6-2-13-1-20-3-23-23-27-6-2-14-4-18-5s-10-3-13-4c-9-2-15-4-16-7-1-2-1-4 0-8 2-11-1-20-9-28-6-5-6-7-2-12l2-3-3-7c-11-24-24-58-24-64 0-1-1-3-1-5-1-1-5-11-9-22-8-22-10-28-19-51-9-22-11-26-13-30-2-2-4-6-6-9-5-8-17-20-25-26-11-8-33-18-51-23-23-6-50-3-82 9-15 6-32 18-40 27-13 15-24 41-28 62-2 9-2 14-1 46 0 20 1 50 1 66 2 32 1 36-3 41-4 3-22 14-29 18s-14 11-19 22c-6 10-6 11-19 15-6 2-7 2-10 1-7-3-9-2-15 1-7 5-20 11-27 13-14 5-17 8-27 19-6 7-15 12-25 13-8 0-11 2-15 7-3 5-8 17-10 22 0 2-2 7-4 11l-2 8 2 5c1 2 2 5 2 6 0 3 3 8 7 9 3 2 14 3 22 3 2 0 9 0 15-1 10-1 12-1 17 1 7 2 19 2 28 1 4-1 7-1 10 0 4 1 10 0 18-3 6-3 19-4 23-2 1 1 6 2 11 2 6 1 9 2 14 5 10 5 21 9 28 10 3 1 21 1 41 2 20 0 42 1 49 2 8 0 19 1 24 2 26 1 42 5 50 11 2 2 6 4 7 5 2 1 5 2 11 2 14 1 18 1 28 0z"/></svg>