<svg xmlns="http://www.w3.org/2000/svg" width="1344" height="566"><path d="M0 283V0h1344v566H0V283m458 278h54c99 0 171 0 183-1 9-1 18-2 23-3 4-1 8-2 9-2 3 0 7-4 9-13 3-7 3-9 2-12 0-2-1-8-1-14-1-6-1-11-2-12s-6-5-10-7c-2-2-4-2-9-1-6 0-7 1-9 3-8 10-10 11-13 7-4-4-6-5-16-6-9 0-10-1-13-4-2-1-6-7-8-11-3-5-8-12-11-17-8-12-20-22-48-37-8-5-18-11-22-14-5-2-11-6-14-8-4-1-8-4-11-6-4-3-4-3-4-8 1-6 8-20 15-30 3-4 6-10 7-13 3-5 14-15 21-18 2-1 8-2 12-3 21-1 28-8 32-29 0-6 2-13 3-17s2-10 2-15c1-4 2-10 3-14s2-9 3-12c0-2 2-7 4-12 4-6 4-8 4-14 0-7-1-10-10-34l-4-10v-12c1-6 1-14 2-19 1-12 1-43 0-51-4-26-9-35-24-45-8-5-26-16-35-20-3-2-29-11-46-17l-10-3h-23c-28 0-50 2-56 5-2 2-12 7-23 12-19 10-21 11-28 18s-8 8-13 21c-6 13-15 37-17 46-8 30-12 48-15 69-1 3-3 13-5 22-1 8-4 21-5 28-4 20-7 34-9 46-1 5-3 13-3 18-5 25-6 33-11 50-2 11-6 25-8 32-3 12-4 19-2 25 1 1 1 4 1 6-1 4-14 15-27 24-6 4-14 11-18 15-7 7-9 9-16 24-5 10-10 19-12 21-9 13-28 54-29 63 0 6 2 8 9 9h242z"/></svg>