<svg xmlns="http://www.w3.org/2000/svg" width="1344" height="566"><path d="M0 283V0h1344v566H0V283m800 277c67 0 91 0 92-1 4-4-3-13-20-24-8-6-12-10-20-19-15-17-23-30-26-41-4-12-11-30-17-45-2-7-5-15-6-19-3-9-8-19-15-27-10-12-18-18-29-22-11-3-25-12-27-16-1-6 13-27 20-32 9-5 14-2 19 11 3 10 6 13 9 14 3 0 5-2 8-8 3-7 5-9 8-9s5 2 12 9 9 9 11 9c3 0 3-1 5-4 1-3 1-5 0-14-1-6-2-14-3-19-1-10-1-13 2-19s2-11-4-24c-9-19-11-29-15-62-5-44-10-69-17-82-3-7-16-24-23-30-10-9-22-15-44-19-14-3-34-2-45 1-43 15-59 22-67 31-2 2-8 9-13 15-22 29-30 46-41 91-5 23-9 33-16 47-4 7-4 9-4 14 0 6 2 9 7 12 14 10 22 15 23 17 1 1 2 6 3 10 1 6 1 7-1 14-2 6-3 8-10 16-7 7-9 11-10 14-3 10-5 15-16 31-19 28-20 31-24 41-2 5-8 17-12 25-8 16-17 37-22 50-4 8-5 15-8 26 0 3-1 9-2 11 0 2-1 8-2 12 0 6 0 8 1 11 1 2 2 3 2 3 1 1 67 2 149 1h188z"/></svg>