<svg xmlns="http://www.w3.org/2000/svg" width="1344" height="566"><path d="M0 283V0h1344v566H0V283m310 277h37c4 1 6 1 9 0 3-2 5-2 15-1 6 1 29 1 51 1 106 0 146 0 155-1 7-1 16-1 35 0 14 1 55 1 94 1 68 0 69 0 72-2 2-2 2-2 2-9 0-4 0-9-1-12-1-2-2-7-2-9-1-3-2-9-4-14-2-6-3-10-3-16 0-15-2-18-15-25-8-5-27-14-49-24-4-1-14-6-24-11-10-4-26-12-35-16-15-7-19-9-21-12-1-2-2-4-1-6 1-4 9-25 14-36 13-27 20-45 25-68 4-16 3-65-3-98 0-5-1-13-2-20-1-17-9-50-15-70-6-19-20-45-30-58-7-8-9-10-24-21-25-18-37-24-49-27-10-2-38-2-53-1s-23 3-30 8c-4 2-9 4-17 6-15 3-25 8-36 18-15 15-26 34-36 65-9 26-15 52-24 103-4 20-9 47-12 60-8 42-9 51-9 80v44c1 22 0 23-8 26-12 4-27 11-36 16-20 12-38 23-53 30-9 4-18 10-20 12-6 4-6 4-15 23-3 7-9 17-12 22-13 21-18 34-15 39 1 1 3 2 5 3s22 1 56 0h84z"/></svg>