<svg xmlns="http://www.w3.org/2000/svg" width="1344" height="566"><path d="M0 283V0h1344v566H0V283m246 278c19 0 107-1 215 0 179 1 279 1 290-1 3 0 8-1 12-1 5-1 8-1 12 0 11 4 24 4 72 4 25-1 63-1 85-1 28 0 43 0 55-1 25-3 56-4 91-4 26 0 34 1 38 2 10 3 31 1 43-4 9-4 10-6 8-19-1-4-2-9-3-12-1-4-2-13-3-20-2-11-3-21-4-48-2-37-2-39-8-76-4-30-7-48-9-56 0-2-2-9-3-14s-3-12-4-16c-6-15-19-32-31-40-7-5-29-16-44-22-7-3-16-6-19-8-7-4-24-16-27-20s-4-13-4-24c1-13 3-19 9-26 7-8 11-14 13-23 1-6 1-7 0-11-1-3-3-6-5-7-2-2-2-3-2-18 0-20-3-37-7-44-5-10-18-25-23-26-1 0-6-1-10-3-6-2-8-2-17-2-5 0-11 1-13 2s-8 3-13 5c-9 2-22 10-31 17-5 4-10 14-12 23-1 3-1 15-2 26 0 12-1 23-2 25-2 8 0 20 8 36 8 18 10 25 10 37l1 10-5 3c-2 2-9 7-14 11-12 10-19 14-42 25-39 19-52 31-68 63-4 8-8 15-9 16-1 2-4 1-5-2 0-1-3-9-7-17-3-9-9-24-12-32-15-42-29-68-43-82-11-11-30-22-48-28-6-2-10-2-21-2-18-1-45 2-51 5-13 6-58 44-65 55-6 9-13 29-16 46-1 5-4 14-5 20-3 13-5 22-7 45-1 7-3 17-5 24-1 8-2 15-2 23 0 13-2 33-4 37-3 3-8 7-17 11s-31 12-34 12c-2 0-8 3-10 6-2 1-4 3-6 4-7 4-9 0-10-26 0-11-1-21-2-25-3-12-7-28-10-43-7-35-12-43-36-61-7-5-14-11-18-15l-6-6v-6c0-5 1-8 6-20 4-10 6-17 9-30 3-17 3-18 3-31-2-38-3-48-8-57-7-16-31-30-52-33-12-1-29 2-40 8-6 3-15 11-19 17-5 8-7 14-7 32-1 10-1 18-2 19-3 6 0 21 9 37 10 20 9 36-1 40-5 2-9 5-16 15-6 8-19 21-29 29-4 3-8 7-10 10-2 2-6 7-11 11-11 10-26 24-29 29-9 13-14 35-14 61 0 12-2 38-4 50-1 4-1 11-1 17 0 10 0 11 4 23 2 7 6 15 7 19 2 3 6 13 9 22 7 23 10 28 17 30 5 1 48 3 56 2 2 0 18 0 35-1z"/></svg>