<svg xmlns="http://www.w3.org/2000/svg" width="1344" height="566"><path d="M0 283V0h1344v566H0V283m1054 275c6 0 7 0 9-2s2-3 2-31c-1-28-1-29-4-38-5-14-7-28-7-34 1-5 3-11 7-17 2-3 2-5 2-15s0-11 2-12c3-3 7-2 16 4 11 7 17 10 27 13 5 2 11 4 14 5 6 2 24 5 30 5 8 0 20-3 25-5 5-3 10-9 12-15s2-13 0-22c-2-6-11-19-17-25-5-4-27-19-38-25-5-3-17-14-31-27s-29-26-32-28-17-7-23-8c-5 0-8-2-13-7-5-4-6-7-10-18-4-10-7-27-8-44-1-7-1-15-1-16-1-1-2-10-3-18-2-27-8-41-22-54-13-13-29-18-49-17-20 2-31 6-43 18-10 10-18 23-20 35-1 3-1 19-1 38v32l-2 1c-1 1-5 3-8 3-6 2-39 18-41 20-1 2-6 19-7 25 0 3 0 6 1 8 2 4 2 5 0 13-2 5-3 11-3 12-1 1-2 3-4 4s-3 3-4 4c-1 2 1 14 3 17s2 3 1 6-1 4 2 9c2 3 3 7 3 8s1 6 3 11c10 30 11 31 13 33 5 3 7 6 12 17 3 6 7 13 8 15 2 1 5 6 7 11 3 5 6 10 7 12 2 1 3 4 4 6 0 1 2 6 4 11 10 26 9 23 9 46 0 11 0 22-1 25 0 4 0 5 2 7 3 3 16 3 46 2 14-1 28-1 32-1 22 3 44 4 61 3h28z"/></svg>