<svg xmlns="http://www.w3.org/2000/svg" width="1344" height="566"><path d="M0 283V0h1344v566H0V283m678 277c25 0 100-2 101-3 1 0 2-2 3-3 1-2 2-6 3-9 2-4 2-8 2-27 0-12 1-22 1-23 1-1 5-6 10-11l8-9h5c3 1 10 1 15 1 8 0 10 0 15-2 9-5 16-15 23-31 2-7 4-8 9-8 4 0 7-2 7-4 0-3-8-14-12-18s-9-14-11-24c0-5-2-11-3-15s-2-9-2-12c-1-3-4-13-6-22-6-18-10-36-12-43-2-14-15-32-28-38-15-8-22-13-29-19-3-4-8-8-9-10-2-1-3-3-3-5 0-4 5-17 6-18 1 0 2 1 3 2 2 1 2 1 4-1 3-4 4-10 4-23-1-27-7-54-16-72-4-8-12-19-17-23-8-6-12-7-31-8-23-2-29-2-33 0-21 9-36 34-36 61 0 8 3 31 5 39 1 2 3 6 7 9 7 7 10 14 11 21 0 7-2 11-13 21-10 8-19 13-35 19-12 4-27 11-31 14-5 5-7 10-14 32-1 4-2 9-2 12-1 2-2 7-3 10-1 5-5 24-6 32 0 3-1 8-1 12-7 30-9 61-4 78 1 2 2 6 3 9 2 6 18 22 28 27s11 6 9 13c-2 5-4 10-15 43-2 6-5 13-6 15s-2 5-1 6c1 5 9 6 53 5h44z"/></svg>