<svg xmlns="http://www.w3.org/2000/svg" width="1344" height="566"><path d="M0 283V0h1344v566H0V283m662 275c46 0 414 0 442 1 16 1 32 1 42 0 8-1 18-1 20-1 6 0 9-2 9-7 0-4-4-14-13-33-18-39-23-46-40-63-16-15-27-23-48-34-12-6-21-10-22-10-3 0-46-20-62-28-8-5-15-7-29-13-5-2-13-5-16-7-9-6-24-17-26-21-4-6-3-8 11-32 28-49 32-61 43-128 6-32 6-34 6-50-1-17-2-20-7-34-7-19-16-33-28-46-7-8-11-10-28-20-22-13-24-14-33-16-5-1-6-1-10 1-4 1-14 1-23-1-3-1-9-1-14-1-8 0-9 0-16 3-5 2-10 4-12 5-5 1-19 10-32 19-9 7-15 13-21 23-6 11-8 19-11 56-4 39-5 42-7 45-1 2-4 5-7 7-12 6-16 15-15 30 2 17 6 27 17 41 5 5 9 11 10 13 3 6 4 18 3 37s-2 29-4 35c-2 3-14 13-35 30-16 11-26 17-37 20-10 2-34 12-55 21-3 2-13 6-20 9-20 8-46 21-57 28-12 8-22 18-34 33-13 15-18 23-27 41-7 14-10 24-12 37 0 5 0 6 2 8l2 3 56-1c31 0 62 0 70 1 8 0 20 1 28 0 7 0 25 0 40-1z"/></svg>