<svg xmlns="http://www.w3.org/2000/svg" width="1344" height="566"><path d="M0 283V0h1344v566H0V283m866 279c17-1 21-2 25-8 3-4 4-11 7-25 5-30 5-30 11-49 3-9 7-17 25-51 9-18 12-26 10-30-1-3-11-10-16-13-4-2-10-8-12-11-1-4-1-10 1-28 6-49 7-65 4-79 0-3-2-8-3-9-3-4-11-8-22-10-18-5-23-9-34-29-10-21-14-28-16-40-2-11-3-13-12-28-3-5-7-13-9-17-3-10-7-14-19-19-10-6-13-8-13-15-1-3-1-20-2-39-1-42 0-41-11-46s-21-7-29-7c-9 1-17 3-23 7-5 4-11 6-28 9-12 2-20 7-32 19-11 11-15 17-23 32-3 5-6 12-8 14-7 8-9 14-12 33 0 7-2 16-2 21-1 5-2 21-3 37-1 15-2 33-3 41-3 32-2 87 3 108 1 6 2 15 3 19 0 7 0 8-2 10s-4 3-11 3c-12 2-26 6-55 18-9 4-20 8-25 10-6 2-12 5-15 6-6 3-18 15-19 19 0 1-3 8-5 15-9 21-18 49-24 79-4 14-5 24-5 34 0 11 2 14 14 16 3 0 38 0 78 1h104c28 1 122 2 171 3 12 0 29 0 37-1z"/></svg>