<svg xmlns="http://www.w3.org/2000/svg" width="1344" height="566"><path d="M0 283V0h1344v566H0V283m618 277h205c112 0 120-1 122-2 2-3 0-5-13-17-32-26-36-29-47-34-9-5-28-18-31-22 0-1-4-6-9-11-9-11-11-13-15-26-2-5-6-15-9-22s-7-17-9-23c-3-11-6-17-11-27-7-10-5-12 12-15 12-2 19-4 25-9 2-1 6-3 9-5 16-6 20-12 21-29 0-11-1-17-8-40-6-22-8-28-10-40-7-27-11-41-18-62-3-6-7-18-10-26-3-9-7-18-8-22-12-27-11-26-25-40-10-11-15-14-27-18-19-7-26-8-42-9-18 0-24 1-49 9-28 11-34 14-42 25-14 17-19 34-28 85-4 22-4 23-5 59 0 20-1 37-1 39-3 6-15 31-17 34-4 5-12 17-14 22-2 4-2 5-1 11 0 8 0 8-14 27-12 17-20 29-28 44-3 5-8 14-12 20-16 28-31 70-37 103-3 14-3 17 0 20 2 1 4 2 21 2h30c6 0 49 0 95-1z"/></svg>