<svg xmlns="http://www.w3.org/2000/svg" width="1344" height="566"><path d="M0 283V0h1344v566H0V283m504 275c9 0 51-1 92-2 62 0 77 0 85 1 11 2 80 2 257 0h54c27 1 40 1 41 0 3-1 3-5 0-7-6-3-26-17-33-20-3-2-11-7-16-10s-19-10-32-16c-12-6-23-11-25-13-4-2-9-8-18-18-10-12-12-16-12-20 0-7 24-66 40-98 14-26 17-30 28-34 9-3 14-7 22-15 7-8 18-24 21-32 4-7 6-18 7-27 0-12-1-16-8-22-8-6-8-8-5-25 1-8 3-23 5-34 2-12 4-26 5-32 2-13 2-45 0-50-1-3-6-15-13-28l-11-24-9-8c-10-10-18-14-28-17-11-2-56-3-128-3-89 1-84 0-97 26-9 19-17 40-22 61-3 10-5 24-7 49-3 35-4 37-14 39-7 2-9 4-12 9-7 9-8 30-4 49 5 18 10 29 24 42 7 6 9 9 10 13 1 5 1 28-1 46-2 28-6 41-15 55-7 10-8 11-22 10-6 0-17 0-24-1-16-2-17-1-32 15-33 36-43 44-61 51-6 2-14 7-19 10-8 5-17 10-69 39-35 20-54 33-54 37s3 4 17 5c17 1 61 0 83-1z"/></svg>