<svg xmlns="http://www.w3.org/2000/svg" width="1344" height="566"><path d="M0 283V0h1344v566H0V283m344 276h46c1 0 5 0 9 1 4 0 6 0 9-1 2-2 4-2 15-1 7 1 26 1 51 1h148c2 0 33 0 68 1h78c6-1 17-1 25-1 11 0 19-1 19-3 0-1 1-22 1-31 0-6 0-8-3-13-4-10-13-16-44-30-7-3-28-13-46-22-33-17-39-21-39-25 0-1 2-7 4-13 14-35 29-80 34-102 4-18 4-29 2-50-2-26-4-48-6-64-1-7-2-17-2-21-1-10-6-36-8-47-5-21-8-29-20-48-21-35-39-51-79-70-27-12-42-15-68-10-14 3-20 5-27 9-3 1-10 3-16 4-17 3-29 9-42 22-35 34-53 91-64 200-5 44-6 73-3 100 1 17 2 25 8 51 3 19 3 23 1 27-3 4-15 10-27 13-6 2-11 3-12 3-3 0-15 6-30 15-7 4-17 10-23 12-6 3-15 8-19 10-4 3-13 8-19 12-6 3-15 9-20 13-11 7-12 10-14 24-1 5-2 14-4 19-3 10-2 13 2 16 3 1 9 1 37 0 19 0 54 0 78-1z"/></svg>