<svg xmlns="http://www.w3.org/2000/svg" width="1344" height="566"><path d="M0 283V0h1344v566H0V283m512 79c6-1 12-3 13-3s6-2 10-4l8-3 19 1c10 1 21 2 24 2s7 1 10 1c9 2 17 3 45 4 16 0 36 1 44 2 15 1 15 1 22-1 10-4 14-4 19-3 4 1 6 1 11 0 9-2 22-4 26-4 2 0 8-1 13-2 10-2 18-4 28-6 4 0 10-1 12-2 4-1 8-1 13 0 20 3 20 3 18-18-2-27-1-33 4-40 2-2 3-4 3-6 2-6 4-7 21-8 14 0 15 0 18-3l3-2-1-51c0-32 0-54-1-58-1-3-2-10-3-16-3-21-9-44-15-57-3-7-15-20-24-25-16-10-28-14-42-13s-33 7-43 12c-11 5-22 18-26 32-5 12-5 18-5 38 1 15 1 21 0 31-2 10-2 14-1 21 4 34 4 33 3 47-1 20-2 21-15 19-4-1-21-1-38-1h-32l-9 4c-5 3-12 6-17 8-7 3-11 5-14 8s-6 5-6 5c-1 0-4 1-7 2-4 3-5 3-12 2-17-3-25-1-33 6-4 2-9 5-12 7-6 3-6 3-24 4-16 0-18 0-20 2-3 3-3 3 2 7 3 2 4 4 4 6 0 4-3 17-6 23-2 4-4 9-4 12-1 3-3 9-4 13-1 6-2 9-1 10 2 2 11 1 22-3z"/></svg>