<svg xmlns="http://www.w3.org/2000/svg" width="1344" height="566"><path d="M0 283V0h1344v566H0V283m490 277c27 0 26 0 26-11 0-3 1-9 1-11 1-3 1-10 2-14 1-5 2-14 3-18 1-10 0-22-2-31-3-12-20-48-30-64-4-6-17-22-26-30-12-12-12-17 0-44 8-19 14-26 28-32 4-2 8-4 9-6 3-3 3-10 0-29-1-7-2-16-2-19 0-4-1-6-4-11-7-10-12-18-17-32-5-13-14-27-20-33-3-2-8-5-13-7-8-4-9-5-20-5-20 0-44 4-55 12-20 13-29 23-33 41-3 10-4 42-5 118-1 59-1 58 6 60 2 1 4 1 6 1 3 0 4 2 4 6 0 2-3 14-7 27-3 12-6 25-7 27 0 2-1 9-3 14-3 15-7 43-7 52s2 27 5 33c0 2 2 4 4 5 3 2 4 2 69 2 36 0 76 0 88-1m417-1c117 1 112 1 116-1 3-2 5-4 6-5 3-4 5-15 6-35 1-10 3-25 4-32 6-41 9-82 9-103 0-13 0-17-2-24-5-19-16-41-29-61-17-26-21-30-38-48-19-19-22-23-23-33 0-8-3-11-8-12-6-1-15-4-17-6-3-2-7-11-9-18-1-4-1-7 0-14 1-9 8-39 15-60 5-18 5-28 2-41-4-11-10-26-16-32-3-4-6-6-13-11-6-3-13-5-16-6s-8-2-12-3c-3 0-8-1-11-1-7 0-23 3-35 7-5 2-11 4-13 5-7 1-14 5-22 13-10 11-12 16-13 27 0 9-1 16-4 27-1 4-3 12-4 19-1 14-2 18-7 33-3 6-4 10-4 12 1 2 3 8 6 13 9 20 19 40 21 41 2 3 11 7 17 8 6 2 13 5 17 9 3 2 7 9 7 12 0 2-4 8-14 19-17 20-21 26-22 38 0 11-1 14-9 31-12 28-18 48-24 79-2 11-8 39-9 45-1 3-3 11-4 18s-3 17-4 22-3 16-4 24c-2 8-4 17-4 21-3 13-3 17-1 20 1 1 3 3 6 3 2 1 25 1 52 0h107z"/></svg>