<svg xmlns="http://www.w3.org/2000/svg" width="1344" height="566"><path d="M0 283V0h1344v566H0V283m1017 276c20-1 22-2 15-12-6-7-25-23-38-32-7-5-16-11-18-13-9-7-36-22-67-37-15-7-17-9-23-15-4-4-7-8-8-9-1-7 4-13 47-55 43-43 46-48 63-82 8-15 16-30 18-34 11-16 15-26 28-60 2-7 5-15 6-19s3-10 4-15c11-35 13-45 11-66-2-26-3-32-7-42-7-17-14-27-25-35-3-2-11-8-16-12-11-9-16-11-27-13-16-3-96-5-153-3-35 1-49 2-53 4-7 4-11 11-22 38s-17 43-19 53c-2 11-6 25-8 28s-5 5-15 7c-4 0-10 2-13 3-5 3-10 9-13 16-2 5-2 7-2 24 0 22 1 28 13 48l7 14v8c0 9-2 20-9 42-4 13-11 33-15 41-4 7-13 21-18 26-7 8-8 8-30 8-11-1-23-2-27-3-7-1-8-1-12 1-4 1-6 3-32 29-16 17-31 27-46 33-5 2-19 8-31 14s-29 14-37 17c-9 4-22 10-29 13-11 5-18 8-30 10-16 4-25 8-29 11-5 5-5 7-5 32 0 22 0 23 2 26 2 2 4 4 9 6s6 2 43 2c26 0 40 0 45-1 6-1 8-1 12 0s8 1 14 0c4 0 12-1 19 0h34c13 1 31 1 40 2 10 1 25 1 44 0h45c22 2 28 2 120 1 95-2 88-2 105 0 9 1 19 1 22 1 13-1 50 0 60 1s21 1 51-1z"/></svg>