<svg xmlns="http://www.w3.org/2000/svg" width="1344" height="566"><path d="M0 283V0h1344v566H0V283m553 278c80-2 79-2 109-1 14 1 29 1 32 1h208c47 0 80 0 84-1 3-1 10-1 15-1 12 0 19-1 21-4 2-2 2-4 2-14-1-11-3-26-5-31-2-6-24-24-48-40-29-18-52-37-56-43-1-3-1-6-1-20 0-16-1-33-3-40-1-3-3-18-5-35 0-4-2-11-3-16s-3-15-5-24-5-22-7-31c-3-14-5-22-10-48-2-14-6-25-14-41-27-54-40-70-78-94-3-2-10-5-15-7l-27-9c-14-4-18-5-25-5-12 0-27 4-50 14-6 3-16 7-21 9-17 8-36 21-41 28-1 1-1 6-2 13-1 14-3 21-11 38-11 23-14 36-13 57 0 14-1 25-5 32-1 2-3 8-5 13-2 7-3 10-3 17 0 8 0 9 4 16 4 8 10 31 15 59 3 14 4 19 8 26 1 2 2 5 1 5-1 5-40 20-65 27-8 2-13 4-19 10-6 5-9 9-10 16-1 2-6 11-10 18-8 14-12 21-15 29 0 2-2 6-3 10-6 14-8 21-11 32-9 29-10 31-6 33 3 2 23 4 30 3 2 0 30 0 63-1z"/></svg>