<svg xmlns="http://www.w3.org/2000/svg" width="1344" height="566"><path d="M0 283V0h1344v566H0V283m553 277h75c55 0 72-1 74-2 3-2 4-6 4-30 1-21 2-44 4-50 1-5 1-5 25-4 16 0 26 0 40-1 10-1 19-2 19-2 0-1 7-2 15-2 24-3 37-5 46-7 13-3 19-4 27-6 6-1 12-3 24-9 25-13 31-16 35-23 11-16 11-16 11-21-1-4-10-26-16-35-5-8-17-21-26-30-10-10-17-14-30-20-14-6-20-10-29-20s-15-14-25-15c-11-2-18-5-41-18l-9-6-8 1h-8l-13-6c-25-13-39-21-42-24-3-4-6-14-6-22 0-11-6-42-10-56-7-20-17-35-31-46-13-11-26-17-48-22-16-4-38-8-43-8-10 0-32 6-46 13-11 6-28 18-36 25-5 6-9 11-17 26-15 25-18 32-25 52-6 17-6 18-11 22-3 3-7 6-8 7-2 0-6 3-9 5-4 3-9 6-11 7-3 2-8 5-12 7-28 21-46 31-66 39-22 9-27 13-38 29-11 17-12 21-12 45 0 22 2 37 6 45 1 3 5 9 9 15 8 12 12 21 15 33 2 10 3 13 8 21 5 7 7 11 7 13 0 1 1 3 2 5 1 5 2 23 1 51l-1 18 2 3 3 2 59 1c33 0 76 0 95 1 37 1 63 0 71-1z"/></svg>