<svg xmlns="http://www.w3.org/2000/svg" width="1344" height="566"><path d="M0 283V0h1344v566H0V283m838 279c73-1 79-1 82-3s9-2 36-4c23-1 26-2 29-9 2-5 3-13 1-16-1-2-3-4-6-7-4-3-4-4-4-8s1-6 4-10c2-3 4-7 5-9 1-4 4-16 4-20 0-5-5-14-9-16-2 0-9-3-17-5-11-2-15-3-24-3-6 0-12-1-13-1-5-2-5-6-4-20 5-32 5-37 3-47-1-3-2-11-2-18 0-10 0-14-2-18-1-2-2-6-2-8-1-6-12-28-17-32-1-2-5-7-7-10-2-4-6-8-7-9-5-2-13-4-19-3-5 0-6 0-17-7-12-6-13-7-14-11-3-8 2-14 13-18 6-2 11-6 11-10 1-4 2-10 3-28 2-17 1-28-1-35 0-1-1-6-2-10-2-15-5-26-10-35-1-4-6-14-6-18-2-4-7-10-12-13-3-2-10-4-17-6-22-5-51-3-66 5-10 5-20 18-26 33-8 23-9 53-1 68 3 5 3 9 0 13-8 10-11 15-16 23-4 8-5 10-5 14 0 6 3 12 7 15 2 2 3 2 17 2 20-1 22 0 16 16-1 4-4 12-6 18-6 12-6 17-3 54 2 30 2 36-2 70-2 15-3 41-2 50 4 32 4 40-2 63-2 7-3 14-3 15 0 4 3 6 9 7 10 2 9 2 104 1z"/></svg>