<svg xmlns="http://www.w3.org/2000/svg" width="1344" height="566"><path d="M0 283V0h1344v566H0V283m668 279c22-2 53-3 68-2 9 1 47 1 107 1 98 1 95 1 95-4 0-4-8-12-16-16-11-6-33-14-49-18-5-1-17-4-26-7-10-2-21-6-25-7-10-5-21-17-24-27-1-4-1-5 7-20 4-9 9-20 11-24 2-5 5-12 8-17 6-12 15-34 17-42 5-19 7-50 7-100 1-42-1-55-9-79-13-36-32-64-53-81-25-19-42-26-76-33-14-2-18-2-38-2-23-1-27 0-48 7-19 6-42 21-58 37-9 10-12 14-18 26-10 18-14 34-16 57-2 26-4 41-7 54-5 19-6 29-4 42 1 9 2 12 5 18 6 11 6 14 2 29l-2 11 1 8c2 4 3 10 5 13 1 3 3 11 4 16 0 5 2 12 3 16 1 3 3 9 3 14 1 4 3 11 4 14 0 4 1 9 1 11-2 9-14 26-22 30-6 3-18 7-42 12-28 7-33 9-51 15-38 14-64 26-70 32-4 5-5 10-1 12s62 3 82 2c30-2 142 0 181 3 11 1 30 0 44-1z"/></svg>