<svg xmlns="http://www.w3.org/2000/svg" width="1344" height="566"><path d="M0 283V0h1344v566H0V283m847 277c14-1 38-1 53-2 32-1 188-1 330 0h104l2-2c3-3 3-3 3-13-1-8-1-10-4-17-5-10-9-17-18-28-7-9-34-41-43-51-3-3-9-11-13-17-9-12-24-31-32-38s-16-13-35-22c-18-10-33-15-58-23-29-8-51-16-65-22-8-3-19-6-26-8-13-3-14-4-16-8s-2-6 0-16c3-15 6-29 6-35 0-5-2-13-6-20-3-5-3-6-3-15 0-5 0-11-1-13s-2-9-3-15c-5-25-23-73-40-104-9-15-31-42-40-49-3-2-8-5-11-7s-7-5-10-7-6-3-10-4c-4 0-10-1-15-3-10-2-27-5-38-5-9 0-28 3-41 6-3 1-13 3-23 4-19 3-25 5-38 11-9 4-18 12-24 21-3 3-8 10-13 15-13 15-15 18-19 27-5 10-10 24-12 38-2 9-2 13-2 33 1 23 4 46 8 63 2 11 11 30 20 45 4 6 8 18 12 34 1 6 4 13 10 25l8 16 1 11c1 10 1 12-1 15-2 5-9 12-16 17-26 18-40 31-46 44-3 7-3 8-3 17 0 7 0 13 2 22 2 7 3 13 3 15 0 1 1 5 3 8 1 4 2 7 2 13 0 8 0 8 10 27 1 2 2 5 2 7s1 5 2 6c2 2 3 3 19 4 22 1 92 1 125 0z"/></svg>