<svg xmlns="http://www.w3.org/2000/svg" width="1344" height="566"><path d="M0 283V0h1344v566H0V283m764 278c5-1 11-1 19 0 7 1 35 1 70 0h110c98 1 118 1 122-1 6-2 6-6 4-19-2-12-10-46-19-76 0-2-2-11-4-18-1-7-3-15-4-17 0-2-2-9-4-14-9-33-20-53-31-61-13-8-72-32-93-36-14-4-24-8-34-16-9-8-53-51-54-55-2-3-2-5-2-24 0-10 1-21 1-23 1-2 3-7 6-11 9-14 12-22 13-37 0-12-1-20-7-38-2-6-5-17-7-24-8-31-17-51-28-69-7-10-10-13-17-16-5-2-6-2-73-3-37 0-78 1-91 1-25 1-28 1-33 7-4 3-13 17-17 24-4 8-11 28-12 38-1 9-1 13 3 50 1 5 3 18 6 29s6 27 8 35c4 20 9 33 18 50 4 8 9 21 12 29 8 21 10 23 18 38 4 7 7 14 7 15 0 4-4 10-10 15-4 3-16 10-33 20-5 2-13 7-20 11-6 4-14 9-18 11-10 6-10 5-6 18 2 7 3 14 3 17 0 7-3 19-7 32-5 16-6 20-9 36-3 19-6 25-17 39-12 13-20 25-20 27 0 3 2 6 5 8 3 1 8 1 25 2 12 1 26 1 30 2 14 2 72 4 88 3 9 0 16 0 22 1 7 2 15 2 40 1 17 0 35 0 40-1z"/></svg>