<svg xmlns="http://www.w3.org/2000/svg" width="1344" height="566"><path d="M0 283V0h1344v566H0V283m576 276c18 0 54-1 81-1 54-2 126-2 178 0 87 3 236 3 240 1 1-1 2-2 2-5 0-7-2-11-21-35-17-22-19-23-54-51-8-6-18-15-22-19-10-8-20-18-26-22-2-2-8-6-12-9-4-4-11-9-15-13-5-3-11-8-15-11-13-10-15-10-34-11-14-1-17-1-23-3-17-7-25-17-29-38-5-21 1-46 13-63 14-20 21-34 25-50 1-8 1-15-1-24-1-6-1-9 0-18 5-46 2-67-14-90-5-9-14-17-27-25-13-9-20-12-31-16-15-5-30-7-50-7-38 0-52 4-75 22-5 4-12 9-14 12-18 21-22 32-24 61-1 9-2 25-3 34-2 10-3 22-3 26 0 3-1 13-2 22-3 18-4 24-1 38 4 29 12 57 23 80 5 11 9 16 20 23 14 9 17 15 11 21-3 3-23 15-41 25-10 6-21 12-37 24-6 4-9 6-30 24-24 20-45 46-60 76-7 13-8 17-5 20 2 3 9 4 28 3 8 0 29 0 48-1z"/></svg>