<svg xmlns="http://www.w3.org/2000/svg" width="1344" height="566"><path d="M0 283V0h1344v566H0V283m717 278c137 0 151 0 159-2 5 0 10-2 11-3 4-1 8-6 9-10 6-14 0-75-9-92-1-3-6-9-11-14-7-8-13-12-27-21-22-14-34-22-46-30-14-7-16-9-21-19-2-4-7-11-9-15-8-12-13-24-13-28 0-5 6-23 14-44 2-7 6-17 8-23s5-14 7-17l3-7 1-33c2-52 2-62-5-87-5-22-15-42-25-55-10-12-29-25-48-33-11-6-19-7-35-5-8 1-18 1-25 1-19-2-33 1-48 8-24 13-49 45-55 74-4 14-4 23-1 50 3 24 4 30 1 36 0 3-1 10-2 15-1 18 4 32 17 44 6 6 8 7 16 10 6 2 10 4 12 6 3 4 6 11 7 19 0 5 0 7-3 13-3 5-6 9-16 19-27 26-36 31-86 45-40 11-45 13-55 16-12 4-13 5-19 11-9 10-15 22-34 66-20 45-22 50-26 60-2 5-6 15-9 21-8 18-7 22 5 23 3 1 31 1 63 1 31 0 71 0 88 1 18 0 38 1 44 0 7 0 80 0 163-1z"/></svg>