<svg xmlns="http://www.w3.org/2000/svg" width="1344" height="566"><path d="M0 283V0h1344v566H0V283m613 277c35-1 68-2 75-2 15-2 153-2 164 0 11 1 87 2 175 2 65 0 71 0 73-2 1-1 2-2 2-4 0-3-8-15-16-24-3-4-9-11-14-16-8-11-12-16-32-31-7-6-18-16-24-22-18-17-35-32-41-37-3-2-13-9-21-16-22-18-29-21-50-23-11 0-21-2-24-4-2 0-5-3-9-6-7-6-12-14-15-26-2-9-2-29 0-39 4-14 6-18 18-31 19-22 26-45 21-64-1-8-1-20 2-39 2-15 1-38-2-50-2-9-8-21-14-30-11-16-39-34-63-40-26-8-59-8-84-1-14 4-29 11-37 16-19 12-29 25-35 44-3 8-3 12-5 29 0 11-2 23-2 28-2 10-6 33-6 41-1 3-2 9-3 13-3 14-2 37 1 54 6 27 14 57 22 74 3 6 10 14 19 20 4 3 7 6 7 7 2 3-2 5-14 12-7 4-16 9-20 12-4 2-12 6-16 9-24 12-70 47-86 64-6 7-23 29-30 40-9 13-17 32-16 37 2 5 5 5 18 6 8 0 15 1 16 0 2 0 32 0 66-1m-487-1c36-1 42-2 59-6 25-7 27-8 36-16 7-7 14-18 23-34 5-10 6-12 5-14-1 0-2-1-4 0-3 0-6-3-6-7 1-2 4-11 8-20 10-20 15-39 15-54v-8l5-10c5-10 6-12 4-15 0-1-7-5-15-9-17-9-26-14-34-21-4-3-9-6-12-8-9-4-13-9-16-19-2-4-3-11-4-16-2-11-1-36 2-44 3-12 15-34 24-45 2-3 12-13 21-22 20-20 23-25 22-34-2-10-4-12-13-7-9 6-20 11-24 12-3 0-7-1-18-4-8-3-16-5-19-6-2-1-5-2-7-4s-2-3-2-13c0-11-3-34-6-49-3-16-11-29-27-45-10-9-16-13-28-19-11-5-15-6-41-7-22 0-23 0-33 3-8 2-12 2-19 2s-8 0-11 2c-5 3-8 10-8 16 0 3 0 5-1 6-1 0-1 494 0 494 1 1 1 3 1 6 0 6 2 11 4 13 0 1 2 2 4 2 4 1 67 1 115 0z"/></svg>