<svg xmlns="http://www.w3.org/2000/svg" width="1344" height="566"><path d="M0 283V0h1344v566H0V283m798 275c16 0 19-1 23-6s9-19 12-30c4-18 5-20 8-21 2 0 5 2 13 9 5 5 13 12 16 14 4 3 9 6 10 7 5 5 19 14 26 18 14 6 19 7 47 8 13 0 40 0 58 1 42 2 125 1 129-1s4-5-2-11c-3-4-7-6-12-9-14-6-16-7-20-12-5-5-9-12-13-22-1-4-4-11-6-15-8-15-23-26-49-34-19-7-33-15-48-29-8-7-14-11-22-15-21-10-22-11-44-32-11-11-21-22-22-24s-2-7-3-12-4-13-8-21c-15-32-16-39-7-70 4-13 6-26 5-36 0-4 0-14-1-23-1-14-2-26-5-47-4-30-16-50-34-60-12-6-34-13-44-14-11-1-29 0-37 2-3 1-11 3-18 5-16 4-25 8-33 16-11 11-12 12-30 58-16 42-34 67-65 88-6 5-15 11-18 15-10 10-10 14-2 22 3 3 5 6 6 8 0 1 1 6 1 11s1 13 1 18c1 5 2 13 2 19 0 10 0 11-3 15-3 6-14 19-53 68-18 22-34 43-36 46-6 10-15 41-21 72-4 22-3 25 12 25 18 1 274 0 287-1z"/></svg>