<svg xmlns="http://www.w3.org/2000/svg" width="1344" height="566"><path d="M0 283V0h1344v566H0V283m293 276c2-1 5-1 8 0 4 1 74 1 194 2 173 0 190 0 200-1 14-3 24-6 26-11 3-4 3-21 1-31-1-4-2-11-2-15 0-11-1-17-7-31-2-6-5-14-7-18-1-3-3-9-5-12-3-6-3-7-3-17 0-15 2-13-40-30-12-5-34-14-50-20-34-14-41-18-44-22-4-7-1-34 7-59 1-3 4-12 6-20 3-12 3-15 3-26 0-13-1-19-8-56-5-20-14-51-23-72-16-42-23-50-51-71-18-14-21-16-30-20-19-8-37-11-60-9-7 1-15 3-18 4s-12 6-19 10c-8 5-18 11-21 13-12 6-23 19-31 33-18 33-26 92-29 204-1 39 0 51 4 69 4 16 5 23 3 26-1 2-21 12-23 12-3 0-14 7-30 18-20 14-25 18-38 25-11 5-14 8-16 11-1 1-2 8-3 14 0 6-2 17-4 23-4 14-11 44-13 54-1 3-1 9-1 13 0 5 0 7 2 9l2 3h59c40-1 59-1 61-2z"/></svg>