<svg xmlns="http://www.w3.org/2000/svg" width="1344" height="566"><path d="M0 283V0h1344v566H0V283m776 276h16c8 1 19 1 24 1h143c73 0 134-1 137-1 5-2 8-4 8-10s-2-15-7-25c-13-29-19-45-22-61 0-4-3-12-5-18-1-6-4-14-5-18-2-8-9-27-12-33-3-7-11-14-19-18-6-4-20-8-40-15-5-1-16-4-23-7s-20-6-27-9c-27-7-36-13-70-45-7-7-16-14-20-17-12-9-15-14-21-35s-7-38-3-53c2-6 3-7 10-14 6-6 8-8 11-14 6-13 6-30 0-50-1-5-5-16-7-24-7-24-15-43-25-58-3-4-9-11-15-17-7-7-10-10-13-11-10-2-31-3-95-3-63 1-65 1-72 3-5 1-11 3-14 5-10 4-20 17-25 30-6 16-10 48-8 68 2 24 4 34 13 59 6 20 11 31 22 53 12 22 14 25 26 32 5 4 13 10 16 13 4 3 10 9 15 12 14 11 17 15 15 21-1 9-8 19-26 37-17 18-21 22-30 28-7 5-35 19-55 28-23 10-45 24-51 31-9 11-16 26-19 45-1 11-3 46-3 57 0 17 3 26 8 30 4 3 17 4 100 4 41 0 76 0 76 1 1 1 89-1 92-2z"/></svg>