<svg xmlns="http://www.w3.org/2000/svg" width="1344" height="566"><path d="M0 283V0h1344v566H0V283m1074 276c3-2 3-3 3-6 0-4-3-9-15-25-17-23-21-27-30-33-13-10-31-25-44-37-12-12-33-31-35-31 0 0-4-3-8-7-12-11-34-26-41-30-7-3-9-3-23-4-25-1-35-6-44-20-1-2-3-9-5-15-3-13-3-27-1-39 2-8 4-12 26-52 10-17 11-21 10-44 0-12 1-23 2-32 1-8 1-21 1-30 0-13 0-16-3-26-4-16-11-29-18-37-11-12-28-24-42-30-15-6-38-11-65-13-18-1-31 0-44 5-16 7-22 11-39 28-8 8-17 18-19 21-2 4-5 8-7 9-5 7-19 39-24 57-2 6-5 13-7 17-8 16-12 32-10 41 0 2 1 9 2 16 1 10 2 15 4 20 1 4 5 13 7 21 3 7 8 17 10 21 12 20 17 29 20 37 9 19 12 23 31 32 7 3 12 7 13 8 3 5-7 11-50 35-19 10-36 21-53 36-30 23-38 31-53 54-13 20-14 21-18 32-7 14-6 20 1 21 2 1 146-1 183-2 36-1 121 0 133 1 8 0 38 1 68 2 30 0 55 0 55 1h63c54-1 63-1 66-2z"/></svg>