<svg xmlns="http://www.w3.org/2000/svg" width="1344" height="566"><path d="M0 283V0h1344v566H0V283m591 277c41-1 56-1 69 0 12 1 27 1 48 1 20-1 40-1 54 0 23 1 82 0 134-2 15-1 34-1 42-1 29 0 80 1 114 1 19 1 36 1 38 1 3-1 5-2 7-4 7-7-4-24-31-44-19-14-23-17-56-34-7-3-15-8-18-9-4-2-9-5-12-6s-9-3-14-5c-11-4-21-12-34-25-11-13-12-14-12-20 0-5 5-25 10-41 1-7 5-19 8-29 7-22 13-40 16-48 4-7 10-13 17-16 12-4 18-9 29-23 7-10 11-20 15-34 2-10 3-14 3-20-1-9-2-11-10-16-4-1-7-4-8-5-2-2-2-2-1-11 5-27 8-45 10-60 0-9 1-17 2-17V77c0-25-6-54-13-63-7-10-20-11-145-10-102 0-123 1-129 6-6 4-14 24-19 47-3 10-5 22-8 47-2 26-6 35-17 49-5 6-7 11-8 22-2 15 3 37 11 54 3 5 7 11 13 17 10 12 11 15 13 26 5 22 5 52 1 70-2 9-10 27-14 33-6 6-6 6-32 5-21-1-25-1-26 0-4 3-13 13-23 28-5 7-13 17-18 22-8 8-10 9-20 14-6 4-16 8-21 11-11 7-46 27-59 34-31 17-51 33-68 55-11 15-9 16 24 17 24 1 56 1 138-1z"/></svg>