<svg xmlns="http://www.w3.org/2000/svg" width="1344" height="566"><path d="M0 283V0h1344v566H0V283m410 277c4-2 6-3 15-3 6 0 17 0 24 1 8 1 35 1 62 2 27 0 54 0 60 1 13 1 40 1 48 0 5-1 6-1 9-5 2-2 6-7 8-9 5-5 5-5 12-6 5-1 11-2 18-5 18-7 23-13 26-35 1-5 1-9 0-15-1-5-1-18-1-30 0-21 0-23-2-30-3-10-3-23-1-42 4-22 1-62-3-71-3-5-16-16-31-27-5-3-11-7-14-10-2-2-6-4-7-5-3-2-6-7-6-10 0 0 1-4 3-7 1-4 4-10 6-13 3-7 6-10 14-11 4-1 8-4 10-7 0-1 2-13 3-27 2-25 2-27 1-34-1-5-2-15-3-24-2-30-6-42-15-51-6-6-13-10-29-16s-27-8-41-7c-12 1-24 4-32 8s-20 15-24 24c-5 9-10 29-11 43-1 8-4 32-7 51-1 7-2 17-3 21-2 16-8 20-30 22-11 1-13 1-21 5-4 2-10 4-13 6-7 3-13 9-16 15-2 5-13 14-17 14-2 0-3 1-5 6-1 5-3 6-7 3-2-1-3-2-4-2 0 0-3 2-5 4-3 3-11 9-18 15-14 10-26 20-41 34-9 9-13 16-19 33-2 5-5 13-8 17-10 20-11 23-11 29 0 10 9 36 14 42 3 3 13 11 23 17 10 7 12 10 17 24 2 7 7 19 10 25 3 7 6 14 7 16 2 8 10 22 12 23s8 2 19 2c9 0 17 1 18 1s4-1 6-2z"/></svg>