<svg xmlns="http://www.w3.org/2000/svg" width="1344" height="566"><path d="M0 283V0h1344v566H0V283m1075 277c1-1 3-5 4-10 3-12 3-26 0-40-3-17-4-22-4-25s4-6 10-7c11-1 18-7 21-17 1-4 1-6 0-14-1-5-2-11-3-14-2-3-5-11-7-18-7-20-12-29-21-47-7-15-9-19-11-28-4-21-5-22-19-30-15-9-25-17-30-25-8-12-16-40-18-61-6-58-16-79-42-89-6-2-10-2-21-3-22-1-34 4-49 18-9 10-14 18-15 28 0 8 1 35 3 43 1 4 3 14 3 23l2 17-5 12-4 13-1 19-1 19-3 6c-2 3-4 6-4 7s1 5 2 9c2 3 4 14 5 22 2 17 6 28 12 44 7 16 9 21 12 38 4 18 7 31 12 45 2 8 2 10 2 23 0 11 0 17-1 23-2 10-2 14 2 16 1 0 10 1 22 1 10 1 25 1 32 2 8 0 36 1 64 1 40 0 50 0 51-1z"/></svg>