<svg xmlns="http://www.w3.org/2000/svg" width="1344" height="566"><path d="M0 283V0h1344v566H0V283m877 87c1-1 2-3 3-4 1-2 5-6 9-10s7-9 8-11c1-4 3-21 5-42 2-15 0-20-7-29-14-16-15-20-16-46 0-27-3-49-8-58-3-7-7-11-19-18-4-2-5-2-19-2s-15 0-20 2c-6 3-11 11-15 21-2 6-2 8-2 22 0 8 0 16-1 17s-5 4-11 7c-5 2-10 5-11 7s-1 5-2 14c0 12-2 18-5 22-1 1-4 5-6 10-4 9-4 9-18 19-4 3-9 7-9 8-1 2-3 7-4 12-1 8-1 11 0 18 2 14 4 15 23 17 7 1 15 2 20 4s13 4 17 4c19 4 32 7 33 7 0 1 3 1 7 2 5 1 16 3 33 7 6 1 13 1 15 0z"/></svg>