<svg xmlns="http://www.w3.org/2000/svg" width="1344" height="566"><path d="M0 283V0h1344v566H0V283m306 276c15-1 13-1 33 0 21 1 194 1 212 0 9-1 21-1 35 0 12 1 53 1 91 1 77 1 73 1 74-7 0-5-4-31-7-45-6-23-12-38-22-57l-9-19v-8c1-5 0-9 0-11-2-3-8-6-23-11-5-2-12-5-14-6-3-1-10-4-16-6-46-16-58-21-61-26-2-4 0-19 6-42 1-5 3-12 3-16 1-3 2-8 3-11 5-18 6-38 2-71-8-75-15-110-23-129-15-33-62-66-103-71-9-1-29 0-37 3-3 1-10 3-16 5-20 6-32 13-47 27-8 9-10 11-14 20-10 19-16 40-21 67-7 39-11 73-13 102-1 11-3 30-4 42-1 25-1 59 1 68 1 2 2 7 2 10 1 4 1 5-1 8-4 4-14 9-23 11-6 1-10 2-22 7-3 1-11 5-16 9-26 18-36 24-47 30-12 7-21 14-21 18-1 2-1 5-2 9 0 4-3 13-6 21-5 13-9 29-12 45-1 3-2 8-2 11-2 10-1 17 1 20s2 3 18 3c31 1 88 0 101-1z"/></svg>