<svg xmlns="http://www.w3.org/2000/svg" width="1344" height="566"><path d="M0 283V0h1344v566H0V283m465 276c16-1 69-1 117-2h94c5 0 18 0 30 1 16 1 46 1 120 0h137c21 0 62 1 90 1 46 0 52 0 53-2 3-2 2-6-2-13-8-11-22-23-46-37-6-4-49-25-68-34-10-4-20-9-36-16-11-4-25-15-29-23-2-4-2-5-1-10 1-3 2-9 4-13s4-9 5-11c2-7 12-34 17-46 12-27 17-33 30-37 19-6 37-25 49-51 4-9 5-12 6-19 0-10-1-12-8-20l-6-5v-6c1-4 2-11 4-16 21-62 27-104 20-132-9-34-20-55-31-59-9-4-27-5-106-5-95-1-127 0-136 3-4 1-8 3-9 4-3 4-14 24-19 35-6 15-11 32-16 52-6 31-8 41-10 44-1 4-5 5-11 6-10 2-16 8-20 21-2 8-1 34 1 45 3 11 10 25 18 33 10 11 10 14 9 34-1 7-1 20-2 29-2 27-7 44-18 61-3 6-6 9-10 11-5 4-9 4-39 2-16-1-18-1-21 1-6 2-13 9-26 23-17 19-29 28-47 36-4 1-10 4-14 6-21 9-36 15-52 21-22 8-32 13-45 19-24 13-30 18-43 31-8 9-18 22-22 30-1 3-1 6 2 7 4 2 49 2 87 1z"/></svg>