<svg xmlns="http://www.w3.org/2000/svg" width="1344" height="566"><path d="M0 283V0h1344v566H0V283m1014 279c8 0 33 0 56-1 45 0 45 0 45-5 0-4-3-12-8-24-3-5-6-15-8-22-5-15-8-22-15-33-7-9-10-14-11-20 0-2-1-5-2-6-2-4-14-10-51-24-26-10-45-18-50-21-9-6-10-9-4-24 21-53 20-50 21-87 0-32 0-41-6-95-3-38-6-55-14-82-5-23-10-36-18-48-13-22-23-32-48-50-18-13-20-14-75-15-28 0-34 0-41 1-22 5-49 24-65 47-14 19-25 50-38 105-7 28-13 84-16 139-1 11-2 26-3 33s-3 18-4 24c-2 14-3 17-6 22-8 8-20 15-36 18-5 1-11 5-24 12-9 5-20 11-23 13l-18 9c-10 6-27 13-41 18-4 1-8 3-9 4-6 4-7 16-2 28 4 9 4 12-3 32-10 30-12 42-8 48l3 2 18 1h62c46-1 46-1 59-1 8 1 236 3 259 2h28c14-1 22-1 33 0 10 1 20 2 31 1 10 0 24 0 32-1z"/></svg>