<svg xmlns="http://www.w3.org/2000/svg" width="1344" height="566"><path d="M0 283V0h1344v566H0V283m976 278c16-1 45-1 64-1 38-1 37-1 43-6 4-2 5-2 23 0 5 0 6 0 8-2 3-2 3-3 3-6-1-4-14-15-24-22-10-6-11-8-9-11 1-1 3-1 12-1 9 1 11 1 12-1 4-3-1-12-15-26-10-11-11-12-24-19-16-8-37-17-42-19-5 0-17 3-55 16-30 10-44 16-64 28-7 3-17 9-24 13l-12 6-21 21c-12 13-20 22-20 23 0 5 9 7 26 5 11-1 14-1 21 0s30 2 59 3c6 0 24 0 39-1m-424-2c3-1 9-1 12-1 3 1 22 1 42 2 48 0 47 0 48-13 1-8 1-9-3-15-1-3-3-8-4-10-1-3-2-7-4-9s-3-5-3-6c0-3-4-7-8-9-3-1-5-3-6-7-2-2-5-8-8-11-3-4-8-11-12-17-5-5-10-11-12-13s-10-6-16-9c-7-3-14-6-16-8-3-1-11-6-19-11-21-12-23-13-24-16s-1-4 1-7c1-2 4-7 6-11 2-3 5-8 6-11 2-2 7-11 11-19 8-17 11-20 18-20 8 0 23-3 28-6 12-6 16-12 17-28 0-7 2-14 2-17 2-3 2-7 2-14 0-8 0-12 2-17 1-4 2-10 2-14 1-6 2-9 5-14 5-9 4-13-5-34-5-8-8-17-8-18s-1-4-2-6c-1-4-1-9-2-40 0-39 0-46-6-62-8-21-16-30-33-37-2 0-10-4-19-8-19-9-31-13-44-16-7-2-13-2-36-3-43 0-61 1-73 7-2 2-9 5-15 8-8 4-12 7-17 12-30 30-39 57-51 147-1 9-3 20-4 25-1 11-5 37-6 50-3 28-4 40-4 51-2 20-8 81-11 99-1 9-1 10 0 14 3 6 11 8 21 5 7-1 10-1 11 1 2 2 1 5-9 25-4 9-9 22-12 30-7 16-19 42-25 53-6 10-7 15-5 19 3 6 9 7 38 10 12 1 242 0 250-1z"/></svg>