<svg xmlns="http://www.w3.org/2000/svg" width="1344" height="566"><path d="M0 283V0h1344v566H0V283m884 278c34-1 62-1 62-2 0 0 33 1 72 1 71 1 88 1 110-2 8-1 12-4 12-8s-9-19-16-27c-3-4-11-13-17-20-14-15-25-25-43-38-29-21-50-39-59-51-3-4-9-14-13-24-5-9-11-19-13-23-2-3-6-10-8-14-3-5-8-13-11-19s-9-15-12-21c-10-16-16-28-16-31 0-5 3-10 12-16 12-9 16-14 21-30 6-17 9-68 6-92-5-45-17-73-39-95-8-8-14-13-21-17-6-4-13-9-17-12-14-9-24-11-54-11-11 0-23 1-25 1-2 1-10 1-16 2-12 1-22 3-31 6-4 1-12 3-18 4-29 7-57 27-69 51-9 19-11 33-11 77-1 33 0 38 6 60 0 3 2 11 3 17 6 35 10 47 18 69 2 4 5 13 8 21 22 55 25 60 47 68 4 1 9 3 12 4 2 0 4 1 4 3s-3 4-13 9c-4 2-9 5-10 7-1 1-6 4-11 6-13 7-33 20-43 30-8 7-12 12-15 20s-7 25-7 29c0 2-1 6-3 9-3 6-3 7-3 15 1 5 1 16 2 24 0 20-1 19 22 20 19 1 111 0 197 0z"/></svg>