<svg xmlns="http://www.w3.org/2000/svg" width="1344" height="566"><path d="M0 283V0h1344v566H0V283m886 275c5-2 6-5 9-16 2-6 2-11 2-29 0-12 0-23 1-25 1-5 1-12-1-29-2-16-7-43-8-44 0-1 0-5-1-11-1-14-4-27-7-38-2-6-4-14-5-18 0-4-2-10-3-13-3-7-4-13-8-35-5-23-14-43-30-62-8-11-12-14-24-20-9-4-17-10-20-15-1-3-1-6-1-14 1-7 1-13 2-14 2-5 5-27 5-36 0-17-5-29-17-40-12-13-24-18-44-17-12 0-13 0-19 3-4 1-9 3-11 4-9 2-16 7-28 20s-16 21-19 36c-2 10-1 18 3 22 4 5 5 7 7 21 2 16 1 20-5 27-7 9-10 13-14 26-4 10-9 20-19 40-3 4-7 11-8 14-8 18-28 39-57 63-22 17-29 22-39 26-7 3-10 3-17 3-5 0-11 0-14-1-4 0-16-2-28-2-18-2-24-2-28-1-10 2-10 3-10 17 0 13-1 15-7 18-4 2-6 6-6 10s5 12 10 18c5 5 10 6 23 3 4 0 12-2 16-2 4-1 11-2 15-4 4-1 10-2 13-3 15-2 24-4 32-7 12-5 35-11 38-11 2 0 3 2 5 6 2 3 6 8 9 11s7 8 9 10c2 5 2 6 3 16v17c0 5 1 8 3 12 2 5 3 6 6 6 2 0 4-1 10-6 14-12 14-12 29-9 11 2 12 2 10 10s-2 27-1 29c3 5 24 26 27 28 3 1 9 2 14 3 4 0 12 1 16 2 5 0 28 1 54 0 24 0 52 0 62 1 30 1 63 1 66 0z"/></svg>