<svg xmlns="http://www.w3.org/2000/svg" width="1344" height="566"><path d="M0 283V0h1344v566H0V283m550 278c4-1 11-1 15-2 5-1 11-1 18 0 15 1 121 0 123-1 5-2 5-3 6-27 1-13 1-32 2-42 1-24 0-22 19-21 21 1 53-1 89-6 6 0 14-1 18-2 4 0 10-1 14-2 4 0 8-1 9-2 3 0 16-4 20-6 2 0 5-1 7-2 4-1 11-3 23-8 3-1 10-5 16-8 11-5 18-11 25-22 2-2 5-6 6-8 4-5 4-12-2-18 0-1-2-4-3-8-2-5-5-8-9-13-4-4-9-9-11-12-6-8-18-21-26-27-7-5-23-14-32-17-3-1-8-5-17-13-7-7-15-14-17-15s-9-3-15-4c-11-2-21-6-36-16-8-6-9-6-20-6-8 0-9-1-20-6-6-3-18-9-28-15-14-8-17-10-18-12s-2-9-2-16c-1-19-8-51-15-69-9-23-33-46-58-54-31-11-59-14-77-10-15 3-40 14-53 24-14 11-17 14-32 43-15 28-20 38-23 48-2 8-6 13-12 18-7 6-26 17-32 21-4 1-15 8-24 14-21 14-32 20-44 25-19 6-22 7-26 10-8 5-13 9-21 21-12 18-13 21-12 46 0 22 1 32 5 42 2 4 20 29 23 32 1 1 2 3 3 4 1 2 2 6 4 9 4 10 10 24 11 26 0 1 2 6 4 11 4 8 4 10 5 23 1 10 1 18 0 31 0 10-1 22-1 27 0 15-11 13 91 14 48 0 91 0 95 1 4 0 12 1 18 0h17z"/></svg>