<svg xmlns="http://www.w3.org/2000/svg" width="1344" height="566"><path d="M0 283V0h1344v566H0V283m1078 277c19-1 20-1 15-16-3-9-9-19-19-31-5-5-11-13-16-18-8-11-16-18-43-40-5-4-16-14-23-21-15-14-24-21-51-41-26-19-29-21-47-22-14-1-24-3-29-6-3-1-10-8-14-15-10-13-12-35-7-59 2-11 6-18 12-26 14-18 25-39 27-55 0-4 0-9-2-17s-2-13-2-17c1-3 2-11 3-18 2-16 1-37-2-47-2-9-9-23-14-31-5-6-15-15-23-20-5-4-21-12-30-16-18-7-34-10-59-9-27 1-43 5-58 14-27 16-43 38-47 64-1 5-3 17-4 29 0 10-1 20-2 20 0 1 0 10-1 22-1 15-2 24-3 31-3 13-3 35-1 45 1 3 2 8 2 10 2 15 8 33 16 51 7 17 12 24 23 30 10 5 14 10 14 15 0 3-5 8-12 12-4 2-9 5-12 7-3 1-11 6-18 9-22 11-37 21-65 44-27 21-39 34-61 65-7 9-13 22-17 33-4 13-4 18 0 22l2 2h52c68-1 86-2 137-3 30-1 55-1 87 0 24 0 62 1 84 1 113 2 182 3 182 4h7c4-1 12-1 19-2z"/></svg>