<svg xmlns="http://www.w3.org/2000/svg" width="1344" height="566"><path d="M0 283V0h1344v566H0V283m770 279c7-1 46-1 86-1 40-1 74-1 76-1s11 0 21 1c18 1 92 1 125-1 14 0 15-1 17-3l2-2-5-16c-5-15-9-25-17-39-2-2-4-8-6-13-2-8-2-10-2-23 0-14 0-17 3-30 2-8 5-20 7-27 7-22 12-42 13-54s1-12-1-15c-3-4-6-4-12 2-3 3-6 5-6 5-3-1-7-12-8-20-1-11-4-16-10-16-2 0-7 5-10 11-2 5-6 8-8 6 0 0-2-3-4-7-2-6-7-11-10-11s-8 4-11 9c-5 9-7 10-12 10s-9 2-13 7c-3 4-5 6-10 20-2 6-5 6-12 0-4-4-9-7-17-10-61-26-71-31-73-34-2-4-2-11 0-24 4-18 5-33 5-60 0-24 0-28-2-36-3-13-5-19-11-31-8-15-13-21-30-32-7-5-21-12-30-17-20-10-28-12-53-12-16 0-17 0-24 3-20 8-46 26-58 41-11 14-14 22-20 48-1 6-5 17-8 26l-5 16v56l1 11-3 3c-1 1-7 4-12 6-4 2-10 4-12 5-2 0-9 3-15 5-23 6-46 14-50 16-3 1-7 4-10 6-9 5-12 3-14-10-2-24-5-27-16-16-3 3-6 5-7 5-2 0-5-4-9-14-4-11-7-15-12-15-3 0-6 3-8 8-2 3-7 9-9 9 0 0-2-1-5-3-4-4-7-5-11-3s-5 5-6 17c-2 17-6 22-12 18-4-2-12-3-14-2-3 2-5 6-5 11 0 8 4 29 8 39 1 4 3 9 4 12 1 4 6 17 10 30 15 45 15 45 12 60-3 14-13 37-20 48-11 16-12 20-7 24s26 5 39 3c8-2 23-2 117-2 77 0 109 0 111 1s7 2 11 2c12 1 62 1 77 0z"/></svg>