<svg xmlns="http://www.w3.org/2000/svg" width="1344" height="566"><path d="M0 283V0h1344v566H0V283m279 278c29-2 123-2 156-1 29 2 51 1 66-1 4-1 8-1 9 0 1 0 50 0 109 1 60 0 127 0 150 1 64 2 74 2 77 0 3-1 5-6 5-10s-6-16-14-28c-12-17-20-23-37-30-30-12-59-22-84-27-15-3-22-7-31-17s-12-14-13-18c0-4 0-5 5-12 3-4 7-10 8-12 1-3 6-11 9-17 4-7 9-19 12-27s7-17 9-19c1-3 4-11 6-18 2-6 5-15 7-18 3-11 9-33 10-41 3-22 3-24 6-67 1-19 1-48 0-59-7-40-29-87-50-107-7-6-27-20-33-23s-7-4-19-5c-13-2-142-3-151-1-10 1-18 5-30 15-20 16-32 32-42 57-6 16-9 29-12 55-1 16-4 31-7 38-1 3-4 11-6 19-3 12-3 15-3 28 0 15 0 15 3 26l4 12-2 11c-3 11-3 13-3 27l1 16 8 16c13 27 22 51 22 60 0 4 0 5-14 23-10 14-24 30-29 33-7 4-31 14-42 17-6 1-16 3-21 5-45 11-102 33-115 43-10 9-21 29-21 39 0 11 5 15 17 17 8 1 54 1 80-1z"/></svg>