<svg xmlns="http://www.w3.org/2000/svg" width="1344" height="566"><path d="M0 283V0h1344v566H0V283m1152 279c32-1 33-1 38-6 5-4 4-9-1-14-7-6-14-11-30-22-12-9-15-11-27-21-7-5-17-13-23-17-24-18-24-19-19-52 3-21 4-57 4-120 0-69-3-103-14-148-9-33-18-58-28-72-6-8-21-22-29-28-11-7-36-19-49-24-18-6-24-7-36-7-12 1-17 2-47 11-23 6-39 13-47 19-2 2-6 5-9 8-8 6-22 21-28 32-8 14-10 19-15 52-2 13-2 23 1 30 0 1 2 7 2 12 2 12 2 21-2 47-1 10-3 29-3 42-1 14-3 31-4 38-3 19-10 53-12 56-3 7-18 15-30 16-10 1-32 5-46 8-5 1-13 3-18 4s-13 3-19 4c-9 3-22 5-38 7-10 1-18 5-31 17-13 11-22 24-25 35-12 45-18 62-26 72s-9 16-5 18c3 2 50 2 74 1 29-2 78-2 82-1 2 1 16 1 56 1 33-1 58 0 66 0 6 1 18 1 26 1 24-1 70-2 77-2 4 0 23 0 43 1 21 0 51 1 68 2h32c0 1 59 0 92 0z"/></svg>