<svg xmlns="http://www.w3.org/2000/svg" width="1344" height="566"><path d="M0 283V0h1344v566H0V283m809 276c8-1 48-1 137-1 70 1 128 1 130 0 2 0 4-2 5-3 2-3 2-3 1-9-2-8-5-18-11-33-7-16-12-33-14-42-1-4-3-11-4-17-8-25-9-29-11-37-7-27-13-42-21-49-7-7-14-9-51-21-32-11-45-16-51-22-5-4-7-9-9-25 0-7-2-14-3-16-3-6-14-18-35-38-29-30-33-36-30-55 3-23 2-67-1-89-3-18-12-41-21-55-5-8-17-19-24-24-16-11-30-16-51-17-17-1-67-1-77 1-11 2-29 8-36 12-5 3-7 5-13 14-3 6-8 13-10 16-21 29-24 35-29 57-2 10-5 20-6 24-5 16-5 20 2 41 3 8 9 28 15 44 5 16 10 31 11 33 5 10 12 15 31 22 7 3 15 6 18 8 3 1 7 2 8 2 2 0 4 1 7 3 6 6 4 14-6 25-6 6-17 16-27 22-12 9-41 22-63 30-6 2-16 7-22 10-5 2-16 8-24 12-18 10-26 16-33 26s-13 39-17 82c0 10-2 22-3 27-2 12-2 30-1 35 2 8-4 7 107 8 55 0 100 0 100 1 1 1 120-1 132-2z"/></svg>