<svg xmlns="http://www.w3.org/2000/svg" width="1344" height="566"><path d="M0 283V0h1344v566H0V283m286 278c46-1 48-1 53-3l5-2 5 3 5 3 150-1h212c114 1 146 0 150-1 3-1 5-1 10 1 5 1 9 1 65 1 54 0 59 0 61-1 6-4 7-6 6-25 0-18-2-39-6-56-4-18-6-37-4-41 1-1 3-4 6-6s11-9 18-15c17-15 21-17 46-23 11-2 23-5 28-5 21-4 48-8 59-9 24-3 40-9 47-17 4-4 4-7 0-10-3-2-5-3-29-3-16-1-29-1-34-2-14-3-22-3-38 1-16 3-26 5-48 6-18 0-21 0-38-6-23-10-26-12-31-26-7-18-27-63-32-72-10-17-13-30-9-37 4-5 8-7 18-10 5-2 10-3 12-4 4-3 10-9 16-20 4-5 8-12 11-16 2-3 6-10 9-16l5-9v-18c0-23-3-52-8-62-5-13-18-22-35-28-10-3-13-3-22-3-14 0-26 3-35 8-8 5-21 18-25 25-2 6-3 7-3 31-1 27-1 30-8 44-6 15-19 31-26 34-1 0-6 1-10 1-14 2-17 4-21 15-1 3-4 8-6 11-3 3-10 11-16 19-15 18-22 29-29 44-10 22-10 26-7 61 2 24 2 34 1 73-2 27-2 29-4 31-2 3-5 2-9-3-8-12-12-29-14-69-3-33-4-49-9-74-2-12-4-27-5-33-4-23-12-56-19-75-15-38-30-55-62-71-14-7-24-10-39-13-26-6-34-5-63 7s-36 16-47 28c-6 6-16 25-21 39l-2 8v28c0 31 1 72 3 98 1 10 2 24 3 33 1 14 2 19 7 37 0 1 2 8 4 15 5 16 6 24 3 29-2 3-7 5-15 5-5 0-7 1-27 9-10 4-29 11-35 12-13 4-30 10-33 12-8 4-8 5-16 42-1 5-4 15-6 22-2 6-4 13-5 16-1 2-2 5-3 6-4 6-4 4-5-65 0-104 0-104-6-127-4-11-8-30-9-39-1-4-7-22-11-33-1-4-2-9-2-11 0-6 10-20 18-26 10-6 16-12 22-22 3-6 8-14 10-17 9-11 9-13 7-30-1-6-2-16-2-26 0-16 0-18-2-23-4-8-16-19-35-28-11-6-17-7-33-8-30-1-43 4-51 20-5 11-6 20-6 55l-1 32-2 4c-3 6-6 9-14 14s-11 9-14 19c-2 8-3 9-13 22-8 9-10 14-14 29-1 6-3 13-4 15-2 5-12 37-14 46-9 32-10 38-15 68-4 22-7 46-9 65-1 16-6 51-7 56-1 6-2 28-2 31 1 5 5 6 17 7 11 1 28 1 133-1z"/></svg>