<svg xmlns="http://www.w3.org/2000/svg" width="1344" height="566"><path d="M0 283V0h1344v566H0V283m294 276h14c6 1 36 1 233 1h172l3-2c4-3 6-8 4-18-1-5-2-13-3-19s-2-14-3-19c-4-13-14-42-18-48-2-5-3-7-3-17s-1-12-3-15-18-12-28-15c-5-2-22-9-46-20-5-2-14-6-20-9-17-7-25-12-27-16s-2-5-1-12c2-15 7-31 21-62 2-5 2-9 3-20 2-19 1-33-3-54-1-10-3-21-3-23-1-5-4-18-12-46-6-23-17-50-26-64-14-22-42-45-64-53-17-7-41-10-59-8-8 1-11 2-21 7-19 9-40 21-49 29-10 9-20 26-28 51-7 21-16 70-21 110 0 6-1 14-2 18 0 3-1 9-1 13-1 4-2 11-3 16-2 15-5 44-5 56 0 16 2 29 7 41 2 5 4 11 4 12 0 6-3 8-32 18-7 2-16 8-29 17-14 10-25 17-37 24-10 6-17 11-19 14-1 1-2 6-2 10-1 5-2 10-6 17-4 10-9 23-13 36-2 10-5 40-4 45 2 8-1 7 63 7 32-1 62-1 67-2z"/></svg>