<svg xmlns="http://www.w3.org/2000/svg" width="1344" height="566"><path d="M0 283V0h1344v566H0V283m558 278h117c59 1 55 2 56-17 0-7 1-14 2-18 0-5 0-6-2-9s-2-5-1-9c0-6 0-6-3-10-3-3-6-9-14-28-5-13-11-28-14-33-4-8-4-8-4-18 0-8 0-9-2-11s-10-6-28-13c-33-14-41-17-55-22-37-15-42-17-44-26-2-7 1-22 11-55 5-16 6-26 6-42 0-8-1-19-1-24-1-5-2-13-3-17 0-10-4-27-11-51-11-39-27-72-41-90-17-21-42-37-71-46-8-2-10-2-24-2-10 0-17 0-20 1-5 1-45 21-53 26-11 7-20 18-29 36-6 11-8 16-13 31-5 17-9 40-16 84-8 48-13 109-11 150v22l-3 3c-2 3-6 5-15 9-8 4-18 9-32 19-11 7-26 16-33 20-13 6-19 10-21 14-1 1-1 6-2 12-1 8-2 12-6 25-8 21-11 33-14 51-4 25-3 34 4 37 3 1 114 1 121-1 4-1 6-1 9 0s31 1 85 1c44 1 80 1 81 1 0 1 6 1 13 1 7-1 43-1 81-1z"/></svg>