<svg xmlns="http://www.w3.org/2000/svg" width="1344" height="566"><path d="M0 283V0h1344v566H0V283m624 277c5-1 16-1 36-1 15 1 56 1 92 1 63 0 64 0 67-2 1-1 3-3 4-5 2-7 1-29-3-49-4-16-19-62-25-74l-3-8 1-9c1-12 2-12-20-23-10-4-20-9-23-11-4-1-10-4-15-7-5-2-13-6-17-7-14-6-30-14-32-17-4-4-3-15 4-54 2-11 5-24 6-30 3-13 3-38 0-65-1-11-2-21-3-21 0 0 0-6-1-13-3-34-9-59-23-88-7-15-25-36-41-45-17-11-36-19-46-21-11-2-25 1-40 7-2 1-8 2-13 3-10 1-19 3-23 5-10 6-25 21-34 36-12 20-23 55-30 96-2 7-4 17-4 20-1 4-2 11-3 14-1 4-2 9-2 12-2 9-6 34-8 47-2 20-1 36 1 52 2 15 2 23 1 28-2 5-9 10-16 11-20 4-31 7-55 17-9 4-19 9-23 10-26 12-32 17-35 30-3 12-5 20-11 32-4 9-7 17-11 30-2 10-5 21-6 25-3 9-15 53-15 59-2 9 3 12 18 14 7 1 61 2 90 1 30 0 108 0 140 1 51 1 112 0 121-1z"/></svg>