<svg xmlns="http://www.w3.org/2000/svg" width="1344" height="566"><path d="M0 283V0h1344v566H0V283m489 128c4-1 12-4 18-7 17-8 28-13 30-13 0 1 2 2 2 4 2 5 6 6 21 6 7 0 16 1 20 1 22 4 36 5 79 6 35 0 43 0 47 1 8 3 28 3 41 0 7-1 16-3 21-3 4-1 14-3 22-5 7-2 16-5 20-6s10-3 12-3c9-3 21-5 35-6s14-1 17-3c2-3 2-4 2-11 0-4 0-14-1-22-2-13-3-17-7-30 0-3-2-10-2-15-1-13-3-17-13-22-8-5-11-8-11-16 0-5 0-6 4-11 3-3 4-5 3-6 0-1-1-6-2-11s-5-22-9-37c-4-16-7-32-8-36-2-12-11-33-22-48-9-15-21-25-42-35-24-12-33-13-69-3-15 3-24 8-31 15-13 12-22 34-25 58-1 5-2 13-2 17-1 5-2 13-2 17-1 4-2 11-3 15 0 4-1 11-2 16 0 11-4 27-6 29-1 2-3 2-8 2-11 0-15 1-21 7-3 3-7 5-9 6-5 3-14 14-20 25-7 16-13 23-22 32-10 9-12 10-28 15-6 3-13 5-16 7-3 1-11 3-18 4s-13 2-15 3c-3 2-8 11-15 28-2 4-5 12-7 18-8 19-7 19 19 19 9-1 20-1 23-2z"/></svg>