<svg xmlns="http://www.w3.org/2000/svg" width="1344" height="566"><path d="M0 283V0h1344v566H0V283m482 276c14-1 44-2 123-3 48 0 62 0 69 1 13 2 168 2 236 0 24-1 45-1 78 0 42 1 46 1 48 0 1-2 1-2 0-4-2-3-56-38-64-41-2-1-9-4-16-7-6-3-17-9-24-12-12-5-13-6-19-13-4-4-9-10-12-13-6-7-8-11-8-16 0-3 5-16 12-33 2-4 6-14 10-23 10-23 21-46 27-56 7-12 11-15 19-18 15-5 23-13 36-33 13-21 14-25 15-42v-13l-7-7c-4-4-7-8-8-10 0-2 4-32 9-58 4-25 5-38 5-56l1-19-8-15c-5-9-10-19-11-23-4-9-11-18-19-25S959 9 950 7s-52-3-119-3c-80 0-92 1-98 10-5 5-20 36-23 47-9 24-12 38-15 67-4 40-5 43-9 47-1 1-3 2-4 2-7 0-15 6-18 14-5 11-5 23 0 44 4 19 9 28 23 42 10 10 11 12 11 26 0 23-3 53-8 65-3 9-9 22-12 25-6 7-7 7-34 6-18-1-25-1-27 0-3 1-13 11-29 30-19 21-29 30-48 38-8 3-17 8-22 11s-15 10-24 15c-9 4-21 11-27 15s-16 9-21 12c-12 6-42 26-46 31-4 4-4 4-3 6 2 1 6 2 26 3 24 1 39 1 59-1z"/></svg>