<svg xmlns="http://www.w3.org/2000/svg" width="1344" height="566"><path d="M0 283V0h1344v566H0V283m921 278c152 0 160 0 180-4 8-2 15-6 16-9 0-4-2-12-6-21-5-8-15-21-24-28-7-6-16-17-24-30-6-9-16-19-37-36s-34-30-41-39c-3-4-8-12-11-19-10-18-16-28-23-36-6-8-12-12-30-23-7-5-9-14-5-29 3-12 4-14 16-20 5-2 12-7 14-9 9-7 16-26 18-46 1-11 2-13 7-35l3-14-1-27c-1-15-2-29-2-30-1-2-2-8-4-12-2-5-3-10-3-11 0-3-8-21-12-26-2-2-5-7-7-10-5-8-30-31-36-34-10-6-20-7-65-8-48-1-87-1-98 1-10 2-20 7-31 15s-18 15-25 27c-8 11-13 22-17 38-8 30-8 51 0 98 2 9 4 23 5 30 2 18 3 26 10 49 3 11 6 23 7 27 10 35 14 45 23 55 7 7 17 12 31 16 4 2 9 3 9 4 2 1-1 5-7 7-7 3-23 10-27 11-6 2-32 15-41 20-15 10-24 19-24 26 0 4 2 7 12 20 4 6 11 14 13 18 8 12 19 35 22 46 3 12 5 16 10 20 3 1 4 4 7 9 4 9 9 14 15 17 5 1 27 3 34 2h149z"/></svg>