<svg xmlns="http://www.w3.org/2000/svg" width="1344" height="566"><path d="M0 283V0h1344v566H0V283m674 277c52 0 68-1 75-4 10-4 11-8 6-17-3-5-3-6-4-16 0-7-2-15-3-19-1-6-1-10-1-50 1-91 1-85-2-99-7-30-10-38-18-50-5-8-25-28-35-36-8-6-11-9-12-13 0-3 2-15 8-35 8-31 7-26 7-54 0-26 0-36-4-53-4-19-14-37-29-52-11-11-18-16-31-22-15-7-23-10-39-14-10-2-15-2-33-2-21 0-33 1-45 5-9 2-27 11-35 16-13 11-25 26-31 42-6 14-8 23-11 49-2 13-3 25-4 27-1 1-3 5-6 7-7 6-8 9-6 21 2 10 5 28 6 40 0 10-1 14-8 20-6 6-7 7-36 20-39 18-72 37-88 50-12 9-40 38-49 51-20 26-24 32-31 54-6 20-7 28-7 42 2 21 3 35 4 40 1 4 1 7 0 13-1 5-2 14-2 20v11l3 3 3 4h38c21 1 52 0 71 0 18-1 39-1 46-1 7-1 23-1 36-1 32 0 94 1 104 2 15 2 43 3 79 2 20 0 57 0 84-1z"/></svg>