<svg xmlns="http://www.w3.org/2000/svg" width="1344" height="566"><path d="M0 283V0h1344v566H0V283m626 277c3 0 41-1 84 0 60 0 81 0 84-1 4-1 4-2 6-6s2-6 2-24l-1-21-7-27c-4-15-8-30-9-33s-2-7-2-7c0-1-2-5-4-9-4-8-4-9-4-19 0-14-1-15-18-22-7-4-18-9-24-12s-21-10-33-15c-11-5-23-10-26-12-6-3-10-8-10-12 0-2 2-10 4-18 2-9 5-20 6-26 2-7 5-17 6-24 7-23 7-26 2-84-1-15-2-30-3-34-2-28-7-53-13-68-6-11-23-34-33-44-13-11-43-28-58-32-4-1-10-2-13-2-6 0-20 3-32 7-6 3-12 4-18 4-19 2-33 11-49 33-17 22-24 47-36 112-1 7-3 18-4 24-3 16-7 46-10 66-3 21-2 44 1 58 3 12 3 16 0 21-4 7-10 10-25 12-13 2-28 8-56 22-23 12-38 21-41 25-1 2-4 9-7 16-2 7-7 17-9 23-7 13-9 18-13 32-2 6-5 17-8 25s-5 17-6 20c-2 12-3 30-3 39 1 12 1 12 19 12 15 1 89 1 161 1 22 0 68 1 103 1 65 1 89 0 97-1z"/></svg>