<svg xmlns="http://www.w3.org/2000/svg" width="1344" height="566"><path d="M0 283V0h1344v566H0V283m532 191c3-3 4-5 1-12-1-5-1-8 1-18 1-3 2-13 3-22 2-33 5-56 8-70 2-7 4-17 5-23 0-5 2-13 3-17 6-15 6-18 5-30-1-8-2-16-5-24-2-7-4-19-6-27-1-8-3-18-3-23-1-4-4-19-7-33-6-25-6-25-6-42 0-18-1-22-5-27-3-4-8-5-18-5s-28 3-32 6c-6 3-6 5-1 20 2 9 4 16 4 21 0 8 0 9-11 23-3 5-6 15-7 24 0 4-1 13-2 19-3 13-2 15 2 28l3 8 1 28c0 22 1 30 2 34s4 14 6 23 5 19 6 22c2 6 4 22 4 29-2 18 3 48 10 61 2 5 3 9 3 14 1 7 2 8 7 11 7 4 12 5 19 5 6 0 7 0 10-3z"/></svg>