<svg xmlns="http://www.w3.org/2000/svg" width="1344" height="566"><path d="M0 283V0h1344v566H0V283m598 276c24 0 51 0 58-1 61-2 122-2 196 0 36 1 163 3 200 2 36 0 40 0 41-5 2-8-8-25-23-42-4-4-9-10-12-14-8-11-23-24-44-41-3-2-11-9-18-15-21-21-34-31-60-50-5-4-10-8-12-9-7-6-14-9-29-10-14-1-26-3-30-6-5-2-15-12-18-19-4-8-7-19-8-30 0-7 0-11 3-22 3-14 6-22 14-32 15-19 25-42 25-57 0-4-1-9-1-12-2-8-2-18 0-32 1-14 2-35 0-44-1-9-7-23-13-32-14-23-52-45-85-49-22-4-53-2-69 4-14 4-34 17-44 28-17 18-23 34-24 63-1 7-2 18-3 23 0 5-2 19-3 30 0 12-2 25-2 29-4 18-4 31 2 58 3 20 6 31 14 50 7 16 11 22 25 30 8 5 10 9 10 14 0 7-6 11-41 30-21 11-33 19-53 35-32 24-42 34-59 57s-24 33-28 49c-4 12-4 18 1 20 2 1 19 2 32 1 7 0 33 0 58-1z"/></svg>