<svg xmlns="http://www.w3.org/2000/svg" width="1344" height="566"><path d="M0 283V0h1344v566H0V283m284 277c6-1 11-1 12-1 2 0 35 0 76 1 105 1 319 1 328 0 4-1 11-2 15-2 12-1 13-3 14-18 1-7 1-17 1-22 0-8 0-9-2-12-4-5-4-6-8-16-2-8-5-17-13-36-1-3-4-9-6-13-3-7-3-7-3-17 0-8 0-10-1-12-2-4-9-7-35-17-10-4-22-9-25-10-12-5-20-8-34-13-31-13-35-15-37-22-1-4 0-20 2-30 1-6 6-27 9-35 1-2 2-9 4-16 3-19 3-27-3-58-4-20-8-34-9-40l-4-12c-2-10-13-40-18-53-6-17-11-26-18-35-8-9-18-17-37-30-25-16-40-22-63-23-11 0-15 0-23 2-11 2-25 8-34 15-3 1-9 5-14 8-12 6-21 14-29 26-7 11-8 13-14 28-6 19-10 35-14 71-5 32-9 127-8 152 1 10 4 23 9 41 5 15 4 18-8 23-26 9-29 11-40 19-27 18-38 25-48 30-6 4-12 7-13 9-3 3-5 8-5 14s-2 15-5 28c-2 6-4 14-5 16 0 3-1 7-1 9-2 3-5 17-7 30-2 9-1 17 1 20 2 2 4 2 16 2 26 1 88 0 97-1z"/></svg>