<svg xmlns="http://www.w3.org/2000/svg" width="1344" height="566"><path d="M0 283V0h1344v566H0V283m728 189c4 0 9 0 12-1s6-1 7 0c2 0 17-3 32-7 9-2 16-4 27-6 10-2 18-4 36-10 10-2 11-2 37-2h27l2-3c2-2 2-3 0-17 0-9-1-19-2-23s-1-19-2-33c-1-30-1-33-5-38-1-2-3-5-4-7-3-5-6-8-14-10-10-3-16-6-20-11-4-4-11-8-19-9-7-2-10-4-8-6 1-2 4-2 12-2 9 0 11 0 13-2l2-2-1-10c-1-6-2-14-2-18 0-7-3-23-7-38-2-5-4-14-6-21s-5-18-7-24c-5-18-6-21-8-27-4-19-14-42-24-57-9-15-27-30-53-42-16-8-20-10-33-9-8 0-11 0-22 3-6 2-17 5-24 7s-15 4-18 6c-14 7-30 31-36 53-2 10-7 33-7 43-1 4-2 10-3 15-1 6-1 15-1 58 0 32 0 54 1 61 1 14 1 14-9 16-9 1-12 1-26-1s-25-2-30 1c-2 0-6 4-10 8s-10 9-13 10c-7 4-18 11-25 16-3 3-11 8-17 12-7 4-15 10-20 14-11 9-15 11-26 11-8 0-10 0-13 2s-3 2-3 5c3 8 2 11-9 36-6 14-10 25-10 29 0 1-1 5-2 9-1 3-2 6-1 7 0 1 2 2 4 3 4 2 4 2 14-1 6-2 12-4 13-4 2 0 5-1 7-1 6-3 37-4 49-3s34 1 37-1c2-1 22 0 24 1 2 2 38 6 58 8 19 2 23 1 28-1 6-3 15-4 28-2 7 1 15 2 19 2 10 1 26 5 31 7 2 1 5 4 7 5 2 2 3 3 5 3 1-1 5-1 8-2z"/></svg>