<svg xmlns="http://www.w3.org/2000/svg" width="1344" height="566"><path d="M0 283V0h1344v566H0V283m272 279h230c231 0 276 0 279-2 1-1 3-3 4-6 3-5 3-5 15-1 15 5 39 7 125 8 70 0 100-1 103-4 3-2 3-4 0-7-3-4-7-6-18-8-5-1-10-3-11-3-3-2-5-6-8-26-2-10-4-21-5-25-1-5-1-6 0-10 2-5 9-12 17-16 10-5 13-5 62-5 29 1 54 2 65 3 26 2 37 1 49-4 16-6 23-10 23-15 0-4-4-5-11-5-4 1-12 1-19 0-12-1-13-1-23-6-9-4-11-6-13-8-1-2-3-5-4-6-3-4-5-4-23 2-12 5-14 5-23 5-19 0-37-3-56-9-24-9-47-24-52-36-2-5-3-10-7-34-5-32-11-62-15-72-2-4-6-12-10-19-15-24-15-25-10-29 1-2 6-5 11-7 9-5 14-10 23-23 10-18 18-38 21-54 2-10 1-42-2-53-3-15-9-26-18-34-2-2-10-6-17-10l-12-5-16-1c-18 0-22 1-35 7-15 6-25 16-29 26-2 6-3 12-4 25-1 6-2 15-3 21-1 5-2 13-2 18 0 8-2 17-5 23-6 11-18 25-25 30-4 3-5 3-13 3-12 0-15 2-23 17-4 6-9 12-19 22-19 19-24 26-32 37s-19 33-23 44c-2 8-2 9-2 25 0 13 0 21 3 41 4 27 7 47 8 68 1 8 2 18 2 23 1 8 1 9 0 11-2 1-2 1-9-2-10-5-25-15-29-19-2-3-4-6-5-7-2-7-5-25-6-43-1-9-1-22-2-27 0-5-2-18-2-28-2-17-7-55-11-89-7-53-19-93-35-114-15-20-29-30-61-43-23-9-41-11-60-7-21 5-51 17-64 27-4 3-8 6-10 6s-5-3-8-10c-7-12-22-23-43-31-7-2-9-2-21-2-22 0-38 5-48 17-6 6-12 19-15 28-2 8-1 22 2 34 5 18 5 29 1 41-1 6-6 12-24 26-6 5-13 12-15 15-7 8-20 21-34 32-6 5-14 13-19 18-8 8-10 11-15 20-3 8-6 15-9 26-5 22-6 26-9 52-2 26-2 32 2 55 3 22 6 52 6 71 0 29 1 30 27 36 12 3 13 3 36 2h28z"/></svg>