<svg xmlns="http://www.w3.org/2000/svg" width="1344" height="566"><path d="M0 283V0h1344v566H0V283m522 277c78-1 287-2 332-1 21 1 41 1 49 0 19-1 20-2 21-20 0-11-1-21-5-28-3-7-24-28-34-35-55-39-63-45-74-62-12-20-19-36-19-42 0-3 1-6 3-10 1-2 8-14 15-26 12-22 19-33 30-49 7-11 7-12 10-25 2-6 4-15 5-20 2-6 4-15 5-20 4-14 6-28 7-51 0-16 0-23-1-33-3-23-12-44-24-60-12-14-34-33-48-38-9-5-9-5-27-6-8-1-19-2-23-3-21-5-36-4-53 1-24 7-52 27-64 47-14 20-18 35-20 71-2 26-3 29-9 38-7 12-9 23-7 40 2 14 6 23 18 35 5 5 11 11 14 12 6 4 7 10 7 27v13l-4 5c-6 5-15 14-36 30-26 21-29 23-50 27-7 2-18 4-24 6-11 3-34 7-46 9-10 1-22 4-27 6-5 4-8 7-25 32-8 12-17 25-21 30-9 12-24 35-28 43-2 4-5 11-6 15-1 5-4 12-6 16-3 9-4 16-2 21 2 3 4 4 11 5s87 1 156 0z"/></svg>