<svg xmlns="http://www.w3.org/2000/svg" width="1344" height="566"><path d="M0 283V0h1344v566H0V283m760 278c4-1 16-1 26 0 19 1 50 0 96-2 32-1 34-2 28-14-4-7-11-13-17-15-10-3-15-8-17-20-1-4-3-10-3-12-1-2-2-9-3-15-3-30-10-41-30-52-11-5-26-11-30-12-5-2-37-13-40-15-5-2-10-6-31-25-18-16-21-20-21-24 0-3 9-21 14-28 3-3 6-6 9-8 8-4 14-12 17-25 1-3 2-8 4-12 3-9 6-28 7-44 0-12 0-17-2-28-4-28-12-41-35-61-15-13-23-16-47-21-8-1-17-3-20-4-13-3-26-1-44 9-12 6-22 14-33 28-11 13-17 25-21 43-2 10-3 41-1 50 1 5 1 9 0 16-2 10-5 19-6 23-1 1-3 5-5 10-6 14-16 32-33 56-7 10-11 18-13 30-2 10-2 12-1 32 2 42 4 68 5 74 1 3 2 8 2 13 0 10 2 31 3 36 2 6 5 11 7 13 5 2 20 4 43 4 12 0 24 1 26 1 6 1 158 0 166-1z"/></svg>