<svg xmlns="http://www.w3.org/2000/svg" width="1344" height="566"><path d="M0 283V0h1344v566H0V283m215 279c3-1 4-1 76-2 22-1 43-1 45-1 3-1 6-1 9 1 4 1 16 1 109 2 131 1 134 1 244 0 76-1 90-1 99-3 9-1 10-1 16 0 3 1 7 3 9 3 5 1 143 0 166-1 10-1 19-2 21-2 1-1 25-1 52-2 49 0 50 0 59 2 8 2 10 2 20 1 9-1 13-2 19-4 9-5 11-7 10-17 0-4-1-11-2-16-1-4-2-9-2-11s-1-7-1-11c-2-8-3-15-5-53-1-30-4-60-9-98-7-51-14-71-32-89-12-12-23-18-62-35-14-6-34-20-38-28-2-4-2-5-2-17 1-16 3-24 9-29 5-6 10-14 12-20 2-10 1-13-2-19l-4-5V88c0-30-3-39-15-55-5-6-10-9-24-13-14-3-17-4-26-1-5 1-11 3-12 4-2 0-6 2-9 2-5 2-10 5-23 13-6 4-7 6-10 12-5 8-7 23-8 44-1 8-2 15-3 17-3 7-1 18 6 33s12 35 12 44c0 6-2 11-8 14-2 1-7 5-10 8-10 7-23 16-30 19-42 19-60 31-74 52-7 12-12 21-15 31-2 8-5 14-7 14-1 0-2-1-3-2-3-3-15-18-19-26-3-3-6-8-8-10-3-5-15-24-25-42-8-13-18-29-29-45-15-23-38-38-62-43-15-2-36-1-50 3-24 7-33 13-51 39-8 11-14 25-19 43s-12 55-15 79c-1 5-2 15-4 22-2 8-3 20-3 26-2 25-5 39-11 44-3 3-31 14-44 16-3 1-7 2-9 3-1 1-5 3-8 4-11 3-12 1-12-12 1-12 0-32-2-41-1-4-3-11-4-18-3-17-9-42-11-48-1-3-3-7-5-10-4-6-16-17-23-22-9-6-23-18-25-22-3-5-2-8 4-21 7-15 9-19 12-34 4-18 4-20 0-66-2-25-11-37-31-47-13-7-20-8-34-8-17 0-33 5-43 15-12 11-15 20-16 41 0 8-1 17-2 19 0 3-1 7-1 9 0 4 5 19 9 27 5 9 8 21 8 27 0 9-2 12-8 14-3 2-6 4-15 15-12 13-25 27-32 32-2 2-5 5-7 8-2 2-8 8-14 13-16 14-26 24-30 33-7 14-11 33-11 65-1 15-2 25-3 34-1 7-2 17-2 23 0 10 0 12 4 23 2 7 5 15 7 18 1 2 4 9 6 15 8 26 12 34 21 39 4 2 6 2 23 3s27 1 32 2c1 0 3-1 5-1z"/></svg>