<svg xmlns="http://www.w3.org/2000/svg" width="1344" height="566"><path d="M0 283V0h1344v566H0V283m831 277c28-2 30-4 38-34 2-7 5-17 6-22 5-30 10-49 22-78 9-23 17-39 26-50 11-15 18-26 24-37 5-11 10-18 20-33 1-2 4-7 7-11 5-10 5-13 0-22-23-32-27-37-34-39-3-1-12-2-34-2-27 0-29 0-33-2-11-5-17-13-19-28-3-14-4-16-13-24-11-10-18-22-22-38-4-18-4-18-7-20s-5-2-11-1c-4 0-9 0-12-1-10-3-13 0-21 17-2 6-7 15-9 19-6 10-17 33-25 53-3 8-8 20-11 27-6 14-8 21-12 40-5 20-8 36-9 48 0 6-1 17-2 24s-2 17-2 22c-1 13-1 13-16 14-11 1-13 1-22 4-13 6-16 6-47 15-30 8-34 10-36 13-1 1-1 8-1 15 0 12 0 15-3 24-1 6-4 13-5 15-8 19-19 60-21 76 0 8 1 10 7 13 4 2 7 2 50 3 102 1 212 1 227 0z"/></svg>