<svg xmlns="http://www.w3.org/2000/svg" width="1344" height="566"><path d="M0 283V0h1344v566H0V283m286 277c8-1 16-1 22 0 9 1 73 1 268 1 118 0 131 0 138-1 5-1 10-2 11-2 2 0 4-1 5-2l3-2v-41l3-6 4-6-2-2c-1-1-3-2-4-2-5 0-10-7-18-28-2-6-7-18-11-26l-7-14v-9c0-8 0-10-2-12-1-2-9-5-37-17-7-2-18-7-25-10-6-2-13-5-16-6-6-2-17-6-31-12-18-8-21-13-19-30 1-11 3-16 11-41l5-16v-14c1-19-3-55-8-78-7-36-22-76-37-101-21-34-53-56-88-61-17-3-31-3-40 0l-10 5c-1 1-11 6-22 11-21 11-27 15-35 26s-18 31-23 47-12 55-15 81c-1 6-3 16-3 22-5 34-7 57-8 79-2 32-2 38-2 60l1 18-3 3c-1 2-5 5-8 6s-9 4-13 6c-5 2-18 10-28 17-12 7-26 16-33 20-19 10-20 11-21 26-1 5-2 12-6 22-11 31-18 66-16 79 0 4 2 9 3 10 0 0 13 1 29 1 36 1 72 0 88-1z"/></svg>