<svg xmlns="http://www.w3.org/2000/svg" width="1344" height="566"><path d="M0 283V0h1344v566H0V283m601 277c35-2 30-2 69 0 38 1 204 1 226-1s55-3 89-2c72 2 78 2 80 0 4-4 2-9-7-20-6-8-32-28-48-39-6-3-14-8-18-10-4-3-12-7-18-10-18-10-26-15-34-22-8-8-12-15-12-20 0-1 1-6 3-10 1-3 4-10 5-14 6-17 10-27 13-33l4-6c0-1 7-15 15-32 18-36 21-40 32-46 10-5 21-16 30-30 12-19 16-29 16-44 0-9 0-9-3-12-2-2-5-5-7-6-5-5-5-7-2-21 7-28 11-45 13-56 0-6 2-16 3-21 2-18 1-39-4-56-2-9-9-28-11-31-1-4-5-8-7-9-1-1-7-2-13-3-10-2-14-2-113-2-58 0-107 0-114 1-13 1-21 3-24 6-3 4-9 14-11 21-9 22-12 35-18 81-2 14-4 26-5 27-2 3-5 5-11 6-12 2-17 7-20 22-3 19 1 44 11 62 2 4 7 11 11 15 10 10 10 10 8 35-2 28-6 47-15 67-6 15-11 21-17 25l-4 3-26-1c-29 0-29 0-35 7-2 2-6 7-10 12-22 32-31 43-43 50-14 8-29 17-32 19-5 4-26 17-40 24-16 9-32 19-45 30-12 8-33 30-35 35-2 4-1 7 2 7 16 4 110 4 172 2z"/></svg>