<svg xmlns="http://www.w3.org/2000/svg" width="1344" height="566"><path d="M0 283V0h1344v566H0V283m364 278c23 0 56 0 72-1h314c40 1 40 1 44-5 1-2 1-5 1-19 0-17 0-17-3-24-7-14-15-19-74-44-19-9-38-18-40-21-3-3-3-10 1-18 4-11 7-19 11-33 3-7 8-18 11-25s7-16 8-20c2-3 5-11 7-16 7-17 8-24 12-50 1-4 1-30 2-57 1-51 0-74-2-89-1-4-2-10-3-13 0-6-4-21-7-29-5-14-10-23-19-32-9-10-27-18-73-35-12-4-36-10-48-13-6-1-12-1-25-1-16 1-17 1-23 4-8 4-14 7-44 18-10 4-20 9-23 11-12 8-28 31-35 50-4 12-11 37-15 52-7 29-8 35-14 93-3 29-6 52-7 62-2 10-3 24-10 90-1 20-3 39-3 42-2 13-6 18-28 35-7 5-18 14-23 19-6 5-18 14-28 21-21 14-27 19-30 26-1 5-1 15 0 17 1 5 17 7 40 6 7 0 31 0 54-1z"/></svg>