<svg xmlns="http://www.w3.org/2000/svg" width="1344" height="566"><path d="M0 283V0h1344v566H0V283m485 137c7-1 14-3 15-3 1-1 8-3 15-4 12-2 14-2 22-1l8 1 6-3c5-2 6-2 17-2 7 0 18 0 25 1 9 1 24 1 55 1 42 0 44 0 60 4 5 1 12 1 30 1 25-1 27-1 41-8 5-3 7-4 7-6s-1-3-3-5c-5-2-5-5-1-9 1-2 2-4 2-7 0-4 1-6 4-10 6-7 12-10 18-10 8 2 19 4 27 7 11 4 20 4 33 0 16-4 18-6 15-17-1-3-2-9-2-13 0-5-2-11-4-15-3-7-3-9-2-12 2-4 1-9-2-18-2-5-4-8-9-12-3-3-6-6-6-7-1-9-4-26-6-37-3-9-6-23-8-32-5-20-6-23-10-40-3-11-4-16-10-28-5-9-7-15-8-20-2-9-7-18-20-31-11-11-18-15-33-21-10-4-26-7-32-7-2 0-11 1-20 3-29 5-43 12-54 27-14 19-20 35-22 61-1 8-1 33-1 56-1 24-1 44-2 45-2 5-3 5-11 4-9-1-17 0-23 3s-22 16-26 21c-2 3-6 10-10 16-3 8-7 13-8 15-8 6-28 18-37 22-5 2-13 6-17 8-10 6-18 7-30 6h-10l-4 4c-3 3-6 7-11 17-4 8-8 18-10 23-1 5-3 10-4 12-3 7-1 10 10 14 4 2 9 4 13 5 7 4 17 4 33 1z"/></svg>