<svg xmlns="http://www.w3.org/2000/svg" width="1344" height="566"><path d="M0 283V0h1344v566H0V283m704 276c81-1 226-1 277 0 135 3 200 2 204-2 2-2 0-12-6-24-4-8-7-12-14-20-5-5-12-14-16-18-10-12-26-27-43-40-15-13-15-12-34-29-14-12-29-24-38-29-5-3-14-10-27-20-3-2-9-5-13-7-6-3-7-3-19-4-11 0-13 0-19-3-6-4-10-7-13-11-1-3-1-6-1-21 1-21 3-29 7-39 3-7 5-9 12-17 10-10 17-22 23-39 5-17 7-26 7-35 0-7 0-8-3-14l-3-6v-29c-1-25-1-31-3-39-5-24-18-41-41-57-19-12-34-18-50-21-4-1-16-1-29-1-26 0-27 0-47 10-21 10-36 24-46 40-8 14-12 31-16 58-3 27-3 34-1 62 2 31 3 33 12 74 3 12 9 32 13 43 5 14 5 31 0 37-3 3-20 11-58 28-29 13-70 41-94 64-9 8-28 31-37 43-6 9-11 20-14 31-2 4-4 12-6 16-3 10-3 14 0 17 4 3 10 4 42 3 17 0 59 0 94-1m-605 0c125 0 161 0 171-1 9-1 56-2 75-2h77c1 0 9 0 19 1 10 0 22 1 28 0 5 0 15 0 22 1 9 1 13 1 20 0 15-2 15-2 10-46-1-9-2-17-3-19 0-1-1-8-1-15-1-8-3-20-4-27-5-31-7-38-20-64-16-31-24-40-57-60-14-9-27-15-68-35-57-27-63-30-77-43-10-11-11-13-9-25 2-14 6-30 12-45 5-12 6-14 16-19s20-15 28-26c10-16 12-29 6-46l-3-9 3-16c5-26 5-28 6-39 0-12-1-15-5-18-5-2-27-3-142-2C91 4 96 4 92 9c-3 5-10 52-11 79-2 21 6 72 13 98 2 5 3 11 4 15 2 11-1 13-15 14s-16 3-49 34c-8 7-16 15-18 17-7 4-10 7-13 11l-2 4v133c0 116 0 134 2 138 2 8 2 8 23 7h73z"/></svg>