<svg xmlns="http://www.w3.org/2000/svg" width="1344" height="566"><path d="M0 283V0h1344v566H0V283m850 276c10-2 12-5 20-28 6-16 8-22 13-47 3-15 8-29 14-44 4-10 17-37 20-41s12-21 24-43c6-10 12-21 14-25 11-18 17-35 19-52 1-7 1-9-1-15-5-15-14-26-27-31-5-2-8-2-30-3-39-1-43-3-54-26-6-11-7-13-15-20-5-5-9-9-12-14-5-9-8-14-16-19-7-5-11-5-15-2-3 2-13 18-20 31-6 13-10 23-13 34 0 4-3 13-5 19-4 13-14 47-18 65-2 6-4 14-5 18s-2 9-3 12c-1 2-2 7-2 10-1 3-3 13-4 22-2 19-4 26-8 33-3 7-8 11-14 11-10 2-18 3-24 5-4 1-11 3-17 5s-19 6-29 9c-31 9-32 9-35 12-3 2-4 6-5 17-1 8-5 24-12 44-3 8-7 23-9 33-4 17-4 19-3 22 3 7 6 7 58 7 64 1 131 2 132 3s76-1 82-2z"/></svg>