<svg xmlns="http://www.w3.org/2000/svg" width="1344" height="566"><path d="M0 283V0h1344v566H0V283m650 277c105-2 188-3 282-2 153 3 213 3 229 2 17 0 18 0 20-2 2-3 2-3 0-9 0-4-3-11-5-15-4-8-6-12-16-21-6-7-14-16-17-20-8-10-22-22-39-35-7-6-16-13-21-18-11-10-26-23-35-29-20-14-26-19-35-26-5-4-13-8-17-10-7-4-9-4-19-5-13 0-20-2-27-8-8-6-11-12-10-22 1-3 1-13 2-22 2-25 3-28 18-43 12-12 17-20 23-34 6-17 8-26 8-36 0-8 0-9-3-15l-4-6v-30c0-27 0-30-2-40-4-18-14-35-27-46-16-13-39-25-54-29-19-5-50-6-66-2-8 2-31 13-39 19-18 15-30 31-36 52-6 22-9 56-7 84 0 10 1 22 1 28 0 14 1 25 6 44 5 25 9 37 15 54 6 14 6 15 7 25 0 13-1 18-5 21-5 3-41 20-49 24-4 2-14 6-22 11-35 19-71 47-91 71-5 6-12 15-15 19-12 14-19 26-25 45-5 17-5 22 0 25 3 1 25 3 31 2 1 0 21 0 44-1m-436-1c21 0 42-1 46-1 17-3 141-4 164-2 8 1 22 1 32 2 30 1 31 1 34-2 5-3 5-5 5-18-1-13-3-39-5-55-1-6-2-15-3-20-5-41-10-58-24-86-10-19-22-33-37-43-4-3-9-7-11-8-6-5-36-21-51-28-63-28-71-32-88-45-4-3-8-7-10-10-3-4-3-5-3-10 1-6 1-8 9-30 4-15 11-30 14-33 1-1 6-4 12-7 9-4 11-6 18-13 12-12 18-24 20-38 1-9 1-15-3-22-4-8-4-15 0-36 4-20 5-30 5-38s-2-10-11-12H205C102 4 89 4 86 5c-4 2-4 3-7 16-2 6-5 14-7 19-6 15-7 18-8 25-1 10 0 28 5 48 3 20 6 34 8 45 1 5 3 13 5 20 4 17 5 28 4 30-2 4-7 5-22 7-11 1-15 2-19 3-6 3-33 31-39 41l-5 7v142c0 94 0 143 1 144 1 0 1 1 1 2s1 3 2 4c2 1 4 1 18 1 24-1 116 0 127 1 5 0 13 1 17 0 4 0 25 0 47-1z"/></svg>