<svg xmlns="http://www.w3.org/2000/svg" width="1344" height="566"><path d="M0 283V0h1344v566H0V283m308 277c43 0 62 0 78-1 1 0 4 0 7 1 5 1 7 1 9 0 5-2 19-2 26-1 3 1 17 1 41 1h85c35 0 51 0 54-1 4-1 11-1 28 0 29 1 119 2 148 1 22-1 23-1 25-4 2-2 2-2 1-10-1-5-1-10 0-17 0-6 0-11-1-13 0-3-1-6-2-9-2-8-9-14-30-23-49-22-93-44-97-48-4-3-4-8-1-14 1-2 3-7 3-10 2-6 7-21 16-44 5-13 9-30 12-46 1-5 3-11 3-15 2-8 3-28 1-44 0-6-2-19-3-30-3-47-12-98-19-116-10-26-24-49-39-64-14-14-23-21-45-32-23-12-31-14-48-15-20-1-38 2-56 9-3 2-11 4-16 5-18 3-27 8-38 18-25 21-39 47-51 94-7 29-11 52-18 120-6 52-5 83 5 136 4 25 4 26 3 30-3 5-16 11-30 14-13 2-25 7-39 17-4 2-13 7-19 10-7 3-14 7-18 9-7 5-20 12-34 20-18 10-22 15-24 28-2 14-3 18-6 26-5 12-6 13-3 16 4 3 12 4 28 3 7 0 36 0 64-1z"/></svg>