<svg xmlns="http://www.w3.org/2000/svg" width="1344" height="566"><path d="M0 283V0h1344v566H0V283m640 278c139 1 168 0 183-1 16-2 18-3 16-10-1-3-1-11-2-18-2-19-2-21-5-25l-18-18c-7-8-16-18-19-23-6-9-13-18-24-30-11-13-11-14-12-44-1-14-1-28-2-31s-3-9-5-13c-2-5-5-12-6-16 0-4-1-8-2-10 0-2 3-6 11-12 13-9 20-18 27-35 5-12 13-38 14-48 5-28 2-86-6-113-8-28-22-44-50-54-19-7-44-12-59-12-21 0-35 6-62 25-12 9-13 10-23 23-11 16-17 26-20 40-2 7-2 11-2 27 0 13 0 21 1 26 3 12 4 30 3 43-2 24-3 34-3 38 1 5 5 9 18 17 9 6 11 7 11 10 0 6-4 8-16 10-7 1-11 1-24 0-18-2-62-3-72-1-29 5-43 36-43 94-1 17 3 62 7 96 1 10 3 24 4 32 2 23 3 27 12 29 9 3 39 5 62 4h106z"/></svg>