<svg xmlns="http://www.w3.org/2000/svg" width="1344" height="566"><path d="M0 283V0h1344v566H0V283m475 277c183-1 223-1 256 1 17 0 44 1 59 1 27 0 29-1 33-3 6-3 9-6 14-17 3-7 3-8 3-19v-12l4-9c3-5 8-14 11-18 13-21 21-35 27-49 8-15 12-21 20-29 4-5 8-13 9-18 1-2 0-5-1-9-2-3-4-9-4-13-3-14-11-21-15-16-3 3-11 19-11 22s-4 10-8 14c-6 5-18 7-21 3-3-3 0-8 16-31 3-5 4-6 4-11 0-7-2-10-8-13-5-2-6-2-20 1-4 0-9 1-9 1-4-2-2-8 4-15 8-8 14-21 16-31 0-5-3-10-9-12-5-2-5-2-9-1s-5 3-8 7c-5 9-11 17-21 26-11 11-13 12-26 10-6-1-11-2-13-1-7 1-13 9-23 29-7 15-10 20-13 36-9 34-12 43-22 63-4 9-8 16-8 17s-5 10-12 22c-11 19-16 27-20 29-3 2-7-1-12-7-3-3-7-7-11-10-3-3-7-6-8-8-1-1-2-7-4-13-2-9-3-14-8-24-7-14-9-16-24-25-11-7-14-10-14-12 0-1 2-4 5-7 6-5 8-9 11-19 4-14 7-26 11-36 14-43 17-74 10-138-3-41-9-67-20-102-4-14-16-34-26-46-11-12-32-29-45-35-11-6-21-8-36-8-11 0-14 0-21 2-6 2-15 4-23 5-25 2-32 5-47 19-12 11-19 19-26 32-11 19-20 44-28 77-1 7-3 15-3 20-1 4-4 15-5 24-7 33-9 41-10 46 0 4-1 11-2 16-3 20-3 40-1 74 2 36 1 40-4 52-2 3-6 9-9 12-8 11-23 36-32 53-8 17-23 54-24 62 0 4 1 7 5 19 3 9 6 16 7 18 3 3 8 4 19 4 5 0 14 1 19 1s21 1 36 0c15 0 71 0 125-1z"/></svg>