<svg xmlns="http://www.w3.org/2000/svg" width="1344" height="566"><path d="M0 283V0h1344v566H0V283m277 278c32-2 133-2 161 0 21 1 28 1 46 0 16-1 43-2 93-1 80 0 239 2 252 3 11 0 16-1 18-5 4-7 1-16-11-34-14-19-22-25-49-35-32-12-50-18-69-21-18-4-24-7-34-18-13-14-16-20-10-28 1-2 5-9 9-15 3-6 8-15 11-19 3-5 6-13 8-17 5-13 10-24 12-29 2-2 4-8 5-12s3-10 5-14c4-8 11-37 13-51 6-45 9-105 5-123-4-22-11-44-21-66-8-16-17-29-27-39-8-8-27-22-36-26-10-5-16-6-92-7-74 0-79 0-88 5-8 3-23 15-32 24-22 22-36 57-39 97-1 11-5 31-7 37-1 3-4 12-6 19-4 13-4 15-5 28 0 13 0 17 2 27 2 11 2 12 1 34-2 31-2 31 9 52 16 34 24 56 21 62-1 4-24 34-32 43-7 8-8 8-21 15-14 7-26 11-37 13-7 1-20 5-40 11-17 5-24 7-50 17-13 4-35 15-39 19-6 5-14 15-18 24-4 8-4 9-4 16 1 10 4 13 16 15 7 1 53 1 80-1z"/></svg>