<svg xmlns="http://www.w3.org/2000/svg" width="1344" height="566"><path d="M0 283V0h1344v566H0V283m919 277c31-1 58-1 60-1 10 2 129 2 146 1 19-1 23-2 25-5 3-6-1-16-14-31-30-35-44-48-82-75-37-25-45-34-57-61-5-12-11-22-16-28-2-2-8-10-13-18-5-7-14-19-19-26-9-12-17-25-18-30-2-3 1-7 8-12 10-7 13-11 17-21 6-15 7-24 5-55-1-14-2-30-3-36-1-28-6-47-19-72-14-30-32-48-60-62-17-8-24-10-41-13-25-4-48-2-68 6-15 6-32 13-44 16-11 3-24 10-33 18-11 8-25 28-33 46-7 15-10 37-10 67 0 25 1 29 21 88 14 41 18 51 37 88 20 40 26 51 33 55 8 7 10 12 7 18-2 3-17 16-24 21-6 4-18 15-23 20-13 13-18 34-16 60 1 12 1 13-1 16-2 4-2 6-2 13 1 13 2 13 15 14 16 1 160 0 222-1z"/></svg>