<svg xmlns="http://www.w3.org/2000/svg" width="1344" height="566"><path d="M0 283V0h1344v566H0V283m686 276c5-3 10-8 11-13 2-6 4-12 6-14 1 0 3-5 5-9 4-8 4-12 1-27-3-16-8-31-15-46-4-7-4-9-5-19 0-8 0-11-2-13-2-3-11-8-35-18-22-9-46-19-58-25-11-5-18-10-20-14s-2-5-1-12c1-5 3-11 3-13 2-8 5-18 11-34 4-12 5-17 7-29 2-18 3-44 1-55-1-5-3-14-4-20-3-26-12-64-19-86-5-15-16-37-22-45s-17-19-24-25c-8-6-29-17-42-21-14-5-18-5-35-5-15 1-16 1-22 4-4 1-12 5-19 7s-17 6-23 9c-9 5-11 6-20 15-9 8-10 11-15 20-6 13-10 24-16 46-6 27-14 75-16 109-1 8-2 22-3 32-2 25-2 63 1 82 1 9 3 18 4 20 0 3 1 6 1 7 0 7-20 17-48 24-7 2-16 7-31 18-16 12-30 21-41 27-9 6-14 10-16 14-1 1-2 6-2 10-1 7-4 16-8 26-6 14-11 38-13 61 0 8 0 9 2 11s3 2 17 2c30 1 94 0 105-1h29c13 1 195 1 224 1 2 0 11 0 20 1 9 0 40 1 69 0 51 0 54 0 58-2z"/></svg>