<svg xmlns="http://www.w3.org/2000/svg" width="1344" height="566"><path d="M0 283V0h1344v566H0V283m255 277c27-1 34-1 37-2 4-2 4-2 5-8 1-2 2-6 4-8 3-5 7-18 7-23 0-2 1-6 2-10 2-4 3-10 4-14 1-12 2-15 9-15 2 0 5-1 7-2s7-1 18-2c24 0 49-4 65-8 7-2 15-4 16-4s8-2 17-4c12-4 17-6 27-11 6-4 15-9 20-11 9-4 17-11 17-15 0-3-7-15-9-16-1 0-6 1-13 4-6 3-14 6-18 7-7 1-7 1-10-1-1-1-4-3-5-5-2-3-2-4-1-9 0-5 0-6-2-8-3-4-5-4-8 0s-8 16-10 22c-2 7-5 9-14 11-16 3-30 4-50 3-22-1-27-2-30-6-3-3-4-8-5-23-1-10-2-19-4-30-2-9-4-18-5-21 0-6 2-20 5-30 3-11 7-14 21-18 3 0 8-2 10-3 4-3 11-11 15-18 1-2 4-7 6-12l5-8v-60l-4-7c-4-9-10-15-19-19-18-9-37-10-51-4-13 6-24 20-29 37-3 12-4 14-9 18-6 6-11 8-26 12-24 8-48 22-72 43-21 18-38 40-51 66-18 39-20 47-10 55 3 3 6 9 10 19 2 6 2 8 3 27 0 21 0 22-4 35-3 5-4 7-9 12-4 4-7 7-10 13-5 11-5 14-2 19 4 6 17 18 21 20 1 0 7 2 12 3 11 2 26 6 32 9 8 2 1 2 85 0z"/></svg>