<svg xmlns="http://www.w3.org/2000/svg" width="1344" height="566"><path d="M0 283V0h1344v566H0V283m479 136c4-1 13-4 21-7 13-5 14-5 22-5 5 0 15 0 21-1 12-1 17-1 53 2 26 2 45 3 70 3 24 1 39 2 42 4 1 0 5 1 10 1 9 1 13 1 38-4 5 0 12-1 16-2 4 0 8-1 9-1 1-1 5-2 9-2 3-1 11-3 16-5 5-1 11-3 14-3 7-2 21-7 30-11 8-3 11-3 20-4 9 0 10 0 12-3 2-2 2-3 2-11-1-5-1-17-2-27-1-15-1-17-4-24-2-4-3-8-3-9 0-4-3-9-5-10-1-1-4-1-6-1l-4-1-3-6c-1-4-3-10-5-13l-5-10c-1-2-2-4-5-5-3-2-3-4 0-4s8-3 9-6c0-2 0-8-3-16 0-2-2-10-4-16-2-7-4-18-6-24-3-14-7-28-8-34-2-16-13-44-21-58-3-3-9-10-14-16-8-7-12-10-19-14-11-6-20-9-30-11-12-3-18-2-36 1-13 2-17 3-25 6-6 3-13 6-16 8-10 7-24 24-29 38-4 10-6 21-7 46-1 13-2 37-2 54-2 29-2 30-4 32s-3 2-6 1h-11c-9 0-13 1-23 10-16 13-17 14-25 28-6 13-9 17-19 25-8 7-17 13-22 15-2 1-10 5-17 8-15 8-20 9-32 9-10 1-12 2-16 10-3 4-14 31-17 38-1 2-2 6-3 8-4 10-4 12-3 13 1 2 8 3 17 4 7 1 23 1 29 0z"/></svg>