<svg xmlns="http://www.w3.org/2000/svg" width="1344" height="566"><path d="M0 283V0h1344v566H0V283m889 274c2-1 3-4 5-8 4-9 5-17 5-35 0-8 0-17 1-21 1-6 1-17-1-25-1-3-2-10-3-16-1-5-2-14-4-19-2-4-4-13-4-17-1-5-2-13-4-17-3-10-6-20-7-26-1-2-2-7-3-9-2-6-5-16-6-22 0-3-2-8-4-12-2-5-5-14-8-22-5-16-14-35-21-46-3-4-10-12-16-18-8-8-11-10-19-14-12-6-16-9-19-16-4-8-4-13-1-29 3-17 3-38 1-46-8-23-25-39-45-42-13-2-23-1-40 5-16 5-17 6-31 19-14 14-17 19-21 29-2 5-2 9-3 19 0 17 1 23 6 29 5 5 5 5 6 15s1 11-1 14c-9 16-10 20-14 32-2 8-5 17-9 25-4 7-7 15-9 18-2 7-8 17-13 24-3 3-8 11-13 17-7 11-10 14-28 30-11 9-21 19-22 20-1 2-6 5-10 8-6 4-8 5-12 5-2 0-6 0-8 1-3 1-5 1-8 0-6-3-11-2-15 0-4 3-6 2-15-2-7-3-7-3-17 0-6 2-6 3-7 7-1 6-4 9-15 12-14 4-19 7-21 10-3 5-2 8 3 18 7 14 11 16 38 19 9 1 11 1 23-1 8-2 16-3 19-4 3 0 10-2 15-3 13-2 21-3 24 0 1 1 8 6 14 12 9 9 13 12 21 17 14 7 16 8 21 6 8-3 14-1 32 8 9 5 17 9 18 11 1 1 1 3 1 7l-1 6 11 11c7 7 12 12 15 13 2 1 9 2 22 2 10 1 20 1 21 2h87c78 0 86 0 89-1z"/></svg>