<svg xmlns="http://www.w3.org/2000/svg" width="1344" height="566"><path d="M0 283V0h1344v566H0V283m312 276c35-2 332-2 428 0 91 1 102 1 105-4s-3-26-13-47c-4-7-8-17-10-22-5-10-8-15-15-21-6-6-20-15-35-23-7-4-14-8-16-9-2-2-8-5-13-7-5-3-16-8-23-12-19-11-25-16-38-37-15-22-16-24-16-29 0-4 4-13 9-21 6-9 14-24 18-33 4-12 9-21 14-29 7-11 9-23 9-63 1-16 1-36 2-45 2-26-1-50-7-73-9-29-18-43-39-60-13-11-21-16-28-19-7-2-80-3-119-1-27 1-27 1-32 4-8 4-27 23-35 35s-16 30-19 41c-4 14-4 24-3 44 1 10 2 23 2 29 0 10 0 12-3 20-3 7-3 10-4 21 0 10 0 13 2 22 4 16 12 30 22 36 3 2 9 5 13 7 6 3 8 4 11 9 5 9 9 29 6 34-1 3-6 8-29 32-17 18-29 28-36 32-5 3-25 10-59 22-62 21-75 27-85 43-2 2-8 13-12 22-4 10-10 22-13 28-6 10-21 38-29 55-2 5-4 10-5 13 0 3 0 4 2 5 5 3 42 3 93 1z"/></svg>