<svg xmlns="http://www.w3.org/2000/svg" width="1344" height="566"><path d="M0 283V0h1344v566H0V283m161 278c15-1 85-1 157-2 131 0 185-1 190-4 3-1 5-1 12 1 5 2 10 2 57 3 68 1 91 0 127-2 24-2 145-2 151 0 6 1 96 3 185 3 69 0 68 0 68-5 0-4-8-16-19-29-5-6-11-13-13-17-3-4-7-8-12-12-15-12-31-26-43-38-19-17-31-28-40-35-5-4-12-10-16-13-23-18-33-23-48-25-31-3-33-4-42-13-7-8-10-15-13-26-3-16 0-38 6-50 2-2 8-11 15-19 6-8 13-18 14-22 7-13 9-28 5-40-1-8-1-19 0-29 6-28 4-57-5-77-13-29-51-54-93-59-18-2-44-1-59 4-12 3-32 11-40 16-9 7-21 17-26 25-8 13-11 24-13 48-1 9-2 21-3 28-1 6-3 18-4 26-1 9-3 20-4 26-4 17-3 39 0 61 4 24 6 29 12 44 14 33 16 36 27 44 4 3 7 6 8 7 1 3-4 8-14 13-5 2-11 5-13 7-2 1-9 5-16 8-15 8-29 17-40 25-23 17-39 31-49 41-20 21-32 33-40 42-5 6-9 10-10 10-2 0-3-2-6-13-5-18-11-29-28-50-12-13-16-17-29-24-14-8-16-9-37-17-36-12-62-24-80-36-6-4-14-9-18-11s-8-5-10-6c-3-2-29-14-37-17s-20-11-22-15-5-17-5-23c0-4 1-12 3-19s4-20 6-30c1-11 3-20 5-23 1-3 3-9 4-14 2-5 4-11 6-13 2-3 4-8 6-13 7-18 9-20 20-21 8-1 10-2 8-5-1-2-1-2 0-4 3-2 7-17 7-23 0-2 1-9 1-15 1-7 2-18 2-33 0-35 0-42 2-53s2-24 0-28c-1-1-3-2-5-3-3-1-9-3-13-4l-10-3h-40c-23-1-59-1-80-2-24 0-41 0-48 1-11 1-12 1-21 6-5 2-11 6-13 7-2 2-7 5-11 7s-10 6-14 9c-4 2-11 7-16 11-12 8-23 19-30 31-6 10-8 15-9 25-1 5-2 15-3 23-2 24-1 80 3 106 3 16 10 44 15 59 8 23 8 23 7 34 0 5-2 12-2 16-1 4-2 12-2 19 0 15-1 19-9 40C3 440 2 446 1 510c0 39 0 41 2 45 1 2 3 4 4 4 1 1 3 1 4 1 2 1 21 1 43 2 22 0 41 0 41 1 0 0 22 0 66-2z"/></svg>