<svg xmlns="http://www.w3.org/2000/svg" width="1344" height="566"><path d="M0 283V0h1344v566H0V283m1340 276 2-2V64c-1-4-6-9-11-12-7-3-18-7-23-7-3-1-8-2-10-3-4-1-9-2-36-2-43 0-42 0-41 23 1 8 1 27 1 45 1 23 1 33 2 40 1 6 2 12 2 14 0 3 3 14 7 30 4 14 10 23 16 27 3 1 15 5 19 6 5 1 8 5 8 9 0 7-5 15-26 35-6 6-11 12-12 14s-4 9-6 16-4 13-5 14-3 7-5 14c-12 41-15 55-16 97-1 39-2 44-9 53-9 11-28 26-35 28-2 0-4-1-8-2-5-2-12-4-19-6-2-1-6-2-8-3s-7-2-11-3c-6 0-7 0-8 2-3 3-2 6 6 13 4 5 6 7 6 9 0 4-5 10-13 16-10 7-12 9-12 12s4 6 8 6c4 1 6 2 9 6l5 5 34 1c19 0 36 0 38 1h149l2-3m-820 0c17-4 19-5 22-12 2-3 3-7 4-9 0-5-1-8-11-21-5-6-7-8-12-11-4-2-6-4-7-6s-4-6-6-8c-6-4-7-7-8-17 0-9 2-21 7-37 4-11 4-17 3-32-1-8-2-16-2-17-1-1-3-7-5-13-7-26-12-35-22-44-8-7-14-11-20-15-8-6-9-10-4-15 1-2 5-8 8-13 4-10 6-12 14-17 6-3 7-6 9-17 3-12 3-27 2-37-1-4-2-15-3-24-2-27-6-37-20-42-4-2-10-4-13-6-11-4-25-7-34-7-14 0-32 6-42 14-9 8-15 28-17 66-1 10-1 21-1 25-1 4-1 21-2 38-1 25-1 33-2 37-1 3-6 13-11 22-6 11-9 18-10 25-2 5-4 15-6 22-3 10-4 17-4 25-1 6-3 20-4 29-6 30-4 54 4 79 2 6 5 15 6 19 3 10 5 12 15 15 5 2 11 3 13 3 3 0 6 0 8 1s20 1 53 1c29 0 51 0 53 1 6 2 33 0 45-2m391 2c2-1 11-1 19-2 8 0 15-1 16-2 4-2 5-7 4-18-2-13-1-26 2-45 1-9 3-21 4-27 1-11 3-22 6-38 5-26 9-88 7-105-2-16-5-22-33-80-10-20-15-29-25-41-4-5-6-10-7-19-1-3-2-6-3-8s-6-4-11-4-12-7-16-17c-3-7-3-8-4-19 0-10 0-15 3-29 1-9 3-21 4-28 1-10 1-11-1-19-2-9-7-18-12-25-4-5-18-16-25-19-6-3-7-4-23-4-18 0-19 1-38 9-12 5-17 8-23 15-9 9-9 11-10 28 0 8-1 15-1 16-1 2-4 21-4 28 0 4-1 12-2 16-3 12-3 13 0 17 2 1 5 7 8 13 6 12 13 23 16 26 2 3 4 4 12 7 4 1 8 3 10 4 5 1 10 6 10 8 0 1-6 12-8 13-1 0-9 12-13 19-2 3-4 8-5 13-1 9-4 16-12 36-10 21-10 23-19 71 0 5-2 14-4 20-4 13-7 30-11 48-4 22-7 37-9 47-4 14-8 31-9 42-1 4-3 12-3 16-1 5-2 14-3 20-1 12 0 15 4 16s31 0 37-1c7-1 75-1 98 0 48 3 67 3 74 2z"/></svg>