<svg xmlns="http://www.w3.org/2000/svg" width="1344" height="566"><path d="M0 283V0h1344v566H0V283m680 276c70 0 128 0 130-1 4-1 9-3 15-8 2-2 6-4 9-5 4-1 6-2 7-4 4-7 11-18 14-20s6 0 9 5c3 6 25 22 34 25 3 0 11 2 18 3 16 3 82 4 159 4 54 0 57 0 59-1 4-4 2-13-5-20-5-4-11-8-19-12-7-3-15-9-18-14-1-2-4-10-7-17-8-20-12-26-28-36-10-7-13-8-25-12-19-5-28-11-46-27-10-9-12-10-25-17-7-4-13-8-20-14-14-12-39-38-41-42-1-1-2-6-3-10-1-9-3-14-11-30-6-12-10-27-10-35 0-4 1-9 4-15 1-6 4-12 4-14 1-3 2-7 3-10 2-5 2-10 3-26 1-36-4-79-10-93-5-13-15-25-27-33-9-5-11-6-23-9-24-7-43-7-58-2-4 2-12 4-18 4-12 2-20 6-28 13-16 13-22 26-39 79-11 35-17 48-40 87-14 24-18 31-21 45-1 5-3 12-4 14-1 3-2 7-2 11 0 8-1 11-11 21-8 8-16 18-51 62-41 50-43 54-48 68-4 14-13 50-16 65-2 12-1 18 3 20 3 2 31 3 47 2 5 0 66 0 136-1z"/></svg>