<svg xmlns="http://www.w3.org/2000/svg" width="1344" height="566"><path d="M0 283V0h1344v566H0V283m512 276c16 0 41-1 56-2 31-1 137-1 163 0 25 1 147 1 169 0 12-1 37-1 73 0 88 2 85 2 87-1 2-2 2-2 1-7-4-8-17-21-44-41-18-14-33-23-47-30-19-9-34-20-40-29-2-4-2-5-2-10 1-10 16-43 31-69 5-9 12-22 16-29 17-31 19-33 30-41 11-7 17-14 26-27 8-12 11-16 15-30 6-16 6-26 0-31-10-8-9-7-9-13 1-3 3-11 4-19 13-47 19-94 14-116-1-9-7-28-12-40-6-13-11-16-27-19-9-1-175-2-204-1-34 1-38 3-45 14-14 22-21 49-28 102-2 10-4 19-4 21-2 3-5 4-13 6-10 2-16 7-19 18-2 6-2 9-2 20 1 23 8 44 20 57 9 12 10 13 11 17v12c-1 5-1 13-2 19-1 13-4 28-7 38-4 13-17 37-22 41-4 4-7 4-32 4-16 1-26 1-29 2-5 1-8 5-20 23-10 14-22 30-29 36-4 5-19 15-30 22-5 3-13 8-17 11-12 8-30 18-39 22-24 12-54 35-72 55-11 12-10 14 10 16 15 1 25 1 69-1z"/></svg>