<svg xmlns="http://www.w3.org/2000/svg" width="1344" height="566"><path d="M0 283V0h1344v566H0V283m766 278c35 0 74 0 85-1 18-1 20-1 22-3 2-1 2-2 2-7-1-7-7-25-16-47-8-23-9-25-9-34s-2-14-8-19c-3-3-52-28-74-38-22-9-51-25-55-28s-6-9-8-22c-1-13-1-16 0-29 0-8 2-18 3-22 1-3 2-11 3-17 0-5 1-11 2-13s1-7 1-11c0-9-4-42-6-50-1-2-3-7-3-11-8-33-16-59-27-84-5-11-17-31-24-41-8-10-24-26-33-32-9-7-26-15-37-18-16-6-46-8-58-5-6 2-17 7-21 10-5 4-8 5-19 8-15 4-20 7-29 17-9 8-14 16-21 33-15 35-22 68-24 123-2 47-1 104 2 151 1 16 0 23-3 25-1 0-4 2-7 3s-10 3-15 6-15 7-22 11c-12 5-37 17-54 25-9 4-10 6-9 15 1 4 1 10 1 15 0 11 1 14 10 23 12 11 23 18 37 23 3 2 10 5 14 8 9 5 24 13 38 20 4 3 15 7 22 9 13 5 14 5 32 6 9 0 38 1 64 2h46c0 1 133 0 198-1z"/></svg>