<svg xmlns="http://www.w3.org/2000/svg" width="1344" height="566"><path d="M0 283V0h1344v566H0V283m717 277c5-1 25-1 93-2h92c2 0 40 0 83 1 87 1 113 1 115-1 3-2 2-9-3-26-7-21-13-36-18-45-8-13-8-14-13-22-10-15-24-31-35-41-14-12-36-25-53-33-20-8-57-27-66-33-1-2-6-5-11-7-5-3-9-6-10-7-3-2-29-15-37-17-4-2-14-4-22-5-8-2-16-4-18-4-4-2-7-8-8-17-2-8 0-13 4-21 8-12 12-23 16-42 4-22 4-40-2-48-1-2-4-6-6-9-5-8-7-14-10-33-4-20-7-32-12-43s-11-19-23-31c-9-8-12-10-21-15-15-7-40-14-59-16-16-1-54 7-71 15-33 17-60 49-68 82-2 7-2 11-2 24 0 9 0 19 1 22 1 8 5 26 6 33 2 7 1 9-5 13-9 5-19 11-29 20-22 17-37 26-59 35-15 5-17 7-22 23-2 7-4 15-5 18-6 25-13 48-24 76-4 12-10 28-13 36-7 25-11 34-15 34-2 0-5-4-6-9-13-54-15-61-27-82-15-24-29-39-55-56-12-8-42-23-55-28-14-5-46-19-54-24-4-2-9-5-10-7-3-3-3-3-2-4s6-2 12-3c5 0 13-2 17-3 5-2 7-3 12-8s7-8 14-24 11-25 16-43c4-9 5-12 9-16 2-1 5-4 6-7 3-5 2-16-1-34-4-17-4-28-1-36 3-5 5-15 7-28 0-5-3-15-10-34-7-16-9-20-15-22-3-1-28-2-120-2C8 4 6 5 4 6L1 8v271c0 268 0 271 2 275 2 5 7 7 15 6 3-1 21-1 40-2 19 0 53 0 76-1 22 0 43-1 46-1h16c7-1 14-1 22 0 6 1 21 1 37 1 109-1 199 0 202 1 8 3 27 3 124 3 53 1 97 1 98 1 1 1 31 0 38-2z"/></svg>