<svg xmlns="http://www.w3.org/2000/svg" width="1344" height="566"><path d="M0 283V0h1344v566H0V283m820 275c3-1 29-1 57-1 45 0 53 0 55-2 2-1 8-1 22-2 11 0 20-1 22-1 3-1 7-2 9-2 6-1 24-9 26-12 1-2 1-4 1-11-1-5-1-11-2-14 0-3-2-12-3-19s-4-22-7-34c-3-10-5-22-6-25 0-4-1-9-3-12-4-7-12-41-19-77-7-32-9-41-14-56-5-19-6-24-15-68-1-6-2-13-2-14 0-6 5-11 15-16 8-4 11-6 23-19 15-15 15-15 21-27s10-25 10-32c0-4-4-17-6-23-4-7-14-16-24-21-8-4-21-5-35-3-14 3-26 11-32 20-2 3-7 12-11 20-9 17-18 27-26 31-5 3-6 3-18 2-14 0-16 0-19 7-2 4-5 6-20 14-20 12-44 32-55 47-5 7-6 10-11 35-2 11-6 28-9 38-8 31-9 37-9 43 0 4-1 11-1 16-1 5-2 13-3 18 0 5-1 11-1 13-2 9-6 37-7 44 0 10-4 37-6 52-3 18-3 27 0 30 1 2 7 6 13 8 6 3 13 8 16 10 3 3 9 6 12 8 4 2 8 5 8 6 1 2 1 7 1 15 0 17-1 16 28 15 10 0 21-1 25-1z"/></svg>