<svg xmlns="http://www.w3.org/2000/svg" width="1344" height="566"><path d="M0 283V0h1344v566H0V283m737 278c53-2 67-2 87-1 10 1 28 1 38 1 12 1 31 1 44 2 18 0 29 0 42-1 25-2 25-3 20-23-3-14-3-11-9-88-2-29-3-36-13-64-5-15-8-20-14-27s-18-14-41-23c-10-3-22-11-30-18-5-5-7-8-11-16s-5-12-5-17v-7c1 0 1-6 1-12 1-6 2-15 2-19 4-18 4-63 1-88 0-4-1-11-2-16-1-23-9-39-26-55-19-18-40-28-62-30-9 0-18 0-44 3-21 3-41 13-53 28-6 6-11 17-15 26-2 7-2 8-2 24-1 19 1 30 6 49 6 20 5 22-10 30-21 10-35 25-46 48-6 11-8 20-12 42-4 23-9 37-16 45-9 10-11 13-13 18-1 3-3 8-4 10-2 5-3 6-9 9-8 3-8 4-17 26-7 18-9 22-13 25-2 1-7 6-11 10-9 9-14 18-25 44-12 29-17 43-17 53s1 11 45 10c67-1 84-1 93 1 19 3 58 3 141 1z"/></svg>