<svg xmlns="http://www.w3.org/2000/svg" width="1344" height="566"><path d="M0 283V0h1344v566H0V283m606 277c10-1 22-1 26-1 5 0 40 0 78 1h89c20 0 21 0 24-2 4-3 5-7 3-24-1-17-6-36-15-62-3-10-7-22-9-26-1-4-3-11-5-14-3-7-4-10-2-21l1-7-4-4c-3-3-28-15-38-19-3-1-12-5-21-9s-17-8-18-8c-6-2-28-13-31-16-2-3-2-4-2-12 0-11 4-53 7-69 3-19 2-46-3-91-1-6-2-15-3-20-2-27-8-57-16-72-4-9-18-28-28-38-13-14-42-30-64-35l-10-2-9 2c-5 1-13 3-17 5s-10 3-17 4c-18 2-26 5-37 16-17 16-31 41-41 74-5 18-6 24-12 55-10 63-13 99-10 129 1 9 2 18 3 21s1 9 1 13c0 7 0 9-2 12-4 6-13 10-26 12-7 1-16 3-22 5-15 6-45 19-51 22-3 2-9 5-13 7-12 6-13 8-20 29-7 19-12 32-20 47-2 5-6 14-9 20-8 20-22 63-22 67 0 3 2 6 9 8 6 1 41 3 79 2h19c1 0 8 0 16-1 15 0 32 0 80 1 20 1 45 2 58 2 29 1 82 0 104-1z"/></svg>