<svg xmlns="http://www.w3.org/2000/svg" width="1344" height="566"><path d="M0 283V0h1344v566H0V283m760 194c6-1 14-3 17-4 4-1 15-4 25-6 11-3 23-6 26-7 4-1 12-3 18-4 14-4 26-5 46-4 24 2 24 2 22-18-1-5-1-12-2-14-1-6-3-25-4-52-1-21-3-30-8-35-1-2-6-5-10-8-9-5-14-8-20-14-3-2-7-4-13-6-13-4-19-7-19-10 0-2 1-3 5-4 7-2 8-4 7-13-1-3-2-13-2-20-1-8-3-18-3-23-1-5-2-11-3-14-2-12-4-24-7-36-2-8-4-16-4-19-8-30-20-61-31-78-14-21-48-44-72-49-15-3-30 0-42 7-3 1-6 2-12 3-13 1-18 3-24 7-13 7-27 27-34 48-6 15-9 29-11 42-1 3-2 9-3 11 0 2-2 13-2 23-3 26-1 90 3 110 1 3 1 7 1 9 0 6-6 7-20 5-10-3-32-4-36-2-3 1-7 4-14 11-7 8-12 12-16 13-3 2-8 5-11 7-13 9-19 14-31 21-6 4-15 10-18 13-9 7-14 9-25 9-10 0-12 1-13 10-1 7-5 19-12 32-3 7-9 24-11 34-1 3-3 8-4 10-1 5-1 5 0 7 4 4 11 3 26-3 7-3 15-5 17-5 2-1 8-2 12-3 10-2 51-1 63 1 4 0 6 0 8-2s4-2 11-2c5 0 11 1 14 2 18 5 41 9 62 10 13 1 15 1 24-1 11-2 16-2 32-1 6 1 16 2 20 2 14 1 27 5 33 8l5 4 15-1c8 0 19-1 25-1z"/></svg>