<svg xmlns="http://www.w3.org/2000/svg" width="1344" height="566"><path d="M0 283V0h1344v566H0V283m814 274h103c87 2 176 2 178 0 4-3 2-8-9-24-9-15-39-45-56-59-10-7-28-19-53-33-10-5-18-10-34-22-4-2-11-7-17-9-26-13-23-11-45-33-24-24-27-26-41-28-11 0-14-2-17-7-4-9-3-11 14-28 12-12 15-16 18-22 6-11 9-22 8-31 0-2-2-6-5-10l-4-7v-7c1-4 2-10 3-13s4-13 6-21c8-30 11-51 11-69 0-12 0-13-2-18-3-5-4-9-5-24l-1-11-9-19c-11-21-14-26-21-32-8-7-13-9-34-14-16-5-20-5-34-5-28 0-45 3-62 12-11 5-20 9-36 14-15 5-31 16-40 26-8 9-16 21-19 27-5 8-10 23-13 38-2 7-4 18-6 25-5 23-8 42-11 77-2 24-2 35-1 51 2 25 6 43 15 62s14 33 17 47c2 16 0 20-13 27-8 4-14 7-36 16-29 11-50 24-77 44-17 14-24 21-32 35-4 6-10 16-13 22-8 12-9 16-5 20s0 4 83 3c23 0 43 0 44 1 4 1 189 0 251-1z"/></svg>