<svg xmlns="http://www.w3.org/2000/svg" width="1344" height="566"><path d="M0 283V0h1344v566H0V283m896 278h21c17 0 21-1 22-5 1-1 1-11 1-22 0-17 0-21 1-25 3-7 3-17-1-30-2-6-5-13-5-17-1-3-3-10-4-14-5-16-7-28-8-37-2-15-5-30-9-43-5-13-10-33-14-48-3-16-9-27-17-31-2-1-9-3-15-5-7-2-15-4-17-6-6-3-12-9-12-12 0-2-6-18-10-25l-4-8v-18c0-43-5-63-18-76-12-12-24-18-39-19-11 0-36 3-42 6-6 2-20 15-24 21-5 8-8 16-9 25s-1 11 1 21c2 12 3 20 1 25-1 1-3 4-5 7-2 2-5 6-7 8-1 3-5 7-7 11-11 15-15 27-17 48-1 8-1 9-4 13-7 11-9 14-10 22-1 9-3 14-8 25-2 4-5 11-5 14-2 5-4 10-7 14-8 12-17 32-21 49-4 15-1 37 5 47 8 12 24 18 38 15 7-2 12-5 19-11 3-3 6-6 7-6 3 0 3 5 3 24-1 10-1 27 0 38 1 19 1 19 3 22 2 2 4 2 9 3h208z"/></svg>