<svg xmlns="http://www.w3.org/2000/svg" width="1344" height="566"><path d="M0 283V0h1344v566H0V283m716 279c78 1 98 0 117-2 9-1 11-5 8-18-2-6-4-17-6-27-1-5-2-7-5-10-1-2-4-6-5-9s-3-9-5-13c-4-9-6-17-6-25 0-7-1-10-6-14-4-5-19-14-25-16-2 0-14-6-25-11-22-10-31-14-50-23-20-8-33-16-37-20s-5-6-6-23c-1-13 0-27 3-54 1-10 2-24 2-33 0-18 0-24-7-50-2-9-3-18-4-21 0-3-2-8-3-12s-3-10-4-15c-2-5-4-12-5-17-3-10-12-31-16-40-10-20-23-38-36-49-21-19-42-29-67-35-11-3-35-3-42-1s-19 7-26 12c-4 2-12 6-18 8-20 6-31 17-45 44-6 13-9 22-12 36-8 30-10 54-10 110-1 47 0 61 6 104 5 32 5 35 5 42s-2 10-5 10c-4 0-35 11-48 17-5 2-18 9-31 14-32 14-32 15-32 22 0 11 18 33 36 43 3 2 7 4 8 6 2 1 7 4 11 7 4 2 14 8 22 15 20 15 34 22 51 28 2 0 6 2 8 3 6 3 27 12 35 14 10 3 27 4 133 3h142z"/></svg>