<svg xmlns="http://www.w3.org/2000/svg" width="1344" height="566"><path d="M0 283V0h1344v566H0V283m342 278c20 0 53 0 74-1 22 0 42 0 50 1 22 2 59 2 78 0 17-2 19-2 44 0 31 2 160 3 164 1 4-1 4-3-1-5-16-8-47-18-71-21-14-2-19-6-31-22-11-14-13-20-13-24 1-6 15-30 26-45 6-8 13-21 17-33 1-3 4-15 6-26 3-16 4-23 5-41 2-38-1-84-7-111-4-17-18-48-25-58-16-19-30-30-56-42-18-9-42-13-75-13-22 0-27 0-47 8-18 8-33 18-48 33-19 20-29 44-35 85-2 11-4 26-6 33-4 20-6 29-5 43 0 12 0 12 3 19 3 5 4 9 5 15 1 4 1 10 2 13 1 4 1 10 2 14 1 5 2 13 4 18 3 12 5 23 5 32 0 5 1 10 3 17 2 6 4 13 4 15 0 5-3 10-14 20-12 12-14 13-40 17-11 1-22 3-26 3-4 1-11 3-18 4-18 4-31 7-45 11-27 8-42 14-47 20-3 4-8 13-8 15 0 6 12 7 57 6 18 0 50 0 69-1z"/></svg>