<svg xmlns="http://www.w3.org/2000/svg" width="1344" height="566"><path d="M0 283V0h1344v566H0V283m478 276c7-1 34-1 43 0 13 2 301 2 306 0 3-1 14-1 54 0 75 1 132 0 138-3 4-1 5-5 5-14 0-5-1-11-1-13-3-12-5-31-6-49-1-10-2-22-3-27-1-8-1-11 2-24 1-6-14-27-20-29-7-1-33-12-50-21-8-4-12-7-18-12-11-11-10-10-11-19 0-4 0-10-1-14-3-8-4-25-5-69-2-67-4-96-10-123-4-18-6-25-10-35-14-30-33-49-68-64-19-8-29-11-43-11-17 0-52 6-73 13-25 8-31 12-36 25-4 11-10 21-16 30-6 8-14 22-21 34-4 9-8 20-9 35-3 23-4 27-17 44-11 15-12 19-7 31 3 10 5 30 3 39-1 5-1 9 0 16 1 6 1 13 0 17-1 11 1 18 6 23 4 5 7 7 19 12 8 3 10 5 9 7 0 3-2 3-11 1-11-1-23-1-31 1-3 0-11 2-18 4s-19 4-26 6-19 5-25 6c-20 3-28 6-37 13-9 6-16 11-24 15-23 14-28 17-33 25-8 12-13 14-45 15-34 1-40 3-43 13l-1 4 6 6c4 4 7 8 7 9 1 2-3 16-8 29-2 5-5 11-5 13s-1 5-2 7c-1 1-2 4-2 5s-1 2-1 4c-2 2-7 14-7 16s4 4 11 4c24 2 42 3 67 4 15 1 30 1 34 2 6 1 27 0 34-1z"/></svg>