<svg xmlns="http://www.w3.org/2000/svg" width="1344" height="566"><path d="M0 283V0h1344v566H0V283m680 278c2-1 6-2 9-4 4-2 6-3 8-7 1-3 2-6 2-7 0-2 4-8 6-10s6-11 7-17c2-13-6-45-17-67-4-9-4-10-5-20 0-7-1-10-2-12-2-4-12-8-36-18-27-11-58-24-63-26-3-2-6-5-9-6l-3-4v-7c1-9 7-25 15-43 2-4 4-9 4-9 0-1 1-3 2-6s2-9 4-20c1-19 1-31 0-42-1-5-3-15-3-21-3-14-6-32-8-44-5-24-6-30-10-43-7-25-15-45-26-60-6-8-22-23-29-29-16-10-37-19-54-22-10-2-25-1-35 3-4 2-10 3-13 4-8 1-22 5-29 9-16 7-34 25-43 43-11 22-21 63-27 116-6 40-8 118-5 136 0 4 1 15 2 23 1 14 1 16 0 19-5 6-26 17-43 22-15 5-23 9-40 22-19 14-19 14-27 18-11 7-23 15-26 18-4 3-6 8-6 14 0 5-2 11-6 22-1 3-3 10-5 14-2 8-7 38-8 50 0 10-1 10 23 10h53c15 0 35-1 44-1 9-1 17-1 17 0 2 0 138 1 234 1 5 0 19 0 31 1 23 1 109 0 117 0z"/></svg>