<svg xmlns="http://www.w3.org/2000/svg" width="1344" height="566"><path d="M0 283V0h1344v566H0V283m762 276c29 0 37 0 104 1 24 0 40 0 50-1 18-1 18-1 18-12-1-6-10-44-18-73-3-12-11-47-12-54 0-4-2-11-3-18-3-15-4-32-2-42l1-8-4-8c-2-5-4-10-4-12-3-14-7-40-9-48s-6-17-12-32c-4-8-4-8-29-25-21-14-29-24-31-35-1-3-1-4 2-7 1-2 3-6 3-8 1-2 2-5 3-7s3-9 5-16c3-12 3-13 3-25-1-20-6-40-13-55-6-12-16-21-28-27l-8-3h-18c-15 0-19 0-24 2-18 6-32 22-35 41-1 10-1 24 0 34 3 12 3 14-2 20-8 11-10 15-12 21-4 14-5 20-5 31 0 20-3 26-18 30-4 2-9 3-10 3-3 0-18 8-22 11-4 4-6 10-6 21-1 7-2 15-3 20 0 4-1 17-2 30-1 12-1 26-2 31-2 16-1 21 2 31 6 16 13 25 27 33 10 6 11 9 11 19-1 10-4 20-14 57-3 7-5 19-7 33-2 18-2 23-5 29-5 12-2 16 12 18 9 1 57 2 73 1 8 0 28 0 44-1z"/></svg>