<svg xmlns="http://www.w3.org/2000/svg" width="1344" height="566"><path d="M0 283V0h1344v566H0V283m795 279c3-1 1-4-4-7-3-1-8-4-11-6-7-4-19-8-35-13-14-3-17-5-41-18-16-9-29-19-36-28-2-2-7-11-12-18-12-18-18-25-29-32-16-10-30-16-48-20-10-2-13-5-13-11 0-5 2-8 7-16 5-6 5-6 15-9 10-4 16-7 21-13 5-5 9-14 12-26 1-5 3-11 4-15 1-3 3-10 4-15 2-5 5-14 8-20s6-13 8-17c1-3 3-7 4-8 2-1 5-1 12-1h10l8 8c5 5 8 7 9 6 2-1 6-12 10-27 5-20 4-35-7-70-16-54-21-68-34-89-14-22-26-36-39-45-9-7-28-15-40-17-5-1-12-3-15-4-3 0-9-2-13-2-4-1-10-3-13-4-7-1-58-3-68-2-12 2-32 10-46 18-9 6-26 23-32 33-7 10-17 28-20 37-5 17-6 35-3 58 0 6 2 20 3 30 1 11 3 22 5 28 4 15 3 22-5 41l-3 10v38l-4 5c-1 3-6 10-10 15-3 5-8 11-10 14-4 6-13 13-21 17-6 3-21 6-35 8-7 1-15 3-18 4-4 1-10 3-14 4-10 2-21 5-29 9-12 6-22 16-28 29-3 5-5 11-5 13-4 20-7 37-9 50-6 23-8 50-5 62 2 9 11 12 39 14 11 1 106 1 227 1 115 1 208 1 209 1 0 1 138 1 140 0z"/></svg>