<svg xmlns="http://www.w3.org/2000/svg" width="1344" height="566"><path d="M0 283V0h1344v566H0V283m246 275c4-7 2-28-4-58-1-8-3-18-4-24s-3-12-5-16c-5-10-5-15 0-17 6-2 7-5 6-14 0-4-1-10-2-13-2-5-2-9-2-29-1-21-2-36-4-38 0-1-1-7-2-13 0-7-2-16-2-20-1-5-2-10-2-11 0-5 1-5 14-6 15 0 17-1 21-9 3-6 3-4 2-51 0-8 1-12 13-25 9-9 13-16 14-24 0-3 0-4-3-7-1-2-5-3-7-4-4-1-7-1-18 1-4 0-6 0-12-3-4-2-8-3-9-3s-7 2-12 5c-12 6-14 8-12 18 2 16 1 18-10 19-7 1-10 1-28-5-16-5-24-11-21-16 0-2 4-5 8-7s8-6 10-8c2-3 2-4 2-19v-15l-4-8c-2-5-4-9-4-11s-1-7-2-10-2-7-2-9c-3-12-25-23-47-23-8 0-10 0-14 2-3 1-6 2-7 2s-3 1-5 2c-8 5-11 8-14 14-2 6-2 8-2 16 0 6 0 10 1 12 1 1 3 3 6 4 6 4 12 8 14 12 0 2 4 6 7 10 7 7 12 15 13 20 1 1 3 6 5 9 8 12 9 14 7 26-1 6-2 14-3 18-2 7-2 9-5 12-12 9-12 9-13 14 0 5 0 6 7 10 10 6 17 13 29 30 1 1 3 9 5 22 1 2 2 7 3 10 3 8 3 13 0 17-3 5-4 11-2 13 3 2 2 2 9-1 5-2 6-3 6-6 0-2 1-4 2-5 2-2 9-4 17-4 7 0 9 2 9 10 0 4 0 9 1 13s1 11 2 16 1 14 2 19c1 12 0 17-4 26-5 10-11 14-25 14-6 1-11 1-11 2-1 0-2 4-2 7-1 9 1 16 13 43 15 35 30 62 36 65 4 2 12 3 26 3h13l2-4z"/></svg>