<svg xmlns="http://www.w3.org/2000/svg" width="1344" height="566"><path d="M0 283V0h1344v566H0V283m221 279c2-1 14-1 26-1h379c75 0 81 0 84-1 10-6 9-15-3-28-11-11-16-15-21-16-3 0-10-4-16-7l-20-10c-13-6-19-12-22-20-2-6-2-25 0-37 0-3 1-15 1-25-1-28-3-45-8-62-2-4-3-11-4-15-1-5-1-11-2-15s-1-9-2-13c0-4-1-9-4-13-1-4-4-11-5-15s-4-12-6-18c-2-5-4-13-5-16-1-4-3-10-4-14s-3-10-3-12c-2-6-4-12-9-26-6-18-13-27-27-38-21-16-51-27-75-28-20-1-32 3-61 17-15 7-18 9-24 15-8 7-11 12-20 34-7 17-8 19-9 41-1 10-1 18-1 19-1 1-1 3-1 4-1 4-4 4-10-2-6-7-7-9-4-16 3-10 10-31 12-40 1-6 1-12 1-32 0-22 0-24-2-35-4-15-9-25-16-32-10-10-21-14-43-18-14-3-20-2-32 0-13 3-21 7-28 14-11 11-14 21-14 43-1 16 2 29 11 59 3 8 3 25 1 29 0 1-3 3-6 3-7 3-8 4-17 15-9 12-49 53-61 63-9 7-20 19-23 25-8 15-11 31-14 78-3 46-2 55 2 67 6 16 12 35 13 41 4 17 8 28 13 32 3 3 11 5 20 6 10 1 55 1 59 0m985-3c7-5 12-10 15-16 2-4 2-6 2-13s0-8-3-14c-4-8-10-25-11-35-1-5-3-17-4-29-3-27-5-41-9-68-8-48-12-71-15-80-4-11-14-28-23-36-10-9-20-16-52-34-15-8-27-17-30-21-2-5-1-7 4-16 20-36 24-44 26-55 7-43 7-49 3-61-3-11-10-20-24-31-8-7-12-9-22-12-12-3-33 0-46 5-5 2-14 11-18 16-3 5-7 17-10 29-3 11-7 20-12 25-11 12-10 20 1 51 2 5 2 14 0 19-4 10-40 30-66 38-16 5-17 5-34 15-22 14-31 21-41 34-11 15-16 27-26 64-3 12-7 25-8 29-5 16-11 42-13 53-2 13-2 22 2 50 1 8 2 19 2 26 0 13 2 23 5 30 1 2 3 9 5 16 4 14 6 18 10 20 3 1 26 2 178 1 144 0 169 0 176 2 3 2 8 2 19 2l14-1 5-3z"/></svg>