<svg xmlns="http://www.w3.org/2000/svg" width="1344" height="566"><path d="M0 283V0h1344v566H0V283m724 277h131c84 0 83 0 94-9 2-3 7-5 11-7 15-6 22-13 25-24 3-14 1-19-8-28s-11-9-29-10c-7 0-18 0-25-1-27-2-29-3-31-10s-7-10-15-10c-16 0-33 8-52 24-9 7-13 9-26 12-15 3-16 3-20-1s-8-12-27-58c-7-16-12-29-25-56-4-9-7-17-7-19 0-7 12-22 29-36 4-3 8-7 10-9s6-6 9-8c6-4 9-8 10-14 1-1 2-8 2-16 3-19 6-28 20-54 10-17 28-50 30-55 0-2 1-6 1-8 0-6-1-8-15-22-8-7-12-12-15-18-6-10-11-16-23-26-19-15-41-27-65-35-15-5-22-6-40-6-21 1-30 3-46 11-11 6-12 6-23 18-21 22-27 32-41 59-4 8-9 17-11 20-4 6-14 16-18 18s-24 9-31 11c-4 0-10 3-14 5-6 3-9 5-18 15-14 15-17 19-18 33-1 5-1 11-2 12 0 2-2 11-4 20-3 16-3 16-2 20 2 4 6 9 17 18 3 3 3 3 3 9-1 4-2 8-6 15-3 6-11 22-18 37-6 15-13 29-14 32-2 3-4 9-5 13-2 7-2 9-2 25 1 34 0 44-1 60-2 21-3 24-7 25-6 0-19-9-42-28-5-4-13-11-18-14-7-5-13-11-30-28-12-13-26-27-31-32-6-6-9-10-10-12-2-6-1-14 1-22 2-3 4-10 4-15 1-5 4-13 5-18 3-9 3-10 3-23 0-15-1-25-5-31 0-2-4-6-6-9-9-9-9-8-5-29 2-12 1-36-2-39s-8-3-12 0c-3 2-18 18-19 21-1 1-1 7-2 15 0 17 0 17-13 19-5 0-10 1-13 1-14 0-28 18-38 48-5 14-10 41-12 62-1 13-3 17-11 23-4 2-6 5-5 8s10 14 18 22 11 14 12 24c2 16 7 28 17 38 14 15 34 28 50 33 12 3 37 5 62 3 20-2 40-1 70 1 6 1 17 1 24 1 14 0 23 1 30 5 5 1 9 2 16 3 5 0 50 1 99 1s90 0 90 1c0 0 6 0 12-1h73z"/></svg>