<svg xmlns="http://www.w3.org/2000/svg" width="1344" height="566"><path d="M0 283V0h1344v566H0V283m961 165c6-3 7-8 3-13-2-2-2-4-2-6 1-3 1-3-1-4-3-1-8-7-8-9 0 0-2-4-4-9s-4-11-5-13c-2-5-3-9-7-24-3-11-6-24-8-28-1-2-2-6-4-10-1-4-2-8-2-10 0-4 0-5 3-6 2 0 5-2 7-3 1-1 4-2 6-2 3-1 4-1 6 1s3 4 4 6c3 13 5 17 17 29 6 5 7 7 8 12 1 3 3 8 5 10 1 2 4 6 5 8 2 2 5 7 7 9 2 3 5 7 6 9 4 11 11 14 11 4 0-4 4-9 10-13 7-5 11-11 13-18 1-6 1-37 0-44-1-4-2-9-2-13-2-11-9-25-22-38-6-7-13-11-21-12-4 0-7-1-7-2-1-1-2-6-2-19 0-16 0-19-2-24-4-13-15-27-24-34-20-15-25-19-32-33-7-15-11-18-20-21-5 0-9-6-12-14-7-17-10-23-18-32-7-7-13-9-24-9-9 0-11 0-17 4-10 4-18 11-24 21-6 9-7 13-5 20 1 7 11 28 16 35 6 8 15 17 20 20 5 2 6 2 14 1 11 0 14 1 16 5 1 2 3 14 5 27 2 17 6 29 14 46 2 5 4 11 5 14 0 4 0 5-2 7-1 1-5 3-8 4-8 2-15 6-20 10-2 2-5 4-6 5-6 4-6 5 4 26 11 21 14 29 18 42 1 5 3 12 4 16 3 11 5 13 12 13 10 0 16 6 22 21 2 6 2 8 1 11-2 7-1 10 3 15 5 4 10 7 22 12 8 3 17 3 22 0z"/></svg>