<svg xmlns="http://www.w3.org/2000/svg" width="1344" height="566"><path d="M0 283V0h1344v566H0V283m345 277c36 0 66-1 67-1h8c5 1 8 1 11 0s6-1 13 0c8 1 33 1 128 2h165c39 1 95 0 102-2 4 0 5-3 5-12-1-5-1-12 0-16v-15c-2-7-2-8-7-13-4-4-8-6-21-13-42-20-50-24-72-35-33-18-35-19-33-27 0-3 2-6 2-8 1-2 3-10 5-17 5-24 7-29 12-44 6-14 9-27 11-37 0-2 1-9 2-14 3-14 2-45-2-71-1-6-2-15-3-19 0-4-1-11-2-14 0-4-1-9-1-12 0-12-9-52-17-75-5-14-17-37-25-48-10-14-30-32-46-40-11-7-33-16-43-19-9-2-12-2-24-2-11 0-14 0-29 4-9 2-18 5-20 6-3 2-9 4-16 5-15 3-19 5-27 10-17 11-33 31-44 55-14 32-24 74-31 131-2 14-4 31-5 39-1 11-1 22-1 42 0 28 0 29 3 46 5 30 7 38 10 52 2 8 4 17 5 21 0 5 0 6-3 9s-13 7-32 10c-14 3-22 6-42 19-21 13-43 25-54 30s-27 16-32 22c-2 2-4 5-5 9-1 6-6 20-9 28-2 7-2 10 2 13 2 2 15 3 24 2 3 0 35 0 71-1z"/></svg>