<svg xmlns="http://www.w3.org/2000/svg" width="1344" height="566"><path d="M0 283V0h1344v566H0V283m751 276c4-2 5-4 6-12 0-3 2-7 2-9 3-5 3-11 2-22-3-16-4-29-3-31 1-1 2-2 3-2 2 0 11 9 18 19 8 12 16 21 22 25 5 3 6 4 12 15 3 7 7 13 8 14 2 2 5 2 11 3 10 0 14-1 16-5s0-9-7-19c-8-11-13-20-14-25-2-4-8-14-18-27-16-21-18-25-18-36 0-10 6-39 12-55 1-4 3-12 5-19 2-12 2-14 2-39l-1-26 3-4c1-2 3-4 4-6 6-6 10-23 10-41 0-14-3-43-5-50-1-2-2-7-3-9-3-15-4-16-9-22-9-9-14-22-20-52-5-26-7-29-21-36-7-3-7-3-16-3-9 1-12 1-22 6-6 3-7 4-9 30-1 9-1 14 0 20 1 4 1 11 1 15 0 12-2 14-14 20-6 2-10 4-11 6-1 1-4 6-7 10-4 3-9 9-11 12s-11 12-19 21c-15 16-16 17-32 23-7 3-9 3-15 0-6-2-14-3-17 0-1 0-3 3-5 5-1 2-4 5-6 6s-4 3-4 3c0 3 8 9 13 10 3 1 7 3 10 4 9 6 12 7 20 7 5 0 11 0 14-1 7-2 22-5 35-6 11-1 16-3 24-10 5-4 7-5 8-2 1 0 1 7 1 14 0 11 0 14 2 17 1 2 2 5 2 6 1 2 3 5 4 7 3 3 4 5 4 11 2 16 1 39 0 52-2 17-2 35-1 48 1 5 2 16 2 24 1 20 4 39 8 63 3 15 7 42 7 46 0 7 10 11 17 7z"/></svg>