<svg xmlns="http://www.w3.org/2000/svg" width="1344" height="566"><path d="M0 283V0h1344v566H0V283m682 275c13 0 29-1 36-3 2-1 13-1 28 0 52 1 65 1 67-1 1-2 1-2-1-4-1-1-7-7-13-12-7-6-17-14-22-19-8-7-11-9-23-15-16-7-23-12-33-21-4-4-9-9-12-10-2-2-4-3-5-4-1-2-3-10-3-19-1-3-2-8-3-10-2-8-2-22-1-36l1-12 7-11c18-31 20-34 20-45 1-6 1-9 2-10 2-1 2-4 2-10 1-5 1-9 2-11 1-1 2-7 3-12 1-4 1-9 2-9 0 0 0-6 1-13 1-14 5-31 8-37 3-4 6-7 15-12 8-5 11-8 9-12-1-4-1-34 0-45 1-4 3-12 5-19 12-30 14-38 10-55-2-9-3-14-8-24-6-12-7-13-20-26-11-10-13-13-14-17-3-13-5-14-22-16-7 0-17-1-24-2-8-1-64-1-244-1-219 0-236 0-258 2-13 1-26 2-28 3-3 0-8 2-13 2-12 3-17 5-27 14-6 6-9 9-11 14-1 3-4 8-7 10-4 4-4 6-5 10 0 4-1 5-5 7-2 1-6 3-7 6-4 5-6 6-9 5-2 0-3 0-4 2s-3 3-4 3-6-2-11-4c-7-3-10-4-12-4-2 1-6 1-9 2-6 1-8 3-5 4 12 4 19 10 19 15 0 6-4 22-7 26-2 4-3 5-3 8 1 5-1 10-6 16s-9 14-11 20c-1 6-4 13-8 25-2 6-4 15-5 20-1 4-2 10-3 12-1 3-3 9-5 14-2 9-2 12-3 32 0 12 0 67-1 121-1 55-1 112-1 128 1 30 1 32 6 35 5 2 19 3 36 2 16-1 173 1 175 1 0 1 46 1 102 2 55 0 117 1 136 1 30 1 186 0 224-1z"/></svg>