<svg xmlns="http://www.w3.org/2000/svg" width="1344" height="566"><path d="M0 283V0h1344v566H0V283m671 276c45-1 420-1 438 0 16 1 61 0 67-1 2-1 4-5 3-9-2-8-18-43-28-60-16-27-42-50-75-67-9-5-19-10-22-11s-11-4-18-8c-7-3-15-6-18-8-3-1-10-5-16-8-12-7-25-13-42-19-14-6-22-11-39-25-15-12-17-16-15-28 2-11 5-25 9-32 2-5 4-7 8-9 2-2 5-3 6-3 5 0 20-13 27-23 6-10 9-17 10-27 0-11 0-13-6-19-5-4-5-6-1-25 7-28 9-44 10-61 0-11 0-16-1-20-1-3-3-8-4-12-2-10-10-24-16-29-15-15-24-22-38-29-4-2-9-5-13-7-9-5-20-9-33-9-8-1-10-1-13 0-1 1-7 2-16 2-19 1-28 4-50 15-13 7-19 12-27 23-9 13-18 39-22 62-5 32-7 41-8 44-1 2-4 5-7 7-8 7-10 13-11 24-1 15 3 28 12 48 3 7 5 14 8 31 1 5 3 15 5 22 1 8 2 17 3 26 0 12 0 13-2 16-3 4-27 24-34 29-14 9-28 16-34 16-2 0-18 6-40 16-11 4-26 11-34 14-22 9-46 21-56 28-38 26-74 82-74 115 0 6 0 7 3 9 2 2 2 2 54 2 29-1 59-1 67 0 14 1 25 1 83 0z"/></svg>