<svg xmlns="http://www.w3.org/2000/svg" width="1344" height="566"><path d="M0 283V0h1344v566H0V283m364 276c29-1 226-2 286-1 29 1 74 1 100 2 40 1 49 1 58 0 18-3 20-5 19-27s-6-39-14-50c-6-7-22-21-41-34-26-17-32-20-48-30-2-1-8-6-12-10-7-7-16-20-30-45-5-11-5-14 5-34 4-9 11-23 15-32s9-21 12-26c13-30 14-32 16-62 0-13 1-28 2-32 2-15 2-35 1-49-4-44-18-77-42-98-21-18-31-24-41-26-5-1-23-1-64-1-54 1-57 1-63 3-17 5-46 35-58 59-9 19-12 33-10 66 1 35 1 43-2 48-1 2-3 7-4 11-1 6-1 9 0 19 2 22 7 33 19 46 4 5 11 13 16 18 10 11 14 18 16 25 1 5 1 6-1 12-3 4-7 9-22 25-28 28-34 32-62 41-11 4-54 20-80 29-14 5-25 11-32 18-6 6-8 9-13 21-2 4-5 11-7 16-8 17-15 36-18 46-2 5-5 14-6 19-10 30-10 33 9 34 11 1 70 0 96-1z"/></svg>