<svg xmlns="http://www.w3.org/2000/svg" width="1344" height="566"><path d="M0 283V0h1344v566H0V283m734 277c7-1 7-2 4-15-2-7-3-14-3-17 0-5 0-7 4-23 1-4 2-10 2-13 0-5-4-19-7-26-3-4-6-14-6-17s-2-9-5-18c-1-3-3-12-5-19-1-7-3-15-4-17-1-4-1-6 0-13 2-11 1-21-2-34-1-5-3-13-3-16-3-15-5-19-24-56-5-12-6-14-6-19 0-7 4-15 9-18 5-4 6-5 12-17 17-29 16-28 17-42 1-8 1-13 1-15-1-2-1-6-1-8 0-12-6-25-15-33-10-10-36-19-49-18-14 1-31 9-39 18-7 8-8 12-8 29s-1 28-5 43c-1 6-3 15-3 20s-2 11-2 13c-1 2-2 7-2 10 0 5-4 22-6 28-8 20-11 41-14 94-1 13-2 25-2 27-4 14-5 23-5 42 0 12 0 22 1 25 1 4 1 6 0 9 0 2-1 4 0 5 0 1 2 3 5 4 8 4 10 9 8 21-1 6-1 8 0 15 3 8 2 20-1 29-2 7-1 9 4 14 3 3 4 4 10 5 8 1 11 2 62 1 30 0 38 0 42 1 6 2 28 2 36 1z"/></svg>