<svg xmlns="http://www.w3.org/2000/svg" width="1344" height="566"><path d="M0 283V0h1344v566H0V283m477 136c5-1 13-3 22-6 13-5 14-5 27-6 8 0 17-1 21-2 7-1 27-1 35 1 4 1 11 2 44 4 8 1 26 1 39 1 24 0 31 1 44 4 8 1 19 1 29 0 5-1 14-3 22-3 14-2 21-4 41-9 7-2 16-4 19-5 12-2 20-5 26-7 7-3 19-5 29-5 8 0 9-3 8-22-2-30-4-40-6-46-2-3-3-7-3-8 0-3-2-7-5-10-2-2-3-2-5-1-3 2-4 1-7-7-1-4-4-10-6-13-2-4-4-7-4-8 0-3-3-6-5-6-3 0-7-3-6-4 0-1 2-1 5-1 4 0 6 0 8-3 2-2 2-3 2-8-1-3-2-8-2-10-1-2-3-8-4-12 0-4-3-13-5-19-4-14-9-35-10-45-4-22-15-48-28-63-13-16-25-24-46-31-14-4-25-5-44-2-16 2-24 5-37 11-19 10-34 30-39 55-2 10-2 15-3 51-1 61-2 65-6 67h-7c-12-2-23 1-33 10-3 3-8 7-11 10-5 3-6 6-11 14-3 6-7 13-8 15-4 6-26 25-34 29-3 1-11 5-17 8-16 8-21 9-32 9-10 1-10 1-14 4-3 4-15 30-23 52-6 15-6 14 19 17 6 1 13 1 21 0z"/></svg>