<svg xmlns="http://www.w3.org/2000/svg" width="1344" height="566"><path d="M0 283V0h1344v566H0V283m766 251c5-1 13-3 17-5 4-1 9-2 12-2 2 0 10-2 18-3 7-2 15-4 17-4s5-1 6-1c2-1 8-3 13-4 5-2 13-4 16-5 4-1 10-3 14-4 18-5 36-6 56-3 12 1 12 1 14-1 2-1 2-2 2-20-1-12-2-21-3-28-3-13-5-29-5-36 0-4-1-12-2-19-1-10-2-13-4-15-2-3-12-6-34-12-17-4-22-7-25-10-3-4-5-11-5-21 0-8 0-7-9-15-3-3-2-6 3-11 4-4 4-4 3-8-1-2-4-9-7-15-9-22-11-27-15-36-1-5-5-14-7-20-3-6-6-14-8-18-8-21-24-63-28-70-7-16-16-29-29-41-12-11-21-17-36-24-35-13-45-14-82-4-15 5-26 8-31 10-15 6-29 17-37 31-6 10-14 31-17 45l-3 13 1 53c1 29 1 59 2 67 1 18 0 20-5 25-4 3-16 10-20 12-6 2-23 14-26 18-4 6-9 16-9 20-2 8-11 15-19 15-4 0-7 1-14 4-5 2-15 6-24 9-17 6-16 5-30 21-6 6-17 11-28 12-7 0-8 1-10 3s-4 5-5 8c-1 2-3 8-5 13-2 4-4 11-6 15-1 4-4 11-5 15-4 9-4 16-1 18 2 2 3 2 9 2 12-1 18-3 22-4 3-1 6-2 8-2s5-1 7-1c2-1 8-2 14-3 8-1 10-1 15 1 5 1 6 1 12 0 3-1 8-2 10-3 5-3 7-3 11 1 3 3 4 3 11 2 3 0 10-1 14-2 7-1 8-1 14 0 3 1 10 2 13 3 7 1 17 4 25 7 11 3 16 4 50 4 24 0 39 0 52 1 10 1 24 3 31 3 19 2 32 6 44 14 7 5 17 8 24 7 3 0 10-1 14-2z"/></svg>