<svg xmlns="http://www.w3.org/2000/svg" width="1344" height="566"><path d="M0 283V0h1344v566H0V283m827 276c6-3 9-6 15-19 4-8 4-8 4-20 1-15-1-10 19-46 8-14 17-30 20-38 8-18 10-22 18-31 10-11 13-21 10-28-1-1-3-6-4-11-2-9-3-12-7-17-2-2-4-5-5-7s-2-3-6-3c-3 0-5-1-7-2-1-2-1-2 0-7 3-6 1-8-3-8-7 1-9-2-9-16 0-13-1-16-7-19-7-4-18 0-18 6 0 4-2 7-12 20-12 14-16 17-26 17-4-1-8-1-10-2-9-1-16 6-28 26-8 14-11 22-15 39-8 34-12 46-21 69-4 9-27 52-32 59-6 10-11 15-12 15-3 0-7-4-10-9-2-3-7-9-11-14-4-4-10-10-12-13s-7-8-10-11c-6-7-7-10-10-23-2-12-10-28-17-35-2-3-10-9-17-13-12-8-16-12-16-15 0 0 3-5 6-11 3-5 8-13 10-18 6-12 16-28 25-40 18-24 23-40 25-88 1-13 1-26 2-28 6-23 7-83 2-107-3-20-14-35-35-48-3-2-11-7-17-11-17-11-31-18-44-22-18-6-23-7-41-5-11 1-16 2-21 1-16-2-31 1-55 12-11 6-13 7-20 14-11 12-18 24-26 44-7 19-10 27-16 50-2 9-5 19-6 23s-4 17-6 29c-5 22-6 26-11 46-5 18-8 33-8 39-1 3-3 12-5 21-5 23-8 72-5 84 3 11 2 18-5 29-5 6-21 39-26 49-3 10-15 36-20 48-4 9-4 13 0 20 2 4 3 8 4 13 1 11 2 11 21 12 21 2 236 2 292 0 59-1 150 0 165 2 3 0 15 1 27 1 21 0 23-1 27-3z"/></svg>