<svg xmlns="http://www.w3.org/2000/svg" width="1344" height="566"><path d="M0 283V0h1344v566H0V283m746 203c10-1 22-2 25-2 12-3 21-5 25-7 2 0 7-1 10-2 4-1 13-3 26-7 28-8 41-10 68-8 21 2 20 2 20-13 0-7-1-16-3-26-2-17-5-42-4-57v-10l-3-3c-6-5-23-13-36-17-7-2-14-5-16-7 0-1-1-4-1-7-1-7-3-10-10-14s-8-5-5-9c1-1 3-3 5-3 6-2 6-4 5-12 0-3-1-11-2-16-1-15-6-53-10-70-2-10-6-26-8-32-1-3-2-6-2-7 0-5-6-21-13-38-15-35-28-48-65-67-12-6-18-8-23-9-14-2-26-1-37 5-5 3-8 3-15 4-16 1-22 4-33 13-8 7-19 24-24 38-4 9-10 35-12 48-1 4-1 8-2 8-1 2-5 37-5 47 0 7-1 18-1 26-1 8-1 22 0 42 2 37 3 35-13 33-5-1-15-1-23-1-12 0-13 0-17 2-3 2-11 9-17 16-16 16-34 30-51 40-8 4-17 11-20 14-9 8-15 10-24 10-5 0-9 0-10 1-3 1-7 9-10 15-1 2-5 11-8 18-8 18-11 24-12 33-1 5-2 10-4 13l-3 6 2 2c1 2 2 2 7 2 3-1 9-2 14-4 7-3 8-3 26-3 11-1 22-1 25-2 4-1 12-1 19-2 6 0 14-2 16-3 2 0 7-2 11-2 3 0 8-2 10-3 5-1 12-1 17 2 6 3 28 8 45 10 9 2 25 2 37 2 2 0 15 0 27-1 20 0 24 0 40 2s32 6 34 8c0 1 7 5 8 5s10 0 20-1z"/></svg>