<svg xmlns="http://www.w3.org/2000/svg" width="1344" height="566"><path d="M0 283V0h1344v566H0V283m934 110c6-7 11-22 13-35 1-5 2-12 2-14 3-14 6-32 6-38s-1-8-5-18c-4-11-5-13-12-21-4-4-7-9-7-9 0-1-2-4-4-8-3-5-4-9-6-20-2-7-4-15-4-18-1-2-2-7-3-10 0-3-1-7-2-10 0-2-1-6-1-8 0-7-6-19-14-27-5-5-6-6-14-9-10-2-12-2-25 0-9 2-14 5-19 10s-8 9-8 14c-1 2-2 6-2 8-1 3-2 9-2 20v16l-6 5c-8 8-9 10-11 23-1 10-2 12-5 18-2 4-5 8-5 11-4 9-9 17-16 25-4 4-8 8-9 10 0 1-1 5-2 10-1 7-1 10 1 20 2 16 2 16 18 20 7 1 11 3 15 6 3 2 7 4 9 5 5 2 20 6 30 8s18 4 42 10c8 2 17 5 22 5 4 1 8 2 8 3h8c5 0 6 0 8-2z"/></svg>