<svg xmlns="http://www.w3.org/2000/svg" width="1344" height="566"><path d="M0 283V0h1344v566H0V283m650 279c3 0 40-1 82-1s89-1 104-1c16-1 56-1 90-2 35 0 75-1 90-2 22-1 32-1 46 0 25 2 105 3 109 1 3-1 5-4 4-10-1-5-24-50-31-62-25-37-52-67-80-84-7-5-30-14-56-22-11-4-25-9-30-11-11-4-37-13-44-14-12-3-30-10-39-15-17-11-34-17-42-16-5 0-5 0-11-5-3-3-6-8-8-10-3-8-10-28-11-36-2-11-2-42 0-48 0-3 2-14 4-24 1-9 3-24 5-32 2-12 2-17 2-31 0-39-9-64-28-79-4-3-9-8-12-12-5-6-7-8-12-10-3-2-8-4-10-6-3-1-8-2-15-3-5 0-11-1-12-2-5-2-26-4-37-4-15 0-25 1-44 6-32 8-48 14-54 20-8 7-18 26-21 39 0 5-1 14-1 26 0 16 0 20-3 34-5 23-5 36-2 56 4 17 10 41 14 52 3 9 24 53 31 64 14 23 19 28 38 35 8 2 11 5 11 10 0 8-18 23-40 34-23 11-44 21-53 26-4 3-14 9-22 13s-17 10-21 12c-3 3-8 7-11 9-4 3-13 11-20 18-8 7-17 16-21 20-8 8-11 13-15 28-2 6-5 14-6 17s-2 8-3 10c0 4 0 5 2 7 5 4 14 5 69 6 59 1 105 0 114-1z"/></svg>