<svg xmlns="http://www.w3.org/2000/svg" width="1344" height="566"><path d="M0 283V0h1344v566H0V283m736 176c7 0 16-1 19-2 12-3 19-4 25-6 4 0 11-2 16-3 4-1 11-3 14-3 4-1 9-3 12-4 2 0 5-1 7-2 2 0 6-1 9-2 11-4 21-4 39-3h19c5-2 5-11 1-34-2-13-2-17-2-40-1-23-1-27-2-32-3-7-11-16-18-19-13-4-18-8-18-12 0-3-4-7-9-9-10-3-9-8 2-8 9 0 9-1 8-13-2-21-10-58-19-86-3-10-5-20-7-27-1-4-3-9-4-11 0-3-1-6-1-7 0-2-7-22-12-32-13-27-26-41-57-58-6-4-14-7-17-8-11-4-29-4-44 1-4 1-12 3-18 4-19 3-30 10-40 24-13 19-19 40-23 77 0 3-1 9-1 11-5 20-8 86-5 107 1 5 1 13 2 18 0 12 0 12-26 17-5 1-7 1-13-1-5-1-11-1-20-1-14-1-14-1-24 8-3 3-10 8-15 11-6 3-12 8-14 10-3 1-11 7-19 12s-18 12-22 16c-10 8-16 10-25 10-7-1-7-1-10 2-2 3-3 5-4 9 0 5-6 20-12 31-3 6-5 9-12 32-4 11-6 17-5 18 1 0 3 1 5 1 4 1 7 0 19-4 9-3 16-5 21-5 5-1 12-2 16-3 4 0 14-1 32-1 26 0 27 0 31-2s5-2 14-2c5 1 12 2 15 3 3 0 12 2 21 4l15 3h42c35 0 42 0 52 1 6 1 15 3 18 3 8 1 12 3 16 7 3 2 4 2 9 2 3-1 12-1 19-2z"/></svg>