<svg xmlns="http://www.w3.org/2000/svg" width="1344" height="566"><path d="M0 283V0h1344v566H0V283m739 278c87 0 126 0 131-1 14-3 18-7 20-27 1-10-2-38-6-53-4-20-18-33-72-68-31-20-36-25-44-42-3-6-7-13-9-17-3-5-3-7-3-12 0-10 7-27 19-47 2-4 8-15 13-25 9-16 9-18 11-30 2-7 4-18 6-25 6-25 8-68 3-86-6-25-14-40-34-59-20-20-34-27-54-30-40-6-47-7-62-5-24 4-36 10-55 26-20 17-31 36-36 59 0 4-2 15-3 25-2 32-2 33-8 45l-4 8-1 14c0 18 1 24 7 36 4 10 11 17 17 21 1 1 4 4 5 6 3 5 5 17 5 27 0 7 0 8-3 13-5 6-24 25-34 32-5 4-12 8-16 10-9 3-36 12-41 13-2 1-6 2-9 3-6 2-23 7-40 12-7 2-23 8-28 11-9 6-15 18-39 74-4 9-9 21-11 25-2 5-6 15-9 22-9 22-14 35-14 37 0 1 1 3 2 5l3 2h60c33 0 69 1 79 1s43 1 74 0h180z"/></svg>