<svg xmlns="http://www.w3.org/2000/svg" width="1344" height="566"><path d="M0 283V0h1344v566H0V283m482 122c6-2 14-2 26-3 22-1 37-3 40-4 1 0 4-2 6-3 5-3 11-4 20-2 22 6 31 6 72 7 27 0 42 0 47 1 7 1 14 1 30 1 24-1 35-3 59-9 3-1 8-2 11-2 4-1 7-1 8-2 1 0 8-2 16-4 12-2 15-2 27-1h22v-12c0-6-1-15-2-20 0-5-1-12-1-17 0-10-1-18-4-21-2-2-4-6-5-9-3-6-4-7-10-9s-8-5-9-13c0-8-4-16-8-19-3-2-3-3 2-5 1-1 4-3 5-5 2-3 2-4 2-22-1-10-2-22-2-26-1-5-2-16-3-24-1-9-3-18-3-22-1-3-3-10-4-16-3-15-7-26-12-36-9-17-18-26-37-37-23-14-39-16-69-8-22 6-33 13-43 30-9 15-12 28-14 58-1 10-1 20-2 23-1 4-1 18-2 32 0 33-1 37-8 41-7 3-43 9-58 9-10 1-14 2-22 6-11 5-15 12-22 31-6 17-10 23-20 29-6 4-22 10-35 13-3 1-7 3-8 4-2 3-18 34-21 42 0 2-2 8-4 13-2 9-2 9-1 11 2 2 4 2 15 2 10 0 15-1 21-2z"/></svg>