<svg xmlns="http://www.w3.org/2000/svg" width="1344" height="566"><path d="M0 283V0h1344v566H0V283m289 276c2-1 4-1 8 0 5 1 64 1 197 1h190l4-2c6-2 12-9 13-14 0-2 1-6 1-8 1-2 2-7 3-10 0-2 1-8 2-13 2-6 2-9 1-12-1-2-1-6-1-8 0-7-8-31-14-45-3-7-3-8-3-17 0-15 0-15-23-26-27-12-58-26-68-29-10-4-38-18-40-20-3-5-3-9-1-21 2-11 6-23 14-46 6-16 7-26 6-49-2-43-3-48-20-97-9-28-18-49-29-65-8-12-26-30-41-39-18-12-28-17-46-19-19-3-26-4-39-1-11 2-13 3-27 11-4 3-13 8-19 11-12 7-16 11-24 20-13 15-21 33-28 61-6 24-13 73-15 106-1 10-1 22-2 28s-1 25-2 41c0 32 0 38 6 62 1 6 2 12 2 15 0 6-2 8-24 16-10 4-17 8-48 30-6 4-15 9-20 12-17 9-21 14-21 25 0 2-2 9-4 14-2 6-4 14-6 19-2 4-4 14-5 22-2 7-4 18-5 22-3 16-2 24 3 26 4 1 121 0 125-1z"/></svg>