<svg xmlns="http://www.w3.org/2000/svg" width="1344" height="566"><path d="M0 283V0h1344v566H0V283m604 278c15-1 37-1 50-2h120c65 0 100 0 101-1 4-2 2-5-9-14-22-19-48-55-51-71-1-3-5-14-10-24-4-10-13-29-19-41-5-13-11-25-12-26-3-4-9-7-18-8-14-2-35-8-69-21-5-1-14-4-19-6-24-7-28-9-28-18 0-11 18-32 32-39l15-5c20-5 27-9 29-18 1-4 1-5-1-12-2-6-2-10-3-26 0-17 0-18 2-25 2-5 3-9 2-11-1-4-5-10-14-23-9-12-13-19-18-34-6-18-10-23-25-38-7-7-15-16-17-20-8-11-12-14-25-19-20-6-32-7-53-7-17 1-20 1-30 4-19 5-30 11-41 23-7 7-10 11-16 21-10 18-17 37-29 74-15 53-23 70-51 112-6 9-12 18-14 22-5 10-6 24-3 32 1 2 3 4 8 6 9 4 17 10 22 16 2 2 7 8 11 13 11 11 11 13 1 22-16 14-20 17-24 23-2 3-5 9-6 13-3 9-6 20-12 35-15 37-20 56-22 77 0 8 0 9 2 11 3 2 4 2 26 3 13 0 46 1 73 1 28 1 51 1 51 1 0 1 60 0 94 0z"/></svg>