<svg xmlns="http://www.w3.org/2000/svg" width="1344" height="566"><path d="M0 283V0h1344v566H0V283m676 279h96c29 0 33 0 35-1 4-3 5-7 2-22-1-8-2-18-3-23-1-20-4-54-6-68-3-19-7-33-11-43-4-8-6-10-19-23-11-12-15-15-20-17-8-4-47-29-60-40-12-9-18-17-26-35l-3-8 4-14c9-24 11-30 12-36 4-17 8-30 11-37 4-9 5-12 2-21-1-8-1-18 0-36 1-11 1-15 0-23-1-5-3-14-4-19s-2-11-3-12c-2-5-18-21-26-26-7-5-11-7-23-12-5-2-8-2-16-2-11 0-30 3-40 7-4 1-13 4-19 6s-12 5-13 6-3 3-4 6c-1 2-3 6-5 8-4 5-6 8-14 19-8 12-10 19-11 41-1 9-1 19-2 21s-3 6-5 8c-4 4-5 5-5 12-1 9 0 20 3 29 2 7 3 8 7 13 3 2 7 6 9 7 2 2 5 5 6 7 4 9 7 32 5 45-1 8-5 18-9 21-2 2-11 5-24 8-25 6-40 12-56 22-10 7-22 17-26 24-5 7-14 25-18 34-4 10-15 42-19 55-2 5-4 12-5 14l-5 15c-1 5-5 15-7 22-2 8-5 17-6 21 0 4-1 8-2 9s-2 8-2 16c-1 15-1 17 4 20 2 1 6 2 58 2 93 0 207 1 208 2 0 0 7 0 15-1 7 0 25 0 40-1z"/></svg>