<svg xmlns="http://www.w3.org/2000/svg" width="1344" height="566"><path d="M0 283V0h1344v566H0V283m399 278c29 0 84 0 122-1h113c25-1 62 0 82 0 20 1 57 1 83 1 44 0 47 0 49-2 5-3 5-6 1-27-1-3-2-11-3-17-1-13-2-16-7-22-2-4-5-6-10-9-13-6-37-17-53-24-9-4-19-8-22-9-3-2-8-4-12-5-11-5-18-9-20-13-3-5-2-11 1-32 5-22 10-41 14-53 11-27 13-35 16-54 1-18 2-57 0-84-3-54-4-69-5-72-1-2-1-7-2-12-2-17-13-45-23-58-13-17-34-27-87-42-27-8-35-9-54-9-24-1-27 0-57 14-28 13-37 18-46 27-11 10-23 29-32 49-12 29-23 89-31 174-1 6-2 15-3 21 0 5-1 15-2 22s-1 13-2 14c0 1-1 8-1 16-8 77-9 83-14 92-3 7-17 20-30 29-4 3-9 7-11 8-8 7-21 15-44 29-15 10-17 12-21 29-5 18-4 20 10 21 5 1 17 1 28 0 11 0 44 0 73-1z"/></svg>