<svg xmlns="http://www.w3.org/2000/svg" width="1344" height="566"><path d="M0 283V0h1344v566H0V283m616 277c5-1 15-1 33 0h80c59 0 56 1 60-6 1-3 2-7 2-18 0-20-1-32-9-60-7-32-9-38-14-49-4-9-4-9-4-19 1-13 0-13-16-21-17-8-49-23-50-23s-18-8-27-12c-11-6-12-9-8-33 2-13 4-33 6-59s-3-84-10-122c-4-23-7-35-15-50-9-18-12-24-21-35-10-13-23-22-46-32-18-8-22-10-35-9-10 0-12 0-20 3-12 4-18 6-23 6-16 0-31 8-45 24s-25 36-31 58c-3 10-11 43-12 49-1 2-2 10-4 18s-4 18-5 23c0 5-2 15-3 24-6 31-8 61-6 79 1 7 1 18 2 25v14l-3 3c-3 3-3 3-14 4-16 1-35 8-55 19-6 4-15 9-20 11-20 9-27 15-29 25 0 3-2 9-2 14-1 5-3 13-5 18s-4 13-5 19-5 20-7 31c-3 11-7 26-8 33-2 6-4 15-5 19-4 13-2 21 4 24 8 4 18 5 124 4h36c69 3 198 3 210 1z"/></svg>