<svg xmlns="http://www.w3.org/2000/svg" width="1344" height="566"><path d="M0 283V0h1344v566H0V283m1039 279c16 0 45-1 48-3 1-1 2-3 2-11 1-11 3-19 11-32 5-9 17-28 27-41 7-11 11-17 13-27 4-16 2-21-9-20-4 1-5 1-9-2-4-2-5-4-7-9-1-4-3-7-5-8s-2-1-5 0c-2 1-6 4-8 5-3 2-6 4-8 4-1 0-4-2-6-3-8-8-15-8-24-1-11 9-9 9-13 6-4-2-6-4-12-14-6-8-13-24-22-50-4-10-11-22-19-34-6-10-14-15-62-38-24-11-27-14-29-23-1-5-1-8 1-23 3-25 4-41 2-57-2-15-6-29-10-39-3-8-15-26-21-30-8-8-29-20-42-27-18-9-27-11-49-12-25-1-32 0-55 12-14 7-22 12-31 22-18 18-24 31-24 51 0 9-2 14-12 34l-7 14v26c-1 34 0 33-26 42-46 16-63 25-77 38-9 8-12 16-19 42-4 13-8 25-17 48-3 6-6 14-7 16-3 11-18 35-21 36-1 0-5-1-9-3l-7-2-4 2c-2 1-5 3-6 6-1 2-3 5-4 5s-5-2-8-4c-12-9-18-6-18 8 0 4 1 9 1 11 1 5 1 10-2 11l-4-2c-3-3-16-9-19-9-5 0-7 9-2 17 3 5 14 20 22 30 4 3 8 9 10 12 9 12 18 17 33 18 27 2 35 3 49 2 13 0 15 0 18 2 3 1 6 1 44 1h84c40 0 44 0 49 1 6 2 7 2 22 1 18-2 116-2 152 0h46c14-1 17-1 22 0 5 2 10 2 36 1h47z"/></svg>