<svg xmlns="http://www.w3.org/2000/svg" width="1344" height="566"><path d="M0 283V0h1344v566H0V283m693 275h159c50-1 200 0 263 1 53 0 56 0 58-1 3-3 3-7 0-15s-22-45-29-56c-10-15-25-35-33-42-14-14-33-27-45-34-11-6-33-16-35-16s-20-8-43-19c-13-7-27-13-30-14-16-4-32-13-47-25-11-8-20-15-24-17-7-3-11-9-12-16-1-9-1-11 1-22 3-15 4-17 14-23 13-7 21-16 27-30 7-15 8-28 1-38-3-6-3-7-3-14 0-4 1-15 3-23 4-21 5-31 5-43 0-14-1-22-5-30-2-4-4-10-6-14-3-8-15-23-20-26-1-1-5-4-8-6-2-2-14-9-25-15-25-12-29-13-53-13-15 0-28 2-46 5-26 6-54 28-63 50-4 11-11 43-17 84-7 49-7 51-1 81 7 36 14 60 28 93 6 14 6 15-4 24-13 13-29 22-42 26-9 2-14 4-31 11-6 3-16 7-22 9-46 18-69 30-87 45-7 6-22 23-28 31-11 17-16 24-20 32-8 16-14 37-14 49 0 6 0 7 2 10l3 2 49-1c29 0 55 0 63 1 8 0 28 1 48 0 18 0 49 0 69-1z"/></svg>