<svg xmlns="http://www.w3.org/2000/svg" width="1344" height="566"><path d="M0 283V0h1344v566H0V283m706 165c6-6 8-14 12-34 0-6 2-14 4-19 1-5 3-11 3-15 1-4 2-10 3-13 3-10 8-17 32-42 4-4 9-10 11-12 3-5 6-17 7-30 1-6 2-11 3-14 9-18 14-40 11-53 0-3-1-8-2-11 0-4-1-6-6-12-4-7-5-8-5-14-1-4-1-10-2-15-1-4-2-11-2-14-1-4-2-9-3-11-7-13-23-16-36-6-8 6-15 23-18 39-1 4-2 8-3 9-2 2-10 10-15 13-2 1-7 5-11 9-6 6-9 7-11 7s-5 1-8 2c-2 1-5 2-6 2-4 0-8 4-17 13-6 6-8 8-10 8-6 0-6 8 0 12 2 1 4 4 5 6 2 3 6 5 9 4 0-1 3 0 6 0 5 2 8 0 8-6 0-5 2-8 9-8 6-1 18-5 29-10 5-2 9-4 10-4 0 1 2 4 4 8 3 5 4 8 5 15v9l-6 7c-4 4-11 12-17 17-9 9-10 11-11 15-3 19-4 43-1 47 2 1 2 1 6 0 7-3 9-5 9-15 1-10 2-12 10-16 10-5 11-3 5 10-2 4-6 10-8 13-5 7-7 11-8 23 0 5-1 11-1 14-1 2-1 12-2 22-1 21-1 24-9 32-6 8-7 13-4 16s10 6 13 6c4 0 5-1 8-4z"/></svg>