<svg xmlns="http://www.w3.org/2000/svg" width="1344" height="566"><path d="M0 283V0h1344v566H0V283m1085 278c7 0 10-3 18-14 4-5 13-15 20-23 14-15 18-21 19-32 0-5 0-6-2-8s-4-2-12 0l-5 1-3-3c-2-1-3-4-3-7-1-5-4-9-9-10-2 0-4 1-9 3-9 5-11 5-16 0-8-7-9-7-17-7-7 0-8 0-11-3-4-3-8-11-13-24-2-7-7-18-10-24-4-11-11-28-18-46-6-17-15-34-23-42-4-5-8-8-51-29-13-7-25-13-27-15-8-6-9-15-6-43 2-23 2-27 0-44-3-27-10-46-23-62-6-7-9-10-18-16-43-28-50-31-86-31-18 0-19 0-27 2-9 3-30 13-38 19-11 7-25 22-32 34-3 6-7 18-8 30-1 9-5 20-13 36-7 15-8 20-8 38 1 28 1 28-31 39-40 14-56 22-70 36-7 6-10 12-18 37s-10 29-20 53c-12 26-21 42-32 61-14 21-15 24-14 34v7l7 7c8 8 13 12 20 15 3 1 7 3 9 5 2 1 6 4 10 5 3 2 8 5 11 7 4 4 5 5 15 5 5 1 9 2 12 4l5 2h77c69 0 77 0 81 2 4 1 6 1 20 0 8 0 18-1 22-2 5-1 10-1 18 0 6 1 26 1 57 1 26 0 55 0 65 1h25c5-1 13-1 19-2 10 0 11 0 15 2s5 2 39 2c20-1 39-1 44 0 9 1 35 0 45-1z"/></svg>