<svg xmlns="http://www.w3.org/2000/svg" width="1344" height="566"><path d="M0 283V0h1344v566H0V283m856 279h130c100 0 117 0 119-6 1-2-2-11-5-18-2-3-4-10-6-15-3-10-10-23-16-32-10-15-14-28-13-48 1-11 6-54 7-59 3-8 5-33 5-45 0-14 0-15-2-18-4-5-8-4-13 4-3 7-5 8-8 5-2-2-3-6-5-16-3-20-11-27-20-15-2 3-3 5-4 5s-3-2-5-5c-7-13-14-13-20 1-4 6-6 8-11 5-3-1-4-1-7 0-7 4-10 10-12 28s-3 19-10 18c-3 0-13-3-22-7-54-22-55-22-57-26-2-2-2-3 0-11 6-38 8-57 6-87-2-32-6-44-20-65-10-14-19-22-41-33-24-13-36-17-62-16-17 0-19 0-26 2-10 4-28 13-39 21-10 8-22 21-26 29s-9 22-10 30c-1 6-4 16-12 44-1 5-2 11-2 14 0 4-1 11-2 17-1 11-1 12 0 22 4 21 4 22-1 26-6 5-21 11-42 18-5 1-12 3-15 4s-7 2-8 2-3 1-5 2c-6 2-19 3-21 2-3-2-4-7-5-26 0-29-3-32-16-20-3 2-5 4-6 4-2 0-5-5-6-12-3-11-7-18-11-18-2 0-8 6-8 8s-7 9-9 9c0 0-3-2-5-4-3-3-6-5-7-5-3 0-7 5-9 14-2 10-5 15-8 18-3 1-4 1-10-1-7-1-7-1-9 1-6 5-5 21 2 48 0 3 1 7 1 9 0 4 3 21 6 34 1 5 3 13 4 18 6 28 7 36 2 56-6 21-16 45-24 55-7 9-10 15-11 20 0 6 1 9 7 11 3 2 6 3 133 3 83 0 130 0 134 1s23 1 58 0h98z"/></svg>