<svg xmlns="http://www.w3.org/2000/svg" width="1344" height="566"><path d="M0 283V0h1344v566H0V283m705 277c9-1 12-3 14-6 1-3 1-11 0-18-1-2-1-10-2-17-1-9-2-14-5-24-8-23-12-35-15-42-4-8-4-9-4-17 0-6 0-10-1-12-2-4-8-8-20-12-4-3-13-6-18-9-18-8-42-18-50-21-23-10-33-15-36-19-2-2-2-3-2-10 2-17 5-31 13-53 7-22 8-26 9-42l1-16-4-24c-4-25-6-36-10-50-1-4-2-9-3-12 0-4-3-15-8-30-10-30-19-46-32-60-15-14-32-26-53-36-12-6-19-8-33-9-20-2-36 0-48 7-3 2-13 8-22 13-22 12-29 17-37 29-3 7-11 22-14 30-6 17-16 64-18 88-1 4-2 13-3 20-1 8-3 23-4 32-1 10-3 21-3 24-2 11-4 39-4 54 0 19 2 29 5 38 9 20 8 19 7 22-2 3-8 5-24 11-15 6-23 10-37 21-4 2-14 10-24 16-2 1-7 4-12 7-9 4-16 10-19 14 0 1-2 5-2 9-1 4-2 11-5 17-11 25-15 37-17 57-3 19-3 23 0 27l3 3h56c31 0 62 0 69-1 8-1 13-1 16 0 2 1 72 1 188 2 101 0 185 0 185 1 1 0 14-1 23-2z"/></svg>