<svg xmlns="http://www.w3.org/2000/svg" width="1344" height="566"><path d="M0 283V0h1344v566H0V283m280 276c8 0 1 0 107 1 50 0 137 1 193 1l102-1 6-2c7-3 12-10 12-14 0-1 1-5 2-8 3-13 4-33 2-47-2-9-7-27-12-37-3-9-3-8-4-27 0-8-3-10-26-20-23-11-65-29-66-29-2 0-35-16-37-19-3-2-3-3-3-9 0-7 4-23 9-38 13-36 14-37 13-63-1-31-4-56-9-73-11-37-18-57-26-72-12-23-20-35-37-50-24-21-42-30-68-33-15-3-24-2-36 0-10 2-11 3-25 11-5 3-13 7-17 10-5 3-12 7-14 9-6 4-15 14-21 24-4 6-12 25-16 37-7 23-16 80-19 119-1 9-1 20-2 27-2 18-3 60-2 73 1 7 2 17 3 23 2 7 3 14 4 18 0 9-1 11-19 17-15 7-18 8-34 19-23 16-27 19-35 23-11 6-20 12-22 15-1 1-3 6-3 12-1 5-2 11-3 12-6 15-9 25-11 35-8 35-10 51-7 54 3 4 4 4 59 3 30 0 58 0 62-1z"/></svg>