<svg xmlns="http://www.w3.org/2000/svg" width="1344" height="566"><path d="M0 283V0h1344v566H0V283m502 277c73-1 247 0 265 1s57 1 60-1c4-2 4-8 3-27s-4-47-6-51c0-1-1-5-1-8-1-7-5-22-7-29-1-3-2-7-2-8 0 0-2-5-5-9-5-9-18-24-28-32-4-2-10-7-14-10s-9-6-10-7c-3-1-33-20-43-26-19-11-25-17-37-35s-15-24-15-29c0-4 8-28 12-37 3-5 3-7 4-18 1-16 4-28 7-35 2-6 2-12-1-27-2-7-2-13-2-30 0-23-1-34-5-49-6-19-15-34-27-43-22-15-50-21-72-14-14 6-32 14-39 19-4 2-10 6-14 9-6 3-8 5-10 8-1 3-6 12-12 21-5 9-10 19-11 21-1 4-1 9-2 32v27l-6 5c-3 3-5 6-6 8 0 1 0 3-1 4 0 0 1 4 1 7 1 3 1 9 2 14 2 14 9 25 20 31 5 2 5 3 9 10 7 16 10 29 10 46 0 11 0 11-3 17-6 10-5 10-36 18-5 2-11 4-13 4-13 5-16 7-25 11-13 7-23 14-32 23-8 7-11 11-16 20-7 13-12 24-14 32l-9 27c-5 13-8 23-8 25 0 1-1 4-2 8-1 3-3 10-4 15-4 9-6 17-10 25-2 6-7 27-7 32 0 7-2 7 62 7 32-1 77-1 100-2z"/></svg>