<svg xmlns="http://www.w3.org/2000/svg" width="1344" height="566"><path d="M0 283V0h1344v566H0V283m1088 277c12-1 12-1 8-15-3-11-9-20-21-34-7-8-14-16-16-19-6-7-18-18-34-31-8-7-20-16-26-22-17-17-25-24-45-39-38-29-38-28-60-30-20-1-27-3-34-11-13-13-16-22-17-43 0-12 0-15 2-25 3-13 6-19 15-31 10-11 12-15 17-25 8-18 10-28 6-45-2-10-2-11-1-21 5-29 5-48-1-66-8-24-29-44-62-58-19-9-33-11-56-11-18 0-31 1-42 5-10 2-12 3-23 10-15 9-27 20-35 32-8 13-12 25-14 47-1 7-2 18-3 25 0 7-1 19-2 28 0 9-1 22-3 33-4 21-4 23-1 40 4 27 7 36 14 55 10 24 16 33 30 42 7 5 11 10 11 13s-5 8-13 13c-10 6-30 16-36 19-13 6-34 20-62 44-19 14-30 25-38 35-3 5-9 13-13 18-14 17-18 26-23 42-5 15-5 17-4 20 3 5 3 5 41 5 102-2 259-3 290-2 5 1 53 1 106 2 53 0 97 1 97 2 1 0 34-1 48-2M84 560h53c19 1 42 0 59-2 5-1 16-1 25-1 21-1 20-1 17-12-2-9-6-19-14-39-16-38-22-55-26-83-3-19-5-28-6-33-1-2-2-5-2-6 0-6-21-41-34-56-11-14-40-32-66-42-17-7-27-11-36-16-6-3-8-4-10-8-3-6-2-9 2-18l3-6v-12l-1-12 3-4c3-3 4-6 5-10 1-3 1-6 2-8 0-1 1-4 3-7 6-9 6-17 0-35-2-4-4-12-6-17-2-9-2-12-2-20 1-5 1-12 2-15 1-4 1-11 1-16v-9l-6-13c-3-7-9-18-13-24-7-12-8-14-6-20 2-5 0-8-5-9C17 5 8 4 5 5L1 6v550l3 3 4 2 20-1h56z"/></svg>