<svg xmlns="http://www.w3.org/2000/svg" width="1344" height="566"><path d="M0 283V0h1344v566H0V283m771 277c2-1 7-1 17 0 7 1 22 1 34 1 96-1 180-2 198-1 23 1 71-1 76-2s7-4 7-12-2-16-9-37c-7-22-8-24-10-36-4-13-15-48-20-59-4-11-11-22-15-27-7-9-24-17-53-26-8-3-20-6-24-8-5-2-17-5-26-8-26-7-30-10-64-41-15-14-18-16-31-24-11-7-13-9-17-23-2-6-2-9-2-24 0-17 0-18 2-22 2-3 5-6 11-11 7-5 9-7 11-11 4-7 5-16 5-29 0-11-1-18-6-31-1-6-4-15-6-20-1-6-4-16-6-23-12-34-21-52-37-68-8-8-13-11-22-13-3-1-31-1-75-1-68 0-70 0-77 2-10 3-15 6-24 16-11 12-16 20-21 39-5 16-6 29-6 57-1 28 0 34 7 62 4 19 6 25 18 46 5 9 11 19 13 23 5 9 13 17 25 26 8 6 30 25 39 35 4 4 6 7 6 8 0 4-7 14-13 20-3 2-10 9-16 14-13 13-23 20-42 31-20 11-27 15-36 20-3 2-12 7-18 10-17 9-24 14-33 22-7 8-12 17-15 27-3 8-3 25-2 40 0 6 1 20 2 30 1 20 2 23 7 26 5 2 20 3 90 3 36 0 67 0 67 1 1 1 88-1 91-2z"/></svg>