<svg xmlns="http://www.w3.org/2000/svg" width="1344" height="566"><path d="M0 283V0h1344v566H0V283m739 275c1-2 1-3 0-8 0-4-2-9-3-12-9-32-10-38-5-49s4-12-6-20c-8-6-48-31-65-40-7-4-14-8-18-10-4-3-9-6-13-8-20-12-26-17-26-22 0-1 3-10 6-18 5-16 8-25 11-36 0-4 2-8 3-11 5-15 6-58 3-80-12-70-18-92-36-129-14-28-18-35-29-45-23-19-48-31-76-34-11-2-22-1-33 3-3 1-9 3-14 4-9 2-27 11-35 16-12 9-27 26-35 42-9 18-16 42-21 77-2 9-5 28-7 35 0 4-2 12-3 19-3 29-5 42-7 52-5 30-5 59 0 80 3 15 3 16-8 19-9 3-13 4-27 9-6 2-13 5-15 6-3 1-8 3-12 4-4 2-12 4-18 7-25 7-32 11-34 15-1 1-2 6-2 11-1 8-2 15-11 41-4 14-8 30-10 42-1 4-2 10-3 14 0 4-1 10-2 15 0 7 0 8 2 10l3 3h272c266 0 272 0 274-2z"/></svg>