<svg xmlns="http://www.w3.org/2000/svg" width="1344" height="566"><path d="M0 283V0h1344v566H0V283m492 277c53-4 135-5 210-3 55 2 113 2 160 0 31 0 143 0 144 1h18c24 0 28-1 25-11s-11-20-23-30c-36-29-62-46-81-52-14-5-30-15-34-21-2-3-2-4-1-8 1-6 10-27 15-37s11-20 29-49c19-31 25-39 40-54 16-17 26-32 32-48 2-8 5-25 4-29 0-1-2-4-4-6-7-8-7-9 1-44 3-13 6-26 7-30 6-27 7-56 3-71-3-12-8-26-12-33-6-8-15-18-22-23-6-4-13-6-25-8-9-1-196 0-206 1-13 1-20 3-23 7-5 6-12 19-17 34-9 27-12 41-16 79-1 12-4 19-9 21-1 0-5 1-8 2-13 3-20 11-21 30-1 15 3 34 9 47 4 9 8 15 15 23 9 9 10 13 10 22-1 8-5 29-7 38-1 3-2 6-2 7 0 4-5 19-10 29-7 14-12 20-18 24-4 2-5 2-21 3-19 1-32 3-38 6-4 2-9 8-17 22-15 25-25 37-33 43-3 3-8 6-10 9-3 2-7 5-9 6s-11 8-20 14c-8 7-23 17-31 23-18 11-37 24-43 28-19 16-35 31-35 33 0 0 1 2 2 3 2 1 4 2 13 2 17 1 42 1 59 0z"/></svg>