<svg xmlns="http://www.w3.org/2000/svg" width="1344" height="566"><path d="M0 283V0h1344v566H0V283m302 279c16-1 35-1 44-2h58c48 1 80 1 138 0 21 0 50 0 64 1 17 1 28 0 37 0 22-2 173-1 194 1 5 1 15 0 25 0 20-2 21-2 21-12 0-5-1-10-4-20-5-16-7-21-13-31-3-3-7-10-9-14-11-16-17-20-51-32-14-4-28-9-30-9-3-1-10-3-16-5s-14-4-18-4c-17-3-20-5-31-19-10-12-16-21-16-24 0-1 2-4 7-9 7-8 24-30 24-32s10-30 14-39 16-49 19-60c1-4 1-17 2-36 1-15 1-38 2-50 1-24 1-50-1-64-4-19-12-42-21-59-5-9-16-25-21-31-7-8 2-8-131-8H471l-5 3c-11 5-27 32-36 61-2 8-4 23-6 44-1 14-3 26-9 51-2 10-2 39 0 51 3 15 3 22 2 36-1 9-1 18-1 24 1 9 1 11 5 19 3 5 7 12 9 16 6 10 13 24 17 36 5 13 5 12-3 23-7 10-21 27-24 31-4 3-15 9-26 13-5 2-11 3-56 15-9 2-20 5-23 6s-10 3-15 5c-22 6-39 12-51 18-16 8-22 13-30 26-10 14-11 23-8 40 3 10 3 23 1 27-2 3-1 7 3 8 11 4 27 6 47 5h40z"/></svg>