<svg xmlns="http://www.w3.org/2000/svg" width="1344" height="566"><path d="M0 283V0h1344v566H0V283m488 279h315c37 1 63 0 65 0 2-1 5-2 6-3 3-3 9-6 13-6 3 0 17-1 33-1 28-1 28-1 30-4 2-2 1-11-1-32-1-6-2-15-3-20 0-5-2-14-3-20-1-7-3-22-5-33-1-11-3-25-4-31s-2-13-3-15c-1-10-8-41-14-59-5-18-13-51-19-80-7-32-7-38 0-54 8-17 14-39 25-80 1-3 1-10 1-16 0-11 0-13-2-17-4-9-17-16-32-21-9-2-22-1-35 2-12 3-20 7-26 13-7 6-9 11-16 29-7 22-15 41-17 43-2 0-7 2-13 3-15 3-22 7-28 14-3 5-5 6-6 6-3-1-6-6-9-14-6-19-14-37-22-49s-21-21-37-27c-47-15-41-13-63-13-18 0-20 0-26 2-3 1-11 3-16 4-26 3-34 7-48 18-19 15-33 38-42 67-4 13-10 40-12 54-1 5-3 15-4 21-2 15-4 29-5 51-1 26-1 28-14 26s-18-7-24-26c-2-6-4-15-6-18-2-4-6-14-9-22s-6-16-6-18c0-6 6-11 19-14 4-1 10-4 13-5 9-7 22-26 26-42 2-9 2-10-7-54-3-19-5-21-30-31-13-6-24-8-37-8-14 0-22 1-31 6-8 3-13 8-16 16-5 9-10 13-17 10-2-1-6-2-9-3-6-1-7-1-14 2-11 3-15 5-17 8s-2 3-1 6c2 3 2 4-1 10-1 4-5 9-7 12-3 3-6 8-8 10-1 3-4 8-6 11-8 13-8 15-3 25 2 4 2 6 2 9-1 3 0 5 1 8 0 2 1 4 0 5 0 1-1 7-1 18 0 8-3 13-8 13-3 0-12 7-14 11 0 2-3 6-6 9-3 2-7 7-10 9-2 3-5 5-6 5s-2 1-3 1c-1 2-2 24 0 33 0 4 1 16 1 28v22l-3 11c-2 6-4 13-5 15-5 9-5 14-6 56-1 20-2 27-6 48-2 11-2 54 0 58s5 5 19 7c10 1 19 1 42 1 16-1 32-1 35-2 5-1 7-1 9 0 5 2 31 3 53 2h134z"/></svg>