<svg xmlns="http://www.w3.org/2000/svg" width="1344" height="566"><path d="M0 283V0h1344v566H0V283m1052 279c61-1 60-1 60-7 0-3-3-10-8-21-2-4-5-14-8-22-5-17-8-24-16-34-7-11-9-14-10-20 0-7-5-11-14-15-4-2-9-4-12-5-7-3-32-13-38-15-9-3-34-14-38-16-6-3-9-8-8-12 0-2 3-11 6-19 16-40 16-41 18-60s1-39-1-78c-5-67-12-108-24-143-11-32-33-57-67-80-12-8-25-10-73-9h-33l-8 2c-28 10-54 33-68 59-5 8-15 33-19 49-2 4-4 13-5 20-2 6-4 17-6 23s-3 15-4 20-2 13-3 18c-2 17-5 44-9 101-1 14-3 31-4 37s-2 16-3 21c-1 11-4 18-8 21-8 8-20 14-30 16-5 0-13 4-29 13-5 3-15 8-22 12s-16 8-20 11c-7 4-28 13-39 17-9 3-12 5-13 12-1 6 0 13 3 21l2 7-2 8c-1 5-4 14-6 22-9 23-11 36-7 41 2 2 3 3 8 3 6 1 56 1 93 0h55c37 1 161 2 221 2 72 0 86 0 95 1 3 0 14 1 22 0 9 0 42 0 72-1z"/></svg>