<svg xmlns="http://www.w3.org/2000/svg" width="1344" height="566"><path d="M0 283V0h1344v566H0V283m772 250c4-1 9-3 11-4 3-1 6-1 10-1 6 1 16-1 37-6 3-1 11-3 17-5 6-1 14-3 18-4 21-6 27-7 33-9 8-1 28-2 44-1 14 1 15 1 16-14 0-13-1-22-4-37-1-5-2-13-3-18s-1-11-2-13-1-11-2-20c0-13-1-17-2-18-2-2-10-5-23-7-3-1-8-2-9-3-2 0-8-2-14-3-22-4-21-4-21-18 0-13-2-19-7-25-3-4-4-5-4-11-1-5-2-9-6-18-3-6-7-14-8-18-2-4-4-8-4-10-1-1-2-4-2-6-1-2-3-7-4-12-2-5-6-16-9-26-8-23-20-57-30-78-6-15-10-21-20-32-14-15-32-25-59-34-21-6-35-6-62 0-22 5-33 10-48 20-21 13-36 37-44 68-2 9-4 28-4 31 1 2 1 19 2 39 1 19 2 44 2 54 2 20 2 28-1 32-2 3-17 13-23 16-6 2-18 11-22 16-2 3-6 8-8 12-3 6-7 9-15 12-3 1-4 1-8-1-2-1-5-2-6-2l-8 4c-8 5-20 10-24 11-2 1-7 3-11 4-8 3-9 4-16 12-11 10-15 12-27 13l-9 1-4 4c-4 4-11 17-13 24 0 2-2 7-4 12s-4 12-5 15c0 4-2 10-3 13-2 3-3 8-4 11v6l4 3c4 2 4 2 11 2 19-2 24-3 27-5 3-1 5-2 6-2s5-1 9-3c7-2 8-2 19-2 10 1 14 1 20-1 11-2 13-2 15-1s3 1 16-4c8-2 19-2 26-1 4 1 10 3 15 4 4 0 9 2 10 3 2 1 10 4 20 7 8 2 27 4 60 4 32 1 63 3 83 6 9 1 21 5 26 8 10 7 9 7 24 7 7 0 16-1 21-1z"/></svg>