<svg xmlns="http://www.w3.org/2000/svg" width="1344" height="566"><path d="M0 283V0h1344v566H0V283m1338 278c5-3 4 11 5-252 0-276 1-251-7-251-10 0-26 6-37 13-8 5-18 15-22 22l-3 6v26c0 37 3 61 8 77 4 12 14 33 18 37 3 3 15 8 20 10 7 1 9 6 4 12-7 9-12 14-21 22-12 11-17 16-20 21-4 8-8 21-11 32-1 6-2 12-3 12l-2 8c-1 4-4 13-7 20s-6 14-6 16c0 3-1 21-1 41-1 42-2 51-5 58-5 10-25 31-34 36-7 4-9 4-20-2-20-9-30-10-34-5-3 3-2 5 4 12 6 6 5 11-2 20-3 3-4 5-4 6 0 2 1 3 32 3 24 1 34 1 38 0s7-1 12 0c6 1 17 2 43 2 19 0 35 0 36 1s16-1 19-3m-780 0c3-2 3-4-1-10-3-6-2-8 2-13 2-4 3-5 3-10 0-4 0-5-4-8-1-2-3-3-3-3s-7-1-15-1c-13-1-14-1-17-3-5-6-4-29 4-48 4-9 5-21 4-31-1-12-3-21-5-26-1-2-2-6-3-8-1-6-4-16-9-26-4-9-6-11-12-17-4-4-9-8-11-9-13-9-19-14-19-16-1-3-1-3 4-8 4-4 6-7 8-13 4-9 8-13 14-17 6-3 10-7 11-13 0-2 1-6 1-8 1-2 1-9 2-17 0-10 0-14-1-18-1-2-2-11-3-19-2-25-5-37-12-44-5-6-26-15-40-17-13-3-20-3-30-1-18 4-33 13-39 24-7 14-10 39-12 112-1 36-3 49-7 58-2 4-4 9-5 10-6 9-12 21-16 34-1 5-3 13-5 19-3 9-3 13-4 25-1 10-2 19-4 29-3 14-3 17-3 33 0 31 6 53 16 58 3 1 11 1 63 2 61 0 132 1 133 2s13 0 15-2m258-2c26-1 53-1 62-1 21 1 69 0 82 0 15-1 14-1 16-23 1-10 2-20 3-23 0-3 2-13 2-23 2-16 3-23 6-49 1-6 2-15 3-20 1-4 2-12 2-16 1-10 4-48 4-58 0-14-3-25-14-46-13-28-31-56-44-70-12-14-16-21-18-31 0-6-4-10-11-10-9-2-13-4-18-11-7-11-8-15-6-32 1-8 2-16 3-18 1-3 2-7 2-10 1-4 2-10 3-14 4-17 2-32-7-50-7-13-11-19-19-24-10-7-17-9-28-9-18 0-46 8-60 17-7 4-15 13-18 20-2 4-2 6-2 11 1 6 0 15-4 33-1 2-1 10-2 18 0 7-2 16-3 21l-1 8 3 6c2 4 6 11 8 17s6 13 8 17c4 8 8 10 22 13 13 3 19 7 17 14 0 3-9 15-18 25-6 7-7 9-11 23-2 5-6 15-10 24-9 20-20 53-23 66 0 2-2 10-4 18-3 15-9 43-14 64-1 7-5 22-8 34-3 14-6 28-7 36-2 18-2 49-1 50 1 0 4 1 8 2s8 1 9 2c4 1 16 1 88-1z"/></svg>