<svg xmlns="http://www.w3.org/2000/svg" width="1344" height="566"><path d="M0 283V0h1344v566H0V283m620 278c6 0 13-2 17-3 5-2 8-2 17-2 7 0 16-1 21-1 8-2 13-2 27-1 40 2 62 3 77 2 14 0 15-1 15-2 0-2-2-3-12-7-15-5-26-9-41-18-7-4-16-8-20-9-3-2-10-4-14-6-15-6-29-12-32-13-4 0-24-10-26-13-2-1-5-3-8-5-8-5-10-8-9-17 0-8 1-12 7-19 4-5 18-33 21-42 2-5 2-9 2-15 0-9-1-13-6-20-2-3-6-20-6-27 0-2-1-6-2-8 0-2-1-6-1-10 0-6-1-9-3-13-3-7-6-10-19-22-5-4-13-11-16-15-9-8-20-17-32-25-11-7-22-10-42-13-14-1-18-1-29 0-8 1-20 2-27 2-20 1-31 5-43 15-8 6-9 10-9 24-1 14-1 13-11 36-10 21-11 28-8 73 1 37 1 41-4 53-3 9-9 16-20 24-4 3-13 11-20 18-20 21-31 35-37 49-7 14-6 20 1 24 5 2 23 3 34 1 8-1 29-2 49 0 12 1 15 1 18 3l5 3h88c49 0 93 0 98-1z"/></svg>