<svg xmlns="http://www.w3.org/2000/svg" width="1344" height="566"><path d="M0 283V0h1344v566H0V283m205 279c9 0 32-1 51-1 20-1 36-1 37-2l4-4c1-2 3-7 6-11 6-10 10-20 11-32 2-12 5-19 9-21 1 0 5-1 9-1 3 0 7 0 8-1 1 0 8-1 15-2 7 0 19-1 27-2 12-1 28-4 44-9 4-1 11-3 16-4 14-3 19-5 26-7 4-2 8-3 10-4s6-2 9-4c6-2 20-7 28-10 3 0 6-2 8-4 4-3 4-4 4-8 0-5 0-5-4-7-2-2-5-5-6-7-3-7-4-7-22 1-13 5-15 6-19 5-9-1-13-5-13-16 0-5-1-8-5-8-2 0-4 3-8 17-6 16-8 18-28 20-28 3-61 1-71-4-5-2-10-8-11-14-1-2-3-11-4-18 0-7-2-18-3-24-3-13-2-19 4-34 3-6 6-13 7-15l3-3 11-1c6 0 12-1 14-2 3-2 9-9 13-15 2-3 5-8 9-11 7-7 8-10 9-21 1-8 2-14 5-28 2-9 2-17 0-23-3-9-17-26-25-30s-22-7-31-7c-6 0-9 0-14 3-13 5-25 20-31 36-4 7-4 8-11 12-12 6-13 7-25 8-26 4-49 13-78 31-14 9-28 23-40 38-4 6-9 13-11 15s-6 8-8 13c-7 11-28 53-28 57-1 4 1 7 6 7 7 0 10 5 13 19 1 6 3 13 4 16 5 8 6 26 4 37-1 3-3 8-5 12-5 7-7 10-13 21-3 5-5 8-8 9-2 1-3 3-3 4 0 3 9 12 16 17 3 2 8 4 11 5 15 3 26 6 32 10 6 3 18 3 42 2z"/></svg>