<svg xmlns="http://www.w3.org/2000/svg" width="1344" height="566"><path d="M0 283V0h1344v566H0V283m662 279h98l13-2c8-2 14-4 15-5 3-2 2-8-1-15-1-2-2-6-2-7 0-2-1-6-1-9-1-4-3-15-3-26-1-11-2-20-2-21-1 0-2-5-3-11-2-9-2-11-3-64v-54l-2-14c-5-25-11-41-19-51-2-3-9-10-16-16-15-15-17-18-17-25s3-21 7-31c4-8 7-17 9-26 1-7 1-12 1-34-1-48-5-66-18-85s-47-40-82-51c-10-4-11-4-30-6-20-1-31-1-46 3-13 2-16 4-26 10-21 13-31 23-42 44-10 18-14 33-19 71 0 8-2 14-2 15-1 1-4 2-6 4-4 2-6 3-7 7-2 4-2 5-1 12 1 9 1 24 0 29-2 6-18 32-26 42-5 6-10 9-21 14s-22 11-52 32c-30 20-35 24-52 41s-25 28-44 57c-8 12-10 17-15 33-6 19-6 20-10 47 0 4-1 24 0 45v38l3 3c4 5 7 5 29 5 11-1 53-1 93-2 39 0 79 0 89-1 19 0 54 1 79 4 12 1 29 1 64 0h68z"/></svg>