<svg xmlns="http://www.w3.org/2000/svg" width="1344" height="566"><path d="M0 283V0h1344v566H0V283m254 278c24-1 48-2 54-2 10-1 12-1 15 1 5 2 13 2 197 2 198 0 239-1 247-4 2-1 3-1 6 0 3 2 34 6 36 4h29c18 0 32-1 37-2 6-1 18-1 49 0 24 0 51 0 64-1 70-3 78-3 108-2 47 2 64 2 70 0 7-3 9-6 9-14 0-6-3-29-6-48 0-6-1-21-2-39 0-39-3-71-11-120-6-38-11-52-25-71-8-11-16-17-34-25-9-4-29-13-35-15-12-3-30-17-34-25-2-4-2-6-2-16 0-18 2-26 9-33 5-5 8-8 10-16 3-10 3-13-2-19l-3-4V91c-1-31-3-40-15-52-6-7-7-8-22-13-9-3-14-4-19-5-8 0-9 0-22 4-15 6-31 15-36 22-7 10-9 15-12 44-1 10-3 20-3 23-2 4-2 6 0 14 0 5 2 13 4 17 4 11 6 22 6 36 0 12 0 12-3 16s-16 16-24 21c-6 3-29 15-38 18-32 13-56 37-69 68-4 10-15 51-20 78l-4 16c-1 5-3 14-4 20-5 27-5 30-1 49 3 12 5 45 3 47-1 0-2 1-2 1-2 0-25-15-33-20-10-8-11-10-11-37-1-29-4-39-16-66-5-12-13-32-13-34 0-1-1-4-2-8-3-14-11-50-14-66-2-14-9-42-14-52-5-11-10-19-18-27-11-11-32-24-50-30-8-3-24-5-32-3-7 1-26 7-39 12-13 4-23 14-32 29-8 13-11 24-16 55-4 32-5 55-3 68 1 4 1 14 2 22 0 9 0 20 1 25s1 16 1 25c0 28-2 32-20 36-5 2-12 3-14 4-8 1-15 3-21 5-7 2-10 3-12 0-3-3-5-17-6-36 0-19-2-36-4-42-1-1-2-6-2-10-1-12-5-32-7-39-5-17-12-27-28-39-8-6-22-17-26-21-4-3-4-6 2-13 4-3 6-6 6-7s2-5 4-10c4-7 4-9 5-19 1-6 1-14 2-18 2-16-1-54-7-71-6-19-20-31-43-38-9-2-11-2-23-2-15 1-20 2-32 9-11 5-19 16-23 29-1 4-3 37-3 48 0 6 4 19 8 25 5 8 7 14 8 22 1 13 0 17-8 20-3 1-6 3-8 6-3 2-7 7-9 9-3 3-7 8-10 11l-15 15c-6 5-11 11-12 12-1 2-8 9-17 16-17 15-24 23-29 34-4 10-9 29-9 42-3 35-3 45-5 56-3 30-1 42 10 66 3 6 4 10 6 20 1 6 2 13 3 15 3 5 14 15 18 17 4 1 45 3 57 2 3 0 25-1 48-1z"/></svg>