<svg xmlns="http://www.w3.org/2000/svg" width="1344" height="566"><path d="M0 283V0h1344v566H0V283m711 278c5-1 9-2 11-3 3-1 4-7 4-16 0-5 1-11 2-14 1-5 1-6 0-9s-3-8-3-11c-1-6-1-8-4-11-5-6-11-21-20-44 0-2-3-8-5-12-4-8-4-8-4-17 0-6 0-10-1-12-1-1-4-3-7-5-12-5-57-23-75-30-37-13-43-17-46-24-3-8 0-25 9-53 8-24 9-32 9-49-2-35-16-106-27-131 0-1-3-8-6-14-9-25-15-35-33-53-13-12-25-20-40-26s-22-7-40-7c-15 0-16 0-26 3-6 2-14 5-18 7s-12 5-18 7c-19 6-30 18-44 44-9 18-15 37-20 63-12 70-15 97-19 166-1 15-1 27-1 34 1 7 1 15 1 20 0 9 0 9-3 12-1 1-6 4-9 5-16 7-22 10-40 22-11 7-25 16-32 19-21 11-23 13-24 26-1 7-2 13-8 28-4 11-7 21-8 26 0 3-1 8-2 10 0 1-2 9-3 17-2 17-2 25 2 29l2 2h119c13 0 174 1 175 1 0 1 245 0 252 0z"/></svg>