<svg xmlns="http://www.w3.org/2000/svg" width="1344" height="566"><path d="M0 283V0h1344v566H0V283m762 278c10-2 14-4 15-8v-14c-1-7-1-18-1-25-1-8-1-18-2-24-3-28-3-51 0-82 3-29-1-61-10-84-6-14-9-19-26-36-20-20-19-19-16-40 2-8 5-21 7-27 2-7 5-18 6-25 2-10 2-14 2-30-2-46-7-71-16-86-9-14-30-30-53-41s-39-15-60-15c-8 0-19 1-23 1-5 1-11 2-15 2-18 3-37 10-52 21-11 8-18 17-27 34-8 15-10 25-13 56-2 14-4 27-4 29l-6 6c-3 1-5 4-6 6-2 4-2 7 0 27 2 21 0 28-13 45-9 13-12 15-37 27-12 6-42 24-61 36-35 25-63 53-86 89-12 18-15 25-20 44-7 29-8 54-5 81 2 19 5 26 10 29 3 3 4 3 33 3 17 1 43 1 61 0 69-3 140-3 170-1 10 1 43 2 74 2 30 1 64 1 74 2h56c30 0 37 0 44-2z"/></svg>