<svg xmlns="http://www.w3.org/2000/svg" width="1344" height="566"><path d="M0 283V0h1344v566H0V283m241 277c3-1 5-6 5-12 0-5-2-17-6-36-2-8-5-24-7-38-1-3-2-10-3-13-1-4-2-8-2-10 1-1 3-3 5-4 3-2 6-4 7-5 1-2 1-2 0-7-12-40-22-64-31-80-8-12-14-27-14-35 0-4 10-22 19-32 5-6 6-6 18-8 10-2 15-5 17-9 2-3 5-22 6-37 0-6 1-12 2-13 0-2 8-10 16-19 15-16 16-17 18-23 1-4 2-8 2-9 0-4-3-8-7-10-5-2-17 1-27 6-5 3-8 3-9 2s-3-4-10-18c-1-3-4-7-7-10-3-4-4-4-8-4-9 0-12 4-13 23-1 7-1 14-2 15s-2 3-4 3c-6 3-5 7 6 19l6 6v7c-1 8-5 17-8 18-5 1-15-4-36-15-5-3-14-8-20-10-12-5-15-7-15-11s4-8 13-12c6-4 8-5 10-9 5-8 2-27-7-44-3-7-6-12-6-13s-2-6-5-12c-3-8-5-11-8-14-2-2-4-3-4-3-1 0-6 3-12 9-7 6-10 13-13 27-3 11-6 21-9 30-1 3-4 11-5 18-11 36-25 71-35 83-8 10-7 14 5 19 6 3 10 6 16 15 3 4 14 16 25 27 21 22 21 21 29 49 8 23 12 48 15 82 0 6 2 14 3 18 2 7 3 10 9 40 7 32 12 44 19 53 5 4 7 5 13 6 9 1 47 1 49 0m277-101c5-1 20-14 21-19 1-2 1-5 1-9-1-8 1-10 9-11 11-1 25-4 32-6 15-4 32-7 45-7 9 0 14-1 16-2 3-1 7-2 10-2 6-1 6-1 11 1 9 5 16 7 21 7 4 0 6 0 8-3 3-3 5-9 5-17 0-5-1-7-5-16-5-9-6-15-13-43-4-16-5-24-6-40-2-32-3-43-5-48-1-4-2-9-3-11 0-6-5-24-7-31-6-18-12-27-27-37-10-7-10-9-4-21 4-7 4-8 5-18 0-7 0-13-2-21-1-7-2-13-2-15 0-6-6-14-14-19-4-3-21-8-26-8-1 0-5 2-9 4-9 4-20 15-22 21-1 2-1 11-2 23 0 19 0 20-2 25-2 2-6 8-9 11-6 7-8 8-26 17-10 5-21 11-23 12-12 8-17 16-19 32-1 6-1 11-2 12 0 1-1 5-1 8-2 16-3 20-9 27-3 4-5 8-5 8 0 1 1 3 2 5 2 4 2 5 2 13l-1 8 3 3c5 5 6 7 7 14 0 5 1 6 4 10 4 4 7 10 8 21 1 4 2 11 3 15 0 4 1 13 2 22 1 8 1 17 2 21s1 11 1 17c0 7 1 13 1 15 1 3 2 6 2 9 2 8 9 20 14 23 4 1 4 1 9 0z"/></svg>