<svg xmlns="http://www.w3.org/2000/svg" width="1344" height="566"><path d="M0 283V0h1344v566H0V283m518 276h24c14 0 19 0 24-1 4-1 10-3 14-3 3-1 9-2 13-3 8-3 20-5 23-5 2 0 3-1 4-1 2-2 0-8-4-11-1-1-2-3-2-4 0-3 3-8 7-11l9-9c4-3 9-7 12-9 6-4 13-12 18-22 2-3 5-8 8-12 2-3 6-8 7-10s5-7 8-12c6-10 9-17 14-36 6-23 5-21 3-23s-2-2-7-1c-2 1-7 2-11 4-3 2-7 3-9 4-5 0-6-2-7-16 0-11 0-14 3-22 1-6 4-15 6-19 3-6 5-13 6-18l1-9-3-5c-3-4-4-5-7-6-5-1-5-1-10 1-10 6-15 5-21-3-4-6-7-9-17-15-20-10-40-23-45-29-6-5-5-7 2-14 3-3 7-5 9-6 6-2 11-7 19-21s8-14 11-44c3-27 4-54 2-65s-6-20-14-27c-7-7-30-23-39-27-6-3-7-3-22-4-20 0-28 1-43 8-9 5-11 6-20 15-6 5-11 12-13 14-2 5-8 26-8 30 0 1-1 5-2 8-2 6-5 19-7 32-4 17-5 47-5 70 1 24 1 26-4 32-3 3-14 12-24 18-7 5-11 9-17 20l-5 9v16c1 8 1 18 2 21s1 11 1 23c-1 20-2 25-8 29-5 3-6 5-6 11 0 2-1 10-2 17-2 16-2 49 0 58 2 10 3 12 10 20l10 10c1 2 4 4 6 5s3 3 4 9c1 3 2 11 2 16v9l4 4c2 2 6 5 9 7 4 2 6 3 15 3 7 0 24 1 38 0h34z"/></svg>