<svg xmlns="http://www.w3.org/2000/svg" width="1344" height="566"><path d="M0 283V0h1344v566H0V283m715 278c9-2 162-3 277-2 80 2 81 2 99 1 14 0 16-1 16-9 0-10-6-31-12-45-7-14-23-40-31-50-9-11-23-25-30-29-3-3-7-6-9-7-6-4-22-14-45-26-12-7-26-14-31-17-4-3-11-7-13-8s-9-5-14-9c-15-9-37-22-45-25-4-2-12-4-17-5-17-3-19-5-21-15s-1-38 1-45c0-4 4-13 9-22 12-26 19-49 18-64-1-7-1-10-5-18-4-10-5-14-7-43-2-35-12-55-35-74-8-6-14-9-29-14-24-9-38-11-66-11-33 0-52 5-80 23-22 15-36 35-42 60-3 12-3 39-1 59 2 10 2 26 3 49 1 32 1 35 3 44 4 13 6 19 16 40l10 20c0 1 4 9 9 18s9 18 10 21c0 4 0 4-5 9-4 5-22 20-32 28-3 3-11 10-23 20-4 3-16 11-26 18s-20 13-22 14c-14 10-49 33-64 43-24 14-29 18-39 33-11 15-16 20-17 18-1 0-2-5-2-10-1-4-2-10-3-12-1-4-7-27-10-43-9-40-14-57-21-74-16-32-36-55-67-74-12-7-43-23-60-30-38-15-44-18-56-26-7-5-8-8-6-10 0-1 5-3 11-6 17-7 22-13 30-40 5-19 15-50 18-56 4-7 5-14 4-36s-1-34 1-42c2-5 5-23 5-30 0-4-2-9-8-24s-9-19-13-21l-4-3H7L4 7l-3 3v270c0 292 0 273 5 278 2 1 4 1 12 1 19 0 94-1 126-2 17 0 51-1 76 0 68 1 97 0 113-2 6-1 12-1 23 0 21 2 56 2 62 0 5-1 5-1 10 2l4 3h27c15 1 67 1 116 2 49 0 90 0 90 1 1 0 46-1 50-2z"/></svg>