<svg xmlns="http://www.w3.org/2000/svg" width="1344" height="566"><path d="M0 283V0h1344v566H0V283m843 274c3-3 5-9 5-13 0-1-1-7-3-13-3-10-5-18-17-49-4-13-4-14-4-26 0-9 0-14 2-24 4-16 6-27 9-35 6-20 7-26 9-37 2-18 1-32-5-52-2-8-2-17 0-36 3-24 4-34 1-57-2-22-3-24-10-33-9-12-9-11-9-26 0-14-1-22-5-32-2-4-4-11-6-16-4-12-8-19-14-24-6-6-7-6-14-8-5-1-7-1-13 0-9 2-18 6-21 10-7 11-9 18-8 37 0 12 0 14 2 21 2 3 5 9 7 12l3 5-2 3c-1 1-4 4-7 6-7 4-9 7-11 15-1 6-5 38-6 54-1 6-2 12-2 14-1 2-3 7-4 12-2 6-4 11-7 16-6 9-7 10-7 14 0 3 1 4 3 5s4 2 5 2c2 0 7 3 9 6 2 5 5 6 20 7 7 1 14 2 15 2 1 2 1 10-1 26-1 6-1 10 0 14 1 3 1 7 1 10 0 7-5 25-13 43-2 5-4 12-5 16s-3 8-4 11c-2 9-2 13 5 25 15 25 18 30 21 37s3 8 2 13c0 3-3 9-6 14-6 10-6 13-3 18l3 2 7-1c13-4 16-4 23-3 9 2 12 0 14-9 0-2 1-3 2-3s3 4 8 17c1 3 6 9 9 11 2 0 7 1 12 1 7 0 8 0 10-2z"/></svg>