<svg xmlns="http://www.w3.org/2000/svg" width="1344" height="566"><path d="M0 283V0h1344v566H0V283m792 278h96c50 0 50 0 53-6 2-3 6-34 6-43 0-3-1-10-3-14-1-5-3-12-3-14-2-9-3-13-4-18-4-11-4-12-6-18 0-3-2-11-4-18-1-6-3-15-3-19-2-13-4-23-10-43-7-18-9-25-13-44-3-12-7-20-12-25-5-4-7-5-25-10-17-4-28-11-29-19-2-6-5-16-8-19-4-7-5-10-5-30 0-22-2-47-5-57-8-25-32-43-58-43-4 0-14 1-21 2-18 3-24 6-35 17-6 6-9 9-13 17l-5 11v12c0 8 0 14 2 21 1 6 2 13 2 17 0 7-1 8-13 24-5 5-10 11-11 13-4 7-11 31-12 43-1 8-3 13-9 21-3 4-5 9-7 21-1 4-3 10-6 16-3 5-6 12-6 15-3 8-5 13-10 22-7 10-13 24-18 38-3 11-3 12-3 25-1 15 1 24 5 32 3 5 8 10 15 14 5 2 6 2 16 2 9 0 11 0 15-2 7-3 12-8 17-14 6-10 6-10 7 28 0 21 1 34 2 37 2 7 4 7 25 8h96z"/></svg>