<svg xmlns="http://www.w3.org/2000/svg" width="1344" height="566"><path d="M0 283V0h1344v566H0V283m726 276c25-2 27-3 25-15 0-4 0-12-1-20 0-7-1-16-1-20-1-6-1-15-1-48 1-22 1-51 1-63 0-21 0-23-2-35-4-16-9-30-12-36-7-15-26-34-49-50-4-3-8-7-9-9-2-3-2-4-1-10 1-4 2-9 3-11 0-2 2-8 2-12 1-3 3-11 4-16 4-13 5-28 5-51-2-47-11-71-35-95-12-12-19-17-37-25-10-6-17-8-28-11-14-3-15-3-34-3-18 0-22 0-35 2-15 3-21 5-31 10-36 18-54 47-60 96-1 15-3 25-4 30 0 2-2 5-6 8-7 7-7 10-4 29 2 8 3 21 4 29l1 14-2 5c-4 8-9 11-25 19-19 9-48 23-58 29-4 3-13 7-19 11-15 8-29 19-46 36-18 18-39 44-47 59-4 6-10 21-15 37-2 8-2 10-2 26 0 15 0 19 2 31 2 10 3 15 3 19-1 3-1 12-2 21v14l2 3 3 2h46c26 0 59 0 73-1 35-1 166-1 180 1 5 1 11 1 13 1 2 1 44 1 92 1 70 0 93 0 107-2z"/></svg>