<svg xmlns="http://www.w3.org/2000/svg" width="1344" height="566"><path d="M0 283V0h1344v566H0V283m456 140c8-3 12-6 14-11 3-5 5-7 10-10 4-2 25-9 32-9 3-1 13-1 23-2 17-1 20-1 25-4 6-2 8-2 13-2 6 1 23 4 30 5 2 1 23 1 46 1 33 1 44 1 50 2 6 2 10 2 25 1 21-1 41-3 46-5 1-1 9-3 16-5 7-1 18-4 24-6 9-3 11-3 23-3 9 0 15 0 19 1 6 2 8 2 10 0 2-1 2-3 1-16-1-7-2-18-2-23-1-5-2-17-2-26-1-9-2-18-2-20-1-2-1-6-1-9 0-5 0-6 2-6 4 0 4-1 6-8 3-19 4-96 1-112-1-4-2-11-2-16-3-27-14-57-26-72-6-7-27-24-34-27-7-4-19-5-31-5-10 1-13 2-21 4-22 8-29 12-38 21-14 14-20 33-20 67 0 9-1 19-1 21-1 2-1 22-2 44-1 30-1 40-2 41-2 3-8 4-25 4-21 0-24-1-26-6-1-3-2-5-2-6 0-7-10-14-23-14-7-1-8-1-10 2-1 1-3 2-4 2-2 0-5 1-9 2-4 0-11 2-16 2-5 1-11 3-13 3-2 1-6 2-8 2-3 0-5 1-8 4-3 2-9 6-14 8-4 3-10 6-11 7-4 4-7 11-8 24-3 18-3 19-10 25-8 7-15 11-28 18-17 8-19 12-8 14 8 2 11 3 11 5 1 1-3 9-8 19s-10 22-11 25c-1 4-3 10-4 12-6 14-8 21-9 30-2 6-2 7 0 8 2 2 4 2 12-1z"/></svg>