<svg xmlns="http://www.w3.org/2000/svg" width="1344" height="566"><path d="M0 283V0h1344v566H0V283m836 278c16-1 20-2 21-4 2-2 2-21 0-28-1-3-2-8-3-11 0-4-1-8-3-10-4-6-13-25-15-31-1-4-2-9-2-16v-10l-4-4c-4-5-16-12-30-17-4-3-15-7-22-11s-22-11-32-15c-22-10-46-22-52-25-7-4-9-8-10-27-1-12 0-35 2-51 1-5 1-18 2-29 1-23 1-28-5-58-2-9-3-17-3-18s-1-6-3-11-5-16-8-25c-6-23-12-38-24-58-15-26-28-40-49-56-20-14-48-23-75-23-14 0-22 2-41 12-8 4-17 9-20 10-11 3-16 7-25 15-9 10-15 21-22 37-5 14-11 34-12 47-1 6-1 13-2 17-2 12-3 81-2 109s2 34 3 50c1 6 2 15 3 20 0 4 1 10 1 13 1 2 2 11 3 20 2 18 2 18-8 21-9 2-17 5-33 12-7 3-21 10-30 14-25 11-40 19-42 22-3 3-3 7-5 32 0 8 0 10 2 13 2 4 12 13 37 32 21 15 29 21 40 24 4 2 12 5 20 7 17 7 27 10 34 11 14 1 66 1 227 1 112 0 178 0 187-1z"/></svg>