<svg xmlns="http://www.w3.org/2000/svg" width="1344" height="566"><path d="M0 283V0h1344v566H0V283m1154 279c21-1 31-1 34-2s8-6 10-9c1-3 1-3 0-5-3-4-11-11-23-19-22-15-78-60-81-64-2-3-2-5-2-12 0-4 0-9 1-11 2-8 5-29 7-44 1-9 2-19 3-24 2-13 2-94 0-120-2-24-3-27-5-42-10-57-24-101-39-121-7-10-18-20-29-28-11-7-32-17-48-23-26-9-37-9-70-1-29 8-33 9-46 15-22 11-43 32-55 56-6 12-12 36-12 46 0 9 2 28 4 36 2 7 2 28 1 43-1 6-2 19-3 29-2 33-7 65-12 77-1 2-2 9-3 16-2 16-4 22-10 25-7 5-20 9-27 10-4 1-8 1-8 2 0 0-8 1-18 2-30 5-36 6-50 10-9 2-20 4-30 4-8 1-16 3-18 3-9 4-28 18-36 28-7 8-14 25-21 50-4 15-8 24-17 36-11 17-15 29-10 34 2 1 4 1 37 1 20 0 53 0 74-1h42c3 1 153 2 225 1h46c18 1 58 1 89 2 31 0 56 0 56 1 0 0 3 0 7-1h37z"/></svg>