<svg xmlns="http://www.w3.org/2000/svg" width="1344" height="566"><path d="M0 283V0h1344v566H0V283m966 279c9-1 16-4 18-7 3-4 2-12-2-23-2-5-4-13-5-17-1-5-2-10-3-12 0-2-2-9-4-16-4-17-11-43-13-48 0-1-2-8-2-15-2-11-5-22-12-37-2-5-5-17-8-28-6-23-8-32-12-38-4-10-16-17-31-19-12-2-19-4-29-9-12-5-20-12-24-20s-5-25-3-44c2-14 2-14 0-34-3-30-7-43-14-54-7-10-19-20-33-26-6-3-7-3-21-3-19 0-43 4-53 10-12 6-27 23-32 37-2 7-2 24 2 36 5 21 6 30 4 36-1 1-4 5-8 8-14 14-21 26-29 51-2 5-4 12-5 15s-2 9-2 13c-1 6-1 9-5 16-3 6-5 11-6 17-1 10-5 18-9 23-3 3-5 6-7 13-5 19-6 22-11 29-7 10-9 15-13 27-7 20-9 30-9 45 0 23 4 36 13 45 6 6 13 9 25 10 14 1 26-3 36-13 4-3 6-4 7-3 2 1 4 7 5 18 1 10 2 15 5 15 1 1 63 1 138 1 76 1 137 1 138 1 0 1 2 1 4 0h10z"/></svg>