<svg xmlns="http://www.w3.org/2000/svg" width="1344" height="566"><path d="M0 283V0h1344v566H0V283m822 277c24-1 167-1 183 0h22c18-2 19-3 22-28 0-7 2-17 2-22 1-6 3-15 4-21 0-6 2-16 3-23 3-23 6-52 6-66 0-21-3-31-14-56-7-16-18-35-29-52-7-10-11-14-27-29-19-20-23-24-25-36-1-7-3-9-9-10-3-1-7-2-10-3-4-2-4-3-9-13s-5-11-5-19c0-6 1-12 2-18 2-6 5-17 7-26 2-8 5-20 7-27 5-17 6-25 3-37-3-16-12-35-19-41-1-2-8-6-14-9-11-5-13-6-25-8l-14-2-11 2c-6 1-15 3-19 5-4 1-10 3-14 4-11 2-20 7-27 15-11 10-13 15-14 29-1 7-2 14-4 22-2 6-4 16-4 24-2 12-3 17-6 26-5 14-6 22-3 26 1 2 4 9 7 17 2 7 7 17 10 23 7 14 10 16 25 21 12 4 16 7 21 15l2 6-3 5c-2 4-9 12-16 20-15 18-17 21-18 35-1 11-1 10-13 37-6 12-12 30-15 38 0 3-2 10-3 14-4 12-9 37-12 53-3 19-6 33-8 41-2 10-5 57-4 60s2 3 12 7c5 1 21 3 29 2 2 0 14 0 27-1m-314-2c4-3 9-15 13-28 3-11 2-32-4-49-2-9-5-19-5-23-2-10-11-32-18-41-4-6-18-18-29-25-17-12-18-14-10-34 9-21 12-24 26-29 10-3 13-5 16-9 1-2 1-3 0-9-1-5-1-13-1-28 1-25 1-22-7-37-3-4-7-14-10-22-13-38-21-47-47-51-14-3-34-3-42-1-23 5-44 21-53 37-5 11-6 16-7 47 0 15-1 29-2 31s-1 21-1 57c0 44 0 54 2 57 1 4 0 10-4 20-6 14-11 31-11 38 0 3-2 12-8 27-5 16-7 25-7 28 0 2-1 8-2 12-1 8-1 9 1 16 1 9 4 16 8 17 1 1 28 1 101 1h99l2-2z"/></svg>