<svg xmlns="http://www.w3.org/2000/svg" width="1344" height="566"><path d="M0 283V0h1344v566H0V283m570 275c65-2 139-2 177 0 34 1 127 1 152-1 12-1 73-1 116-1 35 0 88 1 107 2 23 0 24 0 26-2 8-8-10-47-33-72-10-11-21-20-35-28-15-9-12-7-94-36-34-12-47-21-49-32 0-4 1-9 6-34 1-4 4-18 5-28 6-35 10-43 22-47 10-4 18-10 27-22 7-9 15-26 17-35 0-4 2-10 2-12 1-6 0-19-2-24s-6-9-11-12c-9-4-9-6-7-28 1-9 2-28 3-42 1-23 1-27 0-42-1-9-3-23-5-31-4-20-4-21-31-25-12-2-18-2-111-2-124-1-148 0-161 5-9 3-18 24-24 57-2 12-3 34-3 58 0 20-2 38-6 44-1 3-1 6-1 20 0 15 0 17 3 29 3 14 10 31 19 47 6 12 12 27 18 46 3 7 6 18 8 23 8 21 7 23-12 26-17 3-45 13-49 17s-12 13-28 38c-21 31-29 39-56 57-3 3-13 9-20 14-7 6-17 12-20 15-4 2-12 8-18 11-5 4-13 10-17 12-4 3-12 8-17 12-26 19-26 20-22 22 1 1 4 2 6 2 6 1 52 1 118-1z"/></svg>