<svg xmlns="http://www.w3.org/2000/svg" width="1344" height="566"><path d="M0 283V0h1344v566H0V283m498 278 21-1 3-2 2-3 1-25c0-21 0-25 2-31 1-3 2-7 3-8 2-4 5-16 5-22 0-3-1-8-1-12-3-10-4-18-5-25-2-17-6-33-11-42-5-12-7-13-16-21-8-7-13-10-22-16-11-6-12-11-5-19 2-2 6-8 8-13 6-11 8-14 16-18 3-2 7-4 8-5 1-3 3-13 4-32 1-14 1-14-1-21-2-5-3-10-3-12 0-8-3-31-5-38-3-10-7-18-14-22-2-2-5-3-6-3s-6-2-11-4c-18-7-39-10-55-7-6 1-19 7-26 12-6 5-15 16-19 23l-3 6-1 50c-1 75-2 98-6 107-1 4-7 13-14 23-6 7-14 23-15 32-2 5-4 13-9 28-1 5-3 13-4 19s-3 15-4 21c-1 7-2 17-3 23s-2 15-2 19c-1 7-1 23 1 29 1 2 2 5 3 7 3 2 3 3 18 3 13 1 115 0 166 0m471-1c3 0 7-1 13-1 5 0 10 0 12-1 6-2 6-5 7-32 2-43 4-102 6-136 1-34 1-45-3-56-6-18-16-37-36-68-10-18-12-19-26-35-12-14-14-17-16-25-2-11-4-13-13-14-7-1-15-7-18-12-4-8-4-13-2-27 1-8 3-17 4-21 2-4 5-14 7-23 5-20 5-28 0-43-9-26-12-32-23-39-10-6-17-8-28-9-12-2-21-1-44 7-14 4-21 8-30 16-11 11-12 14-12 27-1 7-2 13-3 18s-3 14-3 20c-1 7-2 13-3 18-2 3-4 11-5 16l-1 10 4 7c2 3 5 10 6 14 2 8 10 24 14 28 2 3 9 7 12 7s16 6 19 9c11 13 10 21-10 43-8 9-10 13-12 29-1 13-4 24-10 35-4 8-11 31-14 46 0 5-2 13-3 18s-3 14-4 18c-1 5-3 13-3 17-1 4-3 12-4 17-2 9-8 43-9 51-1 2-2 8-3 12-10 54-10 53-8 55 4 3 19 3 113 4 52 0 100 0 106 1 15 1 19 1 23-1z"/></svg>