<svg xmlns="http://www.w3.org/2000/svg" width="1344" height="566"><path d="M0 283V0h1344v566H0V283m558 278c84 0 116 0 168-1 88 0 278 0 284 1 7 1 39 0 45-1 7-2 8-9 1-26-5-12-5-14-3-25 1-9 1-10 0-12-2-3-19-13-33-20-9-4-28-14-56-30-30-16-31-17-31-31 1-4 2-17 3-28 7-52 7-55 8-83 1-43-2-106-7-132-4-31-12-58-22-79-8-16-14-24-25-37-16-16-33-27-51-35-4-2-11-4-15-6-19-8-41-8-59 0-7 3-9 4-19 4-21 1-34 8-51 24-11 12-14 17-23 33-13 25-22 63-25 103-2 30-2 40-1 62 2 33 2 38-1 46-4 7-12 16-24 25-6 5-8 7-9 10-1 2-1 18-1 37 0 29 0 33-2 36-3 6-6 7-20 8-7 1-15 2-19 2-7 2-17 6-19 7 0 0-7 3-15 6-20 7-61 23-67 26-4 2-5 6-3 12s1 12-1 18c-5 15-11 31-16 43-6 15-10 28-11 34 0 4 0 5 2 7 3 2 14 3 64 2h54z"/></svg>