<svg xmlns="http://www.w3.org/2000/svg" width="1344" height="566"><path d="M0 283V0h1344v566H0V283m744 279h100c5 0 19 0 32-1 28-1 27 0 27-13 0-5 1-9 1-11 3-5 2-24-1-32-1-2-3-4-7-6-6-3-8-6-8-13 0-2-1-5-4-9-11-14-25-23-48-32-37-15-46-19-55-27-10-9-22-21-32-32-10-12-11-15-7-20 0-1 2-5 3-9 4-10 10-20 13-23 1-1 5-3 8-4 2 0 7-3 9-4 4-4 5-5 9-16 10-31 14-60 10-85-3-20-7-31-17-46-9-15-23-27-39-34-11-6-16-8-27-10-5 0-12-2-17-3-13-2-24-2-35-1-12 2-17 4-30 11-12 5-22 13-29 22-12 14-15 23-18 54-1 10-3 22-3 27-1 5-2 12-3 15-1 4-2 10-2 13-1 2-3 9-3 14-2 10-4 18-8 25-1 2-2 6-3 8-5 14-8 24-11 26-8 10-33 61-37 77-5 18-5 40-1 55 2 10 4 13 10 19 2 3 4 6 5 8 1 1 1 10 2 25v22l2 3c4 3 20 5 54 6 39 2 50 2 60 1h100z"/></svg>