<svg xmlns="http://www.w3.org/2000/svg" width="1344" height="566"><path d="M0 283V0h1344v566H0V283m872 277h238c12 1 28 1 36 0 13 0 14 0 17-3 2-2 2-3 2-8-1-10-13-44-20-56-8-13-19-28-35-45-16-16-27-23-64-40-28-12-34-15-43-20-5-3-14-7-19-10-12-6-15-8-15-12 0-5 5-20 9-27 2-3 3-8 4-11 0-4 2-9 4-13s6-11 8-16c2-4 6-10 8-14 2-3 4-8 5-11 0-3 1-16 2-29 1-22 1-24 3-31 4-11 6-18 6-23 0-3-2-12-5-20-8-29-8-32-5-57 1-15 1-16-1-22-2-10-13-24-29-37-9-9-16-13-28-18-4-1-10-4-14-6s-8-3-16-5c-8-1-12-2-18-5-8-4-11-5-18-2-4 1-8 1-25 1-18-1-21-1-30 1-17 3-20 5-39 24-25 25-32 34-37 48-3 9-5 28-5 44s0 21 8 51c5 17 7 29 9 52 1 12 3 42 3 43-1 0-2 7-4 14-2 8-4 15-5 17 0 1-4 4-8 6-9 4-16 9-23 15-4 4-26 17-39 23-7 4-22 10-29 12-6 1-40 16-60 25-6 2-17 7-26 11-35 15-51 26-69 44-21 22-35 46-47 81-6 19-6 25-2 27 2 1 20 1 72 1 38 0 76 0 85 1h259z"/></svg>