<svg xmlns="http://www.w3.org/2000/svg" width="1344" height="566"><path d="M0 283V0h1344v566H0V283m608 280 12-1 8-5c13-9 18-11 34-11 9-1 12-1 17-4 7-4 16-13 20-21 1-3 3-10 4-15 1-9 1-12-1-31 0-5-1-13-1-20 0-16-2-27-5-33s-4-13-1-30c0-8 2-18 2-22 2-14-1-47-5-54-3-6-15-18-31-29-13-10-22-17-23-20s-1-4 4-13c2-6 5-12 6-14 2-6 5-10 12-11 3-1 6-3 9-6l4-3v-14c1-8 2-19 3-25 3-14 3-19 0-25-3-7-6-19-7-34-3-22-7-34-15-42-7-6-22-13-40-17-12-3-21-3-30-2-9 2-30 10-37 13-7 5-15 14-21 28-6 13-9 21-10 36 0 4-1 13-2 18 0 4-2 14-2 20-6 39-7 49-11 52-3 3-10 6-20 6-9 1-11 1-17 4-4 2-9 5-13 6-11 5-11 5-16 13-5 6-15 16-21 19-1 1-4 4-5 6-3 6-5 7-13 6h-6l-10 6c-23 14-54 39-58 49-1 2-2 7-3 11s-3 15-6 25c-7 30-7 28 0 43 13 24 18 29 35 36 16 6 18 7 20 10 4 3 13 20 19 32 5 12 6 18 5 35-2 16-1 21 2 23 4 3 19 5 28 3 4-1 14-1 23-1h55c21 0 39 1 40 1 3 2 48 3 68 2z"/></svg>