<svg xmlns="http://www.w3.org/2000/svg" width="1344" height="566"><path d="M0 283V0h1344v566H0V283m652 276c8-1 51-1 94-1h82c7 0 209-1 212-1s18 0 36 1c17 1 45 1 63 1 29 0 33 0 34-2 3-2 3-8 0-15-3-6-23-45-28-53-19-30-34-46-61-66-10-8-34-20-50-26-14-5-25-11-47-21-10-6-24-12-31-14-6-2-14-6-18-8-7-3-11-5-38-26-6-4-13-9-15-10-7-5-7-7-7-21 0-11 0-15 2-21 3-9 5-11 13-16 9-4 15-10 22-20 8-13 10-19 11-30 0-11 0-12-4-18-4-5-4-5-4-13 0-4 1-13 2-19 4-24 5-29 6-43 0-19-1-26-6-39-3-5-6-12-7-14s-3-6-5-9c-2-2-5-6-7-8l-6-6c-2 0-5-3-7-5-7-6-42-24-51-26-4-1-14-2-23-3-13 0-17 0-29 2-23 4-31 6-45 13-4 2-16 11-22 17-8 7-15 17-17 24-5 14-12 46-18 82-1 9-3 20-4 24-3 8-4 29-2 39 1 9 9 40 13 54 2 5 3 11 4 13 1 7 8 28 14 40 8 20 8 21-10 35-13 10-25 16-35 19-11 3-13 4-33 12-27 11-63 26-70 29-32 17-49 31-72 64-16 23-24 41-28 70-1 5 0 12 3 14 1 1 12 1 51 0 27 0 56 0 64 1 19 1 57 1 74 0z"/></svg>