<svg xmlns="http://www.w3.org/2000/svg" width="1344" height="566"><path d="M0 283V0h1344v566H0V283m857 278c13 0 14-1 14-11 0-3 1-9 1-11 3-6 3-24 0-30-2-5-7-9-16-14-4-2-11-6-14-9-4-2-12-7-16-10-5-3-13-8-16-10-4-3-15-9-24-13-19-10-25-14-37-24-4-4-14-12-22-18-16-13-18-16-20-22-1-8 7-45 13-58 3-6 13-16 24-24 15-9 24-22 27-36 2-9 2-26 0-64-1-40-5-55-18-81-8-15-14-24-22-31-24-22-42-27-89-27-20 0-21 0-27 2-18 8-34 22-44 40-9 16-19 37-22 48-2 8-2 11-2 24 0 9 0 21 1 29 2 12 2 19 2 38-1 14-1 27-2 29 0 2-2 12-3 20-2 18-5 27-11 39-4 8-4 8-22 16-7 3-11 4-20 6-6 0-14 1-16 2-3 0-8 1-10 2-9 1-25 5-31 8-8 4-14 11-17 20-4 11-5 15-6 31v14l5 14c8 20 11 29 12 38 1 7 1 9 0 15-3 10-3 18-2 25 3 9 8 21 10 24 5 7 15 9 49 10 30 1 356 0 371-1z"/></svg>