<svg xmlns="http://www.w3.org/2000/svg" width="1344" height="566"><path d="M0 283V0h1344v566H0V283m218 278c5-1 7-1 15 0 13 1 55 2 184 1 62-1 144-1 183-2 77 0 100-1 104-4 1-1 3-5 5-8 2-5 2-6 2-15-1-10-2-15-4-15-1-1-5-2-10-3-5-2-10-3-11-3-11-3-16-4-20-7-2-1-8-4-11-5-4-1-11-5-15-8-5-3-17-10-27-16-18-11-23-16-25-21 0-2 1-10 2-18 5-33 5-43 5-80-1-34-3-70-5-79 0-2-1-7-2-12 0-4-1-11-2-16-1-4-3-11-4-16-5-20-14-47-19-57-9-18-31-35-57-44-26-10-46-13-60-10-19 5-55 21-66 29-2 2-7 7-9 11-6 8-7 9-9 7-1-1-1-3-1-9 0-7 0-9-3-15-2-3-4-10-5-15-3-11-6-17-13-24-11-11-29-18-52-20-10-1-24 0-31 2-8 2-19 9-24 13-9 10-14 28-13 44 1 12 6 40 12 58 0 3 1 10 1 16 0 11 1 10-9 16-3 2-9 8-17 18-7 8-17 20-23 26-7 6-16 15-22 21-5 6-15 15-21 21-17 17-19 24-25 62-3 22-4 32-5 53-2 29 0 39 8 63 2 8 5 19 7 29s4 19 5 21c5 10 13 12 45 13 25 1 36 1 42-2m972-1c5-3 20-18 22-23 2-6 1-15-3-23-2-4-3-9-4-11l-3-9c-4-6-8-23-9-38-3-24-8-55-13-80-8-41-10-48-15-64-7-20-16-34-27-45-7-8-15-12-33-22-7-4-14-9-17-11-4-4-4-5-4-9 0-5 1-8 11-28 9-18 10-22 15-38 3-13 3-14 4-41 1-25 1-27-1-32-3-12-11-21-28-32-11-8-14-8-30-11-27-3-38 0-55 17-11 10-15 19-18 42 0 8-2 19-3 24-1 6-2 20-2 30-1 22-1 24-8 35-3 5-5 6-9 8-3 1-5 2-6 2 0 0-9 4-20 9-10 5-25 11-33 14-16 6-26 11-43 21-22 15-32 26-42 47-6 14-14 41-24 81-1 8-4 20-5 25-6 21-8 36-7 44 0 12 2 24 5 33 1 5 2 11 2 14 0 16 3 37 8 48 4 11 8 17 13 20 5 2 12 2 102 2 91 0 237 1 244 2 4 0 13 1 20 1 10 0 13 0 16-2z"/></svg>