<svg xmlns="http://www.w3.org/2000/svg" width="1344" height="566"><path d="M0 283V0h1344v566H0V283m460 277h30c7 0 30 1 51 0h105c167 1 161 1 164-2 4-3 5-5 3-28-2-19-2-20-5-26-5-8-11-14-22-19-15-7-33-15-56-25-38-16-39-17-38-26 1-2 2-9 4-14 2-4 5-14 7-20 4-15 7-24 11-34 2-5 4-12 6-16 1-4 4-12 7-17 5-12 7-18 9-37 3-26 4-50 4-82-1-29-3-66-5-78 0-3-1-8-2-10-3-26-13-48-28-63-6-6-8-8-21-14-23-11-73-28-94-32-15-2-20-2-35-1-13 1-15 1-19 4-6 3-27 12-37 16-10 3-30 14-34 17-6 5-18 23-25 35-5 9-7 16-12 34-7 27-7 27-10 42-5 22-7 37-10 63-2 14-4 32-4 39-1 7-3 18-3 24-3 21-5 35-6 48-1 7-2 23-4 35-1 12-3 31-3 42-1 18-1 21-3 27-2 4-4 9-5 10-6 8-54 45-82 63-10 7-16 11-17 14-4 5-7 15-7 22s1 9 6 10c4 1 159 0 180-1z"/></svg>