<svg xmlns="http://www.w3.org/2000/svg" width="1344" height="566"><path d="M0 283V0h1344v566H0V283m636 10c1-1 1-3 1-6-1-4-1-5 1-8l2-2 12 1c12 2 15 3 20 9 7 7 8 8 21 8 9 0 11 0 13-2 4-3 9-19 12-41 0-6 2-12 2-14 4-7 15-13 24-13 6 0 10-3 10-7 0-2 1-6 2-10 1-7 1-9-1-16-4-8-24-46-28-51-4-6-11-10-17-11-6-2-18-7-22-11-3-3-3-3-3-11 0-12-3-22-8-28s-10-9-17-8c-7 0-12 2-17 8-6 6-6 7-3 23 1 4 2 8 3 10 3 5 5 11 6 17v6l-11 12c-15 16-16 17-17 41-1 13-2 21-3 26-6 21-8 30-10 38 0 4-1 8-2 9-2 5-1 11 1 14 2 1 4 2 5 2 2 0 12 6 13 8 4 8 8 11 11 7z"/></svg>