<svg xmlns="http://www.w3.org/2000/svg" width="1344" height="566"><path d="M0 283V0h1344v566H0V283m715 279c3-3 1-6-16-26-3-3-7-10-9-14-5-10-11-18-18-26-15-16-32-23-81-34-7-2-15-4-16-5-5-2-13-9-16-14-7-11-2-17 17-20 9-1 21-6 27-11 4-3 5-5 7-11 7-19 12-36 13-43 1-4 3-9 4-11s3-9 5-15 4-13 5-16 3-9 5-13c6-22 16-23 28-3 9 15 16 19 20 11 2-4 0-31-4-53-3-16-16-62-22-76-2-5-4-13-6-17-9-25-30-54-50-70-16-13-47-26-71-29-4 0-13-2-19-3-26-3-37-3-62 1-16 3-23 5-34 11-20 10-31 21-43 38-11 18-18 35-21 51s1 88 4 107c3 13 3 16-7 42l-4 13 1 10c1 10 4 24 5 27 0 4-4 13-12 26-13 19-15 22-20 26-3 3-5 4-16 6-6 2-17 5-25 6-29 8-45 12-53 14-8 1-12 2-23 8-18 9-22 11-28 21-6 8-8 14-10 28-2 18-4 32-6 41-3 16-1 19 12 21 6 1 84 1 226 1 120 0 225 0 235 1 29 1 76 1 78 0z"/></svg>