<svg xmlns="http://www.w3.org/2000/svg" width="1344" height="566"><path d="M0 283V0h1344v566H0V283m358 277c28 0 52 0 53-1 2 0 6 0 9 1 5 1 7 1 10-1 4-1 5-1 13 0 7 1 41 1 144 2h163c32 1 84-1 88-2 2-1 3-2 3-2 0-3 1-28 1-35 0-9-2-14-8-19-3-2-27-15-55-29-55-28-66-34-69-38-1-2-1-3 1-9 7-22 8-27 9-35 1-9 3-16 11-34 3-10 6-18 8-27 1-7 3-17 4-21 1-5 2-14 2-20 0-11-2-36-4-48 0-4-1-12-2-17s-2-14-2-19c-1-6-2-15-3-20-2-19-10-52-16-70-5-12-17-36-23-45-11-16-36-36-53-45-14-7-30-14-40-16-8-2-12-2-22-2-11 0-14 0-27 3-9 2-19 6-23 8-4 1-11 4-16 5-17 3-29 9-41 21-23 23-40 60-51 114-4 20-6 36-11 76-4 34-4 37-4 67 0 28 0 32 2 44 5 29 7 39 10 53 4 16 5 26 2 29-2 3-17 8-31 10s-22 6-44 20c-21 13-32 19-50 28-8 5-16 9-18 10-1 2-5 4-7 5-10 7-13 11-16 25-1 4-3 12-5 15-4 10-5 14-2 17 4 3 11 4 36 3 13 0 46 0 74-1z"/></svg>