<svg xmlns="http://www.w3.org/2000/svg" width="1344" height="566"><path d="M0 283V0h1344v566H0V283m772 276h46c19 1 78 2 93 1 13-1 17-3 18-6 1-2 0-13-4-28-2-6-4-14-5-17 0-3-4-16-7-29-8-33-16-71-20-94-2-9-2-15-1-22 0-9 0-10-2-16-2-3-5-13-7-21-7-35-11-50-17-60l-6-12c-3-6-5-8-10-12-3-3-7-5-9-6-9-6-19-12-24-16-6-5-13-14-13-17 0-1 1-4 3-7 4-7 7-17 9-27 3-14 3-45 0-61-5-24-10-37-21-48-8-9-19-15-33-17-6 0-29 2-35 4-4 1-15 9-20 14s-11 18-14 28c-3 11-3 21-1 35 2 10 2 11 1 14-9 14-11 19-13 29 0 6-2 17-2 26-1 17-2 19-8 21l-10 5c-4 2-9 5-11 5-4 1-16 8-22 13-6 4-9 12-11 22-1 4-2 10-4 14-3 8-4 16-2 23 1 2 2 19 2 36 1 39 1 40 12 55 7 12 11 16 17 20 6 5 7 8 7 20 0 8 0 12-4 28-5 20-9 36-12 52 0 5-2 12-3 15-1 4-2 8-2 9s-1 5-3 9c-1 5-2 9-2 11 0 4 3 7 7 7 2 0 9 1 15 1 12 1 77 0 128-1z"/></svg>