<svg xmlns="http://www.w3.org/2000/svg" width="1344" height="566"><path d="M0 283V0h1344v566H0V283m740 278c122 0 133 0 140-3 6-3 8-18 6-42-1-7-3-17-3-22-2-18-6-27-17-39-6-6-26-21-37-28-4-3-10-7-14-9-3-3-11-8-18-12-11-8-23-17-25-21-1-1-4-6-7-12s-8-14-10-19c-4-7-4-8-4-15 1-5 2-10 4-15 4-10 19-38 24-46 8-11 13-23 16-33 5-23 10-44 11-50 1-4 1-17 2-30 0-31-2-44-12-65-9-21-35-47-56-58-10-5-18-7-35-8-7-1-16-2-21-2-10-2-17-2-30-1-14 2-21 4-31 9-10 6-17 11-27 20-24 23-33 45-36 84-2 26-3 34-8 42-2 4-4 9-5 11-1 6-1 18 0 28 2 14 12 32 23 41 3 2 7 5 7 6 3 4 5 17 5 26v10l-6 8c-10 13-33 33-46 39-6 3-33 13-49 17-23 6-56 17-65 21-11 5-15 10-24 27-10 21-21 47-37 86-3 7-6 16-9 21-11 26-11 29-5 32 1 1 18 1 59 1 32 0 67 1 80 1 12 0 47 1 78 0h182z"/></svg>