<svg xmlns="http://www.w3.org/2000/svg" width="1344" height="566"><path d="M0 283V0h1344v566H0V283m889 274c7-5 11-20 10-42 0-9 0-16 1-23 2-9 2-14-1-30-1-3-2-9-2-13-1-4-2-10-3-13-4-16-6-24-6-28 0-8-7-42-10-48-1-2-2-7-3-11s-3-10-5-14c-3-8-7-23-8-29-1-13-13-40-23-54-11-15-27-29-34-29-5 0-15-9-18-16-3-6-3-20 0-33 3-14 4-29 2-39-4-20-19-37-38-44-7-2-9-2-20-2-12 0-13 1-19 4-4 2-10 4-13 5-11 2-15 5-29 21-16 17-19 26-19 43 0 9 0 10 2 14 5 6 11 33 10 39-1 2-3 5-5 8-6 7-7 10-11 20-3 9-10 27-14 35-2 3-6 10-8 16-5 12-10 20-15 26-2 2-4 5-6 6-12 16-18 23-27 31-6 5-17 15-25 23-14 13-23 20-28 20-2 0-5-2-9-4-14-7-19-8-48-10-25-2-32-1-35 5-1 2-1 4 1 8 2 3 4 7 6 9 4 4 4 6 1 8s-13 5-16 5c-2 0-4 1-5 2-2 1-2 3-2 9 0 8 2 13 8 20 6 5 8 7 17 8 10 2 19 1 31-2 18-4 22-5 35-7 8 0 20-1 26-2 10 0 11 0 16 2 9 5 14 11 18 19 4 9 8 13 17 20l4 2 5-2c8-5 17-5 28-2 8 3 8 3 13 1 9-2 14 1 13 8-1 3-1 9-2 16v11l3 4c2 2 8 8 13 14 8 9 10 10 14 11 11 3 34 4 88 4 30 0 54 1 55 1 0 1 15 1 34 1 32 0 33 0 36-2z"/></svg>