<svg xmlns="http://www.w3.org/2000/svg" width="1344" height="566"><path d="M0 283V0h1344v566H0V283m484 131c14-3 14-4 22-8 4-2 12-5 17-7l10-3 8 3c6 2 9 2 10 1 3-1 16 0 27 2 19 5 35 6 76 8 34 1 39 1 46 2 13 2 29 2 37 1 5-1 10-2 12-2s6-1 10-2c4 0 10-1 15-2 4-1 9-2 11-2 1-1 9-3 17-5 7-2 19-5 26-7 13-3 26-6 38-7 14-1 15-2 13-25-1-23-2-29-7-41-2-7-4-14-5-18-2-7-6-14-11-17-6-4-10-9-12-16l-2-6 4-4c5-4 6-7 4-11 0-2-3-10-5-18-2-9-6-22-8-30s-5-21-7-29-4-18-6-22c-6-19-17-38-28-49-9-10-29-21-45-26-15-5-39-3-64 6-23 7-36 22-45 48-4 12-5 20-6 46-1 11-1 21-2 21 0 1-1 11-1 23-1 16-1 23-2 26-3 4-3 5-10 5-11 0-25 5-29 10-1 1-5 4-9 7-8 6-13 12-17 21-6 15-8 18-18 27-11 10-19 15-30 20-5 2-11 4-13 6-7 3-20 6-29 6-7 0-7 0-11 4-2 2-5 7-7 12-2 4-4 10-6 14-7 16-12 29-13 32 0 5 2 6 12 7 19 1 25 1 33-1z"/></svg>