<svg xmlns="http://www.w3.org/2000/svg" width="1344" height="566"><path d="M0 283V0h1344v566H0V283m889 274c3-2 8-11 8-17 1-2 2-6 2-8 1-3 1-6 0-11-2-7-1-21 1-31 1-5 1-13-1-22-1-3-2-8-2-10-1-7-5-26-7-32-1-2-2-8-2-12-1-9-8-39-13-53-1-6-3-13-4-15 0-2-2-10-4-16s-5-16-7-21c-6-24-16-43-30-61-8-10-20-20-27-22s-16-9-19-16-3-20 0-32c1-6 1-11 1-24 1-20 0-23-8-35-7-10-13-16-24-21-9-4-10-5-21-5s-19 1-27 6c-2 0-5 1-8 2-10 2-15 5-28 18-6 7-13 15-15 18-4 6-8 21-8 28 0 6 3 19 7 30 4 9 7 21 6 24-1 2-3 5-5 8-4 5-6 8-12 27-3 8-8 20-11 28-4 7-8 15-9 19-6 13-32 47-45 59-5 5-17 15-26 23-8 9-18 17-20 18l-5 2-6-2c-3-1-8-3-11-4-4-1-11-2-18-3-14-1-49-1-50 0-2 1 0 3 3 5 4 3 8 8 8 11 0 1-1 4-2 6-2 2-3 3-13 6-13 4-14 5-13 11 1 4 8 13 13 17 6 4 16 7 25 7 4 0 23 0 42-1l34-2 8 4c8 4 17 11 21 18 2 4 15 15 20 17 2 1 3 1 7-1 4-1 8-1 15-1h30c3-1 4-1 6 1s2 3 1 7v16l1 10 12 13c6 8 12 13 15 14 6 4 31 5 98 6 34 0 62 1 63 1 0 1 12 1 26 1 23 0 25-1 28-3z"/></svg>