<svg xmlns="http://www.w3.org/2000/svg" width="1344" height="566"><path d="M0 283V0h1344v566H0V283m635 277c2-2 6-4 8-6 5-6 12-10 19-12 10-3 23-10 26-14 6-9 10-25 11-46 3-46 3-50-2-61-3-6-4-20-2-41 1-18 0-38-3-54-2-12-3-15-7-20-5-4-21-17-29-22-5-3-20-14-25-18-2-2-3-4-3-5 0-2 3-8 6-14 6-12 9-15 16-17 10-1 11-3 14-21 0-7 1-16 2-19 3-18 3-19 1-26 0-3-1-14-2-23-1-22-2-27-4-34-4-19-13-28-37-38-24-9-33-11-54-7-11 3-15 4-22 8-21 11-29 26-36 72-3 19-4 25-6 37-1 6-3 19-4 27-2 11-3 17-5 19-2 4-16 8-28 9-9 1-10 1-24 8s-20 12-24 20c-2 5-14 16-17 16s-5 3-5 8c-1 6-3 7-8 4-3-1-5-1-6 0-7 3-29 21-46 37-17 18-18 19-22 27-3 5-6 12-7 15-2 9-5 16-11 24-9 14-10 17-9 27 0 7 0 10 4 21 2 7 6 15 7 17 2 2 7 7 12 11s11 10 14 13c5 5 6 6 8 14 2 5 4 12 5 14 0 3 4 11 7 18 4 7 8 15 9 19 2 3 5 7 7 9 3 3 3 3 15 4 6 1 14 1 18 1 6 1 7 1 10-2 4-3 4-3 14-2 6 0 14 1 18 1 16 2 37 3 78 3 25 0 47 0 50 1 3 0 19 1 35 1 28-1 29-1 34-3z"/></svg>