<svg xmlns="http://www.w3.org/2000/svg" width="1344" height="566"><path d="M0 283V0h1344v566H0V283m928 277c5-1 10-2 18-6 6-3 13-6 15-6 4-1 13-9 14-13 2-7 4-21 3-24-1-4-10-19-13-20 0-1-10-1-20-1-26-1-49-3-53-4-4-2-5-3-7-11-1-2-3-5-5-7-3-3-3-3-12-3-9 1-10 1-22 6-13 6-22 12-33 23-8 7-10 8-23 11-12 3-19 4-22 2-2-1-11-18-16-31-4-10-13-30-30-67-7-15-13-28-14-29-2-5-1-8 2-13 1-2 4-6 5-8 3-5 12-13 26-25 5-3 9-8 11-10 1-2 5-4 8-6 11-7 12-10 15-32 2-14 3-16 8-28 2-6 8-18 12-26 4-7 9-17 12-22 2-5 7-15 12-22 4-7 7-14 7-16 1-6-1-10-12-22-6-6-12-13-14-17-12-18-16-22-32-34-14-10-20-14-33-20-18-8-40-15-51-16-10-1-25 0-36 3-8 2-25 9-30 12-6 4-31 30-37 38-7 8-11 15-20 33-8 16-16 28-21 33-7 6-16 10-34 15-10 3-20 6-23 8-7 4-23 21-29 31-3 4-3 5-5 24-1 9-2 16-5 25-2 7-4 13-4 14 0 5 8 13 16 17 7 4 6 9-3 26-11 18-17 31-24 48-4 9-10 23-13 31-4 8-8 17-9 21-1 7-1 8 1 18 2 13 3 23 1 39s-4 20-10 17c-6-2-20-12-29-20-5-5-13-10-16-13-7-4-18-14-53-50l-17-18v-5c0-3 1-8 2-11s3-10 4-15c2-6 4-14 6-18 3-11 3-18 2-35-1-18-3-22-12-32-8-7-8-8-8-12 0-3 1-8 2-12 3-11 3-20 2-32-2-24-11-25-28-3-11 14-11 13-11 27-1 9-1 13-2 14-2 2-13 5-22 6-12 1-19 6-30 23-6 11-11 23-13 35-3 15-6 36-7 47-1 14-5 22-12 27-6 4-9 8-7 12 1 2 7 9 16 19 5 5 9 14 10 22 1 5 3 11 8 20 6 13 7 14 17 24 24 26 24 25 35 30 13 5 17 6 37 7 11 1 21 1 35 0 21-1 100 0 116 2 6 1 14 2 18 3 8 1 17 1 103 1 71 0 97 0 103-1s15-1 44 0c31 1 128 2 208 3 12 0 24 0 28-1z"/></svg>