<svg xmlns="http://www.w3.org/2000/svg" width="1344" height="566"><path d="M0 283V0h1344v566H0V283m744 277c17-1 33-1 34-1 2 1 49 1 106 1 92 0 102 0 104-1 2-3 0-5-8-9-5-2-12-7-16-10-5-3-11-8-15-10-4-3-10-7-14-11-11-9-26-18-38-25-18-9-28-17-40-31-8-8-12-16-19-33-2-5-6-14-9-19-2-5-6-13-7-18-2-5-5-13-8-18-7-15-6-16 16-23 8-3 18-7 23-9 5-3 11-5 15-5 17-3 18-9 4-42-12-28-17-44-25-89-2-12-9-46-11-53-1-4-3-12-4-18-3-19-10-31-24-45-11-11-22-19-29-23-18-9-57-14-75-10-11 3-35 12-46 17-13 6-21 14-29 29-9 18-13 31-23 77-9 39-9 40-10 81l-1 38-2 6c-3 6-12 15-19 20-4 2-6 8-6 15s-2 11-11 25c-17 25-29 45-42 71-15 31-19 42-26 67-5 17-10 41-10 48 0 5 3 8 8 9s217 0 257-1z"/></svg>