<svg xmlns="http://www.w3.org/2000/svg" width="1344" height="566"><path d="M0 283V0h1344v566H0V283m877 279c5-1 25-1 50-1 28 0 45 0 51-1 14-1 63-3 101-3 24 0 32 0 36 1 15 4 47 0 50-7 1-3 1-13-2-23-1-4-2-10-3-13 0-3-1-7-2-9-1-4-2-19-5-66-1-18-4-39-7-61-1-7-3-18-3-23-3-16-9-45-12-54-7-21-18-36-33-46-8-6-30-16-49-24-16-6-23-10-33-18-12-10-11-10-12-25 0-20 1-24 10-35s13-26 10-33c-1-2-3-5-5-7-2-3-2-4-2-17 0-31-3-42-15-56-9-10-11-12-17-14-19-7-27-7-49 1-9 3-12 4-24 12-11 8-14 11-17 21-3 6-3 10-4 27-1 11-2 23-2 27-3 15-2 22 8 43 5 11 8 17 10 28 4 15 3 19-6 23-3 2-9 6-13 9-8 8-21 15-45 27-10 5-22 11-26 14-28 20-41 44-51 89-1 10-4 22-5 26-4 19-8 43-11 68-2 18-2 21 1 42 3 20 2 32-2 32-2 0-3-1-5-11-2-11-8-23-16-33-7-10-8-12-16-40-3-11-4-19-2-22s3-3 8-3 5 0 10-4c7-7 9-12 14-35 2-9 2-13 2-31-1-14-1-24-3-33-2-15-5-33-7-51-2-24-4-31-9-43-9-20-16-27-37-37-15-8-33-14-46-15-8-1-13-1-30 0-11 1-22 3-25 4-2 0-8 3-12 6-17 11-48 39-54 50-6 9-12 26-19 54-5 20-6 27-10 55-3 23-6 37-9 41-1 2-3 5-6 8-4 5-4 6-4 11 0 7-2 13-7 22-4 7-4 7-4 13 1 8 0 10-10 18-9 8-11 11-16 20-3 6-13 17-16 17 0 0-2-2-4-5s-4-6-5-7-3-4-4-8c-2-5-2-10-3-31l-1-24-6-29c-3-16-7-34-9-39-4-18-12-28-29-41-24-18-27-21-27-28 0-3 9-27 11-32 1-1 2-9 4-17 3-12 3-18 3-27 0-17-2-45-4-53-3-15-13-27-30-35-13-6-21-8-33-8-10 0-24 3-33 8-8 4-17 14-21 23-3 6-3 7-4 24 0 11-1 19-2 21-3 6 0 19 8 35 4 7 8 22 8 27s-2 12-4 13c-1 1-4 2-6 3-4 2-6 4-11 10-9 12-19 22-30 31-5 4-11 9-13 12-1 3-6 7-10 11-14 10-30 27-33 33-7 15-10 29-11 58-1 20-2 28-4 48-1 9-1 27 0 31 2 7 9 25 11 31 2 3 4 8 5 12 6 20 11 31 16 34 6 4 35 5 103 3 22-1 53-1 68 0 35 0 34 0 56-1h262c96-1 89 0 101-10 4-3 7-5 8-5 0 0 4 3 8 7 12 9 14 10 33 11 21 1 78 0 89-1z"/></svg>