<svg xmlns="http://www.w3.org/2000/svg" width="1344" height="566"><path d="M0 283V0h1344v566H0V283m1282 279c47 0 55 0 58-3l2-2V414c0-108 0-143-1-144s-2 0-4 4c-2 3-8 10-14 14-22 21-27 29-34 59-4 20-7 31-12 45l-4 12-1 32c-1 35-2 51-5 59-3 10-21 37-30 44-5 4-10 6-13 6-1-1-6-2-10-4-16-6-26-7-31-3-3 4-3 7 5 16 3 3 6 5 8 6 6 3 22 4 34 3 4 0 28 0 52-1m-747 0c14-1 16-1 22-4 4-1 8-4 10-5 3-3 3-3 2-6-2-4-9-13-13-15-2 0-8-1-14-2-18-1-20-3-21-17 0-10 2-23 5-31 6-12 7-27 5-42-1-3-2-8-2-12-1-3-2-7-3-9 0-2-1-6-2-9-1-8-4-17-10-29-3-7-5-10-10-14-9-7-17-14-26-19-4-3-7-6-8-7-2-4 0-10 4-15 1-1 3-4 5-6 3-8 10-16 15-17 5-3 11-6 12-9 1-2 5-23 6-34 0-7 0-10-1-13-2-5-2-7-4-27-3-32-7-42-25-50-41-19-78-14-98 12-9 13-10 17-11 53-1 35-3 72-4 97-2 23-1 22-13 38-7 11-14 25-15 32 0 3-2 8-3 12-4 12-7 25-7 34-1 6-2 13-2 16-7 31-9 58-5 76 3 14 5 18 12 20 2 1 36 1 77 2 40 0 74 0 74 1 1 0 31 0 48-1m252-2c23-1 76-1 130 0 35 1 42 1 45-1 2 0 6-1 9-1 10 0 11-2 13-20 1-6 2-15 3-22 0-6 1-15 2-21 1-12 6-48 7-50 0-3 3-40 4-61 1-28 0-44-3-54-5-13-17-36-29-56-14-22-17-27-26-36-9-10-19-23-21-26-1-2-2-6-2-8-2-11-4-13-12-13-7 0-11-2-16-7-5-6-8-14-8-22 0-7 4-28 5-32 1-1 2-5 2-8 1-3 2-9 3-14 4-12 3-27 0-38-9-29-21-41-42-47-10-3-15-3-31 0-22 4-40 12-51 23-9 9-11 15-11 24 1 6 0 16-3 25 0 2-1 6-1 9-2 14-5 35-7 39-2 7-1 9 2 14 2 3 5 9 7 14 7 19 14 29 21 33 2 1 7 3 12 4 10 3 13 6 16 10 3 7 1 12-13 28-10 11-13 17-15 28 0 3-3 11-6 20-12 30-12 30-19 57-1 4-3 15-5 23-2 9-4 19-5 23 0 4-2 14-4 24-3 17-6 36-9 55-1 5-3 13-4 17-2 5-2 13-3 24-1 9-1 21-2 26-1 12-1 14 1 16s3 2 7 1c3 0 8 0 12 1 7 1 20 0 47-1z"/></svg>