<svg xmlns="http://www.w3.org/2000/svg" width="1344" height="566"><path d="M0 283V0h1344v566H0V283m989 277c93 0 124-2 130-7 3-3 2-7-2-16-3-6-13-16-23-23s-24-20-34-30c-20-22-24-26-46-41-24-15-28-19-35-28-2-3-6-7-8-9-4-3-9-10-15-20-4-6-18-28-23-33-5-6-7-8-24-17-4-2-9-5-10-7-3-3-3-4-3-10 0-8 3-21 6-27 2-5 9-10 16-14 12-6 19-12 23-20 6-11 6-16 7-51 1-18 1-41 2-50 0-20-1-29-5-42-9-29-18-46-36-64-17-17-34-28-54-34-12-4-16-5-34-6s-32 0-63 5c-29 5-40 8-52 14-8 4-11 6-20 15-16 16-32 40-36 52-5 15-6 27-6 50 1 23 2 29 10 61 3 12 6 27 7 32 2 18 5 28 18 63 16 40 21 53 29 64 7 11 7 12 7 13-1 2-7 5-25 13-30 11-52 21-64 29s-19 18-17 24c1 2 6 7 17 15 9 7 20 18 24 26 4 7 5 8 11 11 4 2 7 4 8 5 1 0 1 5 2 10 0 11 2 19 6 24 2 4 11 11 22 18 3 1 6 2 11 3 4 1 34 1 66 2 32 0 67 1 76 1 10 0 29 1 41 0 12 0 56 0 96-1z"/></svg>