<svg xmlns="http://www.w3.org/2000/svg" width="1344" height="566"><path d="M0 283V0h1344v566H0V283m918 277c3-2 2-7-2-16-7-15-12-19-28-26-17-7-35-12-72-21-18-4-23-6-27-8-3-2-17-19-22-26-3-7-3-12 5-26 31-61 38-78 43-105 1-10 4-67 4-91 0-34-5-56-19-84-12-24-28-46-41-57-8-6-25-17-32-20-10-5-33-11-50-12-4-1-14-2-22-3-18-2-29-1-46 3-28 5-42 12-60 28-28 26-43 56-46 96-1 17-3 31-6 44-3 15-5 29-5 41 0 11 0 12 3 23 4 11 4 12 5 27 0 15 0 16 3 21 3 6 5 16 5 31 1 5 1 12 2 15s2 8 2 10c1 3 2 9 3 13 2 7 2 9 1 14s-2 8-5 12c-4 6-15 15-22 18-2 1-8 3-11 4-4 2-11 4-16 5s-15 3-22 5c-27 6-89 26-99 32-8 5-8 5-15 15-2 5-5 10-7 11-3 5-8 15-8 18 0 5 2 7 7 9 4 1 8 2 45 2 22 0 59-1 81-1h96c53 0 65 0 123-2 19 0 30 0 36 1 9 1 131 3 185 2 28 0 33 0 34-2z"/></svg>