<svg xmlns="http://www.w3.org/2000/svg" width="1344" height="566"><path d="M0 283V0h1344v566H0V283m950 276c36-1 37-1 36-8-1-2-4-10-9-19-8-17-11-23-16-38-6-17-8-22-13-31-6-12-13-31-15-39-1-4-4-10-10-22-5-8-11-19-13-24s-8-14-12-21c-12-22-21-42-21-51 0-4 0-4 10-14 9-9 11-12 15-18 5-11 8-24 10-39 1-6 3-18 5-26 2-12 2-16 2-38 0-24 0-26-2-31-1-3-2-6-2-7s-1-4-2-6-2-5-2-6-1-4-2-7c-13-31-19-41-44-60-21-17-29-22-49-27-14-3-44-5-55-3-17 4-23 5-31 6-18 2-42 8-54 14-20 9-40 26-48 39-7 13-14 33-19 53-2 10-2 28-1 45 1 14 2 21 8 41 3 10 7 27 8 36 1 8 7 33 10 42 1 4 3 11 4 16 2 6 4 12 4 13s2 7 3 11c10 32 17 44 31 50 9 4 15 6 29 7 6 0 12 1 13 2 6 3 15 16 15 22 0 4-1 5-12 16-6 7-16 18-21 25-6 6-14 16-20 21-14 14-19 20-27 37-17 35-17 38-1 40 10 1 261 0 298-1z"/></svg>