<svg xmlns="http://www.w3.org/2000/svg" width="1344" height="566"><path d="M0 283V0h1344v566H0V283m884 276c88 0 134-1 136-3 1-1 0-42-2-47-2-7-5-26-6-38-1-7-2-18-2-25-2-16-2-25-1-30 1-4 1-8-4-14-4-5-12-10-31-16-34-12-43-16-47-21-1-2-4-7-6-12s-5-10-6-12c-2-3-2-3-1-9 1-5 1-8 0-17-1-6-3-16-4-23 0-8-1-14-2-15-1-6-4-34-6-61-2-41-3-42-6-60-4-25-8-37-16-55-7-13-15-25-27-36-11-11-22-18-37-25-26-11-37-14-56-13-15 1-46 8-69 16-22 7-30 14-40 34-3 7-10 21-15 30-5 10-10 21-11 25-6 13-8 26-8 48-1 13-1 14-4 21-2 4-6 12-9 17-6 9-6 10-6 16 0 3 1 8 2 11s2 10 3 19c1 13 1 14-1 22-2 7-2 8-1 14 1 4 2 13 2 20 1 16 1 17 10 26 3 3 5 6 5 7-1 0-4 1-8 0-5 0-10 0-18 2-7 1-11 2-16 1-3 0-9-1-14-1-9 0-14 2-28 11-12 9-14 10-26 11-11 0-13 1-27 12-10 8-13 9-22 13-14 5-19 9-28 21-2 2-6 5-10 8l-7 3-28 1c-27 0-28 0-32 2-3 1-4 3-4 4 0 3 3 6 5 6s9 4 12 6c3 3 3 10 0 17-1 2-2 6-2 8-1 1-3 8-6 15s-6 15-7 17c-5 16-7 19-9 22-4 6-7 13-7 14 1 1 2 2 4 2 1 0 4 1 5 2 7 3 51-1 62-6 4-1 5-1 10 0 10 2 52 1 59-1 7-3 26-6 33-6 5 0 10 1 19 4 7 1 13 3 13 3 1 1 5 2 25 5 18 3 59 5 76 3 26-3 84-1 96 3 9 3 44 6 56 5 2 0 43 0 90-1z"/></svg>