<svg xmlns="http://www.w3.org/2000/svg" width="1344" height="566"><path d="M0 283V0h1344v566H0V283m410 277c4-3 6-3 14-3 5 0 13 0 18 1 13 1 73 3 82 2 6-1 21 0 56 2h28l15-1 8-7c10-9 13-10 20-12 8-1 20-5 25-7 8-4 11-9 15-21 2-8 4-35 4-66 0-14 0-16-2-22s-3-8-3-21c0-8 1-21 2-28 1-16 1-35-1-51-2-10-4-14-8-18s-20-17-27-22c-8-5-26-19-27-21-2-3-1-6 3-15 3-5 5-10 5-12 2-3 7-7 12-8 6 0 11-4 12-9 1-4 2-15 4-38 1-11 1-15 0-22-1-4-2-14-3-23-2-22-5-38-11-47-6-10-31-22-53-27-11-2-13-2-33 1-16 4-24 8-34 17-5 6-8 10-10 15-6 11-11 34-13 57-1 6-2 14-2 18-1 4-2 11-3 16 0 4-1 9-1 10-1 1-1 6-2 11-1 10-4 16-8 19s-14 5-25 5c-9 1-10 1-23 8-16 7-20 10-25 19-3 6-13 15-16 14-3 0-5 1-5 6-2 6-5 7-9 3-2-3-5-2-6 1-2 4-5 7-17 16-10 7-30 25-43 38-7 7-12 17-18 33-2 5-6 14-10 21-12 20-12 23-5 43 6 21 7 22 30 39 11 9 13 12 17 26 4 13 6 18 9 24 2 3 5 9 7 14 4 10 10 21 13 22 2 1 9 2 18 2s17 1 18 1 5-1 8-3z"/></svg>