<svg xmlns="http://www.w3.org/2000/svg" width="1344" height="566"><path d="M0 283V0h1344v566H0V283m412 276c20-1 76-1 125-1 48 0 89 0 89-1 1 0 35 0 77-1 42 0 79 0 83-1 3 0 12 0 20 1 26 2 115 3 138 3 28-1 27-1 26-15 0-15-2-48-4-62-1-11-5-34-9-50-1-3-3-11-5-16-3-6-4-10-3-11 0-1 2-3 4-4 4-2 6-2 30-2 28 0 27-1 34 5 2 2 5 4 6 4 3 0 12-5 13-8 2-4 1-13-3-25-2-6-4-13-4-15 0-4-1-5-4-7-1-1-4-5-7-9-5-8-8-11-13-11s-22 3-27 5c-6 2-33 5-46 5-28 0-43 2-64 7-13 3-29-3-41-14-8-8-9-10-6-18 1-4 5-13 9-22 8-15 17-38 17-40 0-1 1-4 3-7 2-5 6-21 11-47 2-6 3-18 4-26 1-9 2-22 3-30 2-8 3-19 4-24 1-16-4-56-10-72-3-9-8-18-16-28s-9-11-16-15l-7-3-84-1c-47 0-102 0-124 1-51 1-47-1-58 24-9 21-10 23-9 59 0 36-1 48-6 71-3 17-4 39 0 50s14 25 21 27c1 0 5 1 7 3 2 1 8 3 13 5 9 4 13 7 13 13 0 5-4 11-18 25-12 12-21 18-29 23-3 1-8 4-11 6-4 2-7 3-15 5-14 2-17 3-39 12-47 17-78 32-93 43-5 4-8 8-17 22-2 2-4 6-6 9-4 7-38 75-47 94-3 7-10 21-15 31-9 22-11 29-9 32 2 1 4 2 7 2 7 1 68 0 108-1z"/></svg>