<svg xmlns="http://www.w3.org/2000/svg" width="1344" height="566"><path d="M0 283V0h1344v566H0V283m1148 277c12-1 13-2 13-10 0-6-4-19-12-40s-15-31-33-52c-23-26-32-32-78-53-30-13-69-33-71-36-2-4 1-18 7-31 2-2 3-7 4-11 1-6 4-12 10-25 2-3 4-7 5-10 1-2 4-6 6-9 1-3 3-7 4-9 0-2 1-14 2-27 1-24 2-30 6-39 1-3 2-8 3-12l1-8-5-18c-8-29-9-31-7-50 1-8 2-18 2-20 0-11-8-24-23-39-14-14-21-18-35-24-4-1-10-4-14-6s-10-4-17-5-13-3-18-5c-8-4-11-5-17-2-5 1-8 1-24 1-19-1-29 0-41 4-7 2-11 4-19 12-4 3-10 10-15 14-12 11-24 26-28 32-6 12-8 25-10 50 0 14 1 26 8 52 6 23 8 37 12 76 1 18 1 25-2 34-1 4-2 9-3 12-1 7-4 9-14 14-7 4-17 11-20 14-2 2-8 7-19 13-4 2-11 6-15 9-8 4-27 12-35 14-3 1-9 3-14 5-19 8-36 15-47 20-6 3-17 7-23 10-18 8-40 20-50 27-19 14-39 37-49 55-6 12-12 26-17 42-7 20-8 27-2 29 3 2 7 2 39 1 25-1 52-1 89 0 29 0 73 1 96 0h252c89 0 154 0 156 1 3 1 50 1 62 0z"/></svg>