<svg xmlns="http://www.w3.org/2000/svg" width="1344" height="566"><path d="M0 283V0h1344v566H0V283m563 277c4-1 31-1 61-1 29-1 68-1 86-2 62-1 73-1 108 0 33 2 37 1 39-1 2-3 1-8-2-13-5-7-27-28-38-36-9-7-34-20-47-24-16-7-54-29-57-34-2-4-1-9 4-20 7-13 9-16 29-47 9-13 19-29 23-34 11-17 19-28 27-34 12-10 17-16 27-34 11-20 18-42 14-49-1-2-4-5-6-7-4-4-5-5-5-9 0-2 3-16 7-31 7-29 10-46 12-64 3-33 0-52-13-78-7-16-18-30-24-33-10-4-13-5-120-4-90 0-104 0-114 1-7 1-13 2-14 3-4 2-15 22-22 39-7 20-15 55-19 86-3 22-4 24-16 26-17 3-23 13-23 34 0 26 9 51 24 68 9 11 10 13 10 23-2 23-9 52-15 63-4 8-11 16-14 18-2 1-12 2-27 2-25 1-36 2-41 5-3 1-9 7-11 12-6 11-16 25-20 30-2 3-7 10-11 15-5 10-6 11-6 18 0 8 1 17 5 42 2 7 4 21 5 31 2 10 4 20 4 22 2 6 4 9 10 10 12 4 22 4 61 3 34 0 40 0 50 2 19 3 45 4 59 2z"/></svg>