<svg xmlns="http://www.w3.org/2000/svg" width="1344" height="566"><path d="M0 283V0h1344v566H0V283m510 86c10-2 12-3 18-8 5-6 8-7 17-4 4 1 12 3 18 3 6 1 14 2 18 3s9 3 11 3c3 1 6 1 14-1 6-1 15-3 21-3 5-1 13-2 17-3 6-1 6-1 11 1 3 1 7 3 8 4s4 2 7 2c12 2 35 3 42 2h18c8 1 12 1 21 0 6-1 13-3 15-4 2 0 6-1 8-1 3-1 7-2 9-3 2 0 6-1 8-1s6-1 9-2c11-4 21-4 36-3 18 1 18 2 16-12-1-7-1-16 0-32v-23l4-3c2-1 5-3 5-4l6-6c4-3 5-3 5-9 0-4 1-10 2-17 3-9 3-10 4-36 0-16 0-29-1-35-1-5-2-13-2-18-1-5-2-13-2-17-1-4-3-11-4-16 0-4-2-10-2-14-1-3-2-8-2-10-1-2-2-7-3-10 0-6-5-16-10-21s-20-18-28-23c-12-7-32-9-48-6-10 3-28 9-34 13-11 6-21 19-26 36-2 8-2 9-2 56 0 33 0 51 1 55 0 4 1 15 2 24 1 27 0 27-23 28-22 0-38 1-66 6-3 1-10 3-14 5s-8 4-9 4c0 0-4 4-8 9-11 11-13 12-27 11-6 0-13 0-17-1h-9c-2 1-6 4-9 7-7 7-10 8-20 11-4 1-8 3-10 4-2 2-6 9-9 17-1 3-3 8-5 11-5 10-7 19-7 25 1 6 4 8 11 8 4 0 10-1 15-2z"/></svg>