<svg xmlns="http://www.w3.org/2000/svg" width="1344" height="566"><path d="M0 283V0h1344v566H0V283m934 203c7-1 11-2 13-4 2-1 8-4 13-5 4-1 10-3 11-4 8-4 11-5 20-6 9 0 16-3 20-6 1-1 4-3 6-4 3-1 5-2 5-3 0 0-4-1-11-1-9 0-10-1-12-2 0-2-1-3-1-4 0-2 6-6 11-8 8-3 12-6 10-9-1-2-9-3-19-1-7 1-22 6-34 10-8 4-11 4-15 1-3-4-3-9 2-17 6-9 5-14-3-21-5-6-21-35-37-70-2-6-8-18-12-26-8-15-9-17-21-30-6-7-17-18-23-23-24-21-29-26-33-29-9-8-35-29-48-39-18-16-28-24-46-33-5-4-11-7-13-9-18-14-39-28-50-31-7-3-12-7-22-18-15-18-28-24-51-26-15-1-17 0-28 12-14 14-20 29-22 52 0 8 0 11 2 17 5 15 9 23 14 23 3 0 10 7 12 13 4 6 4 14 1 20-1 2-11 14-22 26-16 17-21 22-26 25-10 5-15 11-22 24-22 37-26 43-35 48-4 2-6 4-8 8-2 3-6 7-10 11-7 6-8 7-14 19-6 11-7 14-7 18 0 6 3 13 6 14s22-4 31-9c7-3 10-5 15-11 3-3 7-8 8-10 3-7 20-22 31-28 9-4 13-8 17-18 5-11 9-15 19-25 7-6 11-9 26-22 10-8 18-14 19-14 4 0 7 4 10 12 2 5 5 12 7 16s6 12 9 17c5 10 7 13 11 14 3 2 16 6 23 8s11 4 11 7c0 4-4 10-8 13-9 6-16 10-21 12-2 1-5 3-6 4s-5 3-10 5c-8 4-11 7-11 12 0 2-1 5-2 7-3 5-2 7 7 14 7 7 13 10 21 11 8 0 10 2 12 8 1 3 2 5 4 6 3 1 7 6 7 9 0 1 2 6 4 10 3 6 4 9 4 12 0 8 4 11 13 8 7-4 13-1 13 5 0 1 1 5 3 7 2 5 3 5 5 5 7-1 18 0 26 2 7 2 14 1 22-3 5-2 6-3 7-5 2-4 8-11 11-13 2 0 6-4 9-7 9-8 11-8 27-8 18 1 36 5 47 10 3 2 7 3 8 4 2 0 4 3 6 5 3 4 3 5 3 9-1 4 0 7 3 7 13 1 24 2 28 3 7 1 17 0 30-1z"/></svg>