<svg xmlns="http://www.w3.org/2000/svg" width="1344" height="566"><path d="M0 283V0h1344v566H0V283m837 278c15-1 19-2 21-4 0-1 0-6 1-12 0-8-1-12-2-16-1-3-2-8-3-11 0-4-1-8-2-9-4-5-16-31-17-35 0-3-1-9-1-14 0-9 0-9-4-13-3-4-18-13-23-14-1-1-12-6-23-11-12-6-29-14-38-18-34-16-52-25-56-27-1-2-3-5-4-8-3-8-3-43 0-62 0-2 1-16 2-29l2-25-3-14c-1-8-3-20-4-27-2-8-3-15-3-16s-2-7-3-12c-2-6-6-17-8-25-6-21-10-30-21-50-11-21-18-31-31-44-27-27-54-40-90-42-18-1-25 1-45 12-9 4-19 9-23 10-10 3-16 7-23 15-18 19-31 50-35 87-4 23-4 33-4 79 0 43 1 75 3 90 1 3 1 11 2 18 1 6 2 16 2 20 1 5 3 15 4 22 1 13 1 16-4 17-13 2-21 5-39 13-8 4-21 10-29 14-21 9-40 19-42 22-2 2-3 4-4 16-1 17 0 23 2 28 2 4 11 12 28 26 8 5 17 12 21 15 12 10 19 13 44 22 6 2 14 5 18 6 14 5 20 6 46 7 40 1 370 0 388-1z"/></svg>