<svg xmlns="http://www.w3.org/2000/svg" width="1344" height="566"><path d="M0 283V0h1344v566H0V283m712 278c93 0 96-1 98-2 3-4 4-9 4-24-1-13-4-31-9-48-4-18-15-48-19-55-2-4-4-8-4-10 0-1 1-4 2-8 4-12 3-14-13-20-13-6-29-13-39-17-9-5-26-12-35-16-4-1-10-4-12-6-12-6-12-12-5-61 4-33 4-38 4-50-1-12-3-37-6-62-1-6-2-15-2-19-2-17-8-48-12-60-5-14-11-26-15-31-7-9-18-22-24-27-19-17-58-32-77-29-3 0-11 2-17 4-7 2-15 4-20 5-12 1-16 3-24 7-13 8-29 26-37 43-14 28-24 64-31 121-1 8-2 15-2 16-1 2-2 11-3 22-3 26-3 56 0 72 1 7 3 13 3 14 1 2 1 6 1 11 1 11-1 13-11 18-5 3-8 4-16 5-5 1-11 2-13 3s-8 3-12 5c-5 2-10 4-12 4-1 1-8 5-17 10-48 25-47 24-47 44 0 9-2 22-7 38-6 21-7 28-8 37-2 13-5 40-5 49 0 6 0 7 3 10 5 6 5 6 46 6h73c20 0 52 0 72 1 19 0 61 1 93 0h155z"/></svg>