<svg xmlns="http://www.w3.org/2000/svg" width="1344" height="566"><path d="M0 283V0h1344v566H0V283m906 277c33-1 69-1 116 0 69 1 83 1 112-2 10-1 13-3 14-8 0-7-5-15-17-30-14-15-30-32-36-38-7-6-29-24-41-32-31-23-45-35-55-52-22-34-28-42-42-56-19-20-28-37-30-53v-6l11-11c9-9 12-12 15-18 7-16 8-28 8-66-1-45-3-58-11-80-14-43-37-68-79-87-11-4-23-8-38-11-8-1-11-1-19 0-25 3-33 5-52 13-7 3-18 6-24 7-22 5-37 14-53 30-12 12-17 20-23 34-7 15-9 29-11 60 0 21 2 41 9 61 2 8 8 27 13 43 9 30 13 42 25 68 15 31 27 50 35 57 2 1 8 5 13 7 7 4 10 6 11 8 2 3 2 3-1 9s-6 9-15 13c-3 2-7 5-9 6-3 2-10 7-16 11-17 13-26 23-32 38-3 10-4 18-5 37 0 10 0 23-1 29 0 11 1 17 4 19 1 0 7 1 14 1 22 1 158 0 210-1z"/></svg>