<svg xmlns="http://www.w3.org/2000/svg" width="1344" height="566"><path d="M0 283V0h1344v566H0V283m616 276c25 0 50-1 56-1 17-2 155-2 165 0 16 2 247 3 251 1 3-3 1-9-11-23-4-6-11-15-15-22-7-8-11-12-17-17-26-21-35-28-52-44-10-10-21-20-24-22-3-3-12-10-20-16-34-27-35-27-59-29-20-1-24-3-34-13-7-7-8-8-11-16-4-11-5-20-4-34 1-12 4-22 7-29 1-3 6-10 11-16 18-26 24-44 20-63-1-10-1-13 2-31 2-14 2-44 0-54-3-10-9-25-15-33-9-13-28-27-49-36-13-6-22-8-40-10-26-3-48 0-74 11-27 10-46 28-55 50-3 8-3 9-4 28-1 14-1 21-3 30-2 6-4 18-5 26-8 58-6 88 11 139 3 7 7 17 9 21 4 8 7 11 22 20 9 6 10 8 5 12-3 3-29 18-42 25-18 8-32 18-59 40-22 17-29 24-43 43-16 21-21 29-27 40-7 16-6 22 2 24 2 1 16 1 30 0 15 0 48 0 72-1z"/></svg>