<svg xmlns="http://www.w3.org/2000/svg" width="1344" height="566"><path d="M0 283V0h1344v566H0V283m739 277c11-4 17-9 19-15 1-3 1-11 1-22 0-44 0-60 5-94 3-30 3-60-1-73-3-10-10-28-15-37s-9-14-19-25c-13-16-13-15-6-36 3-7 7-18 9-24 3-9 3-10 4-29 1-11 1-25 2-33 2-22-1-37-12-66-8-22-24-38-54-53-14-7-19-9-33-13-15-4-35-5-53-2-39 7-57 14-72 31-7 8-12 14-17 26-6 12-8 17-15 53-5 20-6 22-11 27-7 6-7 8-6 28 1 19 0 37-2 43-4 8-17 16-49 28-18 7-54 25-67 34-20 13-30 20-37 25-11 10-39 36-43 42-3 3-6 7-8 9-10 13-25 40-25 45 0 1-1 5-3 10s-4 11-4 13c-1 2-2 6-3 7 0 2-2 8-3 15-2 11-2 14-2 43s0 32 2 36c1 2 3 4 5 5 3 2 6 2 40 1 46-1 219-1 236 0 6 1 30 1 52 2 23 1 44 1 47 1s33 1 67 1h62l9-3z"/></svg>