<svg xmlns="http://www.w3.org/2000/svg" width="1344" height="566"><path d="M0 283V0h1344v566H0V283m362 277c5-1 51-1 102-2 116-1 109-1 133 1 22 1 217 2 227 1 13-2 15-4 16-18 0-12-2-27-6-34-3-7-14-18-30-31-9-8-35-25-46-32-3-2-8-5-10-7-2-1-6-4-9-6-11-7-22-22-24-32-1-2 0-3 1-6 2-2 4-6 5-8 1-3 8-12 14-20 20-27 31-46 36-62 2-5 5-17 7-28 3-11 7-27 9-36 8-27 11-52 10-79-2-28-4-40-12-57-7-15-16-26-30-40-16-14-25-22-35-27s-18-7-36-8c-9-1-16-2-22-3-13-4-24-5-42-4-24 3-33 6-54 21-24 17-44 45-50 69-3 11-4 20-6 44-3 30-3 33-10 44s-8 17-8 30c0 9 0 14 2 20 3 13 7 19 20 32s16 18 17 29c0 6 0 7-2 9-1 2-5 5-7 6-3 2-15 13-26 24-11 10-23 21-27 24-11 6-22 12-31 13-4 1-13 4-19 7-11 4-46 17-66 24-27 9-42 20-49 34-7 13-21 52-25 68-4 17-6 28-6 32 0 5 3 9 8 9 6 1 71 0 81-1z"/></svg>