<svg xmlns="http://www.w3.org/2000/svg" width="1344" height="566"><path d="M0 283V0h1344v566H0V283m490 276c41-3 176-4 210-2 19 1 136 1 163 0h76c94 1 93 1 96-1 3-3 2-9-4-21-8-16-24-31-59-54-7-5-23-13-31-16-17-8-39-19-44-23-4-5-4-5-4-10 1-10 9-27 29-60 32-54 37-61 56-82 23-25 36-50 36-71 0-6-1-8-6-13-3-4-3-5-3-9 0-3 1-10 2-15s3-13 3-17c1-4 3-11 3-15 7-33 9-44 9-60s-1-21-7-38c-5-14-10-21-18-31-11-11-19-15-34-16-11-1-151-2-187-1-18 1-35 1-37 2-6 2-10 5-15 17-11 22-18 45-22 75s-5 33-7 37c-2 6-5 7-13 8-14 2-21 14-21 35 0 18 5 38 12 51 2 3 7 9 10 13 11 12 13 15 11 30-3 16-9 45-12 54-7 20-17 35-25 38-3 1-14 3-26 4-22 2-30 4-34 7-3 2-11 13-16 23-7 12-20 29-29 40-4 3-12 10-19 15-8 5-18 13-24 18-6 4-21 15-34 24-33 22-36 25-53 38-27 23-27 26-5 27 14 1 55 0 73-1z"/></svg>