<svg xmlns="http://www.w3.org/2000/svg" width="1344" height="566"><path d="M0 283V0h1344v566H0V283m528 77c7-1 14-2 17-3 14-6 47-8 60-5 7 2 27 4 47 4 9 0 17 1 19 1 2 1 10 1 18 1 12 0 14 0 19-2 6-3 13-3 24-2 4 1 7 1 12 0 3-1 11-3 18-3 6-1 14-3 17-3 3-1 7-2 9-2s6-1 8-1c6-3 23-4 38-4l14 1-1-8v-22c-1-13-1-13 1-21 4-11 8-18 11-20 2-1 8-1 19-1 23 0 22 2 22-25 0-34-2-84-3-88 0-2-2-8-2-15-3-21-10-46-17-58-5-11-19-23-35-32-11-5-19-6-32-5-20 2-41 10-50 18-6 5-13 17-17 28-3 8-3 9-4 31 0 12 0 24-1 27-2 13-2 22 0 37 2 16 3 36 1 45-1 7-4 11-8 10-1 0-13 0-26-1s-27-1-31-2c-11-2-14-1-23 3-4 2-12 5-18 8-7 2-13 5-16 7-5 4-12 7-16 7-1 0-4-1-7-1-16-5-25-3-36 4-10 7-19 9-28 9-4-1-11-1-16 0-7 0-9 1-11 3-5 4-4 8 3 14 6 6 6 5 1 26-2 7-5 18-6 22-4 20-4 21 6 20 4-1 13-2 20-2z"/></svg>