<svg xmlns="http://www.w3.org/2000/svg" width="1344" height="566"><path d="M0 283V0h1344v566H0V283m488 134c4-2 12-4 16-7 9-3 10-3 21-3 7-1 18-1 25-1 7-1 16-1 24 0 38 4 62 5 92 5 24 1 39 2 42 4 1 0 5 1 10 1 6 1 11 1 18 0 16-3 30-5 36-5 3-1 8-2 10-2 3-1 8-3 12-3 24-6 43-12 57-18 6-2 10-3 19-4 15-2 14-2 14-16-1-6-1-18-2-26-1-15-1-17-3-22-2-4-3-9-4-12-1-7-5-11-11-11-4 0-4 0-6-6-5-12-13-26-16-28-3-1-3-3 0-3s8-3 9-6c0-2 0-8-3-16 0-2-2-9-4-16-1-6-3-14-5-19-2-9-5-21-8-37-8-42-26-73-52-88-15-9-35-15-49-15-12 0-33 4-43 8-18 7-26 14-35 25-8 11-13 22-16 34-3 13-3 18-4 48-2 68-3 70-5 72s-2 2-8 1c-13-2-20 0-32 10-15 12-17 14-24 27-7 14-11 19-16 23-2 1-7 5-12 9s-13 9-25 14c-22 11-23 11-36 12-9 0-11 1-14 3-2 2-11 19-18 35-1 4-4 12-6 17-2 6-4 11-4 12 1 5 13 7 35 7 11-1 15-1 21-3z"/></svg>