<svg xmlns="http://www.w3.org/2000/svg" width="1344" height="566"><path d="M0 283V0h1344v566H0V283m324 278c36 0 62 0 65-1s18-1 45 0h54c17-1 110 0 126 1 34 2 105 2 110-1 2-1 5-6 5-9s4-13 6-16c3-3 3-6-1-11-4-6-8-13-9-18-2-7-7-11-19-15-13-5-27-11-43-19-7-4-15-8-16-8-1-1-10-5-20-10-10-4-20-9-24-10-10-3-18-8-20-12s0-7 7-20c3-6 8-14 10-19 5-11 8-15 20-25 18-14 20-18 23-48 0-10 2-23 3-28 0-6 1-18 2-28 0-17-2-127-4-136-4-30-11-48-22-60-11-13-36-28-59-38s-46-18-56-20c-11-3-36-3-52-2-15 1-21 3-33 10-13 8-22 13-34 18-18 8-24 11-30 17-7 8-12 19-17 38l-9 27c-6 18-13 54-14 86-1 5-2 19-3 32-1 12-3 32-4 45 0 13-1 28-2 34s-1 22-2 35c-1 14-1 26-1 26-1 0-2 7-3 16-5 48-13 72-29 90-4 5-10 12-13 16-11 13-25 26-39 35-7 5-14 10-16 12-4 4-5 7-2 10s7 5 22 6c18 2 21 2 30 1 5 0 36 0 68-1z"/></svg>