<svg xmlns="http://www.w3.org/2000/svg" width="1344" height="566"><path d="M0 283V0h1344v566H0V283m564 276c5 0 41 0 82-1h86c54-1 88-1 121 0 26 1 38 0 39 0 2-2 1-6-1-10-3-5-17-18-28-27-16-13-34-24-46-30s-17-8-38-17c-47-20-68-32-68-40 0-6 15-37 26-56 3-5 9-15 14-22 17-29 19-31 32-38 12-5 25-20 35-38 4-6 8-13 9-15 4-6 7-16 8-25 0-9-1-14-6-17-6-3-8-6-8-9 0-2 2-13 5-23 3-11 5-23 6-26 0-3 1-10 3-17 3-12 5-32 5-43 0-28-18-77-33-91-6-6-11-8-24-9-14-2-150-2-180-1-28 1-43 3-48 7-8 5-24 36-31 57-5 15-6 21-9 40-4 24-8 42-9 46s-4 6-11 7c-8 2-14 6-17 12l-4 5 1 17c0 21 2 32 9 46 4 9 6 12 13 20 5 5 9 9 10 11 2 3 1 17-1 33-1 7-2 16-3 20 0 8-4 23-7 31-2 6-8 12-11 14-2 1-12 1-28 2-32 0-34 1-42 8-7 8-12 15-19 28-7 14-16 24-24 29-3 2-8 5-12 8-4 2-10 5-15 7-14 6-29 14-32 17-5 6-5 14-2 56 2 17 2 18 5 23 5 9 7 9 106 10 44 1 90 1 102 2 13 0 26 1 28 0 2 0 8 0 12-1z"/></svg>