<svg xmlns="http://www.w3.org/2000/svg" width="1344" height="566"><path d="M0 283V0h1344v566H0V283m244 277c5-5 2-43-4-70-1-3-2-9-3-14-1-6-2-10-5-16-6-11-7-13-5-15 1-1 4-3 7-4s6-2 7-3c2-2 2-2-3-30-2-8-2-17-3-28 0-17 0-27-3-42-1-6-2-13-2-15s-1-7-2-12c-1-6-1-9 0-9 1-1 5-2 9-2 9 0 16-1 19-4 4-4 7-20 7-44 0-19-1-17 13-33 11-12 14-17 15-26 0-8-1-10-12-11-12-1-14-2-18-7-10-12-22-12-30-1-2 3-5 6-7 7s-5 3-5 5c-1 1-3 4-4 6-4 7-4 15-1 23 3 10 2 19-2 19-1 0-3-2-5-4-6-5-17-13-31-19-16-8-21-12-19-16 0-2 4-4 8-7 3-2 8-5 9-7 3-4 3-4 3-19v-16l-4-8c-3-5-4-9-4-12 0-2-1-7-2-11s-2-8-2-9c-2-7-12-15-27-19-11-3-28-3-36 0-15 6-19 9-23 17-3 6-3 8-3 17 0 7 0 11 1 12s4 4 8 6c3 3 7 7 9 10 2 2 6 7 9 11 2 4 7 11 10 16 3 6 7 13 9 16 5 10 5 12 3 26-3 20-4 22-11 26-6 3-9 6-10 13v4l10 10c13 12 15 15 20 29 2 6 5 12 6 13 1 2 5 7 8 12 5 7 6 9 6 13 0 2-1 6-2 8-1 6-1 12 1 14 1 1 2 1 6 0 8-3 12-3 17-1 3 2 7 3 9 4 3 0 6 1 6 2 3 2 4 11 5 30v17l-4 8c-3 5-5 9-9 12-9 8-12 10-19 11-4 0-7 1-8 2s-1 5-1 11c0 9 0 10 3 18 2 4 4 11 6 16 10 26 33 65 40 69 3 2 13 3 27 3 10 0 12 0 13-2z"/></svg>