<svg xmlns="http://www.w3.org/2000/svg" width="1344" height="566"><path d="M0 283V0h1344v566H0V283m816 277c18-1 79-2 160-1 29 0 58 0 62-1 13-1 14-2 17-18 1-8 2-16 2-18 1-6 4-27 7-44 3-22 6-58 6-76-1-15-1-16-5-28-8-23-20-48-37-72-9-15-17-24-34-39-12-11-16-17-19-27-1-7-4-12-7-12-4 0-14-3-16-6-6-6-12-20-12-31 0-8 6-36 15-65 5-15 5-16 6-27 1-17-1-27-10-44-7-15-10-18-23-25-13-6-19-7-33-9-10-1-16-1-36 5-29 7-35 10-46 22-11 11-13 16-12 26 0 7-2 17-6 29 0 2-1 7-2 12-1 14-2 21-7 35-5 16-5 20-1 27 1 3 4 11 6 17 5 16 14 33 19 37 3 2 14 7 17 7 4 0 9 2 13 6 4 3 9 12 9 15 0 4-5 10-24 31-10 12-13 19-14 32-1 10-1 12-14 40-7 18-10 26-13 34-1 5-3 12-4 16-2 6-6 24-10 42 0 3-2 10-2 16-4 24-5 28-6 32-2 4-3 39-2 46 1 6 4 10 11 14 5 3 15 4 25 3 2 0 12 0 20-1m-306-3c2-2 5-6 6-8 4-6 7-19 7-25 0-7-4-28-5-34-2-4-6-19-7-27 0-6-7-26-10-32-6-12-18-23-38-35-11-6-14-10-14-17 0-4 1-7 6-18 9-19 13-22 29-30 7-4 13-7 14-9 2-3 2-3 0-28 0-5-1-14-1-20 0-10 0-10-8-24-4-5-7-13-10-22-10-29-18-41-29-47-15-7-47-9-64-5-27 7-50 27-56 49-2 6-2 11-3 42-1 21 0 56 0 84 1 60 2 57-11 81-5 12-10 26-11 36-1 9-2 14-6 26-4 9-7 28-7 32 1 2 0 7 0 11-3 10-2 17 2 21 2 2 23 2 155 3h57l4-4z"/></svg>