<svg xmlns="http://www.w3.org/2000/svg" width="1344" height="566"><path d="M0 283V0h1344v566H0V283m816 277c11-1 49-2 135-2 113 0 119 0 121-1 7-5 9-17 14-71 1-7 2-17 2-22 1-4 1-17 2-28 1-29-2-39-17-70-21-43-32-58-61-86-22-21-24-24-26-35-1-4-2-7-3-8s-5-3-9-4c-11-2-14-5-20-19-3-8-3-9-3-18 0-7 0-11 2-18 2-4 4-13 6-19 1-6 4-16 5-22 8-24 9-32 9-44 0-13-1-19-8-35-10-23-11-23-27-31-14-7-19-9-35-10-11-1-12-1-22 1-19 4-39 10-50 16-10 5-20 14-24 23-3 6-3 7-3 14 1 8-1 19-5 33-1 3-2 12-3 19-1 16-2 18-7 30-2 6-3 12-4 16 0 6 0 7 3 13s7 17 9 26c2 6 10 24 13 27 5 4 8 6 20 10 11 3 12 3 17 9 4 3 7 7 8 9l2 4-4 4c-2 3-5 6-6 9-2 2-8 9-14 16-14 14-18 22-19 36-1 8-2 11-6 22-10 23-12 30-17 43-6 15-11 31-16 53-6 29-9 53-9 82 0 13 0 14 2 18 3 5 9 9 13 11 4 1 15 0 35-1m-313 0c4-3 5-7 4-18 0-11-3-27-5-34-1-3-3-10-4-18-5-25-11-37-23-50-8-7-18-15-29-23-2-1-6-5-9-7-4-4-4-4-4-10s1-8 3-13c2-4 5-9 5-11 1-3 4-6 5-9 4-5 16-12 25-16 5-1 9-4 11-6l4-4v-21c0-11 0-25 1-30v-9l-4-8c-8-14-11-20-12-29-3-10-9-29-12-34-4-7-11-14-16-17-9-5-37-10-53-10-28 2-43 8-60 24-16 17-19 24-20 52-1 10-1 23-2 28s-1 17-1 27c0 9-1 23-1 32-2 20-3 80-2 83s1 4-1 9c-1 3-3 7-5 9-5 6-12 29-13 41-1 7-2 13-7 27s-6 20-6 25c0 6 2 14 5 18 3 2 1 2 143 3 69 0 80 0 83-1z"/></svg>