<svg xmlns="http://www.w3.org/2000/svg" width="1344" height="566"><path d="M0 283V0h1344v566H0V283m850 274c68 0 298 0 374 1h66c10-2 4-9-18-17-7-3-29-16-42-25-3-1-9-6-14-9-11-10-17-14-31-21-17-9-25-14-39-28-13-12-14-13-24-18-14-7-23-14-39-31-26-28-39-39-59-50-8-4-21-11-30-16-47-29-90-49-124-59-13-4-16-5-29-12-19-9-21-13-14-34 2-8 2-56-1-68-3-15-12-46-18-60-13-32-20-44-35-57-18-17-41-27-69-30-15-2-39 2-50 7-1 1-6 2-9 2-8 1-18 4-25 7-8 5-23 16-31 24-9 9-17 21-21 30-14 31-18 49-17 71 1 12 7 48 10 62 7 34 10 44 20 58 3 3 7 9 9 12 2 5 13 16 20 22 4 2 4 2 10 1 12-2 11-3 28 15 16 16 22 23 21 27-1 2-4 6-7 11-8 11-11 17-14 29-4 13-5 21-3 32 2 16 6 25 17 44 9 16 10 19 10 27 0 5 0 8-3 16-4 8-4 10-4 15 1 8 8 19 13 21 3 1 14 1 41 2 21 0 38 0 39 1h21c11-1 43-1 71-2z"/></svg>