<svg xmlns="http://www.w3.org/2000/svg" width="1344" height="566"><path d="M0 283V0h1344v566H0V283m670 279c4-1 21-1 44-1h50c16 0 88-2 120-3 13-1 38-1 56-1 17 0 55-1 83-1 39-1 53-1 61 0 6 0 30 1 54 2 43 0 44 0 45-2 2-2 2-2 1-8-3-16-35-72-57-102-16-22-41-44-62-55-11-6-17-8-37-13-9-3-21-7-26-9-28-9-50-16-59-18-15-3-21-5-43-17-23-12-27-14-36-15-11 0-11-1-16-5-6-5-8-9-13-23-9-21-10-29-10-47 1-14 1-15 5-24 6-16 8-22 9-35 0-11 0-13-3-23-3-11-4-21-6-38 0-11-5-35-9-44-3-11-6-15-16-25-5-4-11-11-13-14-10-12-21-18-38-19-5-1-12-1-16-2s-14-1-23-2c-17 0-18 0-48 4-10 2-18 4-22 7-2 2-9 6-16 9-16 8-20 11-25 18-8 12-14 27-15 42-1 14-1 75 1 85 8 53 19 78 55 132 12 17 16 22 27 33 6 6 12 13 12 13 0 4-5 10-12 17-11 9-13 10-48 28-18 9-38 19-44 23-7 3-15 8-18 10-13 7-29 21-45 36-8 9-18 18-22 21-10 7-14 13-16 26-1 6-3 13-4 16s-3 8-4 11c-1 6-1 6 1 8 4 5 11 5 66 6 62 1 123 0 132-1z"/></svg>