<svg xmlns="http://www.w3.org/2000/svg" width="1344" height="566"><path d="M0 283V0h1344v566H0V283m1337 279c1-1 3-2 4-4s1-12 1-172V216l-2-7c-4-11-6-13-14-17-3-2-8-5-10-6-8-6-21-11-30-10-3 1-7 1-10 0-6-1-23-1-32-1-9 2-15 3-23 8-15 9-17 13-27 45-2 10-9 22-14 27-6 7-9 13-9 17 2 10 3 14 4 29 0 11 0 16-1 18s-9 5-18 7c-8 1-11 3-15 10-2 3-6 8-9 10-9 8-31 41-33 51-1 2 0 7 1 12 4 16 2 22-6 26s-16 12-18 18c-1 5-1 6 1 18 1 9 2 13 4 15 1 2 3 7 5 10 5 9 10 13 21 19 12 6 24 10 34 11 14 2 15 3 8 19-3 9-4 13-1 15 0 1 1 2 1 2 1 1 101 2 142 1 33 0 44 0 46-1z"/></svg>