<svg xmlns="http://www.w3.org/2000/svg" width="1344" height="566"><path d="M0 283V0h1344v566H0V283m693 279c66 0 128 0 136-1 16-1 16-1 19-3 2-4 3-6 0-13 0-2-2-9-2-14-1-12-4-23-8-31-6-9-7-11-10-18s-5-17-5-24-2-10-8-15c-7-6-22-14-25-14-1 0-9-4-18-8-16-8-36-18-58-28-32-14-37-17-39-25-2-7-2-52 0-68 5-40 6-38-5-91-3-18-5-25-18-64-13-40-32-71-58-92-25-20-54-30-84-30-16 0-22 1-42 12-8 3-16 7-20 9-14 5-21 10-29 21-16 21-27 50-32 86-3 22-5 86-3 116 1 26 5 67 8 86 1 7 2 17 3 24 0 12 0 13-7 14-12 3-29 10-68 28-30 14-37 18-39 21s-2 3-1 16c2 15 3 17 15 29 6 6 12 11 21 17 7 5 14 10 16 11 8 6 21 14 24 15 1 1 9 4 17 7 8 4 21 9 29 14 8 4 16 7 17 7s5 1 10 2c4 1 12 3 18 3 13 1 81 3 107 2 10 0 73 0 139-1z"/></svg>