<svg xmlns="http://www.w3.org/2000/svg" width="1344" height="566"><path d="M0 283V0h1344v566H0V283m668 277c56-2 56-2 59-5 2-2 2-3 2-18 0-8 0-18-1-21s-1-13-1-22c1-8 0-21 0-27-1-15 0-19 7-27 3-2 7-7 8-9 2-2 5-7 7-10 3-2 8-9 12-15 7-10 7-10 30-23 6-3 10-7 19-16 7-7 12-11 13-12 4-1 10 1 30 11 11 5 20 9 27 11 6 2 13 4 14 4 5 2 25 6 32 6 9 0 33-8 38-12 4-5 11-18 11-23 0-4-1-5-5-10-4-3-7-7-9-12-3-5-5-9-7-10-2-2-11-7-20-12-10-4-19-10-21-12-6-5-19-23-22-30-3-8-5-12-8-12-1-1-5 0-10 0-6 2-11 2-28 1-21-1-22-1-31 2-12 2-40 12-47 15-2 1-15 7-28 13-21 10-25 11-34 13-12 2-17 2-19-1-2-1-2-3-1-15 1-8 2-15 2-17 1-1 2-8 2-15 1-13 0-27-3-39 0-3-2-13-4-23-14-81-23-108-43-136-9-11-16-17-32-29-22-15-33-18-55-18-13 0-24 2-32 4-2 1-10 3-17 3-15 2-20 4-30 11-31 23-49 66-56 133-2 26-2 76 0 89 4 19 6 30 10 43 1 7 4 17 4 23 2 9 2 10 1 15-2 6-6 9-22 19s-22 16-30 29c-6 10-9 19-13 34-1 5-3 12-5 17-3 8-3 10-4 28-1 27-1 28 5 31 2 1 4 6 11 26 2 5 4 15 5 22 3 16 4 22 8 24 4 3 26 4 107 5 43 0 78 0 78 1 0 0 11 0 96-2z"/></svg>