<svg xmlns="http://www.w3.org/2000/svg" width="1344" height="566"><path d="M0 283V0h1344v566H0V283m740 276c10-3 14-6 17-11 2-5 3-21 2-49 0-11 1-34 4-55 3-29 4-40 4-56 0-24-1-30-9-49-8-21-14-30-30-49-10-11-10-10-2-33 12-36 11-31 12-68 2-39 1-44-6-64-8-27-14-37-26-48-10-9-29-20-46-28-18-7-26-9-47-11-17-1-47 4-64 10-15 6-34 21-44 35-9 15-13 25-20 55-6 29-7 33-12 38-3 2-5 4-6 6-1 1-1 11-1 31 0 25 0 29-2 33-4 9-13 14-50 29-31 12-52 23-80 42-20 13-29 21-48 39-16 15-29 32-35 41-1 2-3 6-5 7-5 9-9 17-17 44-9 26-10 40-9 76 1 28 2 31 7 34 3 2 6 2 47 1 74-1 244-1 280 1 17 1 62 1 99 2h68c2 2 11 1 19-3z"/></svg>