<svg xmlns="http://www.w3.org/2000/svg" width="1344" height="566"><path d="M0 283V0h1344v566H0V283m925 278c10 0 10 0 13-3l3-3v-15c0-9 1-17 1-20 2-6 2-27 0-32-2-3-4-13-12-42-1-8-3-16-4-17-1-2-1-7-2-12-3-22-5-33-9-43-5-12-9-29-15-52-2-10-6-19-10-24-3-4-9-7-22-11-18-4-31-11-31-17 0-3-6-17-10-24l-4-6v-21c0-20-2-43-4-53-5-19-21-36-40-43-7-2-8-2-21-2-16 1-31 3-37 7-11 5-21 16-27 28-8 14-8 22-4 43 1 9 2 15 2 17-1 4-11 19-19 30-3 3-7 8-8 10-4 9-10 33-10 43 0 5-2 9-6 14s-7 10-8 18-3 15-7 23c-2 4-5 10-6 15-2 5-5 11-7 14-5 9-16 31-19 41-4 13-6 24-4 36 2 23 11 34 28 38 6 1 8 1 15 0 11-2 15-5 22-13 3-4 6-7 7-7s2 5 2 37c1 32 1 37 2 40 3 5 5 5 28 6 18 0 194 1 223 0z"/></svg>