<svg xmlns="http://www.w3.org/2000/svg" width="1344" height="566"><path d="M0 283V0h1344v566H0V283m462 278c44-1 99-1 124-2 46-1 53-1 130 0h59c5 0 60 0 121 1 114 1 255 0 280-1h20c4 0 18-1 24-3 1 0 3-1 3-2 1-2 1-4-3-10-5-10-16-39-21-58-6-22-9-31-11-34s-11-7-19-8c-19-3-20-4-23-10-2-5-10-22-19-42-8-17-11-25-22-57-2-6-6-17-9-24-5-12-14-41-21-65-7-23-14-40-22-46-6-5-15-3-19 5s-8 5-21-18c-11-20-15-24-24-24-3 0-5 1-9 4-3 2-6 4-7 4 0 0-3-2-6-5-6-6-9-8-14-8-8 0-14 9-14 21 0 4-2 5-6 5-5 0-9 3-12 7-3 7-1 35 4 58 1 4 4 14 7 21 2 7 5 16 7 20 2 5 4 14 4 20 1 6 3 13 4 16 4 9 30 46 41 59 3 4 11 14 17 21s13 16 16 18c19 22 40 61 43 81 1 3 1 4-1 5-2 2-2 2-9 0-15-5-42-20-50-28-5-5-7-9-15-25-12-23-14-26-32-41-32-27-41-32-63-32-13 0-49 2-69 4-14 2-26 1-31-1s-7-8-7-17c0-8 6-43 10-56 2-7 3-9 6-12 2-2 5-6 6-8 2-5 2-7 2-22 0-17-1-25-6-42-1-4-4-13-6-20-6-21-12-37-24-62-13-28-18-37-24-47-14-25-44-52-71-64-10-5-30-11-43-14-14-3-34-3-49 0-5 1-14 3-20 4-28 4-58 14-75 26-21 14-42 44-54 77-5 12-7 23-7 35 0 11 0 12 3 19 5 11 6 17 6 48v28l3 8c3 8 6 14 7 21 1 1 1 10 2 19 1 11 1 17 3 22 7 22 20 38 47 58 6 4 9 10 10 18 0 8-2 18-7 25-1 2-5 7-8 12-5 8-10 13-20 20-6 6-9 7-22 12-12 5-14 6-15 4-2-2-4-12-4-29-1-16-2-21-9-38-4-9-6-14-9-17-6-6-11-6-17-1-7 6-9 16-9 49 0 16 0 22-1 24-3 7-6 6-9-2-6-13-14-58-15-87-1-10-2-18-7-46-1-12-5-19-9-22-11-7-16 2-18 36-2 25-4 48-5 49-1 2-3-3-8-16-16-47-17-49-23-62-4-9-6-12-12-14-5-3-11-3-14 1-2 2-2 3-2 11 1 5 2 14 3 21 2 6 4 15 5 20 0 4 2 16 4 26 2 9 4 21 4 24 1 4 1 9 2 11 2 7-1 8-5 2-6-8-9-15-25-53-6-14-9-19-15-22-7-3-15 0-17 7-1 5-1 7 2 19 7 28 9 35 17 59 4 10 7 20 7 21-2 3-2 2-24-21-12-13-20-18-27-18-5 0-9 5-9 10s4 15 9 25c5 8 37 51 51 68 3 3 9 11 14 17 14 22 21 28 30 30 3 1 23 1 46 0h120z"/></svg>