<svg xmlns="http://www.w3.org/2000/svg" width="1344" height="566"><path d="M0 283V0h1344v566H0V283m1005 176c3-2 15-15 19-20 1-2 1-5 2-11 0-7 0-10 3-16 2-4 5-13 8-20s7-15 9-18c4-6 6-12 7-25 1-18-3-29-18-45-4-5-7-10-8-12-1-3 0-24 2-27 1-3 2-32 1-45-1-11-2-17-4-26-8-28-18-39-40-45-7-2-9-2-20-1-14 1-16 2-20 6-2 1-4 3-6 5-3 2-14 18-17 25-1 2-4 6-6 9-5 7-7 13-7 21 0 3-1 10-2 15 0 6-1 13-1 16 0 7-2 9-5 7s-10-1-15 2c-7 3-10 5-13 11-5 12-6 15-7 31 0 11-1 16-2 19-1 1-2 5-3 8-2 7-3 9-10 12s-14 9-17 15c-2 4-3 19-1 28 1 8 6 16 11 21 3 3 5 4 13 7 6 1 11 2 12 2 2 0 5 3 5 6 0 1 0 3 1 4 1 3 8 7 10 7 1 0 7 2 12 5 11 6 18 8 26 10 3 0 7 1 8 1 1 1 5 2 9 3s10 3 13 4c4 1 11 3 15 4s11 3 15 4c17 5 17 5 21 3z"/></svg>