<svg xmlns="http://www.w3.org/2000/svg" width="1344" height="566"><path d="M0 283V0h1344v566H0V283m723 275c4-3 6-5 7-14 1-6 1-8-1-12-1-6-1-6 1-18 1-7 2-21 2-36 1-29 1-31 8-35 4-2 5-2 18-2 63 1 79 0 106-6 5-1 14-2 18-3 12-2 25-4 36-8 23-8 37-13 40-15 7-4 20-10 23-10 4 0 5-2 9-11 2-7 2-8 2-19-1-7-2-13-2-14-1-2-4-5-6-8-3-3-8-10-11-15-13-22-31-42-44-49-7-4-10-6-21-10s-19-8-28-16c-7-6-19-14-20-14-2 0-22-9-28-12-4-2-9-5-12-7-7-5-17-9-25-10-11-2-19-5-39-19-21-13-28-20-37-33-11-17-13-21-17-39-3-18-6-27-12-39s-18-27-32-37c-12-9-34-18-52-20-5-1-13-2-16-2-13-2-29 0-49 7-17 6-39 17-47 26-6 6-14 21-17 34-6 21-16 39-28 50-10 10-26 17-42 20-3 1-9 2-11 4-12 6-23 9-34 10-5 0-11 1-12 2-2 0-7 4-13 8-16 10-25 14-49 22-29 9-36 12-45 22-6 6-8 10-13 19-7 15-9 25-9 38 1 9 1 10 6 19 6 12 13 21 28 35 13 12 21 17 39 28 6 3 14 8 16 9 2 2 8 4 11 5 16 5 27 10 32 14 8 9 11 22 10 51-1 28-4 47-12 75-7 24-7 33-2 34 1 1 37 1 80 1h170c42 1 76 1 77 1 0 0 10 1 22 1 20 0 22 0 25-2z"/></svg>