<svg xmlns="http://www.w3.org/2000/svg" width="1344" height="566"><path d="M0 283V0h1344v566H0V283m409 277c14 0 22-1 24-2 5-2 6-8 7-29 1-18 1-18 11-13 4 2 11 4 16 6 15 3 20 0 27-18 5-13 6-18 3-23 0-2-1-7-1-10-1-7-1-8-4-10-4-4-14-7-19-7-2 0-10 1-16 2-10 1-11 1-13 0-6-6-5-21 4-58 3-15 3-16 2-25-2-14-8-31-16-47-7-11-11-17-25-29-6-6-11-11-12-13 0-1 1-5 6-15 6-12 8-14 16-20 5-4 6-9 9-25 2-13 2-18 0-30 0-4-1-13-2-20-1-11-3-21-6-27-3-5-8-8-20-14-10-5-14-7-24-9-14-3-17-3-27 1-22 6-29 13-36 34-2 7-5 33-7 57-1 9-2 21-2 28-1 19-1 35 1 42 0 3 1 6 1 8-1 1-3 5-6 9-5 8-11 23-14 33-2 8-3 12-5 19-1 4-2 12-3 18s-1 16-2 21c-1 6-2 18-3 26 0 9-1 18-1 19 1 2 2 10 2 17 2 11 3 17 5 24l3 10v30c1 34 0 32 12 37 7 3 11 3 20 4 12 1 56 0 95-1m928 1c6-3 5 2 5-129V312l-2-10c-3-14-7-23-14-36s-13-19-29-35c-8-8-16-16-17-18-7-10-15-16-24-18-4 0-10-3-12-6-3-2-5-9-8-16-2-9-2-34 0-45 2-7 2-11 2-24-1-17-1-19-7-29-2-3-8-15-11-23-2-6-5-9-13-13l-7-3h-17c-17 0-30 2-37 6-6 2-21 17-25 24-8 11-8 12-7 34 0 10 1 24 2 30 2 14 6 34 7 38l7 14c5 12 7 16 12 18 14 7 16 8 16 15s-4 13-14 22c-11 10-19 21-21 29-2 11-3 14-4 18-5 16-9 28-9 29l-2 8c-2 4-3 8-3 9s-1 3-2 5c0 2-2 8-2 15-1 6-1 13-2 15 0 3-1 12-2 21-3 42-3 44-12 57-7 12-12 16-23 23l-7 5-7-2c-4-1-9-2-11-3s-6-3-9-4c-4-1-8-3-11-4-8-4-13-2-13 5 0 2 1 4 4 8 6 5 7 8 7 12 0 5-4 9-18 19-7 6-6 9 3 15 2 2 4 4 6 8 3 9 4 10 8 7 3-2 6-3 8-3 4 0 5 1 10 6l5 5 11 1c6 1 14 3 17 3 4 1 7 2 8 2 2 0 5 3 6 7 1 2 2 4 4 5 5 2 30 3 138 3 58 0 107 0 107 1 1 1 6 0 9-1m-684-2c3-2 130-1 163 0 44 2 66 1 71-3 3-2 4-7 3-28-1-20-2-33-3-78 0-26 0-37 1-54 1-11 3-27 3-34 1-8 2-21 3-29 2-22 1-47-2-59-4-14-10-27-18-39-3-6-9-15-11-19-8-14-13-22-22-32-10-10-12-13-13-21-1-7-4-9-11-10-8-1-10-4-14-13-3-7-4-8-4-23V88c0-7 1-18 1-26V49l-4-7c-6-12-13-17-33-24-9-4-24-3-34 0-17 7-34 20-39 31-4 7-5 21-5 43-1 14 1 22 7 40 4 10 15 33 18 37 7 9 13 20 13 22-1 1-4 5-7 8-8 9-10 13-11 26-2 10-3 15-8 27-6 14-8 22-9 30-2 12-8 45-12 62-2 8-4 18-4 22-1 4-5 22-8 39-4 17-7 35-8 39-1 5-3 17-4 26-2 10-4 22-5 27-3 21-4 30-7 41-3 15-3 17 0 20 2 2 10 3 13 1z"/></svg>