<svg xmlns="http://www.w3.org/2000/svg" width="1344" height="566"><path d="M0 283V0h1344v566H0V283m846 276c18-1 22-3 27-10 3-5 13-33 16-45 0-4 2-9 3-12s3-10 5-17c3-13 10-31 16-47 3-7 6-14 7-18 3-9 6-14 24-38 3-5 10-15 15-22 6-8 14-21 20-29 5-8 12-19 14-25 7-14 7-13-12-32-22-22-28-24-52-20-6 1-15 1-21 1-10 0-12 0-18-2-7-3-12-5-24-8-7-2-7-2-10 0-5 3-15 31-18 54-1 8-4 23-6 33-8 37-9 42-10 53-1 6-2 17-3 25-2 25-4 33-9 38-5 6-9 7-28 9-10 0-18 1-19 1 0 1-7 3-14 5-7 1-18 5-23 6-4 2-18 7-29 10-13 4-21 7-22 8-4 3-4 6-3 40 1 32 1 32 8 36 6 3 10 3 54 5 47 2 91 2 112 1z"/></svg>