<svg xmlns="http://www.w3.org/2000/svg" width="1344" height="566"><path d="M0 283V0h1344v566H0V283m835 275c3-2 7-11 12-29 4-18 7-30 7-37 0-12-6-40-12-61-2-7-4-14-4-16 0-1-1-5-1-9-2-8-5-22-6-32-2-10-5-23-7-30 0-3-1-8-2-11 0-3-1-9-2-13 0-3-1-14-2-24-1-27-3-30-29-44-5-3-10-6-11-8-2-2-2-2-1-4 1 0 5-2 9-2 9-1 15-5 17-9 2-3 2-3 0-10-3-9-8-15-20-25-28-22-27-21-27-45 1-21 0-34-5-46-6-14-20-25-37-30-11-2-27-1-46 4-25 6-34 11-41 22-4 6-4 20-1 33 3 11 3 12-2 26-2 4-3 9-3 10 0 2-1 4-1 6-2 3-10 11-12 11-1 0-3 1-5 3-4 2-11 14-11 19 0 1-2 10-3 19-3 15-4 18-9 26-4 7-6 10-9 13-4 2-6 5-12 16-4 7-9 16-11 19-4 9-9 28-11 50-2 15-1 20 2 27s6 9 14 11 16 0 29-5c5-1 13-4 16-6 5-2 7-2 8-1 3 2 3 16 2 70-2 111-2 109 3 112 2 1 22 1 79 2 41 0 76 0 76 1h33c31 0 33-1 36-3z"/></svg>