<svg xmlns="http://www.w3.org/2000/svg" width="1344" height="566"><path d="M0 283V0h1344v566H0V283m600 277c34-2 32-2 69 0 44 2 204 1 237-2 19-1 30-1 78 0 82 1 80 1 83-1 3-3 3-5 0-10-4-9-14-18-33-32-20-15-38-26-62-39-22-11-26-15-34-23-11-12-12-16-6-31 2-5 4-12 5-15 4-11 9-24 15-35 3-7 10-21 16-32 10-23 18-36 22-40 2-1 7-4 10-6 8-4 20-15 26-24 2-3 5-8 8-12 5-9 9-17 11-28 1-9 1-16-1-20l-5-5c-9-5-10-7-6-23 4-14 11-44 12-52 2-16 5-42 5-50 0-13-5-36-13-57-5-13-8-15-25-17-8-2-21-2-84-2-42-1-92 0-112 0-46 1-50 2-56 11-11 19-18 43-24 85-5 36-6 39-9 42-2 2-4 3-8 3-11 2-17 7-19 19-3 9-3 16-2 27 3 23 10 41 23 54 9 8 9 11 8 35-1 19-5 40-9 52-5 17-17 38-23 41-2 1-10 1-30 1-24 0-28 1-30 2-3 2-9 11-26 34-10 15-22 27-27 30-6 3-33 19-39 23-6 5-29 19-42 25-14 8-29 18-42 28-9 7-26 24-32 32-3 4-4 8-1 10 2 1 34 3 54 3 33 1 92 0 118-1z"/></svg>