<svg xmlns="http://www.w3.org/2000/svg" width="1344" height="566"><path d="M0 283V0h1344v566H0V283m692 276h69c95 1 97 1 100-1 5-3 6-6 11-25 4-17 4-18 4-34 0-9 0-23-1-30s-2-19-2-25c-1-6-2-15-3-18-3-18-5-32-10-74-1-10-3-23-4-30-1-6-3-17-4-26-3-23-4-24-25-38-5-3-13-9-18-13s-12-9-14-11c-3-3-8-7-11-10-4-3-8-6-10-7-5-3-7-6-7-11 0-7 2-11 9-18 9-11 12-17 15-30 2-14 3-26 0-33-4-16-16-30-29-36-10-5-18-6-39-6-14 1-18 1-24 3-10 3-17 8-23 15-8 8-8 11-8 43 1 19 1 26 0 28-1 1-3 3-6 5-18 8-22 15-27 37-4 17-7 26-12 34-2 4-5 9-6 11-1 3-4 8-8 12-3 4-8 12-10 17-3 4-7 11-9 14-9 12-15 24-21 41-3 9-3 11-3 21 0 17 5 27 15 33 5 2 6 2 17 2 12 0 17-1 27-8 7-5 7-5 9-2 1 1 1 4-2 43-1 14-3 30-4 34-1 5-2 17-3 26 0 9-2 21-3 29-4 19-5 29-3 33 1 2 3 3 4 4 4 2 19 3 37 2 10 0 24 0 32-1z"/></svg>