<svg xmlns="http://www.w3.org/2000/svg" width="1344" height="566"><path d="M0 283V0h1344v566H0V283m554 276c6-2 12-7 16-13 3-6 3-6 2-9-1-4-1-6 6-22 1-4 4-11 5-15s3-9 3-11c2-5 5-6 10-3 3 1 6 2 11 2 11 0 14-1 19-7 2-3 5-7 7-10 3-3 6-9 7-12 3-7 8-18 12-23 3-5 6-11 8-21 2-9 8-23 14-35 2-5 6-12 8-16s5-8 8-12c7-6 11-12 12-19 2-7 3-36 2-38-2-2-4-1-9 3l-5 5-11 1c-9 1-13 1-17 0-7-2-12 1-30 15-21 17-21 17-24 17-2-1-10-15-15-28-4-12-10-22-16-27-4-4-23-14-42-22-10-5-12-7-11-16 1-3 2-6 2-7 1-1 6-3 12-6 10-5 10-5 17-16 3-5 13-26 16-34 2-3 4-11 5-20 1-8 2-15 3-16 2-7 3-18 2-31-2-27-5-34-23-48-16-13-31-21-42-22-18-2-22-2-31 0-28 8-39 23-54 77-4 12-10 46-12 60 0 7-3 22-7 39-3 15-3 17 4 21 10 6 9 6 9 11-1 3-3 8-8 17-5 8-9 15-10 16-2 3-3 4-3 13 0 5 1 14 2 21 0 6 1 19 2 30v18l-3 11c-3 9-4 12-5 29-1 16-1 18 1 25 2 9 6 19 11 29 2 4 4 9 4 9 0 1 1 4 2 6 2 3 4 7 4 10 1 2 2 6 3 7 0 2 1 8 2 14s1 12 2 14c1 3 1 9 2 14 0 15 1 15 13 23 2 2 6 2 26 3 20 0 23 0 26-1 4-2 14-2 32 0 10 2 20 2 26 0z"/></svg>