<svg xmlns="http://www.w3.org/2000/svg" width="1344" height="566"><path d="M0 283V0h1344v566H0V283m546 276h28c23 1 58 1 62 0 3 0 5-2 6-3 2-3 4-16 3-20s-7-10-12-13c-3-2-9-13-9-17 0-3-4-9-10-17-3-3-8-10-12-15-10-13-17-22-22-24-2-1-7-3-12-5-4-2-9-4-12-6-7-5-20-13-32-19-15-8-18-13-13-20 3-4 9-12 15-22 3-4 7-11 10-14 3-4 7-11 10-16 5-11 6-12 22-13 10-1 13-2 18-4 8-4 13-9 16-15 1-2 2-9 2-15s2-14 2-16c2-4 2-6 1-13 0-8 0-11 2-18 2-5 3-11 3-13 0-4 1-7 4-13 5-10 4-15-4-34-4-8-7-17-8-19-1-3-2-6-2-7-1-2-1-13-2-39 0-30 0-38-1-44-4-19-12-35-20-43-3-4-8-7-28-16C502 4 503 4 450 4c-49 0-59 2-66 9-2 2-6 5-10 7-8 4-23 18-31 27-10 13-21 39-26 65-3 16-9 53-12 72 0 3-1 9-1 13-1 4-3 14-4 22s-3 19-3 25c-4 21-5 32-7 46 0 8-2 18-3 23 0 5-2 15-3 22 0 8-3 26-6 39-7 34-7 35-4 38s12 7 16 7c1 0 6-1 11-2 4-1 8-2 9-1 3 0 5 3 5 5s-4 10-8 20c-5 9-11 23-14 32-6 13-20 41-29 59-11 19-5 25 27 27 9 1 17 1 17 2 1 0 225-1 238-2m314 1h106c12-1 37-1 56-1 26-1 33-1 35-2 1-1 3-1 8-1 8 0 12-1 16-6 3-5 4-5 19-4 9 1 11 1 11-3 0-3-11-13-19-19-10-7-20-16-20-19-1-4 2-5 9-2 8 4 15 5 18 3 2-2 1-7-3-12-6-7-19-19-25-23-2-1-7-4-10-6-10-6-17-9-45-16-5-2-11-3-13-3-1 0-7 2-12 4-5 3-10 5-11 6-1 0-7 2-11 5-5 2-13 6-18 8-8 3-36 18-41 22s-28 17-35 20c-3 2-9 4-12 5s-7 3-9 4c-9 6-24 22-32 33-2 2-1 5 2 7 3 1 28 1 36 0z"/></svg>