<svg xmlns="http://www.w3.org/2000/svg" width="1344" height="566"><path d="M0 283V0h1344v566H0V283m625 277c12 0 22-1 22-1 0-1 9 0 20 0s50 1 88 1c66 0 68 0 70-1 4-4 4-9 3-23-1-15-2-20-6-33-7-29-15-51-22-66-3-8-3-8-2-14 2-10 1-13-2-16-4-4-13-9-24-14-4-2-19-9-32-16-14-6-26-12-28-13-8-2-24-11-26-14-4-4-4-11 0-30 2-8 4-18 4-22 1-3 4-13 6-22 4-14 4-17 5-31 0-10 0-21-1-33-1-9-2-23-3-32-1-20-4-43-7-52-9-34-10-36-16-48-9-16-13-21-25-33-9-9-14-13-22-18-13-8-28-15-40-18-15-3-20-3-45 5-7 2-17 5-22 6-13 3-21 7-30 16-17 17-27 37-35 69-4 15-7 33-13 79-10 69-12 93-8 122 3 24 3 31-4 37-4 4-13 7-22 9-8 1-23 7-50 21-27 13-37 19-43 25-5 4-5 5-7 14-2 5-6 15-9 22-8 18-9 20-16 56-4 19-7 38-8 54 0 7 0 8 2 10 2 3 4 3 17 3 17 1 63 2 88 1 40 0 106 0 126 1 42 1 96 1 117-1z"/></svg>