<svg xmlns="http://www.w3.org/2000/svg" width="1344" height="566"><path d="M0 283V0h1344v566H0V283m743 279c13-2 27-2 47-1 9 1 17 1 22 0h19c9 1 22 1 50 0 31-1 51-1 100 0 34 1 70 1 80 0 26-1 25 0 20-26-5-25-6-26-8-37-2-6-4-16-5-22-2-7-4-15-5-19 0-4-2-9-3-12-3-14-5-20-8-33-7-23-10-30-18-41-7-11-13-16-32-24-6-3-15-7-19-9-7-3-32-12-47-17-30-9-33-11-70-49-18-18-23-24-24-27-2-8 0-43 3-50 1-3 4-8 7-13 8-11 10-18 11-33 0-12-1-21-7-39-1-6-5-17-7-26-7-28-14-44-24-62-7-11-9-13-16-16l-5-2-80-1c-84 0-111 1-116 4-6 2-19 23-23 37-6 18-7 33-5 60 2 19 3 24 9 50 3 10 6 25 7 32 3 16 8 29 17 46 5 9 13 28 15 35 3 8 9 21 13 28 8 12 10 18 7 23-2 4-11 12-17 16-3 2-10 6-16 9-20 10-51 27-60 33-6 4-6 6 1 22 4 7 7 16 8 18 3 10 1 24-6 47-2 5-4 15-6 22-5 27-6 30-20 48-12 15-13 16-10 18 1 2 4 2 15 3 16 1 31 3 36 4 7 2 54 3 80 2 18 0 25 0 31 1 9 2 43 2 59 1z"/></svg>