<svg xmlns="http://www.w3.org/2000/svg" width="1344" height="566"><path d="M0 283V0h1344v566H0V283m608 277c2 0 39-1 86 0 67 0 82 0 85-1 6-2 7-7 7-26 0-18-1-24-5-45-9-38-13-50-19-61-4-7-4-10-3-21 2-9 0-11-11-16-25-12-55-26-62-29-15-6-25-11-29-14-3-3-3-4-3-8 0-3 0-7 1-9s2-14 4-28c2-13 4-28 4-34 3-20 4-29 3-49-1-22-2-29-4-45-4-33-4-33-11-61-4-15-16-43-24-53-2-4-6-8-7-11-6-8-19-17-42-29-15-9-26-12-37-12-10 0-15 1-29 6-5 2-10 3-18 4-10 1-13 2-19 5-26 12-45 40-57 83-5 16-10 38-13 55-2 9-5 24-7 34-5 26-7 42-8 60-1 19-1 47 2 58 1 9 1 17 0 22-2 5-6 7-18 7-13 0-26 4-43 13-7 3-20 10-30 15-20 10-22 12-27 18-3 4-4 6-6 18-2 7-7 26-11 42-5 17-9 35-11 42-2 12-5 22-7 28 0 2-2 10-3 16-2 14-2 19 2 21 2 1 6 2 11 3 8 2 33 2 117 1h44c107 3 189 3 198 1z"/></svg>