<svg xmlns="http://www.w3.org/2000/svg" width="1344" height="566"><path d="M0 283V0h1344v566H0V283m986 143c2-1 3-7 3-15 0-4 0-8 1-10 2-4 5-21 8-47 1-9 3-20 4-26 0-5 1-17 1-25 1-20-1-23-11-32-4-4-8-9-9-11-3-5-6-18-7-29-1-5-2-12-3-14 0-3-1-8-1-11s-1-8-2-11c0-3-2-7-2-10-1-3-4-10-7-16-4-8-7-12-12-17-9-9-12-11-29-10-12 0-13 0-19 3-9 4-15 10-19 19l-3 6v46l-3 3c-2 2-4 3-5 3-3 0-6 3-8 7 0 2-2 6-3 9s-2 9-3 15c-1 10-1 11-4 15-3 5-4 5-8 16-2 7-3 8-11 16-13 12-14 15-14 30 0 7 1 13 1 15 2 5 13 17 16 18 1 0 5 2 8 2 3 1 8 3 9 5 3 2 4 3 6 2 4-1 5 1 4 9 0 7 0 8 3 12 4 6 9 8 25 12 7 2 15 4 18 5 6 1 22 5 34 7 9 2 19 5 28 8 6 2 12 2 14 1z"/></svg>