<svg xmlns="http://www.w3.org/2000/svg" width="1344" height="566"><path d="M0 283V0h1344v566H0V283m747 190c9-1 18-2 21-3 4 0 9-2 12-3 3 0 8-1 12-2 3-1 10-3 16-4 5-1 12-3 16-4 5-2 9-3 25-7 8-3 26-3 43-2 20 1 19 2 19-15-1-8-1-19-2-25-3-18-4-43-4-52 1-11-1-19-8-28-4-7-5-8-13-11-4-1-9-4-12-5-2 0-7-3-10-6-6-4-13-8-16-8s-10-4-10-7c0-1 1-2 8-2 5 0 9-1 10-1 3-2 3-5 2-16 0-5-1-14-2-19 0-5-1-15-3-21-5-24-6-28-8-34 0-4-2-9-3-12-1-4-3-11-5-16-8-33-12-45-20-62-11-23-22-36-41-49-12-8-33-19-41-20-14-4-30-2-41 4-2 1-8 3-13 4-20 3-25 5-34 14-10 9-21 26-25 38s-10 40-12 53c0 4-1 11-2 16-1 10-2 66 0 84 2 20 3 44 2 45 0 2-2 3-10 4-6 1-9 0-18-1-10-2-27-3-32-2-2 1-7 5-13 10-5 5-12 10-15 12s-11 7-18 12-17 12-23 16c-5 3-14 9-19 13-11 9-17 11-27 11-6-1-8 0-11 1-4 2-4 2-3 5 1 9 0 14-10 36-5 11-9 22-11 31-1 4-3 9-4 11-2 5-3 9 0 9 3 2 13 1 20-1 12-4 18-6 22-6 2 0 7-1 11-1 4-1 15-2 24-2s20 0 25-1c7-1 9-1 13 0 6 2 8 2 11 0s3-2 7-1c3 0 7 1 9 1 3 0 6 0 8 1 8 2 39 6 56 7 18 1 20 1 27-1 9-2 29-2 43 0 5 1 13 2 16 3 11 1 25 4 28 7 4 3 7 4 33 2z"/></svg>