<svg xmlns="http://www.w3.org/2000/svg" width="1344" height="566"><path d="M0 283V0h1344v566H0V283m859 276c16-1 29-1 32 0 6 1 19 1 33 1 9 0 9 0 12-3l3-3v-11c-1-11-4-30-12-65-1-9-4-21-5-27s-3-17-5-25c-4-19-5-26-6-41-1-8-2-19-3-26-3-18-11-61-13-76-5-25-6-30-8-44 0-8-1-19-1-25v-11l5-11c8-15 13-30 18-58 2-8 2-14 2-26 0-14 0-16-2-20-4-8-17-17-30-20-19-4-47 4-59 16-2 2-5 7-7 10-4 6-4 9-8 22-3 8-12 28-14 31-3 3-8 5-18 8-13 3-20 7-24 14-2 3-6 8-10 12-12 10-20 18-21 21-1 5 2 12 9 24 4 7 7 14 8 16 0 1-1 5-2 9-3 7-3 12 0 34 5 32 5 41 4 75-1 30-1 33-3 36-3 7-6 9-17 13-9 3-11 3-17 10-8 7-10 10-10 18 0 5 2 8 10 13 14 10 25 25 30 38 2 10 6 31 8 44 1 6 1 12 2 15 0 5 3 10 7 11 9 3 55 3 112 1z"/></svg>