<svg xmlns="http://www.w3.org/2000/svg" width="1344" height="566"><path d="M0 283V0h1344v566H0V283m936 276c26-1 49-1 50-2 2 0 4-1 5-3s1-3-2-9c-1-3-7-17-14-29-7-15-12-27-15-36-3-7-8-21-13-30-11-23-15-33-17-41-1-4-5-12-10-23-5-8-10-19-12-22-2-4-6-12-9-17-10-17-20-37-22-48-2-8-2-8 9-18 7-7 9-10 12-16 5-10 7-20 9-36 1-6 3-17 4-25 4-28 5-55 2-65-1-2-2-7-2-11-4-20-15-45-28-61-22-28-52-46-85-51-6 0-13-2-16-2-2-1-9-1-16-1-11 0-13 0-24 3-6 2-19 5-28 8-36 7-43 10-63 24s-29 27-39 56c-6 20-8 29-7 52 0 23 1 34 7 54 4 15 5 20 10 41 1 9 5 21 6 28 2 7 5 16 6 20s5 16 8 26c9 29 13 37 21 46 10 10 20 14 40 15 15 1 17 2 24 10 5 8 7 12 7 17s-1 6-12 16c-5 5-14 15-19 22-6 8-17 20-24 27-9 9-15 16-18 21-6 9-17 33-21 44-4 14-2 16 15 17 18 1 228 0 281-1z"/></svg>