<svg xmlns="http://www.w3.org/2000/svg" width="1344" height="566"><path d="M0 283V0h1344v566H0V283m335 278h487c23 0 27 0 31-1 3-2 6-2 8-2 1 1 26 2 55 2 30 0 65 1 80 2 28 0 31 0 35-6 1-2 1-3 0-14-2-20-5-33-14-66-8-25-9-34-5-38 2-1 4-2 5-2 3 0 9-5 21-16s16-14 30-18c24-7 47-11 90-17 13-2 31-6 39-9 9-4 19-10 21-13s1-8-2-10-4-2-28-2-26 0-36-3c-15-3-23-3-36 4l-9 4-25 1c-26 1-32 1-47-3-10-2-25-8-29-11-3-4-8-15-15-32-1-5-6-16-9-24-4-8-8-17-8-19-3-7-8-16-15-24-7-9-10-15-10-21 0-5 0-6 4-9 4-4 7-6 15-8 5-2 11-5 13-7s6-6 9-11c2-4 7-12 10-17 8-12 14-25 15-32 3-15-4-65-11-78-6-12-18-22-32-26-29-9-50-6-70 10-6 5-14 15-17 21-4 8-5 20-3 37 3 17 2 26-3 40-5 12-18 31-24 34-2 1-9 3-15 3-7 1-11 2-13 4-1 1-5 6-8 12-5 10-9 15-28 36-12 14-26 37-30 51-5 14-5 21 2 52 3 12 3 31 1 50-3 20-3 35-2 44 2 10 2 12 0 13-4 2-19-7-24-14-6-10-9-22-10-61-1-25-3-48-7-74-1-7-3-23-5-34-3-24-9-51-13-65-3-12-12-35-18-45-15-29-47-51-88-60-20-4-34-4-50 2-48 17-58 24-73 52-12 24-14 36-11 85v33c-1 11-1 18 0 27 1 6 2 22 3 34 2 23 3 35 8 60 2 18 3 23 1 27-2 5-5 7-14 9-4 1-12 4-17 7-11 5-25 10-35 13-3 1-8 3-11 4-4 1-13 4-21 6-19 5-18 6-19-14-1-8-1-19-2-25 0-6-1-14-1-18-2-15-11-70-15-81-1-4-2-10-3-12s-3-8-5-13c-5-10-8-23-8-27 1-1 3-6 6-11 4-6 7-10 14-16 13-11 11-9 28-37l6-10v-10c0-4-1-14-2-22-1-7-2-17-2-23-2-17-7-26-20-34-20-12-31-15-52-17-4-1-12 0-20 0-16 2-23 5-30 12-6 5-8 12-11 28-2 13-1 35 2 52 1 7 2 13 2 15 0 5-4 12-11 18-7 7-11 12-13 21-1 4-3 6-15 18-15 15-17 17-20 34-1 4-3 11-4 16-2 4-5 11-6 14-4 11-10 26-14 36-10 23-15 45-17 81-1 9-2 24-2 33-4 47-6 95-3 100 3 6 11 6 195 5z"/></svg>