<svg xmlns="http://www.w3.org/2000/svg" width="1344" height="566"><path d="M0 283V0h1344v566H0V283m820 278c37 0 49-1 51-3 4-4 2-12-6-36-8-22-10-31-10-38s1-8 14-9c17-1 26-3 34-11 5-5 8-10 10-21 2-13 0-20-9-32-13-16-15-25-12-40 1-6 1-9 0-10-1-4-5-5-11-3s-13 2-15 1c-1-1-3-3-4-5 0-2-3-8-5-14-5-14-12-32-15-37-1-2-5-8-9-13-6-9-12-14-18-16-4-1-19-7-24-10-2-1-5-4-7-6-3-3-3-4-3-8 1-3 3-10 5-16 4-15 6-20 8-32 0-6 2-16 4-23 3-17 3-29 0-36-7-15-25-34-37-39l-7-4-22 1h-22l-6 3c-17 8-31 27-36 47-1 8-1 23 1 40 0 5-2 10-6 16-2 3-2 5 0 13 2 13 2 12 11 16 5 2 8 5 9 6 1 4-7 20-18 32-5 5-11 9-20 15-14 9-25 18-29 23-3 4-3 6-4 18-1 7-2 22-2 32-1 12-2 26-2 32-2 17-3 53-2 60s2 13 5 22c4 16 5 52 2 70-2 11-1 11 9 13 17 2 36 3 72 2 41-1 40-1 58 1 8 0 21 1 30 0 9 0 26 0 38-1z"/></svg>