<svg xmlns="http://www.w3.org/2000/svg" width="1344" height="566"><path d="M0 283V0h1344v566H0V283m1012 278c71 0 101-1 107-3 5-2 6-7 3-17-5-16-10-22-29-37-5-5-11-10-13-12-2-3-9-10-16-17-11-12-14-14-33-27-20-14-26-17-45-28-9-4-15-10-22-20s-9-14-13-18c-2-2-6-7-7-10-2-4-7-11-10-16s-12-22-20-38c-15-30-16-33-12-39 1-1 6-6 10-11 13-13 15-19 24-53 5-22 6-29 6-50s0-27-6-50c-3-12-5-18-10-28-8-17-13-24-27-37-9-9-14-13-23-18-6-4-13-8-17-9-4-2-10-4-15-6-13-6-23-7-41-7-14 0-18 0-33 3-9 2-21 4-26 5-4 2-13 4-20 5-10 2-14 3-36 11-14 5-30 13-35 17-12 11-27 36-31 53-4 16-5 33-5 54 1 23 4 39 10 55 6 14 9 24 10 37 2 13 6 29 15 56 3 10 8 26 11 35 6 20 9 26 14 32 8 9 15 12 34 17 6 1 12 3 13 4 2 2-1 4-10 9-5 2-12 6-16 9l-22 11c-32 14-54 29-65 42-9 12-10 19-9 44 1 10 1 18 1 18s3 3 6 7c3 3 6 9 8 12 4 9 6 10 28 12 30 3 48 4 367 3z"/></svg>