<svg xmlns="http://www.w3.org/2000/svg" width="1344" height="566"><path d="M0 283V0h1344v566H0V283m957 277c18-2 18-2 16-12-1-4-4-10-6-14s-4-11-6-15c-5-13-17-35-20-40-2-2-8-10-15-17-6-7-12-15-14-18-5-5-9-13-11-21-4-10-10-21-16-27-3-3-12-10-20-15-17-11-23-17-23-22 0-2 1-7 2-11 2-4 3-9 3-12 0-6-4-24-8-40-2-7-5-18-6-25-4-24-8-41-15-65-4-12-7-18-14-28-8-12-12-15-31-25-14-7-16-8-37-7-21 0-30 1-49 6-14 4-21 8-30 17-6 6-9 9-12 16-2 5-4 11-5 14-2 7-1 18 2 30 3 14 3 20-1 31-2 6-4 12-4 14s2 9 4 16c2 6 5 17 6 24 1 8 2 15 3 16 0 1 2 5 5 8s5 5 5 6-1 4-3 7l-3 6-27 13c-15 8-29 15-31 17-16 11-24 21-40 52-4 8-4 9-4 17 0 11 1 16 10 28 4 7 6 8 9 9 2 1 5 2 5 3 3 2 3 3-6 30-2 5-4 11-4 13 0 4-2 10-5 13-2 2-2 2-1 3 4 3 19 4 94 5 42 0 107 0 146 1 87 1 138 0 157-1z"/></svg>