<svg xmlns="http://www.w3.org/2000/svg" width="1344" height="566"><path d="M0 283V0h1344v566H0V283m761 278c2-1 6-1 19 0 17 0 38 1 49 0h143c88 1 120 0 125-1 4-1 5-3 5-10s-1-12-10-42c-4-14-8-28-9-31 0-3-2-10-4-15-2-6-4-15-5-20-2-6-4-14-5-18-2-4-4-9-4-11-5-16-17-42-22-49-8-8-17-13-55-26-9-3-18-7-20-8-15-4-29-8-33-9-5 0-15-4-20-6-5-3-19-15-33-28-7-8-17-17-22-21-13-11-13-10-12-34v-20l3-6 7-14c10-18 11-38 3-63-2-6-6-19-9-29-13-42-25-64-44-85-6-6-11-9-20-10-10-2-129-2-147 0-20 1-23 4-39 27-10 14-14 23-18 35-5 14-5 19-3 48s4 36 12 66c2 5 4 15 5 22 5 22 7 27 26 64 6 11 12 22 13 24 1 4 9 19 15 29 7 12 6 16-2 25-6 7-16 14-31 23-8 4-18 11-24 14-6 4-13 9-16 11s-6 4-7 5-1 5-1 8c0 8-3 25-6 36-4 14-10 36-11 45-3 15-7 22-20 38-8 11-14 20-14 22s5 6 8 7 13 1 24 1c10 0 25 1 32 2 21 2 26 2 61 3 17 1 38 2 45 2 20 1 68 0 71-1z"/></svg>