<svg xmlns="http://www.w3.org/2000/svg" width="1344" height="566"><path d="M0 283V0h1344v566H0V283m558 276c113 0 127 0 246 1h104l10-3c8-3 11-3 19-3s10 0 14 2 5 2 28 2h23l6-2c4-2 9-5 12-7 6-4 35-31 37-35 1-2 2-5 2-7 0-6-4-14-7-18-2-1-4-5-6-8-1-3-3-5-4-5-4-2-11 4-15 13-2 3-3 6-4 6s-6-4-11-10c-12-12-13-13-22-5-3 3-7 5-9 6-5 2-9 7-9 11s-3 7-6 7c-1 0-5 1-9 3-9 3-16 3-29-3s-13-6-13-13c1-7 1-6-7-18-3-5-7-7-14-7-9 0-27 7-46 18-29 16-46 23-63 25-7 1-9-1-15-13-5-10-13-24-28-51-9-15-24-42-30-51-2-4-5-11-8-16-6-9-6-12-2-17 1-2 4-6 6-9 4-5 6-7 11-10 3-2 8-6 12-9 3-4 7-7 9-9 3-2 6-5 8-7s5-5 8-7c11-8 13-10 17-31 2-11 4-18 6-22 5-10 13-28 17-41 5-14 18-40 25-49 5-6 8-13 8-15 0-1-5-7-12-14-6-6-14-15-18-21-9-13-29-32-45-43-13-8-36-18-51-22-20-5-41-4-63 2-16 5-43 23-50 33-1 2-5 6-8 10-7 9-15 22-20 33-6 14-18 32-25 38-8 7-17 11-38 17-10 3-20 6-21 7-8 3-14 10-23 21-11 13-13 16-16 26 0 3-3 12-6 19-5 16-6 25-4 31 2 4 4 7 12 13 13 12 14 15 5 32l-7 14c-7 11-15 28-22 48-4 11-10 25-13 31-10 24-11 33-4 55 1 5 1 9 1 26 0 22-1 28-4 29-2 0-14-8-30-19-5-4-12-9-14-10-3-2-8-6-12-9s-13-8-19-11l-12-6-20-20c-18-18-20-20-20-23 0-2 2-10 4-17 3-7 7-19 9-26 3-13 3-14 3-26-1-16-3-26-6-35-2-6-3-8-8-12-4-3-7-8-8-10-2-4-2-4 0-11 4-10 5-21 3-35-1-12-4-17-8-20-8-5-14-1-27 18-10 15-9 13-10 27 0 10-1 13-2 14-2 2-11 5-21 6-7 0-8 1-13 5-8 7-12 12-17 21-5 11-7 17-9 38-3 26-6 45-7 48-1 2-5 7-9 11l-7 7h-11c-8-1-11-1-13 1-3 1-5 1-9 0-8-2-14-1-16 1s-4 8-4 12c0 2 1 4 6 9 13 15 15 20 16 31 0 9 1 10 9 14 4 2 8 4 12 8 3 4 7 8 9 9 3 2 8 6 13 10 4 3 9 7 11 8 8 4 21 7 42 9 19 2 26 2 80 3 101 0 133 1 156 2 12 0 22 1 24 1 1 1 4 1 8 0 4 0 43 0 88-1z"/></svg>