<svg xmlns="http://www.w3.org/2000/svg" width="1344" height="566"><path d="M0 283V0h1344v566H0V283m511 78c2-1 6-2 9-3 3 0 9-2 14-4l9-3 16 1c31 2 39 3 46 4 5 2 16 2 37 3 15 0 35 1 43 2 14 1 15 1 21-1 11-4 14-4 19-3s7 1 15-1c6-1 13-2 16-2 12-2 27-4 32-5 3-1 8-2 11-3 3 0 8-1 10-2 4-1 8-1 21-1 14 1 16 1 17-1 1-1 1-4 0-16-2-26-2-28 3-37 2-5 4-9 4-10 0-2 4-6 8-7 2-1 9-1 17-1 17 0 16 1 17-20 1-20-1-90-2-96-1-2-2-9-3-15-2-15-6-34-11-46-5-15-13-25-28-34-8-6-18-10-25-12-11-3-36 1-54 8-16 6-29 21-34 42-2 7-2 11-2 30 0 13 0 26-1 32-1 11-1 18 1 38 2 12 2 16 1 28 0 8-2 15-2 17l-2 3-40-1h-40l-8 4c-8 4-18 9-24 11-1 0-5 2-8 5-2 3-7 5-9 6s-4 2-5 3c-3 1-12 1-18-1-8-3-20 0-28 7-3 3-8 6-11 8-5 2-7 2-22 3-21 1-24 3-16 9l3 3-2 7c-1 3-2 8-3 10 0 3-1 7-3 11s-4 10-4 13c-1 4-3 8-3 10-2 4-2 6-1 8 2 2 14 1 19-1z"/></svg>