<svg xmlns="http://www.w3.org/2000/svg" width="1344" height="566"><path d="M0 283V0h1344v566H0V283m716 277c7-1 178-3 222-2 16 1 59 1 95 1 64 1 65 1 67-1 3-3 2-8-1-18-1-3-3-10-5-14-5-18-10-31-20-46-19-32-36-51-60-67-12-9-22-14-44-24-23-11-42-21-56-30-13-8-35-20-44-24-11-5-19-8-30-9-16-3-16-3-19-5-5-3-8-15-8-30 0-8 1-11 10-26s15-37 16-57c0-14-1-21-5-27-10-13-11-16-14-39-2-18-6-36-9-44-5-13-19-30-32-39-14-9-35-17-55-22-10-2-12-2-28-2-19 1-28 2-45 8-35 10-67 40-80 73-7 19-8 43-4 67 1 7 3 16 4 21 0 5 2 13 3 20 1 6 3 19 4 29 4 41 6 47 16 66 5 9 10 18 13 21 8 11 13 21 14 28v7l-5 6c-6 7-37 35-50 45-5 4-16 12-24 17-8 6-20 14-26 19-14 10-28 19-38 25-5 2-10 5-11 6s-3 2-5 2c-5 0-4-6 7-24 9-16 18-32 19-37 0-2 2-7 4-11 2-5 5-13 7-19 3-7 6-13 10-19 5-8 5-9 5-13-1-4-2-8-9-17-4-6-9-15-11-20s-5-11-7-15c-1-4-3-8-3-10 0-4 4-12 7-17 6-7 13-21 14-25 0-5-1-7-4-7-4 0-13 6-29 19-8 7-18 16-23 20-10 8-12 10-15 20-3 7-6 10-18 19-9 7-17 15-18 20-1 3-1 8 0 15 0 14-3 60-5 64-2 5-5 0-11-16-6-21-22-47-36-64-7-8-19-18-29-25-15-11-42-25-67-35-20-7-34-13-45-19-10-5-21-12-21-15 0-2 4-4 15-5 20-3 27-9 34-26 2-5 5-12 6-15 1-2 6-15 10-27 6-21 7-22 11-27 8-8 9-15 5-33-5-24-5-36 0-44 3-4 6-23 6-31-1-5-2-10-6-21-10-25-12-28-20-30C240 4 8 4 4 5L1 6v547l4 3 3 4h17c9-1 38-2 65-2 27-1 54-1 60-2 15-1 75-1 80 0h94c40 2 33 2 76 1 24-1 38-1 43 0 13 2 56 3 119 4 93 1 146 1 154-1z"/></svg>