<svg xmlns="http://www.w3.org/2000/svg" width="1344" height="566"><path d="M0 283V0h1344v566H0V283m588 276c18 0 42 0 52-1 30-1 176-1 196 0 26 1 152 3 202 2 39 0 42 0 44-2 5-4-1-18-17-37-5-6-12-14-14-17-7-9-18-20-42-38-7-5-18-15-24-21-17-16-32-28-68-54-14-10-14-10-34-11h-18l-6-4c-11-5-15-10-20-19-2-5-5-12-6-17-2-7-2-10-2-22 1-12 1-14 5-24 2-6 5-13 6-14 6-7 14-21 20-32 9-17 11-31 7-48-1-7-1-9 0-18 4-31 4-41 1-56-6-24-17-42-38-56-30-20-53-26-92-25-27 1-40 5-57 15-18 11-31 25-40 41-5 11-7 19-7 37-1 7-2 22-4 34-2 11-3 25-3 30-1 5-2 13-3 18-2 13-2 28-1 37 2 20 8 45 11 55 2 3 4 8 4 10 3 8 10 23 14 28 1 3 6 8 10 11 7 7 9 11 8 17-1 9-3 11-14 17-5 4-12 8-15 9-3 2-8 5-12 7-18 9-62 43-82 63-24 25-48 64-48 77 0 9 3 10 32 9 12 0 36 0 55-1z"/></svg>