<svg xmlns="http://www.w3.org/2000/svg" width="1344" height="566"><path d="M0 283V0h1344v566H0V283m288 276c7 0 16 0 21-1 10 0 8 0 43 1 38 1 176 1 196 0 11-1 24-1 38 0 16 1 148 2 158 1 1 0 2-1 3-3 1-3 1-5-1-19-5-35-16-68-31-95l-5-10v-9c0-9 0-10-3-12-3-3-32-15-53-22-30-11-44-16-48-20-2-2-3-4-3-7 0-5 2-17 8-38 6-25 8-35 9-59 1-18 0-29-1-38-1-1-1-10-2-20s-2-22-3-28c-1-7-3-17-4-24-3-16-8-40-10-47-3-7-11-21-17-30-5-8-20-23-29-30-15-10-35-19-54-22-10-2-29-1-36 2-3 1-10 2-15 3-28 3-47 15-65 40-9 13-14 24-21 49-6 24-16 74-19 107-9 77-11 110-7 131 1 11 1 11-1 14-3 6-11 10-34 17-14 5-21 8-33 17-15 11-28 19-42 26-7 5-13 9-16 12-5 5-5 5-7 13-1 5-3 13-7 21-3 7-6 19-8 25-2 7-3 14-4 16-1 5-3 20-3 28 0 5 0 7 2 9s2 3 21 3c22 1 65 0 83-1z"/></svg>