<svg xmlns="http://www.w3.org/2000/svg" width="1344" height="566"><path d="M0 283V0h1344v566H0V283m820 277c16-1 42-2 58-2 16-1 39-1 51-2 12 0 33 0 47-1 30-1 129 0 163 1 15 1 33 1 42 1h15l3-2c3-4 2-7-1-19-4-13-27-55-37-68-7-8-19-20-33-30-19-15-27-19-70-30-69-18-111-30-119-35-6-3-7-7-7-21 0-16 2-34 5-39 2-4 4-5 11-9 5-3 11-7 14-9 19-16 34-52 31-74-2-10-5-16-14-20-2-1-5-3-5-4-3-4-3-12-2-25 6-44 5-89 0-125-3-17-5-22-11-29-5-7-11-10-26-12-11-1-24-2-131-2-126 0-125 0-134 5-13 7-29 51-34 93-2 19-2 21-1 50 0 17 1 36 0 42-1 20 1 27 14 79 8 31 8 31 15 52 11 28 12 32 8 36-1 1-8 5-15 8-14 7-18 10-22 18-2 4-7 11-11 17s-8 13-10 16c-6 11-19 30-26 38-7 9-12 13-27 23-5 4-12 9-15 11-5 5-9 9-27 23-3 3-14 10-23 17-31 22-32 23-28 26l2 2 112 1c150 1 203 0 238-1z"/></svg>