<svg xmlns="http://www.w3.org/2000/svg" width="1344" height="566"><path d="M0 283V0h1344v566H0V283m874 276c17-3 21-7 24-24 2-14-1-43-6-65-3-11-5-16-11-22-11-13-24-23-80-58-12-7-15-11-21-21-2-5-6-11-8-14-5-8-11-21-11-25 0-2 1-6 2-9 2-8 12-41 16-48 1-3 3-8 3-12 1-3 4-9 6-13s4-9 4-12c1-5 2-25 4-65 0-18-1-34-6-51-8-34-21-56-40-70-8-7-26-17-36-22-10-4-6-4-54-3-27 1-33 2-47 7-27 10-54 46-62 78-2 10-2 29 1 50 2 21 3 27 0 37-4 14-2 30 3 42 6 13 15 21 30 26 11 4 13 6 16 18 2 12 0 17-12 30-7 9-27 27-34 31-11 7-23 12-61 23-55 16-63 19-71 27-6 6-13 18-19 30-7 16-28 65-36 83-2 6-6 15-8 19-11 27-11 28-8 32l3 2h57c32 0 65 1 74 1h198c163 0 181 0 190-2z"/></svg>