<svg xmlns="http://www.w3.org/2000/svg" width="1344" height="566"><path d="M0 283V0h1344v566H0V283m736 187c4-1 11-1 16-2 5 0 10 0 12-1s8-2 12-3c5-2 12-3 16-4 11-2 23-5 48-12 10-3 14-3 26-4 8 0 18 0 23 1 10 1 17 0 19-2 1-2 0-21-2-37-2-17-3-27-4-49v-19l-4-8c-3-5-6-10-7-11-2-1-7-3-11-5-11-4-14-5-18-10-5-5-13-10-15-10-1 0-3-1-5-1-2-1-4-2-5-2-4-2 0-3 10-4 15-1 15-1 13-15-1-6-2-14-2-18 0-7-3-21-8-41-2-7-4-13-4-14s-3-10-7-27c-2-6-5-14-6-18-9-34-9-33-16-48-13-28-26-40-60-58-14-8-21-11-33-12-8 0-10 0-20 3-6 2-18 5-26 7-24 5-32 11-44 28-9 15-13 27-17 52-1 6-2 14-3 18 0 3-1 8-2 12 0 4-1 10-2 14-1 12-2 83 0 105 1 8 1 17 1 18-2 6-17 7-37 4-22-3-30-2-39 8-2 3-7 7-11 10-12 8-22 14-28 19-4 2-12 8-18 11-6 4-14 10-18 13-10 9-14 11-25 11-7 0-9 0-12 2-3 3-3 3-3 9s0 7-9 27c-9 23-11 28-11 32 0 2-1 6-2 10l-1 7 2 3c3 3 6 3 13 0 8-3 21-5 35-6 7 0 21 0 33-1 10-1 24-1 28-1 31-2 30-2 36 0 7 2 20 4 39 6 6 1 13 2 15 2 3 1 10 1 17 2 11 0 12 0 17-2 5-3 6-3 18-3 6 0 15 1 19 1 4 1 11 2 15 3 12 1 24 4 29 8 4 4 4 4 23 2z"/></svg>