<svg xmlns="http://www.w3.org/2000/svg" width="1344" height="566"><path d="M0 283V0h1344v566H0V283m737 164c4-1 12-2 18-3 6 0 13-2 15-2 3-1 7-2 11-3 3 0 7-1 8-2 1 0 4-1 6-1 2-1 8-2 13-4 5-1 11-3 14-4 4-1 9-2 12-3 4-1 11-2 22-2 14 0 18 0 27 2l11 2 2-2c2-2 2-2 1-14 0-7-2-18-3-25-2-7-4-21-5-30 0-10-2-20-2-22-2-5-8-9-19-13-14-5-13-2-14-43 0-38-1-46-7-77-1-7-3-18-4-25-2-12-3-16-6-24-1-4-3-11-5-16-6-19-10-30-16-43-6-12-7-14-16-24-6-6-13-12-15-13-2-2-7-6-11-9s-8-5-8-5c-1 0-5-1-9-3s-11-4-16-4c-8-2-10-2-18 0-5 0-12 2-15 3-4 1-12 3-19 4-19 3-30 10-40 24-11 17-17 35-21 68-2 10-4 23-5 28 0 6-1 20-2 32-1 11-1 26-2 34v22c1 11 1 19-1 22-2 2-6 4-14 6-3 0-10 2-14 3s-13 1-24 1c-20 1-23 2-32 9s-23 23-26 29c-4 6-9 11-20 17-9 6-15 10-25 19-8 6-14 8-21 8-6-1-12 1-15 5-2 2-15 28-19 40-3 5-6 14-8 19-6 12-6 14-3 17 3 1 4 1 11 0 5-1 15-2 24-2 10 0 15-1 18-2 1-1 5-2 8-2 14-2 39-8 57-14 6-2 10-1 23 2 6 2 15 4 20 5 4 1 9 2 12 3 2 0 8 1 14 2 5 0 12 1 15 1 3 1 8 1 16 0 9-2 17-2 32-2 29 1 51 4 62 10 4 2 17 3 28 1z"/></svg>