<svg xmlns="http://www.w3.org/2000/svg" width="1344" height="566"><path d="M0 283V0h1344v566H0V283m606 277c20-1 32-1 52 0 14 1 42 1 63 1h73c20 0 55 0 78-1 42-2 110-2 170 0h38c5-2 7-4 6-9-1-7-3-11-10-19-11-11-27-24-50-37-13-9-57-32-62-33-8-3-15-7-22-13-7-7-18-20-20-24-2-3-1-9 3-23 4-16 17-54 23-66 1-3 4-10 6-15 4-13 10-25 14-30 3-3 6-4 12-7 16-6 27-18 39-42 6-11 8-19 9-29 0-8 0-10-2-13s-7-7-13-10c-3-2-3-2-3-8 0-3 1-9 2-15 4-13 7-30 10-53 5-42 4-66-6-90-4-9-7-14-12-16-9-4-21-4-118-4-119 0-144 1-149 6-3 3-9 16-13 25-7 18-11 38-14 71-1 8-3 18-4 22-2 6-3 7-11 15-10 10-12 14-14 25-3 14 1 38 8 53 4 9 12 20 18 25 8 7 10 14 10 38s-3 49-7 60c-3 9-11 23-15 27-2 2-5 4-6 5-2 1-11 1-24 0-24-1-28 0-32 3-3 3-16 20-24 31-3 4-9 12-14 17-7 8-9 9-20 15-6 3-14 8-17 9-21 14-42 27-62 37-22 12-40 25-54 39-15 16-22 25-20 28 1 4 8 5 37 6 25 1 114 0 147-1z"/></svg>