<svg xmlns="http://www.w3.org/2000/svg" width="1344" height="566"><path d="M0 283V0h1344v566H0V283m776 199c13-4 18-5 24-7 7-1 20-4 34-8 5-2 10-3 12-3 2-1 6-2 8-3 6-2 40-2 53-1 8 1 8 1 11-1l2-3v-13c-1-7-2-17-3-23-2-14-5-51-5-59 1-6 1-7-1-9-4-6-14-11-33-17-6-2-15-7-16-9-1-1-1-4-1-6 0-5-3-8-11-13-4-2-8-4-9-5-2-3 0-6 5-9 3 0 5-2 5-3 2-5-5-58-11-88-1-4-2-11-3-14 0-3-2-9-3-14-1-4-3-10-3-14-7-28-19-56-30-69-6-8-20-22-25-26-7-5-27-16-35-19-4-2-11-3-17-4-9-1-11-1-17 1-4 0-10 3-14 5-5 2-8 3-17 4-18 2-25 5-36 16-15 17-22 34-29 69-2 7-4 16-4 19-7 30-9 75-7 127 1 20 1 22 0 23s-3 2-4 2c-6-2-35-3-41-2-8 0-10 2-27 19-7 8-17 16-21 20-5 3-10 7-12 9-3 1-10 6-18 11-7 4-16 10-19 13-8 7-14 9-24 10-4 0-8 1-9 1-3 1-8 9-10 15-1 2-4 10-7 17-8 15-11 26-13 35-1 3-2 8-4 11-3 5-3 6 0 8 3 3 9 2 15 0 3-1 7-3 9-4 2 0 8-1 13-2s13-2 18-3 12-1 27-1c16 0 21 0 24-2 3-1 7-2 11-2 3 0 7-1 9-2 4-2 17-1 22 2 2 1 6 3 10 3 27 8 52 10 87 8 16-1 24-1 36 0 8 1 16 1 16 2 1 0 6 1 11 1 9 2 12 3 18 5 7 4 8 4 15 4 4-1 10-1 13 0 8 1 21 0 31-2z"/></svg>