<svg xmlns="http://www.w3.org/2000/svg" width="1344" height="566"><path d="M0 283V0h1344v566H0V283m927 275c1-1 1-4 1-12-1-10-1-11 1-13 3-3 8-4 23-5 13 0 25-2 30-5 3-1 4-4 4-10 1-3 3-9 4-13 5-10 7-22 7-35 0-9 0-12-3-21-2-5-4-11-5-12-3-6-21-32-24-34-1-2-3-5-4-7-1-4-10-40-15-68-3-12-7-32-10-43-5-27-9-45-10-60-1-6-1-13-2-16-2-9 0-12 14-22 11-6 20-15 30-28 8-10 11-17 16-32 3-8 4-11 4-20s-1-10-4-17c-8-17-15-22-32-25-5 0-11-1-14-1-7 0-19 4-27 8-6 3-8 4-12 10-3 4-7 12-10 17-6 14-12 21-21 31-9 9-9 9-26 9-11 0-12 0-14 2-1 1-2 3-2 5 0 4-3 8-11 14-17 13-42 40-52 57-5 9-6 13-10 38-2 12-4 29-6 39-7 44-14 109-16 150-1 16-2 34-3 39-1 13 0 15 9 20 4 2 9 4 11 6s5 4 8 5c5 2 11 9 14 15 1 2 4 9 5 14 4 13 7 19 10 20 1 1 5 1 7 1h73c44 0 61 0 62-1z"/></svg>