<svg xmlns="http://www.w3.org/2000/svg" width="1344" height="566"><path d="M0 283V0h1344v566H0V283m262 278c15-1 28-1 30-2s5-1 8 0 62 1 197 1c182 0 192 0 199-1 9-2 12-4 14-8 1-4 3-23 5-46 1-12 1-14-1-20-5-18-10-30-13-38-4-8-4-9-4-19-1-6-1-11-2-13s-6-5-15-9c-4-2-11-4-16-6l-18-9c-17-7-52-21-58-23-10-4-26-12-28-14-1-3-1-5-1-15 1-14 4-29 9-43 8-23 11-44 9-62-7-60-31-132-53-161-5-6-17-17-32-28-25-20-53-28-84-25-16 2-18 3-31 11-6 4-16 10-22 13-12 6-18 11-27 22-25 32-36 94-40 230 0 27 1 39 5 58 2 13 3 23 1 26-1 2-13 8-24 12-5 2-14 8-32 21-16 11-22 15-32 20-17 9-20 12-20 24 0 5-1 10-4 20-9 29-14 55-16 69 0 6 0 8 1 11 1 2 2 3 2 3 1 1 55 2 61 1h32z"/></svg>