<svg xmlns="http://www.w3.org/2000/svg" width="1344" height="566"><path d="M0 283V0h1344v566H0V283m976 276c5-5 6-19 3-57-2-24-2-43 0-50 1-2 2-11 2-21 1-10 2-24 4-31 3-22 4-45 3-88-1-39-2-46-9-67-5-16-7-19-20-31-11-11-14-14-14-17 0-1 5-7 11-13 17-17 22-24 28-41 8-22 9-38 5-50-3-6-5-8-10-13-11-10-16-13-35-14-8-1-23 1-30 5-8 4-15 10-19 15-1 3-4 9-6 15-9 22-19 38-27 42-1 0-5 1-8 1-4 0-8 1-15 4-5 3-14 6-20 7-5 2-11 4-13 5-3 0-9 2-15 4-7 2-14 4-18 6-16 7-32 22-39 36-6 12-8 18-11 44-1 9-3 21-5 28-2 12-6 44-7 60-1 9-6 39-7 40 0 1-1 8-2 17 0 8-2 27-4 40s-5 30-6 37c-1 13-3 44-2 48 1 5 7 10 14 14 5 2 9 5 16 13 4 5 10 10 12 11s22 1 109 1c58 0 108 1 110 1s9 1 14 1c8 0 9 0 11-2z"/></svg>