<svg xmlns="http://www.w3.org/2000/svg" width="1344" height="566"><path d="M0 283V0h1344v566H0V283m552 278c14-3 22-9 22-17 0-3-4-10-6-10-1 0-3-2-6-5-7-6-12-8-26-8-6-1-10-2-12-3-3-2-4-8-4-18 1-9 3-17 9-32 2-6 2-8 2-20 0-10 0-15-1-19-1-3-2-7-2-9s-1-5-2-7-2-6-2-8c-2-9-10-31-14-36-3-4-18-16-26-22-13-8-14-10-14-14 0-2 1-4 2-5 5-4 10-10 11-12 0-3 5-11 7-14 2-1 5-3 7-5 5-2 10-7 10-10 1-2 2-6 2-11 1-4 2-12 3-18 0-10 0-12-1-15s-2-10-3-17c-1-18-4-32-6-39-3-8-10-14-21-19-22-11-43-14-63-9-9 2-24 11-30 18s-8 12-11 24c-2 9-2 14-2 39-1 16-1 33-2 38 0 5-1 18-1 28-1 26-3 40-5 46-1 2-5 8-8 13-7 12-15 28-15 32 0 1-1 5-2 7-5 16-7 25-8 38-1 12-4 33-6 35 0 1-1 8-2 17-1 12-1 18 0 26 1 13 4 28 7 33 4 8-2 7 97 8 48 1 88 1 89 1 1 2 27 1 33-1m260-1c49-2 42-1 94-1 35 1 41 1 46-1 4-1 7-1 11-1 6 1 9 0 11-3 1-2 5-36 7-50 1-17 5-50 9-71 6-30 10-78 7-96-2-16-13-41-29-66-15-25-19-30-25-37-16-18-20-23-22-34-4-12-5-13-14-13-6 0-7 0-11-3-6-4-10-10-13-18-2-9-1-24 5-44 1-4 3-13 4-20 3-15 2-22-3-37-10-27-15-33-33-42-5-2-6-3-20-3-19 0-31 3-53 14-7 3-10 5-15 10-9 10-11 14-11 30-1 7-1 14-2 16-1 3-4 20-5 33-1 5-2 13-2 16-3 8-2 12 1 17 1 2 5 9 7 14 6 12 12 23 15 27s10 7 20 9 14 6 14 13c0 6-3 11-15 23-8 10-10 14-13 26-1 5-3 10-4 12-1 3-6 15-12 30-7 18-15 48-23 92-1 6-3 14-4 19s-3 16-5 25-5 24-8 34c-2 11-4 21-5 29-1 7-1 13-1 13-1 0-1 8-1 18 0 15 0 17 1 19 4 3 12 3 97 1m521 0c3-1 6-2 7-3 1 0 2-4 2-9 1-5 1-116 1-247 0-225 0-238-2-240-1-2-2-2-7-1-6 2-29 14-36 19-3 2-9 13-12 22-1 5-1 8 0 13 0 4 0 16 1 26 0 24 2 46 6 59 3 11 11 29 15 35 5 8 8 11 16 15 8 5 11 8 10 11-1 5-12 17-23 28-19 16-24 25-29 50-4 20-9 35-14 52l-5 13v17c0 28-2 64-3 70-3 10-28 40-38 45-4 2-6 2-10 1-8-5-27-11-32-11-4 0-5 0-7 3-2 2-3 4-3 5 0 0 2 3 5 6 6 7 7 10 5 15-1 6 0 7 9 7 16 1 139 0 144-1z"/></svg>