<svg xmlns="http://www.w3.org/2000/svg" width="1344" height="566"><path d="M0 283V0h1344v566H0V283m923 277c4-1 20-1 35-1 32-1 32-1 31-10-1-6-10-36-17-52-2-5-7-16-10-25-3-8-8-20-12-27-3-7-8-19-11-27-9-22-9-28 1-40 4-6 6-10 9-19 2-5 2-8 2-11-1-5-5-14-10-23-2-3-5-10-7-17-5-14-17-38-27-53-11-16-13-21-17-33-2-11-3-27-1-44 2-19 2-33 1-44-1-6-2-15-2-21-1-10-1-12-5-22-6-12-12-24-16-31-2-3-5-8-7-10-3-7-17-21-28-30-9-8-18-12-28-13-13-2-98-2-108 0-4 1-15 4-25 8-9 3-20 7-22 7-7 2-22 11-30 17-3 3-9 9-13 14s-10 12-13 16c-23 24-30 49-25 90 3 30 9 46 17 53 3 2 7 6 9 8 3 3 6 6 7 9 3 4 7 23 7 28 0 4 11 36 18 53 2 6 5 14 6 16 2 6 6 15 12 31 9 22 18 30 37 33 6 1 7 1 19-1 26-6 29-6 35 7 4 8 5 14 3 17 0 1-10 13-23 27-26 28-29 33-28 43 1 6 0 4 22 48 11 22 14 25 25 27s102 3 189 2z"/></svg>