<svg xmlns="http://www.w3.org/2000/svg" width="1344" height="566"><path d="M0 283V0h1344v566H0V283m714 15c6-2 11-5 11-5 1-1 1-5 1-21 0-2 0-3-3-3-5-1-4-5 2-10 14-10 20-18 20-28 0-4 0-5 4-9 3-2 7-5 10-7 5-3 7-6 7-11 0-4-7-21-13-31l-6-12c-2-2-4-7-6-11-10-17-18-23-34-25-9-1-15-3-18-6 0-1-1-7-2-13-1-17-2-18-10-26-6-6-7-7-11-8-7 0-12 1-17 6-5 4-7 8-7 15 0 6 2 13 8 27 2 4 3 10 4 16 1 8 1 8-1 13-2 3-5 8-8 11-8 9-11 15-12 24-1 5-2 9-3 11 0 2-2 7-3 11 0 5-2 13-3 18-2 11-3 19-1 23s8 8 10 8c3 0 5 2 8 7 2 2 4 6 6 8 2 3 2 4 2 8-1 3-1 4 1 7 3 3 5 4 14 6 3 1 8 3 10 5 6 4 9 5 20 5 9 0 11 0 20-3z"/></svg>