<svg xmlns="http://www.w3.org/2000/svg" width="1344" height="566"><path d="M0 283V0h1344v566H0V283m380 277c6-1 113-1 319 0h447c24 1 89-2 96-4 2 0 4-2 5-3 3-3 2-9 0-14s-13-15-23-21c-8-6-11-10-16-20-4-8-11-25-14-39-2-5-4-12-4-15-1-2-2-6-3-8-1-8-6-15-13-17-3-1-10-3-16-4-7-1-12-3-14-4-3-2-10-14-12-20 0-3-4-11-7-17-7-17-13-31-17-42-1-5-6-18-9-30-10-27-15-45-21-70-13-52-20-68-31-68-5 0-8 3-11 10-1 7-3 8-6 5-1-1-6-10-11-19-11-21-13-25-17-28-6-5-12-3-17 5-2 3-4 5-5 5s-4-3-7-6l-8-8c-7-4-15-1-17 6-1 2-1 7-1 12 0 9-1 11-4 11-1 0-2-1-3-1-2-3-9-4-12-3-3 2-6 7-7 13 0 6 2 37 3 39 1 0 1 4 2 8 1 8 6 30 10 43 2 5 4 15 4 21 2 13 3 17 7 26 6 11 40 59 59 83 12 15 21 28 28 38 7 11 17 32 20 41 2 4 5 12 7 17 5 11 6 18 4 20-3 3-11 0-31-13-7-5-16-10-20-12-10-5-23-14-27-19-3-3-9-14-20-36-4-10-11-18-27-30-22-19-34-26-45-29-6-1-56-1-73 1-12 1-30 1-34 0-2-1-4-2-5-4-4-9 3-51 11-56 5-4 8-10 10-26 2-8 4-16 4-18 1-3 2-7 2-10 0-7-4-23-7-32-2-4-5-13-7-19-1-6-6-17-9-25-3-7-8-17-9-21-9-21-14-33-18-40-2-3-6-11-10-17-14-26-23-38-34-49-20-21-44-35-66-39-19-3-81-2-107 2-23 4-29 6-41 13-16 8-22 13-33 24-10 10-17 20-26 37-13 26-18 42-18 61l-1 12 5 7c7 11 7 14 7 32-1 8-2 19-3 26-2 13-1 20 3 29 6 15 7 18 7 35 0 32 4 41 33 74 11 13 12 16 12 28 0 6 0 11-1 14-3 8-9 20-13 25-7 7-20 16-29 19-4 2-9 4-11 4-8 4-9 2-10-19-2-25-2-28-10-47-9-20-12-24-20-24-5 0-9 3-12 10-2 4-3 5-3 38-1 34-1 36-4 35-8-3-20-53-24-100-1-24-5-46-7-54-4-12-15-16-20-7-1 4-4 18-5 36s-5 40-6 41-1 0-3-3c-2-5-11-36-14-46-7-28-13-38-23-41-5-2-9 1-12 6-1 3-1 5 0 18 1 8 1 17 2 20 0 2 1 10 2 17 1 6 2 15 2 19 2 11 3 26 2 26-1 1-6-8-11-21-1-2-2-6-3-8-1-3-4-10-6-15-4-13-5-15-9-19-8-6-16-6-20 1-3 6-3 13 4 43 2 8 4 16 5 18 0 5 5 21 7 28 2 5 2 12 0 12-1 0-5-4-10-10-15-19-19-23-24-26-5-2-11-3-14-1-2 1-4 6-4 10 0 9 11 32 24 53 5 7 12 17 14 21 3 5 11 16 18 25 7 10 17 25 24 34 19 30 25 36 32 39 1 0 7 1 12 2 10 1 64 0 72-1z"/></svg>