<svg xmlns="http://www.w3.org/2000/svg" width="1344" height="566"><path d="M0 283V0h1344v566H0V283m884 275c5-1 7-4 8-11 1-3 1-20 2-38 1-30 1-33-1-46-1-8-4-18-6-26-2-6-5-16-6-21-6-26-11-44-15-54-3-10-5-17-7-26-1-6-3-13-4-16s-4-10-6-16c-7-23-18-42-32-58-10-11-18-17-27-21s-11-6-15-12c-4-8-5-18-3-33 1-7 2-15 3-18 0-6-1-21-4-29-4-14-16-29-29-35-9-5-17-6-29-6-8 1-11 1-17 4-3 2-10 4-13 5-10 3-14 5-24 14-12 12-20 23-23 32-2 6-2 9-2 22 1 14 1 15 3 18 6 7 7 11 8 20 1 13 1 13-3 20-4 6-7 14-11 25-1 4-6 16-10 26-5 9-10 20-11 24-4 8-10 18-27 40-2 4-16 18-29 31-24 24-26 25-38 33-8 5-15 9-17 10-3 1-8 1-26 0l-23-1-4 2c-3 2-8 3-10 3-8 2-22 6-24 7-6 4-7 13-2 25 6 15 12 18 34 20 13 1 17 1 34-3 5-2 13-4 18-5 4 0 10-2 12-2 8-2 22-2 26 0 1 1 6 6 10 11 9 12 12 14 20 18 15 8 18 9 32 9 10 1 15 1 20 3 8 2 22 10 24 12 0 2 1 5 1 8v5l11 12c7 8 12 13 15 14 6 3 35 4 95 4 26 1 48 1 49 1 0 1 69 0 73-1z"/></svg>