<svg xmlns="http://www.w3.org/2000/svg" width="1344" height="566"><path d="M0 283V0h1344v566H0V283m892 278c3-1 11-1 17-1 14 0 133 1 161 1 30 1 114-2 121-4 5-2 8-4 8-8 0-19-19-72-34-93-13-20-16-24-24-29-15-10-27-15-47-20-66-18-83-23-93-30-2-1-7-4-10-7-11-9-18-14-25-17-6-3-7-3-14-3-15 2-16 2-20-2-7-7-13-21-13-31 0-5 3-11 9-17 12-14 20-25 22-36 3-9 2-19 0-27-3-11-3-17 4-41 7-21 10-41 10-62 0-14-2-23-5-33-2-4-3-9-3-14-1-12-3-15-10-23-4-4-7-7-9-14-6-13-13-22-21-28-2-2-14-5-23-6-4 0-11-2-15-4-8-3-9-3-30-4-22 0-23 0-34 3-13 3-17 4-23 8-2 2-7 4-11 4-23 6-50 20-64 33-19 19-28 38-28 64 0 4-1 12-3 18-9 45-9 49-9 84 2 57 2 59 22 106 9 24 11 30 14 39 7 24 12 36 20 48 2 3 4 6 4 7 0 4-20 19-38 30-4 2-10 5-12 7-3 1-15 9-28 16-52 31-53 33-59 46-3 7-7 13-10 13-1 0-3 4-5 11-3 10-3 12 1 14s23 2 47 0c19-1 33-1 37 1s24 3 127 2c62 0 92 0 96-1z"/></svg>