<svg xmlns="http://www.w3.org/2000/svg" width="1344" height="566"><path d="M0 283V0h1344v566H0V283m554 276h129c137 1 294 0 305-2 9-1 13-3 17-8 7-8 7-11 7-26-1-8-2-17-2-20-1-3-2-7-2-8 0-2-1-6-3-10s-3-9-3-11c0-3-1-7-3-11s-5-9-7-13c-4-7-7-10-19-16-10-5-14-9-43-36-13-12-20-18-26-22-21-12-35-22-48-38-6-7-18-22-21-29-2-3-10-29-12-38s-2-10-1-22c2-19 2-21-2-29-3-6-3-8-4-23l-1-16-3-4c-2-3-4-6-5-8-2-2-5-6-7-8l-5-5-12-2c-7 0-16-1-20-2-6-1-8-1-17 0-5 2-13 3-16 5-9 2-25 4-29 2s-5-5-6-20c-2-30-10-57-23-76-6-10-18-19-30-25s-23-9-40-12c-26-3-48 0-67 9-33 16-52 36-60 63-4 14-5 24-2 42 3 24 3 26 1 35-1 5-2 11-2 13 0 15 17 46 30 55 6 4 14 14 17 19 3 9 7 28 7 37-1 6-1 8-6 15-14 25-28 39-57 55-3 2-11 6-16 9-6 4-14 8-17 10-4 2-11 8-16 13-7 6-12 10-17 12-14 8-19 13-22 26-2 7-2 10-1 32 1 13 2 32 3 41 1 8 2 22 2 29 1 13 1 14 3 16 3 4 9 4 52 3 21 0 75 0 120-1z"/></svg>