<svg xmlns="http://www.w3.org/2000/svg" width="1344" height="566"><path d="M0 283V0h1344v566H0V283m373 275c44 0 92 0 106-1 34-2 35-2 59 0 11 0 36 1 56 1 19 1 50 1 69 2 35 0 41 0 42-4 1-1-23-49-29-58-1-3-6-9-10-13-6-7-8-8-15-11-4-2-12-5-18-8-11-5-39-16-49-18-2-1-8-3-12-5-5-1-17-6-28-9-30-11-33-12-35-14-3-6 0-19 9-36 7-15 11-19 20-20 8-2 27-6 32-8 11-3 20-10 24-18 1-2 2-7 3-12 0-4 1-10 2-12 0-2 1-10 2-17s1-14 2-17c1-2 1-5 1-7s1-6 2-9c4-15 4-18 4-30 0-14-2-27-8-44-2-4-4-12-5-17 0-5-1-10-2-11 0-2-2-8-2-13-1-5-3-13-5-19s-3-15-4-20-1-10-1-11c-1-1-1-6-2-12-1-12-3-21-7-33-4-16-8-22-22-32-12-9-18-12-33-16-13-3-142-2-166 1-11 2-26 10-40 24-8 8-16 21-25 40-6 13-18 46-25 67-3 11-8 23-9 28-2 4-5 13-7 19s-6 17-9 25c-3 7-7 16-9 21s-5 13-8 18c-2 6-6 16-9 23-2 8-6 18-9 24-2 6-6 14-7 19-2 5-9 19-14 31-6 13-13 27-15 32s-6 15-7 22c-2 7-5 18-7 23-4 17-2 26 6 30 4 2 5 2 14 1 13-1 14-1 17 5 1 3 3 7 5 9 8 11 3 25-16 40-8 6-23 24-26 30s-3 13 0 16c2 3 3 3 19 5 1 1 29 1 62 0 32 0 95 0 139-1z"/></svg>