<svg xmlns="http://www.w3.org/2000/svg" width="1344" height="566"><path d="M0 283V0h1344v566H0V283m629 278c101 0 210-1 243-3 30-1 96-3 102-3h74c38 1 82 1 97 2 24 1 28 1 30 0 2-2 3-6 0-14-2-11-18-41-30-57-6-9-22-25-32-32-12-9-34-19-55-25-11-4-21-7-40-14-7-2-19-6-28-9-30-11-36-13-40-17s-4-2 3-42c3-21 7-38 9-42 3-5 6-8 15-13 5-2 10-6 16-11 10-11 16-22 22-39 4-11 4-14 4-22 0-9 0-11-2-15-3-7-5-9-11-11-10-5-10-7-7-36 1-10 3-22 3-28 2-12 1-54-1-70-4-30-6-35-14-44-7-7-12-8-31-10-14-2-27-2-122-2-93 1-109 1-118 2-6 1-12 3-14 3-4 3-12 16-19 34-7 17-12 44-16 78-2 19-5 55-5 61 0 1 0 8-1 15 0 9 0 13 1 19 3 10 7 22 13 37 11 23 37 95 37 100 0 3-3 5-10 6-7 2-35 9-41 11-3 1-7 3-9 5-3 2-13 16-19 27-7 12-20 31-26 39s-15 16-29 25c-9 6-18 13-32 25-8 6-31 22-44 30-14 9-41 30-43 34-1 2-1 3 0 4 2 2 29 3 61 2h109z"/></svg>