<svg xmlns="http://www.w3.org/2000/svg" width="1344" height="566"><path d="M0 283V0h1344v566H0V283m348 276c14-1 42-1 62 0 45 1 53 1 143-2 23-1 41-1 50 0 7 1 43 1 81 2 89 1 94 1 93-10-1-5-5-13-14-26-5-8-20-37-20-39 0-1-10-18-14-22-4-5-9-8-27-13-8-3-20-7-26-9s-20-7-30-10c-10-4-25-9-34-12-15-5-26-8-37-10-8-1-13-4-14-7-4-8 2-36 9-42 3-3 6-4 20-8 20-5 28-9 37-18 7-7 7-10 7-31 0-18 1-30 4-40 2-6 2-8 2-28 0-25 1-21-13-61-5-14-7-21-7-23 0-1-2-5-4-10-6-13-7-18-8-34-2-26-6-48-11-59-3-5-9-13-16-18-8-7-25-15-34-18-5-1-9-2-9-2 0-1-5-2-10-2-20-4-104-4-123 0-11 2-26 10-53 26-11 6-22 19-30 33-6 13-12 30-27 78-6 23-24 71-31 88-4 8-7 19-14 41-2 6-7 23-13 37-10 29-13 43-13 58 0 8-2 16-5 24-1 2-3 8-3 12-2 12 0 20 7 32 3 4 7 13 10 19 5 13 10 21 16 26 10 8 14 13 14 16 0 4-4 11-12 20-17 21-23 29-24 32s-1 3 1 6c2 1 5 2 9 3 7 1 63 3 77 2 4 0 19 0 34-1z"/></svg>