<svg xmlns="http://www.w3.org/2000/svg" width="1344" height="566"><path d="M0 283V0h1344v566H0V283m738 278c9-1 22-6 25-10 1-1 2-4 3-6 0-4-1-5-6-8l-4-1-1-11c0-6-1-15-2-21-2-12-1-33 2-70 4-57 3-70-7-99-8-22-15-32-35-54-9-9-15-16-16-18 0-1 1-5 2-10 8-28 12-44 12-47 1-2 0-10 0-17-1-7-1-23-2-35-2-39-6-55-18-71-10-14-20-22-37-32-23-13-47-20-66-20-9 0-39 2-50 4-26 4-49 19-63 39-12 18-16 31-22 68-4 26-5 29-10 35-3 3-5 6-6 8 0 2 1 10 2 19 3 20 3 36 2 41-2 7-6 10-18 16-6 3-16 7-21 9-38 16-68 33-94 52-10 7-45 41-53 51-15 18-19 25-23 34-11 21-17 40-19 60-1 10-1 15 0 29 1 9 2 24 2 34 1 18 2 23 6 26l2 2h40c138 0 215 0 249 2 19 0 56 1 88 1 30 1 55 1 55 1 1 1 75 0 83-1z"/></svg>