<svg xmlns="http://www.w3.org/2000/svg" width="1344" height="566"><path d="M0 283V0h1344v566H0V283m750 277c63-1 159-2 265-1 82 1 84 1 86-1 3-3 2-6-1-17-1-5-4-13-5-17-6-20-11-30-21-46-23-39-47-62-82-80-8-4-18-9-22-10-9-4-46-23-57-31-28-18-49-29-61-32-5-1-13-3-20-3-6-1-12-3-13-4-4-2-6-9-7-23v-12l8-16c7-14 9-19 12-30 6-24 6-39 1-49-11-20-10-18-14-54-1-13-5-29-8-36-4-9-12-20-20-28-13-12-23-17-47-25-30-11-58-11-92-2-30 8-59 30-74 56-14 23-17 47-12 87 2 9 3 18 3 19 1 3 4 27 5 41 2 35 6 51 15 72 4 9 9 19 12 23 7 13 14 27 15 33 0 4 0 5-4 10-2 2-7 7-11 10-4 2-12 8-17 11-5 4-16 11-24 15-8 5-16 10-18 11-1 2-6 5-11 7-9 6-28 17-41 26-4 2-13 7-19 10-19 10-32 19-40 27-7 7-9 9-11 7-1-1-1-3-1-14 1-12 1-13 5-23 5-12 5-12 19-33 13-20 16-25 31-64 4-8 8-18 9-22 4-9 6-20 6-33 1-18-1-20-17-21-8 0-10-1-12-2-5-5-4-12 6-28 11-18 13-25 10-28-2-2-12-1-18 1-9 4-14 8-33 26-14 14-17 18-20 24-5 8-13 16-28 26-5 4-13 10-18 14-10 9-13 15-16 28-2 14-4 14-14 2-4-4-10-11-14-15-17-15-51-36-78-46-15-6-42-19-52-24-5-3-8-5-8-7s-1-2 12-4c9-2 16-6 21-11 3-4 22-40 23-46 1-2 6-14 11-25 1-3 4-7 7-10 9-9 10-14 6-33-5-25-5-37-1-45 3-6 7-27 7-34-1-7-14-45-17-50-5-7 2-6-124-7C16 4 7 4 4 6L1 7v545l3 4 2 4h20c11-1 40-2 64-2 24-1 55-1 68-2h154c56 0 100 1 104 1 31 4 221 5 334 3z"/></svg>