<svg xmlns="http://www.w3.org/2000/svg" width="1344" height="566"><path d="M0 283V0h1344v566H0V283m362 278c8-1 31-1 51-1 65 1 89 1 156 0 77-2 82-2 128-1h159c84 0 128 0 139 1 10 1 26 1 43 1 15-1 42-1 62-2 110-1 109-1 112-3 0-1 1-3 1-5 0-4-6-29-8-35-1-2-4-13-6-24-3-12-6-24-8-26-3-7-9-10-26-12-14-3-15-4-27-30-3-8-8-19-12-26-3-8-10-24-14-37-5-13-12-31-15-39s-12-32-18-51c-13-39-17-48-24-55-4-5-5-5-9-5-7 0-12 4-14 12-1 1-2 2-3 2s-4-3-8-9c-14-22-22-34-24-35-3-2-9-4-12-3-2 1-4 2-6 4-3 2-5 3-6 3s-4-2-7-4c-6-6-10-8-15-8-3 0-4 1-8 4-3 4-4 5-5 10 0 7-3 11-7 11-1 0-4 1-6 3-6 3-6 7-6 26 1 19 5 38 11 56 3 7 7 16 8 21 2 4 4 12 5 18 1 12 4 20 10 28 17 26 36 50 53 68 8 7 26 29 31 36 19 27 32 60 25 64-3 2-16-3-36-13-14-7-18-9-21-13-5-5-15-23-19-33-6-14-11-19-39-42-27-23-28-23-54-23-10 0-24 0-33 1-50 3-58 4-66 0-7-3-8-13-4-41 5-34 7-41 14-47 6-6 7-9 8-24 0-14-2-31-7-48-13-45-17-54-38-97-15-31-22-42-32-54-23-25-57-45-92-52-9-2-13-2-30-2-21 0-35 1-61 8-23 5-48 15-61 24-17 12-35 36-47 63-7 17-11 30-12 44 0 10 0 11 2 18 7 19 7 19 8 51v28l3 10c7 17 8 21 9 40 1 15 1 17 4 24 5 15 11 24 23 35 6 6 14 13 18 17 6 4 8 7 10 11 3 7 4 16 2 24-2 7-13 26-19 32-5 6-16 15-22 18s-24 10-26 10c-3 0-6-10-6-23 0-15-6-38-14-51-7-13-19-13-25 0-4 7-5 19-5 48 0 16 0 18-2 20s-2 2-4 1c-4-3-9-18-13-46-3-16-4-26-7-60-2-39-7-52-17-54-8-2-11 4-13 30-2 28-5 51-5 52-2 2-4 1-5-1 0-1-5-15-9-29-5-15-10-29-11-31-8-23-14-30-25-30-2 0-4 1-6 2-4 5-4 7 1 30 0 5 2 15 4 24 3 20 9 56 11 63 0 3-2 5-4 3s-12-21-15-32c-2-3-4-9-5-12-2-3-4-10-6-15-4-11-6-14-9-17-9-10-21-7-23 4 0 5 1 16 5 29 1 4 4 14 6 22 1 7 5 19 7 25 5 15 6 19 4 20-3 0-6-3-19-18-11-13-14-16-21-19-6-3-11-3-14 1-4 4-4 9-1 18 4 12 12 24 35 55 8 10 19 26 26 35 11 16 18 24 24 28 2 1 6 2 11 3 10 1 47 1 68-1z"/></svg>