<svg xmlns="http://www.w3.org/2000/svg" width="1344" height="566"><path d="M0 283V0h1344v566H0V283m482 276c1-1 2-4 3-6 0-2 1-5 2-6 2-1 2-1 9 1 4 0 10 2 12 3 7 2 7 1 13-3 6-5 11-14 12-22 1-4 1-4-4-10-8-9-12-13-19-17-7-5-10-8-12-12-1-2-3-4-6-6-4-3-7-9-7-16s3-23 7-34c4-14 5-22 4-36-1-7-2-13-2-15-1-2-3-8-5-14-3-11-8-22-12-30-3-6-14-16-26-24-8-7-11-10-11-11s1-3 3-6c2-2 5-8 8-12 5-11 7-13 13-17 6-3 7-5 9-14 3-13 4-30 2-37 0-4-1-15-2-26-1-29-4-34-22-44-15-8-26-11-43-11-10 0-14 0-20 2-15 5-25 11-29 19-4 6-8 22-8 33-1 5-2 15-3 22-1 15-3 59-2 70 0 4 0 13-1 20l-1 12-9 19c-8 15-10 21-11 27-1 5-2 9-3 9 0 1-1 5-3 11-2 8-3 13-3 25-1 10-2 20-5 33-3 16-3 20-3 29 1 15 4 30 8 43 2 7 5 16 5 20 1 10 2 13 7 19 4 5 8 7 17 7 7 0 8 0 13 3l4 3 44 1h47c3 0 10 1 16 1 11 0 12-1 14-3m774 1c20-2 44-3 55-1 6 0 14 1 18 1 7 0 8 0 11-2l2-3 1-158c0-87 0-163-1-169v-10l-5-5c-6-6-11-16-14-25-3-11-3-23 0-43 3-13 3-19 3-34 0-21-2-32-7-42-4-7-20-25-25-28-4-2-23-3-45-3-28 1-27 0-36 15-4 6-8 13-10 15s-5 7-6 11l-3 7v21c0 12 0 24 1 27s1 11 2 17c2 21 14 56 21 61 2 1 7 3 12 5 12 6 16 10 12 17-3 7-14 21-21 28s-9 10-14 20c-4 7-7 15-8 20s-3 12-5 16c-1 5-3 12-4 16l-4 12c-3 12-4 16-4 20 0 3-1 10-1 14-1 5-2 18-3 30-2 29-4 45-8 53-5 9-23 26-34 32-3 2-5 2-8 1-5-1-15-5-29-10-17-7-22-7-22 1 0 3 1 4 7 10 7 7 7 9 4 16-2 4-9 10-15 15-8 5-8 10-1 13 5 2 9 5 14 10 3 3 6 5 7 5s4 1 6 2 5 3 6 3c5 1 140 0 151-1m-530-1c24-1 37-1 92 0 95 2 114 2 119-4 2-2 2-3 2-21 0-11-1-26-2-38-1-11-3-24-3-30-3-24-1-68 3-97 1-4 1-17 2-30v-23l-4-15c-5-15-6-16-11-37-5-18-7-25-10-34s-11-23-17-30c-6-8-8-14-9-23-1-11-2-12-13-14-3 0-7-2-9-2-1-1-4-6-7-12l-5-9-1-16c0-8 0-21 1-29s2-19 2-25c0-10-1-12-3-19-7-17-16-28-31-35-11-5-19-7-28-7-15 1-23 4-38 11-12 6-15 8-21 14-3 3-7 8-8 11-2 4-3 6-3 20 0 11 0 17-1 23-2 5-2 8-1 15 0 6 0 13-1 20-1 10-1 12 0 14 1 1 4 6 7 12 8 13 16 24 19 28 5 4 16 10 21 10 2 0 5 1 8 3 5 3 11 10 11 11-1 1-4 6-7 10-8 12-13 22-13 26 0 2-2 9-3 15-2 6-4 13-5 15s-4 12-7 21c-5 17-8 27-11 45-3 16-10 45-14 57-1 4-4 15-7 26-2 10-6 24-8 30-2 7-4 18-6 26-4 16-13 51-14 54-1 1-1 3-1 4 0 2-1 6-2 10-4 16-2 22 9 21 3-1 16-1 28-2z"/></svg>