<svg xmlns="http://www.w3.org/2000/svg" width="1344" height="566"><path d="M0 283V0h1344v566H0V283m1048 276c12-2 14-5 7-17-3-6-16-25-28-40-4-5-29-26-49-41-6-4-11-8-35-30-25-24-50-43-60-48-5-2-8-3-15-3-25-2-31-3-36-6-6-3-11-10-15-20-5-14-6-17-6-30 0-12 0-13 4-26 3-9 8-20 16-35 16-30 16-32 17-56 0-14 0-22 1-27 3-10 3-27 2-39-2-22-15-49-28-61-8-8-32-21-47-25-16-5-26-6-56-6-33 0-37 0-51 8-31 15-52 42-57 71 0 3-1 10-3 16s-4 20-6 30c-3 16-5 25-10 44-3 12-2 22 6 66 5 25 16 56 23 66 2 2 8 6 13 9 6 4 12 8 14 10 7 5 10 14 7 19-2 4-21 16-44 28-10 5-31 19-41 27-8 7-37 32-42 37-11 11-40 60-43 71-1 4-1 4 1 6s3 2 45 2c23 0 73-1 110-1 74-2 109-1 144 0 12 1 48 1 78 2 31 0 57 0 57 1 1 1 119-1 127-2z"/></svg>