<svg xmlns="http://www.w3.org/2000/svg" width="1344" height="566"><path d="M0 283V0h1344v566H0V283m755 250c5 0 13-1 20-2 6-1 15-2 20-3 5 0 14-1 20-2s15-3 21-4c5-1 14-4 21-6 40-12 55-15 79-13 18 1 17 1 19 0 3-2 4-8 4-25 0-10 0-16-1-20-3-8-7-41-9-62-1-14-2-15-17-19-4-1-12-3-18-5-7-1-15-4-18-5-4 0-9-2-10-3l-4-3v-11c-1-14-2-18-7-22s-6-7-5-12c0-4-1-7-6-19-11-26-14-33-14-35 0-1-1-3-1-5-1-2-2-5-3-8 0-3-2-8-3-11-1-2-5-13-9-24-9-25-24-65-29-74-9-17-19-30-31-39-13-10-44-22-61-25-11-1-28-1-35 0-28 7-52 16-66 27-19 15-35 44-40 73-1 9-1 16 0 53 1 24 1 49 2 55 3 33 3 36-3 42-4 3-19 14-27 17-2 2-7 5-10 7-5 4-6 6-10 14-2 5-5 10-6 11-3 2-16 9-19 9-1 0-3-1-5-2-2-2-4-3-5-3s-4 2-8 4c-9 5-14 8-27 13-14 5-18 7-24 15-2 3-6 6-8 8-6 4-16 7-20 6-5 0-10 1-14 6-4 4-10 16-11 21-1 2-3 8-5 13-1 5-3 12-3 14 0 3-1 7-1 10-3 8-2 13 0 16 3 4 8 6 10 5 1 0 5-1 10-1 5-1 10-2 11-2 3-2 12-4 21-6 7-1 10-1 16 0 11 2 14 2 28-1 3-1 5-1 7 0s10 0 21-4c6-1 16-1 21 0 2 0 7 1 12 2 6 1 11 2 17 5 19 9 23 10 72 10 17 1 37 1 44 2s19 1 26 2c23 2 36 5 43 9 2 2 5 4 6 5 3 2 9 3 11 2h11z"/></svg>