<svg xmlns="http://www.w3.org/2000/svg" width="1344" height="566"><path d="M0 283V0h1344v566H0V283m482 69c1-1 2-2 2-3 0-2-3-3-6-3s-4-1-4-4c0-6 2-10 7-13 4-2 6-2 16-2 8 0 12 0 15 2 3 1 4 1 9 0s6-1 10 1c6 3 13 4 27 4 19 0 33-2 38-5 8-6 17-10 20-10s7-3 7-5-4-20-6-30c-3-13-5-23-5-29 0-14-15-27-47-40-12-6-14-7-21-13-7-7-8-8-14-10-4-1-10-2-14-2-3-1-7-2-8-3-9-6-21-14-27-20-10-9-23-20-34-27-9-6-9-7-7-17 3-11 3-16 1-25-1-8-2-9-6-14-7-7-14-10-23-10s-14 3-18 9c-2 4-4 11-3 14 1 2 3 5 7 9 3 4 7 10 9 14 3 7 3 8 4 24s1 18 5 25c2 2 3 5 3 9 1 3 1 11 2 17s1 19 2 28 2 21 3 27c1 9 1 10-1 14s-3 11-4 21c-1 3-2 8-3 10-2 8-1 13 8 23 5 5 6 7 7 15v7l5 4c11 8 17 10 31 10 9 0 12 0 13-2z"/></svg>