<svg xmlns="http://www.w3.org/2000/svg" width="1344" height="566"><path d="M0 283V0h1344v566H0V283m283 278c14-1 19-1 26 0 6 1 81 1 257 1 227-1 248-1 251-2 4-2 6-2 24-1 14 2 37 2 83 2 68 0 65 1 71-5 3-4 4-12 3-26-1-7-1-13-1-14-1-2-2-11-3-21s-3-24-4-31c-3-18-3-27 0-33 1-2 5-6 8-10 9-7 27-21 32-23 6-3 37-7 72-10 7-1 26-1 42-1 32 0 33 0 46-7 8-4 13-9 14-12 1-8-10-11-40-11-19 0-25-1-36-6-9-4-13-4-30 1-14 3-15 3-32 3-19 0-25-1-39-6-27-11-42-21-48-33-2-5-7-21-10-34-4-16-8-25-19-45-8-13-6-18 7-21 9-3 13-5 21-13 8-9 16-21 22-32l4-9v-13c-1-7-2-17-2-23-1-7-2-15-2-20 0-11-3-32-6-38-4-7-13-17-20-20-10-4-28-8-41-9-21-1-34 4-50 18-9 8-14 15-16 23-1 3-2 14-2 25-1 25-3 35-8 45-7 13-20 28-27 30-1 0-7-1-13-3-13-5-21-5-26-2-2 2-3 3-5 9-1 3-2 7-2 8 0 3-6 13-10 19-3 2-8 9-13 15-11 12-16 20-25 38-12 25-14 35-11 54 3 20 1 35-8 64-4 14-7 21-10 22 0 0-2-1-3-2-1-2-1-7-2-23-1-11-2-29-2-39-1-10-2-22-3-26-1-15-8-73-10-84-7-36-20-71-33-87-18-22-43-36-80-46-11-3-24-4-34-2s-37 11-46 15c-25 11-39 29-49 60-4 14-4 21-5 81 0 44 0 63 1 79 1 13 2 33 3 46s1 28 2 34c0 16 1 16-22 25-25 9-27 9-30 5-2-3-2-5-3-21-1-12-1-20-3-25-2-10-3-18-5-40-3-28-4-37-5-41 0-4-7-18-11-25-11-15-9-31 5-44 6-6 11-14 17-30 7-16 8-22 6-36-9-56-10-59-23-70-16-14-42-21-65-18-13 2-21 4-29 9-12 8-17 17-19 34-1 8-1 11 1 24 1 7 3 18 5 24 4 18 2 29-9 40-6 7-13 17-19 28-6 10-11 16-29 35-22 24-29 32-40 53-10 17-14 30-20 53-5 19-4 48 3 90 3 21 3 25 3 43 0 24 1 29 3 32 4 3 16 6 29 7 24 1 79 1 97-1z"/></svg>