<svg xmlns="http://www.w3.org/2000/svg" width="1344" height="566"><path d="M0 283V0h1344v566H0V283m595 278h115c53 0 87 0 96-1 8-1 32-1 54-1 22-1 53-1 69-2 32-1 66-1 80 1 27 3 126 2 132-1 1-1 2-2 3-4 1-5-5-21-13-33-2-4-6-11-9-16-3-4-8-11-13-16-8-9-16-14-43-29-5-3-12-7-16-10-4-2-11-6-14-8-4-3-12-8-17-12-6-5-13-8-25-14l-16-7-18-19c-11-11-20-19-23-20-4-2-6-2-18-2-15 0-18-1-22-5-2-4-4-12-4-17 1-2 4-6 11-14 13-13 17-19 21-27 2-6 2-8 2-18s0-12-1-15c-2-3-2-5-2-12 0-8 1-14 5-27 16-48 24-85 21-102-3-19-10-30-33-52-8-9-18-17-21-19s-12-7-19-12c-23-14-28-17-49-22-4-1-13-2-22-3h-15l-6 3c-6 2-22 8-49 16-8 2-22 10-35 20-17 14-33 41-39 65-2 7-3 17-4 22-1 6-2 15-4 20-5 15-10 35-11 45-1 7-1 21-1 47 0 54 1 62 14 90 9 18 15 31 18 39 3 9 7 27 7 32s-2 7-10 10c-2 1-8 3-11 4-4 2-10 4-12 5-3 1-8 3-11 4-9 3-40 18-47 22-14 9-40 29-49 38-12 13-13 16-20 43-2 7-2 7 0 9 4 5 10 6 27 5h47z"/></svg>