<svg xmlns="http://www.w3.org/2000/svg" width="1344" height="566"><path d="M0 283V0h1344v566H0V283m352 278c12-1 21-1 24-2 7-2 9-2 12 0 2 2 4 2 36 2h48c8 0 88 0 178 1h205c41 0 41 0 43-2 3-2 6-3 9-1 9 5 92 4 108-1 2-1 10-1 23 0 28 1 31-1 30-20 0-12-2-18-9-27-3-4-8-11-11-15-5-8-14-19-20-28-5-6-10-15-14-26-3-8-5-12-14-22-10-15-25-48-30-70 0-4-3-14-5-21s-5-19-7-25c-4-15-17-52-22-63-2-5-5-12-6-15-2-9-1-12 11-25 13-14 17-19 22-30 6-11 9-22 14-41 4-20 4-27-1-37-4-9-14-19-22-23-16-8-38-8-56-1-7 3-10 4-16 11-10 9-13 16-18 33s-13 30-25 42c-5 6-6 6-15 8-19 4-25 7-28 12-2 5-10 12-18 19-4 4-11 9-15 13-4 3-7 6-8 6-3 0-4-3-7-14-13-49-30-81-52-96-8-5-21-12-28-14-2-1-7-3-10-4-4-2-12-4-18-6-10-2-13-2-28-2-18 0-15-1-44 9-23 9-26 11-37 22-7 7-11 12-15 19-14 27-15 34-14 86 1 20 1 46 2 57 1 12 1 27 1 34 0 9 1 15 3 26 4 21 6 26 9 35 5 13 9 29 9 32 0 5-3 7-11 8-5 0-10 2-17 5-14 7-24 11-32 12-11 3-35 11-41 14-4 2-7 5-9 6-3 5-8 18-9 25-1 8-8 30-10 33-2 4-3 3-7-8s-5-26-6-61c-1-24-1-36-3-47-1-7-3-21-3-31-4-35-11-62-26-101-5-11-6-17-4-22 2-3 9-9 12-11 9-5 15-13 24-30 8-15 8-19 7-28-1-4-3-13-4-21-3-22-9-35-17-41-7-5-20-11-30-13-7-2-11-2-22-2-25 1-37 7-45 22-5 10-6 20-4 42 1 10 1 20 1 23-2 10-7 18-19 25-7 5-10 9-15 20-3 7-5 8-13 15-5 4-11 10-14 12-5 6-11 18-14 27 0 4-3 12-5 18-3 11-8 26-14 49-2 10-5 23-8 38-2 15-3 33-1 45 0 3 1 13 2 22 1 10 2 26 3 38 1 14 2 27 2 46 0 26 0 27 2 29 3 4 7 6 12 7s136 0 164-1z"/></svg>