<svg xmlns="http://www.w3.org/2000/svg" width="1344" height="566"><path d="M0 283V0h1344v566H0V283m512 275c84-1 210-2 279-1 68 2 77 2 144 1h48l2-2c2-2 4-5 5-8 0-3 2-7 2-10 2-5 3-12 5-40 2-18 2-98 1-102-2-5-2-38 0-44 1-7 4-37 4-49 0-10-2-34-5-45-2-11-8-23-15-31-11-11-38-31-56-41-5-2-11-6-15-9-4-2-10-6-14-8-14-9-20-18-17-26 1-5 10-19 18-29 10-13 17-27 26-50 4-13 4-14 4-23 0-16-5-30-12-34-3-2-4-2-137-2H646l-10 2c-6 1-13 2-16 3-11 1-12 5-7 18 4 9 4 10 8 15 2 2 6 8 8 12 4 6 6 9 10 12 8 6 8 10 0 20-10 12-25 25-36 31-11 7-13 7-33 14-17 6-42 16-70 28-26 11-45 23-55 34-5 6-12 19-22 42-5 13-17 37-25 54-15 30-26 54-30 64l-4 12c-5 12-8 21-9 26 0 2-2 8-3 13-8 29-9 30-8 64 0 31 1 47 4 69 1 9 6 17 10 19 6 3 23 3 154 1z"/></svg>