<svg xmlns="http://www.w3.org/2000/svg" width="1344" height="566"><path d="M0 283V0h1344v566H0V283m787 250c4-1 12-2 17-3 14-1 46-8 66-14 36-11 39-12 67-13 29 0 28 0 29-11 2-10 1-30 0-36-1-3-2-11-3-18s-2-15-2-17-1-10-1-16c-1-6-2-13-2-15-1-4-7-9-12-10-3-1-7-2-10-2-3-1-13-4-22-6-27-6-29-8-27-17 2-7 1-18-2-24-1-3-4-6-6-8-4-3-5-5-2-8 2-3 1-5-4-15-8-16-16-39-20-53-4-13-18-53-25-71-3-7-7-17-9-23-9-22-16-34-29-48-10-10-17-15-31-21-21-10-39-15-54-15-19 0-52 8-73 18-4 3-17 12-22 16-15 14-30 45-34 72-2 8-2 15-1 51 0 22 1 51 2 64 1 24 1 28-2 33-3 3-21 15-30 20-9 4-15 11-20 21-2 5-5 9-6 10-2 2-16 8-20 9-1 0-4-1-6-1-4-2-7-2-14 3-5 4-10 6-28 12-12 4-16 7-25 19-4 5-14 10-23 11-4 1-9 2-10 3-6 4-11 16-15 32-1 4-2 8-3 10 0 2 1 4 6 7 2 1 4 4 6 6 3 6 8 8 23 9 6 0 12 1 13 0 2 0 11 2 18 4 3 2 8 2 19 2h17c3 0 13-2 16-4 4-2 17-3 21-2 2 1 8 2 12 3 7 1 11 2 16 5 10 5 19 8 27 9 4 1 7 1 8 1 1 1 16 1 34 1 39 1 70 3 96 6 12 1 26 7 32 13 3 2 4 3 14 3 14 1 24 0 34-2z"/></svg>