<svg xmlns="http://www.w3.org/2000/svg" width="1344" height="566"><path d="M0 283V0h1344v566H0V283m726 167c4-1 14-1 23-2 9 0 18-1 19-2s5-2 8-3c18-4 35-8 39-10 6-2 20-5 34-6 13-2 19-2 38 1 11 2 11 1 11-11 0-6-1-13-1-16-2-11-5-42-6-57-1-17-2-19-8-26-3-2-5-5-7-6-1-2-4-4-10-6-9-3-12-5-12-10-1-2-1-5-1-7-1-2-2-5-4-7l-2-3 3-4 4-4v-12c0-12-2-26-5-43-1-4-3-14-5-21-2-15-5-28-8-35 0-2-2-9-3-14-4-20-6-26-10-36-10-27-22-44-40-56-5-3-10-6-11-7-5-3-19-11-26-13-5-2-7-2-18-2-9 0-13 0-21 2-5 2-14 4-21 5-15 3-23 7-34 17-9 10-16 22-21 39-5 16-4 15-11 73-2 27-3 68-2 92 1 6 1 13 1 14-1 4-6 5-27 10-13 3-18 4-33 5-22 1-22 1-37 16-15 14-26 23-32 27-9 5-19 11-25 17-10 8-15 10-26 11-10 1-12 1-15 10-1 3-4 10-7 14-8 17-13 30-15 38-1 5-3 11-4 14-2 6-2 7 2 9 3 1 7 1 19-3 7-2 11-3 17-3 4 0 10 0 13-1 11-2 32-4 37-4 8 0 26-3 31-5 6-3 13-2 22 1 13 4 21 6 23 6 1 0 5 1 8 2 3 0 10 1 17 2 6 0 15 1 20 2 10 1 18 1 31-1 19-3 61 2 71 9 2 1 9 1 17 0z"/></svg>