<svg xmlns="http://www.w3.org/2000/svg" width="1344" height="566"><path d="M0 283V0h1344v566H0V283m872 279c76-1 116-1 119-2 7-1 9-4 8-13 0-4 0-13-1-20-2-12-2-12-10-28-9-19-17-31-25-38-9-8-43-26-68-35-22-9-38-16-52-25-26-16-43-29-47-37-4-7-6-21-7-40 0-15 0-17 2-22 4-12 14-25 24-32 3-2 3-2 3-9 0-4-1-13-3-21-2-7-4-19-5-25-3-20-6-27-18-52-4-9-10-22-13-29-10-22-20-36-32-44-14-10-28-13-54-12-15 0-17 0-25-2-15-4-24-3-37 6-16 10-27 24-39 48-7 13-19 43-22 55-2 10-3 28-1 40 3 17 12 40 20 51 2 4 13 16 24 27 15 15 22 22 24 27 4 6 4 7 4 15-1 10 0 9-16 29-12 17-21 26-29 29-2 2-11 5-19 7s-16 5-18 5c-2 1-7 3-12 5s-17 8-27 12c-22 10-34 16-40 21-10 9-22 45-25 78-2 18-1 24 1 26s4 3 6 3c7 2 129 3 210 2h200z"/></svg>