<svg xmlns="http://www.w3.org/2000/svg" width="1344" height="566"><path d="M0 283V0h1344v566H0V283m776 276c24-1 32-2 36-4 2-1 5-4 10-11 3-4 8-6 12-6 2 1 11 5 20 9 11 6 19 9 22 10 2 0 18 0 34-1h45c32 2 76 2 112 2 44 0 41 1 38-10-2-11-7-27-11-34-7-16-29-30-57-38-15-4-24-10-54-31-8-6-19-13-24-15-17-9-23-14-43-34l-19-19-7-16c-4-8-8-19-10-23s-6-14-9-22-6-16-6-17c0 0 2-3 4-5 4-4 5-5 6-12 2-10 4-47 4-60-1-17-3-33-5-46-1-8-2-17-3-21-1-7-5-25-9-38-3-10-15-26-25-33-5-4-17-8-31-12-10-2-12-2-32-2s-21 0-28 2c-3 2-11 4-17 6-23 9-30 13-40 28-4 6-12 19-18 30-24 43-34 58-55 82-6 6-12 13-15 17-2 4-8 11-13 17-17 23-19 25-21 29-2 5-2 5-1 7 3 5 8 7 14 7 3 0 5 1 6 2 3 2 2 10 0 21-3 15-1 21 9 29 11 9 10 11-10 39-8 12-18 26-23 32-4 7-11 16-16 22-10 15-25 36-27 39-6 9-9 24-13 51-3 26-2 28 9 29 8 1 240 1 261 0z"/></svg>