<svg xmlns="http://www.w3.org/2000/svg" width="1344" height="566"><path d="M0 283V0h1344v566H0V283m640 279c35-1 68-1 74-2 17-1 35-2 100-1 97 1 299 1 302 0 4-2 5-6 5-12-2-11-6-26-11-39-3-6-18-32-24-41s-13-17-24-28c-13-12-28-22-60-40-24-13-36-21-42-25-2-1-7-4-10-5-2-2-9-6-14-9-15-9-44-24-55-27-14-5-15-6-17-22-3-21 2-46 14-75 6-16 12-38 13-48 0-8 0-9-3-19-3-9-4-13-5-23-1-7-1-18-2-25-2-22-8-40-19-54-6-7-22-21-30-25-6-2-28-10-37-12-31-8-72-6-97 4-12 5-15 6-26 13-8 5-13 9-22 17-12 13-17 21-21 36-4 12-4 21-3 40 1 8 1 36 2 60 1 43 1 46 3 56 3 12 4 15 10 29 2 5 5 12 6 16 4 10 8 17 16 34 4 9 9 18 9 21 4 9 5 8-57 56-6 5-15 11-21 15-5 3-15 10-21 14s-16 10-23 14c-6 3-13 8-17 11-9 7-24 15-41 24-7 4-16 9-18 11-5 3-11 6-14 6-1 0-4-2-7-5-3-2-7-5-9-7-2-1-3-3-3-6-1-4-5-24-10-45-6-25-16-47-32-69-15-21-26-31-48-43-12-7-89-45-94-47-5-1-21-9-28-14-4-2-13-9-21-14-10-8-14-11-16-15-3-5-3-6-3-17 1-12 3-24 9-40 6-15 7-18 13-20 18-8 21-10 28-17 9-9 15-18 19-28 3-10 3-17-2-28-2-4-3-9-3-11 0-1 3-11 6-22 6-18 11-38 11-46 0-4-3-7-8-8-2-1-58-1-129-1C19 4 7 4 4 5L1 7v545l2 3c3 6 6 7 36 5 14-1 43-1 64-2 32 0 83-1 105-2h150c6-1 18-1 32 0s25 1 31 1c11-1 24-1 39 1 20 2 100 5 112 4h68z"/></svg>