<svg xmlns="http://www.w3.org/2000/svg" width="1344" height="566"><path d="M0 283V0h1344v566H0V283m760 276c95 0 154-1 183-1 46-1 205-1 276 0h64c7-1 8-3 4-7-2-3-21-13-24-13s-39-20-53-29c-8-5-20-13-26-16-20-10-25-14-51-37-6-6-13-11-16-13-11-6-19-12-39-31-31-31-47-43-66-54-9-5-24-14-46-29-12-9-30-20-48-30-27-14-30-16-55-22-21-5-37-13-43-21-3-4-4-8-2-26 3-25-4-57-23-104-6-16-18-40-22-47-8-12-22-24-37-31s-39-14-58-15c-13 0-21 1-38 7-7 3-18 7-24 9-15 4-18 5-29 14-18 14-29 30-37 50-4 9-9 27-11 36-2 16-1 39 6 65 2 8 6 24 8 35 5 21 6 24 13 35 3 3 8 11 11 15 4 5 9 12 11 14l5 5h7c12-2 16 2 29 19 7 9 11 16 11 20 0 1-1 7-3 13-2 9-2 13-3 32 0 21 0 23 2 31 2 5 5 14 8 20 3 7 5 13 6 17 0 4 0 6-6 17-8 15-9 19-7 28 1 5 9 25 12 32 2 3 8 10 10 10 0 0 9 1 19 2 15 2 22 2 38 1 11 0 31-1 44-1z"/></svg>