<svg xmlns="http://www.w3.org/2000/svg" width="1344" height="566"><path d="M0 283V0h1344v566H0V283m923 275c4-3 4-7-1-34-2-11-1-23 2-30 2-5 1-12-8-60-5-25-9-46-9-49 0-7 2-10 9-14 6-4 15-13 17-18 1-3 2-6 2-8 0-6-13-31-21-41-7-10-8-13-9-43-1-25-2-38-4-60-1-13-1-19 1-21 1-1 2-2 3-2 2 0 9-4 15-8 3-3 8-6 11-7 8-3 11-6 16-14 2-3 5-9 8-12 2-3 7-13 11-21 6-11 7-16 8-21 1-12-3-22-15-36-9-11-19-15-37-14-12 0-13 0-20 3-6 3-15 11-21 19-2 2-7 10-11 19-9 17-13 22-24 32l-8 7h-12c-12 0-13 0-16 3-3 2-3 3-3 8v6l-9 9c-25 28-37 60-41 117-3 40-4 57-9 102-1 21-3 89-2 107 1 14 2 16 9 20 11 5 20 16 25 31 3 7 3 8 2 17 0 9 0 10 2 12l2 3h67c60 0 68 0 70-2z"/></svg>