<svg xmlns="http://www.w3.org/2000/svg" width="1344" height="566"><path d="M0 283V0h1344v566H0V283m412 278c25 0 55 0 66 1h21l3-2c2-3 2-3 2-12-1-6-2-13-3-18-2-4-4-14-5-22-2-15-5-26-11-37-6-13-19-24-45-39-13-8-16-11-16-16 0-3 1-5 4-9 3-3 6-8 7-11 4-12 7-16 15-23 4-3 10-7 14-9 10-5 16-9 18-12 1-2 1-8 1-30v-27l-5-11c-6-11-9-20-12-34-4-23-11-39-22-48-2-2-7-4-12-6-9-3-41-9-51-9-9 0-25 3-31 5-12 5-28 16-36 27-11 14-15 29-16 69-1 15-1 31-2 36-1 6-1 32-2 58v53c-1 3-2 7-3 10-15 32-21 48-21 61-1 5-2 12-4 18-5 14-6 21-6 28 0 9-3 9 51 9 26 0 48 0 48 1h4c3-1 25-1 49-1m683-3c6-1 8-1 10-4 4-4 6-11 7-25 1-7 1-13 2-13 0-1 0-7 1-14 1-8 2-22 3-32 2-26 1-44-4-60-5-13-11-28-19-42-18-33-48-72-61-82-8-5-22-19-24-23-1-2-3-7-4-11 0-4-2-8-3-9s-5-2-10-3c-14-2-16-4-22-21-4-13-4-17-1-28 2-5 3-11 4-15 2-10 7-28 12-44 3-8 6-19 7-25 2-11 2-15-2-38-2-8-3-13-7-21-6-12-12-19-21-23-8-4-17-8-23-9-3 0-7-1-10-2-14-3-40-1-63 7-19 6-27 11-40 24-9 9-10 11-11 27 0 12 0 13-4 25-3 10-4 15-6 26-1 17-3 23-8 35s-5 16 0 25c2 4 5 10 6 14 3 11 10 32 14 39 3 6 6 9 18 12 13 4 17 6 21 9 5 3 13 13 14 18 2 5 0 8-14 19-6 6-13 13-16 17-3 3-7 8-9 10-4 4-6 7-9 23-1 5-3 12-5 16s-5 12-7 18c-3 7-6 14-7 16-2 5-9 27-14 46-7 24-7 22-15 57-4 16-8 41-9 50 0 8 0 8 3 10l3 2 78-1h94c40 0 133 1 133 2 0 0 3 0 6-1 3 0 9-1 12-1z"/></svg>