<svg xmlns="http://www.w3.org/2000/svg" width="1344" height="566"><path d="M0 283V0h1344v566H0V283m298 279c21-1 43-1 50-2 9-1 13-1 15 0 3 1 53 2 257 1 243 0 255 0 258-1 3-2 3-2 10 0 6 1 11 2 46 2 36 0 39-1 42-2 6-3 7-7 7-24-1-8-2-18-2-22-3-16-4-28-3-31 4-7 14-9 35-5 12 2 15 2 37 2 22-1 25-1 30-3 6-3 12-7 12-11 0-2-2-4-12-11-5-3-9-6-11-7-1-1-5-3-10-5-14-4-24-8-26-11-7-8-2-23 9-26 10-4 43-9 60-9 14-1 20-3 34-8 12-4 21-10 26-16 5-5 5-10 1-13-3-2-5-2-26-3-24 0-31-1-45-6-11-3-16-3-29 4-20 10-31 12-58 12l-17 1-11-6c-17-8-19-10-24-30l-11-33c-4-12-7-25-8-29 0-4-1-11-2-15-1-5-2-12-4-17-2-10-2-14 1-18s14-10 25-13c17-4 19-6 37-35 14-21 16-26 17-47 1-20-3-44-8-58-2-6-10-16-15-19-6-4-20-10-29-12s-23-2-32-1c-16 4-33 17-40 31-4 8-5 13-5 36 0 20 0 21-2 28-5 13-14 28-22 35-6 6-7 7-16 7-17 2-20 4-24 18-2 8-4 12-13 26-23 37-30 57-35 104-1 13-7 48-9 56-1 7-4 12-5 12-4-1-5-9-7-34-3-30-6-59-8-67 0-4-3-17-5-29-8-47-21-92-36-116-10-17-24-30-47-42-17-8-32-13-53-15-13-2-23-1-34 2-7 3-34 15-44 20-23 12-40 42-42 75-1 7 0 18 0 27 1 9 1 28 2 43 1 27 3 44 8 78 3 22 5 30 11 53 5 19 5 24 2 28-2 1-3 2-4 2-7 0-17 3-25 6-6 3-21 8-35 13-32 11-42 15-45 18-4 3-9 16-11 30-4 21-11 35-14 31-3-2-10-21-11-29-1-4-1-17-1-35-1-16-1-34-2-40 0-6-2-20-2-29-3-25-3-28-11-49-3-10-7-21-8-24-2-11-6-24-9-31-5-12-5-16-2-23 4-8 9-14 16-17 8-3 14-10 20-22 3-4 7-11 10-14 8-13 8-14 5-33-2-6-3-16-4-21-1-13-2-17-6-25-5-12-18-21-37-27-5-2-9-2-23-3-32-1-43 4-48 21-6 16-6 24-5 44 2 27 2 32-2 40-4 10-7 14-12 15-6 2-12 6-15 8-1 1-3 5-5 9-1 4-4 8-6 9-5 5-14 17-17 22-1 3-3 9-4 13-2 9-6 22-11 33-11 27-14 42-22 97-4 34-6 52-9 75 0 9-2 24-2 33-4 35-4 45-4 48 1 3 5 5 11 6 8 1 106 1 148 0z"/></svg>