<svg xmlns="http://www.w3.org/2000/svg" width="1344" height="566"><path d="M0 283V0h1344v566H0V283m871 278c10 0 18-1 19-2 3-1 5-5 6-15 2-14 5-23 12-34 4-6 8-7 23-8 14-1 27-4 39-10 5-3 7-4 9-8 3-6 2-11-3-16-8-9-11-14-11-19 0-7-2-9-13-11-4-1-11-3-15-4-13-4-18-9-20-24-1-4-2-11-4-16l-2-8 2-8c4-12 4-17-1-29-5-14-20-36-30-44-3-3-9-7-14-9-8-4-22-15-26-19-3-4-2-6 5-13 8-7 10-12 12-26 5-24 5-37 1-65-3-16-10-45-12-50-2-3-13-13-18-16-7-4-19-8-27-9-9 0-35 2-43 5-4 2-9 4-12 6-5 4-13 14-14 19 0 1-2 8-4 14-7 20-8 27-8 40 0 7 0 13 1 17 2 7 2 8 1 13-1 4-5 12-9 18l-7 14c0 2 6 15 8 17 1 1 6 3 11 4 9 3 10 4 12 8 3 7 3 10-7 34-18 44-20 53-22 83-1 16-3 32-7 44 0 2-2 11-2 21-1 15-1 19 0 34 2 21 6 37 11 47 1 3 5 7 8 11 4 4 7 8 7 9l3 3c4 0 72 3 99 3 13 0 32 0 42-1z"/></svg>