<svg xmlns="http://www.w3.org/2000/svg" width="1344" height="566"><path d="M0 283V0h1344v566H0V283m388 277c23-1 88-1 156-1h171c30 0 69 0 86 1 33 1 49 0 55-3 4-2 6-6 7-15 1-20-4-34-16-45-15-15-42-35-73-56-19-12-34-33-34-46 0-6 3-12 14-25 4-5 10-13 13-17s8-11 12-16c5-7 20-32 22-39 7-16 26-76 28-85 5-23 6-48 3-75-3-28-16-53-40-77-20-19-27-24-50-27-8-1-21-4-30-6l-16-4h-20c-22 0-29 1-44 7s-35 21-46 33c-6 7-16 21-21 31-5 12-10 33-13 53 0 6-4 23-5 25-1 1-3 4-5 6-6 8-10 16-11 24-2 10-2 17 0 29 2 15 8 25 24 38 4 3 8 7 9 9 0 1 1 6 2 11 1 10 0 24-2 28-1 1-5 3-9 5-3 2-9 7-13 10-48 41-52 44-68 46-8 1-16 4-40 13-4 2-20 7-35 12-14 5-31 12-36 14-12 6-21 14-27 24-7 13-21 51-28 80-2 5-4 12-5 14-2 7-2 17-1 20 2 4 6 5 26 5 11 0 38-1 60-1z"/></svg>