<svg xmlns="http://www.w3.org/2000/svg" width="1344" height="566"><path d="M0 283V0h1344v566H0V283m510 276c8 0 16-1 16 0 1 0 6 0 11-1s38-1 73-2c79-1 86-1 94 1 7 2 203 2 224 0 9-1 21-1 43 0 51 2 59 1 59-2 0-2-2-4-16-13-16-12-33-22-50-31-19-9-26-14-35-26-2-3-6-7-7-9-5-5-8-10-8-13 0-9 18-49 46-102 13-24 15-26 30-34 20-11 31-23 40-44 2-5 5-12 6-15 1-8 1-22 0-26-1-1-4-5-7-8l-6-6v-8c1-5 2-11 2-14 6-33 12-73 13-83 2-22-2-39-13-61-11-21-21-32-40-44-4-3-8-5-9-5 0 0-4-1-7-3-6-3-8-3-22-4-21-2-123-2-143-1-19 1-24 3-34 11-14 12-26 36-38 76-6 19-6 20-11 63-2 21-3 24-11 26-10 4-12 5-14 8-4 4-7 10-8 19s-1 15 1 26c4 23 10 36 29 52 6 5 6 6 7 11 0 4 0 12-1 21s-3 19-3 24c-1 8-3 18-6 30-4 15-16 33-24 35-3 1-21 0-23-2-2-1-23-2-26-1-4 1-10 6-31 29l-19 19c-7 5-22 12-36 18-5 2-12 6-16 8-7 5-26 15-39 22-15 7-47 26-59 34-11 6-23 17-25 20-1 2 0 5 2 6 4 1 46 2 62 1 8 0 21-1 29-2z"/></svg>