<svg xmlns="http://www.w3.org/2000/svg" width="1344" height="566"><path d="M0 283V0h1344v566H0V283m1011 277c3 0 7-1 8-1 3-1 5-5 5-10 0-3-4-23-6-29 0-2-2-8-3-12-1-5-3-11-4-14-2-3-5-12-9-20-10-28-18-38-35-46-23-10-32-13-47-18-47-15-50-16-66-24s-36-20-46-28-15-17-16-33c0-10 1-24 3-31s9-18 16-24c8-8 9-11 8-22 0-8-7-33-12-50s-13-37-21-52c-4-7-8-16-9-19-4-9-14-26-20-32-10-11-19-17-34-21-5-1-11-1-29-2-19 0-25 0-32-1-15-4-26-1-39 9-19 15-40 57-50 98-6 24-4 49 7 80 5 12 8 16 29 38 14 14 22 22 24 27 5 8 7 19 7 28-1 5-1 7-6 14-16 26-29 41-40 47-6 3-20 9-29 12-7 2-14 5-43 21-39 21-49 29-53 41-5 14-9 43-9 58 0 17-2 16 54 17 46 1 489 0 497-1z"/></svg>