<svg xmlns="http://www.w3.org/2000/svg" width="1344" height="566"><path d="M0 283V0h1344v566H0V283m710 277c284 1 268 1 280-2 12-2 15-4 18-12 3-13 4-35 1-44-4-12-12-22-17-22-1 0-6 2-11 3-9 4-10 4-27 5-21 0-22 0-27-7-6-6-9-7-21-4-11 2-22 8-39 20-6 4-12 8-15 9-4 2-18 5-30 6-12 2-14-2-39-66-26-68-36-92-42-101-2-3-7-8-11-13-9-8-11-11-10-16 1-3 19-22 31-32 17-14 18-15 20-18 1-2 2-9 3-18 2-22 5-32 16-50 10-15 18-29 20-35 1-3 5-12 10-20 4-8 7-16 7-17 0-5-1-7-11-16-11-11-16-17-22-29s-8-14-24-27c-30-23-63-39-89-42-24-3-53 4-75 19-6 5-15 14-31 31-9 10-10 11-16 26-15 35-22 45-35 50-6 3-14 6-26 9-6 2-14 5-17 7-12 6-36 27-38 34-1 3-3 11-4 21 0 11-2 22-3 28-4 16-4 29 1 34 4 4 10 5 29 6 22 1 25 2 25 8 0 4-3 11-7 18-19 32-35 66-43 89-3 10-6 20-6 23-1 8-4 21-7 31-1 4-3 14-4 20 0 7-2 14-2 16 0 3-1 9-2 14-1 4-1 11-2 13-1 6-4 31-4 37 0 7 2 10 9 12 7 3 8 3 36 2h251m-369-8h55c5-2 2-10-8-20-8-7-10-8-27-18-14-8-26-16-29-19-2-1-8-5-16-9-7-3-14-7-16-9-6-4-41-40-43-44-2-6-2-12 0-20 2-4 4-12 5-17s3-12 5-16c2-5 2-8 3-19 1-24-2-34-15-47l-7-8v-22c0-17 0-23-1-27-2-6-4-10-7-10-2 0-15 12-17 17-3 4-5 19-5 29 0 8-2 9-24 11-5 1-12 2-13 3-7 3-14 12-20 23-6 14-7 18-10 45-2 11-3 21-4 21 0 0 0 4-1 9-2 12-4 17-11 25l-7 6h-7c-6 0-7 0-10 3-1 2-3 5-4 7-1 3-1 3 1 7 7 12 9 18 11 27 3 17 9 30 19 40 9 9 24 22 29 24 3 1 10 3 19 3 8 1 17 3 20 3 11 2 36 3 60 2h75z"/></svg>