<svg xmlns="http://www.w3.org/2000/svg" width="1344" height="566"><path d="M0 283V0h1344v566H0V283m785 279c1-1 34-1 74-1 71-1 73-1 78-3 7-3 9-3 15 0l4 3h40c39 0 85-1 95-2 6 0 10-3 10-7s-9-31-13-38c-7-15-8-23-6-42 1-11 8-32 15-47 6-14 9-22 12-34 4-17 4-26-1-30-3-3-6-2-11 2s-6 5-9 2c-2-1-3-4-4-10 0-5-2-10-3-13-3-7-10-8-15-1-6 8-9 10-11 10-1-1-3-3-4-5-2-5-7-10-10-10-4 0-10 5-14 11-2 4-6 6-13 6-2 1-7 2-11 3-9 3-9 3-27-17-4-5-6-6-20-13-8-4-20-9-27-12-20-8-39-17-42-21-3-3-3-3-3-17 0-8 1-20 1-26 1-6 1-21 1-33 0-24-1-37-7-53-4-13-17-30-30-40-14-11-46-28-60-32-8-2-11-2-27-2-18 0-20 0-26 2-9 3-30 14-37 20-18 14-34 33-38 47 0 2-2 6-2 9-1 2-2 5-1 8 0 5 0 7-6 22-5 15-6 18-10 23l-2 3 1 32c0 31 0 32-2 34-2 3-10 6-27 12-31 9-56 19-66 26-15 10-17 13-23 27-3 7-5 8-8 3-2-5-6-9-8-9-3 0-9 6-12 13-2 3-3 6-4 6-1 1-4-4-9-14-5-12-8-17-12-18s-7 1-10 9c-3 6-4 7-7 7-2 0-4-1-6-2-5-5-9-6-12-4-3 3-3 4-5 18-2 18-5 20-15 14-15-7-18 7-8 36 5 15 14 36 23 52 4 10 10 22 11 26 5 14 4 19-8 46-5 13-6 17-3 20 3 2 11 3 46 2 58-2 214-1 225 1 3 1 7 1 9 1 6 1 74 0 75 0z"/></svg>