<svg xmlns="http://www.w3.org/2000/svg" width="1344" height="566"><path d="M0 283V0h1344v566H0V283m626 279c14 0 69-1 123-1 54-1 104-1 112-2 8 0 37-1 64-1 27-1 60-1 72-2 31-1 46-1 72 1 12 0 39 1 60 1h37l2-3c3-4 2-9-11-35-14-28-24-43-43-67-16-21-44-45-62-54-5-3-25-10-44-16-7-2-21-8-31-12-18-7-28-10-49-16-15-4-21-7-36-16-7-4-15-9-17-10-6-3-19-6-22-5-4 0-7-2-12-7s-7-10-10-21c-5-14-6-24-6-42 0-17 0-18 4-34 5-19 7-26 8-35 1-4 2-12 3-17 3-17 4-34 3-51s-3-24-11-40c-4-9-6-11-13-17-4-3-9-9-11-13-5-8-7-9-18-15-9-4-11-5-16-5-4 0-9-1-15-3-13-4-41-7-55-7-14 1-34 5-42 8-4 1-9 4-13 6s-10 6-15 7c-17 8-20 11-26 23s-8 19-9 42c-1 21-1 23-5 40-2 5-3 15-4 21-1 10-1 14 0 26 5 36 9 54 20 76 5 10 10 22 13 28 16 33 25 46 39 51 16 6 17 7 16 15-1 4-9 13-20 20-10 8-9 8-38 21-55 25-88 45-110 65-7 8-24 26-28 32-6 10-18 39-21 49s0 13 21 14c15 2 107 2 144 1z"/></svg>