<svg xmlns="http://www.w3.org/2000/svg" width="1344" height="566"><path d="M0 283V0h1344v566H0V283m786 276c5-2 17-2 78 0 40 0 77 1 84 0 6 0 38 0 71-1 52 0 61 0 62-2 6-5-3-19-19-30-10-6-33-17-43-20-9-3-19-8-25-13-2-1-9-6-16-11s-15-10-17-12c-6-5-31-19-40-23-11-5-33-28-43-45-8-14-20-38-22-46-1-4-4-11-8-17-5-8-6-10-6-14 0-2 0-5 1-6 0-1 2-7 3-15 1-7 3-15 3-18 3-9 7-30 9-42 0-6 2-16 2-22 2-12 1-44-1-60-4-26-11-54-15-65-4-10-17-25-28-32-5-3-16-7-33-10-8-2-14-2-27-2-15 0-16 0-34 4-11 3-21 6-24 7-12 7-26 20-34 34-9 16-15 30-28 72-8 28-11 36-21 64-10 29-22 58-32 80-5 10-5 12 1 18s8 9 8 14-1 7-18 34c-16 25-27 43-35 60l-18 36c-7 11-13 23-14 25-3 6-4 19-4 35 1 15 2 20 5 22 1 1 11 1 21 2 10 0 19 0 19 1h117c94-1 117-1 121-2z"/></svg>