<svg xmlns="http://www.w3.org/2000/svg" width="1344" height="566"><path d="M0 283V0h1344v566H0V283m612 278c27-2 23-2 114-1 58 1 81 1 84 0 5-2 6-5 6-19 0-15-2-29-7-45-2-8-4-17-6-22-1-5-3-11-4-14s-3-9-5-14c-1-5-4-11-5-14-3-5-3-6-2-15 1-14 3-12-41-33-5-2-16-8-25-12-8-4-22-10-30-14-21-9-23-12-20-24 3-14 10-47 14-59 4-19 6-34 6-46-2-23-9-96-11-107-1-8-8-28-13-39-4-10-14-24-26-36-17-18-58-39-76-39-6 0-22 4-33 7-4 2-12 4-18 5-13 2-22 6-31 15-27 25-39 56-48 121-2 9-5 30-7 44-9 52-10 80-6 107 3 23 3 30-4 35-4 4-13 7-23 8s-25 7-50 19c-31 16-44 24-47 30-1 1-4 8-6 14-2 5-5 14-8 19-5 12-15 40-19 60-7 28-10 46-10 52 1 8 3 12 6 14s75 3 139 3c27-1 62 0 78 0 49 1 112 1 134 0z"/></svg>