<svg xmlns="http://www.w3.org/2000/svg" width="1344" height="566"><path d="M0 283V0h1344v566H0V283m1090 277c7 0 10-1 11-2 3-3-5-27-14-38-2-3-9-10-14-16s-12-13-15-17c-5-7-15-16-25-24-9-7-17-13-32-26-22-21-36-33-51-43-3-2-8-6-11-9-18-14-24-17-45-18-20-1-25-3-34-11-7-7-12-16-14-26-3-14 0-44 5-54 2-2 7-10 12-16 13-16 20-29 23-41s3-18 1-28c-3-11-2-20 0-37 2-8 2-14 2-26-1-15-1-17-4-25-7-22-17-35-37-48-28-18-49-24-84-24-23 0-31 1-46 6-5 2-20 11-28 16-19 15-30 30-34 51-1 3-2 15-3 24-1 10-1 21-2 24 0 3-2 13-2 23-1 10-3 22-4 29-5 29-5 33 1 58 5 20 8 31 14 46 2 6 5 15 7 20 5 13 9 19 18 27 4 5 7 8 7 10 0 3-6 8-18 13-5 3-13 7-16 9-4 2-10 6-14 8-15 7-33 19-61 42-21 18-31 27-40 39-4 6-10 13-13 17-11 14-16 24-22 45-4 13-4 16 0 19 2 2 2 3 21 3 11 0 45-1 77-1 82-2 166-2 202-1 18 1 69 1 113 2 44 0 90 1 101 1 22 1 48 1 68-1M88 559c10 0 31-1 47-1h30l2-2c5-5 5-26 0-44 0-3-2-13-3-22-2-8-3-17-3-18-1-2-2-10-2-18-3-25-9-63-13-76-5-19-16-43-26-56-13-15-31-29-53-41-6-3-12-7-15-10s-4-4-4-8c0-8 2-15 7-23 5-10 6-16 3-24-1-3-2-6-2-7s2-4 5-8c5-6 8-11 10-19 1-4 3-7 7-11 6-7 8-14 6-22-1-5-7-25-13-40-2-5-2-8-3-29-1-25-1-28-8-39-2-3-6-9-8-13C42 12 38 7 36 5 32 3 10 2 5 4L1 5v551l3 3 4 2h32c17-1 39-1 48-2z"/></svg>