<svg xmlns="http://www.w3.org/2000/svg" width="1344" height="566"><path d="M0 283V0h1344v566H0V283m321 278c6-1 11-1 12-1 0 1 20 1 43 1h319c149 0 147 1 151-1 3-2 5-2 15-1 7 1 28 1 47 1s51 1 71 1c51 2 49 3 48-21-1-15-2-24-9-47-6-25-8-33-9-42-1-13 0-15 8-17 7-1 8-2 21-14 7-7 13-12 16-13 8-4 45-13 64-16 39-6 55-8 63-10 18-4 34-11 39-19 3-4 3-4-1-8l-3-4h-27c-23 0-28 0-36-2-5-1-12-2-15-2-7-1-7-1-18 4l-11 5-24 1c-34 1-48 0-66-7-15-6-17-9-27-34-3-8-8-20-12-27-3-8-7-17-8-20-3-8-7-15-14-23s-10-12-11-18c-1-3-1-5 1-8 2-6 8-10 19-14s16-8 22-16 17-28 20-36c2-7 2-8 2-25 0-27-5-59-11-69-4-7-12-15-19-19-10-5-29-10-42-10-8 0-21 3-29 8-10 5-24 19-29 29-3 6-3 7-3 17 0 6 0 16 1 24 1 14 0 22-3 32-5 14-16 32-25 38-4 3-5 3-15 4-15 1-16 1-22 14-4 8-6 11-29 39-12 15-24 37-29 52-3 12-3 28 0 43 2 7 2 14 3 26 0 15 0 18-3 35-3 20-4 34-2 44 1 5 1 7 0 8-4 3-17-5-23-14-6-10-7-21-9-60-1-32-4-58-10-101-8-56-15-84-29-112-7-14-13-23-22-31-23-21-63-37-92-37-12 0-16 1-35 8-36 13-45 19-57 37-16 25-21 46-19 93 0 13 1 27 0 32 0 4 0 18 1 30s2 32 2 44c0 13 2 31 3 41 0 10 1 23 1 28 1 13-1 15-13 21-5 2-12 5-16 7-12 6-28 11-56 19-9 2-15 3-17 0-1-1-1-5-1-18 1-17 0-33-3-45-2-9-3-17-4-31-3-31-8-52-17-71-8-17-9-23-5-31 4-7 8-12 18-21s16-18 25-37c6-12 7-16 5-30-1-5-3-16-4-25 0-9-2-18-2-21-2-6-7-13-12-17-5-5-22-14-32-18-22-8-54-6-71 3-9 6-14 17-16 37-2 14-1 37 2 49 4 18 3 23-8 31-6 5-9 9-13 20-3 7-4 8-9 13-15 13-24 23-26 27-1 2-3 8-4 13 0 5-2 11-4 14-1 4-4 10-5 14-2 5-8 17-12 27-5 10-10 21-11 25s-3 11-5 17c-4 13-5 30-8 82 0 21-2 44-2 51-1 8-1 21-1 31 0 18 0 20 6 22 3 1 32 3 48 3 22 1 120 0 129-1z"/></svg>