<svg xmlns="http://www.w3.org/2000/svg" width="1344" height="566"><path d="M0 283V0h1344v566H0V283m723 276c7-2 13-13 10-18-1-1-4-5-7-9-5-7-6-10-8-18-2-9-2-18-2-38 0-19 0-24 5-25 1 0 7 0 13 1 33 3 40 3 65 2 42-3 81-8 97-12 4-2 15-6 24-10 18-8 28-15 37-26 9-13 10-15 10-20-1-11-12-32-26-50-17-24-20-26-53-43-15-7-18-9-25-16-10-9-11-9-23-14-5-2-15-6-21-9l-16-8c-2 0-7-3-11-5-3-1-9-4-14-6-8-2-31-15-45-24s-23-19-31-32c-4-8-7-16-7-27-3-31-6-42-18-61-7-10-23-26-32-31-15-9-33-14-56-17-15-1-17-1-29 0-17 2-29 6-45 15-26 15-33 22-41 43-5 13-7 18-21 42-5 10-10 16-13 19-6 6-22 14-31 16-4 0-10 2-12 4-9 4-18 7-27 8-11 2-13 3-21 8-20 13-29 18-58 27-32 10-36 13-53 43l-3 6v15c0 19 2 29 9 45 4 8 6 10 15 20 19 18 46 41 61 48 10 5 16 10 18 16 3 6 4 20 3 41-2 37-5 59-12 80-5 12-4 19 4 21 1 0 11 0 21-1 12-1 39-1 82 0h88c59 0 78 0 86 1 15 1 108 1 113-1z"/></svg>