<svg xmlns="http://www.w3.org/2000/svg" width="1344" height="566"><path d="M0 283V0h1344v566H0V283m390 276c13-1 58-1 99-1 42 0 83 0 93-1 9-1 30-1 47-1 17 1 61 1 99 1 37 1 79 1 93 2 46 1 86 0 99-1 17-2 17-1 16-25 0-17 0-19-2-29-2-5-5-13-7-18-7-14-22-26-55-43-10-4-21-10-26-11-11-5-29-13-39-18-7-3-9-6-15-12-9-10-11-16-11-21 1-5 5-15 13-32 7-15 10-21 14-39 5-20 8-42 11-75 1-6 2-14 3-18 2-7 2-9 2-31 0-51-9-88-30-118-12-18-23-29-36-37-12-7-38-20-44-21-8-2-61-4-87-4-18 1-20 1-28 3-18 6-37 17-48 29-12 12-30 40-36 56s-7 18-7 46c0 13 1 32 1 42 0 17 0 18-3 31s-3 15-3 29c0 15 0 16 2 24 5 12 8 17 15 24s9 8 20 12c11 3 15 5 18 11 3 8 4 14 1 20-6 12-41 43-59 52-2 1-10 3-18 5-15 3-30 8-37 11-2 1-5 2-7 3-2 0-8 3-14 6-7 2-15 6-20 8-15 6-41 18-47 23-8 5-17 14-24 24-8 13-31 53-39 72-7 16-8 21-2 23 4 1 59 1 98-1z"/></svg>