<svg xmlns="http://www.w3.org/2000/svg" width="1344" height="566"><path d="M0 283V0h1344v566H0V283m722 174c5 0 12-1 16-2 9 0 29-4 34-6 3 0 7-1 9-2 2 0 5-1 6-1 1-1 5-2 9-2 9-2 21-6 24-7 1 0 3-1 6-1 2-1 6-2 9-3 11-4 22-4 41-3 18 2 22 2 23-3 0-3-1-21-4-33 0-6-2-21-2-35-1-26-1-30-5-37-3-5-13-14-18-16s-12-6-13-8c-1-1-2-5-3-10-1-7-1-7 1-9 4-3 4-5 1-24-1-10-4-25-5-33-2-8-5-19-6-26-3-11-5-18-8-28-1-3-2-7-3-10 0-2-1-4-1-5-1-1-1-4-2-7s-2-8-2-10c-1-3-3-10-5-14-3-13-11-29-17-39-6-8-17-20-25-25-19-13-35-21-43-24-4 0-10-1-13-1-8 0-24 2-31 4-2 1-8 2-11 3-21 3-34 12-44 27-11 18-17 35-20 60-1 15-5 40-6 49-1 7-2 70-1 92 1 19 1 19-9 21-3 1-9 2-14 3-8 2-9 2-19 1-13-2-29-1-34 1-2 1-5 4-7 5-4 5-21 17-22 17 0 0-3 2-5 4-3 2-12 8-21 15-10 6-20 13-24 16-8 6-13 8-22 8-12 1-13 2-16 14-2 6-12 30-14 33 0 0-3 7-5 15-3 7-6 17-8 20l-2 8c1 3 10 2 17 0 12-5 22-7 35-9 11-2 16-2 32-1 12 0 20 0 23-1 4 0 7-1 10 0 4 1 5 1 7-1 2-1 5-3 7-3 4-1 16 1 22 3 3 1 9 2 13 3 5 1 11 2 15 3 12 2 48 3 57 1 6-1 31-1 39 1 2 0 9 2 16 2 13 2 21 5 25 9 4 3 3 3 13 1z"/></svg>