<svg xmlns="http://www.w3.org/2000/svg" width="1344" height="566"><path d="M0 283V0h1344v566H0V283m558 230c14-2 21-4 35-10 6-3 13-5 16-6 21-2 26-2 29-3 2-1 32-1 94-2 93 0 112-1 130-4 6-1 17-3 24-4 12-2 15-3 21-6s7-3 32-6c13-2 22-5 31-11 8-5 12-11 17-23s5-16 2-20c-2-2-4-2-10-3s-7-1-11-5l-6-4c-1 0-5 1-10 2-8 1-12 3-22 10-5 4-13 7-16 7s-4-2-5-10c-1-9-3-11-13-24-7-9-12-18-12-22 0-1-6-13-12-27l-17-34c-7-15-20-38-27-47-11-15-13-16-59-43-7-3-19-11-27-16-9-6-19-12-22-14-16-7-37-16-49-20-16-6-24-10-31-14-5-4-20-9-38-14-10-3-13-5-20-16-17-27-41-36-65-27-12 4-23 17-28 31-4 9-7 24-7 29 0 4 2 12 5 20 2 6 3 7 9 10s10 7 15 15c1 2 5 6 7 9 7 8 8 11 7 16-2 4-12 17-18 22-3 2-9 8-14 14-5 7-13 16-19 21-5 5-12 11-13 14-5 6-19 33-23 43-7 19-26 53-35 62-1 1-3 5-4 7-2 2-5 7-7 9-7 9-12 18-14 24-3 10-3 14 1 20 4 5 8 15 12 24 1 2 3 5 4 8 3 4 7 7 19 11 4 1 22 5 30 6 30 3 91 4 114 1z"/></svg>