<svg xmlns="http://www.w3.org/2000/svg" width="1344" height="566"><path d="M0 283V0h1344v566H0V283m745 185c9 0 18-1 19-2 3-1 16-5 24-7 10-1 24-4 33-7 31-9 36-9 63-9l20 1 2-2c2-3 2-3 2-14-1-6-2-16-3-21-2-13-3-30-4-50 0-9 0-18-1-20-1-5-9-17-12-19-2-1-7-3-12-5-7-3-9-4-16-10-7-7-8-8-13-9-9-2-13-4-13-6 0-1 0-2 4-2 17 0 19 0 21-2s2-2 1-9c-1-4-1-12-2-17 0-10-3-26-8-41-1-5-3-11-4-15-2-9-7-27-10-36-1-4-3-11-7-28-4-13-7-20-13-32-12-28-26-41-60-59-16-9-21-10-34-10-9 0-12 0-22 3-6 2-16 4-24 6-16 4-25 8-32 16-16 17-23 36-28 70 0 7-1 13-1 13-1 0-1 5-2 11-1 5-2 14-3 19-1 8-1 17-1 55 1 24 1 49 2 54 0 12 0 12-14 14-9 1-11 1-23-1-13-2-26-2-30 0-1 1-6 5-11 9-4 4-9 9-11 9-4 3-13 9-23 16-3 2-12 8-19 12-6 5-15 11-20 14-11 10-15 11-25 12-5 0-10 1-12 2l-4 1v7c1 6 0 10-11 34-6 14-9 21-10 28 0 4-2 9-2 11-2 5-2 6 0 7 3 4 7 3 18 0 10-3 12-3 30-4 20-1 27-2 49-5 7 0 14-1 17-1 2 1 6 0 7-1 4-1 24 0 31 2 5 2 27 5 42 7 4 0 13 2 18 2 13 3 17 3 23-1 4-2 5-2 22-2 9 0 19 0 22 1 2 1 9 2 14 2 13 2 20 4 24 8 2 3 3 3 9 3 3-1 13-1 23-2z"/></svg>