<svg xmlns="http://www.w3.org/2000/svg" width="1344" height="566"><path d="M0 283V0h1344v566H0V283m514 278c13-1 68-1 122-2 61 0 102 0 113-1 12-1 22-1 40 0 29 1 57 1 71 0 9-1 16-1 34 1 19 1 30 1 56 1 18-1 33-1 33-2 3 0 3-3 2-5-2-4-18-24-24-31-13-14-22-27-27-43-3-11-9-23-14-28-1-2-6-6-9-8-14-10-23-25-31-52-3-9-4-14-6-26-2-22-4-33-6-39-1-2-6-10-10-16-3-6-9-16-13-22-8-16-14-25-25-36-11-12-14-17-15-24 0-3 0-16 1-28 1-27 0-34-5-57-2-7-4-16-5-21-3-14-9-32-12-39s-8-13-16-18c-3-2-7-5-10-7-4-3-24-13-37-17-9-3-11-3-30-4-23-1-30 0-40 5-2 1-8 3-13 4-7 1-11 2-15 5-3 2-9 5-12 7-5 2-8 5-16 13-9 10-10 12-16 24-6 14-6 14-8 29-1 13-1 17 0 27 2 18 1 28-1 38-5 22 2 44 17 59 6 5 7 8 10 14 2 7 2 8 2 18-1 12-5 35-8 42-1 5-5 9-7 9-1 0-4 2-6 3-5 4-9 10-14 18-8 18-12 23-22 32-5 6-11 11-13 11-1 1-5 2-8 4-5 2-7 2-14 1-9 0-10 0-34 10-7 4-16 7-19 9-12 4-16 6-29 13-11 6-13 7-15 11-1 2-4 6-6 9-8 9-28 41-35 54-2 3-3 7-3 8 0 2-1 6-2 10s-3 10-3 14c-2 16-2 15 0 18 4 4 6 4 24 5 30 1 102 1 129 0m-187-8c3-2 7-11 12-27 9-29 18-56 29-80 4-10 19-39 23-44 5-9 16-24 19-27 4-4 4-8 3-13-4-13-5-26-3-41 1-9 2-10 9-10 2 1 6 1 8 1 3 0 7 1 11 3 9 3 10 3 16-7 6-9 6-13 2-22-4-7-4-7-1-11 2-2 2-3 1-6-2-5-9-13-15-16-3-2-5-4-6-5s-1-4 1-10c0-1 0-2-2-4s-3-2-9-2c-4 0-10 0-12 1-5 1-14 6-21 13-4 4-5 5-6 25-1 12-1 13 1 19 1 3 3 8 5 11 3 6 2 8-3 10-3 0-6 2-8 4s-5 4-6 5-3 5-5 12-4 14-4 16c-2 7-10 19-19 32-4 6-9 12-11 15-5 7-18 23-27 33s-26 32-30 39c-2 3-5 9-7 12-5 8-34 67-34 68 0 4 3 5 13 5 6 0 16 1 23 1 7 1 21 2 32 2 15 0 19 0 21-2z"/></svg>