<svg xmlns="http://www.w3.org/2000/svg" width="1344" height="566"><path d="M0 283V0h1344v566H0V283m855 61 12-12c2-1 3-3 4-5 1-4 2-40 1-46-1-4-2-6-8-13-4-4-7-9-8-10 0-1-1-5-1-10-1-4-1-9-2-11s-1-11-2-20-1-18-2-19c-1-2-1-7-2-11-2-14-8-25-18-30-6-3-7-3-19-3-11 0-13 0-18 2-6 3-14 11-16 16-2 4-4 22-3 28 0 3 1 9 1 13 0 9-1 12-7 12-2 0-5 1-6 1-6 3-7 5-9 18-1 15-2 18-5 22-2 2-4 6-5 8-2 5-4 7-13 13s-10 7-13 12c-1 4-2 7-3 13 0 10 1 15 4 18 3 1 14 4 24 5 4 0 13 1 19 3s12 3 14 3c1 1 8 2 15 3 18 4 50 10 53 10 1 1 2 1 3 1 0 0 5-5 10-11z"/></svg>