<svg xmlns="http://www.w3.org/2000/svg" width="1344" height="566"><path d="M0 283V0h1344v566H0V283m898 278c8-1 9-2 6-11-2-5-2-8-1-9 1-2 10-6 20-10 28-8 30-10 37-23 9-19 8-33-4-58-6-12-11-17-36-44-10-10-21-22-24-26l-4-7-1-10c0-11 1-16 6-42 8-40 6-56-11-89-12-25-24-38-42-47-18-10-34-13-59-13s-44 3-67 10c-4 2-12 3-16 4-10 2-12 3-30 18-14 12-17 18-15 37 1 13 2 11-6 39-2 5-3 13-3 20-1 13-4 27-10 38-7 16-9 25-5 37 3 8 3 16 1 22-1 3-3 6-8 11l-6 6-6-1c-10-1-15 0-19 7-2 2-6 6-9 8s-6 5-8 8c-6 11-12 23-14 30-2 8-4 28-2 32 0 2 1 9 1 16 1 13 1 15-1 21-2 4-3 10-4 13-1 5-1 5 1 7 3 2 16 4 31 4 6 0 15 1 20 2 6 1 14 1 58 1 29-1 58-1 66 0 23 1 158 1 164-1z"/></svg>