<svg xmlns="http://www.w3.org/2000/svg" width="1344" height="566"><path d="M0 283V0h1344v566H0V283m696 279c21-2 46-3 72-2 9 1 55 1 100 1 86 1 86 1 86-4 0-2-6-8-12-11-7-4-30-13-43-17-7-2-27-8-46-13-11-2-20-7-27-14-8-9-11-13-11-18 0-3 3-9 17-38 2-4 5-11 6-14s4-9 6-13c5-9 11-32 14-48 2-13 3-44 4-93 0-35 0-38-2-50-3-20-13-46-25-66-15-26-31-41-59-56-26-13-40-16-76-19-31-2-37-1-57 6-19 6-27 11-39 20-29 21-47 47-54 80-3 11-4 21-6 48-1 14-2 23-8 45-1 5-1 12-1 22-1 16 0 18 7 22l5 5c2 3 1 10-1 17-2 5-2 7-2 22 1 13 1 17 3 24 2 4 3 10 4 14 1 8 4 17 9 32 3 7 5 14 5 16 0 7-15 24-26 29-12 6-29 13-36 15-3 0-9 2-11 3-2 0-12 3-21 6-28 9-30 10-41 14-6 3-17 7-25 10-26 10-34 16-28 21 2 2 3 2 33 3 17 1 40 1 50 1 64-2 169-2 179 1 6 2 36 1 57-1z"/></svg>