<svg xmlns="http://www.w3.org/2000/svg" width="1344" height="566"><path d="M0 283V0h1344v566H0V283m727 185c5-1 14-1 20-1 10-1 13-1 24-4 7-2 15-4 19-5 10-2 17-4 25-6 4-1 10-3 13-3 4-1 9-3 12-3 9-3 23-4 43-4 25 1 24 2 24-12 0-5-1-14-2-20-3-14-4-28-5-53l-1-20-3-7c-5-10-9-13-20-17-8-3-9-4-16-11-5-5-7-7-11-8-2 0-6-1-10-2-6-2-8-4-6-6 0-1 6-1 12-1 15 0 16 0 15-9-1-3-1-11-2-17-1-11-5-34-9-44 0-2-2-7-2-11-2-7-5-17-8-28-4-13-7-24-8-30-5-20-13-38-22-56-5-8-22-25-31-31-4-2-8-4-10-6-6-4-24-13-30-15-10-2-23-2-36 1-12 4-19 5-30 8-13 3-21 7-28 14-15 17-23 37-27 71-3 17-5 33-6 42-2 13-3 74-1 99l1 18-2 3c-5 4-21 5-35 2-10-1-23-1-28 0-3 1-7 4-11 8s-12 9-17 12c-4 4-13 10-19 14-5 4-14 10-20 14-5 3-13 8-17 12-12 9-17 11-28 12-12 1-14 2-15 11 0 5 0 8-4 17-3 7-6 13-7 16-3 5-7 15-10 27-2 6-4 13-5 15-2 4-2 5-1 7 1 1 3 1 9 1 4-1 10-2 12-2 9-4 19-6 24-6 2 0 8-1 13-2 4 0 16-2 28-2 30-2 39-2 42-4 3-1 11 0 28 4 7 1 14 3 18 3 3 1 8 1 12 2s9 1 12 1c2 0 7 1 10 2 3 0 10 2 16 2l11 1 5-3 4-2h20c13 0 21 0 24 1s8 2 12 3c9 1 14 2 20 6 2 3 5 4 6 3 1 0 5-1 9-1z"/></svg>