<svg xmlns="http://www.w3.org/2000/svg" width="1344" height="566"><path d="M0 283V0h1344v566H0V283m478 136c4-1 12-3 18-5 16-6 19-7 28-7 5 0 14-1 20-2 10-1 13-1 25 0 8 1 15 1 15 2 1 0 7 1 13 1 7 1 19 1 27 2s26 1 40 1c24 0 33 1 45 4 8 1 20 1 30 0 4-1 14-3 21-3 14-2 24-4 34-7 3-1 11-3 18-5 23-5 28-7 36-10 5-2 9-2 18-3 8 0 13-1 15-2 3-2 3-6 2-21 0-8-1-19-2-26-1-10-2-14-4-20-7-18-7-17-14-18-3 0-4-1-6-8-1-4-3-9-5-11-1-3-4-7-5-9-2-5-3-6-9-8-9-3-9-4 1-5 8 0 12-2 12-7 0-3-5-24-12-50-4-15-7-29-9-39-3-14-10-36-17-48-4-8-16-22-24-29-12-10-32-18-50-21-7-1-9-1-25 1-18 3-28 6-41 13-18 10-32 31-37 55-2 9-2 16-3 52-1 42-2 59-4 63-1 3-3 3-10 2-3-1-8-1-10-1-7 1-17 6-20 9-1 2-6 6-10 9-7 5-11 11-16 22-5 10-9 15-18 22-14 12-19 16-29 20-5 2-12 5-14 7-9 5-18 7-29 7-9 1-9 1-13 4-3 3-15 30-20 44-1 2-3 7-4 10-5 11-4 12 7 14 17 2 25 2 35 1z"/></svg>