<svg xmlns="http://www.w3.org/2000/svg" width="1344" height="566"><path d="M0 283V0h1344v566H0V283m667 279c16-1 35-1 43-2 9-1 20-1 24-1 22 0 246 1 305 1 48 0 66 0 68-1 4-2 4-7 3-18-3-19-11-37-25-60-11-19-17-27-31-41-7-7-14-13-20-17-13-9-39-23-57-33-8-4-17-9-21-12-3-2-10-6-14-9-5-3-12-7-15-8-27-17-49-28-62-31-8-2-12-4-14-10-2-4-3-6-3-24 0-17 1-21 3-27 1-4 2-9 2-11 1-3 4-11 7-19 10-25 14-39 15-53 0-8 0-9-3-18-4-11-5-18-6-42-2-33-9-50-27-68-14-14-23-19-48-27-14-4-24-6-43-7-25-2-44 1-64 8-13 5-15 6-25 12-12 7-17 11-26 21-10 10-16 22-20 34-2 8-2 12 0 93 1 64 0 61 14 92 10 24 13 31 23 50 6 11 10 21 11 22 0 4 0 4-5 10-5 5-34 28-58 47-6 5-23 17-38 26-14 9-32 21-40 26-32 21-57 34-64 34-5 0-7 1-17 10-3 3-6 6-7 6-2 0-5-5-5-8 0-1-1-5-2-10-2-4-4-14-6-22-9-43-15-62-26-81-17-30-35-49-59-63-15-9-21-13-27-15-2-1-11-5-18-8-18-9-36-17-51-23-14-5-28-13-35-19-3-4-3-7 3-10 9-7 15-12 18-17s17-48 22-66c10-33 11-42 12-69 1-15 1-26 2-30s2-11 3-17V46l-5-12c-2-8-5-16-6-18-2-6-6-9-12-11-2-1-42-1-118-1C21 4 7 4 4 6L1 7v271c0 270 0 272 2 276 1 2 3 4 4 5 3 2 12 2 49 0 29-1 131-3 158-2h212c5 0 14 0 19 1 13 1 45 3 73 4 22 1 50 1 149 0z"/></svg>