<svg xmlns="http://www.w3.org/2000/svg" width="1344" height="566"><path d="M0 283V0h1344v566H0V283m1213 278c39 0 74-1 78-2 4 0 15 0 25 1 19 1 22 1 25-4 1-2 1-32 1-168V219c-1-2-2-3-5-5-12-5-21-24-21-43 0-5 0-10 1-12 1-3 2-10 4-33 2-13 1-35-1-45-3-9-7-17-14-27-3-3-6-7-8-9-1-2-3-4-5-5-6-2-34-3-52-2-17 1-22 2-24 7-1 1-3 4-5 5-2 2-4 5-5 7s-5 7-8 11c-10 12-11 16-10 41 0 11 1 24 2 29 1 4 2 12 2 17 1 6 2 12 4 18 2 5 4 11 4 13 3 10 7 19 10 22s6 5 13 8c4 2 9 4 10 5 3 2 5 6 5 9 0 4-9 16-20 28-15 16-20 23-26 48-3 10-6 22-7 26-4 12-8 28-9 35 0 3-1 8-1 9-1 2-2 14-3 28-2 35-4 48-7 57-4 7-23 26-32 31l-6 3-5-1c-7-2-26-10-32-12-6-3-14-4-16-2-4 4-2 9 6 17 10 9 8 13-12 28-4 4-7 7-7 8 0 2 3 5 8 7 1 1 4 4 7 6 4 6 7 7 11 7 3 0 8 2 12 5 4 4 12 5 28 5 8-1 46-1 85-2m-736 0c2-2 6-8 6-13 0-2 3-5 5-5 0 1 4 1 8 2 3 1 7 1 9 2 4 2 11 1 15-1 4-3 8-8 9-12 0-1 1-5 2-8l1-5-2-4c-4-6-14-15-18-17-3-1-10-8-16-14-10-10-12-13-13-16-1-9 2-32 7-44 2-5 5-20 5-24 0-13-11-49-19-64-4-8-13-17-23-25-4-3-9-7-10-8-5-3-5-6-1-13 2-3 6-9 7-13 4-9 5-10 12-13 8-4 9-8 12-25 0-8 1-17 1-20-1-4-1-13-2-21s-2-20-2-26c-3-16-6-21-22-30-18-12-47-15-67-7-19 7-25 14-31 35-2 8-2 14-3 30-1 12-1 27-2 34-1 6-1 25-2 40 0 34 0 33-12 56-4 9-8 18-8 21-1 4-3 11-5 17-4 11-5 18-6 38-1 8-2 19-3 24-2 9-2 14-2 30 0 20 1 28 6 43 3 9 5 18 5 26 2 11 3 13 7 18 3 2 5 4 5 4s5 0 10 1c9 1 10 1 14 4l4 2 43 1c72 1 73 1 76 0m261-2c17 0 31-1 31 0 1 0 91 2 123 1 30 0 37 0 41-4 3-3 3-3 4-12 0-12-4-62-7-79 0-5-1-18-2-30 0-22 0-26 5-75 2-22 2-40 0-47-1-3-3-12-5-19-2-8-4-17-5-21-5-30-16-58-29-76-7-9-7-10-9-22 0-4-1-7-1-8-2-3-6-5-12-5s-9-2-13-10c-8-11-8-12-9-28 0-8 0-19 1-24 0-4 2-15 2-23l1-15-2-8c-6-16-14-27-29-37-8-5-20-8-31-8-15 1-24 3-38 11-11 5-15 8-20 13-5 4-8 9-10 13-2 5-2 6-2 16 1 10 1 14-1 24-2 9-2 13-1 16 1 6 1 12-1 20-2 9-1 12 2 18 2 2 6 9 9 14 9 14 15 23 19 26 4 2 14 6 17 6 4 0 10 4 15 8 2 3 4 5 4 6 0 0-1 2-2 3-7 9-17 27-17 33-1 4-5 17-16 50-2 9-6 24-8 34-7 30-13 54-15 63l-7 28c-3 12-7 25-8 29-2 5-5 18-8 30s-6 24-7 26c0 2-1 7-2 10-1 4-3 11-5 18-3 10-6 25-6 29 0 1 1 3 3 5l2 3h9c5-1 23-1 40-2z"/></svg>