<svg xmlns="http://www.w3.org/2000/svg" width="1344" height="566"><path d="M0 283V0h1344v566H0V283m342 278c5-1 10-2 12-2 3-2 8-2 29-1 13 0 26 0 27 1 4 0 9-2 11-7 2-3 4-17 6-31 0-7 2-8 9-6 6 1 7 1 18-5 2-1 5-2 7-2 5 0 10-9 9-15-1-1-4-5-8-9-10-10-17-19-18-22-2-4-6-7-10-7s-5-1-7-7c-5-10-4-24 3-49 2-7 3-14 3-17 0-9-2-23-4-29-1-3-3-9-4-13-5-14-16-30-28-40-10-8-18-16-18-18 0 0 1-2 3-4 3-4 6-10 10-19 2-4 4-6 8-9 6-4 7-6 9-14s5-31 4-33c-1-1-2-9-2-18-1-27-5-39-13-45-2-1-9-5-14-8-10-5-12-5-24-7-16-2-22-2-35 3-22 9-28 24-32 86-2 43-2 65-1 70 1 4 1 6-1 9-1 3-4 8-7 11-5 7-10 19-13 31 0 3-2 7-2 9-1 2-2 5-2 6 0 2-1 5-2 9-1 3-2 10-2 18-1 7-2 14-2 16-1 5-4 32-4 39 0 3 1 13 2 21 2 13 3 18 5 24 6 13 6 18 6 47 0 18 0 25 1 27 0 1 1 3 1 4 0 2 1 3 1 4 4 2 50 4 69 2m965 0c3-1 5-5 6-14 5-42 5-45 7-165 0-28-6-65-14-86-8-19-9-22-14-30-8-14-11-18-26-33-8-7-16-15-18-18-9-13-12-16-20-17-7-1-15-5-17-10-1-2-3-9-4-15-2-11-2-13-2-41 1-34 0-49-3-60-6-15-9-19-24-27-12-6-19-7-34-6-19 2-33 9-46 22-14 14-16 21-13 35 1 6 1 10 1 17-1 8-1 12 0 18 1 3 2 10 3 13 0 10 6 31 10 34 0 1 2 5 3 10 3 9 7 13 16 17 8 3 9 3 10 8 1 3 1 4-2 11-3 6-6 9-14 17-6 5-12 10-14 11-3 2-4 3-3 6 1 2-1 12-7 30-6 19-11 35-12 40 0 3-1 7-2 10 0 2-1 6-1 8s-1 8-2 12c0 5-1 14-2 22-4 54-4 50-14 64-6 7-12 14-21 19-7 4-10 4-35-7-7-3-10-4-14-4-9 1-9 5-1 15 8 11 7 14-13 32-2 1-4 4-4 5 0 3 3 6 6 6s5 2 10 11c4 8 6 10 10 8 7-4 13-1 16 5l1 4h15c8 1 16 1 18 2 4 0 8 5 8 10 0 3 0 5 1 6 2 3 15 4 96 5 44 0 80 0 80 1 1 0 78 0 79-1m-629-3h122c17 0 43 0 58 1 31 1 32 1 34-6 2-4 1-29-1-47-1-7-2-15-1-17 0-6 1-24 1-59 1-15 1-34 2-42 0-7 1-21 2-31s2-26 2-36c4-48-2-66-34-106-4-6-9-11-9-12-1-2-18-16-28-24-3-2-6-5-9-11-5-9-7-11-13-11-3 0-5-1-7-3-5-4-6-12-6-31-1-11-1-16-2-19-2-3-2-5-1-10 1-3 1-7 1-8-1-1-1-7-2-14-1-16-4-23-12-31-8-9-15-12-27-14s-21 0-32 6c-8 4-23 17-25 21-3 5-4 17-4 41 0 23 0 25 2 30 2 3 4 7 5 9s6 10 11 19 10 16 11 17c3 3 10 16 10 18 0 3-5 10-15 20-10 11-11 13-12 18-2 6-6 19-11 32-2 6-4 14-8 29 0 3-2 10-3 16-5 18-16 74-18 91-3 22-3 26-7 39-3 9-3 11-2 16 1 6 0 16-3 43-1 5-2 14-2 20-1 7-2 15-3 20-3 11-3 18 0 21 1 1 5 3 9 4s8 2 9 3c0 0 2 0 4-1 2 0 8 0 14-1z"/></svg>