<svg xmlns="http://www.w3.org/2000/svg" width="1344" height="566"><path d="M0 283V0h1344v566H0V283m946 279c29 1 133 1 146 0l15-1 10-4c17-9 28-22 29-34 0-8-1-10-7-10-7 0-12-3-16-9-2-4-4-6-6-7-3-1-3-1-16 2l-8 2-8-5c-5-3-10-7-13-8-9-6-18-21-29-52-2-4-5-11-7-16-4-10-10-23-10-24s-2-7-5-13c-14-36-20-47-28-55-6-6-9-8-38-22-37-19-41-22-45-28-2-4-2-5-2-18 0-7 0-16 1-20 1-5 1-16 1-25 0-24-3-38-12-57-9-17-18-27-33-37-6-3-13-8-16-10-7-5-20-11-27-14-14-5-49-7-61-4-11 3-18 6-27 11-14 7-22 12-32 22-10 11-17 22-20 31-3 8-5 20-5 24s-4 15-10 27c-9 17-9 19-10 42 0 17-1 21-2 23-2 3-11 8-19 11-16 5-43 16-52 20-10 5-23 14-29 20-7 6-9 11-16 34-8 25-27 69-44 99-15 28-17 32-22 47-7 18-8 21-13 25-2 2-5 5-6 7-4 5-3 5-19 2-6 0-10 0-12 4-1 2-1 2 0 4s4 4 6 5c5 2 22 4 63 5 15 0 30 1 34 2s27 1 99 1c65 1 95 1 97 2 3 0 16 1 41 0 122-1 135-1 146 0 7 1 13 2 19 1h18z"/></svg>