<svg xmlns="http://www.w3.org/2000/svg" width="1344" height="566"><path d="M0 283V0h1344v566H0V283m598 278c18-1 24-1 120-1 50 0 66 0 69-1 5-2 7-6 8-21 0-16-2-29-9-58-7-28-11-40-16-52l-4-8 1-11c0-10 0-11-2-13s-8-5-17-9c-8-4-23-11-33-15-10-5-23-11-29-13-14-6-20-9-24-13s-4-6 1-35c4-22 4-28 7-52 1-13 1-37-1-55 0-8-1-16-2-17 0-1-1-8-1-15-5-47-20-94-38-118-6-8-16-18-25-24-8-6-30-17-39-20-6-2-9-2-19-2-12 0-16 0-31 6-4 2-11 3-17 4-8 1-12 2-17 4-22 10-40 33-51 63-10 29-26 103-32 153-2 19-2 57 0 72 3 18 2 27-4 31-1 1-5 2-13 2-18 1-29 6-63 24-30 16-37 20-40 27-1 3-2 9-3 14s-3 14-4 20c-2 6-5 16-7 24-1 7-5 22-8 34-6 26-12 53-12 60 0 6 3 9 14 12 7 1 12 1 57 1h89c11 1 38 1 59 2 21 0 39 0 39 1 1 0 81 0 97-1z"/></svg>