<svg xmlns="http://www.w3.org/2000/svg" width="1344" height="566"><path d="M0 283V0h1344v566H0V283m1329 279c2 0 6-1 7-2 6-3 6-2 6-77 0-43 0-71-1-73 0-2-4-8-7-14-11-20-17-36-21-55-1-4-3-19-4-33-3-53-4-61-8-82-1-4-2-9-3-13-1-7-8-21-12-24-10-8-18-14-21-16-8-3-67-4-74-1-1 1-4 2-4 2-1 0-6 2-10 5-8 4-13 9-15 15-1 5-5 18-6 24-2 7-5 14-8 17-1 1-3 5-4 8-2 3-4 6-5 7-4 4-5 11-3 18 2 3 2 10 2 23 0 23 0 23-14 26-10 3-15 5-26 14-7 6-10 10-18 23-18 26-18 27-14 42 3 9 2 18-1 22-1 1-5 4-8 6-13 7-19 14-19 22 0 3 0 8 1 12 1 5 1 12 2 16 0 10 1 10 15 21 13 9 25 13 52 17 13 2 13 2 1 29-4 10-5 17-3 19 3 2 18 2 113 3 54 0 99 0 99 1h3c2-1 6-1 8-2z"/></svg>