<svg xmlns="http://www.w3.org/2000/svg" width="1344" height="566"><path d="M0 283V0h1344v566H0V283m966 277c12 0 16-2 17-6v-12c-1-6 0-14 1-21l1-11-3-12c-4-12-5-21-7-46-1-9-1-19-2-23s-2-11-3-17c-1-11-4-23-7-36-1-4-2-9-2-10s-1-7-3-13c-1-6-3-13-3-15s-2-8-2-12c-1-3-3-10-4-14-1-7-2-11-5-22-2-9-6-16-11-23-6-7-11-12-14-12-1 0-4-1-6-2s-4-2-5-2-5-2-20-12c-4-3-11-9-16-13-8-9-8-9-8-14s1-7 6-9c2-1 3-3 3-9 1-4 2-10 3-14 6-16 4-49-4-64-3-7-16-20-23-24-8-4-19-6-33-5-17 0-24 2-30 5-8 4-18 14-22 22-2 5-2 6-2 22 0 13 0 18 1 24 2 7 2 10-1 15-2 2-3 3-5 3-4 0-12 7-14 12-2 7-5 20-7 34-2 12-3 17-5 19-1 1-6 4-12 7-5 2-10 5-12 6-1 1-3 6-4 10-3 8-7 18-9 23-1 2-5 11-8 20-10 26-9 26-18 46-4 9-3 25 1 35 7 13 26 21 44 18 4-1 8-2 9-2 4-2 5 1 5 6-1 6-2 9-9 32-2 8-4 16-5 17 0 2-1 6-3 9-1 4-4 11-6 16-1 4-3 10-4 12-1 3-2 11-2 22-1 10-2 21-2 24-1 4-1 7 0 8 4 7 29 10 65 7 13-1 29-1 69-1 66 1 114 2 115 3 0 1 3 1 5 1 2-1 9-1 16-2z"/></svg>