<svg xmlns="http://www.w3.org/2000/svg" width="1344" height="566"><path d="M0 283V0h1344v566H0V283m765 278c20-3 25-5 27-7s1-9-3-17c-4-9-6-20-7-43 0-9-2-21-2-26-4-22-5-36-5-75 0-22 0-41-1-45-3-20-8-43-13-55-4-10-10-18-25-32-8-7-16-15-17-17-4-7-2-19 7-42 7-19 7-25 7-52-1-13-1-27-2-31 0-4-1-11-2-16-1-11-6-26-11-34s-20-24-30-31c-9-7-36-21-43-23-2-1-8-2-12-4-10-3-25-4-47-4-30 1-46 6-63 17-22 16-37 37-46 66-1 4-3 19-6 40-1 10-2 17-3 19-1 1-4 3-7 4-3 2-5 4-6 6-2 4-2 4-1 18 2 19 1 23-10 41-16 26-21 31-36 38-10 5-26 16-64 42-36 25-51 41-81 87-5 6-9 14-11 17-3 6-6 17-6 20 0 1-1 3-2 6s-2 13-5 42c0 5-1 26-1 47 0 35 0 37 2 39 3 5 7 5 41 5 47-1 158-2 180-2 11 0 30 0 42 1 15 1 52 1 114 2h92c0 1 10 1 23 1 18 0 24 0 33-2z"/></svg>