<svg xmlns="http://www.w3.org/2000/svg" width="1344" height="566"><path d="M0 283V0h1344v566H0V283m820 278c55-1 92-2 180-1 58 0 107-1 114-3 2 0 5-2 7-3 2-2 2-3 1-6-1-6-7-24-13-40-3-8-9-21-12-28-8-21-10-25-14-30-5-7-13-18-15-20-2-1-7-9-19-27-22-35-26-42-28-53-2-9-1-12 5-13 4-1 18-4 30-8 5-1 12-2 15-2 6 0 9-2 13-10 2-5 3-8 4-17 1-11 1-13-3-24-4-8-8-23-9-32-1-11-4-19-7-25-6-12-26-26-69-46-10-5-20-10-22-12-5-4-10-14-14-29-6-19-9-25-20-48-7-15-12-23-18-31-17-23-44-42-64-45-14-2-40-3-74-3s-37 0-46 2c-5 1-12 3-16 5-4 1-8 3-10 4s-6 3-9 6c-3 2-8 7-12 9-3 3-7 6-8 8-1 1-5 6-10 11-8 9-17 24-24 39-2 5-4 10-5 12-3 5-18 26-23 32s-7 14-5 25c1 7 6 21 10 30 2 2 5 11 7 19 6 16 9 22 15 25 2 1 7 5 11 11 4 5 9 11 12 14 10 10 16 27 18 50 2 20 5 26 16 32 5 2 10 6 17 14 6 6 14 14 18 17 14 14 16 22 9 38-2 4-4 9-4 9 0 1-2 6-5 11-4 9-7 13-14 21-14 16-19 27-31 75-7 28-7 33-4 36 4 3 35 3 125 1z"/></svg>