<svg xmlns="http://www.w3.org/2000/svg" width="1344" height="566"><path d="M0 283V0h1344v566H0V283m762 192c3 0 7-1 9-2 2 0 8-2 15-3 6-2 12-4 14-4 3-1 7-2 10-3 3 0 10-2 16-4 5-1 12-3 15-4 3 0 8-2 11-3 6-1 30-2 46-1 10 1 11 1 13-1s2-3 2-11c0-5-1-13-1-18-2-9-4-38-6-64-1-14-1-15-4-21s-8-10-20-15c-4-1-9-4-12-5-2-2-7-5-10-6-2-2-6-4-7-5-3-4-7-6-10-6-2 0-4-1-5-2-3-3-2-5 5-7 9-2 9-2 8-15-5-46-10-75-17-101-2-4-3-11-4-13-2-8-4-18-6-23-14-39-23-54-42-70-11-10-16-13-31-20-12-7-17-9-29-10s-20 0-32 6c-6 3-10 4-13 4-7 0-19 3-24 6-3 1-8 5-11 7-6 6-17 22-21 31-5 13-15 45-17 58 0 3-1 8-2 12-1 5-1 17-2 45 0 38 0 45 4 78 1 13 1 14-1 16-2 3-7 3-24 1-19-3-27-3-32-1-3 1-8 6-13 11-6 6-10 10-14 11l-8 4c-1 2-7 6-12 10s-14 10-20 13c-6 4-15 10-20 14-11 9-16 11-27 11-12 0-13 1-13 10-1 7-3 15-11 31-4 10-12 32-12 35 0 1-1 4-2 7l-1 5 3 3c2 2 4 3 5 3s7-2 13-4c19-6 53-11 64-9 4 1 12 1 18 1 7 0 13 0 14 1 3 1 4 1 7-1 4-3 18-3 27 0 13 3 33 6 45 7 6 0 16 1 22 2 10 1 12 1 16 0 4-2 10-2 23-2 10 0 19 0 21 1 3 0 10 1 16 2 13 1 21 3 26 7l4 3 20-1c11 0 22 0 24-1z"/></svg>