<svg xmlns="http://www.w3.org/2000/svg" width="1344" height="566"><path d="M0 283V0h1344v566H0V283m364 277c2 0 80-1 172 0h344c207 1 248 0 293-1 44-1 66-2 71-4 6-2 8-9 5-15-2-4-13-14-21-19-11-7-15-14-23-35-1-4-3-14-5-23-8-34-8-36-14-40-3-3-4-3-22-7-5-2-11-3-12-4-4-2-13-19-17-32l-5-10c-5-10-7-17-16-44-4-14-11-36-16-48-4-13-10-34-13-47-6-26-17-59-20-64-4-5-9-8-14-8-4 0-5 0-8 4-5 5-6 5-9 1-2-3-8-15-8-16 0-3-7-16-10-19-6-4-10-5-17-2-6 4-9 4-14 1-4-3-10-4-14-1-2 1-6 7-8 14-1 3-3 7-5 10-6 6-9 11-12 23-3 13-4 40-2 58 1 6 3 19 4 28 1 19 3 28 7 36 5 11 33 53 56 85 16 21 18 25 25 36s18 33 22 43c2 5 7 17 12 28 11 24 13 33 7 33-3 0-20-9-27-15-11-8-28-19-43-27-13-7-27-17-31-24-2-2-5-10-8-17-8-20-12-26-24-37-14-13-36-29-45-33-11-6-19-7-54-4-33 2-56 2-61 1-2 0-4-1-6-3s-2-3-2-11c0-11 2-26 4-35 1-2 2-7 2-10 1-6 3-10 7-13 4-4 7-11 9-21 1-6 3-12 4-15 2-2 3-5 3-6 0-5-8-34-13-50-3-9-9-22-13-31-3-8-9-21-12-28-7-17-14-29-29-54-20-31-28-41-47-56-13-9-23-15-37-19-15-6-22-7-54-6-35 0-51 1-71 5-22 4-27 6-47 18-12 8-30 25-37 37-6 9-19 34-22 42-5 12-7 22-8 36v13l5 10c8 16 8 18 4 51-2 20-1 25 5 39s7 18 7 35c-1 28 6 41 30 66 11 11 15 18 16 25 1 4-2 17-7 30-3 9-4 10-11 17-11 11-16 14-24 17-3 2-9 4-12 6-3 1-6 2-7 2-4 0-5-4-6-24-2-21-3-26-10-40-9-22-14-28-22-28-6 0-10 3-13 11-3 6-3 7-4 19 0 7 0 18 1 25 2 16 2 23 0 24-2 0-7-8-7-10 0-1-1-4-2-5-1-2-2-7-3-10-4-13-11-48-12-57-5-46-9-68-15-76-5-8-16-6-19 4-3 7-3 9-4 33-2 23-3 29-5 29s-6-9-11-27c-11-41-17-50-30-50-7 0-10 3-11 9 0 3 0 15 1 27 0 12 1 23 0 23-1 1-3-2-7-11-5-10-13-15-21-12-6 2-8 6-9 13 0 8 1 15 8 41 3 13 5 25 6 28 0 4 2 9 3 13 2 6 2 11 0 8-1-1-5-6-9-13-8-13-11-16-17-20-7-3-11-3-15 1-3 3-3 3-3 10 0 6 1 10 4 19 3 12 14 35 22 48 3 4 7 11 9 16 18 32 39 66 48 75 7 8 13 11 23 12 9 1 67 0 73-1z"/></svg>