<svg xmlns="http://www.w3.org/2000/svg" width="1344" height="566"><path d="M0 283V0h1344v566H0V283m274 277c15-1 28-1 30-1 28 1 84 1 232 1 192 1 179 1 183-5 2-4 3-9 1-17-1-4-2-10-3-14 0-5-1-12-2-16-2-9-14-45-18-55-4-7-4-8-4-18s0-10-3-14c-4-4-9-6-22-12-5-2-14-5-20-8-14-6-43-19-47-21-8-2-27-12-30-14-5-5-6-9-3-22 1-7 4-17 6-23s5-13 6-15c0-2 2-7 4-11 7-14 7-18 7-41 0-18 0-23-2-34-1-7-3-16-3-20-1-8-4-22-9-38-1-5-3-13-4-17-5-21-17-50-26-64-12-17-41-43-57-51-17-8-50-13-69-10-8 1-24 9-44 21-25 15-31 21-40 41-12 23-18 46-25 93-1 7-3 18-3 23-1 5-2 15-3 21-1 7-1 13-2 13 0 0-1 8-1 16-1 8-2 16-3 16-1 2-5 45-5 55 0 14 3 33 7 41 6 14 6 17 1 20-3 2-15 6-29 11-7 3-14 6-24 14-20 14-30 21-41 27-11 5-19 12-21 16 0 1-1 5-1 9-1 4-2 9-5 15-11 26-14 36-17 56-3 21-3 26 1 30l2 3h40c22 0 52-1 66-1z"/></svg>