<svg xmlns="http://www.w3.org/2000/svg" width="1344" height="566"><path d="M0 283V0h1344v566H0V283m788 250c4-1 11-2 16-3s12-2 16-3c4 0 11-2 16-3 14-3 20-4 32-8 36-11 39-12 68-13 20 0 25-1 26-2 4-3 6-29 3-43-2-8-4-24-6-51-1-8-3-16-3-18-3-6-7-8-20-11-7-2-17-4-24-6-6-2-11-3-12-3-3 0-12-5-13-7s-1-4 0-9c2-11-1-22-8-29-4-3-5-5-2-10 1-4 1-4-5-16-6-13-17-39-20-52-1-5-3-11-4-14-1-2-5-13-8-23-7-20-13-35-20-53-3-6-6-13-7-15-3-10-16-28-27-38-9-9-11-10-23-16-38-19-57-21-95-12-35 9-58 23-73 47-8 14-16 34-19 51-2 9-2 13-1 54 1 25 1 53 2 65 1 23 1 27-3 31-3 4-24 18-31 20-6 3-15 14-19 24-3 6-6 9-16 13-6 2-9 3-11 3-10-2-10-2-18 3-4 2-10 5-13 6s-10 3-15 5c-11 4-16 8-23 18-5 6-15 12-25 13-14 1-17 7-26 39-2 7-2 9 2 10l8 8c6 7 8 8 27 8 14 1 20 2 28 5 4 2 6 2 16 1s12-1 16 1c3 1 4 1 6 0 1-1 4-1 6-2 3 0 7-2 9-2 8-4 36 0 47 5 19 10 27 12 74 12 20 1 37 1 38 2 1 0 10 0 20 1 21 1 33 3 43 5 8 2 18 7 20 9 2 3 5 4 13 5 14 1 31 0 38-2z"/></svg>