<svg xmlns="http://www.w3.org/2000/svg" width="1344" height="566"><path d="M0 283V0h1344v566H0V283m337 277c3-1 5-1 8 0 4 1 12 2 47 1h398c58 1 63 1 69-1 5-1 7-1 11 0 3 1 20 1 76 2 80 0 78 0 81-6 1-4 1-5 0-14-4-22-9-46-14-62-4-20-7-32-7-38 0-4 2-6 10-12 5-3 12-9 22-17 8-7 11-9 23-13 20-6 45-10 103-18 19-3 25-4 35-9 15-8 20-15 13-20-2-2-3-2-22-2-22 1-29 0-42-4-5-1-12-2-17-3-7 0-8 0-14 2-14 7-17 7-35 9-32 2-43 1-58-5-4-1-10-4-12-5-3-1-7-3-9-5-5-5-6-8-17-34-2-6-6-14-8-19s-6-13-8-19c-3-7-6-14-10-19-12-17-15-28-9-35 3-4 7-6 18-9 7-3 9-4 13-9 3-3 7-9 10-14s7-11 10-15c2-3 6-10 9-15 4-8 4-10 5-19 2-19-3-56-9-71-3-8-11-18-19-23-4-2-11-5-16-6-9-3-12-3-23-3-18 0-28 3-41 12-18 14-24 29-22 52 1 11 1 26-1 34-4 12-12 28-22 38-6 7-8 8-18 9-11 0-16 3-20 9-2 2-3 5-3 6 0 2-7 11-15 21-17 19-19 22-24 29-9 12-20 36-22 46-2 9-2 11 2 38l3 18v48c0 48 0 49-2 49-3 0-10-3-16-9-3-3-6-6-8-11-5-11-6-21-8-65-2-53-18-143-30-177-15-41-30-59-64-76-12-6-24-10-40-14-11-2-14-2-24-2-13 1-14 1-36 10-20 7-32 13-40 20s-13 13-20 27c-12 23-14 33-12 61 0 11 0 32 1 48 0 20 0 32 1 41 1 6 2 19 3 28 1 19 5 42 9 62 3 15 4 24 1 28-2 3-4 4-11 5-8 1-12 3-29 11-13 5-28 11-47 17-16 4-19 5-22 7-4 3-8 8-9 13-4 18-8 28-10 28s-3-5-4-45c-2-77-2-80-8-108-1-4-2-12-3-17-1-13-6-30-10-36-1-2-3-7-4-10s-3-7-3-10c-2-3-2-5-1-8 2-6 12-19 21-26 10-8 12-10 19-23 4-6 8-12 9-15 7-9 7-10 7-20-1-5-1-12-2-15 0-3-1-13-1-21 0-19-1-24-8-31-9-12-34-24-53-28-12-1-19-1-32 1-12 1-20 5-26 10-5 6-8 12-10 26-2 11-2 15-2 29 1 9 1 19 2 22 3 17 0 26-7 32-8 6-15 13-17 16 0 2-2 6-3 9-2 7-3 8-14 21-8 10-13 19-16 30-1 5-4 12-5 17-7 18-22 60-26 75-5 22-13 87-15 137-1 12-1 28-2 36v16c2 3 6 5 13 6 10 1 180 0 185-1z"/></svg>