<svg xmlns="http://www.w3.org/2000/svg" width="1344" height="566"><path d="M0 283V0h1344v566H0V283m296 276c2-1 4-1 7 0s65 1 209 2h205l2-2c2-2 3-11 1-23-1-4-2-10-2-13-1-2-2-10-4-16-6-22-6-20-11-35-4-12-7-17-12-26s-5-10-5-18c0-10-1-13-5-16-3-2-25-11-51-21-44-16-46-17-46-27 0-5 4-26 9-44 6-21 7-24 8-33 1-11 1-23-1-37 0-7-2-25-4-40-10-88-11-98-22-119-4-9-6-12-14-20-5-6-12-12-16-14-3-3-11-8-16-11-9-6-27-15-36-18-2-1-9-1-23-1-18 0-21 0-37 3-21 4-29 8-41 16s-25 25-35 44c-5 10-13 33-17 50-7 27-14 71-19 112-1 10-3 25-4 34-3 23-3 28-4 54-1 22-1 25-3 29s-10 9-17 11c-18 4-38 14-60 31-9 6-23 15-33 20-3 2-8 5-11 8-5 4-5 5-7 14-2 7-5 14-10 25-9 17-12 25-16 51-3 21-2 29 5 31 5 1 131 1 136-1z"/></svg>