<svg xmlns="http://www.w3.org/2000/svg" width="1344" height="566"><path d="M0 283V0h1344v566H0V283m703 271c2-2 5-4 7-5 3-1 3-1 9 1 9 5 15 3 19-5 3-6 2-10-1-22-2-9-2-13-2-23 0-11 0-14 2-18 2-7 4-17 5-40s4-40 7-49c0-1 2-7 4-11 1-5 3-13 5-18 6-17 10-35 14-62 1-9 3-17 4-19s4-6 7-10c3-3 6-7 7-9s2-5 3-7c1-5 5-17 5-21 1-2 2-6 3-10 1-5 1-7 0-16-2-20-3-27-3-33 0-5 0-6-4-9-1-2-4-3-4-3-3 0-8-5-10-8 0-2-1-6-2-9 0-7-7-26-12-40-3-6-5-9-10-15-8-8-13-11-19-11s-22 6-29 12l-6 4c-1 0-2 1-3 2-4 4-3 31 1 39 2 5 3 15 1 19-2 3-3 4-17 10-5 1-8 4-14 9-3 4-8 8-10 9-2 0-6 4-10 6-10 9-20 15-28 20-15 8-24 14-32 21-3 4-9 8-12 10-5 3-7 3-14 3-10 0-14 1-16 5-3 5-2 7 4 12 7 6 10 7 15 7 2 0 6 1 10 2 8 3 21 3 27 0 4-1 6-3 6-7s3-6 8-6c11-2 22-5 36-11 6-2 13-6 20-11 8-7 15-10 17-10 4 1 5 5 4 13-1 6-1 8 1 13 1 6 1 6-1 10-1 3-5 8-8 12s-6 8-6 9-1 5-3 9c-2 7-2 9-2 22 0 14 2 29 4 38 1 3 2 23 2 49 1 48 1 54 7 77 4 13 4 27 1 37-2 6-2 9-1 21 0 13 0 15 2 17 3 3 8 3 12 0z"/></svg>