<svg xmlns="http://www.w3.org/2000/svg" width="1344" height="566"><path d="M0 283V0h1344v566H0V283m910 278c16-1 36-2 44-2 25 0 37-1 40-4 2-2 2-3 1-5-1-6-9-26-17-40-8-16-18-40-18-42 0-3-8-21-15-34-4-7-8-18-10-22-2-5-4-12-6-15-1-4-2-8-2-12 0-5 0-6-5-13-2-4-7-11-9-15s-6-10-9-13c-9-12-23-34-28-45-1-4-4-10-6-13-2-5-2-6-2-12 1-9 3-13 11-22s8-9 12-22c3-8 4-15 5-22 1-5 2-14 2-20 2-12 3-55 1-69-1-11-3-22-6-29 0-2-2-7-3-9-1-7-10-25-15-31-12-16-16-20-33-32-8-7-13-10-22-12-6-1-13-1-60-1-83 0-95 2-123 22-6 5-15 12-21 19-9 9-11 12-16 22-11 21-14 39-12 66 2 30 5 44 13 64 5 11 9 24 10 31 4 23 22 80 33 105 6 14 11 20 18 25 9 6 16 8 35 9 17 1 18 1 24 8 5 6 9 13 10 18 1 3 1 4-1 8-1 2-7 9-13 16-7 7-15 16-18 20s-12 14-20 22c-15 16-18 20-20 29-4 13-2 20 8 40 3 6 6 12 6 13 0 3 5 12 8 13 9 5 34 6 100 6h67c21 1 33 1 62 0z"/></svg>