<svg xmlns="http://www.w3.org/2000/svg" width="1344" height="566"><path d="M0 283V0h1344v566H0V283m601 277c31-1 35-1 64 0 27 1 186 1 212 0 11-1 27-2 35-2 10-1 31-1 72 0 70 1 75 1 78-1 8-4-2-18-29-40-20-15-44-31-61-39-18-10-27-15-35-23-11-12-12-17-6-32 2-4 4-10 6-14 3-10 10-26 11-27 0-1 8-16 17-34 21-42 24-46 34-51 6-3 15-10 19-15 5-5 18-24 21-32 5-8 7-18 7-28 0-5 0-10-1-11s-3-3-6-5c-5-3-6-4-6-10 0-4 4-25 10-46 1-4 3-12 3-18 5-34 6-41 6-48 0-16-4-36-13-58-3-9-5-12-8-14-2-2-4-4-5-4l-12-2c-10-2-14-2-112-2-102 0-119 0-130 3-5 2-7 4-12 12-12 18-18 43-26 99-1 10-3 21-4 22-1 3-6 6-11 6-6 0-14 5-16 10-4 6-5 18-5 30 1 23 9 43 23 58 4 5 7 9 8 11 0 1 0 3 1 4 0 5-2 32-5 47-4 29-18 59-29 66l-4 2h-26c-25 0-27 0-30 2-4 2-8 7-16 18-15 23-26 38-32 42-1 1-9 6-18 11-8 5-20 13-27 17-15 11-22 14-38 23-28 15-56 37-74 57-6 8-8 12-4 14 7 3 107 5 174 2z"/></svg>