<svg xmlns="http://www.w3.org/2000/svg" width="1344" height="566"><path d="M0 283V0h1344v566H0V283m626 275c8-5 10-6 12-10 1-3 3-5 4-6 2 0 9-2 18-3 18-2 24-4 27-7 3-4 10-19 11-27 2-6 2-11 2-21v-33l1-19-3-9c-4-11-5-18-2-35 3-27 1-63-4-75-1-2-3-6-5-7-3-4-20-18-26-21-6-4-19-15-21-17-3-3-2-6 4-19s9-16 15-18c4-1 10-7 10-11 1-1 2-9 2-16 1-7 3-18 4-22 2-11 3-18 1-23-3-5-5-20-6-38-2-28-7-38-25-48-21-11-41-15-60-12-21 4-22 4-32 10-12 7-18 13-23 25-5 10-7 18-9 31-1 5-2 13-3 18s-3 13-4 19-3 14-4 18c0 5-2 15-4 24-2 8-4 16-5 18s-4 5-8 7c-5 2-7 3-16 4-7 1-11 1-15 3-3 2-9 4-13 6-10 4-13 6-18 14-5 6-14 15-21 20-7 4-8 7-8 14 0 6-2 10-4 10-1 0-3-2-6-4-2-3-5-5-6-5-9 0-51 34-60 50-2 2-4 9-6 15-1 6-5 20-7 30-6 22-7 28-3 40 3 8 9 19 14 26 3 3 9 7 30 19 7 4 9 8 16 21 12 26 11 23 12 43 1 18 1 20 5 22 3 2 22 3 27 2 15-3 18-3 38-2 18 2 67 3 106 2 4 0 9 0 10 1s11 1 26 1h24l8-5z"/></svg>