<svg xmlns="http://www.w3.org/2000/svg" width="1344" height="566"><path d="M0 283V0h1344v566H0V283m1306 280c33-1 34-1 36-6V306c0-236 0-249-1-251s-3-4-5-4c-8-5-34-4-44 0-3 2-6 3-8 3s-5 2-13 10c-3 2-9 6-15 9-11 6-15 10-18 18-1 5-1 7 0 13v18c-1 8 0 15 1 27 3 24 4 28 8 43 6 19 10 27 15 31 8 5 16 9 18 9 4 0 8 3 9 6 2 7 0 10-18 28-9 10-17 19-18 21-3 6-10 27-12 34 0 2-2 8-5 13-5 11-8 22-10 34-3 11-6 46-6 62 0 7 0 19-1 26-1 12-1 14-4 20-4 8-13 17-24 26-10 7-14 8-20 7-6-2-24-8-29-11-2-1-7-1-11-2-5 0-7 0-8 1-3 3-2 6 5 14 3 5 6 9 6 10 0 3-6 10-14 16-7 5-11 9-11 12 0 2 5 7 12 10l7 2 39 1c22 0 45 0 52 1 7 0 22 1 34 0h53m-370-2c12-3 14-3 18-8 3-4 3-4 3-17 1-8 1-16 2-20 2-8 6-27 8-46 1-9 3-20 4-24 3-12 6-34 8-61 5-60 4-64-10-98-12-25-33-61-46-76-7-7-12-17-12-22 0-2-1-5-1-6-2-4-4-5-13-6-6-1-12-8-16-18l-3-7v-17c0-10 1-18 1-22 3-12 6-33 6-41 0-14-10-34-23-45-14-12-20-14-36-14-15 0-25 3-43 11-11 5-14 6-20 12-9 10-13 17-13 26 1 7 0 21-3 31 0 4-1 12-2 18 0 6-1 14-2 19l-1 9 3 6c2 4 7 13 11 21 10 19 11 19 22 23 10 4 15 7 17 10 1 2 0 4-4 11-3 5-7 12-9 15-7 8-9 13-10 21-1 6-3 12-9 26-14 30-20 51-26 88-2 9-3 12-9 39-2 8-6 23-8 33-3 21-8 41-11 53-4 17-7 41-5 49 1 2 1 6 1 9 1 7 2 10 8 10 3 1 7 3 10 4 6 4 11 5 47 4 83-2 93-2 100-1s43 3 52 3c2-1 9-1 14-2m-405-1c2 0 6-2 8-2 2-1 6-2 7-2 3-1 7-7 7-11 0-3-4-10-10-17-2-3-5-7-5-9-2-4-4-5-9-6-4-1-8-5-8-9 0-2-1-4-2-5-8-7-8-6-9-15-1-11 1-23 6-38 4-11 4-12 4-23 0-13-2-28-4-34-1-2-2-6-3-10-1-3-3-9-4-13-8-19-14-27-31-39-17-11-19-15-12-22 2-3 4-7 5-9 4-8 9-15 16-18 3-2 7-4 8-6 2-4 4-12 5-27 1-13 1-16 0-23-1-4-2-14-3-21 0-16-2-25-5-31-3-5-12-15-15-16-1 0-6-2-10-4-25-11-49-11-71 0-13 7-20 19-24 44-1 9-4 55-5 88-1 39-1 40-10 56-10 20-13 26-14 31-1 3-2 9-4 14-4 14-5 20-6 27-1 26-2 32-5 40-2 6-2 10-3 22-1 22 2 37 11 63 3 11 4 13 8 17 4 3 6 4 13 6s11 2 83 2c41 0 75 1 76 1 1 2 11 1 15-1z"/></svg>