<svg xmlns="http://www.w3.org/2000/svg" width="1344" height="566"><path d="M0 283V0h1344v566H0V283m598 277h208l3-3 3-3-1-15c0-17-1-27-6-46-4-15-10-35-12-41-1-3-2-8-3-10s-3-8-6-13l-4-9 1-9c2-11 2-13-4-16-4-3-28-14-30-14 0 0-7-3-16-7-9-5-24-12-34-16-13-6-20-9-22-12-3-3-3-3-3-9 0-7 4-47 7-72 1-13 1-17 0-45-1-16-2-34-2-39-1-5-1-13-2-19-2-15-6-37-9-50-6-24-27-60-41-72-18-15-50-31-65-32-9-1-24 2-35 7-4 2-8 2-16 3-10 1-12 2-20 5-7 4-10 6-19 15-6 6-13 14-15 17-13 20-23 50-30 86-1 6-3 15-4 19 0 5-2 13-3 18 0 6-2 22-4 35-8 50-8 71-2 105 3 14 2 18-3 23-4 5-10 7-23 8-17 1-36 9-75 30-9 5-18 10-19 11-4 4-5 8-6 16-2 14-6 29-15 51-8 22-21 75-21 88 0 7 2 10 7 12 7 3 66 4 105 1 14 0 114 2 132 3 14 1 103 0 104-1z"/></svg>