<svg xmlns="http://www.w3.org/2000/svg" width="1344" height="566"><path d="M0 283V0h1344v566H0V283m610 277c36-1 68-2 127-2 14-1 58 0 99 0 40 1 111 1 156 1 45 1 90 1 100 2 9 0 25 0 36-1 26-1 26-1 21-17-4-13-9-21-21-35-7-7-16-17-20-22l-9-9-8-6c-3-4-13-12-21-18s-18-15-22-19c-14-12-23-20-36-30-7-4-19-13-27-19s-16-12-19-14c-5-2-19-5-24-4-9 2-25-5-32-12-7-9-11-22-11-37 0-22 4-33 18-48 5-5 10-12 12-15 6-8 14-24 17-33s3-21 0-30c-3-7-3-19 0-30 0-5 1-16 2-26 0-19-1-26-5-37-3-9-15-26-22-33-7-6-25-18-33-22-9-5-23-9-35-11-15-3-47-3-56-1-19 4-35 11-49 22-15 12-27 29-32 47-3 10-6 34-7 53-2 28-3 41-6 56-3 20-3 33 0 55 4 25 7 35 19 58 6 12 7 14 16 23 5 5 9 11 9 12 0 3-8 8-40 24-33 17-47 24-63 36-13 10-31 24-40 33-12 11-37 43-45 57-4 6-15 40-15 44s3 7 8 8 15 1 58 0m-413-2c6-1 12-2 14-2 2-1 26-1 58-2 45 0 58 0 70 2 20 2 46 1 51-1 6-3 6-9 3-29-1-7-3-20-4-29s-3-20-4-25c0-5-1-13-2-18-1-6-1-11-2-11 0 0 0-4-1-9-2-14-5-31-8-40-5-17-18-44-28-57-11-14-25-25-51-39-31-16-34-19-34-23s10-24 17-35c6-8 7-13 6-20-2-7-1-10 3-16l5-10c2-7 4-10 10-16s7-7 8-12c2-9 0-18-8-44-2-7-2-10-3-32-1-18-1-27-2-31-2-7-19-43-22-48-2-1-5-4-7-5l-4-2-123-1C72 3 14 3 12 4 9 4 6 5 4 7L1 9v270c0 264 0 270 2 274 1 3 2 5 3 5 1 1 10 1 20 0 11 0 24 0 29 1 12 1 128 0 142-1z"/></svg>