<svg xmlns="http://www.w3.org/2000/svg" width="1344" height="566"><path d="M0 283V0h1344v566H0V283m567 277c59-1 75-1 90 0 13 1 29 1 49 1 18-1 39-1 54 0 24 1 61 1 132-2 17-1 38-1 46-1 55 0 78 1 112 1 43 1 49 1 54-3 2-2 2-3 2-7-1-6-8-16-14-23-10-9-38-28-58-38-8-5-21-12-29-16s-19-9-25-12c-21-6-31-13-47-30-12-11-13-15-13-21 1-8 6-27 13-53 13-49 18-64 23-71 2-2 5-5 6-5 13-6 19-9 24-13 5-5 15-19 19-27 6-11 9-26 9-38 0-11-2-14-13-20-2-1-4-3-5-4-2-3-2-3-1-11 4-16 8-46 11-74 1-15 1-20 0-30-2-23-8-43-14-50-4-4-11-6-27-8-11-1-27-1-109-1-122 0-133 0-140 9-10 11-19 47-23 93-1 14-2 22-4 28-3 10-4 13-10 19-3 4-6 9-7 12-2 6-2 8-2 20s0 14 3 26c6 20 11 29 23 41 7 8 8 10 11 21 5 19 6 52 3 69-2 14-8 28-15 35-4 4-10 7-13 6-1-1-10-1-20-2-14-1-19-1-21 0-4 2-12 10-26 30-17 22-22 27-43 38-9 4-19 10-22 12-8 5-23 13-41 23-10 5-20 11-23 12-2 2-8 6-12 8-19 12-41 34-47 47-4 8-1 9 25 10 32 1 39 1 115-1z"/></svg>