<svg xmlns="http://www.w3.org/2000/svg" width="1344" height="566"><path d="M0 283V0h1344v566H0V283m822 278c7-2 10-5 15-14 9-14 9-16 9-28v-11l5-10c3-6 10-17 15-26 10-18 14-26 19-38 6-13 10-21 17-28 10-12 13-21 11-28-1-3-3-8-4-13-2-9-4-13-8-16-1-1-3-4-4-6-2-4-4-5-8-5-6 0-7-2-4-9 2-7 1-9-5-8-7 0-8-2-8-16 0-13-1-16-9-19-7-4-15 0-16 7-2 7-18 28-26 33-6 4-9 4-19 3-3-1-7-1-9-1-6 2-17 16-26 35-6 11-8 17-12 36-9 36-14 49-31 83-13 25-18 34-26 45-8 10-10 10-16 0-3-4-8-10-12-15-4-4-10-11-13-14-3-4-7-9-9-11-6-5-8-9-10-21-2-9-3-13-8-22-6-14-9-17-26-28-6-4-12-8-13-9-2-3-1-7 2-12 1-2 6-12 11-21 10-18 19-33 27-43 7-8 10-14 14-25 5-13 7-23 8-54 1-15 2-29 3-32 4-21 6-56 6-82-1-30-5-44-17-57-8-9-15-15-46-34-9-6-25-13-34-16-16-6-19-6-35-5-19 0-27 0-38-1-6 0-9 0-14 1-21 6-40 15-49 23-7 8-16 18-20 27-7 13-19 45-25 71-2 6-4 18-6 25s-5 21-7 30c-3 8-7 28-11 44-4 15-7 31-8 34-1 9-5 26-6 31-1 4-2 17-4 47-1 17-1 19 1 28 2 13 2 18-5 30-9 14-19 34-25 47-3 7-8 20-12 29-4 8-8 19-10 22-4 9-4 12 1 21 2 5 3 7 3 11 0 7 2 11 7 12 8 2 74 3 186 3 63-1 115-1 116-2 3-2 175 1 177 3 1 0 36 0 41-1z"/></svg>