<svg xmlns="http://www.w3.org/2000/svg" width="1344" height="566"><path d="M0 283V0h1344v566H0V283m764 190c4-1 11-3 14-4 4-1 12-3 18-4 14-3 28-7 43-11 19-6 24-6 48-6 27 1 26 2 24-18 0-6-2-17-2-24-3-24-4-35-4-47 0-15-3-25-8-30-4-4-13-9-21-14l-12-8c-7-4-14-8-18-9-5 0-10-4-8-6 0-1 4-2 7-2 10-2 10-2 10-17-1-16-3-35-5-44-1-3-3-10-4-16s-3-15-5-20-4-13-6-18c-3-15-8-32-9-36-3-13-15-38-22-50-10-15-26-28-46-39-19-10-27-13-42-13-7 0-14 2-25 6-5 3-10 4-15 4-8 1-17 4-22 6-14 7-31 32-38 55-4 17-9 38-11 58-3 20-1 105 2 125 1 7 1 7-1 9-3 3-17 3-31 0-12-2-23-3-28-1-2 1-7 6-13 11-5 6-11 10-14 11-4 2-13 8-22 15-3 2-11 7-17 12-7 4-16 10-20 13-11 9-16 11-27 11-13 0-18 3-15 10 1 1 1 4 0 5 0 4-7 21-12 31-2 5-5 13-7 19-4 14-7 21-7 23-1 1 0 2 2 4 6 3 8 3 17 0 6-2 11-3 12-3 2 0 6-1 9-1 13-3 23-4 44-5h23c1-1 5 0 8 0 7 2 7 2 11 0 2-1 5-2 6-1 1 0 6 1 11 1 9 1 32 4 40 6 6 1 25 3 41 3 7 0 12 0 15-2 6-1 14-1 36 1 27 2 40 5 44 8 3 3 4 3 24 3 17 0 23 0 28-1z"/></svg>