<svg xmlns="http://www.w3.org/2000/svg" width="1344" height="566"><path d="M0 283V0h1344v566H0V283m595 276c32-1 79-2 103-2 32-1 50-2 62-1 8 1 26 1 40 1 97 2 180 3 226 3 53 0 53 0 55-2 3-2 2-6-2-16-3-6-19-26-34-43-5-6-22-20-35-31-6-4-16-12-22-18-17-16-35-30-55-46-33-24-30-22-51-23h-16l-7-3c-10-5-15-9-19-15-5-9-10-24-11-33-1-16 6-42 14-52 11-13 22-36 25-49 2-12 2-18 0-27-1-5-1-8 0-19 3-34 3-35 1-47-3-29-15-49-39-65-19-13-35-20-54-23-13-2-47-2-58 0-32 5-64 29-77 58-4 9-6 17-7 36 0 8-2 22-3 30-1 7-3 20-3 28-1 8-1 17-2 19-7 32 2 85 21 123 6 11 9 14 17 21 6 5 12 14 12 17 0 5-16 17-44 32-14 7-30 19-55 39-26 20-42 37-59 64-9 13-17 29-18 35-1 9 4 11 25 11 6-1 38-1 70-2z"/></svg>