<svg xmlns="http://www.w3.org/2000/svg" width="1344" height="566"><path d="M0 283V0h1344v566H0V283m552 278c7-2 18-7 19-10 3-5 0-10-9-17-8-6-12-8-23-9-17-1-18-2-18-20 0-11 0-13 7-31 4-10 5-23 3-34-2-12-4-21-5-26-1-2-3-7-3-11-2-8-8-24-11-29-5-7-17-17-32-27-10-7-12-10-10-15 1-1 3-4 5-5 2-2 5-5 8-11 5-10 7-12 15-17 7-4 9-7 11-21 3-16 3-28 2-33-1-3-3-10-3-18-3-39-7-49-26-58-5-2-14-6-20-7-10-3-12-4-26-4-16 0-23 2-34 9-22 13-28 28-28 69 0 9 0 22-1 30-1 7-1 25-2 39-1 38-2 44-7 52-2 4-5 10-8 14-6 9-12 21-13 28-1 3-2 9-4 14-4 13-7 25-7 37-1 7-2 15-3 20-3 11-5 32-5 45 0 12 3 32 6 37 2 3 4 5 5 6 3 2 4 3 77 3 41 0 74 1 75 1 1 2 59 0 65-1m728 0c48 0 56 0 60-5l2-2 1-244c0-170 0-245-1-246-2-4-9-2-26 8-18 10-19 12-24 25-3 10-3 11-2 19 0 5 0 18 1 28 0 23 3 48 7 59 2 5 4 12 6 16 1 4 4 10 5 13 2 3 4 7 6 8 3 6 5 8 12 12 11 5 13 10 6 20-3 3-8 9-11 12-16 12-27 26-31 38-3 8-7 27-8 33-1 4-2 7-6 20-1 3-3 9-4 13s-3 10-4 12c-1 4-1 12-2 40-1 52-2 54-12 70-15 19-27 31-33 31-2 0-7-2-11-4-8-3-20-6-25-6-4 0-8 2-9 5s0 6 6 12c2 3 4 6 4 7 0 5 3 6 17 7 7 0 18 1 24 0 5 0 29 0 52-1m-472-1c56-2 59-2 106 0 31 1 38 1 41-1 2 0 8-1 12-1 7 0 8 0 10-2 1-1 2-3 2-4 1-3 3-23 5-46 1-9 2-17 2-18 1-2 1-7 2-13s2-16 3-23 3-17 4-22c2-15 4-45 4-69 0-20 0-24-2-31-4-15-15-37-28-58-6-8-12-18-14-22-3-3-9-11-14-16-17-20-20-25-22-36-2-8-4-10-12-10-9 0-16-5-21-14-3-6-3-7-3-16s1-19 5-34c5-18 7-32 7-39-1-14-13-42-21-50-5-5-16-11-25-13-7-2-18-2-27 0-4 0-10 1-12 2-5 1-22 8-30 12-7 3-18 14-21 20-2 4-2 7-2 15 0 6-1 14-2 19-2 11-5 28-6 37 0 4-1 9-2 12-2 7-1 14 2 18 1 2 4 9 7 14 11 27 16 32 33 36 9 1 12 3 15 7 5 6 3 12-12 29-11 12-13 17-15 29-1 5-4 14-8 24-13 31-18 49-28 101-5 22-7 36-9 46-3 15-9 42-11 50-1 4-2 11-2 20-1 8-2 20-3 28-1 14-1 15 1 17 1 2 3 3 10 3 5 0 15 1 22 0 7 0 34-1 59-1z"/></svg>