<svg xmlns="http://www.w3.org/2000/svg" width="1344" height="566"><path d="M0 283V0h1344v566H0V283m874 275c12-3 24-8 27-11 2-2 4-8 7-20 4-15 4-18 4-30-1-10-1-11-5-19-5-11-15-25-25-33-12-12-19-19-23-25-3-4-10-13-17-22-15-19-28-38-34-50l-4-10v-12c0-7 0-16-1-22-1-9-1-11 0-17 3-8 2-9-2-14-6-6-7-10-8-45-1-39-3-52-12-73-9-19-12-22-24-24-10-1-10-1-22-20-11-17-15-17-30-3-3 4-9 8-12 10-10 7-30 23-34 29-6 6-18 11-30 10-9-1-9-1-12-39-3-40-15-68-36-84-13-10-28-16-47-19-25-4-46-2-69 7-16 6-22 9-31 17-15 11-19 16-25 27-9 20-9 23-10 55 0 26 0 28-2 33-3 8-3 17 0 25 1 4 6 12 10 19 6 11 9 15 18 24 11 11 12 13 13 20 1 2 2 9 4 14 1 5 2 11 2 14 0 6-4 14-10 21-3 3-9 10-14 16-11 12-20 20-26 25-3 1-8 5-11 8-4 3-9 8-13 10s-9 4-10 5c-2 1-8 4-13 7-6 2-13 6-16 8-7 6-21 15-29 19-10 6-13 10-17 21-2 7-3 29-1 39 1 4 3 14 3 22 1 10 2 17 4 25 3 11 3 12 3 32 1 21 1 23 7 28 5 5 12 5 57 5 22-1 43-1 47-2 9-1 71-2 103-1 15 1 28 1 30 1 30 0 64 0 65 1 1 0 103 0 129-1 29-1 80 0 96 1 18 2 33 2 46-2z"/></svg>