<svg xmlns="http://www.w3.org/2000/svg" width="1344" height="566"><path d="M0 283V0h1344v566H0V283m660 278c7-1 79-1 106 1 13 0 23 0 34-1 20-2 19-1 19-22-1-9-2-23-2-31-1-8-2-19-2-24-2-17-8-50-13-62-3-8-10-18-20-28-13-12-25-22-34-27-5-2-12-7-18-10-39-26-38-25-46-36-11-14-19-28-19-35 0-2 1-6 3-10 7-20 13-39 17-60 2-9 3-12 8-20 3-5 5-11 5-12s-1-4-2-8c-2-5-2-8-2-28 0-31-4-58-10-69-5-9-25-27-36-33-7-3-25-9-29-9-2 0-6 0-9 1-2 0-8 1-12 2-10 2-22 6-41 15-10 5-14 8-16 10-3 4-12 17-18 24-3 4-7 10-9 15-4 8-5 14-6 34-2 27-2 25-7 30-6 6-7 10-5 28 2 19 4 24 17 34 9 7 13 15 15 35 2 23 1 32-6 40-3 4-8 6-30 12-23 6-25 7-35 11-35 16-54 36-67 70-2 5-4 11-5 13-3 8-6 15-10 30-3 8-7 19-9 25-6 16-8 21-13 37-2 7-4 14-4 15-1 1-2 5-2 8-1 3-2 7-2 10-1 2-2 7-3 12 0 9 0 9 2 12l3 2 26-1h137c30 0 69 1 87 1 35 1 51 1 63-1z"/></svg>