<svg xmlns="http://www.w3.org/2000/svg" width="1344" height="566"><path d="M0 283V0h1344v566H0V283m518 278c18-1 67-1 110-1 42-1 87-1 100-2h86c53-1 63 0 75 1 14 1 42 2 73 1 25-1 29-2 29-4 0-1-12-13-26-28-15-15-30-30-33-35-10-12-15-20-15-22 0-4-9-16-18-25-18-18-28-31-37-47-7-13-11-29-14-55-1-8-3-19-5-25-2-12-21-71-25-80-1-2-3-9-5-15l-3-10-1-26c0-26 0-30-6-54-2-4-4-12-5-16-7-29-14-43-30-57-5-4-10-7-23-13-21-9-27-11-49-12-23-2-30-1-39 3-3 2-8 3-10 4-7 1-10 2-26 10-13 6-15 8-17 11-2 2-5 6-8 8-4 4-6 6-13 19-6 13-8 17-9 25-3 14-3 28-2 40 2 19 2 27 1 34-1 3-1 10-1 15 0 9 0 9 5 19 3 6 7 12 11 16 6 7 6 8 9 16 3 13 2 32-2 43-1 3-2 7-2 12 0 10-4 15-13 17-2 0-5 1-7 2-3 2-14 18-21 30-5 10-10 16-15 19-2 1-5 3-6 5-1 1-7 4-11 7-9 4-10 4-16 4-5-1-7-1-12 2-10 5-27 11-34 12-3 1-9 2-13 2-10 1-16 4-24 10-10 8-23 20-27 27-2 3-6 9-9 14-5 8-14 25-17 33-2 4-2 9-3 21-1 25-1 34 1 38 3 6 5 6 24 6 10 0 24 1 30 2 12 1 34 1 98-1z"/></svg>