<svg xmlns="http://www.w3.org/2000/svg" width="1344" height="566"><path d="M0 283V0h1344v566H0V283m1218 277c10-1 14-2 15-4 1-1 1-6 0-11 0-11 2-18 8-29l7-14c7-15 13-27 17-32 2-2 6-9 9-14 4-9 4-10 4-18 0-9 0-11-8-26-2-2-4-7-5-10-2-2-6-10-10-17-15-23-18-30-23-60-3-15-5-28-6-39-1-15-3-32-6-50-1-5-2-11-2-14-1-10-5-24-8-31-6-13-19-22-44-28-2 0-13-1-25-2h-21l-7 3c-9 5-18 14-21 22-8 17-11 25-12 31-3 10-4 12-9 18l-5 6 1 30v30l-5 2c-2 2-7 3-11 3-6 1-24 8-27 10-3 3-16 23-20 30s-4 9-3 31c1 11 1 12-1 16-3 7-7 10-13 12-10 3-18 13-18 23 0 9 5 30 8 37 1 1 6 6 10 11 8 8 9 8 19 12 9 3 12 4 24 5 7 1 13 2 14 2 2 2 1 7-1 18-4 16-5 23-4 24 0 1 2 4 5 6s6 6 7 8 3 4 4 5c5 2 20 3 46 4h29c1 1 78 1 88 0z"/></svg>