<svg xmlns="http://www.w3.org/2000/svg" width="1344" height="566"><path d="M0 283V0h1344v566H0V283m691 279h41c36 2 60 0 64-4 3-3 3-5-4-32-1-7-5-33-6-52-1-7-1-15-2-18s-1-10-2-16c-1-7-2-15-2-20-1-4-2-10-3-14 0-8-4-21-8-27-4-8-15-19-24-27-6-4-12-9-14-11-3-2-7-5-10-7s-9-6-13-9c-3-3-8-7-11-8-2-2-6-6-10-8-3-3-8-7-10-9-5-3-8-7-17-20-7-12-11-20-11-25s3-12 7-22c3-5 4-10 5-16 2-9 5-24 7-31s1-12-1-17c-2-4-2-7-2-28 0-26-1-35-7-50-7-16-14-24-29-34-20-14-29-16-49-14-11 1-16 2-21 7-2 2-8 6-13 9-7 3-13 7-16 10-7 7-17 22-22 33-4 9-4 9-4 21 0 14-2 25-9 38-3 8-3 9-3 16 0 11 2 22 7 31 3 7 4 8 10 11 7 4 10 8 14 20 2 6 3 11 4 16 0 4 0 10 1 12 3 7 2 13 0 16s-8 6-13 7c-28 6-51 18-67 34-6 6-9 10-13 19-6 12-7 13-14 35-3 9-8 25-12 36-10 28-20 68-22 84-1 17-1 34 1 46 1 10 3 14 7 16 2 1 27 1 91 1 49 1 89 1 89 2h51c29-1 58-1 65-1z"/></svg>