<svg xmlns="http://www.w3.org/2000/svg" width="1344" height="566"><path d="M0 283V0h1344v566H0V283m752 277c7-1 10-1 11-3 2-2 2-2 0-9-2-8-5-14-11-22-2-3-6-9-8-13-9-19-22-38-30-47-7-8-31-18-79-34-19-6-36-12-39-13-4-1-12-4-19-5-22-5-28-9-28-18 0-5 3-15 5-17 1-1 2-5 3-9 2-4 4-9 5-10 2-3 10-6 24-9 9-2 15-4 20-7 7-3 8-4 12-10 7-10 8-16 10-45 0-15 2-30 3-36s2-17 3-25c0-17-2-31-8-44-8-17-8-20-9-58-1-35-1-39-8-58-5-17-11-27-20-36s-23-18-33-22c-4-1-13-3-19-4-12-2-14-2-70-2-62 1-64 1-85 6-16 4-19 6-35 17-10 6-23 25-34 47-5 9-12 22-16 30-13 20-43 64-56 80-11 13-38 42-51 53-11 11-32 28-39 32-2 1-6 4-9 7-7 5-11 8-20 13-3 2-9 6-13 8-8 6-22 12-29 14-3 1-9 2-14 3-9 1-11 3-14 10-3 8 0 25 6 28 2 1 5 1 12 0 6-1 15-1 21-1 8 1 13 0 18-1 11-2 18-3 29-3 10-1 11-1 12 1 3 4 2 9-2 15l-3 6 1 11c1 7 1 15 1 19-1 8-1 9 1 11 1 1 4 3 6 4 5 2 7 4 9 10 3 6 12 14 26 24 9 7 25 15 32 17 4 1 7 2 16 9 8 6 9 7 9 13 0 3-1 5-4 10-3 4-6 9-8 11-2 3-7 9-10 13-17 18-22 26-21 31 2 5 12 7 54 8 20 0 38 0 48-1s33-1 58-1c60 1 113 0 134 0 61-3 74-3 97-1 9 1 40 1 67 2 27 0 52 0 55 1 7 1 25 1 36 0z"/></svg>