<svg xmlns="http://www.w3.org/2000/svg" width="1344" height="566"><path d="M0 283V0h1344v566H0V283m878 174c17-8 23-9 31-7 3 1 5 1 10 0 3-1 6-2 7-2 1-1 1-4 0-8-1-3-1-4 2-10l4-6c2 0 4 3 7 8s11 14 15 16c3 2 4 2 10 0 21-6 56-23 62-28 5-5 12-26 16-48 1-9 2-13 1-30-1-10-1-21-2-23-2-8-1-14 1-21 2-5 2-7 2-20v-49c0-12 0-13-2-18-4-8-9-15-12-17-2-1-8-2-12-3-5-1-12-2-16-2-4-1-13-3-21-5-9-2-18-5-24-7-9-4-11-5-17-11-11-11-20-27-26-44-7-19-14-30-22-35-5-4-5-4-11 7l-5 8v11c0 9 0 12 2 16 4 10 6 14 12 20 6 7 7 9 5 11-3 2-23 6-33 6-10 1-11 1-16-2-4-2-5-3-8-7-2-6-4-7-6-5-1 1-1 3-1 8 1 8 2 10 8 17 3 3 5 6 5 7 0 4 4 7 13 10 5 1 13 4 17 6 7 4 16 6 21 6 1 0 5 1 9 3 5 3 6 3 11 11 4 7 4 8 4 14-1 6-3 10-18 40-5 9-10 20-11 24-2 3-5 11-8 17-4 10-7 25-6 31s4 33 4 38c0 7-2 14-7 26-7 17-10 20-30 30-15 8-18 12-12 15 14 6 35 7 47 2z"/></svg>