<svg xmlns="http://www.w3.org/2000/svg" width="1344" height="566"><path d="M0 283V0h1344v566H0V283m413 277c0-1 35-1 76-2 42 0 83-1 93-1 9-1 20-1 25-2 5 0 18 0 31 1 12 0 53 1 92 2 40 0 72 0 72 1 1 0 12 1 24 1 26 1 44 0 49-3 4-4 5-8 5-23-1-12-1-13-4-20-5-9-14-20-23-27-7-6-17-14-34-25-6-4-14-10-18-12-4-3-8-6-11-7-7-4-18-14-24-23-13-19-13-25-3-38 3-2 8-9 12-14 4-6 12-16 17-24 22-29 34-50 39-73l9-27c9-23 14-49 15-73 0-23-1-37-6-52-3-11-10-26-17-36-8-12-29-32-42-40-8-5-14-7-29-9-14-1-18-2-25-5-13-4-21-5-41-5-22 0-28 1-43 7-25 11-45 28-59 48-12 18-17 34-21 66-3 22-5 26-12 36-2 2-6 8-8 13l-4 8v38l4 6c4 8 10 15 20 23 4 4 8 8 9 10 2 6 3 16 2 28-1 14-2 16-10 20-7 3-20 13-31 23-4 4-11 10-16 14-16 12-25 17-40 20-5 1-18 5-28 8-9 4-27 10-39 15-31 10-42 14-50 20-14 9-21 18-29 39-2 5-5 12-7 17-4 8-15 41-18 55-1 4-2 9-2 12 0 11-2 11 53 11 26-1 47-1 47-1z"/></svg>