<svg xmlns="http://www.w3.org/2000/svg" width="1344" height="566"><path d="M0 283V0h1344v566H0V283m594 50c2 0 5-2 6-4 8-6 12-8 18-8 8 0 10-3 8-12-5-17-9-42-10-51 0-11-1-12-4-17-3-4-6-7-11-10-3-3-7-5-8-5 0 0-5-2-9-4-5-3-13-7-20-9-6-2-12-4-14-6-3-2-8-5-13-7-15-8-29-18-36-29-6-9-22-23-30-29-10-6-13-9-11-16 0-2 2-7 3-10 1-7 1-17-2-24-4-9-18-18-28-18-8 0-17 5-21 12-2 4-3 22-2 30 2 9 2 24 1 32-1 9 0 12 4 17 4 4 7 15 8 27 0 14-1 23-6 37-2 7-3 12-3 16 0 5 0 5 4 9l5 5c0 1-4 6-9 12-9 11-13 17-15 26l-2 6 2 5c4 6 11 14 15 15 2 0 8 3 14 4 9 4 10 4 23 4 12 0 14 0 21-2 4-1 7-2 8-1 1 0 3-1 6-2s5-1 8 0c5 1 8 0 11-4s5-4 8 0c2 2 4 2 8 2 5 0 6 1 10 3 2 2 4 3 5 4 0 1 2 2 3 3 3 1 8 1 27 1 14-1 26-1 28-2z"/></svg>