<svg xmlns="http://www.w3.org/2000/svg" width="1344" height="566"><path d="M0 283V0h1344v566H0V283m515 277c24-3 196-5 225-3 19 1 82 1 143 0 37-1 76-1 107-1h68c30 0 59 0 65 1 6 0 18 1 28 1 20 0 21 0 19-7-1-8-4-18-13-34-10-21-17-32-29-45-9-10-17-17-27-23-7-4-32-16-43-19-8-3-42-14-60-20-5-2-14-5-18-6-16-5-28-10-31-13-5-5-5-7-2-22 2-6 4-17 5-25 7-31 10-44 15-49 1-2 7-5 12-8 9-4 12-6 17-12 8-8 13-15 18-27 8-17 10-32 8-43-1-8-4-12-11-16-2-1-6-4-7-5-3-3-3-3-3-12 1-5 2-15 3-24 3-23 5-59 3-78-1-20-4-39-7-45-1-2-5-7-8-10C981 4 981 4 851 4 746 4 729 4 714 7c-6 2-7 2-10 6-6 7-14 24-19 38-5 16-7 28-8 47-2 28-4 55-5 62-1 3-1 8-1 10s-1 8-2 12c-4 16-1 35 10 62 3 7 6 16 8 20s5 11 6 15c5 12 7 17 16 43 4 14 8 26 8 28 0 5-4 7-19 9-10 1-40 8-44 10-4 3-8 7-14 17-21 32-25 38-30 45-3 4-9 10-12 14-7 6-9 7-26 18-5 3-14 10-20 15-14 11-28 20-52 35-19 11-26 16-40 29-10 9-12 12-11 14 0 2 4 4 9 4 8 1 49 1 57 0z"/></svg>