<svg xmlns="http://www.w3.org/2000/svg" width="1344" height="566"><path d="M0 283V0h1344v566H0V283m299 277c8-1 16-2 18-2 2-1 6 0 11 0 10 2 196 3 220 1 12-1 22-1 37 0 12 1 53 1 92 1l70 1 3-3c3-3 3-5 0-24-4-25-14-60-25-80-13-25-12-23-11-32 1-6 1-9 0-10-1-2-8-5-23-11-6-2-13-5-15-6-5-2-10-4-37-13-5-2-14-6-21-8-23-9-24-10-22-26 1-8 5-27 6-29 1-1 10-32 10-36 4-27 4-30-4-83-1-13-4-35-6-48-3-19-9-45-13-56-7-17-22-33-45-49-16-11-43-22-60-24-9-1-32 1-37 3-1 1-7 3-12 4-23 7-34 13-50 28-7 7-10 10-13 17-14 26-19 48-27 103-5 34-6 41-7 59-1 10-1 21-2 25s-1 19-2 34c-1 23-1 31 0 44 2 26 2 33 1 36-2 3-11 7-20 9-16 5-27 10-38 17-32 21-39 25-49 30-16 9-20 13-21 26-1 4-2 10-3 13s-3 9-5 13c-3 6-8 27-10 39 0 4-2 11-3 16-1 10-1 15 1 19 2 1 4 2 18 2 20 1 75 0 94 0z"/></svg>