<svg xmlns="http://www.w3.org/2000/svg" width="1344" height="566"><path d="M0 283V0h1344v566H0V283m835 276c3-1 4-2 7-9 8-18 15-50 13-65-1-15-7-42-12-58-2-7-4-14-4-16 0-3-3-22-6-38-1-6-3-18-5-27-1-10-3-21-4-26 0-5-1-16-2-25-1-16-3-23-6-27-2-3-13-10-24-17-4-2-9-5-10-6-2-3-2-3-1-4 1-2 14-4 18-4 0 0 2-1 4-3 3-2 3-3 3-8s-1-7-4-14c-5-9-6-10-28-28-5-3-9-8-10-9-3-4-4-11-2-24 2-9 2-12 1-20-2-20-7-32-18-42-12-11-28-17-45-16-5 1-16 3-24 4-26 5-38 12-44 24-3 7-4 20-1 31 3 12 3 17-1 27-1 4-2 8-2 10 0 1-2 4-4 7-5 5-5 7 1 7 5 0 10 3 11 7 0 1 1 5 2 8 1 4 1 5 0 9-1 2-2 4-2 6 0 4-2 5-8 4-4 0-7-1-8-1-1-2-9-15-9-17l2-4c3-5-2-8-7-4-6 4-9 14-11 31 0 8-5 22-10 31-3 6-6 9-9 12-3 2-6 5-8 9s-5 8-6 9c-1 2-2 4-2 5s-1 4-3 6c-7 12-8 16-11 26-4 19-5 27-6 40 0 11 0 12 2 16 5 10 9 13 20 14 5 1 7 0 18-3 7-3 16-6 20-8l8-3 2 2c2 2 2 4 2 29 0 32-1 58-4 107-2 33-2 37-1 40 3 6 2 6 101 6 49 1 89 1 89 1 1 2 34 0 38-2z"/></svg>