<svg xmlns="http://www.w3.org/2000/svg" width="1344" height="566"><path d="M0 283V0h1344v566H0V283m750 277c7-3 11-7 13-10 1-2 3-13 5-25 0-4 1-9 2-13 1-5 1-8-1-12-1-5-2-44 0-60 5-55 5-73-3-100-5-18-10-26-27-46-5-4-9-10-10-11-2-5-2-17 1-29 1-6 3-14 4-19 0-5 2-13 4-18 7-22 9-36 9-60 0-21 0-24-5-48-4-20-9-30-21-42-11-12-25-21-45-32-29-14-51-18-74-15-36 5-51 10-67 21-13 9-26 24-33 39-7 17-11 32-15 68-1 12-3 17-7 19-10 5-12 9-10 25 1 6 1 16 1 22 0 8 0 10-2 14-4 7-10 14-19 24-10 10-10 10-28 19-9 4-22 11-28 14-19 11-30 17-31 18s-8 6-16 12c-8 5-17 11-19 13-8 6-25 22-32 31-15 16-36 44-42 56s-13 36-15 53c-1 5-2 13-3 20-1 13-1 19 0 24 1 2 2 11 3 19 2 19 4 24 9 27 3 1 7 1 43 1 22 0 52 0 67-1 24-1 87 0 148 2h37c10 0 21 0 25 1 5 1 31 1 58 2h118l6-3z"/></svg>