<svg xmlns="http://www.w3.org/2000/svg" width="1344" height="566"><path d="M0 283V0h1344v566H0V283m1004 173c4-4 15-16 18-20 2-3 2-6 3-13 1-8 1-11 4-18 2-5 5-12 6-16 2-4 5-10 8-14 6-10 7-14 8-28 0-10 0-13-2-19-3-11-5-14-15-25-6-7-9-11-10-14s-1-10 0-24c1-17 1-24 0-45-2-26-4-36-9-46-5-11-12-17-25-23l-10-5h-11c-25 2-30 5-38 18-2 4-5 10-7 13s-5 8-6 10-2 7-4 11c-1 3-3 12-4 18-5 35-5 33-14 34-10 1-16 6-21 16-5 9-7 16-7 28-1 6-2 12-2 15-1 2-2 7-3 9-2 10-3 11-10 15-8 4-15 11-18 17-1 3-1 6-1 16 1 11 1 13 3 18 8 14 12 18 22 20 11 1 16 4 16 9 0 2 8 9 15 12 3 1 8 4 12 6 5 3 10 5 20 7 14 3 22 5 37 10 5 1 13 3 17 4 3 1 10 3 14 4 9 2 11 2 14 0z"/></svg>