<svg xmlns="http://www.w3.org/2000/svg" width="1344" height="566"><path d="M0 283V0h1344v566H0V283m671 279c8-2 20-2 83-1 24 0 56 0 71-1 47-2 94-3 145-4 28 0 63 0 79-1 17 0 32 0 37 1s28 1 51 2c40 0 44 0 45-1 4-4 2-11-10-35-11-23-19-37-33-57-13-21-21-31-34-43-24-24-38-32-65-41-24-7-44-13-63-20-10-3-22-7-27-9-26-6-30-8-53-20-22-12-23-12-33-14-12-2-14-3-19-7-6-6-17-34-19-51-3-18-1-28 8-47 2-4 4-11 5-15 3-11 2-26-1-38-2-4-3-12-4-18-3-29-7-55-11-65-4-9-6-13-15-22-5-5-11-13-15-17-3-4-7-9-9-10-5-4-15-7-25-8-5-1-14-2-19-3-4-1-14-2-21-3-11-1-14-1-21 0-5 1-12 2-16 3-14 2-28 7-45 15-26 13-31 17-37 28-10 20-11 34-11 82 1 34 2 46 10 76 8 33 17 51 49 97 13 20 16 24 25 34 4 4 8 9 8 10 1 3-2 9-8 14-5 6-17 14-22 16-41 19-92 47-110 60-12 9-28 24-35 33l-13 13c-10 7-12 12-16 25-2 6-4 15-7 21-5 15-4 17 10 20s174 3 191 1z"/></svg>