<svg xmlns="http://www.w3.org/2000/svg" width="1344" height="566"><path d="M0 283V0h1344v566H0V283m839 278c15-3 39-3 103-3 54 0 59-1 61-2 6-4 6-10 2-42-1-9-2-18-2-21 0-2-1-7-3-11-3-8-7-31-7-46-1-6-2-16-2-22-3-22-4-32-5-46 0-9 0-15-1-18-3-6-6-24-12-52-3-17-6-30-11-39-5-11-14-18-34-27-12-6-23-14-27-19s-2-14 5-29c2-3 4-9 5-13 2-14 1-39-4-58-3-11-8-21-14-29-9-10-13-13-25-16-10-2-11-2-26-1-14 1-15 1-20 4-9 5-20 17-25 28-2 5-2 6-2 22v17l3 7c6 13 6 13 0 19-9 9-10 12-11 37-1 26 0 25-15 33-6 2-12 5-14 5-4 1-13 6-19 10-7 5-8 8-9 20 0 6-1 16-2 22-2 9-2 15-2 44v34l3 8c4 11 6 17 9 21 1 2 7 6 14 11 8 5 11 8 12 10 1 6-3 27-13 57-6 20-13 44-13 47 0 1-2 8-4 14-4 14-6 21-4 23s13 3 58 2c29 0 44 0 51-1z"/></svg>