<svg xmlns="http://www.w3.org/2000/svg" width="1344" height="566"><path d="M0 283V0h1344v566H0V283m889 279h135c29 1 39 1 69-2 12-1 13-4 7-18-2-4-5-12-7-17-3-11-9-23-14-29-4-5-11-21-12-28-2-11-1-31 5-69 10-59 10-67 4-74-1-1-3-2-4-2-3 0-7 4-10 9-2 4-3 6-5 6-4 0-6-4-7-17-2-13-3-17-8-20-4-3-6-2-10 3-3 2-5 4-6 4s-4-3-7-6-6-6-7-6c-3 0-9 7-12 12-2 6-4 7-9 5-4-2-7-1-11 4-4 4-6 10-8 23-2 12-2 13-4 14-1 2-7 2-12 1-7-3-25-9-37-15-7-3-17-7-21-8-10-4-16-8-17-11 0-2 1-11 3-21 6-30 7-56 4-84-2-24-9-41-22-58-8-12-19-20-40-31-18-10-24-12-38-15-20-4-37-3-49 1-6 1-27 12-35 18-11 7-25 23-31 34-3 6-9 23-9 27 0 2-2 9-9 39-3 9-4 16-4 21 0 3-1 10-2 15-1 7-1 10 0 20 2 23 2 23 1 27-3 6-13 10-62 25-7 2-15 5-17 6-2 0-6 1-9 1-9 2-9 1-10-25 0-17-1-22-2-25-2-4-5-4-7-3s-4 3-5 4-4 2-5 4c-5 4-6 2-11-16-3-9-6-13-10-13-2 0-5 3-7 6-3 4-6 7-7 7-1 1-3 0-7-1-4-2-5-2-7-1-3 1-7 6-8 10-1 9-4 16-7 19-2 3-3 3-6 3-14-2-14-2-16 1-2 2-2 3-2 16 1 7 2 15 3 18 0 3 1 9 2 13 0 3 1 8 2 11 0 2 1 6 1 8s1 7 2 12c10 46 11 54 11 66-1 13-6 34-13 51-6 14-9 21-16 29-7 9-8 14-2 18 5 2 24 3 34 2 4-1 12-1 21 0 13 1 48 1 83-1 20 0 121 2 131 3 4 0 25 1 46 0h139z"/></svg>