<svg xmlns="http://www.w3.org/2000/svg" width="1344" height="566"><path d="M0 283V0h1344v566H0V283m478 137c8-2 14-4 27-9 5-2 11-4 12-4h33c19 0 36 1 47 2s32 2 56 3c38 0 41 0 60 4 11 2 18 2 25 1 2-1 8-1 14-2s12-2 14-2c3-1 7-2 10-2 2 0 6-1 8-2 3 0 7-2 9-2 3 0 5-1 6-1 0-1 4-2 9-3 22-6 31-9 37-13 8-6 17-9 27-10 8-1 9-2 11-4 2-3 2-13 0-36 0-13-1-15-3-19-2-2-4-6-5-8-4-9-3-9-7-9-5 0-8-2-8-8 0-4-2-9-5-15l-4-9v-11c1-9 0-19-2-22-1 0-2-8-4-17-2-8-5-19-6-23-2-8-4-18-8-36-5-24-16-52-27-65-14-18-27-26-55-35-8-2-10-2-22-2-10 0-16 0-23 2-30 7-50 21-61 45-10 19-12 33-13 101-1 32-1 41-2 43-1 1-2 1-6 1-16-2-17-2-23 1-4 1-10 5-13 8-17 13-17 14-25 28-7 14-9 17-17 22-3 2-8 5-10 7-6 5-42 23-50 25-5 2-9 2-13 2-11-2-15 1-21 15-2 4-4 8-4 9-1 0-5 11-11 26-7 19-7 19 6 22 4 0 8 1 9 2 4 1 20 1 28 0z"/></svg>