<svg xmlns="http://www.w3.org/2000/svg" width="1344" height="566"><path d="M0 283V0h1344v566H0V283m806 278c22-1 190-1 192 0s93 2 96 1 5-5 6-11c1-3 1-5-3-13-4-10-5-11-3-20 3-13 10-30 25-60 12-23 14-30 16-36 1-9 1-14-3-18-2-3-3-3-7-3s-6 0-9-4c-2-2-5-6-7-8-4-8-11-10-17-5-7 6-11 6-18 2-8-5-16-3-24 6-5 5-7 6-16 6l-8 1-4-3c-3-3-5-6-8-16l-9-18c-6-10-18-26-22-29-4-2-39-19-47-21-7-3-28-14-31-17-6-5-7-13-5-38 4-28 2-60-4-81-4-16-10-27-24-40-9-9-16-14-34-24-27-16-36-18-63-18-17 0-19 0-25 2-12 4-28 12-42 21-20 13-37 40-38 63 0 9-3 19-12 37-7 14-7 10-6 49 1 19 1 20-1 23-3 5-9 7-31 15-36 11-54 19-67 30-5 4-9 9-11 11-3 5-7 14-11 31-3 14-7 27-9 30-3 6-5 7-11 7-8 0-9 1-17 9-7 8-6 8-14-3-5-8-8-11-13-11-2 0-3 1-6 4-1 1-4 5-5 7-2 1-4 3-5 3 0 0-4-1-7-3-7-4-9-4-13 0-2 2-3 4-4 10-2 11-3 12-14 12-9 0-13 1-15 5-3 7 0 17 12 38 9 16 28 45 36 55 10 13 20 18 36 19h120c94 0 112 1 114 2 5 3 37 3 90 1z"/></svg>