<svg xmlns="http://www.w3.org/2000/svg" width="1344" height="566"><path d="M0 283V0h1344v566H0V283m468 127c1-2 5-4 9-6 12-5 19-8 26-15 10-9 17-9 17-2 0 3 1 4 2 6 3 2 3 2 11 2 5-1 9-2 11-3 1-1 4-2 6-2s6 0 9-1c4-1 7-1 14 0 5 1 13 2 18 3s11 2 13 2c3 1 21 1 40 2 23 0 40 1 48 2 21 2 51 0 65-5 6-3 16-5 25-5 5-1 12-2 16-3 23-5 33-6 48-6 9 1 16 1 17 0 2-1 3-6 2-17-1-6-1-13-1-14-1-1-1-9-2-17-2-35-2-34-7-43-4-6-6-8-10-11-8-6-9-7-10-12 0-6 3-10 9-11 2 0 5-1 6-1 1-1 1-7 1-25 0-29-1-50-4-72-4-26-6-33-10-46-10-30-23-46-49-60-12-7-19-8-34-8-12 0-17 0-36 6-18 6-28 15-37 34-8 16-9 24-11 63-1 13-2 27-2 29-1 3-1 17-2 31s-1 26-2 27c0 3-8 5-22 6-7 1-15 2-17 3s-11 1-20 2c-17 1-19 1-24 6-2 1-6 3-10 4-14 5-23 12-28 21-1 2-3 7-4 12s-3 10-4 11c-1 3-9 10-14 13-2 1-6 4-9 5-3 2-10 5-15 7-6 2-12 4-13 4-2 1-4 3-7 9-10 21-22 51-26 60-2 7-1 9 5 14 6 4 8 4 12 1z"/></svg>