<svg xmlns="http://www.w3.org/2000/svg" width="1344" height="566"><path d="M0 283V0h1344v566H0V283m796 276c13-1 182-1 223 1 25 1 47 0 52-2 4-1 6-5 6-9-1-6-8-24-15-42-5-15-13-38-13-41 0-1-2-9-5-18s-7-22-9-30c-5-19-12-40-14-45-6-12-16-18-43-26-29-9-57-18-61-20-7-4-10-8-13-16-5-14-27-45-51-71-5-7-10-12-13-18-5-11-5-14-2-32 3-16 4-51 2-71-4-53-23-85-61-102-21-10-27-11-64-11-42 0-50 1-72 9-9 3-14 6-18 14-2 3-9 12-14 20-18 24-22 32-35 66-10 28-10 31-3 57 3 10 6 21 7 25 7 24 9 29 10 34 2 8 6 15 13 22 6 6 15 11 35 19 23 10 26 12 26 20 0 5-2 10-11 20-14 16-43 33-80 46-9 3-18 8-50 24-18 10-23 14-31 21-11 13-17 33-21 80-3 27-4 37-6 44s-2 25 0 27l4 4c3 1 13 1 106 2h104c1 1 105 0 117-1z"/></svg>