<svg xmlns="http://www.w3.org/2000/svg" width="1344" height="566"><path d="M0 283V0h1344v566H0V283m343 278c26-1 35-2 119-1h162c135-1 255-1 293-1 117 2 135 2 149-2 7-1 18 0 26 3 4 2 7 2 20 3 18 0 85-2 90-3 8-2 9-8 4-33-2-10-4-21-5-25-3-20-7-24-29-29-11-2-14-4-18-9s-10-18-14-30c-2-4-6-16-10-25-3-10-7-22-9-27-1-4-5-15-8-24-7-18-15-42-20-60-2-7-5-18-7-25-5-16-13-35-18-40-6-7-13-9-18-5-4 3-5 5-6 11-1 11-5 7-18-20-9-16-14-23-20-26-5-2-11-1-17 2l-6 3-4-2c-13-10-13-10-18-10-4 0-5 1-8 4-4 4-5 5-5 10-1 5-2 6-4 8s-4 3-5 3c-3 0-8 4-10 9-2 4-2 5-2 17 1 16 5 34 10 51 1 3 6 13 10 23 7 16 7 18 9 29 1 15 5 22 16 40 10 14 35 48 46 60 31 39 50 76 47 90-1 4-6 6-12 6-4 0-7-1-11-3s-13-7-21-12c-23-11-28-16-36-38-5-15-12-27-19-34-3-3-11-10-18-16-31-28-34-29-66-29-10 0-25 1-32 1-7 1-23 1-35 1-30 1-31 0-30-20 1-13 5-41 9-58 1-5 3-10 5-13 5-9 7-13 8-23 2-18-3-45-17-85-8-23-29-66-47-95-19-31-57-57-99-67-25-7-39-7-64-3-8 2-18 4-24 5-23 3-50 14-69 27-14 10-30 31-43 57-12 23-16 38-16 56 0 8 0 11 2 15 1 2 4 9 5 14l3 10v22c-1 13 0 26 0 29s3 10 5 15c8 18 8 20 9 36 1 22 4 29 14 44 8 11 19 21 34 28 12 7 15 10 15 20 0 7-3 16-11 30-8 15-17 25-29 34-9 5-11 6-28 12-13 6-13 6-15-14-1-14-8-38-15-51-2-4-7-8-11-8-7 0-15 9-18 21-1 3-1 14-1 30-1 26-1 29-5 29-1 0-5-6-7-13-5-18-11-50-12-70-2-23-5-48-7-57-4-14-10-23-16-23-3 0-7 4-8 9s-4 31-5 54c-1 19-2 25-4 25-1 0-2-2-6-13-2-6-6-15-8-21-2-5-5-15-8-22-9-27-13-34-22-37-6-3-9-2-13 1-4 5-4 7 2 32 6 31 9 44 9 50 1 2 2 9 3 15s2 13 2 17c0 6 0 6-1 6-3 0-9-11-15-26-2-5-6-14-9-20-2-7-5-14-6-17-5-13-10-19-19-19-5 0-10 5-10 11-1 5 0 10 5 31 3 8 5 18 6 23 1 4 3 11 5 16 6 17 8 24 6 25-2 2-5-1-11-8-9-12-21-24-26-27-7-5-15-3-18 3-2 4-1 11 4 22s11 20 26 40c6 8 14 19 17 24 16 21 23 27 34 28 8 1 37 0 73-1z"/></svg>