<svg xmlns="http://www.w3.org/2000/svg" width="1344" height="566"><path d="M0 283V0h1344v566H0V283m1133 278c17-1 22-2 26-6s3-7-5-19c-3-5-9-13-12-17-3-3-8-9-10-13-7-9-19-25-24-31-6-8-21-30-26-41-4-9-5-11-1-19 4-9 5-13 6-25 1-15 3-18 15-19 8-1 12-3 14-7 1-5 1-7-1-15-3-10-6-15-10-21-3-3-7-9-9-13-6-8-9-11-20-17-14-8-25-17-39-34-4-5-9-11-10-12-5-4-16-17-17-21-2-2-2-6-2-13-1-12-2-16-11-34-8-18-10-24-13-36-11-36-25-54-47-59-8-2-30 1-41 6-6 2-23 13-27 18-5 4-5 2-3 34 0 18 0 22-1 31l-2 10 3 10c10 27 11 29 14 33 4 4 5 7 3 12-1 1-3 6-5 11-1 5-4 12-6 16-2 5-5 13-7 19l-3 10 3 8c4 7 4 8 4 17 0 11 2 26 5 36 4 14 13 63 14 72 0 7 0 9-2 14s-2 6-1 13 0 11-1 17c-3 17 0 68 5 76 1 3 8 8 10 8 11 3 198 3 234 1z"/></svg>