<svg xmlns="http://www.w3.org/2000/svg" width="1344" height="566"><path d="M0 283V0h1344v566H0V283m673 277h91c44 0 53 0 56-1 6-2 7-5 4-14-1-4-3-14-4-21-4-30-4-29-27-55-8-10-19-27-21-34-1-3-1-6 1-15 2-6 4-16 6-22 5-15 5-22-1-40-2-7-5-18-7-23s-3-10-3-12c0-4 7-23 17-49 10-25 16-41 17-51 0-5 1-13 2-19s2-18 4-27c2-19 3-36 1-45-3-8-12-26-19-36-10-12-26-28-35-33-13-7-35-14-51-16-17-1-48 4-66 11-13 6-43 26-50 35s-17 31-21 47c-2 9-3 38-1 50 1 5 2 15 2 22 1 7 2 15 2 18 6 22 8 28 10 34 1 2 2 6 2 10 0 5 0 6-3 9l-3 3h-11c-6 0-15 0-20-1s-16-1-25-2c-13 0-17 0-24 2-17 4-27 11-35 24-14 22-20 60-17 111 1 20 1 26 4 64 1 10 2 25 2 32-1 17 1 24 6 32 7 10 8 10 26 12 12 1 32 1 84 0h107z"/></svg>