<svg xmlns="http://www.w3.org/2000/svg" width="1344" height="566"><path d="M0 283V0h1344v566H0V283m690 277c51-1 132-1 179-1 66 0 86 0 88-1 6-3 0-10-29-32-18-14-25-19-38-26-19-10-29-18-41-33-8-9-10-13-15-27-3-6-7-15-10-20-2-6-6-16-9-22-2-7-5-16-8-21-7-13-6-15 13-20 16-4 38-11 44-14 9-5 12-11 11-24-1-4-4-18-10-36-5-16-10-35-12-41-4-22-9-38-17-64-4-13-9-29-10-34-5-18-13-36-19-46-5-6-15-16-20-20-17-13-50-21-77-20-8 1-12 2-29 8-32 11-42 16-50 29-14 20-20 40-29 89-1 8-3 17-3 19-1 2-2 24-2 49s-1 45-2 47c-2 7-6 11-16 21-6 6-11 12-12 14s-2 5-2 8c0 7-2 11-11 24-16 22-18 26-24 38-4 6-10 17-13 23-24 44-34 71-42 113-4 20-3 20 14 21 15 1 78 0 201-1z"/></svg>