<svg xmlns="http://www.w3.org/2000/svg" width="1344" height="566"><path d="M0 283V0h1344v566H0V283m531 277c5-1 9-1 14 0 7 1 88 2 118 1h20l5-3c4-4 6-7 9-15 1-3 4-8 6-11 8-10 10-19 7-32-3-15-5-25-7-30-1-3-2-6-2-7 0 0-2-6-5-12-5-10-5-11-6-21 0-9-1-11-3-14-2-2-10-6-37-18-68-28-75-32-75-41 0-8 8-34 14-45 1-3 3-8 4-11s3-8 4-11c4-12 5-50 2-70-1-4-3-15-4-24-4-20-9-45-14-62-3-14-6-21-11-36l-7-14c-13-25-29-42-56-55-23-11-36-14-56-13-9 1-13 1-17 3-3 2-12 5-20 7-16 4-24 8-33 14-6 4-18 16-23 24-18 24-34 97-39 183-1 9-1 19-2 24-2 21 0 55 5 88 2 10 0 13-16 21-9 5-22 10-32 12-8 2-17 7-31 18-16 11-29 20-41 27-16 9-20 14-20 25 0 5-1 9-5 20-7 16-10 29-12 42-1 5-2 13-3 18-1 9-1 14 2 17 2 1 7 1 55 1 30 0 59 0 67-1s15-1 17 0c4 1 23 1 150 1 32 1 58 1 59 1 0 1 3 1 19-1z"/></svg>