<svg xmlns="http://www.w3.org/2000/svg" width="1344" height="566"><path d="M0 283V0h1344v566H0V283m757 280c3 0 24-1 47-2 24 0 46-1 50-2 5 0 26 0 48 1 48 2 76 1 81-3 2-2 2-2 2-9 0-5-1-11-5-22-10-37-11-42-9-76 2-32 2-142 1-150-2-7-7-18-12-26-8-11-26-28-56-51-10-7-17-14-19-18-1-1-2-9-2-20-1-17-3-34-6-44-1-7-9-25-14-33-9-15-21-27-47-45-21-13-21-14-35-16-18-2-53-3-61 0-15 4-27 9-39 17-8 5-24 21-28 28l-8 12c-6 10-13 26-16 36-2 6-3 12-4 26-2 21-4 28-8 32-4 5-16 12-35 22-10 5-22 11-27 14-10 6-23 17-27 23s-7 15-8 28c-1 6-1 11-2 12 0 1-1 7-1 13-1 7-4 21-7 31-2 10-5 23-6 27-1 5-3 14-5 20-4 16-10 47-12 67-2 23-4 25-35 40-28 14-57 28-64 30-15 5-35 9-67 12-15 2-23 1-33-2-13-4-22-6-32-7l-10-1-5-5c-2-3-5-5-5-5-1 0-3 1-6 3s-9 4-13 6c-9 3-18 6-27 10-12 5-15 6-16 6s-2 1-3 2c-2 2 1 5 6 6 6 1 30 3 67 4 14 0 28 1 30 2 5 1 17 1 33 0 21-3 47-3 72-2 13 1 39 2 59 2 30 1 36 1 41 2 5 2 13 2 105 3 54 0 99 1 100 1 3 2 16 3 42 2 14 0 28 0 31-1z"/></svg>