<svg xmlns="http://www.w3.org/2000/svg" width="1344" height="566"><path d="M0 283V0h1344v566H0V283m479 116c9-4 24-7 45-8 9 0 17-1 20-2 13-5 24-6 48-3 6 1 25 2 42 3 16 0 41 1 56 2 30 1 59 1 70-2 3 0 10-2 14-3 6-1 16-3 32-8 15-4 37-5 50-1 5 2 8 1 7-4 0-9-1-25-3-33 0-4-1-13-1-18 0-6-1-16-2-23-1-15-1-16 6-18 3-1 4-3 2-7-1-1-1-4 0-8 5-16 6-26 5-64 0-31 0-37-2-50-5-37-8-48-16-65-6-12-12-21-18-26-3-4-20-14-30-19s-17-6-33-6c-15 1-23 3-37 10-18 8-30 24-36 46-2 6-2 12-3 34-1 15-2 34-2 42-1 7-2 22-2 32-1 20-2 26-4 27-3 2-22 0-31-4s-24-3-34 3c-7 4-9 4-12 1-2-2-2-2-3-1s-2 2-2 3c0 4-6 34-8 36 0 2-1 4-1 5 0 3-3 7-5 6-1-1-1-3-1-6 0-6-2-8-10-9-3-1-6-2-9-6-3-2-6-6-7-8 0-1-2-4-4-5s-6-5-9-8c-5-5-16-12-19-12-1 0-2-1-4-2-2-2-3-2-9 0-12 4-15 5-18 8-4 3-9 12-9 18-1 2-2 7-3 9 0 4-1 8 0 15 0 10 0 11-2 17-2 3-4 6-5 7s-7 5-14 8c-11 5-15 9-18 14 0 1-1 3 0 3 0 2 4 4 8 4 5 0 10 2 11 4 2 4 1 14-4 29-3 8-6 18-7 22s-3 10-4 12c-1 6-1 9 3 11 5 3 13 2 22-2z"/></svg>