<svg xmlns="http://www.w3.org/2000/svg" width="1344" height="566"><path d="M0 283V0h1344v566H0V283m616 278h244c98-1 179-1 183 0h29c31-1 30-1 21-29-5-14-5-14-4-21 1-5 1-9 2-11 1-3 1-5-2-8-2-3-13-9-26-14-9-4-86-43-92-46-6-4-9-8-10-14 0-5 0-10 4-46 5-33 5-54 4-91-2-45-6-83-12-117-6-33-10-46-22-70-8-17-15-26-27-38-18-18-33-27-64-37-16-5-24-7-35-7s-20 2-28 7c-7 4-8 4-18 5-18 1-28 5-41 15-14 11-20 19-30 38-8 17-12 27-16 46-2 9-3 17-5 47-1 14-1 78 1 109 0 13 0 13-2 19-13 28-13 28-28 36-6 3-11 6-13 8-6 4-6 5-3 52v14l-3 2c-2 2-5 3-10 4-4 1-11 2-14 4-11 3-44 17-54 21-9 4-32 13-33 13-2 0-11 5-11 6-1 1-1 6 0 12 0 10 0 13-2 23-2 7-4 13-4 15-2 4-14 38-15 42-1 6 1 9 4 10 4 2 26 3 45 2 10 0 49 0 87-1z"/></svg>