<svg xmlns="http://www.w3.org/2000/svg" width="1344" height="566"><path d="M0 283V0h1344v566H0V283m786 277c176 1 272 0 296-3 12-2 21-4 24-6 3-3 0-13-6-19-2-1-7-5-11-8-11-6-17-12-33-30-19-21-27-28-60-49-14-9-18-12-23-21-3-5-11-13-17-20-6-6-13-14-15-18-2-3-5-8-7-10-2-1-4-5-5-7-3-7-11-13-29-22-19-11-20-12-16-29s8-22 24-30c16-9 23-16 26-26 5-15 5-15 6-51 1-19 1-41 2-48 0-17-1-28-6-41-2-5-4-11-4-14-3-6-10-23-13-28-3-6-8-12-17-22-14-14-32-26-46-31-5-2-10-4-12-4-2-1-8-3-13-4-22-5-50-5-75 2-7 1-18 4-24 5-14 3-27 7-34 11-3 2-9 7-13 11-11 10-32 37-37 45-8 17-11 43-8 83 1 16 3 27 9 54 2 9 4 18 4 19 0 4 5 25 9 37 12 37 23 64 35 86 4 6 6 12 6 13-1 2-4 4-18 9-36 13-72 29-84 38-8 6-14 12-16 17-4 10-2 13 15 26 10 8 22 15 31 20 6 3 7 4 9 9 2 3 4 8 5 11 0 3 2 7 4 9 1 2 4 6 5 9 2 3 5 7 10 12 8 7 8 7 20 11 13 4 22 5 37 4h65z"/></svg>