<svg xmlns="http://www.w3.org/2000/svg" width="1344" height="566"><path d="M0 283V0h1344v566H0V283m819 275c3-2 4-4 6-12 1-4 2-9 3-11 2-4 2-6 2-15 0-10-3-38-5-46 0-3-2-13-3-22-2-20-2-26 2-55 0-7 2-19 3-27 0-8 2-18 2-22 4-21 5-33 3-44-1-3-4-11-7-18-7-14-8-18-7-30 0-7 0-13-1-18-1-4-1-17-1-30l-1-22-4-7-3-7-1-27c0-49-2-62-11-69-5-4-9-6-18-8-10-2-14-2-21 1-4 1-17 14-19 19-1 3-4 8-7 11-4 7-5 7-5 18-1 12 0 14 5 20 8 8 8 12-1 17-4 2-6 4-9 7-4 7-6 13-10 43-1 9-3 18-4 22 0 4-1 8-2 10-1 7-3 10-10 17-3 4-8 9-9 12-2 2-4 5-5 5-2 0-6 0-9-1-6-1-7-1-11 0-2 1-3 3-4 5 0 1-1 4-1 6-1 3-1 4 1 6 3 4 5 5 22 4h17l10-5c11-5 23-12 30-17 3-2 4-3 6-3 5 2 11 20 11 33 0 5 1 9 2 12 1 2 3 10 4 16 2 7 4 13 4 14 1 2 8 9 16 16 14 14 17 18 17 23 0 4-4 14-9 25-9 20-10 26-4 61 2 10 3 14 6 21 5 11 7 21 8 48 0 11 1 21 1 22 2 4 6 5 12 4 4 0 7-1 9-2z"/></svg>