<svg xmlns="http://www.w3.org/2000/svg" width="1344" height="566"><path d="M0 283V0h1344v566H0V283m817 276c9-1 17-2 18-3 2-1 6-1 10-2 3-1 8-1 11-2 2-1 10-3 19-4 8-2 18-5 22-7 4-1 14-3 21-5 23-4 57-3 78 3 3 0 12 3 19 6 21 6 25 7 44 7 13 0 17 0 18-1 4-3 2-12-11-39-20-43-21-49-24-92-1-18-4-36-7-45-1-4-4-11-7-17-10-23-16-38-16-39s-7-16-13-28c-13-26-19-32-47-42-6-2-15-6-21-8-5-2-17-6-27-10-27-9-34-13-58-34-11-10-15-15-16-21-1-2 0-7 3-15 5-14 8-25 13-49 4-20 5-23 12-34 7-10 9-14 10-24 2-12 2-21 1-30-3-10-5-13-11-16s-7-3-21-4c-20-1-198-1-216 0-21 1-23 3-20 18 1 3 1 13 2 23 2 29 6 43 23 73 8 13 12 21 14 33 1 10 1 12-7 23-2 4-7 11-9 15-5 9-15 22-20 25-4 2-17 8-38 16-15 6-23 11-25 15-2 2-2 4-1 8 2 10 9 26 15 35 7 11 19 34 20 40 1 7-2 28-11 59-1 5-3 14-4 19-1 6-3 13-4 17-1 5-1 14-1 35-1 19-1 33-2 38-2 10-2 49-1 53 1 3 3 4 9 7l7 4h88c56 0 88 0 92 1 8 2 51 1 69-2z"/></svg>