<svg xmlns="http://www.w3.org/2000/svg" width="1344" height="566"><path d="M0 283V0h1344v566H0V283m283 277c6-1 8-1 12 0 4 2 13 2 45 2h461l3-2c3-2 4-2 14-1 12 1 86 2 139 2 29 0 32 0 34-1 6-4 7-11 5-29-1-6-3-19-4-29-1-9-4-26-6-36-4-23-5-35-1-40 2-3 8-9 17-15 7-5 15-8 24-9 12-2 67-2 102 0 32 1 44 1 53-4 11-4 15-12 10-19-3-4-5-5-38-7-17-1-22-3-29-9-4-3-8-5-12-6l-7-2-9 3c-19 7-25 7-45 5-15-2-22-4-38-13-25-13-32-19-38-30-3-8-8-25-10-38-2-10-4-21-10-37-3-9-4-15-3-16 0-1 4-6 9-11 10-10 15-18 25-36 13-26 14-33 9-54-1-7-3-16-4-21 0-5-3-14-5-19s-4-13-6-17c-2-8-9-18-14-22-10-7-25-11-46-12-13 0-15 0-23 2-23 7-45 27-49 47-1 7-1 15 2 32 2 18 1 31-4 41-2 4-12 13-17 16-4 1-9 1-15-1-3 0-9-1-13-2-12-1-16 3-19 14-3 12-8 20-27 42-13 15-23 31-30 49-7 16-7 20-7 57-1 27-1 35-2 40-4 17-12 46-14 49-1 3-4 5-6 3s-4-23-5-52c-1-16-1-31-2-32 0-2-1-12-2-22-5-66-11-103-23-136-12-32-25-49-46-64-12-7-21-11-41-18-16-5-17-5-29-6-14 0-18 0-41 8-20 6-36 14-46 23-12 10-22 30-28 53-3 10-3 22-3 82 0 50 0 67 2 84 2 29 2 66 0 74-3 9-11 16-16 13-2-1-4-7-6-25 0-8-2-20-3-26-1-5-3-15-4-21-3-21-11-57-14-65-2-4-4-6-15-12-4-3-8-11-9-17-1-3 1-14 4-19 1-3 3-5 6-6 11-5 14-10 22-30 6-16 7-23 6-38-3-18-7-46-8-50-3-11-23-26-43-32-6-2-12-2-23-3-15 0-16 0-24 2-10 3-20 9-23 15-10 13-12 34-8 60 1 7 2 19 3 27 0 17-1 23-7 28-7 5-12 11-15 15-2 3-6 8-8 12-4 5-15 17-33 35-26 27-31 33-37 45-6 13-15 42-19 63-3 19-2 66 3 99 1 9 2 23 3 38 0 19 1 23 2 25 3 4 6 6 12 7 15 3 91 3 105 0z"/></svg>