<svg xmlns="http://www.w3.org/2000/svg" width="1344" height="566"><path d="M0 283V0h1344v566H0V283m693 279c14-2 28-2 107-1 125 1 142 1 144-1 5-3 1-8-11-15-10-5-19-9-41-16-15-5-20-6-42-12-15-3-24-8-31-15-15-16-15-17-2-42 5-10 11-21 12-25 2-4 5-11 7-16 11-22 16-43 18-79 4-83 4-97-3-126-4-15-8-25-15-38-17-36-38-57-72-73-19-9-36-13-71-16-26-3-33-2-60 7-17 6-25 10-38 20-19 14-32 30-41 48-10 19-12 33-15 72-2 24-2 30-5 40-4 17-5 25-5 37s1 15 6 21c5 4 5 4 5 10 0 3-1 8-2 10-4 12-3 40 3 56 2 4 4 11 5 15 11 33 12 37 8 45-3 6-13 17-18 20-7 3-33 13-42 15-26 6-63 19-80 27-6 3-13 6-15 7-11 4-27 13-28 16-1 2 1 5 4 6s65 1 130 0c52-1 108 1 125 3 11 2 40 2 63 0z"/></svg>