<svg xmlns="http://www.w3.org/2000/svg" width="1344" height="566"><path d="M0 283V0h1344v566H0V283m870 279h108c63-1 68-1 73-2 5-2 7-2 26-1 29 1 143 1 152-1 4 0 8-2 10-3s3-3 3-9c0-8-3-24-7-36-4-10-16-35-19-41-9-15-26-34-37-42-8-5-23-13-32-15-31-9-46-14-80-28-11-4-18-7-27-15-12-10-18-14-24-16-5-1-7-1-17 1l-11 2-5-2c-3-2-6-4-9-10-7-9-12-21-13-26 0-6 2-12 10-23 7-9 15-25 16-33 1-3 1-10 1-17-1-13-1-15 7-36 12-29 13-33 17-61 2-9 3-21 4-31 1-25-1-31-17-55-17-25-24-32-42-44-9-6-17-9-26-11-8-2-82-2-91 0-12 2-38 12-49 19-27 17-35 24-47 40-10 15-13 23-14 42-1 17-2 20-11 46-9 27-10 37-8 72 1 9 1 23 2 33 1 16 1 19 6 37 8 31 10 39 22 64 3 8 8 20 10 26 6 16 7 18 17 28 5 6 9 11 9 12s-4 5-12 11c-12 10-18 14-41 29-7 5-18 12-26 17-30 20-36 23-39 24-5 1-8 6-11 15-2 3-4 9-6 13s-4 10-5 14c-1 7-1 7 1 10 2 2 3 2 14 2 7 0 20 0 30-1h23c6 1 121 3 129 2h36z"/></svg>