<svg xmlns="http://www.w3.org/2000/svg" width="1344" height="566"><path d="M0 283V0h1344v566H0V283m495 276c5-2 19-3 27-1 4 1 12 1 21 1 15 0 15 0 20-3 6-4 12-14 12-19-1-2 0-5 2-9 1-4 5-13 9-22 7-18 9-20 15-16 2 0 5 1 10 1 11 0 16-3 21-10 9-13 20-31 28-47 7-14 9-20 11-27 3-14 4-18 9-27 3-5 5-11 5-13 1-7 3-9 8-15 2-3 5-6 6-8 2-4 5-15 6-27 0-5 1-13 3-17 1-5 2-9 2-10 0-2-5-1-10 3-7 6-14 9-19 9-7 0-11 2-18 6-6 5-9 5-14 2-3-2-3-2-7 0-3 1-9 6-15 12-12 12-14 12-18 6-1-3-4-10-7-17-5-14-8-20-12-24-4-5-20-15-35-22-16-8-19-10-19-14 0-5 7-17 15-26 8-8 15-20 25-39 5-9 5-12 8-42 2-22 2-27 1-40s-1-14-4-20c-10-18-32-34-54-39-10-3-23-4-28-4-3 1-10 3-16 5-10 3-12 4-17 8-16 16-31 56-41 114-4 23-6 33-10 48-4 18-4 18 4 24 9 5 10 6 8 13-1 3-2 7-5 11-2 3-5 8-6 11-2 3-5 7-7 9l-4 4 1 16c1 9 2 21 2 26 2 14 1 39 0 44-3 5-5 18-5 24 0 3-1 9-1 14-1 7-1 9 1 17 2 10 3 12 9 21 2 3 4 8 4 12 1 3 3 8 4 11s2 7 2 9 1 5 2 7c4 9 10 40 9 51-1 7-1 7 2 10 6 6 12 8 21 9 15 1 36 1 39 0z"/></svg>