<svg xmlns="http://www.w3.org/2000/svg" width="1344" height="566"><path d="M0 283V0h1344v566H0V283m634 19c1-2 1-5 1-10-1-11-2-11 17-10 5 1 11 1 12 2 1 0 4 3 6 5 4 6 8 7 19 6 11 0 12-2 13-14 0-5 1-10 2-11 0-1 2-6 2-11 5-27 10-33 31-34 13 0 13-1 13-13 0-8 0-9-6-22-11-24-21-44-25-48-3-3-6-5-14-9-6-2-11-4-12-4-2 0-13-6-14-8 0-1-1-6-1-13-1-16-6-25-16-32-5-3-14-3-21 1-9 6-12 12-10 22 1 4 2 8 2 10 0 1 2 6 4 10 2 5 3 9 4 13v6l-11 12c-9 9-11 11-13 18-2 3-3 9-4 12-1 16-3 37-4 40s-3 25-4 42c0 10 0 11 8 22 3 3 6 9 7 12 2 2 4 6 5 6 3 3 8 2 9 0z"/></svg>