<svg xmlns="http://www.w3.org/2000/svg" width="1344" height="566"><path d="M0 283V0h1344v566H0V283m666 279c5-1 43-1 85-2 42 0 86 0 98-1 26-1 168-3 197-3 11 0 40 0 65 1s51 1 57 1c11 0 11-1 13-3 2-3 2-3 1-9-4-11-25-51-37-70-21-31-40-52-62-68-16-12-37-22-66-30l-42-14c-14-5-29-10-34-10-14-3-26-8-38-15-7-3-16-8-21-11-9-4-10-4-19-4-11-1-10-1-17-6-5-4-10-13-15-30-6-16-6-22-6-48-1-24 0-27 7-66 2-13 2-18 2-34 0-15 0-19-2-32-5-24-14-41-26-49-5-4-12-12-17-18-2-2-5-5-9-6-3-2-7-4-10-5-2-1-7-2-14-3-5-1-13-2-18-3-6-1-14-1-26-1-16 0-21 0-34 2-9 2-20 4-25 4-11 2-12 2-33 14-9 5-11 6-16 13-3 4-7 11-9 15-6 12-7 18-7 47-1 17-1 28-2 30-2 6-4 24-4 34 0 7 1 14 3 24 4 17 10 42 14 51 4 13 26 54 39 74 12 18 19 25 34 29 6 2 9 5 9 8 0 2-10 12-19 19-4 3-17 10-37 20-17 9-35 18-41 22-7 4-14 8-18 10-13 6-32 21-49 38-9 8-19 17-21 19-5 3-11 9-13 15-1 2-3 7-3 11-1 5-3 13-5 18-5 15-4 18 7 21 10 3 157 4 184 1z"/></svg>