<svg xmlns="http://www.w3.org/2000/svg" width="1344" height="566"><path d="M0 283V0h1344v566H0V283m339 278h479c34 0 37 0 40-1 2-2 4-2 5-1 2 0 27 1 57 1 31 1 66 1 79 2 25 0 27 0 31-6 1-3 1-4 0-18-2-16-5-29-11-50-9-30-11-45-9-49 1-1 4-3 7-5s10-7 17-13c17-16 17-16 47-24 18-4 27-6 60-11 43-6 48-7 59-12 10-5 18-11 18-15 0-1-1-3-3-5l-2-3h-27c-27 0-28 0-36-2-5-2-10-2-17-2-9 0-10 0-18 4l-9 4-24 1c-28 1-36 1-47-2-12-3-26-9-30-13-4-3-9-14-15-31-2-5-5-12-7-17-1-4-5-12-7-16-1-5-3-9-3-9 0-3-8-17-13-23-12-15-14-24-8-31 4-4 8-6 17-9s15-8 21-18c2-3 6-11 10-16 3-5 8-13 11-18l5-9-1-22c0-20 0-22-3-36-4-22-6-25-11-32-8-11-16-16-33-21-28-7-50-2-68 17-10 9-14 16-16 27-1 9-1 10 0 21 2 14 2 21 1 30-3 14-12 31-23 42-6 7-9 8-20 8-3 0-8 1-9 1-4 2-9 7-11 12s-8 14-15 23c-24 27-29 34-38 51-7 14-10 23-10 32 0 4 2 15 3 25 5 27 5 34 4 60-2 20-2 25-1 38 2 22 2 21-1 22-3 0-14-6-19-11-5-4-9-13-11-19-2-9-3-23-4-49-1-28-2-37-8-79-9-64-14-87-25-114-14-35-26-49-54-65s-64-23-85-18c-8 2-34 12-44 17-9 4-18 11-25 18-11 12-22 37-25 55-1 5-1 13 0 25v50c0 24 1 35 2 46 1 9 3 25 4 36 2 19 3 26 8 54 3 13 3 18 0 22-2 4-5 5-15 7-4 1-12 4-17 6-9 5-32 14-41 16-12 3-34 10-37 12-1 1-4 3-6 5-4 5-6 3-7-4-1-35-6-80-10-104-2-8-4-18-4-22-2-15-7-30-12-42-2-4-4-8-4-9s-1-4-2-7c-2-5-3-9-1-13 4-7 13-17 21-24 9-7 11-10 24-31 10-17 11-20 9-31-1-5-2-18-2-29-1-23-2-27-8-35-4-4-7-7-16-12-26-15-49-19-76-14-12 3-23 9-27 17-7 14-9 45-5 72 4 19 2 24-10 35-8 7-11 12-13 21-2 6-3 8-14 18-12 13-15 17-19 33-1 5-3 12-4 14-2 4-17 46-23 64-8 21-10 32-15 93-3 37-5 103-4 108 2 4 6 6 17 7 6 0 48 1 93 0h89z"/></svg>