<svg xmlns="http://www.w3.org/2000/svg" width="1344" height="566"><path d="M0 283V0h1344v566H0V283m722 278c44 0 87 0 96-1 80-1 196-2 240 0 17 0 31 1 32 1 0 1 16 0 35 0 49-1 54-3 53-13-2-10-4-15-16-37-7-13-9-16-17-23-10-10-22-17-47-29-18-9-29-16-39-24-4-5-10-8-23-15-18-8-19-9-28-18l-17-17c-10-12-18-14-31-10-7 2-17 2-21-1-6-4-11-21-8-27 1-1 4-7 8-12 7-10 15-23 17-30 1-2 1-9 2-16 0-14 1-18 8-33 9-18 14-31 24-65 2-9 7-34 8-44 1-11-2-23-10-39-3-8-5-10-18-23-11-11-14-15-15-18-1-2-2-5-4-6-2-2-3-3-14-3-7 0-12 0-13-1-2 0-5-4-8-8-5-9-10-12-21-13-4-1-10-2-14-3-8-3-23-4-28-2-2 1-13 2-25 2-14 1-25 1-29 2-3 1-13 5-21 8-30 14-37 18-53 35-9 9-14 17-19 28-3 7-9 28-11 37 0 2-3 11-6 21-8 21-13 40-14 52-1 6-1 27-1 50 0 39 0 41 2 52 1 6 3 16 4 22 2 10 7 26 13 40 4 10 14 51 14 57 0 4-2 5-17 12s-39 19-47 24c-21 13-40 28-53 43-4 5-12 13-19 18-4 3-7 10-7 15-1 8 3 10 24 13 4 0 18 1 31 0 13 0 59 0 103-1z"/></svg>