<svg xmlns="http://www.w3.org/2000/svg" width="1344" height="566"><path d="M0 283V0h1344v566H0V283m884 275c5-1 7-5 10-15 2-7 2-13 3-25v-27c1-14-1-33-5-47-5-18-7-24-8-31s-5-23-6-25c-1 0-2-5-3-10-1-6-3-13-5-17-2-7-3-10-5-19-1-2-2-7-3-10-6-14-7-18-11-30-8-26-17-42-34-60-10-10-12-11-20-15-19-9-25-22-20-45 1-6 1-14 1-25 0-15 0-17-2-24-12-31-42-47-72-37-5 2-12 4-15 5-4 1-9 3-11 4-8 4-25 21-33 34-5 7-7 16-7 27 0 8 0 9 2 12 5 6 9 17 10 32 0 11 0 13-4 17-4 5-8 13-11 24-2 9-9 25-14 33-2 2-4 9-6 14-4 10-6 13-13 22-3 3-7 9-10 13-6 10-17 22-26 31-5 4-15 13-22 21-12 12-15 14-29 22l-15 9h-18c-9-1-19-1-23-2-6 0-7 0-12 3-3 2-6 4-7 4-2 0-17 5-22 7-11 4-11 16-1 32 4 6 5 8 9 9 9 4 26 9 31 9 4 0 16-3 41-11 10-3 23-6 27-6 5 0 6 1 17 12 10 11 14 14 27 19 17 7 17 7 20 7 9-2 15-2 25 0 6 2 11 3 12 3 2 0 14 10 16 13 0 1 1 5 1 8 0 5 0 5 5 10 2 3 7 8 10 12 8 9 11 10 34 11 10 1 21 1 25 2 11 1 162 1 167 0z"/></svg>