<svg xmlns="http://www.w3.org/2000/svg" width="1344" height="566"><path d="M0 283V0h1344v566H0V283m627 22c1-2 4-12 4-15 0-7 5-8 20-6 8 1 12 3 14 7 3 5 6 7 15 7 7 0 7 0 10-3 2-2 3-3 3-12 1-5 2-11 3-14 1-4 4-11 5-20 2-7 6-15 10-18 3-3 14-5 23-5 8 0 10-1 11-8 0-5-3-13-17-42-15-32-20-37-30-40-5-1-11-4-19-7-8-4-10-7-10-16 0-3-1-9-2-13-1-6-2-8-6-13-7-8-10-10-17-10-12 0-22 8-22 18 0 7 3 21 7 28 2 3 3 8 4 11v6l-11 12c-10 10-12 12-15 20-4 11-5 18-4 36 0 16-1 36-3 39-1 2-6 20-6 23 0 0 2 3 4 5s6 9 10 15c3 6 7 13 9 14 2 2 8 3 10 1z"/></svg>