<svg xmlns="http://www.w3.org/2000/svg" width="1344" height="566"><path d="M0 283V0h1344v566H0V283m794 277h71c52 0 71-1 74-4 2-1 2-2 2-10-1-4-2-11-2-14-4-13-6-23-10-38-1-9-4-22-6-29-4-16-6-32-7-53-1-8-1-22-2-29-1-12-1-15 1-21 2-12 2-15-3-23-4-6-5-9-5-14-1-4-2-9-2-11-1-3-2-11-2-17-1-11-2-19-6-33-3-13-4-16-5-18-2-4-15-15-23-19-16-10-18-12-26-18-7-8-13-17-13-22 0-3 3-8 4-8s3-3 6-14c5-16 6-25 4-40-2-18-7-40-13-51-3-7-10-16-18-21-9-6-13-8-21-10-6-2-8-2-23 0-15 1-17 1-23 5-9 4-20 16-24 24-5 11-6 30-3 44 4 15 4 16-7 28-3 4-8 10-9 13-3 4-9 24-10 31 0 2-1 5-1 7-1 3-1 5 0 8 3 6 2 9-1 12-2 3-12 7-16 7-3 0-20 9-23 12-2 2-5 6-6 9-2 2-5 6-8 7-4 4-15 7-25 8s-14 4-17 11c-2 7-3 14-1 16 3 4 9 5 24 4h14l2 2c3 3 3 4 3 12 0 9-4 38-6 43-2 6-1 12 5 28 3 10 11 18 27 25 6 3 11 7 11 8 1 2 1 10-1 17 0 4-2 9-3 13 0 3-2 10-4 15-7 26-9 33-14 58-6 27-8 45-6 47 1 0 7 1 14 2 11 2 19 2 61 1h72z"/></svg>