<svg xmlns="http://www.w3.org/2000/svg" width="1344" height="566"><path d="M0 283V0h1344v566H0V283m297 276c7-1 12-1 13 0 1 0 74 1 168 1 54 0 66 0 71-1 4-1 7-1 22 0 11 1 41 1 87 2 69 0 70 0 73-2l2-2v-12c-2-31-11-64-29-100-7-15-7-16-7-21 1-7 0-13-3-16-2-2-13-7-39-16-35-12-51-19-56-23-2-3-3-8-1-16 1-2 3-8 3-12 1-4 3-11 4-15 2-7 3-9 6-29 2-11 2-14 2-36-1-14-1-27-2-31 0-3-2-12-3-19-5-47-6-56-7-65-3-22-9-44-15-55-9-17-24-34-45-47-27-18-47-23-71-18-5 1-15 3-22 4-20 4-27 6-34 9-9 4-20 12-29 21-9 8-9 9-17 23-4 9-8 20-10 25-6 17-18 67-20 86-1 5-1 10-2 10 0 0-1 9-2 20-2 11-5 30-7 44-5 37-6 57-5 80 1 10 1 12-1 16-3 8-11 13-30 18-17 5-23 8-57 31-6 4-16 10-21 13-6 3-12 8-15 10-6 5-6 6-7 12 0 5-2 9-8 21-8 17-15 38-17 50-3 23-2 34 1 38 2 2 3 3 20 3 29 1 97 0 110-1z"/></svg>