<svg xmlns="http://www.w3.org/2000/svg" width="1344" height="566"><path d="M0 283V0h1344v566H0V283m279 276c3-1 7-1 15 0 12 2 176 2 208 1 24-2 21-2 78 0 62 2 95 1 99-1 4-3 5-8 4-15v-12c-1-9-2-12-4-15-1-1-3-4-5-6-2-4-2-6-1-11 0-5 0-7-2-14-2-4-4-11-5-15-2-4-4-11-6-15-3-5-3-8-4-15 0-16-4-19-30-30-38-14-74-31-77-34-3-6 0-18 13-53 9-20 10-24 12-34 3-12 4-36 2-54-1-7-2-22-3-32-1-12-2-28-3-38-2-30-7-54-13-70-13-27-54-59-87-69-17-4-31-4-48 1-4 2-13 4-20 5-8 1-17 3-20 5-15 4-34 20-44 36-11 17-20 40-24 62 0 2-1 8-2 14-3 15-5 28-7 41 0 6-2 18-3 25-3 17-5 34-7 58-1 12-3 26-3 32-3 19-4 37-3 49 1 14 0 18-6 23-4 4-15 9-25 13-13 4-27 11-38 20-14 11-26 19-38 26-4 3-11 8-15 11-6 5-6 6-8 13-1 5-3 10-8 20-9 17-13 26-16 40-4 20-3 34 2 38 3 1 21 2 79 1 42 0 61 0 63-1z"/></svg>