<svg xmlns="http://www.w3.org/2000/svg" width="1344" height="566"><path d="M0 283V0h1344v566H0V283m890 274c5-5 11-20 10-30 0-24 0-28 1-35 1-6 1-8 0-16-1-5-3-11-3-14-2-10-6-29-8-33 0-2-1-7-2-12-1-10-3-20-6-29-1-4-3-11-4-16s-3-12-4-14c-1-3-2-7-3-10 0-4-1-9-3-12-4-10-8-22-10-28-5-20-18-46-32-61-7-9-18-17-25-19-9-3-14-7-17-13-5-8-5-17-2-35 5-24 3-42-4-54-4-8-13-18-19-22-16-10-34-12-57-4-20 7-19 6-34 20-15 15-19 21-23 35-2 9-2 11-2 20 1 10 2 13 6 18 3 4 7 14 8 23 0 6 0 7-3 11-5 7-8 13-13 29-6 16-9 25-13 30-1 2-3 7-4 10-4 11-8 18-16 28-5 6-11 15-15 20-5 7-11 13-20 21-7 7-18 17-23 22-10 10-14 13-20 17-3 1-3 1-11-3-10-5-18-7-23-7-3 0-9-1-14-2-11-3-36-4-41-2s-8 5-6 8c1 1 4 4 7 6 6 5 7 7 7 11s-3 6-12 8c-9 3-10 4-11 7-2 3 0 7 8 15 9 10 15 13 31 15 7 0 13 1 14 1 1-1 9-1 19-2s23-1 30-2h10l8 5c5 3 11 9 16 14 9 10 23 20 27 20 1 0 3-1 5-2s4-1 12-1 24 2 29 4c7 3 11 12 11 24 0 6 2 8 15 23 6 6 9 8 13 9 10 4 52 5 175 6h38l3-2z"/></svg>