<svg xmlns="http://www.w3.org/2000/svg" width="1344" height="566"><path d="M0 283V0h1344v566H0V283m858 26c2-4 6-11 12-20 5-8 5-12 1-18-2-3-5-8-5-10-1-2-3-6-3-8-4-9-7-18-9-21-2-6-3-16-1-19 2-4 14-14 20-17 4-2 9-3 15-4 12-1 18 0 26 5 2 2 5 4 5 4 1 0 3-2 5-4s6-6 9-8c6-4 7-7 5-10-1-1-3-3-3-5-1-2-11-12-22-23l-19-20v-6c0-4 0-11 1-15 1-5 1-13 0-16 0-9-3-13-13-17-6-3-6-3-13-2-12 2-15 3-20 7-4 5-5 9-10 23-3 11-3 13 1 22 3 10 4 11 11 14 4 2 6 4 7 6 2 4 2 4 0 6-1 1-4 3-6 5-2 1-6 4-7 6-5 6-16 14-22 14-4 0-7-3-7-6 0-2-1-7-2-11-3-13-13-24-30-33-4-2-7-5-8-5 0-1-4-2-9-3-3-1-4-2-6-8-4-8-4-18-2-27 2-6 3-16 1-20-1-3-6-8-9-10-2-1-6-1-11-1-7 0-8 0-14 3-8 4-11 8-13 17-1 6 1 19 5 32 3 7 4 10 7 14 5 5 5 6-3 10s-13 10-17 24c-1 3-3 11-5 16l-4 16c-2 10-3 26-2 27s2 0 4-2 5-6 8-8l4-3h12c17 1 27 4 35 11l4 4h20c13 1 24 1 29 0s11-1 13 0c3 0 6 0 9-1 9-4 9-3 11 44l1 40 3 6c3 8 4 9 7 9 1 0 3-1 4-4z"/></svg>