<svg xmlns="http://www.w3.org/2000/svg" width="1344" height="566"><path d="M0 283V0h1344v566H0V283m745 276c42-1 66-1 68-2 7-3 13-15 18-35 3-13 10-41 12-48 2-10 4-10 11 5 5 11 8 16 17 27 11 15 16 19 32 27 5 3 12 7 14 9 11 8 22 9 48 9 11-1 23-2 26-2l6-1 4 4 5 5 18 1c18 1 20 1 30-1 5-1 13-3 18-3 4-1 9-2 10-3 6-3 7-15 2-23s-14-18-22-23c-13-10-16-14-19-29-4-14-6-19-14-26-7-8-13-11-28-19-13-6-25-15-37-25-3-3-8-7-12-9-3-2-8-5-11-7-6-5-28-29-34-38-4-6-4-7-4-13 0-9-2-17-6-26-4-7-8-18-12-30-2-4-4-10-5-12-1-4-2-8-2-50 0-66-2-89-9-111-8-26-19-36-48-46-16-6-26-7-43-7-15 1-16 1-29 5-16 5-21 8-26 13-6 5-16 18-20 27-5 11-12 31-15 44-2 7-5 18-7 24-2 7-4 15-5 18-4 19-19 57-27 72-13 24-16 27-39 50-16 16-25 26-30 33-4 5-13 18-21 27-13 18-40 57-48 72-10 17-22 58-25 84-1 12-1 20 2 24 2 5 10 8 20 9 13 1 159 1 237 0z"/></svg>