<svg xmlns="http://www.w3.org/2000/svg" width="1344" height="566"><path d="M0 283V0h1344v566H0V283m715 278c20-1 23-2 27-9 4-6 7-22 8-39 1-24 0-24-53-61-25-18-39-30-39-33 0-1 3-5 7-9 6-6 8-9 10-14 2-4 8-17 13-28 17-36 17-35 24-87 4-32 4-62 0-83-1-6-2-17-2-26-2-35-7-61-17-79-17-35-67-74-100-78-10-1-14-1-23 2s-13 4-30 5c-9 1-18 2-21 2-10 3-17 8-31 20-17 16-19 19-29 39-11 21-21 46-25 58-2 7-6 21-9 30-8 23-16 57-19 73-4 23-5 64-3 87 1 10 1 11-1 14s-2 4-20 10c-4 2-13 5-19 8s-12 5-13 6c-1 0-11 0-22 1h-20l-8 5c-4 2-13 6-20 8-17 6-23 9-28 14-6 5-18 23-26 37-13 23-19 30-58 69-16 17-30 31-31 33 0 1-1 4-2 7 0 6 2 13 7 16 2 1 12 1 253 1 138 0 251 1 252 1 1 1 47 1 68 0z"/></svg>