<svg xmlns="http://www.w3.org/2000/svg" width="1344" height="566"><path d="M0 283V0h1344v566H0V283m610 278c29-2 18-2 117-1 78 1 80 1 83-1s3-3 4-10c1-4-1-29-3-38-4-22-17-64-24-79l-3-7 1-9c2-13 6-10-51-37-16-8-35-17-43-20-9-4-16-8-18-10-6-5-6-6 2-43 2-8 5-19 6-23 5-20 7-31 7-45 1-14-1-38-3-62-1-7-2-16-2-20-3-33-6-47-14-67-5-13-16-28-28-41-16-18-59-40-77-40-7 0-23 4-34 8-4 1-12 3-17 3-15 2-23 7-35 19-5 5-11 12-14 16-14 21-24 52-29 88-1 5-2 12-3 17-15 92-17 119-11 156 2 15 2 19-2 24-3 4-13 9-21 10-4 1-9 2-12 2-16 3-74 32-86 43-4 3-5 5-6 10-3 9-6 16-12 30-8 15-14 33-17 47-1 5-3 14-4 19-5 24-6 29-7 38 0 11 1 17 5 20 2 1 7 2 49 2 26 1 63 1 83 0 43 0 69 0 99 1 40 1 96 1 120 0z"/></svg>