<svg xmlns="http://www.w3.org/2000/svg" width="1344" height="566"><path d="M0 283V0h1344v566H0V283m33 277c17-1 135-4 172-4 103 0 144-1 145-1 2-2 1-7-4-30-3-12-7-27-9-35-3-11-10-37-14-50 0-2-4-14-7-25-6-24-8-31-15-44-15-30-36-52-62-65-15-7-56-25-93-40-24-9-48-22-54-29-3-3-5-8-5-13 0-2 2-12 4-22 6-38 8-43 19-50 18-11 27-26 31-50 3-23 0-30-13-33-9-2-9-2-8-17 1-17 0-37-1-41-3-5-6-6-25-7-10-1-33-1-52-1C12 3 6 3 4 5L1 6v550l3 3c4 2 6 2 29 1m678-1c4-1 12-1 37 0 21 1 41 1 61 0 30-1 135-1 222 1 51 1 68 0 69-2 2-4-1-27-7-42-4-11-22-42-35-59-12-15-28-29-45-39-4-3-17-10-28-15-33-18-45-24-53-30-5-3-10-6-12-7-1-1-6-4-11-7-4-3-16-9-25-14-14-7-19-9-28-11-16-3-17-4-19-7-3-4-4-10-4-27-1-21 1-29 12-58 9-21 14-42 14-52 0-4-1-9-4-16-3-10-3-12-4-28-1-10-1-23-2-28-4-36-20-58-53-73-38-17-78-21-113-12-14 3-38 14-51 23-10 7-23 21-29 34-6 11-7 19-7 41 0 11 0 29 1 40 0 11 1 32 1 46 0 40 2 47 20 94 5 10 15 31 21 41 8 13 9 15 7 19-2 3-20 20-30 28-4 3-12 9-18 14-10 9-20 16-38 27-26 15-33 20-47 29-8 5-18 12-23 15-16 9-36 24-45 33s-21 27-22 36c-1 3 2 7 7 7 1 0 64 1 140 0 104 0 138 0 141-1z"/></svg>