<svg xmlns="http://www.w3.org/2000/svg" width="1344" height="566"><path d="M0 283V0h1344v566H0V283m395 276c18-1 45-2 83-3 39 0 40 0 62 1 11 0 31 0 48-1 27-1 32-1 42 0 11 2 21 2 73 2h297c25 1 28 1 30-1 4-4-8-21-26-35-8-7-31-24-38-28-13-8-44-24-46-24-1 0-22-10-30-14-5-3-9-6-9-8 0-5 11-14 41-36 9-6 20-14 23-16 4-3 9-7 11-9 10-7 30-28 36-37s15-20 28-36c9-9 12-16 22-43 4-10 12-30 20-45 7-13 14-31 17-42s3-20 2-37c-6-48-13-67-34-93-7-8-10-13-15-22-3-6-6-13-8-15-10-11-27-12-130-12-90 0-91 0-104 15-15 18-26 37-34 62-17 48-22 58-32 72-6 8-8 13-11 26-2 9-3 16-4 28-1 15-1 17-5 27-8 22-29 59-47 82-4 5-12 15-19 23-21 25-20 25-48 26-15 0-23 0-30-1-6-1-10-2-12-1-4 1-10 7-20 19-19 24-27 31-67 52-9 5-23 14-31 19s-20 13-26 16c-22 13-53 35-63 46-8 8-23 27-25 32-4 7-1 10 8 11 6 1 57 1 71 0z"/></svg>