<svg xmlns="http://www.w3.org/2000/svg" width="1344" height="566"><path d="M0 283V0h1344v566H0V283m1073 232c4-1 5-6 6-19 1-15 3-19 15-32 8-8 14-17 16-25 0-1 3-7 6-13 9-20 10-27 4-45-5-14-8-21-15-33-3-4-5-9-6-10 0-2-1-7-3-11l-2-7-1-56c-1-57-1-61-6-78-3-10-14-24-23-29s-15-7-33-8c-14-2-16-2-24 0-5 0-10 2-11 2-5 3-10 9-13 16-2 4-6 10-9 13-2 4-6 9-7 13-1 3-3 7-4 9-2 3-4 8-6 11-4 7-4 7-4 25-1 20-1 22 4 28 4 4 4 9 0 13-3 3-12 7-19 8-4 0-5 0-7-3-2-2-3-4-3-4 0-3-4-5-12-6-9 0-12 1-18 10-9 13-10 16-10 24 0 5 0 9 2 12 1 3 2 6 2 7 0 0 1 2 3 4 3 2 3 3 2 6 0 1-2 5-3 9-3 8-11 18-16 20-5 3-13 10-15 14-4 6-4 12-3 24 1 15 6 31 10 41 3 4 8 7 18 10 14 5 15 5 20 11 5 4 6 5 11 6 3 0 6 1 7 1 2 0 7 2 11 3 5 2 12 5 16 6 22 6 36 11 54 17 21 7 56 17 62 17 1 0 4 0 4-1z"/></svg>