<svg xmlns="http://www.w3.org/2000/svg" width="1344" height="566"><path d="M0 283V0h1344v566H0V283m726 167c3-1 14-1 22-2 11 0 18-1 20-2 3-1 7-2 10-3 10-2 23-5 36-9 11-4 20-6 34-8 13-1 16-1 36 2 9 1 12 1 13 0s2-17 0-27c-3-21-4-30-5-50-2-16-2-23-4-25 0-2-4-6-8-10-6-6-7-7-14-10-10-3-12-5-13-14-1-5-2-7-5-13-1-1-1-2 2-4l4-3v-12c0-11-2-29-5-44-1-4-3-14-5-23s-4-19-5-23c-1-5-3-12-4-17-1-4-2-9-3-11 0-2-1-5-1-8-1-5-5-16-9-28-9-24-21-40-39-52-5-3-10-6-11-7-6-4-18-10-24-13-7-2-9-2-20-2-9 0-13 0-19 2-4 1-12 3-17 4-15 3-23 6-30 10-20 14-33 41-37 82-1 8-3 25-5 38-2 23-2 29-2 57v41c0 9 0 9-2 11-4 3-37 11-46 11-3 0-12 0-18 1-15 1-15 1-31 16-17 17-24 23-35 29-10 6-13 9-22 16-9 8-15 10-25 10-9 0-12 2-15 9-1 3-5 11-8 18-8 17-11 25-13 33-1 4-3 10-5 14-2 7-2 8 0 9 2 3 10 2 20-1 7-2 11-3 16-3 4 0 11-1 16-1 5-1 15-2 22-3 28-2 41-4 46-6 4-3 11-2 20 1 5 1 11 3 13 4 2 0 7 1 9 2 2 0 7 1 10 2 4 0 11 1 18 2 6 0 16 1 20 2 9 1 16 1 28-1 8-1 27-1 34 0 4 1 10 1 15 2 9 1 19 4 24 6 3 2 7 2 17 1z"/></svg>