<svg xmlns="http://www.w3.org/2000/svg" width="1344" height="566"><path d="M0 283V0h1344v566H0V283m410 278c26-1 75-1 110-1 36-1 78-1 96-1 54 1 109 1 124 0 22-1 324 1 364 2 19 0 46 1 61 0 24 0 28 0 40-3 7-1 15-3 18-3 6-1 9-2 10-5 1-5-4-11-19-23-9-7-13-12-18-27-5-12-7-20-10-32-8-34-11-38-33-41-13-2-14-2-20-14-3-6-8-15-10-21-8-18-11-25-13-30-1-2-4-10-5-16-2-6-6-18-8-25-9-23-27-79-31-93-7-25-18-43-27-45-6-1-9 1-13 5-1 1-4 3-5 3-3 0-7-5-13-16-7-12-14-21-18-24-5-3-12-3-16 0-6 6-8 6-14 0-5-6-10-9-14-9-8 0-11 3-12 14-1 8-3 10-8 10-6 0-8 2-11 8-1 3-1 6-1 17 2 23 6 43 16 70 6 16 9 26 11 39s4 17 25 47c5 7 13 18 19 25 21 28 33 44 38 52 7 10 20 35 24 47 2 5 5 15 8 22s5 15 6 17c0 6-1 7-9 6-6-1-17-7-31-17-4-3-13-8-21-12-23-12-27-16-36-37-10-23-14-29-24-39-6-5-13-11-17-15-10-7-31-20-37-22-11-4-23-4-72 0-13 1-27 2-32 2-8 0-8-1-11-4l-3-3v-14c1-15 3-26 6-44 3-10 4-14 7-19 4-6 8-19 9-29 1-6-1-21-4-34-9-36-22-69-49-123-20-38-57-71-96-84-21-7-28-8-42-9-7 0-18 0-23 1-23 3-28 3-36 5-19 3-36 9-54 18-21 10-34 22-49 46-16 25-23 44-26 66-2 13-1 21 4 33 5 13 6 21 6 34-1 6-1 15-2 21 0 12 1 17 7 31 5 12 6 16 8 36 3 27 11 41 36 61 19 17 20 17 20 28s-4 21-16 39c-5 9-10 14-18 21-8 6-12 8-22 11-3 1-9 3-11 5-5 2-5 2-7 0-2-1-2-4-3-14-2-22-3-29-7-41-4-14-7-19-11-24-7-7-16-4-22 8-3 6-5 24-5 45 0 18-1 25-4 26-3 0-8-8-12-22-5-16-6-19-7-32-1-6-3-15-4-20-1-10-5-38-7-56-1-5-3-14-4-19-3-7-4-9-7-12-7-7-14-4-16 5-1 5-3 28-4 54-1 30-2 31-11 8-3-8-6-16-7-18-18-43-23-51-32-55-5-2-8-2-11-1-6 3-6 10-2 26 6 22 17 67 18 73 0 3 1 8 2 12 7 27-7 13-28-30-6-12-12-23-13-26-4-5-10-9-16-9-4 0-5 0-7 3-3 3-3 4-3 10s1 10 7 27c7 21 12 33 17 46 3 8 4 15 2 16 0 0-7-6-15-14-11-10-16-14-20-16-11-6-18-3-18 7 0 7 3 14 12 28 11 16 23 31 43 53 4 4 11 12 15 20 21 29 25 32 39 34 4 0 26 1 48 0h87z"/></svg>