<svg xmlns="http://www.w3.org/2000/svg" width="1344" height="566"><path d="M0 283V0h1344v566H0V283m836 278c17-1 20-2 22-5 1-3 0-22-1-27-1-2-2-7-3-10 0-4-1-8-2-9-4-5-15-29-17-35 0-3-1-10-1-15 0-9 0-9-4-13-4-5-13-10-30-17-7-3-18-9-24-12s-20-10-31-14c-27-12-53-25-55-28-3-3-5-9-6-21s0-35 2-55c1-4 1-17 2-28 1-22 1-22-4-54-2-9-4-19-4-22-1-2-3-10-6-19s-6-20-7-25c-6-18-15-38-27-58-8-12-14-20-23-29-24-24-51-37-82-41-23-2-30-1-55 11-9 5-20 10-22 10-12 4-18 9-26 19-21 25-32 62-35 114-2 33 0 119 3 140 0 4 1 12 2 18s1 14 2 16c1 8 4 29 4 34 0 4-2 6-8 7-7 2-21 7-35 14-8 3-20 9-27 12-20 9-42 20-44 23-3 3-3 4-3 18-2 26-1 27 35 54 27 20 38 27 68 36 2 1 6 2 8 3 5 3 19 7 24 8 11 1 60 1 221 1 115 0 179 0 189-1z"/></svg>