<svg xmlns="http://www.w3.org/2000/svg" width="1344" height="566"><path d="M0 283V0h1344v566H0V283m520 278c17-1 65-1 106-1 42-1 88-1 102-2h68c54-1 78 0 90 1 23 2 102 1 105-1 2-2 1-5-9-14-16-14-46-44-52-51-2-4-7-9-10-13-3-3-5-7-5-7 0-1-1-4-3-8-3-7-7-11-29-32-17-18-31-40-35-59-1-4-3-16-4-26-4-37-7-48-25-104-5-16-9-31-10-34 0-2 0-10 1-18 1-9 1-15 0-21-1-10-6-30-8-36 0-2-2-8-2-12-2-10-9-29-13-37-3-8-13-20-19-26-8-6-33-17-48-21-9-2-14-3-30-4-15-1-24 0-33 4-4 2-11 4-14 4-4 1-11 4-16 7s-12 6-15 6c-3 2-6 3-7 5s-5 7-9 11c-6 5-8 9-14 21-6 13-7 16-9 27s-2 15-2 28c1 8 1 18 2 22s1 10 0 16c-1 15-1 27 1 32 4 9 8 16 14 22 6 7 6 8 9 17 2 12 1 30-2 39-3 5-3 7-3 14 0 6 0 8-1 10-3 4-8 7-13 8-5 0-10 4-15 11-1 3-4 6-5 9-1 2-4 7-6 10-6 11-8 12-19 21-14 11-19 14-29 13-6 0-9 0-11 1-3 2-21 9-31 13-5 1-11 2-15 2-10 0-19 3-27 10-15 11-23 20-28 29-3 5-6 10-8 11-4 6-16 31-20 44-5 12-5 12-3 16 1 4 1 4 0 8-3 8-3 12 0 19 5 13 9 15 22 15 5-1 14 0 21 0 15 2 72 2 116 1m-209-6c5-2 7-5 12-17 3-9 4-12 5-20 1-11 3-20 11-42 11-31 11-31 22-52s15-27 20-33c2-4 6-9 8-13 4-7 4-6-1-24-3-10-5-30-4-35 1-2 2-4 5-5 4-2 5-2 9-1 3 1 10 1 15 1 8 1 10 0 14-2 6-3 8-6 7-13 0-3-1-7-2-8-1-3-1-5-1-9 1-8 0-10-11-20-7-7-8-8-8-10 1-1 1-4 2-7 0-6-1-7-13-6-11 0-13 1-17 8-1 3-4 7-6 10-4 5-7 11-8 15 0 2-1 6-3 8-2 5-2 6-2 13 1 10 1 10-7 18-6 6-8 9-11 24-4 22-6 28-21 50-10 15-16 23-40 53-13 16-17 23-25 35-7 12-30 56-35 66-4 8-3 12 0 12 4 1 53 4 67 4 7 0 14 1 14 1 1 0 3-1 4-1z"/></svg>