<svg xmlns="http://www.w3.org/2000/svg" width="1344" height="566"><path d="M0 283V0h1344v566H0V283m644 278c4 0 21-1 36 0 32 1 148-1 178-2 12-1 48-1 82-2 32 0 66-1 74-1s23 0 36 1c51 3 111 2 115-1 3-3 0-13-11-36-22-44-47-76-75-99-19-15-31-21-49-28-29-10-46-16-60-23-9-4-20-8-24-10-29-8-34-10-55-25-16-10-27-16-34-17-14-3-21-31-17-60 2-9 5-16 12-28 10-15 14-28 14-48 0-6 0-13 1-16 3-12 5-35 5-50-1-13-1-16-4-27-4-13-6-17-14-27-3-3-7-10-10-14-3-5-7-11-9-13-7-5-16-10-24-11-4-1-10-2-14-4-7-3-25-8-38-11-2-1-12-1-24-1-17 1-21 1-28 3-5 2-12 4-16 5-13 4-34 15-42 23-5 4-11 15-12 23-1 3-2 10-3 16-2 19-3 24-8 43-7 25-8 35-6 69 1 28 2 34 7 50 5 18 25 70 31 80 4 8 11 16 18 20 6 4 8 6 6 10-3 5-23 22-32 26-6 3-48 20-48 20-1 0-8 3-16 7-39 17-63 31-81 47-25 23-55 78-54 101 1 8 2 9 20 10 19 1 161 1 173 0z"/></svg>