<svg xmlns="http://www.w3.org/2000/svg" width="1344" height="566"><path d="M0 283V0h1344v566H0V283m888 273c2-1 3-4 4-6 1-5 3-25 3-51 1-32 0-44-6-63-3-7-5-15-6-18 0-5-4-19-5-23-1-2-2-6-3-9-2-12-5-22-8-29-2-4-3-9-4-12 0-6-4-17-7-24-1-3-3-8-4-11-8-28-18-47-34-64-10-12-16-17-25-20-14-7-18-13-20-27-1-6-1-10 1-21 2-16 3-26 1-37-5-24-25-45-47-48-11-2-21 0-32 4-6 2-13 5-16 6-8 2-18 10-29 23-15 16-18 24-17 48l1 14 4 5c4 3 5 4 5 9 1 2 2 7 2 11 1 7 2 7-5 17-3 5-6 13-9 26-1 3-6 13-10 22-4 8-8 17-9 18-1 4-7 16-9 19-2 1-6 8-10 14-12 17-16 21-42 47-22 21-24 23-37 30-7 4-14 8-15 9-2 1-17 1-42-1-8 0-9 0-13 3-2 1-7 3-10 4s-8 2-11 2c-3 1-6 2-7 2s-4 2-6 4c-4 3-4 4-4 9 0 9 5 22 11 28 3 2 12 6 19 6 3 1 8 2 11 3 5 1 8 1 14 0 4-1 9-2 10-3 10-4 36-10 44-11 13 0 15 0 22 9 13 16 16 18 34 25 9 4 10 4 25 5 11 0 17 0 20 1 2 1 5 2 7 2s7 3 12 8 5 5 5 11v6l11 12c6 6 12 12 14 13 4 2 7 3 24 3 11 1 23 1 26 2h170l2-2z"/></svg>