<svg xmlns="http://www.w3.org/2000/svg" width="1344" height="566"><path d="M0 283V0h1344v566H0V283m812 276c2-1 5-3 7-6 7-6 9-6 17 4 2 3 15 4 19 2 5-3 7-7 7-13 0-7 1-9 8-11 3 0 5-2 6-3s0-25-2-30c0-1-2-3-4-4-6-2-6-3-8-10-4-14-11-44-11-46 0-10 4-16 17-24 8-6 9-6 10-11 3-10 3-12-12-36-6-11-36-33-44-33-1 0-3-1-4-2-2-2-2-4-2-16-1-9-1-15-2-17-6-13-25-13-34-1-3 4-3 20 0 28 1 4 2 8 2 10 0 4-2 7-15 20-11 10-12 12-15 22l-4 12c-3 9-3 17-2 23 1 3 2 12 3 20 1 12 2 14 4 17 4 5 8 7 13 7 4 0 5 1 8 8 4 11 7 27 8 45 1 10 2 21 2 24 1 4 2 9 3 11 0 6 1 8 4 9 5 3 17 3 21 1z"/></svg>