<svg xmlns="http://www.w3.org/2000/svg" width="1344" height="566"><path d="M0 283V0h1344v566H0V283m205 279c9-1 33-1 52-1 40-1 38 0 43-9 8-12 11-18 13-26 1-5 3-13 4-18 4-15 6-18 15-17 2 1 5 1 8 0s13-2 24-3c20-1 39-4 50-6l12-4c4-1 10-3 12-4 8-2 17-4 22-5 2-1 7-2 9-3 6-2 10-4 16-6 2 0 8-2 11-4 4-2 9-3 11-4 7-2 21-9 23-12s3-8 1-10c-1-1-3-2-5-3-3-1-4-1-4-5 0-2-1-5-1-6-2-2-11 0-20 4-12 5-17 7-22 7-7 0-10-3-12-13-3-8-4-11-6-9-2 1-5 7-5 12-1 2-3 7-5 11-3 5-4 7-8 9-6 3-25 5-51 4-22 0-32-1-39-5s-12-18-14-40c-1-4-2-10-3-15-3-12-2-17 4-31 8-16 8-16 19-15 9 0 10 0 14-2 3-2 8-6 11-10s9-10 14-14c8-7 9-8 9-15 2-11 5-23 10-34 3-7 3-8 3-14-2-11-6-19-19-31-14-14-17-15-33-16-11 0-12 0-18 2-13 5-21 12-31 27-3 4-6 7-13 12-12 8-17 11-25 11-32 4-52 11-86 31-18 11-26 19-51 51-8 11-19 29-29 49s-11 25-9 27c3 3 3 2 10-1 4-3 5-3 7-2 2 2 6 11 7 16 1 1 3 8 5 16l4 13v18c-1 23-2 27-10 36-5 5-7 8-9 13-2 6-4 8-9 11-3 1-5 2-5 3s3 5 8 10c9 10 9 10 25 12 5 1 14 3 19 4 14 5 18 6 47 4z"/></svg>