<svg xmlns="http://www.w3.org/2000/svg" width="1344" height="566"><path d="M0 283V0h1344v566H0V283m511 278c12-1 59-1 105-1 97-1 149-2 166-3 19-2 49-2 80 0 62 4 77 4 105 3 26-1 29-2 29-5 0-2-7-9-13-13-10-7-37-30-46-38-4-4-12-13-18-19-10-10-11-12-14-19-2-5-4-9-9-15l-8-8c-2 0-23-21-31-30-11-12-14-17-18-25-4-11-5-16-5-44 0-35-2-49-9-78-2-4-5-18-8-29l-5-21-1-21c0-23-1-32-8-59-2-6-3-12-3-13 0-2-4-15-7-24-6-15-14-27-24-36-7-6-24-15-40-21-11-3-16-4-28-5-7-1-15-2-16-3-5-1-20 2-27 5-4 2-10 4-14 4-4 1-11 4-16 6-5 3-11 5-13 6-3 1-6 3-14 11-10 9-11 12-18 24-9 16-11 24-12 48 0 13 0 20 2 31 1 12 2 16 1 19-2 8-1 24 1 31s8 17 14 25c4 5 7 15 7 23s-3 26-5 29c-1 2-1 7-2 12 0 9-2 14-6 16-1 1-5 3-9 3-6 2-7 2-11 7-3 3-8 10-11 16-4 7-8 13-11 16-16 15-19 17-26 21s-9 4-15 4-8 1-12 2c-3 2-9 4-13 5-5 1-11 3-15 4-3 0-11 2-18 2-15 1-17 2-26 9-4 3-9 8-13 10-7 6-9 9-15 19-2 3-6 9-8 13-9 15-16 32-17 43-1 6-2 8-6 12-3 4-3 6 0 9 2 2 3 7 4 13 3 14 4 17 8 21 5 6 8 7 19 7 6 0 14 1 19 1 13 1 79 1 104 0m-202-8c1 0 2-2 3-3 3-3 11-28 11-34 0-4 5-21 10-34l2-6c0-2 8-22 13-32 6-13 23-42 30-52 11-14 11-13 7-26-6-21-6-40 0-47 3-3 5-3 16 1 4 1 11 2 14 2 5 0 5 0 10-6l6-6-1-8v-15c0-6-1-7-3-11-2-2-5-6-8-8-11-9-10-8-9-15 1-9-1-10-13-10-10 0-12 1-17 9-2 3-5 8-8 11-4 5-6 10-8 16 0 2-2 5-3 7-3 4-3 5-3 10s0 7-2 10c-2 2-3 4-3 5 0 0-2 4-4 9s-4 11-5 16-4 14-6 20c-3 9-5 13-11 24-13 20-28 39-39 54-13 15-20 24-26 33-3 5-6 11-7 13-2 2-21 37-21 38 0 0-3 5-6 12-8 14-9 17-6 20 2 2 3 2 9 2 3 0 12 1 19 1 15 2 56 2 59 0z"/></svg>