<svg xmlns="http://www.w3.org/2000/svg" width="1344" height="566"><path d="M0 283V0h1344v566H0V283m648 278h32c33 1 153-1 174-2 9-1 44-1 76-2 34 0 70 0 82-1 13-1 24-1 31 0 6 1 35 1 65 2h54l2-2c1-1 2-3 2-5 0-9-24-57-37-74-2-3-7-10-11-15-17-24-49-52-70-62-7-3-19-8-45-17-7-2-21-7-31-12-10-4-22-9-27-10-25-8-30-9-37-13-4-2-9-5-10-6-14-11-36-21-43-21-8 0-13-9-18-27-2-8-3-12-3-23-1-17 2-27 10-48 7-18 9-24 10-39 1-7 2-16 2-20 3-15 4-27 4-45v-19l-4-12c-4-14-8-20-16-28-3-4-7-10-10-15-9-12-16-17-31-19-4-1-12-3-17-5s-11-5-14-5c-3-1-11-2-17-4-14-3-22-4-39-2-15 3-22 4-40 12-21 8-23 9-32 19-12 12-17 23-19 42-3 23-3 27-7 41-5 19-7 32-7 43 0 22 4 59 9 74 4 15 19 52 30 76 6 13 12 19 23 25 5 2 10 5 10 6 1 1 1 3 1 5-1 3-13 15-22 21-6 4-27 14-46 22-21 9-62 30-78 39-11 7-25 18-34 27-21 23-47 73-46 90 1 7 3 8 17 9 15 1 169 1 177 0z"/></svg>