<svg xmlns="http://www.w3.org/2000/svg" width="1344" height="566"><path d="M0 283V0h1344v566H0V283m318 276c22-1 318-2 369 0 100 2 133 2 143 0 6-1 10-4 10-9 0-4-6-26-9-34-2-5-5-12-7-16-3-4-6-12-8-17-3-7-5-10-10-15-5-6-21-18-31-24-16-9-25-14-36-20-33-17-43-24-51-35-9-12-24-34-25-37-2-7-1-13 9-26 7-11 11-20 22-45 2-5 5-11 8-15 10-14 11-19 12-56 0-14 1-35 2-46 2-34 0-58-6-81-10-31-20-47-48-67-16-12-15-12-66-13-23 0-55 0-70 1-34 1-32 1-50 18-13 13-21 23-28 38-11 23-13 37-11 72 3 24 2 32-2 43-3 7-3 10-4 21 0 10 0 14 2 21 5 21 13 32 32 41 8 4 11 7 14 13 3 7 6 21 6 27 0 2-1 5-1 6-2 3-30 33-44 46-6 7-15 14-18 15-6 4-36 15-67 25-50 17-67 25-76 36-5 7-6 9-16 32-4 9-12 25-16 34-11 22-25 52-27 56-1 5-1 9 2 10 1 1 7 2 12 2 11 1 58 0 84-1z"/></svg>