<svg xmlns="http://www.w3.org/2000/svg" width="1344" height="566"><path d="M0 283V0h1344v566H0V283m629 279c7-1 8-2 12-6 13-13 19-17 29-19 9-2 16-5 19-10 1-2 5-10 7-17l5-12 1-23c1-13 1-29 1-36 0-12 0-13-3-21-4-8-3-3-3-54 0-24 0-28-2-39-1-7-3-14-4-16-3-6-15-16-29-24-7-5-25-18-28-20-3-3-3-7 3-17 6-11 11-17 16-18 9-1 11-5 12-14 1-7 4-21 6-33 2-11 2-16 1-23-1-2-2-12-3-21-1-10-2-22-3-28-3-25-13-35-50-49-7-2-9-2-22-2-8 0-15 0-18 1-2 1-7 2-11 3-7 1-23 10-27 15-2 2-9 12-12 18-1 1-3 11-6 25-1 5-3 14-4 20-4 21-6 32-8 43-1 13-5 30-8 37-1 4-2 6-5 7-6 3-15 5-23 5-7 0-8 0-22 7-9 4-16 8-17 9s-4 5-7 8c-6 10-14 19-20 22-5 3-7 6-7 14 0 6-1 10-4 10l-6-4c-2-3-5-5-6-5-3 0-16 8-29 18-7 6-28 27-31 33-2 2-4 8-6 14s-4 13-5 16c0 2-4 11-7 18-9 20-9 27 0 48 2 6 5 13 7 15 3 5 12 13 22 19 9 6 11 9 16 25 3 7 7 17 10 22 2 4 5 11 6 16 3 10 6 17 9 19 1 0 9 2 17 2l15 2 5-3c4-2 5-2 12-2 5 1 13 2 18 3 13 2 68 3 81 1 8-1 11-1 19 0 11 2 75 3 87 1z"/></svg>