<svg xmlns="http://www.w3.org/2000/svg" width="1344" height="566"><path d="M0 283V0h1344v566H0V283m178 276c27-1 38-1 44-3 5-1 9-1 18 0h16c27 0 88 0 95 1 12 2 47 2 50 0s5-6 5-13-2-31-5-50c0-6-1-13-1-16-1-7-6-42-8-57-4-26-16-59-30-78-15-21-29-32-69-51-20-10-24-13-24-17s9-22 18-37c5-7 6-13 4-21-1-5 0-10 4-15 2-2 4-6 5-10 2-5 4-8 9-14 4-4 7-8 8-10 2-7 1-19-4-33-2-7-4-15-5-17-1-4-1-13-2-30s-1-26-2-30c-2-6-19-42-23-47-1-2-4-4-6-5-4-2-12-2-134-2C12 4 11 4 8 6c-2 1-4 3-4 5-1 1-2 3-2 4-1 1-1 117-1 270v268l3 3c3 3 3 3 9 3 31 0 50 0 60 1 12 1 43 0 105-1m478 0c59-2 135-2 198-1 88 2 129 2 222 2h80l2-2c2-2 2-2 1-9-1-4-4-12-6-17-4-8-7-12-17-23-7-7-14-16-17-20-4-5-19-18-46-40-4-4-14-12-21-18-12-12-26-23-57-46-22-16-21-16-42-17-8 0-16-1-18-2-6-2-18-13-21-20-4-10-5-18-4-35 1-22 3-26 19-43 12-13 19-22 25-36 5-11 5-14 5-24 0-9 0-11-2-17-4-8-4-14-1-32 2-16 3-37 1-46-3-15-11-30-24-43-12-12-34-26-51-31-18-6-46-9-65-7-32 3-61 20-77 44-9 14-13 24-15 46-1 7-3 18-3 24-1 7-2 20-3 30-1 9-1 19-2 22-6 32-6 54 2 85 7 27 16 46 29 63 10 12 10 14 0 20-8 5-33 17-45 22-21 10-44 24-69 45-25 20-45 42-62 67-8 13-9 14-15 33-6 20-6 24 0 27 4 1 31 1 99-1z"/></svg>