<svg xmlns="http://www.w3.org/2000/svg" width="1344" height="566"><path d="M0 283V0h1344v566H0V283m788 251c3-1 10-2 15-3 8-1 13-2 27-5 3-1 7-1 10-2 7-1 18-4 24-6 2-1 8-3 13-4s11-3 15-4c19-6 23-6 48-7 19 0 25-1 26-2 5-4 5-30 1-51-2-11-3-20-6-50-1-5-2-11-2-12-2-5-7-8-23-11-36-9-40-10-45-14-2-2-2-3-1-13 0-13-2-20-8-26-4-4-4-4-2-12 0-2-1-5-5-14-9-19-18-41-20-52-2-6-12-35-19-54-2-7-5-14-6-16-6-17-18-44-20-48-10-16-24-31-35-38-18-11-46-21-65-22-9-1-23 0-30 2-3 1-10 3-16 4-12 3-32 12-41 18-18 12-32 33-41 60-7 19-7 23-6 78 0 27 1 57 2 67 1 17 1 18-1 22-1 2-4 6-8 8-7 6-24 16-26 16-1 0-3 2-6 5-5 4-9 10-14 20-2 5-3 6-11 9-10 4-13 5-20 2-3-2-6-1-18 7-3 2-9 5-12 6-4 1-9 3-12 4-10 4-16 8-25 20-3 4-15 10-23 11-4 0-8 2-9 3-3 2-8 11-11 20-2 7-5 21-4 23 1 1 3 3 5 4s6 4 8 7c5 7 6 8 14 9 3 0 7 1 9 1 3 1 7 2 10 2 3 1 9 2 14 4 8 2 9 2 20 1 7-1 14-1 17 0 2 0 5 0 5-1 1 0 3-1 6-2 2 0 5-1 7-2s7-3 11-3c6-1 7-1 12 1 2 1 8 2 12 2 5 1 8 2 13 5 8 4 23 10 27 10 1 0 5 1 7 1 2 1 22 2 44 2 81 2 103 5 117 16 3 2 7 4 9 5 1 0 10 1 20 0 14 0 19 0 23-1z"/></svg>