<svg xmlns="http://www.w3.org/2000/svg" width="1344" height="566"><path d="M0 283V0h1344v566H0V283m1034 278c15-1 28-2 30-2 6-2 5-8-5-24-14-22-27-36-42-47-19-14-31-24-44-36-14-14-25-24-51-45-25-21-30-23-45-23-17 0-26-2-33-6-4-2-8-4-10-6-7-5-11-18-12-40 0-11 0-15 2-23 1-5 3-11 4-13 2-3 5-9 8-16 2-6 7-14 9-19 8-13 13-33 13-49 0-5 1-16 2-25 5-38 1-63-11-87-13-28-51-48-93-53-4 0-12-1-18-2-11-2-26-3-36-1s-27 10-35 15c-12 10-39 40-47 54-4 6-8 18-13 33s-8 33-9 60c-1 22-3 38-8 52-3 7-4 23-2 30 1 4 2 7 4 9s4 7 6 10c3 9 8 18 9 19 1 0 3 1 6 2 4 1 6 3 15 14 17 19 21 23 31 28 5 2 10 5 11 7s1 2-1 6c-3 5-10 10-27 19-38 19-69 41-94 66-15 15-21 22-33 40-14 23-23 42-21 47 1 5 2 5 75 4 37-1 71-1 75-2 4 0 13-1 20-1 6 0 20-1 31-1 12-1 34-1 59 0 49 1 50 1 62 3 5 0 29 1 53 2 43 0 119 1 133 2 4 0 18 0 32-1z"/></svg>