<svg xmlns="http://www.w3.org/2000/svg" width="1344" height="566"><path d="M0 283V0h1344v566H0V283m764 278c7-2 14-3 15-4 3-1 3-5 3-10-1-6-2-14-4-35-1-10-3-23-4-29-2-6-3-15-4-19-2-9-2-47 0-73 1-23 1-35-4-57-5-28-9-37-28-56-15-16-17-19-17-24 0-7 4-24 10-42 7-21 8-26 9-57 0-19 0-26-1-37-4-30-10-43-24-59-15-15-37-28-68-38-9-3-16-5-28-6-8-1-17-2-18-1-2 0-10 0-17 1-23 2-40 8-56 19-19 15-29 28-39 53-4 9-5 13-7 28-5 41-5 41-11 44-8 5-9 6-9 29v20l-3 8c-7 12-15 23-23 32-7 6-10 8-17 11-19 8-41 21-77 46-23 15-50 42-67 67-9 12-19 28-21 32-9 17-15 46-17 74-1 10-1 19 0 19 0 1 0 13 1 28 1 23 1 26 3 29 3 6 1 6 87 5 104-1 172-1 202 1 13 1 56 1 96 2h74c0 1 12 1 26 1 23 0 27 0 38-2z"/></svg>