<svg xmlns="http://www.w3.org/2000/svg" width="1344" height="566"><path d="M0 283V0h1344v566H0V283m710 279c3-1 17-1 35-1l30-1 2-2c2-2 2-4 2-14v-12l3-4c2-1 5-3 8-4 6-2 10-5 13-10 4-7 5-8 14-13 12-5 22-13 24-17s0-8-9-18c-12-13-12-15-13-41-1-12-2-25-2-29-1-5-2-12-2-16-1-3-2-9-2-12-1-3-1-11-2-17-1-5-2-14-3-18-2-7-3-9-8-14-6-8-13-14-19-18-2-2-7-6-11-8-3-3-7-7-9-8-5-4-13-14-14-18 0-3 1-5 3-10s3-8 4-16c1-13 1-58 0-65-2-11-5-22-8-28-5-8-16-19-25-23l-7-4h-47l-7 3c-8 4-18 14-23 21-6 11-8 23-6 40 1 6 3 18 4 27 1 12 2 17 5 25 5 11 7 19 7 23 0 3-4 8-9 14-4 4-24 13-34 17-9 3-28 11-31 14s-10 18-13 30c-1 2-4 10-6 17-3 8-6 18-7 24-2 5-5 15-7 22-2 6-5 15-6 19-1 5-4 12-6 16-3 7-3 8-4 20 0 11 0 13 2 20 3 10 9 19 16 26 7 6 12 8 21 8 8-1 9-1 20-9 7-5 7-5 9-2 3 2 2 7-3 21-3 11-6 27-6 34s3 10 11 10c3 1 6 1 7 1 4 1 106 1 109 0z"/></svg>