<svg xmlns="http://www.w3.org/2000/svg" width="1344" height="566"><path d="M0 283V0h1344v566H0V283m631 277c3 0 27 0 60 1l56 1 12-2c10-2 12-2 14-5 2-2 2-3 1-11 0-5 0-17-1-28 0-12 0-22-1-29-3-19-4-44-1-73 3-31 2-44-1-65-3-15-8-30-13-39-2-4-8-11-18-22-15-15-18-19-18-25s5-24 11-41c8-25 8-30 8-63-1-29-2-39-6-53-3-13-4-16-10-25-10-15-26-27-52-41-22-11-37-14-57-14-26 0-61 7-78 15-15 8-27 20-38 39-8 14-14 31-15 46-2 15-6 38-8 40 0 1-3 3-5 4-7 5-8 8-7 32 1 16 0 21-7 33-13 19-24 29-37 34-17 5-77 42-97 59-14 12-34 33-43 44-9 13-23 34-26 40-1 2-3 9-5 14-2 4-4 11-4 13-4 10-6 24-8 41-2 15-2 18 0 29 0 6 1 18 2 25 0 8 1 15 3 18 3 8-2 7 77 6 123-1 186-1 233 3 13 1 73 0 79-1z"/></svg>