<svg xmlns="http://www.w3.org/2000/svg" width="1344" height="566"><path d="M0 283V0h1344v566H0V283m1201 277c20-1 27-2 28-5 1-1-1-8-4-16-6-18-9-30-12-47-4-27-6-33-11-38-2-1-9-4-16-7-8-3-15-6-17-7-4-3-10-13-17-30-8-21-10-28-20-64-12-49-13-56-16-90-4-42-5-48-10-61-3-8-6-11-11-11-2 0-4 1-7 3-3 3-3 4-4 11-1 6-2 9-3 9-4 3-6-2-13-30-6-25-10-31-19-31-4 0-5 0-9 4-2 3-4 6-5 8 0 2-1 3-1 4 0 0-4-3-7-7-10-11-15-12-23-5-3 2-5 5-7 11s-4 9-8 14c-10 10-16 26-18 45-2 17-2 21 3 80 0 14 5 26 20 52 11 18 22 36 38 60 26 40 30 48 43 82 2 5 6 16 10 24 5 13 9 25 10 31 1 2 3 4 8 7l7 4 12 1c16 1 53 0 79-1m-848-1c21-1 57-1 94-1 52 1 152 1 179 1 5 0 28 0 53 1 42 1 69 1 84-1 11-1 71-1 172 0 91 1 138 1 149-2 7-2 6-5-2-9-4-2-10-6-13-9-18-16-31-26-53-40-12-7-21-14-31-24-7-7-8-9-12-19-12-26-13-27-21-36-8-7-33-27-43-34-3-2-8-5-11-6-5-2-7-3-34-3h-32c-3 0-12 0-21 1-14 0-17 0-20-1-5-3-5-5-4-17 1-6 3-13 4-16l2-6 4-2c6-3 12-12 15-20 2-5 2-7 2-20-1-8-1-18-1-22-1-11-7-38-11-46-1-2-3-9-5-15-5-13-7-19-14-35-3-6-8-18-11-25-8-18-12-26-28-50-19-31-26-40-42-53-15-12-28-18-56-27-17-5-24-6-40-6-8 1-18 2-21 2-8 2-17 3-35 5-40 5-61 15-88 42-11 12-16 20-25 38-12 24-16 38-16 58 0 14 0 13 8 26 2 5 2 7 3 15 0 5 0 14-1 19s-1 15-2 22c0 14-1 10 8 36l4 10-1 14c0 12 0 14 2 24 5 19 11 29 31 51 11 11 12 14 14 23 1 8 1 14-2 21-6 15-29 35-43 38-4 1-6-1-7-12-2-12-4-18-12-35-6-14-10-18-16-19-6 0-10 2-14 8-5 10-7 23-5 47 1 19 0 29-5 29-3 0-14-27-17-45-6-30-9-52-10-70-1-6-2-18-4-27-2-19-4-24-11-27-4-2-4-2-7-1l-4 4c-4 5-7 25-8 49-2 32-4 43-6 32-1-2-3-7-4-12-4-12-10-32-13-47-4-16-8-26-12-29-4-4-13-6-17-4-5 1-6 11-4 36 1 13 6 46 9 62 2 10 4 25 3 25-1 1-11-17-11-20 0 0-2-6-4-11-3-6-6-13-7-17-1-3-3-8-4-9 0-2-1-4-1-5s-2-5-3-9c-5-8-8-11-16-11-6 0-10 3-11 8s-1 16 1 21c1 1 2 6 3 10 4 19 10 42 13 49 1 4 5 13 7 21 4 12 5 17 2 16-1 0-6-6-11-12-14-17-26-30-31-34-9-6-17-5-20 2-2 4-2 4-1 10 2 7 11 24 17 34 6 9 14 20 26 34 10 13 16 21 24 32 9 14 16 21 23 24l6 3h20c10-1 35-1 53-2z"/></svg>