<svg xmlns="http://www.w3.org/2000/svg" width="1344" height="566"><path d="M0 283V0h1344v566H0V283m793 277c72 0 84 0 85-1 2-3 0-4-8-12-10-9-19-20-30-35-10-15-11-17-15-33-4-13-7-22-16-43-2-7-5-16-6-20-4-13-11-24-21-36-5-5-11-8-21-11-11-3-17-6-28-11-17-9-18-12-10-27 7-13 11-18 16-19 2 0 7-2 11-3 5-1 10-2 12-2 7-2 10-5 13-17 1-3 2-10 3-16 1-5 2-15 3-21 1-8 1-18 1-31v-20l-4-14c-3-8-6-18-6-22-3-13-7-30-9-36-4-13-16-32-25-41-7-7-15-11-30-15-29-8-46-7-74 5-31 12-37 15-50 30-11 12-16 19-25 33-7 9-14 19-30 40-3 5-12 15-21 23-23 24-30 33-38 47l-6 12v14c0 11 0 14 2 19 1 4 2 7 2 11v7c1 0 9 5 18 10 10 4 19 9 20 10 5 4 7 8 9 17 1 5 3 10 3 12 1 2 2 5 2 7 0 3-7 14-15 25-10 12-18 28-21 38-1 4-5 13-8 20-9 19-16 38-29 79-7 23-7 26 5 27 3 1 63 1 132 0h209z"/></svg>