<svg xmlns="http://www.w3.org/2000/svg" width="1344" height="566"><path d="M0 283V0h1344v566H0V283m475 277c37-3 187-5 201-3 11 1 56 2 156 1 115-2 134-2 172-1 27 1 32 1 34 0 1-2 1-2 0-4-1-3-19-15-46-31-10-5-62-31-64-31 0 0-2-1-5-3-5-3-23-24-26-30-3-4-2-10 1-16 1-4 4-10 5-14 25-59 42-92 51-101l8-4c15-5 26-15 38-36 10-16 11-20 14-33 2-16 0-23-7-28-8-5-8-10-5-28 1-6 3-17 4-26 1-8 3-18 4-22 4-23 6-54 4-63-1-3-6-16-13-30-11-22-13-25-19-31-8-9-17-16-22-17-9-4-23-4-111-4-80 0-88 0-97 1-5 1-11 3-12 4-6 3-23 36-30 58-8 22-11 38-13 62-3 41-4 45-14 47-12 2-17 9-20 25-1 8-1 10 0 19 3 25 9 39 24 54 5 5 10 11 11 13s2 6 2 13c0 14-3 50-6 61-4 13-12 29-17 33-4 4-4 4-12 4-5 0-16 0-24-1-10-1-18-1-20 0-5 1-9 5-31 30-20 22-29 30-50 39-7 3-17 8-21 11-8 5-9 6-35 21-8 4-17 9-20 11s-10 6-16 10c-14 7-42 26-47 31-7 7-6 7 36 9 15 1 25 1 38 0z"/></svg>