<svg xmlns="http://www.w3.org/2000/svg" width="1344" height="566"><path d="M0 283V0h1344v566H0V283m1340 278 2-2 1-249c0-243 0-250-2-252s-2-2-11-1c-14 1-26 6-33 12-4 3-9 7-12 9-6 4-11 10-15 19l-3 5 1 29c1 40 3 52 9 72 5 14 13 31 18 35 2 2 7 4 13 6 11 4 13 5 13 10 0 4-13 19-26 30-6 5-11 11-13 13-5 7-12 28-16 45 0 3-3 11-5 18-3 8-6 15-6 18-1 2-2 5-3 7-1 3-2 10-2 26-2 47-3 69-4 72-2 8-24 32-35 40-8 5-9 5-21-1-11-4-25-9-28-9-4 0-8 4-8 7 0 1 2 4 5 8s5 6 5 8c0 3-5 10-12 17-2 3-4 5-4 6 1 1 7 2 37 2 32 1 37 1 40-1 4-1 5-1 12 0 6 2 13 2 44 3 21 0 38 0 38 1h10c8-1 10-1 11-3m-782 1c4-2 5-5 2-10-4-6-4-8-1-14 2-3 3-16 1-19-1-4-6-5-19-6-19-1-20-2-21-15 0-9 3-27 6-33 5-10 7-26 5-37-1-4-2-10-2-14s-2-8-3-10c-1-3-2-6-2-9-1-2-2-5-2-7-1-2-3-7-5-11-3-8-6-15-9-19-3-3-20-17-27-21-6-4-9-7-9-10 0-1 2-3 5-6s6-8 7-12c5-10 7-14 14-17 3-1 6-4 7-5 5-5 9-41 6-52-1-3-2-11-3-18-1-23-5-39-12-45-4-4-24-13-35-16-25-6-52-1-66 14-7 7-10 14-13 32-3 10-3 17-4 36-1 34-4 85-5 95-1 9-4 17-12 30-6 9-10 18-10 22-1 3-4 13-9 29-2 6-2 11-3 24-1 11-2 19-3 24-6 22-5 46 1 73 3 14 8 22 14 25 3 1 14 1 82 1 64 0 114 1 121 2 0 0 2 0 4-1m248-3c21-1 49-1 64-1 83 1 97 0 101-4 2-2 3-4 5-30 1-8 2-15 2-18 1-2 2-10 2-17 1-7 3-20 5-29 1-8 3-22 4-29 0-7 1-17 2-21 1-9 5-57 5-67 0-11-4-24-12-42-11-24-34-61-47-74-9-10-15-19-16-24-1-11-4-14-11-16-6 0-13-4-16-7-1-2-3-6-5-9-3-6-3-8-4-16 0-11 1-26 3-33 4-10 6-27 6-36s0-12-3-21c-7-18-15-29-26-36-11-6-17-8-29-8s-25 3-39 8c-15 6-19 9-27 16-10 10-11 13-11 30-1 9-1 17-3 23-1 5-2 15-3 22 0 7-1 15-2 18-2 8-1 11 2 15 3 5 8 16 9 20 2 5 9 19 11 22 2 2 10 5 21 7 8 2 13 6 13 11 0 3-7 14-16 24-7 9-10 13-11 21-1 4-4 11-8 19-6 13-13 29-17 40-1 4-3 12-5 18s-4 14-5 17c0 3-2 9-3 13s-3 14-5 22-4 19-5 25c-2 6-4 17-6 25-2 7-5 21-7 31-3 10-5 23-6 33-1 9-2 19-3 21s-1 7-1 10c1 3 0 8-1 13-2 10-1 11 8 12 4 1 8 1 10 2 5 2 10 2 80 0z"/></svg>