<svg xmlns="http://www.w3.org/2000/svg" width="1344" height="566"><path d="M0 283V0h1344v566H0V283m498 130c13-5 14-5 30-7 18-2 45-2 53 0 3 1 11 2 18 2 7 1 19 1 27 2s26 1 39 1c24 0 30 1 44 4 9 1 19 1 29 0 4-1 13-3 20-3 15-2 32-6 46-10 5-1 12-3 15-4 10-2 20-5 28-8s17-5 26-5c10 0 11-2 9-24-2-28-3-35-5-41-2-4-3-8-3-9 0-3-3-9-5-12-2-1-4-2-6-2-3 0-3 0-5-6-1-3-3-7-5-9-4-5-6-10-6-13-1-3-2-4-5-6-2-2-2-2-1-2 6-2 8-3 9-5 2-3 2-3-3-24-3-12-7-26-9-32-3-14-6-23-8-36s-4-18-10-32c-6-15-13-27-25-39-13-13-27-20-47-26-12-3-15-3-34 0-21 3-37 9-50 19-7 5-16 18-21 28-8 16-10 31-11 88 0 50-1 51-12 49-12-2-21 1-33 10-17 15-17 15-23 27-6 13-9 16-19 25-15 12-18 14-30 20-7 3-14 6-16 7-6 4-14 6-25 6-9 1-10 1-13 3-3 3-16 33-24 53-4 11-4 12-2 13 1 1 5 2 8 3 3 0 6 0 7 1h18l16-1 14-5z"/></svg>