<svg xmlns="http://www.w3.org/2000/svg" width="1344" height="566"><path d="M0 283V0h1344v566H0V283m275 278c9-1 18-1 20-2 3-1 5-1 8 0 6 2 39 2 233 2 169 0 173 0 183-2 7-1 12-2 13-3 1-2 2-5 2-23v-21l3-5c4-7 3-9-2-10-2-1-4-2-5-3-2-2-10-18-11-22-2-4-11-25-15-33s-4-8-4-18 0-10-3-13c-2-2-9-5-21-10-10-4-23-9-28-11-6-3-15-6-20-8-12-5-26-10-35-14-17-6-23-11-25-19-1-9 3-30 11-52 5-13 7-24 7-32s-4-48-7-64c-6-42-23-91-42-119-4-7-10-14-19-23-11-11-14-14-22-18-23-13-45-18-69-18-14 1-9-2-47 18-14 8-23 13-26 16-10 8-20 25-28 46-7 19-15 63-21 114-10 81-11 98-8 147 0 15 0 15-18 22-12 5-16 7-36 21-13 8-28 17-33 20-18 9-21 13-21 25 0 5-1 9-6 24-3 10-7 21-8 25 0 4-2 11-3 14-5 20-6 41-2 46l2 3h27c29 1 49 0 76 0z"/></svg>