<svg xmlns="http://www.w3.org/2000/svg" width="1344" height="566"><path d="M0 283V0h1344v566H0V283m156 276c40 0 48 0 59-3 10-1 118-1 128 1 5 1 15 1 29 1h22l3-3c2-3 2-4 2-11 0-5-1-13-1-18-1-4-2-14-3-20-1-7-1-13-2-13 0 0-1-7-1-15-1-8-2-17-3-20 0-3-1-8-2-12 0-4-1-8-1-10-1-2-1-7-2-12-1-7-4-19-6-30-3-12-15-36-24-50-11-18-30-33-56-46-30-15-35-19-35-24 0-4 11-24 17-35 6-8 7-12 5-21-1-7 0-10 5-16 1-2 3-6 4-10 2-5 3-7 9-13 5-5 7-8 8-11 2-8 1-18-5-37l-5-17-1-26c-1-30 0-28-14-56-8-19-11-23-17-26-3-2-10-2-129-2C71 3 13 3 11 4 9 4 6 6 4 7l-3 3v541l2 4 3 4h25c13 0 29 0 35 1 5 0 20 1 32 0 12 0 39 0 58-1m460 1c128-3 134-3 226-2 117 1 209 2 260 2 42 0 47 0 49-1 3-2 4-6 2-13-4-14-10-23-26-41-7-8-14-16-17-19-4-5-22-21-32-28-11-10-20-17-28-25-14-12-26-22-43-34-8-6-18-14-23-18-5-3-11-7-15-9-6-3-7-3-21-4-17-1-21-2-31-10-5-5-9-9-12-18-2-7-2-9-2-20 0-24 4-35 18-51 26-27 36-55 29-78-4-9-4-12-1-29 3-18 4-37 2-48-5-23-20-44-43-60-27-17-49-23-82-23-19 0-28 1-41 6-32 11-56 34-65 62-3 9-7 40-9 69 0 12-2 30-4 39-4 29-3 50 4 79 7 26 18 48 30 60 5 5 8 9 9 11 1 5-6 9-41 26-36 17-54 29-84 53-23 18-34 30-55 60-11 16-12 17-18 40-5 16-5 18-4 21 4 4 5 4 68 3z"/></svg>