<svg xmlns="http://www.w3.org/2000/svg" width="1344" height="566"><path d="M0 283V0h1344v566H0V283m913 165c11-2 17-5 17-10 0-2 1-6 1-9 1-6 1-8 0-14-2-7-3-9-10-18-8-12-11-17-39-82-4-9-10-18-25-36-23-29-52-55-94-82-28-19-32-22-49-30-10-5-16-8-17-10s-4-4-5-6c-3-4-10-7-24-12-17-6-19-7-27-23-4-8-6-12-11-17-12-12-22-17-41-18-10 0-12 0-16 2-11 4-25 18-30 28-4 7-11 32-13 44-1 11-1 19 3 25 3 6 7 9 12 8 3 0 3 0 9 7 10 13 14 22 14 31 0 8-4 25-7 30-2 3-4 9-6 14-7 19-8 20-18 34-7 10-7 13 0 20 4 5 19 12 28 14 7 1 14 1 17 0 1-1 4-6 8-12 9-16 10-17 12-20 3-2 3-2 5 0 1 1 3 4 5 6 1 2 3 6 5 8 4 5 4 8 1 11-1 2-3 5-3 6 0 2-1 3-4 4-2 1-6 3-9 5-10 5-10 6-2 22 5 10 8 14 15 22 5 6 10 11 12 12s3 1 23-1c7 0 8 0 13 2 4 2 6 4 7 7 1 2 4 5 5 6 4 2 20 7 25 7 1 0 6 1 9 2 4 1 11 3 17 4s14 3 18 4c5 1 15 2 24 3 15 1 21 2 35 5 20 5 30 6 46 6 7 0 15 1 19 2 7 1 31 1 45-1z"/></svg>