<svg xmlns="http://www.w3.org/2000/svg" width="1344" height="566"><path d="M0 283V0h1344v566H0V283m792 279c35-1 80-1 101-1h119c10 0 14 0 18-2 4-1 9-1 41-1 19 0 42 0 50 1 34 2 87 2 121-1 16-2 17-2 17-13-1-10-6-23-18-45-15-27-20-34-29-43-11-11-21-16-47-26-11-3-22-9-29-13-5-4-16-9-24-12-17-6-23-9-33-19-21-20-25-23-38-23-6 0-9 1-13 3-4 1-8 2-11 3-4 0-4 0-8-4-3-3-7-10-11-17-6-12-6-12-6-20 0-4 1-9 2-11 5-13 10-31 11-38 2-12 2-14 17-48 2-6 6-15 8-20 1-5 4-13 6-18 6-15 8-27 9-46s1-19-3-34c-5-21-6-22-14-30-4-4-8-9-8-11-1-2-5-6-8-9-6-6-7-7-7-11-1-2-2-5-2-6-2-3-8-6-16-6-8-1-17-6-25-14-7-6-10-7-22-7-6 0-12 0-16-2-11-2-26-2-38 2-6 2-14 3-18 4-26 3-59 15-83 31-9 5-16 13-23 25-9 17-10 18-11 34-1 17-3 26-9 42-12 30-13 36-14 47 0 6 0 13 1 20 2 10 3 43 3 91v18l6 12c8 16 15 32 18 40 7 22 14 37 19 42 4 5 11 9 18 10 8 2 15 5 15 7s-5 6-15 14c-8 6-16 12-18 13-3 4-15 11-27 18-4 3-10 6-12 8-1 2-5 5-8 7s-7 6-9 8c-3 4-16 13-23 18-5 3-8 6-13 15-5 8-6 14-3 16 2 2 4 2 17 3 9 0 20 1 25 0 4 0 36-1 70-1z"/></svg>