<svg xmlns="http://www.w3.org/2000/svg" width="1344" height="566"><path d="M0 283V0h1344v566H0V283m925 278c1-1 2-3 2-5s1-7 2-12c1-4 3-9 3-12 2-10 10-18 22-20 4-1 5-2 10-7 9-9 12-14 13-21 2-7 0-18-3-23-2-4-11-8-18-8-7-1-13-2-18-4-3-1-6-2-7-2-2 0-4-1-5-2-2-3-2-5-2-24-1-20-1-21-4-33-2-6-4-15-4-20-1-5-2-10-4-14-1-3-2-7-2-7 0-1-2-5-4-9-1-4-3-9-3-11s-1-4-2-5c0-1-3-4-5-8-6-11-7-12-10-12-1 1-4 0-9-3s-9-4-13-5c-4 0-8-2-11-3-2-1-7-3-11-4-18-7-19-10-12-21 3-4 4-6 10-8 8-4 16-9 17-11s1-8 2-17c0-12 0-16 1-20 4-8 3-13 0-27-5-21-10-44-11-48 0-2-2-5-4-7-2-3-4-6-5-8s-4-6-7-9c-4-5-6-6-11-8-21-7-44-8-62-4-13 3-19 6-26 13s-12 14-16 23c-5 13-6 21-6 44 0 19 0 21 2 26 1 4 2 8 2 9 0 4-3 10-10 21-7 9-10 20-9 25 0 2 2 8 4 14 6 15 9 16 25 11 10-3 10 2 1 22-4 7-8 16-8 19-2 8-4 27-3 28 0 1 1 12 1 24 1 19 1 25 3 30 1 4 3 15 4 24 2 10 4 21 5 26 0 5 1 15 2 22 1 8 1 18 2 22 2 15 9 47 11 51 3 5 8 8 15 9h85c64 0 80 0 81-1z"/></svg>