<svg xmlns="http://www.w3.org/2000/svg" width="1344" height="566"><path d="M0 283V0h1344v566H0V283m579 228c4-1 11-2 16-4 5-1 12-3 17-4s12-3 15-3c4-1 10-2 13-2s8 0 11-1c5-1 33-1 155-3 52 0 75-1 89-4 5 0 18-2 28-4 14-2 19-4 22-5 6-4 12-4 31-1 7 0 17 1 22 2 8 0 9 0 14-2 7-3 12-8 18-18 3-4 6-8 7-9 2-1 4-4 5-6 2-4 2-4 0-6-2-3-12-3-16 0-7 5-9 6-16 7-6 0-8 0-11-2s-3-3-3-5c0-3 1-4 6-7 13-8 17-13 14-17-2-2-4-1-19 3-21 6-32 10-39 15-9 5-13 6-18 3s-8-7-8-14c0-6-3-16-6-20-6-8-26-47-38-72-9-20-11-24-27-44-15-18-40-44-53-54-4-3-9-7-11-9-5-4-42-30-55-38-6-4-18-11-26-15-17-9-20-11-21-17s-3-9-10-10c-3 0-11-3-17-5-14-4-17-6-21-17s-7-16-14-24c-7-7-15-12-23-15-4-2-8-2-18-2-13 0-14 0-19 2-11 6-24 20-29 31-3 6-8 23-9 31-2 9-1 23 2 29 2 6 5 7 9 6 4-2 5-1 16 21 2 3 2 5 2 16 0 15-3 29-9 42-3 5-6 11-6 13-3 7-11 21-15 26-7 7-10 14-15 27-2 6-12 12-25 16-4 2-7 3-11 7-5 5-12 10-24 15-5 3-12 7-15 10-4 3-7 5-7 5-1 0-5 3-9 7s-9 9-12 11c-6 5-7 8-7 17 0 5 0 14-1 21-2 21 1 33 11 42 6 7 13 10 28 15 5 2 13 5 19 7 7 2 14 4 28 6 10 1 24 3 30 4s13 2 15 2c8 1 32 1 40 0z"/></svg>