<svg xmlns="http://www.w3.org/2000/svg" width="1344" height="566"><path d="M0 283V0h1344v566H0V283m969 131c1-2 2-5 3-11 1-5 1-9 2-9 0-1 1-6 1-12 3-18 5-35 6-43 2-10 5-35 5-49v-12l-6-6c-10-11-11-12-13-18-3-7-5-15-7-30 0-6-2-12-2-14-1-1-2-5-3-8 0-2-2-7-2-9-4-9-5-16-6-19-2-10-10-25-16-30-2-2-13-4-23-4-5 0-8 1-15 4-9 3-10 4-17 11-8 9-8 9-10 16-1 4-1 10-1 24l1 19-5 3c-2 2-5 4-5 6-1 1-3 4-5 7-3 5-4 9-6 17s-3 12-5 15c-2 2-4 7-5 9-1 3-2 7-3 9-1 3-2 6-2 7-1 2-5 7-10 13-12 11-13 14-12 30 2 23 7 30 27 33 4 1 5 3 5 8 0 4 1 5 4 5 5 0 7 1 5 4-3 4 0 6 17 12 5 1 13 4 18 5 19 5 22 6 27 7 3 1 10 3 15 4 5 2 14 3 20 4s12 2 14 3c6 1 6 1 9-1z"/></svg>