<svg xmlns="http://www.w3.org/2000/svg" width="1344" height="566"><path d="M0 283V0h1344v566H0V283m721 278c64-2 129-2 176 1 13 1 25 1 41 0 26-1 27-1 30-8 3-5 2-9 0-22-4-18-7-43-9-78-1-20-3-37-6-46-1-4-3-10-4-14-10-36-14-43-35-52-5-2-11-4-14-6-2-1-8-3-12-5-3-1-7-3-8-3-1-1-5-3-9-6-4-2-10-6-15-10-3-4-11-10-17-14-15-11-17-13-19-17-2-5-1-15 2-18 4-3 5-3 11 0 3 2 7 4 8 4 3 0 5-3 6-10 1-4 2-13 3-22 1-8 2-17 3-20 2-8 2-38 0-49-1-6-3-17-4-24-2-18-4-26-10-38-8-16-30-34-50-43-17-6-26-7-59-4-20 2-27 3-39 9-17 9-28 20-36 36-5 11-6 18-6 34 0 15 3 35 7 52 2 8 3 15 1 19-1 1-4 3-7 5-14 7-24 14-35 24-3 2-10 15-17 29-6 11-10 27-12 44-2 18-7 29-19 42-9 9-10 11-14 22-2 8-3 9-9 15-5 5-6 6-10 17-2 6-6 15-8 21-5 10-6 11-16 21l-11 11-8 17c-5 10-10 21-12 25-2 5-5 13-7 18-4 10-8 28-8 33 0 4 3 7 9 9 5 1 13 1 59 1 29 0 58 0 64 1 20 1 75 1 125-1z"/></svg>