<svg xmlns="http://www.w3.org/2000/svg" width="1344" height="566"><path d="M0 283V0h1344v566H0V283m750 204c11-1 21-3 26-4 4-1 11-3 15-4 4 0 8-1 8-2 1 0 4-1 8-2 7-1 13-3 31-8 20-6 24-6 43-6h27c8 1 9 1 10-1 2-2 2-3 2-14 0-7-1-18-3-27-1-8-2-21-3-29s-1-15-2-16c0-1 0-5 1-10 1-9 0-11-5-15-4-3-12-7-14-7-1 0-5-2-10-3-4-2-10-5-13-6-8-2-13-6-13-12-2-8-3-10-10-14-3-3-6-5-6-6 0-3 3-7 7-7 3-1 4-4 3-11 0-3-1-10-1-16-2-18-6-49-11-73-4-16-11-46-14-53-1-3-3-8-3-11l-5-10c-1-3-3-7-4-8-1-4-9-18-14-24-9-13-25-24-46-34-28-14-40-15-62-6-6 3-10 4-14 4-7 0-17 2-23 6-12 5-26 23-33 40-5 11-9 29-13 52-1 4-2 10-3 12 0 2-2 12-3 20-2 15-2 21-2 70-1 60 0 57-7 56-2-1-11-1-19-2-15-1-24 0-28 2-1 1-11 9-20 19-10 10-21 19-23 21s-7 5-10 7c-3 3-11 7-17 11-7 3-15 9-19 13-10 8-16 10-25 9-11-1-10-1-24 30-10 20-13 30-13 38-1 6-1 8-4 12-3 5-3 5-1 7s8 3 14 0c11-4 14-5 33-5 9 0 20 0 24-1 3 0 11-1 19-2 7-1 15-2 19-3 3-1 7-2 9-2 1 0 4-1 6-2 6-2 12-2 27 3 31 10 33 10 106 10 16 0 24 0 36 2 18 2 30 5 34 8 8 6 6 6 32 4z"/></svg>