<svg xmlns="http://www.w3.org/2000/svg" width="1344" height="566"><path d="M0 283V0h1344v566H0V283m557 277c7-1 16-1 20-1 44 0 61 0 95-1 38-1 40-1 43-3 2-2 2-4 3-21 1-9 1-19 2-22 0-2 1-10 1-19 2-14 2-16 4-17 2-2 3-2 6-2 3 1 13 1 23 2 18 0 34-1 69-4 7-1 19-2 25-3s14-2 17-3c2 0 8-1 12-2 6-1 12-2 31-8 20-6 35-14 45-25 13-13 17-19 16-29-2-13-22-45-40-62-9-9-18-15-30-21s-18-11-24-18c-10-14-16-17-31-20-16-3-18-3-25-8-3-3-10-7-15-9-9-5-10-5-14-4-10 1-12 1-28-8-3-3-13-8-20-12s-16-9-18-10c-5-3-7-6-7-16 0-8-2-20-5-42-5-32-13-50-30-65s-29-21-65-29c-11-2-15-2-29-2s-17 0-26 2c-14 4-17 5-33 15-17 10-28 21-36 35-3 6-9 16-13 23-4 6-9 14-10 16-2 3-7 21-10 31-1 2-2 5-3 6-1 2-10 9-20 16-15 12-19 14-25 16-4 1-9 3-10 3-3 1-19 12-36 23-8 6-17 11-30 16-21 9-28 14-38 29-11 18-13 23-14 44-1 22 3 41 9 49 5 6 8 13 13 25 2 8 3 11 3 17 0 10 3 26 5 29 2 2 5 3 12 5 10 3 14 9 14 21 0 7-1 20-4 44-1 9 0 15 3 17 1 1 12 2 58 2 32 0 73 0 91 1 35 1 49 1 69-1z"/></svg>