<svg xmlns="http://www.w3.org/2000/svg" width="1344" height="566"><path d="M0 283V0h1344v566H0V283m757 273c4-1 5-3 8-10 3-9 5-18 5-32 1-6 2-15 2-20 1-4 1-20 2-35 0-14 1-30 2-33 1-4 2-16 3-26 0-9 2-22 3-28 0-7 1-15 2-19 1-12-3-42-7-64-1-5-3-17-4-26-2-9-4-21-5-25-2-5-4-14-5-19-2-11-5-16-11-21-6-4-7-9-7-18 1-5 2-11 3-14 2-7 2-12 0-26-1-12-3-14-10-16-5-1-23-1-30 0-8 2-13 6-17 15-4 8-4 8-4 19v22l1 10-5 10c-5 10-8 21-10 35-1 4-2 11-2 16-1 4-2 14-3 23-2 17-1 24 4 36l3 8-1 25c0 23 0 27 2 40 1 8 3 16 3 18 1 2 2 11 4 21 2 14 2 22 3 43 0 39 1 55 4 77 1 10 7 13 15 9 6-3 8-7 8-17 1-5 2-15 2-23 1-8 2-19 3-25 0-7 1-17 2-23 0-6 1-19 2-29 1-23 3-28 6-27 5 2 6 12 8 41 2 33 2 37-3 50-3 10-3 13-3 21s0 9 4 16c3 5 4 8 5 13 0 9 2 10 9 9 3 0 7-1 9-1z"/></svg>