<svg xmlns="http://www.w3.org/2000/svg" width="1344" height="566"><path d="M0 283V0h1344v566H0V283m745 278c4-2 5-2 13-1 6 1 28 1 62 1 58-1 58-1 61-7 2-3 2-6 2-13 0-13-3-28-9-43-5-12-7-17-15-44-4-12-13-44-16-54 0-2-3-12-6-24-5-20-8-34-10-49-1-8-3-14-7-17-1-1-8-5-16-9-8-3-15-7-16-8-2-2-2-2-1-4s4-3 6-4c3-1 4-2 5-5s1-5 0-9c-2-5-4-8-20-24-18-18-22-24-22-31 0-1 1-7 3-13 6-25 3-47-11-62-10-11-25-20-37-21-18-2-55 4-71 12-6 3-14 11-17 16-3 6-3 15-1 27 1 4 3 14 4 22 3 16 2 19-3 25-2 2-4 3-8 3-12 2-24 11-28 22-1 3-3 10-4 15-3 19-4 22-11 33-2 3-4 8-5 10-1 4-4 7-7 10-4 3-6 6-8 11-3 8-4 10-11 17-7 8-14 22-18 39-2 9-4 35-3 40 1 4 7 11 14 14 5 3 6 3 13 3 12-1 20-4 38-15 8-5 16-9 17-9 3 0 5 6 6 18 1 6 1 15 2 21s2 30 2 53c2 47 2 46 8 50 7 4 30 6 82 6 35-1 40-1 43-2z"/></svg>