<svg xmlns="http://www.w3.org/2000/svg" width="1344" height="566"><path d="M0 283V0h1344v566H0V283m576 276c2-1 15-1 41-1 75 2 125 1 129-2 5-3 6-6 3-10-6-10-7-13-8-24 0-5-2-13-3-17-2-9-3-24-2-38s1-15 16-13c23 2 28 2 51 0 12-1 29-3 37-4s19-2 24-3c26-3 35-4 44-6 15-4 18-6 29-11 18-9 26-15 33-24 12-13 14-17 13-22s-12-25-18-34c-20-28-32-39-55-52-13-6-16-9-28-20-9-9-10-10-18-12-4-2-9-3-11-4-4 0-10-3-23-11-18-10-23-12-30-12-9 0-20-4-32-12-5-3-14-8-18-11-11-5-15-8-17-11-1-2-1-8-1-18-1-14-1-17-3-26-2-6-4-13-6-17-1-3-3-10-5-16-3-11-5-16-14-29-7-9-21-21-30-26-14-7-39-14-62-18-9-1-13-1-20 0-11 1-28 7-38 12-13 7-42 30-50 40-13 16-29 48-35 69-3 12-5 15-21 26-22 17-31 22-43 26-5 2-20 11-33 22-5 4-11 7-16 9-26 10-34 14-40 21s-11 15-14 20c-7 13-10 38-8 59 1 16 2 19 8 29 7 14 7 14 7 41l1 25 3 6c3 8 7 10 19 14 14 4 15 9 13 38-2 17-3 25-6 32-2 7-1 12 1 14s5 2 51 1c32-1 55-1 69 0 11 0 31 1 45 0 14 0 26 0 29 1 8 1 40 0 42-1z"/></svg>