<svg xmlns="http://www.w3.org/2000/svg" width="1344" height="566"><path d="M0 283V0h1344v566H0V283m761 249c6-1 16-3 21-5 4-1 11-2 15-3s8-1 9-2c2-1 10-3 22-6 3 0 8-2 11-2 2-1 8-3 13-4 9-2 18-5 27-7 17-5 28-6 51-3 12 1 15 1 17 0 1-1 1-4 1-23-1-13-1-24-2-27s-3-21-6-48c-1-6-2-11-3-13-3-5-4-6-27-12-34-9-35-10-34-30 1-13 1-13-1-16-2-1-4-3-6-3-1-1-4-2-6-3-2-3-2-3-1-6 0-2 2-3 5-4s6-2 6-3c1 0-1-5-4-13-11-26-16-42-19-49 0-3-4-12-7-21s-8-21-10-27c-5-14-11-31-15-42-1-3-3-8-3-10-4-14-24-39-41-52-7-5-21-13-37-19-15-6-21-7-32-7-9 0-11 0-27 4-47 10-52 12-64 23-7 7-9 8-14 20-7 14-13 31-16 43-1 7-2 19-4 44-2 39-2 55-1 86l1 21-4 4c-2 2-7 5-10 7-19 10-24 13-26 15s-5 4-8 5c-2 1-5 3-6 5-3 3-9 15-10 20s-5 11-9 13-11 3-15 0c-3-1-3-1-15 6-7 4-14 7-16 8-18 5-24 9-33 19-6 8-14 12-26 13-5 0-10 1-11 2-3 2-7 8-10 15-1 3-3 8-4 10-2 5-14 39-15 44-1 6 1 9 4 11 3 1 6 1 21 0 15 0 18-1 23-3 4-1 8-3 10-3 3-1 6-3 8-3 3-2 7-2 16-2 15 0 36-1 40-2 10-2 25-4 27-3 1 0 7 2 13 2 6 1 15 3 19 5 25 8 26 8 59 7 21-1 53 0 57 2 2 1 10 2 19 2 23 1 37 6 49 15 10 9 16 10 34 5z"/></svg>