<svg xmlns="http://www.w3.org/2000/svg" width="1344" height="566"><path d="M0 283V0h1344v566H0V283m532 278c33-1 67-1 165 0 87 0 125 0 138-1h105c119 1 134 1 137 0 4-1 5-4 3-9-1-2-3-11-3-19-2-17-4-24-12-34-3-4-7-10-8-14-2-4-5-8-6-9-4-4-13-8-56-27-15-6-20-9-22-12-3-3-3-3-3-10 1-10 5-30 8-40 6-18 11-43 12-55 2-16 2-90 0-104-6-56-9-78-11-89-5-18-7-24-10-34-16-45-51-77-100-89-9-2-18-3-28 0-4 1-13 1-22 1-13 1-15 1-24 4-24 8-56 34-67 53-3 5-7 13-10 17-10 18-27 65-31 88-1 6-4 18-6 26-1 8-4 19-5 25 0 6-1 11-1 12-1 2-7 46-8 59-2 14-6 41-10 53-5 20-10 30-19 36-2 1-7 3-12 4-4 1-10 3-12 5-3 1-8 3-11 4s-8 4-11 6c-4 2-12 6-18 8-6 3-17 8-25 12-18 8-37 16-48 19-10 3-15 7-17 12-1 3-1 7 0 15 1 7 1 12 0 15-1 2-5 13-10 23-13 26-14 30-14 38 0 6 0 6 2 8 3 3 3 3 40 4 2 0 16 0 30-1z"/></svg>