<svg xmlns="http://www.w3.org/2000/svg" width="1344" height="566"><path d="M0 283V0h1344v566H0V283m863 276c20-1 22-1 24-3 5-4 7-14 7-42 1-12 1-26 1-32 1-11-1-21-7-42-6-16-8-26-11-38s-8-30-13-45c-5-13-6-20-9-30 0-4-2-9-2-11-1-2-3-9-5-14-4-13-15-34-23-46-4-4-11-13-15-18-8-7-11-9-18-13-12-6-14-8-17-15-4-8-5-19-2-36 3-29-1-48-16-65-10-10-20-15-35-17-11-1-20 0-32 5-4 2-8 4-10 4-6 0-25 15-36 30-8 10-10 17-10 31-1 17 1 24 4 28 5 6 6 9 7 20v10l-3 5c-5 8-8 14-11 24-1 5-4 13-7 19-2 5-6 14-8 18-12 26-11 25-22 40-13 19-18 24-40 47-22 22-26 24-38 32-7 5-13 9-14 9-3 2-9 3-25 2-26-2-27-2-33 1-3 2-7 3-8 3-3 0-20 5-25 7-6 3-6 13-1 25 6 15 10 18 32 21 14 2 22 1 33-3 5-1 12-3 17-4s11-3 14-4c4 0 10-1 15-2 11-1 15 1 24 13s11 14 21 19c13 7 21 9 25 9 5-1 22 1 27 3 3 1 8 4 13 6 8 4 10 6 10 13 0 4 1 5 5 10 3 3 8 8 10 11 3 3 7 7 10 9 5 3 6 3 25 4 11 1 43 1 71 2h53c0 1 6 1 13 1 7-1 23-1 35-1z"/></svg>