<svg xmlns="http://www.w3.org/2000/svg" width="1344" height="566"><path d="M0 283V0h1344v566H0V283m298 276h66c4 0 11 0 14 1 4 1 24 1 49 0h86c28 0 49 0 58-1 11-1 21-1 40 0 33 1 164 1 169 0 7-2 8-5 4-19-1-6-4-16-6-22-3-9-3-11-2-18 1-16-2-21-20-30-16-8-42-20-52-24-5-2-15-7-24-11s-20-9-26-12c-12-6-21-10-24-13s-3-7 1-13c2-3 4-9 5-13 2-4 4-11 6-16 10-21 11-25 16-40 6-17 9-29 11-42 2-10 1-43-1-59-1-6-3-20-4-29-3-25-6-44-11-64-9-35-20-61-39-85-5-6-17-15-39-29-22-15-29-17-71-16-29 1-36 2-44 8-3 1-8 3-15 5-38 8-62 40-79 105-7 27-10 43-18 90-4 23-8 48-9 55-10 52-11 59-9 88 1 11 2 26 3 33 2 18 2 20-2 24-3 4-9 7-13 7-6 0-28 9-36 14-12 8-37 22-53 31-24 12-26 14-30 24-5 11-15 31-22 42-7 12-11 23-9 27 0 1 2 2 4 3 3 1 39 1 126-1z"/></svg>