<svg xmlns="http://www.w3.org/2000/svg" width="1344" height="566"><path d="M0 283V0h1344v566H0V283m820 277c19-1 45-2 58-2 14-1 35-1 47-2 12 0 35 0 49-1 36-1 134 0 164 1 14 1 32 1 40 1 16 0 16 0 19-2 2-2 2-3 2-7-1-12-11-33-27-60-12-21-21-30-46-50-17-13-30-19-71-29-7-2-21-6-31-9-9-2-22-6-29-8-30-7-54-15-57-19-4-3-5-6-5-18 0-13 2-31 3-37 2-6 5-9 14-14 15-8 26-21 36-39 6-15 8-23 8-37 0-8 0-11-2-15-2-5-7-10-13-13-2-1-4-3-5-4-2-3-1-21 2-44 3-33 2-68-2-102-2-19-5-25-13-34-6-6-13-8-34-11-14-1-31-1-127-1-75 1-114 1-118 2-12 2-18 7-24 22-10 23-15 42-19 66-2 13-2 17-2 68 0 60 0 60 8 90 2 8 6 22 8 30 4 15 7 24 18 55 2 7 5 14 5 16 1 6-2 9-17 16s-19 10-24 18c-1 2-5 9-10 16-4 7-9 15-11 19-17 28-31 45-51 58-6 4-14 10-18 14-12 11-32 27-52 40-21 15-26 19-26 22 0 5-5 4 134 5 143 1 169 0 219-1z"/></svg>