<svg xmlns="http://www.w3.org/2000/svg" width="1344" height="566"><path d="M0 283V0h1344v566H0V283m627 276c17-1 48-1 69-2 41-1 115-1 140 1 23 2 235 2 238 0s4-5 3-8c0-2-7-11-14-20-7-10-14-19-15-22-3-4-9-9-16-15-11-8-34-28-46-39-14-14-23-22-32-29-3-2-10-8-15-12-10-9-24-18-31-22-6-3-15-5-26-5-32 0-48-19-48-56 0-9 0-15 1-19 2-8 10-23 18-37 16-26 17-31 18-58 0-14 0-26 1-33 3-17 3-31 2-42-3-18-9-35-18-47-13-16-43-34-68-40-21-5-55-5-72-1-11 3-29 9-36 13-5 3-27 26-35 36-3 4-8 14-8 16 0 4-7 25-11 32-2 4-6 13-8 19s-6 15-8 18c-6 11-8 16-8 31 0 16 1 19 6 27 4 8 6 13 9 27 4 18 7 28 12 42 9 22 17 41 19 45 4 5 9 9 21 15 5 3 10 6 11 7 2 2 2 2 1 5-3 3-14 10-39 24-33 18-39 22-65 43s-33 28-50 52c-19 28-27 44-23 51 1 1 2 2 4 3s20 1 46 0h73z"/></svg>