<svg xmlns="http://www.w3.org/2000/svg" width="1344" height="566"><path d="M0 283V0h1344v566H0V283m832 278c34-1 77-1 96-1 49 1 135 0 163-1 31-1 33-2 31-13-2-9-12-38-23-62-2-5-6-14-8-19-5-14-7-18-16-29-15-17-38-50-48-68-4-7-8-21-8-26 0-4 3-6 9-7 2-1 12-3 21-7 9-3 19-5 21-5 3 0 4-1 7-4 4-4 6-10 8-23 1-9 1-9-1-17-3-8-5-13-8-23 0-2-2-11-3-18-3-18-5-24-14-33-3-3-10-8-17-12-6-3-13-8-16-10s-7-4-9-5c-2 0-12-5-21-9-14-7-18-10-21-13-5-5-9-15-12-23-3-13-6-23-14-39-17-39-30-56-54-73-11-8-21-12-32-14s-75-3-97-3c-25 1-32 2-46 8-10 4-12 5-19 11-4 4-8 7-8 7s-7 6-14 14c-13 15-21 27-28 44-4 8-13 23-22 35s-9 13-10 27c0 15 1 20 9 37 2 6 7 16 10 23 5 13 9 18 12 18 4 0 8 3 11 8 4 5 7 9 14 18 6 7 8 13 11 24s4 13 5 27c2 20 5 26 19 34 6 3 9 5 13 11 3 4 8 8 10 10 8 5 18 15 20 21 4 7 4 11-3 27-12 27-15 32-23 40-9 10-13 18-20 40-6 19-16 60-16 66 0 7 1 7 23 8s37 1 118-1z"/></svg>