<svg xmlns="http://www.w3.org/2000/svg" width="1344" height="566"><path d="M0 283V0h1344v566H0V283m746 277c10-3 13-5 17-10 3-5 3-8-1-11-3-3-3-3-4-12 0-5-1-14-2-19-2-10-2-12-1-36s3-43 5-65c2-13 1-35-1-46-4-19-15-45-25-58-2-4-9-12-15-19-13-14-14-16-14-20 0-2 2-9 4-16 12-35 14-49 12-71-1-7-2-18-2-24-3-38-5-51-16-67-8-14-27-28-51-40-13-7-21-10-34-13-10-2-13-3-23-3-25 0-59 7-77 16-17 9-31 23-40 42-6 13-8 21-13 49-5 31-5 30-12 37-2 2-5 6-6 7 0 3 0 8 2 25 0 4 1 14 1 22 0 14 0 16-2 19-4 6-16 13-44 25-16 6-55 25-60 28-1 2-7 5-13 9-17 10-25 17-46 37-24 23-41 45-50 62-4 8-11 26-13 34-1 3-2 5-2 6-1 0-2 8-3 17-2 14-2 20-2 37 1 26 3 49 5 52 4 6 3 5 52 4 91-1 266 0 277 2 2 1 26 1 53 2h50c0 1 19 1 43 0h43l8-2z"/></svg>