<svg xmlns="http://www.w3.org/2000/svg" width="1344" height="566"><path d="M0 283V0h1344v566H0V283m843 279h147c75 0 93 0 103-1 20-2 20-4 11-23-3-8-8-19-11-26-3-8-8-16-12-22-13-21-16-31-16-51 0-10 4-41 9-69 5-33 5-52 0-57-4-4-7-2-12 4-2 4-4 7-5 7-2 0-5-3-6-8-1-3-3-9-4-14-3-11-6-16-10-16-3 0-9 6-9 8 0 1-1 2-2 3-3 3-4 1-6-5-1-2-3-6-5-8-4-7-10-5-15 6-3 5-6 9-8 9-1 0-3-1-6-3-2-1-4-2-6-2-7 0-11 12-13 34-1 16-2 18-8 18-3 0-11-3-23-8-11-4-23-8-26-10-14-5-30-13-31-15-1-3-1-6 2-23 5-31 7-55 5-78-2-28-6-41-18-59-11-16-18-22-42-36-20-12-39-18-62-19-10 0-13 0-21 2-13 4-32 13-42 20-12 9-26 25-31 34-2 6-8 24-8 28 0 2-2 11-6 24s-7 25-7 34c-1 6-1 12-2 14-2 5-1 22 0 29 3 10 3 17 2 19-3 6-19 13-51 22-5 2-12 4-15 5-6 2-27 4-30 3-4-1-4-4-5-27 0-21-1-23-2-25-3-3-7-3-12 3-3 3-6 5-7 5-3 0-4-3-7-14-4-12-6-15-9-16-4 0-5 1-9 6-1 2-3 5-5 7l-4 4-5-4c-9-9-14-6-17 7-4 16-8 19-19 18-6 0-7 0-9 2s-3 4-4 7c0 6 2 25 5 37s5 23 5 26c0 2 0 5 1 7s2 7 2 11c2 7 4 17 6 24 3 7 5 24 4 33 0 18-16 58-30 77-9 12-13 21-13 30s2 10 27 11c11 1 26 1 33 1 7-1 55-1 105-2 77 0 95 0 106 1 11 2 22 2 56 1h97z"/></svg>