<svg xmlns="http://www.w3.org/2000/svg" width="1344" height="566"><path d="M0 283V0h1344v566H0V283m275 276c2-1 3-1 8 0 6 2 36 2 225 1h108c58 0 58 0 61-6 2-4 4-14 3-19-1-2-4-8-7-13-8-11-9-15-7-22 1-4 1-5-3-18-2-7-6-16-8-20-3-8-3-10-3-18-1-13-3-16-22-24-6-2-18-7-25-10s-20-9-29-12c-22-9-36-15-37-18-1-1-1-4-1-7 1-7 13-42 19-55 6-14 10-26 11-35 1-4 2-8 2-10 1-5 1-24 0-42-1-9-3-25-4-37-6-65-12-90-28-111-10-14-37-37-54-45-12-6-34-11-48-11-9 0-12 1-28 5-4 1-14 3-23 5-16 3-21 5-31 12-14 10-28 29-36 50-6 17-13 44-17 71-1 7-3 18-4 24s-2 17-3 24c-1 6-1 12-2 13 0 1-1 10-2 21-1 10-3 29-5 42-2 24-3 51-1 65 1 3 1 8 2 11 0 3 0 4-3 8-5 4-17 11-33 17-17 7-23 10-39 22-7 6-19 14-27 18-15 10-27 19-29 23 0 2-1 5-2 7 0 2-3 10-7 17-12 23-12 24-15 39-5 21-4 34 1 37 4 2 15 3 78 3 51 0 63-1 65-2z"/></svg>