<svg xmlns="http://www.w3.org/2000/svg" width="1344" height="566"><path d="M0 283V0h1344v566H0V283m679 269c15-8 15-6 15-33 1-16 1-23 3-26 1-4 5-10 13-23 7-10 7-13 7-52 0-33 0-36 1-42 2-7 2-8 1-30 0-13-1-28-1-34 0-18-5-77-7-87-2-8-5-13-11-17-10-8-10-8-7-31 0-6-2-18-5-24-7-13-21-18-35-13-7 3-12 7-15 11-1 4-1 21 1 33 2 17 3 15-11 33-5 7-9 17-11 28 0 3-2 8-3 11-3 4-3 6-3 14 0 5 0 9-2 11-1 3-1 5-1 10 1 8 3 13 9 19 2 3 4 6 5 8 0 1 0 11-1 22-1 24-1 30 6 58 5 21 8 41 10 68 1 19 8 78 10 84 2 5 7 7 15 7 6 0 7-1 17-5z"/></svg>