<svg xmlns="http://www.w3.org/2000/svg" width="1344" height="566"><path d="M0 283V0h1344v566H0V283m546 277h201c115 1 123 1 128-3 7-4 9-17 9-47 0-38-5-62-16-75-8-8-46-38-58-45-1-1-8-5-14-9-12-8-18-14-30-33-7-12-17-34-17-38 0-1 2-7 6-16 1-3 7-17 14-30 19-38 21-43 24-62 1-7 3-16 4-20 4-15 5-27 5-48-1-29-4-41-14-62-8-16-20-29-40-43-12-8-19-10-35-11-10 0-17-1-25-3-9-2-12-2-22-2-16 1-23 3-36 10-26 13-44 33-55 60-3 8-5 22-5 35 0 6 0 16-1 22-1 10-2 12-5 20-5 11-6 20-5 34 1 12 4 17 19 33 7 7 13 14 14 16 3 4 7 21 7 28 0 9-4 23-8 32-3 6-6 9-13 17-13 13-21 19-36 26s-21 9-38 15c-13 4-41 14-53 18-4 2-9 4-11 5-6 4-13 12-16 18-4 7-23 66-30 89-2 6-6 21-10 31-8 25-8 32-4 35s10 4 45 3h121z"/></svg>