<svg xmlns="http://www.w3.org/2000/svg" width="1344" height="566"><path d="M0 283V0h1344v566H0V283m142 277c37-1 55-2 60-3 5-2 17-2 62-1 33 0 62 0 69 1 14 1 39 1 45-1 5-1 8-4 8-8 0-2-2-14-3-26-2-13-5-30-6-38-7-48-12-77-16-92-3-8-9-24-15-35-15-28-29-41-65-61-27-15-28-15-30-18-1-3-1-3 5-15 3-7 9-17 12-23 7-11 8-16 6-25-1-5-1-8 4-14 2-3 4-7 5-10 2-7 5-11 10-16 10-8 11-19 2-48-6-17-7-25-7-44 0-25 0-26-12-51-11-21-14-25-20-27-2 0-49-1-125-1C10 3 9 3 5 5L1 7v272c0 179 0 271 1 271 1 1 1 2 1 3 0 4 2 5 27 5 14 1 28 1 32 2 11 1 24 1 80 0m465 0c22-1 51-1 65-2 43 0 175 0 228 1 28 1 93 1 145 1 89 0 95 0 97-1 4-3 4-5 0-15-5-17-10-24-33-50-16-17-26-26-45-42-6-4-14-10-18-14-19-18-32-29-46-38-5-4-15-11-22-17-21-15-21-15-40-16s-23-2-33-12c-6-6-10-13-13-22-3-12 0-38 6-49 1-2 5-7 9-12 15-17 24-30 30-46 3-8 3-10 3-19s0-12-2-17c-3-8-2-16 1-33 1-6 1-15 1-26 0-18-1-25-7-38-8-18-26-36-50-48-29-16-70-20-104-11-30 8-58 33-68 61-4 10-8 43-10 71-1 9-3 25-5 37-4 24-4 36-1 57 3 20 5 30 12 46 10 25 15 33 26 42 3 3 6 6 6 7 2 4-5 9-40 26-44 22-60 32-95 62-14 12-17 15-32 34-13 18-18 25-22 32-3 6-14 40-14 43 0 4 3 7 6 8 5 1 18 1 65 0z"/></svg>