<svg xmlns="http://www.w3.org/2000/svg" width="1344" height="566"><path d="M0 283V0h1344v566H0V283m761 279c16-2 18-6 20-36 1-12 1-14-1-20-1-4-2-9-3-12 0-3-1-9-2-14-4-17-4-37-2-67 2-44 1-64-9-91-5-14-9-20-21-33-10-11-12-14-12-20 0-10 6-46 12-69 5-23 7-34 8-48 0-17-1-39-5-55-4-22-8-30-22-45-10-10-17-15-30-23-19-12-29-15-56-22-19-4-67 2-85 10-20 10-35 25-45 45-9 19-12 31-16 72-1 6-2 13-2 14-1 2-4 6-7 8-9 7-9 11-6 36 1 11 1 22-1 27-1 1-4 6-7 10-15 19-26 29-45 38-31 15-79 48-100 68-32 32-59 69-67 92-3 9-6 20-7 29-1 5-1 10-2 12-2 7-3 34-2 43 2 21 5 38 7 40 1 3 5 7 8 8h49c71-1 153-1 195 0 21 1 55 1 77 2 22 0 55 1 73 1 51 1 99 1 106 0z"/></svg>