<svg xmlns="http://www.w3.org/2000/svg" width="1344" height="566"><path d="M0 283V0h1344v566H0V283m794 278c68-2 117-2 142-1 28 1 138 0 149-2 12-2 15-4 15-12 0-4-6-24-14-42-2-7-5-16-7-22-7-23-9-28-16-36-6-6-26-34-32-45-2-4-8-13-12-19-17-24-19-30-21-40 0-6 0-6 3-9 2-2 5-3 13-5 6-2 13-4 17-5s9-2 11-3c7 0 11-4 17-15 3-8 4-9 4-20 0-13 0-13-4-26-3-7-6-17-6-21-5-21-11-35-20-44-7-7-21-16-41-25-42-20-43-21-48-31-2-3-6-12-8-18-6-17-25-57-33-68-7-11-17-22-27-30s-18-12-32-15c-10-2-59-3-103-3-53 1-56 2-75 21-21 20-26 26-38 50-12 23-18 32-32 46-9 9-10 12-9 22 1 14 3 20 11 29 4 4 10 12 12 16 3 5 7 11 8 13s2 5 3 7c2 9 9 21 15 27 3 4 7 9 10 13 2 4 6 9 9 12 8 12 9 16 12 37 1 8 3 17 3 19 2 6 7 11 16 17 3 3 9 7 12 11 3 3 8 8 11 10 8 6 22 21 24 27 4 7 4 9-4 24-13 29-13 30-21 38-14 14-18 24-30 74-9 35-9 38-6 42 3 2 3 2 17 2 8 0 16 1 19 1 4 1 15 1 86-1z"/></svg>