<svg xmlns="http://www.w3.org/2000/svg" width="1344" height="566"><path d="M0 283V0h1344v566H0V283m356 278c22 0 42-1 44-1 3-1 6-1 10 0 5 1 6 1 10 0 4-3 20-3 30 0 7 1 12 1 42 0h258c15 0 37 0 49-1 21-1 23-1 25-3 1-1 2-4 2-5 0-2 1-7 2-11 3-11 3-14 0-22-4-11-10-15-62-41-65-33-69-36-69-41 0-2 2-7 4-12 5-12 10-27 11-36 1-4 4-14 7-21 3-8 6-19 8-25 4-14 9-43 9-52 0-15-3-49-6-72-1-9-3-20-3-24-2-19-12-65-17-78-6-15-12-28-20-38-13-20-32-39-49-48-12-7-34-17-44-20-11-3-27-4-36-2-11 2-29 6-34 8-14 5-19 6-26 8-4 0-11 3-15 5-34 16-57 58-73 131-4 18-9 53-11 77 0 5-1 14-1 20-4 26-4 49-3 67 1 9 2 20 2 23 1 4 2 11 3 17 0 7 1 12 2 13 1 4 6 35 6 39 0 7-3 11-14 16-7 4-12 6-18 7-12 2-23 6-36 15-15 9-28 17-36 21-14 6-45 26-53 34-4 4-6 8-8 19-1 3-2 9-3 14-3 8-4 13-2 16 0 1 2 2 5 3s9 1 37 0h73z"/></svg>