<svg xmlns="http://www.w3.org/2000/svg" width="1344" height="566"><path d="M0 283V0h1344v566H0V283m768 251c5-1 12-3 15-4s10-3 15-3c4 0 13-2 17-3 5-2 12-3 15-4 3 0 7-1 9-2 3-1 14-4 27-7 2-1 8-3 12-4 8-3 28-6 34-6 2 0 12 1 20 2l16 1 2-2c2-2 2-3 2-21-1-11-2-21-2-24-3-9-6-31-7-47-2-24-3-27-12-30-3-1-16-5-29-8-27-7-27-7-29-19 0-5-1-11-1-14 0-6 0-7-8-14-3-2-2-4 2-8 3-4 4-5 3-8 0-2-6-15-16-37-4-8-7-16-7-17s-2-6-4-11c-3-5-8-17-11-26-15-38-20-51-27-68-5-12-9-18-19-31-12-15-28-26-48-34-20-9-30-11-44-11-11 0-18 1-34 6-53 14-66 25-83 65-2 7-6 22-8 31-1 7 0 70 2 104 2 36 2 34 0 39-2 3-4 5-10 9-5 3-11 7-14 8-2 2-8 6-13 9-7 5-9 7-13 12-2 4-5 11-7 15-3 11-10 17-19 16-4-1-5-1-6 1-1 0-3 2-5 3-3 1-6 3-7 4-2 1-6 3-10 4-8 2-20 6-24 8-3 2-10 10-14 16-1 3-4 5-18 11-15 8-16 9-21 15-3 5-5 8-5 10s-1 5-3 8-3 6-3 10v8c-1 1 0 3 2 6l4 3h9c5 0 13 0 19-1 12-2 20-1 27 2l6 3 7-2c4-1 11-3 14-3 6 0 8 0 10 2 6 3 13 4 22 1 6-2 8-2 13-1 3 1 10 2 16 3 5 1 11 2 13 3 1 1 8 3 15 5 12 4 13 4 29 4h18c2-2 41 1 90 6 13 1 28 6 36 12 9 8 22 10 40 5z"/></svg>