<svg xmlns="http://www.w3.org/2000/svg" width="1344" height="566"><path d="M0 283V0h1344v566H0V283m559 276c6-1 18-1 32-1 12 1 45 1 72 2 62 0 66 0 72-9 3-7 4-11 3-14-1-1-4-5-7-9l-6-6-1-8c-1-5-1-10-1-13 1-2 0-6 0-9-1-3-1-10 0-24 1-19 1-20 3-23l3-2 14 1c15 2 35 2 47 1 4 0 17-2 29-3s27-3 34-4 15-2 17-3c8 0 26-4 30-6 3 0 8-2 11-3 8-1 25-9 33-15 3-3 9-8 14-13 14-14 17-22 12-35-7-16-22-37-37-53-12-13-14-14-37-26-11-6-14-8-18-13-8-10-18-18-27-22-3-1-9-4-15-7-5-3-11-7-13-8s-6-4-10-7c-7-4-10-5-17-3s-16 0-29-7c-6-3-13-7-16-8-2-2-7-4-9-6-12-5-31-23-35-32-3-4-3-7-3-13 0-19-5-42-11-56-6-13-14-23-25-34-10-10-17-14-32-19-17-7-48-11-64-10-10 1-10 1-33 10-5 2-12 5-15 6-15 6-27 16-36 30-6 10-20 35-29 54-6 12-9 16-12 20-5 4-17 11-26 13-2 1-10 4-16 7-8 4-14 5-19 6-8 1-10 2-22 10-18 10-33 17-57 25-25 9-30 12-41 29-10 15-11 17-14 45 0 6 1 13 7 29 5 13 7 16 20 32 8 10 16 18 35 35 16 14 19 17 22 23 2 4 2 5 2 31 0 14 0 30-1 36 0 5-1 15-2 20-1 12-5 28-9 41-2 5-3 10-3 11 0 3 3 7 5 7h90c49 0 92 0 96 1 8 1 32 0 45-1z"/></svg>