<svg xmlns="http://www.w3.org/2000/svg" width="1344" height="566"><path d="M0 283V0h1344v566H0V283m970 279c7-2 7-4 6-20v-14l5-11c6-11 11-18 14-20 2-1 5-2 8-3 9-2 9-4 1-11-13-14-27-31-31-39-2-5-4-10-4-11-2-9-9-16-22-23-4-2-11-6-14-9-10-6-14-8-27-9-6-1-12-2-14-3-2 0-7-1-12-2-15-2-24-4-26-6-3-2-4-7-4-14 0-10-5-18-13-22-7-4-24-1-33 6-6 4-6 7-6 26 1 16 1 17 4 23 2 3 5 7 7 9 1 1 5 4 7 5 4 4 10 13 16 25 9 20 20 37 31 48 8 9 24 36 24 42 0 0 1 3 3 6 1 3 3 8 4 12 2 9 3 12 6 13 1 0 14 1 28 2 36 1 38 1 42 0z"/></svg>