<svg xmlns="http://www.w3.org/2000/svg" width="1344" height="566"><path d="M0 283V0h1344v566H0V283m366 277c20-2 202-2 228-1 29 2 225 2 232 0 7-1 10-3 11-7 2-4 1-26 0-35-3-10-6-16-15-25-14-13-25-22-56-42-5-4-12-9-15-11s-8-5-11-7c-9-5-17-13-23-22-7-12-7-13-2-22 4-8 9-15 19-30 12-17 34-53 36-58 0-2 2-8 4-14 22-76 21-74 21-114 0-26 0-29-2-39-7-32-24-57-55-82-15-12-29-18-50-20-6-1-16-2-24-4-7-2-17-3-21-4-12 0-36 2-43 4-24 8-53 31-68 53-13 20-17 32-22 70-3 27-4 32-10 44-7 14-8 16-9 27-1 7-1 11 0 19 2 15 6 23 16 35 2 2 4 6 5 9 3 6 9 26 9 32l1 6-11 11c-6 5-16 15-23 22-18 18-34 28-52 32-5 2-14 5-19 7s-13 5-17 7c-27 10-39 14-49 18-18 6-30 13-38 21-6 6-8 9-12 18-11 22-25 68-28 91 0 6 2 11 5 11 1 1 3 1 4 1 4 1 68 0 84-1z"/></svg>