<svg xmlns="http://www.w3.org/2000/svg" width="1344" height="566"><path d="M0 283V0h1344v566H0V283m882 277c54-1 66-1 162 0 44 0 58 0 71-1 9-1 17-2 19-3 3-1 6-4 6-6 0-1-2-6-4-11-4-7-8-12-23-29-25-28-31-33-64-58-10-7-21-16-25-19-24-21-23-21-42-53-7-12-15-24-17-27-2-4-6-11-9-15-3-5-8-13-11-18-8-11-14-27-15-35 0-8 1-11 11-18 9-8 14-13 17-20 5-9 9-23 10-33 1-6 2-14 3-19 3-22 2-51-4-77-5-27-17-52-34-70-8-9-15-14-37-27-20-12-22-13-53-12-25 0-51 2-57 4-2 1-6 1-10 2-8 1-10 2-30 7-19 4-36 14-52 30-16 15-20 31-22 81-1 27 0 43 3 67 1 7 3 21 4 31 4 27 7 36 23 81 14 36 18 44 25 53 5 7 12 11 17 11 8 0 28 4 31 6s5 6 3 9c-1 2-2 2-9 4-7 3-48 23-57 29-13 8-26 19-31 26-6 9-11 23-13 40-1 5-2 10-4 13l-2 5 1 14c1 7 1 18 1 23 0 9 0 10 2 13 3 2 3 2 15 3 18 1 141 0 201-1z"/></svg>