<svg xmlns="http://www.w3.org/2000/svg" width="1344" height="566"><path d="M0 283V0h1344v566H0V283m477 136c11-1 17-3 31-9l8-3 19-1c11 0 27 0 36 1 48 3 69 4 95 4 26 1 35 1 45 4 5 1 21 1 27-1 2 0 9-2 17-2 13-2 28-4 34-6 36-9 39-10 56-18 8-3 15-5 20-6 12-2 12-2 14-5 3-5 1-37-4-52-2-5-3-11-3-15-1-4-2-9-3-12-2-3-3-6-3-7-1-1-4-3-7-5-10-6-11-8-12-16-1-7-1-8 1-10 4-5 4-6 3-13-1-4-3-12-5-18-2-7-5-18-7-24-3-11-8-34-10-41-1-9-7-25-12-37-8-16-20-32-33-40-16-10-38-18-52-18-15 0-42 6-56 13-18 10-30 26-36 49-4 12-5 26-7 87-1 25-2 30-5 32-1 1-6 1-11 1-13 0-19 3-32 14-13 12-16 15-22 31-4 9-7 13-13 16-3 1-7 4-10 7-8 7-14 10-22 14-4 1-10 4-13 6-10 6-15 7-27 8-10 0-12 1-14 2-3 3-14 26-22 46-1 3-3 7-4 10-2 5-3 9-1 11 2 1 13 3 21 3 2 1 6 1 7 1s6 0 12-1z"/></svg>