<svg xmlns="http://www.w3.org/2000/svg" width="1344" height="566"><path d="M0 283V0h1344v566H0V283m498 279c1-1 3-2 3-4 3-5 2-13-3-28 0-2-2-9-3-14-4-20-11-40-17-50-4-6-17-18-24-23-3-2-10-6-16-9-17-11-17-11-19-15-1-4-1-6 4-11 2-2 6-10 10-16 5-11 6-13 13-18 4-4 10-8 16-10 5-3 10-6 12-9l4-4v-28l1-27-6-12c-5-12-7-18-10-34-6-31-16-47-32-53-10-4-35-9-50-10-13 0-27 2-36 6-14 6-34 22-40 33-7 13-11 34-11 66-1 13-2 27-2 32-1 4-1 31-2 60l-1 52-3 10c-2 5-6 14-8 20-3 5-6 12-7 15 0 3-2 7-3 9 0 2-1 7-2 11 0 4-2 15-5 25-3 12-4 19-4 24 0 11-4 10 52 11h49c0 1 138 1 140 1m378-4c21 0 65-1 98 0h92c31 0 32 0 35-2 1-1 3-3 4-5 3-5 5-23 8-50 5-54 5-67 0-87-7-26-25-60-53-96-11-15-20-25-39-41l-12-11-2-8c-2-4-3-9-3-11-1-5-4-6-13-7-4-1-9-2-10-2-4-2-8-6-10-13-1-4-3-8-4-11-2-5-1-20 2-26 1-3 2-7 3-10 0-3 1-7 1-8 1-1 2-5 3-9 0-4 3-14 6-23 11-34 12-40 7-64-3-13-4-17-8-26-7-14-11-18-23-24-6-3-14-6-18-6-4-1-11-3-15-4-10-2-18-2-35 1-14 2-37 9-46 14-8 5-24 19-27 24-2 4-3 6-3 19-1 12-1 15-4 25-2 7-4 16-5 22-2 17-4 26-8 36-2 5-3 11-4 15 0 5 0 7 3 14 3 4 5 11 7 16 1 5 4 15 7 22 8 20 12 24 29 28 12 3 23 11 28 21 4 7 3 10-5 16-3 4-12 13-20 20-15 16-18 20-20 33-1 7-2 13-6 22-10 23-15 34-19 48-2 7-6 18-8 25s-5 18-7 25c-2 8-4 19-6 26-5 19-10 49-12 61 0 6 0 7 2 9l2 2 26 1h35c5 0 27 0 47-1z"/></svg>