<svg xmlns="http://www.w3.org/2000/svg" width="1344" height="566"><path d="M0 283V0h1344v566H0V283m358 278c67 0 34 0 213 1h203c52 0 53 0 57-2 3-2 5-2 8-2 13 2 39 3 98 3 73 0 70 1 72-7 2-6 1-30-3-50-4-26-8-51-8-58 0-9 2-12 11-21 8-8 27-23 32-25 3-1 8-2 32-5 19-3 33-4 71-5 42-1 43-1 57-8 10-5 13-8 13-13 0-3-1-5-3-7-3-3-6-4-36-5-25-1-27-1-36-8s-16-7-24-2c-13 8-18 9-47 8l-20-1-14-4c-7-2-17-6-22-9-21-11-21-12-31-47-9-31-10-32-17-43-3-6-8-13-9-15-11-15-10-21 4-25 4-1 9-3 11-4 11-6 31-37 34-53 1-6 1-14-2-40-3-41-5-47-14-57-8-9-14-12-30-16-16-5-35-5-46-2s-19 8-30 19c-8 8-12 14-15 22v31c-1 27-1 29-3 35-3 10-10 21-17 29-5 5-6 6-10 6-2 0-6-1-10-2-3-1-9-2-12-3-7 0-7 0-10 3s-4 6-6 11c-1 4-3 9-3 10-1 3-12 18-23 32-8 10-22 37-29 54-3 9-3 12-3 20 0 6 1 18 2 28 2 16 2 18 1 27-1 5-3 15-5 21-6 24-7 30-7 41 1 8 1 12 3 16 4 9 0 9-9 2-5-5-8-12-11-21-1-8-4-31-4-42 0-14-6-83-10-116-5-40-11-65-23-94-11-26-26-44-50-57-17-9-42-17-58-19-14-2-23 0-44 6-36 12-49 22-62 44-9 16-12 28-14 50-1 11-2 33-2 88 1 74 1 75 3 96 3 24 4 35 2 41-1 5-6 8-13 11-3 1-10 4-16 7-6 2-14 6-19 7s-11 3-15 4c-11 3-13 4-16 1-1-1-2-4-3-26-1-29-1-30-9-59-3-12-6-27-7-33-1-12-4-25-9-38l-2-7 2-12c0-7 2-14 2-16 1-2 5-7 11-13 8-8 11-11 16-20 13-23 16-31 15-43-1-4-2-13-3-18-1-6-2-14-3-19-2-18-7-29-17-39-15-14-44-23-69-20-14 1-23 5-31 12-7 7-14 23-16 40-1 10 1 28 4 39 1 4 2 9 3 13 0 9-1 12-12 22-7 7-9 10-12 17-2 5-6 11-8 13-3 3-7 9-9 13-5 9-9 16-23 33-9 13-26 41-36 59-4 9-11 29-14 41-5 20-5 43-1 76 3 19 3 51 1 73-1 19 0 22 10 24 22 4 21 4 86 3 34 0 87 0 118-1z"/></svg>