<svg xmlns="http://www.w3.org/2000/svg" width="1344" height="566"><path d="M0 283V0h1344v566H0V283m776 252c5-1 11-2 13-3 1 0 6-1 9-1 4-1 11-2 16-3 4-1 11-2 14-3 16-3 26-6 38-9 43-13 37-12 66-13 33 0 30 2 31-22 0-13 0-18-1-23-1-3-2-8-2-12-1-3-2-10-3-16 0-7-2-18-2-26-1-7-2-15-3-17-2-4-6-6-18-9-7-2-14-4-16-5-3 0-10-2-15-3-10-3-17-6-17-8v-12c-1-14-2-19-9-22-6-5-8-9-3-13 3-3 3-5 0-11-8-17-17-38-20-47 0-2-2-6-2-9-1-2-2-5-2-6s-1-5-3-9-5-14-8-21c-6-18-8-22-13-34-1-4-5-14-8-20-9-23-16-36-28-48-13-14-23-20-45-29-20-8-25-8-45-8-17 0-18 0-31 3-29 8-41 14-56 26-11 8-21 23-28 42-10 24-11 29-11 71 0 18 1 40 1 47 1 8 1 24 2 34 0 26 0 26-15 37-7 4-14 8-17 10-9 4-15 11-22 24-3 6-7 9-16 12-6 2-7 2-11 1-7-2-9-2-19 4-5 3-12 7-16 8-3 2-10 4-14 6-7 2-8 3-18 13-11 11-16 14-27 14-8 0-11 2-15 8-3 4-9 17-11 22 0 2-2 7-4 11-2 7-4 20-4 30 0 6 2 12 6 14s15 1 28-3c12-4 17-6 28-8 2 0 6 1 10 1 7 2 9 2 18 0 6-1 12-1 15-1 6 1 12 0 19-3 2-1 7-2 11-3 7-1 8-1 12 1 2 1 6 2 10 2 7 1 14 4 17 6 4 3 20 9 24 9 2 0 5 0 7 1 1 1 15 1 35 2h42c14 1 47 4 55 5 9 1 21 5 25 8 9 7 10 7 19 8 15 1 17 1 27 0z"/></svg>