<svg xmlns="http://www.w3.org/2000/svg" width="1344" height="566"><path d="M0 283V0h1344v566H0V283m380 278c13-1 42-1 126-1 32 0 68 0 80-1h258c98 1 184 1 190 1 31 1 119 0 136 0 18 0 32-1 48-3 9-1 18-4 21-7 2-3 0-6-7-12-16-12-23-28-39-80-3-11-6-17-10-20-4-2-16-5-23-5-6 0-10-2-13-6l-4-8c-7-10-34-69-38-83 0-2-4-10-7-19-5-14-17-48-29-85-4-15-11-30-16-37-3-4-7-6-11-6-5 0-8 2-11 8-3 7-5 7-10 2-2-2-7-10-11-18-11-20-16-26-24-26-4 0-6 1-11 5-2 2-4 3-5 3s-5-2-8-5c-7-7-11-8-17-5-5 2-8 7-9 14 0 3-1 6-1 7-1 0-4 1-6 1-6 1-8 3-11 7-5 11 0 51 11 82 3 8 6 18 8 21 1 4 2 11 3 16s2 11 3 14 9 15 17 27c19 29 25 35 48 62 18 21 29 35 40 55 8 14 16 34 16 41 0 8-4 8-23-2-39-20-40-20-53-46-5-11-11-22-14-25-4-6-20-20-35-32-11-8-16-11-25-14-6-2-7-2-29-2-12 1-31 2-43 3-10 1-26 1-34 1-25 0-26-2-19-44 5-28 7-32 14-39 3-2 6-6 6-8 3-7 4-24 2-36-3-27-22-84-34-107-2-3-6-12-10-19-17-39-35-62-60-81-16-12-32-20-53-25-24-7-28-7-46-7-9 1-18 1-21 2-2 1-10 2-18 4-35 6-60 15-78 28-16 11-33 33-45 57-15 32-19 55-11 71 6 13 6 18 6 49l-1 28 5 12c6 16 6 16 7 34s2 24 7 34c6 15 17 27 35 42 14 11 15 13 15 26-1 12-1 12-11 30-5 10-13 18-24 26-8 5-30 16-33 15-3-2-4-7-5-29-1-18-1-23-3-29-5-14-10-26-14-30-3-4-4-4-8-4s-6 1-9 3c-7 7-8 11-9 45 0 20-1 27-2 29-5 10-11-2-16-30-3-11-7-41-7-52-1-6-2-14-2-18-1-5-2-12-3-16 0-3-1-12-2-19-3-15-5-21-11-24-7-4-11-1-13 10-2 7-6 42-7 62 0 8-1 14-1 15-2 1-4-3-5-7-1-3-2-6-2-8-4-10-7-19-11-29-5-14-12-34-15-38-2-4-7-10-10-12-2 0-5-1-8-1-4 0-5 0-7 3-3 3-3 12 0 24 5 21 7 33 11 58 1 7 2 15 3 18 1 10 2 18 0 18-3 0-13-17-24-44-12-29-17-34-26-34-4 0-6 0-8 3l-3 3v10c1 5 1 11 2 14 1 2 4 11 7 20 2 10 6 21 8 26 5 14 9 28 9 30-1 1-2 1-2 1-1 0-9-7-17-16-17-16-23-20-31-20-7 0-10 3-10 10 0 4 1 7 6 17 6 11 11 19 23 34 4 4 11 12 15 18 5 7 12 15 15 18 7 7 16 21 25 35 7 9 13 16 18 19 4 3 7 3 17 4 14 1 55 0 71-1z"/></svg>