<svg xmlns="http://www.w3.org/2000/svg" width="1344" height="566"><path d="M0 283V0h1344v566H0V283m644 279h48c24 1 41 1 49 0 22-2 153-3 221-1 39 0 51-1 54-5 2-3 1-12-1-18s-2-8-1-17c1-18 0-24-5-67-2-16-5-43-6-58 0-12-4-37-6-49-3-13-8-23-14-28-3-2-11-6-18-9-7-4-20-9-27-12-8-4-16-8-19-11-4-2-8-5-10-6-4-1-16-8-20-11-2-2-8-6-14-10-13-8-13-9-15-22 0-8 0-8 3-13 2-3 3-7 3-8 0-5 3-9 14-18 8-6 11-10 12-12 5-16 2-66-5-86-8-22-23-39-49-52-13-6-25-8-41-8s-38 3-50 7c-16 5-33 19-40 34-5 11-7 20-7 34s1 23 5 38c4 14 5 27 3 32-3 6-5 7-15 12-8 3-13 7-20 13-9 7-11 9-16 18-7 12-14 28-17 37-1 4-4 12-7 17-4 7-6 13-8 25-2 9-5 20-7 25-4 12-13 27-18 31-5 2-5 3-10 16-5 15-12 28-16 32-5 5-12 15-17 25-6 11-14 36-18 49-6 25-7 54-2 66 2 5 8 7 22 8 7 1 18 1 24 2 6 0 20 1 31 0h30z"/></svg>