<svg xmlns="http://www.w3.org/2000/svg" width="1344" height="566"><path d="M0 283V0h1344v566H0V283m295 276h49c4 0 9 0 13-1 4 0 11 0 18 1 8 1 19 2 43 1h85c29 0 58 0 65-1 9-1 20-1 38 0 14 1 58 1 98 1 80 0 79 0 81-6 1-4-6-30-9-39-2-3-2-7-2-16 0-14-1-17-8-22-8-6-58-30-67-33-3 0-31-13-54-25-13-6-15-8-17-11-1-3-1-3 3-11 2-5 4-9 4-10 0-2 2-8 5-14 24-55 31-80 30-114-1-16-2-23-6-61-6-50-14-85-28-113-6-15-20-35-28-43-8-7-39-28-49-33-11-4-20-5-51-5-30 1-37 2-46 7-4 2-10 4-16 5-31 6-54 31-70 76-10 28-17 56-26 110-3 19-7 42-9 51-2 8-4 23-6 31-2 9-4 25-5 35-1 19-1 35 3 65 2 17 1 22-1 26-3 5-8 7-17 8-10 2-25 8-35 14-4 3-11 7-16 10-5 2-11 6-14 8-2 1-13 7-22 12-25 13-29 16-31 24-2 6-13 29-18 36-6 12-12 25-13 30 0 5 1 7 6 8 1 1 37 0 123-1z"/></svg>