<svg xmlns="http://www.w3.org/2000/svg" width="1344" height="566"><path d="M0 283V0h1344v566H0V283m993 276c28-1 28 0 28-22 0-7-1-15-2-20 0-5-2-13-3-19s-2-18-3-28c-1-9-2-21-3-27-1-12-1-18 2-23 1-4 1-4-1-8-5-9-11-14-26-19-24-9-50-21-56-27-2-2-6-7-8-10-2-4-5-9-7-12-1-2-2-5-2-7s-1-8-2-13c-5-16-6-26-7-51 0-13-1-33-2-43-4-75-6-89-16-116-4-14-9-22-18-34-13-17-28-29-49-40-18-9-25-11-36-13-13-1-23-1-44 3-8 1-19 3-24 4-6 0-14 2-18 4-8 2-23 9-31 14-5 4-5 3-16 27-4 8-10 19-13 25-10 17-18 32-20 40-1 4-3 15-4 25-1 11-3 20-4 23s-5 10-10 16c-10 14-12 20-12 26 1 3 2 8 3 12 2 3 3 8 3 10s1 6 2 10c0 4 1 10 1 15s1 10 2 15c1 4 2 11 3 20 1 13 1 14 4 18 2 3 5 6 11 9 4 2 9 5 11 6s5 3 7 4c4 2 4 4 0 4-2-1-10-2-17-2-13-1-14-1-27 1-7 2-16 3-20 3-17 0-28 3-38 11-9 7-13 8-25 9-11 0-11 0-27 12-8 6-12 8-27 15-8 3-16 10-22 18-2 4-4 6-11 9l-9 4-10-1c-21-2-45-1-50 3-1 1-3 3-3 4-2 4 1 6 8 10 9 4 11 10 7 20-1 2-3 7-4 11-3 8-6 16-8 20-1 2-2 4-2 5s-5 14-12 29c-3 6-4 10-4 12v4h10c14 1 42 1 50 0 4-1 17-1 34-1 24 0 29 0 37-2 5-1 12-3 14-3 2-1 7-2 10-3 3 0 7-1 9-2 5-2 17-1 26 2 8 3 29 7 46 9 7 1 24 1 44 1 84-1 98-1 112 1 20 3 60 4 128 4h70c12 1 21 1 71-1z"/></svg>