<svg xmlns="http://www.w3.org/2000/svg" width="1344" height="566"><path d="M0 283V0h1344v566H0V283m664 278c114 0 344-1 396 0 13 0 25 0 27-1 9-2 9-6 1-28l-4-14 2-11c2-8 2-11 1-13-1-3-10-8-25-15-20-9-89-44-94-47-6-4-10-10-10-17 0-4 1-18 5-48 6-52 2-152-10-206-5-29-9-40-20-63-9-20-14-28-27-42-19-18-32-26-63-37-15-5-24-7-36-7s-19 2-28 6c-7 4-8 4-19 5-23 2-32 6-49 23-9 9-15 17-23 32-6 13-8 18-12 34-8 32-9 43-9 118v62l-3 9c-8 18-9 20-13 24-3 2-9 6-14 9-9 5-14 8-16 12-2 5-2 18-1 30 1 6 2 16 2 22 0 12-1 13-14 16-5 1-13 3-16 4-15 5-37 14-52 21-6 2-16 6-22 8-23 9-23 10-21 20 1 8 2 7-4 31-1 4-5 16-9 27-8 24-10 29-8 33 1 1 3 2 4 3 6 1 26 2 44 1 11 0 74 0 140-1z"/></svg>