<svg xmlns="http://www.w3.org/2000/svg" width="1344" height="566"><path d="M0 283V0h1344v566H0V283m532 279c7-1 17-2 22-3 4-2 14-3 21-4s14-1 16-2 5-1 7 0c2 0 6 0 8-1 4-1 4-1 9 2 8 5 22 6 87 6h56c7-1 43 0 79 0 51 1 70 1 86-1 35-2 36-2 41-18 3-11 14-32 21-41s15-16 24-20c6-3 12-3 24-2 3 1 7 1 8 1 4-1 9-6 17-17s13-18 21-23c8-7 28-18 45-27 27-14 35-20 37-27s-1-34-5-50c-1-4-2-8-2-10 0-3-10-21-15-28-11-13-23-21-55-33-21-8-53-24-62-31-17-12-49-42-57-54-2-3-8-16-15-29-31-63-38-75-55-97-13-14-27-24-57-37l-10-4h-30l-12 4c-6 2-16 5-21 7-16 4-26 10-41 25-10 11-12 14-18 34-9 27-13 53-13 75 0 15 3 39 8 65 5 21 8 30 18 45 8 12 9 20 1 26-7 7-49 24-57 24-4 0-28 9-33 13-3 2-7 4-11 5-10 5-19 8-20 8 0 0-3 1-5 1-3 1-8 2-11 3-9 1-12 3-14 8-2 4-18 29-23 35-7 8-11 15-12 21-5 15-7 21-13 34-4 8-9 17-10 19-2 3-6 9-9 14-7 11-12 18-22 26-9 8-12 12-24 28-8 10-16 24-16 27 0 2 2 4 7 4 6 1 73 0 85-1z"/></svg>