<svg xmlns="http://www.w3.org/2000/svg" width="1344" height="566"><path d="M0 283V0h1344v566H0V283m576 277h56c89 2 205 2 252-1 24-1 56-1 114-1 44-1 81-1 82-1 0-1 14 0 30 0 41 2 51 0 51-7 0-4-13-21-22-30-11-11-26-20-47-31-10-5-20-9-21-9-1-1-7-3-13-6-26-12-64-27-72-29-7-2-14-5-31-17-9-7-25-21-26-24s0-11 3-25c0-4 3-19 6-33 6-29 12-56 14-62 3-5 4-6 15-12 7-4 10-7 16-13 7-7 9-10 14-20 9-20 11-25 11-38 0-11-1-12-3-16-2-3-5-6-9-9-3-1-5-4-6-5-2-3-1-22 3-47 2-16 2-25 2-41 0-34-4-52-13-64-6-6-12-9-24-12s-47-4-142-3c-77 0-93 1-103 4-4 1-6 2-10 8-6 8-8 15-13 38-5 21-7 34-8 64-1 31-2 34-8 47l-5 10-1 12c-1 22 7 46 21 70 8 13 21 52 26 73 5 24 0 52-9 59-3 2-5 3-23 3-28 0-27-1-51 27-14 17-25 27-31 31-3 2-10 5-16 8s-16 7-21 10l-18 9c-32 13-55 25-74 39-9 7-33 30-36 35-1 3-1 6 2 8 4 1 32 3 59 2 16 0 51 0 79-1z"/></svg>