<svg xmlns="http://www.w3.org/2000/svg" width="1344" height="566"><path d="M0 283V0h1344v566H0V283m869 277c25 0 71-1 102 0h59c10-3 8-13-10-70-2-7-4-14-5-16-1-7-12-40-16-48-7-15-13-20-27-26-16-7-20-8-34-12-13-4-21-6-51-12-7-2-15-4-18-5-22-9-54-26-68-38-9-7-9-9-9-24 0-12 0-14 2-20 5-15 9-23 18-33 2-2 4-5 5-8 2-13-12-70-25-99-10-23-29-54-39-65-7-8-18-15-28-19-8-2-9-2-33-3-19 0-26 0-32-2-11-2-19-1-29 4-16 8-26 20-38 46-12 24-19 46-23 68-2 11-2 13-1 27 1 21 8 46 14 57 1 2 5 7 9 10 12 9 30 25 35 31 6 6 10 12 13 22 6 18 3 29-16 54-21 26-30 32-61 44-10 4-14 6-33 18-6 4-16 10-20 13-12 7-28 19-34 25-5 7-7 13-10 33-4 22-5 38-3 42 2 3 3 3 9 5s285 3 397 1z"/></svg>