<svg xmlns="http://www.w3.org/2000/svg" width="1344" height="566"><path d="M0 283V0h1344v566H0V283m662 278c18-1 21-1 25-3 6-2 11-8 12-14 1-3 3-7 5-9 9-12 11-23 6-45-2-7-11-30-17-44-4-8-4-9-5-20 0-9-1-11-2-13-3-3-14-8-32-15-7-3-17-7-22-9-11-4-19-7-30-11s-25-11-27-14c-4-5-2-15 8-45 8-24 10-33 11-61 1-27 2-23-4-62-1-15-6-42-7-48-8-40-15-59-29-79-20-30-61-52-96-52-7 0-10 1-17 3-5 1-11 3-15 3-16 2-33 9-46 19-21 16-33 36-42 74-13 53-18 100-20 190-1 60-2 64-17 75-10 7-15 9-26 13-15 4-21 8-48 28-10 8-19 14-28 19-13 9-20 14-22 17-1 2-1 6-2 11 0 6-1 11-4 18-3 9-6 22-9 45-4 24-4 25 1 28 3 1 9 1 50 0 26 0 55-1 64-1 10-1 18-1 18 0 1 0 34 1 73 1h158c5 0 28 0 50 1h86z"/></svg>