<svg xmlns="http://www.w3.org/2000/svg" width="1344" height="566"><path d="M0 283V0h1344v566H0V283m511 277c18-2 45-3 98-3 30-1 62-1 71-2 13 0 19 0 26 1 8 2 42 4 52 3 3 0 47 0 136-2h74c15 0 36 1 47 1 19 0 21-1 22-2 1-2 1-3-2-5-7-6-37-26-54-36-2-1-8-4-13-6-11-5-22-12-27-18-2-2-6-7-8-10-14-15-15-19-8-36 13-30 19-42 35-72 15-29 22-38 33-44 20-12 26-17 35-30 11-18 16-32 16-47 0-9-1-12-7-18-8-7-8-9-4-31s11-59 13-73c2-16 1-31-2-44-3-10-14-32-21-43-4-5-8-10-17-17-12-10-16-13-23-15-2 0-5-2-8-2-8-3-37-5-107-5-60 0-66 1-74 2-12 3-19 9-28 22-21 31-33 72-37 122-2 23-4 28-13 30-10 2-17 9-20 18-4 15-1 45 8 62 3 6 12 17 19 22 3 2 6 6 7 8 4 9-2 61-10 82-5 14-13 27-18 30-4 2-18 3-33 1s-20-2-25 1c-3 2-10 8-16 14-28 29-34 35-54 43-16 8-28 14-34 18-3 2-16 9-30 16-54 28-74 41-87 54-9 10-7 11 15 12 21 1 61 0 73-1z"/></svg>