<svg xmlns="http://www.w3.org/2000/svg" width="1344" height="566"><path d="M0 283V0h1344v566H0V283m550 278c16 0 82 0 145-1 91 0 122 0 143 1 31 2 48 2 110 1 26-1 53-1 60-1 12 0 13 0 15-2 2-3 2-4 2-12 0-5 0-13-1-19-1-5-3-15-4-21 0-7-2-14-3-16-3-8-15-18-45-40-10-7-22-16-25-20-4-4-12-10-17-14-12-10-12-10-12-30 1-9 1-19 0-24 0-5-1-13-2-17-1-5-1-13-2-18-3-26-12-76-15-88-1-3-3-10-4-14-3-11-11-36-13-42-1-4-3-9-3-11-3-9-16-41-20-51-15-29-34-47-67-64-12-7-17-8-33-11-23-4-48-2-67 4-17 5-52 25-65 36-8 8-10 12-11 25-1 12-4 24-7 34-5 12-10 27-12 38-1 9-1 17 2 38 1 8 1 7-6 32-4 16-4 20 3 33 13 26 19 41 21 63 2 13 2 16 0 17-3 3-30 12-48 16-21 5-28 9-38 25-3 5-7 12-10 15-18 21-27 34-37 54-6 9-12 20-15 23-6 8-8 11-15 22-6 9-11 15-19 21-2 2-5 5-6 8l-3 4 3 2c4 4 33 6 66 5 13 0 38 0 55-1z"/></svg>