<svg xmlns="http://www.w3.org/2000/svg" width="1344" height="566"><path d="M0 283V0h1344v566H0V283m630 277c59-1 101-1 111-2 9-1 22-2 30-2 25-2 39-2 53-1 8 1 27 2 42 3 15 0 39 1 52 2 17 1 35 1 53 0 33-1 33-1 29-9-3-7-12-15-24-22-14-7-31-17-38-22-9-6-27-22-36-31-6-7-8-10-10-15-1-4-3-8-4-10-4-5-13-11-25-17-7-4-12-7-20-14l-10-10s-3-3-6-5c-7-6-9-10-11-21-3-12-2-20 4-52 4-25 3-50-4-104-2-12-3-22-3-33 0-16-1-21-9-56-6-25-8-31-12-40-7-16-24-37-35-42-3-2-10-5-15-7s-13-5-17-7c-8-3-24-6-41-7-11 0-17 1-25 6-2 1-8 3-13 4s-12 3-16 5c-5 2-11 4-13 5-4 1-7 3-16 12s-11 12-17 23c-10 17-11 24-11 53 0 12 0 25 1 31 1 9 1 10-1 16-2 8-2 25 0 33 1 3 5 10 8 15s8 12 9 16c3 6 3 7 3 17 0 7-1 14-1 17-1 3-3 8-3 12-2 9-6 20-8 23-1 0-6 2-10 3-15 3-19 6-29 26-9 17-25 32-37 34-2 0-6 1-9 2-3 0-7 2-10 3-2 2-8 3-12 4-5 1-12 3-16 3-3 1-10 2-13 2-10 0-22 2-27 5-12 5-23 15-29 23-3 3-6 8-8 11-4 6-9 15-14 26-8 20-9 39-2 69 2 11 3 15 5 17 6 7 1 7 70 8 35 0 70 1 79 0h111z"/></svg>