<svg xmlns="http://www.w3.org/2000/svg" width="1344" height="566"><path d="M0 283V0h1344v566H0V283m908 278c21-1 76-1 135 0 50 0 62 0 82-1 26-2 28-3 30-8 1-4-7-18-20-32-14-17-34-37-41-42-4-3-14-11-22-17s-17-13-21-15c-23-16-38-31-51-51-5-8-12-18-15-23-3-4-7-10-9-13-1-3-4-7-7-10-11-15-18-24-23-34-3-6-7-14-9-17-6-10-5-13 1-18 2-3 8-8 12-12 6-6 8-9 10-15 6-15 6-19 5-57-2-59-5-78-22-110-3-7-8-15-11-20-7-9-21-22-28-25-2-1-5-3-6-5-5-3-27-14-34-16-11-3-31-6-46-6-18 0-28 2-49 10-10 4-21 8-25 9-19 6-24 7-32 12-17 10-25 19-37 37-14 21-20 49-19 89 1 20 5 36 16 71 2 7 5 16 6 20 7 25 14 44 35 86 11 24 21 40 25 44 2 2 6 5 9 6 6 4 8 8 8 16-1 6-4 10-11 13-2 2-5 4-6 5-2 1-5 4-8 6-9 6-25 20-29 25-7 9-11 18-13 33-2 7-2 10-1 22 1 9 1 14 0 16-2 5-1 19 1 23 1 3 2 4 8 4 4 1 197 0 212 0z"/></svg>