<svg xmlns="http://www.w3.org/2000/svg" width="1344" height="566"><path d="M0 283V0h1344v566H0V283m500 277c1-3 3-9 3-13 0-3-1-5-5-21-18-62-21-66-70-99-7-5-11-10-10-14l5-5c3-3 5-6 7-11 7-15 8-17 14-23 4-5 7-7 17-12 7-3 12-6 14-9l4-4v-56l-5-10c-6-11-8-17-11-31-3-15-8-31-13-39-8-14-15-18-41-23-43-8-71-1-95 24-15 15-19 29-21 64-2 30-4 59-4 60-1 0-2 10-3 22-1 27-4 50-5 54-1 2-1 11-1 20v16l-3 10c-2 5-4 11-5 12-3 8-6 21-7 29-1 7-2 16-5 25-3 12-4 17-4 23 0 12-5 11 53 12 27 0 81 1 119 1 68 0 70-1 72-2m369-2c33-1 60-1 123 0 82 1 101 1 106-2 7-3 9-12 12-55 5-50 5-62 2-78-4-28-23-66-53-106-11-14-20-23-38-39-10-10-13-12-15-17-2-4-3-7-3-9 0-3-2-9-4-11-1-1-4-2-10-2-14-2-16-4-23-22-3-9-3-11-3-17 1-4 2-9 3-11 0-3 3-13 6-23 2-11 6-24 7-30 10-29 11-39 9-54-3-21-11-42-18-50-9-9-30-17-54-20-13-2-41 3-57 9-19 7-26 12-38 24-9 9-10 11-9 24 0 9 0 11-2 19-6 21-7 24-8 35-1 12-2 18-8 35-5 12-5 14 1 26 2 5 5 14 7 20 9 29 16 41 25 42 21 5 31 12 38 25 2 4 2 5 1 8-1 2-5 6-9 9-11 10-29 30-32 36-2 3-4 9-4 14-2 12-3 16-8 25-9 22-15 37-20 53-7 23-10 33-13 48-2 7-4 15-5 18-2 8-4 19-6 32-1 6-3 16-4 22-2 14-2 17 0 20 1 2 3 3 8 3 8 1 48 0 96-1z"/></svg>