<svg xmlns="http://www.w3.org/2000/svg" width="1344" height="566"><path d="M0 283V0h1344v566H0V283m181 47c5-5 6-6 17-7 6-1 9-2 10-3 2-2 11-30 12-39 1-3 1-12 1-21-1-9 0-18 0-22 3-21 4-32 3-61v-32c-1 0-1-7-2-14-1-14-2-18-8-25s-11-16-13-23c0-3-2-7-3-9-2-3-2-5-2-9 2-13 2-14 0-17-3-4-7-6-18-8-9-2-11-2-15-1-2 0-9 1-14 1-16 0-21 3-21 13 0 5-3 13-5 14-1 1-2 3-3 5-2 4-2 6-3 32v31c-1 5-3 9-8 14l-4 6c0 3 21 41 33 60 7 12 17 30 18 35 0 2 0 8-1 14-2 9-2 14-2 23 1 7 2 13 2 15 1 2 1 7 2 11 0 11 2 14 9 17 10 5 10 5 15 0z"/></svg>