<svg xmlns="http://www.w3.org/2000/svg" width="1344" height="566"><path d="M0 283V0h1344v566H0V283m885 277c5-3 5-4 4-47-1-34-1-40 1-48 1-8 1-11 0-15-1-3-1-8-1-11s-1-7-2-10c-1-2-3-7-3-11-1-7-5-22-10-38-4-13-15-45-17-52-1-2-3-8-3-12-1-4-3-10-4-14-2-3-4-9-5-12-6-20-22-46-38-63-8-8-11-10-20-14-12-6-16-10-19-19-3-10-3-14-1-29 2-18 3-27 0-38-2-10-6-19-14-27-11-12-23-18-39-19-10-1-17 0-25 4-4 2-8 4-9 4-5 0-16 5-22 10-5 4-20 21-25 29-4 7-6 16-6 28 0 14 1 21 7 30 3 5 6 16 6 22 0 2-1 6-3 9-4 6-7 16-9 25-2 5-5 13-10 23-5 9-9 18-11 22-3 8-7 16-12 23-3 3-6 8-7 10-8 12-20 25-39 45-21 20-34 31-47 38-5 3-6 4-18 4-10 0-16 0-22-1-8-2-9-2-15 0-4 1-11 3-15 5-11 3-17 6-22 10-3 2-3 3-3 7 0 3 1 8 3 13 3 7 4 9 7 11 5 3 13 5 25 6 29 2 25 3 46-3 27-7 36-8 42-8 6 1 9 3 15 10 2 3 6 8 9 11 8 10 33 25 43 27 3 0 6 1 19 6 2 1 5 3 7 5 5 3 8 4 11 1 3-2 5-1 7 5 0 3 5 7 17 20 22 22 23 23 44 24 7 0 25 0 39-1 27-1 45 0 59 3 12 3 11 3 49 3 27 0 34 0 36-1z"/></svg>