<svg xmlns="http://www.w3.org/2000/svg" width="1344" height="566"><path d="M0 283V0h1344v566H0V283m790 278c84-1 87-1 95-5 4-2 8-9 10-18 1-11 1-18-1-35-4-28-7-36-19-48-7-8-25-22-35-28-3-2-8-6-12-8-3-3-12-8-18-12-18-13-24-17-28-22-1-2-7-13-12-23l-9-18v-6c1-8 3-16 14-38 9-20 21-47 22-52 0-3 1-9 2-15 0-6 2-15 3-20 4-15 5-28 5-51-1-23-2-33-7-48-5-17-16-34-29-46-29-26-42-32-66-32-6 0-18-1-26-1-29-3-52 2-70 15-13 10-31 30-38 43-9 18-10 27-11 65l-1 30-3 10c-4 9-4 10-4 22 0 13 2 21 8 32 3 7 9 12 20 19 9 6 10 8 12 16 4 15 2 22-6 32-8 8-29 26-37 32-8 5-23 10-48 17-33 10-46 14-58 17-22 8-29 13-39 33-6 12-28 63-40 94-2 5-6 15-10 22-6 16-7 21-3 24 2 2 5 2 59 2 30 0 63 1 72 1h308z"/></svg>