<svg xmlns="http://www.w3.org/2000/svg" width="1344" height="566"><path d="M0 283V0h1344v566H0V283m777 253c5-1 11-2 12-3 1 0 7-2 13-3 6 0 13-2 17-3 4 0 11-2 17-3 15-3 21-5 30-7 14-5 33-11 42-12 3-1 15-2 28-2 24-1 24-1 26-3 4-4 4-30 0-52-1-6-2-16-3-22 0-6-1-15-2-18 0-4-1-9-1-11 0-7-3-13-8-15-2-1-9-3-16-4-6-2-14-4-17-5s-9-2-13-3c-15-4-18-7-16-14s1-18-2-23c-1-3-4-6-6-8-5-4-5-7-2-11l2-3-3-6c-11-21-21-47-25-64 0-3-2-7-2-9-1-1-2-4-3-6-3-10-12-34-20-56-6-13-10-26-11-28-5-13-25-38-39-48-13-9-44-21-61-23-18-2-48 3-72 13-27 11-44 28-56 55-5 13-8 22-10 33-2 10-2 13-1 56 1 26 1 55 2 66 2 28 2 28-19 41-6 4-13 8-15 9-7 2-16 14-20 23-2 6-4 8-15 13l-9 3-5-1c-6-2-6-2-18 5-3 1-9 4-14 6-23 9-22 8-28 14-14 15-15 16-21 18-4 2-9 3-11 3-11 0-18 10-24 34-4 13-4 12 1 16l7 7c4 7 8 8 29 9 17 1 20 1 27 4 4 2 6 2 16 1s13-1 16 1c3 1 4 1 7 0 2-1 5-2 6-2s4-1 6-2c6-2 17-4 20-2 1 1 7 2 12 3 8 1 11 2 15 4 8 4 23 10 27 10 1 0 4 0 7 1 2 0 20 1 41 2 21 0 38 0 39 1 1 0 9 0 19 1 39 2 51 5 67 17 2 1 5 2 9 2 3 0 7 0 9 1 6 1 8 1 19 0z"/></svg>