<svg xmlns="http://www.w3.org/2000/svg" width="1344" height="566"><path d="M0 283V0h1344v566H0V283m113 231c1-1 2-3 2-5 1-2 3-5 7-9 3-4 7-10 9-13 3-5 5-8 9-10 3-2 7-6 11-12 4-5 12-13 18-19l14-14c9-13 10-15 25-40 4-7 8-12 14-14 1-1 2-1 2-2s-2-3-5-6c-5-5-5-5-5-9 2-7 1-9-3-17-2-5-6-14-9-20-12-27-32-38-54-31-11 3-19 12-28 29-13 24-17 28-26 32-4 1-5 1-12 0-11-3-24-1-34 6-7 5-9 8-10 20-1 10-1 10 1 14 2 3 6 8 11 12 4 3 10 8 12 10 5 4 6 7 7 25 0 10 1 15 2 17 1 0 4 3 7 4 2 2 6 5 7 7 2 3 11 23 11 25 0 3 6 16 9 19 4 3 6 4 8 1z"/></svg>