<svg xmlns="http://www.w3.org/2000/svg" width="1344" height="566"><path d="M0 283V0h1344v566H0V283m732 278c77 0 111-1 160-4 34-1 214-3 237-1 8 0 24 1 37 1l22 1 3-2c2-3 2-3 1-9-2-9-4-15-14-32-12-24-22-38-33-49-22-22-41-34-66-41-4-1-13-4-19-6-7-2-20-6-29-9-9-2-18-5-20-6s-10-4-19-6c-23-6-32-9-42-14-12-6-13-8-13-20s3-39 6-45c2-6 6-10 13-13 13-5 27-20 35-37 8-15 12-38 9-50-2-6-5-9-15-16l-5-4v-6c0-4 1-11 1-17 1-7 2-16 3-22 1-7 2-15 2-20 1-8 1-55-1-70-2-16-4-29-6-33-1-2-5-7-8-11-8-10-10-11-31-14-14-1-25-2-126-2-102 0-112 1-119 2-10 2-15 5-19 10-5 6-8 13-13 28-9 27-14 46-16 67-1 15-3 95-2 104s2 14 12 55c5 16 12 41 16 54 9 27 11 32 10 36-1 2-4 4-25 13l-11 4-6 8c-3 5-7 10-8 11-2 4-13 23-25 40-15 23-23 31-44 45-6 4-14 10-18 14-11 9-25 20-44 32-21 15-36 26-37 28 0 1 0 3 1 4 3 2 22 3 116 2h150z"/></svg>