<svg xmlns="http://www.w3.org/2000/svg" width="1344" height="566"><path d="M0 283V0h1344v566H0V283m365 277c23-2 198-2 239-1 42 2 213 2 221 0 3-1 6-2 8-4s3-2 3-18c0-27-4-35-23-52-13-11-39-30-61-44-14-8-24-15-27-18-5-4-16-22-16-26s4-11 25-41c5-6 12-17 18-26 5-8 11-17 12-19 6-8 25-62 30-84 7-27 8-76 2-99-4-16-19-41-35-58-8-9-24-21-33-26-8-4-18-7-36-10-6-1-14-3-17-4-13-3-25-5-34-5-12 0-27 2-35 5-15 5-38 19-53 33-14 14-23 28-28 43-3 8-8 30-9 43-4 22-7 32-12 39-5 6-9 14-11 21-2 10-2 28 1 38 2 9 4 12 11 22 3 4 6 8 6 10 4 8 9 29 10 35v7l-5 5c-3 2-13 12-23 22-25 24-43 36-58 39-7 2-14 5-29 11-11 4-21 8-51 19-36 13-47 21-56 40-8 16-18 47-22 67-6 24-7 29-5 33 1 2 3 3 5 4 1 0 3 0 3 1 3 0 70-1 85-2z"/></svg>