<svg xmlns="http://www.w3.org/2000/svg" width="1344" height="566"><path d="M0 283V0h1344v566H0V283m706 277c33-1 122-1 198-1 128 0 137-1 139-2 1-2 1-2 0-4-3-2-24-17-30-20-2-1-6-3-10-3-8-2-19-8-26-13-2-2-9-6-14-9s-13-8-17-11c-15-10-22-14-33-20-14-7-24-16-37-29l-10-11-13-26c-7-15-14-29-15-32-2-7-5-13-8-17-5-7-20-24-23-27-6-5-8-13-4-20 1-2 2-7 3-12 1-9 3-13 16-27 12-12 17-20 23-33 1-4 4-10 5-12 7-11 7-38 2-76-3-26-7-39-15-52-8-15-31-36-42-41-7-3-31-9-42-10-14-2-27-1-39 3-14 4-28 10-39 14-25 12-40 39-54 97-11 46-16 64-34 116-10 32-12 41-8 55 0 3 1 8 1 10-1 2-6 10-12 19s-14 22-17 30c-4 7-11 20-16 30s-12 24-15 33c-4 9-10 22-14 30-9 21-10 22-11 45-1 22-1 24 4 26 5 1 141 1 207 0z"/></svg>