<svg xmlns="http://www.w3.org/2000/svg" width="1344" height="566"><path d="M0 283V0h1344v566H0V283m818 277c12-1 53-1 90-1h77c6 0 15 0 21 1 10 1 13 1 26-2 3 0 6-2 7-3 3-3 5-11 6-27 1-8 1-17 2-20 4-25 11-88 12-110 0-20 0-21-3-32-4-14-11-30-21-49-7-12-11-18-25-37-2-3-12-14-21-24-10-10-19-20-20-22-2-3-4-8-4-12-2-9-4-11-11-12-5 0-9-3-14-10-7-9-9-14-9-24 0-7 1-13 9-44 10-39 12-48 9-61 0-5-1-10-2-12-2-7-12-22-16-27-6-6-23-14-34-17-19-3-21-3-35 0-7 1-32 10-40 13-7 3-20 15-24 22-3 5-3 6-4 15 0 11-1 16-4 27-1 4-3 13-4 20-1 10-2 16-4 23-8 22-8 23-3 33 2 3 5 10 8 16 8 18 13 28 15 31 4 3 10 6 21 9 10 3 13 5 17 13 2 3 2 5 2 7-1 3-9 14-19 25-14 16-16 20-17 33-1 11-1 12-13 38-11 24-18 48-25 88-5 22-7 35-9 42 0 4-2 12-2 17-1 5-3 12-3 14-1 3-2 12-3 20-1 9-1 19-2 23 0 8 0 12 3 12 7 3 34 6 42 5 1 0 12 0 24-1m-312-1c3-2 8-13 10-19 0-2 1-5 2-6 1-3 5-22 5-27 0-6-4-29-5-32-1-1-3-7-4-12-5-16-8-24-14-37-6-11-7-13-15-22-5-5-14-12-19-16-10-8-14-12-15-17-1-4 0-10 3-15 2-2 5-8 8-14 4-9 5-11 11-16 5-4 10-7 16-9 13-6 15-10 13-22-1-3-2-15-2-25l-2-20-6-9c-7-11-9-14-14-27-14-37-27-46-66-46-19 0-26 1-37 7-18 8-31 20-37 32-5 11-6 19-7 41 0 10-1 25-1 32-1 9-2 29-2 64v51s2 3 4 5c4 4 4 6 1 13-5 13-10 28-10 35-1 8-8 39-11 48-1 2-2 8-3 12-1 5-2 9-2 11-2 4-1 11 1 22 1 6 2 11 2 12 0 2 1 4 2 5l2 3h95c87 0 95-1 97-2z"/></svg>