<svg xmlns="http://www.w3.org/2000/svg" width="1344" height="566"><path d="M0 283V0h1344v566H0V283m387 277c8-1 22-1 70-1h88c16 0 39 0 53-1 17-1 29-1 44 0 27 1 38 1 140 1 75-1 91-1 103 1 26 2 58 1 64-4 6-4 9-12 12-30 0-6 2-13 2-15 1-3 1-5-1-8 0-3-2-8-3-12-4-15-10-26-23-39-4-5-10-12-13-17s-8-11-12-15c-14-14-28-32-36-45-4-7-10-15-23-31-4-5-9-14-14-23l-7-14v-10c0-5 1-14 2-21 2-13 2-18 1-21-1-1-3-3-6-5-7-5-8-9-11-25-2-15-3-17-13-29-3-4-9-13-15-22-5-8-11-18-12-20-5-9-7-9-17-10s-13-2-21-8c-5-4-11-3-35 5-14 5-24 7-32 9-7 1-13 2-18 5-9 3-13 4-15 2 0-1-2-11-2-22-3-34-7-53-17-71-7-15-15-23-31-33-9-5-15-7-30-11-17-4-33-6-46-4-20 3-42 11-57 21-12 8-29 26-35 38-2 5-6 20-7 31-1 10-1 13 1 29l2 17-2 7c-1 3-2 10-3 13 0 9 2 18 11 34 5 10 6 11 17 21 7 6 13 13 14 15 2 3 5 9 7 16 3 9 3 12 3 18 0 15-6 27-21 42-20 19-27 26-35 31-5 4-14 10-19 15-7 6-11 9-19 13-6 3-14 8-19 12-5 3-14 9-20 12-14 8-16 10-17 21-1 4-1 10-2 14-2 9-1 50 1 62 1 7 1 18 1 33 1 14 1 22 2 24 3 5 6 5 32 6 14 0 26 1 27 1s6-1 12-2z"/></svg>