<svg xmlns="http://www.w3.org/2000/svg" width="1344" height="566"><path d="M0 283V0h1344v566H0V283m1077 278c5-1 9-5 15-13 11-17 15-24 22-32 22-26 25-31 26-42 0-7 0-8-2-10-3-3-3-3-8-2-8 2-12-1-16-10-3-9-8-10-18-5-7 4-13 4-16 1-2-1-5-3-8-4-4-2-4-2-12 0-8 1-8 1-11-1s-6-8-9-16c-1-4-5-13-9-20-3-8-7-17-8-21-15-39-27-62-36-70-5-5-17-12-49-28-18-9-28-14-30-16-6-7-7-17-4-44 4-34 0-66-11-88-4-9-15-22-23-28-9-7-32-21-42-26-12-6-18-8-42-10-20-1-22-1-28 0-10 3-21 8-36 16-12 6-13 7-24 19-7 6-14 14-16 17-4 7-9 25-9 33s-3 15-12 34l-7 16-1 25c0 14 0 25-1 26-2 4-9 7-30 14-23 8-35 13-49 20-11 6-26 17-29 22s-8 20-11 30-10 30-16 44c-2 5-6 15-9 22-13 31-29 53-40 56-5 1-10 5-12 11-1 2-2 5-2 6-2 2-7 1-14-1-7-4-9-4-12-1-4 3-4 8 0 17 2 4 6 13 8 19 4 13 4 14-4 12-10-3-11 2-2 8 12 8 14 9 32 10 10 1 22 2 28 2 7 1 16 1 22 0 9 0 13 0 19 1 4 1 9 2 11 2 3 0 7 1 9 1 5 2 22 3 94 2 50-1 61-1 65 0 5 2 34 2 38 0 2-1 7-1 10-1 19 0 119 1 136 2 14 1 21 0 30-1 16-1 23-1 30 1s8 2 29 2c27-1 46-1 53 0 8 1 36 0 41-1z"/></svg>