<svg xmlns="http://www.w3.org/2000/svg" width="1344" height="566"><path d="M0 283V0h1344v566H0V283m920 277 3-3c1-2 0-15-2-20 0-2-1-7-2-11-2-12-14-29-28-41-8-8-27-22-33-26-6-3-28-19-35-25-31-26-45-38-47-42-2-3-4-40-4-47 1-7 7-19 12-24 2-2 8-6 14-9 18-11 25-15 32-22 12-11 15-22 11-35-5-17-7-34-10-68-1-9-1-12-3-15-4-6-9-11-19-17s-17-12-27-26c-17-21-28-30-57-45-6-4-10-7-13-10-2-2-5-5-8-6-6-3-20-4-37-2s-28 6-41 13c-5 3-14 7-18 10-19 9-32 21-45 38-14 19-22 36-26 56-2 11-2 12-1 21 3 21 8 42 14 54 4 10 7 14 21 29 7 7 16 17 20 22s9 12 12 14c4 5 5 8 5 11-1 4-14 21-19 25-3 2-6 3-16 5-7 1-16 3-21 4-4 1-11 2-15 3-14 2-31 7-40 12-6 2-14 11-18 19-8 12-24 45-27 54-6 19-20 50-36 81-4 8-8 15-8 16 0 4 4 5 26 6 46 2 482 3 486 1z"/></svg>