<svg xmlns="http://www.w3.org/2000/svg" width="1344" height="566"><path d="M0 283V0h1344v566H0V283m870 277c21-3 25-7 27-29 1-9 1-13 0-26-3-20-6-36-10-43-5-11-23-26-45-39-34-21-55-35-58-39-6-8-20-37-21-42-1-6 4-26 14-47 2-5 5-11 5-14 1-2 4-10 7-17 6-15 7-18 8-36 1-8 2-22 3-31 6-52-4-98-27-124-10-12-32-27-49-35l-8-4-31-1h-39c-12 1-24 5-35 11-21 11-46 43-53 69-3 9-3 29-2 61l1 20-3 6c-3 9-4 24-2 33 1 8 8 22 13 28 5 5 10 8 19 12 4 2 8 4 9 5 3 2 6 13 6 20 0 4 0 5-4 11-6 7-31 32-39 38-3 2-8 5-12 7-7 4-36 14-54 19-11 3-45 14-55 18-9 3-13 6-18 12-5 5-16 27-24 46-2 6-7 17-9 25-3 7-9 20-13 30-3 10-9 24-12 31-6 13-7 19-5 22s7 3 61 3c31 0 64 1 75 1 32 1 372 0 380-1z"/></svg>