<svg xmlns="http://www.w3.org/2000/svg" width="1344" height="566"><path d="M0 283V0h1344v566H0V283m515 277c36-4 184-5 233-3 27 2 86 1 178-1 29-1 44-1 47 0 2 1 9 1 17 0h81c23 1 53 1 65 1l23 1 2-3c2-3 2-5-2-17-5-15-17-37-29-52-18-23-33-33-63-46-11-4-25-9-31-11s-16-5-23-8-19-7-27-9c-24-8-39-15-42-20-1-3-1-10 1-18 0-4 2-13 4-20 9-52 13-61 25-65 15-5 28-18 38-39 8-16 9-23 9-36 0-17-1-20-12-26-9-5-10-8-8-19 6-43 9-81 6-106-4-38-12-53-31-57-4-1-34-1-103-2-103-1-140 0-154 3-8 1-10 2-14 5-8 8-19 34-24 60-2 7-4 24-5 44-1 22-5 55-7 66-2 5-2 9-2 18 1 14 5 27 14 49 3 8 7 17 8 21 2 3 4 10 7 14 3 8 7 20 18 57 2 5 3 10 3 11-1 4-5 6-17 8-14 1-43 7-48 10s-8 6-25 32c-24 36-30 43-52 56-6 4-16 10-22 15-17 13-30 22-44 29-27 15-43 25-60 41-12 12-12 16 0 17 10 1 48 1 66 0z"/></svg>