<svg xmlns="http://www.w3.org/2000/svg" width="1344" height="566"><path d="M0 283V0h1344v566H0V283m291 279c10-1 38-1 64-1 31 0 47 0 48-1 2-1 4-1 9 0s7 1 9 0c5-2 16-2 29 0 11 1 16 1 46 0 37-1 37-1 98 0h120c47 1 61 1 83 0 15-1 28-3 29-3 1-1 2-2 2-3 1-1 2-8 3-14 2-11 2-13 1-18-2-7-3-10-8-15-7-6-8-7-58-32-56-28-64-32-66-36-1-3-1-4 3-14 6-15 11-30 11-35 0-2 2-8 4-14 14-40 18-57 20-81 1-15-2-50-7-81 0-5-1-15-2-21-1-17-9-52-16-73-3-11-14-32-22-44-11-17-31-36-49-46-11-8-32-17-42-20-9-2-12-2-25-2-14 0-16 0-31 4-9 2-19 5-21 6s-8 3-13 4c-14 3-16 4-23 8-12 6-23 16-35 32-5 6-15 27-20 40-15 40-23 82-29 156-1 10-2 23-3 30-2 24 0 50 8 94 1 6 3 16 4 22 2 14 2 18-2 22-4 5-17 11-27 13-15 2-22 5-41 18-7 4-19 10-26 14s-17 10-22 13c-4 2-12 7-17 10-13 7-23 15-25 20-1 3-3 8-3 13-1 5-3 12-5 16-3 11-3 14 0 17 5 3 21 3 47 2z"/></svg>