<svg xmlns="http://www.w3.org/2000/svg" width="1344" height="566"><path d="M0 283V0h1344v566H0V283m664 275h233c78 0 148 0 154-1h25c7 1 33 1 58 1 42 0 44 0 46-1 3-3 3-9 0-17-7-17-27-56-37-71-4-5-11-14-19-22-24-24-44-35-92-53-13-4-32-13-44-20-7-4-17-8-26-11-7-3-17-7-22-9-10-6-25-16-29-22l-3-4v-11c1-12 4-24 8-33 3-6 4-7 13-12 13-6 15-8 23-18 10-12 14-21 16-35 0-7-1-11-7-16-5-4-5-6-3-16 1-4 3-13 4-20 2-7 4-17 4-21 7-32 5-52-7-77-5-9-5-10-17-21-11-10-15-13-28-20-24-14-29-16-40-18-8-1-10-1-16 0-4 1-12 2-17 2-14 1-26 4-39 9-15 6-26 12-32 18s-13 16-17 24c-5 10-13 35-15 49 0 5-4 26-5 35-1 7-4 11-10 14-6 4-8 6-11 11-2 5-2 7-2 16 0 15 3 25 10 40 8 17 11 25 15 51 3 16 3 43 1 48l-8 8c-6 5-11 9-26 20-8 6-24 13-32 15-13 3-23 7-90 33-17 7-37 16-48 23-13 9-36 33-48 53-9 13-19 37-22 54-4 15-4 21-1 24 3 2 3 2 18 2 20-1 119-1 129 0 5 0 12 1 16 0 5 0 22 0 40-1z"/></svg>