<svg xmlns="http://www.w3.org/2000/svg" width="1344" height="566"><path d="M0 283V0h1344v566H0V283m630 277c25-1 62-1 82-2 47-1 135 0 207 1 31 1 97 1 148 1 86 0 92 0 94-1s3-3 3-4c0-5-3-15-7-23-4-9-8-14-22-29-5-5-11-12-13-14-3-5-9-10-40-35-8-7-21-19-29-26-7-7-19-17-26-21-6-5-18-14-25-20-23-17-25-18-46-19-12 0-13-1-19-4-11-5-16-12-20-27-2-9-2-15-1-32 3-17 4-21 18-35 16-16 27-32 31-50 3-11 3-18-1-29-4-10-4-15-1-31 1-7 1-17 1-28 0-17 0-19-2-26-5-17-16-33-30-44-8-6-24-15-31-19-9-4-23-8-34-10-13-2-41-2-52 0-23 4-50 20-63 36-6 9-13 21-15 29-3 9-7 37-9 57-1 7-1 20-2 27s-2 19-3 26c-3 19-3 31-2 46 2 14 7 36 11 49 4 9 12 26 20 37 11 16 11 17 8 21-2 3-30 18-52 28-13 5-31 15-44 24-20 14-52 41-58 50-2 2-6 6-9 10-9 10-16 20-21 27-2 3-4 7-6 9-2 4-14 39-14 43s3 8 7 8c5 1 22 1 67 0m-416-2c6-1 11-2 12-2 3-2 122-1 140 0 9 1 21 1 28 1 12 0 12-1 15-3 2-3 2-3 2-13 0-5 0-16-1-23-1-8-2-18-2-22-3-35-10-83-15-100s-17-42-26-54c-14-18-31-31-65-48-12-6-23-12-25-14-3-2-3-3-2-5 0-4 13-29 17-34 6-10 7-15 6-28-1-6-1-7 5-15 1-2 3-6 4-9 1-4 3-7 8-13 5-5 7-8 8-11 2-7 1-18-5-36-5-15-5-18-6-31 0-8-1-16 0-17 1-2-2-22-4-27-3-8-18-38-22-43-6-7 3-7-135-7C83 3 24 4 20 4 7 5 5 9 5 30c0 16-1 13 12 64 4 16 8 32 8 34 1 2 3 16 6 29 6 32 5 38-1 52-3 6-8 14-13 20-4 7-9 14-11 18-2 3-4 6-4 7-1 0-1 67-1 148 0 145 0 148 2 152 1 2 3 4 4 4 1 1 11 1 23 1 13-1 30-1 38 0 21 1 131 0 146-1z"/></svg>