<svg xmlns="http://www.w3.org/2000/svg" width="1344" height="566"><path d="M0 283V0h1344v566H0V283m767 199c9-2 23-6 37-9 6-1 16-4 22-5 9-3 20-6 31-8 6-2 38-2 50-1 7 1 8 1 10-1s2-3 2-14c0-6 0-13-1-16-3-11-5-37-6-56v-21c0-2-6-7-10-10-3-2-11-6-19-8-7-2-16-6-19-8-7-3-8-4-12-11-2-5-5-8-7-10-6-3-5-7 1-11 3-2 3-2 3-7-1-3-1-10-2-16-4-43-14-95-24-128-8-28-24-56-39-71-12-11-40-26-53-29-16-3-29-1-41 6-5 2-8 3-14 3-19 2-31 8-41 22-9 13-15 24-19 37 0 3-2 8-2 10-2 7-9 36-10 43-1 4-1 8-2 11-1 2-2 19-2 38-1 32-1 38 0 57 4 38 3 35 1 37s-3 2-11 1c-5-1-15-1-24-2-18 0-18 0-35 17-16 16-32 29-51 40-8 5-18 11-21 14-9 8-15 11-24 10-7 0-8 0-11 3-6 5-25 49-29 65 0 4-2 10-4 13-3 6-2 8 5 8 5 1 7 1 15-2 5-2 10-4 11-4s5-1 8-1c23-6 36-7 48-6 6 1 10 1 15 0 4-1 11-2 15-2 3-1 10-1 14-2 8-1 9-1 16 1 22 9 55 14 82 13h37c27 0 29 0 42 2 10 2 14 4 19 6 5 3 6 3 13 3 4-1 10 0 13 0 9 1 17 1 23-1z"/></svg>