<svg xmlns="http://www.w3.org/2000/svg" width="1344" height="566"><path d="M0 283V0h1344v566H0V283m610 278c9-1 34-1 55-1h97c62 1 62 1 65-4 2-3 2-20 0-32s-8-37-15-56c-10-30-11-31-14-38s-4-8-2-19l1-8-3-3c-4-3-28-15-38-19-4-2-11-5-18-8-6-3-16-8-23-10-15-7-24-12-27-16-3-3-3-14 0-30 4-34 6-45 8-51 3-11 2-42-1-68-2-10-3-25-4-31-2-19-7-47-10-57-2-9-14-35-16-40-5-7-22-25-29-31-12-9-24-16-44-23-7-3-10-3-18-4-10 0-10 0-34 8-4 2-9 3-12 3-16 0-26 5-39 17-19 20-31 45-41 86-6 21-11 47-17 88 0 6-2 15-2 20-1 4-2 17-3 27-1 18-1 26 2 49 3 18 1 26-7 31-5 4-11 6-23 9-10 1-27 7-46 16-8 4-16 7-17 7-1 1-8 4-15 8-15 7-18 10-20 20-4 14-7 23-12 33-3 6-8 19-11 30-3 10-7 22-9 26-1 4-4 13-6 20s-4 15-5 17c-1 3-3 9-3 13-2 9-1 12 7 16 7 3 3 3 117 3 45 1 93 1 106 2 34 1 106 1 126 0z"/></svg>