<svg xmlns="http://www.w3.org/2000/svg" width="1344" height="566"><path d="M0 283V0h1344v566H0V283m891 278c4-2 10-7 13-11 1-2 3-6 4-9 0-3 2-10 3-15 2-10 3-21 1-28-1-2-5-11-9-20-8-18-10-24-26-71-7-20-14-42-17-49-7-18-14-39-18-56-2-12-2-13-2-42 0-16 0-33 1-38 1-6 1-20 2-31 0-17 0-23-1-31-1-6-3-17-3-24-2-26-2-27-10-33-6-4-10-10-14-21-1-3-3-7-4-8-5-3-26 0-37 6-10 6-24 16-25 19-2 4-2 17-1 26 2 7 2 10 1 14-1 3-1 8-1 11 0 4 0 6-1 7s-5 1-10 2c-9 1-21 6-25 10l-2 3v16c1 9 2 21 3 28 4 27 8 35 22 54s17 22 23 36c8 14 13 30 19 53 7 30 5 43-5 32-2-2-4-5-5-7-2-4-10-11-20-17-5-3-11-8-14-10-4-4-8-5-12-6-3-1-6-2-7-2-2 0-9-3-18-5-8-3-16-6-18-6-12-5-20-6-32-7-18-1-18-1-35-12-7-5-20-17-22-20-3-6-1-13 8-31 7-15 16-40 16-49 1-4 2-11 3-16 2-12 1-29-2-52-1-10-3-25-3-35-3-30-9-48-20-65-9-13-26-25-43-31-11-3-33-7-44-7-12 0-28 3-42 8-14 6-22 10-33 18-9 6-16 13-21 22-12 21-15 37-13 71 1 11 1 12-2 21-3 10-4 16-1 24 3 13 15 32 27 45 4 4 8 9 9 11 3 4 6 17 7 27l1 10-3 6c-2 6-5 9-13 17-6 6-11 12-12 13-1 3-16 13-24 17l-4 4c-1 2-15 13-17 13 0 0-6 2-12 6-6 3-12 5-13 5-3 0-21 8-29 14-5 3-16 8-22 10-7 2-13 6-15 10-3 5-5 16-7 27 0 10-2 18-5 27-2 8-2 11-3 30 0 14-1 24-2 28-1 5-3 18-7 38 0 4 2 13 5 16 2 3 5 5 12 8 7 2 60 3 73 1 12-2 107-2 142-1 15 1 40 1 56 1h116c29 0 62 0 74-1 46-1 87 0 110 2 17 2 50 2 55 0z"/></svg>