<svg xmlns="http://www.w3.org/2000/svg" width="1344" height="566"><path d="M0 283V0h1344v566H0V283m835 278c32-1 55-1 69-3 17-1 29-1 85-1 62 1 66 1 68-1 1-1 2-2 2-3 0-3-6-12-13-19-9-8-42-33-54-40-4-3-8-6-9-7-1 0-7-4-14-7-19-10-23-12-31-19-9-8-13-14-13-21 0-9 18-49 41-91 5-10 12-22 14-27 6-11 12-17 20-22 10-5 20-16 29-31 5-7 10-16 11-20 4-9 6-21 5-28 0-6 0-6-10-14-3-3-3-3-3-8 1-3 4-16 7-29 6-25 7-32 11-58 4-33 2-50-11-83-7-18-11-22-30-24-11-1-166-2-195-1s-41 3-46 7c-3 2-11 15-14 23-8 19-13 40-19 81-4 28-4 27-7 30-2 2-4 3-7 3-10 0-17 5-21 15-2 4-2 8-3 17-1 25 8 51 23 67 8 9 9 13 8 27-4 39-7 54-16 73-7 15-13 23-19 26-4 2-5 2-22 1h-27c-9 1-9 1-14 5-2 2-9 12-15 21-18 26-25 34-37 43-29 19-54 34-72 44-28 15-56 36-74 55-8 8-9 11-8 13 1 3 4 4 19 5 19 1 151 1 172-1 12-1 20-1 36 0 11 1 44 1 72 1 28 1 51 1 52 1 0 1 3 1 6 0h54z"/></svg>