<svg xmlns="http://www.w3.org/2000/svg" width="1344" height="566"><path d="M0 283V0h1344v566H0V283m221 279c3-1 8-1 63-1 102 1 416 0 425-1 9 0 9 0 8-25l-1-20-3-5c-4-6-4-6-12-8-6-2-12-5-18-9-5-3-11-7-13-8-7-4-14-11-17-17-3-5-3-6-3-10 2-17 3-23 2-30-1-13-3-24-4-29 0-2-1-9-1-15-1-6-2-16-3-22-1-11-9-35-13-43-3-6-8-20-10-27-5-23-13-48-18-62-2-6-7-22-11-36-6-21-8-24-16-33-17-19-31-28-53-36-19-7-28-9-43-9-13 0-14 1-24 4-13 4-39 17-47 23-9 7-13 11-19 25-7 14-10 22-13 32-1 5-3 11-3 14-1 2-2 9-2 16s-1 12-2 13c-1 2-8 3-11 1-2-1-4-2-5-3-2-3-3-8-1-21 4-21 5-29 5-48 0-15 0-20-2-29-3-13-5-23-9-29-2-6-12-15-19-19-18-9-44-13-61-10-16 4-32 15-38 27-5 8-6 22-5 41 0 18 2 26 5 35 5 13 7 21 7 31 0 11-1 14-8 16-4 1-6 3-16 16-3 5-11 14-18 20-7 7-15 16-18 19-3 4-13 13-21 19-15 13-24 23-28 31-1 2-3 8-4 13-3 9-3 15-6 56-1 9-2 21-2 26-1 5-1 15-1 22 0 14 2 24 6 32 4 7 8 20 12 38 5 18 7 22 10 26 5 4 17 8 29 9s47 1 50 0m985-2c17-11 23-25 16-43-7-20-11-39-16-89-1-16-2-21-7-56-2-12-3-24-3-27-1-6-3-14-8-35-2-11-7-21-15-33-10-15-25-26-60-44-21-11-26-14-34-22-9-9-10-13-3-27 3-5 7-10 14-17 12-13 14-18 15-32 0-5 2-14 3-18 2-13 2-28-1-36-7-22-34-45-57-49-19-4-45 5-54 18-4 5-9 17-13 28-5 14-9 25-12 28-5 6-6 10-7 17 0 8 1 13 6 29 4 10 4 14 4 20 0 5 0 10-1 12-1 4-7 10-17 18-11 7-21 12-38 17-15 5-43 18-57 28s-26 24-35 43c-7 14-11 24-23 66-2 8-6 20-8 28-2 7-5 18-7 25-3 16-3 30 0 52 2 16 2 17 1 32-1 16-1 17 4 30 3 5 4 11 5 18 2 12 4 15 8 17s24 3 64 2c85-3 288-1 297 2 3 1 9 1 19 1 14-1 15-1 20-3z"/></svg>