<svg xmlns="http://www.w3.org/2000/svg" width="1344" height="566"><path d="M0 283V0h1344v566H0V283m374 278c25 0 52 0 61-1 11-1 21-1 41 0 15 1 33 1 42 0 28-1 104-1 128 1 13 0 40 1 59 1 44 0 41 1 41-14s-3-22-12-34c-12-15-13-16-19-16-2 0-7-1-10-2-10-2-69-34-74-39-2-2-3-4-3-5 0-4 4-11 12-26 4-6 10-16 13-24 7-13 7-13 24-28 13-11 13-13 16-66 0-9 1-21 2-26 2-12 2-135 0-143 0-3-1-10-2-15-2-22-10-44-20-54-9-10-24-17-59-31-21-9-29-12-44-16-19-5-27-6-42-6-14 1-17 2-42 9-22 8-26 9-46 20-14 7-18 9-24 16-4 4-10 10-12 13-14 23-30 83-34 132-1 7-2 19-3 25-3 29-4 41-7 64-1 14-3 30-3 36-1 6-2 14-2 19-1 5-2 13-3 19 0 7-1 15-1 20-1 5-2 13-2 20-1 6-1 18-2 27-1 19-2 21-13 31-5 4-15 14-23 22-19 17-24 21-37 31-16 11-21 15-23 20-3 6-5 13-4 15 1 6 13 7 53 6 16 0 50 0 74-1z"/></svg>