<svg xmlns="http://www.w3.org/2000/svg" width="1344" height="566"><path d="M0 283V0h1344v566H0V283m704 276c98-1 197-1 256 0 30 1 92 1 137 1 94 1 88 1 87-8 0-3-1-8-4-15-5-11-6-13-15-23-4-5-11-13-15-18-14-16-18-20-49-45-10-8-23-19-30-25-14-12-24-20-37-29-5-3-14-9-21-14-18-14-22-15-39-16-12-1-14-1-20-4-7-4-12-8-13-14-1-4 1-33 3-41 3-10 8-21 12-26 10-12 12-15 15-20 8-14 17-43 19-58 0-6 0-8-2-14-3-7-3-9-3-34-1-27-2-37-6-50-7-20-18-34-41-49-20-14-38-20-61-22-19-2-39 0-49 4-33 11-56 32-66 58-3 8-8 27-9 35-1 10-5 37-6 41s-1 23 0 31c1 3 2 11 2 18 2 15 3 18 10 38 3 9 7 22 9 30 3 9 7 20 9 26 5 19 8 35 5 41-2 4-3 5-53 28-26 12-44 22-67 39-22 16-33 27-48 44-26 30-32 40-41 68-2 4-3 10-4 12 0 4 0 5 3 8s3 4 13 4c6 0 22 1 35 0 14 0 52 0 84-1m-653-1c9-1 81 0 111 1 25 1 29 1 151-2 38-1 56-1 97 0 17 0 46 0 64 1h39c3 0 10 0 16-1 8-1 11-2 13-4 3-3 3-6-1-28-3-17-6-41-8-59-2-14-6-36-9-45-3-8-17-39-25-52-6-11-21-24-39-34-4-3-10-7-14-10-6-3-50-25-52-25s-60-30-68-35c-12-8-25-19-28-25-2-6-3-11-1-19 5-21 7-26 9-33 5-16 8-20 18-26 13-6 23-17 31-31 6-12 8-26 4-37-3-9-3-12 5-42 2-11 3-17 4-26 0-14-1-17-7-20-4-2-8-2-125-2-134 0-124-1-127 6-4 7-11 43-14 69-2 21 1 56 9 91 3 11 6 24 6 29 3 14 1 15-13 17-8 2-16 6-31 19-27 24-35 30-51 37-4 2-9 4-9 5-5 5-5 3-5 143 0 122 0 132 2 135 3 5 3 5 23 5 10-1 21-2 25-2z"/></svg>