<svg xmlns="http://www.w3.org/2000/svg" width="1344" height="566"><path d="M0 283V0h1344v566H0V283m620 278c44-1 95-1 121 0 47 0 73 0 90-1h137l128 1 3-3c2-2 2-3 2-6-2-8-8-26-16-45l-7-17v-12c0-10 0-12-2-15s-14-9-36-18c-35-15-64-29-70-33-4-4-5-8-5-21 1-11 3-24 8-42 6-22 8-48 6-87-1-30-4-49-9-84-11-63-22-96-41-124-8-12-17-21-34-34-18-14-21-15-58-15-13 0-26 0-29-1-2 0-14 0-24 1-25 1-30 2-43 11-16 11-34 31-43 50-8 18-23 63-25 79-1 4-2 9-2 11-1 2-2 9-2 16-1 7-2 16-3 20-1 5-2 14-3 21-2 14-1 26 2 43 3 14 3 33 0 47-3 15-4 30-5 56-1 29-1 29-18 37-8 4-12 5-20 6-14 3-21 5-32 10-9 4-68 35-82 43-11 6-12 8-13 21 0 5 0 12-1 16-1 6-7 23-14 40-9 22-8 27 3 28 13 2 28 3 43 2 10 0 52 0 94-1z"/></svg>