<svg xmlns="http://www.w3.org/2000/svg" width="1344" height="566"><path d="M0 283V0h1344v566H0V283m562 276c12-1 43-1 64 0h54c50-1 50-1 47-13-1-4-1-16-1-43 0-34 0-38 1-40l2-3 23 1c22 0 48-1 57-4 2 0 6-1 10-2 3 0 9-1 12-2 3 0 8-1 11-1 6 0 26-4 31-6 2 0 7-2 12-2 11-2 19-4 32-9 21-10 33-17 38-21 6-6 15-20 16-24 1-7-3-16-14-32-15-24-23-33-47-53-11-10-13-14-13-22 0-3-1-7-1-10-3-7-3-14-1-18 2-3 2-4 1-12-3-15-8-20-19-20-8 1-14 3-15 5-1 1-1 5-1 8 0 4-1 7-1 9-1 1-2 3-3 5-4 14-6 14-22 3l-6-5h-10c-9 0-10 0-14-3-6-4-16-7-25-7-6 0-8-1-16-4-16-7-44-22-46-25-1-2-2-6-4-15-4-36-9-57-18-76-7-13-13-21-23-29-15-13-31-19-63-26-17-3-18-3-32-3-20 1-27 3-54 18-17 10-26 17-33 28-6 9-24 45-29 56-7 17-11 25-16 29-6 6-25 19-38 25-5 3-16 10-25 16-16 11-28 17-38 21-12 4-24 9-29 11-10 6-27 28-31 42-3 10-3 39 0 54 2 12 1 11 15 32 10 16 12 20 12 32s1 17 4 21c2 3 6 4 9 2s4 0 8 8c4 6 4 9 7 29 2 11 2 29 0 40-2 14-3 27-2 31 1 1 2 3 3 4h38c20-1 48-1 64-1 16 1 42 1 58 2 17 0 31 0 31 1 1 0 16-1 30-2z"/></svg>