<svg xmlns="http://www.w3.org/2000/svg" width="1344" height="566"><path d="M0 283V0h1344v566H0V283m227 278c16-1 31-1 32-1 1 1 9 1 18 0 14 0 17-1 19-2 3-2 6-6 15-23 1-1 3-8 5-15 3-16 6-24 8-27s3-3 7-2c4 0 7 0 8-1 1 0 11-1 21-2 24-1 45-4 58-8 11-2 18-4 28-7 4 0 9-2 11-3 3 0 6-1 7-1s4-1 7-2c3-2 6-3 8-3 1 0 5-1 10-3 4-2 12-5 17-7 19-7 20-7 24-14 3-3 5-7 5-8 0-2-4-4-9-4-4 0-5-1-3-6 1-2 1-3 0-4-2-3-8-2-22 4-7 3-15 5-20 5-4 0-5 0-8-3-1-2-4-6-4-9-2-5-4-7-6-5-1 0-3 5-5 10-5 10-9 16-14 18s-24 3-42 3c-29 0-45-2-51-8-4-4-8-16-11-33-1-8-3-19-5-24-1-6-2-10-2-12 2-4 12-25 15-28 2-2 2-2 12-1 12 0 13 0 25-12l15-15c6-6 7-7 7-12 2-11 6-27 11-36 2-4 2-6 2-12-1-12-6-20-19-33-14-14-17-15-30-16-8 0-11 0-17 2-14 4-21 10-33 26-4 6-7 9-11 11-3 1-9 5-14 7-7 5-9 5-18 6-20 2-34 6-56 16-33 16-48 27-64 49-18 22-22 28-28 38-1 2-3 7-5 10-2 2-7 12-11 20-10 21-12 28-4 28 2 0 4-1 10-5 2-1 3-2 4-1 3 1 8 12 9 18 1 4 2 8 2 10 5 13 5 19 4 37-1 10-1 19-2 20-1 4-4 11-8 16-2 2-4 7-6 12-2 7-3 8-7 10-3 1-6 3-6 4-2 3 2 9 10 15 5 4 7 5 10 5 8 0 24 3 31 6 8 3 16 4 27 3 5 0 22 0 39-1z"/></svg>