<svg xmlns="http://www.w3.org/2000/svg" width="1344" height="566"><path d="M0 283V0h1344v566H0V283m289 276c8-1 13-1 16 0 8 2 61 2 237 2 156 0 167 0 178-1 16-3 15-2 14-26v-20l3-7c2-3 4-7 4-7 0-1-3-3-6-4-5-3-9-8-14-21-5-12-12-29-16-37-4-7-4-8-4-17 0-10 0-10-3-13-2-1-10-6-22-10-10-4-24-10-31-13-7-2-15-6-18-7-36-14-47-18-52-22-5-3-7-11-5-21 1-11 4-20 9-34 5-15 8-26 8-33 1-8-4-61-8-79-9-51-27-96-48-122-14-16-31-29-47-36-26-10-54-14-68-10-6 2-45 22-52 27-21 13-38 48-47 93-5 33-9 59-11 77-1 7-2 18-2 24-6 41-7 92-4 117 2 17 1 18-22 26-11 4-14 6-41 24-10 7-22 14-27 16-10 5-15 10-17 14-1 1-2 6-2 11-1 6-2 11-6 23-3 8-6 20-8 27s-4 15-4 18c-3 7-4 25-4 32 1 5 1 7 3 9l2 2h28c43 1 73 0 87-2z"/></svg>