<svg xmlns="http://www.w3.org/2000/svg" width="1344" height="566"><path d="M0 283V0h1344v566H0V283m68 276c19-1 35-2 35-3 2-1 87-2 93-1h29c28-1 33-2 37-8 2-4 2-7-1-19-1-4-3-12-4-17-3-9-5-29-7-61-1-19-3-32-9-58-6-23-8-30-16-46-4-10-7-14-12-19-7-8-25-23-40-33-13-9-15-11-15-14s7-20 12-28c10-16 10-18 11-29 0-9 1-10 5-16 2-4 5-8 5-10 2-7 5-12 8-17 5-6 8-11 9-18 1-6 0-12-6-24-5-11-11-25-13-33 0-4-1-15-2-26-1-22-1-23-14-49-10-20-12-22-20-24C148 4 10 2 5 4L1 5v550l3 3 2 3h14c8-1 30-1 48-2m1039 0c3-1 3-5 0-15-5-15-11-25-23-38-4-3-10-11-14-16-10-11-22-23-36-33-5-4-15-12-20-18-20-19-33-30-52-43-6-4-16-12-22-16-16-12-18-13-37-14-18-1-22-2-30-8-11-9-15-16-18-30-1-11-1-22 3-36s6-20 11-25c15-14 29-40 32-57 1-8 1-12-2-22-2-7-3-22-1-28 2-8 3-31 2-41-3-34-22-59-60-77-21-10-38-14-62-14-28 0-46 4-65 15-18 11-33 27-40 43-7 15-10 42-13 88-1 10-2 23-3 28 0 5-2 13-3 18 0 6-1 12-1 15 0 10 6 44 9 55 2 6 24 49 28 55 3 4 6 8 7 11 2 4 2 4 1 7-3 3-10 8-20 13-16 8-39 20-47 25-12 8-42 31-58 45-13 11-20 19-34 37-2 4-6 9-9 13-7 9-12 19-17 35s-6 21-4 25 6 4 73 3 351-1 430 1c39 1 92 0 95-1z"/></svg>