<svg xmlns="http://www.w3.org/2000/svg" width="1344" height="566"><path d="M0 283V0h1344v566H0V283m577 276c2-1 15-1 38 0 59 1 78 1 105-1 26-1 29-1 32-6 3-4 2-6-1-12-6-7-7-10-7-17-1-4-2-12-3-19-3-18-3-47-1-50 3-2 9-3 30-1 14 1 32 0 54-3 8-1 18-2 22-2 22-2 46-5 48-6 1-1 5-1 8-2 16-3 39-12 56-22 3-2 9-8 13-12 15-15 16-20 11-32-1-4-4-9-5-11s-4-7-6-10c-8-12-24-32-32-38-6-6-28-20-31-20-2 0-13-9-22-18-7-6-13-12-14-13-2 0-7-2-13-3-12-3-15-4-28-13-14-9-21-12-32-14-14-3-24-7-40-17-7-4-15-9-17-10-8-5-8-6-9-24-1-16-1-17-5-33-3-9-6-19-6-24-2-9-7-19-16-31-19-25-41-36-88-44-33-6-61 4-98 36-13 11-19 18-26 30-6 11-20 40-24 51-3 7-4 8-11 15-8 8-22 17-44 28-9 5-18 10-27 17-17 12-19 13-37 20-19 7-28 12-35 18-6 6-14 18-18 27-6 14-8 36-6 54 2 17 3 20 8 29 9 12 10 17 10 24-1 4-2 11-4 16-3 14-4 33-2 42 4 13 9 18 23 20 9 2 15 5 18 9 2 3 2 15 1 29-2 12-3 16-8 34-1 6-1 6 1 8s2 2 45 1c46-1 144 0 153 1 7 1 37 0 40-1z"/></svg>