<svg xmlns="http://www.w3.org/2000/svg" width="1344" height="566"><path d="M0 283V0h1344v566H0V283m837 274c2-2 2-3 1-11v-14c-1-10-4-21-11-36-4-9-9-20-11-26-4-10-4-11-5-25 0-16 2-34 8-56 6-27 7-38 5-63-3-21-3-25 2-37 2-6 4-15 6-21 2-10 2-13 2-21-2-31-9-64-14-71-2-2-6-6-10-8-10-7-11-9-12-31-1-20-1-22-3-35-1-7-2-10-4-14-6-8-13-12-25-14-5 0-17 3-24 7-5 2-11 8-12 13-2 5-2 48 0 53 1 3 1 5 0 8-2 8-3 9-6 10-5 1-12 5-14 8-3 4-10 17-12 23-1 3-3 8-5 12-1 5-4 14-7 20-5 17-8 23-17 32-4 4-9 10-10 12-2 3-5 6-7 7l-4 4c0 2 10 11 14 14 4 1 11 1 27-4 14-4 17-5 24-9 8-5 11-5 15-1 2 2 3 3 3 4 0 2-5 7-8 7-10 2-9 11 2 16 3 2 6 4 7 5 2 5 1 44-1 55-2 10-3 83-1 105 1 15 1 17 5 41 1 8 3 19 3 25 1 11 1 11 4 14 4 4 7 4 12 1 4-3 6-5 7-13 1-4 2-10 4-13 4-6 4-12 3-20-3-18-3-52 0-52 1 0 2 3 3 6 1 2 5 11 10 19 4 8 8 14 8 15l4 10c5 11 12 26 13 30 1 2 3 7 5 10 4 9 8 11 17 11 6 0 7 0 9-2z"/></svg>