<svg xmlns="http://www.w3.org/2000/svg" width="1344" height="566"><path d="M0 283V0h1344v566H0V283m532 276c6-1 48-2 66-2 3 0 37 0 74 1 83 1 76 1 281 0h200c26 1 38 1 39 0 9-5-11-34-37-53-13-10-42-24-55-28-5-2-13-4-17-6-11-5-30-12-35-14-2 0-8-3-13-4-5-2-14-6-20-8-27-9-42-17-69-38-4-3-7-8-7-13 0-3 7-39 12-61 1-5 3-13 4-17 5-28 8-32 21-38 12-6 24-19 33-38 6-12 8-23 8-35-1-12-2-14-11-23l-6-6v-6c0-4 1-11 1-16 10-57 10-96 1-115-6-13-17-26-26-30-10-4-28-5-128-5-72-1-98 0-114 2-12 2-13 3-19 13-12 23-19 51-23 90-2 29-6 53-9 64-3 6-3 24-2 36 1 10 7 30 11 38 4 7 8 20 28 77 6 18 8 32 6 49-1 12-2 15-7 19-3 2-4 3-22 3-26 1-24 0-57 35-8 8-17 17-21 20-3 3-12 8-20 11-7 3-23 11-34 16s-27 13-37 17c-23 10-28 12-42 21-14 8-27 19-37 29-10 13-10 14 8 16 14 1 64 1 75-1z"/></svg>