<svg xmlns="http://www.w3.org/2000/svg" width="1344" height="566"><path d="M0 283V0h1344v566H0V283m717 278c1 0 2-1 3-2 1-5-10-22-17-28-11-10-37-17-77-23-8-1-12-2-17-5-9-4-15-10-18-16s-2-7 9-17c9-9 16-19 19-30 2-3 5-11 7-16 2-6 6-17 9-25 3-12 5-16 8-20 2-3 5-7 5-9 3-11 4-12 14-14 9-2 11-4 11-11 0-9-3-31-6-45-1-7-3-21-5-30-5-27-8-43-10-53-7-27-20-49-42-72-19-20-28-25-58-30-6-1-17-3-24-5-38-7-44-7-72 2-23 7-38 16-55 33-25 25-33 46-36 97-1 10-2 24-3 31-2 17-2 42 0 57 1 11 1 14 0 28-2 24-2 29 2 39 2 5 5 11 7 14 4 8 6 15 4 21-4 10-26 37-34 41-4 2-21 6-53 13-34 7-38 8-54 13-28 10-40 16-49 25-10 12-14 26-9 31 4 3 8 5 16 6 4 0 80 1 200 1 107-1 206 0 220 0 28 1 103 0 105-1z"/></svg>