<svg xmlns="http://www.w3.org/2000/svg" width="1344" height="566"><path d="M0 283V0h1344v566H0V283m700 276h82c15 0 21-1 23-2 5-3 10-9 16-17 10-16 14-26 19-50 3-13 5-13 14-3 8 10 35 36 42 40 3 2 15 9 26 15l20 10 10 1c11 0 57-2 65-3 3 0 4 0 7 3 5 5 7 5 44 5 28 0 32 0 35-1 5-3 6-6 6-13 0-5-1-8-4-13-6-10-14-17-24-23-14-9-17-14-24-32-2-6-4-13-6-15-6-11-22-22-43-30-14-5-15-7-30-18-14-12-16-14-24-17-9-5-16-10-29-24-14-15-22-24-24-29 0-1-1-6-1-10 0-6-1-9-3-16-2-5-5-14-7-21-4-12-4-13-4-24 1-33 0-76-2-101-4-47-9-67-23-83-7-8-18-14-41-21-27-8-65-5-88 7-16 8-25 20-34 43-6 15-7 19-23 81-5 19-15 46-22 61-9 20-13 27-23 39-4 6-9 13-11 16-4 5-7 9-18 18-3 2-8 7-11 12-3 4-13 17-22 28-60 76-62 80-72 112-7 24-8 29-10 42-3 19-2 27 2 30 7 5 33 5 212 3z"/></svg>