<svg xmlns="http://www.w3.org/2000/svg" width="1344" height="566"><path d="M0 283V0h1344v566H0V283m582 277h128c137-1 125 0 119-8-5-6-21-17-35-24s-55-23-72-28c-11-3-22-8-38-17-14-8-22-13-33-23-10-8-11-10-17-21-6-12-11-19-21-30-12-12-12-13-8-24 2-5 4-15 6-22 4-16 5-18 12-29 9-13 11-18 12-30 1-13 4-23 6-26l5-10c4-8 9-11 19-13 6-1 7-1 13 1 8 3 9 2 7-9 0-5-2-13-3-18-4-19-4-23-3-25 2-2 2-2 16 11 5 4 10 8 11 8 3 0 7-4 8-8 2-8-4-35-16-70-2-6-6-19-8-27-6-18-14-40-21-52-12-21-36-45-51-51-9-4-28-7-49-9-19-2-26-2-73-2-58 1-57 1-69 7-6 4-21 19-27 28-9 14-16 32-19 49-3 10-4 36-2 48 1 9 6 37 9 54 1 6 2 12 2 14 0 7-10 24-21 37-13 15-17 22-21 34l-7 14c-2 3-5 8-6 11-3 6-16 19-23 24-3 2-11 6-18 8-6 2-18 6-26 9-18 5-23 8-27 13-9 11-17 28-19 38-2 14-3 34-2 56 0 30-2 58-6 76-3 14-6 27-5 29 2 5 13 7 48 8 32 1 318 0 325-1z"/></svg>