<svg xmlns="http://www.w3.org/2000/svg" width="1344" height="566"><path d="M0 283V0h1344v566H0V283m1172 275c5-3 3-12-7-40-6-18-13-29-27-46-20-23-24-26-34-34-10-6-44-25-51-27-3 0-35-16-46-22-5-3-14-7-20-10-6-2-12-5-13-5 0-1-1-3-1-4 0-4 6-23 10-29 2-4 4-9 5-12 1-5 2-9 9-23 14-27 15-28 16-38 0-4 1-13 1-19 0-17 2-28 7-43 4-9 4-16 1-26-2-5-4-14-6-22l-3-12 1-18c1-35 1-38-10-51-9-11-11-13-21-22-11-10-16-12-30-17-5-2-12-4-14-6-3-2-9-4-15-5-5-1-11-3-16-5-5-3-8-3-12-3h-26c-26 0-41 2-53 8s-48 45-54 57-8 23-9 46c0 18 0 20 2 32 2 8 4 18 6 24 7 30 13 66 14 85 0 16-1 22-6 39-3 8-4 9-10 13-11 7-14 9-21 15-17 14-41 27-67 34-5 1-13 4-19 7-6 2-15 6-21 9-52 21-80 34-96 46-17 12-35 32-46 50-12 20-24 52-26 65 0 5 0 6 2 7 2 2 5 2 84 3h322c159 0 227 0 229 1s14 1 35 1c32 0 33-1 36-3z"/></svg>