<svg xmlns="http://www.w3.org/2000/svg" width="1344" height="566"><path d="M0 283V0h1344v566H0V283m210 279c4-1 8-1 10-1s74 1 78 1h210c191-1 206-1 209-2 4-2 5-4 7-13 3-9 3-15-1-19-2-3-15-11-25-18-4-2-11-6-16-9-4-2-13-8-19-11-15-10-29-18-33-22-7-7-8-10-9-51-4-74-3-69-9-98-2-9-4-19-4-20 0-2-1-8-2-14s-2-14-3-18c-3-19-4-27-5-31-1-3-3-10-4-16-8-35-11-43-22-60-16-23-46-44-74-51-4-1-9-2-11-3-2 0-9-1-15-2-10 0-12 0-22 2-16 5-28 9-48 19-7 3-14 6-15 7-4 0-7-2-10-8-12-22-34-35-61-35s-49 14-57 36c-3 10-8 33-8 41 0 9 1 14 6 32 4 13 6 23 5 27-1 2-3 4-6 6-6 4-9 7-19 20-9 12-27 30-49 49-20 18-24 22-28 30-7 15-16 60-18 93-2 27 0 40 13 93 2 9 4 21 4 27s3 11 7 13c9 6 28 8 44 6m847-3c5-3 6-8 6-17 0-11 1-15 6-19 5-5 11-4 23 1 12 7 40 15 59 17 5 1 12 2 17 4 15 4 30 8 43 10 11 2 15 2 29 1 15 0 18-1 21-2 5-4 5-7-2-12-2-2-5-6-7-8-5-8-13-18-16-21-3-4-8-6-17-9-10-3-12-3-22 2-5 1-10 3-11 3-5 0-18-5-46-19-17-8-21-11-34-22-12-10-18-16-24-25-5-9-6-11-13-33-3-9-7-24-10-32s-7-20-9-27c-6-23-17-53-23-65-5-12-7-13-16-22-5-6-14-13-19-17-9-5-15-11-15-14 0-2 4-5 12-8 6-2 12-4 13-6 6-6 29-46 30-53 1-2 1-14 0-26-1-17-1-25-3-30-1-5-3-14-4-21-1-6-3-14-4-17-3-6-12-15-21-19-12-6-19-7-36-7-22 0-34 3-46 11s-23 21-27 33c-2 5-9 37-9 42 0 3-3 13-6 20-2 4-4 9-5 12-1 2-2 6-3 8s-3 8-4 13c-2 9-6 16-9 16-1 1-6 1-10 1-5 1-10 2-11 3-2 1-8 6-14 11-5 5-14 13-19 17-14 10-28 22-33 28-8 10-14 21-19 35s-5 20-6 70c0 27-1 55-2 62 0 11 0 16 2 28 1 11 2 23 3 38 0 15 1 24 2 26 0 2 1 5 0 7 0 7 5 16 12 21 3 2 6 5 8 6 4 2 13 4 31 5 10 1 19 1 19 2h237l2-2z"/></svg>