<svg xmlns="http://www.w3.org/2000/svg" width="1344" height="566"><path d="M0 283V0h1344v566H0V283m290 276h24c10 1 100 1 199 1 174 0 182 0 189-1 14-4 14-5 14-34 0-20 0-22-2-31-3-10-9-26-11-32-1-2-2-5-2-5 0-1-2-5-4-8-3-7-3-7-3-18l-1-11-3-3c-4-4-21-12-48-23-8-3-17-7-18-7-1-1-9-4-16-7-16-6-32-13-37-17-2-1-5-4-6-6-1-3-1-4 0-13 1-12 4-23 5-28 1-2 5-12 8-22 5-16 6-20 7-31 1-7 1-16 1-20-1-11-9-58-11-62 0-2-1-5-1-7-2-13-10-43-18-64-5-15-6-15-12-26-9-15-23-28-46-41-28-17-43-22-68-22-15 0-20 1-30 6-5 3-10 5-11 5-5 2-23 9-27 11-6 3-16 14-22 22-20 30-29 63-40 150-10 87-12 110-10 126 1 4 3 13 6 20 4 13 5 18 2 20-2 2-17 9-23 11-7 2-19 9-28 16-16 11-28 20-41 27-14 8-20 13-20 18-1 2-1 7-2 10-1 4-3 11-5 17-9 28-13 43-15 66 0 10 0 10 2 13l3 2h57c32-1 60-1 64-2z"/></svg>