<svg xmlns="http://www.w3.org/2000/svg" width="1344" height="566"><path d="M0 283V0h1344v566H0V283m644 277c86 0 130 0 168 1 32 0 51 0 82-2 8 0 16 0 23 1 6 1 51 1 126 2 105 0 117 0 120-1 3-2 7-7 7-9 0-1 2-4 4-7 6-9 8-13 8-17s-3-7-19-20c-22-17-31-24-41-33-7-6-14-13-17-15-8-7-14-12-16-16-1-2-1-6-1-34 1-64 0-94-5-170-4-53-13-105-26-135-8-22-25-44-44-58-21-16-63-32-83-32-3 0-10 2-16 4-10 3-14 3-25 4-15 1-22 3-31 7-15 8-26 17-40 34-19 24-29 47-34 76-1 6-2 20-2 39-2 93-2 100-1 115 0 9 1 26 2 38 0 25 0 26-8 31-8 4-18 7-33 8-7 0-14 1-16 2-1 0-14 3-27 6s-32 7-41 9c-9 1-22 4-29 5-16 4-21 6-27 15-5 8-13 21-21 32-6 9-12 20-16 32-2 4-4 10-5 12-1 3-3 7-4 10-3 8-12 23-18 30-11 12-23 25-24 28s-1 6 2 8c2 0 54 2 62 1 3 0 33 0 66-1z"/></svg>