<svg xmlns="http://www.w3.org/2000/svg" width="1344" height="566"><path d="M0 283V0h1344v566H0V283m734 184c4-1 9-2 12-1 5 0 9 0 16-2 14-4 17-5 25-6 4-1 11-3 15-4 3 0 9-2 12-2 3-1 6-2 7-2 0-1 4-2 7-2 4-1 10-3 14-4 13-3 24-4 43-3l16 1 3-3c2-2 2-3 2-12-1-6-2-14-2-17-3-12-4-26-5-50l-1-24-4-8c-5-9-7-11-16-14-11-5-13-6-19-13-5-5-6-6-11-7-12-3-18-6-15-8 0 0 6-1 12-1 13-1 16-1 15-6-1-2-1-9-2-15-1-16-5-35-9-50-1-2-3-8-4-12 0-4-3-13-5-20-2-6-4-14-5-16 0-3-2-8-2-10-1-3-3-10-5-16-1-6-3-13-4-17-4-11-13-29-19-37-5-8-17-20-25-25-3-2-8-5-10-7-9-5-26-14-32-16-10-2-24-2-39 2-7 2-17 4-23 6-13 2-22 6-27 11-9 7-19 23-24 38-4 8-8 27-8 37-1 4-2 10-2 14-1 4-2 9-2 13-1 4-2 10-3 15-1 9-2 72-1 100 1 21 2 20-10 22-10 2-15 2-26 0-6-1-12-1-18-1-11 1-15 2-22 10-2 2-11 8-19 14-7 5-16 11-18 13-2 1-7 4-9 6-9 5-20 12-27 18-10 8-15 11-26 12-5 0-11 1-12 2-3 1-3 1-3 6 1 5 0 10-8 27-6 11-9 21-14 35-2 6-5 14-7 17-2 4-2 5-1 7 2 2 15 1 27-3 5-2 13-4 18-4 4-1 11-2 14-2 4-1 15-2 24-3 10-1 21-2 24-2 3-1 8-1 12-1 5 0 8-1 10-2 3-2 4-2 11-1 3 1 9 2 11 2 6 2 19 5 34 7 5 1 11 2 15 2 3 0 9 1 13 2 18 4 23 4 29 1 8-4 38-4 59 0 4 1 9 2 11 3 2 0 6 2 9 4 5 4 6 4 12 3 3 0 8-1 12-1z"/></svg>