<svg xmlns="http://www.w3.org/2000/svg" width="1344" height="566"><path d="M0 283V0h1344v566H0V283m993 154c1-1 1-5 1-9v-9l6-10 7-10v-9c1-9 1-11 7-25 3-9 7-17 9-18 3-4 5-9 6-21 1-11 1-15-4-27-2-7-5-12-17-25-3-4-7-16-9-31-1-7-2-16-7-41-6-29-15-45-30-56l-8-5h-9c-10 0-29 4-34 8-4 3-9 10-12 15-5 10-7 35-3 43 1 2 3 6 3 10 0 8-1 9-11 12-7 2-11 5-13 8 0 2-2 6-4 11-1 4-3 8-3 9s-2 8-4 14c-2 7-4 16-5 19-2 11-3 14-8 17s-13 11-17 17c-2 4-2 5-2 16 0 10 0 11 3 18 6 11 14 18 22 18 1 0 4 1 5 3l4 3v9c0 5 0 10 1 11 0 0 3 2 6 3 2 1 5 3 6 3 3 3 12 6 33 12 12 2 26 6 32 8 5 1 13 3 18 4s12 3 16 4c8 2 13 2 15 1z"/></svg>