<svg xmlns="http://www.w3.org/2000/svg" width="1344" height="566"><path d="M0 283V0h1344v566H0V283m974 278h88c39 0 63-1 68-4 9-4 5-29-7-45-5-6-41-39-63-56-14-11-29-23-44-33-10-8-21-18-28-28-7-9-26-39-51-77-3-5-8-13-11-18-9-13-12-20-13-28 0-9 2-13 11-21 11-9 15-14 18-21 5-10 8-19 9-32 1-5 3-14 3-20 1-7 3-15 4-20 3-16 0-40-6-57-2-5-4-11-4-13-3-8-7-16-15-31-8-13-9-15-17-22-13-11-30-22-42-26-9-3-19-4-66-5-47 0-64 1-73 3-14 5-25 9-31 13-4 2-11 6-16 8-11 4-15 7-22 17-5 7-8 16-11 31-3 21-2 96 3 127 1 6 2 16 4 21 1 4 4 13 5 18 5 19 8 29 16 52 18 45 20 51 27 58 8 9 13 10 28 10 15 1 20 2 26 8 2 3 3 5 3 9 0 3-1 6-2 7-1 2-8 6-17 10-11 3-33 13-46 20-15 8-41 25-44 29-8 11-13 25-14 43-1 13 0 16 2 23 0 1-1 5-1 10-3 12-2 23 2 28 2 3 8 7 15 8 11 2 46 4 92 4h220z"/></svg>