<svg xmlns="http://www.w3.org/2000/svg" width="1344" height="566"><path d="M0 283V0h1344v566H0V283m305 276c15-1 14-1 35 0s191 1 210 0c10-1 24-1 44 0 18 1 55 1 91 1 69 0 64 1 64-9 0-8-4-32-8-46-6-23-11-34-22-57l-8-16 1-8c0-8-1-12-6-14-6-3-38-16-50-20-6-2-15-6-22-8-6-2-13-5-16-6-9-4-15-7-16-9-2-4 0-18 6-45 6-24 8-31 9-42 2-15 1-32-1-47-1-7-3-21-3-31-6-61-16-99-30-121-8-12-23-26-38-36-11-8-29-15-46-19-10-2-33-1-40 1-2 1-8 3-13 4-11 2-26 6-34 11-13 6-30 25-37 39-10 20-20 53-25 91-8 51-8 50-12 88-5 64-5 84 0 100 1 5 2 10 2 11 0 0-1 3-3 5-4 4-17 10-23 12-13 2-30 9-41 17-17 12-35 24-47 30-6 3-11 7-14 10-5 5-5 5-7 13 0 6-2 13-5 20-3 6-6 13-6 16-3 6-8 31-10 42-2 14-1 18 1 21 2 2 2 3 19 3 25 1 87 0 101-1z"/></svg>