<svg xmlns="http://www.w3.org/2000/svg" width="1344" height="566"><path d="M0 283V0h1344v566H0V283m759 250c8-1 15-1 19-3 4-1 12-1 17-2 8 0 16-1 39-6l10-2c1 0 5-1 10-3 40-13 56-16 83-14 9 1 16 1 17 0 4-1 4-4 5-21 0-15 0-18-2-25-1-5-3-16-4-25-1-8-2-19-3-22-1-4-1-10-1-13 0-7-1-13-4-15-1-1-5-3-9-4s-12-3-17-4c-5-2-14-4-19-5-9-2-13-4-16-7-2-1-2-3-2-10 0-12-2-20-7-24-5-5-6-7-5-12 0-4-1-7-8-23-4-10-8-19-8-20 0 0-1-3-2-5-2-6-6-17-6-20 0-1-1-5-2-8-2-3-5-13-8-22-3-8-9-25-14-37-5-11-9-23-11-27-8-22-22-41-37-53-9-7-22-13-37-18-20-7-22-7-41-7-17 0-19 0-24 2-4 1-11 3-17 5-13 3-33 12-43 20-15 11-27 30-35 53-6 19-6 24-5 75 1 24 2 52 3 61 1 22 1 28-3 32-3 4-19 15-28 19-2 2-7 5-10 7-5 4-6 6-10 14-5 11-7 12-15 17-8 4-11 4-16 0l-4-2-5 2c-3 2-7 4-9 6-2 1-11 5-19 8-17 6-20 8-27 16-2 3-6 7-8 9-6 3-15 6-19 5-9-1-15 4-21 17-2 5-4 8-4 9 0 0-2 5-4 11s-4 14-4 18c0 5-1 10-2 11-2 5-1 11 2 14 1 2 3 4 4 4 3 1 22-1 26-3 3-1 8-2 21-5 7-1 15-1 22 1 3 1 6 1 9 0 17-3 18-3 20-2s8 0 21-4c5-1 15-1 21 0 3 0 8 1 13 2s10 2 16 5c19 9 22 10 72 10 21 1 38 1 38 1 0 1 9 1 20 2 31 2 48 5 55 10 2 2 5 4 6 5 3 2 9 3 11 2h15z"/></svg>