<svg xmlns="http://www.w3.org/2000/svg" width="1344" height="566"><path d="M0 283V0h1344v566H0V283m833 271c3-1 6-2 7-2s4-1 7-3 7-3 8-3c0 0 3-2 5-4 3-2 6-5 9-6 6-2 7-5 7-19-1-7-1-13-2-15-1-1-4-4-6-5-4-2-5-4-8-10-1-4-4-10-4-13-3-10-8-35-8-42-2-13-5-21-15-32-3-3-7-8-9-12-7-10-7-10-32-24-20-10-21-13-21-36-1-16-2-20-8-26-5-4-9-4-20-4-13 1-22 6-25 13 0 2-2 7-3 11-1 9-1 10 1 20 3 14 6 21 13 27 12 10 14 13 14 16 0 2-1 6-2 10s-2 10-2 20c-1 21-4 30-11 41-5 8-11 10-21 5-3-1-7-2-11-3-5 0-6 0-9 2-4 4-8 13-8 17 0 7 2 8 20 10 16 3 25 5 35 11l9 4 6-2c4-2 6-3 12-3 15 0 20 3 23 15 4 12 2 18-7 23-6 3-10 8-15 15-4 8-2 8 34 7 31 0 32 0 37-3z"/></svg>