<svg xmlns="http://www.w3.org/2000/svg" width="1344" height="566"><path d="M0 283V0h1344v566H0V283m539 276c70 0 172 0 226 1 114 1 116 1 124-7 6-6 8-12 7-33 0-20-1-32-4-49-4-15-6-20-17-31-7-8-13-12-29-24-20-13-31-20-45-29-9-5-15-11-20-20-2-3-6-11-9-16-9-14-12-22-12-28 0-5 6-24 15-46 2-5 5-14 7-19 1-5 5-13 7-18l3-8 1-30c2-49 2-63-1-78-11-51-29-77-67-95-17-8-21-9-55-9-34 1-40 1-56 9-10 5-16 9-26 18-16 16-27 34-34 55-2 9-2 43 0 58 3 14 2 22 0 33-2 6-2 10-2 15 2 14 9 30 18 37 2 2 9 6 15 9 11 6 12 7 15 12 4 9 4 20 1 27-4 8-10 16-21 27-12 12-24 20-33 24-15 6-28 11-49 16-57 15-66 18-74 26-8 9-19 30-39 77-3 6-8 19-12 28s-9 20-10 24c-2 5-3 9-4 9-2 3-10 24-11 27-1 9 4 10 40 9 13 0 81 0 151-1z"/></svg>