<svg xmlns="http://www.w3.org/2000/svg" width="1344" height="566"><path d="M0 283V0h1344v566H0V283m304 276c9-1 17-1 18-1 2 1 73 2 158 2 50 0 70 0 75-1 6-1 10-1 22 0 9 1 40 1 86 1l71 1 3-3c3-3 3-8-1-30-4-28-12-54-23-78-10-19-9-18-9-28-1-4-1-9-2-10-2-4-13-9-46-20-23-9-43-17-47-21-6-5-6-2 7-55l6-20-1-27c0-22 0-31-2-44-1-9-3-28-5-41-6-65-15-92-35-116-12-14-35-29-56-37-3-1-12-3-19-4-13-2-23-2-34 1-3 0-12 2-20 3-32 5-48 15-66 42-9 14-12 20-18 40-8 25-12 43-19 83-3 19-4 29-8 64-1 6-3 18-4 26-3 25-4 34-4 57 0 21 0 24-1 26-3 4-14 9-31 15s-23 9-49 26c-10 8-24 16-30 19-12 7-18 11-20 15 0 1-1 5-2 9-1 5-3 11-9 22-7 14-8 19-11 31-4 15-7 36-5 44 1 9 1 9 25 10 32 1 88 0 106-1z"/></svg>