<svg xmlns="http://www.w3.org/2000/svg" width="1344" height="566"><path d="M0 283V0h1344v566H0V283m929 107c1-1 2-3 2-5 2-8 5-50 5-75v-14l-4-9c-2-7-5-11-9-16-4-4-8-10-10-15-4-8-5-10-6-19 0-5-1-11-2-13 0-3-2-11-2-18-1-16-3-25-7-33s-13-17-22-22c-7-4-7-4-15-4-20 2-28 4-33 12-8 11-9 18-9 38-1 17-1 18-7 21-5 2-10 8-11 12-1 2-3 8-3 12-1 5-3 12-5 15-1 3-3 8-4 11-2 10-6 16-17 26-5 4-9 9-10 11-3 6-4 21-3 31 1 11 3 15 6 17 1 0 5 1 9 2 6 1 26 7 33 10 4 1 12 3 25 6 5 0 12 2 16 3 3 0 10 2 15 3s12 3 15 4c14 4 25 6 28 6 2 0 7 1 11 2 9 2 12 2 14 1z"/></svg>