<svg xmlns="http://www.w3.org/2000/svg" width="1344" height="566"><path d="M0 283V0h1344v566H0V283m298 279c13-1 36-1 52-2 23-1 36-1 71 0 53 2 56 2 104 0 30-1 45-1 59 0 27 2 60 2 69 0 10-1 137-1 170 1 25 2 25 2 43 0 18 0 19-1 19-8 0-13-9-42-17-55-20-31-23-33-52-43-42-15-69-23-77-23-1 0-5-1-9-3-5-2-7-3-15-12-11-13-18-23-18-27 0-2 1-4 6-8 3-3 10-11 15-18 8-11 9-12 14-27 3-9 6-18 8-21 2-5 7-21 13-42 8-27 8-27 9-58 0-16 2-38 3-49 4-59-4-99-29-136-10-16-15-21-20-24l-4-3-120 1H472l-5 2c-9 5-21 25-30 49-6 15-7 19-9 40-3 33-4 36-8 52-6 26-7 47-3 70 1 8 1 13 0 24-1 35 0 41 14 65 4 5 7 12 9 15 5 10 11 28 11 32 0 5-16 29-29 43-7 8-24 14-58 23-11 2-25 5-31 7s-14 4-17 5c-3 0-12 3-20 6s-20 7-26 9c-17 5-31 12-39 20-6 6-15 19-17 26-3 7-2 11 0 29l2 15-2 8c-2 6-2 8-1 10s2 2 14 4c15 3 23 4 35 3h36z"/></svg>