<svg xmlns="http://www.w3.org/2000/svg" width="1344" height="566"><path d="M0 283V0h1344v566H0V283m539 241c30-2 56-6 69-12 22-10 40-12 82-13 46 0 141-2 164-3 16-1 27-2 38-4 9-2 20-4 26-5 7-1 12-2 16-4 6-4 9-4 33-1 25 3 29 3 35-1 8-4 13-12 20-31 3-7 5-12 5-13s-1-2-2-3c-2-2-3-2-13-2-13 0-13 0-11-7 2-8-2-10-15-8-13 3-28 9-43 16-7 4-10 4-14 0-2-1-3-3-3-7-3-17-1-13-29-78-27-63-41-82-77-107-6-4-20-14-30-23-56-43-54-42-67-48-28-14-39-19-49-25-12-7-21-11-32-16l-8-4-5-8c-7-11-18-22-28-27-12-7-30-8-40-4-9 3-19 13-26 27-7 13-9 20-10 29 0 9 1 17 7 28s8 14 13 16c7 3 16 15 16 23s-14 23-26 29c-3 2-6 4-8 9-3 3-12 13-21 22s-18 19-20 22-7 12-12 21c-7 14-9 19-14 34-4 12-11 24-16 31s-10 11-22 17c-7 5-15 11-16 13-2 3-5 20-5 27-1 18 0 33 1 38 1 4 3 7 6 11 3 3 6 7 8 9 4 7 19 21 24 24 6 3 21 7 30 8s48 1 69 0z"/></svg>