<svg xmlns="http://www.w3.org/2000/svg" width="1344" height="566"><path d="M0 283V0h1344v566H0V283m730 174c2 0 8-1 14-1 6-1 13-2 14-2 1-1 5-2 9-3 20-4 33-7 43-10 4-1 10-3 12-4 3 0 10-2 14-4 9-2 11-2 24-2h25c10 0 10 0 12-2s2-3 1-11c0-5-1-13-2-18-2-12-3-30-3-50-1-23-2-26-10-34-4-5-8-7-15-11-10-5-11-6-13-15 0-4-1-6-3-7s-2-2-1-3c1 0 2-1 3-1s2-1 3-2c2-2 2-3 1-12-2-20-4-33-9-49-1-4-3-13-5-20-1-6-3-14-5-19-5-17-10-36-12-46-1-6-6-20-11-29-7-18-16-29-27-39-13-10-38-24-50-28-8-2-23-2-35 1-5 1-14 3-20 4-15 3-21 5-29 10-7 5-10 9-17 20-12 19-16 33-21 80-1 5-2 13-2 16-4 18-5 57-2 105 0 17 0 17-8 19-3 0-9 1-13 2-7 2-10 2-16 1h-22c-15 0-17 0-25 7-4 5-16 13-22 17-1 1-6 4-11 7-4 4-12 9-18 13s-13 9-17 12c-11 9-15 10-26 11-12 0-13 1-15 11-1 6-4 14-13 31-1 4-6 16-10 27-5 14-6 20-5 21 1 2 12 1 20-2s22-6 35-8c4-1 18-1 30-1h23c1-1 4-1 7 0 5 1 5 1 9-2 4-2 4-2 13-2 6 1 12 2 15 3 2 1 8 2 12 3 5 1 9 1 9 1 2 1 24 4 36 5 8 0 15 0 20-1 11-2 28-2 37-1 5 1 13 1 18 2 4 1 13 2 18 3 8 2 11 3 14 6l4 3 8-1c5 0 9-1 10-1z"/></svg>