<svg xmlns="http://www.w3.org/2000/svg" width="1344" height="566"><path d="M0 283V0h1344v566H0V283m752 277c94-2 158-2 174-2 8 0 51 1 94 2h78l2-2c3-3 2-8-7-40-3-11-8-21-18-37-13-21-20-32-31-43-17-17-31-26-68-45-38-19-55-28-63-34-4-3-26-15-37-21-11-5-21-8-34-10-10-2-12-3-14-6-4-7-6-34-3-44 1-3 3-8 7-13 14-22 23-49 23-73 0-8-3-15-8-22-5-6-6-11-8-31-3-44-9-59-28-78-11-11-22-17-42-23-22-8-36-10-57-10-18 0-35 3-46 7-17 7-40 21-51 32-21 21-33 56-29 87 1 5 2 16 3 24 0 9 1 18 2 21 0 3 1 15 2 25 2 45 5 54 25 93 16 29 23 44 23 47 0 2-1 4-1 6-2 3-13 14-30 28-6 6-15 14-19 18-9 8-16 13-32 25-6 4-13 9-15 10-3 2-8 6-13 9-5 4-16 11-24 17-7 5-22 15-32 21-22 15-29 20-36 29-5 7-12 19-13 23-1 3 0 7 2 8 1 1 33 1 94 2 50 0 92 0 92 1 1 0 78 0 138-1m-700-2h110c60-1 90-1 94-2 6-1 67-1 105 0 15 1 25 1 29 0 3-1 9-1 13-2 11-1 11-2 11-10-1-4-2-13-4-20-1-6-3-16-4-22-14-67-24-98-37-122-7-10-22-29-32-37-7-6-20-15-31-21-8-5-39-19-51-24-16-5-43-18-51-23-17-9-17-13-1-17 13-2 20-6 26-13 3-5 6-12 18-47 6-20 10-30 12-34 6-8 7-11 7-22-1-5-1-13-2-17s-1-13-1-19c0-11 0-13 2-19 4-8 6-21 6-31 0-7-2-12-10-31-6-14-10-18-16-20-2-1-38-1-121-1C10 4 7 4 4 6L1 8v542l3 4c3 5 6 6 18 5 4 0 18 0 30-1z"/></svg>