<svg xmlns="http://www.w3.org/2000/svg" width="1344" height="566"><path d="M0 283V0h1344v566H0V283m480 136c4-1 12-3 18-5 15-5 18-6 32-7 17-1 31-1 46 0 30 3 64 4 88 4 26 1 39 2 47 4 5 1 18 1 26 0 4-1 15-3 24-4 17-2 22-3 43-9 26-7 32-8 43-14 10-4 13-5 20-6s10-1 12-3 2-3 2-15c-1-23-3-32-5-40-2-5-3-11-3-14 0-4-1-7-2-9s-3-5-4-8c-1-2-3-5-7-6-9-6-12-10-13-19-1-5-1-6 2-10 2-3 3-5 3-6-1-5-9-35-13-48-4-17-9-34-9-41-1-7-7-25-13-36-13-28-34-47-63-56-21-6-54-3-77 9-18 9-31 25-37 46-4 14-6 31-7 76-1 22-1 41-2 43-2 6-2 6-12 6-15 0-21 3-34 14-14 12-14 12-22 27-5 11-7 14-11 16-2 2-6 5-8 6-2 2-6 5-10 8-3 3-8 6-10 7-37 18-38 18-52 18-7 0-7 0-10 3-1 1-3 5-4 7-1 3-4 8-6 11-4 11-9 22-12 29-1 4-3 9-4 12l-2 5 2 2c1 1 5 2 11 2 5 1 10 1 11 1 6 1 14 1 22 0z"/></svg>