<svg xmlns="http://www.w3.org/2000/svg" width="1344" height="566"><path d="M0 283V0h1344v566H0V283m1052 212c2-2 4-12 4-20 0-7 2-11 13-25 5-8 11-17 13-22s6-10 8-13c4-5 6-10 7-19 2-15-3-34-16-55-6-10-6-11-8-33-1-6-2-15-3-18-1-4-1-10-1-14 2-12 1-71 0-77-6-32-12-40-33-47-3-1-8-2-10-3-6-2-26-4-34-4-8 1-17 4-21 8-1 1-4 5-5 9-2 4-6 9-8 13-11 13-16 21-20 29l-4 8v19c-1 11-1 19 0 21 1 1 4 5 7 8 6 5 7 8 5 12-1 2-14 6-23 7-6 1-6 1-9-2-2-1-3-4-3-5s-1-3-3-4c-2-2-3-2-8-2-4 0-8 0-10 1-3 2-14 15-17 20-2 5-3 16 0 24 3 11 2 17-2 29-4 9-5 11-9 14-8 6-15 13-17 17-2 3-2 5-2 17 0 8 0 16 2 24 2 12 2 12 7 18 7 7 16 12 27 15 2 1 6 3 9 6 5 4 14 8 19 8 3 0 5 1 21 5 5 2 14 4 20 6 14 3 24 6 44 12 9 3 20 7 24 8 5 1 11 3 15 4 13 4 18 4 21 1z"/></svg>