<svg xmlns="http://www.w3.org/2000/svg" width="1344" height="566"><path d="M0 283V0h1344v566H0V283m769 277c8-2 15-4 16-5 3-2 2-7-1-13-1-2-2-5-2-6 0-2-1-8-2-15s-2-16-2-23c0-6-1-13-2-16-4-17-4-24-4-59 1-65 0-69-2-83-4-25-10-42-18-52-2-4-9-11-15-18-14-14-14-15-14-25 1-8 4-18 13-44 3-11 4-19 3-51-1-31-1-34-5-50-3-16-12-31-23-42-18-17-57-35-87-40-10-2-15-2-35-2l-23 1-10 4c-15 6-19 8-28 14-15 10-26 25-36 45-6 13-8 20-10 38-6 40-7 41-14 44-3 1-4 3-6 6-2 4-2 5-1 20 0 13 0 17-1 21-5 13-20 36-30 44-4 3-10 7-16 9-14 6-38 20-57 33-3 3-9 6-11 8-20 14-52 44-66 63-9 12-25 35-27 40s-10 27-12 35c0 3-2 12-3 18-1 7-3 13-5 19-5 9-5 13-2 20 3 6 6 28 6 43v9l5 5 5 5 12 1h57c25-1 63-1 84-1 21-1 47-1 58-2 15 0 23 0 34 1 27 3 34 3 150 4h113l14-3z"/></svg>