<svg xmlns="http://www.w3.org/2000/svg" width="1344" height="566"><path d="M0 283V0h1344v566H0V283m598 277c26-1 42-1 62 0 15 1 43 1 62 1h70c32 0 80-1 124-3 21-1 29-1 100 0l54 1 2-2 3-3-1-5c-2-7-11-17-20-25-23-18-55-38-86-54-21-11-25-13-34-25-10-12-11-16-7-30 7-19 13-35 33-78 17-35 21-42 33-47 13-5 27-20 38-41 7-15 9-22 9-32 0-9-1-11-9-17-5-4-6-5-6-9 0-3 1-10 2-16 11-43 17-90 14-112-1-12-4-25-9-37-7-16-11-19-26-21-12-2-206-1-225 0-15 1-24 3-26 6-1 1-3 4-5 8-12 21-20 52-24 96-1 7-3 16-3 19-2 6-6 10-9 10-7 0-15 6-18 13-5 10-4 30 0 50 5 16 9 25 21 37 3 4 6 9 7 11s1 8 1 22c-1 32-6 55-15 74-6 13-10 18-15 22l-4 2h-26c-26 0-27 0-30 2s-6 6-22 28c-17 24-22 29-36 36-5 4-12 7-13 8-16 11-39 25-66 39-23 13-38 24-55 42-23 23-24 28-7 30 22 2 91 2 162 0z"/></svg>