<svg xmlns="http://www.w3.org/2000/svg" width="1344" height="566"><path d="M0 283V0h1344v566H0V283m1180 277c15-1 23-3 26-6 2-2 2-2 1-11-2-12-1-17 4-25 2-3 7-14 12-24 5-9 12-22 15-28 8-14 11-23 12-34 0-8 0-11-2-16-1-3-2-7-2-8s-7-14-10-17c-2-3-11-21-15-29-3-9-9-26-12-41-2-7-3-14-3-29-1-11-2-22-3-26 0-3-1-10-2-16 0-6-1-12-1-13-1-1-2-6-2-11-4-25-10-40-19-49-7-7-21-14-32-16-5 0-10-2-12-2-3-1-10-1-18-1-14-1-14 0-29 7-6 3-14 11-15 15 0 1-1 3-1 4-2 4-15 31-17 38-1 3-3 7-5 9-5 7-5 10-5 38 0 32 0 31-14 33-9 2-20 5-24 7-3 1-4 2-15 17-12 18-14 22-10 35 1 4 2 9 2 12 0 6-2 15-4 18-2 1-6 4-11 7-8 3-9 5-13 10-3 4-6 8-6 10-2 6-1 19 3 32l3 11 8 8c11 12 19 16 38 20 4 0 9 1 10 2 2 1 5 1 6 1 6 0 7 2 5 10-1 3-2 11-3 18v11l8 8c9 10 13 11 28 15 23 5 24 5 64 6 21 0 41 1 43 1s10 0 17-1z"/></svg>