<svg xmlns="http://www.w3.org/2000/svg" width="1344" height="566"><path d="M0 283V0h1344v566H0V283m615 277c4-1 36-1 90 0 63 0 86 0 89-1 7-2 8-4 7-26 0-15 0-21-2-30-5-26-14-58-20-71l-5-11 1-8c1-9 0-13-1-16-1-2-15-9-30-16-4-1-14-6-23-10s-20-8-25-10c-10-5-20-10-22-13-3-3-4-11-2-23 0-7 2-18 2-27 1-9 3-23 4-32 3-21 2-38-5-86-1-7-2-16-3-19-1-12-5-42-6-45-3-10-7-21-11-29-8-17-28-40-41-49-14-10-37-20-53-23-10-2-10-2-19-1-5 1-13 3-18 5s-13 4-19 4c-16 3-23 6-37 19-25 26-38 57-50 124-14 72-16 100-12 157 0 10 0 12-1 15-3 4-9 7-20 9-14 1-36 10-53 20-4 3-13 8-20 11-14 6-19 9-24 14-3 4-3 5-5 21-1 6-2 14-3 18-9 29-13 51-17 79-4 32-4 35-3 39s5 7 12 9c3 1 48 3 56 2h20c10-1 21-1 26-2 5 0 23 0 40 1 68 3 189 3 203 1z"/></svg>