<svg xmlns="http://www.w3.org/2000/svg" width="1344" height="566"><path d="M0 283V0h1344v566H0V283m948 121c2 0 5-10 7-21 1-4 2-10 2-13 1-2 1-9 2-14s2-13 3-16c5-29 7-46 3-57-1-5-3-7-9-14-8-9-10-11-11-18-1-2-2-7-3-11-5-11-7-20-7-28-1-12-5-32-7-38-3-8-6-13-14-20-7-7-7-7-18-9-13-3-15-3-30 4-9 4-13 9-17 17s-5 18-5 39c-1 9-1 9-5 13-6 8-11 15-12 18-1 2-1 8-1 15 0 13-1 16-6 20-2 2-5 6-8 12-4 8-6 11-11 15-9 8-11 11-12 22-1 7-1 10 1 19 2 14 4 18 14 20 3 1 9 2 14 4 4 1 9 2 11 2 3 0 5 1 5 6 1 4 4 7 8 9 6 2 32 10 38 11 2 0 11 2 18 4 17 4 41 9 47 10 1 0 3 0 3-1z"/></svg>