<svg xmlns="http://www.w3.org/2000/svg" width="1344" height="566"><path d="M0 283V0h1344v566H0V283m816 277c10-1 47-2 134-2 97 0 122 0 124-1 5-3 8-14 11-41 0-9 2-27 4-39 2-16 2-28 2-43 0-20 0-22-2-30-6-24-30-70-50-96-6-7-30-32-39-39-6-5-10-13-13-22-1-4-3-8-4-9s-5-3-9-3c-4-1-9-3-10-4-6-4-13-23-13-33 0-3 1-10 3-16 1-5 3-15 5-21 3-13 5-20 9-31 10-33 10-47-4-76-7-16-10-20-21-26-13-7-20-9-31-11-18-2-28-1-48 5-29 9-36 12-49 24-6 6-7 8-9 13-2 6-2 8-1 15 0 8-1 13-6 33-1 3-2 9-3 15 0 13-2 22-7 32-2 6-3 12-4 16 0 5 0 6 3 12 4 7 8 19 9 26 1 3 4 10 7 16 5 10 6 12 10 15 3 1 8 4 12 5 13 4 16 5 20 9 5 4 11 12 11 15 0 1-1 3-3 5-2 1-5 5-7 8s-8 10-13 15c-14 14-20 26-20 38 0 7 0 8-6 22-6 13-14 34-19 48-7 17-17 59-20 78-1 5-1 11-2 15-1 7-2 25-1 40 0 8 0 10 2 14s10 9 15 10c2 1 19 0 33-1m-314-1c1-1 2-4 2-6 1-6-1-25-4-38-2-6-4-15-4-20-4-17-11-36-19-46-4-5-16-17-29-26-5-3-11-8-13-10-4-3-4-4-4-9s1-7 4-12c2-4 4-10 5-12 3-8 6-14 8-15 1-1 4-3 6-5 3-2 7-5 10-6 19-8 22-10 21-17v-52c0-3-1-6-6-15-3-6-7-14-9-19-9-32-14-43-23-52-5-5-8-6-19-9-26-8-49-8-71 0-18 6-37 22-44 38-5 12-6 23-8 67 0 10-1 28-1 39-1 12-2 31-3 44 0 12-1 27-1 34-1 10-1 13 1 16 2 6 1 10-4 18-2 4-5 11-7 16-2 4-4 11-5 14-1 2-2 8-3 13 0 7-2 13-6 27-3 10-6 20-7 23 0 6 2 15 6 19l2 2h16c8-1 25-1 37 0h96c70 0 74 0 76-1z"/></svg>