<svg xmlns="http://www.w3.org/2000/svg" width="1344" height="566"><path d="M0 283V0h1344v566H0V283m910 279c45 0 62-1 67-4 2 0 4-3 5-5 1-3 1-4 0-14-2-16-10-38-19-52-6-9-21-22-33-29-8-5-27-15-28-15 0 0-36-17-44-21-23-12-59-39-65-50-2-4-4-13-6-30-2-14-2-27 0-34 1-6 9-18 18-28 8-9 8-12 8-33-2-37-4-51-9-64-4-10-32-66-36-72-2-3-8-10-12-14-16-15-29-19-59-19-13 0-17 0-27-3-11-2-13-2-19-1-9 1-21 7-30 14-8 7-16 15-23 27-8 13-27 53-32 67-3 10-3 11-3 19 2 19 5 35 13 53 8 22 15 31 38 53 24 23 32 33 31 40-1 1-3 3-6 5l-15 15c-13 14-21 22-28 25-3 1-11 4-18 6-14 3-19 5-34 11-5 2-17 6-26 9-29 10-39 17-45 31-5 9-11 26-14 39-3 11-12 53-13 61 0 5 0 6 2 8 2 1 5 3 7 3 8 2 84 3 250 2h205z"/></svg>