<svg xmlns="http://www.w3.org/2000/svg" width="1344" height="566"><path d="M0 283V0h1344v566H0V283m601 278c12-1 25-1 29-1h83c72 0 76 0 78-1 6-4 6-8 6-27 0-14 0-19-2-30-4-17-7-30-11-44-2-6-4-13-5-16s-3-9-5-14l-4-8 1-11c0-8 0-10-1-13-1-1-7-4-14-8-19-9-44-20-50-23-11-4-27-11-32-14-2-1-5-4-6-5-1-3-1-14 0-23 2-11 7-70 7-80 0-9-2-34-5-58-1-5-2-16-3-25-4-32-11-60-19-75-12-22-27-39-39-47-13-10-32-19-49-23-12-4-19-4-32 1-16 6-18 6-28 7-17 1-26 7-41 23-16 18-28 41-36 72-5 17-18 86-21 104 0 6-1 15-2 19-2 13-2 63-1 77s1 16-5 21c-3 3-7 4-17 6-10 1-30 9-44 17-7 3-19 9-27 13-10 5-15 8-20 12-3 3-6 6-6 7-1 1-2 8-3 15 0 8-2 15-4 21-2 5-4 12-5 17-6 22-20 94-20 100 0 5 4 9 12 11 8 1 26 2 119 1h31c5 1 28 1 50 2h42c1 1 82 1 99 0z"/></svg>