<svg xmlns="http://www.w3.org/2000/svg" width="1344" height="566"><path d="M0 283V0h1344v566H0V283m342 277c16-3 18-4 20-16 2-5 2-11 2-22-1-31 0-35 2-40 5-8 20-21 26-21 3 0 10-4 14-8 3-2 8-5 13-7 16-8 17-10 4-15-17-6-22-7-25-7-4 0-15-6-21-11-5-4-19-21-22-27-3-4-3-5-2-9 1-2 2-6 1-12 0-5 0-11 1-17 1-5 3-14 4-20 1-14 3-18 8-23 4-4 15-12 20-14 6-2 30-3 55-2 29 1 28 1 35 15 3 7 5 6 20-8 12-11 16-16 24-28 11-15 12-18 16-32 6-21 6-30 1-42-5-9-18-23-26-28-9-5-22-8-31-8-12 1-23 8-32 19-4 7-6 11-13 32-9 26-12 30-30 41-14 9-20 11-61 14-15 1-22 3-30 7-9 4-14 9-26 23-14 16-22 25-37 36-24 18-32 28-40 51l-4 13 1 8c2 14 6 18 20 24 12 4 12 6 10 15-2 4-4 10-6 15-6 17-12 56-12 84 0 15 0 16 2 19l2 2h53c41 0 55 0 64-1z"/></svg>