<svg xmlns="http://www.w3.org/2000/svg" width="1344" height="566"><path d="M0 283V0h1344v566H0V283m554 278c15-2 19-3 21-7 0-1-2-6-5-11l-5-11v-8c1-10 2-13 14-29 14-18 13-17 14-35 0-21-2-24-13-26-7 0-11-2-12-5-2-3-5-27-5-44l-3-18c-2-4-3-11-4-16 0-4-2-10-3-14-2-3-3-9-4-13-2-8-8-16-15-20-2-1-6-5-10-9-4-3-8-7-10-7-4-3-24-5-36-5-13 0-24 1-44 6-9 1-19 3-22 3-9 0-24 3-30 7-16 7-32 20-36 29-1 2-2 7-3 12-1 11-3 16-10 31-4 8-6 14-8 21-2 14-2 36 0 67 2 42 1 57-8 68-5 6-13 17-15 21-3 5-2 8 3 10 7 4 12 4 91 5 102 1 139 0 158-2z"/></svg>