<svg xmlns="http://www.w3.org/2000/svg" width="1344" height="566"><path d="M0 283V0h1344v566H0V283m529 276c14-1 38-1 68 0 82 1 263 0 300-2 21-1 198-1 231 1 20 0 21 0 23-1 6-6-2-29-19-53-15-22-31-36-54-49-13-6-24-11-72-26-19-7-21-8-36-13-18-7-31-14-35-21-4-5-3-12 2-39 3-12 5-26 6-30 1-8 5-22 8-30 3-6 6-9 17-14 17-8 25-18 36-41 7-12 8-20 8-35 0-10 0-12-2-16-1-3-4-6-6-8-3-1-6-4-8-6l-4-4v-8c1-5 2-17 3-26 3-26 4-62 2-78-3-21-7-40-9-43-3-5-7-8-17-9-17-4-29-4-134-4-136 0-144 1-151 9-6 7-12 19-16 36-6 23-7 33-8 67s-2 42-6 54c-5 15-4 30 4 60 2 8 8 22 15 37 5 10 11 25 14 37 0 4 2 8 2 10 5 14 12 37 12 39 1 4-4 8-12 9-6 0-14 2-24 5-4 1-9 3-13 4s-8 3-10 4c-5 2-15 15-31 39-19 27-27 37-43 48-7 5-16 11-20 14s-9 7-11 8c-3 1-8 5-11 7-7 6-29 21-41 28-17 10-48 33-49 36 0 0 0 2 1 3 4 3 40 3 90 1z"/></svg>