<svg xmlns="http://www.w3.org/2000/svg" width="1344" height="566"><path d="M0 283V0h1344v566H0V283m687 279h48c11 1 50 1 63 0 8 0 9-1 11-3 2-3 3-9 1-21-1-5-3-19-4-32-4-60-10-91-20-106-7-10-29-31-37-34-3-2-29-18-52-34-15-10-25-23-33-40-3-10-3-10-1-17 9-22 11-28 14-39 0-3 2-8 2-10 1-3 3-9 4-14s3-11 4-14c5-11 6-14 4-23-3-10-3-25-1-39 2-15-3-47-8-54-8-13-26-28-42-34-13-6-19-6-35-4-12 1-30 5-35 8-1 1-7 3-13 5-13 5-15 6-15 10-1 2-6 9-11 16-13 18-17 25-19 39-1 7-2 15-2 18 0 4 0 10-1 14-1 7-1 8-5 11-2 3-4 6-5 7-3 5-1 32 3 39 2 5 8 11 14 15 9 8 12 17 12 44v18l-3 6c-3 5-4 6-9 9-3 1-11 4-18 5-21 5-33 9-47 17-16 8-32 20-39 31-7 10-16 28-20 42-3 7-6 15-7 17-4 11-7 19-13 40-5 13-10 29-12 35-2 7-4 14-5 16 0 2-2 8-4 14-2 9-3 14-4 23v12l3 3c4 4 6 4 64 4s209 1 210 2h12c6-1 29-1 51-2z"/></svg>