<svg xmlns="http://www.w3.org/2000/svg" width="1344" height="566"><path d="M0 283V0h1344v566H0V283m680 275c52 0 416 0 434 1 12 1 26 1 43 0 24-1 26-1 27-3 3-3 2-8-4-23-13-29-25-50-35-63-21-24-48-44-79-57-16-7-35-15-45-20-6-3-18-9-26-14-9-4-20-9-24-11-13-4-20-7-29-14-26-19-31-26-30-37 1-8 7-29 9-34 3-7 5-8 15-13 10-4 18-11 25-20 9-12 12-21 12-32 0-8-1-12-6-16-3-3-3-3-3-9 0-3 2-13 4-21 7-35 10-55 8-68-1-9-7-31-10-36-5-8-12-17-15-18-1-1-4-4-7-6-6-7-43-28-55-31-11-4-26-5-32-2-2 1-5 1-8 1-8-1-25 2-35 5-13 4-31 14-38 20-6 5-15 18-20 28-4 10-12 36-13 47-6 39-8 45-15 50-3 3-5 5-7 10-3 6-3 7-3 18 0 14 2 25 9 40 5 15 7 19 10 35 1 8 3 21 5 28 2 10 3 16 3 24v11l-4 4c-5 4-24 21-31 26-10 7-22 13-32 15-6 2-20 7-32 12s-31 13-42 18c-44 18-62 28-79 45-19 18-30 33-42 56-8 17-13 34-13 44 0 6 1 8 4 10 3 1 9 1 53 1 28-1 57-1 66 0 15 1 23 1 87-1z"/></svg>