<svg xmlns="http://www.w3.org/2000/svg" width="1344" height="566"><path d="M0 283V0h1344v566H0V283m829 278c9-1 20-1 25-1 15 0 18-3 16-16-3-15-4-22-3-31 0-8 0-9-2-11 0-1-2-2-3-2-2 0-6-4-8-9-4-7-6-16-6-27v-10l-5-5c-4-4-9-7-22-13-9-5-24-12-33-17-23-10-42-20-58-26-7-3-16-8-20-10-9-5-10-8-11-27-1-12 0-50 2-52 0 0 0-12 1-25 1-27 1-31-6-69-3-21-17-63-31-92-9-20-24-42-36-53-24-23-50-35-83-39-20-2-31 0-54 14-4 2-10 5-14 6-10 3-18 8-25 15-18 18-33 54-37 89-1 4-1 11-2 14-2 8-2 92-1 122 1 24 5 63 7 76 1 3 2 11 3 17 1 12 1 15-4 16-10 2-34 11-54 21-4 2-11 5-16 7s-15 7-23 11c-16 8-19 10-19 16 0 1-2 10-4 19-1 10-3 20-3 23v6l7 7c8 8 13 10 29 17 6 2 14 5 18 7 5 3 11 6 15 7 4 2 13 6 21 10 9 4 18 8 20 9 3 2 6 3 8 3 4 2 47 3 92 4 65 1 299 0 319-1z"/></svg>