<svg xmlns="http://www.w3.org/2000/svg" width="1344" height="566"><path d="M0 283V0h1344v566H0V283m518 277c12-2 73-4 114-3 12 0 31-1 43-1 19-1 24-1 33 0 17 3 52 4 73 3 10-1 26-1 35-1h164c33-1 60-1 61-1s1-1 1-3-3-4-14-12c-7-6-17-12-22-15-4-2-11-7-15-9-4-3-10-7-14-8-13-6-21-11-26-14-7-6-25-27-27-32-1-4-1-4 2-13 6-17 16-40 32-69 19-37 28-49 40-56 8-3 19-11 24-16 9-10 20-30 23-43 5-18 3-28-4-34-9-7-9-10 1-58 3-16 8-51 9-64 1-7-1-21-4-31-5-12-9-20-17-33-7-10-11-14-20-23-12-11-12-11-22-14-7-2-12-3-20-4-19-2-110-3-135-2-40 2-43 2-53 11-7 6-12 13-20 30-15 28-23 60-27 103-1 13-3 22-6 26 0 1-3 2-7 4-3 0-7 2-9 3-8 4-13 17-13 33 0 28 10 52 28 66 3 2 6 6 7 7 3 8-2 59-8 78s-15 33-23 36c-5 2-8 2-37-1-8-1-12-1-15 0-4 1-12 8-32 29-6 7-15 15-18 18-7 5-10 6-37 19-9 4-18 10-22 12-3 2-15 9-27 14-54 29-80 45-92 58-6 8-4 10 11 11 16 1 71 0 85-1z"/></svg>