<svg xmlns="http://www.w3.org/2000/svg" width="1344" height="566"><path d="M0 283V0h1344v566H0V283m1074 277c2-2 2-3 2-11 0-10-2-30-4-37-1-3-2-10-2-15-1-12 0-12 12-13 17-2 22-7 22-23 0-20-11-49-31-84-11-18-14-26-17-38-4-17-4-17-24-31-5-4-12-11-15-14-6-6-7-9-18-43-2-8-5-23-6-34-4-39-10-57-23-69s-31-16-55-13c-11 2-14 3-24 11-8 6-12 11-16 19l-3 7v18c0 19 0 19 7 52 1 5 2 12 3 16 0 6 0 8-4 17-4 10-7 24-7 33 0 1-1 5-3 7-5 9-5 9-4 25 1 9 2 18 2 20 0 3 1 9 4 17 6 19 8 22 18 43 5 11 10 24 11 28 2 5 4 12 5 16 1 3 3 9 5 14l2 8-2 14c-1 19-4 36-5 46-1 8-1 8 1 10 1 1 4 2 6 2 4 0 21 3 24 4 1 0 32 1 69 1h67l3-3z"/></svg>