<svg xmlns="http://www.w3.org/2000/svg" width="1344" height="566"><path d="M0 283V0h1344v566H0V283m1088 277c8 0 11-1 11-2 2-3-1-14-7-26-4-8-7-11-15-20-6-7-14-16-18-21s-11-13-18-18c-6-6-17-14-23-20-7-5-19-16-28-24s-22-19-28-24c-7-5-16-12-21-15-21-18-26-20-46-21-22-1-29-4-38-14-10-11-13-22-13-40 0-14 3-31 6-39 2-2 6-9 11-15 13-16 22-33 24-44 1-9 1-19-1-26-1-6-1-17 0-27 0-3 1-11 2-17 3-29-4-54-20-73-8-9-24-20-42-29-19-9-34-12-59-12-37 0-55 5-79 25-11 8-14 12-21 22-9 12-13 26-14 46-1 4-2 17-3 28-1 10-2 24-2 31-1 7-2 19-4 27-4 24-3 37 5 70 4 19 19 54 26 61 1 2 6 6 10 9 9 7 11 9 11 13s-4 7-22 17c-45 24-43 22-62 37-34 25-53 42-63 54-3 5-9 12-13 17-14 18-19 27-24 44-4 14-5 20-2 23 1 1 4 2 6 3 3 0 28 0 56-1 75-2 253-2 259-1 3 1 41 1 108 2 57 0 104 1 105 2 0 0 26-1 46-2M4 561c0-1-1-1-2-2s-1-1-1 0 1 2 1 2h2m32-1c3-1 34-2 67-2 105-2 107-2 108-7 2-3-2-18-9-45-3-10-6-28-13-73-7-39-7-41-25-72-11-19-15-25-24-33-10-9-34-25-44-29-5-2-16-7-24-11-17-9-19-11-19-20 0-7 2-11 8-20 2-5 3-11 1-16-3-6-2-9 2-15 3-4 4-7 5-11s2-8 5-10c6-8 6-10 6-18 0-5-1-9-5-24-8-23-8-26-7-43 1-28 1-29-9-51-5-11-8-20-9-27-1-2 0-5 1-9 3-8 3-12 0-14-3-3-13-6-22-8C21 1 5 1 3 2 1 4 1 18 1 279v275l3 3 3 4h11c6 0 14 0 18-1z"/></svg>