<svg xmlns="http://www.w3.org/2000/svg" width="1344" height="566"><path d="M0 283V0h1344v566H0V283m829 277c22-1 41-1 42-2 4-1 6-5 7-16 2-13 2-17 0-21-1-2-2-6-3-9v-7l7-7c3-4 10-9 14-12 3-3 8-6 9-7 2-3 5-10 9-24 1-5 3-14 5-19 4-13 4-16-3-48-1-8-7-20-11-24-3-4-8-6-32-17-25-11-37-19-42-26-4-7-5-13-3-27 2-17 3-52 3-62-2-23-13-54-26-72-8-11-18-19-31-25-11-6-18-8-36-11-13-2-25-2-45 0-16 3-21 4-39 12-8 3-17 7-19 8-37 15-39 17-43 35-1 6-2 13-2 17-1 3-4 11-6 19-10 24-12 31-16 53-3 14-6 24-11 37-4 10-4 11 1 37 4 21 4 25 1 46-1 9-2 18-2 21 0 8 5 33 11 51l4 14 1 28c1 24 1 29 2 38 0 4 7 11 13 14 4 2 7 3 20 3 9 0 27 1 40 2 27 1 108 3 128 2 7 0 31 0 53-1z"/></svg>