<svg xmlns="http://www.w3.org/2000/svg" width="1344" height="566"><path d="M0 283V0h1344v566H0V283m885 278c30 0 89 0 131-1 78 0 107-1 110-4 6-4-2-18-18-32-6-5-14-13-18-18-5-4-12-12-16-16-12-10-33-27-42-31-16-8-43-28-43-33 0 0-3-5-8-10-4-5-9-12-10-15-2-3-5-7-6-10-2-2-6-10-10-17-8-17-11-21-18-30-3-4-7-10-9-14-3-3-7-9-9-12-3-4-7-10-9-15-5-10-5-15 0-27 2-5 4-11 6-15 1-4 3-10 5-13 9-25 12-40 13-62 1-38-6-62-29-96-13-21-32-39-49-48-7-4-28-11-43-15-17-5-47-2-67 6-4 2-11 4-17 5s-15 4-21 5c-6 2-12 4-14 5-2 0-8 2-12 4-40 15-65 39-74 69-3 12-4 36-4 60 1 28 5 50 14 75 2 7 6 21 8 31 4 18 9 32 15 49 6 14 11 28 13 39 4 20 10 26 26 31 6 1 9 1 27 1 20-1 21-1 23 1 2 1 3 3 3 4 0 3-9 9-38 22-36 16-63 35-73 50-7 9-7 14-7 40-1 24 0 29 4 31 6 4 34 6 121 7 38 0 70 0 70 1h10c6-1 35-1 65-2z"/></svg>