<svg xmlns="http://www.w3.org/2000/svg" width="1344" height="566"><path d="M0 283V0h1344v566H0V283m554 278c62-1 330-2 406 0 69 1 100 0 105-2s5-6 1-22c-2-5-4-12-6-16-2-6-2-8-2-14 2-19 2-20 1-23-2-4-10-8-27-15-12-5-71-34-81-40-3-2-6-4-7-6-2-5-2-16-1-28 9-54 14-89 15-111 0-16-2-52-5-76-1-9-2-19-3-22-1-17-10-54-17-76-14-42-38-70-82-95-11-7-17-8-35-9-17 0-37 1-43 4-2 0-8 2-14 3-16 1-17 2-28 7s-17 9-27 18c-14 14-26 33-36 59-3 9-11 39-13 52-4 27-4 29-4 89-1 66 0 64-9 75-9 12-10 20-10 51-1 20-1 25-2 28-3 7-10 11-25 13-19 4-25 6-43 13-4 2-37 18-73 35-6 3-11 6-12 7-1 2-2 5-2 13 0 11-2 20-10 40-7 18-12 33-12 38-1 4-1 5 1 7 5 4 21 5 100 3z"/></svg>