<svg xmlns="http://www.w3.org/2000/svg" width="1344" height="566"><path d="M0 283V0h1344v566H0V283m569 276h47c11 1 38 1 60 1 51 0 54-1 59-12l2-6c0-1-3-5-6-9-8-9-8-12-9-24 0-6 0-13-1-15-1-5-1-37 1-43 1-5 5-7 10-5 14 3 47 4 76 1 7-1 19-2 26-3 26-2 55-7 66-10 2-1 7-2 10-3 7-1 23-8 30-13 8-6 22-19 27-27s5-12 1-23c-6-16-25-44-43-61-8-8-16-13-33-21-8-4-11-6-15-11-3-3-7-7-10-9-6-5-33-20-43-23-14-6-17-7-23-11s-7-4-14-4c-9 0-9 0-24-8-3-3-10-6-14-8-19-11-33-23-42-37-4-7-4-7-6-27-3-38-12-57-35-79-6-5-13-11-16-13-22-12-70-19-90-14-3 0-9 3-14 5s-13 5-18 6c-17 6-31 17-40 29-3 4-7 11-10 18-3 6-8 15-11 22-4 6-9 15-12 21-2 6-6 12-8 15-5 5-17 11-28 15-4 1-12 4-17 6-10 4-15 5-24 6-3 1-8 3-16 8-20 12-36 19-60 27-13 4-22 8-27 12-8 5-21 26-24 35-1 5-3 20-3 27 0 11 9 36 17 47s28 33 39 41c14 12 28 24 30 28 5 7 5 13 5 38-1 13-1 28-2 32 0 5-1 14-2 21-1 11-5 31-9 40-1 2-2 7-2 9-1 4-1 5 2 7l3 3h17c22-1 158-1 168 0h16c6 0 23 0 39-1z"/></svg>