<svg xmlns="http://www.w3.org/2000/svg" width="1344" height="566"><path d="M0 283V0h1344v566H0V283m736 278c5-1 10-1 10 0h41c35-1 39-1 41-3 3-2 2-4-8-13-11-8-28-25-30-29l-2-4c1-2 9-6 14-7 4 0 20-8 28-13 16-11 26-31 25-50-1-5-1-14-2-21-1-14-4-29-7-35-1-2-4-7-7-11s-6-8-6-9-3-7-6-12c-8-14-15-35-15-45 0-3-2-10-4-17-2-6-5-14-6-18-1-3-2-7-3-8 0-1-1-3-1-6-1-2-2-5-3-8 0-2-1-8-2-13-1-8-2-12-5-19-9-23-10-26-11-40-2-22-1-29 4-45 6-16 8-29 8-34-3-21-13-48-22-56-2-2-9-6-15-10-6-3-14-7-17-9-10-7-20-12-29-14-5-2-11-4-14-5-5-2-10-2-31-3-13 0-31-1-38 0-14 1-14 1-22 5s-10 6-20 15c-6 6-12 14-14 17-9 13-13 27-12 41 1 6 1 9 7 19 3 7 7 15 8 19 1 3 4 10 7 16 2 6 5 12 6 14 0 2 2 6 3 8 2 5 4 17 9 39l4 19v32c0 33 0 36-4 38-1 0-7-1-13-2s-14-2-18-2c-9 0-10 2-15 24-4 19-5 35-3 46 1 4 7 20 13 35s12 31 14 35c8 22 31 72 37 81 4 5 8 15 14 31 2 7 3 9 7 13 6 6 18 12 26 13 16 3 55 3 79 1z"/></svg>