<svg xmlns="http://www.w3.org/2000/svg" width="1344" height="566"><path d="M0 283V0h1344v566H0V283m470 277c31 0 60-1 64-1 5-1 9-1 9 0h62c64 1 64 1 64-4 0-2-5-6-11-9-4-2-6-3-6-4 0 0-2-3-4-5-3-3-6-5-9-6-7-3-14-8-16-12s-4-13-4-20-4-14-15-28c-10-13-19-20-30-25-5-2-12-6-16-9-3-3-14-9-23-14-18-10-22-13-24-17-1-4 1-7 7-16 3-5 7-13 10-18 6-11 18-31 22-35 5-4 9-5 23-5 11 0 12 0 18-3 7-4 12-8 14-13 0-1 1-7 2-12 1-4 2-12 3-16 1-5 2-11 2-16s1-12 2-16c1-5 2-11 2-13 1-3 3-9 5-14l4-8-1-7c-1-4-4-12-6-18-2-5-4-11-5-14-1-2-1-6-2-8-1-5-1-28 0-38 3-19 1-47-4-63s-13-27-25-35c-11-7-50-24-67-30-12-4-20-4-57-4-42 1-53 3-59 9-1 1-5 3-8 5-7 3-26 19-33 28-9 10-15 23-22 44-5 16-8 29-13 57 0 5-2 14-3 20-8 49-12 73-14 101-4 35-9 77-13 99-4 24-5 33-2 37 1 2 9 5 17 6 11 2 10 5-4 28-4 7-12 22-17 33-14 27-14 28-25 48-11 21-12 24-6 31 4 7 7 8 15 9 13 2 48 3 96 2 26 0 72 0 103-1z"/></svg>