<svg xmlns="http://www.w3.org/2000/svg" width="1344" height="566"><path d="M0 283V0h1344v566H0V283m662 279c4-1 29-1 64-1 31 0 78-1 105-2 27 0 67-1 91-2 23 0 62 0 86-1 32-1 51-1 64 0 9 1 37 1 61 2 41 0 44 0 46-2 5-4 2-13-13-41s-23-41-42-66c-15-19-42-44-58-51-10-5-33-15-42-17-18-6-34-11-50-17-16-5-21-7-46-14-6-1-14-4-19-7s-16-8-24-12l-14-7h-19l-5-5c-6-4-11-12-16-27-4-13-6-20-7-33-2-25-1-41 8-89 5-30 2-63-8-87-6-12-9-17-20-26-4-2-9-8-13-12-5-7-7-8-15-12s-10-5-17-6c-5 0-13-1-19-2-7-2-14-2-30-2-19 0-22 0-33 2-7 2-17 3-23 4-9 1-12 2-21 6-19 9-23 12-29 20-8 10-13 21-15 30-2 6-2 11-2 31 0 21 0 23-2 35-2 9-3 17-4 26 0 12 0 15 2 25 2 6 3 13 4 15 1 6 8 32 11 39 1 4 3 10 5 13s7 13 13 23c12 25 16 30 23 42 12 17 17 21 33 28 2 1 5 2 6 3 2 2 2 2 1 5-3 4-16 16-25 21-1 2-15 9-31 17-16 7-33 17-39 21-7 3-15 8-19 10-15 7-49 35-56 44-1 2-6 6-11 10-15 11-18 15-20 29 0 5-2 13-4 18-3 9-4 14-2 17 3 4 12 5 42 6 42 1 139 0 148-1z"/></svg>