<svg xmlns="http://www.w3.org/2000/svg" width="1344" height="566"><path d="M0 283V0h1344v566H0V283m488 278c1-1 85-1 118-1 14 1 39 0 57 0 25-1 35-1 48 0 22 2 67 2 78 1 7-1 29-2 97-1 146 0 147 0 149-2 4-3 4-6 2-15-3-16-2-16-17-38-4-5-7-10-8-15-2-6-3-8-6-11-3-2-8-5-13-7-4-2-13-6-20-9s-15-7-19-8c-10-4-27-11-35-15s-13-10-13-14c0-3 10-33 17-50 5-13 8-26 10-38 2-11 2-106 1-130-2-31-3-44-9-72-4-20-16-49-28-66-9-13-30-32-45-40-26-13-52-18-72-13-6 1-10 1-19 0-16 0-21 1-37 9-28 14-50 36-62 60-9 21-19 50-24 74-1 4-4 16-7 26-9 35-13 67-16 124-3 64-6 77-19 84-11 5-25 11-33 13-5 2-14 5-21 8-6 3-12 5-13 5l-14 8-14 8c-1 0-7 3-13 6-11 5-27 11-38 14-5 1-10 5-14 12-4 6-4 10 0 22 2 5 3 11 3 13 0 4-4 17-8 29-8 20-8 23-5 26 1 1 4 2 7 3 6 1 53 1 55 0z"/></svg>