<svg xmlns="http://www.w3.org/2000/svg" width="1344" height="566"><path d="M0 283V0h1344v566H0V283m655 277c75-2 126-2 196-2 66 0 81 0 140 1 16 1 65 1 108 1 76 0 79 0 81-1 3-4 2-11-4-24-4-8-7-14-22-29-6-6-12-13-14-16-4-4-23-21-39-34-6-5-15-13-20-18-14-13-25-22-39-32-7-5-18-13-25-18-8-6-17-12-21-14-6-3-7-3-19-4-11 0-13-1-19-3-7-3-16-11-18-16-1-3-1-5 1-32 2-26 4-34 12-40 9-7 14-13 19-19 10-16 19-42 19-57 0-6-1-8-4-14l-4-8 1-25c0-22 0-26-2-37-5-30-19-48-51-67-12-7-21-11-34-15-8-2-12-2-32-3-19 0-23 0-29 1-8 3-27 12-36 17-14 10-28 25-35 38-6 12-10 34-13 62-1 16-1 22 0 35 0 9 1 25 1 36 1 23 2 28 10 59 6 23 7 27 14 43 5 11 5 12 6 22 0 14 0 15-14 22-6 3-20 9-31 15-33 15-51 25-73 42-21 16-39 32-53 49-3 4-8 10-11 14-11 13-19 28-25 46-5 15-5 21 0 24 3 2 21 3 30 2 3 0 25 0 49-1m-428-1c15-1 31-2 36-3 8-1 18-1 52-1h64c14-1 25-1 32 0 6 1 20 2 31 2 12 1 22 1 24 1 7 1 11 0 14-3s3-3 3-11c0-7-1-20-5-55-1-10-2-20-3-24 0-4-1-10-1-15-1-5-2-11-2-14-2-9-5-20-9-32-6-16-18-40-24-48-15-21-50-43-102-66-34-15-48-22-62-31-20-12-21-16-13-38 2-5 4-11 5-13 11-30 14-35 26-39 15-5 29-19 38-38 3-7 3-10 4-18v-10l-4-8-4-7v-9c1-5 3-17 5-26 3-17 6-38 5-42-2-5-4-6-24-7-10 0-29-1-43-1-13 1-60 1-103 1H88l-3 3c-3 3-4 5-6 12-2 12-5 18-10 24-7 8-9 12-10 23-2 15 0 30 8 58 3 10 6 21 7 26 1 4 2 14 4 22 6 29 6 35-1 38-5 2-14 3-27 5-5 0-10 1-13 2-8 4-28 27-34 38l-2 4v146c0 144 0 145 2 149 1 2 3 4 3 4 1 0 30 0 65 1 35 0 68 0 73 1 12 1 46 0 83-1z"/></svg>