<svg xmlns="http://www.w3.org/2000/svg" width="1344" height="566"><path d="M0 283V0h1344v566H0V283m748 279c3-1 19-1 40-2 20-1 42-1 49-2h52c21 1 49 1 61 0 22 0 23 0 25-3 2-2 2-3 2-7-1-5-7-29-12-46-6-18-8-29-8-39 0-12 1-43 3-68 1-10 1-30 1-45 0-14 1-33 1-40 1-15 1-20-4-31-4-10-11-21-19-29-9-8-28-24-39-34-19-14-19-15-20-42-1-33-3-40-10-57-5-13-11-24-16-31-5-6-20-19-31-26-17-11-25-16-28-18-8-3-48-8-61-7-23 2-51 14-70 30-15 13-37 47-44 67-3 9-5 25-6 39 0 6 0 10-1 12-3 5-14 12-39 25-39 20-41 21-50 31-13 13-14 16-19 52-2 14-3 23-12 57-6 22-10 39-13 56-1 3-2 9-3 14s-2 15-4 23c-1 8-3 17-3 21-1 8-5 15-9 18-9 8-72 40-89 46-13 5-26 7-43 8-9 1-21 1-27 2-12 1-22 1-32-1l-6-1-11 5c-8 4-11 6-11 8s3 5 7 5c1 0 4 1 6 2 3 2 4 2 14 2 6-1 16-1 23-2 21-2 134-2 153 0 5 1 13 2 17 4l8 2 98 1c84 0 101 0 107 1 6 2 14 2 39 2 19-1 32-1 34-2z"/></svg>