<svg xmlns="http://www.w3.org/2000/svg" width="1344" height="566"><path d="M0 283V0h1344v566H0V283m795 278c11-1 39-1 63-1 40-1 46-1 63-3 10-1 20-2 21-2 30 0 69 1 73 2s9 2 12 3c4 2 6 2 16 2 14-1 18-3 18-10s-11-44-14-50c-1-1-5-5-8-10-8-9-9-11-10-18 0-4-1-6-3-8-5-4-29-16-56-27-41-16-52-22-51-30 1-3 6-18 17-46 9-26 11-37 10-85 0-38-1-56-4-94-3-37-7-58-14-78-4-12-14-33-21-44-15-22-46-45-70-52-19-5-64-5-87 0-12 3-18 6-32 15-17 12-32 27-40 40-11 19-21 47-28 75-1 7-3 16-4 20-2 10-5 25-8 42-1 10-7 63-7 77-1 5-1 21-2 36-1 29-2 34-5 43-2 3-4 8-4 11-2 7-10 18-15 20-8 4-22 10-29 12-14 4-35 14-58 27-8 5-19 10-30 14-32 12-33 13-36 22-1 4-1 9 3 19 3 12 3 13-10 50-2 5-3 12-4 16 0 8 1 10 9 12 6 0 94-1 120-2h19c1 1 21 1 47 1 58-1 78 0 94 1 20 1 42 1 65 0z"/></svg>