<svg xmlns="http://www.w3.org/2000/svg" width="1344" height="566"><path d="M0 283V0h1344v566H0V283m721 278c5-2 5-2 9-1 4 2 14 2 119 2h170c59 0 60 0 64-5 3-4 3-13 0-19-1-3-2-8-3-11s-3-14-6-23c-8-32-9-36-11-46-1-5-2-13-3-16 0-6-3-15-6-23 0-1-2-7-4-12-1-5-4-14-6-20-1-6-4-15-5-21-9-37-14-50-23-56-6-4-12-6-30-10-22-5-26-6-33-10-4-2-7-4-8-4-4 0-22-11-30-19l-4-4v-8c1-7 2-10 4-15 4-6 7-21 9-37 2-12 1-30-1-45-5-27-6-31-8-37-5-17-25-36-47-45-4-1-11-3-16-4-9-1-10-1-23 0-7 1-18 3-23 3-12 1-14 2-25 8-10 6-21 16-28 25-7 12-12 31-10 45 1 9 5 23 10 35 0 2 1 8 2 12 0 11-1 15-8 19-2 1-10 8-16 14-8 8-12 12-14 17-2 4-3 7-3 8s-1 4-2 7c-4 10-6 18-7 29-2 27-4 32-12 44-6 10-9 15-10 22 0 5-4 13-9 20-3 4-4 8-6 17-4 14-7 23-11 29-12 17-12 19-16 32-10 28-13 41-14 60-1 20 3 36 9 41 3 3 16 4 54 4 23-1 27-1 31-2z"/></svg>