<svg xmlns="http://www.w3.org/2000/svg" width="1344" height="566"><path d="M0 283V0h1344v566H0V283m1189 278c18-1 21-1 23-7 1-3 0-9-4-34-1-3-3-12-4-18-3-16-6-21-13-25-3-2-11-4-17-6-10-3-12-3-15-7-5-4-11-15-15-27-2-5-5-13-7-19-5-12-10-25-16-43-2-6-6-17-8-23-8-23-18-52-26-81-10-36-19-49-32-46-4 0-6 2-9 7-1 3-2 4-4 4-4 0-7-4-15-20-8-15-13-22-18-24-6-3-10-2-16 0-7 3-10 3-18-3-8-5-11-6-16-4-4 2-9 7-10 11-1 5-3 7-8 11-10 7-11 9-10 27 0 26 4 43 17 76 6 14 8 19 11 34 1 11 5 18 15 33 11 16 29 41 45 61 27 33 40 54 46 75 4 14 2 20-10 21-5 0-6 0-27-11-30-14-32-17-41-41-8-21-14-29-28-42-30-26-38-31-49-35-7-1-39-1-59 0-7 1-23 1-34 1-22 0-25 0-29-6s4-67 10-80c1-3 4-6 6-8 5-6 7-13 6-27 0-18-3-34-15-69-6-18-16-44-21-52-1-1-6-11-12-21-18-34-24-44-37-56-26-25-64-43-102-48-14-1-21-1-43 3-32 6-39 7-50 11-12 4-32 14-41 20-14 10-29 30-41 53s-17 37-18 56v10l5 14 5 14v58l6 16 6 16 1 15c1 17 2 24 7 33 9 17 26 35 43 43 9 5 12 9 12 19 0 11-11 35-23 49-8 9-22 19-34 23-4 2-9 4-11 4-8 4-10 1-11-14-1-10-3-18-8-32-4-12-8-23-11-25-10-12-24 1-26 23-1 5-1 18-1 29 0 19 0 21-2 23-3 3-5 2-8-5-6-17-11-43-14-80-4-49-4-52-9-65-3-6-7-12-11-13-4 0-8 2-10 7-2 7-4 25-6 53 0 16-1 29-1 30-1 2-4 1-5-1 0-1-6-19-13-38-7-20-13-39-15-42-6-14-19-20-26-13-4 4-4 9 2 35 4 20 6 32 10 56 1 7 3 15 3 17 1 6 1 13 0 14-1 0-2-1-3-2-2-1-12-21-15-29-9-24-17-44-20-48s-7-6-12-6c-2 0-4 1-7 4l-3 3v9c0 5 1 12 2 15s4 13 6 23c3 10 6 20 7 24 5 14 9 29 9 30-2 2-4 1-13-10-19-23-27-30-34-30-3 0-5 1-7 3-4 4-4 11 0 22 6 13 11 21 34 53 27 37 32 43 40 45 6 2 55 1 87-1 16-1 33-1 48-1 34 1 93 1 230 1 184-1 280-1 338 0 55 1 80 1 96-3 7-1 9-1 16 0 4 0 9 2 10 3 3 1 7 2 16 2 15 1 54 0 79-1z"/></svg>