<svg xmlns="http://www.w3.org/2000/svg" width="1344" height="566"><path d="M0 283V0h1344v566H0V283m526 277h71c204 0 258 0 286 1 33 0 51-1 56-4 2-1 6-3 9-6s10-6 14-8c14-6 21-16 21-31 1-7-1-11-8-18-7-8-8-8-25-9-15-1-33-2-46-4-10-1-11-1-14-10 0-2-2-4-3-5-3-2-4-2-13-2-6 0-12 0-14 1-6 2-20 9-30 17-17 13-18 14-30 16-18 5-19 5-23 1-4-3-8-13-33-69-10-24-12-29-20-46-4-9-7-17-7-18s2-5 4-9c3-6 6-10 14-17 5-5 12-10 15-13 3-2 7-5 8-7 2-2 5-5 8-7 10-7 11-9 13-29 1-7 3-17 4-21 2-7 9-21 15-31 2-3 8-14 13-24s11-21 13-24c4-7 7-15 7-20 0-4-2-6-15-20-8-8-13-14-17-20-8-14-23-27-43-40-15-9-39-20-55-24-12-3-29-3-45 0-12 1-19 4-32 10-7 4-10 6-20 17-21 22-27 32-42 61-7 13-14 24-21 30-6 6-17 10-41 17-4 1-9 3-12 4-5 3-22 20-28 28-5 7-6 10-7 20-1 9-2 16-7 36-3 17-3 18 14 33 4 2 4 3 4 7s-2 8-9 24c-6 10-13 26-17 35-4 8-10 21-13 29-4 8-6 15-7 19-1 8-1 25 0 36 1 8 1 14-1 32 0 13-1 26-1 29 1 7 3 16 5 19s15 10 21 12c5 1 57 3 66 2h18m-239-19c6 0 14-2 17-2 2-1 5-2 6-2s6-2 11-5c11-5 13-6 17-4 1 1 5 2 8 3s9 2 14 4c11 3 14 3 17 0 4-3 4-7 0-15s-11-14-21-20c-11-6-25-18-27-22-1-2-3-4-5-6-3-1-6-5-8-9-2-3-6-9-10-12-3-4-7-9-10-12-2-3-6-7-10-10-7-6-9-9-9-19-1-7-1-8 1-13 2-4 3-8 4-15 0-7 1-11 3-16 6-16 7-22 7-31-1-11-3-21-6-27 0-2-3-5-5-8-8-8-8-10-7-22v-22c0-18-3-23-12-18-2 2-5 3-6 4-2 1-5 5-7 8-3 5-4 6-4 13 0 11-1 20-3 22-1 1-6 2-16 3-8 0-15 2-17 3-20 10-37 55-41 106-1 11-2 15-9 24-2 2-3 5-3 7 0 4 5 11 15 22 5 5 11 11 11 13 1 2 3 8 4 13 3 22 5 27 14 35 7 6 30 21 38 25 14 7 19 8 49 5z"/></svg>