<svg xmlns="http://www.w3.org/2000/svg" width="1344" height="566"><path d="M0 283V0h1344v566H0V283m578 279c3-1 27-1 104-1 55 0 113 0 128-1 25 0 27 0 29-2s2-3 2-7c-1-3-2-7-2-9l-5-15c-2-6-5-16-8-23-10-24-14-39-14-49 0-7-2-11-11-17-4-2-9-5-10-6-3-2-14-7-15-7s-9-4-18-8c-21-10-35-16-46-21-19-7-39-19-43-23-5-5-6-9-5-35 0-17 0-24 2-38 5-34 5-44-2-78-3-11-6-24-7-29 0-5-2-11-3-14s-3-9-4-13c-12-41-20-58-35-80-7-13-18-24-31-34-25-19-52-29-82-29-17 0-25 2-45 14-4 2-12 5-17 7-13 5-21 10-31 22-26 34-38 89-38 178 0 27 5 82 9 108 1 5 2 13 2 18 1 4 1 10 2 12 0 4-2 6-11 9-12 4-35 13-65 26-29 14-34 16-37 19s-2 9 1 16c4 8 23 26 33 31 4 3 14 9 21 14 14 9 19 12 40 29 10 8 28 16 45 22 7 2 15 5 18 6 9 4 21 7 29 8 15 1 116 1 120 0z"/></svg>