<svg xmlns="http://www.w3.org/2000/svg" width="1344" height="566"><path d="M0 283V0h1344v566H0V283m615 277c4-1 37-1 91 0 67 0 86 0 89-1 7-2 7-4 8-21 0-22-3-43-12-74-6-21-7-24-12-35-4-9-4-8-2-22 1-9 0-10-18-19-19-9-19-9-38-17-8-4-18-8-21-10-10-3-22-10-25-13-5-4-5-6 1-57 1-5 2-14 3-20 2-12 2-40 0-52 0-4-1-12-2-17-1-6-2-16-3-24-1-7-3-23-5-36-3-20-4-27-7-36-7-21-18-38-36-57-12-12-24-19-45-28-23-9-37-9-58-2-3 2-10 3-15 4-20 3-27 6-41 20-11 11-18 21-26 37-12 26-22 63-32 128-7 43-9 87-4 108 2 13 2 18 0 22-3 5-9 7-20 9-6 0-13 2-20 5-14 5-30 12-34 15-2 1-11 6-20 11-17 8-24 13-26 18-1 1-2 7-2 12-1 11-3 17-9 43-3 12-7 26-8 32-3 15-8 61-7 64 1 4 5 7 10 10 3 2 7 2 29 3h28c2 0 12 0 23-1 29-1 49-1 119 1 68 2 136 2 147 0z"/></svg>