<svg xmlns="http://www.w3.org/2000/svg" width="1344" height="566"><path d="M0 283V0h1344v566H0V283m609 278c19-1 111-1 167 0 27 0 29 0 32-2 2-1 3-3 4-6 1-5 1-18 0-29-3-22-18-74-26-92l-4-8 1-7c1-9 1-9-2-13-2-3-16-11-22-13-1 0-14-6-28-13-25-12-49-23-51-23 0 0-3-1-5-3-5-3-8-7-8-12 0-3 6-31 11-51 6-23 9-37 10-45 0-7-1-15-6-82-3-34-5-47-12-67-4-11-6-15-14-26-11-16-21-27-33-35-14-9-37-21-48-24-13-3-21-3-47 5-6 2-14 4-18 5-17 2-34 15-48 36s-21 44-29 90c-10 62-13 82-15 103-2 26-2 42 1 61 3 20 2 25-3 30-4 4-13 8-22 9-13 2-23 5-48 17-27 13-47 25-51 30 0 2-3 7-4 13-2 5-6 15-9 21-11 23-14 31-22 69-5 25-7 38-7 48 1 13-1 12 36 13 25 1 127 0 140 0 5-1 81 1 81 2 1 0 81 0 99-1z"/></svg>