<svg xmlns="http://www.w3.org/2000/svg" width="1344" height="566"><path d="M0 283V0h1344v566H0V283m577 276c16 0 53-1 82-1 69-2 52-2 243 1 108 2 178 2 180 0 6-4-1-20-16-37-5-6-12-15-15-19-6-8-16-17-38-34-8-7-20-17-25-22-16-15-27-24-52-43-34-25-30-23-52-24-10 0-19-1-20-2-4-1-14-8-17-11-4-3-10-16-13-26-2-6-2-10-2-21 0-13 0-14 3-24 4-11 6-14 13-24 6-9 15-25 18-32 4-10 5-20 5-30-2-23-2-30-1-35 2-8 2-32 1-42-2-12-7-27-13-37s-15-19-29-28c-27-18-46-23-80-23-31 0-47 3-64 14-18 10-32 24-40 40-6 11-8 19-9 37-1 9-2 24-3 34-2 9-3 22-4 30-1 7-2 17-3 23-3 25 2 63 13 94 3 8 8 19 10 24 5 9 7 12 14 19 5 5 9 10 10 11 0 4-2 13-5 16-3 4-21 15-37 24-18 9-61 42-81 63-24 24-48 61-49 76 0 10 2 11 29 10 9 0 31 0 47-1z"/></svg>