<svg xmlns="http://www.w3.org/2000/svg" width="1344" height="566"><path d="M0 283V0h1344v566H0V283m276 278h256c114 0 209-1 211-1s5-2 6-3c2-2 4-2 21-2 9 0 24 1 31 1 7 1 29 2 47 3s43 1 55 2c12 0 45 1 73 1h52l3-4c4-4 4-9 3-26-2-17-2-23 1-25 3-4 17-2 48 8 3 1 9 4 13 6s9 4 12 4c2 1 6 2 10 4 9 3 26 7 39 9 7 0 17 1 23 2 12 1 35 1 39-1 2-1 7-2 12-2 27-3 27-3 30-7 2-4 1-6-1-10-3-3-3-3-14-3-7-1-14-2-17-3-6-2-21-9-25-12-6-5-6-7-1-11 3-3 3-4 2-6-2-3-6-4-19-5-11-1-16-1-30 1-26 2-27 2-59-11-27-12-27-12-46-28-10-8-17-16-22-26-4-11-13-42-20-74-1-6-3-14-4-18-2-4-4-12-5-18-7-31-11-38-34-61-11-11-12-14-10-18 2-3 3-3 21-8 4-2 7-3 10-6 5-6 19-33 23-44l3-9v-17c-1-18-2-35-4-44-1-3-2-12-3-19s-3-14-3-16c-3-4-11-12-19-15-14-7-41-12-56-10-8 1-19 4-24 7-11 6-25 20-30 31-4 9-4 13-5 38-1 33-3 44-13 58-5 8-14 18-18 21-2 0-6 1-11 1-12 0-15 2-26 17-4 5-13 14-26 26-23 21-31 30-39 46-12 24-12 28-12 90-1 31-1 55-2 65-2 22-1 39 3 52 2 7 3 10 2 11-2 2-5 1-12-2-4-2-14-8-23-12-15-8-37-22-46-28-9-7-12-21-9-53 1-14 1-21-1-41-1-30-2-34-5-50-1-7-2-18-3-23-1-6-1-12-2-14 0-3-1-8-2-13-1-9-5-28-8-40-1-4-3-13-4-20-8-33-15-48-34-67-9-9-21-17-39-26-20-10-31-12-50-12-14 0-15 0-25 3-6 2-13 5-16 5-3 1-11 4-17 7-8 4-12 5-15 5-5 0-5 0-13-8-11-10-17-15-29-19-10-3-12-3-22-3-15 0-29 4-43 13-11 8-24 22-30 34s-5 21 5 56c5 18 6 21 4 26s-10 12-21 20c-3 2-7 6-11 11-5 7-17 18-29 28-11 9-34 31-39 37-6 8-10 16-12 25-1 4-3 10-4 13 0 4-2 12-3 18 0 6-2 23-4 36-3 23-3 25-2 36 1 6 2 17 4 24 2 11 2 14 3 46 0 29 1 34 2 37 4 7 21 11 47 10h57z"/></svg>