<svg xmlns="http://www.w3.org/2000/svg" width="1344" height="566"><path d="M0 283V0h1344v566H0V283m751 276c79 0 122-1 123-1 0-1 1-2 1-2s-5-6-11-12c-13-13-37-45-40-54-1-1-2-6-3-10-2-9-9-26-13-34-3-7-7-17-13-33-7-20-15-32-23-36-2-1-10-3-17-5-18-3-50-16-57-22-4-3-4-4-3-6 1-5 2-9 10-22 8-14 14-21 25-27 15-8 18-10 21-16 2-5 2-8 3-24 1-9 1-24 1-32-1-15-2-23-8-39-2-3-5-13-8-20-13-40-26-65-39-78-9-8-15-10-35-14-16-3-28-3-37-2-10 1-13 2-35 11-33 13-37 16-49 33-4 5-8 12-11 14-2 3-8 11-12 18-5 8-10 15-11 16s-6 8-11 16c-5 7-12 17-16 22-15 20-21 28-22 30-3 5-23 33-29 40-8 8-13 17-16 29-3 9-3 10-4 33 0 26 0 27 7 43 7 18 8 19 22 21 13 3 23 8 23 12 0 1-2 6-6 12-3 7-6 14-7 18-1 3-6 16-10 30-9 22-11 30-16 47-1 4-4 12-6 19-9 22-8 25 7 26 8 1 123 1 325-1z"/></svg>