<svg xmlns="http://www.w3.org/2000/svg" width="1344" height="566"><path d="M0 283V0h1344v566H0V283m730 277c7-4 12-4 65-3h53c4-1 4-3-3-10-9-8-9-9 2-21 10-10 15-18 20-28 2-6 2-8 3-23 0-9 0-20-1-25 0-4-1-11-2-15-1-9-5-22-7-27-1-1-5-8-9-14s-9-14-11-18c-4-10-15-41-18-55-1-5-3-13-5-18-1-4-2-12-3-17-1-4-1-11-2-13 0-2-1-9-1-16 0-6-1-13-1-16-1-2-5-10-10-18-11-16-12-20-14-29-2-10-1-16 5-33s7-25 6-35c-3-28-15-52-29-60-11-7-17-12-19-14-1-4-11-10-19-13-3-1-10-3-14-4-5 0-15-2-22-4-12-3-13-3-40-3-34-1-36 0-45 9-3 3-9 8-13 11-15 13-25 26-35 48-7 15-8 17-18 27-4 5-9 11-11 14-2 4-2 6-2 11 2 14 2 36 1 38-2 3-11 10-21 16-5 2-12 6-14 8-3 1-11 6-17 9-31 18-48 32-59 48-9 15-11 26-9 47 1 7 1 21 2 32 0 11 1 26 2 34 1 13 7 39 12 56 2 6 5 19 8 29s6 22 8 26c3 10 16 38 21 47 11 17 22 21 57 21 7 0 17 1 21 1 8 1 79 3 139 3 45 0 46-1 49-3z"/></svg>