<svg xmlns="http://www.w3.org/2000/svg" width="1344" height="566"><path d="M0 283V0h1344v566H0V283m812 278c122-2 127-2 160-1 34 1 83 0 119-2 15-1 16-2 16-10-1-8-9-29-17-46-6-13-10-18-22-36-8-11-15-22-27-44-6-11-12-22-13-23-3-4-7-13-8-19-1-4-1-5 0-8 4-7 17-11 35-10l12 1 4-4c3-4 5-9 7-19 2-11 1-14-2-22-5-11-8-21-9-29-3-20-4-23-7-30-7-15-24-30-43-40-13-6-29-16-35-22-6-5-10-17-16-41-1-7-4-17-5-22-5-16-20-45-31-60-17-23-45-44-71-52-24-8-69-10-87-4-47 18-50 19-62 28-8 6-32 30-42 41-4 4-8 10-10 13-6 11-12 19-27 35-17 17-18 18-20 27-1 4-1 6 0 14 4 20 10 36 15 44 2 2 5 7 7 12 16 27 23 37 40 55 5 5 9 11 10 13 2 3 5 16 6 29 1 12 3 16 10 22 9 7 26 26 37 40 6 8 13 20 14 26 0 5-3 14-12 33-5 12-7 14-13 21-11 11-16 22-26 54-3 9-5 19-6 23 0 7 0 7 3 10 2 2 4 3 9 3 4 1 8 1 10 1 4 1 57 0 97-1z"/></svg>