<svg xmlns="http://www.w3.org/2000/svg" width="1344" height="566"><path d="M0 283V0h1344v566H0V283m490 133c5-1 11-4 15-6 7-2 5-2 45-5 6 0 16 0 23 1s18 2 25 2c6 1 12 1 13 2 2 0 26 1 56 1 23 1 38 2 41 4 0 0 5 1 9 1 9 1 18 0 41-4 5 0 12-1 16-2 3 0 7-1 8-1 1-1 5-2 9-2 19-5 47-13 58-19 9-4 18-7 25-7 3 0 6-1 7-2 3-2 3-5 1-35-1-17-1-19-3-24-2-3-3-8-4-11-1-9-4-12-10-12-4 0-4 0-6-6-2-3-4-7-4-8-1-1-4-6-6-10s-4-8-6-10c-2-1-2-2-1-2 1-1 3-1 4-2 2 0 4-2 5-3 1-3 1-4-2-16-2-8-5-21-8-30-4-16-9-38-10-46-3-17-14-46-23-59-6-8-15-18-23-24-16-11-44-20-59-19-8 1-28 5-32 6-6 2-19 8-24 11-20 13-33 35-36 64-1 4-2 23-4 81-1 22-1 24-3 26s-2 2-8 1c-13-2-22 1-33 10-3 2-7 7-11 10-5 4-7 7-13 18-7 15-10 18-24 29-7 5-14 9-27 16-22 10-27 12-38 12-8 0-12 1-15 5-2 2-18 37-18 39l-4 10c-4 10-5 15-3 17s18 3 33 3c14-1 16-1 24-4z"/></svg>