<svg xmlns="http://www.w3.org/2000/svg" width="1344" height="566"><path d="M0 283V0h1344v566H0V283m780 279c34-2 54-2 176-3 65 0 127 0 138-1 29-1 33-3 32-11-2-10-13-40-24-64l-11-22c-2-6-7-13-15-22-3-4-8-10-11-14-2-4-8-12-12-18s-10-14-13-18c-9-14-17-32-17-41 0-4 2-5 11-9 16-5 20-6 31-6 10 0 11 0 13-2 5-7 9-20 9-35 0-9 0-10-3-16-1-4-4-13-5-19-6-22-10-35-14-42-5-10-19-21-39-32-4-2-12-6-17-9s-12-7-16-9c-12-7-16-10-20-19-2-5-4-11-5-13-10-39-31-79-55-103-16-15-33-25-49-27-25-3-104-4-120-1-9 2-22 7-29 10-6 3-21 17-33 31-11 12-19 25-28 43-3 6-10 18-16 27-11 18-12 20-14 33-2 12 0 28 4 38 1 1 4 10 7 18 6 17 9 25 12 29 3 2 8 5 12 6 1 1 7 6 13 11 16 16 19 22 21 50 1 15 2 22 4 26s9 9 15 12c3 2 7 5 9 8 3 3 7 8 10 10 20 19 25 26 25 33 0 2-3 9-7 18s-8 19-9 23c-6 13-8 16-13 23-12 13-20 35-30 87-3 13-2 13 0 16s3 3 21 3c10 0 20 1 22 1 7 1 18 1 40 0z"/></svg>