<svg xmlns="http://www.w3.org/2000/svg" width="1344" height="566"><path d="M0 283V0h1344v566H0V283m965 278c3 0 11-1 18-2 16 0 19-2 22-7 1-4 3-30 3-40-1-7 1-30 3-53 1-6 2-15 2-19 1-4 2-21 4-38 3-36 3-44 0-58-3-15-8-27-18-44-3-5-9-16-14-26-11-17-17-26-30-40-8-8-14-18-14-23 0-3-3-9-5-10s-6-3-11-3c-5-1-9-2-10-4-3-2-10-18-11-23 0-7 3-27 13-65 5-21 6-28 2-40-2-5-4-10-5-12-1-3-3-6-4-9 0-2-2-7-4-9-2-4-4-5-15-10-19-10-32-12-49-8-14 3-28 8-39 13-6 2-19 15-23 21-2 4-2 5-3 15 0 10 0 13-3 23-2 6-4 15-4 21-1 9-2 13-5 19-2 6-3 10-4 16 0 6 0 7 3 12 2 3 5 9 7 14 3 10 10 25 14 29 3 4 10 7 16 9 7 2 13 5 18 10 8 9 9 12 4 18-2 2-5 6-8 10-2 4-7 10-10 14-8 9-11 13-12 21-1 14-3 23-8 35-10 22-14 33-15 39-1 4-3 14-5 23s-6 25-8 36-5 24-7 30c-1 6-3 15-4 21s-4 19-6 29c-1 11-5 27-7 37-4 20-4 22-1 25 2 1 5 2 77 2 75 0 148 1 150 2 1 1 1 1 6-1m-491-1c49 0 44 2 45-17 1-7 2-15 3-19 1-3 2-7 2-8s3-12 6-18c3-9 5-22 3-30 0-4-1-8-1-10s-1-5-2-8-2-6-2-8c0-1-1-5-2-7-1-3-2-6-2-7 0-6-11-34-16-40-4-6-20-19-32-27-10-7-11-12-3-18 4-3 6-5 11-16 7-15 12-21 21-27 9-5 8-5 7-32v-23l-4-8c-3-5-5-12-6-18-5-27-9-35-17-44-4-4-5-5-17-9-16-5-17-5-28-6-6-1-12 0-20 1-11 1-12 1-24 7-19 10-28 20-32 36-2 11-4 53-4 90v78l-3 7-7 14c-8 13-12 21-13 26 0 2-1 8-3 13-7 20-9 29-11 39-1 10-3 20-9 47-3 15-4 30-2 35 2 8 1 7 52 8h58c7 0 30-1 52-1z"/></svg>