<svg xmlns="http://www.w3.org/2000/svg" width="1344" height="566"><path d="M0 283V0h1344v566H0V283m730 277c3-2 5-6 7-16 1-7 1-10 1-29 0-9-1-11-3-13-1-2-4-7-6-10-5-8-17-19-42-40-21-16-30-25-31-28 0-2 1-6 2-12 4-12 5-18 6-38 2-24 3-31 9-49 3-10 5-20 6-25 3-28 4-34 6-41 1-4 3-12 3-17 1-6 3-12 5-16 3-7 4-11 1-21-2-10-3-29-2-47 1-31-4-56-14-78-9-18-16-25-36-37-19-11-21-11-59-20-13-3-15-3-41-4-34 0-36 0-56 10-23 12-36 21-45 34-6 8-20 39-27 57-9 23-13 37-15 54-1 5-2 16-4 25l-3 17v50c0 28 0 56 1 62 1 12 1 13-1 17s-3 4-18 11c-9 4-20 9-25 11-13 6-17 7-30 5-18-3-24-3-31 1-4 2-14 6-23 9-18 6-24 9-29 14-8 8-21 29-26 41-2 7-9 13-27 22-25 14-44 25-46 27 0 0-2 4-3 8-4 12-7 15-16 12-3-1-7-2-8-2-3 0-14 7-32 21-8 6-20 14-25 18-11 8-14 12-13 14 1 3 3 3 20 4 14 0 19 0 24-1 4-1 11-2 16-2 7 0 10 0 12-2 7-4 26-2 34 2l4 2 236 1h237c0 1 24 1 52 1 47 0 52-1 55-2z"/></svg>