<svg xmlns="http://www.w3.org/2000/svg" width="1344" height="566"><path d="M0 283V0h1344v566H0V283m844 278c32-1 36-2 39-4 2-2 2-2 1-10 0-4-2-10-3-12s-2-5-2-7c-1-2-3-6-4-10-2-4-3-10-4-14-1-3-3-10-4-14-4-9-6-19-6-28 0-8-2-11-9-16-7-4-55-29-73-37-31-14-56-25-59-28-5-4-6-8-7-24-1-10-1-19 0-35 1-12 2-23 2-25 1-2 1-12 2-22 1-20 1-27-5-59-2-13-2-13-13-49-5-18-23-59-32-72-14-22-33-40-55-53-15-8-37-14-57-15-13 0-14 0-23 2-4 2-13 6-18 9-6 4-15 8-20 10-12 4-17 7-25 15-19 20-32 52-37 91-6 46-6 141 0 186 1 6 2 13 3 17 0 4 1 11 2 15 2 17 1 23-4 23-2 0-5 1-8 2s-7 2-9 3c-3 1-11 4-20 8s-22 10-30 13c-25 12-41 20-42 22-1 1-2 5-3 9 0 4-2 12-3 20-6 25-5 27 5 35 7 7 12 10 26 14 5 2 16 7 23 10 7 4 16 8 20 10 4 1 8 3 10 4 4 4 12 7 21 11 8 3 11 3 30 4 11 1 42 1 69 2 72 1 291 0 322-1z"/></svg>