<svg xmlns="http://www.w3.org/2000/svg" width="1344" height="566"><path d="M0 283V0h1344v566H0V283m771 251c5-1 11-3 13-3 3-1 10-2 15-3 5 0 11-2 13-2 3-1 5-2 6-2s5-1 7-1c3-1 8-3 11-3 7-2 23-7 30-9 27-8 46-11 68-9 14 1 15 1 16-1 5-4 5-28 1-46-1-5-3-15-3-21-1-6-2-11-3-12 0-1-1-9-1-18s-1-18-2-19c-2-3-10-7-19-9-4 0-11-2-15-3-5-1-12-3-17-4-10-1-16-4-18-7-1-1-2-9-2-17l-1-14-3-4c-2-2-4-4-4-5 0 0 1-3 2-5l2-5-6-12c-9-19-13-29-17-40-2-6-6-17-9-24s-8-20-11-29c-13-37-26-67-31-75-14-21-32-35-55-44-24-10-31-11-50-11-13 0-14 0-27 3-32 9-50 18-63 31-15 14-26 36-32 61-2 14-2 15 0 63 0 11 1 31 2 44 2 36 2 41 0 44s-11 10-19 14c-9 4-22 13-26 18-4 4-8 12-11 21-2 4-3 5-7 8-5 2-8 3-12 1-4-1-4-1-11 6-8 7-7 7-23 12-6 2-12 4-14 5-6 3-14 11-14 14 0 5-5 9-18 13-5 2-11 4-13 5-1 2-4 3-6 4s-4 4-5 6-3 5-4 6c-1 2-2 5-3 7 0 3-1 6-3 7-3 4-3 6 0 10 1 2 2 4 2 8 0 3 1 6 1 7 3 2 15 3 27 3 10 0 17 1 24 2 10 2 12 2 19 1 5-1 10-2 12-2 3-1 4-1 7 0 2 1 4 2 5 1 1 0 5-1 9-2 4 0 11-2 14-3 6-1 8-1 12 0 10 2 26 7 39 12l14 4 41 1c23 1 46 1 51 2s15 1 21 2c17 2 32 4 37 6 2 1 5 2 5 2 1 0 4 2 14 9 5 3 26 4 38 1z"/></svg>