<svg xmlns="http://www.w3.org/2000/svg" width="1344" height="566"><path d="M0 283V0h1344v566H0V283m889 274c3-2 4-4 6-9 3-9 4-17 4-37 1-10 1-20 2-23 1-5 1-10-2-25-1-5-2-13-3-17 0-3-1-9-2-12-3-12-5-20-6-31-1-6-1-12-1-12-1 0-2-5-2-10-1-5-3-13-5-18-1-5-3-11-4-15s-2-9-4-13c-3-6-6-20-9-35-1-6-8-24-13-33-1-3-5-9-7-13-13-19-23-28-36-33-9-4-14-7-17-14-5-8-5-13 0-39 2-13 3-30 1-37-2-10-8-20-16-28-11-11-24-16-40-16-10 0-17 1-28 6-4 1-10 4-12 5-6 2-10 5-23 19-11 12-16 22-18 34-2 9 0 19 3 24 4 5 7 16 8 29v10l-5 6c-5 7-10 17-13 27-1 4-6 16-11 26-6 11-11 22-13 26-3 7-6 11-14 22-16 20-22 27-33 37-7 6-17 15-23 20-6 6-12 11-15 13-5 4-12 7-15 7-1 0-6-2-12-5-8-4-13-5-19-6-12-2-46-4-52-3-7 1-10 4-10 9 0 3 5 12 8 16 2 2 4 4 4 5 0 3-8 8-14 10-7 2-8 2-8 7s1 6 6 14c5 5 5 6 21 9 9 2 11 2 23 1 8 0 17-2 20-2 3-1 8-2 10-2 3-1 12-3 20-4 35-7 47-2 52 22 1 5 3 10 4 11 2 3 12 9 15 9 1 0 4-1 7-3 7-4 14-4 25-2 4 1 11 2 16 2 13-1 14 0 10 14-2 7-3 22-1 26 1 1 4 5 7 8 3 2 7 7 10 10 2 3 6 7 8 8 8 4 30 5 99 5 34 0 62 1 63 1 0 1 12 1 26 1 24 0 25 0 28-2z"/></svg>