<svg xmlns="http://www.w3.org/2000/svg" width="1344" height="566"><path d="M0 283V0h1344v566H0V283m568 277c39 0 174-1 184-1 3 0 19 0 34 1 32 1 85 1 113-1 13-1 20-1 23 0 11 2 246 3 254 1s19-16 19-24c0-6-2-8-35-34-15-12-31-26-40-35-4-3-8-7-11-9-2-3-5-6-7-10l-2-6v-78c0-34 0-41-4-86-6-66-7-72-15-109-11-54-19-76-38-99-15-18-33-31-58-41-33-13-49-15-70-8-5 2-15 4-21 5-16 2-22 3-31 8-15 8-29 19-39 31-23 28-31 46-35 73-1 9-1 11 2 46 1 6 1 27 2 46 1 39 1 42 4 70 3 25 4 34 5 42 1 7 0 12-3 14-6 4-23 7-45 8-12 1-33 2-46 3s-33 2-43 2c-16 0-20 0-26 2-11 3-20 8-34 18-13 10-16 14-24 25-7 11-17 22-22 25-3 2-8 4-15 6-13 3-31 10-37 15-7 4-20 26-23 38-2 9-3 11-9 20-4 6-9 10-20 15-5 3-12 10-15 17-4 7-2 8 24 11 4 0 21 1 37 0 16 0 46 0 67-1z"/></svg>