<svg xmlns="http://www.w3.org/2000/svg" width="1344" height="566"><path d="M0 283V0h1344v566H0V283m731 279c23-1 84-2 153-2 75 1 129 0 157-1 21-1 22-1 24-3 4-3 4-7-2-24-10-29-23-56-39-75-4-6-12-18-22-34-2-4-5-8-6-11-10-15-15-23-17-30-3-12-3-13 8-18s17-7 27-7c5 0 8-1 10-2 4-2 7-9 8-18 1-5 1-10 2-12 0-3-1-9-7-22-1-5-3-11-4-14-2-16-7-32-12-39-5-9-18-22-29-28-15-8-36-21-42-26-3-2-6-6-8-8-3-6-7-17-8-27-4-21-9-35-22-61-11-21-18-32-33-46-13-13-35-27-53-34-30-12-80-12-100 0-2 1-10 4-17 6-20 7-24 10-44 29-21 20-33 33-44 49-4 6-11 15-15 19-7 9-13 20-16 31-2 10-1 22 5 46 6 22 7 27 18 50s12 25 23 35c12 11 17 21 20 40 3 14 5 18 14 23 5 4 8 7 12 12 3 4 7 9 9 10 6 6 20 26 24 34 5 12 4 14-4 36-7 18-9 21-18 32-7 7-13 20-19 40-11 31-12 42-8 46 3 3 6 3 27 4 11 0 20 0 20 1 1 0 10 0 28-1z"/></svg>