<svg xmlns="http://www.w3.org/2000/svg" width="1344" height="566"><path d="M0 283V0h1344v566H0V283m847 279 81-1 8-5c4-3 8-5 9-5s4 2 7 5l5 5h15c23 1 97 1 118 0 30-2 30-2 19-26-4-8-8-17-9-21l-7-14c-7-13-12-34-11-46 1-8 8-34 13-47 8-20 13-36 14-44 2-16 1-26-4-29-3-2-4-1-9 2-2 2-4 3-5 3-3-1-6-6-8-14-1-3-3-7-4-9-1-3-6-6-9-6-1 1-4 4-7 8-4 3-7 6-8 6l-4-4c-7-8-8-9-12-9s-5 0-11 8c-7 7-8 7-14 9-8 2-12 4-17 11-4 5-5 6-8 6s-5-2-12-11c-4-4-5-6-16-11-6-3-18-8-27-12-42-17-45-19-48-23-3-3-3-4-3-13 1-6 1-13 2-16 3-16 4-59 2-75-3-20-9-38-19-52-9-13-11-15-42-32-28-16-35-18-62-19-17 0-19 0-25 2-9 3-30 14-37 19-12 10-28 27-33 37-4 7-9 23-9 27 0 3-1 9-2 13-2 9-10 30-11 33-2 3-3 39-2 53 1 12 0 17-4 19-4 3-14 6-29 11-44 13-57 18-72 28-11 7-14 7-17-3-2-5-5-8-9-7-3 1-7 6-12 15-3 4-5 4-8-2-1-2-2-6-3-8 0-3-2-7-4-11-6-11-11-12-17-2-3 6-7 11-9 11 0 0-3-2-5-4-7-5-13-4-15 5-1 3-2 10-3 15-1 8-2 11-4 13l-2 2-7-3c-8-4-11-4-14 2-3 7 0 24 7 46 8 24 13 37 18 50 13 28 14 34 9 49-3 12-13 31-20 41-7 8-9 13-9 18 0 8 5 10 22 11 10 0 16 0 22-1 7-2 9-2 23 0 9 1 17 1 21 0 10-1 187 0 192 1 8 2 11 2 41 1h110z"/></svg>