<svg xmlns="http://www.w3.org/2000/svg" width="1344" height="566"><path d="M0 283V0h1344v566H0V283m294 276c8-1 14-1 16 0 2 0 22 1 47 1 126 0 170 0 174-1 2 0 17 0 33 1 40 2 87 0 96-3 8-2 12-6 15-11 1-2 4-11 7-19 2-9 6-21 8-27 6-17 10-34 10-42s-1-30-2-35c-1-6-8-12-19-15-4-1-13-5-29-12-5-2-12-5-16-7-51-20-60-24-64-29l-3-3v-14c1-7 2-16 3-19 0-4 3-11 4-18 7-24 8-29 9-39 3-19 3-21-6-71-1-6-3-13-3-15-1-2-3-8-4-13-7-23-7-24-16-46-12-32-28-54-53-70-19-12-38-24-44-25-3-1-12-3-20-4-13-1-15-1-26 0-10 2-13 3-21 7-6 3-14 8-19 10-5 3-12 7-15 10-13 6-27 23-35 40-10 23-19 62-24 105-5 52-9 125-7 139 2 13 5 22 11 33 8 15 7 18-10 23-8 3-24 10-32 15-3 2-12 8-20 13-17 13-21 16-31 21-8 5-16 12-18 16 0 1-1 5-1 9-1 4-2 10-6 20-3 7-6 16-7 18 0 2-2 8-3 12-3 13-4 21-5 31 0 12 0 13 4 15 3 1 107 0 122-1z"/></svg>