<svg xmlns="http://www.w3.org/2000/svg" width="1344" height="566"><path d="M0 283V0h1344v566H0V283m568 278c128 1 154 0 157-1 4-2 5-5 6-19 1-7 1-14 2-17 0-3 0-5-2-8-2-2-2-4-2-8 1-5 1-5-3-9-2-3-5-9-10-22-10-26-11-27-17-38l-5-11v-9c0-8 0-10-2-12-1-2-15-7-64-27-9-3-19-7-22-9-4-2-13-5-19-7-14-6-19-9-21-14-1-4-1-13 1-21 2-10 7-28 11-39 4-14 6-28 6-40 0-17-5-54-10-71-1-4-4-14-7-23-7-26-21-61-30-75-11-17-26-32-42-42-13-8-21-11-36-16-12-3-13-3-29-3-19 0-18-1-50 15-13 6-23 12-26 15-18 14-33 43-40 78-5 20-7 32-9 46-2 8-4 20-6 28-5 31-7 50-10 126v22c1 24 1 24-15 31-12 5-18 8-38 22-10 6-23 14-30 18-19 9-22 12-22 23 0 7-1 12-10 36-3 11-7 24-8 30-6 35-6 46 0 49 3 2 5 2 114 1 1 0 5-1 8-1 4-1 7-1 10 0s21 1 63 1c32 0 69 1 81 1 13 0 25 1 26 0h100z"/></svg>