<svg xmlns="http://www.w3.org/2000/svg" width="1344" height="566"><path d="M0 283V0h1344v566H0V283m358 277c7-1 45-1 85-2h103c16 0 41 0 54 1 35 1 215 2 224 0 11-2 12-3 13-17 0-15-1-27-5-35-5-10-25-28-48-43-5-3-11-8-14-10-4-3-9-6-13-8-12-8-31-22-35-27-6-7-12-18-12-23 0-4 1-6 16-27 20-27 26-35 33-49 8-16 9-19 15-44 2-10 6-24 8-31 9-28 11-47 11-76 0-40-4-59-19-82-9-12-12-16-28-31-26-24-35-28-64-30-11-1-15-1-24-4-8-3-11-3-23-4-30-1-49 4-71 20-11 9-29 26-37 38-14 20-17 33-21 72-1 14-3 27-3 29-1 3-4 11-8 19-8 16-9 24-7 41 2 16 5 24 18 38 7 8 9 12 13 23 3 10 4 17 2 22-1 1-8 9-16 16s-16 15-18 16c-6 7-16 16-21 20-8 6-23 13-31 15-7 1-11 3-36 12-6 3-24 9-39 15-14 5-31 11-36 14-17 9-25 19-33 42-2 5-5 12-6 16-7 15-16 50-17 63 0 7 0 8 2 10 2 1 4 2 10 2 12 1 63 0 78-1z"/></svg>