<svg xmlns="http://www.w3.org/2000/svg" width="1344" height="566"><path d="M0 283V0h1344v566H0V283m476 276c18-1 66-1 106-2h88c7 0 22 0 34 1 15 1 52 1 118 0h196c98 1 101 1 102-1 2-2 2-2 1-6-3-10-17-25-34-37-13-10-26-16-67-34-7-4-19-9-26-12-7-4-19-8-27-11-17-6-19-7-26-13-8-5-12-10-13-14-3-5-2-7 0-15 2-4 5-14 9-23 16-45 23-61 28-68 4-4 6-5 17-8 12-4 22-11 34-27 7-10 8-11 13-23 5-9 5-12 6-19 0-10-1-13-9-21-7-7-7-5 5-46 10-32 16-66 16-86 0-22-10-56-24-77-4-6-11-10-22-11-10-1-154-3-191-2-24 1-31 1-37 3-10 2-10 2-19 20-12 23-20 44-25 72-11 51-10 47-21 51-5 2-9 4-11 5-5 5-8 13-9 25-3 24 4 52 17 67s13 15 11 46c-1 31-3 45-7 57-5 17-12 28-20 33-3 2-3 2-29 2l-26-1-5 3c-2 1-14 11-25 22-25 25-29 28-50 36-5 2-20 8-32 13s-29 11-36 14c-24 8-37 14-60 28-14 8-28 20-40 36-11 16-13 19-8 22 4 2 53 2 98 1z"/></svg>