<svg xmlns="http://www.w3.org/2000/svg" width="1344" height="566"><path d="M0 283V0h1344v566H0V283m287 276h33c14 1 102 1 196 2 158 0 170 0 178-2 13-2 17-5 19-11 0-2 1-11 2-21 1-21 0-29-5-43-2-6-4-13-4-15-1-2-2-6-3-8-1-1-2-4-2-5l-4-8-4-7v-11c0-14 0-14-17-22-13-6-30-13-83-34-3-1-10-5-17-8-14-6-14-7-12-22 1-12 4-21 12-46 6-17 7-20 9-32 2-19 1-25-6-68-3-18-10-50-12-59-1-2-3-8-4-13-3-11-10-31-12-36-9-18-25-33-51-49-24-14-38-19-62-20-17-1-24 0-37 6-6 3-16 7-24 10-12 4-13 5-20 11-16 15-28 36-36 60-5 17-11 48-15 80-1 8-3 26-5 39s-5 37-7 51c-1 15-3 29-4 32v16c0 13 1 22 6 37 2 4 3 9 4 12 0 4 0 4-3 7-2 2-7 5-11 6-27 11-24 9-55 32-8 6-19 13-25 16-19 11-23 16-23 28 0 4-1 10-6 23-3 10-7 22-8 27-3 13-6 37-5 40 0 2 1 4 3 5 2 2 3 2 57 2 31-1 59-2 63-2z"/></svg>