<svg xmlns="http://www.w3.org/2000/svg" width="1344" height="566"><path d="M0 283V0h1344v566H0V283m746 177c6 0 13-2 16-2 2-1 6-2 9-3 20-4 48-11 70-17 7-2 9-2 32-2 19 0 24-1 25-2 2-1 2-3 2-12 0-6-1-13-1-17-3-12-5-31-4-47 1-24 1-24-3-31-3-8-10-14-18-17-9-3-12-4-15-7-1-2-2-4-2-5 0-3-3-6-10-8-6-3-7-4-7-6 0-1 1-2 4-3 2-1 6-1 8 0 7 1 8-4 3-33 0-5-3-15-4-22-2-6-4-15-5-20-2-7-6-23-12-40-1-5-3-11-3-14-6-22-10-34-17-49-11-25-25-39-56-56-18-10-19-11-36-10-14 0-16 0-24 2-5 2-14 4-19 5-20 2-31 10-43 27-11 17-16 34-19 64-2 16-5 34-6 41-2 8-3 68-2 81 2 25 2 32 1 34-1 1-5 3-13 5-14 2-17 2-25 0-7-1-29-2-33 0-1 1-5 3-8 6-4 3-12 9-18 13-7 5-14 10-16 11-3 2-10 7-17 11-6 4-15 11-20 14-11 10-16 12-26 12-4 0-8 0-9 1-2 1-5 7-5 10s-3 11-10 27c-8 17-9 19-12 30-2 6-5 13-6 17-4 8-4 9 4 10 6 0 8 0 19-5 15-6 14-6 24-7 5 0 13-2 18-3 7-1 12-1 19 0h22c13 1 14 0 17-2s5-2 14-2c7 0 13 1 21 4 22 6 41 7 73 6 21-2 25-2 35 0 6 0 15 1 20 2 14 1 24 4 29 8 4 3 5 3 15 3 7-1 17-1 24-2z"/></svg>