<svg xmlns="http://www.w3.org/2000/svg" width="1344" height="566"><path d="M0 283V0h1344v566H0V283m897 279c19-2 23-3 25-6s1-6-3-16c-4-9-8-25-10-34 0-6-3-9-10-13-3-2-8-5-12-8-3-2-16-9-29-16-21-10-25-13-40-23-6-4-18-16-23-24-2-3-6-8-9-12-10-13-16-21-17-25 0-4 2-13 5-21 4-8 7-10 18-10 10-1 12-2 19-9 5-5 6-6 8-13 3-8 6-29 7-42 1-4 2-10 2-15 4-21 4-29 2-41-2-9-3-12-8-23-3-7-8-15-11-19-7-10-28-29-39-35-4-2-28-10-37-11-2-1-5-2-7-2-14-5-20-6-28-6-15 2-49 10-58 15-9 4-17 13-23 24l-4 9v13c1 7 1 15 2 19 2 8 2 69 0 84-1 10-1 11-6 22-7 13-24 37-29 39-2 1-6 2-10 2s-6 1-9 2c-10 6-35 37-43 53-4 8-6 14-16 41-4 10-4 13-1 19 1 2 2 6 2 8 0 4 2 10 5 13 2 1 3 4 4 7 0 2 2 5 3 7 9 13 14 23 14 29 0 8 3 10 14 12 5 1 11 3 15 3 13 2 88 4 201 4 100 0 121 0 136-1z"/></svg>