<svg xmlns="http://www.w3.org/2000/svg" width="1344" height="566"><path d="M0 283V0h1344v566H0V283m376 277h702c48 1 77 1 103-1 41-1 47-2 53-3 2-1 7-2 10-3 8-2 10-4 10-13 0-11-2-17-8-23-6-4-13-10-23-15-3-2-7-5-9-7-7-7-18-32-29-64-6-16-7-19-10-22-4-3-7-4-20-8-6-2-12-3-13-4-6-1-15-14-27-38-8-15-13-29-26-67-2-6-6-17-9-24-3-8-7-21-9-31-11-38-12-41-19-57-7-17-15-23-24-19-4 2-4 4-5 16-1 11-2 14-4 11-1-1-7-12-14-26-16-31-19-36-28-36-5 0-8 1-13 5-2 2-4 3-5 3s-4-3-8-7c-6-6-7-6-11-6-5 0-9 2-11 6-1 2-2 7-2 13l-1 10-2-1c-2 0-5 0-7-1-10-1-13 3-13 18s7 50 14 71c5 12 9 27 10 35 3 20 5 24 31 58 13 17 26 34 38 47 30 35 40 50 61 94 8 18 9 20 6 22-1 1-2 2-3 2s-17-8-21-11c-1-1-6-3-10-5-15-8-37-22-41-27-2-1-7-11-13-21-11-23-14-27-34-42-33-25-39-28-68-27-16 1-22 2-50 5-7 0-19 1-25 1h-12l-3-4c-4-4-5-11-3-26 3-17 8-35 14-40 6-7 7-9 10-24 2-10 2-14 2-21-2-33-23-90-54-149-14-24-24-39-38-54-21-20-46-34-72-40-8-2-12-2-27-2-11 0-23 0-30 1-6 1-15 2-19 2-5 1-11 1-14 2-4 1-11 2-17 2-12 2-16 4-32 11-30 14-47 33-65 68-10 21-15 39-15 56 0 9 0 10 4 18 7 13 8 22 6 42-1 8-1 19-2 25v10l5 12c6 16 7 19 7 33s2 26 7 35c6 13 20 29 34 40 8 5 11 9 12 14 2 5 2 11 1 17-3 8-17 31-22 37-6 6-21 16-28 19-3 1-9 3-12 5-6 3-9 3-11 0 0-1-1-14-1-30l-1-29-4-13c-2-7-6-17-8-21-4-7-5-9-8-10-8-4-16 0-20 10-2 5-2 7-3 35 0 26-1 30-2 32-7 11-15-12-20-57-2-12-4-26-5-31 0-5-2-18-2-29-2-22-4-32-6-36-3-7-12-10-17-6-4 5-5 11-8 44-1 12-2 24-3 27-1 10-4 12-7 3 0-2-3-9-5-16-3-8-6-18-8-23-7-21-14-37-18-41-3-3-9-5-13-5-2 0-4 1-6 2-3 3-4 11-2 21 3 10 6 27 8 43 1 7 3 18 4 25 3 23 4 32 3 33-1 2-3 0-8-8-4-7-11-21-21-42-10-24-12-27-20-29-9-2-15 3-15 11 0 9 10 43 22 77 7 18 6 21-4 11-24-24-24-25-30-28-8-4-12-4-16-1-3 4-3 7-1 14 4 14 13 28 35 56 4 6 11 14 13 18 3 4 9 12 15 18 9 12 24 34 33 49 11 18 17 26 22 28 1 1 6 2 12 2 10 1 17 1 66-1z"/></svg>