<svg xmlns="http://www.w3.org/2000/svg" width="1344" height="566"><path d="M0 283V0h1344v566H0V283m610 278c25-2 22-2 128-1 84 1 83 1 86-4 6-9 1-44-10-78-8-26-15-44-18-49-2-4-2-5-2-15 1-10 1-11-1-13-1-2-5-4-8-6-3-1-10-4-15-7s-11-5-13-6-11-5-21-9c-9-4-22-10-28-13-12-5-19-10-22-14-2-3-1-16 3-42 4-25 4-27 7-39 3-14 3-37 0-62-1-10-3-24-3-32-3-19-6-38-9-51-2-11-11-35-16-45s-20-28-31-36c-9-8-26-17-41-23-12-4-13-4-22-4-11 0-17 1-29 6-5 2-10 3-19 5-17 1-24 5-36 17-25 25-39 62-51 133-1 6-3 17-4 23s-3 17-4 24c-1 8-2 14-3 15 0 1-1 11-2 23-1 23-1 30 2 51 2 11 2 20-1 25-2 5-12 10-24 12-11 1-27 7-49 17-10 4-22 10-28 12-18 8-23 12-26 22-4 15-8 26-12 35-4 10-8 22-12 38-1 4-4 12-5 16-2 5-5 16-8 24-9 33-10 42-5 45 4 3 12 4 24 4h12c2 0 40 0 84 1 44 0 91 0 106 1 41 1 102 1 126 0z"/></svg>