<svg xmlns="http://www.w3.org/2000/svg" width="1344" height="566"><path d="M0 283V0h1344v566H0V283m826 278c52-1 92-2 164-1 22 0 58 0 81-1 52-1 56-2 56-11 0-6-17-53-24-67-2-4-5-12-8-18-5-13-9-19-20-31-4-5-11-13-14-19-4-6-11-16-16-23-13-18-18-27-20-37-1-4-2-9-2-11 0-4 0-4 3-5 2-1 5-2 8-3 2 0 7-2 11-4 11-4 21-7 27-7 4 0 5 0 8-3 4-5 7-11 8-21 2-11 1-17-3-25-5-10-8-19-13-44-4-19-11-29-31-40-5-3-13-8-16-10-4-2-11-6-15-8-14-5-28-13-30-16-4-4-10-15-11-21-7-23-12-35-21-53-15-29-26-44-45-60C884 5 871 4 787 4l-51 1-9 3c-13 4-16 6-27 16-22 20-38 42-47 62-1 5-8 16-15 26-13 20-14 24-16 38 0 10 1 18 7 32 3 7 6 17 8 23 7 19 9 23 17 31 4 4 9 8 10 9 9 5 19 17 24 28 3 6 3 10 5 25 1 10 2 19 3 21 2 7 6 11 15 16 6 4 10 7 13 11s9 11 15 15c6 6 12 12 14 15 6 9 6 13-2 31-14 32-15 34-21 40-7 8-10 14-13 21-4 9-11 34-14 48-2 6-4 14-4 17-1 3-3 9-3 14-2 8-2 9 0 11 2 3 7 4 29 4h18c0 1 7 1 15 1 9-1 39-1 68-2z"/></svg>