<svg xmlns="http://www.w3.org/2000/svg" width="1344" height="566"><path d="M0 283V0h1344v566H0V283m886 274c1 0 4-2 4-4 3-4 4-19 4-50 1-33 0-40-6-60-5-16-7-24-9-34-5-22-7-29-14-51-3-7-6-19-7-25-2-6-4-14-5-17-1-2-3-8-4-13-4-11-14-33-21-41-12-19-25-32-38-37-9-5-12-7-15-14-4-8-5-19-2-35 1-9 1-16 1-24-1-20-6-30-18-43s-24-18-43-17c-9 1-12 1-19 4-4 2-11 5-15 6-9 3-15 8-28 21-16 18-20 29-17 53 1 11 1 12 4 15 6 5 6 8 7 19v11l-3 6c-5 7-8 15-10 23-2 6-7 18-16 37-2 4-4 8-4 9s-2 5-4 9c-4 8-8 14-24 36-9 11-54 56-63 62-17 11-21 13-22 13-1 1-13 0-25 0l-24-1-5 2c-3 2-6 3-7 3-3 0-21 5-24 7-2 0-4 2-5 4-3 4-2 13 2 23 6 13 12 16 34 18 13 1 18 1 35-3 42-11 50-11 57-4 2 2 6 6 9 10 8 11 10 12 24 19l13 6 12 1c15 0 24 2 35 8 9 5 11 7 11 14 0 5 0 5 11 17 14 16 15 16 40 17 11 1 41 1 67 2h49c0 1 17 1 37 0 27 0 38-1 41-2z"/></svg>