<svg xmlns="http://www.w3.org/2000/svg" width="1344" height="566"><path d="M0 283V0h1344v566H0V283m700 280c25 0 31 0 33-1 2-2 1-5-6-9-12-8-48-19-74-22-16-2-21-5-32-17-8-9-11-14-11-16 0-1 4-7 8-14 11-16 22-37 24-46 1-4 4-12 7-18s6-14 7-18c3-11 5-15 11-20 2-2 5-6 6-8 2-5 2-21 1-42-1-10-3-26-4-36-2-25-6-51-9-62-9-30-24-56-43-74-9-9-18-15-32-22-13-6-23-9-38-10-6-1-13-1-16-2-12-2-33-4-39-4-8 1-27 8-38 13-28 14-52 36-62 58-4 10-11 30-12 39-1 5-2 12-3 14-1 3-2 11-2 17-1 6-3 16-4 23-6 33-6 32-6 45 1 21 3 34 4 37 1 2 1 11 2 22l1 20 5 12c3 7 7 17 10 22 7 14 7 15-3 27-12 15-19 22-23 24-5 2-9 3-30 7-27 4-53 10-73 16-45 12-53 16-60 30-7 13-1 15 43 15 14 0 42 0 62-1 55-2 136-1 153 0 11 1 16 1 20 0s7-1 11 0c3 1 14 1 37 0 26-1 41-1 75 0 23 1 48 2 56 1h44z"/></svg>