<svg xmlns="http://www.w3.org/2000/svg" width="1344" height="566"><path d="M0 283V0h1344v566H0V283m496 278c46 0 105 0 132-1h241l2-2c4-3 4-8 0-23-2-6-4-17-5-23-2-23-6-27-31-35-3-1-9-4-13-6-11-6-42-19-58-26-21-8-25-11-27-19-1-4 1-24 4-37 6-27 7-32 10-41 1-5 3-12 4-15s3-9 4-13c2-4 4-15 6-24l2-16v-42c-1-58-3-88-8-113-5-28-17-53-33-67-10-10-27-17-64-28-14-4-33-9-46-12-6-1-14-1-24-1-20 0-26 1-54 15-25 11-42 22-50 30-10 11-21 30-29 52-7 17-10 25-11 36-1 5-3 14-4 20-2 14-7 54-9 71-1 6-2 14-2 17-1 3-2 12-2 19-1 8-2 17-3 20-1 4-1 12-2 19 0 8-2 20-2 28-2 17-3 35-5 60-2 26-5 39-14 48-4 5-26 22-35 28-3 2-9 7-13 10s-11 7-15 10c-34 22-34 23-37 27-2 5-7 24-7 28s2 7 6 7c2 1 27 1 56 0 29 0 90 0 136-1z"/></svg>