<svg xmlns="http://www.w3.org/2000/svg" width="1344" height="566"><path d="M0 283V0h1344v566H0V283m533 276c9-1 18-3 22-5 3-2 10-10 11-13 0-1 0-3-1-5-3-4-2-6 2-14 2-5 4-11 4-14 1-3 2-7 3-10 0-2 1-5 2-7 1-7 2-7 16-7 20 1 24 0 31-13 2-3 5-8 8-11 9-12 17-34 19-55 2-20 3-22 11-38 4-9 8-16 10-17 6-4 8-6 11-11 5-10 6-16 6-35v-18l-3 1c-3 0-6 1-9 3-9 6-11 7-24 8-12 0-14 1-23 8-5 4-34 20-37 20s-11-9-16-20c-6-13-13-23-21-28-3-2-12-7-19-11-14-7-17-10-17-13 0-2 3-8 12-23 1-2 4-7 7-10 8-12 12-23 15-43 2-10 5-21 5-24 5-20 7-41 5-50-2-14-10-25-31-40-20-15-35-20-59-20-9 0-27 5-34 9-6 3-14 13-18 21-11 23-23 67-26 99-1 6-1 12-2 14 0 3-2 9-2 15-1 5-3 12-3 15-1 3-2 8-2 12l-1 7 4 5c3 3 5 5 5 6 0 0-4 10-12 29-3 8-4 24-2 43 1 8 2 21 2 35 0 22-1 28-4 35-3 4-4 22-4 34 1 10 4 23 6 24 1 1 2 4 3 8 1 3 3 7 4 8 1 2 4 12 7 24 0 4 1 8 2 9 1 2 2 11 2 20 2 30 2 31 6 36 6 6 7 6 30 7 15 1 23 1 27 0 10-2 22-2 28-1 9 2 25 3 30 2 2 0 9 0 14-1z"/></svg>