<svg xmlns="http://www.w3.org/2000/svg" width="1344" height="566"><path d="M0 283V0h1344v566H0V283m787 277h85c15 0 15-3 3-13-13-12-21-19-28-29-16-21-18-24-21-38-4-15-7-24-11-33-5-12-10-25-12-32 0-4-3-10-5-13-4-9-17-25-22-28-2-2-10-5-18-8-13-5-30-13-33-17-2-3-2-7 0-11 3-6 12-18 20-24 6-7 8-7 13-8s6-1 12 2c10 6 14 7 19 5 7-2 7-6 3-27-4-18-5-28-3-42 3-24 2-42-4-59 0-2-2-9-3-15-3-24-7-42-14-54-5-11-20-29-27-34-12-8-32-13-54-14-13 0-16 0-23 2-9 2-37 13-51 20-9 4-10 5-23 17-7 8-15 17-18 22-4 5-9 11-11 14-2 4-9 13-14 21-14 22-21 32-29 44-11 14-19 26-21 32-1 2-4 8-7 12-5 8-5 9-6 15-1 14 5 26 15 33 2 1 8 4 13 5 5 2 10 5 11 5 2 2 7 15 9 23 3 23 0 32-21 58-11 13-19 27-20 34-1 5-6 18-15 40-8 19-15 39-19 55-2 8-5 17-6 21-4 14-2 18 9 19 2 1 59 1 128 0h199z"/></svg>