<svg xmlns="http://www.w3.org/2000/svg" width="1344" height="566"><path d="M0 283V0h1344v566H0V283m894 277c23 0 27-1 29-3 3-4 0-20-15-69-3-13-7-29-9-36-6-22-9-36-12-45-1-5-3-12-4-15-9-45-14-62-23-84-7-18-9-22-14-30-1-3-5-10-7-16-8-21-10-25-25-38-7-7-14-13-15-15s-1-3 3-15c4-11 4-14 5-28 1-8 1-25 1-36-1-37-6-50-22-64-10-8-21-13-34-15-27-5-41-1-62 18-7 6-13 17-17 29-3 9-3 12-3 22 0 12 0 13 3 21s3 9 3 20c-1 9-1 13 0 17 3 11 3 15-3 23-10 15-16 20-37 31-32 16-34 21-32 63 1 13 2 30 3 37s2 17 3 21c0 6 1 10 3 14 4 7 8 17 12 27 3 7 3 9 4 28 3 50 1 82-6 95-1 2-3 7-3 11s-2 11-3 16c-2 10-1 13 3 15 3 1 27 1 114 2 61 0 111 0 112 1h12c7-1 23-1 36-2z"/></svg>