<svg xmlns="http://www.w3.org/2000/svg" width="1344" height="566"><path d="M0 283V0h1344v566H0V283m799 278c32-1 79-1 103-1 68 1 137 0 155-1 16-1 16-1 19-4 2-2 2-3 2-7-2-9-14-42-22-59-3-5-9-16-14-23-18-28-21-32-30-48-5-9-12-20-14-24-3-4-6-11-8-15-2-7-2-8-1-10 2-2 11-7 19-10 6-2 7-2 16-1 11 1 12 1 16-6 2-4 3-8 4-15 1-4 1-10 2-12 0-3-1-6-4-13-5-12-6-17-9-28-5-24-8-33-18-44-7-9-15-15-32-24-7-4-19-11-25-15-15-11-19-17-25-46-1-8-4-20-6-26-6-16-21-46-30-57-15-19-38-38-60-48-12-5-16-6-36-9-12-2-19-3-32-3-20 0-27 1-37 6-5 2-15 5-23 8s-17 6-20 8c-7 3-42 37-52 49-4 5-10 13-13 19-3 5-8 13-11 17-2 4-6 10-8 13l-3 6-1 23c0 18 0 25 2 36 3 19 6 35 9 39 1 2 5 10 8 18 6 15 11 25 18 38 2 3 6 10 9 15s7 13 8 19c6 16 7 17 17 24 5 3 8 6 11 10s7 9 9 11c6 4 20 22 23 29 2 3 3 8 4 11 1 4 1 5-2 14-4 11-13 32-16 36-1 2-5 7-8 11-9 10-12 17-18 35-15 43-15 52-3 54 9 1 39 2 53 1 9 0 42 0 74-1z"/></svg>