<svg xmlns="http://www.w3.org/2000/svg" width="1344" height="566"><path d="M0 283V0h1344v566H0V283m724 274c15-1 42-6 60-11 17-4 24-6 28-8 2 0 12-4 23-7s22-7 25-8c9-4 28-10 37-12 25-6 31-6 67-7h34l3-3 2-3-2-10c-2-6-4-15-5-20-2-5-3-12-4-16-1-7-5-18-7-22-1-2-5-8-9-14-8-12-15-25-21-42-5-11-10-20-15-26-3-3-9-6-18-8-4-1-12-5-17-8-14-7-18-9-56-20-12-3-22-10-37-23-8-7-11-12-11-17 0-3 3-10 7-20 8-17 14-33 16-41 1-7 6-17 11-23 5-8 8-14 10-26 3-15 4-34 1-53-1-9-2-18-3-22-1-13-5-36-8-46-4-13-6-18-10-25-5-8-9-10-21-11-11-1-150-1-162 0-6 1-10 1-13 3-9 6-22 28-26 44-3 13-4 39-2 60 6 55 7 59 16 77 5 11 6 14 7 19 1 10-1 14-16 36-8 12-12 16-22 21-7 3-10 5-13 9-6 6-8 11-8 14 0 2 2 9 4 17 3 8 5 17 6 21 1 6 1 7-2 18-2 6-6 19-10 30s-8 23-10 28c-5 19-15 34-35 52-10 9-14 15-14 20 0 2 3 14 7 25 4 12 8 25 9 28 4 22 8 28 18 29 21 3 148 3 186 1z"/></svg>