<svg xmlns="http://www.w3.org/2000/svg" width="1344" height="566"><path d="M0 283V0h1344v566H0V283m807 278h67c36-1 72-2 84-4 4-1 21-1 40-1 26 0 34 0 45 2 7 1 18 2 23 3 10 0 10 0 13-2 3-3 3-5-7-33-9-28-10-28-19-41-6-9-9-14-9-19 0-3-4-8-8-10-5-4-39-18-70-31-13-4-27-12-30-14-2-3-2-4-2-8 0-7 2-15 7-25 6-16 15-42 16-50 2-11 2-92 0-118-3-43-8-78-15-100-1-3-2-8-3-11-3-8-13-27-20-38-8-12-22-26-36-36-19-13-26-16-45-18-14-1-56-1-66 0-6 1-18 4-27 9-5 1-24 16-37 28-20 18-29 36-42 84-8 30-8 33-15 79-6 44-7 54-9 87-1 11-1 24-2 28 0 4-1 11-2 16 0 8-5 32-8 36-3 7-18 16-36 23-7 2-16 6-21 8-10 4-24 11-49 25-10 6-23 11-39 16-9 3-14 7-16 12s-1 15 2 23l2 8-2 9c-2 5-5 17-9 26-4 13-5 18-6 24 0 7 0 8 2 10l3 2h115c76 0 141 1 158 2h28c7 0 28 0 45-1z"/></svg>