<svg xmlns="http://www.w3.org/2000/svg" width="1344" height="566"><path d="M0 283V0h1344v566H0V283m488 127c8-2 22-8 40-17 11-5 15-6 14-2-1 5-1 5 4 8 4 1 6 2 13 2 5 0 14 1 20 1 23 4 37 4 77 5 24 0 49 0 58 1 8 1 18 1 22 1 17-2 32-4 42-7 6-1 12-3 14-3 3-1 13-3 26-7s25-5 38-5c16 1 18 0 20-6 1-4 1-6-1-30-1-10-3-18-4-23-3-8-5-18-5-25 0-5-1-7-3-11-3-7-5-8-10-10-3 0-6-2-8-5-3-3-3-4-3-10 0-7 0-8 2-9s4-3 4-4c2-3 2-4-2-20-2-10-6-22-7-28-5-20-7-26-9-36-2-12-4-18-12-32-15-29-25-39-50-53-4-2-11-5-16-7-7-2-9-2-20-2-8 0-13 0-18 1-4 1-9 3-13 3-18 4-25 7-34 16-12 12-23 38-25 59-1 6-2 14-9 47-1 11-4 25-4 33-1 8-2 14-3 15s-3 1-11 1c-10-1-12 0-23 8-11 9-18 18-25 30-9 17-12 21-21 30-10 9-11 10-29 16-8 3-16 6-19 6-2 1-8 2-13 3s-11 2-13 3c-4 1-5 2-9 11-6 11-18 40-19 46-2 5 0 7 4 7 9 1 34 0 40-1z"/></svg>