<svg xmlns="http://www.w3.org/2000/svg" width="1344" height="566"><path d="M0 283V0h1344v566H0V283m43 276c10-1 87-1 113 0s109 1 120-1c12-2 201-1 225 1 9 0 22-1 29-3 6-2 7-7 5-24-3-16-6-38-7-47-6-52-9-64-25-97-15-28-20-35-44-51-9-6-20-12-23-15-8-4-45-22-46-22s-16-7-35-17c-33-16-41-21-55-33-9-7-12-14-10-24 2-13 8-38 13-48 3-9 6-12 15-17 14-6 28-23 34-38 3-9 4-24 0-32l-2-6 2-12c1-6 3-17 4-23 4-14 5-35 3-39-2-6-5-6-30-7-12 0-67-1-122 0-109 0-103 0-106 6-3 4-8 30-11 52-2 17-2 22-2 39 1 13 2 24 3 33 2 11 9 43 13 57 0 4 1 9 2 12 0 9-1 11-15 13-13 3-14 4-41 26-18 17-28 24-36 29-6 4-8 5-10 9l-3 6v133c0 87 0 133 1 133 1 1 1 2 1 3s1 3 3 4c2 2 3 2 16 1 8 0 18-1 21-1m665 0c95-1 218-1 338 1 110 1 136 1 139-2 2-3 0-13-6-25-4-7-7-12-13-18-4-5-11-13-15-18-13-16-23-25-46-44-7-5-17-14-23-19-7-5-15-12-18-16-4-3-13-10-20-14-13-9-25-18-37-27-11-8-14-9-31-10-15-1-20-2-28-9-6-5-6-8-6-26 2-28 6-42 18-54 8-9 11-14 16-24 8-15 17-49 16-57-1-2-2-6-4-9-2-5-2-6-3-33 0-25 0-28-2-39-6-29-19-46-50-65-15-9-28-14-43-16-12-2-48-2-55 0-16 5-41 20-52 31-17 17-25 37-29 76-1 7-2 14-2 15-3 11-3 41 1 67 2 19 17 73 26 100 3 8 4 28 2 33-2 3-8 7-35 19-50 23-67 32-101 60-28 23-58 59-67 81-4 9-10 30-10 33 0 10 5 11 48 10 14 0 56 0 92-1z"/></svg>