<svg xmlns="http://www.w3.org/2000/svg" width="1344" height="566"><path d="M0 283V0h1344v566H0V283m496 122c8-3 20-8 27-11 9-5 14-6 17-6h4v4c0 4 1 5 4 6 5 2 11 3 35 5 10 1 23 2 28 3 16 2 58 3 68 2 4-1 12-1 17-1 4 1 13 1 20 0s19-1 28-1c17-1 24-2 54-10 7-2 14-4 18-5 4 0 9-2 12-3 7-2 22-2 36-1 8 1 9 0 10-12 0-6 0-13-1-19-1-4-2-11-3-15 0-7-1-9-5-14-3-3-3-3-3-13 0-9 0-11-3-16-1-3-2-6-2-7s-2-3-4-5c-6-4-12-9-14-12-3-5-4-5-19-8-3-1-5-4-3-6 1-1 4-1 11-1 9 0 11 0 13-2 1-2 2-3 2-6s-4-20-8-37c-5-18-6-23-8-35-3-18-5-23-10-34-8-17-18-30-29-40-17-13-30-20-45-24-7-2-24-1-32 1-4 1-10 2-13 3-8 1-16 3-21 6-7 3-17 13-22 21-10 15-12 24-22 76 0 4-1 9-2 10-2 5-5 24-6 37-1 18-1 18-13 17-10 0-11 0-21 7-11 8-19 18-27 35-6 12-8 15-15 23-9 10-14 13-26 17-5 1-12 3-17 5s-12 3-18 4c-13 2-13 2-17 4-4 3-7 9-14 26-2 6-6 15-9 21-4 10-5 14-3 16 1 1 7 1 19 1h18l14-6z"/></svg>