<svg xmlns="http://www.w3.org/2000/svg" width="1344" height="566"><path d="M0 283V0h1344v566H0V283m916 278c15-1 23-3 27-6 1-1 6-4 12-6 15-7 20-12 23-22 2-6 2-9 2-14-1-7-1-9-5-15-8-12-8-12-16-11-14 1-62 0-67-3-2-1-2-2-5-11-1-3-3-5-5-7-3-2-4-2-13-2-8 1-10 1-19 5-13 6-21 12-32 22-10 8-14 10-28 13-13 3-16 3-20-1-2-2-8-13-17-35-7-16-15-34-29-65-12-24-13-28-13-32 0-7 17-27 35-41 4-3 8-6 10-8 2-3 6-6 9-8 8-5 10-9 12-25 2-18 2-21 7-32 5-10 25-50 34-66 9-14 11-20 11-25 0-4 0-5-12-17-8-8-15-16-18-22-9-13-22-26-41-39-12-8-35-18-54-24-18-5-47-4-66 3-16 6-20 8-32 20-22 22-30 33-44 61-7 14-16 28-22 32-6 5-18 11-32 14-23 7-26 9-40 25-15 15-17 19-18 32-1 16-3 24-5 34-3 11-4 16-1 19 1 1 5 6 9 10 10 11 10 10-3 36-6 11-13 27-16 34-4 7-9 19-12 26-11 24-13 33-10 50 2 12 2 23 0 41-2 14-3 18-7 18s-22-12-39-26c-4-4-10-9-14-11-3-2-9-7-12-11l-13-13c-3-2-14-13-24-24l-18-19v-5c0-3 1-9 4-16 1-6 4-13 4-16 1-3 3-9 4-13 1-6 2-11 2-20 0-27-3-36-14-47l-6-7v-6c0-3 2-10 3-15 2-8 2-11 2-22-1-7-1-14-2-16-1-5-6-9-10-9s-10 5-17 14c-3 3-7 8-8 10-5 5-6 8-6 20 0 10 0 12-2 13-2 3-13 6-21 7-12 1-20 7-31 25-7 10-12 27-14 40-1 5-2 15-3 22-2 8-3 17-3 19 1 6-3 16-7 20-1 2-4 3-7 4-5 1-7 4-8 9 0 3 0 4 10 16 11 13 14 19 16 28 1 6 4 14 8 20 2 3 5 8 7 12 2 3 7 9 12 14 4 5 9 10 10 12 3 5 13 15 16 16 6 3 22 7 33 9 8 1 18 1 48 2 93 0 120 0 125 1 15 2 42 3 126 3 66 0 93 0 101-1 7-1 12-1 19 0 5 0 29 1 53 1 25 0 46 0 46 1h51c28 0 53 1 56 1 9 1 18 1 34 0z"/></svg>