<svg xmlns="http://www.w3.org/2000/svg" width="1344" height="566"><path d="M0 283V0h1344v566H0V283m620 277c15 0 26-1 27-1 1 1 166 2 168 1 4-1 6-14 4-32-2-21-18-78-27-95-2-4-2-5-1-14 0-6 0-10-1-12-2-3-8-7-21-13-6-3-21-10-32-15-11-6-26-13-34-16-18-8-24-11-27-14-2-3-2-3-2-12 1-5 2-11 3-13 0-3 2-12 4-19 1-8 3-20 5-26 5-20 7-33 7-48 0-11-3-49-4-56-1-1-1-7-2-13-1-12-3-29-6-42-2-12-13-40-19-50-6-9-15-19-23-27-16-16-51-33-69-35-7 0-20 2-34 7-5 2-14 4-20 5-15 3-23 7-32 16-19 19-30 40-38 73-5 21-7 32-10 58-1 10-6 41-10 63-3 22-4 52-1 70 1 7 1 19 1 25 0 10 0 12-2 15-3 4-11 8-22 10-6 0-11 1-12 2s-6 2-10 4c-13 5-45 20-59 29-19 11-20 12-25 28-2 7-6 17-8 22-6 11-8 18-12 33-1 7-3 16-5 21-4 12-6 21-7 39-3 22-3 26 0 29 1 1 3 2 4 2 2 1 57 1 124 2h122c1 2 81 1 106-1z"/></svg>