<svg xmlns="http://www.w3.org/2000/svg" width="1344" height="566"><path d="M0 283V0h1344v566H0V283m547 277c5 0 34-1 65-1 61-1 97-2 98-2 0-1 4 0 7 0 4 1 9 1 14 0s19-1 59 0c29 1 53 1 54 0 4-1 3-5 0-12-3-5-6-9-15-19-18-17-33-28-55-40-8-4-24-11-26-11s-23-10-36-17c-14-8-21-13-21-17 0-8 9-27 26-53 6-10 15-25 19-33 14-26 24-39 33-46 17-15 23-23 31-40 7-16 10-25 12-34 2-10 0-14-6-19-6-4-7-6-6-12 0-4 5-25 8-43 4-15 5-21 7-43 3-26 3-37-2-55-2-10-14-34-21-43-6-8-11-12-19-14-10-2-66-3-148-2-63 1-75 1-84 3-10 1-12 2-15 4-4 4-16 28-20 41-7 21-12 51-14 80-3 24-4 27-18 28-15 2-22 13-21 34 0 25 9 49 26 67 9 10 9 11 9 28-1 13-4 33-7 45-2 6-8 20-11 24-5 9-9 10-32 10-17 0-39 3-43 6s-9 10-16 22c-8 16-17 29-23 36-4 4-7 8-9 14-3 7-3 8-3 18 0 16 8 81 10 86 4 7 1 6 67 7 56 0 61 0 73 2 13 2 38 3 53 1z"/></svg>