<svg xmlns="http://www.w3.org/2000/svg" width="1344" height="566"><path d="M0 283V0h1344v566H0V283m917 275c6-1 11-3 16-6 8-5 28-22 34-29 4-5 12-19 12-22 0-1-1-4-2-7l-2-6s-1-1-3-2c-3-1-9-1-39-2-35 0-49-1-53-3-2-1-5-7-5-11s-4-10-8-12c-7-2-12-2-25 5-14 8-20 12-32 25-8 9-10 11-17 14-8 4-19 7-33 11-10 2-9 3-33-45-5-12-17-36-25-53-12-24-16-33-15-34 0-1 4-3 7-5 5-2 9-5 14-11 3-4 9-9 11-10 5-4 17-14 28-25 4-4 10-9 12-11 6-4 8-8 11-22 3-16 4-20 13-38 4-9 10-23 13-31 3-9 8-21 12-28 3-7 8-15 10-19s3-8 3-10c0-4-4-11-11-19-2-2-8-10-13-18-4-7-11-15-13-18-14-14-42-32-66-41-15-6-25-7-42-7-10 0-18 0-23 1-9 2-28 9-31 11-5 4-23 20-30 28-11 12-17 19-27 39-10 18-18 31-23 37-8 8-16 12-44 19-18 5-25 10-38 28-11 14-11 15-12 29-1 12-2 20-6 30-2 4-3 8-3 12 0 5 0 5 6 12 4 4 7 7 8 9 3 5 0 14-7 23-9 14-19 33-31 64-3 7-8 19-12 26-8 17-9 19-7 40 1 20 1 22-7 22-4 0-10-3-21-11-4-4-11-8-14-10-5-3-15-12-37-34-30-30-30-31-30-35 0-2 1-7 3-11 1-4 4-14 7-23l5-16v-16c0-13 0-18-2-25-2-10-4-13-11-20-3-2-6-6-7-7-1-3-1-8 2-17 2-5 2-9 2-22 0-8 0-17-1-19-1-7-9-13-13-11-4 1-13 10-17 17-2 4-5 8-7 9-4 2-5 6-5 19-1 10-1 12-3 14-3 2-11 5-20 6-4 0-9 1-10 2-10 5-26 27-30 43-2 6-9 44-10 59-2 15-7 24-16 27-5 2-9 6-9 10 0 2 1 4 5 9 13 13 18 22 20 34 1 9 14 31 27 45 6 7 7 8 11 18 3 7 7 12 11 14 7 3 33 8 50 9 9 1 50 1 98 1 62 0 84 0 87 1 5 2 129 2 190 0h60c37 1 166 3 188 2 11 0 19-1 25-2z"/></svg>