<svg xmlns="http://www.w3.org/2000/svg" width="1344" height="566"><path d="M0 283V0h1344v566H0V283m742 278c15 0 30-1 36 0 11 1 92 1 107 0 9-1 12-1 17-3 10-5 16-16 21-34 2-6 4-13 5-15 1-3 2-8 3-11 1-7 7-24 13-42 7-17 8-20 6-24s-9-9-23-16c-14-8-36-21-40-24-2-2-4-5-5-6-1-4-3-17-4-50-1-15-1-29-2-33 0-4-1-14-2-23 0-14-1-21-5-40-5-29-7-37-14-50-12-26-25-48-35-62-8-9-10-15-10-38-1-21-4-27-18-39-10-10-16-13-30-18-18-6-29-8-45-8s-17 0-34 10c-6 3-12 5-17 6-17 4-38 21-46 37-6 11-15 40-19 59-3 13-8 48-9 63 0 9-2 27-3 41-2 34-1 101 1 119 2 12 2 19-1 22 0 1-3 2-6 3-2 0-9 2-14 4s-13 5-17 6c-18 7-67 26-71 29-5 3-7 6-9 17-1 5-4 17-7 27-12 37-20 78-17 86 0 1 2 3 3 4 3 1 8 1 55 1 71 0 99 0 110 1 6 1 26 1 46 1s39 1 42 1 7 1 8 0c2 0 15 0 30-1z"/></svg>