<svg xmlns="http://www.w3.org/2000/svg" width="1344" height="566"><path d="M0 283V0h1344v566H0V283m554 275c50 0 86 0 90-1 7-1 11-3 14-7 2-3 2-3 1-13-1-8-1-11 0-16s1-7-1-17c-5-27-9-52-9-58 0-9-4-45-5-50-1-2-2-8-2-12-3-16-13-41-21-52-3-4-6-9-8-13-3-6-10-25-10-27 0-1-2-5-5-10s-7-12-9-16c-5-10-8-12-18-16-6-2-12-6-14-7-5-4-7-4-19-7-11-1-15-4-19-9s-4-11-1-20c0-3 2-10 2-15 1-5 3-13 3-18 2-9 2-28 1-34-2-7-13-28-20-36-8-11-12-14-25-17-11-3-19-2-37 3-20 6-35 14-46 24-18 16-22 33-14 57 3 9 5 20 5 35 0 10 3 26 6 35 4 13 10 22 20 29s10 10 2 18c-5 5-15 20-19 28-5 10-7 20-9 44-1 18-3 32-7 48-1 6-3 16-4 20-5 22-12 81-13 106 0 13 0 16 1 19 2 3 3 4 15 6 7 1 18 1 51 0 23 0 79 0 124-1z"/></svg>