<svg xmlns="http://www.w3.org/2000/svg" width="1344" height="566"><path d="M0 283V0h1344v566H0V283m598 277c70 0 354 0 409 1h44l2-2c2-2 2-3 2-8-1-3-3-11-5-18l-4-13 1-11c1-7 1-13 1-14-1-3-8-7-39-22-14-7-42-21-57-29-19-11-21-13-21-25 0-9 2-28 5-49 5-37 6-40 5-80 0-64-4-105-13-144-11-43-23-68-44-90-18-17-35-28-63-39-12-5-18-6-30-6-13 0-21 2-30 6-8 4-9 4-17 4-22 0-32 5-52 24-12 11-15 15-22 29-14 25-24 60-26 88-1 6-1 16-2 23-2 16-1 74 1 86 1 7 1 10 0 16-2 11-5 17-16 28-14 15-13 13-14 42v31c-1 9-4 12-12 16-5 3-8 3-17 4-11 1-16 2-30 7-5 2-11 5-14 5-6 3-28 12-36 15-5 2-14 6-21 9-16 6-21 8-22 11-1 1-1 6 0 12 0 10 0 11-2 20-2 5-6 16-9 24-12 33-15 45-11 48 3 3 6 3 159 1z"/></svg>