<svg xmlns="http://www.w3.org/2000/svg" width="1344" height="566"><path d="M0 283V0h1344v566H0V283m600 277h217l4-2c4-3 10-13 17-27 4-9 4-9 4-21 0-11 0-12 3-19 2-3 8-13 12-21 12-20 23-42 25-49 2-6 9-18 17-26 2-3 5-7 6-9 2-5 3-12 1-16-1-1-2-6-3-9-1-8-5-15-8-17-3-1-3-1-7 1-5 4-7 3-9-3-1-6-7-11-12-11-2 0-5 1-7 2-6 1-9 1-10 0 0-1 2-6 5-11 9-13 11-17 11-26 0-7 0-8-3-11-4-4-8-6-11-6-4 1-9 6-9 8 0 8-18 30-29 35-5 3-6 3-12 3-11-2-15 2-27 19-10 15-16 31-21 54-3 12-7 27-11 37-6 14-25 53-29 57-2 2-6 4-8 6-3 1-5 2-6 3 0 1-2 6-4 11s-4 10-5 11c-3 4-6 2-9-5-3-5-19-25-28-36-8-9-13-18-13-23 0-2-4-13-9-24-6-12-11-17-26-27-12-8-17-13-17-16 0-1 2-6 4-10 3-4 7-11 9-16 2-4 6-11 9-14 2-4 6-10 7-12 4-6 14-19 21-26 8-9 8-10 12-42 1-4 2-13 3-20 1-8 3-22 3-32 1-10 2-25 3-32 2-17 2-52 0-66-1-12-4-24-7-28-5-11-24-29-36-35-2-1-7-5-12-9-16-11-38-21-55-24-4-1-9-1-17 0-14 0-26 1-37 0-9-1-10-1-22 3-30 10-40 17-53 35-12 16-29 65-41 116-1 7-3 14-3 16-1 3-5 18-8 32 0 3-2 10-3 14 0 5-4 22-7 39-5 24-7 34-8 46-1 9-2 19-2 24-1 12-1 22 1 30 2 12 2 15-10 35-11 19-18 34-30 62-4 10-9 21-11 25-4 10-5 15-1 21 2 5 2 7 3 17 1 12 2 15 5 17 1 0 8 1 15 1 15 1 188 3 215 2 9 0 38 0 64-1z"/></svg>