<svg xmlns="http://www.w3.org/2000/svg" width="1344" height="566"><path d="M0 283V0h1344v566H0V283m1296 278c3-2 5-9 6-22 1-7 2-18 3-25 1-17 3-62 4-91 0-22-2-65-4-77-1-10-4-28-5-33-10-33-13-39-21-51-7-11-15-21-27-32l-17-17c-7-11-12-14-18-16-10-2-13-5-19-18-7-13-8-26-5-56 1-9 1-15 0-27-1-14-1-16-5-28-3-7-6-14-7-15-2-3-13-9-22-12s-25-3-37 0c-16 4-26 10-37 22-5 5-10 11-11 13-3 7-4 14-2 21 1 3 2 9 2 16 0 18 7 53 13 62 0 1 2 6 3 10 4 14 3 14 18 20 8 3 10 8 6 16-1 2-7 10-14 17l-13 14-2 6c-1 10-4 21-6 25 0 1-1 5-2 7 0 2-1 5-2 7s-2 5-2 7c-1 3-2 6-2 7-2 4-6 18-6 27-1 3-2 10-2 14-3 11-5 30-6 49-1 20-3 30-7 35-9 12-27 26-32 26-3 0-15-3-28-8-7-3-16-4-19-2-4 2-4 5 1 11 5 5 7 8 7 11s-6 11-14 17c-10 8-10 11-4 14 2 2 5 5 7 8s6 7 7 9l4 4 3-1c11-5 18-3 19 6 0 2 2 3 16 4 8 0 16 2 17 2 4 2 6 6 6 12 0 10 0 10 26 11 22 0 124 1 194 2 26 0 35 0 36-1m-950-2c4-1 15-1 34-1 28 0 29 0 31-2 2-1 4-4 4-7 3-6 5-22 5-30s0-9 10-7c6 1 6 1 13-2 4-2 7-3 9-3 4 2 6 0 9-6 1-3 2-6 2-7 0-2-3-6-11-15-3-4-5-8-7-13-3-8-5-10-15-13-6-2-7-3-9-9-2-5-2-7-2-17s0-14 3-26c5-20 5-22 4-29-1-3-2-8-2-10s-1-7-2-12c-2-4-3-9-3-11-1-5-7-18-13-25-5-8-14-17-22-22-5-4-11-9-11-11l4-6c2-3 5-9 7-14 3-7 5-8 11-13 4-4 7-7 7-8 1-2 2-6 2-10 2-8 4-28 4-29-1 0-2-10-3-21-1-23-1-25-4-32-3-6-6-8-15-13-11-7-16-9-27-11-19-4-30-3-44 5-13 6-18 16-22 38-4 25-8 110-5 116 2 4 1 7-5 15-5 7-16 28-16 31 0 1-1 4-2 8-6 21-8 36-10 63 0 7-1 16-2 20-1 5-1 10-1 11 1 2 2 10 2 18 1 8 3 16 4 20 7 18 6 14 6 52-1 22-1 35 0 36 2 3 70 5 82 2m371 0h155l25 1 2-2c3-3 3-3 2-11-1-31-2-39-4-45-1-4-1-9-1-16 0-9 0-13-2-19-2-8-2-10-2-42 0-20 0-39 1-47 0-8 1-20 2-28 0-7 2-20 3-29 4-41-3-67-28-100-14-19-16-20-32-33-11-8-15-11-17-15-4-7-6-9-11-11-6-2-6-2-12-12l-4-8-1-16c0-11 0-17-1-20-1-4-2-8-1-16 0-11-1-23-5-36-2-6-3-7-8-12-4-4-9-7-13-9-7-4-8-4-19-4-13 0-21 2-33 9-8 5-13 10-18 17-2 4-3 5-3 17 0 13 2 33 4 37 0 1 1 4 2 7 1 13 9 31 19 46l8 12c2 3 5 9 6 12 2 5 2 5 1 8-1 2-5 7-9 12-15 17-18 21-20 35-1 5-3 11-4 13s-3 8-4 12c-1 5-4 12-6 16-2 6-6 17-7 26-1 2-3 13-5 24-2 12-5 30-7 40-4 25-7 35-9 41-2 3-3 9-4 14-1 4-2 9-2 11-1 2-1 10-2 18s-1 17-2 20c0 4-2 13-3 22 0 9-2 19-3 24-1 7-1 10 0 17 1 10 4 17 6 19 3 1 8 2 20 1h46z"/></svg>