<svg xmlns="http://www.w3.org/2000/svg" width="1344" height="566"><path d="M0 283V0h1344v566H0V283m711 277c6-1 14-2 19-4 4-1 5-5 6-24 0-17 0-19 3-25 2-5 1-8-3-11-3-1-4-4-7-11-2-5-5-13-6-17-4-9-5-13-12-26-5-10-5-11-5-16 1-7 0-13-3-16s-5-4-18-9c-4-2-15-6-23-10-18-7-33-13-46-17-10-4-28-11-33-14-6-4-9-8-9-15 0-9 3-20 8-36 9-26 10-29 11-41 2-27-3-70-12-103-9-35-24-74-38-95-5-8-16-19-27-27-14-11-43-21-65-24-14-2-25-1-33 3-17 8-45 23-52 29-10 7-16 14-23 29-15 31-21 64-29 147-7 70-8 103-2 137 2 14 2 14-22 24-19 7-19 7-43 23-13 8-28 18-34 21-13 7-15 9-16 21-1 9-4 19-8 31-3 10-9 34-11 48-1 7-1 22 0 24 1 4 4 4 40 5 36 0 79-1 85-3 2-1 4-1 7 0 8 2 119 4 280 3 78 0 117 0 121-1z"/></svg>