<svg xmlns="http://www.w3.org/2000/svg" width="1344" height="566"><path d="M0 283V0h1344v566H0V283m826 278c18 0 29-2 31-4 2-3 2-20 0-27-1-3-2-8-3-12 0-4-1-8-2-9-1-2-5-9-9-17-7-15-9-21-9-33 0-8 0-8-4-12-3-4-15-11-28-16l-24-12c-19-9-46-22-51-23-7-3-34-17-37-19-3-3-4-8-5-23-1-14-1-17 2-63 3-39 4-38-1-65-2-13-5-27-5-31-1-4-2-8-2-9-1-2-5-15-10-31-5-15-11-30-20-47-10-19-18-31-32-44-26-26-54-39-89-41-18-1-26 2-47 13-6 3-14 7-19 9-11 3-16 7-24 15-21 21-33 55-38 103-2 26-2 122 0 142 1 8 2 19 3 23 0 5 1 13 2 18 2 18 5 41 5 44-1 1-2 2-5 3-14 4-24 8-53 21-8 4-15 7-16 7-2 0-39 20-41 22-1 1-2 4-2 6s-1 11-3 19-3 18-3 22c0 7 0 7 4 12 3 2 7 6 10 8 11 8 65 35 82 41 4 2 10 4 13 6 7 3 13 4 83 5 34 0 62 0 62 1 1 0 267-1 285-2z"/></svg>