<svg xmlns="http://www.w3.org/2000/svg" width="1344" height="566"><path d="M0 283V0h1344v566H0V283m853 278c55-1 71-1 149 1 47 0 76-1 81-4 3-2 3-4-1-15-2-5-5-13-7-19-1-5-5-15-8-21-8-21-14-36-16-42-2-7-6-17-13-33-2-7-7-18-9-26-8-20-10-26-16-38s-12-22-18-26c-2-2-13-8-23-13-12-6-27-14-35-18-25-14-26-14-24-42 1-25 0-48-2-60-1-10-5-19-11-32-11-20-20-28-44-43-18-10-26-15-36-17-11-3-42-5-51-4-13 2-32 10-46 19-11 7-29 27-34 39-3 4-9 27-9 31s-5 19-12 35c-6 14-9 25-7 36 1 12-4 21-13 26-5 2-22 8-33 12-21 7-40 18-53 30-10 9-12 12-19 37-4 16-11 34-17 46-3 7-9 18-13 27-11 23-13 28-16 32-11 16-22 48-24 70 0 5 0 6 2 8 2 1 5 2 8 3 8 1 109 1 175 0 50 0 68 0 78 2 5 1 20 1 117-1z"/></svg>