<svg xmlns="http://www.w3.org/2000/svg" width="1344" height="566"><path d="M0 283V0h1344v566H0V283m738 277c10-3 16-7 19-10 0-2 2-7 2-11 1-5 1-12 2-15 1-6 1-9-1-16-2-5-2-9-2-14 1-4 1-14 2-22 0-9 2-26 4-38 3-29 4-50 2-65-1-10-2-14-7-27-8-22-12-30-27-48-11-12-12-14-12-18 0-2 3-12 6-21 11-31 11-31 12-65 1-33 1-43-4-58-4-12-9-27-14-36-9-16-31-33-61-46-16-7-23-9-39-10-41-3-80 7-100 27-18 17-27 34-34 69-9 38-8 34-13 39-8 7-7 6-7 39v29l-3 4c-5 7-16 14-43 24-35 14-56 25-84 44-20 13-31 22-48 38-16 15-26 27-37 43-8 12-17 29-17 33 0 1-1 4-2 7-11 29-12 37-11 82 1 36 1 38 8 41 3 1 9 1 48 0 67-1 231-1 245 1 8 1 42 1 105 2 52 0 95 0 95 1 1 1 8 0 16-3z"/></svg>