<svg xmlns="http://www.w3.org/2000/svg" width="1344" height="566"><path d="M0 283V0h1344v566H0V283m712 278c2-1 4-1 5-1 5-1 7-7 8-22v-16c-1-1-1-3-1-5 0-1-1-5-2-8s-2-6-2-8 0-3-1-3c-2-2-8-14-13-26-3-8-5-14-5-14 0-1-2-6-5-12-5-10-5-11-5-19 0-11-1-13-8-16-19-9-29-13-41-18-7-3-14-6-15-7-2-1-10-4-19-7-23-7-41-15-45-20l-3-3v-10c1-11 3-20 6-28 1-3 5-14 8-24l6-18v-20c1-22-1-37-10-79-8-42-24-84-38-101-12-15-37-36-54-44-15-7-26-10-42-12-9 0-10 0-20 3-5 2-13 5-18 7-15 8-19 10-23 11-17 2-37 23-48 50-5 12-10 27-12 36-7 29-15 75-18 107-3 27-6 103-4 116 1 4 1 12 1 17 0 8 0 8-3 11-2 1-7 4-12 6-15 6-25 12-33 17-4 3-8 6-10 7-1 1-5 4-9 6-3 3-12 9-21 13-21 11-22 13-24 27 0 4-2 11-4 16-9 26-11 31-11 36-1 2-2 8-3 12-2 14-3 22-3 30 0 7 0 7 3 10l3 3h60c41-1 62-1 64-2 3-1 5-1 8 0 2 1 25 1 72 2h70c0 1 270 0 271 0z"/></svg>