<svg xmlns="http://www.w3.org/2000/svg" width="1344" height="566"><path d="M0 283V0h1344v566H0V283m745 177c6 0 13-2 16-2 2-1 6-2 8-2 8-2 27-6 36-9 5-1 12-3 15-3 3-1 9-3 14-4 17-5 19-5 41-5 26 1 25 2 25-13 0-6-1-13-1-17-3-12-5-31-4-47 1-24 1-24-3-31-4-9-11-15-23-18-6-3-11-7-12-11-2-5-2-5-13-10-5-2-6-6 0-7 2-1 6-1 8 0 3 0 4 0 5-2 2-2 2-4 1-12-1-15-6-38-9-50-1-2-3-8-4-12-1-7-6-24-11-39-1-5-3-11-3-14-5-21-9-32-15-46-13-28-26-42-58-59-18-10-19-10-36-10-14 0-16 0-26 3-6 1-13 3-17 4-7 0-18 4-24 7-6 4-13 11-19 21-11 17-16 34-19 64-1 9-2 16-3 16 0 1-1 6-4 34-1 11-1 72 0 82 2 19 1 24-4 25-2 1-7 2-12 3-10 2-14 2-22 0-7-1-29-1-33 0-1 1-5 3-8 6-4 3-12 9-19 14s-20 13-29 19c-8 6-19 13-23 17-11 9-16 11-26 11-4 0-8 0-9 1-2 1-5 7-5 10s-4 13-11 28-9 21-11 28c-1 4-3 10-5 14s-3 9-3 10c0 3 0 4 5 4 7 0 9 0 21-5 12-6 13-6 23-7 5 0 13-2 18-3 7-1 12-1 19 0h22c13 1 14 0 17-2 6-3 19-3 37 2 20 5 41 7 64 6 23-2 37-2 50 0 6 1 13 2 16 2 10 1 21 5 25 8s5 3 15 3c7-1 17-1 23-2z"/></svg>