<svg xmlns="http://www.w3.org/2000/svg" width="1344" height="566"><path d="M0 283V0h1344v566H0V283m716 276c8-1 11-4 14-9 4-9 1-14-9-15-9-1-9-1-8-29 1-29 3-46 4-51 2-6 7-7 17-7 5 1 10 1 12 2 5 2 27 4 40 4 12 0 20-1 44-3 5-1 14-2 20-2 15-2 38-6 45-8 20-6 39-16 50-24 9-7 11-9 17-18 4-6 5-8 5-13 0-9-7-26-19-46s-17-26-27-32c-3-2-9-7-14-10s-13-9-19-12c-9-4-13-7-18-11-7-7-14-11-29-17-4-1-12-5-19-8s-16-8-21-9c-5-2-12-5-17-7-4-2-8-4-9-4-4 0-13-4-24-10-31-18-38-25-50-46-5-8-5-8-7-24-4-33-9-47-23-67-5-8-20-21-28-26s-22-11-31-13c-4-1-15-3-24-4-13-2-18-2-26-1-18 1-24 3-45 14-29 15-37 24-45 51-6 16-19 40-30 51-6 6-25 14-40 17-2 0-6 1-9 3-10 4-23 7-32 8-9 0-12 1-24 9-13 8-31 16-43 19-41 12-46 14-60 36l-7 10-1 10c-2 23-2 27 0 34s9 21 15 29c6 9 24 27 37 37 7 4 15 10 18 13 4 4 13 9 20 13 14 7 17 9 21 15 7 9 9 27 6 60-1 27-4 42-9 61-5 16-5 26-2 29 2 2 3 2 18 2 15-1 187-1 188-1 0 1 14 0 31 0 22-1 34-1 41 0 14 2 97 2 106 0z"/></svg>