<svg xmlns="http://www.w3.org/2000/svg" width="1344" height="566"><path d="M0 283V0h1344v566H0V283m700 17c6-2 7-3 6-10 0-5 0-6 2-9 2-4 9-10 16-14 6-3 8-5 10-9 3-5 5-21 6-34s2-15 7-12c7 4 12 1 16-10 5-12 4-15-15-43-18-28-22-32-36-34-12-2-19-4-22-7-2-2-3-4-3-13-1-14-3-19-9-25-7-7-11-9-16-9-6 0-14 4-17 8-5 6-5 20 1 33 6 12 7 17 7 24 0 8-2 13-12 23-8 9-10 14-11 24-1 12-8 31-13 39-1 2-2 4-2 8 0 2-1 9-1 14-1 8-1 10 0 13s12 15 16 17c3 1 8 1 13 0 4-2 5-2 8 3 2 4 4 5 9 8 4 2 9 5 12 8 8 9 14 10 28 7z"/></svg>