<svg xmlns="http://www.w3.org/2000/svg" width="1344" height="566"><path d="M0 283V0h1344v566H0V283m827 278c8-3 10-5 15-15l5-9v-23l6-12c4-7 11-19 16-28 5-8 14-24 19-35 8-18 11-22 16-28 12-13 15-21 11-32-2-4-3-9-4-12 0-7-5-15-8-16-2-1-3-1-5 0-3 2-11 17-11 20s-5 12-8 16c-3 2-12 5-14 4-3 0-3-4-2-8 1-3 10-19 15-26 2-3 4-12 2-15 0-1-3-3-5-4-4-3-4-3-14-3-7 0-11 0-12-1s0-3 3-7c8-12 14-30 12-38-1-5-6-9-10-10-7-1-12 3-16 12-2 4-5 8-14 17-7 8-13 13-16 14-2 1-8 1-17 2-11 0-14 1-16 2-5 3-12 14-18 26-8 15-10 21-18 56-4 16-7 25-15 41l-6 14c0 1-22 42-27 49-4 7-9 12-11 12s-7-4-21-17c-7-8-14-15-15-16 0-2-2-8-3-14-1-8-2-11-6-19-3-6-6-12-8-14-3-4-10-9-23-18-12-7-17-10-17-13l6-4c12-5 12-7 20-35 3-12 6-20 15-42 3-6 6-15 7-19 3-11 5-46 5-61-1-17-4-50-5-56-1-3-1-10-2-16-1-14-7-45-10-56-8-27-18-45-36-63-19-18-36-29-54-35-9-3-11-3-23-3-13 0-15 0-22 2l-16 4c-13 1-27 5-34 7-26 10-49 40-62 82-1 3-3 10-5 15s-3 12-4 15c-1 4-3 12-4 20-2 7-5 22-7 34-2 13-5 31-7 42s-4 23-5 26c-3 12-4 28-4 71 0 22 0 46-1 52l-1 11-7 10c-15 23-30 50-35 66-5 11-7 18-13 31-2 6-4 12-5 14 0 4 0 6 3 11 3 3 4 8 5 12 1 7 4 10 9 11 5 2 140 2 243 1 83-1 177-1 209 0 15 1 28 1 28 2h24c17 0 25 0 28-1z"/></svg>