<svg xmlns="http://www.w3.org/2000/svg" width="1344" height="566"><path d="M0 283V0h1344v566H0V283m791 276c30-1 42-1 49 0 12 1 124 2 140 0 7-1 18-1 26-2 13 0 14 0 16-3 2-2 2-2 2-15 0-7-1-16-1-20-1-5-3-21-4-37-2-32-2-31 0-43 1-9 1-9-1-14-6-10-14-17-31-25-6-3-10-5-11-5l-10-4c-5-3-11-6-14-7-4-1-7-3-14-10-5-4-11-9-12-10-5-1-8-5-8-8 1-3 6-6 13-6 4 0 6 0 8-2l2-4c0-1 1-9 2-18 1-18 0-39-2-58-1-4-2-11-3-15-4-29-20-108-24-123-11-35-23-58-39-72-11-10-21-17-35-24-17-8-41-17-51-18s-16-1-31 4c-7 1-15 3-18 4-9 2-37 11-45 15-8 5-18 15-25 25-2 3-7 13-10 21-9 20-9 24-9 63 1 27 1 33-1 44-2 15-3 39-1 50 1 8 5 23 7 28 0 3 2 9 3 15 1 10 1 13 0 21-2 16-3 18-6 20-4 1-4 1-7-1-1-1-4-2-5-2-1-1-4-3-6-4-4-4-10-7-11-6 0 1 0 3 1 5 1 3 1 3 0 5-2 0-4 1-5 1-4 0-6 1-6 4 0 1 2 2 3 2 2 0 4 1 4 2 2 3-1 5-7 6-7 1-12 4-14 8 0 2-2 5-3 6-3 2-3 1 2 14 1 3 1 3-1 5s-24 7-26 7c-1-1-3-4-5-7s-5-8-7-9c-5-5-24-13-31-13-3-1-6-2-8-3-5-1-17-1-22 0-2 1-5 4-8 7-2 3-10 11-17 16-12 11-13 12-32 39-4 7-5 8-15 12-8 5-11 7-17 14-12 11-15 13-32 15-12 2-16 2-25 1-13-1-16-1-22 4-5 4-4 5 8 8 5 1 12 3 14 4 5 2 10 7 11 11 1 6-3 20-16 43-12 25-14 30-11 33s27 4 73 4c22-1 59 0 82 0 70 2 120 3 126 2 7 0 111 1 112 2h11c6-1 28-1 50-2z"/></svg>