<svg xmlns="http://www.w3.org/2000/svg" width="1344" height="566"><path d="M0 283V0h1344v566H0V283m691 277c49-1 138-1 198-1 113 1 111 1 111-4 0-1-11-7-18-9-3-1-9-4-14-9-5-3-12-8-15-10-4-2-10-7-16-11-14-12-23-17-35-24-6-3-15-8-19-11s-8-5-9-6c-1 0-18-19-22-25-2-2-5-9-7-14s-6-14-9-20-8-16-10-24c-3-7-7-16-9-21-5-10-5-13 0-16 2-1 9-5 17-10 14-10 28-17 32-18 2-1 5-2 6-4 3-2 3-4 3-8 0-5-1-7-5-16-14-29-17-39-19-73-2-26-5-47-10-66 0-3-2-10-3-16-6-29-9-36-25-53-14-13-26-22-37-26-17-7-49-11-67-8-8 1-33 9-45 15-18 8-27 18-36 38-8 17-12 32-22 79-8 37-9 46-11 81-3 36-3 38-16 51-4 5-8 9-9 11 0 1-1 5-1 9 0 9-2 13-10 25-9 13-17 25-22 35-3 5-7 14-11 20-10 19-26 56-30 69 0 2-3 10-5 18-5 17-9 38-9 43s1 7 4 9c4 2 47 2 205 0z"/></svg>