<svg xmlns="http://www.w3.org/2000/svg" width="1344" height="566"><path d="M0 283V0h1344v566H0V283m815 278c24-1 25-1 28-3 1-2 2-3 2-6 0-4-6-23-10-36-2-5-5-13-7-18s-4-12-6-16c-2-5-2-9-3-16 0-11-2-14-9-19-5-4-22-13-39-20-5-3-23-11-38-19-16-8-31-15-35-16-15-7-23-13-25-20-2-8 0-39 5-59 4-16 7-38 7-50 0-8-4-36-6-41 0-1-1-5-1-8-1-3-3-11-4-17-3-12-4-16-8-35-7-31-17-57-31-78-8-13-24-28-38-38-11-9-36-18-51-21-4-1-14-1-22-1-20 0-29 3-43 12-5 4-8 5-17 7-18 3-23 6-34 19-22 27-33 59-41 114-2 18-3 43-3 91s1 91 3 103 2 21 0 23c-1 1-3 2-5 3-9 1-15 3-43 17-18 8-44 21-57 27-14 6-15 10-7 26 3 5 7 11 9 13 6 7 17 15 39 27 11 7 23 15 28 19 6 4 13 8 20 11 6 2 14 6 19 8 9 6 20 10 30 12 31 5 27 5 75 6h46c0 1 251 0 272-1z"/></svg>