<svg xmlns="http://www.w3.org/2000/svg" width="1344" height="566"><path d="M0 283V0h1344v566H0V283m611 276c4-1 10-1 11-1 11 3 23 3 87 3 55 0 72 0 74-1 3-1 6-1 15 0 10 2 15 2 27 2 8-1 16-1 18-2 2 0 56-1 120 0 106 0 127 0 138-3 3 0 5-5 5-12-2-18-8-44-13-55-2-4-6-13-10-19-12-19-12-19-15-26-1-4-4-9-6-11-4-4-25-16-54-30-11-5-26-12-33-15-7-4-19-9-26-12-20-9-26-12-27-15 0-2 2-6 8-16 11-17 13-21 18-32 7-17 10-32 13-58 0-4 1-12 1-17 2-14 2-53 0-64-4-18-14-47-22-61-3-6-6-10-18-22-27-26-36-33-56-41-16-6-23-7-36-8-15 0-21 1-34 7-7 4-10 4-21 6-16 1-22 4-32 11-17 13-24 21-32 37-5 12-15 39-19 50-1 4-4 13-6 19s-5 15-6 20c-2 9-2 11-2 39 1 16 2 41 2 54 2 31 3 32 13 38 4 2 9 5 11 7 4 4 4 4 9 4 6-1 14 1 16 4 3 3 2 8 0 11-1 1-3 5-5 9-2 3-5 7-7 9-5 4-33 16-52 22-5 2-14 5-20 7-26 12-38 16-53 18-13 3-14 4-18 11-1 4-7 13-12 21-9 14-12 19-22 35-3 4-6 11-8 16-8 22-14 37-17 44-3 8-4 13-2 15s17 3 35 3c9 0 21 1 27 1 14 1 25 0 36-2z"/></svg>