<svg xmlns="http://www.w3.org/2000/svg" width="1344" height="566"><path d="M0 283V0h1344v566H0V283m767 278c11-1 15-3 17-6 1-2 1-9 0-12 0-2-1-9-1-17-1-9-2-17-3-22-1-3-2-9-3-12s-2-9-3-14c-4-18-4-39-1-80 3-36-3-74-16-97-1-2-7-10-14-16-11-12-14-16-14-20 0-5 5-28 8-37 10-30 13-44 12-70-1-21-3-31-8-47-8-30-18-43-47-60s-47-24-70-25c-22-1-43 2-60 8-21 6-34 14-45 26-18 20-25 38-29 72-4 25-6 35-7 38-1 1-4 3-6 4-8 3-10 10-8 24 1 7-1 19-4 26-2 5-13 20-19 27s-15 13-27 18c-23 9-66 37-93 60-20 17-50 52-63 73-9 16-14 31-19 60-2 16-2 58 0 67 1 4 2 9 3 13 0 7 3 14 7 16 3 2 5 2 32 3 17 0 48 0 71-1 57-2 132-2 153 0 11 1 39 1 70 2 29 0 66 0 84 1 47 1 90 0 103-2z"/></svg>