<svg xmlns="http://www.w3.org/2000/svg" width="1344" height="566"><path d="M0 283V0h1344v566H0V283m796 279c7-1 69-1 137-1 68-1 130-1 138-2 14-1 14-1 17-3 3-4 3-7-1-17-8-27-17-48-29-67-20-31-51-88-52-96 0-5 3-10 9-13 4-2 6-3 19-3h15c2 0 7-12 9-24 3-14 2-15-4-30-2-4-4-11-5-16-3-16-7-29-10-37-6-12-21-25-38-34-13-7-31-18-37-24-6-5-10-15-14-31-6-25-10-37-17-54-4-8-9-18-11-20-1-3-4-8-6-11s-6-8-9-11c-2-3-6-7-7-9-7-9-31-26-46-33-17-8-38-12-65-13-22 0-32 1-49 8-4 2-12 5-18 6-16 5-22 9-38 23-22 19-39 38-45 50-5 9-7 12-15 22-12 14-13 19-12 45 1 19 3 26 11 51 11 33 16 46 27 60 10 14 15 27 19 45 3 15 6 20 13 25 3 3 7 6 9 9 8 7 21 22 25 28 2 3 4 6 5 7 3 4 9 18 10 22 0 6-1 8-14 43-1 2-5 7-10 12-11 12-16 23-28 63-5 18-5 19-4 23 3 4 5 5 19 7 13 1 74 1 102 0z"/></svg>