<svg xmlns="http://www.w3.org/2000/svg" width="1344" height="566"><path d="M0 283V0h1344v566H0V283m728 269c3-1 6-6 7-11 1-4 0-7-3-22-4-15-5-24-2-35 3-12 4-16 5-46 1-29 2-36 13-69 2-7 4-14 5-14 2-4 11-41 14-56 1-9 4-15 9-21 3-3 6-7 7-9 3-5 11-22 11-28 1-2 2-6 3-8 2-5 2-25-1-36-1-5-1-10-1-14l1-7-5-4c-11-9-11-9-13-16-1-8-12-40-16-49-4-8-8-12-15-15-5-3-6-3-14-3-11 0-19 3-25 9-5 6-8 12-9 24-1 9-1 11 0 18 2 11 3 21 1 24-1 1-4 2-6 3s-6 3-10 4c-4 2-9 5-13 8-3 3-8 7-11 9s-10 7-16 11c-5 4-15 11-21 14-17 8-27 15-34 20-3 4-9 8-12 10-5 3-7 3-17 4-10 0-11 1-13 3-4 4-4 8 2 13 6 6 8 7 12 7 2 0 6 1 8 2 2 0 9 1 15 2 9 0 11 0 15-2s5-2 6-7c2-5 3-6 12-7 18-1 43-11 61-23 13-9 15-8 15 5 0 4 0 10 1 12 1 6 1 8-8 18-8 9-9 11-12 22-2 8-2 8-1 21 1 7 3 15 4 17 0 3 2 10 4 15 3 13 3 26 0 51 0 9-1 23-1 30 0 13 0 15 3 25 4 13 4 20 0 29-3 7-4 14-2 24 1 4 0 8-1 13-2 12-2 14 3 18 4 4 7 5 15 3 7-1 9 0 11 3 1 4 5 10 8 12 3 1 6 1 11-1z"/></svg>