<svg xmlns="http://www.w3.org/2000/svg" width="1344" height="566"><path d="M0 283V0h1344v566H0V283m556 277c5 0 42-1 82-1 56-1 74-1 76-2 3-2 4-5 5-24 1-10 1-22 2-27 0-6 1-15 2-20 0-7 1-10 2-12l3-2 14 2c19 2 38 2 66-1 13-2 29-3 35-4 7 0 16-2 20-2 5-1 12-2 17-3s12-2 17-4 11-4 13-4c14-5 29-12 37-19 13-10 24-25 24-32 0-8-10-26-26-48-14-20-26-30-45-39-14-7-21-12-26-21-3-5-11-13-16-15-2-1-5-4-7-5-4-3-5-3-12-3-8 1-12 0-18-5-3-2-5-3-8-3s-6-1-10-4c-6-3-7-4-16-4-9-1-10-1-24-8-20-10-41-22-43-25s-3-5-3-19c-1-19-2-28-10-54-5-18-11-32-17-40-5-6-21-19-30-23-11-6-27-11-50-15-27-5-57 0-81 15-23 13-28 19-41 43-3 7-9 17-12 22-7 12-12 23-15 34s-4 13-12 19c-3 2-11 7-15 11-15 10-21 13-28 14s-9 2-17 7c-26 20-29 22-51 31-28 11-33 15-43 31-11 16-12 20-13 38-1 11-1 18 0 27 2 15 4 22 10 30 2 4 7 11 10 16s6 10 8 11 5 5 8 9c2 4 6 9 8 11 4 5 5 6 9 26 3 12 3 35 1 52-2 16-3 30-3 33 1 2 2 3 3 4 2 1 20 1 60 2 32 0 74 0 92 1 37 1 53 1 68-1z"/></svg>