<svg xmlns="http://www.w3.org/2000/svg" width="1344" height="566"><path d="M0 283V0h1344v566H0V283m863 277c40-1 68-2 119-1 85 2 87 1 87-10 0-6-4-18-13-43-4-10-9-26-11-36-7-24-11-41-16-54-2-6-4-16-6-22-5-19-9-28-17-36-8-7-10-8-60-22-36-10-42-13-47-25-2-4-7-11-13-18s-15-18-21-25c-6-8-13-16-16-18-10-12-18-25-20-33 0-3 1-11 3-21 6-32 6-76 1-100-6-30-20-52-43-68-9-5-29-14-38-17-21-5-89-3-106 4-11 5-15 7-21 17-4 5-9 12-12 16-18 21-25 33-34 57-3 7-7 17-9 21-3 8-3 9-4 19 0 7 0 12 1 17 6 24 8 31 13 49 4 11 7 22 8 25 2 7 8 16 15 22 7 4 20 11 32 16 11 4 20 9 23 13 7 11-4 29-28 46-10 7-36 21-46 24-14 5-27 10-35 14-52 27-56 30-65 44-6 9-11 28-13 51-1 11-3 32-5 50-1 4-2 13-2 18-2 13-1 20 3 23 2 2 12 3 54 4 36 1 283 0 342-1z"/></svg>