<svg xmlns="http://www.w3.org/2000/svg" width="1344" height="566"><path d="M0 283V0h1344v566H0V283m358 278c13-1 78-1 146-2h130c2 0 26 0 51 1 26 0 48 1 48 0h144c310 1 317 1 350-4 14-2 18-3 18-7 0-2-6-8-14-14-19-14-23-21-36-65-1-2-2-7-3-10-1-7-4-18-6-22-4-6-11-10-26-12-12-3-15-4-19-10-4-5-12-23-14-28 0-2-1-5-2-6-4-6-19-45-19-49 0-1-4-12-8-25-10-30-12-38-18-64-10-43-15-60-21-67-5-5-13-7-18-3-2 3-2 3-2 18 0 10-1 10-2 10-2 0-3 0-3-2 0-1-2-7-3-12-2-6-5-13-7-17s-5-10-8-15c-2-5-6-11-8-13-3-3-4-4-8-4-5 0-10 3-14 6-1 2-3 3-3 3-1 0-4-2-7-5-5-5-6-6-10-6-6 0-10 4-15 17-1 4-3 7-6 9-5 4-9 12-11 22-2 13-2 48 1 63 3 14 5 32 5 38 0 7 2 16 6 24 8 15 41 62 70 98 6 8 13 17 15 21 2 3 5 8 6 9 4 5 15 27 17 33 1 4 5 13 8 20 6 14 7 19 5 21-3 3-7 1-21-8-7-6-18-12-24-16-31-18-37-23-44-43-2-4-5-12-7-17-4-7-6-10-14-18-17-17-42-36-53-40-7-3-25-4-53-2-35 2-57 2-60 1-5-2-7-5-7-14 0-12 5-35 10-45 1-1 3-5 6-7 5-6 7-11 10-21 3-13 3-14 7-18l3-3-2-11c-1-6-3-14-3-17-1-6-2-7-8-19-2-4-7-13-10-21s-9-21-12-28c-4-7-7-15-8-17-10-27-37-72-54-92-11-12-26-24-37-30-9-4-26-11-38-15-15-4-29-5-52-3-8 1-19 2-26 2-20 2-42 6-53 10-9 3-23 12-32 18-9 8-23 22-28 29-6 8-17 31-23 44-5 14-7 24-7 40l-1 13 4 6c6 9 7 13 7 24 0 5-1 17-2 26s-2 19-2 22c1 2 3 9 5 14 6 16 7 21 7 33-1 13 1 28 4 37 4 10 12 21 24 35 14 16 16 20 16 31 0 10-1 14-5 25-3 7-4 9-12 17-5 5-11 10-13 12-6 3-21 9-25 9-3 0-4-3-6-22-1-20-2-23-11-41-10-22-17-27-27-17-6 6-7 9-7 31v31c0 9 0 12-1 13-6 6-20-44-25-92-1-16-3-27-5-46-2-12-5-18-10-22s-6-4-11-1c-6 4-8 15-10 50 0 16-2 25-4 26s-10-23-17-53c-5-18-10-27-18-31-6-3-9-3-14 1-3 3-3 4-4 10 0 7 1 27 4 42 2 16 0 28-3 19-3-6-6-13-9-21-4-12-11-17-20-14-6 2-8 6-9 12 0 5 2 25 4 30 1 2 2 10 3 17 2 7 4 15 4 17 1 3 3 9 4 16 2 6 4 12 4 14 3 10-4 5-15-11-7-10-17-22-22-24-6-3-11-3-15 1-3 3-3 3-3 11 1 4 2 9 3 12 1 2 2 5 2 5 0 2 8 17 13 26 4 6 21 33 34 52 9 14 13 20 23 36 10 14 19 24 26 27 4 1 8 2 16 3 12 1 15 1 50-1z"/></svg>