<svg xmlns="http://www.w3.org/2000/svg" width="1344" height="566"><path d="M0 283V0h1344v566H0V283m734 275c9-2 18-4 25-5 6 0 9 0 15 2 8 2 9 2 35 2 15-1 28-1 28-2 2-2 0-5-6-10-8-6-36-31-37-34-2-3 0-5 7-6 28-3 51-16 61-36 2-4 4-11 5-15 2-7 2-8 0-21 0-7-1-16-1-20 0-3-1-9-2-13s-2-10-2-12c-1-6-7-16-15-27-9-11-11-15-16-24-7-15-10-23-11-31-1-7-3-15-10-32-6-18-11-35-12-42 0-7-1-9-8-24-10-19-10-21-10-47 0-17 0-18 3-29 2-6 5-16 6-22 1-9 1-10-1-21-3-14-6-23-12-35-4-7-7-11-9-14-6-4-50-26-61-29-16-5-20-6-44-7-33-2-47-1-54 2-10 5-17 10-32 23-7 6-14 18-24 37-5 9-10 18-12 21-19 25-19 24-17 46 2 20 1 30-2 34-1 1-8 6-18 11-8 5-24 13-33 19-10 6-21 12-25 15-21 12-28 19-38 37-3 7-3 9-4 16 0 5 0 12 1 18 1 5 3 15 3 22 2 14 3 17 14 31 12 17 21 27 44 50 12 12 28 29 36 39 9 9 19 21 24 26 10 12 15 18 21 28 7 14 9 16 31 37 11 11 22 21 24 24 4 5 12 11 18 14 2 1 8 3 14 4 9 2 12 2 39 1 18 0 31 0 33 1 3 1 23 0 29-2z"/></svg>