<svg xmlns="http://www.w3.org/2000/svg" width="1344" height="566"><path d="M0 283V0h1344v566H0V283m510 224c15-2 32-5 44-8 10-3 31-6 43-6 18-2 34-4 39-6 6-2 15-3 21 0 3 1 14 1 95 2 81 0 91 0 97-2 15-3 23-5 33-6 5-1 11-3 14-3 7-3 19-4 44-4 29-1 29-1 34-14 4-11 6-14 8-25 3-13 2-16-12-18-4-1-9-3-11-3-1-1-6-2-10-2-11-1-11-1-8-12 3-7 3-10 3-19 0-10 0-11-2-15-7-13-38-53-62-81-17-18-46-46-55-52-4-3-9-7-11-9-3-1-9-6-16-10-10-6-33-23-44-32-14-12-43-29-57-33-4-1-14-6-23-11-10-4-22-9-28-11-24-9-32-13-36-19-13-19-21-26-34-32-9-5-20-7-28-5-10 2-26 16-32 28-5 8-11 22-12 28-1 5-1 7 0 14 2 8 5 14 13 26 3 3 6 8 7 11 2 4 4 5 8 8 3 1 8 5 10 8 5 5 5 5 5 11-1 7-5 15-9 20-3 4-15 13-23 18-2 2-6 6-9 10l-17 17c-16 14-21 21-42 54-4 8-10 17-13 20-8 10-17 26-23 41-5 14-5 14-4 21 2 13 1 23-5 30-1 2-3 4-4 6-1 1-3 4-6 8-4 6-9 16-9 19 0 4 4 16 6 18 3 3 14 9 33 16 7 3 11 3 21 4 21 1 53 1 67 0z"/></svg>