<svg xmlns="http://www.w3.org/2000/svg" width="1344" height="566"><path d="M0 283V0h1344v566H0V283m725 278c14-2 34-3 46-2 17 1 59 1 68 0 5-1 9-3 10-3 1-1 2-5 3-9s3-10 4-13c7-16 7-16 8-31 1-35-4-61-13-75-9-13-16-31-20-52 0-4-1-8-2-9-1-5-10-45-11-51-1-5-1-12-2-17s-1-13-1-19c1-6 1-12 0-15-1-7-7-19-13-26-8-11-10-14-11-19-2-11-1-20 7-34 11-22 9-54-4-80-5-9-10-14-21-21-11-6-15-9-21-14-3-2-7-4-9-5-7-2-36-10-43-12-3-1-12-2-22-3-37-2-44-1-67 13-7 4-12 8-18 15-9 9-14 17-25 38-4 8-7 11-11 15-8 7-15 14-17 18s-2 6-2 25-1 21-3 24c-2 5-10 10-39 27-46 26-63 40-77 64-7 12-8 22-6 44 1 7 2 20 2 32 1 14 2 22 3 28 3 14 6 24 10 42 12 58 19 83 28 100 7 13 12 18 23 21 7 2 31 3 77 4 24 0 53 1 65 1 29 1 97 0 104-1z"/></svg>