<svg xmlns="http://www.w3.org/2000/svg" width="1344" height="566"><path d="M0 283V0h1344v566H0V283m816 278h74c43 0 83-1 97-2 20-2 92-1 125 1 21 2 77 1 95-1 7-1 13-2 13-2s1-1 1-2c5-5-1-24-17-49-15-24-26-33-56-47-17-7-29-14-46-24-4-3-14-9-21-13-12-6-13-7-29-23-18-18-22-21-30-21-3 0-8 1-13 1-4 1-10 2-13 2-6 0-7 0-10-3-5-6-10-21-10-32 0-4 1-6 4-12 10-19 11-23 14-46 1-8 2-13 7-27 4-10 9-24 12-31 9-19 11-28 14-42 3-12 6-37 6-48 0-8-3-21-7-32-3-8-4-10-10-15-3-3-7-7-8-10s-3-5-6-6c-5-3-8-7-10-13-2-3-4-6-6-8-4-4-7-5-16-3-3 1-7 1-9 1-2-1-10-8-15-15-4-5-12-8-19-6-4 1-6 1-11-1-4 0-9-2-12-2-11-2-58 2-73 5-12 3-36 12-49 19-8 4-12 8-21 17-13 12-21 23-26 35-4 8-5 13-8 29-2 15-7 36-15 63-4 12-4 20-2 41 1 9 1 17 0 27-1 22 0 35 3 57 3 24 3 27 8 37 3 9 9 28 14 48 2 8 4 15 4 16 2 5 9 13 16 19 4 3 7 6 8 7 1 3-8 10-36 24-23 11-40 22-48 30-4 4-6 5-9 5-6 1-14 6-15 9-1 1-2 5-3 8s-4 6-6 9c-6 5-12 17-10 21 1 3 6 5 16 6 14 1 124 0 164-1z"/></svg>