<svg xmlns="http://www.w3.org/2000/svg" width="1344" height="566"><path d="M0 283V0h1344v566H0V283m632 276h23c10 1 45 1 79 1 68 0 67 0 71-6 1-2 1-5 1-20 0-23-3-42-14-79-2-6-4-13-4-15-1-1-3-6-5-11-4-8-4-8-4-18 0-13-1-14-18-21-7-4-21-10-31-15-11-5-28-12-38-17-20-9-23-11-23-18 0-3 1-8 1-12 1-3 3-12 4-19 2-7 4-18 6-24s4-17 6-24c2-12 2-14 2-29-1-9-2-24-2-33-1-9-2-24-3-33-2-28-4-44-7-56-3-9-9-27-13-34-2-5-18-25-24-31-15-16-57-37-73-37-5 0-20 4-33 8-5 2-11 3-13 3-20 0-40 13-56 37-11 16-21 44-26 70-10 46-18 93-21 119-3 24-3 50 1 67 1 7 2 12 2 14-2 10-9 14-26 16-13 2-25 6-46 16-36 17-50 25-54 30-1 2-4 9-6 15s-6 18-10 27c-9 17-10 23-15 42-2 7-5 17-7 22-6 17-9 34-9 50-1 16-1 15 20 16 31 1 359 0 365-1z"/></svg>