<svg xmlns="http://www.w3.org/2000/svg" width="1344" height="566"><path d="M0 283V0h1344v566H0V283m477 126c7-1 18-5 43-17 17-9 25-9 25-2 0 6 6 8 28 11 38 5 79 7 118 6 15 0 27-1 28-2 1 0 8 0 16-1 15 0 36-2 39-3 0-1 4-2 8-2l16-4c5-2 12-3 14-4 3-1 8-2 11-3 11-4 32-4 41-1 3 0 6-2 7-6s-1-23-3-41l-2-8-8-8c-4-5-8-9-8-10v-12c-1-12-1-13-8-20-2-3-5-7-7-8-1-3-3-4-12-6-11-3-13-4-11-8 1-1 2-1 11-1 10 0 11 0 13-2 3-3 4-1-8-48-1-8-5-21-6-30-10-43-22-64-51-83-23-16-43-20-65-14-4 1-10 2-13 3-7 1-18 4-24 8s-17 15-20 22c-5 8-11 26-12 35-2 12-6 37-6 38-1 1-5 37-6 48-1 17-1 18-14 15l-9-1-7 3c-9 4-12 7-21 18-6 7-9 11-13 20-2 7-6 14-9 17-2 3-6 7-7 10-5 7-10 9-30 16-20 6-27 8-34 8-10 0-14 5-24 32-3 6-7 16-9 21-3 5-4 10-4 11 2 4 6 4 33 3z"/></svg>