<svg xmlns="http://www.w3.org/2000/svg" width="1344" height="566"><path d="M0 283V0h1344v566H0V283m654 277c5 0 11-2 13-3 6-3 13-10 14-14 0-1 3-8 6-15l6-12 1-13c0-16 3-27 12-46 2-5 3-10 4-17 1-5 2-12 2-16 1-5 1-6 0-9-2-4-10-8-18-11-3-1-12-4-21-8-9-3-19-8-23-9-5-2-14-6-20-8-25-9-43-16-48-20-7-5-8-13-3-31 2-6 5-16 7-23 3-7 6-17 7-23 3-12 6-43 5-52-2-34-8-65-13-82-3-6-10-25-16-38-4-10-16-30-22-38-16-21-43-39-75-48-10-3-11-3-28-3h-18l-24 12c-26 13-32 17-42 27-6 5-8 9-12 18-10 20-16 42-22 76-2 10-4 24-4 32-1 7-2 18-3 22-1 9-4 42-6 66-1 15-1 59 0 70 1 5 2 15 3 21l2 11-3 3c-2 3-6 4-13 6-25 8-25 8-60 32-9 6-20 13-24 15-15 8-16 10-18 24-1 4-4 17-7 28s-6 23-7 26c0 3-1 7-2 8-1 3-4 28-3 32 1 7 1 8 4 9 3 2 60 2 97 1 28-1 24-1 58-1 73 2 122 3 210 2 56 0 99 0 104-1z"/></svg>