<svg xmlns="http://www.w3.org/2000/svg" width="1344" height="566"><path d="M0 283V0h1344v566H0V283m257 279h127c96 0 247-1 364-1 25-1 25 0 28-9 2-5 3-5 10-2 5 3 13 5 24 7 20 3 42 3 128 3 81 0 90 0 93-1 5-2 6-5 4-9-3-3-6-5-14-7-15-2-16-4-19-28-1-5-2-13-2-18 0-6 0-7 2-10 4-3 9-3 26 1 7 2 19 4 26 4 6 1 19 4 28 6 28 7 35 8 48 10 7 1 13 2 13 3 2 1 21 4 26 4 7 0 18-2 22-5 6-2 16-12 16-15 0-2-1-3-8-5s-14-5-23-9c-6-2-7-5-8-15s-3-13-7-14c-3-1-7-1-29 3-13 2-18 2-32 2-15-1-17-1-28-4-20-6-40-14-49-20-4-3-11-9-16-14-8-7-10-10-12-14-4-11-10-37-12-53-1-5-2-12-3-16-1-3-4-18-7-32-7-33-7-34-23-58-5-7-9-15-9-16-2-4 5-8 21-12 2-1 5-3 8-5 7-6 19-25 27-41l4-10v-15c1-18-2-47-4-65-2-15-4-19-12-27-7-6-14-10-29-15-12-3-13-3-27-3-13 0-15 0-23 2-12 5-20 10-31 21-9 9-10 10-12 16-2 9-3 15-2 36l1 16-3 9c-6 18-15 33-27 46-7 6-12 9-20 10-9 0-12 3-20 15-5 7-12 14-27 30-22 22-30 32-40 53-15 29-16 36-7 91 6 37 7 51 7 78l-1 24h-2c-2 0-6-1-11-4-22-13-33-22-37-29s-6-16-6-37c-1-11-2-24-3-30-2-20-4-35-7-62-10-90-16-121-32-154-7-14-10-19-19-29-13-13-24-20-45-29s-36-13-48-13c-16 0-48 10-73 23-9 4-10 4-17-4-11-12-23-19-40-25-8-2-10-2-22-2-10 0-14 0-19 2-19 6-29 14-37 31s-10 31-5 54c1 4 1 13 1 18 0 9 0 10-3 17-5 9-14 20-26 29-4 3-11 10-14 14-4 4-15 15-26 24-36 30-39 35-49 71-6 21-8 30-10 51-3 24-2 42 1 60 2 11 2 15 2 50 1 29 1 39 2 41 2 3 5 4 17 7 17 4 27 5 39 4h22z"/></svg>