<svg xmlns="http://www.w3.org/2000/svg" width="1344" height="566"><path d="M0 283V0h1344v566H0V283m806 276c19 0 23-2 28-12 6-13 9-28 11-47 0-10 2-15 5-15 1 0 3 3 5 7 13 25 21 34 41 44 4 2 9 5 11 6 4 4 6 5 12 6s57 4 61 3c3 0 4 0 7 3 4 4 9 5 27 6 9 0 17 0 29-1 21-3 24-3 27-9s2-11-4-22c-8-12-11-16-19-22-10-6-13-10-16-25-1-7-3-13-5-16-4-6-12-13-35-26-5-3-12-8-21-17-7-8-18-17-23-21-9-9-18-18-30-34-11-16-12-17-12-31-1-14-1-15-12-42-9-19-9-19-15-23-7-5-9-9-9-21 3-37 5-102 3-120-3-30-12-52-26-61-3-1-8-5-12-6-21-10-35-12-60-12-17 1-18 1-30 5-24 8-35 18-45 40-5 11-16 43-24 72-3 12-15 47-19 58-10 25-24 50-36 61-4 3-12 11-18 17-12 11-25 27-30 35-1 2-8 14-15 25-17 28-37 63-42 74-7 16-15 43-21 70-2 14-3 29-1 33 5 9 19 14 49 16 35 2 60 3 156 2h108z"/></svg>