<svg xmlns="http://www.w3.org/2000/svg" width="1344" height="566"><path d="M0 283V0h1344v566H0V283m595 278h144c50 0 91-1 92-1 0-1 53 0 118 0 115 1 159 1 162 0 4-1 3-7-2-20-9-24-14-35-19-45l-6-11-1-12c0-9-1-11-3-13-2-3-19-11-34-17-34-14-71-32-74-36-2-3-2-5-2-13 0-9 1-14 5-32 9-35 10-45 10-79 0-49-5-90-17-146-6-27-11-43-20-61-8-17-15-28-24-37-10-9-31-27-36-29-7-3-16-4-33-4h-35c-24-1-50 0-57 3-10 4-22 12-33 24-18 18-27 34-35 58-11 34-17 62-20 88-1 6-3 15-4 20 0 5-1 11-2 13 0 2-1 7-2 9-2 9-2 26 3 58 2 14 1 27-2 50-1 8-2 23-3 33-1 15-1 18-3 22s-8 9-19 14c-6 3-9 3-17 4-12 1-19 3-34 12-10 5-60 31-78 41-14 6-14 7-15 24 0 13 0 14-3 22-2 5-5 14-7 19s-4 12-5 15c-2 4-4 10-5 14-1 7-1 7 1 10 1 1 4 2 6 3 8 1 38 2 46 1 5 0 34 0 63-1z"/></svg>