<svg xmlns="http://www.w3.org/2000/svg" width="1344" height="566"><path d="M0 283V0h1344v566H0V283m549 278c3 0 10-3 14-5 13-7 13-11 2-22-9-8-12-10-24-11-14-2-15-2-17-4s-3-4-4-9c-1-11 1-18 8-37 5-14 5-23 1-47-1-4-2-9-3-12-1-2-2-5-2-6 0-6-7-26-13-35-3-6-15-17-30-27l-11-7v-5c0-4 1-5 5-7 3-3 5-5 8-12 5-10 8-13 14-17 5-2 10-7 10-10 5-22 6-38 4-44-1-2-2-10-3-17-2-32-5-42-14-51-5-5-19-12-33-16-8-2-11-2-25-2-12 0-15 0-21 2-14 5-27 15-33 26s-7 21-8 56c-1 18-1 36-2 40 0 4-1 21-2 37-1 33-1 31-12 48-7 11-14 25-14 30-1 2-3 9-5 15-4 14-6 25-6 35 0 6-2 20-5 29-1 5-3 25-3 36 0 10 2 28 5 35 1 7 3 10 7 12 3 1 9 2 79 2 41 0 75 1 76 1 0 1 12 1 25 1 19 0 27 0 32-2m731 0c31 0 50 0 53-1s6-2 7-4l2-2 1-245c0-170 0-245-1-246-1-3-6-3-12 0-8 3-29 16-32 19-2 1-5 7-7 12-3 8-3 9-3 16 1 39 1 49 2 60 2 17 4 30 9 41 2 6 4 11 4 11 0 1 2 5 5 10 6 10 11 15 20 19 3 2 7 4 8 6 3 4-2 11-22 31-9 9-18 18-19 21-5 7-11 25-12 35-1 2-2 7-3 10 0 2-3 12-6 21-2 9-5 19-6 21-2 5-2 8-3 37 0 21 0 37-1 47-2 13-2 14-7 20-9 15-23 31-30 36-5 4-8 4-17 0-10-4-23-8-27-8-9 0-12 7-6 14 6 6 7 8 7 12 0 5 2 7 6 7 2 0 10 1 17 1s16 1 19 0c3 0 27 0 54-1m-474-1c25-1 51-1 58-1 22 0 72 1 78 2 4 0 7 0 9-1 3-1 7-2 13-2 7 0 9 0 10-2 3-3 5-12 6-30 3-24 6-55 7-58 0-2 1-7 1-12 1-5 3-16 4-24 2-8 4-22 5-32 2-21 2-60 0-68-1-8-8-25-15-37-7-14-32-53-38-60-15-16-21-24-24-36-3-10-5-12-14-12-6 0-7 0-11-3-5-4-6-6-10-13-2-5-2-6-2-16s1-18 5-34c7-28 8-38 2-54-4-12-10-24-14-30-3-3-7-6-12-9-11-7-16-8-31-8-17 1-29 4-50 14-7 3-10 5-15 10-3 4-7 9-9 12-2 4-2 6-2 16-1 8-1 15-2 20-2 8-5 24-5 34-1 4-2 10-3 13-2 7-1 13 2 18 2 3 4 9 6 13 5 11 11 22 15 27 3 4 10 7 19 9 13 2 18 7 17 15-1 5-3 9-15 22-10 11-12 16-14 29-1 4-2 8-3 9-1 2-8 19-13 31-7 17-13 43-21 84-1 6-3 14-3 18-1 4-3 11-3 15-1 4-3 15-5 23-2 9-5 23-7 30-3 15-4 16-7 59-1 14-1 15 1 17 1 2 3 3 10 3 4 0 14 1 21 0 7 0 34-1 59-1z"/></svg>