<svg xmlns="http://www.w3.org/2000/svg" width="1344" height="566"><path d="M0 283V0h1344v566H0V283m326 277c10-1 27-1 82-1h225c2 0 20 0 41 1 46 2 79 2 90 0 8-1 44-1 169-1 120 0 161 0 164-1 2-1 5-2 6-3 2-3 1-4-6-6-6-3-8-4-29-23-18-16-31-27-45-35-11-6-22-15-32-26-10-10-11-12-19-30-2-6-6-14-8-17-8-12-51-47-64-52-4-2-7-2-22-2-10 0-24 1-32 1-8 1-22 1-32 1-27 1-27 0-23-26 3-20 4-21 13-30 9-10 12-15 13-26 1-13 0-41-3-57-2-12-3-15-7-24-3-5-5-10-5-10 0-2-18-42-28-61-5-10-11-22-14-26-2-4-7-12-10-17-14-21-20-30-32-41-13-13-23-20-37-26-5-2-11-4-14-6-17-7-34-9-60-8-21 1-41 3-42 3 0 1-5 1-10 2-19 2-34 6-43 10-19 9-38 25-52 42-10 12-25 44-29 60-6 21-5 39 1 45 1 2 3 5 5 9 2 5 2 6 2 19 0 7-1 18-1 24-3 19-3 24 2 38 6 16 6 15 7 36 0 17 0 20 2 26 5 16 13 27 31 45 15 14 15 15 15 29 0 7 0 9-3 14-3 8-11 16-21 24-10 7-18 11-22 11-2 0-3-2-7-11-3-5-7-12-8-15-7-18-17-23-26-13-7 7-10 23-10 48 0 14-3 21-9 21-3 0-3-1-6-5-2-6-7-20-9-28-3-16-8-56-10-89-1-10-1-19-2-22-2-10-7-16-13-18-5-1-8 0-11 6-2 5-6 31-9 54-2 24-2 27-4 27-1 0-2-2-3-4-5-17-8-27-13-46-4-17-9-32-11-36-4-5-9-8-13-8-9 0-11 3-11 22 0 7 0 17 1 20 1 7 2 15 4 35 1 5 2 13 3 19 2 13 2 18 0 18s-6-7-9-16c-1-4-3-9-4-11s-3-9-5-13c-5-18-7-23-12-28-5-6-11-7-16-4-9 4-8 18 5 70 2 8 5 17 10 36 2 8 3 14 2 15-1 0-5-4-18-20-17-21-25-28-33-28-5 0-9 5-10 10 0 5 3 16 8 27 5 10 21 33 39 57 4 6 11 16 15 20 7 11 15 20 20 23 6 4 30 5 52 2m891 0c17-1 20-2 22-6 0 0-1-6-2-11-1-6-3-15-5-21-1-6-3-17-3-24-4-27-5-35-11-40-2-3-14-8-25-12l-9-6c-4-5-11-20-14-34-2-4-4-12-6-17-2-9-4-19-7-31 0-4-3-16-5-27-8-37-9-44-10-58-1-7-1-19-1-25 0-14-2-37-3-46-1-4-2-9-4-11-2-4-3-6-7-7-4-2-5-2-8-1-2 1-4 2-5 4 0 1-2 8-3 16-2 8-3 15-4 15-2 2-4-1-4-7-1-2-1-8-2-11-1-4-2-14-3-21-2-15-4-22-6-26-3-6-11-11-17-10-1 1-5 3-7 5-2 1-5 3-6 3s-5-2-8-4c-8-4-12-4-16-1-4 2-8 8-10 12-1 6-5 12-11 19-9 9-14 21-18 35-3 13-3 20-2 69 1 29 1 30 4 38 3 11 30 60 46 86 3 6 9 14 11 18 15 24 20 34 29 60 4 12 9 25 10 29 7 20 11 31 11 35s2 6 10 11c4 2 5 3 24 3 28 1 56 0 75-1z"/></svg>