<svg xmlns="http://www.w3.org/2000/svg" width="1344" height="566"><path d="M0 283V0h1344v566H0V283m606 277c13-1 24-1 26-1h89c94 1 92 1 95-4 1-4 2-21 0-34-2-19-18-72-26-90-5-10-5-12-3-22 2-9 1-10-11-16-9-5-27-13-28-13s-8-3-16-8c-9-4-16-7-17-7 0 0-5-2-11-5-5-2-13-6-18-8-10-5-12-7-11-18 0-7 3-36 8-70 1-13 1-24-1-51 0-8-1-21-2-28-2-24-7-58-13-80-2-8-12-28-19-40-13-20-28-33-55-46s-38-14-64-4c-5 2-10 3-16 4-5 0-11 1-14 2-14 4-35 24-47 45-9 16-15 35-22 67-2 11-10 58-11 71-1 7-3 19-4 26-1 10-1 21-1 42 0 26 0 31 2 41 1 7 2 15 2 18 0 4 0 5-4 9-5 6-11 9-23 10-6 1-11 1-11 2-1 0-6 2-12 4-14 5-34 13-44 19-4 2-12 7-17 9-5 3-10 6-11 7-4 3-6 8-7 18-2 11-11 36-17 51-7 17-21 68-23 83 0 8 1 11 7 13 6 3 33 4 70 3 42-1 122 0 153 1 32 2 87 2 127 0z"/></svg>