<svg xmlns="http://www.w3.org/2000/svg" width="1344" height="566"><path d="M0 283V0h1344v566H0V283m810 278c30-1 56-1 59-2 11-1 12-5 7-16-3-7-6-20-6-31 0-8-1-13-4-16-2-1-4-6-6-10-3-6-4-7-4-19v-13l-6-5c-2-2-8-6-13-9-33-16-59-29-77-36-10-5-26-13-33-16l-15-8-2-5-3-6v-25c0-17 0-29 1-38 3-25 4-46 3-57-1-4-3-15-4-22-4-29-7-38-17-67-13-37-25-61-37-76-19-24-40-40-65-50-7-2-25-6-35-7-18-2-27 0-47 12-6 3-14 7-18 8-16 5-26 13-36 29-16 25-25 53-28 92-2 24-3 91-2 114 1 27 5 64 6 76 5 29 5 33 2 35-1 1-3 2-4 2-3 0-19 5-26 9-4 1-15 7-26 11-40 19-55 27-57 28 0 2-1 5-1 9-1 5-2 12-6 30-1 2-1 7-1 10v7l5 6c6 6 13 10 23 13 4 1 15 6 24 10s20 9 24 11c5 2 10 4 11 5 5 4 17 10 25 12 10 4 32 5 95 6h51c0 1 199 0 243-1z"/></svg>