<svg xmlns="http://www.w3.org/2000/svg" width="1344" height="566"><path d="M0 283V0h1344v566H0V283m857 279c22-1 26-3 32-12 3-4 4-8 4-11 3-30 2-38-12-59-7-12-8-13-19-23-9-8-19-19-34-38-5-6-14-16-20-22-5-6-12-14-15-18s-6-9-8-11c-9-11-30-67-33-86-3-24-7-46-9-50-2-6-1-15 1-24 4-9 4-16 0-23-6-10-10-15-15-17-10-5-19-8-32-10-7 0-17-2-23-4-12-4-18-4-32-1-9 2-12 3-20 7-6 4-10 6-11 5-5-1-7-14-9-42-3-46-15-75-39-93-11-7-31-15-48-18-13-2-38-1-48 2-15 5-42 18-52 26-8 7-15 16-21 26-8 17-10 32-8 56 1 16 1 22-2 32-6 19 3 43 25 64 7 7 12 13 13 16 2 4 5 21 5 28 0 2-1 5-2 6-9 14-15 21-27 33-6 6-14 13-18 16s-8 6-9 7c0 1-5 3-11 6l-18 9c-4 2-9 4-11 4-6 2-16 6-26 12-5 3-14 8-19 10-11 6-18 12-22 20-3 7-4 10-6 35-1 6-2 15-3 18-1 5-1 13-1 30 0 20 0 24-2 34-1 6-3 14-4 17-5 15 1 30 16 37 3 2 8 3 12 4 9 1 42 1 46 0 5-2 73-3 86-2 6 1 34 1 68 1h88c31 1 96 1 175 0 27 0 51 0 59 1 7 1 18 2 24 2 7 0 13 1 15 1 1 0 10 0 20-1z"/></svg>