<svg xmlns="http://www.w3.org/2000/svg" width="1344" height="566"><path d="M0 283V0h1344v566H0V283m448 276c12-1 68-1 166 0h160c8 0 36 0 63 1 36 1 52 1 59 0 19-2 20-3 22-14 1-7 0-23-3-34-3-15-18-29-62-62-13-9-27-20-33-25-10-8-30-43-33-56-2-8-2-9 24-53 6-10 15-24 19-30 10-15 11-19 16-38 2-9 5-21 7-27 5-15 7-27 8-53 0-26-1-36-5-51-8-26-21-44-48-66-16-13-22-15-46-17-9-1-20-3-24-4-19-4-37-3-53 2-24 7-51 28-63 49-11 17-15 31-17 56-2 18-4 34-6 39 0 2-3 6-5 9-5 8-7 14-8 25-1 16 2 27 10 39 2 2 8 8 13 14 10 10 11 11 13 17 2 9 3 22 0 30-1 6-5 10-15 18-9 8-22 19-31 27-11 9-20 14-33 18-6 2-15 4-20 6-15 4-30 7-41 8-7 1-13 2-16 2-2 1-8 1-13 2-18 2-25 7-32 20-3 5-9 14-19 27-9 10-23 27-31 38s-18 25-23 31c-10 13-13 18-19 34-5 14-5 17 1 19 3 1 94 0 118-1z"/></svg>