<svg xmlns="http://www.w3.org/2000/svg" width="1344" height="566"><path d="M0 283V0h1344v566H0V283m242 277c3-2 4-6 4-14-1-6-2-12-6-34-1-5-3-17-5-27s-4-21-6-26c-3-10-2-10 6-15 3-2 6-4 7-5 1-2-2-12-5-19-1-2-3-7-5-11-6-18-12-31-20-45-10-17-13-22-16-32-3-8-4-12-1-16 5-11 21-31 26-34 2-1 7-2 11-3 10-1 17-5 18-9 1-2 2-12 3-22 1-11 3-20 3-21 1-2 9-10 19-19 9-9 18-18 20-21 1-2 2-6 3-10 0-5 0-6-2-9-2-2-4-3-6-3-4 0-18 5-35 12l-6 2c-1-1-2-3-2-7-1-3-3-10-4-15-2-5-4-11-5-14-1-6-5-13-10-18-2-3-3-3-8-3-10 0-12 5-12 25 0 13-1 15-4 15-1 0-3-1-5-2s-5-1-5 1c0 1 2 4 3 6 2 3 6 7 7 10 2 2 6 7 9 9 7 6 8 9 8 18 0 5 0 9-2 13-2 7-6 12-9 12-1 0-20-9-29-14-4-3-8-5-11-7-2-1-9-4-15-7-6-2-12-5-13-6s-2-3-2-5c0-4 4-8 12-13 12-6 14-11 10-30-1-5-2-11-5-15-3-6-3-8-3-12 2-12-9-34-17-34-2 0-4-1-5-2-4-2-5-1-10 3-7 4-9 9-14 30-3 10-6 22-8 27-2 6-4 15-6 22-5 18-12 35-20 52-2 5-4 9-4 10 0 3-7 17-11 22-9 13-9 16 0 20 8 4 15 10 23 21 4 5 14 15 22 23s15 16 17 19c2 5 9 24 13 41 1 6 4 17 6 25 6 23 7 27 8 39 1 13 1 14 5 24 3 9 7 24 9 33 0 3 2 10 4 14 1 5 3 11 3 13 4 20 10 34 16 37 4 2 16 3 36 3 12 0 19-1 21-2m277-101 5-5c1-2 3-5 5-5 6-3 7-6 6-14-1-10-1-12 1-15l3-2 17-1c15-1 19-1 26-3 13-5 27-6 50-7 14 0 27 0 33 1 13 1 15 1 17-7 2-6 2-20-1-28-1-4-2-9-5-30-1-3-2-8-3-11-1-2-2-8-3-12 0-4-1-11-2-16-1-9-3-31-3-43 0-5-1-10-1-13-1-2-2-10-2-18-2-16-4-25-11-39-6-11-9-15-22-26-8-7-8-7-8-11s1-6 4-10c2-3 4-7 5-9 1-5 0-31-1-35-1-2-1-6-1-9 0-6-2-12-6-15-5-5-31-14-37-12-6 1-13 5-21 12-10 10-10 13-10 38-1 22-1 22-12 34-6 6-10 8-23 15-41 21-44 24-46 62-1 14-1 15-5 23-5 12-5 12-2 16 3 3 3 4 1 15-1 7-1 8 2 13 3 4 3 6 4 12 0 6 1 9 3 12 3 7 8 26 9 42 1 6 1 13 2 15 0 3 1 8 1 13 1 5 2 9 2 11 1 1 1 7 1 13 0 14 2 28 4 34 6 13 16 19 24 15z"/></svg>