<svg xmlns="http://www.w3.org/2000/svg" width="1344" height="566"><path d="M0 283V0h1344v566H0V283m942 177c11-2 14-3 22-7 4-2 13-6 18-7 18-6 34-14 37-19 3-4 13-33 15-43 2-11 1-50-1-58-2-4-2-11-2-32-1-34-2-46-5-50-2-3-12-8-17-8-3 0-5 1-10 5-11 10-15 10-19 0-1-2-2-6-3-8 0-6-11-25-18-34-3-4-11-11-16-15-11-9-17-17-22-26-4-8-8-13-16-23-6-6-9-10-16-24-7-15-9-17-14-22-3-4-9-7-12-9-17-8-40 1-55 21-7 10-10 20-8 32 1 8 7 18 12 22 2 1 7 6 11 11 6 6 10 10 13 12 5 2 6 2 15 1 9 0 10 0 13 2 3 3 5 10 7 23 4 28 6 36 13 54 3 5 5 11 5 12 0 3-3 6-10 11-7 4-13 11-16 19-3 7-5 8-14 11-11 3-13 8-8 14 2 3 14 8 25 11 5 1 9 2 9 3 1 0 2 3 4 7 3 6 4 10 8 37 0 5 3 7 9 7 7 0 9 2 13 13 2 5 3 9 4 15 0 10-1 12-8 16-8 5-13 9-12 11 0 1 3 3 8 5 5 1 11 4 15 7 9 6 9 6 26 3z"/></svg>