<svg xmlns="http://www.w3.org/2000/svg" width="1344" height="566"><path d="M0 283V0h1344v566H0V283m708 279c27 0 64-1 84 0 23 0 43 0 56-1 12 0 22-1 22-1 1-1 3-6 3-14 0-4 0-14 1-20 0-12-1-17-4-21-1-2-7-6-12-10-6-4-13-9-15-11-7-6-40-26-60-36-18-9-29-16-42-27-3-2-11-9-18-14-13-11-15-14-17-19-2-7 2-31 9-50 3-10 4-11 23-29 31-30 32-34 30-90-2-55-4-65-17-93-8-17-13-23-26-35-12-11-22-17-34-20-13-4-19-5-42-6-25 0-32 1-44 7-22 13-37 29-50 56-14 29-15 44-8 96 2 12-1 45-7 86-2 15-8 30-14 36-2 2-8 6-14 9-8 4-13 5-21 7-36 5-56 11-65 17-12 8-17 25-17 53 0 33 6 70 17 106 4 14 6 18 10 20s22 3 60 3c15 0 45 1 67 1 62 1 93 1 145 0z"/></svg>