<svg xmlns="http://www.w3.org/2000/svg" width="1344" height="566"><path d="M0 283V0h1344v566H0V283m472 120c7 0 10 0 15-2 19-9 24-10 31-7 6 3 20 2 30 0 5-2 10-2 14-2 7 0 25 3 33 5 10 4 39 5 54 4 6-1 19-1 31-1 10-1 21-1 24-2 3 0 6 0 11 2 7 2 8 2 22 1 19-1 29-3 35-4 6-2 22-6 25-6 1 0 5-1 9-2s12-3 18-4c12-2 21-2 36 0 7 1 7 1 7-13-1-7-2-18-3-25 0-7-1-15-1-17 0-7-2-11-7-15-3-3-5-4-10-4-4-1-7-2-9-4-3-2-3-2-3-14-1-7-1-14-2-16-2-6-6-10-12-10-6-1-11-4-11-7 1-2 5-3 14-3 10 0 10-2 8-26-1-6-3-19-4-27-1-19-4-39-7-47-6-27-16-49-27-60-12-13-35-26-51-31-11-2-30 0-56 7-14 5-30 22-38 41-2 6-6 23-7 38-1 7-1 16-2 20-1 3-1 14-2 24-1 16-2 31-4 44-1 11-4 13-31 17-10 2-15 2-22 1-9-2-24 3-31 11-2 1-3 5-4 7-2 8-9 29-11 34-4 8-8 13-16 16-8 4-32 12-38 13-8 1-9 2-18 22-10 21-13 29-15 38-1 5 1 6 9 6 4-1 11-1 16-2z"/></svg>