<svg xmlns="http://www.w3.org/2000/svg" width="1344" height="566"><path d="M0 283V0h1344v566H0V283m691 277c28 0 68 0 88 1 36 0 36 0 40-2 6-3 9-7 17-22l6-13 1-12c0-12 0-13 3-20 2-4 6-12 9-16 14-22 25-45 29-56 1-5 11-19 16-24 8-8 10-18 6-26-1-3-2-7-3-10 0-7-5-15-9-16-1 0-3 1-5 2s-4 2-5 2c-2 0-4-3-4-6 0-4-5-10-9-11-2 0-6 0-9 1-4 1-6 1-7-1-1-1-1-2 1-5 11-19 10-19 11-29 0-8 0-9-2-12-2-1-5-3-7-4-4-2-4-2-9 0-4 1-5 2-7 8-2 8-7 15-15 24-9 9-15 12-25 12-12 0-16 3-27 19-10 14-16 30-24 64-2 6-5 17-7 24-4 12-25 54-29 59-1 2-5 4-7 6-8 4-8 5-12 16-5 16-9 17-17 3-3-5-20-28-28-36-5-6-8-11-10-17-2-13-11-33-18-40-4-5-10-9-22-17-7-4-13-9-14-11 0-4 2-8 11-23 6-11 10-17 22-35 2-3 6-8 10-12 4-5 8-10 11-17 4-9 5-12 7-23 1-7 3-18 4-25 3-15 7-39 9-62 4-52 2-90-7-105-7-13-18-23-35-33-5-4-13-9-17-11-16-11-33-18-51-23-6-1-10-1-19 0h-40c-8 0-10 0-20 3-29 11-40 18-53 37-8 12-20 42-28 72-6 21-8 29-10 38-1 4-4 17-6 27-3 10-6 23-7 29-2 13-3 16-7 33-9 45-10 52-13 89-1 14-1 18 0 23 1 3 1 9 1 14l1 9-9 14c-12 19-20 36-30 62-4 11-10 24-12 28-5 10-5 15-1 22 2 5 2 7 3 16 1 10 1 11 3 14 3 2 3 2 23 3 11 1 20 1 21 1 2 1 68 1 147 0h196z"/></svg>