<svg xmlns="http://www.w3.org/2000/svg" width="1344" height="566"><path d="M0 283V0h1344v566H0V283m522 278c7-1 56-1 109-1 82-1 99-1 113-2 10-1 20-2 24-2 37 3 48 3 74 2 18-1 33-1 41 0 24 2 60 3 63 2 2 0 11 0 21-1 17-1 21-1 21-4 0-1-18-22-34-39-18-18-26-30-30-42-3-13-11-23-22-31-9-6-23-25-32-42-6-11-8-19-12-46-5-30-6-33-17-61-5-12-10-26-12-32-3-5-7-15-11-22-9-17-9-20-9-48 0-21 0-24-2-36-2-7-4-15-5-19-1-3-3-9-3-13-4-20-12-42-19-51-11-14-51-34-75-36-6 0-11-1-12 0 0 0-5 0-9-1-11-1-23 1-29 4-3 2-9 4-14 5-7 2-11 3-17 6-3 3-9 6-12 7-4 2-7 5-14 12s-9 11-15 24c-7 12-8 16-10 23-2 11-2 30 0 49 1 12 1 13-1 23-5 22 0 38 17 53 4 5 6 7 7 11 1 2 2 7 3 9 2 8 1 22-3 39-1 5-2 10-2 12s-1 6-2 8c-2 4-3 5-10 8s-9 5-12 9c-4 5-10 15-16 26-5 10-9 15-14 17-3 1-6 3-8 5-4 4-15 10-19 10-2 1-6 1-8 0-4-1-5-1-16 5-22 10-28 12-44 14-4 1-10 3-13 5-12 6-31 22-36 30 0 2-4 8-7 13-7 11-15 27-20 36-2 4-2 7-3 18-2 34-2 33 0 38 1 2 3 4 4 4 0 1 7 1 13 1 7 0 23 1 37 1 26 2 82 2 102 0m-203-9c4-4 11-24 14-38 5-19 18-58 25-71 19-37 26-49 35-61 2-3 5-7 6-9 2-4 3-10 1-13-1-1-3-8-5-15-3-14-3-14-2-22 2-7 2-9 5-11 3-3 4-3 8-2 2 0 7 1 11 1s8 1 9 2c2 0 5-1 10-4 13-7 14-11 7-22-3-6-3-7 0-11 2-2 2-2 1-5-2-4-9-12-15-15-6-4-7-6-6-13 0-7-1-8-13-8-11 0-14 2-21 11-10 14-11 16-12 27-1 9-1 10 1 15 2 3 3 6 3 7s1 4 3 7c3 6 4 14 3 16-1 1-3 1-6 0-3 0-4 0-7 2-1 1-3 2-4 2-6 0-10 7-14 22-1 5-3 11-5 13-5 12-27 42-49 68-27 33-31 39-43 63-27 51-29 57-26 60 2 2 4 2 23 4 7 1 16 1 21 2 5 0 15 1 24 1h15l3-3z"/></svg>