<svg xmlns="http://www.w3.org/2000/svg" width="1344" height="566"><path d="M0 283V0h1344v566H0V283m627 277h84c89 0 86 0 89-6 3-4 3-16 2-32-1-13-2-19-7-40-7-29-12-43-16-53-4-7-4-7-4-17 0-9 0-10-2-13s-27-15-73-35c-13-7-27-13-29-14-7-5-7-10-3-26 1-4 4-14 5-22 2-8 5-21 7-28 7-24 7-33 4-73-1-9-2-24-3-33-4-54-9-76-24-97-14-20-23-30-38-40-21-13-44-23-56-23-6 0-24 4-35 8-3 2-9 3-11 3-14 0-27 5-39 17-17 15-29 36-37 65-5 16-18 84-24 125-7 44-7 68-2 86 4 13 2 20-4 26-4 3-8 4-19 6-15 2-31 8-58 22-23 12-33 17-39 22-4 4-5 6-9 18-3 8-8 20-11 28-5 8-8 18-11 26-2 8-6 19-8 24-5 17-7 22-9 36-3 23-2 37 3 39 3 1 90 2 161 1 32 0 180 1 181 2 0 0 31-1 35-2z"/></svg>