<svg xmlns="http://www.w3.org/2000/svg" width="1344" height="566"><path d="M0 283V0h1344v566H0V283m742 277c9-2 25-3 42-2 16 1 65 0 67-1 3-3 0-6-11-15-16-15-20-19-15-23 1-1 5-4 10-7 11-6 29-23 32-31 7-13 8-25 6-40-1-4-1-12-2-19-1-12-4-26-8-34-1-3-6-11-11-17-10-13-14-20-21-36-5-11-10-27-10-32 0-2 0-4-1-5 0-1-2-7-4-12-1-4-3-10-4-12-2-6-5-25-5-36-1-9-1-10-5-18-2-4-6-11-10-16-9-14-9-15-10-35v-17l4-13c5-17 7-27 5-40-2-21-8-34-22-54-4-6-6-7-12-10-11-5-47-18-65-23l-16-4h-25c-23 0-25 0-31 2-8 2-20 9-28 14-8 6-29 35-35 49-7 19-11 26-16 31-15 18-16 21-14 35 0 6 1 15 2 20 0 14 0 15-21 26-41 22-54 30-70 42-23 17-34 38-33 59 1 5 1 23 2 42 1 24 1 36 3 46 2 12 9 40 13 53 1 3 4 14 7 24 11 42 33 85 48 96 9 7 15 8 40 9 11 0 25 1 32 2 16 1 100 3 123 3 11-1 23 0 27 0 9 1 34 0 42-1z"/></svg>