<svg xmlns="http://www.w3.org/2000/svg" width="1344" height="566"><path d="M0 283V0h1344v566H0V283m702 277c15-1 171-2 323-1 73 0 75 0 77-1 2-3 1-10-2-20-1-4-4-12-5-16-5-17-9-26-21-45-24-40-47-62-88-82-54-27-62-31-72-38-3-1-8-5-12-7-3-2-11-6-16-10-18-11-29-15-47-17-14-2-17-4-20-7-3-4-5-12-5-25 0-10 1-15 9-28 10-18 16-43 16-60-1-11-1-11-6-22-7-13-7-16-9-38-3-36-9-55-26-72-10-11-21-17-39-24-5-2-11-4-12-5s-7-2-12-4c-10-2-12-2-33-2-25-1-28 0-48 6-23 6-50 24-64 40-7 10-15 25-19 38-3 12-4 31-2 46 1 5 2 14 3 20 1 5 2 12 2 16 1 3 2 19 3 35s2 32 3 36c3 19 9 33 25 65 9 18 16 33 16 37s-7 12-17 20c-13 9-30 21-44 29-6 3-13 8-16 10s-9 5-12 7c-10 5-33 21-38 24-4 3-19 12-25 15-6 2-23 15-32 22-7 7-11 13-19 28-8 17-8 24-1 27 4 2 8 2 49 2 25 0 46 0 46 1 3 1 178 2 190 0m-642-1c21-1 48-2 60-2 13 0 24 0 24-1 1 0 156-1 181-1 36 1 53 1 57-1 6-2 6-5 6-28 0-30 1-32 13-56 7-14 10-22 11-27 1-4 5-17 9-28 5-14 8-24 8-31 1-6 3-13 4-17 3-8 4-20 4-34 0-11 0-11-3-14-4-4-10-4-25 1-8 3-13 4-15 4-5-2-4-13 6-35 9-19 9-27 3-27-3 0-13 5-20 11-8 6-24 28-35 47-12 22-17 29-25 31-4 0-7-2-15-8-4-4-9-8-12-10s-9-6-13-8c-13-9-40-23-53-27-6-2-44-20-48-23-5-3-4-6 2-8 8-2 14-5 18-9 6-6 22-37 32-60 6-14 7-17 12-23 10-10 11-14 7-36-2-8-2-17-2-25 0-12 0-14 2-18 3-5 7-28 7-34-1-8-14-46-18-51-5-7 4-6-121-7C42 4 7 4 5 5L1 6v547l3 4c2 3 2 3 11 3 5 0 25-1 45-1z"/></svg>