<svg xmlns="http://www.w3.org/2000/svg" width="1344" height="566"><path d="M0 283V0h1344v566H0V283m358 277c7-1 46-1 86-2h102c16 0 41 0 54 1 27 1 213 2 222 1 15-2 16-4 15-24 0-23-3-31-19-46-15-14-33-27-58-43-13-8-31-22-36-27-6-6-10-13-13-19-2-7-2-7 28-47 10-13 16-23 22-35 5-11 8-20 13-39 2-8 5-21 7-28 11-37 13-51 13-84 0-53-9-74-44-108-27-27-38-32-67-33-9-1-15-2-24-5-25-7-56-5-78 7-16 8-37 26-50 43-16 22-20 36-24 76-3 29-4 37-8 44-10 15-11 22-11 39 1 20 5 29 18 44 6 6 9 11 13 18 5 9 5 11 5 17 0 5-1 7-2 10-1 1-7 7-14 13l-22 22c-16 16-21 19-34 25-5 3-12 6-16 7-7 1-13 3-36 12-6 3-24 9-38 15-53 18-58 23-74 64-7 20-9 27-15 49-7 30-6 34 8 34 11 1 65 0 77-1z"/></svg>