<svg xmlns="http://www.w3.org/2000/svg" width="1344" height="566"><path d="M0 283V0h1344v566H0V283m594 277h52c15 1 38 0 53 0 17-1 31-1 43 0 21 2 89 2 100 0h94c48 1 101 1 118 1 40 0 39 1 35-13-1-3-2-12-3-18-1-14-3-20-11-31-4-6-6-11-7-15-2-9-4-10-30-22-24-10-45-20-49-23-6-3-8-6-7-13 0-6 2-14 12-50 1-7 4-22 6-32 3-16 3-19 3-45 0-29 0-36-5-85-6-60-11-87-22-115-8-19-18-35-32-48-16-16-34-27-58-35-10-3-11-3-22-3-8 0-14 0-16 1-1 1-9 2-22 2l-20 1-7 3c-15 7-35 21-48 33-9 8-19 21-23 31-6 12-19 45-22 57 0 2-2 8-4 13-9 25-23 97-26 138-2 19-3 30-8 50-7 29-9 34-16 41-6 5-19 12-26 13-3 0-8 2-12 4s-7 3-8 3c0 0-3 2-6 3-3 2-11 7-18 10s-19 8-28 12c-18 8-34 15-46 19-15 5-15 6-15 24-1 16-1 19-13 41-10 21-13 29-14 38 0 7 0 7 3 9 2 1 5 2 14 2 12 1 66 0 111-1z"/></svg>