<svg xmlns="http://www.w3.org/2000/svg" width="1344" height="566"><path d="M0 283V0h1344v566H0V283m479 276c16-1 63-1 104-2h87c7 0 22 0 33 1 13 1 42 1 81 0 113-1 166-1 252 0 61 1 86 1 87 0 2-1 2-2 2-6-2-11-22-32-46-47-10-5-42-21-55-26-5-2-16-6-24-10-9-4-18-8-20-9-7-2-23-8-28-11-7-3-18-12-21-16-5-7-5-11 2-29 2-5 6-15 8-24 15-41 19-50 24-56 5-5 7-6 15-8 7-1 17-7 22-12 15-13 31-40 33-55 2-11 0-16-9-24l-5-5v-6c1-3 2-10 4-15 11-33 16-56 20-85 3-24 2-33-6-60-3-13-13-34-18-40-3-4-9-7-19-8-11-1-154-3-192-2-31 1-41 2-46 6-3 2-11 17-18 31-9 20-14 41-20 69-6 34-7 37-16 40-10 4-11 4-14 8-5 5-7 13-8 27-1 27 6 49 20 65 9 11 9 11 9 41-1 29-3 44-7 61-5 16-11 27-19 31-4 2-5 2-29 2-23-1-24-1-28 1-4 1-11 8-25 22-27 26-31 29-57 39-8 3-21 9-30 12-8 3-23 9-32 12-10 4-22 8-26 10-21 9-43 22-55 32-10 9-27 29-31 38-2 3-2 3 0 5s4 3 15 3c23 1 55 1 86 0z"/></svg>