<svg xmlns="http://www.w3.org/2000/svg" width="1344" height="566"><path d="M0 283V0h1344v566H0V283m930 276c1-2 1-2-2-24-2-19-3-18 17-26 5-2 10-4 11-5 1-3 1-8 0-15-2-7-9-28-12-39-3-12-4-18-4-21 1-1 4-4 9-6 16-8 24-18 24-28 0-9-7-19-21-27-22-14-25-18-26-34 0-6-1-12-2-14-2-8-6-37-8-57 0-6-1-14-2-19 0-5-1-16-2-26l-1-17 2-7c2-4 3-8 4-9 1-3 11-10 20-14 6-4 8-6 12-11 3-4 8-10 11-15 6-8 12-21 17-34 1-4 2-8 2-14 0-8 0-9-5-17-5-11-16-23-23-26-12-5-30-5-43 1-9 4-18 13-25 25-3 5-8 14-11 20-5 7-9 13-16 20l-8 9h-11c-19 0-23 2-23 13v5l-13 13c-14 14-19 21-30 45-9 17-10 22-12 39-6 43-8 63-9 78-3 51-4 80-4 122v46l2 10c2 6 3 13 3 15 1 3 2 6 2 7 2 2 11 6 13 6 4 0 7 4 8 10 1 8 4 17 6 20 2 1 4 2 7 2h73c53 0 69 0 70-1z"/></svg>