<svg xmlns="http://www.w3.org/2000/svg" width="1344" height="566"><path d="M0 283V0h1344v566H0V283m504 278c11-1 62-1 124-1 74-1 109-1 118-2s19-1 26 0h102c10 0 23 0 30 1 8 1 17 1 44 1 18-1 33-1 35-2 2 0 3-3 2-5-2-4-20-26-29-36-14-14-21-26-27-44-3-12-8-19-15-26-13-10-16-14-21-21-8-11-17-31-19-42-3-9-3-14-7-38-2-18-4-24-13-40-3-5-9-15-13-23-9-18-12-24-20-34-4-4-8-11-10-15l-4-8v-25c1-29 0-38-5-58-2-6-3-13-4-14-2-12-11-40-15-48-4-9-5-10-12-15-4-2-9-6-11-7-4-4-24-13-36-17-7-3-11-3-30-5-24-1-29-1-40 4-4 2-10 4-15 5-9 2-11 3-17 7-1 1-6 3-10 5-6 3-8 5-11 8-1 2-5 6-8 10-4 4-8 9-12 19-7 13-7 14-9 25-1 11-1 21 1 48 0 9 0 12-2 20-3 13-3 22 1 32 4 13 7 18 15 26 7 6 8 7 10 15 2 5 3 10 3 13 0 6-4 35-7 44-2 8-3 10-10 13-4 1-7 4-8 5-4 4-9 12-16 25-7 12-8 15-14 20-4 3-8 7-11 10-2 2-5 4-6 4s-4 1-7 3c-5 2-6 2-14 2-8-1-8-1-18 3-16 8-21 10-37 15-23 8-37 16-43 25-2 2-5 7-7 10-5 6-14 19-24 37-7 14-8 15-11 28-6 30-6 37 1 41 4 2 106 4 136 2m-180-9c1-1 2-4 4-7 4-12 7-20 9-27 9-32 19-59 37-94 10-20 14-27 20-33 2-3 6-8 9-13 6-9 7-11 4-18-2-6-5-18-6-30-1-13-1-15 2-19 2-3 3-3 7-3 10 1 18 3 24 6 5 2 7 2 9 1 3-1 13-14 13-17 0-1-2-6-3-10l-4-8 2-4c1-1 2-4 2-5 0-3-9-13-15-17-7-4-8-6-8-12 1-5 1-5-2-7s-18-2-23 1c-4 2-6 4-10 11-2 3-4 8-6 10-3 5-3 6-4 16-1 7-1 11 0 12s2 5 3 9c1 3 3 9 4 11 1 4 1 6 0 8-1 3-9 9-16 12-2 2-5 4-6 4-1 1-3 6-4 12-6 16-11 25-26 45-17 22-22 29-32 41-13 15-25 31-31 42-4 6-7 12-8 13s-5 9-8 17c-4 8-10 21-14 29-7 14-8 17-6 19 1 1 13 2 27 4 26 3 51 3 56 1z"/></svg>