<svg xmlns="http://www.w3.org/2000/svg" width="1344" height="566"><path d="M0 283V0h1344v566H0V283m552 278c14-1 74-1 134-1 168 0 197 0 215-1h21c6 1 79 2 176 2h78l6-2c8-5 15-15 15-22 0-3-8-11-31-30-27-22-55-46-59-53-1-2-2-5-2-7-1-2 0-21 0-41 3-64 1-112-6-162-1-7-2-18-3-23-2-19-15-74-22-97-5-16-14-35-21-46-6-9-20-23-29-30-18-13-53-27-74-30-11-2-19-1-31 3-5 2-15 4-22 4-18 3-27 7-45 19-14 9-23 18-34 32-14 19-21 35-25 56-2 13-2 24 1 41 1 6 2 13 3 15 0 2 0 22 1 43 0 28 0 41 1 49 1 7 3 19 4 28s2 19 3 22c2 10 2 17 1 20-1 5-5 7-19 10-11 3-14 3-32 3-12 0-26 0-32 1-17 1-35 1-54 1-19-1-24-1-41 7-11 4-15 7-30 19-7 6-10 9-16 17-7 12-11 15-16 16-7 1-21 5-28 8-8 3-27 13-32 17-5 5-7 10-8 20-2 14-3 20-9 29-7 12-8 13-21 15s-19 4-22 9c-4 5-18 25-19 27-3 5 0 8 8 10s52 3 116 2z"/></svg>