<svg xmlns="http://www.w3.org/2000/svg" width="1344" height="566"><path d="M0 283V0h1344v566H0V283m246 281c5-2 5-7 2-42-2-18-3-23-7-41-1-4-2-12-2-17-1-8-1-10 1-14 2-5 2-5 1-9-1-2-2-7-3-11 0-4-1-8-1-10-2-4-5-30-6-50-1-11-2-22-2-25-1-3-2-13-2-22-1-11-1-18-3-21-2-6-2-15-1-17 1-1 3-1 14-1 12 0 13-1 18-3 8-5 9-5 8-27 0-17 0-21-2-28-2-11-3-14 0-18 1-4 9-17 17-27 4-5 4-9 1-18-2-7-5-10-11-14-6-3-10-2-18 2l-5 2-6-3c-5-2-7-3-11-3-7 0-8 1-16 8l-6 6v10c1 11 1 11-2 16s-3 4 3 15c4 6 2 18-3 18 0 0-4-2-8-5-7-6-17-11-31-17-5-2-9-4-10-6s-1-3 1-7c1-2 3-5 6-6 5-4 8-8 11-14 1-3 1-5 0-9 0-3-1-8-2-11-1-7-3-11-6-16-2-2-3-5-3-7-1-3-2-7-4-10-8-13-9-19-6-26 2-5 11-13 13-13 1 0 4-2 7-4 3-3 8-6 10-7 9-5 9-6 9-18V34l-7-7c-5-5-7-6-10-6s-15 3-22 5c-2 1-5 2-6 2-9 0-17 10-24 30-4 13-7 19-9 22-1 1-3 4-4 7-10 26-14 34-18 39-7 8-13 21-13 27 0 7-3 16-12 37-5 14-6 15-13 26-6 11-19 27-25 32-2 2-6 5-10 7-12 6-17 14-14 24 1 2 1 7 2 10 0 9 1 11 4 14 2 2 3 3 6 3s6 1 8 3c3 1 6 2 8 2 3 0 4 1 8 4 6 7 5 10-2 11-4 0-5 1-6 4-4 8-8 10-12 6-2-3-5-2-7 2-2 5-1 31 2 42 1 2 1 8 2 14 1 10 2 14 8 31 5 12 7 27 7 53 0 1-1 7-3 12-4 11-5 15-7 27-1 3-2 9-3 12-5 15 1 26 15 27 14 2 50-1 58-5 2-1 6-1 11-1h13c4 0 10 0 14-1 4-2 9-2 11-2h11c3 0 8 1 10 2 3 1 6 2 9 2 5 0 6 0 12 4 3 2 6 4 6 5 0 2 4 3 11 4s44 1 46 0z"/></svg>