<svg xmlns="http://www.w3.org/2000/svg" width="1344" height="566"><path d="M0 283V0h1344v566H0V283m542 277c26-1 49-1 50 0h52c68-1 67-1 80 1 9 1 22 1 53 1 23-1 59-1 81-1 42-1 45-1 82-6 7-2 12-2 19-1 5 1 20 1 33 1h24l12 3c10 4 11 4 21 3s11-1 14-3c2-2 2-3 2-7-1-7-6-26-10-36-3-11-6-15-14-25-6-9-9-14-9-19s-4-8-18-15c-7-4-15-8-19-9-66-26-72-29-72-37 0-3 5-18 17-52 3-8 6-18 6-22 6-30 4-127-5-182-7-51-22-86-48-111-20-20-41-32-61-35-12-2-41-2-58-1-16 1-19 2-28 5-20 6-46 26-61 46-2 3-7 11-11 18-11 24-17 44-24 78-10 52-14 92-18 170-1 24-2 27-8 43-2 6-4 9-9 15-7 6-8 7-19 12-7 3-15 6-18 6-14 4-34 14-61 30-11 6-15 8-33 14-18 7-22 9-26 14-3 6-4 15 0 24 3 9 3 16-5 36-10 30-11 36-6 40 2 2 3 3 21 3 10 0 21 1 23 0 2 0 26 0 51-1z"/></svg>