<svg xmlns="http://www.w3.org/2000/svg" width="1344" height="566"><path d="M0 283V0h1344v566H0V283m557 241c18-1 32-3 50-7 10-2 14-3 24-8 12-6 13-6 29-8 14-2 23-2 98-3 90 0 130-1 137-3 3-1 8-2 13-2 24-2 29-3 32-6 8-5 9-5 24-4 19 1 40 1 45-1 8-2 10-3 14-8 5-8 14-24 15-27 1-7-3-11-14-12-6 0-7-1-10-4l-4-4h-9c-16 1-31 5-46 12-5 2-9 3-10 3-5-1-8-5-8-14-1-10-7-25-16-44-10-19-13-27-22-46-11-25-22-45-36-63-9-11-35-34-76-66-7-5-17-13-21-17-18-14-20-16-50-30-4-2-13-6-19-9-7-3-20-9-29-14-23-10-25-12-31-22-13-22-27-32-47-34-16-2-25 2-37 13-16 17-23 43-18 65 3 12 9 21 14 21 4 0 9 6 14 15 5 11 5 14 0 22-5 7-17 19-24 24-3 1-5 3-5 4s-24 27-32 33c-8 7-10 10-21 32-4 7-8 14-8 15-1 0-2 4-4 9s-4 10-5 11c-1 2-5 11-9 21-8 18-10 20-24 35-22 25-26 33-23 55 1 8 7 37 9 42s12 15 17 17c4 3 21 6 30 7 8 1 78 1 93 0z"/></svg>