<svg xmlns="http://www.w3.org/2000/svg" width="1344" height="566"><path d="M0 283V0h1344v566H0V283m860 278c55-1 112-2 183-1 52 1 67 1 82 0 10-1 20-2 21-3s3-2 4-3c3-5-3-17-14-30-30-35-42-46-79-73-40-29-48-38-67-71-7-12-13-20-22-32-15-19-36-57-37-66 0-4 1-5 13-16 5-4 7-7 10-13 6-13 6-17 6-40 0-41-3-75-9-96-3-11-11-30-16-39-8-14-26-33-40-42-11-8-32-18-43-20-12-4-29-6-34-6-3 1-10 1-18 2-13 1-22 3-37 10-8 4-14 6-27 10-20 6-23 7-32 12-22 13-46 46-52 72-4 15-7 40-7 52 0 17 5 37 15 62 5 10 9 22 16 41 8 23 10 27 19 45 10 21 24 47 31 60 3 4 6 10 8 11 1 2 3 6 5 8 3 4 3 5 4 13v9l-6 6c-3 4-10 10-16 14-6 5-15 12-19 16-7 6-9 9-12 16-6 13-6 17-6 41 0 15-1 22-2 24s-2 19 0 22c1 4 3 4 54 5 27 0 58 1 68 1s35 0 56-1z"/></svg>