<svg xmlns="http://www.w3.org/2000/svg" width="1344" height="566"><path d="M0 283V0h1344v566H0V283m391 279c3-1 18-1 31-1 28-1 31-1 33-7 1-4 3-23 3-30-1-8 1-8 11-3 4 2 9 4 10 4 2 0 4 1 6 1 7 3 15 2 20-4 5-5 11-22 12-33 1-5 0-6-1-9-2-3-2-3-5-3-4 1-5-1-4-5 1-1 1-3 1-4-1 0-4-2-8-4-6-3-8-4-15-4-3 0-10 1-14 2-10 1-11 1-13-6s-1-13 6-43c4-15 4-17 4-31v-14l-5-14c-4-13-15-32-20-39-1-1-8-8-14-13-7-7-12-12-13-14 0-1 1-5 6-14 6-13 8-16 16-20 5-3 5-5 7-14 3-13 4-29 3-37 0-3-1-13-2-21-1-18-3-24-6-31-4-7-8-11-20-17-11-6-17-7-31-9-13-2-23 0-35 6-17 8-24 21-28 51 0 7-1 15-1 16-2 10-5 81-4 97 0 3-1 5-4 11-5 7-11 23-14 34-1 4-2 7-2 8-1 0-2 5-3 11-2 6-4 18-5 35-2 14-3 30-4 35-1 7-1 12 1 27 1 9 3 23 5 30 2 9 2 16 3 33 1 21 1 22 3 27 3 4 3 5 10 7 3 2 9 3 11 3 3 1 6 2 8 3 7 3 47 5 61 3m947-2c4-2 4 2 4-157 0-139 0-151-1-153s-6-8-11-14c-10-10-12-13-19-24-5-7-12-12-18-14-6 0-16-5-19-8s-6-13-8-21c-2-7-1-22 1-29s4-21 5-49c0-12 1-25 2-27 1-4 1-5 0-7 0-2-1-4-1-6 0-6-5-10-13-10-5 0-21-2-32-4-3-1-11-1-20-1-24 2-32 5-48 19s-19 20-17 32c1 3 1 15 2 25 1 16 4 44 5 46 1 0 2 4 3 9 1 4 3 11 5 15 2 3 4 9 5 11 3 6 4 8 12 10 9 3 13 6 15 11 1 3 1 4-1 10-2 4-5 8-15 18-16 17-20 23-24 45-2 6-4 14-6 20-1 2-3 8-4 13-2 4-4 10-4 11-2 4-4 15-6 29 0 7-1 15-2 18 0 2-1 10-2 17-1 25-2 39-4 44-1 3-4 7-6 11-7 8-23 23-28 26-5 2-8 2-18-2-2-1-7-3-10-4-4-1-8-3-10-4s-7-2-10-3c-6 0-7 0-8 2-3 3-2 6 5 14 3 3 6 7 7 9 1 5-5 12-16 20-9 6-10 10-3 14 4 3 5 3 9 13 3 7 4 8 9 6 8-3 11-2 16 5 2 2 3 3 16 4 7 0 17 2 21 2 4 2 15 2 30 3 19 1 26 1 29 3 3 1 8 2 13 2s20 0 33 1c38 1 134 1 137-1m-602-2h101c49 1 50 1 52-5s2-11 3-70c0-68 0-77 7-113 5-33 6-41 6-58 1-20 0-24-10-54-10-33-15-48-21-57-2-3-4-7-5-9-2-1-4-5-7-8-5-6-7-11-7-18 0-10-2-12-12-13-4 0-8-1-9-2-2-1-9-10-12-15-2-4-2-7-3-18 0-7 0-16 1-20 2-15 3-33 2-39-2-12-14-27-26-34-4-2-9-5-12-7-5-3-14-5-21-5-11 0-34 8-49 18-7 5-14 14-16 20-1 2-1 9-1 15 0 8 0 14-2 18-1 7-1 7 0 13 2 9 2 17 0 27-1 11-2 10 3 16 2 3 6 10 10 16 12 19 18 25 30 26 13 2 14 6 5 17-2 2-5 6-6 8s-3 5-4 6c-2 2-2 5-3 10-1 4-3 15-7 25-11 35-13 42-16 60-2 9-4 20-4 22-1 3-2 7-2 10-1 2-4 13-6 26-3 12-6 23-6 26-1 2-2 8-3 12-3 14-6 26-8 36-10 43-21 108-20 114 1 1 2 3 3 4 2 2 3 2 16 2 7-1 34-1 59-2z"/></svg>