<svg xmlns="http://www.w3.org/2000/svg" width="1344" height="566"><path d="M0 283V0h1344v566H0V283m256 279c8-1 31-2 105-3 28 0 43 0 53 1 15 1 43 2 66 0h115c9 0 53 0 217 3h26l2-3c3-3 3-4 3-9 0-6-1-9-11-23-14-22-22-27-58-40-6-2-16-6-20-8-15-5-27-8-45-12-11-2-22-7-27-12-6-5-15-17-18-22-2-4-2-4-1-8 1-2 4-6 6-9s7-12 11-21c5-9 9-18 10-19 0-1 3-7 5-13 2-5 5-12 7-16 2-3 5-9 8-14 2-5 6-12 8-15 7-12 10-30 14-73 1-13 2-28 3-34 5-61 2-82-18-128-8-20-17-34-28-45-9-9-32-26-40-29-10-5-18-5-94-5-81-1-73-1-90 9-29 19-43 37-53 66-6 15-8 23-11 49-3 23-3 25-9 42-8 24-9 32-9 51 1 13 1 16 3 22 4 10 4 13 3 27-4 23-2 37 4 49 9 19 24 57 24 64 0 4-9 19-17 27s-15 16-18 21-7 9-14 13c-11 7-21 11-48 18-7 2-15 4-19 5s-12 3-18 5c-15 4-49 17-67 25-11 6-15 8-20 13-11 10-19 24-20 34-1 11 4 16 15 17 8 1 57 1 65 0z"/></svg>