<svg xmlns="http://www.w3.org/2000/svg" width="1344" height="566"><path d="M0 283V0h1344v566H0V283m754 274c5-1 21-2 34-2 29-1 42-2 45-4 3-1 12-2 24-4 2 0 8-2 11-4 4-1 11-4 16-5 13-3 12-3 21-12 7-6 9-9 10-12 1-5 4-8 9-9 13-3 13-3 20-9 6-7 15-13 19-13 6 0 8 3 14 20 3 7 12 25 19 36 5 6 16 10 23 8 9-3 22-22 23-33 1-9-2-14-12-25-10-10-10-11-17-27-5-10-12-26-23-46-3-7-7-16-10-22s-14-25-24-42c-11-17-22-36-26-42-3-7-9-15-12-20-21-33-31-47-35-53-6-8-28-31-39-42-27-25-28-26-28-30 0-2 2-8 5-15 3-6 6-15 7-18 6-25 6-25 6-48 0-20 0-22-2-27-3-8-8-14-16-19-24-16-59-22-78-12-5 3-14 11-17 16-6 10-9 33-6 49 1 5 2 11 3 15 0 3 1 10 2 16 1 13 1 21-1 26-2 4-12 14-17 16-9 5-52 20-64 23-2 1-10 1-16 2-10 1-12 1-18 4-4 2-11 6-16 10-4 3-13 9-20 12-27 16-43 30-66 56-11 12-13 14-16 26-3 14-3 28 1 40s13 30 16 32 5 3 21 3c10 1 21 1 24 1 10 0 15 1 17 5 0 2 1 8 2 17 0 7 2 15 2 18 1 2 3 9 4 14 2 10 2 12 2 30-1 16-1 21 1 27 0 3 2 9 3 13 1 5 1 6-1 10-1 2-1 5-1 9 1 4 1 6-2 11-2 4-3 8-4 10 0 5 2 10 7 12 6 3 28 6 58 7 14 1 28 1 30 1 13 1 81 1 88 0z"/></svg>