<svg xmlns="http://www.w3.org/2000/svg" width="1344" height="566"><path d="M0 283V0h1344v566H0V283m1096 277c18-1 22-2 23-5 2-4-8-17-30-42-12-14-22-23-37-35-51-39-60-47-66-59-2-3-5-9-7-11-6-10-18-35-25-52-12-28-18-40-26-54-9-16-9-18-5-25 13-20 14-22 18-41 3-10 4-16 5-42 1-33 1-43-2-59-1-11-3-16-6-25-14-34-30-56-54-74-13-10-18-13-27-15-4-1-13-3-21-5-7-2-16-5-21-6-8-1-10-1-17 0-4 1-10 2-14 2-8 1-18 4-34 11-8 3-23 8-32 11-26 9-37 15-50 28-9 10-19 24-25 35-13 25-15 73-5 108 1 3 5 12 8 21 7 18 8 24 10 38 1 8 5 27 7 32 9 24 18 44 35 78 7 15 10 18 13 21 5 4 14 10 18 10 4 1 4 3 2 9s-6 11-11 14c-2 2-6 5-8 7-3 2-11 8-18 13-21 14-31 24-34 39s2 47 9 63c4 7 8 9 23 10 6 0 70 1 143 0 73 0 147 1 165 1 35 1 71 0 96-1z"/></svg>