<svg xmlns="http://www.w3.org/2000/svg" width="1344" height="566"><path d="M0 283V0h1344v566H0V283m794 278c10 0 46-1 78 0h58l7-3 8-3 6 3 7 3 34 1c34 0 86-1 102-3 12-1 12-3 5-23-2-7-5-14-5-15s-2-6-5-11c-7-16-6-15-6-32 0-14 0-15 4-28 4-14 6-19 14-38 6-11 10-30 11-42 0-8 0-10-2-13-3-4-7-4-13 1-2 2-5 4-5 4-3-1-6-9-7-15-1-8-2-10-5-14-4-4-11-2-17 6-2 3-4 6-5 7-2 0-4-2-7-7-1-3-4-6-5-7-6-3-10-1-17 7-5 7-7 8-14 9-3 1-8 2-11 4-5 3-7 3-10 3-2-1-8-6-17-17-5-5-7-7-18-12-7-3-18-8-25-11-24-10-42-19-46-23s-4-4-4-12c0-5 1-13 1-18 2-28 3-49 2-63-2-21-7-43-13-51-10-13-15-19-21-24-13-11-46-29-60-33-5-1-13-2-23-3-23-2-34 1-57 13-15 8-25 17-35 29-10 13-11 14-16 28-3 10-4 13-3 17 0 6-7 27-14 42-3 6-3 7-4 21 0 8 0 21 1 29 1 18 0 20-6 24-3 1-9 4-14 5-42 14-59 20-68 25-13 8-23 15-27 21-5 8-6 9-8 9-1 0-2-2-3-4l-5-5c-4-2-8 0-13 10-3 4-5 8-6 8-2 0-5-7-8-14-3-10-7-17-11-19-5-3-7-2-11 7-5 11-8 12-15 5-6-4-11-4-13 2-1 2-2 7-3 12-1 11-3 15-6 18-3 1-3 1-8-1-7-3-9-3-12 1-3 3-3 9-2 18 3 14 12 38 23 61 16 35 17 38 18 47 0 6 0 9-2 15s-10 22-15 32c-4 7-4 11-2 13 2 3 4 3 17 3 10 1 18 1 24 0 7-1 36-1 104-1 88 0 123 1 138 3 7 1 58 0 86-1z"/></svg>