<svg xmlns="http://www.w3.org/2000/svg" width="1344" height="566"><path d="M0 283V0h1344v566H0V283m488 128c5-1 12-4 26-10 11-5 20-9 21-9s3 2 4 4c3 4 8 6 23 6 12 0 26 1 48 4 6 1 26 1 52 2 26 0 42 0 44 1 1 0 8 1 16 2 11 0 14 0 23-2 5-1 13-2 18-3 7-1 21-4 39-9 27-9 35-10 53-11 16-1 16-1 19-3 2-3 2-4 2-10s-2-33-4-39c0-1-1-6-3-10-1-4-2-11-3-18-1-14-3-18-12-23s-11-7-12-15c0-7 0-7 4-11l4-5-2-10c-1-5-4-18-7-28-6-24-8-32-10-44-3-12-4-16-12-31-10-22-20-35-32-43-7-6-23-14-30-17-12-5-21-7-31-5-18 2-43 9-51 14-11 6-21 20-27 37-4 11-9 39-12 62 0 3-1 9-2 13 0 4-1 10-1 13-2 14-5 33-7 34-1 1-3 2-10 2-11 1-12 1-22 9-13 11-20 19-26 30-8 16-12 22-22 31s-13 11-24 14c-5 2-12 4-16 6-8 3-18 5-30 7-9 1-11 4-24 36-11 26-11 25-9 28 1 1 4 2 17 2 9 0 17 1 18 0 2 0 6 0 10-1z"/></svg>