<svg xmlns="http://www.w3.org/2000/svg" width="1344" height="566"><path d="M0 283V0h1344v566H0V283m866 277c8-1 10-2 11-15 0-6 0-20-1-30-1-22-4-39-9-47-9-14-34-34-77-60-16-11-23-16-27-22-2-2-8-12-13-21l-8-17v-8c0-9 0-10 3-18 2-5 8-15 13-24 5-8 9-15 9-16 0 0 4-6 8-13 9-14 9-15 12-28 0-5 3-16 5-24 8-31 11-59 8-84-3-16-4-22-11-35-7-15-13-23-27-37-21-21-34-28-58-29-6-1-15-2-21-3-12-3-31-3-43-1-21 3-38 14-58 34-19 21-29 44-30 76-1 7-2 17-3 23-1 9-2 12-7 22l-6 11 1 14c0 15 1 23 6 32 2 2 4 5 5 6 3 6 7 11 13 16 5 3 6 5 8 10 3 7 5 28 3 34-2 8-28 35-44 45-7 5-32 15-50 20-11 3-24 7-32 10-3 1-10 3-14 5-12 3-26 8-32 12-8 4-13 11-20 25-8 16-19 40-23 53-2 5-8 20-14 33-11 27-16 41-16 44 0 1 1 3 2 5l2 2h61c33 0 71 1 84 1 30 1 383 0 390-1z"/></svg>