<svg xmlns="http://www.w3.org/2000/svg" width="1344" height="566"><path d="M0 283V0h1344v566H0V283m492 123c4-1 12-4 17-7 6-2 10-4 11-4 0 0 4-1 8-3 3-2 7-3 7-3 1 0 3 1 5 3 3 2 5 3 9 3 2 0 9 1 15 2 27 7 57 9 92 9 24 0 45-1 62-4 10-1 13-1 18 0 9 2 43-3 64-9 24-8 48-13 60-12 4 1 5 1 7-1 3-2 3-3 3-7 0-2 0-7-1-10s-1-11-2-18c-1-10-2-13-4-17-1-3-2-6-2-8 0-3-2-11-4-16-1-2-3-3-6-4-4-1-5-2-6-7-3-6-11-20-13-22-2 0-6-2-10-2-8-2-12-5-12-8 1-3 5-4 12-3 7 0 11-1 11-6 0-6-12-69-16-86-6-21-14-41-22-51-5-6-16-16-26-22-9-6-24-14-32-16s-24-1-31 2c-3 0-10 2-16 4-14 3-23 7-31 15s-13 16-17 26c-4 12-6 19-8 36 0 8-2 22-3 30-1 9-2 25-3 34 0 12-1 20-2 22-2 5-4 5-17 4-12 0-13 0-19 3-13 4-26 20-33 38-5 12-14 28-18 31-5 4-6 5-23 10-17 6-23 8-32 9-8 0-12 3-16 8-2 4-10 22-14 33-2 4-4 10-6 13-3 8-4 11-1 13s35 0 45-2z"/></svg>