<svg xmlns="http://www.w3.org/2000/svg" width="1344" height="566"><path d="M0 283V0h1344v566H0V283m544 278c9-1 18-2 20-2 8-2 8-6 1-14-6-6-12-9-25-10-6 0-11-1-12-2-8-5-7-33 0-51 4-9 5-20 4-33-1-6-1-11-2-12s-1-4-1-7c0-2-1-7-2-9s-3-8-3-12c-1-4-2-8-2-10-1-2-3-7-4-11-6-14-11-19-40-39-6-4-9-8-9-12 0-1 2-3 4-6 3-2 6-7 8-11 3-8 10-14 16-18 5-2 10-7 10-10 2-6 4-23 5-32 0-7 0-9-1-12-2-4-2-6-4-28-3-33-7-42-27-50-21-9-34-12-50-11-13 1-21 3-31 10-9 5-14 11-19 20-6 9-8 21-8 55-1 15-1 36-2 46-1 9-1 27-2 39-1 18-1 22-3 26-2 5-9 17-12 20-4 4-13 24-14 30 0 4-1 8-2 9-2 4-6 22-8 32 0 6-2 17-3 24-2 7-3 17-4 24-1 6-1 14-2 19-1 9-1 17 2 29 2 14 5 17 14 18 7 1 151 3 174 2 10 0 26-1 34-1m280-1c33-1 55-1 68 0 9 0 30 1 46 1 24 0 29 0 33-1 2-1 6-2 7-2 2-1 4-2 4-4 1-2 3-12 4-24 2-12 4-29 5-39s3-21 4-25c1-9 5-50 6-77 1-23 0-45-3-53-4-13-17-40-23-50-2-2-7-10-11-17-7-12-21-31-22-31s-19-20-21-24c-1-2-3-7-3-11-2-9-4-11-11-11s-10-1-15-7c-6-6-8-12-8-20s2-26 5-31c0-2 2-7 3-10 7-35 7-36 4-49-7-30-18-45-39-51-11-4-21-4-36-1-22 4-39 12-49 22-10 9-12 14-12 25 0 6-1 12-2 19-2 5-3 12-4 15-1 10-5 34-7 39-2 6-1 9 2 13 2 2 4 8 6 12 4 12 10 25 15 30 4 5 9 8 19 11 8 3 12 6 15 11 4 7 2 12-13 28-5 6-10 13-11 15 0 2-2 8-3 13 0 5-3 13-5 20-2 6-6 16-9 22-6 18-13 46-18 82-1 5-3 16-5 26-1 10-4 27-6 40-2 12-4 25-5 30-2 13-3 23-2 28 0 3-1 11-1 18-2 12-2 13 0 15 1 1 3 2 5 2s6 1 9 1c7 2 10 2 84 0z"/></svg>