<svg xmlns="http://www.w3.org/2000/svg" width="1344" height="566"><path d="M0 283V0h1344v566H0V283m354 277c198 0 246 0 269 1 20 1 79 1 97 0 20-1 24-3 27-14 1-6 3-34 3-49 0-7 0-9-2-14-4-7-11-13-25-23-5-4-15-10-21-15-26-17-41-29-42-34-1-3 0-7 5-16 2-4 5-14 8-23 6-16 10-28 19-50 4-11 8-25 16-72 1-5 2-13 3-18s2-12 3-17c0-4 1-12 2-18 0-5 1-20 2-32 2-36 0-58-8-74-4-9-13-21-19-27-14-13-70-47-87-52-9-2-27-2-35 0-8 3-14 3-23 2-26-3-48 7-73 33-9 10-13 16-24 36-9 17-14 28-16 38-1 3-4 11-6 18-4 15-9 39-12 62-1 6-3 17-4 24-3 23-7 56-8 76-2 43-3 44-5 49-2 4-5 6-10 8-1 0-12 5-23 10-27 13-29 14-47 15-18 0-20 1-28 6-4 3-14 8-23 12s-19 8-21 9c-8 5-15 16-27 39-15 32-25 44-64 84-12 13-13 14-13 17 0 5 1 7 4 9 2 1 23 2 30 1 4 0 83 0 178-1z"/></svg>