<svg xmlns="http://www.w3.org/2000/svg" width="1344" height="566"><path d="M0 283V0h1344v566H0V283m528 277c26 0 48-1 49-1 0-1 3-1 5 0s15 1 48 1c71-1 80 0 108 1 26 1 53 0 68-2 4-1 16-1 34 0 15 1 40 1 55 0 41-1 93 0 111 2 6 0 16 1 24 0 19-1 19-1 14-25-3-17-8-27-18-39-5-5-9-13-9-18s-5-9-16-15c-11-5-41-18-48-20-6-2-19-8-30-13-11-6-13-9-12-15 1-7 5-21 10-34 8-21 13-35 15-46 1-8 1-16 1-63 0-77-3-112-13-151-4-16-15-41-25-56-17-25-47-46-81-55-12-3-31-4-40 0-4 1-8 1-14 1-15 0-24 1-33 6-13 5-30 17-42 29-17 16-25 29-37 62-7 21-8 25-15 54-2 11-5 25-6 31-4 15-8 38-9 54-4 30-4 38-5 66s-3 49-5 60c-1 2-3 7-5 10-3 5-4 6-17 12-8 4-18 8-24 9-9 2-37 14-44 19-15 10-37 20-56 27-16 6-18 7-23 13-4 7-4 13 0 25l3 9-1 7c-2 7-5 16-13 36-1 4-2 9-2 11 0 8 2 8 22 9 10 0 20 1 23 0 3 0 27 0 53-1z"/></svg>