<svg xmlns="http://www.w3.org/2000/svg" width="1344" height="566"><path d="M0 283V0h1344v566H0V283m765 278c48-1 132-1 148 0 8 1 20 1 33 1 26-1 24-1 30-18 6-16 6-21 3-38-3-14-5-38-7-76-1-21-4-47-6-50-1-2-2-5-3-9-4-23-6-27-13-36-2-3-6-6-8-8-8-5-22-12-24-12 0 0-6-2-11-5-10-5-13-8-23-20-3-3-5-5-8-6-9-3-11-5-17-18-3-7-7-15-8-17-1-3-3-8-6-11-6-6-7-9-5-13 0-1 1-3 1-4 0-4 3-9 13-19 15-15 17-22 15-42-1-7-1-17-2-24-2-21-5-33-13-50-5-8-7-11-15-19-20-20-44-31-68-31-9 0-31 2-45 5s-35 15-45 27c-15 19-20 42-14 70 2 8 4 17 5 21s2 12 3 17c0 10 0 11-2 14-2 1-6 4-10 6-9 4-26 20-32 28-10 14-19 36-21 50-1 4-2 11-3 15s-2 10-2 13c-2 8-5 14-13 21-7 6-13 15-15 24-2 7-6 14-11 19-3 4-6 8-8 13-2 4-3 8-3 9s-9 24-11 27c-1 1-5 6-8 10-10 11-13 16-19 28-6 11-19 41-22 50-6 15-8 44-5 51 4 6 9 7 77 7 32 0 60 0 63 1 7 1 84 0 135-1z"/></svg>