<svg xmlns="http://www.w3.org/2000/svg" width="1344" height="566"><path d="M0 283V0h1344v566H0V283m768 199c3-2 18-6 24-6 2-1 7-2 9-2 2-1 6-2 9-2 3-1 10-3 22-7 24-7 42-9 62-7 20 1 21 1 23-1s2-3 2-11c0-6-1-15-2-22-5-28-5-33-5-54v-21l-5-5c-4-4-6-5-12-7-3-1-10-4-15-5-4-2-10-4-14-5-3-1-7-2-8-3-4-2-8-7-9-12-1-2-3-6-5-8-1-2-3-5-3-5 0-1 1-3 3-6 3-3 3-3 2-13 0-5-1-14-2-20 0-6-1-13-2-17 0-8-1-15-8-48-10-54-16-72-31-97-10-18-11-19-18-25-8-8-17-14-34-22-10-5-15-7-22-8-16-4-26-2-40 5-6 4-8 4-14 4-18 0-32 8-43 25s-17 33-24 65c-7 31-8 43-10 80 0 21 0 25 5 66 1 15 1 19-2 20-2 0-10-1-20-2-9-1-20-2-23-2-10 0-14 3-31 22-7 7-26 23-35 29-4 2-11 7-17 10-5 3-13 9-16 12-9 8-16 10-26 10-6-1-7-1-9 1-4 3-23 47-28 63-1 5-3 12-5 15-3 8-3 9 7 9 5-1 10-2 16-4 14-5 35-10 41-10 2 0 6-1 10-1 5-1 8-1 13 0 6 2 9 2 20 1 8-1 15-2 17-3 3-1 7-1 12-1 6 0 9 0 15 3 11 5 34 9 56 11 8 1 15 2 17 2 4 1 6 1 33-2 6-1 14-1 28 0 24 2 36 5 43 9 4 3 5 3 13 3 4-1 10 0 14 0 8 1 20 0 22-1z"/></svg>