<svg xmlns="http://www.w3.org/2000/svg" width="1344" height="566"><path d="M0 283V0h1344v566H0V283m890 273c1-2 3-6 5-11 2-8 2-10 2-30 0-16 0-23 2-28 1-6 1-7-1-26-2-11-4-24-5-29s-3-12-4-16c0-4-1-10-1-14-1-10-4-24-8-38-1-6-3-14-4-17s-2-9-4-13-4-11-4-16c-1-4-3-13-4-19-2-12-5-19-11-32-10-23-28-43-41-48-11-3-19-10-22-17-2-5-1-19 1-28 1-2 3-11 4-19 2-13 2-16 1-23-2-16-9-28-22-38-7-5-12-8-22-10s-24-2-30 0c-3 1-7 3-10 4-18 6-18 6-27 15l-14 14c-9 12-13 27-13 41 1 6 1 7 4 10 2 2 3 4 4 12 5 22 4 27-4 37-6 8-9 15-13 25-2 8-7 18-15 32-3 6-8 16-12 23s-8 14-12 18c-3 4-7 9-10 12-5 7-14 16-25 25-4 3-13 10-20 16-10 9-14 12-24 17-12 5-15 6-25 4-21-4-56-7-66-5-9 2-10 4-9 17 0 12 0 14-7 16-6 2-8 6-8 15 0 5 1 7 3 12 8 15 12 16 31 12 7-2 15-3 16-3 4 0 18-4 28-7 4-2 12-4 16-5 5-1 18-5 27-8 10-3 20-6 21-6 2 0 5 2 13 10 14 14 16 19 14 29-1 6 0 14 4 23 4 7 7 10 10 8 1 0 5-4 8-8l7-7 7 1c4 0 12 0 18 1 13 0 14 0 12 6-4 10-5 17-4 27l1 9 11 12c7 7 13 13 15 14 3 1 8 2 12 3 20 3 29 3 72 2 24 0 52 0 62 1 9 0 28 1 42 1l25-1 3-2z"/></svg>