<svg xmlns="http://www.w3.org/2000/svg" width="1344" height="566"><path d="M0 283V0h1344v566H0V283m582 278c9-2 26-2 52-1 22 1 69 1 105 0 32-1 32-1 102 1 62 1 78 1 109 0h50c27 1 93 0 117-2 14-1 16-2 18-8 2-7-3-35-8-49 0-1-2-10-4-19-7-28-13-46-22-59-11-16-19-34-23-52-7-30-8-34-9-41 0-8 0-10 12-22 9-11 14-18 15-24 2-6 6-11 18-23l15-15c3-7 1-11-13-28-9-10-10-12-21-19-13-10-21-17-43-38-25-27-40-40-68-64-6-5-31-24-36-27-2-1-7-4-12-7-14-9-19-11-23-15-6-4-29-15-37-18-11-4-31-7-49-8-24-1-37 2-55 10-5 3-12 5-19 6-13 3-19 6-29 13-15 10-25 23-39 48-5 10-8 14-17 28-1 3-5 10-9 15-4 6-8 12-9 14-4 9-22 22-34 25-3 1-11 2-18 3-18 1-23 4-21 11 1 4 11 14 16 17 7 2 46 1 57-3 1 0 5-2 9-4l8-3 3 2c4 6 5 12 6 34 0 20 1 21 3 25 9 16 13 24 15 39 1 4 2 9 2 13 2 12-2 17-16 23-4 2-12 5-18 7-5 3-12 6-16 7-14 6-21 8-32 13-26 12-26 12-42 15-5 1-10 3-11 3-1 1-3 3-5 6-2 5-14 23-25 39-7 9-12 19-14 27-2 10-8 25-18 45-16 32-18 35-29 45s-10 14 6 16c4 0 28 1 53 0 35 0 47 0 53-1z"/></svg>