<svg xmlns="http://www.w3.org/2000/svg" width="1344" height="566"><path d="M0 283V0h1344v566H0V283m642 279c13-1 90-3 127-3 21 0 22-1 24-2 2-4 1-13-4-36-3-12-4-16-2-18s8-4 15-4c2 0 7-2 12-4 8-3 11-5 15-9 3-3 6-7 7-10 3-8 5-11 10-13 3-2 6-3 7-4 2-3-1-8-7-15-10-10-10-10-15-43-1-12-4-26-6-35-1-3-2-8-2-10-1-3-2-7-2-8-1-2-2-10-2-18-1-13-2-16-4-20-4-8-13-19-19-22-8-4-19-12-25-16-2-3-8-9-11-15-8-10-8-13-3-15s7-9 9-26c2-15 2-19-2-46s-12-45-23-55-18-13-38-14c-12 0-15 0-20 1-24 7-40 27-42 51 0 9 1 31 4 42 0 4 3 10 4 13 6 11 11 26 11 32 0 5-1 7-10 15-10 9-16 12-40 20-13 4-25 10-29 14-2 1-4 5-6 7-3 6-7 18-7 19s-1 4-2 7c-3 7-8 24-12 38 0 4-2 10-3 13-2 7-7 27-10 37 0 3-2 8-3 11s-2 8-2 11c-1 9 0 31 2 35 2 5 18 21 24 24 3 2 6 3 17 3 15 0 17 1 15 6-1 1-3 10-6 20-10 32-10 38-2 40 7 3 40 3 56 2z"/></svg>