<svg xmlns="http://www.w3.org/2000/svg" width="1344" height="566"><path d="M0 283V0h1344v566H0V283m557 277c4-1 33-1 63-2 31 0 69 0 84-1 63-1 71-1 94 0 53 2 51 2 53 0s2-5-2-13c-5-9-30-33-45-42-7-5-23-13-36-18-19-8-48-23-55-30-11-9-10-15 10-46 3-4 10-16 16-24 6-9 13-21 16-26 9-16 24-36 29-41 3-3 7-7 10-9 11-9 19-22 28-44 6-13 8-19 8-27v-7l-6-6c-6-5-6-6-6-10 0-3 1-9 2-14 13-52 16-72 16-100 0-25-3-41-14-61-9-17-18-28-27-31-10-3-26-4-115-4-81 0-107 1-120 3-4 1-7 1-7 1-2 0-7 5-9 9-5 9-14 29-16 37-7 21-15 57-17 82-2 18-5 23-17 24-10 2-17 7-19 15-1 2-2 7-3 12-2 14 3 40 11 56 4 7 7 12 18 26l5 6v11c-2 23-7 47-14 62-6 11-11 17-15 19-2 0-12 1-21 1-21 1-43 3-46 5-4 2-10 10-18 24-4 7-10 15-12 19-3 3-7 10-11 16l-5 10v12c0 9 1 17 3 30 2 10 4 28 6 39 3 20 4 25 7 28 1 0 5 2 8 3 6 2 8 2 56 3 43 0 52 0 60 2 9 1 36 3 42 2 2 0 7 0 11-1z"/></svg>