<svg xmlns="http://www.w3.org/2000/svg" width="1344" height="566"><path d="M0 283V0h1344v566H0V283m338 278c69-1 66-1 122-1h84c34 0 51 0 70 1 21 2 32 2 64 2 35-1 39-1 41-3 3-2 4-4 4-23 0-16 0-16-3-21s-3-6-12-10c-5-2-11-5-13-6-2-2-7-4-11-5-4-2-11-5-16-8-5-2-18-9-28-14-10-6-25-13-32-16-20-8-24-11-28-14-7-7-7-10-2-24 3-10 4-12 6-13 1 0 3-2 5-4s6-5 9-7c2-1 6-3 7-4 2-1 5-3 7-3 3-1 6-3 8-4 1-1 6-3 9-5 13-6 20-14 23-25 1-2 1-13 2-24 1-12 2-25 4-35 3-21 4-47 2-66-1-9-2-23-2-40 0-53-4-84-14-103-5-9-7-12-15-19-10-8-13-10-35-21-29-15-39-19-70-28-12-4-26-5-39-5-19 1-29 3-37 6l-10 5c-3 1-12 5-20 9-9 5-19 9-24 11-15 6-21 11-28 21-4 7-13 28-17 41-1 5-3 10-3 12-3 6-9 29-11 43-4 20-7 38-12 80-1 5-2 14-2 19-1 5-3 18-4 28-2 11-3 22-4 25s-1 14-1 25c0 21-1 29-6 49-2 6-4 16-5 21 0 6-2 13-3 16 0 3-3 11-4 18-7 26-9 30-20 42-4 5-11 13-16 18-11 14-21 23-33 32-19 13-23 20-12 24 6 3 30 5 47 4 9 0 44-1 78-1z"/></svg>