<svg xmlns="http://www.w3.org/2000/svg" width="1344" height="566"><path d="M0 283V0h1344v566H0V283m270 278c26-2 132-2 144-1 14 2 39 2 112 0h70c19 0 196 2 217 3h25l4-4c4-7 2-13-10-31-13-20-22-27-52-37-9-4-20-7-25-9-14-5-23-8-41-12-14-3-18-5-24-8-7-4-13-10-20-20-6-8-6-11-1-19 2-2 6-11 10-19s8-16 10-19c4-5 10-18 13-28 1-3 4-8 6-11 1-2 6-11 10-20 6-13 7-16 10-33 2-11 4-22 4-25 0-5 1-21 4-52 5-54 3-78-9-111-11-31-24-55-39-68-7-7-30-23-38-27s-18-5-82-6c-71 0-82 0-91 5-10 5-27 18-36 27-14 14-22 28-30 51-4 13-7 25-8 45-2 19-3 25-10 44-7 22-7 25-7 44-1 17 0 20 5 27 4 4 4 10 1 22-3 11-3 20-2 34 1 10 1 11 10 32s17 42 18 49c0 4 0 5-6 13-3 5-11 15-16 21-5 7-11 14-12 15-4 6-6 8-15 13-12 6-24 11-37 14-5 2-16 5-24 7-7 2-18 5-24 7-9 3-20 6-42 14-13 5-35 15-40 19-13 9-24 26-26 39-1 5 1 10 5 13 1 1 5 2 9 3 7 1 59 1 80-1z"/></svg>