<svg xmlns="http://www.w3.org/2000/svg" width="1344" height="566"><path d="M0 283V0h1344v566H0V283m344 278c11-1 10-1 29 0 8 0 38 1 67 1h394c54 1 60 1 64 0 3-2 4-2 8-1s14 1 32 1c25 0 27 0 30-2 7-3 8-6 9-15 0-5 0-12-1-17 0-4-2-14-3-23-11-81-21-130-43-200-4-13-6-20-12-42-2-7-5-20-8-29-3-8-5-16-5-19s1-6 4-11c7-13 19-37 21-44s10-36 11-43c2-11-3-27-11-34-10-8-23-13-34-14-7-1-21 1-31 4-14 5-22 11-29 21-3 5-18 40-21 51-3 9-6 14-9 15-2 1-8 3-13 4-14 3-18 6-24 15-3 5-10 12-15 14-4 2-4 2-6 0-1-1-3-5-4-9-3-9-11-30-15-37-5-10-12-20-21-29-12-13-29-24-51-32-19-8-23-8-38-8s-18 0-34 7c-4 2-11 4-16 5-12 2-20 5-26 10-10 8-22 25-31 44-7 18-11 34-13 58-1 9-2 20-2 26-2 15-2 102-1 110 2 17 5 32 8 47 2 14 0 19-12 20-6 0-8 0-20-4-17-5-27-9-33-14-4-4-8-11-12-21-4-9-23-66-38-110-7-23-7-26 6-32 11-6 16-12 25-29 7-15 8-19 6-33-1-5-2-14-3-21-1-14-4-26-7-32-3-5-12-13-19-17-11-6-22-8-39-9-16 0-23 1-32 5-7 3-10 6-15 13-10 15-11 22-8 51 2 18 2 20 0 24-2 6-4 8-12 13-9 5-15 11-18 19-7 15-17 33-22 40-3 4-6 9-7 10-1 2-4 6-5 8-14 20-24 44-34 82-2 7-5 15-6 19-7 25-10 52-8 87 1 17 1 25 0 35-1 8-1 23-1 35 0 22 0 23 2 28 2 3 4 6 6 6 4 3 12 3 54 4 43 1 76 0 92-1z"/></svg>