<svg xmlns="http://www.w3.org/2000/svg" width="1344" height="566"><path d="M0 283V0h1344v566H0V283m1252 277c3-1 5-4 6-12 1-10 6-22 13-33 3-5 8-14 9-18 5-11 5-12 12-21 7-12 14-27 15-33 0-4 0-6-6-19-4-7-8-16-10-18-10-13-18-28-20-34-1-4-4-12-7-17-2-5-5-12-5-16-2-6-4-23-6-41-1-16-3-27-5-36 0-4-2-13-2-19-4-25-5-30-11-41-5-12-14-23-21-27-10-7-21-9-43-11-22-1-41 4-49 12-5 5-11 14-15 22-1 3-4 8-5 10-3 6-6 14-8 21-1 2-3 7-4 10-7 10-7 6-3 49 1 8 1 13 0 14-1 2-17 8-23 10-6 1-18 11-25 20-18 26-20 30-18 43 2 10 1 16-1 22-2 5-3 6-11 10-11 7-11 7-16 14-5 8-5 10-2 27 4 20 4 19 15 30 9 10 10 10 24 16 3 1 10 3 18 4 16 2 17 2 18 4s-2 18-8 38c-2 7-1 8 13 19 2 1 12 1 54 2 29 0 53 0 53 1 1 0 70-1 74-2z"/></svg>