<svg xmlns="http://www.w3.org/2000/svg" width="1344" height="566"><path d="M0 283V0h1344v566H0V283m728 277c34-1 126-1 202-1 95 0 141 0 143-1 4-2 5-4 1-9-3-5-12-14-18-17-5-4-37-18-44-21-3 0-8-2-10-4-5-2-31-18-38-23-10-8-26-18-30-19-12-5-28-16-43-32-11-10-14-16-21-29-2-5-6-13-9-18-3-6-7-14-9-19-2-8-7-17-14-24-2-3-7-8-10-13-8-11-9-14-4-20 2-2 6-8 9-14 14-32 15-36 19-55 0-5 2-14 3-19 3-8 3-10 2-32 0-50-4-74-13-92-7-13-27-33-40-38-16-7-45-10-66-8-15 1-21 3-33 8-26 11-33 16-42 30-14 21-20 37-33 86-3 12-7 26-8 30-2 3-5 12-7 18-9 29-27 70-36 86-6 8-7 13-6 15 1 1 1 2 2 2 2 0 8 7 11 11 4 10 3 12-16 42-13 21-22 36-31 56-9 18-16 33-25 49-12 21-12 22-13 39 0 21 2 33 6 35 2 0 24 1 49 1 26 0 48 0 48 1 1 0 59 0 124-1z"/></svg>