<svg xmlns="http://www.w3.org/2000/svg" width="1344" height="566"><path d="M0 283V0h1344v566H0V283m522 276c12-1 53-2 70-2 3 0 40 0 82 1 78 0 111 0 312-1 128 0 133 0 174 1 21 1 31 1 32 0 2-1 3-5 3-8-1-4-12-18-20-27-8-8-19-17-30-23-10-6-35-18-49-23-15-5-56-20-66-24-4-2-12-5-18-7-22-8-43-20-57-33l-7-7v-8c1-10 7-33 17-70 8-29 9-29 17-33 18-8 24-12 34-24 12-16 19-34 19-49 0-10-2-14-8-23-6-7-7-11-6-21 1-5 2-12 3-17 3-12 8-46 9-62 2-24-2-48-12-70-5-11-9-17-14-19-6-2-20-4-39-5-13-1-54-1-111-1-78 1-90 1-97 2-4 1-8 3-10 3-3 3-13 17-16 24-10 26-19 57-23 78-2 15-6 32-13 55-2 8-2 10-2 24 0 17 2 32 7 46 2 5 5 15 8 23 5 14 15 50 20 71 2 9 2 13 2 28 0 19 0 25-4 29-4 6-7 7-23 6-15 0-23 1-29 4-3 1-14 11-25 23-30 29-32 31-63 44-6 3-20 9-31 14-10 4-28 12-39 16-22 9-34 14-47 23-16 11-36 32-36 38 0 3 3 4 14 5 14 1 57 1 72-1z"/></svg>