<svg xmlns="http://www.w3.org/2000/svg" width="1344" height="566"><path d="M0 283V0h1344v566H0V283m672 278c187-1 339-1 370 0h56l24-1 2-2c2-3 2-3 1-10-1-3-3-11-6-18-4-10-4-13-5-20 0-4 0-10 1-13 1-6 0-9-6-14-4-3-8-5-25-12-25-11-61-28-81-38-11-6-14-8-16-12l-3-5 1-14c0-7 1-16 1-20s2-13 3-22c2-18 3-55 1-96-2-51-8-92-20-134-7-20-15-39-26-56-12-18-33-36-53-45-11-5-33-13-43-15-17-4-34-2-47 5-9 4-10 4-21 5-12 1-13 1-21 5-14 7-33 25-40 35-5 8-12 26-17 38-3 11-6 28-8 48-1 6-1 13-2 17-1 10-2 67-1 82 3 39 3 42 1 49-8 24-10 27-24 36-14 8-16 10-17 16-1 7-1 21 1 30 1 12 1 25 0 29-2 3-3 3-12 5s-23 7-64 25c-18 8-35 16-40 18-10 4-11 6-11 11 3 17 2 23-9 56-5 14-7 23-8 27 0 6 0 7 2 8 4 3 25 4 48 3 8 0 60 0 114-1z"/></svg>