<svg xmlns="http://www.w3.org/2000/svg" width="1344" height="566"><path d="M0 283V0h1344v566H0V283m795 278c13-1 31-1 40 0 10 0 36 0 58-1 39-1 41-1 46-3l6-2 6 3 7 3h65c63-1 66-1 70-3 7-3 7-3 0-28-2-6-4-13-6-15-1-2-3-6-4-9-6-15 0-49 15-79 8-16 14-39 14-50 0-12-6-17-14-10-3 2-5 3-6 3-2 0-6-5-6-9-2-9-4-15-7-17-2-2-4-3-5-3-2 0-8 5-13 11-4 7-6 6-9 0-5-12-15-13-22-3-6 7-9 10-15 10-3 0-7 1-9 1-2 1-5 2-6 2-4 0-11-6-18-16-4-5-9-10-11-11-5-4-30-15-40-19-17-6-40-18-44-21l-3-4v-14c0-7 0-19 1-25 1-7 1-22 1-33 0-24-1-35-6-52-4-13-9-20-24-35-10-10-12-11-26-19-35-20-44-23-70-23-16 0-22 1-36 8-22 11-32 18-44 32-11 12-15 20-20 33-2 8-3 11-2 15 0 3-1 7-3 14-5 14-9 25-12 29-1 2-3 5-3 7-1 3 0 17 0 32 1 19 1 28 0 30-2 4-8 7-34 16-43 14-50 17-66 29-10 7-14 12-16 21-2 6-5 11-7 11-1 0-3-3-4-5-6-8-12-6-19 7-5 10-7 10-10 1-2-7-10-23-12-24-5-4-10-2-13 7-2 4-5 7-8 7-1 0-4-2-7-4-3-1-6-3-7-3s-3 2-5 3c-2 3-3 5-3 12-1 12-3 19-6 20-2 1-4 1-9-2-8-4-10-4-12 1-3 5-2 13 0 23 4 14 17 44 28 65 5 11 11 23 12 27 3 9 2 15-5 33-7 17-7 20-4 23l3 2 27 1c17 0 29 0 33-1 15-2 187-1 214 2 9 1 55 0 85-1z"/></svg>