<svg xmlns="http://www.w3.org/2000/svg" width="1344" height="566"><path d="M0 283V0h1344v566H0V283m764 251c5-1 11-3 14-4 4-1 13-3 20-4 8-2 15-4 16-4 1-1 5-2 9-2 7-2 11-3 31-8 12-4 18-6 33-9 12-3 13-3 29-3 8 1 19 1 23 2 9 2 10 2 10-12 1-11-1-37-3-42-1-3-4-32-6-51 0-4-1-10-2-11-2-4-11-7-32-12-7-2-15-4-20-6-11-3-11-4-11-22 0-13 0-13-2-16-2-1-4-2-5-2-3 0-6-4-6-8 0-2 1-3 5-5 2-1 4-2 5-3s-2-8-8-22-10-24-14-38c-2-4-5-13-8-20-3-6-7-19-10-28-4-8-8-20-11-26-2-7-5-16-8-22-8-26-26-48-55-66-17-12-17-12-29-15-22-6-31-6-56 1-8 1-20 5-28 6-16 4-22 6-30 12-12 8-19 18-27 38-5 14-10 32-11 39-1 10-2 85-1 117l1 26-2 3c-2 3-7 6-25 16-11 6-21 12-24 16-4 3-12 18-13 23-1 2-3 5-5 7l-4 4h-8c-5-1-9-1-9 0-2 3-18 11-31 16-8 2-16 6-18 7-2 2-6 6-9 10s-6 7-8 8c-9 4-15 6-21 6-7 0-12 2-14 5s-9 21-16 37c-2 6-6 16-8 21s-4 11-4 13c0 3 0 4 4 6 3 2 4 2 18 1 19 0 24-1 32-5 15-8 20-9 33-9 9 0 13 0 19-1 7-2 7-2 11-1 4 2 16 2 25 0 5-1 7-1 20 1 8 1 16 3 18 4s6 2 9 3c3 0 7 2 10 2 5 2 25 4 30 3 8-2 44-1 74 2 6 0 16 1 23 2s15 2 18 3c9 2 20 7 27 13 3 2 7 5 9 5 6 2 18 1 26-1z"/></svg>