<svg xmlns="http://www.w3.org/2000/svg" width="1344" height="566"><path d="M0 283V0h1344v566H0V283m880 276c6-1 23-1 61 0 72 1 95 0 99-1 8-3 7-8-4-42-3-11-7-24-9-28-1-4-3-10-3-14-1-4-3-11-4-16-2-4-4-11-5-13-4-14-19-56-22-64-6-11-13-19-21-22-3-2-11-4-18-6-18-4-61-13-76-15-7 0-15-2-17-2-9-2-25-10-42-19-15-9-20-11-31-15-5-2-8-6-9-12s1-20 4-25c4-9 18-26 25-33 9-8 11-13 12-28 0-17-6-55-12-73-9-23-36-58-54-69-8-5-25-15-30-17-13-5-25-6-43-3-12 2-20 3-34 2-9-1-10-1-17 1-24 8-39 24-49 55-6 17-12 46-13 62s0 22 4 35c3 7 6 23 9 37 0 2 1 8 3 12 3 10 7 15 19 21 20 9 31 26 36 57 3 15 3 20 0 26-4 9-29 36-45 46-9 7-23 14-30 16-8 3-15 7-32 20-22 17-31 25-40 35-11 13-14 23-16 49-2 23-1 36 2 40 3 2 8 3 23 4 22 1 369 0 379-1z"/></svg>