<svg xmlns="http://www.w3.org/2000/svg" width="1344" height="566"><path d="M0 283V0h1344v566H0V283m1074 279c5 0 7-1 9-3 3-3 3-4 2-6 0-2-5-13-11-25-10-21-13-29-21-56-7-24-6-27 3-30 8-3 16-9 19-15 3-7 5-19 3-30-2-15-6-23-22-50-10-17-11-19-12-31-2-17-3-21-17-34-9-9-13-14-16-20-3-4-7-10-10-13-2-3-5-7-6-8s-2-10-3-20c0-10-1-20-1-21-1-2-1-9-2-16-3-31-13-57-28-69-3-2-8-6-12-7-6-3-7-4-21-4-12 0-17 1-23 2-9 3-22 9-31 16-15 11-21 27-15 42 1 3 3 10 4 14 0 5 3 15 5 22l4 14c0 1 2 7 4 14 3 9 5 14 8 18 2 3 4 7 5 9 1 6-6 26-17 48-3 7-6 13-6 14 0 0 1 3 2 5 2 4 2 6 3 21 0 13 0 18 2 23 5 20 8 32 10 41 1 12 4 23 8 37 2 11 2 15-1 19-6 6-6 6-6 53 0 38 0 43 2 44 1 1 4 2 8 2 9 1 172 1 180 0z"/></svg>