<svg xmlns="http://www.w3.org/2000/svg" width="1344" height="566"><path d="M0 283V0h1344v566H0V283m312 278c12-1 38-1 58-1 21 1 37 0 38 0 2-1 5-1 10 0 6 1 7 1 10 0 3-2 4-2 14-1 12 1 37 1 142 1h134c46 1 68 1 88 0 31-1 29-1 30-13 1-4 1-9 2-12 2-6 1-17-2-22-4-8-9-11-53-33-62-30-74-37-77-40-2-4-1-7 4-22 6-15 8-23 8-28 0-4 7-25 11-34s7-19 9-36c2-9 3-19 4-22 2-8-1-41-6-84-2-15-4-30-5-32-1-14-8-45-14-62-4-14-16-37-25-48-12-17-32-35-47-43-14-8-34-16-44-19-14-3-29-3-43 0-17 4-25 6-32 9-4 2-11 4-16 5-12 3-16 4-24 9-9 6-20 16-28 27-20 27-38 82-45 142-5 40-6 49-7 61-1 7-2 18-2 25-2 28 3 70 15 122 2 13 1 16-10 21-8 5-15 7-24 8s-24 8-41 19-26 16-44 25c-16 8-33 19-39 24-4 4-6 9-8 20-1 6-3 13-5 17-5 12-4 16 6 17 13 2 19 2 58 0z"/></svg>