<svg xmlns="http://www.w3.org/2000/svg" width="1344" height="566"><path d="M0 283V0h1344v566H0V283m828 278c7-1 11-5 16-14 3-7 3-8 3-19v-12l4-8c4-8 9-17 13-24 12-18 17-27 23-40 9-19 10-21 20-32 5-6 8-10 9-15 4-7 4-9 1-15-2-2-4-8-4-12-3-14-10-22-15-16-3 3-11 19-11 22 0 6-10 17-19 19-3 0-8-2-8-5 0-2 7-16 13-25 6-8 6-9 6-14s0-7-3-9c-3-3-10-5-15-5-11 2-14 2-15 1-3-2-2-3 3-10 2-3 6-10 9-15 3-8 4-11 5-17 0-6 0-7-2-9-3-4-8-6-12-6-7 1-9 3-12 8-2 5-10 14-21 26-9 9-12 10-29 10-13-1-16 1-22 8-11 15-21 40-28 69-5 20-8 28-16 45-4 8-7 15-7 16 0 0-2 4-5 9s-8 14-11 20c-12 21-19 30-24 27-4-1-28-24-30-27 0-2-2-7-3-13-1-8-2-11-7-22-7-13-9-16-26-27-5-3-10-7-11-8-2-3-1-6 3-9 10-7 12-10 21-41 3-8 7-19 8-24 9-26 11-42 11-78 1-27 0-34-5-66-1-7-2-15-2-19-1-8-8-41-10-46 0-2-2-8-3-12-4-12-12-31-17-39-15-26-49-54-75-61-5-1-12-2-19-3-11 0-12 0-27 4-9 2-19 4-24 5-20 3-31 8-44 20-20 20-31 38-42 71-8 24-18 69-21 95-1 5-1 11-2 13-1 6-5 22-8 38-2 13-2 18-3 42 0 14 0 34 1 43 1 21 0 30-5 41-2 4-6 10-8 13-3 3-7 9-9 13-3 5-8 14-11 20-9 16-17 34-31 75-4 12-4 11 3 28 6 14 7 15 26 15 23 2 51 2 145 1 199-2 277-2 318 1 15 1 54 0 61-1z"/></svg>