<svg xmlns="http://www.w3.org/2000/svg" width="1344" height="566"><path d="M0 283V0h1344v566H0V283m931 278c34-1 77-1 95 0 36 1 78-1 83-3 6-3 6-11 1-23-4-7-9-14-22-28-5-6-13-14-17-19-8-9-22-21-35-30-38-25-59-47-77-78-5-10-24-38-28-44-6-7-22-34-24-42-3-7-3-16 0-21 1-2 6-8 12-13 9-9 11-11 15-21 6-12 7-16 10-32 6-27 7-42 7-61-1-19-3-29-9-48s-22-46-33-56-33-24-47-31c-11-4-17-5-57-5-34 0-44 0-57 4-2 0-10 3-19 5-15 3-16 4-32 12s-17 9-27 18c-17 18-19 26-21 63-1 27-1 39 2 57 2 9 2 20 3 43 0 17 1 33 2 35 2 9 7 26 13 43 3 10 7 20 8 24 6 20 12 32 20 39 3 3 7 6 8 7 1 0 4 1 6 2 1 0 6 1 9 2 23 4 30 7 33 13 4 6 5 10 3 14-3 3-9 6-29 12-28 9-55 24-69 38-12 13-17 25-20 53-2 16-3 18-4 21-2 2-2 6-3 21 0 19 0 24 4 26 5 3 25 4 129 3h167z"/></svg>