<svg xmlns="http://www.w3.org/2000/svg" width="1344" height="566"><path d="M0 283V0h1344v566H0V283m783 278c15-2 17-2 17-8 0-5-8-20-18-31-4-4-8-10-14-23-8-18-15-29-22-35-2-2-8-6-14-9-16-7-24-9-64-21-4-1-20-6-33-10s-26-8-27-8c-1-1-7-2-12-3-4-1-11-2-14-3-4 0-7-1-9-3l-3-2v-11c2-18 3-19 24-26 9-2 18-6 21-7 7-4 14-12 18-20 3-6 3-7 3-16 0-5 0-13-1-18-2-12-1-30 1-41 1-6 1-14 1-26 0-17 0-18-2-26-2-5-7-17-12-27s-10-21-11-25c-10-35-10-34-11-48-1-22-5-40-11-51-3-6-11-16-16-20-10-8-27-13-67-21-28-6-41-7-70-7-23 1-23 1-30 4-4 2-10 4-13 6-13 4-32 15-42 22-5 4-14 12-19 17-8 8-10 11-15 21-7 13-14 30-18 45-2 6-4 14-4 16-1 3-2 7-2 9-1 4-4 16-7 25 0 2-2 7-2 11-3 10-5 17-8 26-4 11-28 58-33 67-3 3-8 12-12 18-10 17-25 39-33 50-12 14-20 25-27 35-3 5-8 12-10 15-5 8-6 12-5 32 1 12 1 18 2 20 2 3 8 8 11 8s15 6 18 10c2 3 4 3 9 5 13 2 20 7 31 23 4 6 10 14 14 18 7 8 8 11 6 17-6 15-6 18-1 21 6 3 20 3 73 3h110c33 0 73 0 90-1 31-1 73-1 122 1 16 0 42 1 58 1s34 1 40 1c17 1 27 1 43 0z"/></svg>