<svg xmlns="http://www.w3.org/2000/svg" width="1344" height="566"><path d="M0 283V0h1344v566H0V283m204 279h40c25 1 40 1 46 0 5-1 61-1 150-1 197 0 254-1 258-3 5-2 9-21 6-28-3-4-9-9-22-17-6-4-15-9-19-12-3-2-9-5-11-7-17-8-53-31-57-35l-5-5v-21c1-12 1-38 2-57 1-37 1-48-1-60-1-4-2-11-2-16-2-16-8-53-11-66-1-4-3-12-4-18-5-23-6-29-10-38-10-20-24-37-44-51-13-9-25-13-48-20-17-4-36-3-51 3-2 1-7 3-11 4-16 6-19 7-39 18-8 4-12 6-13 5-1 0-4-4-8-12-9-18-19-27-40-32-11-3-30-3-42 0-25 7-40 21-44 43-1 4-3 10-4 13-1 4-1 10-1 20v15l7 16c5 14 6 18 7 24 0 8 0 8-3 11-1 1-4 3-6 4-1 1-5 5-8 9-3 3-7 8-9 9-2 2-5 5-7 8-2 6-20 24-33 35-9 7-25 26-32 36-6 9-10 25-14 56-1 5-2 12-2 14-2 11-5 37-5 46 0 13 2 21 10 52 7 28 12 41 15 46 3 4 18 13 23 13 5 1 40 0 42-1m816-3c9-1 19-1 37 0 24 1 41 1 71-1 17-1 17-2 11-12-7-11-9-16-13-24-2-5-7-14-10-22l-6-13v-29c-1-31-2-38-8-62-5-17-6-25-10-48-3-18-13-51-18-60-4-9-10-16-14-20-3-2-10-7-16-11-21-14-23-15-25-18-1-3-1-3 0-5 1-1 6-4 11-6 10-5 11-7 23-28 3-5 7-12 9-15l3-6-1-12c-1-15-1-22 0-37 1-8 1-12 0-18-1-5-2-13-2-19 0-11 0-12-3-17-7-11-22-22-37-26-11-3-28-5-36-3-15 3-31 12-46 27-15 14-17 21-15 50 1 26 1 46-1 51-2 6-10 19-17 25-8 7-14 11-24 12-9 1-21 7-27 12-2 1-10 6-17 11-16 9-36 23-43 30l-11 11c-5 7-13 24-15 32-6 19-20 90-25 128-1 6-1 19-1 43 1 33 1 34 3 39s4 7 10 11c3 2 10 8 13 12 8 7 11 9 18 11 4 1 22 4 33 6 15 3 174 3 199 1z"/></svg>