<svg xmlns="http://www.w3.org/2000/svg" width="1344" height="566"><path d="M0 283V0h1344v566H0V283m448 278c15 0 33-2 39-3 6 0 14-1 17-1 4 1 103 2 132 2 9 0 70 0 158-1 74-1 107-1 126 0 11 1 27 1 40 0 18 0 21-1 23-2 1-2 1-2-1-6-2-3-6-9-10-14-23-29-29-38-33-53-2-8-4-12-9-19-9-13-12-18-18-24-12-10-22-39-25-68-3-27-4-29-15-44-4-5-12-15-16-22-13-17-19-23-32-30-15-8-26-15-28-18l-2-3 2-11c2-10 2-16 3-40 1-37 0-43-8-76-6-24-10-39-14-45-2-4-6-8-17-17-15-13-27-20-44-26-9-3-11-3-28-4-10-1-18-1-19-1-1-1-19 3-24 5-2 2-8 4-13 4-6 2-11 4-20 9-11 5-14 7-21 15-9 9-13 15-19 30-5 10-6 26-5 46 1 33 1 35-3 43-3 7-3 8-3 17 1 8 1 11 4 18 3 5 7 12 10 16 2 3 8 11 11 18l6 10 1 10c1 20-3 46-8 51-1 1-4 4-7 5-2 2-6 5-7 8-4 6-9 13-13 21-2 4-7 10-9 13-3 3-8 9-10 12-5 7-5 8-13 11s-10 3-17 3c-9 0-9 1-23 8-9 4-17 8-19 10-7 4-26 13-43 19-6 2-7 3-16 12-5 6-13 16-18 22-10 13-27 33-30 34h-2c-1-1 3-14 7-27 3-8 6-15 6-18 2-3 13-29 18-38 6-13 17-29 24-36 4-5 9-11 11-14l2-6-2-6c-5-11-6-42-2-46 2-2 3-2 5-2 7 2 17 4 21 5 3 1 7 2 8 2 4 0 7-2 13-12 3-6 4-12 1-17-1-3-1-7 1-16 0-4 0-4-8-12-4-4-10-8-12-10-6-4-7-6-5-12 3-8-1-10-18-10-9 0-10 0-16 4-3 2-9 6-11 9-5 5-6 6-7 12-2 10-4 15-8 22-2 4-4 8-4 9 0 4 3 10 6 13 4 3 4 6 1 8-4 3-5 6-8 17-5 22-9 31-23 52-8 13-18 26-35 45-25 28-35 41-45 59-8 14-16 29-16 30 0 0-2 5-6 11-6 10-13 26-13 29 0 0 1 2 2 3s3 1 10 1c4-1 12-1 18 0 5 1 23 1 39 1h29l6 3c6 3 7 3 25 3 11 0 23 1 28 1s11 1 14 0c4 0 19 0 34-1z"/></svg>