<svg xmlns="http://www.w3.org/2000/svg" width="1344" height="566"><path d="M0 283V0h1344v566H0V283m731 278c13-2 14-4 6-11-3-3-5-6-7-11-2-3-3-7-3-9s-1-5-2-8c-7-13-6-22 3-42 5-12 8-12 10 2 0 4 1 8 2 10s2 6 2 9c0 11 1 12 6 13 3 1 8 0 12-2 1-1 1-3 2-11 0-7 0-10 1-13 1-1 2-5 3-9 1-5 1-6-2-17-2-11-2-12-3-56 0-44 0-54 3-58 3-3 5 0 10 11 6 13 7 21 7 37 0 14-3 41-5 50 0 2-1 7-1 10-1 4-2 10-3 14l-1 6 4 8c2 5 4 11 5 13 0 4 3 10 6 10 2 1 8 1 10 0 1 0 3-2 4-3 1-3 1-4-1-10 0-4-2-10-3-14-3-9-4-22-2-28 4-11 7-21 7-24s2-10 6-22c3-8 4-17 8-34 2-12 2-16 2-33 0-11 0-26-1-33s-1-24-2-36c-1-14-2-26-3-30-2-10-3-23-4-38 0-10 0-13 2-18 3-10 4-17 4-30 0-14-1-19-6-27-4-6-7-9-13-13-5-4-7-6-9-14-2-7-7-19-8-21-1-1-3-2-5-3-4-2-5-2-7-1s-6 8-6 11-4 10-7 13c-4 3-8 6-25 16-3 3-10 8-13 11l-7 6h-17c-18 0-18 0-23 3-9 4-14 9-17 15-2 5-2 6-2 28l-1 22-5 11c-3 6-6 14-6 18-3 13-6 36-6 39 1 2 0 7-1 10-1 4-1 9-1 16 0 9 1 10 5 17l4 7v24c-1 27-1 29 7 66 3 14 7 43 8 70 1 9 2 24 2 32 1 9 2 21 3 29 1 17 2 19 12 22 8 2 48 2 62 0z"/></svg>