<svg xmlns="http://www.w3.org/2000/svg" width="1344" height="566"><path d="M0 283V0h1344v566H0V283m443 159c2-2 2-3 2-13 0-9 0-11 2-16s2-7 1-14c0-4-2-10-2-14-3-9-2-24 1-45 1-9 3-28 4-41 0-13 2-29 4-38 3-22 4-30 2-39-1-4-2-12-2-17-1-12-5-37-7-44-1-7-7-18-12-27-3-4-4-8-5-13-1-3-2-11-3-15-1-5-2-13-2-18 0-4-1-9-2-10-2-3-7-5-15-6-9 0-13 1-16 7-3 4-6 14-6 18 0 1-1 4-2 5-2 2-2 4-2 10 0 7-1 9-4 18-2 5-4 11-5 14-1 5-1 20 1 29 1 5 1 10 1 15-1 6-1 9 1 12 3 8 0 32-6 52-2 5-3 10-3 11s2 4 4 6c4 5 6 9 7 15 1 2 3 10 4 18 6 23 6 27 6 55 1 20 1 28 2 33 1 3 3 9 4 14 2 9 4 12 10 15 6 2 8 5 10 12 2 8 6 12 13 13 6 1 13 0 15-2z"/></svg>