<svg xmlns="http://www.w3.org/2000/svg" width="1344" height="566"><path d="M0 283V0h1344v566H0V283m483 111c4-2 9-3 18-4 14-1 32-4 35-5 1-1 5-1 8-2 2 0 8-2 12-3 10-3 19-3 34 0 14 3 50 5 73 5 10 0 23 1 29 1 12 2 21 2 42 1 15-1 26-3 46-8 4-2 12-4 17-4 5-1 11-3 14-4 8-2 30-2 40 0 7 2 7 2 9 0 2-1 2-2 1-8 0-4-1-8-1-11-2-6-4-53-3-60 0-5 1-7 3-9s5-4 8-4c5-2 6-3 4-6-2-2-2-6 0-13 3-16 5-34 6-62 0-35-1-48-10-88-3-15-4-20-10-30-8-16-19-26-37-35-15-8-21-9-32-9-14 1-36 7-46 12-13 6-25 20-31 33-2 8-5 26-5 39 0 6 0 14-1 19-2 18-3 37-4 74-1 43-1 45-6 48-3 2-4 2-14 1-6-1-14-3-17-4-4-1-10-1-19-1-13 0-15 0-22 2-10 4-14 6-16 8-3 3-14 7-18 7s-14 7-21 15c-8 11-12 11-17 4-2-3-2-5-2-13 0-5-1-13-1-18-1-9-2-10-5-14-2-2-7-5-10-7s-8-4-10-6c-4-2-7-3-9-3-4 0-5 1-10 6-3 3-8 7-13 9-3 2-8 5-9 6-5 6-7 18-8 53-1 26-3 43-8 56-1 3-3 11-5 17-3 14-3 15 4 16s11 1 17-1z"/></svg>