<svg xmlns="http://www.w3.org/2000/svg" width="1344" height="566"><path d="M0 283V0h1344v566H0V283m584 101c7 0 16-2 21-3s14-3 19-4c6-1 16-4 22-6 21-5 30-7 50-6 15 0 18 0 30 3s14 3 22 2h14c5 0 10-1 18-3 22-5 26-6 29-7 6-2 30-2 38 0 9 3 10 2 8-14-2-22-4-37-4-41 0-2-1-6-2-10-2-6-3-10-2-19 1-4 2-6 5-8 2-2 4-4 4-5 0-2 1-4 1-7 1-2 2-10 3-17 1-15 1-65 0-74-1-4-1-13-2-20-1-20-9-52-17-67-5-9-21-26-31-30-26-13-52-12-83 3-8 4-11 6-15 11-7 8-12 18-16 31-3 10-3 11-2 25 0 8 1 27 1 42 0 19 0 29 1 36 1 6 3 17 3 26 1 9 3 18 3 21 1 7 0 11-3 13-2 1-13 2-27 3-14 0-28 1-30 2-3 0-10 1-14 1-6 0-11 1-14 2-2 0-7 2-10 3-6 2-8 4-12 8-3 3-8 7-11 8-7 4-20 5-29 4-14-2-20-1-24 6-4 5-7 7-17 11-7 2-8 3-11 8-8 16-21 55-19 59 1 3 6 4 21 4 14 0 16 0 22-2 4-2 8-3 10-3 3 0 7 2 7 5 0 2 4 6 8 8 5 2 15 2 35 1z"/></svg>