<svg xmlns="http://www.w3.org/2000/svg" width="1344" height="566"><path d="M0 283V0h1344v566H0V283m293 279c44-1 55-1 64-3 10-1 11-1 15 0 4 2 25 2 298 2h146c50 0 63 0 67-1s6-1 11 0c10 2 38 2 48 0 17-4 18-6 16-49-1-27-1-29 1-41 3-17 5-24 11-27 4-2 10-3 16-1 3 1 10 2 16 3 11 2 12 2 24 1 7-1 19-2 26-2 18 0 23-1 44-8 34-12 61-16 81-13 4 1 12 3 19 5 14 5 15 5 26 6 4 0 13 0 19 1 14 1 22 0 26-3 1-1 4-4 5-7 3-4 4-5 4-17 0-8-1-14-1-15-2-4-6-5-19-6-12-1-14-1-19-3-5-3-8-7-8-10 1-1 3-4 5-7 7-9 5-11-7-11-10 0-24 3-36 9-16 7-35 10-62 10-19 0-33-1-44-4-4-1-16-3-25-4-21-1-37-4-43-6-9-3-27-20-37-35-3-4-6-9-8-10-2-3-19-29-23-37-2-3-6-12-9-19-4-8-8-18-11-21-6-11-6-15-1-21 3-4 9-7 17-8 11-2 17-4 22-7 3-2 12-11 21-20 16-16 17-17 19-23 3-9 3-10 5-29 5-38 5-45 0-56-7-16-15-23-40-33-17-7-29-7-41-2-16 6-31 18-36 29-2 4-4 12-6 20-4 20-7 31-13 42-6 13-22 31-29 35-2 1-7 2-14 3-17 1-19 2-22 13-2 3-5 8-11 17-18 24-22 32-30 55-5 14-8 27-10 46-3 20-4 25-7 24-1-1-2-3-2-6-2-11-12-72-14-82-2-12-7-29-12-46-11-36-21-54-35-68-9-10-17-15-31-22-20-10-35-14-62-18-7 0-24 3-33 7-30 12-43 19-53 29-6 6-9 9-14 20-11 21-14 35-13 61 3 67 4 87 9 119 5 35 6 38 14 66 8 23 7 25-7 27-6 1-11 3-21 7-6 3-16 7-22 9-19 6-46 15-51 18-3 1-6 3-7 5-2 3-6 14-8 24-5 17-10 30-12 32-4 3-7-2-11-14-1-7-2-13-3-32-1-14-2-33-4-46-2-12-4-32-5-43-3-31-11-81-16-94-1-3-4-10-6-15-1-5-3-10-3-12 0-4 3-10 8-14 6-5 10-10 15-18s10-16 18-28c3-5 3-6 3-12-1-3-2-10-3-16-1-5-3-15-4-22-4-27-13-37-38-45-9-3-10-3-30-3-22-1-27 0-35 6-7 5-10 12-14 30-1 8-1 10 0 23 1 9 1 20 1 25 0 8 0 9-4 17-3 7-4 8-12 12-13 8-15 10-20 19-2 5-6 10-9 13-12 12-18 21-21 33-1 3-4 12-8 19-17 35-22 55-27 100-1 13-1 26-1 63 0 46 0 47-4 88-1 7-1 13-1 14 1 4 4 7 10 8s70 1 138 0z"/></svg>