<svg xmlns="http://www.w3.org/2000/svg" width="1344" height="566"><path d="M0 283V0h1344v566H0V283m570 276c1 0 20-1 44 0h75c47 0 46 0 47-23 0-8-1-25-1-38-2-30-1-62 1-65 1-2 1-2 28-2 39 0 66-2 82-6 7-2 13-3 38-8 8-1 21-4 29-7 3-1 6-2 7-2 3 0 22-11 32-17 14-9 24-22 26-33 1-9-13-32-35-57-13-14-23-22-38-28-15-7-16-8-27-19s-15-13-31-16c-14-3-13-3-37-16-7-4-9-4-20-6-14-2-23-5-47-18-20-11-20-11-22-31-1-11-5-35-5-37-1 0-2-5-2-9-2-11-10-29-17-39-5-7-18-20-25-25-12-7-29-13-54-18-23-5-28-5-37-4-12 3-20 6-33 12-27 14-50 39-67 72-3 7-6 13-6 14 0 0-1 4-3 8-2 3-4 8-5 10-4 14-18 25-49 41-13 7-20 11-32 20-13 9-23 14-39 20-25 8-33 14-43 27-11 17-15 28-15 49 0 13 2 35 4 42 1 6 3 9 28 38 4 5 8 11 10 14 2 2 4 6 5 8 2 1 3 6 4 11 2 7 2 10 1 35-2 40-3 57-7 70-2 7-4 14-5 17-6 13-3 18 13 17 7-1 75-2 88-2 28 0 104 1 108 2 6 1 27 0 32-1z"/></svg>