<svg xmlns="http://www.w3.org/2000/svg" width="1344" height="566"><path d="M0 283V0h1344v566H0V283m262 278c16-1 28-1 30-2s4-1 8 0 52 1 196 1h192l7-2c9-3 14-8 14-15 0-2 1-12 3-21 3-24 3-32 0-42-2-4-4-12-6-16-1-5-4-13-6-18-4-7-4-8-4-18 0-14 1-14-31-28-10-4-23-10-29-12-14-6-42-17-49-20-11-4-24-11-26-13-3-4-3-6-2-17 1-13 4-25 9-42 10-29 12-37 10-54-1-13-6-41-9-56-7-36-26-86-40-106-10-16-40-41-59-50-12-6-21-9-37-10-9-1-14-1-23 0-18 2-19 2-36 13-3 1-10 5-15 8-18 10-28 18-38 35-20 34-30 103-33 220 0 32 0 37 5 60 3 13 3 22 0 25-1 1-6 4-11 6-21 9-22 10-42 24-15 10-25 17-33 21-10 5-17 10-19 13-2 2-2 5-3 13-1 6-2 13-5 21-2 6-4 15-5 20s-3 10-3 13c-1 2-3 11-5 19-2 18-2 24 1 28 2 2 4 2 30 2h64z"/></svg>