<svg xmlns="http://www.w3.org/2000/svg" width="1344" height="566"><path d="M0 283V0h1344v566H0V283m564 218c19-5 34-7 54-8 14-1 15-1 21-4 7-4 14-4 19-1 3 2 4 2 22 2h79c61-1 88-2 96-5 2 0 10-2 17-4 19-4 27-6 32-9 3-2 8-3 10-4 35-4 48-9 60-22 5-5 10-17 12-25 1-7-3-10-11-11-3 0-8-2-11-4-6-2-6-2-14-1-7 1-8 1-15-1-10-4-12-6-15-12-1-4-4-9-8-13-6-7-20-28-28-42-3-4-6-9-8-13-3-4-9-14-13-22-20-36-33-53-50-66-4-3-10-8-14-11s-9-6-11-7c-2 0-7-3-11-5-20-10-33-18-39-21-14-10-60-30-79-35-7-2-15-6-17-8-1-3-24-11-41-16-9-2-11-4-18-13-5-9-17-21-25-26s-14-6-26-6c-11 1-17 3-26 11s-17 23-23 43c-3 13-3 21 2 30 4 8 6 9 12 12 4 1 9 6 15 14 1 3 5 7 9 11 7 6 8 10 4 16-2 3-20 20-22 20-1 0-5 5-10 10-4 6-13 15-19 21-14 14-18 19-23 28-5 10-14 30-16 36-1 3-4 12-8 19-3 7-6 16-8 19-1 4-4 12-8 20-5 12-5 13-4 15 2 1 2 1 7-1 7-1 19-7 24-10 1-1 4-2 6-2 8 0 12 8 14 24 2 20 4 26 14 34 4 4 8 9 11 11 4 6 10 9 18 12 10 2 14 4 16 9 3 7 12 11 23 12 13 1 14 1 24-1z"/></svg>