<svg xmlns="http://www.w3.org/2000/svg" width="1344" height="566"><path d="M0 283V0h1344v566H0V283m280 277c2 0 33 0 68 1 36 0 90 0 121-1h198c16-1 17-2 17-9 0-6-4-29-6-32 0-1-2-7-4-13-2-7-5-18-8-25-6-18-7-22-7-29 0-10-1-14-6-17-2-1-10-5-17-8-38-16-90-40-93-44-1-1-2-3-2-5 0-5 12-38 22-64 6-13 8-22 11-36 1-12 1-24-1-56-1-8-2-26-2-39-3-34-4-42-9-61-5-21-16-38-34-54-23-21-41-32-64-38-6-2-11-2-22-2h-16l-13 4c-7 2-19 5-25 7-20 4-27 8-39 21-8 9-12 14-19 28-7 13-10 24-15 44-6 25-17 93-21 127 0 7-1 14-1 15-1 3-5 43-6 56 0 7 0 20 1 27 1 15 0 20-3 24-3 2-17 9-27 13-20 7-26 10-46 24-7 5-19 13-26 17-14 9-24 16-26 20 0 2-1 5-1 7-1 2-5 12-10 21-9 19-13 31-16 47-3 13-2 23 2 27 3 4 1 4 77 3h68z"/></svg>