<svg xmlns="http://www.w3.org/2000/svg" width="1344" height="566"><path d="M0 283V0h1344v566H0V283m528 278c10-1 14-2 17-1s27 1 74 1c98 0 94 1 96-26 1-7 1-17 2-21 0-5 0-7-1-10-5-10-15-36-15-37s-3-7-6-14l-6-12v-19l-4-4c-2-2-7-5-12-7-9-4-50-22-62-27-5-2-10-4-11-5-5-1-27-12-29-15-3-2-3-3-3-8 0-11 10-46 17-62 5-12 6-17 7-38 0-19 0-21-3-44-4-28-7-40-15-70-6-21-18-53-25-65-5-9-12-17-22-26-10-8-19-14-35-21-25-11-38-14-57-13l-11 1-14 7c-8 4-17 8-20 9-9 2-16 6-26 14s-14 13-20 25c-6 10-14 33-18 46-6 26-14 83-17 124-1 11-2 24-3 29-3 24-2 56 1 69 8 27 8 29 7 32-1 2-4 4-8 6-5 3-21 9-33 12-7 2-16 8-31 18-15 11-22 16-36 24-12 7-18 12-20 15-1 1-2 6-3 12s-3 13-6 21c-8 22-12 36-15 67 0 5 2 10 5 12s124 1 129-1c3-1 5-1 9 0s41 1 107 2c55 0 101 0 101 1 1 0 1 0 15-1z"/></svg>