<svg xmlns="http://www.w3.org/2000/svg" width="1344" height="566"><path d="M0 283V0h1344v566H0V283m332 278h84c9 1 39 1 67 1h177c65 1 67 1 67-4 0-3-8-11-15-14-6-4-10-5-27-10s-26-7-40-8c-12-1-16-2-21-5-8-5-22-21-22-25 0-1 3-6 8-12 12-17 18-27 26-50 2-4 5-14 8-22 4-9 7-19 8-22 2-6 3-8 8-13 3-2 5-5 5-6 0 0 2-3 4-5 5-6 6-11 3-29-1-7-2-16-2-20-2-18-8-57-10-69-9-46-31-83-59-102-18-12-33-17-55-20-7-1-13-2-13-3-1 0-9-1-18-2-19-3-29-2-42 2-39 11-74 39-87 71-7 17-10 31-14 61-1 9-3 23-5 32-5 23-6 39-4 55 1 7 2 15 2 17s1 6 2 9c4 7 5 16 3 23-2 8 0 19 5 30 5 12 10 23 11 27 1 6-3 11-20 30-12 13-16 15-31 18-19 3-62 12-81 17-31 8-48 16-56 23-4 3-14 17-14 19 0 1 1 3 2 4 4 3 16 4 48 3 16 0 60 0 98-1z"/></svg>