<svg xmlns="http://www.w3.org/2000/svg" width="1344" height="566"><path d="M0 283V0h1344v566H0V283m1026 188c2-1 3-4 3-6 3-21 4-24 13-37 13-17 22-35 24-45 3-19 0-34-9-51-3-5-6-10-6-12-1-2 2-11 6-16 3-4 4-9 1-15-1-5-3-14-5-26-1-4-2-11-3-15 0-5-1-14-1-20-1-6-1-13-2-15 0-3-2-9-3-13-3-17-7-26-15-36-11-11-32-19-54-19-9 0-9 0-13 4-2 2-5 6-7 9s-7 9-12 14c-13 13-16 18-20 26-4 9-7 20-8 35 0 11 0 13 4 18 3 3 4 5 4 9 0 5-3 7-10 9-7 1-8 1-11-4-4-7-11-9-21-5-6 3-11 9-16 19l-3 7-1 17c0 14 0 18-2 23-3 11-6 15-10 17-6 3-13 9-16 15-2 3-2 6-3 15 0 13 1 33 4 37 2 4 7 7 22 14 7 3 14 6 16 8 5 5 7 6 15 8 4 0 12 3 19 4 6 2 15 5 20 6s12 3 14 4c5 1 7 2 30 8 28 8 33 9 39 10 11 3 14 2 17-1z"/></svg>