<svg xmlns="http://www.w3.org/2000/svg" width="1344" height="566"><path d="M0 283V0h1344v566H0V283m817 274h85c24 1 74 1 112 2 74 0 75 0 77-4 1-7-19-36-42-58-23-23-40-35-75-54-8-5-23-14-33-20-19-13-23-15-33-19-12-5-17-10-38-31-12-11-23-21-25-22-4-2-7-3-16-3-9-1-12-1-14-3-3-2-7-10-7-14s1-5 10-14c13-13 19-20 24-30 3-7 4-8 4-18 0-9 0-10-3-16-2-5-2-7-2-13 1-5 3-13 5-21 11-32 15-48 18-62 3-15 4-30 2-42-3-27-4-31-20-64-13-26-15-28-38-35-20-7-42-9-69-7-15 2-18 2-28 6-6 2-12 5-13 6-2 0-8 2-14 4-13 3-22 6-27 8l-10 5c-13 5-23 12-32 22-17 18-25 33-29 55-2 8-5 22-8 32-8 29-10 37-13 67-4 33-3 79 2 94 3 9 12 32 20 47 6 13 9 21 12 33 2 7-1 20-4 24-3 3-15 8-28 13-12 5-37 16-44 20-22 12-38 23-56 39-10 8-18 19-38 52-6 10-7 16-4 20 2 1 5 2 66 2h64c0 1 213 0 262-1z"/></svg>