<svg xmlns="http://www.w3.org/2000/svg" width="1344" height="566"><path d="M0 283V0h1344v566H0V283m746 196c13-1 25-3 34-6 3-1 7-2 9-2 1 0 11-2 21-5s21-6 24-6c3-1 10-3 16-4 14-4 22-4 42-3l18 1 3-2 2-3-1-12c0-7-1-19-2-27-2-21-4-47-3-53 0-6-1-14-4-20-3-5-6-7-21-15-8-3-13-7-16-10s-8-6-11-7c-7-3-15-8-15-10 0-1 1-3 3-3 4-2 5-6 3-11 0-2-1-7-1-11-1-7-4-29-7-50-1-8-3-19-5-26-1-6-3-13-4-17-5-26-6-32-13-49-7-21-17-39-26-49-5-6-19-18-27-22-15-10-30-16-44-18-12-2-20 0-32 6-8 4-11 4-19 5-10 1-14 2-20 6-20 11-37 45-45 85-1 2-2 8-2 12-7 31-7 93 0 137 1 8 1 12 0 13-1 2-10 3-18 1-4 0-13-2-20-2-17-1-19-1-32 13-5 5-11 11-13 11-4 2-11 7-20 13-3 3-11 8-18 12-6 5-16 12-21 16-13 9-18 11-27 10-10-1-13 2-14 12-1 5-4 14-11 29-5 10-7 16-10 25 0 3-2 8-3 12-3 12-3 13 1 14 2 1 4 2 5 2s8-2 16-5 18-5 21-6c4 0 9-1 13-2 11-2 50-1 58 1 4 1 4 1 8-2 4-2 5-2 12-2 6 0 11 1 14 2 19 6 53 11 74 9 23-1 67 1 78 3 2 1 6 2 9 2 2 1 7 3 10 5 7 5 9 5 31 3z"/></svg>