<svg xmlns="http://www.w3.org/2000/svg" width="1344" height="566"><path d="M0 283V0h1344v566H0V283m742 280c8-1 67-2 164-2 33-1 62-1 64-2 6-1 10-4 10-8 0-3-4-16-10-35-9-29-10-30-9-52 0-12 1-29 2-42s2-32 2-42c1-12 1-26 2-32 1-7 1-16 1-20-2-13-9-30-19-42-10-13-31-33-57-53-11-8-12-11-13-36-1-23-3-32-8-47-5-14-11-24-18-33-6-6-11-10-38-30-16-13-21-15-39-19-21-4-45-5-58-2-24 6-52 25-67 45-10 13-23 39-27 51 0 3-1 12-2 20-2 31-2 32-42 52-33 16-37 19-46 27-12 11-15 17-18 44-1 16-3 29-5 37-1 2-3 10-5 18-1 7-5 22-8 34-2 13-6 26-6 31-8 44-9 53-9 72 0 7 0 18-1 24-3 31-3 29-1 33 3 5 6 6 24 6 9 1 51 1 93 2 41 0 80 0 86 1 17 1 50 1 58 0z"/></svg>