<svg xmlns="http://www.w3.org/2000/svg" width="1344" height="566"><path d="M0 283V0h1344v566H0V283m889 274c3-2 7-10 8-18 1-5 2-14 2-24 0-8 0-19 1-22 1-8 1-16-1-26-1-3-2-10-3-15-1-4-3-13-4-18-2-6-4-15-4-20-1-6-3-15-5-20-2-6-4-14-5-18-1-3-3-9-4-11 0-2-2-9-4-15-1-6-4-15-6-20-2-6-6-16-8-23-5-15-13-33-21-43-3-5-10-13-16-19-9-9-12-11-19-15-21-9-25-20-20-45 2-8 2-14 2-26 0-14 0-16-2-23-3-8-9-16-15-24-17-16-39-20-68-10-17 6-18 7-31 19-18 18-24 28-25 47v17c1 6 2 7 5 10 5 5 6 6 7 18l1 11-4 8c-6 10-8 13-11 26-4 14-6 20-10 28-2 3-6 10-8 16-6 13-6 13-16 26-4 6-10 14-13 19-4 5-11 12-23 23-10 9-20 18-23 21-3 4-8 8-12 11l-6 4h-27c-5-1-6-1-9 1-5 3-7 2-16-2-6-4-7-4-17 0-6 2-7 4-7 8 0 5-4 8-14 11-12 3-20 7-23 11-1 2-2 4-2 5 0 3 8 19 11 22 5 4 7 6 17 8 15 3 24 4 32 3 13-3 22-5 31-7 22-5 28-6 33-3 2 0 8 5 13 10 11 11 17 15 30 22 9 4 9 4 12 3 2-1 6-1 11-1 6 0 8 0 22 7 19 10 20 11 20 20l-1 6 12 11c8 9 12 12 15 13 2 1 12 2 21 2 10 1 20 1 21 2h88c68 0 86 0 88-1z"/></svg>