<svg xmlns="http://www.w3.org/2000/svg" width="1344" height="566"><path d="M0 283V0h1344v566H0V283m804 277c73-1 143-1 157-2 22-1 24-1 26-3 3-2 2-6-9-28-12-24-15-31-19-46-3-6-6-16-9-22-13-28-15-33-16-40-2-10-3-13-9-23s-37-73-43-85c-1-4-2-8-2-12 0-5 0-5 7-13 15-15 17-23 28-83 2-9 4-33 3-46 0-13 0-18-5-31-1-2-2-6-3-8-2-11-12-33-18-41-5-9-23-27-36-36-17-13-32-19-58-23-27-4-41-4-56 1-6 2-15 4-34 8-13 3-28 8-35 11-15 7-27 16-35 25-8 8-10 11-14 20-9 18-13 32-16 53-4 22-1 53 6 78 2 8 6 24 8 35s5 23 6 27 3 10 3 12c1 3 2 8 3 10 1 3 4 13 7 22 9 32 14 45 22 54 10 10 19 14 39 15 14 1 17 2 22 8 6 7 9 13 9 18 0 4-1 4-12 16-7 7-16 17-21 23-4 6-15 17-23 26l-16 16-7 15c-8 15-15 33-17 38 0 4 1 8 3 9 3 2 12 3 22 3 5 0 68-1 142-1z"/></svg>