<svg xmlns="http://www.w3.org/2000/svg" width="1344" height="566"><path d="M0 283V0h1344v566H0V283m80 256c2-2 3-5 4-8 0-5 1-6 6-11 3-4 8-10 11-15s7-11 9-13 6-6 8-9 10-12 17-19c13-14 18-20 27-33 8-13 14-22 16-25 3-5 10-11 15-12 6-2 31-2 34-1 2 1 9 7 16 15s13 14 13 14c1-1 2-3 2-7 0-8-3-13-11-18-5-4-8-5-21-11-6-2-11-3-15 0-2 0-4 1-6 1-3-1-10-10-14-17-2-4-5-7-7-9-6-4-11-11-14-20-6-16-14-26-27-32-6-3-7-3-16-3-13 0-19 2-28 11-6 6-15 21-20 33s-7 15-16 22c-5 4-14 13-20 19-8 9-12 12-14 12-1 0-4-2-8-5-6-6-9-8-12-6-1 1-1 2-1 6 2 8 4 12 15 22l12 12c0 1 1 10 1 20l1 18 6 6c3 3 7 7 8 9 3 4 7 14 12 29 6 16 7 19 9 22 3 7 5 7 8 3z"/></svg>