<svg xmlns="http://www.w3.org/2000/svg" width="1344" height="566"><path d="M0 283V0h1344v566H0V283m830 277c18-1 41-2 50-2 42-2 224-3 275-1 35 1 38 1 40-4s-2-18-14-40c-10-19-19-34-26-42-10-13-33-32-47-40-7-4-43-16-68-22-8-2-19-5-23-7-5-2-16-5-25-7-22-6-38-11-48-16-9-4-10-6-10-18s2-33 4-39c2-10 4-12 12-16 18-9 28-20 38-41 3-5 6-11 7-15 2-8 3-27 1-33-1-5-7-11-12-14-6-3-7-5-8-13 0-4 0-13 1-20 4-30 5-45 5-73-1-16-1-32-2-39-4-27-5-29-15-40-7-8-10-9-23-11-19-3-35-3-140-3-97 1-107 1-115 2-10 2-13 4-16 8-5 6-8 12-13 26-9 27-14 45-16 68 0 5-1 32-1 60v50l2 12c2 6 4 16 6 21 1 5 4 16 6 23 4 19 6 24 15 52 4 14 8 26 9 29 0 3 0 4-3 6-3 3-9 6-23 12-7 3-14 10-19 17-1 4-5 10-8 14s-6 9-7 11c-4 7-16 26-22 34-8 12-19 22-32 31-7 4-16 11-20 15-12 9-29 23-45 34-18 12-31 22-33 25s-2 3-1 5c2 1 5 1 23 2 34 1 304 0 341-1z"/></svg>