<svg xmlns="http://www.w3.org/2000/svg" width="1344" height="566"><path d="M0 283V0h1344v566H0V283m798 276c23-1 34-1 56 0 16 1 34 1 45 0h69c61-1 56 1 56-13 0-5 0-13-1-16 0-4-2-14-2-22-1-7-3-20-5-28-2-13-2-14-1-28 0-7 1-15 1-16 0-3-9-12-22-22-6-4-16-13-23-19-14-12-20-15-34-19-10-3-18-7-20-11-3-6 1-11 9-11 6 0 9-2 9-6 0-3-3-22-8-56-3-21-8-43-12-60-2-7-4-13-4-16-1-4-9-25-12-34-2-3-4-9-6-12-8-23-30-70-38-83-19-33-33-45-64-56-16-7-52-10-67-6-4 1-10 2-14 3-8 1-21 7-33 16-6 4-13 9-16 11s-9 6-13 9c-21 16-29 30-31 59-1 14-1 22 1 35 1 4 2 15 3 25 1 12 2 21 3 27 2 6 4 13 4 17 1 4 3 14 3 22 2 18 3 22 13 44 7 15 11 26 13 37 2 9 2 10 0 13-3 2-4 2-11 2s-18-1-34-4c-9-2-9-2-22 2-12 5-27 4-49-4-6-2-14-4-19-4-5-1-12-2-16-3-10-2-26-1-32 2-3 1-9 2-14 3-6 0-14 2-19 2-5 1-13 3-19 4-9 1-31 7-34 9-1 0-6 4-11 8-9 8-11 10-13 20-1 7-4 16-11 28l-5 11-1 16v24c1 8 1 8 6 14 7 7 9 10 10 21 1 6 2 12 2 13 1 2 2 6 3 8 1 7 6 17 10 20 2 1 4 2 4 3 0 2 11 13 16 15 3 2 5 2 28 2 16 0 27 0 29-1 7-2 30-4 41-4 21 2 38 4 48 7l10 2h28c40-1 83 0 121 1 39 1 57 1 95-1z"/></svg>