<svg xmlns="http://www.w3.org/2000/svg" width="1344" height="566"><path d="M0 283V0h1344v566H0V283m336 277c17-1 78-2 198-1h92c2 0 20 0 40 1 48 2 74 2 94 0 13-1 33-1 115 0h148c45 0 49 0 57-2 16-4 18-4 25 0l7 3h34c39 0 72-1 78-3 5-2 5-5 1-14-5-13-13-43-16-67-2-10-5-18-8-22-3-3-10-6-18-9-15-5-22-10-27-21-11-23-16-39-25-73-7-27-9-37-14-60-2-8-5-32-7-58-2-17-5-37-8-42s-6-8-12-8c-7 0-11 5-11 15 0 5-2 13-4 14s-6-13-11-38c-3-15-5-21-10-25-3-3-5-4-8-4s-6 1-8 2c-5 3-6 6-7 17 0 7-1 10-2 11-1 0-3-4-3-8s-6-16-10-20c-3-2-5-3-8-3-6 0-13 7-16 16-1 5-4 8-8 13-14 17-19 41-17 82 2 29 4 53 5 57 3 11 25 50 45 81 26 39 40 61 44 70 3 8 6 16 11 28 2 7 6 17 9 22 4 11 9 24 10 30 1 4-1 5-6 4-7-1-13-5-18-10-14-13-28-23-56-41-10-6-27-20-31-26-2-2-5-8-7-14-13-29-14-29-30-43-26-23-41-33-54-35-7-1-49 0-73 2-22 2-27 1-31-3l-3-3v-10c2-20 7-40 13-47 8-9 12-20 12-32 0-3 1-9 2-13 1-6 1-6-2-21-2-8-4-17-5-20-1-2-5-11-8-20-2-9-7-20-9-26-3-6-7-15-9-22-9-21-23-47-35-65-1-1-5-7-8-13-10-15-18-24-30-34-15-12-31-20-55-27-12-4-28-7-35-7-8 0-26 2-32 3-3 1-14 3-25 4-37 4-49 8-69 21-11 7-31 27-38 36-6 9-17 31-21 43-6 15-7 24-7 38l-1 13 6 10 6 10-1 11c0 6 0 15-1 21s-1 15-1 21c0 10 0 11 4 22 6 16 7 19 7 35 0 12 0 16 2 23 5 19 9 26 27 46 8 8 15 16 16 19 2 3 2 7 3 15v10l-4 8c-3 6-5 9-12 16-10 10-19 16-26 19-9 3-11 0-13-14-1-12-3-18-10-33-6-13-9-18-13-21-8-5-15 0-21 11l-2 7-1 30c0 25 0 31-1 32-2 1-2 1-4-1-6-5-15-31-19-52-1-9-3-19-4-24 0-5-2-16-3-24-4-49-6-58-12-64-9-7-16-1-19 17-1 5-3 21-4 34-2 34-2 36-6 27s-8-23-17-56c-5-20-7-25-13-29-8-6-17-5-20 3-1 4-1 5 1 31 1 12 4 32 7 47 0 4 1 10 2 13 0 3 1 8 2 11 1 5 1 11-1 12-1 0-8-12-8-14 0-1-1-5-3-9-4-8-12-28-13-34-2-6-6-14-8-16-3-3-9-6-13-6-3 0-5 1-7 3-5 5-5 14 1 38 2 6 4 13 4 15 5 22 8 30 10 36 2 3 3 8 4 10 0 1 2 7 4 12 3 9 3 12 1 12 0 0-6-6-12-13-18-21-26-30-29-32-6-4-15-6-19-4-1 0-2 2-3 4-5 11 11 40 41 78 9 12 25 33 30 40 6 8 14 16 19 19 7 4 28 5 62 2z"/></svg>