<svg xmlns="http://www.w3.org/2000/svg" width="1344" height="566"><path d="M0 283V0h1344v566H0V283m584 277h107c37 0 111-1 173-2 27 0 49 0 62 1 17 1 26 1 53 0 19-1 35-3 37-3 3-1 4-2 5-4 2-4 2-15 0-24-5-25-6-33-7-49-1-10-1-22-2-27-1-8-1-13 0-20 1-9 1-9-2-14-3-8-10-14-15-15-10-3-28-10-50-21-15-7-20-11-27-22-4-6-5-8-8-20-2-8-2-15-4-48-1-21-2-47-3-57s-2-26-2-35c-3-53-12-87-29-113-6-9-21-23-30-29-13-8-41-21-53-24-13-3-40-1-72 6-20 4-41 13-48 20-3 4-8 13-8 16s-9 19-14 26c-17 22-25 41-26 58-1 12-4 25-9 33-2 4-7 13-12 21-12 17-13 20-9 32 2 6 4 27 4 44 0 4 0 10 1 14 0 4 1 11 1 16 0 10 1 15 6 21 3 4 13 10 19 11 2 0 5 1 6 2 2 0 5 1 8 1s6 0 7 1c2 1 0 6-3 9s-3 3-8 3c-31-4-34-4-50 1-5 2-9 2-22 2-16 0-17 0-20 2-2 2-5 4-6 5-2 1-5 3-7 5-8 7-22 15-27 15-2 0-3 1-5 4-3 4-10 12-29 31-14 15-17 20-18 28-1 7-3 10-8 11-1 0-4 1-5 1-2 1-5 1-6 1s-5 1-7 2c-5 1-7 4-7 8 0 3-4 7-8 9-3 2-3 3 2 5 3 1 4 2 5 7 2 4 2 5 1 9-1 3-3 5-5 6-4 2-18 6-30 8-7 1-12 5-12 10 0 4 3 9 7 10 1 0 4 1 7 1 6 1 10 1 15-1 7-3 16-3 23 1 3 2 9 4 14 6l8 3h14c32-2 49-2 64 0 16 1 43 3 52 2h12z"/></svg>