<svg xmlns="http://www.w3.org/2000/svg" width="1344" height="566"><path d="M0 283V0h1344v566H0V283m847 278c57-2 56-2 137 0 46 1 75 0 84-2 6-2 7-4 6-11-2-10-7-28-10-36-12-30-14-37-20-58-2-4-5-13-8-20-3-6-7-19-10-28-8-23-13-34-19-45-9-17-12-19-37-32-6-3-13-7-14-8-2-1-9-5-16-8-19-11-23-13-26-20-2-5-2-5-2-25 2-37 1-59-4-72-2-6-8-20-13-28s-14-18-22-24-33-21-41-24c-10-4-23-7-51-9-17-1-42 8-61 22-11 9-26 25-31 36-3 4-9 25-10 32s-3 13-10 29c-6 13-8 17-9 26-1 6-2 13-2 17 0 9-3 16-8 20s-8 6-34 15-44 19-57 31c-7 7-12 16-14 26-3 12-13 42-20 55-3 7-9 20-12 27-9 19-13 28-16 33-6 8-16 30-18 40-5 18-6 24-6 29 0 7 2 10 11 11 8 1 91 1 172 0 61-1 67-1 73 0 3 1 6 2 7 2 3 1 45 0 111-1z"/></svg>