<svg xmlns="http://www.w3.org/2000/svg" width="1344" height="566"><path d="M0 283V0h1344v566H0V283m941 276c21-1 40-2 42-2 6-2 5-6-7-31-8-14-10-20-17-40-3-8-7-19-10-25-8-14-15-32-16-40-1-5-3-9-7-17-3-6-9-16-12-22-3-7-11-22-18-33-13-24-19-39-19-46 0-4 0-4 10-14 9-9 11-12 14-18 5-11 10-27 13-48 1-10 3-22 4-25 1-5 1-15 1-30 0-22 0-24-2-28-1-3-2-6-2-7s-1-4-2-7c-1-2-2-6-3-8-2-8-4-13-11-27-6-13-7-14-17-24-9-10-25-23-36-30-15-10-42-16-69-16-12 0-16 0-21 2-7 2-13 3-25 5-13 1-36 7-45 10-16 5-33 15-45 26-13 13-23 33-30 62-4 15-5 36-3 58 1 12 2 16 9 40 1 7 4 17 5 24 3 18 6 30 12 52 1 3 3 10 4 15 15 51 22 65 37 73 8 3 14 5 28 6 7 1 13 2 15 2 4 2 7 7 11 13 6 10 6 11-9 26-7 8-16 18-21 25-5 6-15 17-23 24-17 18-20 23-33 55-4 10-5 14-3 17 1 3 4 3 16 4 18 1 244 0 285-1z"/></svg>