<svg xmlns="http://www.w3.org/2000/svg" width="1344" height="566"><path d="M0 283V0h1344v566H0V283m790 278c52 1 62 1 82 0 19-1 22-2 24-4 4-4 2-17-3-20-13-10-15-14-15-38-1-9-2-19-2-23-2-12-12-23-28-30-10-5-32-14-43-17-11-4-22-9-27-14-3-1-8-6-12-9-7-6-31-30-33-34-3-5-2-10 6-26 3-7 7-14 9-15 1-1 5-4 8-5 8-4 9-6 13-16 5-15 9-30 10-48 4-38 1-57-11-82-4-8-6-11-15-20-10-10-21-18-30-22-6-3-19-5-40-8-24-3-34-2-53 6-10 4-20 9-25 13-5 5-15 18-19 26-4 6-5 10-10 27-1 6-4 27-5 47-1 8-2 20-4 28-2 12-3 14-6 18s-7 14-9 25c-1 7-4 11-9 14s-8 6-16 21-15 33-18 51c-3 14-2 26 1 48 3 18 6 29 12 40 4 9 4 10 5 20 1 12 2 16 4 23 1 3 2 7 2 8 0 3 2 7 5 9 2 2 4 3 11 3 22 2 36 3 44 4 5 0 42 1 83 0h114z"/></svg>