<svg xmlns="http://www.w3.org/2000/svg" width="1344" height="566"><path d="M0 283V0h1344v566H0V283m736 276h252c17 0 29 0 30-1 4-1 5-4 2-6-4-4-19-12-27-15-5-1-11-4-15-6-3-3-9-6-12-8-4-2-15-10-25-17s-23-15-29-19c-20-10-36-23-48-38-7-9-9-12-14-25-2-5-6-13-9-19s-7-15-9-20c-3-10-4-11-13-25-3-5-6-10-6-12-1-4-1-4 2-9 2-2 4-8 6-12 5-9 7-11 28-20 5-2 9-7 9-11 0-1-2-7-5-13l-5-10v-14c0-11 0-15 2-22 2-9 2-10 2-32-1-13-1-26-2-29 0-4-2-14-3-24-4-32-8-42-28-63-13-12-23-21-30-24-1-1-10-4-18-6-14-4-17-4-31-5-22 0-34 2-59 12-25 9-33 16-43 35-12 22-18 41-26 79-8 41-30 129-36 146-2 7-3 11-3 16 0 9-1 11-12 27-4 6-11 19-16 28s-13 24-18 34c-10 19-24 52-28 67-4 12-5 18-9 39-2 16-2 17-1 20l3 3c2 1 215 0 244-1z"/></svg>