<svg xmlns="http://www.w3.org/2000/svg" width="1344" height="566"><path d="M0 283V0h1344v566H0V283m777 279c7-1 41-1 75-2 77 0 81 0 89-1 5-1 8-1 11 0 4 1 12 2 49 2 24 0 52 0 62 1 11 0 17 0 19-1 3-1 8-10 8-14 1-5-1-20-4-24s-6-15-6-22c0-5 9-41 12-49 2-4 6-13 9-20 11-22 15-43 12-51-3-6-5-7-12-3-5 2-7 2-8 1-2-1-6-8-6-13-2-7-8-14-12-13-1 1-5 4-8 7-4 3-8 6-9 6s-4-2-6-5c-8-10-13-9-22 2-6 7-7 8-17 8-4 1-8 1-9 2-2 0-7-6-17-19-5-7-10-13-13-15-4-4-13-8-55-26-17-7-27-13-31-17l-3-3v-18c2-45 2-68 1-78-3-28-12-45-31-63-8-8-11-10-29-20-16-9-30-16-40-18-11-3-40-3-48-1-6 3-33 17-40 23-7 5-20 18-26 26-8 11-14 26-14 37 0 9-9 35-15 44-4 5-4 10-3 23 0 5 1 17 1 27 0 15 0 17-1 19-3 4-6 5-34 14-37 13-51 19-64 29-10 8-13 12-15 20-6 20-9 26-11 26-1 0-3-2-4-4-7-10-12-8-20 5-2 4-4 8-5 8s-4-6-8-12c-10-20-16-23-22-10-3 6-6 10-8 10-1 0-4-2-7-4s-6-4-8-4c-5 0-6 3-7 17-1 12-2 12-4 15-4 3-6 3-13-1-6-4-8-4-12 0-2 2-2 3-2 10 1 4 2 10 3 13 2 7 17 40 24 52 8 14 19 37 20 43 1 4 1 6-2 16-5 17-4 22 4 24 6 2 52 0 69-2 21-2 177 0 194 3 7 1 54 1 69 0z"/></svg>