<svg xmlns="http://www.w3.org/2000/svg" width="1344" height="566"><path d="M0 283V0h1344v566H0V283m1085 277c20 0 21-1 20-8-1-6-8-22-13-29-1-3-8-10-13-16-6-6-13-14-17-19-9-11-19-20-33-31-6-5-17-14-24-20-16-16-30-28-41-36s-18-14-30-23c-14-10-16-11-36-12l-17-1-7-3c-14-8-19-15-24-30-3-11-3-27 0-42 3-12 5-17 14-28 18-21 27-39 28-57 0-8 0-11-2-18-2-6-2-9-2-16 1-5 2-11 2-14 1-4 1-13 1-26 0-20 0-21-2-29-6-16-14-29-24-38-12-10-31-21-47-28-15-5-29-7-50-7s-32 1-45 6c-16 5-43 26-53 40-8 12-12 25-14 49-1 9-3 23-4 30 0 8-2 21-3 29 0 8-2 20-3 26-4 23-3 42 6 78 2 7 12 34 17 43 2 6 9 12 18 18 12 7 14 12 7 18-2 2-15 9-30 17-35 18-44 24-74 48-21 17-34 28-42 39-28 36-30 39-37 62-6 19-6 22-2 25l2 3 49-1c131-1 423 0 479 2 12 0 23 1 25 0 2 0 11 0 21-1M3 560c0-1 0-1-1-2-1 0-1 0-1 1s0 1 1 1h1m73-2c19-1 44-1 56-1 25-1 56-3 59-4 6-3 7-20 1-46-2-9-5-21-5-28-7-53-7-55-13-85-5-23-9-36-16-53-10-20-17-29-39-47-15-12-21-19-21-24 0-4 4-13 9-21 10-16 10-15 7-29 0-4 0-5 4-11 6-8 8-12 10-18 1-3 3-8 8-13 4-5 7-10 8-12 2-6 0-16-6-28-12-26-12-28-12-51 1-22 0-26-8-41l-11-22c-6-12-7-13-13-17-6-3-18-4-41-4-13 0-19 0-20-1s-4-1-14 0C12 3 5 3 4 4H1v277c0 265 0 276 2 276 1 0 2 0 3 1s10 2 24 1c6 0 26 0 46-1z"/></svg>