<svg xmlns="http://www.w3.org/2000/svg" width="1344" height="566"><path d="M0 283V0h1344v566H0V283m676 278c5 0 11 0 13-1 8-2 13-9 16-22 0-4 2-10 3-12 0-2 1-9 2-14 0-8 1-12 2-15 4-8 6-21 6-34-1-10-1-12-5-19-3-7-3-8-3-18 0-8-1-10-3-13s-10-7-26-14c-6-2-17-6-23-9-11-5-21-8-39-14-4-2-10-4-13-6-4-1-11-4-15-6-6-2-9-5-12-7l-3-4v-10c1-10 2-16 10-37 12-35 14-59 8-106-4-27-13-64-23-88-4-11-15-29-23-40-17-21-44-39-77-48-10-3-11-3-28-3l-17-1-25 13c-27 14-32 17-42 28-14 15-26 47-33 95-2 12-4 25-4 29-1 4-2 10-2 13-2 11-7 72-8 92-1 28 0 54 4 78 1 5 1 7 0 9-1 3-8 7-18 10-17 5-23 8-40 19-22 15-33 23-42 27-13 7-15 10-16 25-1 3-3 12-5 19-6 21-8 26-9 31 0 2-1 6-2 10-2 7-4 28-4 34 2 8 1 8 35 9 18 0 43 0 60-1 16-1 32-1 34-1 45 1 177 3 205 3 16-1 49 0 72 0 42 1 71 0 90-1z"/></svg>