<svg xmlns="http://www.w3.org/2000/svg" width="1344" height="566"><path d="M0 283V0h1344v566H0V283m290 279c59 0 75-1 85-4l7-1 4 2c4 2 4 2 46 2h264c174 1 190 1 194-1 6-2 8-2 16 0 14 5 64 3 74-2 5-2 8-9 13-27 2-8 5-19 8-25 4-11 7-23 12-38 5-18 6-22 8-37 2-22 5-30 13-32 3-1 12 1 21 5 10 4 13 4 29-2 11-5 14-6 26-7 48-6 63-8 66-9 4-1 9-2 48-7 23-2 35-2 61 0 13 1 14 1 20-1 4-1 11-3 16-3 6 0 11-1 12-2 3-3 4-7 6-28 1-25 1-29-3-35-5-7-7-9-13-9-5-1-7-1-36 10-27 10-40 13-71 15-28 3-92 2-105-2-6-1-29-8-45-14-10-3-29-12-41-19-11-7-28-22-35-31-6-7-9-11-23-20-11-8-17-14-17-18 0-5 5-11 23-29 20-20 24-26 31-43 9-22 12-38 9-49-3-18-16-33-37-43-7-3-9-3-17-4-7 0-12 0-19 2-25 5-38 18-48 46-7 18-14 29-29 45-13 12-13 12-32 13-18 1-19 1-24 10-4 6-6 8-24 24-8 7-18 18-23 23-9 10-12 12-14 7 0-1-3-10-5-20-11-41-24-69-39-85-18-19-51-35-84-39-20-2-33 0-53 9-5 2-12 5-16 7-23 9-38 25-49 53-6 15-7 23-5 47 1 10 2 22 2 27 1 5 1 18 1 29 0 14 0 22 1 30 1 6 3 16 4 22 4 31 10 56 16 76 7 23 7 26-5 28-7 0-12 2-29 9-10 5-14 6-40 14-16 5-28 11-31 15-4 5-7 13-9 23-1 5-3 12-3 15-6 19-9 29-11 32-2 6-5 3-8-7-1-3-4-9-5-14-5-11-6-15-6-41-1-25-4-60-7-80-1-8-2-18-3-24-1-11-7-35-12-48-1-4-3-13-5-20s-5-18-7-24c-5-17-4-21 6-28 4-3 12-13 18-24 2-4 6-11 9-14 8-12 8-15 3-38-1-2-2-8-2-14-4-23-7-29-17-38-14-10-28-15-47-15-22 0-33 3-41 11-8 9-12 22-11 45 1 37 1 36-3 43-3 6-4 7-12 11-11 6-16 11-21 22-3 6-6 11-13 18-12 13-16 20-20 31-1 5-4 13-7 18-10 18-16 38-21 64-9 50-9 53-7 77 1 10 3 26 4 36 3 22 4 55 2 75-1 18-1 20 6 23 5 2 24 3 50 2 13 0 47 0 76-1z"/></svg>