<svg xmlns="http://www.w3.org/2000/svg" width="1344" height="566"><path d="M0 283V0h1344v566H0V283m608 277c5-1 15-1 35-1 16 1 52 1 80 1 48 0 51 0 54-2 5-2 6-6 6-23 1-16 0-24-7-58-6-24-9-36-15-49l-4-9v-11c1-13 1-14-14-21-18-8-38-18-51-23-33-14-37-16-39-22-1-2-1-5 1-13 1-6 3-19 4-30s3-25 4-31c2-20 3-29 2-52-2-43-10-94-20-119-8-19-21-42-30-51-8-9-20-17-39-26-28-14-40-15-67-5-5 2-10 3-18 4-10 1-11 1-19 5-18 9-32 25-43 48-10 21-16 44-26 93-3 13-6 30-8 37-5 28-6 41-6 74 0 24 0 31 1 37 1 4 2 11 2 15 0 6 0 7-2 9-3 3-9 4-18 4-14 0-25 4-60 22-42 21-42 21-47 47-1 7-3 15-4 18-4 12-17 67-25 102-3 11-4 19-2 22 1 3 5 5 12 6 5 1 30 1 79 1 61 0 201 2 202 2h38c24 0 40 0 44-1z"/></svg>