<svg xmlns="http://www.w3.org/2000/svg" width="1344" height="566"><path d="M0 283V0h1344v566H0V283m918 277c38-2 41-4 28-17-7-7-18-15-27-21-6-4-9-7-11-14-1-6-3-8-10-11-17-6-24-11-26-21-2-8-1-11 7-19 3-4 7-9 8-11 4-6 9-22 9-26 0-8-18-29-41-47-10-7-13-11-13-14s14-25 18-29c5-5 6-8 6-12 0-2 1-8 3-14 5-24 8-49 6-58-1-5-6-19-12-32-3-8-12-21-17-26-8-8-24-19-33-22-3-2-20-6-25-7-8-2-37-4-48-4-13 0-24 2-38 7-4 2-10 4-14 6-8 3-15 8-19 13-7 9-8 13-10 37-1 8-2 20-3 26-1 7-2 14-2 18-1 6-4 18-8 34-2 7-2 9-2 22 1 7 2 15 2 18 1 5 0 8-7 14-7 7-26 22-29 24-5 2-7 6-9 11-1 3-3 6-4 7-3 4-6 3-10-3-6-8-10-7-25 7-17 16-19 19-26 43-2 6-4 14-6 18-4 10-4 15-1 21s18 20 22 21c9 1 10 3 12 19 2 11 1 20-1 27-1 3-2 6-3 7-1 3 4 5 18 6 7 1 71 1 142 2s129 1 129 2c1 0 50-1 70-2z"/></svg>