<svg xmlns="http://www.w3.org/2000/svg" width="1344" height="566"><path d="M0 283V0h1344v566H0V283m734 180c3 0 12-2 19-3 7 0 15-2 17-3 2 0 6-1 9-1 5-1 7-2 29-8 8-2 17-4 20-4 3-1 7-2 9-2 10-5 29-6 47-4 9 1 14 1 16-2 2-2 3-17 1-25-6-23-6-30-5-55l1-20-4-6c-2-4-4-8-5-9-2-2-13-8-18-10s-11-7-13-12c-3-5-4-5-17-9-3-1-6-2-7-3l-3-3 2-1c1-1 7-1 13-2 11 0 13-1 13-6 0-6-5-39-7-47-4-18-10-40-12-46-1-4-3-10-4-14s-2-8-3-10c0-1-2-6-3-11-6-23-13-41-22-56-7-12-22-28-36-36-15-9-28-16-36-18-9-2-24-1-39 3-6 1-14 3-18 4-6 1-18 5-23 7-11 6-23 23-30 41-4 11-7 23-9 38 0 7-2 14-2 16 0 3-1 8-2 12 0 4-1 10-2 14 0 4-1 18-2 40-1 28-1 39 1 56 0 11 1 21 1 23-1 1-2 2-5 3-16 4-23 5-30 2-6-2-28-3-33-1-3 1-7 4-11 8-7 6-13 11-49 34-9 7-19 14-23 17-8 7-15 10-24 11-7 0-7 0-10 4-2 3-5 8-6 11-1 4-5 12-8 19-6 14-8 19-13 33-1 4-4 11-6 16-6 12-5 12 4 12 6-1 10-2 19-5 7-3 14-5 16-6 2 0 4-1 5-1 3-2 26-4 35-4h34c3 0 7-1 11-3 5-2 7-2 13-1 4 0 9 1 10 1 18 7 50 12 77 11 41-1 60 0 66 1 4 1 9 2 12 3 6 0 13 3 16 7 3 3 3 3 10 3 3-1 10-2 14-3z"/></svg>