<svg xmlns="http://www.w3.org/2000/svg" width="1344" height="566"><path d="M0 283V0h1344v566H0V283m282 278h149c216 0 290-1 293-1 4-1 7-4 7-6s-3-13-7-21c-1-5-7-19-10-27-1-2-2-7-3-10l-2-6 3-10c4-9 4-9 3-11-4-5-15-12-42-25-65-32-82-41-89-48-4-3-4-4-4-8 0-5 4-24 10-42 10-30 12-41 14-60 2-18 1-52-2-68-8-51-16-77-30-102-2-4-6-11-8-16-6-10-14-20-19-26-13-12-38-25-60-31-8-2-11-2-25-2l-16-1-14 6c-8 3-18 7-23 8-16 4-32 16-42 30-10 15-15 29-24 63-5 16-9 41-13 64-2 11-3 20-4 21 0 1-1 11-3 22s-4 24-5 29c-3 22-4 31-4 50-1 21 1 29 5 41 1 4 2 9 2 10 0 8-8 13-27 15-15 2-23 4-49 17-24 11-30 14-41 18-13 5-14 7-15 17-1 8-7 29-16 50-5 13-10 35-11 45 0 8 0 9 2 11 2 3 4 3 10 4 3 0 9 1 12 0h98z"/></svg>