<svg xmlns="http://www.w3.org/2000/svg" width="1344" height="566"><path d="M0 283V0h1344v566H0V283m668 275c47 0 420 0 440 1 25 1 66 0 68-3 3-2 2-7-1-14-8-19-10-24-16-36-12-22-19-32-33-46-17-17-29-26-53-38-10-5-20-10-21-10-5-2-39-17-48-22-13-7-29-15-42-20-16-7-19-8-27-14-15-11-26-21-29-26s-2-12 1-27c6-22 9-26 23-33 18-8 33-28 35-47 1-8 1-10 0-14-1-2-3-5-5-6-1-1-3-3-4-5-1-3 0-9 6-36 6-30 8-58 3-71-1-4-3-9-4-13-3-9-10-21-15-25-2-2-7-6-10-9-11-10-40-26-56-31-10-4-24-5-29-3-2 1-6 2-11 2-17 0-34 4-52 14-18 9-21 11-29 22s-11 18-15 32c-2 4-4 10-4 11-1 3-5 19-5 25-2 11-6 35-8 39 0 3-2 5-3 6-12 8-14 13-15 28 0 15 2 25 10 42 6 13 9 23 16 59 2 15 3 36 1 40-3 5-30 27-44 36-8 5-14 7-26 10-5 2-20 8-33 13-13 6-29 13-36 16-45 18-63 29-82 48-19 18-29 33-40 55-7 14-12 31-12 41 0 5 0 6 3 8l2 2h52c29-1 59-1 68 0 8 0 23 1 34 0 10 0 31 0 46-1z"/></svg>