<svg xmlns="http://www.w3.org/2000/svg" width="1344" height="566"><path d="M0 283V0h1344v566H0V283m722 278c100 0 148 0 152-1 10-2 68-2 100 0 33 2 66 1 71-1 2-1 3-3 4-5 1-3-1-12-4-22-1-5-5-18-8-28-4-10-8-27-11-37-4-18-7-27-14-51-1-6-4-17-6-23-7-26-14-38-29-43-6-3-24-8-65-18-7-1-15-4-19-6-6-2-7-3-9-7-3-5-6-8-20-19-20-14-36-33-45-49-4-8-4-14-1-28 1-5 3-11 3-15 5-20 7-76 4-92-3-12-8-27-12-34-15-24-47-46-75-50-15-2-54-3-68-2-23 2-33 5-40 14-3 2-10 10-17 17-6 7-14 16-17 19-6 8-15 22-19 32-4 9-9 20-13 28-3 5-4 6-4 22v16l5 18c5 18 8 32 11 46 1 4 3 9 4 11 5 10 17 19 36 27 25 12 28 14 31 22 2 4 1 20-1 27-2 6-6 10-22 23-16 14-29 22-46 29-13 4-28 11-33 15-3 1-10 6-17 10-8 5-16 10-19 12-9 6-23 20-26 26-8 14-11 36-14 95 0 15 1 20 5 20 8 2 66 4 88 3 9 0 81 0 160-1z"/></svg>