<svg xmlns="http://www.w3.org/2000/svg" width="1344" height="566"><path d="M0 283V0h1344v566H0V283m514 276c7-1 51-2 70-2 3 0 37 0 75 1 92 1 91 1 261 0 186-2 177-2 215 0l31 1 3-3c2-2 2-3 2-5-2-8-17-26-29-36-21-15-38-24-86-41-10-4-24-10-32-13-28-11-35-14-41-16-8-3-31-18-35-24-3-4-3-5-3-10 0-3 1-8 2-10 0-2 2-7 3-11 3-15 21-66 24-72 4-6 7-8 16-11 9-2 15-6 23-13 17-17 29-39 31-57 1-9-1-14-9-23l-6-6v-6c1-4 3-12 5-19 4-16 9-41 13-66 4-31 2-44-8-75-5-17-10-27-14-30-4-4-11-6-22-7-5-1-53-1-109-1-104 0-106 0-121 4-9 2-19 20-30 48-5 15-6 22-12 50-1 12-4 24-5 28-3 9-7 17-11 20-9 5-13 12-14 25-3 25 3 53 16 74 5 8 7 14 9 30 4 23 5 31 5 43 0 25-4 48-9 55s-7 7-29 7h-21l-7 4c-6 2-10 6-29 24-12 12-24 24-28 26-8 5-19 11-30 15-6 1-14 5-18 7-12 6-40 18-54 23-31 10-57 25-73 41-9 9-19 22-19 25 0 4 6 6 22 7 6 1 69 0 78-1z"/></svg>