<svg xmlns="http://www.w3.org/2000/svg" width="1344" height="566"><path d="M0 283V0h1344v566H0V283m765 278c62 0 71 0 78-2s11-10 14-29c4-24 2-39-13-84-3-8-6-18-7-23s-3-11-4-13c-1-3-2-8-3-11 0-3-2-11-4-17-1-6-4-17-5-24-2-6-4-14-5-16 0-3-2-16-4-28-3-31-3-31-24-43-19-11-21-14-10-18 7-2 11-4 14-7 2-3 2-4 2-9-1-9-10-20-27-32-10-7-17-15-20-20-1-4-1-7 0-21 0-14 0-18-1-25-3-11-7-22-11-28-5-6-15-13-27-18-7-3-10-4-18-4-19-1-52 8-65 16-5 4-10 10-12 17-2 6-2 16 1 26 3 11 3 18-1 30-5 10-9 20-12 23-1 1-3 2-6 1-4 0-5 0-7 2-2 1-3 3-3 4s-1 4-2 6-3 7-4 18c-2 17-3 21-10 34-4 8-5 10-9 12-4 3-9 10-15 23 0 2-2 6-4 8-11 17-16 49-13 75 2 14 7 19 21 19 8 0 16-2 31-8 13-5 15-5 17-1 2 3 3 5 3 54 1 48 2 93 4 101 1 11 1 11 28 11 12 1 26 1 31 2 5 0 16 1 24 0 8 0 43 0 78-1z"/></svg>