<svg xmlns="http://www.w3.org/2000/svg" width="1344" height="566"><path d="M0 283V0h1344v566H0V283m907 277c17-2 35-8 47-15 24-16 28-19 32-25 1-3 3-6 4-7 3-2 3-7-1-14-4-9-6-10-27-10-12-1-20-1-24-2-3-1-8-2-10-2-7 0-30-4-34-5-4-2-7-6-7-11 0-7-8-13-18-13-6 0-8 0-19 6-12 7-19 11-34 25-11 11-17 14-37 20-16 5-19 6-22 3-2-1-19-37-41-84-4-8-10-21-14-29s-7-15-7-16c0-3 1-4 9-8 4-2 7-5 12-10 4-4 9-8 12-10 5-3 15-12 27-22 3-4 9-8 12-10 4-3 7-6 9-8 1-1 3-10 6-18 3-14 4-17 13-35 5-10 11-23 13-28 5-10 13-26 23-42 9-16 10-19 7-24-1-3-5-8-8-12-4-4-9-11-11-14-11-18-15-23-23-31-15-15-34-27-55-37-20-8-28-10-48-10-24 0-36 3-57 15-8 5-12 8-21 17-19 19-25 28-39 54-5 11-15 24-24 31-5 4-8 5-17 8-6 2-15 5-19 6-22 4-28 8-44 28-8 11-11 16-11 21 0 1-1 6-2 10-1 3-2 10-3 14s-2 11-3 15c-5 13-4 16 9 24 8 6 9 8 6 15-1 2-8 13-14 23-16 23-19 29-30 55-5 13-11 26-14 31-9 17-9 17-9 25 0 4 1 11 2 14 2 10 1 25-1 28-1 2-2 2-5 2-7-1-40-23-50-34-4-4-8-7-9-7-1-1-32-33-42-44-6-7-6-6 2-28 9-28 9-29 8-47-1-26-3-33-14-44-4-4-7-8-8-9 0-2 1-6 2-11 4-12 5-24 4-36s-3-18-8-20c-9-5-19 1-27 17-2 5-4 7-6 8-5 3-6 6-7 19 0 11 0 12-3 14-4 3-11 6-20 7-7 0-8 1-14 6-4 4-8 8-12 14-11 17-13 23-18 62-2 10-3 19-4 21 0 2-1 5-2 6-2 5-10 12-14 14-4 1-6 1-11 0s-8-1-13 0-7 1-15-1c-10-2-15-3-20 0-4 2-7 7-9 13-1 4-1 5 2 11 3 5 6 9 10 14 6 5 10 7 20 9 4 1 6 6 6 16 1 11 3 13 17 16 9 2 18 8 30 17 18 16 20 18 21 26 2 8 7 16 12 19 7 4 43 9 69 11 40 2 104 3 146 2 17-1 32-1 44 0 15 1 39 1 105 0 47-1 101-1 121-1 65 0 202 2 203 2 1 1 2 1 14 0z"/></svg>