<svg xmlns="http://www.w3.org/2000/svg" width="1344" height="566"><path d="M0 283V0h1344v566H0V283m730 279c8-1 19-1 51-1s41 0 45-1 13-1 52-1c25 0 53 0 61-1 14-1 14-1 17-3 2-3 2-4 1-7-2-12-4-20-8-35-8-25-8-27-8-45 1-18 3-47 5-66 1-8 2-22 2-34 0-11 0-23 1-27 2-16 3-26 2-33-2-8-7-19-12-27-4-7-23-27-45-47-13-11-16-15-19-22 0-2-2-14-3-27 0-13-2-26-2-29-4-17-15-41-24-50-7-8-22-20-30-24-4-2-10-6-14-9-3-3-9-7-12-8-7-4-28-8-50-9-15-1-18-1-25 0-27 6-60 28-75 50-13 19-23 40-26 52 0 2-2 10-3 16-1 11-4 19-9 23-1 2-18 11-38 21-44 23-54 29-60 42-5 9-7 17-8 32-1 7-2 15-2 18-1 6-12 50-19 78-1 6-4 15-5 20s-3 15-4 21c-2 6-4 16-5 23-3 20-6 24-29 40-24 15-65 32-90 36-24 4-71 6-79 3-7-3-9-3-17-2-10 3-16 1-27-8-4-2-7-4-8-4-1 1-6 3-13 5-6 3-13 6-15 7-6 1-13 7-16 13-2 3-2 3-1 5 3 3 17 4 43 4s33 1 39 4c3 2 4 2 14 0 18-2 47-3 112-3 65 1 69 1 77 5s13 4 108 5c50 0 96 0 101 1 19 1 60 1 70-1z"/></svg>