<svg xmlns="http://www.w3.org/2000/svg" width="1344" height="566"><path d="M0 283V0h1344v566H0V283m884 273c5-3 7-3 12-3 2 1 6 2 9 3s6 1 21 1c14-1 22-1 33 0 10 1 27 2 56 2 58 0 57 1 52-23-2-5-4-15-5-21s-3-14-4-17c-7-33-9-53-4-55 0 0 3 1 5 2 2 2 4 3 4 3 1-1 2-3 3-6 1-10 2-10 17-3 12 6 23 9 43 10 14 0 15 0 26-2 13-4 29-11 35-17 7-7 8-9 7-21 0-9 0-11-2-16-4-8-16-20-33-33-13-10-42-39-57-57-11-13-21-23-26-24-3-1-7-1-19 0-27 1-32 0-36-5-3-5-6-28-7-65-2-36-3-45-8-61-6-22-20-38-39-45-6-2-8-2-23-2-14 0-19 0-23 1-13 4-23 11-34 22-13 15-17 24-20 58-2 13-4 20-7 23-1 1-4 3-7 5s-7 4-8 5c-2 2-4 2-13 2-5 0-13-1-17-1-4-1-11-2-15-3-12-2-17-3-35-11-26-13-24-12-47-13-12 0-22 0-25-1-5 0-10 1-15 6-4 4-7 11-7 20 0 8 2 11 12 16 4 1 8 3 10 4 4 1 21 8 29 13 8 4 15 7 43 19 16 6 22 10 22 14 0 3-5 15-15 35-10 22-17 40-20 49-1 3-3 14-5 24-1 9-3 19-3 22-1 4-3 13-4 22-3 16-9 41-15 68-2 9-5 21-5 26-1 5-2 13-3 17s-1 9-1 10c1 3 5 5 12 6 2 0 37 1 77 0h73l6-3z"/></svg>