<svg xmlns="http://www.w3.org/2000/svg" width="1344" height="566"><path d="M0 283V0h1344v566H0V283m672 279c17-1 40-2 51-3 16-1 23-1 33 0 8 0 53 1 110 1h154c97 0 92 0 95-3 2-2 2-3 2-9-1-8-4-21-8-31-4-11-17-36-28-53-7-9-27-31-35-35-2-2-6-4-8-6-6-5-15-10-28-17-7-3-14-8-16-9-3-2-10-6-16-9-7-4-15-8-18-11-11-7-33-20-53-31-16-8-26-12-36-15-5-1-9-6-11-12s-2-32 0-42c1-10 5-22 12-40 9-24 12-37 13-49 0-9 0-10-3-20-4-11-4-12-5-31-1-22-1-24-5-37-4-20-13-34-30-48-12-9-17-12-36-18-17-6-26-8-45-9-27-2-54 2-77 12-10 4-27 16-35 22-17 15-28 38-28 58-1 22 2 118 3 126 2 12 6 24 14 41 4 9 9 19 11 23 1 4 6 15 11 25 9 18 11 24 10 29-1 3-8 9-26 23-7 6-17 14-22 18-20 16-19 15-46 33-6 4-15 9-20 13-6 3-17 10-26 16-15 10-31 19-51 29-5 2-11 6-13 7-5 2-7 3-15 3s-11 0-12-1c-2-1-4-11-10-40-5-28-13-51-24-69-21-35-36-50-69-67-15-7-73-35-86-40-16-7-26-13-36-20-23-17-29-23-29-33 0-11 5-28 13-49 9-21 11-24 25-35 10-8 17-16 23-28 7-15 10-28 7-37 0-2-3-5-5-8-5-5-5-5-5-10 0-3 1-10 2-15 2-11 5-36 4-40-1-2-2-4-4-5-3-1-11-2-120-2C24 4 8 4 5 5L1 7v272c0 154 0 273 1 273 0 1 1 2 1 4 1 2 2 3 3 4 2 1 33 2 35 0 1 0 20 0 42-1 23 0 52 0 65-1 27-1 72-2 88-2h122c8-1 21 0 30 1 12 1 18 1 29 0 9 0 17-1 24 0 28 3 41 3 107 5 11 1 90 0 124 0z"/></svg>