<svg xmlns="http://www.w3.org/2000/svg" width="1344" height="566"><path d="M0 283V0h1344v566H0V283m774 278c7-1 13-2 15-3 1 0 2-2 3-4s1-4-1-10c-2-7-5-13-13-23-8-9-11-15-19-31-9-19-16-30-24-35-6-4-17-8-31-13-24-7-53-16-76-24-14-4-30-9-34-10-19-4-23-6-25-9-1-2-1-5 0-9 0-7 6-19 9-21 1-1 7-3 12-5 13-4 31-13 37-19 2-2 6-6 7-9 3-4 3-7 3-13 0-4 0-11-1-16-1-10-1-24 0-35 1-3 1-13 2-22 2-26-1-41-15-71-4-8-8-18-9-22-4-10-6-26-6-45 0-23-4-46-11-56-16-24-36-33-100-45-15-3-18-3-37-3-16 0-24 0-30 1-5 1-11 2-13 2s-5 1-7 2c-3 0-8 2-12 3s-11 4-16 6l-16 8c-10 5-18 11-30 22s-18 20-26 41c-7 19-10 29-17 57-2 9-5 19-6 22 0 3-2 8-2 13-6 28-11 48-16 57-2 4-3 8-4 17-2 6-6 18-14 35-3 5-6 12-8 16-5 12-21 38-31 50-1 3-6 9-9 16-11 17-28 42-36 51-6 6-9 13-9 17 2 4 5 7 11 7 5 1 5 1 22-6 7-3 15-6 17-7 5-1 6-1 8 1 1 2 3 6 4 9 1 4 3 7 7 12 3 3 8 7 10 8 6 4 11 9 14 14 3 6 7 21 7 26s-4 13-13 25c-12 15-14 22-10 24s30 4 51 4c52-2 88-2 126-2s72 0 130-1c33-1 51-1 69 0 10 0 41 1 71 2 29 1 55 1 57 1 11 1 23 1 35 0z"/></svg>