<svg xmlns="http://www.w3.org/2000/svg" width="1344" height="566"><path d="M0 283V0h1344v566H0V283m512 275c11-1 184-1 207 0h81c101-1 200 0 212 1 7 1 28 1 48 1 34 0 37 0 39-2 3-2 2-5-3-11-9-12-31-27-74-49-27-14-37-19-44-21-2-1-9-4-17-8-10-5-14-8-22-14-10-9-14-15-13-21 1-3 3-12 7-20 3-9 7-20 9-26 6-18 17-43 24-56 5-12 10-15 22-20 11-4 18-9 25-17 18-21 29-45 27-61-1-4-2-5-8-11-3-3-6-7-7-9 0-3 1-11 6-26 9-29 16-64 19-91 0-8-1-19-5-33-6-26-13-42-21-50-7-8-11-9-48-10-45-1-145-1-175 0-27 1-35 2-39 7-3 3-15 26-19 37-8 20-9 28-17 70-5 25-6 28-17 30-7 1-13 6-16 12-9 15-7 48 3 70 4 7 6 10 13 16 4 4 9 9 9 11 3 4 2 18 0 45-3 33-7 50-13 64-5 9-12 18-17 22-6 5-10 5-37 4h-25c-4 1-13 10-26 26-10 12-22 24-32 30-6 5-64 34-77 39-12 5-38 18-50 26-15 9-28 20-35 30-8 9-9 11-6 13 1 2 4 2 12 3 12 1 87 0 100-1z"/></svg>