<svg xmlns="http://www.w3.org/2000/svg" width="1344" height="566"><path d="M0 283V0h1344v566H0V283m479 136c4-1 13-4 20-7 14-5 14-5 25-5 6 0 15-1 21-1 8-1 14-1 26 0 30 2 36 3 51 4 9 1 28 1 44 1 24 1 39 2 42 4 3 1 19 2 28 0 18-2 30-4 36-5 3 0 8-1 10-2 3 0 9-2 14-3s11-3 15-4 7-2 8-2c2 0 24-7 31-10s18-5 27-5c6 0 7-2 7-15-1-5-1-17-2-25 0-10-1-18-2-20-1-3-2-6-3-8l-3-9c-1-5-5-7-10-7h-4l-3-8c-4-11-12-26-15-28-4-2-4-3 0-4 5-1 8-3 9-6s-1-11-10-43c-4-17-9-38-11-49-3-18-14-46-24-59-6-9-17-19-25-24-7-4-23-11-34-14-14-3-43 0-60 7-23 9-35 20-45 41-6 14-8 24-9 54-3 69-3 81-5 83h-14c-15 0-16 1-40 21-4 4-6 7-10 16-10 18-9 17-30 34-5 4-12 8-19 11-6 3-13 6-16 8-8 4-15 6-26 6-10 1-10 1-13 4s-16 30-20 42c-1 2-3 8-5 13-4 11-4 11 6 13 13 2 28 3 38 1z"/></svg>