<svg xmlns="http://www.w3.org/2000/svg" width="1344" height="566"><path d="M0 283V0h1344v566H0V283m972 277c4-1 14-1 22-2 9 0 16 0 17-1 1 0 2-1 3-3 1-3 3-5 9-5 5-1 17-5 23-8 14-5 31-19 36-28 4-8 4-13 0-24-4-10-8-20-14-29-2-4-6-11-9-17-4-5-13-20-21-33-9-12-17-25-18-28-3-5-5-15-6-25-1-5-7-17-10-22-6-6-21-12-43-18-6-1-12-3-14-4-5-2-12-9-12-12-1-45-2-68-7-88 0-4-2-14-3-23-4-29-9-42-26-62s-32-26-63-25c-27 2-39 6-55 21-8 8-13 16-15 24-2 7-3 67-2 76s2 12 11 36c6 20 7 22 7 28s-2 10-8 14c-3 2-7 7-9 10-3 3-7 9-10 13-4 4-8 10-10 14l-3 6-1 18c0 11-1 18-2 20-2 3-6 4-21 5-13 1-14 1-16 3-3 4-3 8 0 13 2 3 5 9 8 14 7 15 8 17 13 19 6 3 8 7 8 13-2 11-3 47-3 70-1 19 0 25 1 27 3 6 21 10 43 10 31 0 125 2 132 3 9 2 54 2 68 0z"/></svg>