<svg xmlns="http://www.w3.org/2000/svg" width="1344" height="566"><path d="M0 283V0h1344v566H0V283m816 276c3-2 4-4 6-12 4-13 4-15 2-28 0-7-2-18-3-25 0-7-2-17-3-23-2-14-2-35 0-47 1-4 3-15 4-22 2-7 4-20 6-28 4-20 5-37 5-64-1-22-1-24 1-34 10-43 9-37 9-71 0-32 0-32-5-37-3-3-2-5 3-8 1-1 4-4 5-6 2-2 3-6 4-7 4-7 3-10-7-23-11-14-15-21-22-32s-17-23-25-28c-5-3-6-3-17-3s-12 0-17 3c-4 1-8 5-11 7-9 9-11 19-13 52-1 18-2 23-3 25s-5 5-9 6c-11 6-11 7-17 31-1 6-3 16-4 21 0 5-1 12-2 14 0 3-1 10-2 16-2 21-10 42-15 42-1 0-5-2-8-5-10-5-16-8-26-8-10-1-18-3-26-5-3-1-8-2-10-2-3 0-7 2-7 5s9 10 17 11c1 1 7 4 12 7s9 5 10 5 4 1 6 2c6 3 10 3 17 1 6-1 7-1 10 0 2 1 6 5 9 8 11 13 13 14 16 14 2 0 6-1 9-1 6-1 8-1 16 4 7 5 9 8 9 11 0 8 2 10 14 16 15 8 23 13 30 18 5 5 9 11 9 16 0 3-4 12-13 32-15 33-17 37-25 45-8 9-8 8-5 24 4 16 5 23 5 32 0 7 0 8-3 13-2 3-5 8-7 11-2 5-2 6-1 9 0 2 2 5 3 6 2 3 2 3 14 3 7 0 16 0 20 1 6 1 7 1 11 4 2 2 5 4 6 5 4 1 15 1 18-1z"/></svg>