<svg xmlns="http://www.w3.org/2000/svg" width="1344" height="566"><path d="M0 283V0h1344v566H0V283m596 276c20 0 50 0 65-1 36-1 160-1 191 0 58 2 229 3 235 2 6-2 7-8 1-20-4-7-8-13-14-20-5-6-11-13-14-16-9-12-17-21-24-26-4-4-13-10-19-15s-16-15-23-21c-15-14-26-23-36-31-4-3-10-8-14-10-15-12-27-21-32-23-4-2-8-2-21-3-21-1-26-3-34-11-12-12-18-28-18-48 0-6 0-12 1-13 0-2 2-7 3-11 2-11 4-14 13-26 12-17 16-23 20-37 4-11 5-25 3-34-2-7-2-14 0-28 2-15 2-40 0-49-5-19-15-36-29-47-21-17-46-29-70-32-21-2-47-1-62 3-11 3-18 6-29 13-23 16-38 36-42 57-1 4-2 13-3 20 0 7-1 18-2 25s-2 19-3 27-2 20-3 28c-4 21-4 34-1 52 2 8 3 16 4 16 0 1 1 3 1 7 2 11 11 38 17 48 3 7 12 16 19 21 13 7 15 16 6 23-4 3-16 10-30 17-26 13-38 21-65 43-28 22-45 40-65 68-9 14-18 35-18 44 0 7 2 8 13 9 5 0 16 1 25 0 9 0 33 0 54-1z"/></svg>