<svg xmlns="http://www.w3.org/2000/svg" width="1344" height="566"><path d="M0 283V0h1344v566H0V283m598 277c13 0 28-1 34 0h60c27 0 61 1 76 1 30 1 118 0 142-2 15-1 29-1 64-1 60 1 134 1 139 0 6-1 10-4 10-7s-8-17-13-23-19-16-31-24c-22-13-78-42-89-45-26-8-35-14-55-33-11-12-13-14-13-20 0-7 7-40 17-79 7-27 10-37 12-42 3-6 4-7 14-11 5-3 12-7 14-9 8-6 15-17 21-30 8-19 8-21 8-34 0-11 0-12-2-16-2-2-5-5-9-7-3-1-6-4-7-5-2-3-2-3-1-13 2-11 4-28 7-56 2-23 2-37-1-57-3-21-8-32-16-36-4-2-14-4-27-6-6-1-38-1-109-1-115 0-123 0-132 6-8 5-13 17-17 40-2 6-4 16-5 21-1 6-3 18-4 33-2 41-3 46-11 55-7 7-9 16-9 29 1 24 12 50 28 69 7 9 13 28 17 55 4 26 2 43-7 59-3 7-6 10-8 12l-3 2h-23c-18-1-22-1-25 0-4 3-14 14-28 32-13 18-20 23-44 36-9 4-22 12-30 16-9 5-22 12-30 17-37 18-63 38-78 59-9 13-8 14 15 16 19 1 106 1 149-1z"/></svg>