<svg xmlns="http://www.w3.org/2000/svg" width="1344" height="566"><path d="M0 283V0h1344v566H0V283m978 278c109-1 125-1 132-3s8-10 2-22c-4-8-9-14-22-29l-18-18c-7-9-24-23-36-31-17-12-40-32-49-44-8-9-25-36-43-65-2-2-6-8-9-13-2-4-6-10-8-13-1-3-5-11-9-17-4-7-8-14-9-15-1-4-1-12 0-17 1-1 6-8 12-14 10-10 12-12 16-21 5-11 7-16 10-35 8-39 9-64 2-90-6-25-21-57-33-70-11-11-38-29-52-34-9-3-27-4-66-4-32 0-44 1-70 8-9 3-15 5-29 12-16 9-18 10-26 18-4 4-9 10-11 13-5 8-10 21-11 33-2 12-2 57 0 68 0 5 2 14 3 20 0 6 2 22 2 34 1 27 2 35 11 59 7 19 8 24 11 33 3 11 11 32 14 37 2 6 13 16 20 19 5 3 19 6 30 8 10 1 15 5 16 13 0 3 0 4-2 6-3 3-13 7-16 7-4 0-30 11-43 18-26 13-39 24-46 38-3 6-7 20-8 31-1 5-2 13-2 17-1 4-1 9-1 10 1 2 0 4 0 6-2 3-5 25-5 34s3 11 25 13h318z"/></svg>