<svg xmlns="http://www.w3.org/2000/svg" width="1344" height="566"><path d="M0 283V0h1344v566H0V283m852 278c44-1 45-1 89 0 49 1 99 0 110-1 13-1 14-2 14-10 0-10-4-28-11-46-8-21-9-24-13-39-1-7-5-19-8-26-3-8-9-24-13-37-10-30-21-50-30-57-3-3-33-21-52-31-5-3-12-7-15-9-13-9-14-12-12-44 1-28 0-46-3-59-4-13-14-32-21-42-6-8-18-19-29-24-3-2-8-5-11-6-16-11-31-15-57-17-23-2-35 0-54 10-12 6-19 11-31 23-11 11-16 18-19 25-3 6-8 25-8 29 0 5-4 14-12 32s-11 29-11 40c0 8-2 17-5 20-4 3-9 6-20 10-30 10-46 17-60 27-17 11-22 18-27 34-8 26-14 43-19 53-3 7-7 17-9 22-9 19-16 33-24 49-9 16-12 25-15 37-3 10-5 27-5 29 1 4 5 6 10 7 7 1 106 1 176 0 45-1 65-1 67 0 1 1 5 2 8 2 6 1 68 1 120-1z"/></svg>