<svg xmlns="http://www.w3.org/2000/svg" width="1344" height="566"><path d="M0 283V0h1344v566H0V283m521 277c1 0 48 0 104-1 99 0 117 0 173-3 18-1 26-1 34 0 6 1 21 1 34 2 12 0 34 1 48 2 33 2 79 1 82-2 2-2 2-2 1-5-2-3-9-10-15-14-6-3-26-19-37-28-5-4-16-14-24-23-13-12-16-16-19-22s-6-9-28-32c-31-30-36-36-40-46l-4-8v-82l-3-15c-15-70-15-70-15-90 0-16 0-19-3-32-11-53-17-68-29-85-9-11-15-17-27-23-26-13-44-17-71-17h-16l-8 3c-4 2-10 4-14 5-3 1-10 3-15 5-5 3-12 5-14 6-4 1-6 3-14 11-9 9-11 12-18 24-6 12-7 15-9 24-3 16-4 32-1 49 2 17 2 22 0 32-2 16 2 30 13 47 3 4 6 9 8 15l2 8-1 13c-1 8-3 16-4 18-1 3-2 7-2 11 0 7-3 15-7 18-1 1-4 2-8 3-7 0-9 2-14 6-2 3-5 7-13 22-4 7-24 26-32 30-5 3-8 4-14 4-5 1-10 2-14 4-10 4-32 9-47 10-14 0-17 1-28 10-14 12-19 17-24 26-3 4-7 11-9 14-5 8-11 21-13 28-1 3-3 11-3 17-1 6-2 12-3 13s-1 3 0 6c2 4 5 15 5 19 0 6 2 13 5 17 6 6 7 6 35 7 33 1 114 1 116-1z"/></svg>