<svg xmlns="http://www.w3.org/2000/svg" width="1344" height="566"><path d="M0 283V0h1344v566H0V283m1038 278c4-2 5-4 4-10-1-3-2-10-3-15s-2-13-4-17c-1-4-3-10-3-13 0-2-2-9-4-14-8-29-12-46-14-58-1-9-3-15-4-19-2-3-5-13-8-22s-6-16-6-17c-1 0-4-11-8-24-7-27-10-33-17-39-6-6-12-8-32-13-20-4-30-8-41-15-9-5-15-11-17-17-1-1-1-6-1-10s0-11-1-16c0-6 0-11 1-17 5-23-1-72-9-91-9-17-31-34-53-39-11-2-18-2-30 0-4 1-11 3-16 4-11 2-18 5-27 11-14 9-28 28-31 41-2 9 0 21 5 40 4 10 5 22 4 28-1 5-2 6-14 18-7 7-14 14-15 17-3 3-6 12-10 26 0 3-2 11-2 18-3 18-4 24-11 39-3 7-7 16-9 21-2 10-6 18-10 23-1 2-3 6-4 9s-3 10-5 16c-2 5-5 13-7 16-8 13-17 35-22 54-2 11-2 13-2 31 0 15 0 21 1 26 3 9 7 16 11 19 7 5 13 6 34 6 22 1 26 0 34-7 4-3 7-5 7-5 1 0 3 3 5 6 2 4 5 7 7 8s43 2 137 1c58 0 144 1 145 2s42-1 45-2z"/></svg>