<svg xmlns="http://www.w3.org/2000/svg" width="1344" height="566"><path d="M0 283V0h1344v566H0V283m402 278h124c114-1 177-1 244-1 66 1 67 1 70-1 4-3 5-6 3-15-1-5-2-16-3-25-3-26-4-27-35-42-12-5-26-12-31-14-30-12-55-24-57-27-3-4-3-11-1-20 1-5 3-15 4-21 2-13 8-32 13-45 13-31 14-33 16-56 2-20 1-106-2-140-5-46-19-82-39-98-10-8-28-15-56-25-9-2-18-5-21-6-22-7-45-10-62-9-20 2-20 2-62 22-13 6-26 14-32 19-16 15-31 45-39 75-4 14-12 51-13 62-1 4-1 11-2 14-1 2-2 11-2 20-1 9-3 26-5 38-2 13-4 30-5 38-1 9-2 21-3 27s-1 12-1 12c-1 0-2 9-2 19-1 9-3 20-3 24s-1 13-2 22c-2 35-4 39-18 52-19 15-47 36-62 45-28 17-29 18-33 35-4 12-4 17-1 19 3 3 18 4 38 3 7 0 43 0 80-1z"/></svg>