<svg xmlns="http://www.w3.org/2000/svg" width="1344" height="566"><path d="M0 283V0h1344v566H0V283m748 276c7 0 13-1 15-1 4 0 7-3 7-7s-7-19-12-25c-6-8-9-12-15-24-5-11-17-28-25-38-6-6-17-11-48-21-13-5-36-13-50-17-13-5-29-10-34-11-28-6-32-8-33-14-2-5 1-14 7-29s8-17 25-20c17-4 23-6 29-12 10-11 12-16 14-44 1-10 3-24 4-30 3-32 4-42 3-52-2-15-5-28-9-38-6-15-7-21-8-57l-1-31-4-14c-7-20-13-31-22-40-10-11-24-20-37-24-15-5-28-6-64-6-37 0-73 1-85 3-4 1-10 2-14 3s-9 2-11 3c-9 2-13 4-24 11-19 13-27 23-42 53-19 39-30 61-37 73-22 35-41 61-52 73-2 3-7 9-10 13-3 3-9 10-13 14-3 4-11 13-15 18-5 6-24 25-42 43-30 31-33 33-38 35-4 1-7 3-8 6-5 6-4 6 11 8 10 1 29 6 38 10 7 3 11 8 15 16 3 6 7 22 8 34 1 5 6 18 9 21 3 4 10 7 20 10 5 1 10 3 12 4 5 2 7 2 13 0 7-1 14-1 18 0 3 2 7 8 12 17 4 6 4 7 3 12-1 7-5 13-18 29-25 29-29 34-28 39 1 3 5 5 13 6 11 2 66 2 91 1 30-1 47-2 109-1 51 1 71 0 119-2 28-2 32-2 44 0 15 2 52 3 92 3 19 0 37 1 40 1 9 1 17 1 28-1z"/></svg>