<svg xmlns="http://www.w3.org/2000/svg" width="1344" height="566"><path d="M0 283V0h1344v566H0V283m776 278h138c31-1 31-1 36-16 5-16 5-25 0-38 0-3-2-8-2-13-3-11-8-35-12-46-5-15-8-28-9-39-1-9-2-14-7-30-3-10-7-20-8-22 0-2-3-10-5-19-9-34-11-36-39-43-14-3-17-4-25-9-5-3-9-7-10-8 0-2-1-6-2-10-1-5-2-9-5-14l-3-6v-20c0-26-3-53-7-65-5-15-13-25-27-33-15-9-30-11-53-6-21 4-27 7-39 19-15 17-19 33-12 61 1 5 2 13 2 16 0 6 0 7-3 12-2 3-8 10-12 14-8 9-12 16-15 25-5 19-7 27-7 34-1 9-2 12-9 20-4 5-5 7-7 19-2 7-4 14-5 15-5 8-7 13-9 19-1 9-4 15-9 23-5 7-8 13-11 20-1 2-3 7-4 10-5 13-7 24-7 38 0 25 5 37 21 45 4 2 6 2 16 2 8 0 12 0 16-2 7-3 13-7 17-14 4-5 6-6 8-4 0 1 1 14 1 30l1 29 2 3c3 2 4 3 13 3 15 1 36 1 92 0z"/></svg>