<svg xmlns="http://www.w3.org/2000/svg" width="1344" height="566"><path d="M0 283V0h1344v566H0V283m527 279c27-1 68-1 91-1 81-2 93-2 118-1 13 1 50 1 80 1 62 0 60 0 62-7 1-4 0-10-3-21-1-4-2-13-3-21-1-10-1-14-3-17-4-8-10-13-23-18-2-1-12-6-22-10-22-11-37-18-48-21-10-4-22-10-24-13-3-4-4-11-3-30 1-24 5-37 13-47 9-12 11-19 16-64l3-32v-34c-1-56-3-92-6-107-3-13-7-25-11-34-5-11-16-25-27-33-8-7-26-15-44-20-5-1-16-5-24-7-22-7-31-9-52-10-20 0-33 1-42 6-2 1-8 4-13 5-51 22-65 36-85 82-9 19-13 30-15 40-2 8-5 33-6 47-1 4-2 11-2 15-1 10-7 65-8 75 0 5-1 12-2 16 0 4-1 14-1 21-1 8-2 20-3 27s-3 21-4 31c-5 48-10 65-22 78-9 10-37 32-68 53-11 7-21 14-22 16-2 2-4 6-7 13-4 14-4 19 1 22 2 1 22 1 81 0h128z"/></svg>