<svg xmlns="http://www.w3.org/2000/svg" width="1344" height="566"><path d="M0 283V0h1344v566H0V283m951 279c18-2 18-2 32-38 2-4 2-6 2-14-1-10-4-20-12-35-3-6-7-16-9-21s-8-20-14-32c-11-25-17-40-17-40 0-1-8-19-17-38-8-17-11-25-19-47s-12-41-11-53c1-3 1-11 2-17 3-30 5-65 5-73 0-12-2-21-7-38-5-16-8-21-15-24-2-1-5-4-7-7-4-5-12-13-17-17-3-1-5-2-9-2-3 0-7-1-9-1-2-1-6-2-7-2-4 0-4 1-7 5-2 2-6 7-8 10l-5 5v11c1 8 2 14 5 24 2 10 4 18 4 24 1 8 1 9-2 20-2 6-4 11-4 12-2 2-4 1-6-3-6-12-23-15-28-5-2 4-3 6-3 20s0 16 2 21c1 2 3 8 3 12 2 16 10 34 22 47 11 12 20 32 28 60 2 6 4 13 5 14 1 2 2 6 2 10 1 3 2 8 2 10 1 4 1 5 0 7-3 3-5 3-13-3-12-8-20-12-29-15-5-2-10-3-12-3-3 0-36-8-40-10-7-2-17-4-34-6-19-2-22-3-38-13-14-10-15-11-16-15-1-5-1-10 2-19 7-21 8-26 10-34 2-6 4-13 6-16l2-6-1-19c-1-13-2-22-4-30s-2-15-3-34c-3-56-15-87-42-105-14-10-30-15-52-19-40-6-81 9-111 40-8 9-12 17-15 32-1 7-2 39-1 44 1 3-1 22-4 34-1 9-1 15 4 28 8 26 10 31 22 48 7 12 10 16 17 32 6 13 6 17 2 27-11 22-26 38-46 46-3 2-13 8-22 15-22 16-22 16-26 18-1 1-8 7-14 12-10 9-13 11-20 14-14 6-17 10-19 25 0 4-2 10-3 14-2 9-1 33 2 51 1 7 1 18 1 32v22l3 4c3 3 4 3 14 4h33c13-1 65-1 117-1 51 0 104-1 117-1 17-1 35-1 59 0 32 1 56 1 157 0 31-1 42-1 58 0 11 1 20 2 21 2 4 1 28 1 37 0z"/></svg>