<svg xmlns="http://www.w3.org/2000/svg" width="1344" height="566"><path d="M0 283V0h1344v566H0V283m764 201c4 0 10-2 14-3s11-3 16-4c10-2 33-8 44-12 18-5 22-5 42-5h27c8 1 8 1 11-1l2-3v-12c-1-7-2-16-2-20-3-15-5-35-5-53-1-13-1-19-2-20-3-3-15-10-20-11-11-4-28-11-28-14-1 0-1-3-1-6 0-5-3-9-10-11-6-2-12-7-12-10 0-2 4-6 7-6 1 0 2-1 3-1 2-2 2-3 1-20-1-18-2-25-8-56-2-9-4-20-5-25-2-11-5-22-10-41-8-27-19-50-32-65-15-17-22-22-42-33-15-8-18-9-30-10-9-1-11-1-17 1-4 1-11 3-14 5-6 2-10 3-18 4-12 1-17 3-24 7-14 9-29 32-34 53-2 6-7 28-9 40-4 16-7 41-7 51 0 6-1 17-1 25-1 12-1 23 0 45 1 29 1 33-1 34-1 1-6 0-11 0-4-1-15-1-22-1-13 0-15 0-18 2-3 1-12 9-20 17-9 9-17 17-19 18-1 1-6 4-10 7-4 4-14 10-21 14-8 5-17 11-20 14-8 7-15 10-25 10-3 0-7 0-8 1-2 1-8 9-9 14-1 2-5 10-9 19-7 16-11 27-12 36-1 2-2 6-4 9-3 5-3 6 0 8 4 3 9 2 19-1 6-3 11-4 19-5 6-1 14-2 18-2 6-2 14-2 27-2 15 0 21 0 24-1 2-1 6-2 7-2 2 0 6-1 10-2 8-3 17-2 24 1 3 2 6 3 7 3s5 1 9 2c20 6 47 8 80 6 16-1 25-1 36 0 9 1 16 1 16 2 1 0 6 1 11 1 9 2 12 3 19 6s7 3 14 3c4-1 10 0 13 0 7 1 11 1 20 0z"/></svg>