<svg xmlns="http://www.w3.org/2000/svg" width="1344" height="566"><path d="M0 283V0h1344v566H0V283m792 279c14-1 74-1 134-1 108-1 164-2 168-4 3-2 4-3 4-8 0-11-17-53-30-72-3-4-6-9-7-11s-4-7-6-12c-3-4-8-13-12-19-3-6-9-16-12-22l-6-10c0-1-2-4-4-7-7-12-9-23-5-28 6-6 21-9 34-7 6 1 6 1 9-1 4-2 9-13 9-18 0-3 0-7 1-10 1-7 0-11-5-24-2-5-4-12-4-14-1-3-2-8-3-10 0-2-1-6-2-9-1-7-4-17-8-24-4-6-17-20-25-25-3-2-9-6-14-8-10-5-25-14-31-19-10-7-13-15-20-42-6-27-15-51-29-74-10-16-28-35-43-44-28-19-51-25-87-25-20 0-28 1-42 6-4 2-14 5-20 8-17 5-25 9-36 17-17 13-44 42-51 54-8 13-14 20-20 26-10 9-24 25-26 30-3 7-2 19 3 35s8 25 13 32c2 3 8 14 13 24 11 23 16 29 26 35 9 4 14 9 16 14s5 18 5 29c1 13 3 18 9 23 2 3 6 6 8 7s6 4 8 7 5 8 8 10c8 9 20 26 24 33 5 12 5 14-2 33-8 21-9 21-17 31-12 13-16 20-26 52-9 29-10 37-3 40 5 3 58 4 104 2z"/></svg>