<svg xmlns="http://www.w3.org/2000/svg" width="1344" height="566"><path d="M0 283V0h1344v566H0V283m752 278c10-1 13-1 21 0 6 1 11 1 13 1 1 0 25 0 54-1 68-1 92-1 166 0 64 1 68 0 70-4s1-18-7-57c-2-8-4-18-5-20 0-3-1-8-2-10-2-9-4-18-6-26-1-8-3-17-6-26-1-3-3-9-4-13-5-16-11-30-19-39-8-10-34-23-85-42-21-7-26-9-30-11-9-5-20-14-47-41l-27-27v-24c1-14 1-26 2-28s4-7 8-12c11-12 15-21 15-39 0-13-2-21-8-41-3-8-6-19-7-24-5-23-11-39-20-56-6-10-10-14-16-16-3-1-31-1-102-1h-98l-6 2c-7 3-10 7-16 22-5 11-9 25-10 39-1 9-1 13 0 26 3 20 5 35 9 50 2 7 5 18 6 25 5 23 8 31 14 43 8 13 18 33 22 41 4 13 12 28 16 35 5 7 6 11 4 17s-9 15-17 21c-4 3-24 13-44 24-40 20-52 27-53 31-1 3-1 4 2 10 10 17 16 30 18 36 3 10 2 19-3 38-3 10-6 21-7 25-5 26-9 37-17 47s-9 13-8 15c1 4 6 5 24 5 9 1 20 2 25 3 6 1 21 1 63 2 30 0 55 1 56 1 1 2 49 1 62-1z"/></svg>