<svg xmlns="http://www.w3.org/2000/svg" width="1344" height="566"><path d="M0 283V0h1344v566H0V283m82 277c12-1 30-1 40-1 15 1 50 0 57-2 1 0 3-1 4-3 1-3 1-5 0-14-1-6-2-14-3-19 0-4-2-14-3-23 0-8-2-21-3-28s-3-23-5-34c-7-50-16-75-34-103-13-19-36-37-65-50-23-10-26-13-24-25 0-8 4-20 7-25 4-7 4-11 2-19l-2-7 2-4c1-2 3-6 5-8 1-2 3-7 4-10s3-7 4-9 4-5 6-7c2-4 2-5 2-12 0-8 0-11-7-31l-7-22-1-21V62l-3-8C54 44 32 7 29 5S8 2 4 4L1 5v554l3 1c2 2 5 2 29 2 15-1 36-1 49-2m1008 0c4 0 9-1 10-1 3-3-2-19-9-32-7-12-45-53-60-64-4-3-13-11-20-17s-18-16-25-22c-6-6-17-15-23-20-48-36-45-35-69-36-21-1-26-3-36-14-5-5-7-8-9-14-6-14-6-29-2-49 3-13 4-17 15-31 16-19 23-33 25-49 1-7 1-9-1-20-3-12-2-19 1-35 2-11 2-33 0-43-6-25-18-42-40-57-18-12-37-20-55-23-10-1-40-1-52 0-9 1-21 4-28 7-6 3-23 14-31 21-13 12-23 29-26 45-1 5-2 14-3 21 0 7-1 16-1 20-1 4-2 18-4 31-1 13-3 30-4 37-3 23-3 28 9 71 2 8 10 29 17 46 4 10 6 13 15 23 8 9 9 11 7 13-1 2-3 4-6 5-8 5-35 19-40 22-22 10-81 56-96 75-29 36-33 43-40 66-5 15-5 17-2 21l3 3h19c11 0 53-1 93-2h214c4 1 43 1 84 2 42 0 87 1 100 1 22 1 52 1 70-1z"/></svg>