<svg xmlns="http://www.w3.org/2000/svg" width="1344" height="566"><path d="M0 283V0h1344v566H0V283m1149 278c17 0 33 0 35-1 7-1 17-10 17-15 0-4-8-10-22-19-6-4-13-9-15-11-3-2-8-6-12-9s-12-9-17-13c-6-5-13-11-17-14-12-10-18-15-20-18-2-4-1-15 2-35 7-42 9-65 9-102 0-49-3-92-8-120-7-42-19-82-30-103-5-11-17-25-27-33-24-20-69-39-94-39-7 0-48 9-64 15-29 10-46 23-64 48-8 12-12 24-18 48-2 7 0 32 2 45 3 14 4 18 1 37-1 14-1 20-4 55-1 18-6 44-10 60 0 3-2 11-3 17-2 15-4 21-10 25-11 6-41 12-86 19-6 0-15 2-19 3-12 4-23 6-29 6-8 0-16 2-23 5-12 6-29 22-36 33-1 3-3 9-5 13-5 21-14 44-17 52-2 4-6 11-9 15-6 9-10 21-10 27 0 3 1 5 3 6 3 2 4 2 35 2 38 0 101-1 105-2 2 0 4 0 5 1 3 2 164 2 197 1 29-2 25-2 69 0 19 0 61 1 94 2 32 0 59 0 59 1h3c1-1 16-1 33-2z"/></svg>