<svg xmlns="http://www.w3.org/2000/svg" width="1344" height="566"><path d="M0 283V0h1344v566H0V283m770 251c7-2 13-3 14-4s7-2 13-2c6-1 11-2 12-2 2-1 11-3 23-5 4-1 11-3 16-5 9-3 16-5 30-9 8-2 21-4 32-6 3 0 12 0 22 2 22 2 20 4 20-22-1-15-1-22-3-29-3-15-5-31-6-49-1-16-2-18-6-21-3-2-12-5-36-11-21-5-24-6-26-9-2-4-4-12-4-19 0-8-1-12-5-15-5-4-5-7-1-12 4-4 4-5-4-20-11-24-14-32-16-38-1-4-3-10-5-13s-5-10-7-17c-2-6-7-18-11-28-3-9-7-19-8-22-4-9-13-32-16-38-8-15-22-31-35-40-11-8-16-10-32-16-15-6-22-8-35-9-12 0-22 1-35 5-5 2-12 4-16 4-9 3-29 11-36 16-13 9-22 19-30 36-12 26-16 49-13 75 0 4 1 23 2 42s2 41 2 48c1 13 1 14-1 18-2 5-9 10-20 16-2 1-9 5-14 9-13 8-18 15-23 30-2 5-3 7-6 9-4 2-5 2-12 2-6-1-7-1-10 1-8 7-15 11-31 16-14 5-20 9-25 20-1 2-3 4-4 5-2 2-13 7-22 10-8 3-9 4-15 13-4 7-5 10-5 13s-1 5-3 8c-2 2-3 4-2 5 0 2 1 6 1 10 0 12-1 12 26 12 16 0 23 1 29 2 10 2 16 2 27 0 9-2 9-2 12 0 4 2 4 2 7 1 2-1 5-2 9-2 3 0 8-1 11-2s7-1 10-1c7 1 29 6 32 7 1 1 7 3 13 5l10 3 30 1c31 0 63 1 74 3 4 1 9 1 12 1 2 0 10 1 17 2 16 3 24 6 36 15 5 3 22 4 37 1z"/></svg>