<svg xmlns="http://www.w3.org/2000/svg" width="1344" height="566"><path d="M0 283V0h1344v566H0V283m579 109c9-1 20-3 24-3 5-1 13-3 19-3 5-1 15-4 21-6 16-5 23-7 36-8 24-3 40-2 58 4 5 2 8 2 17 1 12 0 26-3 31-4 1-1 5-2 8-2 2-1 5-2 6-2 1-1 5-2 8-2 3-1 8-2 12-3 7-1 11-1 27 2 9 1 9 1 11-1 2-1 2-3 1-15-1-7-1-13-1-14-1 0-1-7-2-14-1-15-3-23-6-26-1-2-1-2 1-9 3-9 5-12 9-11 2 0 5-1 7-1 4-2 4-2 4-5-1-7 0-28 1-38 1-7 1-20 1-40 0-32-1-53-5-82-2-13-3-17-7-26-11-24-29-39-56-45-13-2-22-3-28-1-3 1-7 2-9 2-8 2-18 5-27 9-12 6-20 14-25 26-7 13-8 21-9 59-1 17-1 34-2 38 0 3-1 22-1 41 0 37 0 39-5 43-3 1-5 1-26 1-12-1-29-1-37-2-13 0-14 0-22 2-4 2-8 4-9 4-1 1-4 4-8 6s-9 5-10 7c-8 5-14 7-26 7-6 0-14 0-18-1-8-1-10 0-19 7-3 3-8 7-10 8-3 3-4 3-4 7 0 1-1 4-1 6-1 2-3 7-4 12-1 6-4 14-7 20-5 10-8 21-7 24 2 5 24 6 40 3 11-1 13-1 16 1 3 3 3 8 0 13s-2 7 4 11c3 1 6 2 8 2 3-1 12-2 21-2z"/></svg>