<svg xmlns="http://www.w3.org/2000/svg" width="1344" height="566"><path d="M0 283V0h1344v566H0V283m589 276c17 0 51-1 75-1 56-2 132-1 186 0 26 1 148 3 191 2 29 0 42 0 43-1 4-4-3-21-16-36-4-5-10-13-14-18-8-10-14-16-40-36-10-9-23-19-28-24-13-13-44-38-60-49-3-2-8-6-10-7-2-2-6-4-9-6-6-3-7-3-24-4s-18-1-24-4c-12-7-17-13-23-29-3-9-3-10-3-25s0-16 3-25c4-11 5-13 13-24 8-13 18-32 20-40 3-11 4-24 1-33-1-6-1-8 0-16 2-20 3-37 2-48s-5-25-9-33c-8-16-22-29-44-41-22-13-44-18-77-17-21 1-28 2-40 6-23 8-47 29-58 52-5 9-7 19-8 38-1 10-2 24-3 31s-2 20-3 27-2 20-3 28c-2 11-2 18-2 24 2 16 8 50 12 60 2 4 4 9 5 13 3 8 11 25 14 29 1 2 6 6 10 9 6 5 8 7 9 10 2 5 0 11-4 15-2 2-13 9-24 15-26 15-32 19-47 29-39 30-55 45-77 76-16 22-25 45-21 51 3 3 8 4 32 3 13 0 38 0 55-1z"/></svg>