<svg xmlns="http://www.w3.org/2000/svg" width="1344" height="566"><path d="M0 283V0h1344v566H0V283m866 277c9-2 11-6 13-22 1-14 1-46 0-62-2-24-6-35-14-45-10-11-36-31-64-49-16-9-24-18-35-35-6-11-19-36-19-39 0-1 5-12 11-25 25-48 30-62 34-84 1-6 3-15 4-20 5-21 6-48 4-68-2-17-9-36-17-49-9-12-32-33-44-39-8-4-10-4-28-5-11-1-19-2-23-3-9-2-24-3-37 0-27 4-58 30-71 59-7 13-10 33-10 56 0 12-2 21-6 30-5 9-7 19-5 32 2 14 5 20 22 37 12 12 13 15 16 34l2 13-2 11c-4 21-12 34-33 49-12 9-30 18-49 24-36 12-64 23-72 29-12 8-14 12-29 65-3 11-6 23-7 25 0 2-4 18-8 34-9 34-10 41-6 45 1 1 4 2 5 2 6 1 464 0 468 0z"/></svg>