<svg xmlns="http://www.w3.org/2000/svg" width="1344" height="566"><path d="M0 283V0h1344v566H0V283m845 276c2-2 1-5-4-15-3-6-6-13-7-19-3-11-4-14-17-36-12-21-15-29-16-38 0-10 2-27 8-48 6-23 7-29 8-45 1-10 1-17 0-27-2-23-2-26 2-33 10-18 13-41 10-66-1-5-2-13-2-16-1-9-8-36-10-39 0-1-4-4-7-6-7-5-8-7-12-16-2-6-3-14-6-43 0-6-1-12-2-14-3-9-20-20-31-20-3 0-7 1-8 2-1 0-4 1-5 1-6 0-17 7-20 13 0 2-1 6-1 11 0 4-1 11-2 14-1 4-1 10-1 22 0 16 0 18-2 22s-4 6-9 9c-7 4-10 8-19 26-1 3-5 8-8 11-3 4-8 11-13 21-9 18-12 21-20 24-3 0-8 3-10 5l-4 3-5-1c-15-6-23-7-27-4-7 4-11 4-22 2-9-1-9-1-11 1s-2 2-1 4c2 2 3 2 21 10 19 7 31 11 35 11 2 0 8 1 14 1 8 1 11 1 20 0 6-1 14-2 20-2h9l7-4c3-2 6-4 7-4 3 1 5 6 6 13 0 8 3 14 10 20 3 2 4 5 5 8 1 6 1 39-1 64 0 12-1 25-1 29 1 4 1 20 2 36 2 30 3 46 7 69 1 7 2 17 3 21 0 15 1 18 4 21 4 4 15 2 18-3 1-1 2-5 2-9 1-4 2-8 3-10 2-4 3-17 1-27-1-4-1-13-2-20 0-12 0-13 2-14s6 4 15 18c4 7 8 14 10 16 1 2 4 8 7 13 3 6 7 12 9 15 3 3 6 9 9 13 2 4 4 8 6 9s16 3 21 2c2 0 4-1 5-1z"/></svg>