<svg xmlns="http://www.w3.org/2000/svg" width="1344" height="566"><path d="M0 283V0h1344v566H0V283m260 277c22 0 39-1 40-2 1 0 2-2 3-3 4-4 12-23 14-31s6-22 8-31c2-7 2-7 31-7 41-1 50-2 83-10 22-5 29-7 35-10 3-1 10-3 16-5 15-5 19-7 25-9 6-4 20-9 22-9 0 0 2-1 4-3s3-4 3-8c0-5-2-8-5-8-2 0-5-3-5-5s-2-6-4-7c-1 0-3 1-5 1-3 2-10 5-16 6-2 1-6 2-8 3-4 2-13 3-17 1-3-1-6-6-7-12-2-8-7-6-12 6-2 3-4 9-5 11-2 3-4 5-6 6-5 3-24 5-37 5-11 0-16 0-41-3-13-1-17-4-24-18-5-8-5-10-7-24-2-9-4-18-5-21-4-7-3-11 3-23 6-13 8-15 15-14 8 1 14 0 18-1 1-1 6-5 11-9 4-4 10-10 13-12 7-5 8-8 11-19 1-7 6-19 10-26 5-10 5-23-2-35-4-9-20-25-28-30-6-3-7-4-15-4-14 0-29 4-38 13-5 4-13 15-17 22-3 5-4 6-12 6-3 1-6 2-8 3-6 5-9 6-21 7-21 2-35 6-60 19-29 15-39 22-56 42-22 25-35 44-51 76-12 24-26 57-26 60 0 2 1 2 9 2 10 0 13-1 15-8 0-3 2-9 4-14 4-11 5-12 12-8 4 2 4 2 6 1 2-2 3-2 5-1s6 11 5 14c-1 4-6 9-8 9s-3 1-4 1c-2 2-1 9 1 16 2 5 2 5 0 7-1 1-3 2-5 2-5 0-15 4-16 6 0 1 4 3 8 3s8 2 10 5c2 2 2 2 1 9-1 6-1 8 0 10 1 3 1 7-1 10 0 2-2 6-2 9-2 7-5 11-10 12-7 2-6 4 2 14 7 8 10 9 23 9 12 0 26 2 32 5 4 1 8 1 26 0 13 0 39 0 60-1z"/></svg>