<svg xmlns="http://www.w3.org/2000/svg" width="1344" height="566"><path d="M0 283V0h1344v566H0V283m971 277c3-1 6-2 7-2s3-1 5-3c4-3 6-10 6-19 0-4 1-12 2-18 0-7 1-17 2-23s2-16 2-22c5-32 8-115 5-129-2-6-13-35-15-38 0 0-2-3-3-6-3-7-25-43-30-51-3-3-8-9-12-13-9-10-17-19-19-23-1-1-2-5-2-7-2-12-4-14-13-14-6 0-10-2-14-7s-6-9-7-15 1-23 5-36c2-4 3-10 4-12 0-3 1-9 3-15 3-13 3-26 1-35-7-22-12-32-20-40-5-4-15-9-23-11-12-3-32-1-49 5-18 6-27 11-36 21-7 7-8 10-9 21 0 7 0 13-2 18-1 4-3 14-4 22-1 7-3 19-5 26-2 6-3 13-3 15 0 1 1 5 3 8s5 9 7 14c4 13 10 25 15 29 2 2 8 5 12 7 12 4 17 7 19 12 6 9 3 16-11 32-10 10-12 15-14 27-1 9-4 19-10 38-4 10-7 20-8 24-3 12-6 24-7 29 0 3-2 15-4 27-8 44-9 55-13 80-1 11-3 25-4 31 0 6-2 15-2 21s-1 13-2 15c-1 6-1 14 0 15 1 0 6 1 10 2 10 2 16 2 94 0h62c7 1 23 1 35 1s24 1 27 1c4 0 7 1 8 1s4-1 7-3m-410 0c7-1 8-4 2-9-5-5-9-7-20-9-8-2-11-3-13-6-6-5-7-7-6-24v-16l4-10 4-10v-15c0-10 0-16-1-21-1-3-2-8-2-10s-1-6-2-8-2-7-3-10c0-4-1-9-2-11s-3-7-4-11c-6-15-12-21-35-36-6-5-12-9-12-10-2-7-2-7 2-12 3-3 6-6 6-8 5-10 10-16 19-21 2-1 5-3 6-5 4-3 5-9 7-32 1-12 1-13-1-20-1-3-2-9-2-11 0-6-3-31-4-38-2-8-5-14-10-19-9-8-43-19-59-19-25 0-49 14-59 35-3 5-5 23-5 40 0 22-3 93-4 108-2 14-4 20-16 35-4 5-13 25-13 27s-1 5-2 9c-6 18-10 40-13 61-5 38-6 46-6 58 1 15 3 21 7 26l3 2 30 1c43 1 200 0 204-1z"/></svg>