<svg xmlns="http://www.w3.org/2000/svg" width="1344" height="566"><path d="M0 283V0h1344v566H0V283m603 277c11-1 24-1 29-1h58c91 1 127 1 130 0 7-4 7-22 0-53-3-12-21-68-25-76-3-5-3-7-3-11 2-18 3-16-1-20-4-2-28-14-40-18-2-1-11-5-20-10-9-4-21-9-27-12-17-7-20-9-22-13-3-3-2-7 0-34 3-36 4-41 5-48 3-17 2-45-3-86-1-4-1-12-2-18-3-31-9-57-16-73-6-15-24-38-34-47-17-15-53-31-68-31-7 0-16 2-31 8-3 1-10 2-16 3-17 2-26 6-40 21-17 18-28 42-38 77-5 21-12 65-18 110-1 9-1 21-1 40 0 22 0 28 2 41 3 20 3 29-1 33s-13 8-24 10c-9 1-15 3-35 10-13 6-32 14-38 17-3 2-9 5-13 7-8 4-12 8-14 12-1 1-3 8-5 14-2 7-4 15-6 19s-5 12-6 17c-2 4-6 13-8 18-8 14-26 73-26 81 0 4 1 6 5 8s7 2 21 3c25 2 48 2 78 0 29-1 36-1 94 1 74 2 81 2 110 2 15 0 38-1 49-1z"/></svg>