<svg xmlns="http://www.w3.org/2000/svg" width="1344" height="566"><path d="M0 283V0h1344v566H0V283m552 277h147c96 2 124 2 127 1 4-1 6-6 6-14 0-13-2-38-4-47 0-5-1-11-2-14-4-27-10-48-16-58s-21-26-33-34c-5-4-11-8-13-10-3-2-6-4-8-5-6-3-43-26-53-33-5-3-12-8-15-11-5-6-20-28-27-39-4-8-4-8-3-13 1-3 3-9 4-14l4-10c0-1 2-4 4-7 4-6 5-9 7-34 1-8 2-14 4-19 3-7 3-8 2-11-3-10-5-23-6-49-1-31-5-47-14-67-9-17-19-26-37-35-12-5-35-9-44-7-12 3-42 15-48 18-2 2-7 5-12 7-10 5-17 12-19 20-1 3-6 13-10 22-8 17-8 17-9 28-1 6-1 15 0 21 2 23 1 29-5 32-7 4-9 9-7 25 1 6 3 13 4 16 3 11 9 20 17 23 6 4 8 6 12 16 8 16 9 22 10 37 0 13 0 15-2 19-1 2-2 6-3 7-1 4-8 7-18 10-40 10-67 24-88 44-9 9-20 28-25 42 0 3-3 10-5 17-6 17-11 32-11 34 0 1-1 4-1 6-1 3-3 9-4 14-2 5-4 12-5 15s-3 10-5 15c-2 6-4 12-5 14-2 5-5 21-5 24 2 6-2 6 73 5 38 0 101 0 141-1z"/></svg>