<svg xmlns="http://www.w3.org/2000/svg" width="1344" height="566"><path d="M0 283V0h1344v566H0V283m643 277h259c43-1 86-1 96-2 20-1 22-1 24-8 2-5 0-20-3-34-3-13-5-26-5-35 0-5-1-17-2-27-1-18-1-19 0-24 2-5 2-6 0-10 0-2-4-6-7-9-5-6-6-7-22-12-11-4-23-9-34-14-8-4-15-7-17-8-4-2-14-13-18-20-8-15-10-30-12-72-1-16-2-38-3-49-1-10-2-28-2-38-1-29-6-60-12-78-5-12-13-28-19-37-7-9-18-20-28-26-12-8-34-18-52-24-8-3-27-3-42 0-6 1-17 3-25 4-9 1-18 4-28 7-24 8-27 10-33 26-3 11-7 18-14 28-3 3-7 10-11 15-12 19-18 34-20 51-1 5-1 10-2 11 0 1-2 5-2 8-1 3-5 10-8 17-8 14-15 28-15 32-1 3 1 14 3 20 1 3 1 10 1 24 1 12 1 23 2 28s2 13 2 17c0 19 10 28 36 31 12 2 16 3 16 5 0 3-9 13-12 15-6 4-14 6-22 6s-11-1-11-6c0-4-5-5-17-2-4 1-11 1-23 0-13 0-17 0-19 1-1 1-7 5-14 10-21 17-25 19-29 15-1-2-4-3-5-3-2 0-14 7-24 13-3 3-10 6-14 8-15 6-21 10-29 22-3 3-6 6-10 8l-7 3h-28c-31 1-32 1-35 6s-2 7 2 9c5 2 11 8 11 11 0 1-1 3-1 5-1 1-2 6-3 10-1 11-13 39-18 47-1 1-2 3-2 4s-1 4-2 5c-1 3-1 4 0 5s1 1 2 0c2-1 4-1 16 2 6 1 28 2 52 3 14 0 27 1 31 2 6 2 10 2 22 1 9-1 18-1 22-1 22 0 34 1 43 2 18 2 39 3 74 2h47z"/></svg>