<svg xmlns="http://www.w3.org/2000/svg" width="1344" height="566"><path d="M0 283V0h1344v566H0V283m821 276c6-2 11-8 18-21l5-12 1-12c0-14 0-14 19-48 14-25 15-27 20-39 3-9 8-18 16-27 11-13 12-17 6-37-3-11-6-17-11-20-3-1-3-1-6 1-3 1-3 1-4 0-4-6-9-10-15-12-8-3-8-4-5-11 1-2 2-8 3-11 1-4 1-9 2-10 0-4-2-11-5-15-3-3-4-3-9-3-7 0-9 2-12 10-2 5-4 9-10 16-9 11-11 13-18 16-4 3-5 3-13 2-7 0-9 0-12 1-6 3-14 15-22 30-7 12-9 20-15 43-8 33-12 44-28 74-14 29-29 53-34 56-3 2-6-1-10-7-2-5-21-31-32-44-2-3-5-8-7-13-5-16-7-21-13-31-5-9-7-11-12-16-4-3-9-7-12-9-9-5-14-9-15-11-1-3 21-44 28-52 3-2 6-7 7-9 2-3 5-8 7-11 5-7 13-26 15-34 3-9 6-35 8-59 0-12 2-26 2-31 1-5 3-21 4-35 2-38 0-61-8-76-5-9-18-22-32-31-6-4-15-10-20-13-15-10-35-18-50-22-7-1-11-1-22 0h-36c-11 0-12 0-23 3-15 5-30 13-37 18-5 5-12 13-17 21-8 11-19 41-27 70-6 21-7 24-10 38-2 7-4 19-6 25-3 13-4 15-7 33-2 7-5 23-8 35-9 39-10 47-13 89-1 12-1 16 1 22 0 3 1 8 2 9 1 5-2 13-6 21-12 18-22 38-32 63-4 10-9 23-12 29-7 15-7 18-3 27 3 6 3 8 3 15 0 9 2 12 8 14 2 0 13 1 25 2 24 1 162 0 242-1 64 0 183 0 184 1 2 0 36 2 48 2 7-1 12-1 15-3z"/></svg>