<svg xmlns="http://www.w3.org/2000/svg" width="1344" height="566"><path d="M0 283V0h1344v566H0V283m756 250c9 0 25-2 31-4 2 0 8-1 12-1s10-1 14-2c4 0 10-2 14-2 10-1 19-3 33-8 14-4 25-7 35-10 7-2 10-2 34-3h26l2-3c2-2 3-3 3-21 0-14-1-20-2-25-1-4-2-10-3-14 0-3-1-11-2-16 0-4-1-15-2-23-1-10-1-15-3-17-1-3-5-4-16-7-5-1-12-3-16-5-5-1-12-3-17-4-8-2-13-4-15-6 0-1-1-7-1-13-1-13-3-19-7-21-5-2-7-8-5-13 1-3 1-6-9-27-2-6-5-12-6-14-1-3-5-15-7-24-1-3-3-8-4-11s-5-13-8-23c-3-9-9-25-14-36-4-10-9-23-11-28-7-19-22-41-37-52-10-7-25-15-41-20-24-8-43-8-68-1-17 4-27 8-37 13-28 15-43 35-54 74-2 8-2 9-2 48 0 23 1 48 2 58 0 11 1 26 1 34 0 13 0 14-2 17s-18 14-29 20c-9 5-17 12-20 20-6 13-6 13-15 18s-12 5-17 1c-2-2-3-3-4-3 0 0-3 2-7 4-12 7-15 9-27 13-14 5-18 7-24 14-6 8-9 10-16 13-5 2-8 3-13 3-9 0-11 1-16 7-6 9-15 35-17 48-1 5-2 10-3 11 0 1-1 4-1 6-1 5 1 12 5 15 6 3 26 0 46-8 6-2 8-2 20-2 8 0 17-1 23-2 6 0 11-1 12-1 2 1 7 0 12-1s11-3 13-3c10-2 37 2 47 7 9 5 17 8 25 9 4 1 24 1 44 2 19 0 38 0 40 1 2 0 12 1 21 1 32 2 51 6 59 14 4 3 8 4 12 3h12z"/></svg>