<svg xmlns="http://www.w3.org/2000/svg" width="1344" height="566"><path d="M0 283V0h1344v566H0V283m360 277c2-1 14-1 33-1 39 0 37 1 39-23 1-8 2-15 2-17 0-6 2-7 9-5 6 2 9 2 18-1 6-1 6-1 8 0 2 3 3 2 6 0s10-16 10-20c0-2-8-12-14-16-3-3-4-6-1-8 3-4 2-6-5-10-7-3-8-3-18-4-13-1-13-1-15-10-1-4-1-8 0-12 0-3 2-9 2-14 1-5 3-14 5-21s3-15 3-17c0-9-3-22-9-41-7-18-16-31-34-45-4-3-8-7-9-9-1-3-1-4 5-15 4-6 7-12 7-13l7-7c7-7 8-9 11-27 2-15 2-15 0-41s-5-35-13-42c-4-4-18-11-23-13-6-2-24-5-30-5-11 0-28 7-36 14-7 6-13 21-15 41 0 5-2 15-3 24-1 16-2 78-1 86 1 4 1 5-6 16-8 11-13 22-14 31 0 3-1 8-2 10-1 3-2 6-2 7 0 2-1 5-2 9s-2 10-2 21c-1 8-2 16-2 18 0 1-2 10-3 19-1 17-1 17 1 34 1 12 3 20 4 25 4 9 5 20 4 45-1 23-1 26 4 32 3 4 5 5 13 6 11 1 64 0 68-1m965-1c1 0 3-2 3-4 6-10 9-59 9-140 0-68-1-81-15-123-8-24-16-35-39-59-10-10-20-21-23-24-6-8-8-10-18-12-13-4-15-6-20-24-2-11-2-13 0-50 2-28-1-52-8-65-4-8-9-12-18-15-15-6-29-7-47-4-21 4-47 26-50 43-1 4-1 8-1 9 1 2 2 12 2 22 1 20 4 41 7 51 1 4 4 10 6 15s4 10 5 12c2 5 6 9 13 12s10 6 12 10c1 2 1 4-2 9-2 5-5 9-13 18-18 18-17 17-18 23s-3 14-9 32c-2 7-4 13-4 13 0 1-2 7-4 13-3 10-7 32-9 48 0 4-1 10-1 13-1 2-2 11-2 20-2 22-3 30-7 36-9 13-20 24-29 28-4 2-9 2-15 0-7-3-25-10-29-11-6-1-9-1-10 3 0 3 1 6 4 10 10 12 10 15 2 23-3 3-8 7-10 9-7 4-9 10-4 12 7 3 8 4 11 11 2 4 4 7 5 7 0 1 3 0 5-1s5-1 8-1c5 1 6 2 9 5 4 5 5 5 15 6 19 2 23 4 26 7 2 2 3 4 3 5 0 4 3 6 9 7 13 3 246 4 251 1m-569-1c31 0 74 0 96 1 38 0 39 0 41-2s2-2 2-19c0-9 0-22-1-29s-2-19-3-28c0-8-1-22-2-31-1-14-1-20 0-38 1-13 1-32 2-43s2-29 3-40c2-26 1-46-2-57-4-15-17-38-31-56-3-4-7-9-9-13-3-3-10-11-17-17-12-12-13-13-15-20-3-7-6-10-10-10-1 0-4 0-6-1-5-1-7-4-11-14-2-6-2-8-2-12 2-13 2-21 1-25-1-2-1-9-1-22 0-29-1-35-12-46-7-8-10-9-28-13-12-2-15-2-26 2-19 6-32 17-36 30-2 7-3 9-3 31v24l7 18c6 19 11 29 18 39 5 6 11 18 11 21s-5 10-14 19c-8 9-10 12-10 19-1 5-3 12-9 32-7 24-15 56-16 69-1 10-4 28-6 39-2 6-6 29-14 82-1 7-3 17-3 22-2 10-6 38-7 48 0 4-1 13-3 20-3 17-3 19 3 20 1 1 14 1 29 0h84z"/></svg>