<svg xmlns="http://www.w3.org/2000/svg" width="1344" height="566"><path d="M0 283V0h1344v566H0V283m828 277c39-2 78-3 104-3 13-1 36-1 51-2h97c35 1 73 1 85 2 23 1 27 1 29-4 3-7-13-44-29-68-14-21-37-41-58-52-9-5-44-16-70-23-7-2-20-6-27-9-7-2-22-7-33-10-22-7-35-13-38-17-4-4-4-9-3-26 2-29 5-43 11-48 2-2 6-4 9-6 14-7 24-18 33-34 7-13 10-28 10-43 0-8 0-10-3-15-2-5-4-6-9-9-10-6-11-7-9-25 1-8 3-23 4-34 3-34 0-83-5-109-1-7-6-12-13-15-2-1-10-3-18-4-12-1-20-1-132-1-105 0-122 0-131 1-6 1-12 3-14 3-3 3-8 14-14 30-11 34-14 55-16 122-1 40 0 51 4 66 7 26 20 67 29 91 11 29 12 33 7 37-2 3-14 8-26 12-7 3-11 7-20 21-42 63-46 67-73 85-6 4-17 12-25 18-7 6-25 18-39 27-28 19-48 34-48 38s2 4 76 5h70c0 1 214 0 234-1z"/></svg>