<svg xmlns="http://www.w3.org/2000/svg" width="1344" height="566"><path d="M0 283V0h1344v566H0V283m592 278h50c36 1 96 0 118-1h53c28 1 68 1 172 1h52c1 1 19-1 24-2 2-1 5-2 7-3 2-2 5-3 7-3 3 0 5-1 7-4 2-1 4-4 4-4 0-4-5-22-7-27-3-7-7-22-7-30-1-4-2-17-2-28-1-18-1-23-4-32-2-9-2-12-2-22 1-10 1-13 3-16 1-3 17-14 34-24 4-3 8-7 12-12 17-21 22-36 19-54-3-12-6-17-14-21-3-1-8-4-12-6-7-5-21-11-24-11-3 1-6 5-10 12-3 7-3 8-3 14 1 7-1 8-5 6-6-3-22 12-34 30-4 7-10 15-12 19-8 10-10 14-13 25-2 12-4 15-8 15-9 0-68-31-78-41-3-3-3-8 1-11 3-3 4-3 15-5s14-4 17-13c1-4 3-8 5-10 6-7 17-20 21-22 4-3 6-7 6-12 0-14 8-19 39-25 10-2 18-3 24-3 5 0 13 0 18-1 8-1 11-2 20-6 7-3 13-7 15-8 9-7 19-11 35-13 8-2 16-3 17-4 3-2 5-7 5-12 0-4-5-7-27-18-17-9-26-14-32-19-15-11-42-27-72-43-9-5-19-10-24-12-4-3-9-6-11-7s-6-4-9-6c-4-2-10-6-14-9-11-8-23-15-63-35-12-6-25-12-29-14-20-6-47-10-64-9-18 2-25 3-39 11-6 2-10 4-21 6-15 2-22 5-34 13-10 6-16 13-23 25-14 22-21 33-31 47-12 16-15 19-21 23-4 2-5 3-22 3-19 0-21 0-21 7 0 4 1 6 9 15 8 11 11 12 34 13 11 1 11 1 14 4s3 4 3 9c0 4-1 9-2 11-1 5-1 5 1 7 1 1 5 3 8 4 9 3 12 6 13 12 1 2 3 9 6 14 3 6 6 13 7 16s2 8 2 11c1 4 2 10 3 14 0 5 1 10 1 11 2 4 4 18 4 24 0 7-2 11-6 14-5 3-28 14-41 18-15 5-25 9-44 18-17 8-24 11-34 12l-12 4c-5 1-6 2-8 7-2 3-6 9-9 13-24 33-31 45-33 56 0 4-2 10-4 14l-7 14c-1 4-6 13-10 21-15 31-17 41-9 44 1 1 7 1 12 2 11 1 78 0 94-1z"/></svg>