<svg xmlns="http://www.w3.org/2000/svg" width="1344" height="566"><path d="M0 283V0h1344v566H0V283m741 278c124 0 133 0 139-4 7-3 9-20 6-49-3-24-4-31-8-38-7-12-25-29-48-43-4-3-9-7-11-8-2-2-6-4-9-6-12-7-26-17-32-23-5-4-7-8-12-17-3-6-7-15-10-19-3-6-3-7-3-14 0-6 0-9 3-16 3-9 12-25 19-37 17-26 19-32 23-47 1-6 4-18 6-26 5-24 8-62 4-81-5-32-21-57-52-81-12-10-27-15-48-17-6-1-15-2-19-3-14-2-39-1-53 4-22 8-50 32-60 53-8 16-11 29-14 52-3 32-3 36-9 46l-5 9v14c0 12 0 14 2 22 5 14 14 28 25 36 3 3 4 4 6 12 1 6 2 12 2 18 0 9 0 10-3 15-5 6-26 27-36 34s-19 11-40 18c-15 4-20 6-43 13-17 4-39 12-46 15-4 3-8 5-11 9-8 10-22 40-45 98-4 9-10 22-12 28-7 15-10 23-10 25s1 4 3 5c2 2 3 2 59 2 32 0 67 1 79 1 13 0 49 1 81 0h182z"/></svg>