<svg xmlns="http://www.w3.org/2000/svg" width="1344" height="566"><path d="M0 283V0h1344v566H0V283m614 277c95 0 117 0 144-1 14-1 63-1 110-1 48 0 89-1 96-1 8-1 26-1 40-1 39 1 75 1 95 0 10 0 33 0 53 1 19 1 36 1 37 1 6-2 5-10-3-25-7-14-19-30-37-48-7-7-19-15-29-21-13-6-61-22-96-32-14-3-32-9-42-13-17-6-20-7-25-11-8-4-9-6-9-15 0-15 7-53 12-63 3-8 4-9 16-14 7-3 12-7 16-11 11-10 22-27 28-46 3-8 3-11 3-19 0-13-1-18-10-25-10-9-10-9-5-39 4-32 5-44 5-68 0-18 0-23-2-34-4-20-6-24-12-39-4-7-7-15-8-16-3-8-9-11-27-13-17-2-232-2-242 0-13 3-16 5-27 30-15 33-24 75-24 113 0 20-2 37-6 45-2 5-2 6-2 20 0 20 5 45 15 69 2 6 7 20 10 29 3 10 7 25 10 33 5 18 6 23 4 26s-8 6-26 13c-6 2-14 5-16 7-6 3-13 11-23 26-25 38-40 54-67 73-7 5-18 12-24 16-6 5-15 11-21 15s-15 10-20 15c-6 4-13 10-16 12-8 6-9 7-7 10 2 1 5 2 30 2h102z"/></svg>