<svg xmlns="http://www.w3.org/2000/svg" width="1344" height="566"><path d="M0 283V0h1344v566H0V283m834 279c12-1 75-1 139-1 119-1 148-2 152-4 4-3 4-5 2-11-4-9-10-16-20-25-5-4-13-11-17-15-15-17-41-39-55-47-10-5-39-25-43-29-6-6-17-19-20-24-1-2-5-9-9-16-4-8-9-16-11-20-3-4-8-13-13-20-8-14-16-25-24-36-5-8-9-16-11-22-1-4 0-10 4-17 7-10 21-48 24-65 4-21 4-43 0-65-7-42-44-92-79-108-10-5-26-10-37-13-17-5-34-4-62 4-43 11-73 20-86 26-9 5-26 17-33 24s-16 20-20 28c-5 11-7 21-8 40-2 29 0 53 6 89 4 21 6 28 11 42 2 5 4 11 4 12 0 2 10 31 14 41 6 12 10 26 15 41 2 7 4 16 6 19 3 6 9 12 17 16 6 2 8 2 25 3 18 0 21 1 19 4-1 3-10 8-22 14-36 17-63 35-77 50-7 7-10 12-12 21s-2 16-1 27c0 3 1 10 2 15 1 9 3 13 8 15 7 4 38 6 88 6 17 0 41 1 54 1 35 1 45 1 70 0z"/></svg>