<svg xmlns="http://www.w3.org/2000/svg" width="1344" height="566"><path d="M0 283V0h1344v566H0V283m880 275c3 0 14-2 26-4 10-1 23-3 28-3 5-1 16-1 28-1 19 1 21 1 41-4 5-1 9-3 10-3 1-1 3-26 2-34 0-4-1-10-2-14-2-11-4-25-4-37-1-8-2-18-3-23-1-6-1-13-1-21 1-13 0-14-7-23-6-7-13-11-23-13-4 0-7-1-8-2-1 0-5-2-9-3-3-1-10-3-14-5-17-6-19-7-17-11s2-8 0-10c-4-4-9-7-11-7-4 0-7-7-4-11l2-2 11 1c15 1 15 1 15-12 0-20 0-21-13-54-1-2-3-7-3-9-1-2-3-8-5-12-5-11-7-17-8-23-2-5-9-24-12-33-2-4-4-8-5-11-4-13-18-48-24-58-13-27-25-43-41-55-11-9-35-22-47-26-20-7-32-8-50-2-6 1-16 4-22 5-25 5-44 12-55 21-11 10-20 26-27 47-6 17-14 58-16 73 0 4-1 11-2 15-3 18-4 36-5 93 0 36 0 56-1 57-2 4-5 4-19 2-9-1-13-1-17 0-7 1-19 8-28 14-4 3-9 7-11 8s-4 3-5 4c-4 4-18 8-23 6-3-2-6-1-18 8-9 6-14 9-21 12-19 7-25 10-32 21-3 4-5 6-10 8-6 3-7 4-22 4-16 1-21 2-23 5-1 2-1 2 2 7 3 4 4 9 2 15-1 1-2 8-3 14-2 7-3 12-4 13 0 1-1 5-1 8-1 4-1 9-2 10 0 3 0 4 3 6l2 2-3 7c-4 9-5 13-3 15h6c3 1 7 1 8 2 12 4 22 5 31 2 8-2 21-2 28 0 9 3 34 2 42-3 3-1 8-2 10-3 3 0 7-1 8-2 5-2 23-1 37 3 25 8 30 9 51 8h48c37-1 67 0 85 3 16 3 22 5 31 10 7 3 8 4 49 6 21 1 71 1 78-1z"/></svg>