<svg xmlns="http://www.w3.org/2000/svg" width="1344" height="566"><path d="M0 283V0h1344v566H0V283m766 251c5-1 13-3 17-5 4-1 8-2 10-2 3 0 18-3 25-5 3-1 7-2 8-2 2 0 9-2 16-4s16-5 20-6c5-1 11-3 15-4s12-3 18-4c14-3 27-2 43 0 12 3 11 3 12-14 0-14-1-28-4-39-1-6-4-31-6-53 0-5-1-9-1-10-2-4-9-7-37-13-9-3-19-6-21-7-6-2-7-7-8-21 0-6 0-12-1-13s-3-3-5-4c-7-3-7-9 0-12 2-1 4-2 5-3 0-1-1-6-8-23-3-8-7-17-8-20-1-2-3-6-4-9-1-2-2-5-2-5 0-1-2-5-4-10-6-15-12-30-15-39-2-5-6-16-10-25-3-8-7-19-9-24-2-8-11-25-16-33-9-13-33-32-50-41-32-15-46-16-78-8-4 2-15 4-22 6-19 5-24 7-33 13s-14 11-19 20c-4 6-12 24-14 33-1 4-3 10-4 14-2 6-2 10-3 59 0 44 0 57 1 72 2 19 2 21-2 26-3 3-13 10-23 15-11 6-20 12-25 16-4 5-11 18-12 24-2 7-9 11-18 11-6 1-8 1-15 5-5 3-15 7-23 10s-16 6-18 7-6 6-9 10c-5 7-6 8-13 11-6 3-9 3-16 4-5 0-10 1-11 1-1 1-3 3-4 5-4 8-15 36-17 42 0 2-3 8-5 14-3 6-5 11-5 12 0 0 1 2 3 3l3 3 20-1c18 0 21 0 23-2 5-3 13-7 16-7 1 0 4-1 5-2 3-1 10-1 15 0 3 1 17-1 23-3 3-1 4-1 8 0 4 2 18 2 27 0 4-1 6-1 19 1 8 2 16 4 18 4 1 1 5 2 9 3s9 3 12 4c6 1 13 2 45 1 30 0 88 4 101 8 8 2 19 7 24 12 3 2 6 4 8 5 1 0 4 1 5 1 5 1 13 0 24-2z"/></svg>