<svg xmlns="http://www.w3.org/2000/svg" width="1344" height="566"><path d="M0 283V0h1344v566H0V283m1337 278c2-1 4-3 4-4 2-3 3-354 1-360-2-8-5-10-22-14-22-5-31-6-48-3-7 1-14 2-17 2s-5 1-9 4c-3 2-7 4-9 4-7 2-17 16-19 27-1 7-11 30-14 33-3 4-12 19-13 23-1 3-1 5 1 9 0 4 1 14 2 26v18l-2 3c-3 2-10 5-17 6-6 0-10 3-15 10-3 4-6 6-11 9-8 4-12 7-17 17-6 10-7 11-11 11s-5 0-7 8c-2 9-1 16 2 28 2 5 4 11 4 13 0 5-3 12-7 13-4 3-8 7-10 15-2 7-2 8-1 18 1 12 5 28 8 33s7 9 12 12c7 4 23 10 30 11 23 5 22 4 18 14-2 5-3 9-3 11 1 4 4 5 52 5h43c0 1 16 1 36 0 35 0 36 0 39-2z"/></svg>