<svg xmlns="http://www.w3.org/2000/svg" width="1344" height="566"><path d="M0 283V0h1344v566H0V283m530 278c11-1 24-2 31-4 6-1 16-2 21-3 6-1 12-2 14-2 8-2 15-2 22 2 6 4 7 4 23 5 14 1 96 2 143 1h70c69 1 93 0 102-5 3-1 5-7 8-16 6-22 18-43 30-56 7-7 17-11 33-14 5 0 11-2 13-2 5-2 9-6 14-14 8-13 10-14 15-21 11-11 29-24 52-37 14-7 29-18 32-23s4-9 4-20c0-12-2-24-7-38-2-7-4-13-4-13 0-1-2-5-5-9-8-12-20-22-33-27-17-7-27-11-38-14-16-5-31-11-35-14-5-4-7-8-10-20-1-6-2-12-3-13 0-1-4-5-9-8-4-4-9-8-11-10-3-2-9-7-15-11-5-4-12-10-15-13-8-8-19-26-32-54-16-32-29-52-47-68-12-12-21-17-41-24-19-7-35-7-53-1-13 5-18 7-26 8-11 3-22 9-33 19-12 12-16 18-21 30-6 15-19 57-22 71-2 9-1 21 3 38 2 8 4 18 5 23 1 9 6 23 9 26 2 3 7 5 14 7 7 3 12 8 15 15 4 12 1 22-10 32-8 7-16 11-35 17-7 2-15 5-18 7-8 4-24 8-30 8-2 0-6 1-9 2-3 2-8 3-11 4s-7 4-9 6c-3 2-7 5-11 7-6 2-9 3-17 4-11 1-15 2-16 7-1 7-11 23-22 36-7 8-12 18-14 24-1 5-5 16-13 32-14 27-22 39-34 52-5 4-14 15-20 24-6 8-14 18-16 22-3 3-8 10-10 13-9 14-9 14 33 14 17-1 40-1 49-2z"/></svg>