<svg xmlns="http://www.w3.org/2000/svg" width="1344" height="566"><path d="M0 283V0h1344v566H0V283m359 278c12-1 37-1 54-1h287c61 0 304 1 358 0h62c48 1 85-1 107-4 14-2 18-3 18-7 0-2-7-9-15-15-11-9-16-14-21-24-5-8-11-26-15-42-1-5-3-12-4-17s-3-11-5-14c-3-6-8-8-24-12-15-3-14-2-19-7-4-5-12-22-14-29-1-2-2-6-3-8-4-7-19-44-19-48 0-1-4-12-8-25-9-28-13-40-16-57-11-49-18-71-26-77-5-4-13-3-16 2-1 1-1 7-1 14 0 8 0 13-1 14-2 1-4-2-5-5-2-11-6-25-9-30-2-3-5-9-7-13s-5-9-7-11c-6-9-14-9-23 0l-4 3-5-4c-5-6-8-7-12-7-5 0-9 5-13 14-2 6-4 10-7 13-4 3-6 7-8 12-3 7-3 10-4 25-1 21-1 34 2 53 2 8 3 20 4 28 1 15 3 23 9 33 9 15 35 52 50 71 4 5 12 16 18 23s12 15 13 17c2 3 4 7 6 10 7 11 15 26 19 38 3 7 7 16 9 22 5 12 5 17-1 17-3 0-8-3-25-15-4-3-11-7-16-10-15-8-22-13-29-19s-10-10-15-24c-5-13-11-24-15-29-4-4-22-21-34-30-8-6-20-14-25-16-7-3-28-4-56-2-11 1-27 1-37 2-18 0-21 0-25-5-6-8 3-56 13-65 4-3 6-8 8-20 3-13 4-15 8-17 3-2 3-5 1-15-1-5-2-12-3-16s-3-10-7-16c-2-6-6-15-8-20-2-6-8-18-12-27-5-10-9-20-10-23-5-13-15-32-23-45-23-37-33-49-47-60-15-13-22-16-43-24-23-9-38-11-65-9-35 2-48 4-66 8-20 3-42 16-61 34-12 12-17 20-27 40-15 28-18 41-18 62v12l5 9c6 13 7 16 5 37-1 8-2 20-3 25 0 9 0 10 3 19 8 20 8 20 9 38 0 33 4 43 30 71 6 7 12 14 13 17 2 4 2 5 2 13-1 10-4 19-8 29-3 6-16 19-24 24-4 3-21 10-24 10s-5-6-6-22c-1-9-2-18-3-21-2-7-13-31-17-36-3-4-8-6-13-5-4 1-7 4-10 10-2 4-3 5-3 36 0 32 0 32-2 32-7 0-20-53-25-104-1-12-5-38-7-45-5-14-17-17-22-5-3 5-4 13-5 37-1 18-2 29-4 30-2 2-4-2-8-15-3-8-5-16-6-18-4-20-10-36-13-40-7-11-19-13-25-4-2 3-2 17 1 38 2 20 2 30 0 31 0 0-1-1-2-3-1-1-2-4-3-6s-2-5-2-5c0-3-5-14-8-18-4-6-15-7-20-1-5 5-5 9-3 26 5 23 8 40 11 48 4 14 7 31 7 32-1 1-1 2-2 2s-7-7-16-20c-13-17-19-22-27-22-3 0-5 1-7 3-3 3-3 3-3 10 2 18 13 41 49 93 3 4 10 15 17 25 16 24 20 29 25 34 12 10 19 11 77 8z"/></svg>