<svg xmlns="http://www.w3.org/2000/svg" width="1344" height="566"><path d="M0 283V0h1344v566H0V283m816 277c14-1 54-2 136-2 115 0 117 0 119-2 4-3 6-9 8-28 8-57 11-113 7-129-8-29-36-79-57-103-4-4-13-14-22-21-17-16-20-21-22-31-1-9-4-11-13-13-4 0-9-2-10-3-3-2-9-14-12-22-2-6-1-19 2-28 0-3 3-13 5-22 3-10 6-22 7-27 9-28 10-38 6-54-3-12-12-32-17-38-3-3-7-6-16-11-14-7-17-7-33-9-13-2-15-2-30 2-11 2-35 10-43 14-10 4-20 14-25 23-3 7-3 8-3 15 1 7-1 23-4 29-2 5-3 12-4 24-1 11-2 15-6 27-3 9-5 17-5 19 0 3 1 6 4 11 2 3 5 11 6 18 5 15 12 30 16 35 5 4 12 8 19 9 8 1 12 3 19 10 3 4 6 8 7 10 1 3 1 6-2 7-1 1-3 3-5 6s-9 11-15 17c-14 16-18 24-19 38-1 6-2 10-3 13-5 12-16 38-24 59-5 14-15 55-17 73-3 19-4 28-4 47 1 19 1 20 4 26 3 7 7 11 12 12 3 1 3 1 34-1m-311 0c0-1 2-2 3-4 2-3 2-5 2-14 0-12-2-27-4-35-1-2-3-11-5-19-4-21-6-26-10-35-7-13-21-27-40-39-9-5-14-10-15-15 0-4 0-6 2-9 1-2 4-8 7-15 7-13 12-18 27-25 6-3 12-6 13-8l3-2v-64l-6-10c-6-11-9-19-10-26s-8-25-11-32c-8-14-17-19-42-24-28-5-48-3-67 7-14 8-28 22-34 35-5 10-6 21-7 57-1 18-2 42-2 55-2 28-3 85-2 90s0 8-7 19c-6 9-12 28-12 37 0 7-2 14-5 25-6 16-8 24-8 31 1 7 4 17 7 18 1 0 20 1 42 1s43 1 48 1c9 1 131 0 133 0z"/></svg>