<svg xmlns="http://www.w3.org/2000/svg" width="1344" height="566"><path d="M0 283V0h1344v566H0V283m518 277c14-2 40-3 108-3 29-1 58-1 63-2 6 0 12 0 16 1 12 2 60 4 82 3 21-1 92-1 197-1 32 0 59-1 60-1 0-1 1-2 1-3 0-2-10-9-24-18-40-27-36-24-55-33-5-3-11-6-14-8-5-4-23-26-25-31-2-4-2-5 0-12 2-4 4-11 6-15s6-13 9-20c6-15 26-53 33-63 15-23 14-23 28-30 11-5 18-11 26-21 7-9 16-27 19-37 2-8 3-23 1-26-1-2-4-5-7-8-5-5-5-6-6-11 0-4 1-11 3-21 12-60 17-91 14-106-3-17-13-39-23-53-8-10-26-26-32-29-16-7-20-7-84-8-67-1-108 0-118 3-13 4-22 14-34 39-14 27-22 57-26 96-3 29-5 33-14 34-18 4-25 23-20 53 3 23 11 38 26 50 6 4 7 6 8 9 3 10-4 61-10 79-5 15-14 29-20 33-4 1-16 1-33-1-16-1-21-1-26 3-2 1-12 10-21 20-20 21-30 28-44 35-12 5-37 18-43 22-2 1-14 8-25 14-12 5-26 13-32 16-5 3-15 9-22 13-18 10-37 26-40 32-2 5 0 6 12 7 15 1 74 0 86-1z"/></svg>