<svg xmlns="http://www.w3.org/2000/svg" width="1344" height="566"><path d="M0 283V0h1344v566H0V283m306 276h34c2 0 4 0 7 1s5 1 7 0c3-2 6-2 16-1 7 1 30 1 51 1h91c32 0 57 0 63-1 8-1 18-1 37 0 39 2 163 2 167 0 5-1 6-3 6-8 0-4-6-31-9-36 0-2-1-7-1-12 0-14-1-19-5-22-5-5-46-26-68-35-4-2-14-6-22-10s-15-7-16-7c-2 0-32-16-34-18-4-4-4-7 0-15 2-4 4-7 4-8 0 0 3-6 6-13 12-27 20-50 25-67 7-29 7-53 0-108-1-7-2-14-3-17-2-18-11-59-16-74-8-22-23-48-34-61-6-7-38-30-52-37-11-6-17-6-50-6s-38 0-52 7c-3 2-7 4-8 4-5 0-18 4-26 9-16 8-29 22-39 44-14 29-25 68-37 138-3 21-9 52-12 68-3 17-5 35-6 41-1 11-1 34 1 76 0 13 0 16-1 19-3 4-7 7-13 7-4 1-12 4-21 8-5 2-39 22-45 26-2 1-9 5-17 9-15 7-26 14-30 17-1 1-3 5-4 8-4 9-15 30-21 40-13 21-15 31-7 34 3 1 42 1 134-1z"/></svg>