<svg xmlns="http://www.w3.org/2000/svg" width="1344" height="566"><path d="M0 283V0h1344v566H0V283m280 275c14-1 15-2 19-13l3-7 1-36c0-20 1-38 1-40 1-5 5-7 16-6 10 1 34-2 61-7 8-2 20-4 27-4 23-4 35-7 53-16 15-7 17-8 17-12 0-2-2-4-8-5s-7-3-5-8c1-3 1-3-1-5s-10-1-18 2c-3 1-8 2-10 2-5 0-6 0-9-3-3-4-3-4-3-10 0-8-2-12-5-14s-6 2-9 10c-1 3-3 7-3 8-6 10-10 15-11 16-7 5-49 7-60 4-9-3-21-8-25-11-3-3-3-4-4-13-3-24-3-29-5-39-4-18-1-44 5-60 2-5 2-7 2-16-1-6-1-11 0-12 1-2 6-4 11-4 13 0 22-12 27-36 2-10 2-11 1-17-2-13-4-32-3-40 0-8 0-9-9-19-8-9-14-12-30-16-13-3-18-4-28-2-21 5-34 19-36 40-1 5-1 13-1 17 0 6-1 9-3 15-4 9-9 15-20 22-30 21-44 33-62 54-13 15-18 22-23 32-1 4-4 11-6 16s-5 11-5 13c-1 3-2 7-3 8 0 1-1 5-2 8 0 2-2 9-3 14-4 12-5 17-5 30-1 11-1 14 1 20 2 7 2 10 1 21 0 16-2 28-4 31-1 2-3 5-5 8-4 4-4 4-4 10 0 9 2 19 6 24 12 18 30 38 37 41 2 1 8 2 13 2 6 0 16 1 24 2 7 1 17 2 22 2 11 1 64 0 80-1z"/></svg>