<svg xmlns="http://www.w3.org/2000/svg" width="1344" height="566"><path d="M0 283V0h1344v566H0V283m889 274c6-5 11-24 10-43 0-6 0-13 1-19 2-11 2-18-1-31-1-5-2-13-3-16 0-4-1-11-3-16-3-12-5-21-5-26 0-9-7-40-10-46 0-1-2-6-2-11-1-5-3-11-4-14-3-6-7-22-9-33s-14-38-21-49c-12-17-24-28-32-31-12-3-18-8-22-17-2-6-3-19-1-27 3-11 5-29 4-38-2-26-20-47-45-52-9-2-23-1-30 2-20 7-24 8-26 10-3 1-16 14-24 24-10 12-14 24-14 39 1 9 1 10 6 16 3 3 6 16 7 26v9l-5 6c-6 8-10 16-13 26-2 8-10 25-14 32-2 3-5 9-7 14-5 13-10 21-15 27-3 2-6 6-7 8-12 15-17 21-20 24-9 7-20 17-31 28-15 14-23 19-29 19-2 0-7-2-14-5-11-6-20-7-47-9-25-1-33 1-33 9 0 3 6 13 9 17 3 2 3 3 2 5-1 3-11 7-16 8-3 0-6 1-6 2-2 2-1 12 1 17 1 3 11 13 12 13 0 0 4 1 9 1 14 3 24 2 45-2 5-1 12-2 16-3 4 0 11-2 18-3 16-3 25-4 31-1 9 3 12 6 21 27 3 6 8 11 14 14l4 2 6-3c6-3 7-3 14-3 5 0 10 0 14 2 6 2 8 2 11 1 7-2 14-1 15 2 1 1 0 6-1 11-2 7-3 10-2 17l1 9 7 8c4 4 9 9 11 12 2 2 5 5 7 6 8 4 30 5 98 5 33 0 60 1 61 1 0 1 12 1 27 1 26 0 27 0 30-2z"/></svg>