<svg xmlns="http://www.w3.org/2000/svg" width="1344" height="566"><path d="M0 283V0h1344v566H0V283m997 161c2-1 3-4 3-8 0-6 1-8 4-11 11-15 10-15 11-23 0-5 0-10 1-12 4-12 12-32 15-36 6-8 6-10 7-22 0-10 0-12-2-18-1-3-3-8-3-10-1-3-5-7-10-14-12-12-13-15-14-30-1-7-2-15-2-19-1-4-2-11-3-17s-2-13-2-16c-1-3-2-8-3-12 0-7-4-18-9-27-4-8-12-17-20-22-2-1-6-3-8-5-4-3-6-3-16 0-4 1-10 3-14 4-11 3-15 5-19 11-3 3-7 9-9 14l-4 9-1 22c-1 16-1 24-2 26s-5 6-9 10c-5 5-8 8-12 15-3 6-5 12-6 16s-4 17-11 41c0 1-3 4-6 6-7 5-14 11-16 16-2 4-2 6-2 16 0 12 0 13 2 18 4 6 10 14 14 16 2 1 5 2 8 3 3 0 6 2 7 3 3 2 3 3 1 12-2 8 0 11 9 12 2 1 8 3 12 5 8 3 23 8 34 11 6 1 22 5 32 8 16 5 35 9 41 10l2-2z"/></svg>