<svg xmlns="http://www.w3.org/2000/svg" width="1344" height="566"><path d="M0 283V0h1344v566H0V283m1050 278c20-1 22-2 22-8 0-4-1-6-8-16-11-17-24-34-28-37-6-5-28-22-35-28-3-2-13-11-22-20-9-8-19-17-22-20-4-2-10-8-15-12-15-13-36-28-43-31-6-3-8-3-23-4-22-1-28-3-37-13-6-6-7-9-10-21-6-23-3-41 12-69 4-10 10-21 13-26 2-5 5-13 7-18 2-8 2-11 2-24 0-9 1-22 2-29 1-8 1-21 1-31 0-16 0-19-2-27-6-21-13-34-29-50-12-11-19-15-35-20-23-8-65-14-84-12-6 1-9 2-22 8-9 4-18 9-20 11-9 5-41 36-45 43-2 3-5 8-7 11-5 7-8 15-9 24-1 8-4 16-10 36-3 9-6 18-6 22-1 4-4 12-6 19-7 20-7 23-6 38 0 7 1 14 2 15 0 1 4 7 7 12s6 11 7 12c0 3 2 5 6 6 5 2 10 11 23 35 12 25 13 26 30 34 17 9 18 12 8 20-5 3-33 20-35 20-1 0-21 12-34 21-24 16-48 36-62 52-13 15-38 56-40 65-1 6 1 9 4 10s124 0 181-2c35-1 105-1 122 0 27 2 67 3 132 4 64 1 78 1 114 0z"/></svg>