<svg xmlns="http://www.w3.org/2000/svg" width="1344" height="566"><path d="M0 283V0h1344v566H0V283m527 277c37 0 67-1 68-1 1-1 11-1 22 0 12 1 50 1 88 1 61 0 68 0 71-1 1-1 3-3 3-4 1-2 1-8-1-15 0-4-2-10-3-14 0-4-2-11-4-15-3-6-3-9-4-19-1-14-3-18-10-23-6-4-51-26-91-43-35-16-38-18-37-24 2-8 7-22 14-38 11-27 19-51 22-71 1-10 1-14 0-33 0-11-2-27-3-35s-3-21-3-28c-7-50-18-91-31-115-10-19-20-31-32-40-21-16-41-27-56-32-11-4-28-6-45-4-14 1-20 2-41 10-4 2-13 5-20 6-15 4-23 8-34 19-20 20-33 49-49 106-12 41-14 49-32 136-6 34-9 54-10 90-1 22-1 25-3 28-2 4-14 12-38 25-8 4-16 9-18 10-2 2-11 6-19 10s-17 9-21 11c-6 4-7 5-14 21-5 8-12 21-16 28-11 15-21 36-22 43-1 12 0 12 63 12 28 0 66-1 86-1 20-1 37-1 40-1h10c4 0 9 0 13-1 4 0 10 0 16 1s12 2 13 2c4 1 53 0 128-1z"/></svg>