<svg xmlns="http://www.w3.org/2000/svg" width="1344" height="566"><path d="M0 283V0h1344v566H0V283m359 279c11-1 16-1 17-2 6-4 11-17 14-32 3-14 8-29 13-41s5-12 12-17c24-18 33-26 36-34 2-4 5-8 7-9 4-4 4-7 1-9s-21-8-25-9c-8-2-19-6-22-8-1 0-4-4-7-7-3-4-5-6-8-7-7-2-9-7-6-14 2-4 2-6 3-31 0-14 1-28 1-30 1-2 2-5 4-7 4-5 16-13 24-16 6-2 7-2 37-2 17 0 34 0 39 1 7 0 8 0 10-2s4-6 6-11c4-10 6-14 12-25 5-8 9-20 11-32 0-4 1-10 2-13 3-16-5-30-25-43-9-7-16-9-26-9-9 0-10 0-16 3-4 1-9 5-12 8-11 9-16 18-23 42-5 15-11 25-17 31-5 5-18 14-24 17-4 3-17 6-29 9-24 5-40 12-52 22-5 5-36 41-42 50-5 8-11 15-19 23-15 17-19 27-20 48-1 22 2 28 17 36 12 7 13 9 9 25-1 5-4 20-6 33-2 14-5 30-6 34-3 13-3 17 1 21 4 5 8 6 20 7 13 1 71 1 89 0z"/></svg>