<svg xmlns="http://www.w3.org/2000/svg" width="1344" height="566"><path d="M0 283V0h1344v566H0V283m712 278c8-1 9-2 11-5 1-3 3-17 3-31 0-7-4-24-6-28-5-7-7-11-11-21-2-7-5-13-6-16-1-2-2-4-2-5s-2-6-5-12l-5-10v-9l1-8-3-3c-2-3-7-5-13-8-28-12-48-20-64-26-24-8-44-17-46-19-3-4-4-7-4-15 0-11 2-21 11-47l7-22 1-15c0-12 0-18-2-31-8-62-20-106-38-140-11-23-43-52-69-62-15-7-23-8-38-8-16 1-22 2-40 11-6 3-16 7-20 9-16 4-26 11-35 26-16 23-25 52-33 104-1 5-3 16-4 23-9 56-13 124-11 159 2 25 2 25-17 32-12 5-13 5-28 15-24 16-29 19-41 25-7 4-14 8-16 9-4 4-7 10-7 17 0 4-3 15-11 36-3 7-5 16-9 37-1 5-1 15-1 21 0 11 0 12 2 14l2 2h121c12 0 160 1 161 1 0 1 259 0 265 0z"/></svg>