<svg xmlns="http://www.w3.org/2000/svg" width="1344" height="566"><path d="M0 283V0h1344v566H0V283m764 278c5-1 11-2 12-3 5-2 5-4 4-24-1-23-2-27-6-48-2-13-2-16-2-41 0-15 0-30 1-35 5-36 0-72-12-100-5-10-7-13-21-27-13-14-13-15-10-31 1-7 4-18 6-24 2-7 5-16 7-21 7-25 7-67-1-93-9-35-19-46-53-67-16-9-31-16-46-19-11-3-35-3-53-1-21 3-44 11-57 20-8 5-21 19-26 29-10 16-14 29-17 52-5 29-6 37-7 39-1 1-4 3-7 5-7 3-9 6-8 16v19c0 10 0 11-3 17-3 7-14 22-21 29-6 6-11 9-26 15l-18 9c-37 22-53 32-74 49-19 16-46 46-63 71-11 16-12 19-17 40-7 25-9 51-6 80 2 26 5 35 10 39 3 3 3 3 27 4 14 0 47 0 82-1 102-2 106-2 163 2 16 1 37 1 71 1 27 0 58 0 69 1 31 1 90 0 102-2z"/></svg>