<svg xmlns="http://www.w3.org/2000/svg" width="1344" height="566"><path d="M0 283V0h1344v566H0V283m497 277c3-3 4-13 3-22-1-5-3-11-4-14-8-24-14-41-18-49s-6-11-15-21c-12-11-27-23-36-29-7-5-10-8-10-12 0-1 2-4 5-7s6-7 7-9c1-6 8-19 12-24 5-6 11-10 21-14 12-5 19-13 18-19-1-1-1-13-1-26v-24l-4-6c-9-17-11-21-16-44-5-20-14-37-24-43-2-1-8-3-13-5-36-9-63-9-82 1-8 4-21 13-28 20-15 17-19 32-22 85-1 10-1 20-1 22-1 3-4 35-5 60-1 13-3 28-4 33s-1 13-1 23c0 17 0 17-9 42-3 7-3 11-4 20s-2 15-5 27c-5 17-6 24-4 29 3 7 1 6 48 7 23 0 76 1 116 1 69 0 74-1 76-2m370-2c35-1 61-1 124 0 77 1 102 1 106-1 5-2 8-15 10-41 5-50 6-78 4-94-3-23-23-64-49-100-12-17-19-25-27-32-28-24-31-28-32-36-2-8-4-14-6-15-1 0-5-1-9-2-14-2-17-5-22-19-4-11-5-22-1-32 1-3 2-8 3-10 2-12 8-35 11-41 1-4 4-13 6-21 3-13 3-14 3-26-1-18-4-27-11-43-7-13-10-17-22-23-10-5-21-8-36-11-9-1-12-1-21 0-20 2-45 10-59 17-5 3-15 11-22 18-6 6-6 8-7 24 0 13 0 14-3 24-3 8-4 15-5 22-2 15-4 24-8 36-2 6-4 13-5 16 0 4 0 6 4 15 3 5 6 14 8 19 3 10 9 26 12 32 2 3 6 8 9 10 2 0 7 2 11 3 15 4 25 11 30 22 3 5 2 8-5 15-12 11-32 31-33 34-3 4-7 17-7 21 0 7-3 16-11 34-10 22-21 53-26 75-10 43-11 47-13 58 0 5-2 14-3 20-4 22-4 24-4 26 2 5 3 6 11 7 10 1 46 0 95-1z"/></svg>