<svg xmlns="http://www.w3.org/2000/svg" width="1344" height="566"><path d="M0 283V0h1344v566H0V283m287 276c14 0 27-1 30-1 3-1 5-1 8 0 5 2 193 3 220 1 15-1 26-1 41 0 12 1 52 1 89 1h67l2-2c2-3 2-5 0-19-5-36-17-75-31-98l-5-7 1-10c0-9 0-10-2-12-1-2-5-4-7-5-3-1-11-4-18-7-8-3-19-7-26-10-25-8-36-12-45-17-4-2-6-6-6-10s2-13 7-31c2-7 5-18 7-25 2-12 2-14 2-44 0-31 0-41-3-72-4-34-11-69-17-86-4-9-13-25-23-35-15-18-39-34-57-39-19-5-38-6-51-3-3 1-12 3-18 4-7 0-16 2-20 3-12 4-26 13-35 23-6 7-18 25-22 34-10 22-24 88-31 147-1 10-3 23-3 29-2 14-4 29-5 53-1 13-1 21 0 31 1 7 1 14 1 15-2 7-12 14-28 19-22 7-28 10-41 19-14 11-31 21-42 27-9 5-19 12-21 16-1 1-1 5-2 9-1 5-3 12-7 22-8 18-12 33-15 53-2 16-2 22 1 25 2 2 2 3 32 3h39c5 0 20 0 34-1z"/></svg>