<svg xmlns="http://www.w3.org/2000/svg" width="1344" height="566"><path d="M0 283V0h1344v566H0V283m483 137c6-1 14-4 19-6 10-4 22-6 37-5 2 0 9 0 15-1 9-1 14-1 22 0 20 2 39 3 78 3 36 1 39 1 50 4 9 1 15 2 25 2 14 0 32-2 39-4 3-1 7-2 9-2s6-1 9-2 6-2 7-2 5-1 8-2 10-3 15-4c13-4 21-7 27-12 7-4 18-9 26-10 10-2 12-2 13-7 1-2 2-5 2-7 1-2 1-6 1-8-1-2-1-10-2-17-1-15-2-17-7-23-2-3-3-3-8-3-3 0-6-1-7-2-3-2-3-2-2-11 0-10-1-15-5-24-3-6-4-11-2-20 1-3 0-6 0-9-3-10-5-16-7-28-2-7-4-17-6-23-3-10-5-18-8-35-3-18-14-49-22-60-5-6-15-17-22-23-10-7-34-17-50-20-11-2-33 1-49 7-15 6-21 10-30 19-8 8-9 10-14 20-11 22-12 33-14 101-1 35-1 43-3 45-1 2-4 3-12 0-9-2-16 0-28 10-14 11-18 16-23 25-10 17-13 21-20 26-4 2-9 6-11 7-4 4-42 23-48 25-4 1-8 1-14 1-8-1-10-1-13 1-2 1-4 2-5 3-2 2-13 27-16 33-7 18-9 27-8 29 0 2 5 5 9 5 1 0 6 1 10 3 5 2 8 3 16 3 5 0 13-1 19-2z"/></svg>