<svg xmlns="http://www.w3.org/2000/svg" width="1344" height="566"><path d="M0 283V0h1344v566H0V283m644 276c8-1 49-1 91-1h209c108-1 96-1 124 0 13 1 40 1 61 1 41 0 41 0 41-7 0-10-23-55-45-87-13-18-40-44-58-54-11-7-26-13-41-19-18-6-36-14-52-21-13-7-21-10-30-12-14-4-24-10-44-24-7-5-17-12-24-16-9-5-11-6-12-10-7-12-6-30 1-46 2-5 4-9 12-17s11-12 14-19c8-17 10-27 6-43-2-9-2-9-1-22 6-39 6-47 4-66-3-15-4-19-17-41-10-16-24-28-37-30-3-1-10-4-16-7-20-11-19-10-51-10-26 0-28 0-37 2-20 5-33 11-43 19-7 5-20 20-25 28-4 6-4 8-6 20-1 7-3 17-5 23-7 31-7 34-8 56-2 35-1 58 1 69 6 31 21 76 34 103 2 4 4 9 4 10 0 6-13 20-25 27-5 3-13 6-18 8-9 3-39 15-69 28-18 7-45 21-53 26-20 14-37 33-54 60-9 15-13 22-17 34-3 12-6 28-5 32 2 6 2 6 52 5 24 0 59 0 77 1 19 0 36 1 40 1s13 0 22-1z"/></svg>