<svg xmlns="http://www.w3.org/2000/svg" width="1344" height="566"><path d="M0 283V0h1344v566H0V283m488 129c7-2 16-6 22-9 12-6 24-11 26-11 1 0 4 2 7 4 5 5 7 6 10 4 2-1 16 0 28 3 21 4 27 5 89 7 15 1 29 1 33 2 14 2 22 2 31 1 5-1 11-2 15-2 4-1 9-2 11-2 3-1 9-2 13-2 4-1 9-2 11-3 2 0 12-3 22-5 10-3 22-6 26-7 8-2 22-5 34-6 4 0 8-1 9-1 4-2 4-7 3-26-1-23-2-27-7-38-2-5-4-13-5-17s-2-7-3-9c-2-1-3-4-3-5-1-2-2-4-4-5-6-4-11-10-12-14-1-2-1-5-2-6 0-1 1-3 3-5 1-1 3-4 4-5 2-3 3 0-8-39-6-22-9-33-11-46-7-32-23-62-41-75-11-9-29-18-41-22-13-3-37-1-62 7-20 7-34 21-41 42-6 17-7 22-8 49-1 14-2 25-3 26 0 1-1 10-1 20-1 29-2 31-12 31s-21 4-27 10c-2 2-6 4-9 6-8 6-14 13-20 27-3 7-7 13-8 15-4 6-22 20-30 24-21 11-34 15-49 15-6 1-9 1-11 3s-9 16-15 30c-1 2-4 10-7 17-3 6-5 13-5 14 0 4 5 6 23 6 13 0 15 0 25-3z"/></svg>