<svg xmlns="http://www.w3.org/2000/svg" width="1344" height="566"><path d="M0 283V0h1344v566H0V283m976 277c8-1 21-3 24-5 4-1 6-12 6-26 0-9 0-11-3-18-2-4-5-10-7-13s-4-7-5-9c-3-6-7-8-17-8-8 0-15 1-30 5-11 3-31 8-39 9-6 0-12 4-21 10-23 18-31 21-57 23-11 0-13 0-14-1-1-2-7-16-7-17s-2-7-5-13c-5-12-9-26-31-93-18-54-20-59-35-71-6-5-10-12-10-19 0-5 6-14 14-21 3-2 8-7 10-9 3-3 9-7 12-10 9-7 10-8 11-25 2-23 6-38 18-56 7-10 17-28 17-29 0 0 4-8 9-17 8-18 9-22 7-26-1-2-6-7-11-12-11-13-17-20-23-31-4-9-8-13-24-27-23-19-53-34-78-38-15-3-40-2-55 3-18 7-29 14-46 31-23 24-25 27-34 52-7 18-14 30-22 36-5 3-15 7-26 11-19 6-25 9-42 25-16 16-16 17-17 41 0 10 0 23-1 28 0 4-1 12-1 16 0 7 0 7 3 11 2 1 6 4 9 5 4 2 5 2 18 2h14l4 3c3 4 3 4 3 8-1 5-11 25-19 39-3 5-7 13-9 18-2 6-6 14-8 18-10 24-13 30-17 42-3 7-6 15-7 18 0 4-3 11-5 17-5 12-7 21-9 33-1 7-2 12-6 34-3 19-5 45-3 49 0 3 4 5 10 6h187c113 0 213 1 262 1 80 2 91 2 106 0m-634-7c55 0 56 0 57-2 2-2 2-2 0-7-4-9-20-22-49-39-3-2-10-7-15-10s-14-8-20-11-15-7-18-10c-8-6-38-37-40-41-1-4-1-15 1-18 1-1 3-9 5-17 2-9 5-18 6-21 1-6 2-29 0-38-2-10-6-19-14-26l-7-7v-7c1-3 1-11 2-16 2-14 0-32-4-39-5-6-14-2-23 13-8 11-9 15-9 30 0 9-1 10-2 12-3 2-10 4-22 5-4 0-9 1-11 2-6 3-15 13-20 24-6 12-8 19-9 34-1 12-5 36-8 47-1 6-2 9-6 13-7 9-10 11-19 11-6 0-7 0-10 3-2 1-5 3-7 4-5 3-5 5-3 12 1 3 2 7 2 9 0 3 1 8 2 13 1 8 2 10 6 15 3 3 6 8 9 11 14 20 18 25 30 34 15 11 16 11 36 13 10 0 22 1 26 2 15 2 35 3 57 2h77z"/></svg>