<svg xmlns="http://www.w3.org/2000/svg" width="1344" height="566"><path d="M0 283V0h1344v566H0V283m827 274c1 0 2-2 3-4 1-5 0-35-1-46-1-5-3-13-4-19-1-9-4-21-8-38-7-29-5-64 5-103 7-27 6-41-5-65-4-8-5-11-6-19 0-5-1-11-1-12-1-1-1-12-1-23-1-24-2-39-5-43-3-6-1-13 5-16 5-3 7-7 8-19 0-10-1-15-7-34-8-24-13-33-19-36-3-2-6-3-16-3-12 0-13 0-17 2-5 3-10 10-15 20-2 4-5 9-7 12l-3 5v11c1 12 1 14 9 18 8 3 11 8 11 16 0 4 0 6-5 13-3 5-7 14-10 19-7 15-8 16-16 9-11-9-19-11-27-9-3 1-7 2-9 2-4 0-5 0-6 3-2 3-1 5 5 8 2 1 6 4 8 7 3 4 5 5 10 7 4 1 7 3 8 5 2 3 9 17 14 27 4 9 11 19 18 26 5 6 7 9 8 17 1 4-1 7-8 8-2 0-5 1-6 2-3 3-2 7 1 9 3 1 11 2 15 1 3-1 3-1 5 3 1 2 3 7 4 11 5 14 8 20 15 25 11 8 20 17 22 22 2 6 0 13-9 32-12 28-14 31-13 38 0 6 1 11 5 24 3 10 7 20 8 24 4 8 8 27 9 42s2 20 5 22c2 1 19 1 23-1z"/></svg>