<svg xmlns="http://www.w3.org/2000/svg" width="1344" height="566"><path d="M0 283V0h1344v566H0V283m299 279c54-1 62-1 68-3 6-1 8-1 10 0 3 1 14 2 62 2h101c39 0 104 1 278 0 60 0 65 0 69-2 4-1 4-1 9 1 3 1 9 1 21 2 40 1 47-4 55-38 2-5 4-12 5-15s2-7 2-7c0-1 3-10 6-20 6-17 10-27 14-32 3-3 5-12 6-26 1-13 1-15 7-23 3-6 7-7 16-7s18 2 33 8c13 5 16 5 28-1 8-4 11-5 17-6 3 0 19-1 35-2s30-2 31-3c5-1 27-3 43-5 10 0 20-1 23-2 12-2 29-1 39 1 12 4 14 4 20 1 4-2 6-2 17-3 7 0 12 0 14-1 3-2 6-8 7-17 1-5 2-11 2-14 0-2 1-8 1-12 0-8-2-11-8-14s-7-6-6-12c1-4 0-7-3-8-5-2-18 0-32 6-32 12-65 17-105 16-12-1-33-1-48-2-27 0-37-1-44-4-1 0-9-2-17-4s-16-5-19-6c-11-4-40-19-48-25-9-7-24-20-31-29-3-3-8-8-12-11-13-9-17-14-17-19 0-6 4-10 18-22 11-9 25-22 30-28 8-11 14-25 21-53 3-16 4-20 1-31-3-13-10-23-24-34-9-6-13-8-22-11-16-5-40 1-58 14-11 9-16 17-22 37-8 22-19 39-35 55-11 10-13 11-23 11-11 0-20 2-23 4-1 1-4 4-5 7-2 3-7 10-12 16-20 22-24 28-36 51-4 9-8 17-9 17-2 2-4-5-7-24-6-31-21-77-33-97-16-27-45-45-87-54-7-2-13-2-24-2-19 0-24 1-60 18-17 8-29 20-37 37-3 6-7 16-9 21-4 12-5 27-3 50 1 9 2 32 3 50 1 40 2 45 7 74 5 21 7 32 15 55 5 18 4 21-10 23-6 1-11 2-19 6-14 6-19 8-33 13-13 3-35 11-40 13-7 4-11 13-15 30-1 4-3 12-5 16l-4 16c-3 10-5 13-7 10-3-3-11-25-12-32-1-3-1-14-1-24 0-11-1-23-2-34-3-25-6-46-7-52-1-3-1-7-1-10 0-4-2-20-7-48-2-7-4-18-4-24-1-6-4-16-6-23-7-24-7-25 3-35 4-4 8-10 11-16 3-4 8-13 12-19s8-13 8-15c1-2 0-7-1-14s-3-18-5-26c-2-16-5-25-8-31-5-7-23-17-38-21-11-2-38-1-46 2-14 5-18 12-23 32-2 13-2 14-1 32 1 20 1 25-2 32-3 6-6 8-16 14-9 6-13 10-18 20-3 5-7 11-13 18-10 10-18 23-18 28 0 1-3 9-8 17-7 15-15 36-16 43-1 2-2 7-3 12-2 10-6 30-7 44-2 18-2 32 0 64 1 32 1 53-1 78-2 30-2 28 0 30 5 7 18 8 62 7 13 0 52-1 86-1z"/></svg>