<svg xmlns="http://www.w3.org/2000/svg" width="1344" height="566"><path d="M0 283V0h1344v566H0V283m520 278c8-1 60-1 115-1 68-1 103-1 107-2 10-2 29-2 50 0 13 1 25 1 44 0 32 0 49 0 60 1 17 2 86 1 90-1 0-1 1-2 1-3 0-2-21-26-34-40-14-14-25-30-27-41-2-5-4-10-7-14-5-8-9-12-17-17-12-9-28-34-35-55-3-9-6-25-7-40-2-15-5-26-14-46-5-10-11-26-14-33-4-7-9-19-13-25-11-20-10-19-11-50 0-29 0-35-6-54-2-6-5-18-7-27-7-26-13-39-21-45-2-2-7-5-10-8-8-6-32-17-46-20-3-1-15-2-26-3-23-1-28-1-37 4-3 1-10 3-15 4-7 2-12 4-16 7-4 2-9 5-12 6-7 4-22 19-26 29-2 3-5 9-7 13-3 6-4 9-6 19-2 13-2 11 0 51 0 11 0 15-1 20-3 9-2 20 0 29 4 10 7 15 16 24 5 5 7 8 8 11 1 2 2 7 3 9 0 2 1 7 1 9 0 6-3 27-5 32 0 3-1 7-1 9s-1 6-2 8c-2 4-3 5-10 9-6 3-9 5-12 9s-10 16-15 25-8 14-14 18c-3 2-7 4-8 6-3 3-19 10-22 10-1 0-4 0-6-1-3-1-5-1-10 2-4 1-7 3-7 3-1 0-6 3-11 5-9 4-19 7-29 9-14 2-33 14-44 26-8 10-34 55-36 63-1 5-3 23-4 37 0 7 0 9 2 13 1 2 3 4 4 4 1 1 17 1 36 2 18 1 33 1 34 2 4 0 65-1 80-2m-201-8c2-1 4-4 8-15 3-7 6-17 7-22s6-19 10-33c7-21 10-27 22-51 14-29 18-36 29-50 8-11 10-14 8-19-7-24-9-41-6-48 2-5 5-6 11-6 2 1 8 2 12 2 12 2 14 2 19-2 12-7 13-10 8-22l-3-6 2-4c1-1 2-3 2-4 0-2-11-13-16-17-7-4-8-7-7-12 0-4 0-5-2-7s-3-2-11-2c-12 0-14 1-22 13-8 9-12 17-12 22 0 2 0 5-1 7-1 5-1 7 6 23 5 10 5 15-1 13-3 0-4 0-6 3-2 2-4 4-5 4-5 0-9 7-12 18-3 15-6 22-19 40-16 22-25 33-43 54-8 11-23 30-27 37-2 3-8 13-13 23-4 9-11 22-14 28-6 12-11 23-11 26s4 5 9 5c2 0 9 0 15 1 23 2 30 3 44 3s16 0 19-2z"/></svg>