<svg xmlns="http://www.w3.org/2000/svg" width="1344" height="566"><path d="M0 283V0h1344v566H0V283m850 68c1-2 4-6 4-9 2-3 3-6 7-9 11-9 11-9 11-16 2-14 2-25 0-33l-1-9-8-8c-7-8-9-12-9-20 0-2 0-5-1-7-1-1-2-10-2-20s-2-20-2-24c-1-4-2-8-2-10 0-5-6-17-10-23-2-2-7-5-9-7-5-2-7-2-15-2-14 0-22 2-29 9-2 3-5 8-7 11-2 5-2 6-2 25 0 20 0 21-2 23-1 1-3 2-4 2-4 0-12 3-14 6 0 1-1 6-2 12 0 16-2 21-7 29-3 4-6 9-8 10-2 2-6 5-10 8-8 6-10 8-12 17-2 11 0 20 5 23 1 1 6 2 11 3 5 0 12 2 17 2 10 2 21 4 33 7 4 1 13 3 20 4 18 3 40 8 41 8 1 2 4 1 7-2z"/></svg>