<svg xmlns="http://www.w3.org/2000/svg" width="1344" height="566"><path d="M0 283V0h1344v566H0V283m509 277c30-3 188-5 215-3 20 2 89 2 142 1h113c37 1 69 1 71 1 11-3 9-14-5-29-7-6-22-19-46-36-14-11-43-27-53-30-7-2-15-7-20-13-4-4-5-5-5-9 0-7 15-44 24-59 4-5 10-15 14-23 27-44 28-46 46-62 11-10 15-15 24-32s12-25 13-37v-9l-5-6c-5-5-6-7-6-10 0-4 5-28 9-46 6-21 11-65 9-79-2-18-10-40-20-54-4-7-18-16-29-19-6-1-15-1-102-2-119 0-127 0-135 8-7 7-13 20-20 42-8 24-11 39-14 60-3 30-4 34-15 35-13 3-18 7-22 19-6 17 0 51 11 69 2 2 6 8 10 12 11 12 12 15 8 39-3 17-6 33-10 44-3 10-12 28-17 33-6 7-8 8-27 8-18 1-29 2-35 4-5 2-12 8-18 16-2 4-7 12-11 19-14 22-23 31-39 42-4 2-16 11-26 19-11 7-25 17-32 21-29 18-51 34-71 53-7 6-8 9-5 11 1 1 19 3 32 3 9 1 35 0 47-1z"/></svg>