<svg xmlns="http://www.w3.org/2000/svg" width="1344" height="566"><path d="M0 283V0h1344v566H0V283m817 275c3-2 4-4 7-10 0-2 2-5 4-8s2-4 2-20c-1-15-2-32-5-50-2-12-1-36 1-53s5-35 8-45c4-19 4-51 1-76-3-16-3-18-1-27 1-10 4-23 6-31 1-2 1-13 2-25 0-18 0-22-1-26-2-4-2-7 0-13 0-2 0-3-2-6-4-4-4-6 0-8 5-3 10-12 10-20 1-6 1-5-6-15s-19-27-24-35c-6-9-16-21-23-26-2-1-6-3-11-4-7-2-8-2-15-1-13 3-23 10-29 21l-2 4-1 32c-1 37 0 34-11 40-6 3-7 4-9 8-3 5-11 37-13 50-4 34-11 60-18 66-2 2-2 2-9-2-6-2-9-3-11-3-5 1-10 5-12 8-1 3-1 3 1 5 1 2 4 2 11 3l9 2 8 7c12 12 17 14 27 11 8-3 12-3 17 1 2 2 5 4 6 4 3 0 8 3 9 5 1 1 1 5 1 8 0 8 0 9 19 18 15 8 24 14 27 21 3 5 3 9 0 16s-9 26-11 36c-2 4-3 7-5 10-2 1-3 3-3 3 0 2-11 16-15 19-1 2-5 3-7 4-4 1-9 6-9 8s1 5 2 8c2 9 5 25 5 35 0 8 0 10-3 15-4 8-4 12-3 19 3 11 7 13 28 13 12 0 15 0 19-1l4-2 3 3c2 3 5 5 6 6 4 1 13 1 16-2z"/></svg>