<svg xmlns="http://www.w3.org/2000/svg" width="1344" height="566"><path d="M0 283V0h1344v566H0V283m232 278c24-1 24-1 44 0 11 1 30 1 56 1 22-1 91-1 153-1 140 1 185 0 209-1 16-1 19-1 21-3 2-1 2-2 2-26 0-22-1-25-3-28-3-6-6-7-15-8s-16-3-22-8c-2-1-6-4-8-5-8-4-12-9-12-15 0-2 1-6 3-9 4-11 5-30 1-50-2-16-8-42-10-46-2-5-8-27-11-40-1-6-3-14-4-18-1-5-3-16-4-24-2-32-9-56-18-72-8-13-32-37-46-46-15-10-39-20-55-22-10-1-26-1-33 1-26 8-48 20-59 32-10 11-19 34-22 55-1 11-2 38-4 87-1 25-1 32-3 33-1 2-3 1-4-5-6-17-11-31-14-36-4-7-20-25-36-41-5-5-9-9-9-10s1-2 7-10c1-2 3-7 8-19 8-26 6-94-5-112-11-17-34-27-64-27-14 0-21 1-32 6-12 6-21 17-24 30-1 2-1 15-1 30l-1 24 4 8c9 18 12 31 10 42-1 7-2 8-9 10-4 2-6 4-10 10-4 4-14 15-23 24-9 10-17 19-18 20s-8 8-16 15c-19 17-29 27-32 34-6 13-9 29-10 59-1 12-2 29-3 38-2 25-2 36 2 46 3 13 7 35 7 46 0 5 1 10 1 12 2 5 8 9 15 13 10 5 16 6 37 7 23 1 31 1 60-1m945 0c7 0 9-2 17-10s10-12 10-22c0-7-1-13-6-33-2-9-6-42-7-59-1-12-5-46-9-67-1-10-3-20-3-24-3-22-9-46-14-56-13-29-31-44-72-61-12-5-28-14-35-19-2-1-5-4-6-6-4-5-4-11-1-21 3-9 6-15 12-22 7-7 13-17 14-22 0-2 0-4-2-8-3-6-4-12-2-28 2-14 0-35-4-41-8-14-43-33-62-33-12 0-36 11-43 20-4 6-9 18-12 32-5 16-8 25-11 31-2 4-2 6-2 16 0 9 0 11 2 18 9 24 12 36 10 43-2 6-11 13-37 27-17 8-25 12-42 19-44 18-65 46-83 110-1 5-3 12-4 15-3 10-10 35-14 52-4 19-5 29-2 48 1 14 1 17 0 34-1 21-1 25 3 33 1 2 2 8 3 13 1 12 3 15 6 18l2 2h43c24 0 50-1 58-1 9-1 24-1 46 0 24 1 38 1 58 0 15-1 31-1 34-1 4 0 21 0 38-1 34 0 84 1 87 3 5 3 15 3 30 1z"/></svg>