<svg xmlns="http://www.w3.org/2000/svg" width="1344" height="566"><path d="M0 283V0h1344v566H0V283m900 277c12-1 35-1 50-2 30 0 41-1 44-3 4-3-2-21-16-53-5-9-11-24-14-32-3-9-9-23-13-32-11-25-12-27-15-36-2-8-2-11-2-23 0-15-1-16-10-33-3-5-8-14-10-19s-6-13-9-17c-6-10-16-31-20-42-5-13-5-17-1-29 4-9 10-39 12-60 2-16 2-47 1-57-1-5-1-14-2-19-1-6-1-11-2-12s-2-4-2-5c-4-14-15-36-21-44-3-3-6-7-7-9-4-5-16-17-23-21-9-5-14-6-46-7-30-1-101 0-119 2-10 1-24 6-31 10-18 11-37 29-46 45-12 20-16 39-15 71 1 33 4 46 12 60 9 16 12 21 15 38 5 26 6 28 24 80 11 30 18 43 27 49 10 8 26 11 43 9h13c7 2 16 14 19 25 1 6 0 8-11 19-5 5-13 14-18 20s-15 17-22 24c-14 15-18 21-21 31-3 11-2 24 4 36 1 1 4 7 6 12 5 12 8 16 15 19 10 4 15 4 85 5 37 0 75 1 85 1s28-1 41-1z"/></svg>