<svg xmlns="http://www.w3.org/2000/svg" width="1344" height="566"><path d="M0 283V0h1344v566H0V283m684 279c68 0 130 0 140-1 16-1 17-1 20-3 2-3 3-7 0-16 0-3-1-9-1-12 0-4-1-10-1-12-1-3-2-7-2-8-1-2-3-5-5-7-4-5-13-25-15-35-1-4-2-9-2-13 0-5 0-6-5-10-5-5-19-14-25-16-3 0-12-5-22-9-16-9-32-16-45-21-20-9-43-20-46-23-4-5-5-6-6-21-1-14-1-32 3-63 3-21 3-40 0-54-5-25-9-47-14-60-2-8-5-19-7-26-7-24-16-43-28-62-19-29-44-49-72-59-16-6-28-8-44-8-17 0-20 0-41 11-9 4-18 9-21 9-15 5-26 14-35 29-13 20-21 42-26 72-4 20-5 32-6 70-1 46 3 105 10 140 0 4 1 13 2 20 1 15 1 15-5 17-11 1-36 11-67 25-8 4-18 9-23 11-19 9-22 11-21 19 0 2 1 8 3 13 2 8 2 8 12 17 12 11 21 18 33 25 4 3 11 7 14 10 23 16 27 19 60 30l12 6c4 2 10 5 12 5 3 1 8 3 11 4 10 5 22 6 63 7 20 0 44 1 52 0 9 0 71 0 138-1z"/></svg>