<svg xmlns="http://www.w3.org/2000/svg" width="1344" height="566"><path d="M0 283V0h1344v566H0V283m312 278c17 0 31-1 31 0 1 0 6 0 13-1 9-1 29-1 74 0 50 1 65 1 84 0 15-1 34-1 56-1h46c62 0 180 0 200 1 14 1 31 1 40 1 14 0 16 0 18-2 1-1 2-4 3-5 0-5-5-25-9-34-6-10-19-30-25-37-9-8-24-15-65-28-21-6-34-10-38-11-8-1-18-3-21-5-3-1-9-8-18-19-8-11-10-15-10-18 0-1 3-5 7-10 13-14 21-27 26-38 4-12 16-46 18-54 1-5 5-17 8-26 6-20 5-18 9-83 2-53 2-67-4-89-7-28-17-50-34-73-12-18-18-22-32-24-4-1-41-1-111-1H474l-5 3c-6 3-8 4-16 13-8 11-11 16-17 28-11 21-15 37-17 64 0 19-2 27-6 46-6 26-7 56-2 74 1 6 1 10 1 32-1 22-1 26 1 31 2 7 8 21 17 34 7 13 10 20 13 30 2 8 1 10-4 17-2 2-7 9-11 14-11 14-19 22-26 26-8 4-23 10-36 13-7 2-17 5-22 6-4 2-17 5-28 8-31 8-43 12-72 25-16 7-27 17-35 32l-5 8 1 12c0 17 5 37 10 39 1 1 9 2 16 2 14 2 21 2 81 0z"/></svg>