<svg xmlns="http://www.w3.org/2000/svg" width="1344" height="566"><path d="M0 283V0h1344v566H0V283m756 277c10-4 12-6 13-16 2-18 3-41 1-50-2-10-2-52 0-73 4-37 2-65-6-89-5-16-10-23-22-37-6-7-12-13-13-15-2-5-2-15 1-28 1-6 3-14 3-18 1-5 4-16 6-26 7-22 9-36 10-54 0-11 0-17-1-23-1-5-2-13-3-18-1-11-6-27-10-34-11-23-43-46-83-59-13-4-28-6-45-6-22 1-31 3-44 7-20 6-27 11-42 26-7 8-10 12-14 20-9 17-14 34-15 51-2 14-5 37-7 39 0 2-3 4-5 5-5 3-9 7-9 12-1 2 0 8 1 15 1 6 1 15 1 20 0 7 0 9-2 14-5 9-23 29-33 36-4 2-11 7-18 10-15 7-53 29-68 39-7 5-17 12-23 17-12 10-37 35-45 46-3 4-8 10-10 14-10 12-21 31-24 39-1 3-2 9-4 14-1 5-3 12-4 16 0 5-1 11-2 13s-1 12-2 20c-1 16 0 29 3 40 0 2 1 7 1 11 1 4 2 10 3 13 4 9 3 8 45 8 21 0 51 0 68-1 27-1 69 0 143 2 75 1 167 3 207 3l40-1 8-2z"/></svg>