<svg xmlns="http://www.w3.org/2000/svg" width="1344" height="566"><path d="M0 283V0h1344v566H0V283m712 278c4-1 7-1 12-1 5 1 257 2 323 2 23 0 26-1 28-6 3-5 2-16 0-24-2-4-3-10-4-12 0-2-1-8-3-12-1-5-3-15-5-24-2-8-5-19-7-24-1-5-3-15-4-21-1-10-3-16-11-39-5-15-10-33-12-39-9-35-13-44-21-51-5-5-14-8-32-11-7-1-16-3-19-4-8-3-26-14-33-20-5-5-6-6-8-13-3-10-3-24 0-46 1-9 2-20 2-26 0-21-7-60-14-72-8-16-32-34-52-39-11-3-20-3-40 0-27 4-39 9-52 22-7 6-9 9-12 16-2 4-5 12-7 18-2 8-2 11-2 21 1 7 1 12 3 16 10 27 11 33 9 40-2 5-4 7-14 14-8 5-20 17-23 23-1 3-6 19-9 31-1 1-2 10-3 18-2 23-4 30-12 42-5 7-7 11-8 19-1 7-4 12-8 18-4 5-6 9-9 21-3 10-7 20-17 36-8 14-11 24-16 41-4 18-6 30-6 45 0 14 2 25 6 32s9 9 26 10c25 1 48 1 54-1z"/></svg>