<svg xmlns="http://www.w3.org/2000/svg" width="1344" height="566"><path d="M0 283V0h1344v566H0V283m836 278c30 0 72 0 93-1 21 0 71 0 110 1h83c6-1 15-1 22-2 16-1 18-4 14-14-4-8-13-20-28-36-17-17-28-28-43-39-7-5-17-12-22-16-6-4-14-10-18-13-18-12-29-23-40-41-3-5-10-16-15-23-11-16-21-32-27-43-4-6-9-15-17-27-4-5-6-11-7-15 0-6 1-9 8-18 15-18 16-20 20-36 2-14 3-24 1-58-3-41-4-48-13-73-7-21-17-40-30-53-10-10-18-16-35-24-21-10-27-13-41-15-11-2-15-2-32-2-23 1-28 2-58 15-3 2-12 4-18 6-7 2-16 5-20 7-22 10-46 36-54 57-4 11-7 27-9 46-4 41-3 53 8 78 3 9 13 38 13 40 0 1 8 28 12 38 2 5 4 10 4 11 5 15 32 67 38 72 7 7 22 13 35 14 11 0 15 1 16 4 0 3-4 7-10 10-2 1-5 3-6 5-3 3-11 8-21 13-4 2-10 5-12 7-37 30-40 33-46 51-3 11-3 17-2 32 1 9 0 13-1 17-1 6-1 18 0 21l3 3c3 2 27 3 61 2 15 0 53 0 84-1z"/></svg>