<svg xmlns="http://www.w3.org/2000/svg" width="1344" height="566"><path d="M0 283V0h1344v566H0V283m942 278c79 0 148-1 155-1 8-1 16-1 19-1 14 0 16-6 7-22-4-8-11-16-17-20-2-2-13-12-23-22-20-20-35-33-47-40-4-2-10-6-13-8-7-5-14-9-27-17-20-12-28-22-49-57-3-5-9-16-14-26s-10-19-12-21c-4-6-16-26-19-32-3-8-3-12 1-18 12-16 20-31 25-50 7-21 8-29 9-48 0-15 0-18-3-34-6-36-14-55-32-78-13-16-25-26-40-33-14-7-38-15-48-17-11-1-35-1-50 1-13 2-34 8-49 13-7 3-15 6-18 7-11 3-27 10-36 15-20 13-39 40-43 62-4 16-4 27-3 46s5 48 7 58c3 9 4 17 5 32 1 21 5 34 15 58 3 8 8 21 11 29 19 56 18 55 25 62 3 3 6 6 10 7 10 5 11 5 12 8 0 2-2 4-14 11-28 14-53 31-64 42-11 12-15 20-16 37-1 13 0 19 6 32 2 5 5 11 6 13 2 6 9 8 38 10 17 2 111 4 133 3 6 0 75 0 153-1z"/></svg>