<svg xmlns="http://www.w3.org/2000/svg" width="1344" height="566"><path d="M0 283V0h1344v566H0V283m298 277c44-1 132-1 172-1 31 1 169 1 192 1h34c26 1 65 0 69-2s5-7 6-20c1-10 1-17 0-27-1-13-5-42-7-49-1-2-2-10-2-19-2-18-5-26-10-31s-13-10-28-16c-6-3-15-7-18-9-4-2-7-4-8-4s-30-16-33-18c-4-3-5-7-4-11 0-1 3-8 6-16 9-20 21-58 27-83 2-8 2-11 2-28 0-10-1-25-2-33-1-9-2-20-3-26-4-32-11-66-20-90-8-21-23-38-49-54-12-9-16-11-24-14-7-2-21-5-27-5-7 0-24 3-31 6-5 2-11 3-20 4-11 1-13 1-19 4-15 8-32 27-41 45-16 34-22 67-27 148-2 41-1 66 4 109 2 19 1 26-3 30-6 5-14 10-22 12-8 3-13 6-23 13-16 11-22 15-33 21-6 4-14 8-18 10-12 7-17 10-30 22-6 6-15 15-20 19-4 3-11 10-14 14-14 16-20 24-29 33-14 17-36 51-36 58 0 8 8 8 89 7z"/></svg>