<svg xmlns="http://www.w3.org/2000/svg" width="1344" height="566"><path d="M0 283V0h1344v566H0V283m769 279c54-1 62-1 66-5 1-1 2-3 2-4 0-4-9-34-15-51-8-21-9-23-10-34 0-10-2-14-8-19-2-2-21-12-42-23-36-18-49-24-72-34-10-4-18-10-21-14-5-7-3-34 5-74 3-14 5-33 4-39 0-2-1-9-2-16-1-15-3-23-11-62-8-37-18-71-28-90-5-11-29-38-41-48-22-18-61-29-90-25-12 1-22 5-36 13-3 2-9 4-15 6-5 1-12 3-15 5-6 3-17 15-24 25-20 30-31 70-35 128-2 32-1 129 2 165 1 18 1 25 0 26-1 3-2 3-15 6-3 1-20 9-41 19-19 9-38 18-41 20-16 7-22 11-22 17 0 4 9 21 15 27 7 6 18 14 29 20 15 9 26 15 36 23 11 7 18 11 24 13 3 1 11 5 20 9 12 6 17 8 23 9 32 7 22 6 113 6 46 1 83 1 84 1 0 1 26 1 58 1 32-1 78-1 103-1z"/></svg>