<svg xmlns="http://www.w3.org/2000/svg" width="1344" height="566"><path d="M0 283V0h1344v566H0V283m990 278c4 0 7-1 10-4 4-3 6-4 12-4 6-1 8-2 10-4s4-4 4-6c1-3-1-12-4-25-5-20-17-75-21-94 0-4-2-10-3-12-2-7-7-27-12-56-6-35-9-47-13-62-1-8-4-22-6-32-3-18-7-39-9-44-1-2-1-6-1-9 0-6 3-10 13-16 8-5 32-28 37-36 2-3 5-11 8-17 4-10 4-11 5-21 0-13-1-18-7-28-4-8-15-17-23-21-11-5-29-4-46 1-8 3-9 3-14 8-5 6-17 26-20 32-3 9-16 26-23 29-2 1-6 1-14 0h-13c-2 1-5 3-8 6-4 3-12 7-28 16-13 6-26 13-30 15-9 6-29 26-32 33-2 2-5 15-8 29-4 13-9 33-12 45-8 27-9 32-9 46-1 17-3 37-8 70 0 6-2 21-4 34-2 14-4 29-4 34-3 15-3 27 0 30 1 1 7 5 14 9 10 5 14 8 23 16 6 6 10 11 11 12 0 2 1 8 2 12 1 6 2 10 3 11 2 2 28 3 47 2 8-1 25-1 39-1 47 0 103 1 108 2 7 1 18 1 26 0z"/></svg>