<svg xmlns="http://www.w3.org/2000/svg" width="1344" height="566"><path d="M0 283V0h1344v566H0V283m608 273c5-1 6-2 9-5 2-2 5-7 6-10s3-8 5-11c2-4 3-8 4-15 1-6 2-13 3-18 2-4 3-11 4-16 0-5 2-12 4-16 2-7 3-8 13-18 11-11 21-19 30-23 8-5 19-14 20-17 0-1-3-9-9-20-9-18-9-18-9-25 0-6 0-8-4-14-2-4-7-10-12-16-14-14-21-23-23-30-2-3-4-7-7-10-6-6-14-20-14-24 0-2 2-5 7-11 17-18 16-17 18-34 1-6 3-13 5-17 3-7 3-8 4-24 1-25 0-30-11-40-7-7-12-11-23-16-20-10-34-13-43-8-10 5-24 17-27 23-2 5-5 14-6 25-2 19-7 37-12 44-4 5-19 21-26 27-3 3-12 8-25 14-27 14-46 25-55 34-8 7-21 24-26 33-5 8-15 33-19 44-1 7-4 17-6 24-2 6-5 16-6 22-3 14-4 16-7 21-2 2-3 6-4 8 0 3-9 21-14 29-2 2-7 13-13 25-12 25-13 29-8 34 3 4 13 11 20 15 6 3 21 6 28 6s7 0 11 3c6 6 10 7 24 8 18 1 186 0 194-1z"/></svg>