<svg xmlns="http://www.w3.org/2000/svg" width="1344" height="566"><path d="M0 283V0h1344v566H0V283m488 119c12-4 13-4 31-4 17-1 19-1 26-4 10-3 20-4 31-2 5 1 13 2 19 3s12 2 13 2c2 0 18 1 35 1 36 1 42 1 54 4 9 1 16 1 40-2 14-2 26-4 39-7 11-3 20-5 26-7 4 0 9-1 11-2 1 0 8-1 14-2 11-1 23 0 33 2 5 1 7 0 8-2 0-2-1-25-3-36-1-3-1-12-2-18-1-14-3-21-7-23-1-1-5-4-7-5-7-5-9-8-10-16-1-3-2-9-3-11-1-3-2-7-2-10 0-5 0-6 3-10 2-2 4-6 5-8 1-6-1-43-2-54-5-31-6-39-9-49-5-22-6-26-12-37-14-28-27-41-52-50-15-6-24-6-49-1-18 4-26 7-35 16-8 7-14 17-18 29-4 13-6 23-8 60-1 10-1 18-2 18 0 1 0 12-1 25-1 27-2 34-5 36-4 3-16 7-23 8-4 1-12 1-19 2-14 1-39 7-48 12-12 5-17 12-23 30-5 12-8 18-13 22-4 4-15 9-23 12-17 7-23 9-25 12-7 7-29 56-29 64 0 5 6 7 20 7 8-1 12-1 22-5z"/></svg>