<svg xmlns="http://www.w3.org/2000/svg" width="1344" height="566"><path d="M0 283V0h1344v566H0V283m176 280c3-1 8-2 10-3 4-2 6-2 31-1 31 1 31 1 32-6 2-9-2-59-5-68-1-2-2-7-3-11 0-3-1-8-2-10 0-2-1-6-2-9 0-2-1-6-2-9-2-3-2-5-2-9 2-16 2-15-2-25-2-6-4-12-5-14 0-3-2-9-4-15-2-7-3-13-4-18 0-9-1-11-5-19-3-6-3-7-3-12 1-4 2-8 3-11 2-4 3-7 3-10 0-2 1-6 2-8s3-8 3-12c1-9 2-13 5-15 2-3 4-2 9 1 4 2 6 3 10 3 7 0 17-4 19-8 2-5 3-28 1-40-1-5-1-13-2-16 0-8 0-10 10-21 8-11 12-19 13-27 0-7 0-8-2-10s-3-2-15-2c-13 1-12 2-18-8-2-3-4-6-5-7-7-4-18-2-21 3-1 2-2 5-3 6 0 1-1 5-3 8-3 8-3 19 1 32 2 12 2 13-3 24-3 8-6 10-10 8-1-1-5-4-9-7-10-7-18-12-30-16-12-5-14-7-14-12 0-6 3-9 9-11s9-6 11-12c1-3 1-7 0-17-1-11-1-13-5-18-6-11-7-18-4-30 2-8 6-14 15-19 11-8 19-18 21-27 1-2 1-6 2-7 1-7-10-14-22-14-6 0-8 0-16 3-5 2-12 4-15 5-3 0-6 1-8 2-2 2-4 9-7 22-1 4-3 9-4 10-2 2-2 3-15 3-16 1-23 2-32 7-10 5-13 8-16 16-3 5-3 6-2 12 0 8 3 15 10 28 8 17 9 24 9 33-1 9-4 13-7 11-1 0-4-6-7-12-6-11-14-25-17-29-2-1-5-3-8-5-5-2-6-2-21-2-14 0-15 0-17 2-2 1-3 4-4 5 0 2-1 3-2 4s-1 17-1 114v112l4 9c6 11 8 17 11 30 2 5 4 12 6 15 1 4 3 9 3 17 2 13 0 30-6 50-8 28-10 40-10 51 0 8 2 15 5 16s155 1 162 0z"/></svg>