<svg xmlns="http://www.w3.org/2000/svg" width="1344" height="566"><path d="M0 283V0h1344v566H0V283m62 277c45-1 79-3 88-4 5-1 26-1 54-1 101 1 97 1 103-5 4-4 4-10-1-26-3-13-4-22-7-50-2-22-6-50-8-64-5-27-16-60-27-76-9-13-26-26-58-46-5-3-10-6-11-8-2-3-3-1 15-31 12-21 13-24 11-34-1-4-1-5 1-9 1-2 3-6 5-8 1-2 3-5 4-7 2-7 4-12 10-19 7-7 8-12 8-23-1-9-3-17-9-29-6-13-7-20-8-40 0-22-2-29-9-42-2-5-6-12-8-16-4-9-7-13-12-15l-5-2-94-1C28 3 8 3 5 4L2 6 1 278c0 250 0 274 2 277 3 7-2 6 59 5m523-1c45-1 246-2 279-1 34 1 186 3 223 2 28 0 31 0 32-2 2-2 2-2 1-8-3-9-12-27-17-34s-25-29-37-41c-9-9-24-21-33-28-4-3-16-13-29-25-8-7-29-23-36-27-3-3-25-19-29-22-2-2-6-5-10-6-5-3-7-3-21-4-19-1-24-3-32-11-11-10-15-21-14-40 1-9 2-13 5-22 3-12 6-16 16-27 7-7 14-17 20-30 9-19 10-29 4-46l-2-9 1-12c4-25 4-36 3-47-3-27-17-49-42-65-18-12-29-17-49-21-9-2-13-2-33-2-24-1-30 0-44 5-12 4-32 18-43 28-13 15-19 27-23 51-1 10-5 46-5 61-1 7-3 21-4 31-4 22-4 35-2 52 3 20 7 33 14 45 1 4 5 12 8 18s8 15 11 19c7 11 9 14 7 17-1 4-11 10-30 19-40 20-47 24-73 44-34 26-40 32-60 58-17 23-20 28-26 46-2 8-5 16-6 18-2 6-1 12 1 15 2 1 4 2 15 2 7 0 15 1 17 0 3 0 22 0 43-1z"/></svg>