<svg xmlns="http://www.w3.org/2000/svg" width="1344" height="566"><path d="M0 283V0h1344v566H0V283m386 276c13-1 51-1 84-1 64 0 93-1 99-2 3-1 19-1 44 0 22 1 68 2 103 2 34 0 71 1 84 1 21 1 37 0 43-2 2-1 3-2 4-4 2-4 2-18 1-26-3-14-9-23-25-36-24-19-32-26-44-34-6-3-12-7-13-9-2-1-5-3-8-4-7-4-19-16-24-25-6-10-7-14-5-23 1-6 5-17 8-25 6-13 20-49 22-59 7-26 7-51-1-94-1-7-2-15-2-18 0-6-3-30-6-42-1-9-9-31-14-44-11-25-23-42-41-56-24-17-46-27-73-31-14-1-22-1-44 2-28 4-40 7-56 15-27 14-52 44-62 77-6 17-8 44-5 61 2 15 5 29 9 42 3 14 3 16 4 38 1 25 1 28 9 41 6 11 11 17 25 25 7 3 13 8 14 9 3 5-2 11-23 29-17 14-23 17-39 20-9 1-15 3-28 8-9 4-30 11-45 16-35 12-45 16-54 25-6 5-8 8-13 18-9 20-17 39-22 59-10 36-11 42-7 46 1 1 4 2 5 2 3 1 68 0 96-1z"/></svg>