<svg xmlns="http://www.w3.org/2000/svg" width="1344" height="566"><path d="M0 283V0h1344v566H0V283m412 278c82 1 79 1 81-2 6-5 4-22-3-43-3-7-6-17-8-23-5-17-15-33-26-44-7-6-24-19-32-23-12-8-13-12-5-21 5-4 7-8 11-17s5-12 11-18c7-7 8-7 22-14 8-3 12-7 14-11v-47c1-6 1-7-2-12-13-26-13-25-18-45-1-8-4-17-6-21-4-9-11-20-15-23-10-7-50-15-68-14-19 2-29 6-44 17-11 8-20 18-25 29-5 10-9 27-9 47-1 7-2 24-3 36-2 21-3 43-6 82 0 9-1 19-2 23s-1 13-1 21c-1 16-2 21-9 40-2 7-3 12-4 20-1 11-2 16-7 30-3 11-4 22-2 27 1 2 3 3 4 4 2 1 92 3 104 2h48m453-3c32-1 66-1 127 0 53 1 87 1 93 0 13-1 14-3 17-23 4-26 8-72 8-98 0-20-1-26-8-43-5-12-16-35-19-40-1-2-5-7-7-12-6-9-22-31-29-40-4-5-14-14-36-34-5-5-9-11-10-21-2-9-4-10-14-12-13-2-16-4-20-16-6-14-6-21-2-34 1-4 2-9 3-11 2-12 9-38 10-40 2-3 9-29 10-36s0-20-3-32c-2-10-11-29-16-34-6-7-30-18-41-19-3-1-9-2-13-3-7-1-9-1-19 0-16 3-28 6-40 10-17 6-23 10-34 21-12 11-13 13-11 25 1 9 0 13-5 31-2 7-4 15-4 20-1 12-4 22-9 35-2 7-4 14-4 16 0 3 1 7 4 13 2 5 6 14 8 21 2 6 4 14 6 16 1 3 2 8 3 10 3 7 9 13 16 16 3 1 7 2 10 3 4 0 16 7 20 10 4 4 8 11 8 15 0 2-1 4-6 8-3 3-12 11-19 19-16 16-19 21-22 35-1 13-2 13-6 21-8 19-14 32-22 54-3 10-9 32-12 46-1 5-4 18-6 29s-5 24-6 30-3 15-4 20c-2 11-3 20-1 23 2 1 4 2 26 2h29c3 0 25 0 50-1z"/></svg>