<svg xmlns="http://www.w3.org/2000/svg" width="1344" height="566"><path d="M0 283V0h1344v566H0V283m1103 250c5-3 10-8 13-13 1-3 2-5 2-11 0-12 3-20 15-39 4-6 9-15 11-19 9-14 12-19 15-21s6-8 6-15c0-9-7-29-13-37-15-20-23-35-26-50-1-2-2-21-2-42-1-65-4-89-11-104-4-6-9-15-12-17-3-4-17-11-25-13-7-2-10-2-33-2-29 1-28 0-32 10-1 3-3 9-5 13-1 4-4 9-6 12s-5 10-8 15c-2 5-6 11-8 13-3 5-3 5-5 20-1 20-1 33 1 40s2 10 0 11c-6 3-16 6-19 6-4 0-5-1-8-4s-4-3-9-3c-10 0-17 3-21 10 0 2-3 6-6 9-8 11-9 18-4 35 2 6 3 12 3 15 0 5-9 22-14 24-5 4-15 13-17 17-3 6-3 24 0 36 5 21 10 35 16 38 2 2 4 3 5 3s3 1 19 11c12 7 25 12 36 15 3 1 5 2 6 2 2 1 8 3 15 5s15 4 19 5 17 5 29 10c20 7 30 11 40 13 23 6 27 6 33 2z"/></svg>