<svg xmlns="http://www.w3.org/2000/svg" width="1344" height="566"><path d="M0 283V0h1344v566H0V283m245 279c2-2 4-12 4-17-1-3-1-10-2-16 0-7-1-12-1-13-1 0-2-6-2-13-1-7-3-15-3-18-1-2-2-11-3-18l-1-13 3-5 2-5-1-5c-1-2-2-7-2-9 0-3-1-7-2-10-1-6-4-27-6-44-1-16-6-50-9-72-2-15-2-15 0-17 3-3 5-4 11-2 4 1 6 1 13-1 8-2 12-4 15-9 2-5 2-34 0-45-2-6-2-11-2-16 1-8 1-9 8-23 9-18 9-21 3-32-2-4-5-8-6-9-4-3-9-2-15 3l-4 3h-15c-21 1-24 3-22 15 2 9-1 16-8 23-4 4-4 7 0 12 3 4 4 6 4 11-1 4-4 4-10-1-9-8-13-10-25-15-13-5-16-8-16-12 0-3 3-9 7-10 3-2 7-6 9-10 2-3 1-18-1-26-1-5-4-11-6-14-2-4-4-8-5-11 0-2-3-6-5-9-4-5-7-16-7-22 0-4 1-5 4-8 2-2 6-5 8-6s7-4 11-7 8-7 10-7c5-2 7-5 7-15 1-11 1-13-8-20-6-5-6-5-12-5-3 1-8 3-12 4-3 2-8 4-9 5-12 2-19 11-26 31-5 12-14 33-15 35-1 0-2 2-2 5-3 6-11 22-17 31-4 8-9 18-9 23-1 6-7 23-14 41-8 20-31 53-42 58-3 2-8 6-10 8-4 4-5 5-6 9 0 6 1 12 4 18 2 4 2 4 10 7 3 1 7 4 9 6s4 4 5 4 3 1 6 3c2 2 4 3 6 3 3-1 5 0 5 6 1 2 2 7 4 10 2 8 2 11-1 12 0 1-4 0-8-2-7-3-7-3-9-2-1 1-2 4-3 6-2 8-5 15-7 18-6 8-9 12-8 18 0 10 2 31 3 34 1 2 3 7 4 10 1 4 3 9 4 11 2 4 4 15 5 36l1 13-4 12c-2 7-4 14-5 17 0 3-1 10-3 15-4 16-2 24 5 29 3 2 5 2 15 2 23 0 40-2 49-6 5-1 18-2 26-1 3 1 5 1 9-1 3-2 8-3 11-4 5-1 5-1 8 1 3 3 4 4 9 2 3-1 4-1 10 2 5 3 8 4 11 4 5 0 10 3 13 7 0 1 2 3 3 3 5 3 52 3 55 0z"/></svg>