<svg xmlns="http://www.w3.org/2000/svg" width="1344" height="566"><path d="M0 283V0h1344v566H0V283m735 163c4 0 11-2 17-2 11-2 21-4 32-7 4-1 8-2 9-2 2 0 16-4 21-6 7-2 23-6 33-7 11-1 22-1 40 2 6 1 6 1 8-1 2-1 2-2 1-15-1-7-2-16-3-20-1-7-4-22-5-38-1-7-2-14-2-15-2-5-6-8-17-11-6-2-11-5-12-6-2-2-2-4-2-14 0-6-1-16-2-20-1-8-1-10 0-13s1-9 1-20c-1-14-1-18-6-41-3-15-7-29-8-33 0-4-1-10-2-13-1-7-7-30-10-38-1-2-3-6-4-10-7-18-13-27-20-34-3-3-7-8-10-13-3-6-6-10-10-13-3-2-8-6-10-8-5-6-8-7-15-7-2 0-6-1-9-2-10-5-25-4-41 1-4 2-13 4-18 5-5 0-11 2-14 3-16 6-30 23-39 48-4 9-8 28-10 39 0 4-1 11-2 17-3 20-4 35-5 76 0 35 0 41-1 43-2 3-7 5-18 8-13 3-15 3-33 3s-19 0-24 2c-3 2-8 5-11 8-9 7-21 21-25 28-6 10-8 12-15 15-8 4-20 12-27 19-3 3-8 6-11 8-5 2-7 2-14 2-7 1-9 1-12 3s-14 23-21 39c-9 26-11 30-10 31 0 1 9 1 14-1 3 0 7-1 8-1 2 0 5-1 7-2 5-4 15-5 33-5 12 1 15 1 19 3 5 2 6 2 15 1 8 0 10-1 13-3 7-5 23-5 36-1 7 3 15 4 35 8 10 1 11 1 57-1 30-1 61 4 75 11 5 2 14 3 24 0z"/></svg>