<svg xmlns="http://www.w3.org/2000/svg" width="1344" height="566"><path d="M0 283V0h1344v566H0V283m766 276c22 0 41 0 42 1 1 0 19 0 39-1 33-1 38-1 40-3 6-4 8-21 8-62-1-35 0-30-12-70-1-4-4-13-6-22-4-13-6-22-9-32-1-3-4-12-6-20-3-9-6-19-6-21-1-6-9-31-13-40-3-8-12-25-17-31-6-9-17-22-22-26-2-2-9-6-14-9-9-5-11-6-14-11-6-11-7-18-5-36 2-12 2-29 1-38-3-11-9-22-18-31s-15-12-27-15-26-2-33 3c-3 2-14 5-19 6-4 1-14 9-23 19-14 16-17 21-19 35-1 7-1 10 0 21 2 8 3 12 4 14 4 5 6 11 7 20v8l-5 9c-3 6-6 15-8 20-3 9-6 18-24 55-2 5-6 11-8 15-3 4-7 9-9 12-7 11-16 21-37 43-20 20-24 24-35 31-19 13-17 12-38 12-10-1-20-1-23-2-4 0-7 0-9 1-1 1-7 3-12 4-4 1-12 3-17 4s-9 3-10 3c-4 2-5 15-2 24 7 19 10 21 33 25 6 0 12 1 13 2 3 0 18-3 23-5 2-1 8-2 12-3 5-1 10-3 12-4 7-2 19-4 25-4 9 0 12 2 24 18 6 7 8 9 14 12 12 7 24 11 30 11 12 0 28 4 38 10 8 4 10 7 10 13 0 1 3 5 8 11 18 21 19 21 41 22 9 0 18 1 19 2s5 1 9 1c4-1 26-1 48-1z"/></svg>