<svg xmlns="http://www.w3.org/2000/svg" width="1344" height="566"><path d="M0 283V0h1344v566H0V283m905 276h71c51-1 56-1 58-3l2-2-2-3c-3-6-19-21-33-31-29-22-53-36-102-59-7-3-10-6-10-8s8-10 18-17c22-15 61-44 67-51 15-14 41-46 53-65 3-5 10-18 16-30 5-11 12-25 16-30 8-14 12-22 17-36 8-21 11-34 12-51 2-32-1-53-13-94-2-7-4-12-8-17-2-3-7-11-11-17-7-13-17-27-21-31-4-2-14-6-23-7-15-2-92-3-134-2-39 1-54 2-59 5-4 2-16 17-24 29-10 14-15 24-22 43-9 25-12 33-19 46-7 14-12 20-21 24-8 4-14 9-17 16-7 14-8 38-4 58 2 11 2 13 1 19-2 11-11 30-26 57-10 16-16 24-27 37-12 15-19 22-25 25-5 2-6 2-13 2-4-1-14-2-23-2-9-1-18-1-20-2-8-1-12 1-23 12-5 6-12 13-15 16-15 17-24 24-54 39-11 6-24 13-29 16-4 3-18 11-31 18-12 8-28 17-35 22-34 21-61 45-66 60-1 5-1 5 1 8 1 1 4 3 6 4 7 2 40 2 85 1 46-1 106-2 144 0 20 0 34 0 46-1 15-1 22-1 45 0 15 1 28 2 30 2 1-1 40-1 87-1 68 0 86 0 97 1 7 1 16 2 19 1 2 0 11 0 19-1z"/></svg>