<svg xmlns="http://www.w3.org/2000/svg" width="1344" height="566"><path d="M0 283V0h1344v566H0V283m646 277h88c77 0 74 0 77-6 2-5 2-32 0-44-3-15-9-35-16-57-1-6-3-12-3-13s-2-6-4-10c-4-8-4-9-4-18 0-13-1-14-19-23-8-4-16-7-17-8-1 0-8-3-16-7-7-3-15-7-18-9-4-1-13-5-21-9-20-9-21-11-18-28 1-4 5-20 8-36 3-15 7-33 8-39 2-14 1-20-5-85-2-30-5-50-7-57-11-30-14-37-23-49-15-19-28-30-52-42-26-13-36-14-62-4-6 2-13 3-20 4-16 2-25 6-37 16-11 11-22 28-30 48-4 9-12 36-14 46-4 18-7 33-8 42-1 5-4 17-6 26-9 48-11 88-6 114 2 9 2 11 1 15-1 3-2 6-3 7-2 4-11 7-21 8-17 2-38 11-77 31-15 7-23 13-25 18-1 1-3 7-5 13-2 7-6 17-9 24-7 15-12 28-15 42-4 16-8 30-12 44-7 25-9 38-4 43 2 2 3 3 17 3h378z"/></svg>