<svg xmlns="http://www.w3.org/2000/svg" width="1344" height="566"><path d="M0 283V0h1344v566H0V283m724 269c6-5 8-14 5-24-3-6-5-21-5-28 0-3 1-10 2-15 3-12 4-27 4-42 0-21 3-44 6-55 1-3 3-9 4-14 2-4 4-10 4-12 1-3 3-8 4-12 2-8 4-16 9-32 1-4 3-10 4-14 2-12 6-20 11-26 10-11 21-34 22-49 1-4 1-15 0-26v-20l-6-6c-6-6-8-12-9-20-1-7-3-10-7-17-2-3-5-9-7-14-6-17-6-18-11-23-5-6-12-9-21-9-11 0-25 9-30 19-4 6-5 18-5 35 1 20 1 19-14 26-5 3-12 7-15 10-3 2-7 4-8 5s-8 5-15 11c-11 8-19 13-23 13-3 0-28 14-36 20-11 10-16 12-29 13-10 1-13 2-15 5-3 4-2 8 1 11 5 6 9 8 19 9 5 1 13 2 16 2 12 2 21-2 22-9 1-5 6-7 22-9 4-1 9-2 12-2 2-1 6-2 8-2 2-1 6-2 7-3 2 0 5-1 6-1 1-1 9-4 16-9 7-4 14-7 15-7 2 1 3 5 3 17l1 11-10 10c-11 12-12 14-12 27 0 10 3 23 9 34 8 16 8 18 8 29-1 5-2 13-2 17-5 27-6 44-3 70 0 5 0 8-1 12-2 6-2 11 2 17 2 2 4 5 5 7 3 5 7 20 7 26 0 4 8 31 12 38 1 2 3 5 5 6 3 3 10 3 13 0z"/></svg>