<svg xmlns="http://www.w3.org/2000/svg" width="1344" height="566"><path d="M0 283V0h1344v566H0V283m757 278c12-4 13-5 15-17 1-12 0-45-1-58-2-16-3-45 0-67 2-25 2-48-1-63-6-33-11-45-31-67-11-11-12-14-12-23 1-13 7-42 16-75 5-19 8-50 5-61-1-2-2-9-3-16-1-14-6-30-9-38-13-25-52-51-93-61-18-5-56-4-77 1-11 3-27 10-35 17-22 18-36 47-40 85-2 19-4 33-6 36 0 2-3 4-6 6s-6 4-7 6c-2 3-2 11 1 26 2 13 1 23-2 29-1 2-5 7-8 12-16 19-23 25-44 35-11 5-35 19-52 29-10 6-28 20-38 27-27 24-66 71-75 94-5 10-11 34-13 52-3 20-3 33 0 49 5 32 6 35 12 39l3 2h42c22-1 52-1 66-2 23 0 81 0 140 2h44c60 1 124 2 124 3h40c34-1 40-1 45-2z"/></svg>