<svg xmlns="http://www.w3.org/2000/svg" width="1344" height="566"><path d="M0 283V0h1344v566H0V283m992 275c10-2 13-3 15-7 1-2 3-6 5-9 5-8 7-19 7-35-1-10-1-12-4-17-4-8-13-17-16-17-2 0-20 9-23 12-1 0-2 3-2 5-2 13-6 17-20 21l-8 2-7-3c-9-4-17-11-17-14 0-1-1-3-3-4s-6-5-9-9c-7-7-9-13-9-22 0-2 0-5-1-5-1-3-5-5-11-6-5 0-6 0-11 2-2 2-6 4-8 5-1 2-5 5-8 7s-10 10-16 16c-7 7-13 13-15 14-3 2-17 5-21 5-6-2-11-10-20-30-4-10-19-44-30-67-3-6-8-18-12-26-7-15-18-35-23-41-7-8-8-10-8-13 0-4 3-9 6-11 2 0 10-7 18-15s18-16 21-18c9-6 12-11 13-28 2-20 4-25 24-62 4-7 9-16 11-20 2-5 6-14 10-21 13-23 14-22-3-38-12-12-13-13-19-24-6-13-11-18-28-30-17-13-19-15-36-23-34-16-52-20-76-16-12 2-23 5-36 11-15 7-23 14-42 36-10 10-11 11-17 26-19 42-25 49-47 56-5 1-15 5-22 7-10 3-15 5-20 9-10 6-29 25-32 30-1 3-3 10-5 17-1 6-4 18-6 25-7 21-8 28-4 36 3 5 12 10 22 11 3 1 11 1 18 1 7 1 14 1 15 1 3 2 4 6 1 11-1 2-5 9-10 16-10 15-17 29-28 53-23 51-21 43-22 90-1 21-1 44-2 52s-1 22-2 32c0 15 0 17 1 19 3 5 6 5 61 4 33 0 74-1 117 0 97 1 100 2 248 1 127 0 138 0 146-2m-647-6c49 0 54 0 55-1 2-3-2-10-12-19-9-8-13-11-37-25-6-4-14-9-17-11-4-3-11-7-17-10-8-4-14-8-19-12-11-10-38-38-39-41-1-4-1-15 0-18 1-1 3-8 5-15s4-16 6-20c2-7 2-9 2-22 0-24-3-33-15-44l-7-7v-10c1-5 1-14 2-20 1-18-5-33-11-32-3 1-15 16-18 22-1 2-2 7-3 16 0 15-1 17-3 18-3 1-17 4-23 4-8 0-12 2-19 8-5 5-7 8-11 17-6 12-8 21-11 37 0 7-2 17-2 22-1 5-2 12-3 14-2 13-5 21-12 28-6 5-7 6-15 6-6 1-9 3-11 8-2 4-1 6 6 15 11 16 11 15 12 24 1 11 4 19 17 38 2 1 7 7 12 11 10 10 15 12 27 14 4 0 12 2 18 3 19 2 30 3 60 2h83z"/></svg>