<svg xmlns="http://www.w3.org/2000/svg" width="1344" height="566"><path d="M0 283V0h1344v566H0V283m340 277c36-1 84-1 117 1 26 2 57 0 62-3 3-1 5-1 17 0 15 1 114 1 192 1 25 0 64 0 87 1s44 1 46 1c3-1 6-2 7-3 2-2 2-3 1-9-1-14-4-21-13-35-20-29-23-31-66-45-29-10-47-15-60-18-13-2-18-4-26-15-13-15-17-21-17-25 0-2 2-5 7-11 8-9 17-21 20-28 3-5 8-19 16-39 1-4 3-11 5-17 1-5 3-10 3-11 1-1 2-7 4-13s4-16 5-21c6-20 8-59 8-111 0-30 0-31-2-43-6-28-15-48-32-74-14-22-26-33-42-37-7-1-14-2-103-2h-94l-8 3c-6 3-8 5-18 14-12 13-19 24-27 41-9 19-11 28-13 57-2 15-4 28-8 41-6 23-6 27-6 55 1 15 1 31 2 35 1 5 1 16 1 26 1 12 1 19 2 22 2 6 8 18 19 39 5 8 9 17 10 21 1 3 3 7 3 8 1 1 1 4 1 6 0 3-1 6-10 17-16 21-25 32-29 35-5 3-28 12-44 16-5 2-22 6-38 10-42 11-83 26-95 36-7 4-15 15-20 25-5 9-5 18-2 30 4 15 7 18 22 20 11 1 58 1 116-1z"/></svg>