<svg xmlns="http://www.w3.org/2000/svg" width="1344" height="566"><path d="M0 283V0h1344v566H0V283m868 279c27-1 87-1 134-1 79-1 119-2 124-3 3 0 4-3 2-7-3-7-8-11-38-37-6-5-15-13-18-18-9-11-13-15-19-18-6-4-23-16-31-23-3-2-9-6-14-8-8-5-14-10-20-19-5-5-12-15-14-20-1-2-5-7-9-12-4-4-9-11-12-15s-8-11-11-15c-13-15-17-23-25-43-6-17-8-23-8-26 1-1 4-4 8-7 12-10 17-17 24-34 2-7 5-23 8-48 3-34-1-67-12-96-8-20-15-30-32-46-10-10-11-10-26-18-29-14-43-18-64-20-25-2-39 1-75 14-10 3-24 8-29 10-13 4-23 9-33 16-21 17-35 38-40 65-2 7-2 13-2 24 0 22 3 39 12 68 3 8 5 24 5 37 0 15 4 31 24 88 4 9 7 18 8 21 2 8 9 21 14 26 3 4 7 7 13 10 8 4 11 6 10 8-1 0-17 9-37 19-40 19-48 24-58 34-15 15-19 33-14 62 3 18 4 21 9 24 4 1 29 3 68 5 14 1 36 2 49 2 27 2 58 2 129 1z"/></svg>