<svg xmlns="http://www.w3.org/2000/svg" width="1344" height="566"><path d="M0 283V0h1344v566H0V283m1091 277c7 0 10-1 11-2 2-2-1-13-7-26-4-8-7-12-14-19-11-13-18-21-24-29-5-6-15-14-34-29-6-5-15-12-19-17-19-18-41-36-51-42-2-2-7-5-10-8-10-9-20-15-26-18-6-2-9-2-22-3-21-1-26-3-36-13-8-9-11-16-13-28-2-14 1-40 6-51 2-3 6-8 10-13 12-15 22-30 25-44 3-10 3-18 0-30l-2-10 2-16c3-22 3-30 2-43-1-12-5-25-11-35-12-19-42-41-72-49-11-3-23-5-42-4-20 0-29 1-42 5-14 5-34 18-47 31-8 10-12 17-17 29-3 9-3 12-4 24-2 25-7 72-10 94-4 19-4 22 0 38 5 28 9 40 17 61 10 27 13 31 25 41 7 5 9 9 7 12-1 2-7 6-19 12-44 23-53 28-85 54-23 18-33 28-42 39-19 24-22 28-27 37s-14 32-15 42c0 4 0 5 2 7 3 2 3 3 22 3 27 0 132-2 165-3 14 0 57 0 94 1 38 1 101 1 140 2 39 0 81 1 94 1 21 1 49 1 69-1M90 559c11 0 32-1 47-1 23-1 29-1 30-2s2-6 2-13c1-12 1-21-3-37-4-13-7-31-9-50 0-8-2-24-4-36-6-42-11-59-22-81-13-24-28-39-58-57-20-12-22-14-20-24 0-6 1-9 8-20 4-7 4-13 1-21l-2-6 2-4c1-2 3-5 6-7 4-4 7-10 9-18 1-4 3-7 6-10 9-11 10-18 4-36-2-6-6-17-8-24l-4-12-1-22c-1-21-1-22-3-28-2-3-5-10-8-14s-7-11-9-16C49 9 45 6 38 4 31 3 8 3 4 4L1 5v551l2 2c1 1 4 2 7 2 7 1 59 0 80-1z"/></svg>