<svg xmlns="http://www.w3.org/2000/svg" width="1344" height="566"><path d="M0 283V0h1344v566H0V283m295 276c3-1 6-1 10 0s43 1 113 1h169c27 1 112-1 121-2 9 0 9 0 12-3 2-3 2-4 2-16-1-19-2-23-16-62-3-8-8-20-11-25l-5-10v-10c0-10 0-10-3-13-2-2-7-5-12-7s-20-9-34-15-30-13-36-16c-20-8-33-14-36-18-3-3-3-4-3-8 2-14 12-48 19-63 5-10 6-17 7-36 0-16 0-19-3-36-1-10-3-21-4-24 0-6-6-33-10-46-5-18-8-27-13-41-11-29-20-42-41-59-7-6-13-10-25-16-21-10-34-15-50-16-16-2-21-1-37 7-8 4-17 8-21 9-19 8-31 17-39 29-9 14-19 39-24 61-7 28-14 78-16 112-1 9-1 20-2 26-3 29-3 40-2 57 1 9 2 19 3 21 0 3 2 11 4 18 3 12 3 13 2 16-2 3-11 8-22 12-5 2-12 4-14 5-10 3-17 6-26 13-21 14-38 25-44 29-19 9-22 13-23 25-1 7-2 12-10 33-2 5-3 10-4 13-1 2-2 7-2 10-1 3-3 13-4 21-2 13-2 17-1 19 2 7-1 7 66 7 38-1 63-1 65-2z"/></svg>