<svg xmlns="http://www.w3.org/2000/svg" width="1344" height="566"><path d="M0 283V0h1344v566H0V283m766 276c72 1 117 0 120-2 4-2 6-9 8-24 1-12 1-16 0-25 0-7-1-20-1-30 0-17 0-18-3-31-2-7-5-18-7-23s-5-16-7-24c-6-22-7-25-10-36-1-4-3-10-4-12 0-2-2-7-3-10-2-4-3-10-4-13 0-3-2-11-4-18-10-33-22-54-43-74-7-8-10-10-19-15-8-4-10-6-13-10-3-5-5-12-6-18-1-2 0-10 1-17 4-24 2-40-5-54-5-9-15-21-23-26-14-8-36-9-51-2-4 2-11 4-18 6-2 1-6 3-9 6-9 7-24 24-28 31-7 14-6 39 2 55 4 8 4 9 4 17s0 9-3 15c-6 9-6 9-9 22-2 7-7 17-11 26-4 8-8 18-10 22-5 11-10 20-28 44-4 5-17 19-30 33-19 19-24 24-34 31-19 12-19 12-33 12-6 0-16-1-22-2-9-1-10-1-14 0-2 1-12 4-22 7-21 5-21 5-23 14-1 8 1 13 5 22 6 13 10 16 28 18 5 0 11 1 13 2 6 2 17 0 26-4 4-2 10-4 13-4 3-1 8-2 10-3 12-5 30-6 36-3 2 1 6 5 9 9 2 3 7 9 9 11 2 3 5 6 10 8 11 6 24 11 28 11 5 0 18 2 26 4 2 1 8 3 13 5 7 3 8 5 10 7 0 2 1 5 1 6 0 2 2 5 6 9 3 3 8 9 11 12 9 10 13 12 32 13 9 0 17 1 18 2s6 1 10 1c4-1 26-1 48-1z"/></svg>