<svg xmlns="http://www.w3.org/2000/svg" width="1344" height="566"><path d="M0 283V0h1344v566H0V283m338 277c19-1 40-1 180-1h96c12 0 36 0 53 1 75 2 72 2 95 0 15-2 24-2 31-2 5 1 75 1 155 1 131 0 146 0 150-1 7-3 11-2 17 0l5 3h46c55 0 71-1 75-6 1-1 1-2-2-5-2-5-8-19-11-32-2-7-4-22-7-43-3-19-7-23-29-31-7-3-14-8-18-14-4-8-19-48-20-58-1-5-11-50-13-59-4-15-7-39-9-71-2-35-4-47-9-55-4-7-12-9-16-5-2 2-4 5-5 9-2 7-3 9-5 6-1-3-7-20-9-28-2-11-6-20-9-23-5-6-13-6-20-1-3 3-3 4-3 8 0 5-2 10-3 8-1 0-2-3-3-6-2-7-7-11-13-13-8-2-15 3-20 17-2 5-5 9-9 13-7 8-14 22-17 34-3 14-4 26-3 46 1 10 1 25 1 34 0 18 1 23 5 34 6 15 35 66 55 96 7 11 16 26 19 32 6 13 12 28 13 34 1 2 4 9 11 26 8 22 12 36 10 39-3 3-13-1-23-11-27-24-36-31-66-50-6-4-13-9-21-17-13-12-12-11-24-37-7-15-9-18-26-32-16-15-33-27-41-31-9-4-6-4-64-2-22 1-42 1-43 1-6-2-7-3-7-11 0-9 3-24 6-32 2-5 3-7 9-12 10-9 12-11 14-18 2-6 2-8 1-23 0-23-5-47-12-64-2-4-4-10-5-12s-5-11-9-20-10-21-12-26c-12-27-16-35-41-72-20-30-40-48-67-57-5-2-12-4-17-6-16-6-37-7-62-4-8 0-16 1-19 1-4 0-10 1-14 1-36 7-38 7-47 12-13 5-25 13-38 25s-20 21-28 38c-16 29-21 47-21 67 0 7 0 8 3 13 9 17 9 18 9 26 0 4-1 15-2 24-2 23-2 30 2 42 8 21 8 21 7 35 0 10 0 14 2 23 3 16 7 23 27 47 14 17 17 23 17 33 0 15-4 22-20 36-10 8-21 14-25 12-2-1-3-2-13-26-7-17-11-22-19-23-5 0-10 3-13 10-4 8-5 13-6 39 0 19-1 23-2 27-2 3-2 4-4 4-4 0-7-5-12-21-7-19-12-48-14-85-3-34-4-42-6-47-2-7-4-11-8-13-7-4-12-2-15 6-2 4-6 26-6 37-2 15-4 35-5 38l-1 2-2-2c-1-1-2-4-3-6-1-3-2-8-3-12-1-3-4-13-6-22-10-35-11-39-15-43s-7-6-12-6c-6 0-9 3-11 7-1 5 0 34 3 47 1 8 3 20 5 39 1 5 2 12 3 15 1 6 1 7 0 8s-2 1-3-1c-1-1-2-3-2-3 0-1-2-5-3-9-2-4-4-9-5-11 0-2-2-7-3-11-2-3-4-11-6-16-5-13-7-17-11-21-7-5-14-5-19 1-2 2-2 3-2 11 0 10 0 15 7 43 4 14 8 28 16 50 4 13 4 17-1 14-2-2-18-21-18-22 0-2-19-20-23-23-13-6-21 1-18 14 2 9 11 27 21 41 5 7 9 13 10 14 1 2 7 10 15 20 7 10 15 22 19 26 7 11 14 19 20 22 4 2 7 3 18 3 14 1 16 1 46-1z"/></svg>