<svg xmlns="http://www.w3.org/2000/svg" width="1344" height="566"><path d="M0 283V0h1344v566H0V283m287 278c17-2 132-2 164-1 31 1 57 0 64-2 4-2 5-2 18 0 12 2 17 2 55 1 28-1 52-1 69 0 15 1 52 1 83 1 30 0 69 0 86 1 37 1 37 1 37-11 0-7-4-18-8-24-2-2-6-8-8-12-11-16-20-23-37-30-18-7-64-22-79-25-8-2-17-4-19-5-7-2-27-25-29-33 0-2 1-5 6-11 2-3 8-13 13-21 8-13 11-19 13-27 2-6 5-14 7-18 7-18 21-62 23-73 1-7 4-33 5-55 1-10 2-25 2-32 4-53-5-91-31-132-10-14-15-21-25-29-11-10-19-15-29-17-11-1-167-3-177-1-10 1-17 6-30 16-13 12-20 21-29 38-10 22-14 34-17 64-2 20-4 27-10 53-5 16-5 19-6 32 0 9 0 19 1 22 0 4 2 13 3 19 1 9 1 13 0 23-2 22 2 38 12 56 9 16 13 24 17 38 4 11 4 12 3 15-3 7-30 43-35 48-2 1-6 4-10 5-10 5-42 15-64 21-22 5-38 10-53 15-16 6-39 15-46 19-11 5-25 22-30 34-5 11-1 30 7 35 6 4 20 5 49 4 13 0 28-1 35-1z"/></svg>