<svg xmlns="http://www.w3.org/2000/svg" width="1344" height="566"><path d="M0 283V0h1344v566H0V283m770 199c2-1 18-5 25-6 2-1 7-2 9-3 3 0 10-2 16-3 5-2 12-4 16-5 7-2 14-4 21-5 6-1 38-2 49-1 8 1 9 1 11-1s2-3 2-16c-1-8-1-17-2-20-2-13-4-32-5-50v-21c0-2-5-7-10-10-3-3-26-11-29-11-1 0-4-2-8-4-7-4-12-9-12-11 0-3-6-10-9-11-3-2-4-6-2-8 8-6 8-6 7-11 0-2-1-9-2-15-3-26-5-46-9-65-14-71-22-94-44-121-3-5-8-10-10-12-11-11-40-27-53-30-15-3-30-1-41 6-3 2-6 2-13 3-21 2-31 8-42 22-12 16-18 31-24 59-2 7-4 14-4 18-1 4-2 10-3 14-1 3-1 8-2 10 0 3-1 20-2 38-1 34-1 44 2 80 1 12 1 12-1 14s-2 2-11 1c-5-1-15-1-24-2-15 0-15 0-19 2-3 2-9 8-15 14-9 10-29 27-40 34-2 1-9 6-15 9-6 4-14 9-17 12-9 8-16 10-25 10-12 0-12 1-26 32-9 21-11 24-14 38-1 4-3 10-4 12-2 4-2 4-1 6 3 3 13 2 24-2 4-1 12-4 16-4 5-1 13-3 19-4 10-2 13-2 26-2 10 1 17 1 21 0 2-1 8-1 12-2 3 0 9-1 13-2 7-1 15 0 20 3 11 5 53 11 79 11h36c27 0 30 0 40 2 5 1 11 2 12 2s5 2 8 4c6 3 6 3 14 3 5-1 11 0 14 0 6 1 23 1 26-1z"/></svg>