<svg xmlns="http://www.w3.org/2000/svg" width="1344" height="566"><path d="M0 283V0h1344v566H0V283m205 279c2-1 3-1 4-1 2 2 300 1 431-1 67 0 62 1 62-10 0-3 1-9 1-13 2-9 0-14-5-19-4-4-25-17-46-29-8-4-18-11-24-14-7-4-14-9-16-10-12-7-19-12-21-15s-2-6-2-63c0-32 0-63-1-68 0-5-2-19-3-30-1-21-4-44-6-55-1-4-3-13-4-21-4-19-6-28-11-38-7-14-16-27-27-38-19-18-35-26-63-33-16-4-23-4-34-3-17 2-46 13-69 27-7 5-13 8-14 8-2 0-4-3-8-11-7-15-20-25-37-30-13-4-32-5-46-2-12 3-25 9-31 15-8 9-11 18-14 40-2 21-1 34 6 54 4 13 5 16 5 23 0 4 0 8-1 9s-3 3-6 5c-4 1-7 4-11 8-3 4-6 8-9 10-2 2-4 6-6 8-3 7-14 18-27 29-11 9-26 25-36 37-9 11-12 20-17 54-2 11-4 27-5 35-2 10-2 18-2 31 0 20 0 22 8 51 8 30 12 40 16 46s5 7 12 10c5 3 11 5 14 5 7 1 39 0 43-1m684-1c5-1 38-1 73-1 34 0 65 0 69-1h34c37 1 48 0 61-4 18-5 19-9 12-33-9-34-8-28-8-55 0-31-1-39-13-75-7-22-10-32-10-35 0-4-3-16-15-53-4-11-8-20-15-29-6-8-10-11-28-23-8-4-14-9-15-10-3-4-2-6 6-11 5-3 8-5 14-15 8-11 15-22 19-30 2-5 2-7 2-22 0-9 0-28 1-43 1-22 1-26-1-31-2-10-7-17-14-24-11-11-26-16-48-18-15-1-22 0-33 5-12 5-36 27-40 36s-4 16-4 45c1 34 0 38-7 50-5 9-15 20-22 24-2 2-8 4-11 5-10 3-12 3-24 9-17 8-50 28-67 41-22 18-31 38-42 93-13 65-15 77-15 104v25c1 1 1 7 2 13 1 10 1 12 4 18 6 10 24 32 28 35 7 3 18 7 28 8 4 1 21 2 37 2s29 1 31 1c1 0 6 0 11-1z"/></svg>