<svg xmlns="http://www.w3.org/2000/svg" width="1344" height="566"><path d="M0 283V0h1344v566H0V283m499 278c4-3 5-12 3-21-1-3-2-7-3-9 0-2-1-5-2-7 0-1-2-6-3-11-11-44-18-54-50-75-8-6-16-11-18-12-5-3-7-5-8-9 0-3 0-4 5-8 3-4 6-9 11-18 5-11 6-13 12-19 5-4 9-6 14-8 8-4 15-8 17-12 1-2 1-8 1-30l1-28-5-8c-6-12-9-22-11-34-6-31-15-48-30-55-11-5-41-10-55-10-25 0-46 9-64 27-9 9-14 18-17 31-2 8-3 15-5 57-1 10-2 27-3 39 0 13-2 33-3 47 0 13-1 33-2 42l-1 18-6 14c-8 18-11 28-13 42 0 6-2 16-4 22-4 15-5 31-2 33 1 1 9 2 48 2h50c1 0 33 1 71 1 61 0 70 0 72-1m375-3c35-1 64-1 122 0 42 1 82 1 89 0 11 0 12-1 15-3 4-3 7-12 8-26 1-6 1-12 2-13 0-1 1-11 1-22 1-11 2-25 3-31 2-22-1-47-7-63-4-9-13-29-17-36-15-27-43-64-57-76-13-11-24-22-26-25-1-2-3-7-4-11 0-4-2-8-2-9-1-2-6-4-14-4-11-1-15-5-20-20-4-12-4-19 0-32 2-6 3-12 4-14 0-2 1-6 2-8 0-2 1-7 2-11 1-3 3-10 5-16 5-14 10-36 10-41 0-10-5-32-9-44-6-16-11-22-23-28-8-5-13-6-32-11-16-3-45 0-64 7-4 2-8 3-9 3-2 0-16 8-22 13-10 8-14 12-17 17-2 4-2 6-2 17 0 8 0 13-1 17-5 16-7 25-8 37-1 9-3 16-5 21-9 26-9 26-3 38 2 5 5 13 7 19 3 10 7 21 11 30 3 7 9 12 18 15 4 1 7 2 8 2 3 0 16 7 19 11 6 6 9 12 9 16 0 3-1 4-7 10-4 4-10 9-12 12-3 3-9 9-14 13-9 10-11 15-13 27-1 8-4 19-8 26-2 5-14 35-17 43-1 3-3 10-4 14-2 5-4 11-4 13-1 2-4 11-6 21-2 9-5 19-6 23-4 17-13 67-13 73 0 4 4 6 10 7 8 1 49 0 101-1z"/></svg>