<svg xmlns="http://www.w3.org/2000/svg" width="1344" height="566"><path d="M0 283V0h1344v566H0V283m604 277c36 0 110 0 165-1 102 0 103 0 103-3 0-1-3-4-6-7-6-6-15-18-26-33s-15-23-16-30c-3-13-6-21-18-48-4-8-7-17-8-20-2-6-7-19-12-26-7-11-12-15-24-18-16-3-24-5-48-17-9-4-15-8-15-11 0-2 4-10 10-20 10-19 14-23 30-31 12-6 18-12 20-19s4-38 4-56c-1-13-1-14-4-24-5-13-8-21-14-39-9-28-15-42-23-55-12-17-18-21-42-28-13-3-37-4-46-2-8 2-45 16-57 23-12 6-31 27-38 41-4 8-13 21-21 30-2 4-7 10-10 14-12 18-31 41-37 46-2 1-8 7-15 13-12 13-21 20-34 29-9 6-23 19-30 29-7 9-7 13 1 33 10 27 13 30 36 40l8 4c2 2 5 4 7 5 5 2 18 7 24 7 16 3 19 8 12 18-7 11-16 29-18 36-3 9-8 26-16 44-23 60-24 63-24 67s1 7 4 8c2 1 14 2 49 2h56c5 0 38 0 73-1z"/></svg>