<svg xmlns="http://www.w3.org/2000/svg" width="1344" height="566"><path d="M0 283V0h1344v566H0V283m626 275c7-3 10-6 14-10 5-6 5-6 11-6 22-3 32-6 37-10 6-6 15-29 15-38 0-2-1-5-1-8-1-2-1-14-1-30l-1-26-3-7c-4-10-5-16-2-33 2-20 3-49 0-62 0-7-2-13-3-15-3-6-18-19-36-31-4-3-9-8-12-10-6-6-6-9-2-17 1-3 4-9 6-12 3-8 5-10 11-12 10-3 13-8 14-26 0-7 1-17 3-23 2-13 3-17 0-24-2-6-5-21-6-36 0-12-3-25-6-32-4-6-11-13-20-18-9-4-23-9-33-11-14-3-40 1-55 9-10 5-19 14-25 26-7 12-8 15-10 31-1 7-3 20-5 28s-3 18-4 23c-1 4-2 10-3 12 0 2-2 11-4 19-1 9-3 15-4 17-3 4-12 8-24 10-8 1-11 2-17 4-4 2-10 5-13 5-7 2-12 6-17 14-3 5-16 17-21 19-3 2-5 6-6 12-2 7-4 8-11 4-5-3-7-2-17 5-19 12-45 36-49 44-1 2-3 10-5 18-3 14-7 29-10 39-1 4-1 8-1 14 1 7 1 10 5 18 2 6 6 13 9 16 4 6 6 7 20 16 22 12 25 16 35 36l7 14 1 21c0 18 1 21 2 23 4 3 21 4 32 1 7-1 9-1 29 0 28 2 69 2 77 1 4-1 7-1 9 0s10 1 17 1 14 1 15 1c2 0 13 1 26 1h23l9-5z"/></svg>