<svg xmlns="http://www.w3.org/2000/svg" width="1344" height="566"><path d="M0 283V0h1344v566H0V283m796 278c14-1 79-1 144-1 116-1 153-2 160-4 4-2 7-5 7-7s-6-20-13-39c-2-5-5-15-8-23-8-22-11-27-23-41-8-8-11-12-18-24-3-5-7-12-22-34-7-12-10-18-13-27s-4-11-1-14 23-10 42-14c6-1 13-3 14-4 4-3 7-9 9-23l1-12-5-14c-3-9-6-18-7-22-3-25-8-37-18-47-8-7-23-17-35-22-4-3-15-8-24-12-23-12-29-18-36-39-8-25-23-58-33-72-15-23-28-35-50-47-23-12-26-13-74-14-41-2-51-1-64 4-28 11-45 22-64 43-12 12-19 23-29 44-6 13-18 30-26 40-5 4-7 10-9 17-2 8 0 17 7 31s13 28 18 41c4 10 15 32 18 35 1 1 4 3 6 5 8 4 17 12 21 19s5 12 7 27c0 8 1 15 2 17 2 6 7 12 13 16 3 2 15 12 26 23 29 28 30 30 21 49-2 5-6 13-8 18-2 7-5 10-12 18-14 17-18 25-27 57-7 23-11 44-11 47 1 1 2 3 4 4 5 3 50 3 110 1z"/></svg>