<svg xmlns="http://www.w3.org/2000/svg" width="1344" height="566"><path d="M0 283V0h1344v566H0V283m513 80c5-2 10-3 11-3s5-2 10-4l8-4 21 1c21 2 30 3 40 5 2 1 18 1 35 2s33 1 36 2c4 1 11 1 17 1 8 0 11 0 17-3 8-2 12-3 20-2 4 1 8 1 16-1 6-1 14-2 18-3 5 0 12-1 15-2 4-1 9-2 11-2s5 0 7-1c7-3 21-4 36-4 18 0 19 0 18-8-1-3-2-12-2-21-1-18-1-24 4-30 2-2 3-5 4-7 2-5 5-6 20-6 16-1 19-2 20-6s0-103-1-109c-1-3-2-10-3-16-2-21-11-49-17-60-4-7-15-18-23-23-4-2-11-6-16-8-8-3-9-3-21-3-10 0-14 0-24 3-15 4-22 6-28 11-12 7-21 22-25 38-1 7-1 11-1 28 1 15 1 22 0 30-3 13-2 17 1 38 2 17 2 20 1 33-1 18-2 19-9 19-3-1-21-1-41-2h-35l-11 5c-6 3-14 7-17 8-4 1-8 4-12 7-3 3-6 5-7 5l-6 2c-4 3-5 3-10 2-3 0-7-1-9-1-3-1-6-1-11 0-9 1-10 2-16 7-3 2-7 5-11 7-5 3-7 3-17 4-20 2-23 2-25 4-1 2-1 2 2 5l3 4-2 10c-2 5-5 14-7 18-2 5-4 11-5 15s-3 9-4 11c-1 4-1 5 0 7 2 2 13 1 25-3z"/></svg>