<svg xmlns="http://www.w3.org/2000/svg" width="1344" height="566"><path d="M0 283V0h1344v566H0V283m252 277c18 0 36-1 46-2 9 0 16-1 17-1 2 2 128 1 180-1 29-1 80-1 142 1 24 1 44 1 45 0 9-2-7-35-27-55-4-4-10-7-26-12-6-2-21-9-33-14-21-10-27-13-51-21-6-2-14-6-18-8-8-5-11-9-10-14 1-6 23-49 28-56 6-7 8-8 24-10 33-3 43-6 51-14 7-7 8-11 9-37 1-18 2-25 4-33 6-28 8-38 8-50s-1-16-7-39c-1-5-3-14-3-19-1-5-2-17-3-25-1-11-2-22-2-34 0-29-4-46-15-70-5-10-6-11-15-20-13-13-21-17-40-21-8-1-17-1-76-1-74 0-100 1-108 4-10 4-32 24-45 41-17 24-27 51-47 135-4 15-10 37-14 49-9 31-27 77-37 98-2 3-6 11-8 16-7 16-21 40-43 71-12 17-14 21-13 23 0 2 7 4 20 6 5 1 24-5 35-10 14-7 18-6 17 4-1 7-9 33-12 38-5 8-16 23-22 31-3 4-9 11-12 15s-7 9-8 11c-5 5-8 10-8 13 0 4 4 8 9 9 4 1 30 3 34 2h34z"/></svg>