<svg xmlns="http://www.w3.org/2000/svg" width="1344" height="566"><path d="M0 283V0h1344v566H0V283m418 278c2-1 29-1 59-1 30-1 72-1 93-1 20-1 47-1 60 0h58c57-1 111-1 145 0s49 1 56-3c7-3 18-14 19-18 2-5 1-23-1-34-1-5-1-12-1-15 1-5-2-20-6-26-2-5-18-21-26-27-4-3-11-8-16-11-9-5-15-9-29-21-4-4-12-11-18-16-5-4-13-11-18-16-7-8-9-10-15-22l-7-12-2-18c-4-26-5-33-3-37 1-2 9-10 18-19 14-14 15-16 20-25 2-5 6-11 8-13 4-6 7-13 7-18 0-4-3-12-12-25-8-12-9-13-14-16-4-1-4-1-13 1-5 1-9 2-11 2-3 0-5-3-5-7 0-10-11-14-23-8-3 1-7 4-11 5-3 2-11 7-18 11-15 7-17 7-28 3-15-5-22-4-26 2-3 6-6 6-13 2-7-3-18-13-20-18-2-4-4-15-5-34-1-37-11-66-26-83-23-24-64-35-104-28-10 2-32 10-44 16-6 3-16 12-23 19-10 9-19 29-21 45-1 5-1 13 0 23 1 25 1 30-2 37-3 8-3 16-1 23 1 5 13 27 18 34 6 9 10 14 14 17 2 1 5 4 6 6 2 5 8 29 8 35s-5 18-11 25c-4 4-7 8-13 15-7 9-17 20-21 23-3 2-9 6-13 10-9 9-22 17-36 23-3 1-10 6-15 10-9 7-15 11-24 16-14 8-21 28-18 55 1 6 2 16 3 21 0 5 1 12 2 14 0 3 1 9 2 14 3 12 4 22 3 35v12l4 7c2 4 5 7 6 8 7 4 88 6 104 3z"/></svg>