<svg xmlns="http://www.w3.org/2000/svg" width="1344" height="566"><path d="M0 283V0h1344v566H0V283m588 276c29-1 59-1 68-1 8-1 32-1 54-1 24-1 55-1 82 0 71 2 170 3 229 3 54 0 56 0 58-1 1-2 2-4 2-5 0-6-7-18-14-27-11-13-15-18-20-25-6-7-17-17-45-38-4-3-12-10-18-16-23-21-70-58-82-64-5-2-7-2-21-2h-15l-9-5c-14-6-19-12-26-31-3-10-4-19-2-33 3-15 7-27 14-36 7-8 17-27 21-35 5-13 6-28 4-41-1-4-1-8-1-15 3-35 3-38 2-48-4-31-17-51-43-68-19-13-36-19-58-22-11-1-47-1-56 1-29 6-57 28-71 54-4 10-7 22-8 40-1 9-2 24-3 33-2 10-3 21-3 25s-1 16-3 25l-2 18 1 15c4 34 12 61 25 86 5 10 6 11 15 17 19 15 20 20 6 29-11 6-31 18-41 23-17 9-58 41-78 60-6 6-14 16-21 25-14 19-15 21-23 35-5 10-6 13-6 17 0 9 4 10 26 9 6 0 34 0 62-1z"/></svg>