<svg xmlns="http://www.w3.org/2000/svg" width="1344" height="566"><path d="M0 283V0h1344v566H0V283m792 278c7-1 93-1 199-1 42 0 42 0 45-3 2-2 2-3 2-9-1-11-5-21-13-32-7-11-12-19-13-24-1-6-6-12-16-16-16-8-34-16-38-18-9-3-25-10-34-14-11-6-16-10-16-15 0-4 8-27 16-46 7-17 10-28 13-43 1-9 1-17 1-63 0-57-1-89-5-111-3-19-9-43-13-54-5-14-15-34-22-43s-21-22-31-29c-25-18-63-28-84-22-6 1-9 1-18 1-9-1-12-1-19 1-22 5-56 30-72 53-12 18-24 51-34 88-2 10-5 24-7 31-10 40-15 75-17 132-2 38-5 57-12 65-4 5-21 13-40 19-6 1-15 5-20 7s-10 4-12 5-8 3-12 6c-10 6-38 20-46 23-4 1-11 3-16 5-13 4-14 4-18 10-7 7-7 10-6 18 1 4 3 8 3 10 4 7 3 18-4 35l-4 12c-2 4-3 9-4 11-1 5-1 5 1 7 1 2 4 3 5 3 5 2 45 2 53 1 9-1 79-1 124-1 15 1 38 0 52 0 17-1 30-1 40 0 38 3 74 3 92 1z"/></svg>