<svg xmlns="http://www.w3.org/2000/svg" width="1344" height="566"><path d="M0 283V0h1344v566H0V283m370 277c30-1 194-2 229 0 33 1 210 1 219 0 6-1 8-2 10-4l4-3-1-16c0-26-2-33-16-47-8-8-12-11-29-24-11-7-16-11-30-20-29-18-32-20-35-23-4-5-16-23-16-24 0-4 13-26 20-35 5-6 10-12 11-14 2-2 8-9 13-15 6-6 12-13 14-15 9-14 32-62 36-79 10-33 13-70 8-93-4-20-11-36-22-54-19-27-34-39-58-46-16-5-19-6-26-9-20-8-48-11-68-7-36 7-70 31-87 59-5 8-12 28-17 48-7 23-11 32-17 40-11 12-15 23-17 41-1 17 1 22 17 53 5 10 6 13 8 21 1 8 1 12 0 18-1 9-2 11-7 14-5 2-13 9-27 22-26 25-39 35-56 39-9 2-17 5-30 11-5 2-20 8-35 13-14 6-28 11-31 12-24 10-34 20-43 43-1 4-4 11-6 16-5 12-8 24-13 46-5 21-5 28-2 31 1 1 4 2 6 2 4 1 68 0 94-1z"/></svg>