<svg xmlns="http://www.w3.org/2000/svg" width="1344" height="566"><path d="M0 283V0h1344v566H0V283m952 279c5-1 11-2 12-2 3-1 10-9 10-11 0-1 3-7 6-14 5-13 5-14 5-23 0-11-2-19-11-38-4-8-9-19-11-25-3-6-8-18-12-27-4-8-11-23-15-33-12-30-13-32-18-42-11-21-21-49-28-75-4-13-4-23-2-46 4-31 6-70 6-76-2-13-4-23-9-40-3-8-7-14-11-16-2-2-9-8-15-14-6-7-13-13-15-14-1 0-5-1-8-1-2 0-7-1-9-2-7-2-9-1-14 7-3 4-6 7-6 8-7 5-6 20 0 40 2 5 4 14 5 20l1 12-3 11c-3 11-5 16-7 16-1 0-4-3-4-5 0-3-7-9-13-11-4-1-5-1-9 0-3 1-4 3-6 6-2 5-2 6-2 20 0 11 0 15 2 18 1 3 2 8 3 12 1 17 9 34 22 49 11 12 19 31 28 60 8 26 11 41 8 44-2 2-5 0-16-7-5-4-12-8-14-9-6-3-21-8-24-8-4 0-32-7-40-10-9-2-21-4-38-6-14-2-18-3-34-13-14-10-15-11-16-15-2-7-1-11 7-33 1-4 3-12 5-19 2-6 4-14 5-16 3-6 3-9 1-34 0-8-2-19-3-24s-2-14-3-32c-2-42-8-66-22-87-8-12-24-23-41-29-11-4-31-8-44-9-35-1-71 14-97 42-7 8-11 14-14 25-2 8-2 11-3 39 0 25 0 32-1 37-1 4-2 10-3 14 0 8 0 10 3 20 10 29 12 34 22 49 5 7 12 20 16 29 8 15 8 16 8 21-1 2-2 7-4 10-5 10-15 25-21 31-6 5-19 14-25 16-3 1-18 12-29 20-3 3-9 6-12 8-6 4-15 11-25 20-5 5-10 8-15 10-12 5-15 7-17 13-1 3-2 8-2 12-1 3-2 8-3 11-2 8-2 33 1 50 1 8 1 19 1 35 1 25 1 26 6 29 2 1 25 1 113 1h125c8 0 26 0 39-1 18-1 34-1 58 0 23 1 50 1 80 1 123-2 120-2 140 0 23 2 42 2 56 1z"/></svg>