<svg xmlns="http://www.w3.org/2000/svg" width="1344" height="566"><path d="M0 283V0h1344v566H0V283m815 279c8 0 17-1 18-2 4-2 4-8 3-28-1-9-3-21-4-25 0-4-1-10-2-13 0-4-1-8-1-10-1-1-2-6-2-10-4-19-9-35-14-45-7-12-21-26-37-37-5-3-11-7-13-9l-6-4c-1 0-7-4-14-8-8-4-18-10-24-13-16-9-28-18-34-24-3-4-12-16-20-27l-13-20v-6c1-10 8-29 12-32 3-3 5-8 6-21 1-15 4-32 6-35s1-6-1-11c-4-6-5-14-5-33-1-9-1-19-2-23-1-3-2-10-3-16-3-23-20-56-33-67-11-8-25-14-44-16l-12-2-6 3c-4 1-10 3-15 4-10 1-26 8-36 14-4 3-9 6-11 7-3 2-6 4-8 6-4 3-12 16-15 22-2 5-7 19-11 27-3 8-4 21-4 45 0 18 0 20-6 28-3 4-4 5-4 12 0 15 6 36 14 45 2 2 6 5 9 7 8 4 9 6 13 17 5 15 7 23 7 33 1 6 2 14 2 18 1 8 0 12-4 14-1 1-13 5-25 9-25 9-43 17-55 25-11 7-23 18-29 26-7 9-16 28-21 44-1 2-3 8-5 13s-3 9-3 10-1 7-3 12c-2 6-4 14-5 18s-3 11-4 14c-1 4-3 11-4 14-1 4-3 11-5 16-5 11-7 20-7 26 0 9-6 8 69 8 37-1 79-2 94-2 48-2 231 0 275 2 20 1 23 1 42 0z"/></svg>