<svg xmlns="http://www.w3.org/2000/svg" width="1344" height="566"><path d="M0 283V0h1344v566H0V283m752 279c7 0 19-1 37-1 14 0 37 0 51-1 18-1 31-1 50 0 31 1 64 1 77 0 19-2 20-5 9-42-8-27-9-27-8-61 0-17 0-55 1-85 1-61 1-60-6-76-8-18-29-39-60-62-10-6-18-15-19-20-1-2-2-14-2-27-1-33-3-44-11-59-11-22-18-31-30-41-4-3-10-8-14-11-12-10-23-17-35-21-8-3-28-5-47-6-15 0-18 0-27 2-21 5-34 12-54 31l-13 13-9 18c-14 28-16 35-18 63-1 7-1 14-2 17-3 12-7 15-50 37-12 7-24 13-27 15-7 5-18 17-21 22-4 6-7 19-8 31 0 15-2 27-7 48-3 10-6 23-7 30-2 6-4 14-5 18-4 14-10 46-12 56-1 16-5 27-10 31-5 5-41 23-79 41-20 8-40 13-84 17-10 1-12 1-18-1-4-1-9-2-11-3-2 0-6-1-10-2-7-1-9-1-14 1-5 1-7 1-12 0-4-1-9-2-12-4-5-1-7-2-10-1-4 0-22 9-27 14-3 2-3 3-2 4 1 2 6 3 28 4 29 2 44 3 48 5 6 2 15 2 30 0 23-3 169-1 174 2 4 2 24 3 109 3 58 0 88 1 97 1 21 2 58 2 70 0z"/></svg>