<svg xmlns="http://www.w3.org/2000/svg" width="1344" height="566"><path d="M0 283V0h1344v566H0V283m670 275c53 0 419 0 438 1h38c11-1 22-1 24-1 7 0 9-3 9-8-2-8-21-47-30-63-16-26-41-48-71-64-9-4-20-9-24-11-16-7-46-20-56-26-11-6-21-11-36-17-17-6-24-11-43-26-8-7-11-10-13-14-2-5-2-5-1-13 1-9 5-24 8-30 3-7 7-11 16-15 10-5 15-8 22-18 9-11 13-19 14-30 1-10 0-15-5-20-4-3-4-4-4-9 0-2 2-12 4-22 8-39 11-66 7-77-1-3-3-9-5-14-3-11-10-23-17-29-3-2-7-7-10-9-8-8-40-26-54-30-10-4-26-5-31-3-2 1-6 2-11 2-9 0-23 2-31 5-7 2-27 11-35 17-4 2-8 6-10 8-1 3-4 7-7 10-4 6-10 19-13 31-2 5-3 10-4 11-1 4-3 16-7 42-4 21-4 21-11 27-10 9-11 13-11 27-1 16 1 23 9 40 5 12 7 16 10 30 6 32 8 43 9 52 1 16 0 17-12 28-15 13-20 16-28 22-9 6-21 11-26 13-8 1-24 7-58 22-6 3-15 7-22 9-19 8-44 21-54 28-32 21-63 64-72 98-2 7-3 14-3 16 0 5 2 9 5 10 1 1 25 1 53 1 28-1 58-1 67 0 8 0 23 1 32 0 10 0 33 0 50-1z"/></svg>