<svg xmlns="http://www.w3.org/2000/svg" width="1344" height="566"><path d="M0 283V0h1344v566H0V283m826 277c3-1 5-6 5-12 1-3 2-9 3-14 0-4 1-14 1-22 0-7 0-20 1-27 1-8 1-31 2-50l1-36 4-7c3-6 4-10 5-15 1-7 2-7 6-10 2-2 6-5 7-7 2-3 2-4 2-12-1-9-4-16-14-34-8-13-12-25-13-38 0-6-2-14-3-19-1-4-3-10-4-14s-2-9-3-11c0-2-2-8-4-13-3-6-6-9-12-16l-8-8v-6c0-3 1-9 3-15 2-8 2-10 2-24-1-16-2-20-7-22-4-1-36 0-41 1-6 2-15 11-18 19s-4 28-2 40c3 12 3 13-3 21-9 12-12 20-16 45-5 33-5 80 0 99 2 8 4 25 5 39 0 6 1 15 2 20 1 4 2 10 2 12 1 2 2 8 3 13 8 39 9 43 5 59-7 30-9 54-5 58 3 4 14 2 17-3 1-1 2-5 3-8 1-7 4-12 8-18 2-2 6-8 9-13 2-4 6-10 7-12s4-6 5-10l3-6-1-14c-2-22-1-32 2-32 1 0 4 5 4 10 1 7 2 50 2 80 0 28 0 30 4 32 3 1 29 1 31 0z"/></svg>