<svg xmlns="http://www.w3.org/2000/svg" width="1344" height="566"><path d="M0 283V0h1344v566H0V283m726 168c5-1 15-2 22-2 13-1 16-1 27-4 10-3 14-4 19-5 3-1 8-2 10-3 30-9 33-9 52-10 14 0 19 0 28 2 15 2 15 2 14-12 0-5-1-15-2-23-1-7-3-22-3-33-1-22-2-32-5-36 0-1-4-6-9-11-7-7-8-8-15-10-8-3-11-5-11-11 0-3-1-6-2-9l-2-4c0-1 1-2 3-4 3-4 3-5 3-12 0-10-1-22-4-36-4-23-9-45-12-55-1-5-3-12-4-15 0-4-2-9-2-12-1-3-3-10-4-15-2-10-9-30-14-38-7-16-22-32-34-40-4-2-8-5-10-6-6-4-19-10-25-13-6-2-8-2-18-2-11 0-14 0-24 3-6 1-15 4-20 4-11 2-18 5-26 11s-14 13-21 26c-8 18-11 29-15 65 0 9-2 19-2 23-3 22-3 30-3 70 1 47 1 45-6 47-9 2-21 5-25 7-3 0-12 1-24 1-19 1-20 1-25 4-3 1-10 6-15 11-10 10-27 23-34 27-8 6-19 13-24 18-3 2-8 6-12 7-6 3-8 3-15 3-9 1-11 2-13 7-1 5-6 17-10 24-5 10-9 19-13 32-2 7-5 15-6 17l-1 5 2 2c3 3 11 2 24-1 6-2 11-3 16-3 3 0 10 0 15-1 5 0 14-2 20-2 6-1 15-3 19-3 4-1 11-2 14-3 4-1 10-2 12-3 7-2 18-1 29 3 4 1 11 3 15 4 4 0 9 2 12 2 6 1 33 4 44 3 6 0 13 0 16-1 15-3 63 3 76 10 3 1 5 2 7 1 1 0 6-1 11-1z"/></svg>