<svg xmlns="http://www.w3.org/2000/svg" width="1344" height="566"><path d="M0 283V0h1344v566H0V283m612 277c8-1 17-1 19-1s46 0 98 1c101 1 97 1 100-4 2-3 1-27-1-38-3-15-11-42-20-66-2-4-3-8-3-9s-2-5-4-9l-3-8v-11c1-11 1-12-1-14-3-2-33-17-41-20-2-1-10-4-16-8-7-3-16-7-20-8-14-6-30-14-32-17-3-3-3-17 0-38 1-8 2-19 3-25s2-16 3-22c4-19 2-44-4-92-1-6-2-13-2-17-2-14-7-42-11-52-7-22-12-31-27-48-14-17-29-27-56-38-21-7-28-7-50 1-5 2-11 4-16 4-19 2-28 6-40 18-10 11-16 19-24 35-13 26-23 61-29 109-1 6-3 19-5 30-7 44-7 64-2 97 4 24 2 29-13 36-3 2-8 3-14 4-4 1-9 1-10 2s-6 3-12 4c-6 2-17 6-24 10-7 3-16 6-18 7-5 2-24 12-30 15-4 3-7 9-11 21-5 14-16 37-22 47-4 6-19 37-25 54-3 7-7 16-9 19-2 4-4 10-4 14-2 8 0 11 6 13 3 2 6 2 110 3 59 0 112 0 117 1 5 0 16 1 23 1 8 0 15 0 15 1 1 1 90-1 105-2z"/></svg>