<svg xmlns="http://www.w3.org/2000/svg" width="1344" height="566"><path d="M0 283V0h1344v566H0V283m591 276c31 0 74-1 97-2 32-1 56-1 95 0 105 2 180 3 235 3 53 0 57 0 59-1 6-4 2-14-14-34-6-8-13-17-15-20-6-7-18-18-39-34-6-5-18-15-26-22-19-17-48-41-63-52-4-2-9-6-12-8-8-6-13-7-28-7-13 0-14 0-21-3-11-4-12-5-18-11-5-6-10-16-13-28-1-5-1-9-1-17 2-19 7-34 16-46 10-14 21-35 23-47 2-8 2-20 0-28-1-5-1-8 1-21 1-17 1-39 0-49-3-18-12-36-24-47-19-19-44-31-70-36-11-1-43-2-56 0-23 3-44 14-61 33-17 18-23 32-24 59 0 9-2 23-3 33-2 10-3 25-4 33-1 9-2 18-2 22-3 13-2 34 5 65 4 19 15 48 23 59 2 4 6 7 13 12 12 7 14 10 14 15 0 6-6 10-36 26-22 13-26 15-34 21-4 3-10 7-13 9-12 9-34 28-45 38-17 17-35 41-45 62-6 12-7 18-4 22 3 2 7 3 23 2 6 0 36 0 67-1z"/></svg>