<svg xmlns="http://www.w3.org/2000/svg" width="1344" height="566"><path d="M0 283V0h1344v566H0V283m516 279h29c8 1 32-1 50-3 4-1 11-1 16 0 7 0 189 1 305 1 24 0 42-2 46-5 2-1 4-3 13-18 7-10 17-21 22-23 5-3 13-2 19 2 7 5 12 6 17 5s18-10 36-23c35-26 39-28 66-34 27-5 30-7 31-21 1-7 1-11-1-27-1-11-2-22-2-25 0-6-1-8-6-19-3-8-8-16-9-18-7-11-16-20-32-32-29-22-63-52-72-65-4-5-13-15-20-22-10-11-16-17-22-26-12-18-37-55-52-78-20-29-49-65-65-79-15-14-43-30-57-34-7-2-11-2-22-2h-14l-11 4c-5 2-14 5-19 6-16 4-24 7-35 16-11 8-16 15-24 30-10 19-17 35-23 54-1 3-3 7-4 9 0 1-2 7-3 12-3 16-2 75 2 89 0 2 2 6 4 8s3 4 3 4c-2 6-2 6 3 11 3 2 6 7 9 12 3 6 5 9 8 11 7 4 8 7 8 15s-1 10-6 14c-3 3-35 16-46 19-9 2-26 9-38 14-18 8-38 15-45 15-3 0-8 3-10 8-1 2-4 6-6 9s-5 7-6 8c-3 5-12 17-17 24-6 7-9 14-11 24-1 7-4 14-17 37-14 27-22 39-33 49-10 10-28 34-28 38 0 3 3 5 7 6 5 1 35 1 62 0z"/></svg>