<svg xmlns="http://www.w3.org/2000/svg" width="1344" height="566"><path d="M0 283V0h1344v566H0V283m577 279c3-1 39-1 131-1 124 0 128-1 130-2 2-3 3-10 1-16-1-2-3-8-5-13-3-11-6-19-10-30-10-24-15-40-15-48 0-4 0-5-3-8-3-4-18-14-24-17-3-1-11-5-20-9-8-4-15-7-15-7-1 0-8-3-17-7s-18-8-19-8c-5-2-39-18-42-21-5-4-6-6-7-19-1-14 0-41 4-62 4-28 4-33-4-72-7-34-9-43-12-52-1-2-4-11-6-18-15-49-33-77-62-100-18-14-37-23-59-27-9-2-14-2-26-2-15 1-14 1-30 7-2 1-7 4-11 7-4 2-11 5-17 7-13 5-17 7-26 16-26 27-41 76-43 144-1 13-1 28-2 32 0 9 2 61 3 64 1 1 2 8 2 16 1 7 3 18 3 23 5 29 6 46 4 48-1 0-7 3-14 5-15 6-33 13-48 20-7 3-17 8-24 11-16 7-24 11-25 13-2 3-1 9 2 15 3 5 21 23 28 28 3 2 8 4 12 6s9 4 13 6c3 2 9 6 12 7 9 5 19 13 30 24 14 13 21 17 46 26 39 13 39 13 51 14 20 1 110 1 114 0z"/></svg>