<svg xmlns="http://www.w3.org/2000/svg" width="1344" height="566"><path d="M0 283V0h1344v566H0V283m919 177c1-1 1-5 2-10 0-4 2-10 3-14 11-26 11-36 1-67-5-15-5-18-2-20 2-2 3-2 9-2 10 1 17 3 23 8 7 5 10 7 15 7 9 0 13-7 11-19-1-4-1-7-1-7 0-2-10-11-16-15-3-3-13-9-22-14s-18-11-21-13c-4-5-10-15-10-19 0-1-1-4-2-8-2-10-5-23-6-33-2-14-6-24-13-30-4-4-14-9-22-12-5-2-7-7-7-17 0-6 1-9 2-13 2-5 2-6 1-15-3-13-6-21-16-30-7-7-8-8-14-10-10-3-17-3-23 1-9 6-17 17-21 31l-1 7 3 10c1 5 4 13 5 18 2 9 7 18 14 27 4 6 5 11 4 20-1 4-1 15-2 23-1 18-2 21-7 27-6 6-9 13-9 20 0 11 5 16 18 23 6 3 12 7 15 9 4 4 12 15 19 27 5 9 19 39 23 51s13 29 18 36c3 2 7 7 10 9 3 3 8 7 10 10 6 5 7 6 9 4z"/></svg>