<svg xmlns="http://www.w3.org/2000/svg" width="1344" height="566"><path d="M0 283V0h1344v566H0V283m502 275c11-1 53-1 93-2 60 0 73 0 81 1 11 2 53 2 184 0h137c42 1 43 1 40-4-1-2-3-3-4-4s-8-5-15-9c-7-5-16-11-21-14-5-2-11-6-14-8-4-2-38-19-55-27-2-1-6-3-8-5-6-5-22-25-24-30l-2-4 2-7c3-11 8-23 27-65 8-20 20-43 24-49 6-7 10-11 15-11 10-2 21-12 31-27 9-13 10-14 13-22 5-9 6-17 6-29 1-11 0-13-8-18-6-5-7-7-6-17 1-4 2-11 2-15 1-4 3-13 3-20 1-7 2-13 2-13 1-1 6-38 7-49 0-6 0-14-1-19-1-8-1-10-9-26-4-9-9-19-10-22-5-12-19-27-30-32-12-6-16-6-115-6-83 0-90 0-98 1-12 3-14 4-18 9-5 9-18 36-23 51-8 23-10 33-13 68-4 40-4 41-16 44-6 2-12 8-15 15-2 9-3 25 0 38 4 21 10 32 25 46 5 5 9 10 9 12 3 9 0 57-4 76-5 17-14 32-21 36-2 1-6 1-26 0-15-1-24-2-26-1-4 1-10 7-31 30-19 22-29 30-48 38-6 2-15 7-20 9-4 3-15 10-25 15-10 6-21 12-25 15-5 2-16 8-24 13-20 11-41 25-46 31-1 1-2 3-2 4s1 2 2 3c5 2 62 2 100 0z"/></svg>