<svg xmlns="http://www.w3.org/2000/svg" width="1344" height="566"><path d="M0 283V0h1344v566H0V283m850 279c40-1 92-2 134-1 94 0 141-2 145-6 3-2 2-9-5-27-7-21-17-41-28-58-6-7-14-21-20-30-6-10-11-19-12-20-3-4-9-16-14-25-4-8-5-15-2-19 4-5 13-7 32-8h16l3-4c4-3 5-6 8-18 2-11 2-16 0-22-6-17-7-20-10-38-2-15-4-20-8-28-4-6-15-19-20-23-2-1-6-4-9-6-2-2-9-6-14-9-15-8-19-10-27-16-14-9-19-19-24-45-3-12-7-24-14-44-12-32-37-62-62-77-26-15-41-21-67-23-25-2-43-1-57 4-5 2-15 5-23 8-25 7-29 9-52 31-15 14-23 25-33 44-5 12-8 16-19 29-6 6-9 11-10 14-1 5-1 14-1 36 1 14 1 17 3 25 2 4 4 12 6 16 3 11 7 20 11 25 1 3 4 7 6 10s7 9 11 14c14 16 16 23 18 53 2 20 3 22 14 29 4 3 8 7 10 10 3 3 8 9 12 13 11 12 19 23 23 33 5 11 5 14-1 29-7 18-9 21-18 31-10 10-15 20-22 38-2 6-5 16-7 22-4 10-4 13-4 20 0 8 0 8 2 10 5 4 31 5 129 3z"/></svg>