<svg xmlns="http://www.w3.org/2000/svg" width="1344" height="566"><path d="M0 283V0h1344v566H0V283m264 278c14-1 27-1 29-2s7-1 15 0 86 1 202 1c202 1 211 0 216-4 2-2 3-3 4-24 1-24 1-24-4-29-1-1-3-7-5-12-4-13-13-35-19-49-3-6-4-8-4-17 0-14 0-15-5-17-3-3-46-20-59-25-2 0-7-2-10-4-4-1-12-4-18-7-14-5-32-13-34-15-5-4-5-7-5-19 1-14 4-28 12-52 7-25 8-36 6-54-2-8-8-36-10-45-1-2-2-9-4-17-2-7-7-23-11-36-16-48-25-63-46-80-20-16-47-31-64-35-10-3-33-3-44 0-8 2-22 8-36 17-4 2-11 6-14 8-17 10-31 31-41 62-6 18-11 51-15 85-2 29-5 110-4 123 1 14 3 28 6 35 3 9 6 19 6 22 0 7-2 8-23 16-18 6-21 8-31 15-5 3-15 10-22 14-6 5-13 9-14 10s-6 3-10 6c-17 8-19 10-19 22-1 10-3 17-6 28-2 5-4 13-5 18s-3 13-4 18c-5 21-6 36-3 40l2 3h91z"/></svg>