<svg xmlns="http://www.w3.org/2000/svg" width="1344" height="566"><path d="M0 283V0h1344v566H0V283m444 277h89c7-1 19-1 27-1 57 1 79 0 81-3 0-1-1-2-2-3-1-2-2-4-2-8 0-2-1-5-1-6-1-1-5-3-9-5s-8-4-9-5c-2-2-6-16-6-19 0-9-7-22-22-39-3-4-7-9-9-11-1-2-6-5-11-8s-15-9-22-14c-8-5-15-10-17-11-9-4-22-13-24-15s-3-4-3-5c0-4 4-10 15-24 5-7 13-19 17-26s9-15 10-16c4-5 9-7 22-8 14-1 18-2 24-7 6-6 8-10 9-22 1-6 3-13 4-16 1-4 1-8 1-15 0-6 1-12 2-15 0-3 2-10 2-14 1-6 2-10 5-15 5-9 4-12-3-32-3-9-6-17-6-18s-1-5-2-9c-2-7-2-8-1-29 2-49 0-65-11-85-6-11-12-16-29-24-26-13-47-22-59-25-7-2-11-2-41-3-35 0-59 1-66 3-2 1-6 3-7 5-2 1-6 4-8 5-15 10-26 19-32 25-17 19-30 56-38 114-1 6-3 15-4 20 0 4-1 12-2 17s-1 9-2 9c0 0-1 8-2 18-2 10-4 23-5 29s-3 21-4 32c-4 40-6 59-11 81-6 33-7 39-5 43 3 6 10 7 25 6 9-1 11 0 11 6 0 4-2 9-9 23-6 11-15 30-20 42-6 13-14 30-18 37-10 17-11 20-11 25 0 8 8 14 22 16 12 1 56 2 74 1 10 0 52 0 93-1z"/></svg>