<svg xmlns="http://www.w3.org/2000/svg" width="1344" height="566"><path d="M0 283V0h1344v566H0V283m594 278c14 0 14 0 19-4 3-1 7-3 9-3 8-2 26-14 32-21s11-14 13-19c2-4 2-6 3-36 0-25 0-32-2-39-1-8-1-9 1-21 2-8 4-18 5-22 4-16 4-17 5-30 0-14-1-28-4-35s-13-18-35-39c-12-12-24-23-25-26-5-7-5-8 10-24 10-10 14-14 20-18 5-2 9-6 10-7 3-4 3-14 2-27 0-6-2-18-3-28-2-23-2-24-5-33-1-5-4-13-6-19-5-16-12-25-25-30-14-7-37-12-49-12-16 0-40 8-53 18-6 4-20 25-24 34-8 20-10 28-11 56-1 13-1 26-2 28 0 5-2 6-9 5-4 0-6 0-11 2-12 4-36 11-45 13-11 3-20 7-22 10-1 1-2 5-3 8 0 6-2 12-4 12-1 0-7-8-9-14-3-5-5-6-11-6-2 1-8 2-13 3-4 2-18 6-30 9-17 4-23 6-26 9-5 4-15 20-22 35s-7 20-4 26c2 4 18 20 27 26 8 7 27 19 35 23 14 7 22 14 31 29 6 8 7 11 13 45 4 22 8 31 19 39 4 2 7 5 7 6 3 4 8 30 10 48 1 15 2 17 4 19s4 3 7 4c2 0 6 1 8 2 7 2 100 4 106 3 1-1 4 0 6 0 5 2 29 2 51 1z"/></svg>