<svg xmlns="http://www.w3.org/2000/svg" width="1344" height="566"><path d="M0 283V0h1344v566H0V283m306 279c18 0 56 1 254 0 69 0 147 0 173 1 48 0 61 0 83-4 12-1 31-1 38 1 8 2 37 2 41 0 6-3 14-3 33-3 21-1 22-1 21-8-1-2-4-13-7-24-5-18-8-27-14-61-1-7-3-17-4-24-2-8-3-17-4-32-2-27-7-62-15-88-13-45-19-78-19-104v-9l7-13c8-15 14-32 19-54 3-15 3-18 3-30 1-16 0-20-6-26-5-6-11-10-19-13-6-2-8-2-20-2s-15 0-22 2c-24 8-31 15-41 43-3 11-7 21-13 35-2 4-7 6-17 8s-14 4-22 9c-3 2-6 4-7 4-2-2-6-11-9-21-6-23-19-44-35-54-8-6-15-9-26-11-10-1-20-4-35-8-24-6-44-6-75 1-8 1-19 4-23 5-16 3-30 11-46 24-8 6-12 9-16 8-1-1-6-5-10-9-9-10-15-14-23-17-9-4-19-6-33-7-20-1-33 2-39 9s-9 12-12 25c-2 8-4 15-6 18-2 4-2 5-1 13 1 16-2 19-17 25-10 4-16 7-20 11-1 2-8 14-14 26-9 18-12 24-17 30-15 17-19 22-23 29-5 9-11 26-17 44-3 8-6 18-8 22-7 15-8 21-10 58-1 18-1 45-1 59 0 25 2 60 4 69 1 2 1 11 2 18 0 8 1 16 1 17 3 7 15 9 38 8h29z"/></svg>