<svg xmlns="http://www.w3.org/2000/svg" width="1344" height="566"><path d="M0 283V0h1344v566H0V283m829 278c6-2 10-6 15-16l4-7-1-12v-11l4-9c6-10 12-22 22-38 4-6 11-19 15-29 8-16 10-20 16-26 8-10 11-14 13-21 1-5 1-5-1-11-2-4-3-9-4-13-3-13-8-19-14-16-3 1-11 18-11 22 0 6-8 15-15 18-7 2-10 1-10-4 0-3 6-16 13-27 3-5 5-8 5-12 1-4 1-5-2-8-5-5-8-6-19-6-8 1-10 0-11-1 0-1 0-2 1-3 8-11 12-20 15-30 2-11 0-17-7-20-8-4-13-1-19 9-4 8-21 26-28 31-4 2-5 2-17 3-15 0-16 0-20 4-7 6-19 28-25 44-3 9-4 14-9 36-3 13-9 28-13 37-2 4-5 10-6 14-2 4-8 15-14 26-19 37-23 41-30 37-3-2-29-27-31-29 0-2-2-8-3-14-2-9-3-13-7-23-7-13-10-16-31-29-7-4-14-9-15-10-3-3-2-5 3-8 10-5 12-8 16-24 4-15 8-27 16-44 12-27 13-32 15-67 1-16 1-21 0-38-1-10-2-22-3-27 0-5-1-11-1-13-1-3-1-9-2-15-2-16-7-46-11-60-10-34-31-61-62-82-19-12-32-16-51-16-11 0-14 0-21 2-5 2-14 4-20 4-29 5-38 8-54 24-11 10-19 21-25 33-8 16-18 45-22 62-1 6-3 15-5 20-3 12-6 29-10 58-4 27-6 36-8 46-2 9-4 43-4 77 0 12 0 30-1 39l-1 16-8 12c-9 13-22 35-27 47-3 4-8 16-12 27s-9 23-10 26c-4 9-4 14 0 20 2 2 4 7 4 11 2 8 4 11 9 12 5 2 133 2 243 1 126-2 197-1 227 1 20 1 59 1 65 0z"/></svg>