<svg xmlns="http://www.w3.org/2000/svg" width="1344" height="566"><path d="M0 283V0h1344v566H0V283m715 278 161-1 5-2c4-1 5-3 6-6 2-5 1-25-2-42-2-7-3-16-4-18-1-10-11-22-30-38-15-12-16-12-66-46-8-5-15-14-24-31-11-21-12-24-10-31 1-5 10-24 22-44 8-13 12-17 17-24 6-7 8-11 9-20 2-11 5-19 8-27 6-16 11-54 10-81-2-28-7-44-21-66-6-10-27-31-36-37-12-8-24-12-40-13-3-1-12-2-19-4-17-3-26-3-38-2-19 2-31 6-48 18-10 7-21 19-30 31-13 19-17 32-22 71-2 17-4 26-9 34-7 12-7 13-7 28 0 11 0 15 2 21 3 8 10 22 17 29 9 9 15 23 17 40 0 9-1 11-16 27-20 21-35 33-52 40-7 3-38 12-69 21-35 10-44 13-51 20-6 5-16 21-31 52-8 17-16 33-18 37s-8 16-13 28c-14 28-15 31-9 34 1 1 22 1 66 1 35 0 79 0 97 1 18 0 41 1 50 0h178z"/></svg>