<svg xmlns="http://www.w3.org/2000/svg" width="1344" height="566"><path d="M0 283V0h1344v566H0V283m737 279c88-1 137-1 143-2 9-1 73-1 116 0 28 1 44 0 47-3 2-1 2-2 2-9-1-7-2-13-8-30-8-25-13-42-14-47 0-2-2-9-4-15-3-11-6-21-19-63-9-26-17-37-33-42-4-1-20-5-35-8-16-3-31-6-33-7-2 0-9-2-17-3-7 0-16-2-19-3-8-1-27-10-46-21-14-8-21-11-26-11-7 0-10-1-12-5-3-5-2-17 1-23 2-4 12-19 25-36 7-10 10-16 13-26 2-7 2-9 2-26s0-22-3-38c-3-19-5-24-10-36-10-21-28-39-52-50-44-21-47-21-67-21-14 0-15 0-26 3-6 2-16 5-21 6-19 3-35 11-44 23-6 7-14 23-17 33-2 9-8 41-10 54-1 5-1 15-1 21 1 11 1 13 6 27 3 9 7 24 9 33 3 9 6 19 7 22 4 6 9 11 17 14 9 4 17 8 20 10 5 5 10 20 13 41 2 17 1 21-2 26-3 8-30 32-40 38-2 2-8 5-11 7-8 5-21 11-29 13-5 2-4 1-30 21-13 10-23 18-29 25-18 19-20 24-21 66 0 34 0 35 6 38 3 1 7 2 10 3 11 1 45 2 77 1h165z"/></svg>