<svg xmlns="http://www.w3.org/2000/svg" width="1344" height="566"><path d="M0 283V0h1344v566H0V283m511 276c8 0 16-1 17 0 2 0 6 0 10-1 5-1 34-1 72-2 84-1 88-1 96 1 4 1 22 1 90 1h112c4 0 13 0 20-1 10-1 20-1 45 0 51 2 59 1 59-2 0-2-4-5-9-8-1-1-7-5-11-8-14-10-35-23-44-27-21-9-31-17-49-42-4-5-4-8-1-17 4-13 27-62 38-82 3-5 8-14 12-20 7-13 11-18 25-25 18-10 28-20 37-38 6-13 9-22 10-31 1-11-1-15-9-22-7-8-7-8-4-24 2-14 7-42 10-61 5-30 5-52-1-68-4-12-14-31-20-39-11-15-30-28-48-34-8-3-33-4-92-5-62 0-82 1-91 4-17 6-31 27-45 64-7 18-14 51-15 74-1 11-4 26-5 29-2 4-5 6-9 7-12 2-19 10-21 26-2 13 1 32 7 47 3 9 10 19 17 25 4 3 8 7 9 8l3 3v18c-2 41-11 75-24 90-7 8-11 9-28 7-5-1-14-2-20-3-13 0-15 1-28 15-31 34-33 36-67 51-7 3-16 8-19 10-9 6-30 17-39 21-4 2-12 6-17 9s-12 7-15 9c-8 4-24 14-33 19-8 7-19 17-19 19 0 4 4 4 27 5 27 1 45 0 67-2z"/></svg>