<svg xmlns="http://www.w3.org/2000/svg" width="1344" height="566"><path d="M0 283V0h1344v566H0V283m388 276c12 0 56-1 98-1 52 0 78 0 82-1s11-1 19-1h45c6 1 38 1 70 1 32 1 62 2 66 2 18 3 64 1 70-2 4-2 5-7 6-20 0-16-1-24-7-33s-34-34-53-46c-36-24-43-30-54-44-7-10-16-26-18-34-1-5 0-11 7-31 6-15 9-23 14-41 2-8 9-31 11-37 3-14 4-33 1-51-1-6-2-17-3-23-4-49-8-67-21-98-15-38-41-63-89-81-14-6-15-6-26-7-12 0-24 1-34 3-2 1-9 2-14 3-31 4-48 10-66 23-25 20-47 63-49 96 0 12 2 30 8 57 5 25 5 24 6 44 0 16 0 20 2 28 4 14 8 21 15 28 6 6 25 18 35 22 6 3 10 7 10 11 0 5-18 25-36 40-13 11-19 14-31 16-9 1-17 4-38 12-7 3-19 8-26 10-46 16-54 20-64 30-8 8-13 17-26 52-6 15-16 56-16 64 0 7 2 10 8 10 5 1 74 0 98-1z"/></svg>