<svg xmlns="http://www.w3.org/2000/svg" width="1344" height="566"><path d="M0 283V0h1344v566H0V283m727 278c12-1 16-4 19-10 4-8 4-11 4-51 1-27 1-42 3-59 3-28 3-55 1-67-2-10-9-28-13-37-9-16-36-42-51-51-3-2-7-5-9-7-3-3-3-4-3-9 1-8 3-18 7-34 3-11 4-15 4-28 1-26-2-61-7-77-8-25-28-48-52-62-9-6-26-14-35-16-19-6-61-7-82-2-19 4-39 14-50 25-6 6-15 18-19 28-8 15-12 32-17 64 0 3-1 9-2 14-2 8-3 10-6 14-2 2-5 6-5 8-1 3-1 6 2 26 1 5 2 15 3 22v12l-3 4c-3 5-10 9-29 18-17 8-33 16-40 20-3 2-14 8-24 14-11 5-23 12-27 16-10 7-39 35-50 48-21 27-27 36-35 61l-4 13v20c0 15 0 22 1 29 2 9 2 11 1 23-3 27-3 27 3 29 4 1 64 2 97 1 13-1 38-1 55-2 18 0 35 0 39-1 10-1 34-1 63 0 13 1 32 2 42 2 11 0 29 1 42 1 12 1 49 1 82 2h62c0 1 23 0 33-1z"/></svg>