<svg xmlns="http://www.w3.org/2000/svg" width="1344" height="566"><path d="M0 283V0h1344v566H0V283m882 275c6 0 9-3 10-9 1-3 2-19 2-37 2-43 1-53-6-75-3-9-6-22-8-29-7-29-10-39-14-50-1-5-3-11-4-14-2-9-5-21-6-23 0-1-3-8-5-15-6-16-13-33-19-42s-19-24-25-29c-4-3-11-7-16-10-10-5-12-6-15-14-4-8-5-17-3-34 4-24 2-42-6-56-4-7-14-17-20-21-14-9-36-10-51-3l-12 4c-9 3-12 4-18 9-7 5-22 22-26 28-6 10-8 23-6 39 1 14 2 14 5 16s5 6 6 17l1 10-4 7c-5 8-8 17-11 26-1 6-9 25-13 31-1 2-3 7-4 10-4 11-7 15-16 28-4 6-8 12-9 13-5 8-13 16-36 39-24 24-25 25-39 33l-14 9h-26l-25-1-5 2c-2 2-10 4-16 6-16 3-20 6-21 15-2 6 5 23 11 28 5 5 13 7 35 9 6 0 16-2 24-5 3-1 22-6 31-8 7-2 21-1 24 1 2 0 6 5 10 10 12 15 14 16 32 23 9 3 11 4 22 4 15 1 23 3 34 9 9 5 11 7 11 15v5l11 11c15 15 16 16 33 16 8 0 17 1 21 1 4 1 28 1 57 1 28 0 50 1 50 1 1 1 61 0 69-1z"/></svg>