<svg xmlns="http://www.w3.org/2000/svg" width="1344" height="566"><path d="M0 283V0h1344v566H0V283m942 182c10-1 14-3 20-5 4-2 14-6 21-8 21-7 33-14 37-22 3-7 9-22 12-32 2-10 2-12 3-36 0-22 0-27-1-31-2-7-2-14 0-20 1-5 1-8 1-22-1-10-1-25-2-35 0-12-1-18-2-20-3-6-10-16-15-21-6-7-9-8-26-10-14-3-25-5-30-8-21-11-31-20-38-33-3-4-7-11-9-15-3-5-8-14-11-21-7-14-12-23-17-28-4-5-5-7-5-11s-3-9-9-12c-5-3-18-3-27 1-13 5-23 14-31 27-3 6-3 6-3 14 1 14 6 25 16 39 12 17 19 21 32 21 14-1 16 2 18 25 2 26 4 35 9 48 7 22 7 21 3 24-2 2-6 5-9 7-10 6-16 14-17 24-2 10-2 10-14 12-9 2-12 3-13 5 0 3 1 8 3 10 3 3 10 6 14 6 2 0 6 1 10 2 13 3 19 11 21 30s3 22 11 22c2 0 5 1 7 2 6 4 14 26 11 35-1 3-2 5-6 7-6 3-12 9-13 11-2 3 0 4 10 8 4 2 11 5 15 8 4 2 8 4 9 4s7-1 15-2z"/></svg>