<svg xmlns="http://www.w3.org/2000/svg" width="1344" height="566"><path d="M0 283V0h1344v566H0V283m528 277c10-1 14-1 18 0 5 1 88 2 118 1l20-1 3-2c5-4 8-11 10-16 0-2 2-6 5-10 6-8 9-16 9-22-1-11-3-21-7-33-3-14-4-17-10-29-3-7-4-9-4-15 0-9-1-15-4-18-1-1-7-4-13-6-40-17-61-26-69-29-21-10-28-15-29-22-1-5 5-30 10-44 10-24 11-28 13-52 1-24 1-24-3-56-3-18-9-50-14-70-11-41-22-64-42-84-10-10-17-15-33-23-13-6-23-10-35-13-11-2-28-1-37 3-4 1-14 4-22 7-49 15-65 38-81 113-5 29-10 65-12 103-1 12-2 27-3 33-2 22 1 65 6 84 1 7 1 9-4 14-5 4-20 11-28 13-3 1-8 3-11 4s-6 2-7 2c-3 0-14 6-27 16-21 15-30 21-42 28-17 9-21 15-21 26 0 5-3 14-7 24-5 10-8 23-10 38-1 8-2 17-3 20-1 8 0 13 3 15s102 2 121 0c8-1 15-1 15 0 2 1 35 1 125 1 47 1 85 1 86 1 1 1 1 1 16-1z"/></svg>