<svg xmlns="http://www.w3.org/2000/svg" width="1344" height="566"><path d="M0 283V0h1344v566H0V283m749 278c22-1 49-1 61-1 42 0 208 1 223 1 19 0 26 0 30-3 2-2 2-3 2-8-1-4-2-10-4-14-7-17-6-15-4-25 3-10 3-13 0-15-4-3-18-11-33-19-35-17-76-40-81-45l-4-4v-14c1-7 2-18 3-24 2-18 5-59 6-78 0-21-2-92-5-119-5-51-21-99-40-125-12-16-34-33-52-42-17-8-31-13-38-15-16-3-32-1-47 6-7 2-9 3-19 3-19 1-33 8-49 23-10 10-14 16-22 31-10 20-16 38-23 75-4 25-5 43-3 127 0 5 0 7-4 15-6 11-9 14-20 22-8 5-13 10-15 13-1 4-2 24-1 55 0 22-1 23-21 25-13 1-16 2-26 6-8 3-17 7-33 12-7 3-17 7-22 9-6 2-16 6-23 9-7 2-13 5-14 6-1 3-1 7 0 12 2 7-2 21-15 53-6 15-12 32-13 39s1 8 13 9 242 0 293 0z"/></svg>