<svg xmlns="http://www.w3.org/2000/svg" width="1344" height="566"><path d="M0 283V0h1344v566H0V283m618 276c28-1 66-1 84-2 32-1 105 0 148 1 30 1 152 3 197 2 37 0 40 0 42-2 1-1 2-2 2-4 0-8-12-28-21-36-2-2-6-7-10-12-10-13-18-21-37-36-10-8-24-20-31-27-14-13-30-27-36-31-2-1-7-5-12-9-33-26-32-25-59-27-18-1-20-2-30-10-10-10-17-26-18-45 0-11 0-12 3-24 5-15 5-16 13-27 15-23 19-31 23-45 3-11 3-18 2-26-2-7-2-19-1-35 2-13 2-29 1-38s-6-22-11-32c-13-22-46-44-80-52-10-2-39-3-53-1-30 3-59 20-77 44-10 13-13 26-15 54-1 9-2 22-3 29s-2 20-3 28c0 7-2 18-2 24-5 26 0 58 12 94 10 27 15 34 30 44 7 6 10 9 10 14 0 6-4 9-34 25s-37 21-56 35c-35 27-46 39-64 63s-27 40-29 55c0 5 0 6 2 8 3 2 11 3 39 2 12 0 46-1 74-1z"/></svg>