<svg xmlns="http://www.w3.org/2000/svg" width="1344" height="566"><path d="M0 283V0h1344v566H0V283m626 27c3-5 4-13 3-17-1-3-1-3 1-5s3-2 13-1c7 0 12 1 13 1 1 1 4 3 6 6 6 7 7 7 14 6 10-2 10-3 10-14 0-8 0-11 3-19 2-5 4-11 5-15 1-8 7-19 10-21 2-1 10-3 22-4 7 0 8 0 10-3 3-3 3-7-1-15-4-10-25-52-29-58s-9-9-19-14c-26-10-25-9-26-25-1-13-2-18-8-25s-13-10-21-8c-10 2-17 10-17 19 0 6 3 19 7 26 2 5 3 9 3 12l1 6-11 11c-12 12-12 12-15 22-3 9-5 20-3 27 2 9 0 40-3 49-1 4-2 9-3 13l-1 6 8 14c13 21 13 22 18 24 3 1 5 2 5 3 2 2 4 1 5-1z"/></svg>