<svg xmlns="http://www.w3.org/2000/svg" width="1344" height="566"><path d="M0 283V0h1344v566H0V283m1088 277c10-1 11-1 9-10-2-12-9-23-21-38-6-7-14-15-17-19-6-9-14-16-32-30-14-11-28-24-35-31-5-5-19-17-32-26-7-6-15-12-18-14-22-18-28-21-47-22-10 0-16-1-21-3-8-2-9-3-15-9-7-8-12-16-14-25-3-9-2-30 0-41 3-14 5-19 15-30 15-20 22-36 24-51 1-8 1-10-1-17-2-11-2-18 0-34 2-14 2-32 1-42-4-31-24-54-62-72-19-9-34-12-58-12-38 0-57 6-81 26-22 17-32 36-34 65-1 7-2 19-3 26 0 7-2 22-2 31-1 11-2 24-3 32-4 21-4 28 2 60 3 18 10 37 21 56 5 10 8 14 17 19 16 11 17 18 3 27-4 3-29 16-38 20-11 6-21 12-36 23-32 24-56 45-66 59-2 3-8 11-12 16-14 18-19 29-25 49-2 9-2 10-1 12 3 5 5 5 42 5 97-2 254-3 288-2 5 1 53 1 106 2 53 0 97 1 97 2 1 0 34-1 49-2M84 560h59c19 0 42-1 59-3 4 0 14-1 21-1 17 0 17 0 15-10-1-3-2-9-4-14-2-4-4-10-5-13s-4-10-6-15c-6-12-14-34-17-43-4-11-6-21-10-41-7-40-9-46-26-72-14-20-18-25-32-35-12-9-29-19-45-26l-12-4c-3-2-11-5-17-7-14-6-23-11-25-14-3-4-2-13 0-20 3-6 5-15 3-22l-1-6 4-7c3-4 4-9 5-13 0-3 2-9 4-12 5-10 5-14 0-34-8-27-8-26-5-54 1-10 1-20 1-22-1-4-13-28-20-39-6-9-8-14-6-17s0-6-3-7C9 6 8 6 5 8l-4 2v546l3 3c3 2 4 2 22 1h58z"/></svg>