<svg xmlns="http://www.w3.org/2000/svg" width="1344" height="566"><path d="M0 283V0h1344v566H0V283m835 276c8-2 11-5 15-16 3-13 3-14-7-65-2-8-4-19-5-24-2-8-3-16-7-38-3-23-5-37-7-44 0-3-2-10-2-14-1-4-3-12-4-17s-3-11-3-13c-1-3-1-9-1-14 0-8 0-9-3-13-2-3-5-5-14-9l-18-9c-4-1-9-4-11-6s-7-5-10-8c-10-7-29-26-30-29-1-7 2-16 9-32 7-13 8-17 10-27 2-14 3-22 0-31-4-21-21-37-43-43-18-5-49-2-66 6-10 4-19 12-23 19-3 6-4 16-1 35 2 13 4 24 6 31 0 2-1 4-3 7-2 4-4 5-7 6-4 1-12 7-19 14-3 4-6 8-8 14-2 4-3 9-3 10 0 3-5 21-7 26-3 6-11 19-15 23s-15 22-18 27c-1 2-4 6-7 9-14 18-16 20-21 31-8 18-8 19-8 36 0 13 0 16 2 20 3 6 7 11 11 13s6 2 16 2c8-1 13-1 17-3 9-3 9-3 21-14 5-5 11-9 11-9 1 1 1 8 1 27 0 32-1 43-8 90-3 24-3 24-1 27 2 4 5 4 21 5 24 1 234 0 240 0z"/></svg>