<svg xmlns="http://www.w3.org/2000/svg" width="1344" height="566"><path d="M0 283V0h1344v566H0V283m744 189c14-1 21-1 23-2s6-2 9-3c2 0 5-1 6-1 1-1 5-2 9-3 14-2 25-5 28-6 1 0 6-2 11-3 5-2 12-4 16-5 8-2 10-2 34-2 14 0 26 0 27-1 5-1 5-6 0-42 0-8-1-23-2-36 0-25-1-29-6-37-5-9-9-12-14-14-2-1-7-3-11-4s-9-4-13-8-9-7-12-7c-14-5-16-7-4-8 9-1 13-2 13-5 1-2-1-24-3-39-2-13-9-44-17-68-1-6-4-14-7-28-6-22-15-44-24-59-11-18-29-32-55-45-15-7-21-9-33-9-9 0-18 2-29 7-3 1-9 2-13 3-21 3-29 8-44 29-10 14-17 37-21 63-1 5-1 9-2 9 0 0-1 8-2 18-3 23-3 67 0 103 2 30 2 29-6 31-7 1-16 1-24-1s-25-3-30-1c-3 1-6 3-13 10-6 5-12 10-15 11-5 3-14 9-25 17-3 3-10 8-16 12-7 3-15 9-18 12-12 10-16 11-28 11-8 0-10 1-12 2-3 2-3 3-2 4 2 7 0 15-10 37-5 10-8 20-10 30-1 3-3 8-4 11l-2 5 2 2c4 3 11 3 16 0 10-5 55-12 67-10 3 1 11 1 17 1 7 0 14 1 17 1 4 1 4 1 8-1s6-2 29 2c20 4 40 6 42 6 1-1 7 0 12 0 9 1 13 1 35-2 12-2 52 3 67 7 3 1 7 3 10 5 3 3 4 3 7 3 2-1 12-1 22-2z"/></svg>