<svg xmlns="http://www.w3.org/2000/svg" width="1344" height="566"><path d="M0 283V0h1344v566H0V283m868 276c4-2 9-3 10-4 2-3 3-12 1-19-4-12-13-27-21-37-10-11-26-37-41-66-16-31-19-38-27-59l-4-14v-82c0-3 1-12 2-19 5-29 6-48 4-61-2-10-8-32-11-38-3-8-19-24-25-28-6-2-15-5-21-5-3 0-23 6-29 9-5 3-10 6-11 10-1 1-2 7-3 12-1 4-3 15-6 22-5 17-10 24-18 28-5 3-7 3-17 3-12 0-23-2-28-5-1 0-4-4-7-9s-5-10-6-15c-3-14-5-29-6-49-2-27-4-40-10-57-8-23-23-39-45-49-11-5-31-10-43-11-18-2-44 3-61 11-9 5-31 20-36 26-9 10-14 19-19 32-2 7-2 9-3 33-1 25-1 26-4 34-3 10-4 16-2 26 2 7 13 28 20 40 10 16 18 33 19 43 0 6 0 7-4 15-3 6-7 11-18 22-15 16-30 30-34 33-2 1-5 2-6 3s-7 4-12 6c-6 2-12 5-14 7-4 3-15 8-18 8-2 0-8 3-19 11-5 3-14 8-19 10-17 10-24 18-26 35-1 5-1 19-1 31 0 72 1 66-5 96-3 16-1 20 7 21 8 2 78 2 113 0 24 0 41-1 55 0 11 1 37 1 57 1 43-1 36-1 187-1 67 1 127 1 133 2 6 0 22 1 37 0 24 0 27 0 35-2z"/></svg>