<svg xmlns="http://www.w3.org/2000/svg" width="1344" height="566"><path d="M0 283V0h1344v566H0V283m1081 277c15 0 17-1 15-8-1-12-8-24-21-39-6-6-13-15-16-19-7-9-15-17-35-32-7-7-19-17-26-24s-17-15-22-19c-11-9-51-39-56-43-7-4-13-5-28-6-13-1-22-3-26-5-3-1-12-12-15-17-9-15-11-33-7-55 3-15 6-20 14-30 7-9 12-16 17-26 9-19 10-30 7-48-2-9-2-9 0-22 2-19 2-46-1-57-2-9-8-22-13-28-17-22-50-41-81-46-9-2-42-2-53 0-23 4-45 15-62 32-5 5-15 21-18 28s-6 22-6 28c0 2-1 12-2 22-1 9-2 26-3 37-1 15-1 24-3 33-4 19-4 32 2 60 1 4 2 8 3 10 1 9 12 38 18 47 5 8 9 12 19 18s13 11 11 17c-1 4-9 8-34 22-34 18-43 23-72 47-28 22-42 37-63 67-7 11-11 19-15 32-4 14-5 18-2 21 2 2 3 3 16 3h26c6-1 34-1 62-1 28-1 68-1 89-2 26-1 55-1 85 0 25 0 64 1 86 1 103 2 179 3 179 4h10c4-1 14-1 21-2z"/></svg>