<svg xmlns="http://www.w3.org/2000/svg" width="1344" height="566"><path d="M0 283V0h1344v566H0V283m678 275c52-1 413 0 434 1 24 1 68 0 70-3 4-3 2-8-7-30-16-35-25-49-42-67-20-20-46-37-73-48-11-4-32-14-44-20-27-14-38-19-42-21-15-4-25-9-34-16-15-12-24-20-26-23-5-7-4-17 2-37 4-16 6-18 18-23 14-8 24-17 32-33 4-7 4-10 5-17 0-10 0-12-5-18-4-4-4-5-4-9 0-5 6-36 9-48 4-14 4-47 0-56-1-3-3-8-4-12-2-8-9-20-14-25-10-10-22-18-45-31-17-9-27-12-41-12-42 2-54 5-75 16-14 7-21 13-28 22-12 17-20 40-26 82-1 6-3 15-4 19-1 7-2 8-8 14-9 9-10 11-9 29 0 16 1 21 5 32 5 13 10 26 11 34 1 5 4 18 6 29 5 24 6 34 4 39-1 4-8 10-30 28-11 9-26 17-39 20-6 2-21 7-38 15-15 6-32 13-37 15-13 5-37 16-45 21-12 6-25 17-35 27-16 16-25 28-36 48-7 13-10 23-13 34-3 15-3 22 3 24 1 1 16 1 53 0 28 0 57 0 65 1 14 1 26 1 87-1z"/></svg>