<svg xmlns="http://www.w3.org/2000/svg" width="1344" height="566"><path d="M0 283V0h1344v566H0V283m766 279c90-1 119-2 124-4 3-1 5-5 4-9-3-9-8-25-16-46-6-17-7-20-7-31 0-13-1-14-15-23-6-3-51-25-69-33-6-3-17-8-25-12s-17-8-20-9c-8-4-14-9-16-13s-2-7-2-24c0-11 0-24 1-29s2-16 2-25c1-9 2-17 3-20 1-2 1-6 1-9 0-5-1-9-5-37-3-20-12-61-13-65-1-1-2-5-3-7-2-8-15-39-23-54-11-19-22-33-38-46-12-9-21-15-35-21-15-7-22-9-38-11-15-1-27-1-37 2-4 2-12 6-18 10-9 5-15 8-22 10-5 2-12 5-15 7-20 11-34 35-42 72-10 43-13 71-12 147 1 27 2 60 2 73 2 30 2 41 0 44-1 2-32 17-65 33-28 13-31 15-35 18-3 2-3 3-5 15-1 6-3 15-4 20-4 13-3 19 5 25 5 4 29 20 36 24 3 2 9 5 13 8 9 6 20 10 33 14 13 3 45 5 117 6h54c0 1 117 0 185 0z"/></svg>