<svg xmlns="http://www.w3.org/2000/svg" width="1344" height="566"><path d="M0 283V0h1344v566H0V283m882 275c6 0 9-3 10-9 1-4 3-46 3-64 0-23-3-40-10-57 0-2-1-5-2-8-1-11-13-54-16-62-2-5-4-11-5-15-1-9-4-19-6-22 0-1-3-9-6-17-5-16-13-33-20-44-3-4-11-13-17-19-10-10-13-12-19-15-12-6-15-9-18-16-4-8-4-16-2-33s2-23 1-34c-3-16-8-25-20-36-6-6-9-8-16-11s-8-3-21-3c-12 0-13 0-21 3-5 2-12 5-16 6-8 2-12 5-22 15-10 9-19 21-22 28s-3 17-3 33l1 13 4 2c2 1 3 3 4 4 0 1 1 7 2 13 1 10 1 11-1 14-6 9-8 14-13 34-1 3-6 12-10 21s-8 18-9 19c0 3-7 15-10 19-2 2-5 7-8 11-7 10-17 23-22 28-34 33-44 43-52 48-5 3-12 7-15 9l-5 3-20-1c-32-1-31-1-35 2-2 1-6 3-9 4-20 4-25 6-28 11-4 9 3 31 12 36 3 2 8 3 26 6 11 2 16 2 32-4 21-6 29-8 40-9 13 0 14 0 25 14 4 5 9 10 11 12s10 5 16 8l12 5h15c16 1 21 2 34 9 9 5 10 7 10 14 0 5 0 5 11 17 14 15 16 16 36 16 8 0 17 0 20 1s27 1 57 1c28 1 51 1 51 1 1 1 59 0 66-1z"/></svg>