<svg xmlns="http://www.w3.org/2000/svg" width="1344" height="566"><path d="M0 283V0h1344v566H0V283m701 277c2 0 6-1 9-2 8-1 11-8 9-19-1-4-1-13-2-20-1-13-3-23-9-39l-4-12c-1-4-4-11-5-14-3-6-3-9-4-19-1-16 1-15-41-33-36-16-43-19-54-23-14-6-30-14-32-17-2-2-2-3-2-11 1-17 4-26 16-61 5-15 7-25 7-44 0-9-6-41-12-66-1-5-3-12-4-16-2-9-11-37-14-45-16-41-28-55-61-76-31-19-41-23-72-22-19 1-22 2-30 7-2 1-6 4-9 6-21 10-34 18-39 23-22 20-35 57-43 125-1 9-3 26-5 38-9 83-11 102-9 116 2 12 3 15 9 28 7 16 7 16-16 24-15 6-25 10-29 13-10 9-35 25-46 31-9 4-17 10-19 14-1 1-2 5-2 9-1 5-3 12-7 21-5 13-9 25-10 31-1 2-2 6-3 8-2 7-4 31-3 37 0 4 1 6 3 7 2 2 4 2 59 2 31-1 61-1 67-2 8-1 13-1 16 0 2 1 8 1 13 1 9 0 228 1 229 1 0 1 146 0 149-1z"/></svg>