<svg xmlns="http://www.w3.org/2000/svg" width="1344" height="566"><path d="M0 283V0h1344v566H0V283m604 96c5-2 12-4 38-10 3 0 9-2 11-3 2 0 8-2 13-2 5-1 13-3 18-4 14-3 29-3 38 0 3 1 10 3 15 4 14 5 22 5 32 4 5-1 10-3 13-3 2-1 6-2 8-3 3 0 8-2 12-2 13-4 16-4 24-4 5 0 12 1 16 1 7 2 8 2 11 1 2-2 2-3 0-22-1-4-1-13-2-19-1-7-1-15-2-18-2-13 0-22 5-28 2-2 6-21 7-33 3-32 3-35 2-54-1-12-2-24-3-29 0-5-1-11-2-15 0-3-1-8-2-10 0-2-1-7-2-9 0-2-1-5-1-6-1-1-2-5-2-9-3-11-9-26-16-36-8-11-22-21-40-27-7-2-10-2-21-2-9 0-14 0-18 1-25 8-31 11-40 20-8 8-12 14-15 26-4 11-4 17-3 30 1 7 1 23 2 36 0 24 1 42 4 58 0 5 1 15 2 23 1 20 1 20-32 22-16 1-24 2-29 3-4 1-11 2-16 2-8 1-11 2-16 4-4 1-8 3-9 3-3 1-8 7-12 12-1 2-4 4-8 6l-5 3h-15c-9-1-18-1-20-2-6 0-11 2-16 8-5 4-13 9-19 10-8 2-11 5-21 25-2 2-4 6-5 9-3 5-3 6-3 19-1 17-1 17 14 17 14 1 23-1 32-6 4-2 9-4 9-4 2 0 6 4 6 6 0 1 4 5 7 6 8 3 47 3 56 1z"/></svg>