<svg xmlns="http://www.w3.org/2000/svg" width="1344" height="566"><path d="M0 283V0h1344v566H0V283m591 278c15-1 29-1 31-2 3-1 14-1 29 0 13 0 58 1 98 1l74 1 3-2c3-4 4-9 3-24-1-7-2-16-3-20-3-15-10-39-18-61-2-4-4-10-5-13 0-3-2-7-4-10-2-5-2-6-2-12 1-4 1-9 2-11 0-4-3-8-12-12-3-2-11-6-17-8l-14-7c-3-1-11-5-20-9-8-4-17-7-19-8-8-3-27-13-29-16-3-3-3-4-3-13 0-10 4-51 8-75 2-17 0-51-5-87 0-4-1-10-1-14-1-4-2-16-4-27-3-22-8-37-16-52-5-11-18-28-28-38-9-8-28-19-40-23-14-6-18-7-24-8-8-1-17 0-30 5-7 3-14 4-23 5-16 3-24 7-35 18-20 20-33 46-44 91-4 16-12 63-18 104-2 19-2 48 1 67 3 20 3 28 3 32-2 9-13 16-27 18-12 2-33 9-63 22-4 1-13 6-21 10-17 9-17 9-24 28-5 15-14 34-20 45-6 10-22 45-27 59-1 5-4 13-6 17-6 14-5 21 3 25 5 2 69 3 126 1 20 0 50 1 119 3 33 1 74 1 102 0z"/></svg>