<svg xmlns="http://www.w3.org/2000/svg" width="1344" height="566"><path d="M0 283V0h1344v566H0V283m486 278c11-1 82-2 125-1 13 1 38 0 53 0 23-1 33-1 44 0 20 2 80 2 90 0 8-1 6-1 112-1 49 1 92 1 96 2h22c15-1 16-1 16-10 0-16-7-35-18-49-6-9-8-13-10-20-3-9-8-13-32-23-17-7-24-10-38-15-16-7-31-15-35-18-1-2-2-4-2-7 0-4 5-21 10-33 6-18 13-39 15-49 1-9 1-17 2-59 0-67-2-98-8-133-2-10-6-24-8-30-4-13-16-38-23-48-10-15-31-34-47-42-29-14-54-19-71-13-6 2-10 2-21 2-18 0-21 1-33 7-27 14-49 35-62 60-8 16-18 44-23 68-2 9-6 24-8 33-6 22-9 42-12 70-1 10-2 20-3 21 0 1-1 17-1 36-1 50-4 70-12 79-4 4-27 15-39 18s-37 13-43 17c-9 7-46 26-55 28-10 2-19 6-21 9-2 1-4 4-6 7-2 4-2 5-2 11 1 4 2 9 3 12 4 9 3 16-10 50-1 4-3 9-3 12-1 3-1 4 2 6 2 2 3 3 19 3 10 0 19 1 21 1 3 0 9 0 16-1z"/></svg>