<svg xmlns="http://www.w3.org/2000/svg" width="1344" height="566"><path d="M0 283V0h1344v566H0V283m770 251c6-2 13-3 14-4 2-1 8-2 13-2s11-1 13-2c3-1 9-3 16-4 9-2 16-4 38-11 15-4 22-6 31-7 16-3 21-3 37-1 20 2 19 2 20-13 1-12 0-29-3-36 0-3-1-8-2-12 0-4-1-10-2-14 0-4-1-13-1-20-1-20-2-22-5-25s-12-6-21-8c-2 0-8-1-14-3-7-2-14-3-17-4s-7-2-9-3c-4-3-7-10-8-23 0-9 0-9-4-14-5-4-5-6-2-11 5-6 5-5-13-42-2-5-4-10-5-12 0-3-5-14-7-19-1-3-4-9-6-15s-6-16-9-23c-3-8-6-17-8-20-11-31-18-47-23-55-10-14-19-23-30-31-15-10-40-20-54-23-9-2-31-2-37 0-3 1-10 3-16 4-17 5-22 7-34 13-22 10-31 19-42 40-6 13-10 23-13 37-2 8-2 12-2 26 1 25 3 68 4 90 2 28 2 30-1 34-2 3-16 14-19 14 0 0-6 4-13 8-15 10-19 15-24 30-2 5-3 7-6 9s-4 2-11 2c-8-1-8-1-12 2-10 8-12 9-36 18-6 2-9 3-12 7-3 3-6 7-7 9-1 3-3 5-4 6-2 2-17 9-24 11-3 0-6 2-8 3-4 4-11 19-11 23 0 3-1 5-3 7-4 5-3 4-1 9 1 3 1 4-1 8-2 5-1 8 2 11 2 1 7 1 28 2 18 0 26 0 31 2 7 1 12 1 26-2 4-1 5-1 8 1l4 2 3-2c3-2 5-2 12-2 5 0 8-1 10-1 4-3 8-2 20 1 17 3 17 3 30 8l12 4 30 1c32 0 63 1 76 3 4 1 12 1 18 2 21 2 35 6 44 14 5 3 6 4 13 4 11 1 17 1 27-1z"/></svg>