<svg xmlns="http://www.w3.org/2000/svg" width="1344" height="566"><path d="M0 283V0h1344v566H0V283m355 278c7-1 212-3 261-2h175c36 0 117 0 181 1h168c52 0 55 0 66-2 7-1 15-3 18-3 9-1 13-7 10-14-1-4-12-13-21-20-3-2-7-6-9-9-6-8-13-27-19-51-3-14-7-25-10-30-4-5-10-8-20-10-18-3-21-7-35-39-2-6-6-15-9-21s-5-11-5-11c0-3-12-39-26-78-3-9-7-19-8-24-8-27-11-34-16-46-4-7-8-14-10-16-3-4-9-7-14-7-3 0-4 1-8 5-2 2-4 4-5 4-2 0-7-6-13-15-15-25-22-31-33-26-2 0-6 2-8 2-3 0-4 0-9-5-7-6-12-8-17-6s-8 7-8 12c0 2-1 6-1 7-2 4-2 4-10 6-3 0-7 4-8 8-2 6-1 18 1 33 4 23 6 30 19 64 3 9 5 17 7 24 0 6 2 14 4 17 3 8 25 40 43 62 20 24 36 45 41 53 7 12 15 29 18 38 2 5 6 16 9 24 7 19 8 23 5 25-2 3-9 2-15-1-4-2-17-10-25-16-2-2-11-7-20-11-17-9-25-16-29-24-2-3-6-13-10-21-4-9-9-18-11-20-2-3-8-9-14-14-26-23-46-35-60-37-8 0-34 1-61 4-33 4-41 3-45-3-1-4-1-9 1-27 2-19 7-37 13-48 2-5 5-14 7-20 4-18 2-32-11-73-7-22-14-39-21-53-2-5-7-14-10-21-16-36-27-52-48-72-18-16-34-26-57-34-26-10-41-12-68-9-6 1-15 2-20 3-14 1-24 3-40 8-17 6-33 13-42 19s-22 19-28 28c-23 32-34 61-34 88 0 10 0 10 5 21l4 12v42c-1 13 0 17 7 35 4 10 5 13 6 23 3 28 5 37 17 52 6 8 11 13 24 22 11 9 14 11 16 14 2 5 2 13-2 24-10 29-30 51-54 59-4 2-10 4-11 5-5 3-8 3-9 0-1-1-2-9-2-17-2-25-3-31-10-50-5-13-10-18-15-18-8 0-14 7-18 19-1 5-1 13-2 34-1 28-1 31-5 28-7-4-18-47-23-90-1-5-1-12-2-15 0-3-1-11-2-17-1-13-4-27-7-32-6-11-16-12-20-2-1 3-3 24-3 45-1 18-3 35-4 36s-4-5-10-21c-12-30-24-56-30-63s-15-10-21-6c-5 5-4 8 6 46 1 6 3 13 3 15 1 3 2 10 4 16 3 13 9 42 9 45 0 2-3 2-5 0-10-13-15-21-28-47-9-18-14-25-19-28-4-1-11-1-14 1s-4 7-4 13c1 7 10 34 17 51 2 4 4 11 6 15s4 10 5 13c2 3 3 7 3 8 0 4-5 0-18-13-19-18-29-23-36-19-11 8 1 32 35 71 22 24 29 32 40 48s18 23 22 26c2 1 7 2 11 3 9 1 69 1 78 0z"/></svg>