<svg xmlns="http://www.w3.org/2000/svg" width="1344" height="566"><path d="M0 283V0h1344v566H0V283m581 104c19-1 47-6 64-12 12-3 21-5 37-7 11-2 35-1 40 1 2 1 5 1 7 1s5 1 8 2c5 2 10 2 20 1 4-1 11-1 15-2s9-2 10-2c1-1 6-2 10-2 4-1 13-3 20-4 13-3 16-3 33-1 14 2 15 1 12-16-1-4-2-15-3-25-1-9-2-21-3-26s-2-11-2-12c0-5 2-9 5-11 3-1 4-2 4-6 0-3 1-9 1-14 1-5 3-20 4-32 1-19 1-26 0-42-2-28-6-57-10-71-1-2-2-6-3-9-4-19-8-28-15-34-17-17-32-24-54-25-15 0-27 2-47 11-10 4-12 5-17 11-5 5-8 9-11 16-2 5-4 11-4 12s-1 5-1 9c-3 10-3 101-1 113 1 4 1 14 2 24v17l-2 3c-3 2-4 2-16 3-8 1-24 1-36 1-21 0-23 0-29 2-12 4-25 11-28 14-3 5-10 10-15 13-4 1-6 2-13 1-5 0-13-2-18-3-12-2-16 0-21 10-1 2-4 4-12 8l-10 4-4 8c-4 7-4 9-4 15 0 4-1 9-2 11-2 8-5 16-7 22-1 3-2 7-3 9 0 4 0 4 2 5 4 2 30 0 39-3 7-2 16-3 18-1 1 1 3 4 4 6 1 3 3 6 5 7 4 2 2 2 31 0z"/></svg>