<svg xmlns="http://www.w3.org/2000/svg" width="1344" height="566"><path d="M0 283V0h1344v566H0V283m50 278c3-1 28-1 56-1 59-1 80-2 84-5 2-2 2-2 2-8 0-4-1-14-3-23s-4-22-5-29c0-7-2-21-4-32s-4-24-5-30c-5-37-10-55-21-76-9-19-16-29-27-40-15-14-25-21-62-38-15-8-17-10-17-20 0-7 1-11 8-27 1-5 1-10-1-16-1-6-1-7 4-15 2-3 5-9 6-12 1-4 4-9 7-13 4-6 4-8 5-14 0-6 0-8-4-21-9-26-10-33-10-53 0-22-1-24-12-47-5-10-10-22-11-26-3-8-4-9-10-11C25 3 7 3 4 4L1 5v553l3 2c3 2 4 2 21 2 10 0 21 0 25-1m1039-1c7 0 10-1 11-2 2-2-1-14-7-26-4-8-7-11-15-21-6-6-14-15-18-20-7-9-15-16-34-31-6-5-16-14-21-19-23-21-39-34-55-45-4-4-12-10-18-14-5-4-12-9-15-10-6-2-16-4-27-4-8 0-18-2-24-6-9-5-17-18-21-32-3-13 0-43 6-54 1-3 7-10 12-17 11-14 20-30 23-40 1-8 1-21-1-28-2-8-2-19 1-30 2-12 2-30 1-41-3-27-16-48-40-63-20-13-39-21-57-24-19-2-48-1-64 3-20 5-45 22-57 38-11 14-15 27-17 52-2 23-6 65-9 83-3 24-3 34 3 57 3 10 6 21 6 24 2 6 14 38 19 48 2 6 6 12 12 18 4 6 8 10 8 11 0 2-5 6-19 14-9 5-20 11-24 13-16 8-35 20-63 43-22 18-33 28-46 46-20 26-22 30-28 47-5 17-6 22-5 25 3 5 4 5 71 4 34 0 64-1 67-1 108-1 182-1 186 0 2 1 51 1 107 2 57 0 103 1 104 2 1 0 31 0 48-2z"/></svg>