<svg xmlns="http://www.w3.org/2000/svg" width="1344" height="566"><path d="M0 283V0h1344v566H0V283m767 199c6-2 19-6 24-7 3 0 7-1 8-1 1-1 6-2 9-3 4 0 11-2 15-3 38-11 50-12 78-10 13 1 13 1 15-1 3-3 4-15 2-27-5-25-7-56-6-73v-8l-4-4c-5-6-9-8-16-10-3-1-8-3-12-5-4-1-9-3-13-3-4-1-7-2-10-4-4-2-5-4-7-9-1-3-4-8-6-10s-3-5-3-5c0-1 1-3 3-6 4-4 4-4 0-37-2-20-3-26-10-59-10-56-16-75-35-106-11-18-22-28-49-41-24-12-42-12-62-2-6 3-8 4-14 4-18 0-31 8-44 27-10 15-16 32-23 64-6 28-8 42-9 77 0 25 0 28 5 69l1 15-2 2-2 2-18-2c-22-3-29-3-35 0-2 1-7 6-14 12-16 18-33 32-51 43-12 7-18 12-27 19-6 5-14 7-22 6-5 0-7 0-9 2-4 3-23 45-28 64-2 6-4 13-6 15-3 7-2 8 8 8 5 0 8-1 11-2 7-4 38-12 45-12 2 0 6-1 10-1 6-1 8-1 15 0 6 2 9 2 20 1 7-1 15-3 18-3 7-3 16-2 25 2 8 3 27 7 40 9 5 1 15 2 22 3 17 2 17 2 35 0 14-2 18-2 34-1 22 1 38 4 44 8 2 2 5 3 6 3 3 1 41 1 44 0z"/></svg>