<svg xmlns="http://www.w3.org/2000/svg" width="1344" height="566"><path d="M0 283V0h1344v566H0V283m885 275c6-2 5-2 6-52 0-60-1-73-5-84-2-5-4-12-5-16-2-3-4-10-6-16-6-24-8-30-14-46-2-7-5-15-5-17-1-5-8-27-12-39-7-20-22-43-38-59-7-8-10-10-17-13-10-4-13-7-17-13-5-10-6-17-3-41 3-27-2-45-17-61-11-11-20-16-36-17-11-1-18 0-26 4-4 2-10 4-14 5s-8 3-10 3c-4 2-17 15-24 24-9 12-12 18-12 30-1 15 0 24 5 35 3 6 4 13 5 18l1 8-4 9c-5 10-8 19-9 27-1 2-5 12-10 21-4 9-9 19-10 22-2 6-8 17-12 22-2 3-5 7-7 9-7 12-18 24-38 45-18 18-24 23-35 31-7 5-14 10-16 10-3 1-8 2-27 1-20-1-23-1-27 1-3 0-7 2-10 2-16 4-28 10-30 15-1 4 1 12 3 18 3 9 9 14 18 17 6 2 9 2 25 2 14-1 20-1 22-2 7-3 31-8 50-11 11-2 14 0 20 10 9 15 19 23 36 31 11 5 16 6 24 8 3 0 7 1 10 2 2 1 5 2 7 2 1 0 5 1 8 1 6 2 11 6 11 11 0 3 28 33 36 37 9 5 17 6 65 5 27 0 46 0 53 1 24 2 30 3 59 2 22 0 30-1 32-2z"/></svg>