<svg xmlns="http://www.w3.org/2000/svg" width="1344" height="566"><path d="M0 283V0h1344v566H0V283m887 274c6-4 9-18 9-39 0-8 0-19 1-25 1-8 1-12-1-26-1-10-3-20-5-24-3-11-6-22-7-30-1-4-3-12-4-17-2-4-4-11-5-15-1-7-4-17-8-27-1-4-3-10-3-12 0-3-2-9-4-14s-4-13-6-18c-12-35-21-50-40-70-8-8-11-10-18-13-9-5-15-11-19-18-3-8-3-14-1-28 4-22 3-40-3-53-3-7-12-19-18-23-11-9-20-12-34-12-8 0-11 1-18 3-5 2-12 4-15 5-4 1-9 3-11 4-5 3-26 24-31 31-7 10-8 15-8 28 0 11 0 12 2 16 4 5 8 17 9 29s1 12-4 20c-4 4-7 12-11 25-2 7-10 25-15 33-1 2-3 7-5 11-3 8-5 12-17 28-3 4-7 10-9 13-4 6-53 56-60 60-2 1-9 6-16 9-13 9-11 8-44 7l-17-1-4 3c-2 1-8 4-15 6-14 4-17 5-20 9-2 2-3 4-3 8 0 9 7 23 13 28 4 3 28 11 34 11 5 0 12-2 18-4 13-6 44-14 51-14 6 0 7 0 9 3 17 20 20 22 36 29 10 4 13 5 17 5 10 0 21 0 32 1 13 1 15 2 20 12 3 5 4 8 4 12s0 5 5 11c18 21 18 21 44 22 10 1 22 1 26 2h88c74 0 79 0 81-1z"/></svg>