<svg xmlns="http://www.w3.org/2000/svg" width="1344" height="566"><path d="M0 283V0h1344v566H0V283m348 277c16-1 70-1 122-2 51-1 95-1 99-2h45c20 1 62 1 91 1 29 1 67 1 83 2 29 1 45 0 52-2 5-2 6-6 6-18 0-13-2-21-7-29-5-9-20-23-43-40-14-10-21-15-36-24-12-8-19-14-25-22-8-10-9-13-10-19 0-8 2-14 17-47 23-48 24-54 24-89 1-34-2-91-3-102-5-29-20-69-32-87-13-18-40-38-65-48-19-8-37-10-63-8-35 2-51 6-67 13-22 12-42 32-56 58-16 31-19 60-10 107 3 19 4 29 3 44-2 17-2 28 0 34 5 13 14 27 20 32 2 1 6 4 9 6s7 5 10 6c5 2 7 5 7 8-2 5-10 15-23 26-22 21-27 23-47 27-8 2-17 5-28 9-9 4-28 11-43 16-39 13-48 17-58 28-11 11-30 58-39 97-4 18-3 24 4 25 4 1 35 1 63 0z"/></svg>