<svg xmlns="http://www.w3.org/2000/svg" width="1344" height="566"><path d="M0 283V0h1344v566H0V283m601 96c9-2 21-5 35-7 3-1 10-3 14-4 5-2 13-4 18-5 6 0 14-2 18-3 9-2 26-3 32-1 3 1 7 2 10 2 3 1 9 3 14 4 14 5 27 5 42 0 2-1 5-2 6-2s5-1 8-2c15-5 28-6 46-3 12 2 11 2 9-16 0-7-1-19-2-25s-1-15-2-19-1-12-1-16c0-7 1-9 3-12 6-7 10-20 11-37s1-46-1-62c0-8-2-21-2-29-2-22-10-49-16-62-2-5-7-10-14-17-9-9-12-11-18-14-15-7-19-8-35-8-14 0-16 0-24 2-12 4-25 10-30 13-11 7-18 18-23 32-2 7-2 10-2 22 0 8 0 19 1 26 1 6 1 16 0 25 0 11 0 18 1 27 8 60 8 62 0 66-2 1-10 2-26 3s-25 2-27 3-9 2-15 2c-11 1-13 1-22 5-8 4-11 5-13 8-5 7-9 10-14 12-4 3-6 3-18 3-7-1-16-1-20-1-7-1-10 0-18 8-5 4-15 10-18 10-5 0-11 7-18 19-2 4-4 8-5 9-2 3-3 5-3 20-1 13 0 17 1 18 2 3 16 4 24 3 3-1 7-1 9-1s6-2 10-4c9-4 12-4 14 1 2 4 3 5 10 8 4 2 7 2 23 2 17 0 20 0 28-3z"/></svg>