<svg xmlns="http://www.w3.org/2000/svg" width="1344" height="566"><path d="M0 283V0h1344v566H0V283m722 279c9-1 54-1 130-1h116l3-3c3-3 3-3 3-11-1-4-1-16-2-27-1-10-2-29-3-42-1-20-1-25 0-29 1-5 1-6-1-14-2-5-5-13-7-17-3-5-6-14-9-19-7-18-10-21-26-29-15-7-36-18-45-22-8-5-20-18-25-27-2-3-4-10-5-14-2-7-2-9-1-13 0-3 1-9 1-13 0-5 1-10 2-14 5-16 5-22 5-41 0-22-1-31-8-63-6-33-11-44-24-55-13-12-26-20-43-25-9-3-11-3-24-3-17-1-44 1-53 4-19 4-32 11-45 25-14 14-19 27-19 47 0 13 2 23 9 45s6 26-10 34c-14 7-29 20-38 31-11 15-19 35-21 53-1 8-9 38-13 46-1 4-5 10-8 14-6 8-8 12-10 21-2 7-5 10-13 13-4 1-8 3-9 5-1 1-5 8-8 16-7 15-12 23-20 32-14 15-18 22-27 44-3 7-7 16-8 19-3 7-7 20-7 24 0 2 1 4 3 5l2 2 64 1c36 0 69 0 75 1 15 1 101 1 119 0z"/></svg>