<svg xmlns="http://www.w3.org/2000/svg" width="1344" height="566"><path d="M0 283V0h1344v566H0V283m630 279c68 1 215-1 238-2 19-1 19-1 19-13-1-9-4-20-9-28-2-3-4-11-6-17s-4-13-4-16c-3-6-5-22-4-25 0-3-2-9-6-13-1-1-6-4-10-6-8-4-58-29-78-38-8-4-21-10-29-13-16-8-21-11-24-16-2-5-3-46-1-66 1-8 2-25 3-37 0-22 0-25-2-40-5-30-6-32-17-69-4-11-13-34-20-49-14-28-30-48-53-64-2-1-5-4-8-5-17-12-55-21-75-18-10 1-16 3-30 11-6 3-14 8-19 9-11 4-16 7-23 15-18 17-32 50-38 84-3 23-4 39-4 93 0 31 0 59 1 66 3 36 4 46 6 54 0 5 1 14 2 20 1 10 1 11-1 13-1 1-4 2-6 3-8 2-37 13-50 19-3 2-8 4-13 6-12 5-41 20-43 22-1 1-3 4-3 8s-2 12-3 20c-5 22-5 23-2 28 7 9 15 15 37 24 6 2 14 6 19 9 8 4 15 7 24 10 3 0 7 2 8 3 9 7 19 11 32 14 13 2 52 3 100 4 23 0 41 0 42 1 0 0 5 0 11-1h39z"/></svg>