<svg xmlns="http://www.w3.org/2000/svg" width="1344" height="566"><path d="M0 283V0h1344v566H0V283m793 274c26-1 57-1 95 0 30 1 85 1 121 1 63 1 65 1 67-1 3-3 2-8-5-19-19-35-63-75-101-95-10-5-38-21-50-29-6-4-16-10-24-13-22-11-28-16-52-39-8-7-16-14-18-15-1-1-7-2-12-3-14-2-17-3-19-7-4-5-6-15-5-19 0-2 3-6 6-10 18-18 25-30 27-45 1-7 1-8-1-15-4-15-5-13 6-45 3-10 7-22 8-28 2-6 4-16 6-23 3-13 3-14 3-34 0-16 0-21-2-27-3-11-11-28-20-40-9-13-23-28-28-31-7-3-18-7-23-7-2 0-5-1-8-2-10-4-25-5-46-4-24 1-39 4-50 7-5 2-10 3-11 3-4 0-16 4-23 8-4 1-11 5-17 8-14 7-20 11-33 23-15 15-19 22-27 57-2 9-6 23-8 31-4 15-9 38-11 53-1 7-1 15 0 32 0 13 1 31 2 39 0 22 2 31 8 44 3 7 5 14 6 16s5 11 9 18c12 22 16 36 15 51-1 5-2 9-2 10-1 2-11 7-29 14-16 7-46 22-56 28-21 13-33 24-47 38-14 15-14 16-26 34-14 23-17 31-11 35 2 1 7 2 67 2h65c1 1 205 0 254-1z"/></svg>