<svg xmlns="http://www.w3.org/2000/svg" width="1344" height="566"><path d="M0 283V0h1344v566H0V283m1024 280c13-1 39-1 58-2h36c4-2 4-6 0-16-3-5-6-14-7-19-2-5-5-13-6-18-2-5-4-10-5-12-2-6-5-12-12-23-3-5-7-11-7-13-2-8-3-10-7-13s-23-12-38-18c-38-14-61-24-65-29-4-4-4-8 2-21 4-10 12-34 15-43 6-22 5-94-4-153 0-6-1-15-2-20-1-13-9-47-14-62-5-14-13-31-21-43-6-10-20-24-29-31-4-2-10-7-15-11-11-8-14-9-35-10-9 0-24 0-34-1-21-1-46 0-54 3-18 4-45 27-59 49-9 13-13 23-23 59-9 31-12 44-16 72-6 33-9 62-11 116-1 19-2 29-5 46-1 11-4 22-4 24-4 7-15 14-27 17-19 6-25 9-40 18-21 14-55 31-74 38-15 6-16 7-16 16 0 5 0 10 2 15 2 6 2 7 1 13 0 3-3 12-6 21-8 23-10 30-10 37 0 6 0 7 2 9 3 2 4 2 21 3h62c24-1 46-1 47-1h61c32 1 63 1 70 1 7 1 49 1 93 2 44 0 87 0 94 1 15 1 45 0 82-1z"/></svg>