<svg xmlns="http://www.w3.org/2000/svg" width="1344" height="566"><path d="M0 283V0h1344v566H0V283m384 277c19-1 75-1 162-1 257 2 267 2 276 1 10-1 13-2 16-6 3-3 4-22 2-35-3-17-9-25-30-42-15-12-24-18-42-31-7-4-14-9-17-11s-8-5-10-6c-3-2-7-6-11-9-5-6-17-25-18-30-1-3 1-9 5-16 14-19 38-49 46-57 11-11 19-24 25-41 1-5 5-15 8-21 13-28 18-54 18-89 0-45-10-72-40-102-18-20-28-25-50-29-9-1-18-3-22-4-21-7-49-10-66-7-29 6-62 28-79 53-10 15-14 26-20 55-6 31-7 36-16 45-7 8-9 12-11 23s-2 21 0 30c2 12 5 17 18 30 9 9 11 12 12 15s1 12 1 23c1 21 0 22-8 25-14 4-15 5-37 26-15 13-27 22-33 26-7 3-17 7-23 8-2 1-13 5-25 9-11 5-23 10-27 11-4 2-9 3-10 4-1 0-10 4-19 7s-19 8-22 9c-7 4-17 11-21 16-8 10-22 42-29 70-10 39-11 44-7 49 3 2 4 3 11 3 9 1 51 0 93-1z"/></svg>