<svg xmlns="http://www.w3.org/2000/svg" width="1344" height="566"><path d="M0 283V0h1344v566H0V283m594 258c7-3 9-5 12-13 1-4 4-9 6-11 6-7 10-14 10-18 0-2-1-8-3-14-2-10-2-11-1-18 1-4 2-9 2-11 4-11 9-31 11-40 2-14 11-44 14-46 0-1 2-1 2-1 4 2 6 33 7 91v43c0 1 2 2 4 3 7 4 21 2 23-3v-13c0-9 0-13 2-17 3-10 4-11 9-11 5 1 8 0 11-4 2-2 2-3 2-8-1-4-2-9-2-12-5-16-4-25 10-74 5-18 6-29 6-59 0-22 0-23 2-31 3-7 3-8 2-19 0-6-1-22-1-35 0-21 0-24 3-32 1-5 3-13 4-18 1-6 2-12 3-13 1-4 3-21 3-28 0-4-1-8-3-10-1-4-2-5-7-7-4-1-8-2-10-2-5 0-6-2-4-10 4-14 3-31-1-39-2-5-13-9-22-8-5 1-12 7-14 13-2 4-2 23-1 32 1 6 1 6-2 10-3 2-9 7-15 10-8 5-14 9-18 13s-7 7-8 7c0 0-5-1-12-2-17-3-25-3-37 0-13 4-17 6-21 11-9 10-11 21-7 39 3 9 3 13 2 14-1 3-12 12-16 13-1 0-5 2-8 3-5 3-7 4-10 9-2 4-5 10-7 15-3 6-3 8-3 14 1 13 9 26 23 34 3 2 6 3 10 4 3 0 6 1 7 1 0 1 1 13 1 26 0 22 0 26 2 35 1 6 4 15 6 20 1 4 3 11 4 14 0 3 2 8 2 12 1 5 2 18 1 58 0 43 1 53 2 55 0 2 3 5 6 7 6 4 9 9 9 15 0 4 2 8 4 8 1 0 4-1 6-2z"/></svg>