<svg xmlns="http://www.w3.org/2000/svg" width="1344" height="566"><path d="M0 283V0h1344v566H0V283m339 276c29-1 45-1 77 0 29 0 57 0 102-1 73-2 82-2 106 0 26 2 132 3 145 2 12-1 16-2 17-7 1-7-3-18-15-34-8-10-13-19-20-36-5-10-12-21-17-26-4-3-21-12-24-12 0 0-8-3-18-6-9-4-19-7-22-8-10-2-23-5-37-11-7-2-20-7-27-9-8-2-17-5-20-6s-7-2-9-3c-11-2-14-8-11-22 2-8 6-17 10-19 2-1 6-3 10-4 25-6 41-14 48-26 3-4 4-15 3-28-1-14 0-43 3-56 1-5 1-14 1-21 0-12 0-13-4-28-3-8-6-19-7-24 0-6-2-12-2-14-2-3-11-21-20-37-2-5-3-8-5-20-1-8-2-18-3-22 0-4-1-9-2-11 0-2-1-6-2-8-2-6-9-20-14-25-9-11-26-19-50-25-22-6-23-6-56-7-38-1-57 0-70 4-28 9-42 16-65 35-13 11-21 22-28 40-4 10-10 26-13 37s-13 59-15 67c0 2-2 12-4 22-1 9-3 21-4 26-2 16-13 61-17 69-1 1-2 4-3 7-3 10-15 37-22 52-4 9-9 19-11 24s-7 14-11 20c-8 15-15 30-15 32 0 6 5 6 24 0 13-4 14-4 17-3 1 1 3 3 5 4 3 3 9 17 14 30 3 10 3 11 3 22 0 14 0 15-10 27-12 15-19 24-20 28s1 9 4 9c7 2 14 2 37 3 15 0 27 1 28 1 2 0 19-1 39-2z"/></svg>