<svg xmlns="http://www.w3.org/2000/svg" width="1344" height="566"><path d="M0 283V0h1344v566H0V283m788 279c53-1 119-1 188 0s80 1 120-1c7-1 10-3 10-6 0-1-2-6-3-11-2-5-5-12-6-16-2-7-9-22-14-28-6-9-12-23-13-36-1-11-1-20 3-42 1-6 3-18 4-26s3-20 4-26 2-16 3-22c0-9 0-11-2-15-3-8-10-8-14 0-4 5-6 7-8 5-3-2-5-6-6-16s-2-13-6-16c-3-4-8-4-13 0-2 2-5 4-6 4l-6-4c-3-3-6-5-7-5-4 0-8 4-12 11l-3 6h-6c-6 0-6 0-10 4-5 4-7 10-10 24-1 5-2 10-3 11-3 4-7 3-28-6-28-10-54-22-57-25-2-2-3-8-1-16 3-12 5-33 7-56 1-23-3-51-10-69-5-13-17-31-25-37-14-10-30-19-48-28-12-6-43-9-58-7-17 2-47 20-61 35-10 10-16 20-21 32-2 7-4 15-4 18-1 4-2 8-2 9-1 1-2 5-2 8-2 9-5 18-7 27-2 5-2 9-2 12 1 5 1 8-2 24-1 6-1 8 0 15 1 5 2 12 3 15 0 7 0 8-2 10-1 2-6 5-10 7-10 5-70 25-81 27-7 1-9-6-9-28 0-15-1-21-4-24s-6-2-12 4c-3 3-6 5-7 5-2 0-3-3-6-14-7-19-12-21-21-7-4 5-6 6-10 3s-7-4-10-1c-3 2-3 3-8 17-4 16-5 16-14 14-5-3-9-2-12 0-2 3-3 18-1 31 1 5 2 13 3 16 4 23 6 33 9 48 1 4 2 8 2 9s1 5 1 7c3 9 6 26 6 32 0 5-1 12-5 30-5 20-13 40-21 52l-5 8 2 3c2 1 4 2 8 2 3 0 8 0 12 1s10 1 15 0h21c9 1 30 0 54 0 22-1 41-1 43-1 10 0 126 2 138 3 8 0 19 1 24 0h34z"/></svg>