<svg xmlns="http://www.w3.org/2000/svg" width="1344" height="566"><path d="M0 283V0h1344v566H0V283m807 278c11-2 138-2 203 0 38 0 46 0 49-3s2-8-1-14c-1-2-3-8-5-14-4-14-5-16-13-26-3-4-7-11-8-15-2-4-5-8-7-9-4-4-27-15-45-22-21-9-38-17-41-20-1-1-2-3-3-5-1-3 4-25 8-39 6-20 11-41 13-53 1-10 1-19 1-77 0-60 0-67-2-87-3-29-6-43-12-64-6-16-11-27-20-40-6-9-21-24-30-31-24-18-63-29-83-23-4 2-9 2-21 2-16 0-23 1-33 6-20 10-47 34-60 53-10 14-17 33-31 82-7 24-11 47-19 95-2 14-6 43-7 56 0 5-1 17-3 27-3 19-4 23-9 32-1 1-3 5-4 7-5 12-16 18-45 29-10 3-31 13-54 24-15 8-24 12-36 16l-21 7c-4 3-9 9-12 14-2 3-1 10 2 18 2 7 2 7 1 13-1 4-5 15-10 24-9 22-10 24-10 29 0 3 1 4 3 6 3 2 9 2 110 1 155-1 170-1 186 1 14 1 56 1 69 0z"/></svg>