<svg xmlns="http://www.w3.org/2000/svg" width="1344" height="566"><path d="M0 283V0h1344v566H0V283m663 278h63c32 0 45-1 60-4 5-1 10-3 11-4 4-3 2-11-6-18-3-3-4-6-5-10-3-12-4-23-3-33 1-8 0-29-3-59-1-6-2-28-2-49-1-36-1-39-3-52-7-31-12-46-21-58-3-4-12-13-20-20s-15-14-16-16c-2-3-2-13 0-20 1-3 4-12 7-20l5-16v-26c0-42-2-57-8-75-5-13-18-28-33-40-11-8-38-22-51-26-22-7-53-10-71-6-24 5-31 7-46 18-20 13-34 33-43 59-3 7-5 19-9 49-2 16-3 17-10 19s-7 4-8 25l-1 19-4 9c-5 10-17 29-23 36-3 4-6 6-15 10-15 7-61 37-84 54-12 9-28 25-37 36-10 13-33 46-36 54-5 10-8 20-12 35-5 20-7 63-4 75 1 1 1 6 2 13 2 17 4 32 6 35 3 6-1 5 86 5 44 0 89 0 99-1 26-1 108 0 130 2h105z"/></svg>