<svg xmlns="http://www.w3.org/2000/svg" width="1344" height="566"><path d="M0 283V0h1344v566H0V283m531 276c7-1 49-2 65-2 48 0 149 1 169 1h420c8 0 9 0 11-2 3-3 2-6-6-18-17-24-32-36-61-50-10-5-21-10-25-11s-12-4-18-6c-9-4-18-7-42-16-6-2-14-5-17-6-4-2-9-4-12-5-13-3-33-13-47-22-27-19-28-19-27-30 1-4 2-12 4-18 1-7 3-15 3-18 1-6 9-39 12-53 1-5 3-11 5-13 2-5 3-6 13-10 18-10 30-25 39-52 3-7 3-10 3-18 0-13-1-16-9-24-5-5-7-8-8-11 0-4 1-13 5-38 3-20 5-44 5-54s-3-30-5-38c-5-18-22-36-37-38-11-2-47-3-123-3-88 0-107 0-118 4-4 1-5 2-8 7-14 21-22 53-28 103-1 19-5 41-9 54-3 11-3 30-1 40s7 27 12 38c3 7 8 21 11 32 4 11 9 27 12 34 8 21 9 30 9 47 0 19-1 25-7 29-4 2-5 3-22 3-17 1-19 1-23 3-3 1-13 11-28 26-27 27-30 30-49 38-6 3-23 11-38 18-15 6-28 12-31 13-23 9-38 17-54 28-12 7-34 30-34 34 0 2 4 4 16 5 14 1 64 0 73-1z"/></svg>