<svg xmlns="http://www.w3.org/2000/svg" width="1344" height="566"><path d="M0 283V0h1344v566H0V283m146 276c19 0 34-1 41-2 13-2 77-2 137-1 32 1 35 1 40-1 4-1 5-2 6-6 1-3 1-6-3-29-2-13-4-27-4-30-1-3-2-10-2-16-1-5-3-16-4-24-3-23-9-51-12-62-2-7-10-26-16-36-14-26-25-36-68-61-15-8-20-11-20-13-1-3 3-11 18-37 7-12 8-17 7-23-1-10-1-11 4-18 2-3 4-8 4-10 2-5 4-9 10-16 11-11 12-18 3-45-6-18-7-24-8-49-1-16-1-23-2-26-3-8-20-41-22-44-2-1-4-3-7-4-3-2-11-2-122-2C27 4 7 4 4 5L1 6v545l2 3c1 2 3 4 5 5h15c8-1 17 0 27 0 14 2 15 2 96 0m484 0c53-2 138-2 199-1 53 1 224 2 263 2 20 0 43-1 45-2 3-3 1-12-6-25-5-11-8-16-24-33-20-22-29-30-46-43-8-7-21-18-29-26-21-18-26-22-42-34-8-5-19-13-24-18-6-4-13-8-16-10-5-2-7-2-20-2-14-1-15-1-20-4-13-7-16-11-22-23-2-5-2-6-2-23 0-16 0-18 2-25 3-11 5-14 15-25 25-28 34-54 28-76-2-8-3-18-1-28 6-28 4-55-5-71-7-14-21-29-38-40-22-15-45-22-77-23-27-1-45 4-64 15-24 15-40 36-45 60-3 14-7 45-8 64-1 9-3 25-5 36-2 13-3 22-3 29 0 10 4 40 7 52 2 8 9 26 15 39 5 8 7 11 15 19 7 7 10 11 10 12 0 5-7 9-33 22-35 17-39 19-52 28-20 12-52 37-64 50-16 16-40 49-44 59-4 12-11 35-11 38 0 5 3 7 11 8 7 1 44 0 91-1z"/></svg>