<svg xmlns="http://www.w3.org/2000/svg" width="1344" height="566"><path d="M0 283V0h1344v566H0V283m494 81c2 0 6-1 7-1 2-1 6-3 21-15 5-3 6-3 9-3 3 1 8 1 13 2 4 0 12 2 18 4 10 3 21 5 36 7 5 1 13 2 18 3s20 2 42 2c45 2 46 2 50 0 4-3 11-3 17-2 5 1 7 1 13 0 4-1 10-2 14-3 6 0 30-4 36-6 2 0 6-1 9-2 3 0 7-1 10-2s9-1 22-1c14 0 18 0 19-1 1-2 1-10-1-30-1-12-1-24 1-27 1-2 3-4 4-6 2-1 5-4 6-6l3-3h12c16 0 19-1 21-7 2-5 1-91-1-105-1-7-2-15-3-19-3-23-12-52-17-61-11-16-34-32-52-34-17-2-47 4-62 14-10 7-18 17-23 32-2 6-2 10-3 36-1 17-1 34-2 39 0 9 2 25 5 38 1 8 1 24-1 32-2 9 0 8-44 8h-39l-9 5c-5 3-13 6-17 8-5 2-10 5-12 7-3 2-8 5-12 7-6 3-9 4-14 4-3 0-8-1-10-2-10-3-20 0-30 8s-14 10-34 11c-16 1-21 2-21 5 0 2 3 5 5 5l2 2c2 2 2 2 0 8-1 3-3 7-3 9-2 6-6 15-10 25-5 10-6 13-4 16 1 1 3 1 11-1z"/></svg>