<svg xmlns="http://www.w3.org/2000/svg" width="1344" height="566"><path d="M0 283V0h1344v566H0V283m876 276c10-1 12-2 14-6 3-4 4-20 4-50 1-34 0-46-6-66-3-7-6-18-7-23-1-6-3-13-4-17s-2-8-3-11c-3-12-6-23-8-27s-4-13-8-27c0-4-2-10-3-14-2-3-4-10-6-16-11-34-37-69-59-77-11-4-16-10-18-25-1-7-1-10 1-19 2-15 2-35 0-45-6-22-25-40-45-43-4-1-11-1-15-1-8 1-11 2-17 4-4 2-11 5-14 6-10 3-16 7-26 17-11 11-16 19-19 25-3 7-4 21-3 33 1 9 2 10 5 14 5 6 5 5 6 18l1 11-4 7c-5 9-8 14-11 25-1 5-5 15-9 22-3 7-7 16-9 20-3 10-7 16-16 29-14 21-20 27-44 51-23 23-25 24-37 32-8 5-15 9-17 10s-7 1-25 0l-23-1-6 2c-3 2-10 4-16 5-14 4-19 6-21 11-2 6 0 17 5 26 6 9 11 12 28 13 15 2 20 2 31-2 9-2 20-5 37-8 7-2 21-2 24 0 1 1 6 6 10 11 9 12 13 15 22 19 15 7 18 8 32 8 14 1 22 3 31 7 2 2 5 3 7 4 5 3 6 6 6 12 0 5 0 5 11 17 13 14 16 16 30 16 5 0 15 1 21 1 6 1 34 1 61 1s49 1 50 1c0 1 44 0 62 0z"/></svg>