<svg xmlns="http://www.w3.org/2000/svg" width="1344" height="566"><path d="M0 283V0h1344v566H0V283m775 249c3-1 7-2 8-3 3-1 5-1 10-1 6 1 13 0 32-5 4 0 10-2 13-3 4 0 11-2 15-3 5-2 14-4 21-6 6-2 14-4 18-5 5-2 10-2 26-3 10 0 22 0 26 1 8 1 13 0 14-4v-17c0-12 0-16-2-27-2-8-4-18-4-24-1-7-2-14-3-18s-1-11-1-16c0-11-2-15-6-17s-23-7-41-12c-19-4-20-5-20-16 0-4-1-10-2-14-1-7-2-8-7-13s-6-7-4-11c1-2 0-4-4-14-9-18-17-40-19-48 0-3-1-6-2-7 0-2-4-10-7-20-3-9-9-25-13-36-4-10-9-23-10-28-8-20-15-32-26-45-15-18-34-29-67-38-10-2-27-4-38-2-8 1-34 8-42 11-27 11-45 26-56 49-7 15-10 24-13 38-2 12-2 20-1 41 1 8 1 30 2 49s2 37 2 41c1 8 0 16-3 19-2 3-16 13-26 18-11 6-20 14-24 23s-5 10-13 15c-7 4-11 4-15 1-4-4-5-4-12 1-9 5-14 8-24 11-17 5-21 8-28 16-8 10-14 13-27 14-10 1-10 1-13 4-4 5-11 20-15 31-2 5-4 11-4 13-1 2-2 6-2 8 0 3-1 7-2 10s-2 8-2 10c0 4 1 5 3 8 3 3 9 5 11 4 1-1 5-2 10-2 5-1 11-2 12-3 4-1 5-2 18-4 8-2 18-2 24-1 3 1 6 1 14-1 6-1 12-2 14-2 5 1 16-1 20-3 3-2 19-2 26 0 3 0 8 1 12 2s9 3 12 4c6 3 17 8 23 9 3 1 22 1 43 2 58 1 94 4 110 9 7 2 10 4 13 7 5 4 9 5 25 5 9-1 18-1 21-2z"/></svg>