<svg xmlns="http://www.w3.org/2000/svg" width="1344" height="566"><path d="M0 283V0h1344v566H0V283m490 108c7-1 19-3 26-3 8-1 17-3 21-4 25-7 34-7 56-4 16 2 35 4 74 5 15 0 30 1 34 2 5 1 9 1 17 0 5 0 14-1 20-1 9 0 19-1 30-5 4-1 11-3 16-4s13-3 16-4c9-2 21-4 27-5 3 0 10 1 18 2 13 2 13 2 15 0s2-2 1-11c-2-14-3-34-3-51 0-22 2-26 12-29 5-1 6-3 3-7-2-4-3-8 0-17 4-17 5-35 5-65 0-32 0-37-5-62-7-34-12-48-23-62-8-9-23-20-39-26-14-5-21-5-49 2-22 6-35 16-43 32-6 13-8 21-9 44 0 11-1 23-2 26-2 15-3 30-4 68 0 27-1 42-2 44-2 8-2 8-26 7-11 0-27 0-35-1-17 0-26 1-36 6-3 2-8 4-12 5-3 0-8 2-10 4-5 2-14 10-14 12 0 1-4 5-5 5-3 0-4-3-4-11 0-9-3-20-6-23-1-1-6-4-10-6l-12-8c-8-4-13-4-19 0-7 6-11 8-17 9-3 1-6 2-7 3-4 4-10 17-11 24 0 4-1 9-2 11-1 3-2 6-1 6 0 1 2 28 2 36 0 3-1 8-1 11-4 11-5 18-6 25 0 4-1 10-2 12-1 5-1 5 1 7 3 2 5 2 21 1z"/></svg>