<svg xmlns="http://www.w3.org/2000/svg" width="1344" height="566"><path d="M0 283V0h1344v566H0V283m499 82c7-2 20-8 28-14 4-2 6-3 10-3 6 0 24 3 31 4 3 1 10 2 16 3 6 0 11 1 12 1 2 2 25 4 46 5 64 2 62 2 66 0 3-1 6-1 18-2 9 0 18 0 24-1 4-1 12-3 17-3 4-1 10-2 12-2 2-1 7-2 11-3 3 0 8-1 10-2 6-1 17-2 32-2 10 0 14-1 15-2 2-2 2-3 0-30-1-15 0-24 4-28 1-2 3-5 4-7l4-4c1 0 8-1 16-2 14 0 15-1 18-3l3-2v-21c0-27-2-86-3-91 0-3-1-8-2-13-2-20-11-49-17-60-6-12-22-24-40-32-8-3-9-3-21-3-13 0-26 2-40 8-19 7-31 21-37 42-2 10-2 11-2 30 1 15 1 23 0 32-2 12-1 25 3 43 2 11 1 36-1 41-3 4-4 4-14 3-5-1-22-1-39-1h-30l-9 5c-5 3-13 6-18 8s-9 5-12 7c-2 2-7 5-12 7l-8 4-7-1c-4-1-11-1-15-1-9 0-13 1-21 7-10 9-16 11-39 12-13 0-16 1-18 2-3 3-3 7 2 11 4 5 4 6-3 26-1 4-3 10-5 14-8 19-6 21 11 18z"/></svg>