<svg xmlns="http://www.w3.org/2000/svg" width="1344" height="566"><path d="M0 283V0h1344v566H0V283m812 277c1-1 3-3 3-4 3-6-2-49-8-77-4-23-5-31-4-41 1-8 2-12 10-38 2-7 5-16 6-20 1-3 3-9 5-14 8-23 10-33 9-49-1-9-1-12-6-24-7-21-8-27-6-48 2-8 2-12 1-16-2-10-2-11 4-15 3-2 6-5 7-7 3-6 1-23-5-44 0-2-3-12-4-20-5-22-11-32-22-39-6-3-7-3-16-3-11 0-23 2-28 6-10 6-12 12-14 40-1 18-2 20-7 22-12 3-19 13-25 37-2 7-4 16-5 21s-2 10-2 11-1 6-2 9c-3 11-15 29-19 29-1 0-4-2-7-3-9-6-15-7-26-7-15 1-19 5-11 12 6 6 14 12 18 13 4 2 5 3 8 11 3 7 10 16 13 17 5 1 13-1 23-6l10-5 15-1c13 0 14 0 15 2 4 5 1 29-5 41-3 6-3 8-2 12 0 6 3 9 9 11 7 2 8 1 13-4 5-6 12-10 18-10 3 0 4 1 9 5 6 6 7 9 7 13s-8 20-21 41c-7 13-12 22-14 28l-3 10v20c-1 23 0 22-7 42-6 14-5 22 1 26 3 1 3 1 11-3 9-6 14-7 19-5 3 2 9 10 13 17 3 5 4 6 10 7 7 1 9 1 12 0z"/></svg>