<svg xmlns="http://www.w3.org/2000/svg" width="1344" height="566"><path d="M0 283V0h1344v566H0V283m1078 277c18 0 19-1 19-8-1-7-6-19-10-25-2-3-7-9-11-14-5-5-12-14-16-19-8-10-15-16-43-40-7-6-19-16-27-23-14-14-23-21-48-40-27-19-29-20-52-22-22-2-28-4-38-19-8-14-11-35-7-56 3-15 5-21 15-34 10-11 17-25 21-37 4-10 4-21 2-34-2-8-2-9-1-22 5-39 3-59-9-79-10-17-31-34-56-44-18-7-32-10-55-10-36 0-53 5-78 24-4 3-9 8-12 10-5 6-13 19-16 26-4 7-6 23-8 39-1 7-2 18-2 25-1 7-2 19-3 27 0 8-1 21-3 30-3 22-3 28 4 61 4 22 16 53 25 64 2 2 7 7 13 10 11 7 13 9 13 14s-4 9-15 14c-5 3-14 7-19 10-6 3-12 7-15 8-20 10-64 42-87 64-9 10-18 21-33 42-8 10-15 25-18 38-3 11-3 12-2 15 3 5 4 5 38 5 18-1 52-1 76-2 24 0 58 0 75-1 30 0 79 0 175 1 142 3 183 3 183 4h6c3-1 12-1 19-2z"/></svg>