<svg xmlns="http://www.w3.org/2000/svg" width="1344" height="566"><path d="M0 283V0h1344v566H0V283m842 279c15-1 17-1 20-3 6-3 7-7 7-16-1-11-3-17-14-39-10-21-15-29-22-36-9-10-39-49-51-65-3-4-11-14-18-23-25-28-31-40-35-58-1-5-3-11-3-14-3-11-1-15 12-25 11-9 22-20 23-24 1-2 1-6 1-12l-1-9 6-8 6-9v-7c-1-8-8-24-14-30-6-7-10-8-23-9-10 0-11 0-19-4-14-7-19-6-40 8-19 12-20 12-33 6-12-6-16-7-22-4l-5 2-4-2c-2-1-5-3-6-4-3-5-6-21-7-44-2-35-5-52-14-71-6-13-14-21-24-30-23-16-65-25-94-18-17 5-43 17-55 27-9 8-15 16-20 26-8 16-8 19-9 50 0 26 0 27-2 35-2 4-3 10-3 13 0 6 3 16 8 27 6 11 9 15 21 27 8 9 10 11 11 16 2 7 4 26 4 29-2 9-31 43-44 52-2 2-6 5-8 7-3 2-9 5-15 8-5 2-14 6-19 9-5 2-11 4-12 4-2 0-17 7-24 12-3 2-10 6-16 10-9 4-13 7-18 12-10 11-11 15-12 36-1 9-1 21-2 25s-1 8 0 10 2 8 3 15c1 11 1 17-1 53-1 19-1 23 3 29 6 10 14 14 33 15 15 1 52 1 65-1 21-3 445 0 448 2 1 1 19 1 38 0z"/></svg>