<svg xmlns="http://www.w3.org/2000/svg" width="1344" height="566"><path d="M0 283V0h1344v566H0V283m748 280c15-2 79-3 152-3 66 0 72-1 75-2 1-1 3-3 3-4 2-5 0-16-11-48-6-20-7-27-7-39s3-51 4-64c1-9 3-79 3-95 0-11-2-19-9-31-7-15-24-31-62-61-5-4-10-9-11-11-3-6-5-15-5-29 0-29-5-49-17-70-5-9-12-16-25-27-7-5-15-12-18-15-7-6-16-12-23-16-7-3-42-6-60-6-12 1-13 1-26 6-16 6-22 8-33 16-17 11-32 30-45 56-9 15-10 21-12 48-2 26-3 27-49 50-28 14-35 19-44 27-7 8-10 16-12 31-4 26-9 51-14 66 0 2-2 10-4 18-1 7-3 17-5 24-4 13-8 33-9 44-1 5-1 9-2 9 0 0-1 8-1 17-2 18-5 31-10 37-1 1-2 3-2 5 0 5-3 9-13 18-9 9-11 10-13 10-2-1-4 0-7 1-3 2-4 2-9 1s-5-1-10 1c-3 1-7 3-13 3-4 0-10 2-12 2l-12 4c-4 1-8 3-8 4-3 3 4 6 14 8h34c25 0 29 0 36 2 4 1 9 3 10 4s5 3 7 4l5 2 99 1c56 0 100 1 101 1 3 3 53 3 70 1z"/></svg>