<svg xmlns="http://www.w3.org/2000/svg" width="1344" height="566"><path d="M0 283V0h1344v566H0V283m772 276c53-1 56-1 60-3 2-1 5-4 6-6 3-5 8-22 11-40 3-13 3-16 5-16 1 0 6 5 11 10 9 11 17 18 25 23 20 12 29 14 60 14l22-1 3 3c1 2 2 4 2 5 0 3 2 4 13 5 5 1 12 2 15 2 8 1 18 1 24 0 3-1 9-2 13-3 9 0 12-2 15-8 2-6 1-10-4-21-6-11-11-17-19-23-8-5-11-10-13-20-2-12-4-18-11-25-6-6-10-9-23-16-12-7-16-11-28-23-4-6-14-16-20-22-13-13-19-21-30-42l-4-7v-16c0-13 0-16-2-22-3-8-17-36-20-39-1-1-7-4-13-7-7-3-12-7-13-8-2-2-2-3 1-11 3-7 7-23 15-52 2-11 2-17 0-41-1-5-1-16-2-24-1-17-3-28-6-34s-15-23-19-27c-5-5-8-7-27-13-21-7-28-9-49-10-18 0-22 0-36 6-10 5-19 11-27 20-14 14-20 30-31 71-13 53-19 71-31 96-8 15-17 26-31 33-7 3-13 9-20 20-3 6-9 14-12 19-8 9-13 18-26 44-11 21-13 27-23 55-9 23-12 33-15 47-9 40-13 75-10 85 2 4 12 10 24 14 8 3 12 3 25 4 8 1 16 2 18 2 6 3 103 4 197 2z"/></svg>