<svg xmlns="http://www.w3.org/2000/svg" width="1344" height="566"><path d="M0 283V0h1344v566H0V283m848 279c16 0 49 0 74-1 26 0 47 0 48-1 5-1 38-2 86-3 51 0 51 0 60 2 8 2 9 2 21 1 14-1 26-5 29-9 2-3 3-9 0-16 0-3-1-6-1-8 0-1-1-5-2-9-5-17-6-25-9-65-1-29-4-46-9-79-12-68-18-87-33-105-12-14-23-20-64-37-22-8-32-14-41-23-6-6-7-10-7-28 1-17 1-18 9-28 6-8 9-15 11-25 0-5-1-9-5-14-3-3-3-4-3-22-1-15-1-20-3-28-3-11-6-15-17-26-8-8-9-9-17-12-15-5-35-3-53 5-13 6-29 18-32 25-4 7-5 17-6 42-2 42-3 38 7 58 9 19 12 27 13 38s0 12-7 17c-3 2-8 6-11 9-10 8-22 15-43 26-22 11-33 17-43 27-11 9-23 30-28 45-6 16-15 62-20 98-1 12-3 25-4 30-2 17-1 30 4 47 3 10 2 19-2 28-3 6-3 8-3 16 0 13 2 16 13 22 6 3 7 3 27 4 11 0 23 1 26 0 4 0 19 0 35-1m-540-2c20 0 40 1 44 1h23c17-1 18-1 25-5 6-3 8-3 13-2 4 0 11 0 17-1 10-2 13-2 20-1l30 6c10 3 36 4 135 4 87-1 98-1 101-2 6-3 7-7 5-24-5-28-9-60-10-75-1-20-3-29-8-43-9-26-17-38-30-47-6-4-9-7-7-10 0-1 4-3 9-5 11-4 15-8 15-15 0-5 3-19 7-30 1-4 2-9 2-9 0-1 2-5 5-8 6-7 6-7-2-24-7-13-10-22-12-33-1-3-2-9-3-14-4-10-15-38-18-44-3-7-12-13-23-19-16-7-26-10-57-13-8-1-23 0-30 2-18 5-39 21-46 36-5 10-8 18-12 32-2 7-4 13-4 14-1 1-3 12-5 24-3 12-6 27-7 33-2 6-5 21-7 34-5 37-9 48-21 61-4 4-10 11-12 14-5 7-16 30-16 33 0 0-1 4-2 7-2 4-4 10-6 15-4 10-5 11-7 11-5 0-8-12-9-39 0-13 0-23-1-28-6-26-7-33-9-41-3-16-7-29-11-36-4-9-14-19-27-29-12-9-20-15-22-19-1-3-1-4 0-9 1-4 4-12 7-19 4-9 6-17 8-28 3-15 3-16 3-32-2-44-5-56-15-67-7-8-26-19-39-21-12-2-28-1-41 4-14 6-24 16-29 30-2 4-2 9-3 21 0 9-1 18-2 21-1 5-1 7 0 12 2 6 6 15 11 27 4 9 6 18 5 26 0 6-2 8-9 12-4 2-7 4-10 8-13 16-16 20-26 28-11 9-16 14-20 19-1 2-8 8-16 15-14 12-22 20-26 29-6 12-10 31-10 50 0 15-2 35-5 52-4 25-3 32 11 62 1 4 4 12 6 17 4 17 10 28 15 31 3 2 32 3 79 2 22 0 58-1 79-1z"/></svg>