<svg xmlns="http://www.w3.org/2000/svg" width="1344" height="566"><path d="M0 283V0h1344v566H0V283m890 278c12-1 20-2 21-3 5-2 5-8-1-29-2-7-4-16-6-21-2-10-9-33-14-54-2-9-5-19-6-22-5-14-13-41-18-56-4-16-11-32-21-51-8-14-12-24-12-30 0-2 1-7 2-11 1-6 1-9 0-19-1-14-3-17-11-30-7-10-10-16-12-24-3-9-2-22 1-30 3-6 5-14 5-18 0-7-4-19-14-39-6-12-10-21-10-22 0-3-8-17-12-21-10-10-32-17-54-17-13 0-13 0-23 4-19 8-25 11-31 20-8 10-13 22-19 44-2 8-2 12-2 26-1 13-1 17-2 19-3 3-9 6-25 13-13 6-15 7-18 11s-3 5-3 9c2 11 6 15 20 19 7 3 12 7 11 10-1 1-6 7-12 13-13 12-17 19-19 30-2 7-1 25 2 38 2 15 2 42 0 54-3 11-2 16 2 26 1 4 3 13 4 20 2 11 2 14 1 24-1 8-1 19 0 32 0 16 0 19-1 22-4 6-2 43 2 54 2 3 9 7 19 7 5 1 41 1 80 1 38 0 76 0 84 1 24 1 72 1 92 0z"/></svg>