<svg xmlns="http://www.w3.org/2000/svg" width="1344" height="566"><path d="M0 283V0h1344v566H0V283m695 277c45 0 68-1 71-3 2-1 8-1 23-1 25 0 25 0 23-12-2-13-6-25-9-32-4-7-8-19-8-24s2-5 16-4c13 0 14 0 18-2 8-4 17-13 22-22s5-9 12-13c5-2 6-3 6-5 0-4-4-11-12-19-6-5-10-14-10-18 0-2-1-7-2-11 0-3-2-10-2-14-1-3-2-9-2-11-1-2-3-9-4-15-1-5-3-13-4-17s-2-10-2-13c-2-8-5-22-8-30-2-6-4-8-11-16-8-7-11-9-19-13s-11-7-19-14c-11-11-13-17-12-25 0-5 2-8 6-8 5 0 7-8 7-31 0-17 0-20-7-47-5-21-10-30-21-41-8-8-13-10-31-11-27-1-32-1-39 3-11 6-23 20-29 36-3 8-4 22-2 34 1 5 2 12 2 17 1 11 2 14 8 20 9 11 13 23 10 31-1 2-5 6-9 10-9 8-18 13-39 20-13 5-27 12-31 15-4 4-13 25-15 36 0 2-1 4-1 5-1 1-2 5-2 8-1 4-2 9-2 11-3 8-5 19-7 27 0 4-2 9-2 11-1 3-2 7-2 10s0 7-1 9-2 8-3 13c0 6-2 12-2 15-1 3-1 5 0 10 1 3 2 9 2 14 2 11 5 16 16 26 7 8 11 10 18 13 4 2 8 5 9 6 0 2-1 8-7 24-13 40-13 43-7 46s21 4 51 3c14 0 43 0 63-1z"/></svg>