<svg xmlns="http://www.w3.org/2000/svg" width="1344" height="566"><path d="M0 283V0h1344v566H0V283m890 278c6-3 11-9 13-13 3-6 5-23 5-37v-11l-4-9c-5-11-13-23-20-32-3-3-12-18-21-37-9-18-18-33-19-35-4-6-29-63-32-73-2-6-3-20-1-25 0-1 3-7 5-13 3-7 5-12 5-14-1-1-4-3-8-5-11-5-11-6-13-35l-1-24-5-14c-4-14-6-18-15-34-6-12-9-15-18-19-8-5-9-5-13-13-3-8-9-12-18-14-10-2-20 1-32 9-11 8-21 16-27 22-4 3-8 6-10 7-4 2-5 2-13 1-5-1-14-1-20-2-12-1-17-2-19-6 0-1-2-9-2-19-4-40-15-66-35-81-12-10-29-17-48-21-10-2-14-2-27-2-19 1-26 2-43 10-31 13-44 24-54 44-9 19-10 21-10 54 0 27 0 29-2 36-2 6-2 8-2 14 2 16 14 37 31 54 9 7 9 8 10 15 3 11 4 25 4 29-1 6-17 23-37 41-6 5-14 12-18 16-5 5-10 8-15 10-3 1-11 5-16 7-5 3-10 5-11 5-3 0-22 8-26 11s-14 8-22 11c-17 7-22 14-24 37-1 6-2 16-4 22-4 17-6 27-7 45-1 9-2 18-2 21-3 15-3 17-4 19-2 4-5 15-5 19 0 5 4 14 9 19 8 8 13 9 39 10 17 0 22 0 24-1s9-2 32-2h34c2-1 9-1 14 0 6 1 33 1 60 2h94c21-1 48-1 60 0h68c74-2 121-2 140 1 22 2 72 3 76 0z"/></svg>