<svg xmlns="http://www.w3.org/2000/svg" width="1344" height="566"><path d="M0 283V0h1344v566H0V283m836 279h152c51 0 83 0 95-1 24-1 24-2 17-22-3-6-5-12-5-12 0-2-10-23-14-28-4-6-8-15-11-23-2-7-2-9-2-23 0-13 0-20 3-39 8-48 9-59 9-70 1-13-1-16-6-18-3-2-7 1-11 9s-6 8-9 1c-2-4-3-9-4-15-1-11-3-15-7-18-3-3-6-3-10 2-2 2-5 4-6 4-2 0-4-2-7-5-7-8-11-7-18 5l-4 7-6-1h-6l-5 4c-4 5-5 7-8 24-1 6-3 12-4 13-3 4-16 0-61-19-21-9-26-12-26-16 0-1 1-8 3-15 6-30 7-58 5-85-2-20-4-28-10-41-4-10-15-25-20-31-5-4-20-14-28-18-4-2-11-6-15-8-9-6-17-8-31-10-16-3-32-3-41-1-8 2-34 15-41 21-15 11-31 31-34 42 0 3-2 8-3 10-1 3-2 6-2 8 0 3-2 11-9 38-2 8-4 15-4 23 0 6-1 14-2 18-1 7-1 15 2 30 1 9 1 10-1 13-2 5-12 10-33 17-50 16-59 18-62 14-3-2-4-13-4-28s-1-20-4-23c-3-1-5-1-12 6-4 2-7 4-7 3-1 0-4-6-6-13-4-10-5-14-7-15-4-3-6-2-12 5s-6 8-12 5c-4-2-6-2-8-1-3 1-6 6-8 15-3 9-6 16-8 17-1 1-4 0-8-1-13-3-15 0-14 18 0 6 1 14 1 17 1 3 2 9 2 13 1 4 1 8 2 10 1 1 2 5 2 9 1 7 3 17 6 31 1 5 3 12 4 16 2 13 4 24 4 29 0 12-6 37-13 55-5 15-8 20-14 29-7 9-8 13-1 15 1 1 13 1 29 2 15 0 29 0 32 1 2 0 25 0 51-1 45-1 90 0 167 2h118z"/></svg>