<svg xmlns="http://www.w3.org/2000/svg" width="1344" height="566"><path d="M0 283V0h1344v566H0V283m302 277c23-1 44-1 46-1 1 0 5 0 7 1 4 1 6 1 8 0 4-2 21-2 28 0 3 1 14 1 37 1 48 0 165-2 167-2 1-1 12-1 23 0 13 1 48 1 88 1 59 0 66 0 69-1 4-2 5-6 3-13-4-22-5-27-8-34-3-6-3-9-4-19 0-7-1-13-2-15-3-6-10-10-32-21-11-5-21-10-22-10l-14-7c-7-3-21-10-30-14-35-15-37-16-37-21 0-6 7-27 17-47 9-21 18-53 20-73 0-9-2-40-4-59-1-9-3-24-5-34-1-10-2-20-3-22-2-17-12-57-19-73-5-11-16-31-24-40-14-16-49-39-73-47-9-3-10-3-28-4-12 0-20 0-24 1-7 1-23 6-34 11-4 2-12 4-16 5-5 1-12 3-15 4-10 4-22 14-32 27s-22 40-31 67c-6 20-18 62-20 73-1 4-3 11-4 15-2 12-11 54-15 77-6 32-8 47-9 82-1 37 0 35-16 45-7 4-18 10-26 14-7 4-15 9-17 10-3 2-10 6-18 9-21 10-28 15-32 22-1 1-3 7-5 12-3 5-9 16-15 25-17 26-26 46-22 51 3 3 8 4 17 5 12 1 70 0 126-1z"/></svg>