<svg xmlns="http://www.w3.org/2000/svg" width="1344" height="566"><path d="M0 283V0h1344v566H0V283m553 240c10-1 22-2 27-2 32-5 39-7 46-12s12-7 26-9c14-1 37-2 143-2 51-1 81-2 93-5 4 0 14-2 23-3 21-2 21-2 26-5 2-2 4-3 6-4 1 0 10 0 19 1h29c12 0 13 0 18-2 7-4 9-6 18-22 6-12 7-18 4-21s-9-3-14-1c-7 2-10 2-12 1-1-1-1-2 0-4 3-5-1-10-7-10-2 0-6 1-9 2-3 0-8 1-11 2-7 1-14 4-26 9-14 6-16 7-20 4-4-2-6-7-6-13 0-2-1-7-2-10-1-6-2-9-9-26-1-3-5-12-8-18-4-7-9-19-13-27-12-29-28-58-39-72-12-15-19-21-46-42-3-3-14-11-23-20-16-13-24-20-43-35-8-7-17-12-23-15-2 0-5-1-5-2-1 0-6-3-13-5-6-3-16-8-23-12-8-4-19-10-26-14-14-7-18-10-23-19-4-8-18-22-26-26s-25-7-31-7c-13 2-27 14-35 31-7 14-9 23-9 34s2 19 7 29c5 9 9 13 12 13 4 0 8 4 12 10s4 12 0 20c-5 9-11 15-20 21-6 4-9 7-12 11-6 8-19 22-30 33-9 8-9 8-20 30-6 12-12 25-13 29-3 8-9 22-17 41-5 10-16 26-27 38-11 11-12 12-14 19-2 6-2 10-2 16 0 8 3 27 5 33 1 1 2 6 2 10 1 7 4 15 8 18 6 6 25 10 52 11 22 1 58 0 81-1z"/></svg>