<svg xmlns="http://www.w3.org/2000/svg" width="1344" height="566"><path d="M0 283V0h1344v566H0V283m876 278c13-1 12 1 12-34-1-25-1-28 1-33 3-9 9-13 26-20 4-1 9-4 12-6 13-9 16-10 23-13 8-3 10-5 17-14 4-5 7-7 20-8 12-1 15-2 20-9 2-3 7-9 11-14 12-14 15-22 12-29-1-1-2-5-3-8-3-16-9-18-23-8-8 6-34 18-45 22-4 2-12 5-18 7-10 4-12 4-20 4s-9 0-12-3c-4-3-5-5-6-14-1-4-3-9-4-11-1-1-3-6-5-10-5-13-15-33-17-38-8-12-18-23-32-37-9-8-16-15-17-17 0-1 1-4 3-7 2-4 3-7 3-8 0-4 5-17 10-27 3-5 6-11 6-13 0-1-1-6-2-10-2-8-2-9-1-20 1-7 1-21 1-32 0-18 0-20-3-25-4-10-14-18-31-26-11-6-19-7-31-7-19 2-36 7-41 13-4 3-14 22-18 32-6 13-12 30-14 41-1 5-3 12-4 16-5 15 1 29 22 47 5 4 6 7 3 15-3 9-7 16-14 28-4 6-11 17-16 25-4 9-10 19-13 22-5 8-6 11-11 24l-3 8v32c0 34 0 39 6 70 3 19 12 49 19 65 2 4 4 11 5 16 2 5 4 10 4 11 2 1 21 2 47 4 15 1 108 0 121-1z"/></svg>