<svg xmlns="http://www.w3.org/2000/svg" width="1344" height="566"><path d="M0 283V0h1344v566H0V283m826 276c17-1 99-1 147 1h24l5-2c3-2 9-4 13-5 12-2 12-2 13-6 2-3 2-6 1-16-1-6-1-13-2-14 0-2-1-6-2-10-1-3-3-13-5-21-4-22-9-46-10-54-1-4-1-7-1-8-1-1-4-14-8-33-1-7-4-26-6-43-3-17-6-34-6-38-1-5-3-15-4-23-6-42-9-56-16-75-5-12-4-14 6-21 4-3 13-11 20-18 15-15 18-20 24-38 6-16 6-21 5-29-2-14-12-30-24-36-9-6-29-9-39-7s-24 9-28 14c-2 3-8 13-14 24-9 19-10 21-17 29-10 10-12 11-21 9-11-3-14-3-19 1s-10 7-30 15c-25 9-40 17-49 24-7 6-20 19-23 25 0 2-3 13-6 25s-7 29-9 37c-9 32-13 51-15 66-1 5-2 13-3 17-2 9-2 13-1 21 1 3 2 10 2 17 0 12-4 52-7 82-1 7-2 16-2 20 0 9 1 11 18 19 13 6 14 7 19 13 6 9 8 15 10 26s3 12 13 13 23 1 47-1z"/></svg>