<svg xmlns="http://www.w3.org/2000/svg" width="1344" height="566"><path d="M0 283V0h1344v566H0V283m394 276c13 0 54-1 91-1 76 0 75 0 91-2 6-1 14-1 19 0h27c57 1 149 2 153 3 2 0 11 1 19 1h22c12 0 26-1 29-3 4-2 5-7 5-18s-1-18-5-25c-5-10-11-17-40-40-8-6-35-25-45-31-12-7-25-23-32-37-4-10-4-15 12-61 6-18 10-34 12-44 3-15 3-17 3-37 0-21-1-35-6-49 0-2-2-9-3-15-5-36-9-55-16-72-6-15-17-36-23-46-24-33-72-57-113-57-9 0-15 1-36 5-38 8-53 14-71 28-13 12-23 25-32 43-8 17-12 32-14 53-1 14 3 35 13 68 2 8 4 15 4 16 1 1 2 12 3 24 2 19 2 23 5 30 4 10 10 19 17 25 6 5 8 7 33 18 7 3 2 11-20 30-18 15-24 19-38 21-11 1-12 2-32 9-8 3-18 7-22 9-34 11-53 18-59 21-11 6-20 14-25 23-5 8-19 42-23 56-4 15-11 42-11 47 0 10 0 10 46 10 20-1 48-1 62-2z"/></svg>