<svg xmlns="http://www.w3.org/2000/svg" width="1344" height="566"><path d="M0 283V0h1344v566H0V283m296 278c14 0 32 0 40-1 22-1 83-1 110 0 13 1 40 1 67 0 34-1 52-1 79 0 25 1 39 1 51 0 22-1 113-1 157 0 19 1 43 1 54 1 19 0 20 0 23-2 3-3 3-14-1-26-3-12-7-19-18-35-16-25-21-28-65-43-28-9-46-14-55-16-14-1-19-4-27-13-15-20-19-25-19-29l8-10c13-14 22-29 28-44 2-7 6-18 9-24 2-6 5-14 6-18 0-4 4-15 6-25 8-26 8-26 9-56 1-15 1-36 2-47 1-12 1-30 1-41-1-17-1-21-4-32-5-22-13-41-23-59-12-20-23-33-30-35-6-2-224-3-233-1-3 1-7 2-9 4-6 5-19 22-26 37-11 22-13 33-15 60-2 25-3 38-7 51-3 11-3 12-3 32 0 11 0 26 1 33s1 25 1 40l1 28 3 8c2 5 6 14 10 20 11 19 16 29 18 37 2 10 2 9-14 29-15 19-18 22-24 26-7 4-31 12-56 19-59 15-106 31-121 42-6 5-16 17-20 27-4 7-4 9-4 15 0 3 1 12 2 19 1 6 3 14 3 17 1 8 3 10 13 11 13 3 18 3 34 2 7 0 24 0 38-1z"/></svg>