<svg xmlns="http://www.w3.org/2000/svg" width="1344" height="566"><path d="M0 283V0h1344v566H0V283m740 162c5-1 11-2 13-2 3 0 9-1 13-2s12-3 18-4c14-3 25-6 30-8 14-5 32-8 44-8 4 0 13 1 21 2 18 2 17 3 17-14-1-7-2-15-3-19-2-7-5-29-6-41 0-12-1-16-4-19-1-1-7-3-13-5s-12-5-13-6c-2-1-2-4-2-16-1-19-1-20-9-24-3-1-5-3-6-3-1-2 3-4 6-4 6 0 7-3 7-14 0-5 0-13-1-18-2-15-12-35-24-49-7-7-9-12-9-19 1-7 4-14 8-18 1-2 2-4 1-5 0-2-1-5-2-9-5-17-7-22-11-30-5-10-5-10-12-11-4-1-6-4-10-20-2-8-5-16-6-17-2-3-17-15-21-17-1 0-4-1-7-1s-6-1-11-3c-5-3-6-3-16-3s-11 0-21 3c-6 2-12 4-13 4s-6 1-11 2c-7 2-11 3-16 7-16 11-34 40-38 61-1 4-2 9-2 10-1 1-1 7-2 12s-2 12-3 16c-3 14-4 36-4 77l-1 40-3 3c-2 2-5 3-9 4-3 1-8 2-10 3-4 1-9 1-27 2-22 0-23 0-28 2-6 3-18 14-24 21-3 3-7 10-10 14-7 13-8 15-16 18-7 2-16 9-26 18-10 8-15 10-26 11-12 1-13 2-20 15-12 24-16 39-13 42 1 1 6 1 16 0 8-1 16-1 17-2 1 0 5 1 9 2s8 2 14 2c10 0 13 1 18 6 3 2 4 2 12 2 8-1 10-2 13-4 5-3 9-4 18-4 7 0 19 2 24 5 1 0 5 1 10 2s9 1 9 2c2 1 22 3 31 2h32c23-1 40 0 54 2 8 1 22 6 25 8 4 2 20 1 29-1z"/></svg>