<svg xmlns="http://www.w3.org/2000/svg" width="1344" height="566"><path d="M0 283V0h1344v566H0V283m660 277c27 0 63-1 80-2 44-1 129 0 197 1 83 2 199 3 219 2 16 0 17-1 19-3s2-2 1-8c-1-8-6-19-10-25-2-3-8-10-14-16-5-6-13-14-16-18-7-8-22-21-40-36-6-5-16-14-22-20-13-12-30-26-45-37-5-3-15-10-21-15-15-11-19-13-35-14-18-1-23-3-30-9-9-9-10-11-9-28 0-22 2-41 7-51 1-1 5-5 9-8 11-8 19-19 26-36 7-15 8-22 8-33 0-9 0-10-3-18-5-9-5-11-4-36 2-29 0-41-9-59-7-14-18-25-34-35-28-18-47-23-80-23-21 0-30 1-42 7-32 14-50 34-58 61-5 16-7 32-8 75-1 17-1 39-2 49 0 21 1 29 8 54 6 25 11 37 16 45 2 5 5 11 7 13 2 4 2 6 2 13 0 6 0 9-2 11-2 3-19 12-48 25-37 17-62 34-94 62-11 9-39 41-44 50-1 2-5 7-7 10-3 4-5 10-7 17-8 24-9 29-4 33 2 2 3 3 11 3 5 0 14 1 20 0 5 0 32 0 58-1m-448-1c16-1 31-2 34-2 3-1 29-1 60-2 72-1 72-1 86 1 8 1 21 1 31 1h17l3-2c2-3 2-4 2-11 0-9-1-26-3-48-6-43-7-52-9-62-4-28-9-43-21-66-7-14-11-20-19-29-11-12-25-22-44-34-4-2-27-12-45-20-16-6-20-8-28-14-12-8-14-11-10-21 3-7 15-31 21-43 10-17 28-54 31-64 2-6 5-15 5-21 1-5 3-15 4-21 2-15 2-20 0-35-3-22-7-40-12-49-2-6-8-11-13-12-3-1-45-1-121-1C72 4 64 5 62 6c-5 3-5 5-6 25-1 18-1 19-4 28-5 13-8 23-8 30 0 9 5 25 11 37 13 24 12 22 12 32 0 11-2 26-5 36-3 9-8 15-15 15-2 1-8 2-13 2-4 1-10 2-14 2-8 1-12 3-15 5-2 2-2 4-2 20-1 9-1 84-2 166 0 138 0 149 2 152 3 4 3 4 38 3 26-1 40-1 66 0 36 2 61 2 105 0z"/></svg>