<svg xmlns="http://www.w3.org/2000/svg" width="1344" height="566"><path d="M0 283V0h1344v566H0V283m1077 278c10-1 18-1 20-2 3 0 3-2 2-8-5-16-10-25-21-38-5-5-13-14-16-19-9-11-17-18-37-34-8-6-19-16-25-22-20-18-30-27-48-40-4-2-9-6-12-8-9-9-16-13-23-16-5-3-8-3-20-4-23-2-30-4-39-13-6-7-9-13-12-22-5-15-2-45 5-59 1-3 5-10 9-14 10-13 12-16 18-28 7-16 9-27 6-40-2-12-2-16 0-34 2-13 2-19 2-30-1-26-8-42-24-59-11-10-18-15-36-24-23-11-42-15-69-14-28 2-41 5-57 15-22 13-35 27-43 44-3 7-7 24-7 34-1 5-2 15-3 22 0 8-1 22-2 33-1 13-2 24-3 31-3 17-3 33 0 53 5 24 8 33 19 57 8 16 12 21 24 29 10 7 12 10 10 15-1 3-4 5-8 7-7 5-28 17-39 22-30 15-87 60-102 80-3 4-10 13-15 20-11 15-16 24-21 39-5 17-5 22 1 25 3 1 10 1 65 0 35 0 65-1 68-1h92c57-1 89-1 92 0s47 1 109 2c57 0 104 1 105 1 1 1 16 1 35 0M35 560c6-1 38-1 71-1 63-1 125-3 127-4 0-1 1-3 1-5 0-3-8-26-14-39-5-11-12-31-15-44-3-10-4-17-10-49-3-19-6-32-10-42-6-11-26-42-33-49-14-14-33-25-67-40-18-8-28-13-31-17-3-5-2-12 2-20 5-7 6-11 4-17-3-8-2-11 3-17 1-2 3-6 4-11 0-4 2-9 4-11 6-10 7-16 1-33-1-6-4-17-6-23-3-11-3-12-2-24V76l-9-20c-11-22-12-26-8-34 2-5 2-7 1-9-1-3-7-7-14-9C28 3 6 2 3 4 1 4 1 29 1 280v276l3 2c3 3 4 3 12 3 5 0 13 0 19-1z"/></svg>