<svg xmlns="http://www.w3.org/2000/svg" width="1344" height="566"><path d="M0 283V0h1344v566H0V283m541 277c3-1 10-1 15-1 39 1 109 0 150 0 28-1 53-1 57-1s21-1 39-1c26-1 36-1 58 0 51 3 80 4 96 3 9-1 20-1 26-1 8 0 10 0 11-2 2-2 0-5-7-10s-42-37-47-43c-3-2-10-11-16-18-9-10-12-15-13-18-2-7-6-12-18-23-22-22-30-30-39-45-9-14-11-23-14-54 0-12-1-26-2-31-1-9-6-30-11-48-18-58-17-56-16-73 1-8 1-16 1-19-1-8-7-35-9-40 0-2-1-7-2-10-2-10-8-31-13-39-3-7-6-11-13-18-8-9-10-10-21-16-22-11-35-15-67-18-10 0-22 1-28 4-3 2-9 4-14 5s-12 4-17 7c-5 2-11 5-14 6s-6 2-7 4-6 7-10 10c-6 7-8 9-13 21-5 10-8 15-9 23-3 14-4 32-1 51 1 13 1 17 0 27-1 15-1 22 4 32 4 8 9 16 12 18 6 6 8 17 8 33-1 10-1 14-3 19-4 10-4 10-3 15 2 8-5 17-14 19-4 0-6 1-9 4-4 3-14 17-18 26-3 7-7 11-20 21-12 10-18 13-28 13-6 0-9 1-14 3-13 6-31 10-48 12-11 1-13 2-22 9-13 11-23 20-26 26-2 3-5 9-8 12-6 10-14 27-19 41-3 7-6 14-7 16l-2 3 2 4c2 4 2 6 1 12 0 7 0 8 3 14 6 13 9 15 24 15 6 0 15 1 20 2 7 1 21 1 68 0 35 0 63 0 67-1m-228-7c3-2 5-6 8-15 2-4 3-9 4-11s2-7 2-12c1-6 2-13 6-25 11-32 18-48 28-66 12-21 16-28 23-38 7-11 7-13 3-27-2-7-2-12-3-25v-16l2-2c3-2 8-3 13-1 2 1 6 1 10 2 7 0 8 0 11-2 2-2 5-3 6-3s3-1 4-2c2-2 2-3 1-9 0-4-1-8-2-10-2-4-2-5-1-8 1-2 1-5 1-6-1-4-8-11-14-16l-5-4v-6c1-6 0-9-3-10s-19 2-21 4c-1 1-3 3-4 5s-5 7-8 12c-3 4-7 10-8 13s-3 8-5 10c-2 3-3 5-3 8 0 2-1 7-3 10-2 4-3 7-3 8 0 0-1 3-2 5s-3 8-4 12c-3 22-7 33-11 40-14 22-32 47-53 72-16 21-22 29-43 69-7 13-14 26-16 29-6 9-6 11-3 14 3 2 4 2 17 2 7 0 18 1 23 1h30c18 0 21 0 23-2z"/></svg>