<svg xmlns="http://www.w3.org/2000/svg" width="1344" height="566"><path d="M0 283V0h1344v566H0V283m370 277c41-2 431-3 500-2 70 2 111 2 114 0s5-7 6-20c1-9 1-13 0-19-1-3-2-13-3-21s-4-23-5-32c-2-9-4-21-5-27s-2-14-2-19c-1-5-1-11-1-14 1-2 1-9 2-14 0-4 1-11 2-14 0-4 0-5-5-15-3-5-6-11-8-12-1-2-7-5-12-8-5-2-12-6-16-8s-9-6-11-7c-3-2-8-6-12-8s-18-10-33-17c-27-13-31-16-33-21-3-4-4-16-4-21 1-3 5-14 9-24 4-11 10-26 13-35 2-8 5-19 7-24 6-20 10-43 12-64 1-15 3-33 5-46 1-7 1-10 0-24-3-22-5-33-9-37l-4-3H750C613 3 579 4 574 6c-2 1-3 3-4 4 0 1-1 11-2 22-2 38-3 47-5 58-8 40-4 68 12 84 3 3 7 7 9 8 2 0 6 3 9 6s7 6 10 7c6 3 8 5 8 8 0 6-27 35-42 45-13 9-18 11-31 13-7 1-14 3-18 4-9 3-48 18-64 25-46 20-56 29-70 61-6 11-16 33-24 50-3 7-8 19-11 26-8 17-18 39-22 47-2 4-4 9-4 10-1 1-3 7-6 13-9 21-18 46-18 53 0 6 2 9 7 10s36 1 62 0z"/></svg>