<svg xmlns="http://www.w3.org/2000/svg" width="1344" height="566"><path d="M0 283V0h1344v566H0V283m819 275c2-1 4-5 6-8 1-3 3-7 5-10l4-4v-11c0-10-1-24-4-44-5-28-3-56 5-94 7-30 7-31 7-56v-23l-3-14c-2-7-4-15-4-18 0-8 1-24 3-32 2-11 3-44 2-56-2-13-2-13-10-22-4-4-7-9-7-9 0-1 1-2 2-3 10-8 10-8 10-13 0-6-6-22-14-40-8-17-12-22-21-29-10-9-15-11-24-11-5 0-8 1-11 2-2 1-5 2-5 2-3 0-14 9-16 13-4 6-5 11-5 27 1 13 2 25 6 40 0 3 0 3-3 6-2 1-6 4-11 6-5 3-8 5-9 7-5 8-11 34-17 66-3 18-13 46-22 56-2 3-4 6-4 7 0 2 4 9 7 13 2 3 9 7 12 7 2 0 6-2 9-3 9-5 12-5 18 0 4 4 4 4 12 5 5 1 9 1 10 1 0 0 2 1 2 2 2 1 2 3 1 9 0 7 0 9 1 11s7 6 13 9c13 7 18 11 22 18 3 6 4 10 2 18 0 2-1 19-2 38-1 38-1 42 6 64 5 17 7 31 7 55 0 14 0 16 2 18s3 2 9 2c5 0 7 0 9-2z"/></svg>