<svg xmlns="http://www.w3.org/2000/svg" width="1344" height="566"><path d="M0 283V0h1344v566H0V283m338 276c30-1 210-2 294-1 40 1 86 1 102 1 16 1 39 1 52 2 29 0 43-1 46-5l2-2-1-11c-2-12-6-26-10-34-1-3-4-10-6-15-2-6-5-13-6-16-8-15-31-31-85-61-27-15-30-18-46-41-6-10-13-21-14-24-4-7-2-12 8-28 7-11 12-20 18-35 3-7 7-16 10-20 7-11 8-16 10-22 3-9 5-25 5-41 1-8 1-26 2-41 2-52-3-81-17-109-5-10-15-22-22-28-3-2-8-7-12-10-5-4-11-8-14-10-6-3-8-3-20-4-16-1-76-1-105 0-23 1-23 1-29 4-10 4-24 18-36 32-9 12-19 34-21 48-2 9-2 25-1 56l1 22-3 8c-6 15-6 27-2 45 4 17 11 27 30 39 6 4 10 8 12 11 2 2 3 5 3 6 0 0 1 3 2 5 1 3 2 8 3 13v9l-4 5c-3 2-13 13-24 24-25 27-36 35-51 40-3 1-11 4-19 6-7 3-25 9-40 14-57 20-64 24-76 52-4 10-20 45-38 85-6 13-9 23-9 26 1 4 6 5 16 6 13 1 69 0 95-1z"/></svg>