<svg xmlns="http://www.w3.org/2000/svg" width="1344" height="566"><path d="M0 283V0h1344v566H0V283m776 253c5-1 11-2 12-3 2-1 8-2 14-3 6 0 13-2 17-3 4 0 11-2 16-3 16-3 23-5 31-8 9-3 22-7 34-10 9-2 13-2 35-3 21 0 25-1 27-2 4-4 4-27 1-49-2-8-3-19-3-25-1-6-2-14-3-18 0-5-1-10-1-12 0-7-3-13-8-15-2-1-9-3-16-4-6-2-14-4-17-5s-9-2-13-3c-15-4-18-7-16-14s1-18-2-23c-1-3-4-6-6-8-5-4-5-7-2-11l2-3-3-6c-10-20-20-46-24-63-3-9-16-46-27-73-5-14-10-26-10-26 0-1-3-7-8-14-9-14-22-29-32-36-15-9-43-20-60-22-22-3-61 6-84 19-25 13-41 35-51 69-5 16-5 20-4 70 1 26 1 55 2 65 1 21 1 25-3 30-3 3-27 18-31 20-6 1-15 12-20 24-3 7-5 8-15 12-7 3-11 3-16 1-4-2-6-1-14 4-5 4-10 6-31 14-8 2-12 6-20 16-5 7-16 12-25 13-5 0-8 1-10 3-4 3-8 10-11 21-2 4-4 11-5 15-2 7-2 8 3 12 2 2 5 5 5 7 3 5 9 7 25 8 7 0 14 1 14 0 1 0 12 2 17 4s12 3 22 1c5-1 7-1 11 0 4 2 5 2 8 0 2 0 5-1 6-1s4-1 5-2c5-2 17-3 22-2 2 1 8 2 13 3 6 1 10 2 14 4 9 5 22 10 31 11 4 0 24 1 44 2 20 0 37 0 38 1 1 0 9 0 19 1 39 2 51 5 67 17 3 1 5 2 9 2s8 1 9 1c5 1 9 1 18 0z"/></svg>