<svg xmlns="http://www.w3.org/2000/svg" width="1344" height="566"><path d="M0 283V0h1344v566H0V283m978 277c15-1 28-2 29-2 1-1 2-2 2-3 2-4-11-37-23-59-9-18-22-51-25-65-1-5-3-8-7-14-4-5-9-13-12-19s-7-14-10-18c-2-3-4-8-6-10-1-1-5-8-8-14-9-17-16-40-14-47 1-2 3-5 7-7 12-9 24-23 28-35 1-3 3-14 5-27s4-27 5-32c2-14 2-42 0-57-3-18-10-37-20-55-8-15-27-35-43-47-13-9-35-17-57-20-12-2-33-1-44 2-5 1-15 3-22 3-18 3-29 5-44 10-25 9-43 21-54 37-15 23-20 40-26 89-2 12-2 13 0 24 1 6 3 16 5 21 3 9 8 29 12 51 2 9 11 43 16 60 1 3 3 9 4 14 8 28 16 44 25 51 5 4 17 8 30 9 6 1 11 3 13 3 7 4 18 21 18 28 0 5-1 6-20 25-8 9-18 20-21 24-3 3-10 11-15 16-11 13-19 23-25 38-7 14-8 19-6 22 3 4 8 5 23 4 8 0 22 0 30 1 24 1 216 0 250-1z"/></svg>