<svg xmlns="http://www.w3.org/2000/svg" width="1344" height="566"><path d="M0 283V0h1344v566H0V283m806 275c8 0 11-2 15-7 6-6 14-24 15-34 2-7 4-15 6-17 1-1 1-1 3 1 8 6 26 22 33 29 4 4 10 9 12 11 6 5 21 12 30 14 13 2 152 5 192 3 21-1 22-1 24-3 4-3 4-4 1-9s-11-12-19-15-16-8-19-13c-3-4-7-12-8-16-1-1-3-7-5-12-4-10-5-11-13-19-7-7-10-9-19-14-5-2-14-6-18-7-18-6-30-13-52-32-4-3-11-8-16-11-17-8-30-18-48-37-16-16-21-22-21-27s-4-16-9-27c-9-22-11-32-5-53 5-20 6-38 5-69-1-32-2-42-6-59-2-14-5-23-9-30s-18-20-23-23c-27-13-54-18-74-12-4 1-14 3-21 5-7 1-16 4-19 4-8 3-17 9-23 15-6 7-14 24-21 44-18 56-25 69-56 105-10 12-14 17-16 22-1 5-1 6 1 13 2 9 1 17-3 33-2 6-3 14-3 17 0 6-2 11-10 20-7 8-36 44-45 56-4 5-14 18-23 28-8 11-17 23-19 26-6 8-10 21-18 51-6 26-8 39-6 44 1 5 2 5 8 6s292 0 302-1z"/></svg>