<svg xmlns="http://www.w3.org/2000/svg" width="1344" height="566"><path d="M0 283V0h1344v566H0V283m1045 279c12-2 12-2 12-18-1-11-1-15-3-21-2-4-3-9-4-12 0-2-1-8-3-13-2-10-8-29-11-42-1-4-3-13-4-20-1-9-2-15-4-21-2-5-6-16-9-25-2-8-6-19-8-24-1-6-4-16-6-23-8-27-14-35-32-39-4-1-15-3-23-6-13-3-17-4-24-8-13-7-15-9-21-22-9-20-10-24-10-33 0-4 1-12 2-18 3-14 3-28 0-49-5-31-9-42-20-54-19-19-41-29-62-27-4 0-15 1-23 3-19 2-25 5-39 15-12 9-18 18-25 35-4 11-2 28 5 50 3 9 4 22 2 28-1 3-2 5-8 10-8 6-21 20-23 24-3 6-9 31-11 44-3 28-4 33-11 44-5 7-6 8-8 18s-5 17-11 23c-2 3-4 6-4 7-1 1-2 7-4 13-4 13-6 20-10 25-9 12-15 29-22 57-3 12-3 13-3 31 1 18 1 20 3 26 7 18 14 20 51 20h20l8-4c5-2 9-4 10-4s3 2 5 4c5 7 2 6 71 6 87-1 213-1 215 1 1 0 34 0 42-1z"/></svg>