<svg xmlns="http://www.w3.org/2000/svg" width="1344" height="566"><path d="M0 283V0h1344v566H0V283m304 277c23-1 43-1 44-1 2 0 5 0 7 1 5 1 6 1 11 0 4-2 6-2 15-1 5 0 10 1 11 1 1 1 79 1 80 0h43c24 0 52 0 64-1 14-1 26-1 36 0 17 1 128 2 145 1 10 0 12 0 14-3 2-2 2-3 2-9-1-4-1-9-2-11-1-1-2-6-3-11 0-4-2-10-3-13s-2-8-3-14-2-13-3-15c-2-9-8-12-49-31-11-6-26-13-34-16-7-4-13-7-14-7 0 0-17-8-28-13-5-2-7-4-9-6-1-3-1-4 2-12 2-10 7-21 12-33 13-28 22-59 24-80 0-11-1-41-4-60-1-8-2-19-3-24-2-19-5-38-7-48-3-15-12-44-16-55-6-16-19-36-31-48-16-15-45-32-67-40-20-7-44-7-68 1-7 3-15 6-17 7-3 1-9 3-14 4-19 4-26 8-38 20-20 20-34 49-50 107-10 32-12 44-26 111-11 56-13 71-13 112-1 25-1 28-3 32-2 3-1 3-32 21-19 10-42 23-46 24-5 2-22 12-25 15-2 2-5 6-12 22-2 4-5 10-8 14-10 15-13 19-18 29-7 13-10 21-8 25 1 3 7 5 18 6 10 1 67 0 126-1z"/></svg>