<svg xmlns="http://www.w3.org/2000/svg" width="1344" height="566"><path d="M0 283V0h1344v566H0V283m888 275c3-2 5-4 8-12 2-7 2-8 2-26 0-13 0-21 2-27 1-8 1-16-1-24-1-2-2-8-2-15-1-6-3-17-5-24s-4-17-4-20c-1-4-2-10-2-14-5-22-6-27-8-32-3-7-6-18-6-20 0-1-2-8-4-15-3-8-6-17-7-21-4-24-19-51-35-68-8-9-14-13-22-16-4-1-7-3-11-7-10-10-12-21-7-42 2-12 2-36 0-44-7-23-31-41-53-41-7 0-19 3-24 5-2 1-8 3-12 4-5 2-11 4-13 6-2 1-9 8-15 14-14 16-18 22-19 36-1 9-1 10 1 16 2 3 3 8 3 13 1 4 2 9 4 12 1 4 2 8 3 14 0 8 0 8-7 17-3 4-6 10-10 23-3 9-11 27-13 30-1 2-4 8-6 14-6 13-8 17-15 26-3 4-10 13-15 19-6 8-12 14-19 20-6 5-17 16-25 24-21 20-24 21-39 14-11-5-19-7-45-8-20-2-25-2-29 2-4 3-2 6 6 12 4 3 6 7 6 9-1 4-7 7-18 9-10 2-13 3-14 6-1 4 1 11 5 17 7 11 11 14 26 16 9 1 14 0 33-3 6-1 18-2 26-3s18-1 23-2c9 0 9 0 16 3 10 5 15 10 19 17 2 3 4 6 5 7 2 3 17 14 19 14 1 0 3-1 4-2 4-2 15-3 22-2 12 2 14 2 19 1 11-3 14 0 12 11-1 4-1 10 0 16v8l9 10c15 17 16 18 21 19 9 2 34 3 80 4 26 0 59 0 74 1 33 1 54 1 57-1z"/></svg>