<svg xmlns="http://www.w3.org/2000/svg" width="1344" height="566"><path d="M0 283V0h1344v566H0V283m880 277c61-1 114-2 127-4 5-1 8-1 10-3l2-3v-17c-1-10-1-20-2-22-3-14-5-27-6-40-1-19-3-34-4-40-1-4-1-7 0-11 1-2 1-6 2-7 1-5-7-17-15-21-5-3-24-10-40-15-10-4-19-7-21-9-1-1-1-2 1-6 1-4 1-4-1-7-1-2-4-5-7-7-14-7-14-7-14-12 0-4 3-6 9-7 9-1 10-3 10-11-2-10-4-23-10-42-8-24-11-40-17-78-8-54-13-75-24-96-12-26-32-45-62-60-22-11-30-14-42-15-15-2-22-1-48 6-49 11-65 19-75 35-8 11-13 24-19 44-1 5-4 13-5 18-5 12-7 20-9 35-2 11-2 14-1 20 1 7 1 8-3 20-7 25-8 31-5 47 1 8 1 15 1 31v37c0 15 0 16 2 21 4 7 4 10 2 12-1 2-6 2-43 2l-19 1-6 3c-4 2-12 7-18 11-12 8-20 11-28 9-4 0-6 0-11 3-3 2-8 5-11 7-7 6-15 11-17 11l-10 4c-9 5-18 11-23 18-2 3-5 6-10 9l-7 3h-18c-9-1-22-1-29 0-12 0-13 0-15 3-3 2-3 3-2 4s2 2 3 2c0 0 3 1 5 2s5 3 7 4c3 1 5 3 6 5 2 3 2 3 0 13-1 5-3 12-5 15-7 15-15 39-15 44 0 2-1 5-5 8-6 6-8 12-4 12 1 0 4 1 5 2 3 1 6 1 19 1 11-1 18-1 21-2s7-2 10-2c2 0 5-1 7-2 3-1 7-1 29 0 28 0 36 0 47-4 18-7 36-6 60 2 11 4 32 7 59 10 22 3 25 3 49-1 8-1 16-1 36 0 14 0 26 0 26 1 0 0 6 0 13 1s15 2 18 2c4 2 25 5 34 6 2 1 13 1 25 1 12-1 48-1 81-1z"/></svg>