<svg xmlns="http://www.w3.org/2000/svg" width="1344" height="566"><path d="M0 283V0h1344v566H0V283m1154 279 28-1 6-2c6-3 13-10 15-15 1-2 1-3-1-5-1-3-13-11-23-17-7-4-16-11-43-33-34-28-34-27-33-41 0-5 1-17 2-27 6-38 8-73 8-102-1-23-4-71-4-79-1-2-2-9-3-16-4-37-15-84-27-111-7-17-13-27-25-39-15-15-33-26-59-36-27-11-42-13-62-8-6 2-17 4-25 6-22 6-35 11-50 20-23 16-43 43-48 69-1 3-3 8-3 11-3 7-2 34 2 50 2 9 2 18 0 35-1 13-2 28-4 53-1 18-3 31-7 52-2 10-4 22-5 28s-2 12-3 14c-3 7-10 12-22 14-4 1-9 2-11 2-12 4-35 9-59 12-7 1-21 3-29 5-9 2-20 4-25 5-8 1-11 2-19 5-7 4-10 6-18 14-13 13-18 22-24 47-3 13-13 37-20 50-7 14-11 29-8 35 2 3 7 4 32 4 28 0 101-1 103-3 1 0 3 1 5 1 4 2 11 2 54 2h84c20 0 47 0 62-1s33-1 41 0c17 0 32 1 110 2 35 0 63 0 63 1h9c5-1 22-1 36-1z"/></svg>