<svg xmlns="http://www.w3.org/2000/svg" width="1344" height="566"><path d="M0 283V0h1344v566H0V283m927 276c41 0 61-1 63-3 3-3 1-10-16-43-9-18-10-21-15-39-2-5-8-19-13-30-8-18-10-23-11-29-1-9-2-10-12-28-4-6-10-20-14-30-5-10-10-21-12-24-3-5-13-29-14-34 0-4 2-9 8-17 3-4 6-9 8-11 3-6 8-23 9-33 1-8 2-11 5-28 2-10 4-26 5-50 0-10 0-14-2-22-1-5-3-11-3-14-1-2-2-4-2-5 0-5-15-38-20-45-13-17-21-25-39-37-13-10-32-17-56-21-22-3-35-4-44-1-17 4-27 7-40 10-15 3-34 8-40 12-7 3-24 14-29 18-11 9-20 24-28 45-11 35-12 75-1 112 2 9 6 24 8 33 3 16 6 28 8 37 1 2 3 9 4 14 9 31 17 55 23 65 8 16 26 26 49 26 11 0 14 2 21 10 6 8 9 15 7 20-1 2-6 7-11 12-9 9-15 15-25 29-3 4-12 13-20 20-11 12-15 16-18 22-8 14-21 44-22 51-1 5 2 8 9 9 6 1 230 0 280-1z"/></svg>