<svg xmlns="http://www.w3.org/2000/svg" width="1344" height="566"><path d="M0 283V0h1344v566H0V283m260 277c31-1 32-1 35-3 1-1 2-4 3-6 0-2 2-6 4-9 4-5 8-14 10-24 3-18 7-30 9-32 0 0 2-1 4 0 2 0 4-1 7-2 4-3 6-3 19-4 27-1 54-4 71-10 2 0 13-3 22-6 17-4 20-5 35-12 23-11 32-16 34-18 3-3 4-7 1-14-5-9-8-10-21-4-9 5-24 7-29 5-4-2-6-7-6-13 1-7-2-13-7-12-3 1-6 7-9 16-4 18-5 18-28 21-21 2-49 2-60 0-13-3-16-8-18-27-2-15-2-20-6-38-3-15-3-16-2-22 2-7 5-15 9-25 3-7 6-9 15-9 11 0 15-1 19-6 2-2 5-6 7-8 1-2 5-8 8-13 7-12 8-15 9-45v-26l-2-7c-5-12-12-20-19-23-4-2-21-7-29-8-7 0-19 2-25 5-2 1-7 5-11 9-9 9-11 13-16 29-3 8-3 8-10 14-7 5-8 6-20 9-32 8-60 22-84 42-22 19-45 51-59 84-6 13-9 20-11 26l-1 5 6 6c12 11 15 21 16 49l1 20-3 9c-2 6-5 11-7 13-4 5-8 11-11 18-2 3-4 7-5 8-2 3-2 3-1 6 4 7 21 18 30 20 4 1 26 8 36 12 5 2 12 2 90 0z"/></svg>