<svg xmlns="http://www.w3.org/2000/svg" width="1344" height="566"><path d="M0 283V0h1344v566H0V283m822 277c21-1 73-1 176-1 30 0 41-1 43-3 3-2 4-6 5-22 2-14 3-20 7-52 8-59 10-88 8-101-3-23-19-57-42-90-7-10-12-16-27-32-12-11-21-21-22-24-1-2-3-7-3-10-2-8-4-10-12-12s-9-3-15-12c-10-17-10-20 9-91 7-25 6-40-3-60-8-15-12-19-25-26-9-4-14-6-25-8l-14-3-11 1c-13 2-44 12-51 17-7 3-19 16-22 23-2 4-2 6-1 10 0 6-2 17-5 27-1 4-3 13-4 20-1 15-3 21-7 33-4 11-4 16 0 23 2 3 5 11 7 17s5 13 6 16c2 2 3 6 4 8 3 9 13 16 27 18 7 2 12 6 17 14 2 4 2 6 1 8-2 4-12 17-20 26-11 11-15 19-16 33-1 11-1 10-9 29-10 21-12 27-20 54-6 18-13 54-20 97-1 4-2 9-3 11s-2 11-2 20-1 19-2 24c-2 11 0 14 8 16 2 0 5 1 7 1 2 2 22 3 28 2 3 0 15 0 28-1m-315-2c5-3 8-11 13-30 4-15 3-32-4-54-2-5-4-12-4-14-2-8-7-21-13-34-5-9-6-12-14-19-5-5-13-11-17-15-15-11-18-15-18-22 0-5 4-14 6-15 0-1 3-5 5-10s5-10 6-11c4-3 10-8 21-14 14-7 14-7 12-29-1-10-1-21-1-26-1-9-1-11-8-21-5-8-9-15-13-26-5-14-13-30-18-35-9-9-23-13-49-13-16 0-18 0-25 2-22 7-41 22-48 37-5 10-7 20-7 48-1 13-2 26-2 30-1 4-1 28-1 57l-1 50 3 5c1 2 2 5 2 6s-2 6-4 11c-6 17-10 30-11 38 0 9-6 29-10 39-4 9-5 11-6 22-2 13-1 17 2 28 2 11 4 15 7 17 0 0 44 1 98 1h96l3-3z"/></svg>