<svg xmlns="http://www.w3.org/2000/svg" width="1344" height="566"><path d="M0 283V0h1344v566H0V283m557 277c7-1 32-1 55-1s56-1 73-1c27-1 30-2 32-3 1-1 1-6 3-23 0-12 1-26 2-32 1-7 1-14 2-18 0-7 2-12 5-12 1-1 7-1 14 0 15 1 28 1 37 0 3 0 15-2 24-3 10-1 23-3 29-4 6 0 14-2 19-2 8-1 32-7 56-13 22-7 37-15 50-29 8-8 13-17 13-22 0-8-7-21-19-39-20-27-34-39-58-49-5-3-8-5-19-16-16-17-19-18-40-21-9-1-12-3-22-10-21-16-23-17-31-14-4 1-5 1-13-1-4-2-14-6-21-11-31-17-30-16-32-28 0-5-1-13-2-18-4-41-10-59-23-78-10-15-31-29-51-35-15-4-36-7-48-8-20-1-38 3-53 12-5 3-13 7-17 10-5 2-10 5-12 7-5 4-12 13-16 20-2 4-6 11-9 18-4 6-8 13-10 16-7 10-12 22-16 38-2 6-5 9-22 21-3 2-8 5-11 7-6 5-11 7-18 9-8 1-13 4-25 13-19 15-25 19-45 26-26 10-32 15-43 33-11 17-12 21-12 44 0 15 0 21 2 28 3 12 3 14 9 22s9 14 13 23c2 7 2 8 1 17-1 10-1 14 3 25 0 1 1 4 1 5 1 2 3 4 5 6 4 3 5 3 12 3 8 0 9 1 12 11 1 6 1 10 1 23-1 9-2 23-3 31-1 14-1 17 1 20 2 2 4 2 54 2 28 0 69 0 90 1 55 1 59 1 73 0z"/></svg>