<svg xmlns="http://www.w3.org/2000/svg" width="1344" height="566"><path d="M0 283V0h1344v566H0V283m495 278c3 0 4-6 4-15 0-11 0-13-11-44-13-36-18-44-46-65-10-8-14-11-21-15-4-2-6-7-5-10 0-1 3-5 6-8s5-6 6-9c1-2 3-7 5-12 3-6 5-9 11-14 3-3 9-7 12-8 13-5 16-7 19-10l4-4v-29l-1-29-3-5c-9-16-11-21-15-37-5-20-8-29-15-40-8-11-14-14-43-19-16-3-40-3-50-1-20 6-41 23-50 40-8 15-9 23-12 67-1 16-3 35-3 44-2 20-4 40-5 55 0 6-1 15-2 19-1 5-1 14-1 24v16l-5 14c-2 7-5 15-6 16-1 2-2 8-2 15-1 10-2 15-5 27-5 17-6 28-2 33 2 4 5 4 54 4h41c0 1 139 0 141 0m371-3c36-1 62-1 125 0 44 1 86 1 92 0 18-1 18-2 22-24 2-19 6-60 7-84 1-30-2-42-18-76-3-6-7-13-8-16-2-2-5-7-6-10-22-34-38-54-66-77-8-6-10-11-12-21s-4-12-13-13c-14-2-18-5-23-20-4-12-4-19-1-32 4-14 6-18 8-31 2-6 4-14 6-18 2-7 8-31 9-38 1-4-1-22-3-32s-12-31-17-35c-4-4-18-12-26-15-4-1-14-3-21-4-12-2-15-2-23-1-21 2-47 10-61 18-7 5-22 19-25 23-1 3-1 7-1 18-1 13-1 14-4 24-5 14-5 15-6 29-1 10-4 23-9 35-1 2-2 6-3 9 0 5 0 6 4 14 2 4 5 13 7 19 6 16 12 32 15 36 3 5 10 10 17 10 7 2 22 9 26 14s7 12 7 14c-1 2-4 5-7 9-27 26-32 31-36 39-2 5-3 9-4 16-1 9-3 17-6 22-3 4-11 23-15 34-11 30-14 41-26 98-1 5-3 15-4 22-1 6-3 16-4 21-3 12-3 18 0 21 2 3 3 3 8 3 12 1 49 0 95-1z"/></svg>