<svg xmlns="http://www.w3.org/2000/svg" width="1344" height="566"><path d="M0 283V0h1344v566H0V283m766 196c2-1 6-2 10-3 3 0 8-2 10-3 3 0 8-1 10-2 6 0 7-1 26-6 7-2 15-4 19-5s10-3 13-4c4-1 8-1 32-1 33-1 30 1 30-15-1-6-2-17-3-24-2-11-2-18-2-42l-1-29-3-5c-4-6-8-9-32-16-14-5-20-8-24-13-1-3-4-7-7-9l-4-6c0-1 1-3 3-4 4-4 4-5 3-15-1-5-3-17-3-27-2-21-5-38-9-55-2-8-4-19-6-25-7-37-19-67-32-84-11-15-28-28-48-38-16-7-22-8-36-8-10 0-12 0-18 2-3 2-8 4-10 6-3 2-6 2-14 3-12 1-14 2-22 6-11 7-24 24-31 41-7 16-14 44-17 65 0 6-1 14-2 17-1 10-1 59 0 71 1 5 2 16 2 25 1 8 2 18 3 21 1 4 1 6 0 7-2 3-9 3-18 1-14-2-33-3-37-1-2 0-9 6-16 13-13 14-23 22-49 39-10 6-20 13-23 16s-9 6-12 8c-5 2-6 2-14 2-8-1-8-1-11 2-1 1-2 4-3 5-1 5-9 23-12 29-4 7-10 25-12 33 0 3-2 8-3 11-3 6-2 8 2 9 4 2 9 1 19-2 16-6 23-8 31-9 5-1 9-1 10-2 1 0 6 0 11-1 8-1 10-1 14 1 6 2 33 1 38-2s15-2 29 3c6 2 15 4 19 5s9 2 11 2c4 1 32 3 42 3h35c26 0 30 0 41 2 13 2 19 4 24 8 2 2 4 2 23 1 11 0 22-1 24-1z"/></svg>