<svg xmlns="http://www.w3.org/2000/svg" width="1344" height="566"><path d="M0 283V0h1344v566H0V283m756 279c17-2 29-2 40 0h24c9-1 62-1 118-1 132 0 140 0 153-1 11-1 12-1 14-3 1-2 2-4 2-5 0-6-7-33-16-62-3-7-7-22-10-34-6-23-9-32-11-39-1-3-3-8-4-11-3-8-9-22-12-29-7-13-17-20-46-30-9-3-20-7-24-8-9-3-37-12-47-15-13-3-21-8-34-19s-29-26-41-37c-10-10-10-11-10-33 1-18 2-23 8-31 7-11 11-23 12-37 1-13 0-20-8-47-14-42-25-68-36-84-6-10-21-25-27-28-8-4-13-4-81-4-67 0-80 0-88 4-13 5-36 39-44 64-3 8-3 10-3 21 0 31 3 56 11 81 2 9 5 23 7 30 2 8 4 18 6 23 3 9 17 35 25 47 3 3 7 10 9 14 6 12 12 20 21 30 8 9 8 11 5 17-6 9-28 27-47 37-11 6-38 24-43 29-1 1-1 4-2 18 0 16 0 17-4 34-3 10-7 26-9 36-3 14-5 21-7 25-4 7-13 22-18 27-9 10-6 12 16 13 7 1 17 2 23 2 6 1 28 3 58 4 26 1 52 2 58 2 17 1 49 1 62 0z"/></svg>