<svg xmlns="http://www.w3.org/2000/svg" width="1344" height="566"><path d="M0 283V0h1344v566H0V283m216 278c4-2 5-2 7-1 4 2 48 3 91 2 20 0 107-1 193-1 86-1 165-1 176-2 24 0 23 1 25-18l2-14-2-4c-2-6-4-7-30-21-60-34-85-48-88-51l-4-8c-2-7-2-28 0-48 5-50 6-58 3-98-1-18-2-25-4-43-4-27-16-72-22-84-5-10-24-30-37-38-3-3-9-6-12-7-12-5-33-11-46-13-12-2-14-2-21-1-19 3-60 20-73 31-10 8-12 7-17-7-9-21-16-29-35-39-11-5-20-7-38-8-20 0-27 1-38 6s-15 9-19 18-5 15-6 30c0 15 2 33 8 55 2 10 3 15 3 23 0 5 0 10-1 11s-3 3-6 4c-5 3-8 5-18 18-13 15-19 22-30 31-3 2-6 6-8 8-1 3-11 13-21 23-21 20-23 24-27 40-7 28-13 78-12 105 1 17 2 22 10 46 3 9 6 20 7 35 2 11 8 16 21 19 9 3 10 3 39 3 25 0 26 0 30-2m969-6c4-4 9-9 12-11 13-9 14-15 5-30-2-3-5-8-6-10-1-3-3-8-5-12-4-7-6-14-7-31-3-20-7-44-11-63-1-5-3-13-4-18-1-6-4-19-7-30-16-65-25-80-57-99-17-10-24-16-24-21 0-3 5-15 15-31 6-11 7-15 16-51 1-5 1-10 0-21 0-11 0-16 2-25 1-10 1-11 0-16-5-13-15-23-32-32-12-6-25-9-41-9-19 0-29 4-44 17-11 11-13 14-17 24-2 8-2 9-3 39-1 43-2 48-12 64-7 9-8 11-18 14-5 2-15 6-22 9-7 4-16 8-19 9-4 2-12 5-18 7-11 4-21 10-38 21-21 14-29 23-38 42-8 15-9 17-23 73-14 55-15 61-15 81 0 10 0 21 1 25s2 13 3 20c1 16 4 30 9 43 3 9 4 12 9 18 3 3 6 7 7 7 2 1 41 1 171 2 98 0 170 0 174 1 3 0 11 1 18 1h12l7-7z"/></svg>