<svg xmlns="http://www.w3.org/2000/svg" width="1344" height="566"><path d="M0 283V0h1344v566H0V283m721 277c22 0 79-1 125 0 74 0 85 0 86-1s1-2 0-3c-1-3-30-30-37-35-3-2-10-6-15-9-15-8-27-19-42-37-6-8-7-10-13-28-3-8-7-17-9-21-1-3-4-10-5-16-2-5-4-13-5-16-1-4-2-9-3-12 0-5 1-6 11-9 13-4 22-11 26-18 1-3 4-7 7-9 15-17 19-24 18-36-1-9-2-14-11-40-3-9-7-23-9-30-4-20-12-50-14-60-3-11-9-28-16-41-3-6-6-14-8-18-6-14-8-17-20-30-9-8-14-13-19-15-7-4-26-10-36-12-16-3-37-1-52 5-4 2-14 5-22 8-19 6-24 9-32 17-12 14-20 35-24 65-1 6-3 16-4 23s-2 22-2 50l-1 38-3 10c-7 24-14 38-24 50-7 9-10 14-10 20s-3 13-14 27c-18 24-16 21-43 73-13 25-21 45-25 62-4 15-7 31-7 38 0 10 0 10 24 11 27 1 177 0 228-1z"/></svg>