<svg xmlns="http://www.w3.org/2000/svg" width="1344" height="566"><path d="M0 283V0h1344v566H0V283m696 278 114-1 4-2c6-3 8-6 17-22s10-21 9-31c0-8 0-9 3-16 2-4 7-14 12-21 10-17 21-40 23-46 4-10 8-18 16-28 6-7 9-12 10-15 1-5 1-6-1-13-2-4-3-10-4-12 0-4-1-6-3-9-3-3-4-3-7-3-9 2-10 2-12-4 0-2-2-5-4-6-3-2-4-2-11-2-12 2-13 2-14 0 0 0 2-3 4-7 7-10 9-13 11-20 4-14-1-24-10-24-6 0-8 1-12 10-5 10-16 23-24 29-7 4-7 4-16 5-10 1-13 2-21 13-13 18-18 27-24 50-7 26-9 34-13 43-3 10-25 56-29 61-1 2-5 4-8 6-7 3-11 7-12 11-1 6-4 12-5 13-2 2-5-1-9-7-3-7-11-17-23-31-10-12-11-14-14-21-1-4-3-10-4-13s-4-9-6-12c-2-4-5-9-6-11-4-6-14-14-31-25-3-2-7-5-8-6-1-3-1-3 1-6 1-2 3-4 4-5 0-1 4-6 7-12s6-12 8-15c1-2 7-12 13-22 6-11 12-22 14-25 7-11 8-14 13-36 1-5 3-13 5-18 2-9 2-12 3-36 1-15 2-30 2-35 1-5 2-18 3-30 1-32-2-51-8-64-4-7-17-20-27-27-10-6-20-12-27-17-10-7-28-15-43-19-7-2-21-2-34-1-8 1-11 1-19 0-14-3-18-2-47 10-16 6-29 18-38 35-6 9-14 30-20 51-6 17-7 23-13 44-1 6-4 17-6 25-5 21-11 48-12 58-2 12-6 29-10 44-3 12-4 18-6 53-2 20-2 22 1 35 2 8 0 15-5 22-10 17-22 41-34 70-3 9-8 20-10 24-6 12-6 17-2 23 2 5 2 6 3 18 0 17 0 18 4 20s9 2 110 3c45 0 82 0 82 1 0 0 19 0 42-1h154z"/></svg>