<svg xmlns="http://www.w3.org/2000/svg" width="1344" height="566"><path d="M0 283V0h1344v566H0V283m352 277c4-2 8-2 28-2h29c6 1 11-1 13-5 2-3 6-26 6-33 0-5 2-6 8-5 7 2 9 1 15-3 3-2 6-3 9-3 4 0 5-1 7-3 3-3 5-6 5-9 0-4-6-13-11-17l-6-6c-2-6-12-17-15-18-1-1-4-1-5-1-2 0-4-1-5-2-2-2-5-11-5-16 0-7 3-24 6-36 2-6 4-14 4-17 0-7-2-22-5-32-2-5-3-10-3-11 0-2-9-19-15-27-2-3-8-9-13-14-19-15-19-16-15-22 2-2 5-8 8-14 4-9 5-11 10-14 7-5 8-7 12-31 1-10 1-13 0-17 0-3-1-13-2-23-1-19-3-28-9-35-5-6-23-16-33-17-14-4-23-4-31-3-29 6-37 18-42 58-3 24-4 53-5 86 0 28 0 28-7 37-5 7-10 21-17 48-1 2-2 7-3 11-1 3-2 12-2 21s-1 18-2 20c0 2-1 9-2 15-1 10-1 13 1 30 2 16 3 20 5 26 6 13 6 20 5 44v25c0 4 4 14 6 15 4 1 19 2 44 2 23-1 28-1 32-2m958 1c3-1 4-3 4-4 3-12 4-21 4-25 0-3 1-11 1-18 3-26 5-127 3-154-1-15-4-32-6-41-1-2-3-8-4-13-4-14-14-36-22-49-3-4-12-14-22-24s-18-18-18-19l-4-6c-5-6-10-10-14-10-5 0-13-3-16-7-4-3-4-4-6-18-3-13-3-16-3-28 2-36 2-44 1-56-2-21-5-29-11-36-2-1-9-5-15-8-11-5-12-5-24-6-16 0-24 1-34 5-15 8-30 21-35 32-3 6-3 6-1 37 1 30 5 48 13 65 1 4 3 9 4 12 2 7 7 11 16 15 4 1 8 3 9 4 2 4 1 10-2 16-4 5-21 23-26 27-4 2-4 2-4 7s-4 19-9 33c-2 5-4 12-5 14-5 20-7 30-8 38 0 5-1 9-1 10-2 2-5 31-5 45-1 17-3 29-4 34-3 5-15 19-21 24-12 10-15 11-26 6-3-1-8-3-10-3-2-1-7-3-11-5-11-5-18-4-18 3 0 3 2 5 8 12 2 2 3 5 3 7 0 4-6 12-13 18-4 3-8 7-9 8-1 3-1 3 0 5 1 1 3 2 4 2 4 0 9 4 10 8 2 7 7 13 9 13 1 0 3-1 4-1 5-4 13-2 15 3 2 4 4 6 6 5 2 0 9 1 16 1 17 2 18 3 19 11 0 5 0 7 1 7 3 3 38 4 101 4h61c0 1 21 1 46 1 39 0 46 0 49-1m-423-2c3-1 4-3 5-5 1-4 0-28-1-40-2-13-2-16-1-66 1-43 2-59 3-74 1-11 4-50 5-67 0-15-1-30-4-41-6-17-24-45-42-63-5-5-14-13-20-19-11-9-13-11-16-18-1-4-4-7-5-8s-4-1-7-1c-4 0-6 0-7-2-5-4-5-10-5-29 0-14-1-17-2-19-2-3-2-6-3-21 0-20-1-27-4-34s-13-17-18-21c-10-5-27-7-39-3-8 2-20 9-26 14-12 12-14 19-14 50 0 25 1 31 5 38 2 3 5 8 7 12 9 18 14 26 20 34 6 9 7 12 5 16-1 2-6 8-11 14-13 13-15 17-15 19s-2 8-4 14c-8 27-18 61-22 84-2 8-4 19-5 26-2 6-4 20-5 32-4 28-6 39-9 49-2 8-2 11-2 18 0 10-2 44-4 53-1 3-1 11-2 17 0 6-1 13-2 14-2 5-2 18-1 20 2 3 15 6 25 6h58c54 0 146 0 147 1 1 2 13 1 16 0z"/></svg>