<svg xmlns="http://www.w3.org/2000/svg" width="1344" height="566"><path d="M0 283V0h1344v566H0V283m632 279c4 0 8-2 10-3 1-1 6-5 11-9 7-6 10-8 19-11 14-6 18-9 21-20 2-4 4-10 6-14 3-9 4-25 4-55l-1-24-3-7c-4-8-4-5-3-53 0-16 0-25-1-34-3-19-4-21-12-30-4-3-14-11-21-16-17-11-29-19-31-21-3-3-2-7 3-18 6-11 10-15 17-17 10-1 12-3 14-23 0-7 2-16 3-19 2-6 2-23 0-32 0-4-1-14-2-23-1-28-5-41-16-51-6-5-25-15-38-20-7-2-9-2-20-2-18 0-31 3-44 9-8 5-10 6-16 13-9 10-11 14-12 25 0 4-1 9-1 9-1 0-2 6-3 12 0 5-2 15-4 22-1 6-3 15-3 19-2 12-9 53-11 56-2 4-11 7-28 9-9 1-11 1-24 8-15 7-16 9-23 20-6 8-13 15-19 18-4 2-6 5-6 10 0 4-3 6-5 6-6-2-10-2-13 0-11 5-28 19-45 36-14 15-15 16-18 24-2 4-4 12-5 17-3 9-5 13-12 25-9 15-10 21-3 41 6 19 8 22 28 38 11 9 12 11 18 29 2 7 6 16 8 20s5 11 6 14c3 8 8 17 10 19 2 0 5 1 9 1s12 1 18 1l10 1 5-3c4-3 6-3 11-3 4 0 9 1 12 1 20 4 22 4 56 4h52c14-1 20-1 25 0 8 2 56 2 67 1z"/></svg>