<svg xmlns="http://www.w3.org/2000/svg" width="1344" height="566"><path d="M0 283V0h1344v566H0V283m684 131 2-3-1-31-1-32-5-11-6-12-1-16c-1-8-1-17-1-18-1-1 0-7 1-13 0-5 2-14 2-20 3-26 8-37 24-46 8-4 9-6 9-11-3-14-15-26-32-32-3-1-6-2-8-5-3-3-3-4-3-10 1-6 1-9 5-15 5-9 5-11 2-25-3-13-9-21-18-26-5-3-17 0-26 5-8 6-8 7-8 27 1 10 1 22 2 27v9l-5 5c-3 3-10 8-15 11-15 8-15 10-16 26 0 7 0 14-1 15-1 2-1 5 1 11 0 4 2 16 3 28 1 20 3 32 9 49 2 5 3 11 4 13 0 3 2 10 4 14 2 5 4 12 4 14 1 2 4 10 6 16s5 16 7 20c2 5 4 11 4 12 1 2 2 7 3 10 3 9 4 13 7 13 1 1 9 1 17 2 9 0 17 0 17 1h6c4 0 6-1 8-2m-526-74c6-8 10-16 12-26 2-16 4-18 13-20 4 0 6-1 10-5l5-4h7l7 1 2 4c3 5 5 6 11 4 3-1 7-1 12-1 5 1 8 1 14-1 15-4 15-4 17-23v-23c-1-4-1-11-2-16 0-10-1-8 13-27 10-14 12-23 8-31-3-5-6-7-17-6h-10l-9-5c-9-5-9-5-16-5-8 1-10 2-12 8-1 2-3 6-5 8-1 2-3 5-4 8 0 2-2 6-3 8-4 4-4 6 1 16 3 6 4 8 4 13 0 11-3 12-10 7-5-5-18-13-27-16-14-6-18-9-18-13 0-3 4-7 9-10 3-2 6-5 8-6l3-4v-33l-4-6c-3-4-4-8-4-10s-1-5-2-8c-1-2-2-7-3-11-3-9-6-12-13-16-12-6-34-10-45-7-9 3-16 6-21 11-6 5-11 15-11 22 0 8 4 21 11 36 9 20 10 23 16 30 7 9 7 11 6 30-1 9-2 16-2 17-1 2-4 5-7 8-4 4-5 5-7 12 0 4-1 10-1 13 0 5 0 6 3 11 6 8 17 22 23 29 5 5 18 24 26 38 3 5 7 4 12-1z"/></svg>