<svg xmlns="http://www.w3.org/2000/svg" width="1344" height="566"><path d="M0 283V0h1344v566H0V283m566 276c2-1 13-1 38 0h42c13 0 65-1 67-2 4-1 5-3 7-30 2-40 3-54 6-56 2-2 2-2 26 0 15 2 41 1 61-2 9-1 22-2 29-3 17-1 38-4 44-5 8-2 31-9 39-12 21-9 46-34 46-46 0-5-4-16-8-22-2-3-5-8-7-11-4-7-16-23-23-31-9-10-17-16-32-23-7-3-15-7-17-9-4-4-10-12-12-17-1-4-1-6 1-15 1-6 3-14 4-17 4-17-4-40-13-37-8 2-11 1-15-2-8-6-15-7-18-2-2 3-5 13-5 17 0 2-1 4-4 6-2 2-3 3-4 3-6-3-6-3-8-2-1 1-1 2 0 4 1 7-9 9-18 4-5-2-6-2-18-2-13-1-14-1-19-3-10-5-32-19-34-22-2-2-3-6-4-14 0-6-2-16-2-20-1-5-2-12-3-14-1-8-10-44-12-49-8-17-22-32-40-41-13-6-43-14-64-16-18-3-50 6-71 19-18 11-25 19-39 44-3 6-7 14-10 19-3 4-6 9-7 12-3 6-9 21-10 25-1 8-1 8-23 23-18 12-20 14-28 15-7 1-10 3-25 14-12 9-27 18-38 22-6 2-13 5-17 7-10 4-19 9-25 15-5 6-15 20-18 27-5 12-7 37-4 54 2 12 5 20 10 26 2 2 6 8 9 13 4 5 11 14 19 22 18 18 18 18 19 45 0 16 0 23-1 34-1 7-2 16-3 20-3 20-3 26-2 29 2 7 3 7 28 6 12-1 36-1 54 0 18 0 48 1 67 1 43 1 80 0 85-1z"/></svg>