<svg xmlns="http://www.w3.org/2000/svg" width="1344" height="566"><path d="M0 283V0h1344v566H0V283m754 279c20-1 44-2 54-1 9 0 32 0 52 1 19 0 49 0 67 1 36 0 38 0 41-5 3-6 8-22 8-28 0-2-1-8-2-12-2-10-5-37-7-77-1-11-1-23-2-27-1-3-1-8-1-11s-1-8-2-13c-2-4-3-11-4-14-2-15-3-17-6-24-2-6-4-10-7-13-5-6-6-6-25-14-13-5-32-15-37-19-6-5-12-13-13-17 0-1 0-3-1-4 0-2-1-4-3-6s-4-6-5-9c-1-2-6-10-11-16-18-24-18-26 1-44 8-8 11-11 12-14 2-9 2-27 0-49-3-24-4-31-8-43-10-25-24-40-50-53-20-9-33-11-61-8-21 3-26 4-35 7-19 8-33 20-41 36-6 13-7 21-7 36 0 12 0 16 4 34 5 25 6 37 2 42-1 1-5 4-11 7-8 4-12 7-20 14-11 10-14 14-19 24-9 17-12 29-17 57-3 18-3 18-16 32-8 10-13 17-15 25-1 5-6 12-11 19-3 5-10 19-10 21 0 1-3 7-6 15-6 13-7 15-15 23-9 11-13 16-22 35-19 40-28 73-23 84 3 6 8 6 74 6 47 0 60 0 65 1 9 2 85 2 133 1z"/></svg>