<svg xmlns="http://www.w3.org/2000/svg" width="1344" height="566"><path d="M0 283V0h1344v566H0V283m862 277c29-1 37-2 64-7 9-1 22-2 48-4 18-1 39-4 40-6 3-5 4-28 2-39-4-18-5-24-6-42-1-12-3-23-3-26-2-12-2-19 0-25 1-2 2-5 2-7 0-4-4-11-8-14-6-5-9-7-21-11-17-5-20-6-23-8-1-1-4-2-6-2s-4-1-8-4c-5-4-5-4-5-9 0-4 0-5-4-8-2-1-4-3-6-4-11-2-16-5-16-8 0-5 2-6 15-6 9 0 12 0 13-1 1-2 1-6 0-17-1-18-1-19-13-46-7-18-22-60-25-74-4-12-18-53-24-69-12-30-16-38-32-52-14-13-29-23-49-33-19-9-25-11-41-10-13 0-14 0-26 4-6 2-14 4-16 4-3 1-11 2-18 4-26 7-40 15-51 33-14 22-25 60-29 101 0 3-1 10-1 14-1 5-2 12-2 16-1 3-2 14-3 22-2 13-2 23-2 55 0 21 0 45 1 53 0 19 1 19-16 17-6-1-16-1-20-1-11 0-17 2-29 11-16 11-30 16-41 16-9 0-11 1-25 11-5 4-11 8-14 9-22 9-24 10-34 19-6 6-10 9-13 10-4 2-10 2-32 2-29 1-33 2-37 5-2 3-1 5 5 7 15 4 19 6 22 11 1 3 1 4-2 13-2 6-3 11-4 12 0 2-2 6-4 10s-4 10-5 12c-2 9-9 27-11 31-1 3-4 8-6 11-4 8-4 9 8 9 5 0 17-1 26-1 8-1 18-1 22-1s9 0 11-1c3-1 15-2 27-2 27-1 32-2 42-6 5-1 10-3 12-3 3-1 7-2 10-2 6-1 23 0 30 3 8 2 28 7 39 9 10 1 15 1 39 0 70-3 116 0 137 8 7 3 9 3 22 4 9 1 16 1 17 2 3 1 26 2 39 1h38z"/></svg>