<svg xmlns="http://www.w3.org/2000/svg" width="1344" height="566"><path d="M0 283V0h1344v566H0V283m818 275 4-4c0-1 2-4 3-6 1-3 3-7 5-10 2-5 2-5 2-19-1-13-1-19-4-37-1-4-1-16-2-26 0-25 2-48 9-80 4-16 5-29 5-52-1-18-1-20-4-31-2-7-3-14-3-17 0-6 3-25 5-32 0-3 2-16 3-28 1-20 1-23 0-26-1-2-2-7-2-11 0-6 0-7-4-12-5-7-5-9 1-13 5-4 7-9 7-14-1-5-7-18-12-27-3-5-8-13-11-19-7-12-20-26-28-31-4-2-5-2-16-2-10 0-11 0-17 3-9 4-14 9-17 15-3 5-3 6-3 22-1 10 0 21 0 25 3 20 2 20 0 24-2 2-6 4-9 6-4 2-8 4-9 5-2 3-6 13-9 25-5 23-6 28-7 33-2 20-9 45-16 58-4 8-6 9-12 6-7-4-12-4-16 0s-2 7 8 7c6 0 10 3 14 10 3 5 6 8 10 10 5 3 10 2 16 0 7-4 11-4 15 0 5 4 7 5 14 6 9 1 10 3 9 12 0 10 1 11 17 20 10 5 15 8 19 12 9 9 10 14 5 28-4 12-6 61-4 73 1 6 5 21 8 31 3 9 5 27 6 47 0 18 0 18 3 20 2 2 3 2 8 2 4-1 7-2 9-3z"/></svg>