<svg xmlns="http://www.w3.org/2000/svg" width="1344" height="566"><path d="M0 283V0h1344v566H0V283m755 277c10-1 145 0 151 1 4 1 9 1 17 0 25-2 25-2 32-1 5 2 13 2 56 2 28 0 57-1 64-1 14-1 14-1 16-3s2-3 2-13c-1-8-1-12 0-17 2-7 13-29 21-40 13-19 23-36 25-42 1-3 2-8 2-12 0-7 0-7-2-9-3-3-4-3-9-2-5 0-6 0-8-2-2-1-4-5-6-8-5-12-9-13-18-5-4 2-7 4-8 4s-4-2-6-3c-5-5-7-6-12-6-6 0-9 2-17 8-3 3-6 5-7 5-2 0-7-3-12-8-7-9-8-11-19-36-11-29-21-46-29-55-5-5-19-13-50-28-38-17-39-19-35-48 1-10 1-19 1-39 0-21 0-26-2-35-7-33-22-52-54-71-11-7-23-13-30-16-8-3-28-6-44-6-12 0-15 0-22 2-9 3-29 12-39 18-12 8-28 27-34 39-4 7-6 19-6 28 0 8-2 13-12 34l-7 15v26c-1 29 0 29-8 33-3 2-15 7-27 11-24 8-45 17-54 23-6 4-17 13-20 17s-9 18-12 31-10 34-14 42c-1 3-5 12-8 20-5 12-7 15-14 24-5 7-9 11-10 11s-4-2-7-4c-10-8-13-8-20 1-2 4-5 6-5 6-1 0-5-2-9-4-6-3-8-4-10-4-4 1-7 6-7 11 0 4-3 11-7 13-2 1-4 1-11 1-8 0-8 0-10 3-3 4-2 9 2 18 5 9 8 12 27 37 17 20 21 24 30 27 5 2 17 3 44 4 16 1 38 1 49 2 13 1 30 1 44 0 13 0 44-1 68 0 38 0 45 0 49 1 3 2 6 2 19 1 9 0 18 0 22-1z"/></svg>