<svg xmlns="http://www.w3.org/2000/svg" width="1344" height="566"><path d="M0 283V0h1344v566H0V283m262 277c35-1 37-1 40-5 4-3 13-23 14-31l4-12c0-4 2-10 3-14 2-12 3-12 20-12s49-2 59-3 21-4 32-7c6-1 13-3 17-4 12-2 39-11 55-18 6-2 13-5 15-6 18-7 22-10 22-17 0-3-3-7-6-7-2 0-5-3-5-6s-2-6-5-6c0 0-3 1-5 2-3 1-6 2-8 3s-6 2-10 4c-8 3-16 4-20 2-4-1-6-5-7-12-2-9-2-9-4-9-3 1-7 7-12 21-4 10-7 12-21 14s-40 2-59 0c-20-3-22-4-29-16-5-9-6-14-9-29 0-6-2-14-3-16-3-8-3-12-1-20 4-9 9-18 12-20 2-2 3-2 10-1 12 2 14 1 26-11 6-5 12-11 14-12 5-4 6-5 9-17 2-10 6-20 11-29 3-6 3-7 3-15-1-8-1-10-5-17-3-6-7-11-13-17-16-17-28-21-47-16-14 3-22 10-33 25-8 12-11 14-15 14-2 0-5 1-7 2-12 7-13 8-26 9-24 2-46 10-80 30-15 9-28 22-46 45-14 18-18 22-21 29-2 4-5 8-6 11-6 9-20 36-26 50-2 5-6 15-9 21-3 9-4 11-3 12 2 3 10 2 16 0 5-1 5 0 12-20 2-6 4-11 5-11 2-1 7 1 9 5l2 3 2-3c4-4 6-2 6 5s-2 10-6 10c-2 0-3 1-3 5-1 3-1 6 1 14 3 10 2 12-3 12-2 0-6 1-10 2s-7 2-8 3c-4 1 2 4 9 6 2 0 5 1 6 2 3 2 3 3 3 11 1 5 1 11 2 13 0 3 0 5-1 7-1 1-2 5-3 7-1 8-5 13-10 13-3 0-5 2-5 5 1 3 13 15 17 18 3 2 4 2 12 2 9-1 29 1 33 3 2 1 13 1 29 0 15 0 42 0 60-1z"/></svg>