<svg xmlns="http://www.w3.org/2000/svg" width="1344" height="566"><path d="M0 283V0h1344v566H0V283m562 278c50 0 98 0 108 1h35c25-1 24-1 25-18 0-7 1-15 2-18 1-4 1-5-1-8-1-3-2-5-2-10s0-6-4-10c-2-3-4-6-5-7-2-8-18-47-22-55l-5-9 1-8c0-9 0-9-3-12-2-2-8-5-20-9-10-4-22-9-27-11-4-2-13-6-20-8-25-10-48-19-52-22-6-3-7-7-7-16s4-27 12-52c5-13 7-28 7-43 0-17-6-55-10-68-1-2-2-5-2-6s-2-8-4-14c-2-7-4-14-4-16-1-6-11-31-16-42-17-35-36-55-68-70-12-6-33-11-47-12-13 0-20 1-38 9-29 13-38 18-48 29-18 19-30 48-39 100-1 7-3 17-4 22s-2 12-3 14c0 2-1 8-2 13-4 15-7 42-8 66-1 13-1 31-2 40-1 12-1 22 0 36 2 28 3 26-24 38-4 2-16 9-27 16-10 6-24 15-31 19-13 6-19 10-21 15-1 1-2 6-2 11-1 6-2 12-6 22-7 19-11 31-12 38 0 4-2 12-3 18-3 17-3 31 1 34l2 2h51c31 0 56 0 64-1 9-1 14-1 17 0 2 1 26 1 58 1 31 0 67 1 82 1s28 1 30 0h94z"/></svg>