<svg xmlns="http://www.w3.org/2000/svg" width="1344" height="566"><path d="M0 283V0h1344v566H0V283m204 279c9-1 32-1 52-1 33-1 36-1 38-3 6-4 19-31 20-43 2-8 5-18 8-21 2-2 3-3 9-3 3 0 7 0 9-1 1 0 10-1 21-2 19-1 42-4 50-6 2-1 8-3 13-4 4-1 9-3 12-4 2 0 5-1 8-2 2 0 6-1 9-2s7-2 8-2 4-1 6-2c3-1 7-3 10-4 2-1 5-2 5-2 1 0 5-2 9-4 5-1 12-4 17-6 16-5 22-10 21-17-1-4-3-6-6-6-2 0-5-2-5-5 0-1-1-3-2-4-3-3-8-2-21 4-10 5-12 5-18 5-10 0-13-3-14-14 0-8-2-11-6-8 0 0-3 6-6 13-2 7-5 14-5 16-3 3-7 5-18 6-5 0-13 1-16 2-20 3-54-1-62-6-5-4-10-12-11-20-7-46-7-47-4-56 2-8 10-24 12-27 2-2 3-2 12-2 7 0 11 0 13-1 3-2 10-9 13-14 1-2 6-7 10-12 4-4 8-9 9-10 0-1 1-6 2-11 1-8 4-21 7-31 3-9 2-17-2-24-3-6-18-22-24-26-5-4-21-7-32-7-17 1-28 9-41 29-4 7-8 13-9 14s-6 4-11 7c-8 5-10 5-18 6-27 3-50 11-82 30-17 10-33 27-55 58-9 13-32 57-33 64-1 5 1 7 5 5 6-2 10-1 13 2 3 4 3 5 8 19 2 6 4 11 4 12 3 6 3 46 0 53-1 1-5 5-8 9-4 4-8 8-9 10-5 8-7 11-10 12-6 2-5 7 5 16 7 7 9 8 25 12 8 2 17 4 20 6 10 4 19 5 45 3z"/></svg>