<svg xmlns="http://www.w3.org/2000/svg" width="1344" height="566"><path d="M0 283V0h1344v566H0V283m39 278c7-2 17-2 44-1 72 1 91 0 117-3 5-1 15-1 22-1 16 0 16 0 16-6 0-5-9-29-16-46-2-4-4-9-5-11 0-2-2-7-4-11-10-23-15-44-23-84-1-11-4-20-9-29-4-9-22-35-28-43-14-16-38-29-81-47-37-14-41-16-40-26 0-3 2-9 4-13 3-8 3-9 3-18-1-9-1-10 2-16 1-3 3-8 3-11 1-4 3-9 5-14 5-10 5-13 0-33-3-9-5-17-6-18-2-6-2-17-1-26 1-5 2-15 3-22V70L33 46C21 23 21 22 21 17c1-7 0-9-8-10-5 0-6 0-9 2l-3 2v546l2 2c4 3 20 4 36 2m1041 0c8-1 15-2 16-2 2-1 2-4 1-11-3-12-9-22-22-36-6-8-14-17-17-21-7-8-14-15-36-32-8-6-21-18-30-26-11-11-24-21-43-36-33-25-35-25-55-27-10 0-16-1-21-3-7-2-8-3-14-9-7-8-13-18-15-26 0-2-1-11-1-18 0-11 1-16 2-24 3-13 5-17 16-30 9-11 19-30 21-40 2-8 2-22 1-30-2-6-2-16-1-22 1-2 1-10 2-19 2-26-1-44-11-61-15-26-53-48-90-53-10-1-39-1-50 1-19 3-34 10-50 23-10 8-13 11-20 22-9 13-12 24-14 47-1 8-3 22-3 30-1 7-2 20-3 28 0 7-1 19-2 25-4 21-4 25-3 32 0 3 2 11 2 17 4 27 10 43 23 69 5 11 10 16 21 23 6 4 10 9 10 13 0 3-4 7-12 12-15 9-21 12-31 17-25 12-54 33-84 60-13 11-16 15-30 34-3 3-8 10-11 14-3 3-7 11-9 16-5 8-12 30-12 34 0 2 1 4 3 5 2 2 2 3 25 3 47 0 164-2 165-3 1 0 73 0 105 1 13 0 29 0 33 1 5 0 41 0 80 1 38 0 81 1 96 1 42 1 51 1 68 0z"/></svg>