<svg xmlns="http://www.w3.org/2000/svg" width="1344" height="566"><path d="M0 283V0h1344v566H0V283m499 279c19-1 43-2 53-2 10-1 19-1 22-1h76c62 1 76 1 89-1 12-1 21-1 32-1 16 1 61 1 97 1 14 0 25 0 30 1 7 1 18 1 46 1 19-1 37-1 39-2 1 0 3-1 3-3s-10-14-26-31c-18-21-29-36-32-45-4-16-10-26-23-35-3-3-7-6-8-7-5-5-18-26-22-35-5-9-9-26-11-38-1-5-2-16-4-25l-2-15-10-21c-6-12-10-21-10-21 0-2-13-28-18-35-7-10-12-21-12-28-1-3-1-14 0-24 1-16 1-20-1-31-1-7-3-17-5-22-2-6-4-15-5-20-8-35-15-50-27-57-2-1-6-4-8-6-6-4-18-10-30-15-10-4-20-6-26-6-4 0-13-1-20-1-15-2-21-1-31 4-3 1-10 3-15 4-7 2-12 4-16 7-4 2-10 5-13 7-4 2-8 4-9 6s-5 6-8 9c-4 5-8 10-13 21-10 21-11 27-8 75 0 9 0 12-2 18-1 4-1 11-1 16 0 15 6 30 16 39 6 5 9 8 12 18 2 9 3 14 0 30-1 7-3 15-3 19-2 13-6 19-15 21-3 1-11 10-14 15-3 6-14 26-17 29-1 2-4 5-7 7-2 2-6 5-9 7-2 2-8 5-12 7-8 3-9 3-14 2-7-1-7-1-27 8-8 4-17 7-28 10-17 4-24 8-35 16-10 7-22 24-37 52-9 16-11 19-12 27-1 4-2 11-3 16-2 13-1 25 1 29 1 2 2 3 2 3 1 1 73 4 83 4 6 0 28 0 48-1m-180-8c1-1 3-3 4-6 4-7 10-22 11-28 1-2 5-17 10-32 9-26 10-30 22-54 14-28 21-40 27-47s13-18 13-20c0-1-1-4-2-7-3-8-5-23-5-36 0-12 1-12 3-14s3-2 6-2c4 1 14 2 24 4 5 0 6 0 10-2 3-2 6-4 7-5 3-4 3-11 0-18-4-7-4-6-1-10 1-2 2-4 1-5-1-3-12-15-16-17-6-3-7-5-7-11 1-4 1-5-1-7-3-2-4-2-12-2-11 1-14 2-17 8-1 2-3 5-5 7-10 11-11 13-12 25 0 8 0 9 3 14 3 7 7 18 7 21 0 2-2 3-5 4-2 2-5 4-6 5s-3 2-5 3c-1 0-3 0-4 1-2 1-7 11-9 20s-8 22-14 29c-2 2-6 8-9 12-7 11-23 31-34 43-23 28-31 39-52 81-15 30-18 35-17 38 1 4 5 5 24 6 8 1 19 2 22 2 12 1 36 1 39 0z"/></svg>