<svg xmlns="http://www.w3.org/2000/svg" width="1344" height="566"><path d="M0 283V0h1344v566H0V283m772 278c70-1 65 0 72-9 7-12 14-46 11-66-2-15-8-49-11-60-2-7-4-17-5-24 0-6-1-14-2-16s-2-9-2-16c-2-10-4-24-7-46 0-6-1-17-2-24-1-16-3-24-8-29-2-2-9-6-16-10-16-9-19-12-21-17-2-3-5-8-12-14-9-9-10-10-10-13 0-6 3-8 10-8 12 0 13-4 4-13-6-7-10-15-10-20 0-2 1-8 3-14 3-14 4-21 2-32-3-12-4-18-8-24-8-14-27-25-43-27-10 0-33 2-44 4-33 9-43 22-37 48 1 5 3 10 3 11 1 1 1 5 1 9 1 13-7 27-18 32-2 1-7 4-10 8-7 6-9 10-12 29-4 23-11 40-21 48-4 4-6 7-11 17-4 7-9 15-11 19-8 12-15 40-15 62 0 9 0 10 3 16 4 9 9 12 18 14 11 1 20-2 39-12 13-7 14-6 12 17 0 9-2 32-2 51-1 20-2 46-3 59s-1 28-1 34c-1 15-1 14 25 16 13 0 31 1 49 0h90z"/></svg>