<svg xmlns="http://www.w3.org/2000/svg" width="1344" height="566"><path d="M0 283V0h1344v566H0V283m546 275c59-2 177-3 203-1 20 2 149 1 170 0 10-1 19-1 21-1 2 1 26 1 52 2 77 1 73 1 75-4 1-6-8-18-29-34-6-4-14-11-19-14-13-11-27-20-45-29-21-11-33-20-38-30-2-4-1-12 4-25 5-12 28-57 33-64 1-3 7-13 13-23 12-21 17-28 25-33 23-15 43-50 46-76 0-6 0-7-2-10-2-2-4-5-7-6-2-1-4-3-5-5 0-1 1-9 4-21 9-35 11-47 14-70 3-30 3-33 1-45-4-23-15-52-21-58-4-2-11-5-21-6-9-2-208-1-221 0-9 1-17 3-20 5-7 5-20 35-27 61-2 10-6 31-7 44s-3 24-5 27c-2 2-7 4-15 6-9 2-15 10-17 24-2 10-2 14 0 28 4 21 9 34 20 46s11 15 9 40-7 44-15 60-13 23-18 26c-3 2-4 2-17 1-14 0-38 1-42 3-3 1-9 8-19 23-10 16-19 27-24 33-7 7-20 17-33 25-6 4-15 9-19 13-11 6-22 13-44 25-17 10-31 20-42 29-13 11-27 25-28 28-2 5 1 7 10 7 4 0 9 1 13 1 8 1 15 1 87-2z"/></svg>