<svg xmlns="http://www.w3.org/2000/svg" width="1344" height="566"><path d="M0 283V0h1344v566H0V283m358 278c53-1 130-2 224-1 48 0 60 0 76-1 11-1 30-2 44-3 14 0 26-1 30-2 4 0 12-2 16-2 5 0 11-2 14-2 3-2 8-2 18-2 11 0 15 0 27 3 21 5 47 7 91 7 25 0 26 0 29-2s4-5 1-16c-4-19-10-31-18-42-14-17-22-35-24-52-1-7-4-17-7-24-5-10-10-17-22-28-6-5-15-14-19-18-9-8-15-11-28-15-5-1-15-4-21-6s-14-5-16-5c-11-3-14-7-15-22 0-8 0-12 2-20 2-7 2-10 1-20v-17c0-3-1-12-2-19-2-14-8-33-21-72-10-28-13-35-32-68-13-22-32-47-42-54-4-2-8-5-9-7-10-7-33-19-51-24-6-3-14-5-18-7l-6-2-39-1c-38 0-39 0-47 2-7 3-12 4-38 7-11 2-21 6-33 16-9 6-22 19-32 31-21 26-36 63-40 99-2 16 0 21 9 30 4 4 7 9 9 12 2 6 2 7 2 18-1 6-2 17-3 23-3 19-1 35 7 51 7 15 8 17 7 34 0 18 0 22 8 39 5 13 6 15 3 18-1 2-8 7-16 12-12 9-15 11-38 34-13 14-32 32-41 41-39 34-62 61-62 72 0 5 2 5 28 6 14 0 30 1 34 0 5 0 32 0 60-1z"/></svg>