<svg xmlns="http://www.w3.org/2000/svg" width="1344" height="566"><path d="M0 283V0h1344v566H0V283m423 278c14-1 16-2 18-5s6-32 6-37c-2-6 0-7 9-3s21 8 26 8c8 0 15-9 20-25 2-6 2-8-2-10-2-1-5-4-8-7-5-7-5-7-3-14 1-4-3-7-12-10-6-2-7-2-13-1-9 2-13 2-15 0-3-3-4-13-3-21 2-12 6-29 8-36 1-4 1-9 1-21l1-15-5-13c-6-14-15-32-21-39-2-2-8-8-14-13s-11-11-12-12c-1-3-1-4 6-17 6-12 7-14 12-17 8-5 10-8 12-18 2-13 2-30 0-54-3-32-5-36-22-46-10-6-20-9-34-11-11-2-12-2-20 0-32 8-41 23-44 72-1 11-3 25-3 31-1 6-1 24-1 40v29l-7 14c-6 13-9 19-12 34-6 25-7 29-8 44 0 9-2 23-3 32-2 14-2 15 0 30 0 9 2 20 3 26 3 18 4 27 4 48s0 22 6 28c3 3 16 8 25 9s91 1 105 0m915-2 4-3v-20c1-27 1-248 0-255-1-8-10-23-22-37-6-6-13-14-16-16-3-3-9-9-13-14s-9-10-11-12c-6-4-16-8-19-8-1 0-4-1-6-4-4-4-5-6-8-14-4-14-5-26-2-40 1-5 2-14 3-20 1-12 0-32-2-38-1-2-2-4-2-5 0-3-9-20-12-24-2-2-7-6-12-9l-10-4h-17c-20 0-27 1-40 7-10 5-14 9-21 19-9 13-9 16-9 25 1 5 1 16 1 25 1 15 1 20 4 38 2 8 7 24 10 30 1 2 3 6 4 9 2 7 7 11 13 13 12 3 15 8 13 17-1 6-6 12-18 24-9 9-17 21-17 24 0 2-1 5-1 7-1 2-3 9-5 14-1 4-3 10-3 12-3 6-5 13-6 19-1 3-2 8-3 11-3 10-4 14-5 22 0 5-2 13-2 18-1 6-2 15-2 23 0 25-3 42-8 48-1 2-4 6-7 9-6 10-22 23-28 23-2 0-21-7-29-10-8-4-18-5-20-3-3 4-2 7 4 14 7 6 7 7 7 11s-1 6-4 9c-1 2-6 5-9 7-13 8-15 15-3 18 4 2 4 2 8 12 2 3 2 3 12 1 6 0 6 0 9 3 2 2 4 4 4 5 0 3 3 4 19 5 18 1 24 3 29 8 2 2 5 4 6 4s8 1 15 2c11 1 32 1 113 2 55 0 102 1 105 1 6 0 6 0 9-3m-462 0c10 0 11-1 13-4 1-3 1-9 2-51 0-61 3-124 7-170 2-18 1-38-1-50-2-10-10-34-13-40-1-2-4-8-8-14-3-5-8-14-10-20-6-11-11-19-19-28-7-8-10-13-10-19 0-7-3-9-10-10-8-2-12-4-16-9-1-3-4-7-5-8-2-3-2-4-2-17 0-8 0-17 1-21 3-17 3-20 3-32-1-10-1-13-3-17-5-9-14-18-23-23-4-2-9-5-11-7-2-1-5-2-7-3-5-1-19-1-25 0-14 4-35 16-44 25-6 7-8 14-8 26 0 6-1 14-1 19-1 7-1 9 1 17s2 13 2 25v14l7 13c11 21 20 32 25 32 2 0 6 4 6 7 0 0-2 4-5 7-8 8-9 10-10 21 0 5-1 12-2 14-1 3-3 9-5 14-8 23-9 30-15 60-1 10-3 19-8 41-1 4-5 20-8 36-3 15-6 31-7 35-3 12-12 59-16 84-3 22-6 46-6 49 1 1 2 3 4 3 2 2 6 2 27 1 16-1 46-1 89-1 95 2 96 2 97 2 0 1 2 1 4 1 3-1 7-1 10-2z"/></svg>