<svg xmlns="http://www.w3.org/2000/svg" width="1344" height="566"><path d="M0 283V0h1344v566H0V283m744 277c24-1 62-1 84-1 85 1 89 1 91-1 2-3 1-5-8-14-10-10-18-17-31-25s-20-13-29-22c-6-7-16-19-20-26-3-4-8-21-12-35-2-9-3-13-3-22 0-22 3-34 11-44 4-4 7-10 10-18 1-2 5-9 9-16 10-16 13-22 14-29 1-8-2-19-8-32-8-18-10-24-14-39-2-7-4-15-4-17-1-2-2-8-3-13-1-12-14-57-22-75-9-22-16-32-32-45-19-16-50-24-76-21-11 1-52 14-65 20-19 10-32 31-38 63-4 19-4 30-4 56 1 37 0 54-1 63-1 8-2 11-8 22-4 8-8 17-9 21-3 8-6 15-11 21-4 6-7 13-8 21-1 4-2 8-4 11-5 7-13 18-17 23-11 16-19 29-19 31 0 1-3 7-6 14-22 41-32 63-34 74-1 3-3 11-5 17-1 6-3 15-3 20-1 5-1 10-2 11 0 4 2 6 7 7 6 1 209 1 270 0z"/></svg>