<svg xmlns="http://www.w3.org/2000/svg" width="1344" height="566"><path d="M0 283V0h1344v566H0V283m722 276h86c23 0 67 1 97 0 52 0 151 0 220 2 45 0 47 0 46-11-1-8-10-34-17-48s-14-24-30-43c-16-18-26-25-51-38-8-4-19-9-23-11-14-6-73-36-75-38s-2-3-2-6c1-7 5-19 9-25 2-3 4-9 4-13 1-4 4-10 6-14s5-9 6-12c2-4 4-9 6-11 1-2 3-7 5-11l3-6 1-25c1-26 1-27 7-43 4-10 4-17 0-28-5-16-9-34-9-40 0-3 1-14 2-23 1-16 1-16-1-23-3-9-11-20-25-34-13-12-18-15-32-20-5-2-12-4-15-6-5-3-13-5-21-6-3-1-8-3-11-4-9-5-12-6-18-3-5 1-8 1-24 1-25-1-41 1-51 8-6 3-23 19-38 35-8 9-12 14-15 20-7 14-10 32-10 54 0 13 1 22 8 48 10 41 15 93 11 106 0 3-2 9-4 14-1 5-2 10-3 11-1 0-6 3-11 6s-13 9-17 12c-14 13-47 30-70 37-6 1-13 4-45 18-61 27-71 32-87 42-16 11-34 30-45 46-11 17-25 51-29 68-1 7-1 8 0 10s3 3 4 4c2 0 14 1 27 0 30 0 114 0 131 1 12 1 25 0 100-1z"/></svg>