<svg xmlns="http://www.w3.org/2000/svg" width="1344" height="566"><path d="M0 283V0h1344v566H0V283m699 205c4-2 6-7 6-15 0-4-1-9-1-11-1-3-1-6 0-14 1-6 2-25 2-43v-32l6-11c4-7 9-16 13-21 11-14 13-19 18-42 1-5 3-6 7-4 5 4 7 9 8 19 0 6 1 9 2 9 4 3 13-11 14-21 0-6 0-7-3-9-10-8-16-13-18-16l-1-4 3-7c1-4 3-8 4-11 0-2 1-6 2-8 3-11 2-45-2-53-1-2-4-5-7-7s-6-6-8-8l-3-3v-16c0-24-3-37-10-42-2-1-6-1-11-2-7 0-8 0-14 3-7 3-12 8-14 14-4 11-5 16-6 28 0 7 0 14-1 15 0 1-6 5-9 5-2 0-13 5-15 8-2 1-5 4-7 6-3 2-9 7-13 11-6 6-8 8-10 8-5 0-22 9-25 13-7 9-8 10-14 10-7 1-11 4-11 8s4 8 13 12c8 4 9 4 14 4 14-2 17-3 18-7 1-3 2-3 18-9 7-3 17-6 21-6 4-1 6 0 9 9 5 11 3 17-6 19-3 0-4 1-5 4-1 2-3 4-7 6-5 3-6 3-6 6 0 2 1 4 3 6 7 5 8 8 8 30 0 16 0 20 1 21 2 2 5-2 7-10 2-7 3-8 11-13 9-4 11-3 9 7-2 9-5 20-8 30-5 14-6 22-5 36 2 19 1 34-3 46-1 6-3 11-4 11-1 2-5 10-6 17l-4 8-1 4 3 3c2 3 13 7 23 10 4 1 13 0 15-1z"/></svg>