<svg xmlns="http://www.w3.org/2000/svg" width="1344" height="566"><path d="M0 283V0h1344v566H0V283m988 278c106-1 134-2 137-3 4-3-3-12-22-28-8-6-20-17-28-25-17-17-24-23-32-28-6-4-23-16-32-23-3-3-9-6-12-8-4-3-9-6-11-9-8-8-19-23-24-30-3-4-8-11-11-16-4-4-8-10-11-14-2-3-9-11-15-17-5-6-11-12-12-13 0-2-2-7-3-13-1-5-3-12-5-16-1-4-3-8-4-10 0-3-1-5-1-7 1-1 5-6 11-12 8-8 10-11 14-18 6-14 7-16 8-49 1-30 1-42-2-60-3-25-10-44-24-67-9-13-13-18-23-27-13-10-18-13-36-20-29-12-41-15-64-14-8 1-18 2-21 2-11 3-28 9-43 15-7 3-17 7-22 9-20 9-30 15-40 23-22 18-34 41-38 70-3 24 1 51 11 71 8 15 10 26 12 52 1 25 3 34 13 57 2 4 4 11 6 15 9 20 22 51 26 57 2 4 7 11 10 15l6 8c0 2-5 6-13 10-14 6-40 20-48 25-8 7-19 18-22 23-5 9-7 21-9 47 0 18 1 23 5 25 4 3 20 3 86 4 64 1 93 1 283-1z"/></svg>