<svg xmlns="http://www.w3.org/2000/svg" width="1344" height="566"><path d="M0 283V0h1344v566H0V283m344 278c74-1 70-1 108-1h88c32-1 62 0 68 0 30 3 45 3 77 2h34l2-3c3-2 3-3 3-19 0-15 0-18-1-21-4-7-6-9-11-10-10-3-15-6-18-9-2-2-7-4-13-6-5-2-16-6-23-11l-14-7c-1 0-5-2-11-6-6-3-18-8-27-12-24-11-25-11-28-17-5-7-5-11-4-21 4-16 8-24 17-26 2-1 8-3 13-5s10-4 12-4c1 0 4-1 5-2 2-1 7-4 11-6 5-1 10-4 12-6 5-3 11-10 12-15 1-2 2-13 2-24 1-12 2-28 3-36 4-30 4-33 4-48-1-8-2-18-2-22-3-10-4-32-4-59 0-21 0-27-3-41-5-38-11-50-27-61-9-7-48-28-64-34-8-3-23-8-37-12-23-7-62-6-77 1-3 1-9 4-13 5l-22 11c-9 4-20 10-26 12-22 11-28 20-48 88-4 15-13 69-19 118-1 9-2 20-3 24-3 16-4 39-5 64-1 22-1 28-4 44-2 9-3 22-4 27-2 16-9 46-12 52-1 4-6 9-15 19-8 7-16 16-20 20-8 10-20 22-31 29-15 10-20 15-17 21 0 3 6 5 12 6 6 2 26 3 42 2 9 0 44-1 78-1z"/></svg>