<svg xmlns="http://www.w3.org/2000/svg" width="1344" height="566"><path d="M0 283V0h1344v566H0V283m991 276c23-1 25-1 27-3 2-1 2-2 2-24-1-13-1-23-2-24-1-4-5-27-5-39-1-6-2-16-3-23-1-8-1-16-1-24 1-13 0-16-6-22-3-3-13-8-15-8-1 0-6-2-12-4-6-3-16-7-22-9-16-6-29-12-31-14-3-2-6-8-9-15-3-6-3-8-4-25-1-10-2-23-2-29-1-5-2-14-2-20-1-6-2-14-2-17-2-13-4-35-5-55-4-53-6-67-14-90-7-19-16-34-30-48-16-15-27-22-57-33-20-7-30-8-50-5-46 8-51 9-68 18-15 7-18 10-27 30-5 9-13 24-18 33-13 23-17 32-19 48 0 7-1 16-1 20 0 12-3 20-17 40l-6 7 1 8c0 6 0 9 1 12 4 6 5 31 4 42-1 3-1 6 1 10 2 5 2 9 2 18 0 14 1 18 7 24 4 4 9 7 26 15 1 1 2 2 2 3s0 1-2 1c-8-1-17-2-23-3-5-1-7-1-16 1s-12 2-27 1h-16l-6 3c-4 2-11 7-16 10-8 5-13 7-26 7-6 0-11 3-26 14-5 4-11 8-16 10-14 6-18 8-24 14-3 3-5 6-5 6 0 2-6 7-11 10l-6 4h-28c-28 0-30 0-34 2-5 2-7 5-6 8 1 1 5 4 9 6 6 3 8 5 10 7 1 4 1 4-2 13-4 11-8 23-11 30-4 11-15 36-17 38-1 3-4 12-4 13 1 1 3 1 4 1 2 0 6 1 10 1 7 2 23 1 77-2 41-3 64-6 75-10 4-2 5-2 15-1 5 1 13 2 18 4 9 3 30 7 52 9 8 1 61 2 63 1 0-1 14-1 31-1 30-1 35-1 58 3 17 3 45 4 67 4 10-1 21-1 24-1 55 0 104 1 105 1 0 1 8 1 18 1 9-1 28-1 41-2z"/></svg>