<svg xmlns="http://www.w3.org/2000/svg" width="1344" height="566"><path d="M0 283V0h1344v566H0V283m702 277c21-1 63-2 192-1h200c44 0 43 1 38-16-1-5-3-12-3-15-2-5-5-14-9-22-5-11-29-44-41-58-5-4-12-11-17-15-14-11-42-28-61-37-4-1-12-6-18-9-6-4-14-8-16-9-2-2-9-6-15-9-6-4-14-9-18-11-10-6-29-17-36-19-7-3-21-6-28-6-8 0-14-3-16-8-4-10-5-39-1-59 1-3 3-13 5-20 1-8 3-18 4-23 4-17 5-29 6-58 0-33-1-47-5-62-3-12-10-28-17-36-12-14-39-28-71-36-11-2-13-2-35-2s-26 0-35 2c-20 4-48 17-62 28-7 6-18 19-23 27-7 11-9 29-6 52 1 10 1 13 0 24-1 12-3 55-2 77 0 15 4 33 12 53 2 5 4 12 6 16 9 23 15 35 20 43 1 2 7 6 11 9 9 6 11 8 9 11-1 2-13 14-28 26-6 6-17 16-24 22-10 10-25 22-46 36-14 11-46 35-58 45-15 12-32 30-38 39-2 4-5 8-6 11-1 5-1 5 1 8 1 1 3 2 4 2 6 1 202 1 227 0z"/></svg>