<svg xmlns="http://www.w3.org/2000/svg" width="1344" height="566"><path d="M0 283V0h1344v566H0V283m298 277h174c47 0 64 0 70-1 5-1 12-1 39 0 23 2 49 2 88 2 65-1 60 0 60-11 0-6-3-28-7-44-2-11-7-24-11-34-1-2-3-8-5-12-1-3-4-11-7-16-5-10-5-11-5-19 0-12-1-14-10-18-3-2-16-7-27-11-62-22-66-24-66-31 0-4 6-34 8-38 1-3 5-18 7-31 1-5 2-16 3-25 0-14 0-19-2-31-1-8-3-26-4-39-4-30-7-55-9-66-2-12-8-33-11-41-12-26-37-47-72-62-16-7-20-7-33-7-9 1-15 2-20 3-5 2-12 3-16 4-28 4-37 8-51 19-11 9-16 16-24 29-9 16-12 24-19 46-7 26-10 42-18 91-2 14-6 47-8 62 0 7-1 16-2 19-2 10-3 34-2 47 1 15 1 21-3 25-3 3-15 10-18 10-4 0-27 8-33 12-7 4-19 12-32 21-9 7-14 10-22 14-9 5-19 12-21 15-1 2-2 5-2 7 0 5-2 10-11 28-8 17-11 26-14 48-3 20-2 30 2 33 2 2 29 3 80 2h54z"/></svg>