<svg xmlns="http://www.w3.org/2000/svg" width="1344" height="566"><path d="M0 283V0h1344v566H0V283m390 278c29 0 61 0 70-1h178c42 0 94 0 115 1h57l19-1 3-3c4-4 4-2 0-34-2-20-3-23-10-30-4-4-29-17-49-26-50-21-59-25-63-29-2-3-2-4-2-11 1-4 2-11 3-16 2-4 4-13 5-20 2-7 4-16 6-21 3-9 15-39 18-46 6-13 8-55 6-128-1-36-3-56-8-77-7-29-18-51-32-62-11-9-25-15-59-26-43-14-61-17-87-15-14 2-15 2-24 6-5 3-15 8-23 11-17 7-34 16-40 22-5 4-18 21-23 30-8 15-13 28-19 50-9 37-12 54-20 123-2 19-5 40-6 46 0 6-2 19-3 28 0 8-1 16-1 17-1 1-1 7-2 14s-2 18-3 24c0 6-1 18-2 26-2 26-4 32-11 41-6 6-19 17-26 23-3 2-8 5-11 7-7 6-27 20-35 25-19 12-22 14-24 18-3 6-7 18-8 25 0 5 0 6 2 8 3 2 16 3 39 2 8 0 40 0 70-1z"/></svg>