<svg xmlns="http://www.w3.org/2000/svg" width="1344" height="566"><path d="M0 283V0h1344v566H0V283m326 278c37 0 59 0 61-1s16-1 47 0c25 1 50 1 56 0 15-1 107 0 125 1 20 1 69 2 91 1 23-1 22 0 24-12 1-4 3-10 5-12 3-7 3-9-1-16-2-3-5-9-7-14-4-13-7-15-28-23-6-2-19-8-29-13-9-5-20-10-24-12-3-1-12-5-19-8-7-4-16-8-19-9-3 0-9-3-14-5-7-3-8-4-10-7-2-5-1-8 7-22 3-6 6-12 7-13 1-5 6-14 9-18 2-2 7-6 12-10 19-14 20-18 23-53 1-14 2-28 3-31 3-19-1-154-6-174-3-16-8-29-15-39-9-12-38-32-61-41-21-9-44-17-53-20-9-2-11-2-38-2-32 0-37 0-45 5-2 2-5 4-7 5s-7 4-10 6c-4 2-15 7-24 11-20 9-22 10-29 18-8 7-12 16-17 36-3 9-7 21-9 28-9 30-14 64-19 153-1 12-3 32-3 44-1 13-2 29-3 36 0 16-1 28-5 54-5 40-12 61-28 79-5 5-11 13-14 16-8 11-24 27-39 37-15 11-18 14-18 18s4 5 18 7c20 2 23 2 36 1 6 0 38 0 70-1z"/></svg>