<svg xmlns="http://www.w3.org/2000/svg" width="1344" height="566"><path d="M0 283V0h1344v566H0V283m300 277h200c170 1 195 1 209 0 21-2 20 0 20-28 1-22 0-25-3-28-1-1-4-6-5-12-4-13-15-39-20-50-3-6-3-7-3-18 0-8 0-11-2-13-1-2-8-6-15-8-2-1-12-5-23-10-10-4-21-8-24-9-7-3-11-4-34-14-21-8-27-11-30-14-2-3-2-4-2-16 1-11 2-16 5-28 2-9 5-20 7-24 8-22 9-39 6-58-2-14-8-39-11-52-1-4-3-12-5-18-6-26-21-66-30-81s-32-34-62-50c-20-11-24-12-41-13-22-1-28 1-46 9-8 4-19 10-25 14-35 20-51 55-61 135-3 27-6 61-7 90-2 51-1 66 4 81 6 16 8 24 8 27-2 5-7 7-34 17-8 2-15 6-22 11-13 10-36 25-46 30-17 9-19 12-19 23 0 7-1 11-6 27-2 6-5 15-6 22-2 6-4 13-5 16 0 3-2 10-2 15-3 15-2 24 2 27 1 1 40 1 128 0z"/></svg>