<svg xmlns="http://www.w3.org/2000/svg" width="1344" height="566"><path d="M0 283V0h1344v566H0V283m392 278c12-1 170-2 250-2 95 0 414 1 438 1 19 1 35 0 40 0 6-1 11-1 18 0 9 1 16 1 70-2 21-1 25-2 31-4 4-1 8-2 10-2 6 0 9-5 8-14-1-7-3-12-7-16-5-4-17-13-25-17-3-1-7-5-9-7-7-7-20-35-32-71-3-5-5-11-6-11-2-3-22-11-28-12-7-2-10-3-14-8-8-10-27-47-34-66-8-21-11-29-19-50s-9-26-17-50c-10-34-17-52-23-59-6-6-12-8-16-4-4 3-5 5-6 13l-2 8c-2 2-8-5-10-12-3-6-21-36-23-38-3-3-7-5-12-5-4 0-5 0-10 6-2 3-5 5-6 5s-4-3-7-6c-8-8-12-10-18-7-5 2-8 8-8 16 0 7-2 9-7 8-5 0-9 2-11 7-3 7-2 26 2 46 5 20 7 29 10 35 3 10 8 27 10 38 3 17 6 23 29 52 14 19 26 33 37 46 39 44 44 51 66 98 7 14 7 17 3 19-3 0-14-5-22-10-2-1-9-5-14-7-13-6-32-19-36-24-2-2-6-10-10-18-9-19-13-24-23-33-12-11-35-28-43-32-16-8-31-8-90-1-17 3-24 3-30 3-11-1-13-3-14-9-1-7 2-31 5-47 5-17 5-19 11-23 4-3 5-5 7-10 0-3 2-8 3-11 5-12 3-27-7-62-6-20-19-52-29-72-3-5-6-13-8-17-9-19-21-39-35-56-13-16-31-31-48-39-13-7-38-15-50-17-10-1-13-1-30 0-11 1-24 3-29 3-12 1-35 6-48 10-9 3-25 10-34 17-10 6-27 23-34 34-11 17-22 41-26 57-2 6-2 12-2 21 0 12 0 12 3 19 7 13 8 28 6 52-3 18-3 23 2 33 7 18 7 20 8 37 1 16 2 23 6 33 5 12 20 32 31 41 4 2 7 6 9 7 8 6 10 20 5 31-5 14-11 25-15 30-8 9-20 17-34 23-4 2-10 4-12 5-5 3-7 3-9 0 0-1-1-15-1-32l-1-32-4-12c-6-17-8-21-11-25-7-9-20-5-25 9-2 5-2 8-3 34-1 30-1 32-5 32-3 0-5-3-7-10-4-10-7-26-9-48-2-12-4-26-4-31-1-5-2-17-3-25-1-20-4-37-6-41-3-7-11-10-16-7-5 2-9 23-11 57-2 22-4 28-7 19-1-3-3-7-4-10-3-8-9-25-14-38-7-22-15-33-24-36-5-1-8 0-11 4-3 3-2 12 1 28 1 4 3 10 3 14 10 54 13 75 11 77 0 1-1 1-2 1-3-2-17-29-27-51-9-20-13-25-19-29-6-3-15 0-17 6-1 4 1 17 3 24 8 26 17 53 20 60 1 2 2 6 2 8 1 8-2 7-18-10-10-10-16-16-19-17-7-4-12-4-15-3-12 7-1 32 33 74 4 4 8 9 9 11s5 6 8 10c14 17 27 34 39 54 16 27 21 31 30 32 10 1 73 1 88 0z"/></svg>