<svg xmlns="http://www.w3.org/2000/svg" width="1344" height="566"><path d="M0 283V0h1344v566H0V283m112 276c16-1 34-2 39-2 19-2 29-2 72-2 58 1 83 1 88 0 2-1 5-2 7-5 3-3 3-4 3-9-1-4-2-11-3-16-3-11-6-31-8-49-2-23-8-61-11-78-5-19-17-50-26-63-8-13-22-24-49-40-18-11-21-13-21-16 0-2 10-20 19-35 8-13 11-21 8-29-2-4-1-6 4-14 3-4 6-9 6-11 2-7 4-10 11-17s8-11 8-23c-1-7-1-10-5-20-12-29-11-27-12-50-1-26-1-27-15-53-8-17-9-17-13-20l-5-3h-99C39 3 10 3 6 4L1 5v270c0 294 0 279 5 284 3 2 3 2 40 2 21-1 51-1 66-2m476 0c80-2 209-2 416 1 93 1 117 0 120-2 2-2 0-10-6-22-6-13-11-21-23-33-5-6-12-14-15-17-8-11-26-27-47-43-3-2-11-8-17-14-14-13-27-24-42-35-23-16-30-21-33-23-1-2-5-4-8-6-5-2-8-2-21-3-15-1-20-2-28-7-18-10-23-39-12-70 3-8 5-12 13-21 9-10 14-17 21-31 9-18 10-27 5-44-2-12-2-14 1-36 2-18 1-41-2-51-5-14-11-23-21-34-8-7-23-18-34-24-36-18-91-20-121-4-32 18-49 39-54 67-2 10-5 40-8 79 0 7-2 18-3 26-4 20-4 35 3 66 2 12 4 16 13 34 7 15 11 21 19 31 2 4 5 8 5 10 2 5-4 8-36 24-36 18-45 23-73 44-31 24-39 31-59 58-15 20-21 31-24 43-2 5-4 14-6 19-2 6-3 11-3 12l2 4c4 4 5 4 78 2z"/></svg>