<svg xmlns="http://www.w3.org/2000/svg" width="1344" height="566"><path d="M0 283V0h1344v566H0V283m552 277c3-1 35-1 72-2 36 0 70 0 76-1h34c18-1 54 0 95 1 34 1 39 1 40-1 2-1 2-2 1-4-3-13-18-32-36-45-13-9-44-25-60-32-4-1-11-5-16-7s-12-5-16-6c-12-5-38-18-42-21-7-5-7-11-1-26 3-8 16-33 22-44 3-3 7-10 9-14 9-15 21-35 25-38 2-2 7-7 11-9 10-7 14-11 23-23 15-21 26-49 24-60-1-2-4-6-7-10l-6-6v-8c1-5 3-19 5-31 10-46 10-52 10-75 0-18 0-21-2-32-5-21-10-33-21-47C780 4 782 4 665 4c-95 0-107 0-121 3-11 2-14 3-17 7-4 4-13 22-16 27-7 17-13 41-18 73-3 14-5 29-6 32-2 10-4 12-13 15-8 2-12 6-15 11-4 7-4 27-1 42 4 20 12 37 22 48 3 3 6 7 7 9 1 4 1 22 0 34-4 38-9 54-18 61l-4 3h-24c-27 1-37 2-41 5-4 2-13 14-20 26-8 15-15 25-24 34s-15 12-33 20c-3 2-5 3-6 7-2 4-2 6-2 20 0 8 1 21 2 27s2 17 3 23c1 11 1 13 4 17 5 10-1 9 82 10 49 0 77 0 83 1 12 1 16 2 38 2 10 0 21 0 25-1z"/></svg>