<svg xmlns="http://www.w3.org/2000/svg" width="1344" height="566"><path d="M0 283V0h1344v566H0V283m492 277c17-2 70-3 134-4 46-1 59 0 64 1 9 1 38 2 142 1 59 0 82-1 91-2s16-1 36 0c50 2 62 2 64 2 5-2 3-5-4-10-26-18-34-23-60-35-24-12-26-13-42-32-12-15-13-17-8-31 11-28 23-53 43-92 12-22 14-25 23-28 9-4 18-10 26-18 13-14 20-28 24-45 4-16 2-26-5-31-1-1-4-3-6-5s-3-4-3-7 0-6 1-8 3-13 5-25c1-12 4-25 4-30 6-31 7-59 4-70-3-8-18-38-24-47-5-8-14-17-24-24-7-4-21-10-27-12-2-1-17-2-34-3-24-1-43-1-83-1-48 1-52 1-59 3-17 5-29 17-39 43-17 41-22 59-26 106-2 23-3 26-13 29-12 4-17 11-19 26-2 14 2 37 9 52 4 7 6 10 15 19 7 7 11 12 12 14 3 12-2 60-8 80-3 10-10 23-15 29-5 5-8 5-26 3-20-2-30-2-34 0-3 2-10 9-26 26-17 19-32 31-49 37-5 2-16 8-26 14s-24 14-32 18c-40 21-64 35-76 46-11 8-9 10 13 11 25 1 47 1 58 0z"/></svg>