<svg xmlns="http://www.w3.org/2000/svg" width="1344" height="566"><path d="M0 283V0h1344v566H0V283m515 277c48-4 190-5 219-3 20 2 93 2 150 0 42-1 68-1 100-1h21c15 0 104 1 125 2 28 1 28 1 27-9-1-8-3-14-9-27-11-22-27-42-45-57-9-7-27-17-47-25-11-4-23-9-26-10-6-1-18-6-26-9-9-4-21-8-23-8-4 0-28-10-32-14-3-1-6-5-7-6-1-4-1-5 1-14 1-6 3-17 5-25 2-9 4-18 4-22 1-4 2-8 3-10 0-2 2-8 3-13 4-12 8-16 17-19 15-6 27-19 37-40 8-15 9-22 9-36 0-9 0-11-2-15-2-5-4-6-9-9-10-5-12-10-9-25 6-31 9-85 6-109-4-24-7-34-16-43-5-5-10-7-22-8-10-1-225-2-235-1s-22 4-25 6c-7 3-17 22-23 45-7 23-7 26-9 61-2 27-4 50-8 63-3 9-3 23-1 32 2 8 8 28 12 37 2 3 5 11 8 18 2 6 5 15 7 20 3 4 6 13 7 18 2 6 5 15 6 21 9 26 9 30 5 32-1 1-9 3-18 4s-19 3-24 4c-4 1-9 2-10 2s-5 1-8 3c-7 3-8 4-31 39-20 29-27 37-47 49-6 3-17 10-23 15-18 14-27 20-39 26-22 12-41 23-46 28-3 2-8 6-12 9-14 12-20 20-15 23 6 2 44 3 75 1z"/></svg>