<svg xmlns="http://www.w3.org/2000/svg" width="1344" height="566"><path d="M0 283V0h1344v566H0V283m230 278c9-1 15-1 16 0 2 1 24 1 274 1 139-1 194-1 196-2 3-2 5-6 3-14-1-9-1-18 0-25 1-4 1-6-1-11-2-7-6-11-13-13-7-3-19-9-27-15-3-3-8-6-11-8-6-3-22-17-25-21-3-6-1-11 5-15 2-1 4-7 4-14 0-3 1-8 2-11 2-6 2-6 1-11-1-2-2-7-3-10-1-11-6-39-7-43-1-2-3-8-5-14-1-7-4-15-9-24-5-12-6-15-10-33-2-10-5-23-6-28l-4-16c-1-5-3-13-4-18-3-18-9-33-17-45-5-8-22-25-30-31-11-9-26-16-42-20-3 0-7-2-9-2-9-2-23-3-30-2-10 2-28 8-43 16-22 11-26 14-35 32-11 24-16 46-16 78 0 19-1 35-3 36-2 2-5 0-11-8-4-4-10-11-14-16-4-4-8-8-9-10-1-3-1-7 1-16 1-4 3-14 4-23 2-14 2-17 1-36-1-11-2-23-2-27-1-4-3-10-3-14-5-22-21-35-50-41-19-4-35-2-51 6-13 6-21 15-25 29-1 6-1 10-1 29 0 20 0 24 2 28 1 2 4 9 6 15l4 10v14c1 15 0 15-8 18-4 2-6 4-11 12-4 4-15 16-23 24-9 9-19 19-22 23-4 4-12 11-18 17-13 10-24 23-27 30-3 8-6 24-7 40-1 9-2 28-3 44-3 38-3 49 2 64 2 6 4 12 5 14 0 3 1 8 2 12 2 5 3 11 3 14 1 8 5 14 11 21 6 5 8 6 14 8 12 4 46 5 79 2m965-1c2 0 5-2 6-3 1-2 5-5 9-7 5-3 7-5 9-10 3-7 3-14-3-26-7-15-11-38-14-69-1-15-8-73-9-78-1-1-2-7-2-14-2-15-7-39-11-50-5-17-11-28-23-40-11-12-24-20-69-41-9-5-14-8-19-12-8-8-10-13-8-20 2-9 7-18 13-25 10-10 15-17 17-23 1-5 1-5-1-10-3-6-3-11-1-31 1-16 0-29-3-35-5-9-19-22-34-29-9-5-21-8-29-8-14 0-37 11-44 21-6 9-11 21-16 41-2 6-4 14-6 17-6 11-6 22 0 40 4 14 6 23 6 31 0 10-2 13-12 21-9 7-17 11-31 17-11 4-22 9-40 17-42 19-60 42-77 96-2 7-6 19-8 26-5 15-11 38-15 54-3 13-3 6-2 74 1 27 1 31 3 39 1 5 3 13 4 19 3 11 4 14 7 16s27 3 58 2c25-1 61-2 114-1h109c67 0 76 0 90 3 6 1 28 0 32-2z"/></svg>