<svg xmlns="http://www.w3.org/2000/svg" width="1344" height="566"><path d="M0 283V0h1344v566H0V283m566 278c14-1 32-2 86-1h238c11 1 54-1 66-3 7-1 10-3 17-8 7-4 14-4 24 0 6 3 7 3 14 3s24-3 36-7c4-1 13-5 19-9 38-19 44-22 67-23 9-1 18-1 20-2 5 0 9-4 9-11 3-21 2-53-2-69-6-24-12-36-23-49-3-3-8-8-10-11s-9-10-13-15c-29-31-50-58-50-66 0-4 4-9 9-12 7-4 8-7 8-14s-5-19-14-33c-4-6-7-12-9-18-3-11-6-15-16-25-3-4-8-11-11-16-7-11-10-14-18-19-7-4-15-10-17-14 0-2-4-6-7-10-3-3-6-6-6-7 0 0-4-4-10-9-5-5-14-13-19-18-11-11-19-16-48-36-29-19-48-29-72-36-19-7-32-8-46-3-17 6-31 11-38 13-14 3-26 10-38 23-6 7-25 44-30 56-2 6-4 11-9 23-4 9-7 20-7 24 0 1-1 4-2 7s-2 9-3 12c-1 4-2 10-2 12-1 3-1 14-2 24 0 11-1 22-2 25-3 17-3 18-1 21 0 2 3 4 4 5 3 2 6 4 13 8l4 3 7-2c9-3 13-2 19 2 3 2 7 6 9 10 4 5 5 7 5 11 0 9-9 18-24 22l-8 4c-2 2-8 5-14 7s-13 5-16 7c-3 1-6 2-7 2 0 0-8 3-17 8-8 4-17 8-19 8l-10 5c-7 3-23 7-27 7s-7 3-8 7c-2 4-19 28-27 37-7 7-12 18-13 23-3 14-16 43-28 63-3 4-7 12-11 17-3 6-9 14-13 18s-10 11-13 15c-6 8-6 12-3 14 5 3 86 3 109 0z"/></svg>