<svg xmlns="http://www.w3.org/2000/svg" width="1344" height="566"><path d="M0 283V0h1344v566H0V283m1066 279c14 0 16-1 18-3 3-3 3-9 0-19-2-4-5-16-7-27-3-11-5-21-6-23-1-4-6-28-7-36-1-11-9-40-14-51-1-3-6-21-9-36-1-2-2-7-3-10-1-2-3-8-4-13-6-23-12-32-23-37-2-1-12-4-22-6-24-5-27-6-37-11-22-10-27-13-32-17-15-12-16-13-16-24 0-6 1-9 5-13 1-2 2-4 2-5 0-4 4-11 8-15 10-9 10-38 1-84-3-17-9-30-18-39-11-10-25-18-38-23-14-5-64-2-79 5-9 4-18 11-24 18-7 7-16 25-18 34s-1 30 3 41c10 36 10 42-4 51-4 2-11 8-16 13-10 10-14 17-16 27-1 3-3 9-5 13-3 7-3 9-4 20-1 14-3 26-4 31-1 4-7 14-14 22-3 4-3 6-6 19-1 4-3 8-6 13-7 9-7 11-11 24-4 15-8 26-13 32-2 2-5 7-7 11-5 8-13 26-14 31 0 2-2 9-4 15-7 17-9 41-5 56 2 12 7 14 27 15 25 2 61 1 69-1 7-1 9-1 16 0 7 2 27 2 124 2h117c1 1 76 1 96 0z"/></svg>