<svg xmlns="http://www.w3.org/2000/svg" width="1344" height="566"><path d="M0 283V0h1344v566H0V283m881 275c9-3 10-5 8-13-1-7-9-22-15-31-6-8-15-24-21-37-3-5-8-15-12-23-4-7-11-20-15-28s-9-18-12-23c-6-10-13-24-17-35-5-13-5-21-2-42 4-21 8-35 13-45 2-5 4-9 4-10 0 0-2-2-4-3-4-3-8-8-10-12 0-2-2-11-2-21-2-22-4-29-6-40-4-13-6-15-12-17-5-1-8-5-9-10-4-16-7-21-16-25-7-3-16-1-29 5-15 8-19 11-23 17-2 2-7 8-11 12-9 9-10 12-10 25 1 6 2 9 4 15 3 6 3 7 2 11-1 1-2 4-4 5-1 1-7 6-14 11-12 9-15 13-15 19 0 4 3 14 8 27 3 7 6 17 8 24 4 12 5 16 11 23 5 8 10 13 16 17 7 5 15 12 15 14 0 3-7 2-25-7-14-6-29-12-43-15s-18-4-28-11c-9-6-26-22-28-27-3-6-2-15 4-28 2-6 6-16 8-24 1-7 4-16 5-20 3-7 3-9 4-26 0-19-1-62-3-85-3-43-20-72-48-87-20-10-41-15-65-14s-42 6-56 16c-25 18-30 22-39 40-7 16-8 20-9 47-1 23-1 24-3 30-4 8-5 20-3 29 1 3 4 13 7 21l6 15-3 6c-4 7-4 13-1 24 1 4 2 9 3 10 0 1 3 8 6 14 4 10 5 13 6 19 0 6 0 7-4 13-2 3-4 6-5 6 0 0-3 3-5 6-3 3-6 6-8 7s-5 3-8 5c-4 4-27 16-30 16 0 0-5 2-10 5s-12 6-17 8-14 7-20 10c-6 4-16 9-22 12-20 10-24 16-29 40-2 8-4 18-5 21-5 17-8 34-9 48s-1 15-6 31c-10 30-11 33-5 35 5 2 22 3 41 2 19-2 95-2 189-1 28 1 62 1 76 0h58c61 1 182 1 186 0 3-1 8-1 22 0 38 2 46 3 62 2 14 0 17-1 24-3z"/></svg>