<svg xmlns="http://www.w3.org/2000/svg" width="1344" height="566"><path d="M0 283V0h1344v566H0V283m605 64c3-1 7-2 9-4 8-6 12-8 21-8 11 0 12-2 8-12-2-7-9-38-10-52-1-11-5-18-12-25-3-4-7-8-8-10-5-6-19-12-44-17-11-3-15-6-20-18-5-9-9-20-9-22 0-1-1-6-2-10-1-5-2-11-2-15-1-3-2-9-4-13l-2-6 2-13c3-18 2-29-1-35-3-5-9-11-13-14-5-2-17-3-24-1-11 3-17 15-19 31-1 14-6 19-27 24-11 4-21 12-25 21-3 6-3 7-3 24v50l-3 6c-2 4-6 11-8 15-4 8-8 19-8 23 0 1 1 5 3 9 3 6 3 8 2 10-1 4 0 7 5 11 4 4 6 9 6 16 0 4 0 8-1 10 0 5 2 8 6 8s11 3 15 7c4 5 8 6 19 7 13 0 21-1 26-5 4-3 6-4 11-2 2 1 3 1 6-1 5-3 11-10 11-12s2-3 4-2c1 2 1 5-1 9 0 2-1 4-1 5 0 2 1 3 6 3 8 0 20 2 26 5 11 5 14 5 36 5 11-1 23-1 25-2z"/></svg>