<svg xmlns="http://www.w3.org/2000/svg" width="1344" height="566"><path d="M0 283V0h1344v566H0V283m342 279c27-1 120-2 252-2 21 0 41 0 46 1 6 1 27 1 49 1 48 0 46 1 47-14 1-5 1-11 2-14v-6l-5-6c-4-4-7-10-9-13-3-6-3-6-6-5-5 1-14 1-17 0-2-1-5-3-7-4-2-2-8-5-13-7s-13-6-17-9c-19-10-28-15-39-21-23-11-26-13-31-17-4-3-4-4-4-8 0-6 6-31 9-35 3-6 6-7 18-8 13-1 34-5 39-8 9-5 13-8 16-14 2-5 2-6 2-23 0-20 1-38 6-67 2-20 3-37 1-51-1-4-3-13-3-18-1-6-2-11-3-11 0 0-1-5-2-11-1-7-1-19-2-48-1-40-1-44-6-58-3-7-4-9-10-15-9-9-16-14-35-22-53-25-70-31-97-33-22-2-38 1-57 9-6 3-13 7-16 9-6 4-15 8-33 14-14 4-18 7-23 12-8 8-15 26-31 74-3 8-7 40-10 68-1 6-2 17-3 26-1 8-3 21-3 30-1 9-3 21-3 27-3 16-5 40-6 63-1 10-2 22-3 27-2 14-7 56-8 69-2 21-2 21-23 41-10 10-20 19-22 21-3 2-8 6-12 9s-10 7-12 9c-11 8-18 16-20 25-2 8 1 11 12 13 8 1 55 1 92 0z"/></svg>