<svg xmlns="http://www.w3.org/2000/svg" width="1344" height="566"><path d="M0 283V0h1344v566H0V283m672 275c38-1 401 0 431 1 28 1 67 0 71-2 3-2 3-6 1-13-2-8-23-51-29-60-10-18-25-33-46-49-3-2-12-7-20-11-14-8-19-10-34-16-16-6-37-16-48-22-13-7-19-10-33-14-15-6-20-9-35-21-8-6-10-10-10-14 1-2 7-14 15-27 20-37 26-50 32-78 7-29 16-81 16-92 0-23-9-50-23-71-2-4-9-12-14-17-8-8-11-11-20-15-5-3-13-7-16-10-10-6-16-9-22-10-7-1-10-1-15 1-3 1-4 1-14 0-6-2-16-2-21-2-10 0-11 0-16 2-4 2-9 4-13 5-6 3-18 11-33 22-8 6-11 8-16 16-3 5-6 11-7 13-3 7-5 24-7 46-3 31-4 38-5 42-1 5-4 9-7 11-5 3-11 9-13 13-5 10-3 31 4 45 2 3 7 10 11 15 11 13 11 14 12 31 0 13-2 38-4 47-1 5-5 9-16 18-29 23-45 33-59 36-6 2-45 17-53 21-2 1-11 5-20 9-50 20-71 34-93 62-23 28-36 55-38 78 0 6 0 7 2 9s2 2 56 1c29 0 61 0 71 1 16 1 34 1 78-1z"/></svg>