<svg xmlns="http://www.w3.org/2000/svg" width="1344" height="566"><path d="M0 283V0h1344v566H0V283m892 277c6-4 9-8 12-12 2-6 4-24 4-37v-11l-4-10c-5-10-11-19-19-30-6-7-10-14-25-44-7-13-14-26-16-30-4-6-11-21-23-48-9-22-10-25-11-35 0-10 0-11 7-29 2-5 4-11 3-11 0-1-3-3-7-5-11-6-11-7-13-37l-1-25-5-14c-5-16-17-38-23-45-3-2-7-5-10-7-7-3-9-5-12-13-3-6-4-7-10-10-18-9-32-3-67 27-12 10-14 11-23 9-5-1-14-1-21-2-12-1-17-2-19-6 0-1-2-9-2-19-5-44-17-71-42-87-10-6-27-12-41-15-15-3-39-2-52 1-13 4-36 14-50 24-11 8-23 25-29 43-2 9-2 10-2 38 0 27-1 29-3 36s-2 8-1 15c2 16 17 41 32 54 7 6 8 8 11 25 2 17 1 22-6 30-14 14-22 21-31 30-6 4-13 11-17 15-6 5-10 8-18 11-5 2-12 6-14 7-3 2-8 3-10 4-6 1-19 7-33 15-4 2-11 5-15 7-17 7-22 14-24 37-1 6-2 16-4 22-4 17-6 27-7 44-2 22-4 35-8 46-3 9-3 15-2 21 3 11 12 18 25 21 9 1 43 2 46 0 2-1 22-2 70-2 2 0 16 0 30 1 15 0 40 1 58 1h76c22-1 48-1 61 0h67c73-2 121-2 140 1 14 1 23 2 46 2l28-1 4-2z"/></svg>