<svg xmlns="http://www.w3.org/2000/svg" width="1344" height="566"><path d="M0 283V0h1344v566H0V283m892 277c9-6 13-11 16-21 0-3 2-10 4-17 4-17 2-26-9-48-7-12-12-24-17-38-2-4-5-13-7-20-3-7-6-17-8-23s-6-19-10-28c-8-21-15-43-19-59-2-11-2-13-2-39 0-25 1-40 3-61 3-25 3-31 2-56-4-43-4-45-13-51-6-3-8-7-13-18-5-10-6-11-15-11-13 0-28 6-33 12-4 5-6 13-6 24 1 19 1 19-3 26s-4 8-5 17c-1 10-3 15-5 15-1 0-4-1-7-2-7-4-10-5-20-2-13 3-15 6-15 19 0 17 5 50 10 63 4 10 10 21 20 33 12 14 22 34 27 54 10 35 12 54 8 57-1 1-2 1-5-3-1-2-3-4-3-4 0-1-10-9-16-13-13-9-20-13-24-14-7-1-23-6-45-14-16-5-18-5-31-6-12-1-14-1-20-4-4-1-11-5-15-9-9-6-22-19-23-23-2-4 0-13 5-23 2-5 7-18 11-28 5-16 7-21 9-35 3-21 3-28 0-47-2-9-3-23-4-36-2-35-7-56-20-75-16-25-46-38-86-38-20 0-30 2-55 12-10 4-22 13-32 22-6 6-9 9-12 16-11 20-12 28-12 59l1 23-3 7c-5 13-2 26 9 46 7 11 10 15 21 26 5 6 8 10 9 13 3 13 5 22 6 29 0 7 0 8-3 13-2 2-8 10-14 17-6 6-12 14-14 16-4 4-14 12-20 15-1 1-5 4-9 7-4 4-9 7-20 13-8 4-16 7-18 8-4 1-11 5-21 11-3 2-11 7-20 11-16 9-18 11-22 19-6 12-7 25-4 45 1 7 2 22 2 33 1 11 1 23 2 26 0 3-1 10-2 17s-2 17-2 23c0 10 0 11 2 13 4 6 9 6 46 7 22 0 39 0 47-1 7-1 31-1 64-1h67c8 0 17 0 20 1s14 1 33 0c17-1 37-1 54 0h78c76-2 113-2 134 1 12 1 21 2 41 2l25-1 6-2z"/></svg>