<svg xmlns="http://www.w3.org/2000/svg" width="1344" height="566"><path d="M0 283V0h1344v566H0V283m760 277c3-1 33-1 84-2 43 0 85 0 94-1 22-1 20-1 48-1 34 1 79 0 102 0 18 0 65 1 82 3 6 0 7 0 9-2s2-2 1-7c-2-7-14-31-21-42-8-12-16-21-33-35-21-18-41-26-96-41-5-2-12-4-14-4-3-1-10-3-16-5-6-1-15-4-20-6-4-1-9-3-10-3-4-1-23-9-30-13-14-6-16-14-13-37 1-6 3-17 4-26 2-19 6-34 9-38 2-2 6-5 17-10 10-4 21-18 30-37 6-12 8-22 8-35 0-14-1-18-10-27-9-10-9-11-5-40 1-11 1-21 1-48V68l-3-15c-2-13-4-17-8-25-6-12-11-17-18-19-14-4-30-5-134-5-58 0-106 0-114 1-17 1-28 3-30 4-6 3-20 38-24 60-4 15-5 33-6 67-1 32-1 35-4 46-4 20-3 31 3 60 3 11 7 23 16 39 5 11 9 21 13 32 1 3 3 9 5 14 7 19 12 34 12 36-1 3-6 7-14 9-7 2-12 4-28 10-10 4-13 7-25 23-40 57-45 62-80 86-20 13-40 27-54 38-5 4-15 11-20 16-12 8-14 10-12 13 2 1 7 2 43 2 23 0 48 0 55-1 10-1 26-1 50 0 96 3 145 3 156 1z"/></svg>