<svg xmlns="http://www.w3.org/2000/svg" width="1344" height="566"><path d="M0 283V0h1344v566H0V283m385 277c20-1 73-1 163-1 73 1 165 1 203 1 67 1 82 0 88-2 5-2 6-6 6-22 0-23-3-30-17-45-13-13-28-24-60-45-13-9-26-19-30-23-4-3-14-18-18-26s-4-13 2-21c13-18 17-25 27-38 6-8 14-17 17-21 17-19 19-22 25-44 1-5 4-14 6-20 14-30 17-51 17-87 0-25-1-39-7-54-7-21-14-32-34-52-22-21-28-24-51-27-8-1-22-4-31-6-27-7-51-7-68 0-36 13-67 42-78 74-3 10-6 23-9 39-3 25-5 31-12 39s-11 16-12 28c-2 16 0 29 7 40 3 5 9 12 20 21 7 6 9 12 9 31 0 20 0 20-13 25-11 4-17 9-35 26-22 21-29 25-50 31-6 2-19 7-29 11s-23 9-29 11c-44 15-57 21-68 32-9 9-12 14-27 54-3 8-14 51-15 58-1 10 2 13 13 14 9 1 52 0 90-1z"/></svg>