<svg xmlns="http://www.w3.org/2000/svg" width="1344" height="566"><path d="M0 283V0h1344v566H0V283m600 278h136c64-1 66-1 192-1 140 1 135 1 139-1 3-1 4-2 4-6s-1-8-4-15c-6-17-6-17-3-28 2-8 2-11 1-12-1-4-9-8-48-28-19-9-37-19-40-20-3-2-10-6-16-9-17-9-20-14-19-25 3-26 4-34 6-48 4-34 4-46 4-86-1-67-6-109-16-146-5-17-7-21-13-36-9-20-16-32-30-46-16-16-31-25-62-37-10-4-14-5-23-6-15-2-26 0-38 5-7 3-11 3-22 5-20 1-31 7-45 20-4 4-9 9-12 13-5 6-17 28-21 39-6 14-12 39-14 57-1 5-2 12-2 16-3 13-4 66-2 96l1 26-5 11c-7 13-11 18-22 23-9 5-15 10-16 15-1 4-1 10 1 47 0 16-1 21-4 23-2 1-7 2-13 2-10 1-17 3-32 9-3 1-12 4-21 8-9 3-19 7-23 8-4 2-10 5-14 6-16 5-25 9-26 11-2 3-2 7 0 12 1 3 1 4 0 10-1 8-7 25-14 41-7 17-12 32-12 38-1 8 1 9 22 10 10 0 24 1 32 0 7 0 50 0 94-1z"/></svg>