<svg xmlns="http://www.w3.org/2000/svg" width="1344" height="566"><path d="M0 283V0h1344v566H0V283m629 276c96-2 260-1 375 2h53c30-1 30-1 29-8-1-6-8-20-14-27-3-3-9-11-14-17-12-14-20-22-43-40-9-8-21-18-26-22-16-16-42-37-61-50-4-3-10-7-12-9-10-8-12-8-32-9l-18-1-7-4c-10-6-13-8-18-18-9-19-11-37-6-55 4-13 7-20 11-25 5-6 14-21 19-32 7-14 10-34 7-45-2-6-2-11-1-24 3-18 3-32 2-44-4-27-16-46-38-61-23-17-41-24-68-26-14-1-41 0-52 2-34 8-68 38-76 69 0 4-2 15-2 25-1 9-2 21-2 26-1 5-2 15-3 22s-2 20-3 28c-3 25-3 27-2 38 3 31 12 63 23 86 5 10 10 15 18 21 9 7 11 9 11 15 0 4 0 5-5 9-3 2-10 7-17 11-34 18-40 22-61 38-20 14-36 28-46 39-16 16-36 44-42 59-7 15-9 22-5 26 4 3-8 3 126 1z"/></svg>