<svg xmlns="http://www.w3.org/2000/svg" width="1344" height="566"><path d="M0 283V0h1344v566H0V283m344 277c37 0 67-1 68-1 1-1 5 0 8 0 6 1 8 1 11 0s6-1 13 0c8 1 30 2 117 2h165c65 1 113 0 117-3 2-1 2-1 2-22-1-12-1-23-2-26-2-8-12-14-41-28-25-12-81-40-86-44-8-6-7-4-1-27 2-5 4-15 6-22s5-17 7-21c4-10 9-25 11-38 1-6 3-15 4-20 1-6 2-12 2-14 1-5-2-45-4-56 0-5-1-13-2-18s-2-14-2-20c-1-5-2-14-3-18-2-18-10-50-16-68-5-15-18-38-25-48-8-10-24-25-37-34-12-8-38-20-52-24-9-2-12-2-24-2-11 0-14 0-28 3-8 2-18 6-22 8s-10 4-15 4c-24 5-41 16-57 41-18 27-33 71-41 124-10 64-14 107-11 134 1 14 8 51 14 75 3 11 5 21 5 24 0 8-6 11-34 16-17 3-20 5-53 25-12 8-30 18-40 23-15 8-29 16-35 21-3 3-5 6-7 16-1 4-4 11-5 15-7 15-7 18-2 22 2 2 16 3 25 2 2 0 34 0 70-1z"/></svg>