<svg xmlns="http://www.w3.org/2000/svg" width="1344" height="566"><path d="M0 283V0h1344v566H0V283m828 277h104c67 0 143-1 154-2 10-1 12-1 13-3 3-3 2-8-1-17-2-3-3-9-4-14-2-11-3-13-9-19s-42-31-57-39c-9-5-17-11-31-20-7-5-13-11-13-14s3-7 14-17c7-6 13-12 15-15 2-2 5-10 7-16s4-16 6-21c3-10 5-20 6-29 1-7-2-22-5-29-4-8-5-25-1-29 2-1 2-1 6 0 6 2 15 7 28 16 31 20 39 23 65 24 16 0 17 0 19-2 3-3 2-8-4-25-4-11-4-17 0-32 3-14 4-20 1-25-3-3-21-12-36-17-11-3-40-18-53-26-15-9-32-23-40-32-5-4-12-10-16-13-13-10-27-23-38-37-21-25-51-52-76-68-22-15-47-23-70-23-18 0-28 3-46 11-12 6-18 8-28 11-20 5-30 11-46 29-15 17-19 26-28 61-4 12-8 27-11 32-7 21-8 26-9 47-1 18-1 19-3 23-3 4-10 9-18 14-4 3-8 9-8 14 0 4 3 7 9 8 7 1 13 8 20 21 6 13 11 18 25 26 7 5 8 6 17 6 6 1 11 2 17 4 16 6 23 16 24 36 0 7 0 9-2 13-1 2-3 5-4 6-2 0-4 3-6 6-3 4-4 5-11 8-4 2-8 3-9 3l-6 2c-2 1-13 4-24 7-11 2-26 7-35 10-24 10-65 24-74 26-5 1-15 3-21 4-13 2-15 3-19 10-3 5-8 12-23 30-27 32-30 38-32 61 0 14 0 14 17 15h350z"/></svg>