<svg xmlns="http://www.w3.org/2000/svg" width="1344" height="566"><path d="M0 283V0h1344v566H0V283m886 275c8-3 10-16 10-42 0-10 0-24 1-30 1-9 1-13 0-25-3-18-6-39-7-47-1-4-2-11-2-14-1-11-4-23-7-34-2-6-4-14-5-18 0-5-2-10-3-13-2-5-6-18-7-26-3-25-13-51-29-71-9-10-18-18-26-19-5-2-15-9-18-14-3-4-3-5-3-13 1-5 2-16 4-24 7-33 5-49-9-66-7-10-15-15-28-19-6-2-10-2-20-2-12 0-13 0-19 3-4 2-10 4-12 5-8 2-13 5-25 18-9 9-13 13-15 18-4 8-6 22-6 30 2 12 2 14 5 17 2 2 3 3 4 12 1 5 1 13 1 17 0 7 0 9-8 17-5 6-8 12-11 23-3 8-12 28-16 33-1 1-5 9-9 17-5 8-10 18-13 21s-7 8-9 10c-8 11-17 19-53 45-12 9-25 14-37 16-9 1-21 1-51-1-17-1-23-1-29 3-3 1-4 3-4 11v12c-1 5-2 7-5 11-6 6-7 9-3 17 6 11 14 14 24 9 6-3 14-7 19-8s22-3 32-3c8-1 20-4 29-8 1-1 7-3 12-3 5-1 12-3 17-4 5-2 13-3 19-4 21-2 23-2 28-6 3-2 7-4 9-6 8-5 17-13 25-23 5-6 11-12 13-13 3-1 3-1 5 1s2 3 3 21c2 34 2 34-8 39-5 3-7 3-13 3-10 0-15-1-21-6-3-3-8-6-11-7-5-3-5-3-7-2-5 3-10 9-10 11 0 1 2 4 4 7 4 6 6 10 6 17 0 3 1 7 2 9 2 5 2 9 0 15-1 2-1 4 0 8s1 8 1 10c-1 4-1 5 1 7 1 1 3 2 4 2 3 0 16-7 20-10 8-8 15-9 20-4 4 3 4 5 2 14-1 2-1 7 0 13v9l8 8c4 5 9 10 11 13l6 6c6 4 38 7 60 6 30 0 76 0 88 1 20 1 62 1 66 0z"/></svg>