<svg xmlns="http://www.w3.org/2000/svg" width="1344" height="566"><path d="M0 283V0h1344v566H0V283m562 276c7-1 14-1 18-1h132c12-1 12 0 11-26 0-14 0-31 1-45 2-22 2-23 5-25l2-2 17 1h25c12 0 42-3 46-4 2 0 6-1 9-2 11-1 31-4 37-6 4 0 12-2 19-4 8-1 15-3 17-4s6-2 9-3c11-4 27-11 34-16 15-9 28-26 28-35 0-4-7-19-11-26-2-2-4-6-6-8-17-24-32-39-52-50-12-6-18-11-33-25-10-11-11-12-17-14-4-1-9-2-12-2-7 0-17-4-27-10-4-3-10-7-14-9-5-3-6-4-16-4s-12 0-19-3c-4-1-12-5-16-8-5-3-14-8-20-11-9-4-11-6-13-8-1-2-2-10-3-26-2-28-2-28-6-41-5-19-16-38-25-47-19-17-35-24-77-31-16-3-22-4-35-2-12 2-21 6-39 16-21 11-29 18-36 29-1 3-21 37-26 47-1 2-5 10-8 18s-5 15-6 17c-1 3-34 24-42 28-9 3-14 6-27 15-21 15-29 19-49 26-22 8-29 13-40 29-12 17-14 25-14 46 0 10 1 18 2 27 2 13 2 12 14 32 8 11 13 24 13 35 1 13 6 21 11 17 1-2 11 0 13 1 2 3 5 20 6 35 1 18 1 36-2 56-2 17-2 19 2 22 2 2 3 2 7 2 8-1 100-1 142 0s55 1 71-1z"/></svg>