<svg xmlns="http://www.w3.org/2000/svg" width="1344" height="566"><path d="M0 283V0h1344v566H0V283m392 276h50c16 1 70 1 118 1h538c81 0 97 0 115-1 22-2 30-3 33-4 4-2 5-17 1-25-2-5-8-11-23-22-5-4-11-8-13-11-6-7-19-42-24-63-1-4-3-10-5-14-5-9-10-11-32-15-5-1-9-2-11-3-2-2-6-9-6-11 0-1-1-4-3-8-2-3-6-13-10-21-4-9-9-19-10-22-2-3-4-9-5-12 0-4-4-16-8-28-14-40-18-56-26-90-6-25-14-44-21-50-4-4-9-5-13-3-3 2-6 7-6 10 0 2-2 4-4 4-3 0-7-6-16-23-10-21-14-26-23-26-3 0-5 1-10 5-3 3-6 5-6 5-1 0-4-3-7-6-8-8-12-10-18-7-5 2-7 6-8 18 0 12-1 12-8 9-6-3-10-3-14 1-3 4-3 4-3 13 0 10 2 27 5 40 1 5 3 12 4 16 0 4 2 11 4 16 5 17 8 29 10 40 1 9 2 13 4 19 7 13 40 60 64 90 16 20 25 33 34 50 6 11 9 17 22 47 10 23 3 25-24 7-5-3-16-10-26-15-11-7-20-13-24-16-5-6-7-8-16-27-10-19-11-21-18-28-14-14-37-31-49-37-11-5-15-5-46-5-16 1-32 2-36 2-11 2-35 2-38 0-6-3-7-17-2-36 4-19 5-21 10-28 7-8 8-12 13-43 1-8 0-18-5-37-6-22-8-26-14-41-3-6-7-16-9-21-9-22-14-32-23-49-14-26-22-38-30-48-17-22-45-43-63-48-6-1-11-1-55-1-49 0-63 1-83 4-14 2-19 4-35 15-14 9-28 23-36 34-7 12-22 40-25 51s-5 21-5 33c0 9 1 13 5 18 6 7 6 11 6 28 0 9-1 20-1 26-3 14-2 20 1 28 8 22 8 25 8 34-2 17 2 34 10 49 6 9 21 26 32 33 7 4 8 5 9 10 2 4 2 5 1 14-1 12-2 13-11 28-7 9-10 12-16 18-10 7-14 9-29 15-10 4-10 4-12 2s-4-17-4-33c0-11-1-21-4-29-3-10-11-26-14-30s-8-6-11-6c-4 1-10 7-12 12s-2 6-2 36c0 24 0 31-1 34-7 14-18-20-25-71 0-6-2-17-2-24-1-6-2-16-3-22-2-20-4-33-6-37-5-9-14-11-17-3-4 6-8 36-10 70 0 6-1 11-1 12-2 1-4-3-6-9-1-4-4-12-6-19-2-8-5-15-5-18-7-26-13-42-19-46-6-6-15-6-18-1-2 4-2 18 0 30 1 6 3 22 5 35 2 14 4 27 4 30 1 5 1 14 0 15-3 1-8-9-21-44-7-19-9-22-14-26-6-4-12-4-16 0-6 5-5 13 9 69 2 5 3 11 4 13 3 8 6 19 5 20-2 2-4 0-15-14-12-14-18-20-25-22-5-2-9-2-12 1-2 2-3 9 0 17 2 10 16 34 31 55 4 6 10 14 12 18 2 3 9 14 17 24 7 10 21 30 30 44 10 14 19 26 21 28 3 3 4 3 9 3 4 0 13 1 22 1 15 1 25 1 67-1z"/></svg>