<svg xmlns="http://www.w3.org/2000/svg" width="1344" height="566"><path d="M0 283V0h1344v566H0V283m886 274c5-2 6-6 7-21 1-9 1-18 0-23-2-17-2-20-2-39-1-27-3-38-10-60-1-3-3-9-4-14s-3-11-4-15c-1-3-2-7-2-7 0-2-7-22-12-37-2-5-3-11-4-13 0-2-2-9-4-15-1-6-3-12-4-13-2-10-13-34-21-44-5-8-13-18-17-22-5-6-15-13-22-16-9-4-12-8-15-15-4-8-4-16-2-34 3-26 0-42-10-56-11-17-29-27-48-27-7 0-18 3-22 6-3 1-8 3-12 4-10 2-14 5-26 18-18 18-21 25-21 44 0 14 1 22 6 32 3 5 3 8 4 16v10l-4 8c-3 5-6 12-7 17-3 13-5 16-11 29-3 7-8 18-11 24s-7 14-11 19c-3 5-7 11-9 13-6 11-15 21-36 42s-32 31-49 40l-5 3-23-1c-20-1-24-1-28 0-2 1-10 3-17 5-21 5-23 6-25 10-2 6-1 17 5 29 3 7 7 10 13 12 2 1 10 2 18 3 12 1 15 1 22-1 4 0 10-2 12-3 8-3 45-11 54-11 6 0 10 3 17 14 11 14 13 17 26 23 15 7 20 9 29 10 4 0 9 1 13 3 3 1 7 2 8 2s4 1 8 3c6 3 10 7 10 11 0 1 7 8 15 17 13 13 15 15 20 17 10 4 24 4 79 4 28 1 51 1 52 1 0 1 18 1 39 1 31-1 39-1 41-3z"/></svg>