<svg xmlns="http://www.w3.org/2000/svg" width="1344" height="566"><path d="M0 283V0h1344v566H0V283m702 278c10 0 24 0 32-1 9 0 27-1 41-1 30 0 30 0 30-7 0-6-3-21-6-28-4-10-7-19-8-24 0-4 0-5 2-7 3-2 4-3 12-3 5 0 11 0 13-1 10-3 19-11 23-20 4-8 5-10 11-13 12-5 12-7-1-24-8-10-10-15-12-27-2-20-7-46-11-61-1-3-2-10-3-14-4-29-4-28-13-40-8-9-12-12-19-16-4-2-9-5-13-8-7-5-19-18-22-23s-2-6 6-13c4-5 5-6 6-12 1-4 1-13 1-22 0-13 0-19-3-32-5-29-8-37-17-50-6-10-15-17-22-18-3 0-14-1-23-2-20-1-23-1-33 5s-20 17-25 27c-3 9-5 21-5 32 3 34 3 36 12 48 5 7 8 14 9 22 1 4 1 5-1 9s-12 12-22 18c-5 4-31 14-33 14s-16 6-20 9-6 5-8 10c-5 10-10 24-12 31 0 3-1 6-1 7-1 1-2 5-3 8 0 2-1 5-1 6-1 1-2 5-2 8-1 4-3 11-4 16-2 4-4 12-4 16-1 5-2 8-3 9 0 1-3 16-5 29-1 6 0 27 2 35 1 2 2 6 2 8 1 5 3 6 16 18 7 6 12 9 21 10 3 0 6 1 7 2 1 2 1 2-1 9-1 4-4 13-6 20-6 17-9 29-9 33s2 6 9 7c6 1 90 3 96 2 1 0 10 0 20-1z"/></svg>