<svg xmlns="http://www.w3.org/2000/svg" width="1344" height="566"><path d="M0 283V0h1344v566H0V283m1311 280h26l3-2 2-3 1-250c0-278 1-255-7-258-4-2-29-2-33 0-5 2-10 7-12 12l-2 4-12 3c-6 2-12 4-13 5-4 1-12 5-15 7-2 3-5 8-6 12s1 55 2 70c3 23 13 55 21 61 1 1 4 3 6 4 1 1 4 3 6 5 2 1 5 2 7 2 4 0 8 3 9 7 1 5-4 12-17 25-16 16-24 28-26 41-1 2-2 6-3 8-1 3-2 8-3 10-5 14-9 26-10 27-4 5-8 35-9 77-1 34-2 41-7 50-7 11-26 29-36 32-3 1-7 1-25-6-17-7-25-8-29-6-5 3-4 7 5 16 7 8 6 9-8 23-7 6-12 12-12 13 0 3 5 7 9 8 2 1 19 1 39 2 28 1 37 1 42 0s10-1 20 0c7 1 13 1 13 2 0 0 11 0 25-1h49m-766-4c7-3 9-6 10-13 0-4 0-5-2-8-5-5-9-15-9-20 0-3-1-5-2-6-2-2-14-9-20-12-9-4-9-6-10-17 0-12 2-23 8-39 3-7 3-9 3-19 0-7-1-12-1-15-1-2-2-6-2-9 0-4-1-8-2-10-1-3-2-6-2-7 0-4-4-17-9-27s-15-20-29-29c-15-10-15-12-9-19 2-3 6-9 8-14 5-10 6-11 13-15 3-2 6-4 7-5 3-2 4-12 6-30 1-13 1-15 0-18-2-3-2-9-3-19-1-30-5-43-18-51-4-2-20-8-28-11-8-2-26-3-34-1-14 2-26 8-33 15-3 4-8 12-8 15 0 0-1 2-1 4-4 6-6 35-9 109-1 13-1 27-2 30-1 9-5 18-12 31-7 12-9 18-11 28-1 4-3 12-5 18-3 10-4 13-4 25-1 14-3 26-7 40-1 5-1 11-1 21 0 17 2 29 9 51 6 19 9 22 26 27 7 2 8 2 76 2h74c4 0 11 1 17 1 9-1 12-1 16-3m259 1c37-1 67-1 71 0 2 1 16 1 31 1 23 0 28 0 35-1 16-3 15-2 19-34 0-3 2-9 2-13 1-4 2-10 2-13 2-16 7-46 11-54 2-7 5-28 6-42 1-8 2-23 3-34 2-24 1-44-2-55-3-13-21-50-30-61-1-2-4-8-8-14-6-10-14-22-20-28-5-6-9-14-10-21-1-10-3-11-11-12-6-1-12-5-16-9-1-2-3-7-5-11-3-7-3-9-3-19s1-15 5-42c5-23 4-33-6-51-5-11-12-19-23-26-15-9-36-9-61 1-19 7-22 9-30 17-10 10-11 14-12 28 0 7-1 18-2 24-1 7-2 15-2 18s-1 12-2 19l-2 14 3 5c1 2 7 12 11 21 5 10 10 18 11 19s3 2 5 3c18 5 22 7 20 15 0 5-5 15-11 22-5 7-8 14-10 23-1 4-3 11-8 20-9 19-13 29-16 41 0 2-2 7-3 11-3 7-6 19-9 34-1 11-6 31-7 34-2 6-10 44-13 60-1 7-3 16-5 20-1 5-3 13-4 18s-3 11-4 15c-2 8-2 48 0 50 1 1 4 2 8 2 4 1 8 2 11 3 7 4 14 4 81 2z"/></svg>