<svg xmlns="http://www.w3.org/2000/svg" width="1344" height="566"><path d="M0 283V0h1344v566H0V283m714 278c113 0 148 0 156-1 19-3 24-7 27-27 1-11 1-12-1-27-3-20-6-34-9-41-5-10-25-27-44-39-4-2-9-5-11-7-3-2-10-6-17-10-17-12-26-19-30-23-2-2-6-9-9-14-3-6-7-13-8-15-2-3-4-8-5-11-2-7-1-12 8-32 3-8 8-19 10-24s6-15 9-22c6-16 8-21 9-37 1-6 2-16 3-21 6-28 5-68-3-94-4-12-9-24-16-32-11-17-41-40-59-46-6-2-9-2-36-3-16-1-33-1-37-1-18 2-38 10-51 22-18 16-29 32-36 52-5 11-5 20-5 52v30l-3 10c-4 9-4 12-4 21 0 11 2 18 6 27 5 12 13 19 26 26 4 2 8 5 9 6 3 3 5 17 5 22-1 6-10 16-26 30-14 13-22 20-29 23-6 3-34 13-49 17-28 8-56 17-66 22-13 6-19 15-35 54-8 20-26 63-31 77-2 4-4 11-6 14-2 4-3 10-4 13-1 8-3 8 61 8 31 0 64 1 75 1s50 1 86 0h140z"/></svg>