<svg xmlns="http://www.w3.org/2000/svg" width="1344" height="566"><path d="M0 283V0h1344v566H0V283m979 276c4-4 4-10 3-40v-36c0-12 3-40 4-47 1-4 2-11 3-16 1-6 1-11 1-11 1 0 2-8 4-18l2-17v-58c0-58 0-59-2-70-5-25-8-30-23-46-8-8-12-13-12-14 0-2 4-6 12-14 16-15 23-24 28-37 6-16 9-31 9-41-1-15-10-28-24-36-8-4-15-6-27-6-13 0-19 1-29 6-13 6-19 15-28 39-6 16-9 23-15 29-7 7-9 8-18 8-7 1-10 2-19 5-5 3-10 5-11 5-3 0-47 15-53 18-17 8-29 19-35 31-4 7-8 19-9 28-1 6-9 38-18 74-3 10-7 25-9 33-2 9-6 21-8 27-7 15-7 14 3 30 8 12 9 17 9 43 0 10-1 28-1 38-1 10-2 23-2 29 0 14 2 18 16 30 11 10 14 14 15 24 1 12-1 11 38 10 59-1 162 0 167 1 2 0 10 1 16 1 10 0 12 0 13-2z"/></svg>