<svg xmlns="http://www.w3.org/2000/svg" width="1344" height="566"><path d="M0 283V0h1344v566H0V283m604 277c13-1 26-1 28-1h91l89 1 3-3 3-2v-19c-1-18-1-21-5-34-4-17-9-35-14-47-1-5-3-11-4-13 0-1-2-7-5-12l-4-10 2-9c2-8 2-8 0-11s-12-8-28-15c-6-2-18-8-28-13-10-4-18-8-19-8 0 0-5-2-11-5-5-2-12-6-16-7-12-6-12-8-8-44 7-64 7-65 6-77-1-5-2-20-2-33-1-13-2-27-3-30s-2-14-4-24c-1-9-4-25-6-33-4-13-5-18-12-30-17-34-28-45-62-61-6-3-15-7-20-9-8-3-11-3-17-3-9 1-17 3-28 7-5 2-10 3-18 4-9 1-11 1-19 5-5 3-10 6-16 12-22 21-34 45-44 90-4 17-12 66-14 81-1 5-2 16-3 23-1 10-1 21-1 44 0 27 0 30 2 39 3 17 3 23-4 29-5 5-11 7-20 8-15 2-51 16-74 29-6 3-13 7-16 9-9 4-12 8-13 20-1 5-3 12-4 16-4 13-10 28-14 37-7 17-23 74-23 84 0 11 3 13 32 14 12 0 27 1 33 0h32c35-2 92-1 148 2 21 1 80 0 110-1z"/></svg>