<svg xmlns="http://www.w3.org/2000/svg" width="1344" height="566"><path d="M0 283V0h1344v566H0V283m862 278c27-1 70-1 110-1 67 1 129 0 140-2 3-1 6-2 7-3 3-3 2-5-4-23-8-25-15-38-33-64-14-20-18-27-24-40-6-10-12-20-17-29-4-7-7-15-7-19s2-7 7-9c5-3 22-5 31-5 6 1 8 0 10-1 5-4 9-10 11-21 3-13 3-16-1-26s-6-17-10-36c-3-9-5-18-7-22-7-13-22-28-40-37-27-14-39-23-44-33-3-6-8-21-10-34-4-16-12-40-20-56-5-8-16-24-24-34-13-14-32-28-55-39-16-8-43-12-71-11-14 1-17 1-23 3-4 2-14 5-23 8-33 11-36 13-61 37-20 21-25 27-31 40-7 13-10 17-24 31-6 7-12 14-13 16-5 10-5 26 2 45 5 16 16 40 22 47 4 4 8 11 15 22 2 3 6 8 9 11 3 4 5 7 5 7 0 1 2 3 4 5 6 8 8 14 10 48 1 6 4 12 9 16 14 11 37 39 45 52 3 5 7 15 7 18s-3 12-11 29c-4 10-5 12-13 21-7 7-10 11-13 18-7 14-18 49-20 59 0 5 0 6 3 9s3 3 13 4c12 1 79 0 139-1z"/></svg>