<svg xmlns="http://www.w3.org/2000/svg" width="1344" height="566"><path d="M0 283V0h1344v566H0V283m827 279c75-2 107-2 178 0 25 0 40 0 50-1 23-2 25-3 23-11-1-7-7-28-11-38-2-6-6-17-9-24s-7-20-10-28c-2-7-7-19-10-26s-6-17-8-22c-9-26-14-40-22-53-8-16-12-18-40-33-29-15-46-24-49-27-6-6-8-17-6-39 2-17 1-42-1-54-5-21-20-49-34-60-8-6-32-20-42-26-8-3-19-6-38-8-23-3-23-3-36 1-21 5-40 16-55 31-13 15-19 23-22 37-1 4-3 10-3 13-1 3-2 6-2 8 0 3-4 13-11 28-7 16-9 25-9 41 0 17-5 22-25 30-13 5-17 6-27 10-27 10-49 26-56 40-2 2-4 8-5 12-7 24-17 52-20 55 0 1-5 10-10 22-11 24-16 34-25 50-10 18-12 25-17 48-2 11-2 14-1 16 3 6 3 6 60 7h76c12 0 44-1 70-1 42 0 48 0 53 1 7 2 2 2 94 1z"/></svg>