<svg xmlns="http://www.w3.org/2000/svg" width="1344" height="566"><path d="M0 283V0h1344v566H0V283m504 278c41-1 500-2 502 0 2 1 42 0 46-1 7-2 7-8-1-31l-4-10 2-8c2-13 1-15-5-19-2-2-11-7-18-11-7-3-15-7-16-8-35-18-43-22-49-25l-6-4c-3 0-19-11-22-14-4-4-4-5-4-10 0-8 3-37 6-50 5-28 8-61 7-105-2-67-8-114-21-151-5-13-16-34-23-44-12-16-32-33-50-42-13-7-34-15-40-16-9-1-22-1-30 0-4 1-10 3-15 5-8 3-10 3-21 4-15 1-20 2-30 9-18 11-32 26-42 46-10 21-18 47-23 80-4 22-6 77-3 100 2 19 2 27-1 34s-8 12-18 22c-14 12-13 9-13 48 0 37 0 37-7 41-5 3-11 4-24 5-11 1-26 5-28 7-1 1-19 8-20 8s-23 9-30 12c-3 1-11 4-17 7-25 9-23 8-24 23 0 14-1 21-14 54-6 13-9 25-11 33-1 6-1 6 1 8s4 3 19 4c10 0 20 1 23 0 4 0 14 0 24-1z"/></svg>