<svg xmlns="http://www.w3.org/2000/svg" width="1344" height="566"><path d="M0 283V0h1344v566H0V283m414 277c6-3 13-4 36-3 20 1 73 3 88 2 12 0 15 0 20 2 6 2 9 2 35 2h29l7-7c8-8 10-9 18-11 7-1 12-5 22-14 8-8 11-12 15-24 2-6 2-7 2-39 0-31 0-34-2-40-3-8-3-25-1-40 4-21 3-59-1-70-2-6-13-17-28-28-20-14-31-24-31-28s12-27 15-29c1-1 5-3 8-4 10-2 10-2 12-6 2-3 4-16 5-40 0-10 0-15-1-21-1-5-2-16-3-24-1-18-4-36-7-42-6-11-14-18-35-26-13-5-22-7-34-9-5 0-9 0-19 3-15 4-19 5-26 9-15 9-26 30-29 53-1 3-2 10-3 16-1 7-2 14-3 18 0 3-1 8-1 9-1 2-1 13-2 24-1 21-2 28-6 32-3 4-16 7-27 7-7 0-10 1-15 2-3 1-9 3-13 5-9 3-11 5-18 13-4 6-11 10-19 12-4 2-5 2-6 6-2 7-3 8-7 6-5-2-8-1-13 2-12 5-22 12-40 25-3 2-9 6-12 9-12 8-20 16-23 22-2 3-5 12-8 20s-7 19-9 24c-3 8-4 12-5 18 0 6 0 7 5 20 9 23 9 23 26 34 19 13 23 17 30 34 7 15 20 48 23 57 3 8 8 17 11 19s10 3 22 3c10-1 12-1 18-3z"/></svg>