<svg xmlns="http://www.w3.org/2000/svg" width="1344" height="566"><path d="M0 283V0h1344v566H0V283m1340 278 2-3 1-181c0-100 0-183-1-186 0-2-1-4-3-5-3-1-3-1-9 1-5 2-7 3-11 2-5 0-5 0-10 4-2 3-7 6-9 8-13 6-14 8-18 14-2 3-3 7-3 7 0 1-3 8-8 17-4 8-8 17-8 20-1 8-5 16-8 20-8 8-10 15-7 25 1 2 2 11 3 24 0 27 1 26-19 28-14 2-18 4-23 10-6 9-10 13-14 14-3 1-8 3-12 4-7 3-7 4-9 8-1 2-5 8-8 12s-7 11-9 14c-4 7-4 7-4 15 1 7 1 10 4 15 4 9 4 11 4 24 1 13 1 16 6 21 4 3 5 6 6 19 0 11 0 13-2 19l-2 7 4 8c2 4 4 8 5 9 2 1 12 5 18 6 9 2 29 3 87 3h55l2-3z"/></svg>