<svg xmlns="http://www.w3.org/2000/svg" width="1344" height="566"><path d="M0 283V0h1344v566H0V283m226 279c7-1 19-2 47-1h256c196 0 209-1 211-2 1-1 4-3 5-4 2-1 3-1 6 0 4 2 31 3 94 4 29 1 50 1 53 2 4 1 131 1 136 0s9-5 9-8c0-2-1-8-1-15-1-6-2-15-2-18 0-6 0-7 3-10 2-2 3-2 11-2 11 1 29 6 41 13 5 2 10 4 11 4 0 0 5 2 10 3 7 3 19 7 28 8 12 2 42 4 64 4 24 0 26 0 31-2 3-1 9-2 13-3 10-2 14-3 15-7 1-7-2-9-17-11-6-1-12-2-16-4-7-3-18-11-18-13 0-1 1-4 2-6 4-6 4-9 0-11-2-1-5-1-23-1s-24 0-35 2c-20 4-20 4-50-10-5-2-13-5-16-6-12-5-28-17-41-31-15-15-17-21-35-88-3-11-6-25-8-31s-4-15-6-22c-3-11-9-22-15-31l-17-17c-13-12-16-16-15-20 1-3 6-5 18-8s15-6 22-18c17-30 18-33 18-55 0-19-1-36-3-45-1-4-3-12-3-19-2-15-4-18-11-26-8-7-15-10-32-14-19-4-36-4-52 1-12 4-25 14-33 27-7 10-9 17-10 47-1 21-1 26-3 34-5 16-9 25-19 35-6 7-9 8-20 9-12 1-14 2-22 12-7 9-14 16-32 32-21 19-29 29-37 44-11 24-13 32-13 88-1 27-1 43-2 52-4 31-3 54 2 72 1 4 2 8 2 9-2 4-9 2-20-5-3-2-11-6-18-10-14-7-44-25-49-29-3-4-6-7-7-12-1-2-2-23-2-46-1-57-2-80-5-90-1-4-2-9-2-11 0-7-8-54-17-94-3-16-6-27-8-32-7-17-24-37-40-48-10-6-30-17-39-20-7-3-22-6-31-7-4 0-9 0-15 1-11 3-33 9-42 14-11 5-18 7-22 7s-5-1-7-4c-13-14-19-19-31-25-10-4-18-5-28-5-13 1-22 4-32 9-15 7-24 17-32 38-4 10-4 11-4 20 0 11 3 27 7 41 4 11 4 18 3 23-1 3-2 5-7 9-12 9-18 14-26 24-10 12-17 19-28 28-26 22-39 35-45 44-9 16-12 27-21 96-1 14-1 13 3 51 3 22 4 38 2 62-2 18-1 21 5 24 9 4 38 6 57 4z"/></svg>