<svg xmlns="http://www.w3.org/2000/svg" width="1344" height="566"><path d="M0 283V0h1344v566H0V283m886 277c2-2 55-3 58-2 5 1 42 2 49 1 3 0 7-1 9-1 3-1 6-3 10-6 5-4 7-7 11-16 7-13 7-16 6-26 0-6-1-8-5-14-8-13-21-24-28-24-1 0-3 1-4 3-2 1-6 4-9 5-4 2-7 5-8 6-2 3-2 3-1 10 1 3 1 8 1 9-1 4-4 4-6 0-1-2-3-4-5-5-3-1-9 0-14 2-2 1-6 2-8 2-5 0-19-5-28-9-3-2-8-3-11-4-14-4-49-9-62-9-8 0-14 2-23 8-6 3-14 6-19 6-6 0-9-3-19-21-4-9-13-25-19-35-6-11-12-22-13-24-3-6-14-26-27-48-10-17-10-18-10-23 0-8 3-13 10-18 3-2 8-6 12-9 11-11 21-21 27-24 3-2 7-6 8-8 3-4 5-13 6-23 2-13 4-18 23-57 12-26 16-34 23-47 6-10 9-17 9-20 0-1-2-5-5-8-13-15-18-22-23-31-4-6-8-12-13-17-21-22-59-43-90-50-10-2-34-2-46 0-16 4-36 13-50 24-19 16-28 28-39 53-7 16-14 28-20 36-4 5-6 7-13 10-5 2-9 4-10 4-2 0-36 10-39 12-11 5-32 25-39 36-2 3-4 11-7 18-2 8-5 18-6 23-2 6-3 13-4 17 0 7 0 8 3 12 2 2 7 7 15 12 18 11 20 13 21 15 0 2-2 8-7 16-13 21-23 41-29 57-2 4-7 17-11 28-10 23-11 29-11 37 1 9 3 22 5 33 1 7 1 16 1 43v36c1 0 3 2 4 3 3 1 21 1 197 2h195c0 1 77 0 78 0m-490-6c1-1 2-3 2-3 0-3-14-16-24-24-4-3-11-9-15-12-3-3-9-6-11-8-3-1-8-4-10-5-2-2-11-7-18-10l-14-7-19-20c-11-10-20-20-21-21-3-5-1-14 10-47 2-8 2-9 2-28 0-27-2-37-11-44-3-2-6-6-8-8-4-5-4-6 0-24 2-10 2-11 1-24-1-15-2-18-8-21-4-2-4-2-8-1-6 4-13 11-17 21-6 12-7 16-7 28-1 5-1 10-2 10-1 2-13 5-23 6-7 0-8 1-13 5-8 6-12 10-17 19-5 11-7 17-10 42-2 13-3 26-4 28 0 2-1 7-1 10-2 10-3 13-9 19-6 7-11 10-19 10-3 0-6 1-10 3-2 2-6 3-8 3-4 0-7 2-7 6 0 1 2 5 3 8 3 5 4 9 5 16 2 12 6 20 13 30 3 4 6 9 7 11 2 4 20 17 31 22 8 4 20 7 42 9 12 1 24 2 26 2h87c72 0 83 0 85-1z"/></svg>