<svg xmlns="http://www.w3.org/2000/svg" width="1344" height="566"><path d="M0 283V0h1344v566H0V283m285 276c3-1 6-1 12 0 7 1 30 1 119 1h118c5 0 39 0 76 1 75 0 84 0 88-3 3-3 4-11 2-17 0-3-2-9-3-14 0-4-2-9-2-11-1-1-2-6-2-10-1-5-1-10-2-12-6-21-9-28-15-41-3-7-3-9-4-18v-10l-5-4c-2-2-7-5-10-6-23-10-42-17-51-21-19-7-36-15-38-18-3-5-1-13 9-48 3-9 5-17 6-18 4-9 6-36 6-51-1-14-4-43-5-59-1-7-2-16-2-20-3-37-8-67-15-82-3-9-12-22-20-29s-33-26-41-30c-7-4-22-10-31-12-12-2-31-1-41 2-4 2-12 3-17 4-15 2-19 3-26 7-8 4-25 18-31 26-7 9-8 11-15 24-17 33-28 85-36 157 0 9-2 24-4 34-4 32-5 48-4 68 0 15 0 18-1 21-3 5-9 9-24 14s-35 16-48 26c-14 10-27 19-37 24-8 4-19 14-20 18-1 1-1 4-2 6 0 4-3 11-9 22-4 8-9 19-10 24-6 18-9 43-6 51 2 6 1 6 72 5 41 0 67 0 69-1z"/></svg>