<svg xmlns="http://www.w3.org/2000/svg" width="1344" height="566"><path d="M0 283V0h1344v566H0V283m878 276c5-1 15-2 22-3 24-4 40-5 62-5 21-1 23-1 36-4 7-2 13-4 14-4 1-1 2-4 4-18 1-7 0-22-3-32-2-10-3-18-4-37-1-10-2-20-3-24-2-9-1-14 2-20 1-3 2-6 2-7 0-4-10-16-17-21-2-2-5-4-7-5-5-4-29-16-33-16-6-1-12-5-15-11-4-5-8-8-12-8-1 0-4-1-6-2-1-1-3-2-4-2-2 0-5-3-5-6 0-5 3-7 8-7 8 2 20 2 21 1 4-3-2-35-9-52-2-3-4-9-6-13-1-4-3-8-4-10-5-13-10-29-15-45-3-7-6-17-8-22s-4-13-6-18c-1-5-5-15-7-22-3-6-6-13-6-15-2-5-13-29-17-37-13-23-48-50-82-62-8-3-11-3-22-4-12 0-13 0-25 3-6 2-16 5-23 6-25 5-44 13-55 23-13 12-23 32-31 59-4 18-9 47-11 67-1 7-2 15-3 17 0 2-1 11-2 19-1 9-1 16-2 16v53c0 36 0 53-1 55-2 3-5 3-13 3-22-2-24-2-32 1-4 1-12 6-18 10-8 5-13 7-18 9-5 1-11 3-14 4-4 1-8 2-10 2-4 0-10 3-21 12-7 5-12 8-18 10-17 6-22 9-30 18-10 11-13 12-33 12-23 0-45 2-47 4-1 1-2 2-2 3 1 1 8 5 10 5 3 0 15 6 16 8 1 1 2 4 2 5 0 3-9 28-13 36-1 4-3 8-4 10 0 2-1 5-2 7-1 3-3 7-4 11-1 3-5 11-8 17-5 11-6 14-3 15 2 1 37-1 47-2 14-1 42-3 58-3 10 0 15-1 21-2 4-1 9-2 11-3 1 0 4-1 5-2 3-2 15-5 25-6 7 0 13 1 24 4 3 2 7 3 8 3s8 1 15 3c11 3 14 3 27 3 7 0 20 0 28-1h50c29 0 37 0 50 2 21 3 27 4 38 9 7 3 10 4 15 4 4 0 13 1 22 1 19 2 78 2 91 1z"/></svg>