<svg xmlns="http://www.w3.org/2000/svg" width="1344" height="566"><path d="M0 283V0h1344v566H0V283m763 276c36-1 67-2 69-2 7-2 12-7 17-17 4-8 5-11 8-25 4-21 5-22 16-14 14 12 22 16 35 19 12 3 31 5 48 5 7 0 8 0 10 2 2 1 3 3 4 4 0 3 5 5 14 6 18 2 20 2 33 0 7-2 15-3 17-3 6 0 9-4 10-10 1-4 1-6-1-11-5-13-9-19-17-26s-11-13-12-22c-1-8-5-15-11-21-5-6-16-13-22-17-6-3-13-9-25-23-6-6-14-15-19-20-8-8-14-17-20-30-5-10-6-15-6-34 0-24 0-24-17-53-3-5-6-9-7-10s-9-5-17-7c-16-6-23-9-26-13-1-3-1-3 2-8s4-6 4-16c0-7 0-14 1-17 1-7 6-21 8-26 2-6 2-16-1-44-4-32-6-38-14-49-2-2-7-9-11-14-8-11-17-20-24-24-12-6-45-12-59-11-15 2-25 6-39 20-20 19-31 45-55 128-10 35-12 38-17 47-7 11-15 17-29 24-15 8-21 12-22 16-1 1-3 6-4 11-1 6-6 17-18 42-9 18-17 35-18 36 0 1-1 5-3 8-6 12-16 45-23 76-7 32-9 50-8 73 1 19 3 21 23 28 15 5 19 6 33 7l10 2 5 5c3 3 7 5 9 6 1 1 13 2 32 2 46 1 68 1 137 0z"/></svg>