<svg xmlns="http://www.w3.org/2000/svg" width="1344" height="566"><path d="M0 283V0h1344v566H0V283m826 277c11-1 22-1 28 0 20 2 60 0 86-5 8-1 13-1 31-1 41 2 54 3 63 5 11 2 27 3 32 1s6-5 3-14c-2-5-5-14-6-21-5-16-9-25-18-37-7-8-8-11-9-16-1-4-2-7-4-9-3-4-26-15-56-27-28-11-43-18-47-22-2-3-2-4-2-9 1-5 8-26 15-43 10-27 12-43 10-106-2-102-12-152-38-192-12-18-28-34-48-45-17-10-32-13-68-13-25 0-39 1-49 5-12 4-14 5-29 16-16 12-30 27-37 38-5 10-14 30-17 40-1 4-4 13-6 20s-5 20-6 29c-2 8-5 24-6 35-2 11-4 24-5 30s-1 14-2 17c-1 10-4 46-5 70-1 33-3 45-7 57-3 10-6 14-13 20-9 7-20 12-40 19-9 3-42 19-48 23s-23 12-36 17c-26 10-29 12-32 21-2 5-1 14 2 20 3 8 2 14-6 37-6 18-6 21-6 28 0 8 0 8 2 10 3 2 4 2 52 2 27 0 58 0 68-1 13 0 21 0 24 1h58c38-1 59-1 68 0 8 1 17 1 21 1 11 1 62 0 83-1z"/></svg>