<svg xmlns="http://www.w3.org/2000/svg" width="1344" height="566"><path d="M0 283V0h1344v566H0V283m63 275c12 0 52-2 89-2l68-2 6-2c4-2 8-4 9-5 3-3 4-12 2-19 0-3-2-11-4-17-2-7-3-16-4-24-1-17-4-39-5-45-1-2-1-8-2-12-5-34-8-47-17-74-3-9-10-24-16-31-5-8-17-18-29-27-6-4-13-10-16-13-5-5-5-5-4-9 1-6 5-14 13-29l8-13 1-9c1-9 1-10 8-23 3-7 9-16 11-20 10-14 10-21 3-38-15-32-16-37-16-61 0-12 0-19-2-23 0-4-6-16-12-28l-12-22-6-2-6-3-34-1C33 2 9 2 5 4L1 5v551l3 3c2 2 3 2 20 2 10-1 27-2 39-3m1044 0c1-1 1-2 0-8-4-15-12-29-25-42-4-5-12-14-17-20-10-11-21-22-33-31-3-2-13-11-20-17-18-18-35-32-46-40-9-6-20-15-31-23-2-2-7-5-11-7-6-3-7-3-21-4-9-1-17-2-20-2-7-2-16-9-21-15-11-13-14-34-8-58 3-13 7-20 15-28 15-16 27-39 29-57 0-4 0-8-2-16-4-13-4-16-1-35 2-12 2-19 2-31-1-14-1-16-4-24-7-21-18-35-38-47-13-9-19-13-32-17-17-6-29-8-49-8-36 0-53 5-79 25-16 12-26 27-31 47-2 8-6 45-8 74-1 9-2 23-4 31-4 27-4 36 3 70 3 17 5 22 13 39 7 17 10 20 24 35 7 8 8 10 6 14-3 3-9 7-36 21-28 15-37 20-58 36-28 22-47 39-58 54-3 4-8 11-12 16-10 13-16 22-18 30-1 4-3 12-5 16-4 13-4 16-2 19 2 5 4 5 63 4 87-1 472 0 474 2h30c24-1 30-1 31-3z"/></svg>