<svg xmlns="http://www.w3.org/2000/svg" width="1344" height="566"><path d="M0 283V0h1344v566H0V283m297 279c55 0 69-1 81-4 6-1 6-1 10 1l3 2h306c188 1 192 1 197-1 4-2 4-2 10 0s9 2 38 2c31 0 43-1 48-4 3-2 5-7 7-16 2-6 6-18 19-58 3-10 6-26 7-40 1-15 3-23 5-26 2-2 3-2 11-2s10 0 21-5c11-4 14-4 30-6 9-1 23-2 32-3 8-1 21-2 29-3 46-6 71-7 87-4s41 1 51-3c11-5 17-16 21-36 1-11 1-16-3-18s-23-1-55 5c-21 4-31 4-74 2-22-1-30-1-40-3-7-2-20-4-28-5-20-1-29-4-46-10-13-6-18-9-42-25-16-11-34-29-41-39-6-10-9-13-17-19-8-5-14-11-16-14-1-4-1-11 1-14 1-1 9-10 18-20 23-23 27-30 36-54 6-17 8-30 6-38-5-20-18-36-38-44-7-2-9-2-21-2-10 0-14 0-19 2-22 7-33 18-42 43-6 18-16 33-31 47-9 9-10 10-27 10-17 1-20 2-24 9-2 6-6 10-25 26-7 6-16 14-20 19-9 8-12 10-14 6 0-1-3-10-6-20-6-21-9-31-16-47-16-36-32-51-72-65-10-4-19-6-33-8-15-2-16-2-26-1-10 2-13 3-38 14-24 10-35 19-46 38-5 8-11 23-14 33-1 6-1 10-1 24 1 10 1 22 2 26 1 5 1 20 2 33 0 13 1 27 1 32 1 5 2 13 2 17 1 7 4 23 8 46 3 15 6 28 13 47 3 9 3 11 0 14-2 2-4 3-10 4-5 1-11 3-18 6-15 6-29 11-44 16-19 5-30 10-35 15-4 5-9 16-10 25-1 6-4 16-6 26-8 25-8 25-11 25-2 0-2-1-11-25l-5-17-1-22c-1-12-2-28-3-36 0-8-1-21-2-29 0-8-1-17-2-21 0-3-1-10-2-16 0-11-7-41-12-59-2-4-4-13-6-20s-4-17-6-21c-5-15-5-15 6-26 6-6 11-13 15-19 3-5 8-13 11-18 8-12 8-14 4-38-7-39-7-41-18-50-15-12-33-18-53-17s-30 5-38 13c-9 10-11 24-10 62l1 16-2 6c-4 7-7 10-14 14-9 5-15 12-19 20-3 5-6 9-15 19-13 13-17 19-20 33-2 5-5 14-8 20-9 20-16 42-21 73-1 7-3 17-4 23-3 14-3 29 0 56 6 46 6 50 7 60 0 6 0 20-1 32-1 19-1 20 1 23 5 7 17 8 58 7 12 0 47 0 77-1z"/></svg>