<svg xmlns="http://www.w3.org/2000/svg" width="1344" height="566"><path d="M0 283V0h1344v566H0V283m359 278c31-1 78-1 125-1 102 1 143 0 163-1 9-1 32-1 51-2 20 0 36-1 37-1 3-2 40-4 54-4 7 0 17 1 21 2 15 2 50 4 82 4 34 0 35 0 37-5 1-6-8-36-14-46-2-3-5-8-8-11-4-5-15-24-18-32-1-3-3-10-4-16-2-12-4-17-7-25-5-11-10-18-23-30-7-6-16-14-20-18-9-8-13-10-25-13-5-1-15-4-22-7-8-3-16-5-18-5-5-1-9-5-12-10-3-6-4-21-1-32 2-8 2-11 1-32-1-13-1-26-2-29-1-8-7-29-11-39-1-5-6-18-10-28-8-25-13-35-25-55-21-37-35-56-51-68-19-14-34-22-53-28-7-2-17-5-22-7l-10-3-35-1-35-1-10 3c-13 4-24 6-38 7-13 2-23 7-35 16-10 8-28 26-38 40-18 23-30 57-34 91-2 17 0 23 9 32 3 2 6 7 8 10 4 8 4 16 1 36-3 23-2 36 5 51 2 5 5 12 7 17l3 8-1 9c-2 16-1 24 7 44 5 11 5 13 4 16 0 2-4 5-15 12-14 9-16 11-37 33-12 13-30 30-40 39-48 43-73 75-62 80 2 1 43 2 60 1 6 0 34 0 61-1z"/></svg>