<svg xmlns="http://www.w3.org/2000/svg" width="1344" height="566"><path d="M0 283V0h1344v566H0V283m667 278h165c23 0 34 0 36-1 7-2 7-2 7-34 0-19-1-28-2-30 0-1-1-5-2-9-2-10-6-17-17-29-15-14-22-19-75-53-14-9-21-16-27-29-3-6-6-12-8-14-3-5-6-14-6-20 0-8 7-24 20-45 3-5 6-11 8-13 1-3 5-9 7-14 8-11 9-12 11-27 2-7 4-15 5-19 7-19 10-42 10-69 0-22-1-32-5-44-8-19-17-33-34-49-20-21-32-27-56-29-7-1-18-3-24-4-20-4-46-2-62 6-21 9-47 34-57 56-6 10-10 29-12 45-1 15-3 32-5 37-1 2-3 7-5 11-5 8-6 15-6 28 1 13 3 20 7 27 1 3 5 9 7 13 3 5 7 11 10 14 8 9 9 11 10 24 2 17 1 21-8 32-5 6-26 26-33 32-6 4-29 14-46 19-6 2-19 6-30 9-10 3-22 7-26 8-17 5-28 10-34 14-5 4-13 16-19 30-3 7-7 16-9 21s-5 13-7 17c-2 5-4 12-6 16-15 37-24 61-24 65 0 2 1 4 2 5 2 2 3 2 65 2 34 0 79 0 100 1 20 0 38 1 40 0h135z"/></svg>