<svg xmlns="http://www.w3.org/2000/svg" width="1344" height="566"><path d="M0 283V0h1344v566H0V283m613 276c40-1 82-1 117 0 30 1 134 1 155 0 10-1 18-2 27-4 7-2 17-4 23-4 8-2 10-2 11 0 8 5 7 4 24 5 14 0 19 0 25-2 7-1 8-2 15-9 5-4 11-11 14-16s7-10 8-11c3-4 6-10 6-13 0-2 1-4 2-6 0-3 1-5 1-7-1-4-4-4-10 3-11 11-16 10-20-5-3-11-4-13-8-14-4-3-5-2-12 3l-10 5c-2 0-5 0-6 1-1 0-5 3-8 6l-6 6h-8c-18 0-32-2-38-4-2-2-8-3-11-4-14-4-19-8-21-17-1-10-9-15-20-13-5 1-27 12-35 18-3 1-9 6-14 11-11 10-13 11-24 15s-16 4-19 1c-2-1-7-10-13-20-5-10-12-24-16-30s-12-22-19-34c-7-13-15-27-18-31-4-8-7-14-7-17 0 0 3-4 7-8 3-4 7-9 8-10 1-2 4-4 8-6 6-3 19-14 30-26 4-3 8-7 11-8 4-2 9-7 11-11 0-2 2-8 4-15 3-14 5-20 13-38 4-7 9-19 11-25 6-18 11-28 20-44 4-9 8-17 9-18 0-4-3-11-10-19-3-4-10-12-14-18-17-25-41-45-72-58-26-12-43-15-64-13-21 3-32 7-50 19-14 9-37 37-48 57-14 26-16 30-25 39-6 7-9 9-15 12-7 3-23 8-35 10-14 3-23 11-39 32-6 8-8 11-9 19-1 4-3 12-5 17-5 13-7 19-7 27 0 7 0 7 5 13l7 7c3 1 6 5 6 9 0 6-4 13-14 31-11 19-15 26-25 52-4 11-10 26-13 33-10 22-11 27-4 49 2 6 2 9 2 26 0 16-1 19-2 21s-3 3-3 3c-2 0-13-8-21-15-4-3-12-9-17-13-6-4-14-10-17-13-4-3-10-8-15-10-7-4-10-7-28-26-12-11-21-22-22-23-1-4 0-11 10-45 4-11 4-13 4-26 0-16-2-27-5-34-1-3-5-9-10-13l-7-8v-5c1-3 2-9 2-14 3-12 2-32-1-40-2-4-7-8-11-8-5 0-12 7-17 17l-7 14c-3 5-3 7-4 16 0 15-2 16-21 18-12 2-14 3-21 10-15 14-20 28-23 62-2 18-5 34-8 40-1 3-4 7-7 10-5 6-10 8-16 6-4 0-5 0-11 3-12 6-13 9-9 18 2 3 4 9 5 14 4 11 9 21 16 28 2 3 5 6 6 8 1 1 10 11 21 23 13 13 21 21 24 22 6 3 24 6 56 8 7 1 48 1 92 1 65 0 80 1 85 2 4 1 13 2 21 2 22 1 137 0 173-1z"/></svg>