<svg xmlns="http://www.w3.org/2000/svg" width="1344" height="566"><path d="M0 283V0h1344v566H0V283m610 277c72-1 393 0 400 1h26c18 0 20 0 23-2 2-2 2-3 2-9-1-5-2-12-5-20l-4-12 1-13c1-11 1-15 0-16-1-4-8-8-18-12-27-11-84-40-89-46-7-6-7-7-2-53 1-12 3-27 3-33 5-34 4-102-2-145-1-5-2-12-2-16-2-13-9-44-15-65-15-46-39-75-83-99-21-11-24-12-43-13-18 0-24 1-35 6-6 3-9 3-17 4-12 0-22 3-32 8-12 6-31 25-40 39-6 11-15 29-18 41-6 18-12 52-14 76-2 19-1 73 2 88 1 12 1 13 0 21-3 12-5 15-13 25-4 4-8 9-8 11-3 5-4 15-5 42 0 23-1 27-2 29-3 5-11 8-22 9s-20 3-27 7c-3 1-10 4-15 6s-20 8-34 14c-13 6-27 13-31 14-21 10-21 10-22 13-2 2-2 4-1 7s1 7 0 12c-1 9-3 15-14 47-4 9-7 20-8 23-1 6-1 6 1 9 5 4 7 4 163 2z"/></svg>