<svg xmlns="http://www.w3.org/2000/svg" width="1344" height="566"><path d="M0 283V0h1344v566H0V283m884 277c3-1 6-1 11 0 11 1 28 0 32-1 4-2 4-4 4-22-1-15-2-26-6-41-1-7-1-8 0-16 1-4 3-8 4-9 2-3 10-3 17 0 9 4 15 2 18-5 2-5 1-10-4-18s-6-13-8-30c0-6-1-12-3-18-2-7-3-8-11-17-15-16-28-22-57-30-5-2-10-4-11-5s-2-4-2-16c-1-13-1-16-3-20-4-7-11-11-20-10-7 1-12 4-16 9-5 5-7 17-5 25 1 2 2 8 3 13l2 9-2 5c-2 2-6 7-9 11-4 4-8 9-10 11-2 5-2 6-2 21 0 9 1 19 2 25 1 5 1 18 2 29 0 10 0 22 1 27 1 7 1 9 4 11 3 3 3 4 3 10 0 8-2 20-4 25-1 3-1 3 2 6 2 2 3 5 3 5 0 1 1 4 3 6 5 8 11 10 36 11 9 0 17 1 19 1s5-1 7-2z"/></svg>