<svg xmlns="http://www.w3.org/2000/svg" width="1344" height="566"><path d="M0 283V0h1344v566H0V283m604 277c34 0 68-1 76-2 22-2 149-2 156 0 7 1 150 3 207 2 40 0 43 0 45-2 1-1 2-3 2-4 0-2-4-9-10-16-9-11-16-21-20-27s-6-8-29-26c-9-7-25-22-36-32-12-10-24-22-29-25-4-4-13-11-20-17-16-12-23-17-31-20-7-3-10-4-25-5-17-1-21-3-30-10-8-8-11-11-15-21-2-7-2-9-2-25s0-17 3-27c3-8 5-12 13-23 19-26 24-39 22-59-1-16 0-24 1-35 4-20 3-43-1-61-7-27-27-48-59-62-21-10-45-14-70-12-20 2-39 6-56 14s-35 24-42 38c-7 12-8 17-9 36-1 12-2 22-4 33-3 13-6 41-9 70-1 17 2 48 8 70 4 12 12 34 16 42 4 9 8 14 17 19 15 9 16 11 11 15-1 1-11 7-21 12-10 6-24 14-30 17-21 12-57 39-75 56-16 17-36 44-46 64-3 7-4 10-4 15 0 7 2 8 15 9 6 0 14 1 16 0 2 0 32 0 65-1z"/></svg>