<svg xmlns="http://www.w3.org/2000/svg" width="1344" height="566"><path d="M0 283V0h1344v566H0V283m804 277c9 0 10-1 12-3 4-5 1-12-10-27-11-13-16-21-23-36-10-19-19-29-27-33-7-4-33-14-46-17-6-2-16-6-22-7-26-9-77-23-90-25-14-2-18-6-18-17 0-6 2-11 4-13 1 0 9-3 17-6 18-7 27-12 34-18 9-9 11-19 9-37-2-11-2-48 0-60 1-10 0-27-2-38-2-8-9-22-15-32-3-5-5-9-5-10 0 0-1-3-2-7-4-9-6-18-7-34-2-20-4-36-5-41-3-6-12-24-16-31-14-20-27-26-83-37-28-6-62-8-85-5-11 1-13 2-28 8-12 5-13 6-33 18-28 16-42 34-56 74-3 9-8 28-10 37-8 42-12 53-27 75-4 5-10 15-15 21-4 6-9 13-11 16-2 2-6 6-8 10-33 42-61 73-77 83-12 8-17 14-21 23-2 3-5 9-8 11-3 4-4 6-4 9s-1 6-2 9c-2 5 0 7 5 7 7 0 21 3 23 5 3 2 2 6-1 12-4 8 0 11 16 13 8 1 10 1 15 4 8 6 8 7 7 14-1 4-2 10-3 13-2 8-3 10 0 13 2 3 7 5 20 8 11 2 14 4 18 8 4 3 5 6 6 17 1 10 3 13 8 16 2 1 5 3 6 4 5 6 3 6 59 5h67c53 1 187 0 215-2h25c18 1 76 3 119 4 20 0 37 0 37 1 0 0 15 0 38-2z"/></svg>