<svg xmlns="http://www.w3.org/2000/svg" width="1344" height="566"><path d="M0 283V0h1344v566H0V283m308 277c19-1 36 0 39 0 4 1 5 1 8 0 2-2 4-2 15-1s80 2 104 1h56c30 0 45 0 49-1s11-1 31 0c29 1 162 2 166 1 4-2 6-4 6-8 0-5-4-24-8-35-1-5-2-10-2-14 0-8-2-18-4-21-3-5-30-19-62-32-2-1-13-6-24-12-11-5-27-12-36-17-17-7-22-11-22-15 0-1 1-4 3-8s5-11 8-18c2-6 6-14 8-18 9-18 15-35 21-60 3-11 3-12 3-36 0-23-1-37-5-64 0-6-2-17-3-24 0-7-2-17-3-22s-3-14-5-21c-6-31-22-64-39-85-3-4-9-9-15-13-28-20-42-27-55-31-5-1-11-1-34-1-25 0-28 0-36 2-5 1-11 4-14 5-4 3-9 5-16 6-36 8-59 37-76 98-10 33-11 39-28 133-1 8-3 18-4 23-4 18-7 41-8 54v45c1 17 1 32 0 35 0 6-3 8-12 11-10 3-25 10-33 15-3 2-12 7-18 11-7 4-13 8-15 9-1 1-10 6-20 10-22 12-25 14-29 23-5 11-16 32-20 37-2 3-5 10-8 15-7 14-7 21 1 23 1 1 26 1 136 0z"/></svg>