<svg xmlns="http://www.w3.org/2000/svg" width="1344" height="566"><path d="M0 283V0h1344v566H0V283m816 279c15-1 19-4 25-18 3-6 3-7 3-18 0-10 0-11 3-17 3-7 8-16 16-29 10-16 15-24 23-42 7-13 11-18 17-26 13-15 16-23 11-31-2-3-3-7-4-11-1-8-5-16-8-19-3-1-3-1-6 0-1 1-3 4-4 7-1 2-3 6-5 8-1 2-2 5-3 7 0 4-3 10-6 14-5 5-19 8-21 4-2-2 4-13 13-27 4-6 5-9 6-13 0-8-1-11-8-14-5-2-5-2-12-1-3 1-9 1-12 1-6 1-6-2 0-11 8-11 14-24 16-33 0-4 0-5-3-8-5-6-14-8-19-3-2 1-4 5-6 8-5 8-21 28-26 31-4 2-5 2-11 2h-14c-8-2-14 1-18 6-5 5-20 35-22 43-3 11-6 24-9 37-4 18-9 29-26 61-13 23-18 32-25 41-4 6-7 8-10 6-3 0-27-23-29-26 0-2-2-8-3-14-2-9-3-13-7-20-6-13-9-17-24-27-13-8-17-11-15-14 0-1 2-4 5-6 6-4 10-10 13-22 1-4 5-18 9-30 13-40 15-47 16-80 0-14 0-24-1-36-1-8-2-19-3-24-1-24-9-69-15-87-13-41-28-62-57-84-21-17-35-22-56-22-11 0-14 0-24 3-6 1-15 3-20 4-26 3-35 7-53 25-14 15-19 21-26 37-8 15-19 49-22 67-1 3-3 11-4 17-1 5-3 15-4 21 0 6-2 16-4 22-1 6-3 16-5 22-1 6-3 17-5 23l-3 12 1 48c0 62 0 65-14 85-3 5-7 11-9 14-6 9-24 45-27 51-1 3-4 12-7 20-12 28-12 28-7 40 2 4 4 10 5 14 4 11 3 11 42 12h41c9-1 177-2 299-2 51 0 115 1 117 2 0 1 25 0 41 0z"/></svg>