<svg xmlns="http://www.w3.org/2000/svg" width="1344" height="566"><path d="M0 283V0h1344v566H0V283m810 278c7-2 12-2 19 0 5 1 10 1 29 1s22 0 26-2c3-1 4-2 4-5 0-2-1-7-2-12-3-12-15-43-20-55-3-7-8-24-8-28 0-6 6-11 24-18 14-6 31-22 38-36 1-2 3-7 4-12 3-8 4-10 8-15 12-12 18-22 20-33 1-6 2-8 8-15 7-9 9-15 5-19-2-2-6-3-9-1-2 1-6 4-10 8l-8 7-8 1h-16c-9 1-10 1-18 9-3 3-5 6-6 9s-2 4-5 6-6 3-7 3c-2 0-5-3-5-8-1-2-3-6-4-9-2-3-6-13-9-22-11-32-18-45-28-54-3-3-9-8-12-11-5-4-9-7-16-10-17-8-18-10-11-27 11-29 16-49 18-69 1-6 2-18 3-26 2-20 0-26-12-37-6-6-15-13-26-18-9-4-21-6-38-6l-16-1-7 4c-9 5-19 14-24 21-7 10-15 32-17 46-1 2-2 8-3 12-1 7-1 8-10 17-12 12-14 17-12 25 3 9 10 17 15 17 2 0 6 2 11 4 10 5 11 7 6 16-7 13-11 18-27 32-22 21-30 31-34 45 0 4-2 14-4 23-2 14-2 20-2 43 0 16 1 30 1 37 1 6 2 16 3 21 0 5 1 10 1 11 1 1 2 5 2 9 1 4 2 8 2 10 2 4 5 12 6 18 3 9 9 20 16 30 4 5 8 10 8 11 2 2 4 16 5 26 0 13 4 22 9 26l3 3h68c59-1 68-1 72-2z"/></svg>