<svg xmlns="http://www.w3.org/2000/svg" width="1344" height="566"><path d="M0 283V0h1344v566H0V283m742 276c4-2 4-10-3-41-4-21-6-31-14-50-1-3-3-7-3-9-1-2-3-6-5-9-11-21-10-18-9-27 1-13 1-12-29-24-7-3-18-7-24-9-27-9-43-15-47-19-4-5-3-13 4-33 4-14 8-31 9-41 2-13 2-55 0-71-3-28-7-64-7-65-1 0-2-6-3-13-1-12-6-33-10-44-6-17-22-37-42-53-17-14-33-20-58-24-9-2-24-1-31 1-2 1-10 2-18 3s-17 3-20 4c-12 4-26 12-34 22-6 7-20 29-24 37-7 17-16 54-21 88-6 31-7 41-9 58-1 9-3 22-4 28-1 12-2 18-4 48-1 9-1 21-1 34l1 19-3 3c-4 5-12 9-30 15-17 6-26 10-36 18-11 8-32 21-42 26-9 5-19 12-20 16-1 1-2 5-3 9 0 4-2 11-4 15l-8 16c-4 10-7 23-10 39-2 17-2 23-1 27 2 8-1 7 69 7 42-1 65-1 68-2s6-1 9 0c5 1 172 2 237 1 13 0 37 0 52 1 37 1 126 0 128-1z"/></svg>