<svg xmlns="http://www.w3.org/2000/svg" width="1344" height="566"><path d="M0 283V0h1344v566H0V283m386 275c46 0 90 0 98-1 19 0 27 0 70 1 22 1 60 1 84 1 44 0 44 0 46-2s2-2 1-7c-5-21-19-50-31-62-6-6-11-9-25-14-7-3-18-7-25-11-8-3-18-7-23-9s-12-4-16-6c-8-3-39-14-45-16-10-3-18-6-19-8-3-3-2-8 0-15 2-6 3-9 14-28 10-18 12-19 31-21 23-3 39-9 47-17 5-6 6-9 7-24 1-7 1-14 1-16 1-3 1-11 2-19 1-11 2-18 3-24 6-20 8-39 5-52-1-4-4-13-6-20-5-16-7-28-6-64 0-24 0-28-2-38-3-17-6-23-13-40-7-13-9-16-15-23-18-18-21-19-77-19-62 0-141 2-148 3-4 1-9 2-11 3-6 3-25 24-34 37-5 7-14 24-17 31l-4 12c-6 16-8 22-14 44-4 12-7 24-7 26-1 1-2 7-4 12s-4 15-6 22c-4 21-9 36-13 48-2 6-6 19-10 28-8 26-16 47-21 57-3 5-6 13-8 18-2 4-6 13-8 19-3 5-8 17-11 26s-7 18-8 20c-3 6-7 20-7 25 0 3 1 7 2 9 2 4 19 20 25 25 4 2 6 7 6 11s-6 11-22 28c-22 22-25 27-26 37-1 15 1 15 91 14 35 0 103 0 149-1z"/></svg>