<svg xmlns="http://www.w3.org/2000/svg" width="1344" height="566"><path d="M0 283V0h1344v566H0V283m803 277c9-1 12-5 19-22 6-15 7-19 7-30-1-8-1-9 1-15 3-7 9-17 13-23 5-8 21-37 26-47 2-6 8-14 13-21 12-16 14-20 15-27 0-4 0-7-2-11-2-3-3-8-4-10-1-6-4-13-8-17-6-6-7-6-13 6-3 6-7 17-7 21 0 2-6 7-9 9-4 2-12 3-14 1 0-1-1-3-1-4 0-3 11-24 14-28 2-2 5-8 5-11 0-4-4-11-7-13s-5-2-10-2c-4 1-9 1-13 2-5 1-6 1-8 0-1-2-1-2 1-5 0-2 2-4 3-5 3-4 10-17 11-20 0-2 1-6 2-8 3-6 2-9-2-14-3-3-4-3-9-4-6 0-10 2-13 8-4 7-20 28-24 32-6 5-9 5-23 4-14 0-14 0-21 9-11 14-22 41-28 69-6 27-9 34-31 80-10 20-23 40-28 43-3 1-6-1-12-7-3-2-8-7-11-10-4-4-8-7-8-9-1-1-3-7-4-13-2-9-3-12-8-21-7-13-11-17-20-22s-18-11-19-13c0 0 2-4 5-8 4-6 5-10 9-24 3-8 7-19 8-23 8-20 14-39 16-53 2-21 3-35 2-49-1-7-1-19-2-28-1-8-1-18-2-22s-2-13-3-21c-4-30-7-43-12-57-1-4-3-10-4-12-2-8-8-21-13-29-8-14-15-23-28-35-16-13-27-20-43-25-8-2-11-2-23-2-10 0-14 0-20 2-5 1-13 3-20 3-16 1-25 4-39 12-22 13-31 22-43 47-4 8-9 20-11 26-2 5-4 12-5 14-3 10-6 23-9 41-5 24-7 36-12 58-12 59-14 85-10 111 1 6 1 17 1 24 0 12 0 13-4 26-3 9-5 15-8 19-15 21-28 41-32 50-2 5-6 13-9 18-2 5-7 15-11 22-6 12-6 14-6 20 0 5 0 9 3 16 3 9 4 10 11 17 6 6 9 8 12 9 6 2 212 2 274 1 21-1 44-1 51-1 70 0 108 0 126 1 22 2 70 2 78 0z"/></svg>