<svg xmlns="http://www.w3.org/2000/svg" width="1344" height="566"><path d="M0 283V0h1344v566H0V283m603 92c7-2 18-5 25-6 6-1 12-3 14-3 1-1 7-2 12-2 6-1 12-2 16-3s9-1 21-1c19 0 31 1 42 5 10 3 13 4 27 2 10-2 27-6 29-6 0-1 4-1 8-2 3-1 8-2 11-3 5-1 27-2 37 0 5 1 6 1 7 0 2-1 3-9 1-14 0-2-2-12-2-23-1-11-2-22-3-25-1-7-1-14 0-17 1-1 4-3 6-5 6-4 8-6 8-12 1-3 2-7 3-9 0-2 1-7 2-11s1-10 2-12c1-7 1-40 0-47 0-3-1-10-2-15-1-6-2-13-3-16 0-4-1-9-2-13 0-4-1-9-2-11 0-2-1-7-2-10-4-20-13-41-23-52-7-8-16-14-28-19-16-7-29-7-46-3-29 8-41 16-50 34-6 13-7 19-7 36 0 39 1 89 2 108 1 29 1 28-1 32-3 2-3 2-14 2-15 1-39 3-47 5-4 0-10 1-15 2-5 0-10 2-13 3-2 1-6 3-9 4-5 2-7 4-12 9-4 4-8 8-11 10-5 2-6 2-19 2-8-1-17-1-20-2-6 0-9 1-17 9-7 5-13 9-21 11-5 1-10 8-16 20-3 5-6 13-8 17-3 6-3 7-3 17 0 14 0 14 16 14 13-1 22-3 29-7 11-7 10-7 22-3 6 2 14 4 16 5 3 1 7 2 8 3 4 1 14 5 17 5 1 0 7-2 15-3z"/></svg>