<svg xmlns="http://www.w3.org/2000/svg" width="1344" height="566"><path d="M0 283V0h1344v566H0V283m654 276c59-1 435-1 456 0 22 1 68-1 70-3 4-3 2-9-10-36-16-33-25-47-44-65-5-5-14-13-19-17-10-7-30-19-43-24-4-2-14-6-21-9-7-4-16-8-20-9-4-2-12-6-19-10-13-7-27-13-42-19s-19-8-39-25c-10-8-13-12-14-19-2-7 6-37 12-45 1-2 5-4 10-7 4-2 10-5 12-7 13-9 25-29 26-42 0-10 0-13-5-19-5-5-6-8-4-14 0-3 3-14 5-25 10-48 10-58-1-88-3-10-12-23-18-27-2-2-6-4-7-6-4-4-12-9-30-19-21-11-28-14-43-13-35 0-55 4-75 14-15 8-22 13-25 18-1 2-4 6-7 9-4 7-9 17-12 29-2 5-3 9-3 10-2 2-7 30-10 49-2 13-3 18-10 23-3 3-6 6-8 10-2 6-2 7-2 18 0 13 2 25 7 36 6 12 9 22 13 45 2 12 5 25 6 28 0 4 1 12 1 18v10l-6 6c-23 22-49 38-64 41-5 0-13 4-45 17-9 4-23 10-31 13s-22 10-31 15c-26 12-39 22-55 41-13 15-21 26-29 43-8 15-11 25-13 38-1 10 0 14 4 16 2 1 19 1 52 0 41 0 58 0 83 2 1 0 22 0 48-1z"/></svg>