<svg xmlns="http://www.w3.org/2000/svg" width="1344" height="566"><path d="M0 283V0h1344v566H0V283m600 277c43 0 113 0 154 1h86c13-1 15-2 15-11 0-14-5-34-12-45-7-10-41-47-51-54-8-6-12-10-25-26-14-18-15-21-16-32-1-15-6-31-11-42-2-3-3-7-3-9-2-6 5-27 10-33 2-1 6-4 9-7 11-8 19-16 27-32 4-7 5-10 6-19 3-14 4-54 2-70-4-40-15-77-30-98-8-10-21-19-37-24-10-4-38-8-54-9-19-1-30 2-47 15-17 12-24 20-40 43-7 11-8 13-12 24-7 19-8 39-2 60 5 23 6 42 4 70-1 12-1 13 1 17 2 6 8 10 20 16 5 3 11 7 12 8 3 3 3 4 3 7-1 5-3 8-6 10s-21 2-29 0c-12-2-36-3-61-2-23 2-29 3-36 7-9 4-17 14-22 25-4 10-6 31-6 54 0 18 0 23 3 42 1 11 4 27 5 36 6 41 7 52 10 61 2 10 4 13 7 15 1 0 10 1 20 2s19 1 19 2c0 0 2 0 5-1 2 0 39 0 82-1z"/></svg>