<svg xmlns="http://www.w3.org/2000/svg" width="1344" height="566"><path d="M0 283V0h1344v566H0V283m609 277h93c73 0 93-1 95-2 4-2 5-6 5-22 0-19-1-28-7-50-7-31-12-45-18-57-4-9-5-10-3-22l1-8-3-3c-2-2-7-5-14-8-6-3-20-9-30-14-11-5-22-10-26-11-19-8-30-14-33-16-4-4-4-9-2-23 2-12 4-25 7-53 1-13 1-21 1-40-1-13-1-27-2-31 0-4-2-15-2-25-1-10-2-21-3-25-1-3-2-11-3-18-3-21-15-52-26-70-12-18-28-31-50-43-18-9-25-11-35-12-10 0-19 1-37 8-3 1-10 2-16 3-14 1-22 6-35 18-25 23-36 52-49 119-13 68-15 89-15 123 0 15 0 23 2 31 2 17 2 25 0 29-3 5-9 7-22 8-8 1-13 2-22 5-11 4-23 10-34 16-3 2-12 7-19 11s-15 8-17 10c-6 3-9 9-9 18-2 13-3 19-9 37-3 9-7 21-8 27-1 5-4 18-6 28-10 39-12 49-9 54 1 1 4 3 6 4 7 3 42 4 79 3 45-1 71 0 145 2 28 1 129 0 130-1z"/></svg>