<svg xmlns="http://www.w3.org/2000/svg" width="1344" height="566"><path d="M0 283V0h1344v566H0V283m822 277c6-2 10-6 16-20l6-11 1-13c1-16 0-13 27-60 6-10 9-17 13-28 3-9 8-17 16-26 3-3 6-8 8-11 3-6 3-12-1-26-3-10-5-14-9-19-2-1-3-4-4-6-1-4-3-5-8-3-3 2-3 2-7 0-2-2-6-4-8-5-9-2-9-3-5-16 5-13 3-27-3-31-2-1-5-2-8-2-5 0-6 0-8 3-1 1-2 3-2 5 0 3-3 7-12 19-14 16-21 21-32 17-9-3-18 4-32 29-7 11-10 21-16 47-8 32-14 48-32 81-12 24-17 33-24 42-8 10-9 9-17-4-2-3-7-9-10-12-3-4-8-12-12-16-4-5-9-11-10-14-2-2-5-7-6-12-2-5-7-16-11-25l-8-16-7-6c-4-3-11-7-15-10-10-6-14-10-14-13 0-2 2-4 3-7 2-2 6-9 10-15 7-14 12-22 20-32 23-27 30-45 33-89 3-34 3-41 5-49 0-5 2-21 3-35 3-54-2-77-20-94-6-7-12-11-35-27-18-11-37-19-54-24-8-2-21-2-34 0-7 1-11 1-15 0-9-1-18-1-25 1-11 3-23 7-33 12-16 9-28 22-38 43-7 16-17 47-23 72-2 7-6 22-9 35s-7 28-8 35c-1 6-4 19-7 29-7 33-12 61-14 80 0 7-2 19-2 26-1 11-1 15 0 20 4 16 3 22-5 35-13 20-21 38-30 60-2 7-7 18-11 27-9 19-9 20-5 28 3 4 3 7 4 14 1 10 1 12 5 14 8 4 80 4 263 3 132-2 193-1 214 1 6 1 39 0 42-1z"/></svg>