<svg xmlns="http://www.w3.org/2000/svg" width="1344" height="566"><path d="M0 283V0h1344v566H0V283m887 275c6-3 9-15 9-45 0-11 0-24 1-29 1-10 0-28-5-59-2-11-4-24-5-29-1-13-4-24-7-33-1-4-3-11-3-15-1-4-3-11-4-14-2-4-4-12-5-18-5-29-8-38-17-56-4-8-14-21-22-29-5-5-8-7-17-11-13-6-17-10-21-18-2-6-1-12 4-36 3-17 4-37 1-46-5-13-16-27-28-32-12-6-19-7-32-7-10 1-13 1-16 3-3 1-8 3-11 4-4 1-9 3-11 4-5 3-21 18-27 26-9 12-12 28-9 49 1 6 1 8 3 9 3 3 5 11 5 25v9l-6 6c-6 8-10 14-14 28-2 6-6 15-10 22s-10 19-14 26c-4 8-10 17-13 21-3 3-7 8-9 10-4 7-14 16-20 20-4 3-12 9-20 14-7 5-15 11-18 13-7 5-20 9-26 10-18 3-31 3-53 2-20-1-23-1-28 0-9 3-9 4-9 14 0 15-1 18-6 23-5 6-5 10-1 17 3 7 7 9 12 10 4 0 6 0 13-4 10-6 14-7 29-8 30-3 28-2 51-11 3-1 8-2 10-2s7-1 12-2c17-5 37-7 40-4 0 1 1 4 1 7 0 6 2 11 5 15 5 5 8 14 9 25 0 10 1 11 4 15l3 4-2 4c-4 11 5 16 15 8 9-7 16-9 21-5 3 3 4 6 1 13-1 4-1 7 0 13 0 11 2 14 8 19 2 1 6 5 9 9 7 9 10 11 24 13 13 2 26 3 84 2 20 0 48 0 61 1 42 1 50 1 54 0z"/></svg>