<svg xmlns="http://www.w3.org/2000/svg" width="1344" height="566"><path d="M0 283V0h1344v566H0V283m1090 277c12 0 14-1 14-3 2-4-6-24-13-35-2-3-8-10-14-16s-13-15-16-18c-7-9-18-19-28-27-11-8-19-15-31-26-15-15-31-28-46-39-7-5-17-13-23-17-14-11-17-12-37-13s-24-2-35-13c-6-5-8-8-10-14-6-14-6-31-2-50 2-11 6-18 15-29 15-17 25-38 27-54 0-6 0-9-2-15-2-9-3-20-1-33 4-21 3-44-1-58-7-20-18-33-38-46-28-18-50-24-84-24-27 0-45 4-58 13-3 2-8 5-11 7-8 5-23 20-28 27-8 13-12 29-14 55-1 8-2 22-3 32s-2 21-3 26c0 5-2 16-4 25-2 15-2 17-1 27 1 11 6 41 9 49 1 6 12 33 17 41 2 6 9 11 18 17 7 4 11 8 11 11 0 4-8 10-19 16-38 19-53 28-74 43-30 23-48 39-58 53-4 5-10 13-14 17-12 16-16 24-22 41-7 23-7 26 0 29 3 1 10 1 63 0 80-1 193-2 236-1 20 1 72 1 116 2 44 0 89 1 100 1 19 1 46 1 64-1M68 558c13 0 38 0 55-1s37-1 44-2c7 0 13 0 15-1 3 0 4-4 4-14 1-10 0-19-5-32-3-9-4-17-10-56-7-41-14-77-18-91-3-9-12-28-17-36-8-11-18-21-34-34-8-6-16-12-17-14-6-7-5-13 3-29 7-13 8-17 7-26l-1-7 4-6c5-7 8-13 10-19 0-3 4-9 7-13 5-7 7-10 8-15 2-7 1-10-6-26-11-24-11-26-11-52-1-13-1-22-2-24 0-3-3-8-5-13-3-5-8-14-11-21C81 13 77 8 70 5S7 2 2 4C1 5 1 74 1 280v276l2 1c3 2 16 3 30 2 6 0 22-1 35-1z"/></svg>