<svg xmlns="http://www.w3.org/2000/svg" width="1344" height="566"><path d="M0 283V0h1344v566H0V283m733 181c2 0 7-1 11-1 7 0 21-3 28-5 2-1 7-2 11-2 9-2 21-5 39-10 4-1 9-2 11-3 2 0 6-1 7-1 5-3 17-4 34-4 9 1 18 1 20 2 3 0 4 0 6-2l3-2v-11c-1-6-2-14-2-17-5-19-6-28-5-52l1-20-4-8c-2-3-5-7-6-8-2-2-12-8-16-9-6-2-12-7-14-10-2-5-5-8-14-10-8-1-13-4-13-6 1-2 14-4 20-3 9 1 9 0 6-26-2-16-11-54-17-74-4-13-11-37-12-44-3-14-14-39-23-52-6-9-19-22-29-28-10-7-28-17-35-19-5-2-9-2-18-2-11 0-14 0-28 3-9 2-19 5-24 6-11 3-18 6-25 12-9 9-17 24-22 38-4 13-5 19-9 53-1 7-3 16-4 20-3 18-3 90 0 117 0 6-1 7-10 9-12 3-18 3-24 2-9-3-27-4-33-2-3 1-6 3-11 8-4 3-12 10-18 14-7 4-16 10-22 14-5 4-14 10-19 13s-11 8-14 11c-8 7-14 9-22 10-6 0-7 0-11 5-3 3-5 6-6 8-1 3-4 11-8 18-7 17-9 21-14 37-3 7-6 15-8 18-2 4-3 7-3 8 0 4 14 3 29-3 10-4 24-8 36-10 18-3 19-3 28-2 13 1 32 0 37-2 2-1 6-2 8-2 5 0 18 3 24 6 2 0 8 2 13 3 6 0 11 1 11 2 1 0 7 1 15 1 8 1 19 1 24 2 6 0 10 0 16-2 7-1 11-1 26-1 10 1 21 2 24 2 3 1 8 2 12 3 8 0 15 3 20 7 4 4 4 4 12 3 4 0 9-1 11-2z"/></svg>