<svg xmlns="http://www.w3.org/2000/svg" width="1344" height="566"><path d="M0 283V0h1344v566H0V283m1108 275c68-1 126-2 180-1h48c5-3 6-15 6-90s1-69-11-74c-4-1-10-3-13-5-16-6-57-18-72-20-5-1-24-6-32-8-22-6-31-8-40-11-14-5-15-8-10-21 3-8 7-32 10-58 0-5 2-12 3-14 1-4 1-6 0-11-1-9-9-35-13-47-9-23-10-25-28-52-6-9-14-23-18-32-14-27-27-41-56-60-40-26-56-30-107-23-25 3-32 5-38 8-3 2-11 5-18 7-8 2-17 5-24 8-9 5-12 6-19 14-9 9-21 25-29 39-8 15-21 52-24 72-2 14-1 37 2 64 2 16 4 23 8 36 3 9 5 19 6 22s3 11 5 17 5 16 7 21 4 12 4 14c3 8 4 23 3 28 0 3-1 6-1 8 0 1-1 7-3 12-2 6-3 11-4 18 0 5-1 11-2 12-1 2-7 9-14 17-18 19-23 25-28 33-13 20-18 37-16 56 1 5 2 10 3 11 2 5 8 9 12 10 3 1 62 1 131 1 70 0 127 0 128 1h8c4-1 29-1 56-2z"/></svg>