<svg xmlns="http://www.w3.org/2000/svg" width="1344" height="566"><path d="M0 283V0h1344v566H0V283m518 276c3-3 4-9 5-21 0-11 1-20 6-39 1-8 2-13 2-23 0-12 0-13-4-24-2-6-5-13-6-16-1-2-4-9-6-14-7-19-14-30-28-43-20-18-20-18-20-23 0-4 0-5 5-9s7-7 9-14c8-17 12-23 21-29 3-2 7-5 8-7 4-4 4-1 3-31l-1-19-4-6c-6-12-9-18-11-26-4-16-7-25-12-32-6-9-8-11-18-14-15-6-24-7-38-7-16 0-25 2-36 8-20 10-27 17-31 31-6 14-6 22-6 99v72l2 6 2 6-3 9c-2 5-5 14-8 19-4 8-5 12-6 18 0 4-2 13-4 20-4 14-6 21-7 44-1 12-1 18 0 20s1 5 1 9c-4 25-4 28-3 32 2 6-2 6 97 6 85 0 89-1 91-2m269 1c5-1 49-2 83-1 32 1 79 1 112 0 19 0 23 0 24-2 4-3 5-7 6-26 0-10 1-23 1-29 2-17 8-74 10-95 2-13 2-26 2-37 0-15 0-18-2-27-4-15-15-38-23-50-1-1-3-6-5-9-3-4-6-10-8-13s-5-8-7-11-9-11-16-19c-11-11-13-14-15-19-2-4-3-8-3-10 0-3-3-9-5-9-1-1-5-1-10-2-8-1-9-1-11-4-4-5-9-18-10-25 0-6 1-14 6-30 1-5 3-12 3-16 1-3 3-10 5-16 2-7 3-16 4-21 1-7 1-10 0-17-1-4-3-10-5-13-1-3-4-9-5-13-4-11-7-14-20-21-14-6-17-7-29-8-8-1-10-1-21 2l-12 2c0 1-4 2-9 3-14 4-23 9-32 18-11 10-12 13-13 28-1 8-2 16-3 22-2 5-4 15-5 21-1 8-2 15-4 20-6 15-6 19-1 27 1 2 3 8 5 14 5 13 12 27 16 31 3 3 6 5 12 7 15 5 18 7 23 13 8 9 8 11-4 25s-19 23-21 27c-1 2-2 7-2 11-1 12-3 18-10 35-13 29-13 31-25 86-1 5-3 12-4 15-3 10-5 19-12 54-1 10-5 24-6 33-9 40-10 43-7 46 2 3 3 3 13 3 26 1 37 1 40 0z"/></svg>