<svg xmlns="http://www.w3.org/2000/svg" width="1344" height="566"><path d="M0 283V0h1344v566H0V283m737 279c0-1 43-1 94-1 89 0 124-1 132-3 4-2 10-6 12-12 5-9 10-26 12-38 2-13 2-18 0-25 0-5-1-12-1-17s-1-9-1-11c-3-7-11-12-38-26-10-5-21-10-24-12s-17-9-32-16c-28-14-36-19-41-27-4-6-10-22-14-36l-2-10v-48c0-77-2-106-12-130-2-4-4-11-5-14-12-31-26-54-43-71-25-25-66-40-104-39l-13 1-12 6c-7 3-14 6-15 6-3 1-17 14-28 25-15 16-22 28-30 52-7 20-15 57-17 77-3 38-4 105-3 169 1 30 1 28-18 37-7 4-17 8-22 10-13 6-32 15-45 23-13 7-15 9-17 16 0 3-3 12-6 22-3 9-5 19-6 21 0 3-2 11-4 19-6 28-7 37-4 44 2 5 4 5 52 5 24 1 58 1 75 1 80 2 97 2 137 2h43z"/></svg>