<svg xmlns="http://www.w3.org/2000/svg" width="1344" height="566"><path d="M0 283V0h1344v566H0V283m719 277c5-1 24-1 97-2h120c17 1 60 1 96 1 64 1 66 1 68-1 3-3 2-8-3-25-10-32-13-38-27-60-12-19-18-27-32-41-16-16-38-31-61-41-23-9-49-23-65-34-9-5-30-17-38-21-13-7-27-11-43-13-11-1-15-4-18-9s-4-14-4-21c0-6 0-8 3-13 12-22 15-29 18-50 3-14 3-22 2-31-1-8-3-12-8-19-6-7-8-12-10-28-4-29-8-44-14-57-8-14-27-32-42-40-12-5-28-10-42-13-24-5-54-2-82 10-13 4-28 15-41 27-19 19-30 38-35 61-1 6-1 12-1 25 1 16 2 24 6 43 0 4 1 10 2 12 0 2 2 8 3 12 3 11 6 28 7 44 3 18 6 32 12 45 5 11 6 13 14 24 5 8 12 20 13 24 1 7-6 15-20 27-17 13-22 17-36 27-9 6-22 15-30 21-30 22-44 31-47 31-4-1-4-4 1-15 6-11 10-17 17-24 8-9 14-22 23-47 2-7 17-36 19-38 1 0 3-1 6 0 5 0 6 0 7-2 3-3 2-9-3-18-3-8-5-11-15-20-9-9-11-13-12-16-2-8-1-14 6-28 7-15 9-23 5-26-2-2-2-2-7 0-3 1-9 5-12 8-4 3-10 8-14 11-9 5-27 22-31 28-5 7-10 12-16 15-7 4-15 11-18 15-4 8-11 38-14 55-1 15-4 23-11 45-4 10-8 23-10 29-4 15-7 24-9 25-1 0-4-5-5-12-4-17-12-45-15-52-14-33-36-60-61-77-15-10-61-33-66-33-1 0-7-3-15-6-30-13-38-17-46-24-4-3-4-4-3-5s6-3 15-4c15-2 21-5 27-11 2-3 5-8 7-13 2-4 5-12 7-17 3-5 7-16 9-23 8-24 9-27 12-29 8-7 10-16 5-38-1-8-2-16-2-23 0-9 0-11 2-17 3-7 7-28 6-33-1-7-12-35-16-42-2-5-7-8-12-8-3-1-56-1-118-1C11 4 9 4 5 6L1 8v543l2 3c3 6 7 6 24 5 8 0 29-1 47-1 17 0 45-1 60-1 16-1 31-1 33-1h39c10 0 46 0 80 1h130c27 0 39 0 42 1 11 2 38 3 122 4 99 1 130 1 139-2z"/></svg>