<svg xmlns="http://www.w3.org/2000/svg" width="1344" height="566"><path d="M0 283V0h1344v566H0V283m842 279c18-1 22-2 25-7 2-4 3-14 0-23-1-7-13-31-21-46-3-6-9-14-13-18-3-4-9-10-11-14-2-3-6-7-7-8-10-13-26-34-31-41-4-5-12-15-19-24-27-31-32-40-37-62-2-8-3-16-3-19 0-4 0-6 4-9 2-2 7-7 11-10 10-8 19-18 21-22 1-3 1-7 1-12-1-8-1-9 2-13 9-13 9-13 9-18 0-6-1-11-6-21-5-9-8-13-15-17-6-3-6-3-15-3l-9 1-10-5c-8-3-11-4-14-4-7 0-10 1-29 12-12 8-16 10-19 10-2 0-7-2-14-5-12-6-14-6-20-3l-4 2-5-2c-2-1-5-3-6-5-3-4-6-21-7-42-1-26-2-36-6-50-9-35-30-57-64-66-14-5-24-6-38-6-21 0-34 4-60 17-20 10-31 21-40 39-7 14-8 22-8 51 0 24 0 25-2 33-2 4-3 10-3 13 0 6 3 16 8 27 6 11 9 15 21 27 11 12 12 14 14 33 1 13 1 13-7 26-6 9-30 34-37 39-2 2-6 5-8 6-1 2-7 5-13 7-6 3-15 7-20 10-5 2-11 4-12 4-3 0-16 6-22 11-3 1-10 6-17 9-6 4-13 9-15 11-6 5-13 15-14 19-2 6-4 53-3 58 3 16 4 27 1 66-1 18-1 22 3 28 5 9 14 14 32 15 15 1 53 1 66-1 20-3 445 0 448 2 1 1 20 1 38 0z"/></svg>