<svg xmlns="http://www.w3.org/2000/svg" width="1344" height="566"><path d="M0 283V0h1344v566H0V283m526 77c9-1 15-2 23-5 6-2 14-4 18-4 10-2 31-1 42 2 7 1 14 2 35 2 14 1 27 2 29 2 4 2 29 1 33-1 11-4 15-4 22-2 6 1 7 1 12 0 4-1 11-3 17-3 6-1 15-2 19-3s10-2 12-2 5 0 6-1 8-2 16-3c11-2 15-2 20-1 9 1 17 1 18 0 0-1 0-7-1-17-2-22-1-28 4-41 6-13 5-13 26-13 17 0 20-1 22-5 1-2 1-15 1-47-1-48-1-51-3-64-1-4-3-12-3-18-3-20-9-39-15-51-8-14-28-31-45-36-13-4-35-1-57 6-15 6-28 21-34 40-2 6-2 10-2 25 0 14-1 23-2 34l-2 16 2 17c2 13 2 21 2 31 0 14-1 20-4 24-2 2-3 2-6 1-2 0-8-1-14-1-15 0-37-2-47-3l-8-1-6 3c-4 1-10 4-14 6-15 6-20 8-25 11-2 2-6 4-9 5-5 1-6 1-17-1-13-3-19-2-26 2l-12 6-7 4-20 1c-22 0-23 0-26 6-2 6 0 11 5 15 6 4 6 5 3 17-6 16-9 32-9 40 0 4 0 7 1 7 1 1 13 1 26 0z"/></svg>