<svg xmlns="http://www.w3.org/2000/svg" width="1344" height="566"><path d="M0 283V0h1344v566H0V283m651 276c56-1 438-1 459 0h37c11-1 23-1 25-1 6 0 8-2 8-8 0-7-22-53-34-71-8-11-27-31-40-40-10-8-30-19-44-25-35-15-47-20-60-28-13-7-26-13-41-19-12-4-14-5-24-12-14-10-25-20-28-25-4-6-3-20 3-38 5-13 7-16 19-22 10-4 12-6 18-13 12-13 18-26 18-39 0-8-1-11-5-15-5-4-5-8-2-21 1-6 3-16 4-22 1-5 2-12 3-14 2-10 4-32 4-39-1-9-8-32-12-40-5-9-10-15-14-17-2-1-6-4-9-7-9-9-39-26-53-30-9-3-28-4-32-2-1 0-6 1-11 1-10 0-23 2-32 5-4 1-13 5-20 9-16 8-21 12-29 24-7 10-10 16-16 38-3 11-8 33-10 47 0 7-3 18-5 21-1 2-4 6-7 9-6 5-7 8-9 18-1 6-1 10 0 18 2 12 4 18 9 31 4 8 7 18 10 31 0 4 2 12 3 17 6 29 7 41 5 47-2 4-18 19-32 29-11 8-27 16-36 18s-9 3-42 17c-15 6-32 13-38 15-19 8-45 22-55 29-16 11-36 33-48 52-3 4-8 13-12 21-7 14-11 30-11 41 0 5 0 6 3 8 2 2 3 2 54 1 28 0 58 0 66 1 8 0 16 1 18 1 1 0 22 0 45-1z"/></svg>