<svg xmlns="http://www.w3.org/2000/svg" width="1344" height="566"><path d="M0 283V0h1344v566H0V283m1055 278c36-2 38-3 29-24-7-16-15-27-45-59-22-24-48-57-55-69-6-13-4-17 9-18 9-1 14-2 31-9 15-6 19-10 24-29 3-10 2-13-3-27-3-7-6-18-8-27-6-25-11-33-24-46-14-14-31-27-44-35-12-7-16-13-18-30-6-34-12-56-24-83-13-29-24-44-50-64-11-9-14-11-27-16-33-14-40-15-58-14-14 1-16 1-30 4-12 3-39 16-61 29-14 9-30 23-44 38-6 7-10 12-15 22-16 31-20 40-21 44 0 6 3 15 7 20 6 8 8 14 10 35 3 29 10 55 19 72 6 11 7 17 10 39 1 10 2 19 3 21 1 5 6 10 13 15 3 3 8 8 11 12s9 11 13 15c4 5 8 10 10 12 3 4 12 31 12 35 0 2-1 4-6 8-11 8-22 20-26 27-4 8-7 18-11 35-5 24-8 41-8 50-1 16-1 16 32 16h53c126 0 155 0 173 1 30 1 97 1 119 0z"/></svg>