<svg xmlns="http://www.w3.org/2000/svg" width="1344" height="566"><path d="M0 283V0h1344v566H0V283m697 280c70-1 133-1 140-2 16-1 19-2 18-9 0-6-3-21-4-26-1-2-2-6-3-9 0-8-3-14-9-27-5-11-8-21-8-31 0-5-1-7-2-10-2-3-10-9-21-14-4-2-17-8-28-14-11-5-27-13-36-17-43-19-55-25-58-29-6-7-6-39-1-86 1-5 1-17 1-26 0-16 0-19-3-35-2-10-5-22-6-27-2-14-16-59-23-74-10-24-24-46-40-62-25-26-55-39-90-42-17-1-25 1-46 12-9 4-20 10-24 11-9 3-15 7-22 14-14 16-27 43-32 74-5 26-6 41-6 91 0 58 1 82 8 135 3 23 4 29 1 31-1 1-5 3-19 7-2 0-11 4-18 7s-20 9-28 13c-16 7-38 18-44 21-5 3-5 5-5 21 0 20 2 25 17 36 5 4 11 9 14 12 19 15 36 25 54 32 21 7 22 8 30 11 19 10 24 11 96 12 28 0 51 0 51 1 0 0 5 0 10-1h136z"/></svg>