<svg xmlns="http://www.w3.org/2000/svg" width="1344" height="566"><path d="M0 283V0h1344v566H0V283m957 276c22-1 26-1 27-3 3-2 2-5-7-25-5-10-11-23-13-30s-7-19-11-27c-11-22-19-40-21-48-1-3-3-9-5-12s-9-16-16-29c-6-12-12-24-14-26-6-9-18-36-20-46-2-8-1-9 8-17 9-7 13-12 18-21 5-11 8-22 11-41 1-10 3-22 4-28 2-12 3-41 2-52-1-8-3-18-7-27-1-3-2-6-2-7 0-2-9-22-14-30-8-15-39-43-57-52-14-7-35-12-58-13-13 0-15 0-25 2-6 2-15 3-21 4-17 2-45 9-60 16-17 7-37 23-45 36-9 14-12 21-17 39-5 20-6 22-5 46 0 18 0 23 2 32 1 7 3 13 3 15 3 6 7 22 10 39 2 15 7 35 10 46 1 4 4 13 6 22 18 64 26 74 65 77 14 1 16 2 22 11 5 7 8 12 7 17-1 1-6 8-14 16-8 7-17 17-20 22-4 5-14 15-21 23-16 15-20 20-31 44-7 18-8 22-5 26 1 1 4 2 5 2 4 1 282 0 309-1z"/></svg>