<svg xmlns="http://www.w3.org/2000/svg" width="1344" height="566"><path d="M0 283V0h1344v566H0V283m818 277c64-2 90-3 112-4 12 0 32 0 44-1 30-1 132 0 166 1 14 1 33 1 42 1 14 0 16 0 18-1 7-6-2-30-26-70-12-20-22-31-45-49-17-14-28-18-65-28-31-8-54-14-87-23-16-5-34-10-38-13-7-3-9-11-7-32 1-17 3-25 5-29 2-2 6-5 11-8 7-3 11-7 18-14 9-9 10-10 16-23 9-17 11-28 11-42-1-13-4-18-15-25-2-1-5-4-6-5-1-3-1-15 0-29 1-6 2-22 3-34 1-20 1-27 0-46-2-27-6-52-10-60-3-7-10-14-16-17-12-4-19-4-134-5-64 0-115 0-124 1-23 1-27 4-37 25-9 18-16 42-19 65-1 12-1 20-1 65 0 59 0 60 9 94 3 10 6 25 8 32s6 22 10 32c8 26 11 35 11 39s-2 6-18 13c-12 7-15 9-20 17-1 4-6 11-10 17s-8 13-10 16c-5 9-19 30-26 38-6 8-13 14-27 23-5 4-12 9-15 12-11 10-30 25-56 44-11 8-21 16-22 17-1 3-1 3 0 5 2 1 9 2 114 2 154 1 202 1 236-1z"/></svg>