<svg xmlns="http://www.w3.org/2000/svg" width="1344" height="566"><path d="M0 283V0h1344v566H0V283m791 278c10-1 22-1 28-1h37c117-2 154-2 176-1 13 1 42 1 68 1 37 0 46 0 54-1 11-2 14-4 14-8 0-13-18-47-32-62-9-10-17-15-48-31-19-9-25-13-32-20-8-7-17-12-31-18-20-9-27-14-43-35l-11-11c-4-2-5-2-11-2-4 0-10 1-15 1-9 2-13 2-16-2-4-4-9-15-9-20 0-3 1-5 4-8 6-8 16-22 19-28 1-2 3-8 4-11 1-6 1-8 0-16-1-11-1-15 4-26 8-16 16-37 23-58 6-19 9-29 13-50 1-7 1-18-1-25 0-4-4-12-7-18-4-10-6-13-11-17-2-2-6-6-7-8s-5-6-8-8c-4-3-7-7-8-10-5-8-6-9-19-9s-15-1-22-10c-5-7-8-8-18-11-4 0-11-2-15-4-10-3-19-4-27-3-3 1-15 1-27 2-27 1-32 2-61 16l-20 9-14 14c-20 19-25 29-30 56-2 10-5 19-8 29-16 43-17 47-19 93-1 37 0 53 5 82 4 21 7 29 12 44 5 13 18 58 17 60s-11 7-34 17c-20 9-25 12-48 27-10 6-19 12-22 14-6 3-14 6-18 6-2 0-4 1-5 2-2 2-3 3-3 6 0 4-1 8-5 16-10 19-13 31-9 34 1 2 7 4 13 4 7 1 206 0 223-1z"/></svg>