<svg xmlns="http://www.w3.org/2000/svg" width="1344" height="566"><path d="M0 283V0h1344v566H0V283m989 147c0-1 1-6 2-12 1-9 1-12 5-20 2-5 4-10 4-12 1-2 2-5 4-8 1-3 3-8 5-17 1-7 3-17 4-23 1-7 2-17 3-24 0-11 0-12-2-20-3-9-6-14-15-24-5-6-7-10-10-26-1-6-3-14-3-18-1-4-2-11-3-15-1-10-5-22-6-25-1-1-2-3-2-5 0-1-2-6-5-12-5-10-13-20-21-25l-5-3h-13c-16 1-26 4-32 9-4 4-10 14-13 22-2 6-2 7-1 14 1 9 1 31 0 33-1 1-3 3-6 4-5 3-10 7-10 9 0 1-1 4-2 7-2 4-3 8-4 16-1 10-1 11-6 20-3 5-6 12-7 15-2 5-4 7-10 13-11 9-13 14-14 24-1 16 1 24 10 34 4 5 7 6 15 8 7 1 8 3 9 10 0 6 1 7 4 8s8 6 10 12c3 6 4 6 42 16 12 2 27 6 36 9 9 2 16 4 18 4 1 0 3 1 5 1 5 2 12 2 14 1z"/></svg>