<svg xmlns="http://www.w3.org/2000/svg" width="1344" height="566"><path d="M0 283V0h1344v566H0V283m858 276c6-1 14-2 18-3 3 0 10-2 15-2 10-2 21-4 37-8 6-1 16-2 22-3s14-2 18-3c6-1 9-1 16 0 20 2 28 2 29 1 1-2 2-35 0-41 0-2-1-6-1-9-1-3-2-9-3-13-1-8-3-41-3-61-1-17-1-17-9-26s-11-10-38-18c-13-3-17-5-22-11-4-6-5-6-3-11 1-3 1-3-1-5-2-3-6-5-12-6s-11-5-11-8c0-1 1-3 2-4 2-2 3-2 12-2 10 1 11 1 13-1l3-2v-10c-1-11-3-21-9-34-1-4-3-8-4-11 0-2-2-7-3-10-5-13-7-18-9-24-1-4-3-10-5-14s-4-11-5-15c-2-4-4-11-6-16s-4-10-4-11c-2-8-19-48-24-60-13-26-29-45-50-61-12-9-22-15-33-20-15-6-20-6-35-6-12 0-15 0-24 3-6 1-14 4-18 4-19 5-37 10-45 15-7 4-18 15-23 22-9 13-16 30-20 50-6 25-9 38-11 53 0 7-1 14-1 14-1 0-2 8-3 17-2 15-2 23-3 75l-1 58-2 2c-2 2-3 2-6 2-21-4-25-4-38 2-5 3-12 7-15 9-7 6-16 11-24 12-4 1-9 3-11 3-3 1-6 2-8 2-5 0-9 2-19 10s-12 9-23 13c-4 1-11 4-14 6-7 3-9 5-15 13-2 2-5 5-8 7-5 2-6 2-19 2-11 0-16 0-26 2s-12 3-12 5c0 1 1 2 5 4 2 1 6 4 8 6s3 3 3 7c0 2-1 7-2 9-5 14-14 38-16 43-4 9-6 15-12 28-5 10-6 12-5 14 1 1 5 1 21 1 19 0 33-1 49-4 3-1 14-1 24-2 11 0 21-1 24-2 2 0 7-1 10-1 4 0 7-1 11-3s8-3 12-3c4-1 9-2 12-3 7-2 11-1 38 6 34 8 50 10 80 6 18-2 75-1 90 2 22 4 29 6 39 13 5 3 6 3 16 4 6 1 24 1 39 2 16 0 30 1 32 1 3 0 9 0 16-1z"/></svg>