<svg xmlns="http://www.w3.org/2000/svg" width="1344" height="566"><path d="M0 283V0h1344v566H0V283m376 277c4-1 25-1 49 0h104c88 0 133-1 179 0 292 1 484 0 502-2 15-2 30-5 32-7 3-2 2-5-1-9-1-2-7-7-14-12-15-11-19-17-26-39-3-8-6-20-7-25-7-30-9-34-15-37-3-2-19-6-27-8-4 0-5-1-9-5s-12-19-15-30c-1-3-2-7-3-7-3-4-15-35-21-55-2-7-7-21-10-32-4-10-8-25-10-32s-4-15-4-18c-1-4-3-12-5-18-8-38-16-56-27-56-2 0-5 1-6 2-3 2-6 8-6 12 0 2 0 3-1 3-1 1-5-4-6-9-1-3-3-7-4-10-2-3-6-10-9-16-3-5-6-11-8-12-6-5-12-4-19 3-5 4-7 5-10 0-3-3-9-7-12-7-6 0-12 6-15 17-1 2-4 7-6 9-10 12-12 19-13 49 0 13 0 24 1 29 0 4 2 12 3 18 0 6 2 17 2 26 2 14 2 16 5 23 7 14 33 50 66 94 23 29 35 48 45 72 2 6 6 15 8 21 6 14 7 17 4 19-3 4-7 3-19-6-16-11-20-14-39-25-16-9-26-17-29-27-8-18-14-32-17-36-8-11-48-42-62-48-5-2-6-2-34-2-16 0-37 0-47 1s-21 1-25 0c-6 0-8-1-10-3l-3-3v-14c1-12 1-17 4-28 3-9 5-16 7-19 7-11 8-14 9-22 3-15 4-19 7-22 1-2 2-5 2-6 0-7-5-28-9-36-2-5-5-12-7-17-1-5-6-17-11-26-4-10-9-21-10-24-8-20-20-42-32-60l-8-12c-22-34-50-54-92-66-13-3-33-4-62-2-41 3-68 10-85 20-14 10-17 12-28 22-12 13-16 18-27 39-13 26-18 41-18 61v12l5 10c5 11 5 12 6 21 0 5-1 16-2 24 0 9-1 19-1 23 0 7 0 8 9 30 2 6 2 8 3 22 0 14 0 18 2 26 5 17 9 24 27 42 9 9 17 18 17 20 2 3 2 12 1 19-1 2-3 9-5 15-3 9-4 10-13 19-5 5-12 11-15 13-6 4-19 9-23 9-3 0-5-4-6-15-2-19-3-25-7-35-10-23-16-32-24-32-6 0-10 3-13 11-2 5-3 6-3 36 0 31 0 33-3 32-3-2-11-22-15-39-4-18-7-38-9-57-3-25-5-42-8-50-3-10-9-16-15-16-4 0-7 2-9 7-1 4-3 19-4 46-1 24-3 28-7 20-3-6-9-25-14-43-4-18-7-26-11-31-5-5-9-7-14-7-3 0-5 1-8 4l-3 3v14c1 7 1 18 2 24 2 21 3 32 2 32-1 2-5-2-5-4 0-1-1-4-2-6-1-3-3-8-5-12-1-4-4-9-6-11-3-4-4-4-9-5-10 0-15 5-15 16 0 10 8 52 15 74 3 13 3 16 0 16 0 0-6-7-13-15-15-18-23-23-32-20-9 4-8 17 4 41 4 8 42 67 50 77 1 2 7 10 13 18 12 19 15 23 22 28 9 6 13 6 53 5 19 0 38 0 42-1z"/></svg>