<svg xmlns="http://www.w3.org/2000/svg" width="1344" height="566"><path d="M0 283V0h1344v566H0V283m476 137c9-2 14-4 28-10l9-3 22-1h22c1-1 28 1 53 4 5 1 26 1 46 2 38 0 43 0 57 3 5 2 10 2 15 2 13-1 28-3 35-4 4-1 10-2 13-3 9-1 9-1 38-9 13-4 24-8 29-11 7-5 20-10 29-11 4 0 8-1 9-2 3-2 4-11 3-20 0-5-1-13-1-19 0-10-1-15-5-21-2-2-3-5-4-7-1-5-2-6-7-6-6 0-7-1-8-9-1-6-3-12-6-17s-4-17-2-22c1-3 1-4-1-12-1-5-4-15-5-22-2-7-5-20-7-28-2-7-5-17-5-22-13-60-33-90-73-105-10-3-23-6-30-6-9 0-26 2-35 5s-26 11-31 16c-8 6-17 17-22 27-9 18-10 34-12 102 0 21-1 38-1 39-2 3-5 3-12 2-11-3-18-1-31 10-14 11-18 16-25 28-6 13-9 16-23 27-10 7-43 24-52 27-3 1-9 2-15 2-8 0-10 0-12 2-3 2-12 20-19 37-2 6-5 13-6 15s-2 6-3 8c-2 8 0 9 14 11 13 2 21 2 31 1z"/></svg>