<svg xmlns="http://www.w3.org/2000/svg" width="1344" height="566"><path d="M0 283V0h1344v566H0V283m1168 277c5 0 8-1 9-3 2-2 2-2 1-8-2-9-16-45-20-51-4-8-10-16-20-28-15-18-22-25-34-33-10-7-38-21-50-26-3-1-19-9-34-17-16-7-32-15-36-16-11-4-12-4-13-7s-1-4 3-15c2-6 5-14 7-18 1-3 3-7 3-8 1-1 6-14 12-28 13-29 15-35 16-62 2-19 2-21 5-29 2-4 3-11 4-14 1-6 1-8-2-20-6-23-7-28-7-55 0-32-1-35-17-53-8-10-24-23-33-27-3-2-9-4-14-5-4-2-10-4-12-6-3-2-9-4-14-4-4-1-11-4-15-6-9-3-13-4-19-1-3 1-6 1-20 0-24-2-41 1-54 8-11 5-44 39-51 52s-11 36-10 61c1 13 2 22 9 50 5 23 12 55 14 69 2 12-2 40-8 54-2 6-3 7-11 12-4 3-12 9-17 13-13 10-16 13-30 20-12 6-29 12-32 12s-17 5-30 11c-7 3-12 5-12 5-1 0-15 6-36 15-9 4-19 8-22 10-13 5-34 17-43 24-12 9-23 20-35 36-13 18-28 51-32 73-2 6-2 7 0 10 0 2 2 3 4 4h35c38-1 83-1 107 0h60c65-1 425 0 428 1 4 1 56 1 66 0z"/></svg>