<svg xmlns="http://www.w3.org/2000/svg" width="1344" height="566"><path d="M0 283V0h1344v566H0V283m808 275c27-1 36-1 39-2 6-3 15-9 18-14 2-3 4-5 5-6 2-2 8-14 10-21 1-6 4-11 5-12 3-2 15 2 23 7 10 5 37 12 43 11 1-1 5 0 9 2 4 1 8 2 10 2 2-1 8 0 14 0 8 1 14 1 28-1 10-1 19-2 20-3s3-2 3-4c3-5 2-11-2-20-5-12-7-15-14-21-6-4-8-8-10-19 0-4-1-8-2-10-3-6-13-16-21-22-11-7-17-13-24-23-3-4-9-12-13-16-4-5-8-10-9-11-2-5-4-18-6-42 0-13-1-27-2-31-1-8-6-21-10-27-9-12-13-20-15-25-3-6-5-8-11-9-2 0-8-2-14-4-24-7-36-13-33-16 1-2 3-2 15-1 15 0 15 0 19-2 9-5 16-16 16-22 0-5-3-12-11-23-4-5-11-17-16-27-29-56-38-71-51-85-8-8-14-11-34-23-11-6-18-8-36-9-11 0-14 0-21 2-12 3-27 10-36 17-4 3-11 9-14 14-26 29-34 38-42 45-12 10-22 16-34 21-19 9-24 11-28 13-4 3-5 3-5 8 0 4-1 7-3 9-4 6-2 8 6 10 5 0 9 3 9 5s-5 11-14 23c-10 15-11 19-5 27 2 2 6 5 9 7 9 7 17 15 20 20 5 10 2 23-13 55-11 22-12 24-13 65 0 17-2 38-2 46-1 8-2 27-2 42 0 27 0 28 2 36 4 12 9 16 24 24 15 7 27 15 31 20 8 10 13 15 18 16 4 2 21 4 36 5 7 1 94 0 134-1z"/></svg>