<svg xmlns="http://www.w3.org/2000/svg" width="1344" height="566"><path d="M0 283V0h1344v566H0V283m698 279c30-1 53-1 85 0h62c25-1 24-1 25-15 0-5 1-11 2-12 0-2 1-6 1-11-1-7-1-10-4-15-2-5-3-6-10-11-5-2-11-7-15-11-9-8-38-26-62-38-10-5-19-10-20-10-1-1-3-2-4-3-6-3-51-40-54-44-2-4 0-20 6-43 4-15 5-16 27-38 18-18 21-21 24-28 5-12 6-14 5-45 0-51-2-71-8-90-9-28-16-39-34-56-19-19-34-24-70-27-17-1-30 0-40 2-11 4-30 18-42 32-9 9-12 15-18 27-13 24-15 44-11 77 3 21 3 51 0 68-2 11-5 24-8 33-1 2-2 6-2 8-1 2-4 10-7 16-5 10-8 15-13 21-10 11-13 12-35 16-19 3-38 9-48 13-16 8-22 24-22 57 0 31 6 70 17 101 4 15 7 19 11 22 3 2 24 3 108 4 111 1 111 1 154 0z"/></svg>