<svg xmlns="http://www.w3.org/2000/svg" width="1344" height="566"><path d="M0 283V0h1344v566H0V283m632 18c2-1 4-7 4-14 0-8 2-9 13-6 2 1 6 1 9 1 6 0 7 0 10 4 3 3 5 5 7 6 3 2 21 1 25 0 4-2 5-3 6-12 1-4 2-9 2-12 1-2 2-5 2-8 0-2 1-8 2-13 4-17 10-21 26-22 10 0 12-1 13-9 3-14 3-13-2-23-2-5-6-13-8-19-7-14-17-31-21-35-3-3-13-8-21-11-5-1-14-6-15-8s-2-7-2-14c-1-12-2-16-9-24-7-9-17-11-26-7-5 2-11 8-12 12-1 5 2 23 6 30 2 4 2 7 3 13v8l-10 10c-8 8-10 11-13 16-3 7-3 9-5 30-2 20-3 24-6 34-1 3-2 7-2 11s-1 10-2 15c0 4-1 10-1 13v6l7 6c3 4 7 8 8 10 2 4 9 13 10 13 0 0 1 0 2-1z"/></svg>