<svg xmlns="http://www.w3.org/2000/svg" width="1344" height="566"><path d="M0 283V0h1344v566H0V283m267 277c27 0 29-1 30-10 1-2 2-6 3-8 1-3 2-11 3-20s3-21 4-26c0-4 2-11 2-14 1-8 4-11 11-11 2-1 7-2 9-2 2-1 12-2 21-2 22-1 36-3 56-8 7-2 24-6 33-7 8-1 16-4 21-7 3-2 8-5 12-7 13-6 22-13 20-16 0-1-2-2-3-4-4-2-5-5-2-9 1-1 2-3 2-4-1-2-8-1-18 2-4 2-11 3-15 4-7 0-7 0-10-3-2-2-3-4-3-9-1-7-2-10-4-11-3-2-5 0-12 14-4 7-7 14-9 15-3 4-9 6-24 7s-18 1-40-1c-19-2-20-2-21-17-1-14-4-32-7-45-2-12-2-14-2-38 1-16 1-27 2-29 2-6 5-9 12-10 9-2 15-5 19-10 9-9 18-32 16-42 0-2 0-12 1-22 1-19 0-29-3-36-3-6-21-16-36-21-12-4-19-5-28-4-12 2-19 4-25 10-7 8-10 16-15 34s-5 20-12 27c-3 4-7 6-13 9-25 11-44 23-62 39-12 11-33 34-37 41-9 15-13 23-16 31-2 4-4 11-6 14-8 22-7 20-6 34 2 18 3 26 6 38s3 12 2 28c-1 21-3 28-11 32-5 4-10 14-11 23 0 6 0 6 4 13 6 11 25 32 31 35 2 1 7 2 20 2 10 1 20 1 23 2 6 1 51 0 88-1z"/></svg>