<svg xmlns="http://www.w3.org/2000/svg" width="1344" height="566"><path d="M0 283V0h1344v566H0V283m330 277c29 0 61 0 70-1 25 0 32 0 56 1 13 0 29 1 36 0 6 0 39 0 72-1h64c2 0 25 0 52 1 50 1 97 1 122-1 16-1 18-2 18-8 0-2 1-7 2-12 2-8 2-10 1-16-2-10-5-14-15-21-5-3-25-14-46-24-44-22-66-34-69-38-2-3-1-8 6-26 3-10 7-22 9-26 1-4 3-11 5-14 5-12 10-29 14-50 1-6 3-13 3-14 2-5 3-18 2-31-1-18-3-38-4-44 0-3-2-14-3-23-8-68-18-103-38-132-9-15-25-32-38-42-13-9-41-23-57-28-8-2-11-2-24-2-12 0-15 0-29 3-8 2-17 5-19 6-5 2-16 6-20 6s-17 5-23 9c-10 5-24 20-32 31-12 19-25 49-31 75 0 2-2 7-3 12-3 11-7 33-8 48-7 55-11 95-11 106 0 20 5 67 9 84 2 8 5 26 5 28 0 10-16 20-37 23-8 1-17 6-33 15-6 4-19 12-29 17s-22 11-26 14c-5 3-12 8-17 11-10 7-17 13-19 17-1 1-2 5-3 9s-2 12-4 19c-3 14-2 17 2 19 5 2 6 2 21 1 8 0 39 0 69-1z"/></svg>