<svg xmlns="http://www.w3.org/2000/svg" width="1344" height="566"><path d="M0 283V0h1344v566H0V283m624 276c69-2 189-2 214-1 24 1 156 3 207 2 35 0 38 0 40-2 3-2 2-5 0-12-3-9-8-16-18-27-4-5-11-13-13-17-6-7-13-14-34-31-17-13-26-21-38-33-5-4-10-9-12-10s-5-4-8-6c-2-2-6-6-10-9-4-2-11-8-17-12-19-14-24-18-27-19-5-3-13-4-24-4-15 0-20-1-29-8-7-5-8-6-12-14-8-17-10-30-8-46 2-11 7-26 11-32 6-8 14-20 18-28 9-16 13-39 10-52-2-6-2-16 0-28 3-27 0-53-10-72-13-24-46-46-80-52-18-4-48-4-66 0-18 3-36 13-51 27-20 18-27 35-28 67-1 7-2 21-4 31-1 9-2 21-3 26 0 5-1 16-2 23-2 11-2 16-2 28 1 9 1 17 2 19s2 7 2 11c2 11 5 24 11 39 11 29 16 36 30 46 9 6 12 9 11 13-2 5-7 9-42 28-23 12-35 20-66 44-27 22-57 58-68 84-4 6-7 18-7 21s4 7 7 7c3 1 32 0 116-1z"/></svg>