<svg xmlns="http://www.w3.org/2000/svg" width="1344" height="566"><path d="M0 283V0h1344v566H0V283m726 190c4-1 14-1 22-2 7 0 16-2 20-2 13-4 28-8 36-10 4 0 10-2 14-3s11-3 16-4c4-2 10-4 14-5 5-1 9-1 33-1 23 0 27-1 28-2 1-2 1-16-1-29-2-16-4-44-4-57 0-16-1-21-5-28-2-2-4-6-5-7-2-3-11-8-14-8-5 0-14-5-19-10-4-4-7-6-13-7-3-2-7-3-8-3s-3-1-4-2c-2-2-2-2-1-4 1-1 2-1 9-1 9 0 15-1 16-4 0-2 0-6-1-10-1-5-1-11-1-16 0-7-4-28-8-43-2-5-4-12-5-17s-4-14-6-22c-4-13-6-19-10-36-5-17-14-38-24-52-9-15-26-28-51-41-16-9-22-10-34-10-8 0-11 0-21 3-6 2-17 5-24 7s-15 4-18 6c-15 7-31 31-37 53-3 10-7 27-8 36 0 3-1 9-2 13-2 12-3 33-3 64 0 25 2 63 3 73 1 4-2 6-12 8-7 1-9 1-17 0-13-3-29-4-34-2-2 1-7 5-12 10-5 4-12 9-15 11s-11 7-18 11c-6 5-17 13-24 17-8 5-16 11-19 14-9 8-15 10-25 10-7 0-9 0-12 2-5 2-5 2-3 8 1 3 1 4-1 10-1 3-5 13-8 21-4 8-8 18-9 22-1 3-3 10-4 14s-2 8-3 9c0 1 1 3 4 5 4 3 4 3 16-2 8-3 28-7 42-8 7-1 13-1 14-2 1 0 6 1 12 2s12 1 16 1c4-1 10 0 13 0 5 1 5 1 9-1 3-2 4-2 12-1 5 0 12 2 16 3 3 0 11 2 16 3 6 0 13 1 16 2 4 0 15 1 25 2 19 0 20 0 29-2l10-3 10 1c6 1 15 2 20 3 10 0 30 4 34 7 2 1 5 3 7 4 2 2 3 3 4 3 0 0 4-1 7-1z"/></svg>