<svg xmlns="http://www.w3.org/2000/svg" width="1344" height="566"><path d="M0 283V0h1344v566H0V283m666 278c5-1 78-1 100 0 13 1 24 1 38 0 25-1 23 1 23-26-1-11-1-23-2-27 0-4-1-11-2-16-3-22-9-52-13-62-5-12-15-24-28-36-5-3-12-9-15-12-4-3-10-7-13-8-18-9-56-35-64-44-6-6-19-26-22-33-3-8-3-9 1-19 2-5 4-13 6-18 2-4 4-9 4-10 1-2 2-6 3-10 2-17 5-30 6-34 1-2 4-7 6-10 6-8 6-10 6-27 0-11 0-13-2-20-2-4-3-11-3-15-1-5-2-11-3-14 0-4-2-13-3-20-3-21-6-26-22-41-10-10-19-15-33-19-14-5-18-5-31-3-16 3-21 4-37 13-31 16-33 17-39 27-2 3-6 10-10 15-10 15-11 18-13 33-1 7-2 19-2 26 0 15-1 18-6 22-3 3-6 8-6 14 0 2 1 9 2 15 2 18 6 26 21 36 4 2 5 4 7 10 4 11 7 28 7 42 0 12 0 13-2 18-2 2-4 5-5 7-4 3-13 7-25 10-33 8-53 17-74 33-12 10-19 19-27 36-5 12-14 32-15 36 0 4-4 16-7 24-1 5-2 7-4 14-1 2-2 6-3 9s-4 10-6 15c-5 10-10 28-12 37 0 3-1 8-2 12-3 9-3 16-1 19 2 2 4 2 147 1 81 0 146 0 149 1 5 1 21 0 26-1z"/></svg>