<svg xmlns="http://www.w3.org/2000/svg" width="1344" height="566"><path d="M0 283V0h1344v566H0V283m697 279c3-1 21-1 45-1 42-1 59-2 64-5 2 0 4-3 6-6 3-4 3-5 3-16 0-12 1-14 8-32 4-11 4-11-1-36-3-12-4-23-5-34-2-32-3-42-10-88-1-6-3-11-5-14-3-7-12-17-20-22-7-6-14-13-16-17s-5-5-9-5c-5 0-11-6-21-22-1-1-2-4-2-7s1-5 3-7c3-2 3-3 2-9 0-6 0-8 2-13 4-12 5-25 5-40-2-30-8-42-28-55-10-7-16-8-36-8-16 0-18 0-26 3-16 4-28 15-35 28-3 7-3 8-3 16 0 9 1 19 5 41 0 5 1 11 2 15 0 3 1 8 3 12 9 21 11 26 9 30s-9 11-12 11c-2 0-5-2-7-3-6-5-10-8-15-11-2-2-5-5-6-7-5-8-11-15-13-15-1 0-1 1-1 3 0 1 0 8 1 17v23c1 3 1 7 0 8 0 1-4 3-9 5-8 5-9 6-13 17-4 12-5 14-10 29-8 23-7 22-14 42-4 13-8 23-11 29-8 14-9 18-9 31 0 16 3 25 13 37 3 4 6 7 10 9 5 2 6 2 16 2 9 0 12 0 18-2 4-2 7-3 8-3l2 2c1 3 1 4 0 12-1 4-4 12-6 18-1 5-4 14-5 20l-1 10 2 3c2 1 5 3 12 4s15 2 57 2c32 0 50 0 53-1z"/></svg>