<svg xmlns="http://www.w3.org/2000/svg" width="1344" height="566"><path d="M0 283V0h1344v566H0V283m714 278c158 0 159-1 162-3 2-1 4-3 5-4 3-5-1-53-6-69-1-3-3-7-7-12-6-8-22-23-32-30-11-8-37-25-51-34-11-7-17-13-26-28-9-16-14-27-15-32 0-5 2-12 14-32 12-21 15-26 24-38 10-14 10-14 13-28 1-7 3-16 4-21 9-29 11-43 11-73-1-30-3-41-12-58-8-16-21-33-36-46-15-12-26-17-47-20-7 0-17-2-23-3-15-3-21-3-35-2-15 1-25 4-36 10-12 7-19 12-29 22-23 25-30 44-35 90-2 18-4 26-10 34-5 7-6 13-6 26 0 21 6 36 23 54 7 7 8 8 10 15 3 8 4 23 4 27-2 7-16 24-36 41-19 17-24 19-86 37-35 10-50 16-57 19-6 4-13 11-18 19-4 8-33 70-36 78 0 1-3 8-6 14-15 34-17 40-13 44l2 2h61c34 0 77 0 97 1 19 0 42 1 52 0h176z"/></svg>