<svg xmlns="http://www.w3.org/2000/svg" width="1344" height="566"><path d="M0 283V0h1344v566H0V283m350 276c21 0 25 0 36 1 8 1 20 1 54 0h94c20 0 42 0 49-1 9-1 19-1 31 0 10 1 50 1 89 1 73 0 74 0 76-3 1-2 1-14 0-18-1-2-2-7-3-11 0-5-3-12-4-17-3-7-4-10-4-16 0-9-2-16-5-20-4-5-14-11-39-22-13-6-31-14-38-17-8-4-24-11-34-16-20-8-25-11-25-15 0-3 9-29 16-44 11-24 18-45 22-65 2-13 1-46-2-74-2-10-3-24-4-30-4-39-14-79-25-101-12-25-23-39-40-52-11-8-30-21-37-24-13-7-27-10-51-10s-30 1-52 10c-3 2-11 4-16 6-20 5-33 13-45 30-21 27-37 73-57 165-2 10-6 27-8 38-5 22-9 43-12 66-2 14-2 21-2 48 1 39 2 36-18 46-7 4-22 12-32 18s-24 13-32 17c-23 11-30 16-35 27-5 12-10 22-18 33-10 15-20 34-21 40 0 6 1 8 8 11 4 1 16 1 88 0 47 0 90 0 96-1z"/></svg>