<svg xmlns="http://www.w3.org/2000/svg" width="1344" height="566"><path d="M0 283V0h1344v566H0V283m498 278c39-2 49-3 51-3 1-1 29-1 61-1 33-1 66-1 73-2 10 0 16 0 25 1 15 3 50 4 70 3 9 0 38-1 64-1h137c55 0 59-1 60-2 2-3-1-6-26-22-22-15-33-21-41-25-11-5-21-10-26-15-4-4-19-22-22-26-4-7-3-11 8-37 12-26 37-77 43-84 10-13 13-16 24-22 6-3 13-8 16-11 13-10 26-32 29-51 3-16 2-23-5-29l-6-6c-1-3-1-13 0-18 1-4 7-34 12-66 3-15 3-21 3-34 0-15 0-17-2-25-4-12-7-18-15-31-9-15-12-19-24-30-20-17-27-18-86-20h-45c-9-1-29 0-45 0-37 1-42 2-52 10-12 10-26 36-35 66-7 21-10 34-12 56-2 25-4 34-6 37s-7 6-13 7c-5 1-12 8-14 15-3 8-4 25-2 38 4 21 9 30 24 45 12 12 13 13 12 26-4 40-7 58-16 77-2 7-11 19-14 21-4 2-21 2-35 0-20-4-19-4-47 24-12 12-24 23-27 26-4 2-11 5-16 8-13 5-33 15-38 19-5 3-34 19-39 21-2 1-8 4-15 7-6 4-17 10-24 15-21 11-39 25-43 32-2 5 0 6 13 7 16 1 48 1 66 0z"/></svg>