<svg xmlns="http://www.w3.org/2000/svg" width="1344" height="566"><path d="M0 283V0h1344v566H0V283m244 277c5-7 2-40-4-71-1-4-2-10-3-15 0-7-1-11-4-17-1-4-3-8-3-10 0-3 4-8 6-8 1 0 2-1 3-2 2-1 2-4 1-17-1-9-1-26-2-38-1-13-2-26-2-30-1-4-2-12-2-18-1-7-2-16-3-22-1-7-1-10 0-11s4-2 10-2c12-1 15-2 19-9 1-3 2-6 2-8 0-1 1-6 2-12 2-9 2-13 2-24l-1-14 3-4c1-2 6-8 10-13 9-9 11-14 12-22 2-10-3-14-17-16h-9l-6-6c-9-10-13-11-22-6-4 2-5 3-8 8-1 3-3 6-6 7-1 1-5 5-7 8-5 7-5 11-1 19 4 10 3 24-2 24-1 0-4-2-8-5-9-7-17-12-28-17-20-8-22-13-10-21 11-7 12-9 12-29v-13l-4-9c-2-4-5-11-5-14-2-12-5-21-8-25-4-4-13-8-23-11-11-3-27-3-35 0-14 6-19 9-23 18-2 5-3 7-3 13 0 12 1 15 7 21 4 5 7 9 16 21 2 2 6 8 9 14s7 14 10 18c4 8 4 9 4 16-1 12-3 26-4 29-1 1-4 4-6 5-6 3-10 7-11 14-1 6 1 9 8 16 9 8 12 14 16 22 4 7 9 17 14 23 4 5 7 12 11 21 2 6 2 8 1 11-2 5 1 13 4 13 1 0 6-2 11-4 9-4 10-4 17-4 4 1 8 1 9 2 3 1 7 11 7 16 0 9-1 26-3 30-1 4-2 6-6 8-6 5-8 8-9 15 0 8-1 10-6 12-4 2-5 2-11 1-6 0-8 0-9 1 0 1-1 6-1 12-1 11-1 12 3 24 12 36 23 61 37 79 6 7 7 8 31 8 17 0 17 0 18-2z"/></svg>