<svg xmlns="http://www.w3.org/2000/svg" width="1344" height="566"><path d="M0 283V0h1344v566H0V283m955 278c13-1 13-1 16-3 2-4 3-7 1-22-3-18-3-30-2-48 1-11 3-20 4-24 2-6 2-8 1-13-1-7-14-32-20-40s-23-26-30-31c-6-5-18-11-31-15-11-4-17-8-19-11-1-2-2-5-2-16-1-12-1-14-3-18-2-3-5-6-7-7-10-8-32-1-37 11-2 6-3 16-1 30 2 8 3 11 6 18l5 10-1 16c0 10-1 18-1 18-2 2-21 10-27 11-6 2-8 8-3 13 2 2 2 2 14 2 6-1 14-1 17-2 8-1 10 0 13 8 2 6 2 8 2 20 0 25 2 28 13 29 9 2 10 2 10 23 1 22 3 35 5 38 2 2 3 3 22 3h55z"/></svg>