<svg xmlns="http://www.w3.org/2000/svg" width="1344" height="566"><path d="M0 283V0h1344v566H0V283m688 277c5 0 15-5 18-8 7-8 13-48 9-65-1-4-3-10-4-14s-3-9-4-12-3-9-5-13c-3-7-4-10-4-18-1-14-2-16-20-24-7-2-16-6-21-8-12-5-25-10-45-18-9-3-18-7-22-9-3-2-7-4-9-4-6-3-11-8-12-12-2-8 0-26 6-49 2-6 4-15 6-22 3-12 5-33 4-42 0-3-1-8-2-12 0-4-2-12-2-19-3-19-6-32-13-56-4-16-16-44-21-54-2-3-6-9-8-13s-7-11-10-14c-5-7-21-21-32-28-12-7-31-18-37-19-7-3-24-5-34-5-11 0-26 3-32 7-2 2-7 4-10 5-3 2-8 5-12 7-3 2-9 5-14 8-26 15-43 51-52 107-8 44-12 84-15 133-2 26-1 40 1 51s4 16 11 27c5 9 5 12 1 15-3 3-3 3-20 9-19 6-25 10-47 26-16 11-20 15-29 19-9 5-17 12-19 16 0 1-1 6-2 10 0 5-2 11-6 20-8 19-15 49-15 69 0 4 0 6 3 8l2 2h53c29-1 60-2 68-2 9-1 17-1 17 0 2 1 22 1 141 1 56 1 102 1 103 1 0 1 131 0 135-1z"/></svg>