<svg xmlns="http://www.w3.org/2000/svg" width="1344" height="566"><path d="M0 283V0h1344v566H0V283m796 278c85-1 82 0 87-7 2-2 2-3 2-20-1-31-5-54-10-64-6-13-33-35-65-55-13-8-25-17-32-23-7-5-8-7-13-16-2-5-6-13-9-17-8-13-8-18-5-28 4-13 19-42 28-55 6-8 13-22 13-26 1-5 4-17 8-36 5-20 7-35 7-54 0-43-11-69-39-96-12-12-18-17-28-22-9-5-17-7-34-8-7-1-16-2-20-3-15-3-40-1-54 4-13 4-26 13-39 27-16 15-23 27-29 46-3 11-5 19-6 36 0 6-1 16-2 22-1 10-2 12-6 21-5 10-5 11-6 20-1 24 9 46 27 59 6 5 7 7 9 17 3 10 2 21 0 25-6 12-36 40-50 47-6 3-36 13-51 17-22 7-50 16-59 19-16 6-20 11-29 28-5 11-24 53-31 72-4 11-12 29-21 50-1 4-2 8-3 11-1 8-4 8 60 8 31 0 66 1 78 1h322z"/></svg>