<svg xmlns="http://www.w3.org/2000/svg" width="1344" height="566"><path d="M0 283V0h1344v566H0V283m296 276h63c4-1 11 0 16 1 7 0 20 1 48 0 32 0 123-1 164-1 6 0 47 0 92 1 87 1 103 0 106-3 4-3 3-10-6-37-3-11-3-12-3-22 0-16-1-19-21-29-12-6-43-21-51-24-4-1-13-5-22-10-9-4-16-7-16-7-1 0-28-13-32-16-2-1-5-3-6-5s-1-2 3-10c2-5 5-11 6-15s5-13 8-21c8-17 17-43 20-58 5-19 5-26 4-49 0-12-1-24-2-28 0-4-2-15-3-25-3-29-6-44-11-65-9-38-21-64-39-87-6-7-19-17-39-30-22-14-28-15-61-15s-47 2-55 8c-2 1-6 3-12 4-12 2-17 4-25 9-35 21-54 68-73 179-3 18-6 40-8 49-3 18-9 48-9 53-3 19-3 46 0 75 2 22 2 26 0 30-3 4-7 7-13 8-5 0-15 3-23 7-5 2-30 16-45 25-3 2-11 7-19 11-23 12-29 16-31 21-2 2-3 6-3 7-2 4-15 30-19 37-2 3-6 9-7 13-6 13-6 18 0 20 3 1 28 1 124-1z"/></svg>