<svg xmlns="http://www.w3.org/2000/svg" width="1344" height="566"><path d="M0 283V0h1344v566H0V283m478 278h41l3-2c1-2 2-4 2-5 1-40 1-43 2-50 2-5 2-10 2-22v-16l-4-10c-2-5-6-13-8-18-7-19-9-23-15-31-7-12-16-23-25-31-13-10-14-18-5-28 2-3 6-9 9-17 7-15 13-22 21-27 9-5 11-8 11-16 0-3 0-10-1-15s-1-13-2-18c-1-8-1-10-4-14-8-14-8-13-15-37-3-10-9-21-14-27-5-5-11-8-28-13-12-3-29-3-41 0-19 5-40 19-48 32-1 3-4 9-5 14l-2 8-1 68c0 38 0 74 1 81v12l4 5c4 4 4 5 3 7-1 7-5 21-9 28-1 5-3 11-4 15-1 3-2 13-4 21-2 9-3 19-3 23-1 3-2 12-3 19-2 13-2 13 0 20 1 4 2 13 2 19 1 9 2 14 3 17 4 8 1 7 47 8h90m312-1c5-1 88-1 116 0 18 1 38 1 76-1 26 0 27-1 29-6 2-4 4-19 5-37 0-13 1-25 5-52 8-57 9-76 9-96-1-13-1-16-4-26-3-13-14-35-22-47-2-3-6-10-9-15-9-14-18-27-30-39-12-13-14-17-16-27-1-3-2-7-2-8-1-2-1-2-13-4-9-2-12-3-15-9-7-14-7-24-2-45 2-6 4-15 5-20 1-4 2-9 3-10 0-2 2-8 4-15 4-17 4-28-1-42-8-22-13-30-27-36-16-8-37-11-51-7-19 5-33 10-40 13-6 3-21 17-24 23-2 5-2 6-2 10 1 7 0 15-3 27-2 5-4 14-4 21-2 9-3 16-6 24-2 6-4 13-4 15s1 6 3 10 4 11 6 16c3 8 9 20 14 28 3 4 8 7 22 11 7 3 9 4 13 9 9 9 9 14-1 25-9 10-20 24-22 29-1 2-3 9-3 15-2 11-3 13-9 29-11 25-15 38-20 63-2 6-4 15-5 20-1 4-3 12-4 17s-2 10-3 11c-1 2-6 29-11 53-1 6-5 23-8 37s-5 26-5 28 1 4 2 5c2 2 3 3 14 3 20 1 35 1 40 0z"/></svg>