<svg xmlns="http://www.w3.org/2000/svg" width="1344" height="566"><path d="M0 283V0h1344v566H0V283m490 127c3 0 14-5 25-10 10-5 20-9 21-9s3 2 4 4c2 5 8 7 18 6 8 0 23 2 54 5 9 1 50 2 76 1 11 0 16 0 19 1 2 1 9 2 16 2 10 1 13 1 21-1 4-1 13-2 18-3 4-1 13-2 18-4 4-1 11-2 13-3 3-1 6-1 7-2 2-1 14-4 28-8 8-1 15-2 27-3 16-1 16-1 19-3 2-3 2-4 2-10 0-13-4-43-6-47-2-3-3-12-3-21-1-13-4-18-15-23-8-4-10-7-10-16 0-5 0-6 4-10 3-3 4-4 4-6-1-5-9-38-13-55-3-10-6-21-6-26-2-11-5-18-13-33-16-30-26-40-54-54-20-10-31-10-58-4-24 5-30 8-39 17-13 12-22 34-26 64-3 22-6 39-7 40 0 1-1 6-2 12-5 42-4 39-17 39-10 0-12 1-21 8-14 12-21 20-26 30-3 6-6 13-8 15-3 6-20 22-25 25-2 1-11 4-18 7-8 3-16 6-19 6-2 1-8 3-14 3-6 1-12 3-14 3-3 2-7 9-12 21-2 3-5 11-8 18-2 6-5 13-6 16l-2 6 2 2c2 2 4 2 21 2 11-1 22-1 25-2z"/></svg>