<svg xmlns="http://www.w3.org/2000/svg" width="1344" height="566"><path d="M0 283V0h1344v566H0V283m1185 277c9-5 16-13 16-19 0-5-12-16-31-31-18-13-62-52-64-56-3-6-2-26 1-44 0-3 1-12 2-20 1-7 2-20 2-28 3-32 1-83-4-128-4-29-7-42-18-89-7-30-16-51-28-67-8-10-22-24-33-31-19-13-52-26-73-28-8-1-10-1-19 2-15 4-21 5-30 6-25 3-60 25-77 47-15 19-22 35-26 54-3 13-2 35 3 53l2 10-1 21c-2 25-2 52 0 64 0 5 2 18 4 30 5 33 4 47-2 50-7 4-24 7-41 8-7 0-23 2-34 3-35 3-43 4-60 3l-15-1-8 2c-19 7-35 16-46 29-3 3-10 12-14 18-10 15-12 17-19 22-16 10-32 24-40 35-7 9-9 15-13 28-2 10-2 11-2 27 1 17 2 22 5 24 1 1 6 3 11 4 8 2 9 2 141 3h155c12 1 36 1 53 0 23-1 58 0 116 0 47 1 106 1 133 1h49l5-2z"/></svg>