<svg xmlns="http://www.w3.org/2000/svg" width="1344" height="566"><path d="M0 283V0h1344v566H0V283m357 277h339l11-2c9-2 11-2 13-5 2-2 2-3 2-10-1-5-2-10-4-14-2-5-2-7-3-20 0-14 0-15-3-23-2-4-5-11-6-15-2-5-6-14-9-20-5-11-5-12-5-21 0-14 0-14-25-25-36-16-45-20-56-24-17-7-40-18-42-20-4-7 3-41 16-69 5-14 6-18 7-36 0-13 0-18-2-30-1-8-2-15-3-15 0 0 0-5-1-10-1-9-8-40-11-49-1-3-2-7-2-8 0-5-13-40-20-54-9-18-20-31-38-45-11-9-45-24-59-27-3-1-12-1-20-1-12 0-14 0-18 2-2 1-7 4-12 6-5 3-13 7-19 9-12 4-23 12-31 18-14 13-28 49-35 84-5 30-10 76-11 99-1 6-2 21-3 31-1 15-1 27-1 44 1 22 1 23 4 37 5 19 6 23 4 27-3 3-14 8-32 14-15 5-19 7-30 14-20 14-35 24-48 31-15 9-17 11-18 23-1 8-2 12-5 20-5 13-8 25-11 41-6 28-6 39-1 43 1 1 13 1 61 1 34-1 90-1 127-1z"/></svg>