<svg xmlns="http://www.w3.org/2000/svg" width="1344" height="566"><path d="M0 283V0h1344v566H0V283m1340 277 2-2V307c0-234 0-252-1-254-3-2-11-2-24-1-12 1-16 3-20 9-5 9-6 9-23 14-3 1-8 3-10 5-5 2-6 4-9 9-4 8-3 6-2 43 1 32 1 38 4 48 3 14 10 35 14 42 3 6 11 11 21 16 8 4 9 5 9 10 0 6-4 12-18 26-10 10-14 15-16 20-4 7-9 21-12 31-1 8-10 32-12 36-5 11-6 24-8 71 0 31-1 44-4 49-4 9-17 23-26 29-14 10-15 10-25 6-4-1-12-4-18-6-16-6-21-7-23-4-4 3-3 7 4 14 8 9 8 11 0 19-4 4-9 9-12 11-6 5-6 9-2 11 3 1 81 1 90-1 7-1 22 0 31 2 3 1 15 1 46 1h42l2-3m-786 1c4-2 6-5 8-11 4-9 4-12 1-17-3-3-3-5-3-10 0-13-5-16-25-18-14-1-16-2-18-8-2-5-1-21 0-26 1-2 2-6 2-9 1-3 3-9 5-12 2-6 2-10 3-19 0-7 0-12-1-15-1-2-2-6-2-9 0-4-1-9-2-11s-3-9-5-15c-3-12-7-23-12-29-4-5-18-16-28-24-10-6-10-9-3-18 2-2 5-7 6-10 4-9 7-12 13-15 10-4 12-9 14-29 1-13 1-20-1-25-1-3-2-10-2-21-1-26-5-38-13-45-14-11-48-20-64-17-17 3-29 9-37 18-4 4-5 6-8 15-6 19-6 21-9 102-1 26-2 42-4 49-1 3-5 10-9 18-9 16-11 22-12 28-1 2-3 9-4 15-5 12-6 18-6 31-1 16-3 26-6 37-2 8-2 12-2 25 0 14 0 19 2 29 3 12 7 24 10 31 1 2 4 6 7 9l6 5 85 1h86c1 2 25 1 28 0m242-1c39-1 66-1 100 0 21 1 57-1 61-3s6-7 7-22c1-8 2-14 2-15 1 0 2-11 4-23 3-22 7-44 9-47 1-3 6-32 7-48 6-71 6-75-4-98-6-15-17-36-27-50-4-7-8-13-9-14-2-4-11-16-17-23s-12-17-12-21c0-1-1-4-2-6-1-5-5-7-10-7-4 0-12-5-15-9-10-15-11-30-3-68 6-29 5-39-7-59-6-11-10-15-19-21-11-7-15-9-30-8-11 0-14 0-21 2-10 3-26 9-31 12-6 3-18 15-21 20-2 5-2 7-2 18 0 9-1 18-3 26-1 7-2 17-2 22-1 6-2 13-2 16-3 9-2 11 2 17 2 3 5 9 8 14 5 13 13 27 15 28 1 0 4 1 8 2 8 1 17 6 19 9 2 4-1 10-11 23-11 14-13 17-14 26-1 6-2 9-8 21-9 17-14 28-18 41-1 5-3 10-3 11-1 2-8 30-10 42-2 9-3 15-9 38-2 6-5 22-8 34-2 13-5 27-6 30-2 4-4 13-5 20s-3 15-4 17c-2 6-3 47-1 49 1 2 3 2 9 2 4 0 8 1 10 1 3 2 17 3 27 2 4 0 25 0 46-1z"/></svg>