<svg xmlns="http://www.w3.org/2000/svg" width="1344" height="566"><path d="M0 283V0h1344v566H0V283m478 277c27-2 182-5 200-3s47 3 60 2c24-2 215-3 269-2 30 0 32 0 33-1s1-2 0-4c-5-5-56-36-67-41-4-2-16-7-28-13-21-10-22-11-29-18-20-22-22-26-16-38 1-4 4-11 7-18 16-39 32-71 43-88 5-9 6-9 16-14 5-1 10-4 12-6 8-5 18-17 25-29 9-16 12-25 13-39 0-13-1-17-8-22-6-6-7-8-4-29 3-20 5-28 9-53 3-21 5-45 3-55-1-6-3-10-12-30-7-13-13-25-15-28-5-6-20-20-25-22-9-4-23-4-116-4-81 0-89 0-96 1-10 2-13 4-16 10-1 3-5 9-8 14-9 17-20 45-24 66-2 10-5 34-7 54-2 21-4 25-11 27-8 1-15 7-18 15s-4 27-1 40c3 20 10 32 23 45 5 5 9 10 10 11 4 7-1 64-6 81-5 12-10 22-15 26l-4 4h-9c-5 0-15 0-24-1-10-1-17-1-19 0-5 1-11 6-22 19-27 32-38 41-64 52-4 2-11 6-15 8-5 3-19 11-31 18-12 8-25 15-29 17-3 2-9 6-14 8-5 3-11 7-15 9-3 2-9 6-13 9-4 2-11 7-14 10-12 9-9 10 18 12 28 1 42 1 54 0z"/></svg>