<svg xmlns="http://www.w3.org/2000/svg" width="1344" height="566"><path d="M0 283V0h1344v566H0V283m1337 279c1 0 3-2 4-3 1-3 2-19 2-250 0-274 1-251-7-251-6 0-17 4-26 8-17 8-26 18-33 32-2 5-2 5-2 25 2 53 5 73 15 95 7 14 8 16 12 20 3 3 10 8 18 11 6 2 9 4 9 6 0 4-10 16-30 34-10 9-11 11-15 19-5 10-7 16-12 35-3 13-9 32-14 43l-3 8-1 37c0 42-1 52-4 59-3 5-14 19-23 28-6 6-16 13-19 13-1 0-7-2-13-5-11-4-19-7-25-8-2-1-3-1-6 2-5 3-4 7 3 14 5 6 4 11-3 19-2 2-3 4-3 5 0 2 1 3 26 3 14 1 29 1 33 1 15 0 22 0 58 1s56 1 59-1m-780-1c2-1 2-2 1-5 0-2-2-5-4-7-1-1-2-3-2-4s2-4 4-6c5-4 5-5 5-10 0-9-5-12-22-12-14 0-16-1-18-7s-1-24 2-32c1-4 3-10 5-14 2-6 2-8 2-20 0-15-1-26-5-38-1-3-3-8-4-12-2-7-6-19-10-25-3-7-16-18-31-28-6-4-9-7-9-10 0-1 2-4 5-7 4-4 6-8 9-14 4-9 7-12 15-17 3-1 5-3 6-4 2-4 5-20 6-33 0-10 0-13-1-16-1-2-2-10-3-17-1-18-4-33-7-40s-8-11-19-16c-29-13-54-14-75-4-14 7-21 15-25 31-4 15-5 26-8 91-2 49-3 59-7 68-2 5-5 9-6 11-5 6-12 22-13 28-1 2-3 10-5 16-4 15-5 17-6 34-1 9-2 18-3 25-3 8-4 16-5 31-1 6 1 24 3 36 3 15 7 22 14 25 3 1 12 1 66 2 52 0 84 0 136 2 5 0 7 0 9-2m260-2h35c6-1 30-1 53 0h43c2-1 7-2 12-2 14-1 13 0 15-21 1-9 3-24 4-34 1-9 2-20 2-24 1-4 2-15 4-25s3-22 4-28 1-11 2-11c1-3 5-51 5-68 0-21-12-48-42-96-5-6-14-19-17-21-3-3-11-15-14-20-1-2-2-5-3-8-1-8-4-11-14-13-8-2-10-3-14-8-7-9-8-13-8-24s2-28 4-32c1-1 2-5 2-8 1-3 2-9 3-13 3-11 3-22 0-32s-10-24-15-31c-4-7-14-13-24-17-13-5-36-2-60 8-12 4-16 7-24 14-9 9-11 13-11 28-1 7-2 16-3 21-1 4-2 13-3 20-1 6-2 17-3 23l-2 12 3 6c1 3 5 10 7 16 4 10 9 20 12 23 2 3 9 6 19 8s15 5 17 10c1 4 1 5-2 10-2 4-7 10-11 14-10 12-12 15-15 26-2 6-5 15-8 21-6 14-16 38-17 44-1 2-2 9-4 14s-4 13-4 17c-1 4-3 14-5 21-6 29-10 47-13 61-2 9-4 20-5 25-5 19-8 32-9 41 0 4-1 10-1 12-1 2-1 11-1 20-1 19-1 20 6 20 2 0 6 1 9 2 6 1 8 1 91-1z"/></svg>