<svg xmlns="http://www.w3.org/2000/svg" width="1344" height="566"><path d="M0 283V0h1344v566H0V283m924 276c34-2 50-3 62-6 8-2 16-6 19-10 1-2 4-4 6-5 15-9 24-16 24-19 0-2-3-5-5-5-1 0-9 2-18 6-9 3-18 5-19 5-4 0-10-3-11-5-2-4-17-22-19-23-1-1-7-1-14-2s-14-1-16-2-5-1-8-1c-2 0-7 0-10-1-4 0-11-1-17-2-7-1-13-2-15-3-4-1-7-6-7-11-2-11-14-15-28-9-20 8-20 8-37 25-14 13-16 14-39 20-12 3-13 3-16 2-3-2-6-9-27-51-7-15-18-38-25-52-6-14-12-26-13-28 0-2 0-3 5-7 6-4 10-8 14-14l7-7c6-3 19-15 30-26 4-4 8-8 9-8 2 0 8-6 10-9 0-2 2-8 3-15 3-17 5-22 11-36 3-7 6-14 7-15 1-4 12-30 15-35 1-3 6-12 10-19 9-16 11-21 8-27-1-1-6-7-10-11-4-5-12-14-16-20-15-21-34-37-62-51-22-11-40-15-58-15-14 0-24 1-39 6-13 5-14 5-28 17-22 19-32 33-46 59-13 26-20 36-31 42-5 3-16 8-24 10-25 5-31 9-45 26-13 17-14 19-14 27 0 12-2 22-5 32-3 7-4 12-4 16 0 5 0 5 7 13 5 5 8 9 8 11 1 4-1 11-11 26-11 19-15 28-26 54-2 5-7 17-11 26-8 17-8 17-8 25 0 4 0 14 1 22 1 15 1 15-1 18-1 2-3 3-6 3-5 0-9-2-19-9-5-4-10-8-13-9-12-8-15-10-17-13-1-2-4-5-7-7-6-5-44-44-47-48-1-2-2-4-2-6 0-1 2-9 5-17 3-9 6-20 8-26 3-11 3-12 3-25-1-16-3-27-6-33-1-2-5-7-8-10-4-4-7-8-8-9 0-2 1-7 3-14 2-10 2-12 2-26 0-12 0-16-1-19-2-3-7-8-10-9-4-1-13 7-21 19-3 4-6 7-7 8-3 1-4 6-5 18 0 6-1 12-2 13-2 3-9 6-20 7-7 1-10 2-14 5-9 7-20 23-25 38-3 9-8 36-10 58-1 11-2 17-5 22-3 6-6 9-11 11-5 1-9 5-9 9 0 1 2 4 6 8 14 16 18 23 20 35 2 11 17 36 29 49 2 2 5 6 6 9 4 8 10 15 15 17 6 3 26 8 36 9 5 1 43 2 102 2 64 0 97 1 105 2s27 1 92 0c46 0 90-1 99-2 23-1 61 0 75 1 27 3 151 3 194 1z"/></svg>