<svg xmlns="http://www.w3.org/2000/svg" width="1344" height="566"><path d="M0 283V0h1344v566H0V283m554 277c4-1 9-1 18 0 14 1 121 1 124-1 7-2 8-5 9-45 1-31 2-37 4-37 1 0 17 0 36-1 19 0 39 0 45-1 5 0 16-2 25-2 8-1 17-3 21-3 15-4 19-5 26-6 5-1 10-1 12-2 1 0 5-1 8-2 6-1 27-10 36-15 5-3 15-11 19-16 2-2 5-7 8-11 5-10 5-12-4-30-7-15-18-30-29-41s-17-16-31-22c-16-8-21-11-31-22-11-10-16-13-26-16-11-2-17-4-24-8l-6-4c-1 0-5-2-10-5l-10-5h-17l-12-6c-23-12-39-21-41-24-3-3-4-6-5-25-2-23-8-50-16-68-10-21-30-40-54-49-14-5-52-13-63-13-16 0-41 9-61 23-16 10-22 16-29 26-20 32-29 49-35 73-2 6-4 11-5 12-3 3-12 10-25 19-14 9-15 10-25 17-27 19-42 28-62 36-8 3-16 7-19 9-10 7-23 24-27 37-4 12-5 45-1 60 3 10 12 28 19 36 1 1 4 5 6 9 2 3 6 8 9 11 9 10 10 14 11 30 1 9 1 19 0 30-2 23-2 43-2 45 1 2 2 4 4 5s8 1 63 2c33 0 75 0 93 1 37 1 66 0 74-1z"/></svg>