<svg xmlns="http://www.w3.org/2000/svg" width="1344" height="566"><path d="M0 283V0h1344v566H0V283m424 278h123c66-1 142-2 199-1 37 1 78 1 91 1l23-1 3-3c2-2 3-4 3-5s-2-8-3-15c-3-9-4-18-5-24-1-20-6-27-28-35-4-2-14-6-22-10-16-8-33-15-48-21-6-2-13-5-16-6-6-3-11-6-13-10-4-8 3-54 11-76 8-21 14-41 16-52 0-7 1-15 2-19 2-15 0-84-4-132-3-36-10-59-23-79-13-19-26-27-68-40s-59-17-78-17-26 2-54 15c-29 14-43 22-51 29-14 15-32 53-39 83-3 15-10 55-11 67-4 32-5 46-7 58-3 24-5 38-6 50 0 6-1 16-2 22 0 6-2 20-2 31-3 35-4 42-6 54-3 15-6 22-14 30-7 7-22 19-29 24-4 2-7 4-8 5-4 3-23 16-29 20-9 5-23 15-26 17-3 3-5 7-8 19s-4 18-1 20c2 2 14 3 49 2 18 0 55 0 81-1z"/></svg>