<svg xmlns="http://www.w3.org/2000/svg" width="1344" height="566"><path d="M0 283V0h1344v566H0V283m728 279c10-1 14-3 16-6s2-20 0-34c-1-5-1-15-2-22-1-21-5-26-30-45-43-32-47-35-50-42-2-4-1-9 2-26 3-19 6-33 12-51 4-13 7-26 9-38 2-9 4-26 5-32 0-3 1-9 3-13 1-4 3-11 4-15l4-12c1-4 1-8 0-22 0-13 0-18 2-34 2-14 2-20 2-30-1-22-6-41-12-54-5-10-14-23-20-29-11-10-33-22-45-26-4-1-16-4-28-8l-22-5-22-1c-24-1-29-1-40 2s-15 5-23 10c-17 12-30 23-39 35-7 10-18 31-22 43-1 5-4 15-7 23-3 9-6 21-8 27s-4 17-6 23c-7 28-11 59-12 110 0 18-1 34-1 35-1 1-1 5-2 10-1 8-3 14-7 17-1 1-13 8-27 15l-26 13-19-1h-20l-6 3c-4 2-14 6-23 9s-18 7-20 8c-10 5-23 21-33 40-4 9-7 14-10 17-6 5-22 15-41 26-21 12-24 14-25 17-1 1-2 8-3 16s-2 17-3 21c-3 10-2 11 7 18l7 6h444c87 3 121 3 137 2z"/></svg>