<svg xmlns="http://www.w3.org/2000/svg" width="1344" height="566"><path d="M0 283V0h1344v566H0V283m984 279c4 0 6-1 8-3 5-5 5-14 0-60-3-31-3-31 4-43 5-9 8-14 9-19 0-5 2-8 8-16 6-9 9-12 14-14 9-5 38-12 61-16 20-4 44-8 56-10 13-2 16-3 26-7 11-5 18-14 15-19-2-4-4-4-31-3-17 0-28 0-35-1-5-1-14-1-20-1-9 0-11 0-20 3-14 5-47 9-54 7-2-1-8-2-11-3-11-2-18-4-27-9-11-5-13-8-17-20-2-5-8-18-13-30-4-10-9-23-11-28-3-11-8-24-10-31-5-11-4-17 3-24 4-3 9-6 18-9 13-4 18-8 26-20 2-3 6-10 10-15 15-23 16-29 16-59-1-38-5-51-18-63-14-14-40-21-61-17-10 2-17 5-27 13-8 6-12 10-16 17s-5 14-5 33c0 21-2 29-8 43s-17 29-24 33c-2 0-7 2-12 2-12 2-17 4-20 15-2 6-6 11-21 31-16 21-21 30-28 49-6 14-7 20-6 43 1 18 1 22-1 44-2 27-5 45-7 47s-5 0-6-3c-1-4-6-28-6-36-1-4-1-13-2-21-3-42-14-107-24-142-15-50-29-73-55-90-31-21-75-31-100-23-7 2-25 10-41 17-22 10-34 26-45 58-2 8-2 9-2 31-1 37 2 97 6 122 2 23 9 56 14 73 1 3 2 9 3 13 1 11-1 13-14 14-6 1-11 2-16 5-5 2-11 4-14 5-13 4-60 20-64 22-8 4-11 10-17 39-1 5-3 12-5 16-4 9-6 8-11-4s-6-19-7-49c0-15-1-31-2-35-1-3-1-15-2-26-1-21-2-24-6-44-2-7-4-16-5-19-4-23-10-44-15-56-4-8-4-12 1-19 6-10 9-14 14-17 8-3 15-10 21-21 3-6 8-13 11-16 8-11 9-15 7-28-1-3-1-15-1-26 0-19-1-21-3-25-4-9-17-18-35-26-16-7-27-9-46-7-22 2-31 6-37 20-5 10-6 22-7 55-1 26-1 29-3 34-2 6-7 11-15 15-6 4-9 8-12 17-2 3-4 8-6 10-14 16-18 24-21 39-1 5-5 18-9 30-11 33-13 41-20 86-11 67-11 67-15 98-2 15-4 31-4 36-1 5-2 15-2 21 0 11 0 11 2 13s4 3 10 4c14 2 169 0 194-2 10-1 12-1 15 0 2 1 38 2 256 2 204-1 255-1 258-2 4-1 5-1 9 1 4 1 9 1 30 2 26 1 65 0 73-1z"/></svg>