<svg xmlns="http://www.w3.org/2000/svg" width="1344" height="566"><path d="M0 283V0h1344v566H0V283m741 278c2-1 7-1 21 0 20 1 97 1 107-1s13-6 13-21c0-13-2-24-10-47-9-24-16-45-19-56-1-5-3-12-5-17-4-14-16-61-18-67 0-4-2-12-3-20-2-16-4-21-9-25-1-1-9-5-16-8-13-6-19-10-19-13 0-2 4-5 6-5 3 0 8-3 9-5 1-1 1-4 1-7-1-5-3-6-29-34-10-10-14-16-14-22 0-2 1-9 2-15 3-14 4-21 1-32-4-25-23-44-48-48-7-1-22-1-33 1-31 6-40 10-50 20-4 4-6 8-7 11-1 5-1 13 1 21 2 12 4 29 3 35 0 4-1 7-2 8-1 2-7 6-14 9-13 8-19 12-22 19-1 2-3 13-5 22-4 19-7 25-14 35-5 6-14 20-15 24-2 7-7 15-11 20-8 8-8 9-16 44-1 6-2 12-2 19 0 10 0 11 3 16 2 3 5 8 8 10l4 4h8c13 0 21-3 40-14 9-5 17-9 17-8 3 0 4 5 5 16 2 22 3 37 4 78 0 35 0 44 2 46 2 5 8 6 31 7 11 1 21 1 21 2h35c26-1 36-1 39-2z"/></svg>