<svg xmlns="http://www.w3.org/2000/svg" width="1344" height="566"><path d="M0 283V0h1344v566H0V283m776 278c14-1 17-2 17-7 0-1-2-10-3-19-6-28-7-35-8-49-1-7-2-17-2-22-1-4-2-12-2-16-1-3-2-8-2-10-1-2-1-9-2-15-3-27-7-44-13-53-3-5-30-31-33-33-1-1-8-6-15-11-7-6-14-12-17-13l-7-7c-1-2-5-4-7-6-11-6-27-27-33-42-3-8-3-17 0-25 5-13 7-19 7-24 1-3 2-8 2-11 1-2 2-7 3-10 1-6 1-6-2-13l-4-7 1-11c0-6 1-18 1-26 0-14 0-16-3-25-5-16-13-30-22-38-5-5-17-12-28-16-5-3-9-3-18-4h-12l-10 4c-29 13-31 15-41 25-9 8-10 10-16 21-6 12-6 12-6 18 2 16 2 35 1 40s-2 7-6 10c-6 5-6 5-4 19 1 11 5 22 8 28 1 2 4 5 7 8 5 3 6 4 11 13 3 6 5 11 5 13s1 7 3 10 3 9 4 12c2 11-1 15-12 18-2 1-7 3-10 3-11 4-32 14-39 19-21 18-26 29-44 93-2 9-7 23-10 33s-6 20-7 23c-1 4-2 9-2 12-5 19-6 27-3 58 1 24 2 28 5 30 4 3 32 4 110 4h77c0 1 38 1 84 1 70 0 87 0 97-2z"/></svg>