<svg xmlns="http://www.w3.org/2000/svg" width="1344" height="566"><path d="M0 283V0h1344v566H0V283m534 277c34 0 72-1 84-1 30-1 63-1 118 0 23 1 72 1 109 1h66l4-3c5-4 9-5 17-7 6-1 7-1 13 1 4 1 8 3 10 4 2 2 5 2 23 2 23 0 26 0 36-6 2-2 8-7 11-10 4-3 8-7 11-8 6-5 15-14 17-17 3-6 1-18-6-29-5-9-7-10-12-8-4 2-6 4-8 10-1 3-3 7-4 8-2 1-2 1-4-1-2-1-6-6-9-11-9-13-11-14-19-6-4 4-5 5-8 5-4 0-11 3-13 5 0 1-1 4-1 7-1 6-3 8-9 10-4 2-7 2-13 2-15-2-29-7-34-11-1-2-5-4-7-6-5-2-5-2-7-12-2-9-3-12-7-15-3-3-4-3-9-3-3 0-7 1-9 1-2 1-6 2-8 3-5 1-29 15-38 21-19 13-22 15-32 18-10 4-16 5-20 2-1 0-3-4-5-8-3-7-18-33-32-56-17-29-39-69-39-71s3-6 5-8c1-1 3-4 5-7 2-4 5-7 10-10 8-4 19-14 29-25 4-3 9-7 12-9 10-6 11-9 15-29 2-13 4-16 10-30 4-8 8-18 9-21 2-4 5-12 7-17 5-14 12-29 20-42 4-6 7-12 8-14 0-4 0-5-14-20-4-4-10-12-14-17-11-16-30-34-50-46-16-10-42-20-57-22-17-3-45 1-60 8-17 7-30 17-40 30-17 21-19 24-29 43-21 40-28 46-71 57-6 1-12 3-14 4-5 3-14 12-24 24-8 10-11 15-12 22-1 6-5 18-9 28-2 6-3 21-1 25 1 2 5 6 9 9 10 9 11 11 8 20-1 4-4 10-7 14-15 27-20 37-30 67-3 8-8 20-11 27-3 6-7 14-8 18-2 8-1 20 2 27 2 5 2 7 2 31 0 23 0 26-1 28s-2 3-3 3c0 0-8-6-18-13-9-7-19-14-23-17-3-2-9-7-13-11-5-3-11-8-18-11-8-5-11-7-21-17-6-6-16-16-22-21l-10-10v-4c1-5 6-21 12-40 3-10 3-13 4-23 0-14-1-27-4-37-2-7-3-8-8-13-11-11-11-12-8-23 1-4 1-9 1-23 0-19-1-26-6-30-6-5-13-1-23 13-3 4-7 10-9 11-4 5-5 9-4 21 0 10 0 11-2 13-2 1-6 2-14 4-7 1-14 3-16 4-6 3-17 15-21 24-6 13-7 17-9 36-3 27-7 47-9 52-2 4-8 10-13 13-2 0-6 2-10 2-7 1-19 7-21 10s-1 4 10 26c10 20 19 35 29 45 8 8 27 23 32 26 6 3 11 4 34 7 16 2 24 2 84 3h88c18 0 25 0 32 1 10 2 37 4 46 3h68z"/></svg>