<svg xmlns="http://www.w3.org/2000/svg" width="1344" height="566"><path d="M0 283V0h1344v566H0V283m483 115c5-2 11-3 13-3 5 0 26-3 38-6 3 0 12-2 18-4 14-3 22-3 36 0 16 3 74 5 134 5 23 0 25 0 38-2 16-4 26-6 37-10 5-1 11-3 14-3 21-4 23-4 33-1 4 0 9 1 13 1l5 1v-8c0-5-1-12-2-16 0-4-1-16-1-26-1-11-1-24-2-29-1-11 0-13 6-15s6-3 4-7c-1-4-1-4 1-14 3-13 5-35 5-49 0-40-5-83-13-111-2-9-11-26-17-34-6-7-9-10-25-19-20-11-31-14-50-10-6 1-14 2-18 3-18 1-35 14-43 33-7 13-8 20-9 57-1 49-1 88 1 96 1 6 1 7 0 9-2 1-3 1-23-6-13-3-20-4-26-3-2 1-10 2-18 2-13 1-19 2-24 7-4 3-5 5-7 17-1 5-2 10-3 12-1 4-5 8-7 8s-4-4-5-9c-1-3-1-7-2-8 0-1-1-3-2-3-2-1-4-1-8 1-3 3-5 3-8 3-7-1-15-3-17-4 0-1-1-3-1-7 0-6 0-6-4-10-4-3-5-5-10-13-2-2-4-4-10-7-7-3-8-3-17-3-12 0-17 1-19 4-3 3-10 24-11 34-1 7-1 10 1 16 2 12 1 21-4 25-1 1-6 4-11 6s-11 5-13 7c-4 5-8 12-8 16 0 3 1 4 6 7 3 1 7 3 8 4s3 2 5 3 3 2 4 4c1 4-1 15-5 27-7 22-9 29-7 32 1 1 3 2 9 2 4 0 8 1 9 1s7-1 12-3z"/></svg>