<svg xmlns="http://www.w3.org/2000/svg" width="1344" height="566"><path d="M0 283V0h1344v566H0V283m627 276c33 0 60-1 61-1 1-1 113-1 130-1 23 1 171 3 214 3h51l2-2c2-2 2-2 1-8-3-9-8-18-19-30-5-6-11-13-13-16-6-8-15-17-28-27l-42-35c-14-13-19-17-42-35-39-29-36-28-59-29-15 0-16 0-21-3-11-6-14-9-19-19-9-16-12-33-9-48 3-12 7-23 10-28 10-16 16-25 20-31 9-18 12-36 8-53-1-5-1-8 0-22 3-28 3-46-3-61-7-21-16-32-37-46-21-15-38-21-65-23-17-2-42 0-54 3-17 4-33 13-47 26-10 10-15 17-20 27-5 11-8 23-8 41-1 8-2 21-3 29s-3 20-3 28c0 7-2 17-3 22-2 14-2 34 1 50 4 22 8 35 14 51 10 26 14 32 26 40 9 5 12 9 12 13 0 7-5 11-22 20-36 20-44 24-63 39-33 25-50 41-68 65-15 20-21 30-26 45-4 10-2 16 5 17 1 1 15 1 31 0 16 0 55-1 88-1z"/></svg>