<svg xmlns="http://www.w3.org/2000/svg" width="1344" height="566"><path d="M0 283V0h1344v566H0V283m740 278c5-1 11-1 13-1h53c62 0 68-1 73-9 4-10 1-33-9-55-3-9-9-27-10-33-1-2-2-5-2-7-2-5-7-22-10-32-2-7-9-35-13-52 0-4-2-10-3-14s-2-9-3-12c-1-15-3-29-5-31-2-5-7-8-21-14-8-4-16-8-18-10-2-1-5-4-8-5-7-4-25-22-29-29-4-8-4-15-1-19 4-5 7-13 7-20 1-3 2-10 3-14 3-12 5-25 4-31 0-8-3-17-6-22-5-10-19-22-32-28-10-5-25-5-46-2-18 3-24 4-34 9-10 4-16 9-20 16-3 6-4 16-2 26 2 6 3 16 7 39 0 3 0 5-2 8-3 4-4 4-11 5-7 2-17 7-22 13s-7 12-10 29c-2 13-4 19-12 31-2 4-5 8-5 10-1 2-4 5-7 8-4 3-6 6-8 11-3 5-6 11-11 16-13 15-16 22-21 45-2 11-3 18-3 26 0 9 0 10 3 15 2 5 4 6 9 8 5 3 7 3 14 3 11 0 20-2 30-8 3-3 8-6 12-9 12-8 16-9 18-5s5 59 6 99c0 17 0 29 1 32 1 1 2 4 4 5 4 4 18 8 27 8 3 0 9 1 11 1s21 1 42 1c30 0 39 0 47-2z"/></svg>