<svg xmlns="http://www.w3.org/2000/svg" width="1344" height="566"><path d="M0 283V0h1344v566H0V283m825 278c58-1 98-2 163-1 22 0 59 0 82-1 53-1 56-2 56-11 0-7-16-51-25-69-2-4-5-10-7-15s-4-11-5-14c-3-4-11-15-18-22-3-3-8-11-12-17-5-6-10-15-13-19-13-17-19-29-21-39-2-6-3-11-3-12 0-3 3-5 11-7 4-1 9-3 13-5 10-4 19-7 25-7 4 0 5 0 8-4 5-5 6-8 7-18 3-14 3-16-2-27-6-14-7-18-11-36-4-20-7-27-16-35-3-3-10-8-14-11-4-2-10-6-14-9-4-2-10-6-15-8-25-11-31-14-35-18s-12-19-12-22c0 0-2-8-5-17-6-17-21-47-30-63-7-10-29-33-38-38-3-2-9-5-13-6-15-5-22-5-85-5-59 0-60 0-66 2-20 6-20 6-35 21-8 8-17 17-20 21-7 8-17 25-22 37-3 6-9 16-16 27-8 11-13 19-13 22-2 4-2 10-2 18 0 15 0 15 10 39 3 7 5 14 6 16 1 3 3 9 6 14 4 8 4 9 8 10 3 1 6 4 15 12 12 13 16 18 20 28 3 7 3 10 6 34 1 5 2 12 3 14 1 6 8 13 16 16 3 2 7 5 11 10 3 4 9 10 12 13 14 11 22 22 22 29 0 2-4 12-11 28-10 22-11 25-17 32-5 5-9 11-11 16-5 9-13 35-16 52-2 7-4 16-5 20-4 17-4 23 0 25 2 1 41 2 59 1 8 0 39 0 69-1z"/></svg>