<svg xmlns="http://www.w3.org/2000/svg" width="1344" height="566"><path d="M0 283V0h1344v566H0V283m65 276c22-1 49-2 59-2 22-1 33-2 71-1 23 1 28 1 32-1 4-1 6-1 15 0 8 2 14 2 38 1 15-1 37-1 49-1 20 1 21 1 22-1 3-2 3-3-4-34-6-26-9-40-20-85-11-40-12-46-18-57-14-29-34-51-56-64-13-8-17-10-32-16-14-6-27-11-35-15-10-5-27-12-34-15-18-7-42-21-50-29-4-4-4-6-4-10 0-2 2-13 4-23 3-10 6-24 7-30 2-6 4-13 5-15 2-4 10-12 12-12s15-13 19-19c7-12 11-28 11-45-1-12-2-14-11-19-9-6-8-5-8-30-1-24-1-27-8-30S8 2 3 5L1 6v550l3 2c3 3 4 3 12 3 5-1 27-1 49-2m619 0c27-2 141-2 204-1 59 2 182 3 196 2 10 0 13-1 14-2 1-2 1-11-1-18-6-28-11-38-27-62-26-40-41-53-82-74-7-4-21-11-31-16-18-10-32-18-45-26-8-5-37-22-43-25-7-3-17-6-23-6-15-2-18-7-18-34 0-16 2-24 10-47 10-29 13-38 15-49 3-15 2-18-3-31-3-8-3-9-4-31-1-20-1-24-4-35-6-23-16-38-35-51-14-9-36-18-57-23-22-4-49-4-70 1-16 4-42 16-55 25-10 8-20 21-26 33-8 17-9 28-6 61 1 17 1 28 1 54-1 52-1 56 27 118 2 6 9 18 14 27 5 8 9 16 9 17 0 4-14 18-38 36-6 5-13 11-16 13-5 5-20 15-42 28-26 17-30 20-40 26-4 3-15 10-23 15-30 19-44 30-54 46-14 21-15 29-4 30 10 1 233 0 257-1z"/></svg>