<svg xmlns="http://www.w3.org/2000/svg" width="1344" height="566"><path d="M0 283V0h1344v566H0V283m304 276h45c18 0 24 0 30 1 4 0 25 1 49 0h88c29 0 49 0 57-1 10-1 19-1 38 0 36 1 163 2 169 0 2-1 4-2 5-3 2-4 0-14-7-38-2-6-2-10-3-19 0-14-1-17-8-22-8-6-47-24-64-31-4-2-14-6-22-10s-15-7-15-7c-2 0-32-15-35-18-4-3-5-6-1-12 1-3 4-9 6-13 4-11 8-22 11-27 5-10 15-37 18-53 8-30 8-44 0-104-1-8-2-17-2-20-2-15-10-53-15-68-3-8-8-20-12-30-7-14-22-37-29-42-12-10-38-27-47-32-12-5-16-6-50-5-27 0-30 0-37 2-5 1-10 3-13 5s-7 3-11 4c-18 3-30 9-42 21-19 19-32 47-43 95-6 22-7 30-14 69-3 20-7 43-9 51-12 67-13 72-11 103 1 13 2 27 2 31 1 5 1 13 1 16 0 7 0 7-4 12-4 3-5 4-10 4-5 1-16 5-23 8-3 1-15 8-28 15-12 8-28 17-36 21-9 5-18 10-22 13-6 3-7 4-9 10-7 15-16 33-20 39-3 4-7 11-9 16-6 13-6 18 0 20 3 1 51 1 132-1z"/></svg>