<svg xmlns="http://www.w3.org/2000/svg" width="1344" height="566"><path d="M0 283V0h1344v566H0V283m674 277c77-1 74-1 200 0 110 0 146 0 148-3 3-2 3-19 0-31-1-5-2-16-3-24-3-39-3-47-3-61 0-15-1-16-4-22-6-13-13-18-34-26-4-2-10-4-12-6-2-1-11-5-20-8-17-7-23-11-28-19-2-3-2-5-2-7 1-2 1-9 2-15 0-6 1-11 1-12 2-2 5-35 6-53 1-17 0-57-1-63-2-6-4-21-7-36-4-29-5-34-8-44-6-25-19-48-35-64-17-17-44-31-71-38-17-4-26-5-40-2-22 4-64 17-74 22-3 1-8 6-13 10-7 8-8 10-15 23-7 15-10 23-12 35-1 3-3 13-5 21-5 22-5 24-6 43-1 12-2 20-3 25-2 9-5 31-5 42 0 5 1 13 3 20 1 7 3 18 4 25 3 32 4 37 13 49l3 6-2 5c-4 7-5 8-20 6-17-2-27-1-46 5-7 2-16 5-19 6-9 2-29 6-36 7-18 1-18 1-24 7-3 2-7 6-9 7s-5 2-6 3-9 6-17 11c-26 16-31 20-35 30-6 10-16 15-33 15-6 0-18 1-28 1-21 2-24 3-25 12-1 2 0 4 2 8 5 6 5 9 3 17-1 4-2 7-2 8s-2 7-5 14-6 14-7 17c0 2-3 7-5 11-2 5-3 8-3 11 1 4-1 3 18 6 14 2 30 3 44 2s19-1 26 2c5 1 9 1 22 1h50c14 1 105 3 108 2 1 0 33 0 70-1z"/></svg>