<svg xmlns="http://www.w3.org/2000/svg" width="1344" height="566"><path d="M0 283V0h1344v566H0V283m198 271c11-5 17-10 22-19 3-6 13-18 18-22 1-1 7-4 12-7 17-9 19-10 21-12 1-1 3-6 4-11 2-4 5-13 7-19 2-5 4-11 5-14 1-5 3-8 7-13 5-7 8-8 17-8 6 0 8 0 9-2 2-2-4-13-14-23-9-9-13-11-28-13-5 0-11-1-12-2-6-2-12-1-17 2-5 4-11 12-13 17-5 13-6 18-6 29-1 15-2 18-10 21-4 1-10 3-14 5-10 4-12 4-15 0-4-5-11-10-31-19-32-15-38-18-40-20s-7-5-12-7c-5-3-11-7-15-9-3-2-10-6-14-8-10-5-13-9-20-23-6-11-13-18-21-23-5-3-6-3-18-4-11 0-12 0-16 2l-3 2v86c0 78 0 86 2 89 1 1 2 2 3 2 4 0 20-16 32-31 5-8 12-16 14-18s5-7 7-10c8-14 17-25 23-29 3-1 6-1 21 0 21 0 22 1 25 10 2 5 8 16 21 42 4 7 7 15 8 19 1 5 4 12 6 17 1 4 3 8 3 9 0 2 12 15 15 17 4 2 8 1 17-3z"/></svg>