<svg xmlns="http://www.w3.org/2000/svg" width="1344" height="566"><path d="M0 283V0h1344v566H0V283m892 90c1-1 4-3 7-4 2-1 4-3 5-4s2-7 3-12c0-6 2-14 3-18 0-5 1-15 1-27 1-23 0-24-10-37-4-5-8-11-10-14-3-7-4-21-2-33 1-7 1-11 0-13s-2-7-3-11c-3-16-4-21-8-29-5-10-9-14-16-18l-6-3h-16c-15 0-17 0-20 2-5 3-12 10-15 16-2 5-2 7-2 25 0 22 0 21-10 25-11 4-14 9-15 25 0 15-1 18-4 21-1 2-4 6-5 8-2 6-6 10-17 19-5 4-10 9-11 10-4 7-5 34-2 41 3 5 10 7 27 8 6 1 13 2 20 4 11 4 31 9 33 9s12 2 29 6c12 3 34 7 39 7 2 0 3-1 5-3z"/></svg>