<svg xmlns="http://www.w3.org/2000/svg" width="1344" height="566"><path d="M0 283V0h1344v566H0V283m664 275c58 0 425 0 444 1h42c27-1 28-1 27-9-1-7-16-40-29-62-12-19-32-39-54-54-6-4-39-21-44-23-8-2-43-18-56-26-8-5-22-11-38-17-13-5-25-13-41-27-9-8-11-12-11-21 1-9 5-27 9-34 3-8 6-11 17-15 18-9 33-29 35-48 2-11 1-14-5-20-3-4-4-5-4-8 0-4 2-18 5-31 4-15 7-39 7-51s-1-17-7-35c-3-9-11-22-15-25-2-1-6-5-9-8-12-10-41-28-57-33-9-2-24-3-29-1-2 1-7 1-11 1-10 0-24 2-32 5-14 5-39 18-43 23-12 15-17 24-21 40-2 4-4 10-4 11-2 4-5 20-6 29-2 13-6 33-7 37-1 2-4 4-6 5-9 6-12 13-12 29 0 15 2 23 10 40 5 9 7 15 9 24 1 6 3 14 3 17 6 23 8 51 5 57-3 5-26 25-41 34-11 7-17 10-28 13-4 1-12 4-17 6-13 5-35 15-56 24-50 21-69 33-91 58-23 27-39 59-41 82 0 7 0 8 2 10l2 3h54c29-1 60-1 69 0 9 0 21 1 28 0 7 0 28 0 47-1z"/></svg>