<svg xmlns="http://www.w3.org/2000/svg" width="1344" height="566"><path d="M0 283V0h1344v566H0V283m740 278c12-2 24-6 27-8 1-2 2-4 3-8 0-4 0-5-2-8-3-2-3-3-2-12 0-9 0-9-4-17l-4-8 1-14c0-7 1-18 2-24 0-5 1-21 3-34 2-26 3-48 1-62-2-16-16-49-27-63-3-4-8-11-12-15s-7-8-8-10c-2-5-2-7 14-50 2-4 2-9 3-21 0-9 1-22 2-30 2-23 0-38-10-65-5-15-10-24-19-33-23-24-70-45-102-45-11 0-40 6-54 10-5 2-14 6-19 8-18 9-30 24-40 46-3 8-6 20-13 50-4 19-5 21-11 25s-6 7-5 24v27c0 12 0 14-2 18-4 9-19 18-47 29-7 3-17 8-22 10-11 5-41 21-48 26-3 2-10 7-15 10-13 9-25 19-43 36-25 23-47 54-53 72 0 2-2 7-4 12s-3 10-4 11c0 2-1 5-2 6-3 7-5 26-5 42 0 27 2 51 4 56 3 7 4 8 31 7 14 0 37 0 52-1 47-2 167 0 214 3 22 1 40 1 76 1 39-1 91 0 128 1 4 0 11-1 16-2z"/></svg>