<svg xmlns="http://www.w3.org/2000/svg" width="1344" height="566"><path d="M0 283V0h1344v566H0V283m956 275c30 0 43 0 76-1 16 0 29 0 36 1 11 1 11 1 14-1 2-2 2-3 2-9 0-9-2-18-8-40-1-7-4-19-7-29 0-3-1-7-2-8-1-4-1-10 1-11 1-1 5-1 17-1 20 1 21 1 28-9 8-9 8-10 9-22 1-17-1-23-15-48-4-6-8-15-10-18-10-25-16-38-18-45-5-13-11-18-33-30-6-3-13-8-15-9-2-2-5-8-8-13-6-11-9-23-12-46-6-45-11-63-21-77-13-16-30-24-53-23-18 1-29 6-42 18-9 8-13 14-17 24-2 5-2 9-3 19 0 8 0 18 1 24 5 41 5 50 2 55-1 2-3 6-6 8-3 3-6 8-9 14-5 9-5 11-6 19-1 18-4 23-22 35-14 10-16 11-24 13-4 2-7 4-16 13-7 6-12 12-13 14 0 1-1 4-1 6 0 10 9 19 18 18 3-1 10-2 18-2 7-1 14-1 16-2 4-2 6 1 9 14 2 11 2 15 2 32 0 11 0 23 1 26s1 9 2 14c1 8 3 11 8 11 4 0 5 2 10 14 6 12 6 12 12 16 6 3 8 5 10 14 2 8 8 19 11 22 1 1 5 1 16 1 9-1 27-1 42-1z"/></svg>