<svg xmlns="http://www.w3.org/2000/svg" width="1344" height="566"><path d="M0 283V0h1344v566H0V283m772 275c27-2 30-3 32-5s2-7 1-17c-6-27-7-36-7-44s0-9 3-13c2-3 6-9 10-14 3-5 7-11 8-14 2-3 4-6 4-7 2-2 5-9 11-24 4-10 4-11 4-21 0-8-1-13-2-17s-3-9-4-13-3-9-4-12c-1-5-1-9-1-28 1-13 1-31 2-41 1-16 1-17-1-21-2-5-16-24-23-31-10-11-11-12-6-28 2-9 2-11 2-28 0-22 1-19-11-57-6-20-8-24-18-34-13-13-28-21-55-29-24-7-33-8-51-8-20 0-29 2-46 10-12 6-21 13-32 25-8 10-12 16-19 32-5 13-7 20-10 39-4 28-6 34-15 42-6 6-14 9-32 13-27 6-33 8-42 11l-9 3-18 17c-10 10-19 18-20 20-3 3-3 11 0 17 7 14 16 23 28 31 5 3 9 6 10 7 2 3 1 8-3 23-6 24-6 25-7 80 0 29-1 59-2 68-1 15-1 19 0 36 3 28 3 29 13 31 11 2 33 3 160 2 106 0 130 0 150-1z"/></svg>