<svg xmlns="http://www.w3.org/2000/svg" width="1344" height="566"><path d="M0 283V0h1344v566H0V283m1012 276c20-1 28-2 30-3 5-3 2-14-14-46-5-12-13-28-16-35-3-8-8-18-11-23-4-10-7-17-8-23-1-1-3-6-6-9-4-6-17-31-18-37-1-1-4-8-7-14-6-12-7-13-12-29-5-14-4-19 10-40 12-18 16-30 20-56 2-14 6-32 9-44 4-15 3-49-1-61-2-3-4-11-7-17-8-26-18-44-34-58-17-16-32-26-43-31-12-4-26-7-42-9-14-2-41 0-57 4-6 1-19 3-27 5-22 3-25 4-40 9s-20 7-25 13c-2 2-7 11-11 20-20 40-24 56-23 96 1 18 1 24 3 35 3 15 5 29 7 43 1 6 2 15 3 21 2 11 16 68 20 82 5 16 12 29 20 36 7 6 20 10 35 12 9 0 12 1 16 6 4 4 11 18 11 21 0 5-1 6-15 21-6 7-16 18-21 25-4 7-11 16-15 19-10 12-17 21-22 28-7 13-12 31-9 36 2 3 7 4 26 5 32 1 244 0 274-2z"/></svg>