<svg xmlns="http://www.w3.org/2000/svg" width="1344" height="566"><path d="M0 283V0h1344v566H0V283m216 279c4-1 22-1 44-1h341c136 0 127 0 132-6 3-3 4-4 8-1 10 5 86 7 244 7l60 1 3-4 3-3v-17c0-19 0-23 6-26 7-4 17-2 34 6 5 3 12 6 16 6 4 1 10 3 14 5 16 6 26 8 65 12 4 0 10 1 14 2 6 2 25 5 33 7 11 1 27-4 34-11 8-8 7-11-8-17-12-5-19-10-22-15-1-3-1-4 1-8l2-4-2-2c-2-2-3-2-13-2-6 0-13 0-19-2-11-2-19-1-26 3-9 4-15 3-31-2-38-13-75-39-88-61-4-8-6-13-16-48-16-51-28-86-33-97-7-15-20-28-38-40-3-2-7-5-8-7-5-6-1-12 9-14 13-3 18-5 21-9 6-6 19-30 23-40 4-8 4-5 1-44-2-29-6-55-11-63-6-11-14-16-30-20-8-2-13-2-28-2-21-1-26 0-39 7-10 5-23 17-28 28-5 8-6 16-9 39-1 10-2 20-3 23 0 2-1 8-2 12s-3 13-5 20c-4 13-8 18-15 23-4 3-5 3-15 4-6 0-12 1-12 1s-7 6-14 14c-8 7-19 17-25 22-21 17-29 26-38 42-10 19-12 33-15 94-1 13-2 28-3 34-3 25-3 37-1 57 0 11 2 25 4 33 1 7 2 14 2 15 0 3-3 6-5 6s-13-5-27-14c-8-4-18-10-24-14-19-10-41-24-46-28-2-3-4-6-5-8-2-6-2-30-1-42 1-6 1-20 2-30 0-18 0-19-3-39-2-12-5-22-5-24-1-1-2-6-3-9-2-28-8-64-11-80-2-6-3-13-4-16-6-27-9-36-16-48-13-21-27-35-53-48-10-6-16-8-28-12-7-2-11-2-24-3-15 0-16 0-26 3-16 4-25 8-44 16-14 7-16 7-25-6-12-20-38-30-64-27-11 1-21 5-29 9-9 7-20 22-26 39-3 9-3 10-3 24 0 15 2 25 8 42 4 10 5 17 2 21 0 1-4 4-7 6-6 4-12 11-21 22-6 8-29 30-45 44-28 24-31 29-35 48-5 26-6 35-9 52-5 35-5 38-4 53 1 8 3 20 5 26 5 20 9 41 10 56 1 8 2 15 2 17 3 7 10 10 25 12 11 2 14 2 22 1z"/></svg>