<svg xmlns="http://www.w3.org/2000/svg" width="1344" height="566"><path d="M0 283V0h1344v566H0V283m214 279c1-1 9-1 19-2 59 0 92-1 99-2 5 0 9 0 13 1 5 2 51 4 71 3h50c104 1 289 0 300-1 6-1 14-2 16-2 4-1 6-1 10 0 11 3 21 4 52 4 95-2 149-3 156-4 24-3 111-4 120-2 2 1 10 1 18 1 12 0 16 0 22-2 5-1 8-3 10-5 3-3 3-3 3-10 0-3-1-9-2-13-6-26-7-36-8-70-1-31-3-52-7-84-1-9-3-21-4-28-2-22-9-51-13-61-7-14-17-28-28-35-9-5-27-14-39-19-17-7-26-11-34-17-10-7-16-14-17-19-2-8 0-32 3-39l6-6c6-6 9-12 11-20 1-9 1-12-4-17l-3-4 1-17c0-14 0-18-2-27-3-17-12-32-21-37-5-2-20-8-27-9-6-1-17 0-24 3-2 1-8 3-11 4-8 2-25 13-30 18-5 7-8 15-10 31-1 8-2 19-3 23 0 5-1 11-2 13 0 1-1 6-1 9 0 7 1 10 10 33 2 6 5 14 5 18 2 9 3 22 1 25-1 1-4 4-7 6s-8 5-10 7c-8 7-21 14-36 21-8 4-18 9-23 11-26 13-43 31-55 56-7 13-16 46-21 75-3 14-3 16-6 16-2 0-6-6-17-33-6-15-22-46-27-55-3-5-14-28-21-43-2-6-5-12-6-14-2-3-6-11-10-18-9-17-14-24-21-31-19-21-59-35-83-30-4 0-9 2-11 2-2 1-7 3-11 3-15 4-29 14-39 27-7 9-9 13-13 24-5 15-8 38-12 86-1 23-3 35-7 56-2 6-3 14-3 19-1 4-1 10-2 13 0 2-1 8-2 12-2 11-5 16-12 20-5 3-7 4-14 5-4 0-9 1-10 2-1 0-4 1-8 2s-8 2-11 4c-8 5-9 6-13 6-7 0-7-2-8-28-1-13-2-27-2-31-1-3-2-11-3-16-2-8-3-14-9-38-4-21-10-31-27-44-13-9-27-21-28-23-3-4-2-9 7-29 5-9 6-14 9-30 2-17 3-24 0-52-2-23-4-30-10-41-6-10-18-17-34-23-8-2-11-2-22-2-10 0-14 0-20 2-11 3-19 8-24 13-10 10-14 22-16 44 0 6-1 14-2 16-2 9-1 13 12 46 3 6 4 11 5 16 0 9-1 12-8 15-5 2-7 3-10 8l-5 5s-4 5-9 9c-5 5-13 14-18 19-6 5-11 11-13 13-2 3-7 9-13 13-33 27-39 40-41 85-1 24-2 35-4 54-2 14-2 26 0 33 1 8 6 20 10 27 2 2 4 8 4 12 5 23 10 32 19 38 7 5 8 5 35 6 12 0 23 1 24 1 2 0 4-1 6-1z"/></svg>