<svg xmlns="http://www.w3.org/2000/svg" width="1344" height="566"><path d="M0 283V0h1344v566H0V283m868 278c3-1 7-1 78-1 45 0 82 1 91 1 11 1 24 1 52 0 37-1 67-3 76-4 6 0 9-4 9-10 0-21-18-71-33-94-7-11-17-22-23-26-3-2-7-4-8-5-11-7-29-13-58-20-21-5-36-9-58-16-12-3-21-8-30-16-10-8-19-14-23-15-5-2-12-2-19-1-8 3-11 2-14-1-6-7-14-26-14-36 0-6 1-9 8-16 14-14 23-29 25-41 1-7 0-18-3-24-2-6-2-18 2-30 6-18 11-39 13-49 2-12 2-37 0-49-6-28-8-34-18-45-5-4-9-10-10-12-2-5-11-14-15-15-1 0-5-1-8-2-2-2-8-3-11-3-9-1-14-4-23-11-10-9-12-10-34-11-15 0-19 0-29 2-11 2-20 6-27 10-1 2-7 4-13 5-8 3-16 6-29 13-22 11-28 15-38 27-13 15-19 28-21 50-3 19-3 24-7 40-5 22-6 27-5 53 0 29 3 57 6 72 6 20 14 42 26 68 3 7 9 24 14 37s10 26 11 28c2 6 1 8-3 13-6 6-29 21-49 31-8 5-16 9-17 9-1 1-5 4-10 6-9 5-22 14-31 22-5 4-6 4-16 8-7 2-8 4-10 11-2 4-4 8-10 14-6 7-9 11-10 16-4 10-4 11-2 14 5 4 13 4 54 3 21-1 39-1 39 0 2 1 26 1 125 2 91 0 96 0 100-2z"/></svg>