<svg xmlns="http://www.w3.org/2000/svg" width="1344" height="566"><path d="M0 283V0h1344v566H0V283m882 169c4-1 12-2 18-3 10-1 12-1 19 0 8 3 15 2 20-1 3-1 4-1 8 1 6 1 8 1 23-6 5-2 12-5 16-6 9-3 24-10 26-12 1-1 3-3 6-4 4-2 8-6 11-12 1-2 3-6 5-8 2-4 3-10 5-31 1-11 0-36-2-53-1-10-1-12 1-17 1-4 1-8 1-13v-37l-1-30-3-9c-5-16-8-19-19-20-3-1-6-2-8-2-1-1-6-2-11-2-5-1-14-3-19-5-5-1-12-3-15-3-8-3-16-6-20-9-6-4-14-12-18-19-4-6-16-33-20-43-3-9-6-15-10-20-2-3-5-6-5-8-1-3 0-9 4-16 3-5 3-5 1-7s-5-2-15 0c-12 2-16 5-37 24l-5 4 1 10c0 10 0 11 5 19 4 7 7 11 14 19 11 11 22 19 26 19 7 0 9 10 7 30-1 12-2 12-7 20-3 4-5 6-12 9-4 1-8 3-9 3-2 0-11-4-24-11-12-7-14-8-17-5-3 2-3 3 0 9 3 5 13 14 34 29 3 2 11 5 15 5 1 0 5-2 9-4 3-2 6-4 7-4s3-1 5-2c6-3 9 1 11 13 2 9 1 13-3 19-3 4-10 7-20 8-18 2-27 6-34 15-4 6-5 10-5 19 1 9 3 14 8 19 3 2 5 3 8 3 6 0 9 4 12 13 4 15 5 18 6 26 0 8 1 9 4 13 6 7 13 21 14 27 0 3 0 7-1 8 0 1-6 6-12 11-8 7-12 10-21 14-6 3-12 6-13 6-2 1-2 2-2 4s0 3 4 3c9 1 27 1 34 0z"/></svg>