<svg xmlns="http://www.w3.org/2000/svg" width="1344" height="566"><path d="M0 283V0h1344v566H0V283m703 277c9 0 12-1 14-2 3-4 4-9 3-18-1-3-2-10-2-14-2-13-4-24-11-42-3-10-6-19-6-19 0-1-2-5-4-9-4-8-4-9-4-17 0-5-1-10-1-12-2-7-8-11-25-18-5-1-12-5-17-7-14-6-36-16-45-20-5-2-14-6-21-9-14-7-16-9-16-18 0-5 4-24 7-32 4-11 7-20 11-28 6-13 6-15 7-36 1-20 1-20-5-57-4-23-4-23-14-58-11-41-23-64-43-84s-35-30-60-37c-9-2-11-2-32-2l-22-1-11 6c-6 3-14 8-18 10-5 3-12 6-15 8-9 5-21 15-26 21-6 8-16 29-21 48-6 18-16 75-19 107-2 14-6 46-7 47-1 2-4 37-5 51 0 14 0 17 2 26 2 7 4 16 6 20 4 9 4 10 3 12-1 1-3 3-5 4-3 2-21 9-28 11-5 2-16 8-25 14-16 12-26 19-38 26-18 10-22 14-23 26-1 4-2 10-7 20-11 27-16 47-16 70 0 10 1 12 6 14 4 1 111-1 123-2 8-1 13-1 16 0 2 1 9 1 14 1 9 0 227 1 228 1 0 1 142 0 152-1z"/></svg>