<svg xmlns="http://www.w3.org/2000/svg" width="1344" height="566"><path d="M0 283V0h1344v566H0V283m668 275c50 0 419 0 440 1h38c9-1 20-1 23-1 10 0 11-5 2-24-11-28-25-52-37-66-17-19-35-33-62-46-10-5-20-10-21-10-8-3-43-19-55-26-11-6-11-6-34-16-19-8-27-13-44-27-15-13-16-17-11-41 5-19 10-26 20-30s17-9 26-21c7-9 11-18 12-28 1-11 0-17-5-20-6-4-6-6-1-28 6-29 9-49 9-62 0-12 0-13-7-35-3-8-11-22-15-25-2-1-6-5-9-8-11-10-41-27-57-32-10-4-24-5-29-3-2 1-6 2-11 2-21 0-42 7-66 21-7 5-9 6-17 17-6 9-10 18-15 34-4 14-6 24-8 36-2 15-6 33-7 37-1 2-4 5-7 7s-6 5-8 8c-2 4-2 5-3 17 0 16 2 24 10 42 5 11 7 15 10 29 7 35 7 36 8 52v16l-5 6c-6 6-27 23-36 29-10 6-19 11-25 12-8 2-23 7-57 22-6 3-16 7-22 10-35 14-57 27-73 41-30 28-56 73-56 100 0 12-5 11 57 11 29-1 59-1 68 0 9 0 23 1 32 0 10 0 31 0 48-1z"/></svg>