<svg xmlns="http://www.w3.org/2000/svg" width="1344" height="566"><path d="M0 283V0h1344v566H0V283m780 276c45 0 59 0 62-1 5-2 9-7 13-21 6-20 7-33 4-55 0-7-2-19-3-26 0-7-2-17-3-21 0-4-2-11-3-15-2-11-7-46-7-56-1-4-2-10-3-13 0-3-1-9-2-13 0-4-1-11-2-14 0-4-1-13-2-21-1-14-3-23-7-27-2-3-13-11-24-17-7-5-13-10-27-23l-20-20c-4-6-3-11 6-28 18-38 20-51 9-74-5-10-15-19-25-24-12-6-15-6-37-6-22 1-32 2-42 8-7 3-17 13-20 19-2 5-2 9 0 25 3 15 4 28 3 32 0 2-2 5-5 7-29 21-30 22-32 34-2 13-8 35-11 39-2 6-12 22-17 29-2 2-5 8-7 12-1 4-5 10-7 14-10 12-16 27-19 47s-1 36 4 42c11 13 38 11 56-4 6-5 7-6 9-3 1 1 1 8 0 37-1 20-2 39-3 42-1 2-1 14-2 24 0 12-2 26-2 33-2 13-1 31 1 35 3 5 2 5 57 4 27 0 76 0 108-1z"/></svg>