<svg xmlns="http://www.w3.org/2000/svg" width="1344" height="566"><path d="M0 283V0h1344v566H0V283m286 278h254c138 0 209-1 210-1 2-1 3-2 4-3 2-2 5-2 35-1 18 1 39 1 46 2 33 3 42 3 91 4 64 1 91 0 96-2 5-3 6-8 6-17-1-11-1-32-1-35 1-3 6-5 10-5 8 0 51 12 61 17 3 1 9 4 12 5 4 0 8 2 9 2 5 3 31 10 42 11 17 3 41 3 51 1 3-1 12-2 18-3 10 0 12-1 19-4s7-3 7-6c-1-4-9-9-19-9-12-1-27-6-38-13-5-2-11-7-11-9 0 0 2-3 4-5s4-4 4-5c0-2-5-5-11-5-18-3-24-3-42-1-20 1-23 1-39-5-39-15-47-20-67-39-10-10-16-18-19-27-3-10-10-38-12-52-3-13-6-26-15-64-1-5-3-12-4-14-5-11-15-24-28-38-10-12-9-14 7-19 13-3 16-5 20-10 5-7 18-33 22-43 2-6 2-9 2-18 0-12-2-38-4-52 0-6-1-15-2-21-1-11-2-14-9-21-6-6-11-9-21-13-14-4-25-6-38-6-16 0-26 2-36 8-8 5-22 19-26 27-6 12-6 13-7 45-1 29-1 30-4 38-4 13-16 29-25 35-4 3-5 3-11 3-12 0-16 3-25 15-5 7-11 13-19 21-34 31-41 39-49 57-9 18-11 26-12 43v39c1 25 2 57 1 90 0 18 0 20 2 26 3 10 3 13 1 14-2 2-6 0-32-15-32-17-45-26-49-35-3-7-4-19-2-32 1-4 1-13 1-19 0-16-2-53-3-66-5-30-6-41-8-53-1-8-3-19-4-24 0-6-2-17-4-24s-4-18-5-23c-3-14-7-24-13-37-7-14-14-23-25-34-9-8-18-14-35-22-22-12-39-16-60-15-8 1-12 2-26 6-8 3-21 8-27 11-9 4-13 5-15 5-1-1-6-5-11-9-13-13-22-18-39-22-20-4-43 3-59 19-5 5-8 8-11 16-6 13-7 15-8 33 0 13 0 16 2 26 4 18 4 22 0 30-3 10-7 15-18 24-4 4-14 13-21 20s-18 17-26 23c-21 17-34 32-40 44-5 8-14 38-16 49-6 38-8 71-3 92 3 13 4 42 3 56-2 17-1 24 1 28 2 3 7 7 11 8 2 0 6 1 10 2 12 2 19 3 32 2 8 0 34-1 60-1z"/></svg>