<svg xmlns="http://www.w3.org/2000/svg" width="1344" height="566"><path d="M0 283V0h1344v566H0V283m555 240c19-2 29-4 41-9 2-1 11-4 20-7 12-4 18-5 25-6 5 0 9-1 10-1 3-3 24-3 111-4 93 0 128-1 135-3 2-1 12-2 23-4 24-3 24-3 28-6 4-2 5-2 12-2 5 0 14 1 20 1 6 1 15 2 20 2 8 0 10 0 15-3s16-13 19-19c1-1 3-5 6-8 6-6 7-9 4-12s-13-2-21 2c-9 5-16 5-22 2-6-4-5-7 4-13 7-3 13-9 13-11 0-3-3-4-7-4-17 3-27 6-44 15-20 10-23 11-28 6l-3-3-1-11c0-11 0-12-3-20-2-5-8-15-12-24-5-8-10-16-11-19-33-57-34-59-49-77-3-4-8-10-10-13-6-7-28-28-44-40-42-31-71-52-89-61-15-8-19-11-19-16s-2-9-6-11c-1 0-6-2-11-2-21-4-25-7-30-19-5-14-10-22-17-30-9-8-14-11-25-14s-21-2-29 1c-14 7-31 25-36 39-8 19-10 39-6 51 2 7 5 9 11 9 2 0 4 1 5 1 1 1 4 6 6 12 4 8 4 11 5 17 1 15-4 38-11 50-2 4-5 11-7 15-3 8-8 16-14 24-5 6-12 17-16 26-4 8-12 17-22 26-6 5-9 10-13 15-5 9-6 10-15 14-5 1-8 2-14 2-10 0-17 3-28 12-12 10-15 13-18 22-2 7-2 9-2 27 0 17 0 19 2 30 4 13 7 18 15 25 2 2 7 6 10 9 10 9 21 13 52 17 6 1 59 1 71 0z"/></svg>