<svg xmlns="http://www.w3.org/2000/svg" width="1344" height="566"><path d="M0 283V0h1344v566H0V283m755 276c6-4 8-7 10-14 3-11 3-13 4-21 1-4 1-9 2-9v-35c0-19 0-40 1-48 4-52 2-74-8-100-5-13-11-20-27-36-13-14-17-20-17-25s6-32 9-43c9-31 9-29 9-63-1-29-1-31-4-47-3-19-5-23-10-32-4-8-11-14-20-21-18-14-48-30-64-35-10-2-12-2-28-2-35 0-69 8-88 21-18 12-33 36-39 61-1 4-4 28-5 41-1 10-4 19-6 21-1 1-3 3-5 4-3 2-5 3-6 7-2 4-2 5-1 17 1 17 1 29 0 33-4 10-19 28-29 34-4 3-11 6-15 8-14 6-45 23-64 37-19 12-32 22-43 32-22 22-34 35-53 64-7 10-14 30-19 52-2 8-2 27-1 58 1 18 1 33 2 35 1 1 2 4 3 5l2 2h36c19 0 45-1 57-1 36-2 151-1 242 2 15 1 36 1 47 0 11 0 26 0 35 1 8 0 31 1 51 1l37-1 5-3z"/></svg>