<svg xmlns="http://www.w3.org/2000/svg" width="1344" height="566"><path d="M0 283V0h1344v566H0V283m675 278c18-1 25-1 30-2 14-4 14-3 12-33-1-19-1-24-3-31-5-15-11-33-17-47-3-7-3-9-3-17 0-9 0-9-3-12-3-4-14-9-49-24-4-1-14-6-22-9-7-3-17-7-20-8-14-6-32-15-34-18-3-5-1-28 5-45 15-42 16-47 16-63 0-27-15-97-30-135-1-3-3-7-4-9-2-7-11-24-15-30-7-11-21-22-41-35-30-19-42-23-73-22-17 1-13-1-38 12-7 4-15 8-19 10-14 5-21 12-31 27s-18 34-24 61c-2 8-3 14-7 43-4 23-12 90-15 129-1 17-1 36 2 44 0 4 3 11 6 16 7 17 7 17-18 27-12 4-21 9-25 11-3 3-23 17-31 22-3 2-10 6-16 9-5 3-11 7-13 8-5 4-8 10-8 17-1 4-3 11-6 20-6 15-7 19-11 33-4 18-6 41-4 46s3 5 60 5c30-1 58-1 64-2h29c9 1 74 1 144 2h127c0 1 55 0 85 0z"/></svg>