<svg xmlns="http://www.w3.org/2000/svg" width="1344" height="566"><path d="M0 283V0h1344v566H0V283m296 277c80 0 101-1 112-2 13-1 91-2 251 0 55 0 80 0 81-1 6-3 8-16 9-51 0-13 1-37 3-51 2-29 3-54 1-65-2-14-10-34-19-45-11-15-27-31-41-41-8-5-11-9-11-14 0-7 3-20 7-31 5-15 6-26 4-52-3-52-11-76-33-98-11-10-21-17-38-26-20-10-41-16-58-16-9 0-31 2-42 5-37 7-65 29-78 59-6 15-9 28-13 57-3 22-4 23-9 28-6 6-7 9-3 28 1 10 2 18 2 27v12l-3 4c-4 5-10 8-30 17-25 11-48 23-76 39-20 12-48 37-59 52-2 3-7 9-9 12-12 14-26 40-31 57-7 21-8 31-5 60 0 9 1 19 0 25 0 7 0 9 2 10 2 2 11 3 24 2 5 0 33 0 62-1z"/></svg>