<svg xmlns="http://www.w3.org/2000/svg" width="1344" height="566"><path d="M0 283V0h1344v566H0V283m1025 278c7 0 9-2 9-6s1-5 16-12c24-12 35-23 35-35 0-7-3-20-7-32-2-7-6-19-8-27-2-7-6-20-9-28-10-28-14-42-16-50-3-22-7-32-14-38-4-3-14-8-25-12-23-9-32-15-36-23-1-2-1-11-2-32 0-30 0-31-3-45-5-24-8-38-9-47-1-11-4-21-7-27-7-15-21-31-32-37-13-8-32-10-55-6-9 1-12 2-21 6-14 7-22 15-28 28-7 14-7 18-6 51 1 16 2 30 2 35 3 11 7 26 10 35 2 5 3 12 4 16 0 9-2 13-11 19-19 13-34 28-40 38-1 3-2 8-3 12-1 9-4 19-7 24s-3 5-14 10c-8 3-22 12-25 15-1 2-1 5-1 11 0 7 1 8 6 16 3 4 7 11 9 16l4 8-1 7c-2 8-9 29-14 43-3 9-7 18-19 40-5 9-7 15-6 18 1 4 4 4 58 4 29 1 60 1 70 2s36 1 58 2c22 0 46 1 53 1 14 2 72 2 85 0z"/></svg>