<svg xmlns="http://www.w3.org/2000/svg" width="1344" height="566"><path d="M0 283V0h1344v566H0V283m310 278c20 0 42 0 49-1 8-1 26-1 66 0 36 1 66 1 91 0 26-1 49-1 75 0 30 1 42 1 56 0 21-1 139-1 174 1 24 1 25 1 42 1 17-1 19-3 18-15-1-8-7-25-11-34-6-12-20-33-26-38-6-6-18-12-38-18-8-3-18-6-22-8-8-3-28-8-38-10-25-5-26-6-37-20-18-23-18-23-8-35 9-9 21-26 24-32 1-3 4-11 6-19 3-7 6-15 7-17s4-10 6-18c16-51 15-46 16-88 1-19 1-50 1-68v-32l-3-13c-6-26-16-50-29-69-12-15-14-18-19-21l-6-3H470l-4 3c-11 5-25 25-33 48-8 19-9 27-11 53-1 20-3 35-7 49-2 10-2 12-2 33 0 16 0 26 1 31s1 12 1 21c-1 22 0 38 1 44 1 7 6 17 13 30 4 6 8 14 10 18 4 7 9 22 9 26 0 2-3 7-17 24-12 16-18 21-25 25-5 2-22 8-32 11-2 0-8 2-12 3l-36 9c-16 5-35 10-43 13-18 6-44 18-51 23-8 5-19 21-23 31-3 8-3 12 1 29 1 10 2 15 1 20 0 8 0 8 11 11 10 3 21 4 38 3 7 0 29 0 50-1z"/></svg>