<svg xmlns="http://www.w3.org/2000/svg" width="1344" height="566"><path d="M0 283V0h1344v566H0V283m293 276c2-1 5-1 8 0 4 1 59 1 197 1 181 0 192 0 199-1 9-3 12-4 15-9 3-3 3-5 4-28 2-31 2-32-1-40-5-16-11-31-14-37s-3-7-4-18c0-12-1-12-4-15-1-1-6-4-9-5-17-7-29-13-40-17-17-7-21-8-35-14-26-11-31-13-38-16-4-2-8-5-9-7-2-2-2-3-2-13 1-14 4-31 9-43 8-25 11-46 9-63-3-22-13-66-19-84-1-2-2-6-3-9-5-14-18-44-23-53-9-14-17-23-32-36-34-26-53-33-88-32-19 1-26 3-38 11-14 9-17 11-24 15-14 7-27 21-36 40-4 10-6 13-11 32-2 6-4 21-8 42-3 25-6 78-8 135 0 36 0 44 5 65 2 10 3 18 1 21-1 1-5 3-9 5-21 10-26 12-35 18-17 13-34 24-44 29-17 10-19 12-19 25-1 7-2 13-4 22-2 7-5 17-7 23-1 6-3 13-3 15-3 8-5 24-5 31 0 5 0 7 2 9l2 3h59c39-1 60-1 62-2z"/></svg>