<svg xmlns="http://www.w3.org/2000/svg" width="1344" height="566"><path d="M0 283V0h1344v566H0V283m856 279h68c23-1 46-1 52-2 15-1 69-3 105-3 25 0 29 0 37 2s9 2 19 1c23-2 32-7 31-15-2-10-4-23-6-26 0-2-1-5-1-7 0-1-1-5-1-7-2-5-4-18-6-50-1-26-5-55-8-77-2-7-3-16-4-18-1-13-6-37-11-53-5-19-15-36-29-47-6-5-28-17-46-24-21-8-29-12-36-17-17-12-19-15-19-32 0-6 0-14 1-16s1-5 2-7c0-1 3-5 6-9 9-11 10-15 10-25 0-9 0-10-3-14l-4-5V97c0-26-2-39-8-48-2-1-6-6-10-10-8-9-14-12-27-15-7-1-9-1-17 0-14 2-29 8-41 15-12 8-15 12-19 20-3 7-4 14-5 39-1 11-1 23-2 27 0 10 0 12 9 31 9 21 12 30 12 40 0 4 0 9-1 9 0 1-3 4-7 6-4 3-9 7-12 10-8 6-25 16-44 26-32 15-47 29-62 55-10 18-18 57-27 116-1 11-3 24-4 29 0 6-1 12-1 15 0 7 2 21 5 30 3 10 2 21-2 30-3 6-3 8-3 14 0 4 0 9 1 11 2 4 7 9 13 12s7 3 25 4c10 0 19 0 19 1 0 0 6 0 12-1 7 0 25 0 39-1m-626-1c98-1 108-1 115 0 5 1 13 1 26 0 18-1 24-2 33-5 1-1 13-1 26-1 22 0 24 0 32 2 5 1 12 3 22 3 12 1 157 1 206 1 13-1 26-3 29-6 3-2 3-7 2-15 0-3-2-13-2-20-1-8-3-21-4-28s-2-22-3-33c-1-21-3-30-11-49-5-12-10-22-18-34-7-10-7-11 5-16 13-6 15-9 17-18 0-5 2-10 10-36 4-12 3-20-4-35-6-14-8-22-9-44-1-18-1-20-7-33-6-14-14-23-23-28-7-4-27-11-36-13-12-3-52-4-62-2-10 3-28 12-38 20-15 12-22 24-32 58-2 8-3 10-9 34-2 9-5 19-7 23-4 17-6 25-11 52-3 15-7 26-11 33-1 2-6 8-10 12-12 12-20 26-29 51-9 24-11 28-15 28s-7-14-7-37c0-19 1-13-10-69-8-37-12-45-37-64-20-16-24-20-24-25 0-3 6-22 10-30 1-3 3-12 5-20 3-17 4-30 2-59-2-27-5-35-17-45-7-7-23-15-33-17-8-2-20-2-30 0-22 4-37 16-43 34-2 6-2 9-2 20 0 7-1 15-1 17-3 13-2 17 7 37 8 17 9 27 7 36-1 4-2 5-7 7-6 2-7 4-12 11-9 11-19 21-30 30-6 5-12 10-14 13s-7 8-11 11c-13 11-28 27-32 34-6 12-11 34-11 53 0 14-2 40-5 53-2 15-1 27 3 38 2 5 4 10 4 12 1 2 3 6 4 9 2 3 5 11 7 18s5 16 7 20c6 12 6 12 38 13 14 0 28 1 30 0 2 0 11 0 20-1z"/></svg>