<svg xmlns="http://www.w3.org/2000/svg" width="1344" height="566"><path d="M0 283V0h1344v566H0V283m352 278c35-1 64-1 90 0 61 2 83 2 104 0 19-1 37-1 84 1 33 2 159 1 162-1 5-3 1-6-14-13-17-8-37-13-69-20-9-2-16-4-17-4-4-2-16-16-26-32-5-8-6-10-6-14s1-7 3-10c3-5 10-16 13-20 2-2 5-7 7-12 3-5 7-12 9-16 2-3 5-9 7-12 1-4 5-12 8-20 5-10 6-14 7-22 2-17 1-61-3-98-4-40-17-78-33-100-9-11-23-26-34-34-16-11-23-14-44-18-7-1-18-3-24-4-48-9-89 3-122 33-23 23-35 47-41 89-2 20-6 39-10 53-5 15-4 38 2 52 2 3 3 8 3 15 0 5 1 15 2 21s2 16 3 21c0 7 1 13 5 23 2 8 5 17 7 20 7 17 8 22 5 29-2 5-17 17-23 20-7 4-23 7-57 13-25 3-36 6-63 13-31 9-40 13-50 26-11 13-14 19-7 21 9 2 16 2 122 0z"/></svg>