<svg xmlns="http://www.w3.org/2000/svg" width="1344" height="566"><path d="M0 283V0h1344v566H0V283m693 279c9-1 34-1 56-1 22-1 66-1 97-2h86c40 1 162 1 164 0 3-2 3-5 2-13-3-12-9-31-13-42-6-13-28-46-39-59-20-22-31-29-82-55-30-15-39-20-52-29-12-7-36-22-45-26-7-3-19-6-28-8-7 0-11-3-12-8-1-2-1-10-2-19 0-19 1-27 8-47 16-45 18-52 18-65 0-6-1-9-4-17-3-10-3-11-4-32-2-37-7-55-23-73-23-26-76-43-122-39-23 2-42 8-64 20-20 12-37 32-43 51-3 10-3 14-2 96 1 38 1 51 2 57 3 15 11 34 25 65 4 8 7 16 8 18s5 9 9 16 7 13 7 15c0 4-11 15-43 41-2 1-6 5-9 7-6 6-25 18-51 34-11 7-24 15-30 19l-27 18c-39 24-49 34-61 57-6 12-5 18 3 19 1 1 56 1 121 2h119c0 1 3 1 8 0h23m-621-3c17-1 41-2 52-2 11-1 43-1 70-1h140c33 1 32 2 22-27-3-9-7-21-9-28-2-6-6-24-10-39-8-25-10-34-16-54-8-27-17-45-36-66-17-20-37-33-62-42-10-4-50-21-75-32-18-9-31-18-35-25-2-4-1-7 7-24 4-8 8-18 10-23 8-23 13-34 24-48 13-20 20-34 26-57 2-8 4-16 4-17 1-2 4-7 8-11 4-3 9-9 11-13 2-3 6-8 9-10 5-7 7-11 7-16s-3-9-10-12c-6-3-8-4-35-6C140 4 14 3 4 4L1 5v551l3 3 3 2h16c9-1 31-1 49-2z"/></svg>