<svg xmlns="http://www.w3.org/2000/svg" width="1344" height="566"><path d="M0 283V0h1344v566H0V283m250 277c21 0 56 0 78-1h44c3 0 12 0 19 1 10 1 25 1 55 1 23-1 56-1 73-1s42 0 55-1c17-1 28-1 39 0 20 1 125 2 142 2 13-1 14-1 17-4 2-2 2-3 2-6-1-4-4-22-7-31 0-4-2-11-2-15-2-20-5-24-45-42-8-3-26-12-41-19-16-8-31-15-33-16-9-3-17-8-19-11-1-2-1-4 4-17 3-7 9-21 13-30 7-17 16-42 20-58 2-8 2-11 2-36 0-27-1-41-5-72-1-7-2-17-3-22 0-4-1-9-1-11-1-2-2-9-3-15-4-17-13-49-18-59-5-12-20-35-28-43-7-6-20-15-34-24-10-7-32-16-46-20-14-3-30-4-43 0-13 3-23 7-30 10-4 2-12 4-17 6-5 1-12 3-16 5-12 5-26 20-37 37-10 15-25 54-31 81 0 2-3 11-5 19-2 9-7 29-10 44-3 16-6 35-8 43s-4 20-5 26c-2 6-3 16-4 22s-2 15-3 19c-1 8-1 17-2 48 0 34 0 39-1 42-2 4-5 5-20 13-8 4-18 9-22 12-18 10-30 17-40 21-13 6-24 13-28 18-2 2-5 8-7 12-4 10-9 19-16 30-12 17-19 32-18 37 1 2 2 4 3 4 3 2 26 3 37 2 4 0 24 0 45-1z"/></svg>