<svg xmlns="http://www.w3.org/2000/svg" width="1344" height="566"><path d="M0 283V0h1344v566H0V283m748 278c10-6 17-14 17-23 0-1 1-3 1-5 3-6 4-25 2-45-1-15-1-32 3-64 3-33 2-62-5-82-5-18-11-27-26-42-12-13-13-15-13-25 0-9 5-35 10-49 8-24 10-43 10-69-1-19-2-25-9-51-6-23-17-36-46-54-15-9-37-19-49-23-9-2-42-2-56 0-39 7-62 20-78 44-12 19-17 35-22 73-2 22-4 26-11 30-4 2-6 3-7 7-2 4-2 5-1 20 1 8 1 17 1 20-1 8-5 14-17 27-11 14-18 18-39 27-19 8-61 33-84 51-22 16-45 40-66 69-10 14-10 14-15 27-10 26-12 31-15 64-1 15-1 17 2 39 3 21 4 26 9 29 5 4 34 4 84 3 58-2 202-1 236 2 7 1 35 1 62 1 28 1 50 1 51 1h65l6-2z"/></svg>