<svg xmlns="http://www.w3.org/2000/svg" width="1344" height="566"><path d="M0 283V0h1344v566H0V283m847 70c1-1 4-4 6-8 3-4 8-10 12-13l6-6 1-12c1-13 1-30-1-36-1-2-4-7-7-11-4-4-7-8-8-9 0-1-1-5-2-10 0-4-1-9-1-10-1-1-2-9-2-18-1-9-1-18-2-20 0-3-1-8-2-12-1-9-4-17-8-24-2-3-5-5-10-7-6-3-7-3-17-3-18 0-27 4-34 18-4 6-5 17-4 33 2 16 0 20-8 20-4 0-10 2-11 5-1 2-2 7-3 16-1 13-1 13-5 22-6 11-7 11-18 19-8 6-10 8-12 13-5 10-4 25 2 29 2 1 17 4 27 5 4 1 10 2 13 3 13 3 28 6 39 8 7 1 17 3 22 4 25 5 24 5 27 4z"/></svg>