<svg xmlns="http://www.w3.org/2000/svg" width="1344" height="566"><path d="M0 283V0h1344v566H0V283m760 276c71-1 74-1 80-7 3-2 9-14 11-21 0-2 2-9 3-15 2-14 3-18 5-19 1-1 2-1 2-1 1 0 6 4 11 8 19 16 24 18 38 21 13 2 33 4 42 4 11 0 13 0 17 3 5 5 13 8 23 10 9 1 17 1 32-3 4-1 10-2 12-2 6 0 8-1 10-4 3-6 0-18-7-30-3-5-5-8-13-14-5-4-8-9-11-20-1-6-3-12-5-15-3-5-11-13-21-19-4-2-10-6-13-8s-10-8-15-14c-4-5-14-15-21-22-12-13-18-22-28-41l-4-6v-20c0-14 0-22-1-25s-5-12-10-20c-4-8-9-16-9-17-2-4-6-6-12-8-8-2-18-6-22-10-4-3-4-5-1-16 1-4 2-10 2-13 0-6 4-27 8-40 2-9 2-10 2-36 0-30-2-46-5-53-3-5-23-27-31-33-11-8-22-13-45-18-8-2-13-2-26-2-14 0-16 0-21 2-14 5-30 18-39 31-8 11-16 31-23 57-2 6-4 16-6 21s-4 14-5 20c-13 45-19 59-30 72-8 7-13 11-28 20-6 3-12 7-14 9-2 1-4 7-6 14-2 6-6 14-9 18-2 4-4 8-4 9 0 0-3 6-7 13-4 6-7 12-8 13 0 2-2 8-5 14-12 28-16 37-17 42-1 2-4 9-6 16-13 41-19 74-19 105 0 24 1 25 32 34 8 2 17 4 22 5 9 0 14 2 18 5 5 5 6 5 43 6 51 1 61 1 134 0z"/></svg>