<svg xmlns="http://www.w3.org/2000/svg" width="1344" height="566"><path d="M0 283V0h1344v566H0V283m902 277h100c65 1 100 0 109-2 3-1 6-2 7-4 3-3 3-4 3-7-2-10-7-17-24-37-25-28-37-39-57-53-15-10-22-16-37-30-16-15-21-21-44-61-4-5-8-12-10-16-2-3-6-9-8-13s-6-10-8-13c-14-25-19-35-20-39-2-8 0-12 8-20 22-23 26-32 31-59 6-34 6-37 6-51 0-25-2-38-12-65-11-30-21-45-39-58-9-7-29-19-37-22-9-3-32-4-76-4-29 1-37 1-48 3-14 2-15 3-28 9-16 8-24 12-34 20-14 10-20 20-26 38-2 8-2 10-3 34 0 26 1 42 4 60 0 5 2 23 3 40 1 36 2 39 14 71 6 13 12 34 18 51 5 20 14 34 23 37 6 3 23 8 29 9 7 1 9 2 10 6 1 3-2 5-11 8-8 2-25 9-31 13-2 1-7 3-12 6-14 7-28 17-35 24-11 11-17 27-19 50-1 13-2 27-4 41-1 4-1 12-2 17 0 9 0 10 2 12 3 4 7 5 21 6 13 1 182 0 237-1z"/></svg>