<svg xmlns="http://www.w3.org/2000/svg" width="1344" height="566"><path d="M0 283V0h1344v566H0V283m274 278c28-1 132-2 156 0h38c29-2 145-2 237 0 126 2 132 2 135 2 3-1 6-7 6-12 0-13-24-43-42-53-6-3-22-9-50-20-7-2-27-8-40-11-18-5-25-8-33-15-8-9-16-19-16-23 0-2 1-6 3-9s7-12 11-21c4-8 9-16 10-18 1-1 5-9 8-18 3-8 7-17 9-19 2-3 6-12 11-21 8-16 8-17 11-31 3-15 4-23 7-58 0-9 1-22 2-28 4-48 1-76-12-108-15-38-28-58-46-71-4-2-9-7-13-9-8-7-17-11-25-12-11-2-155-2-161 0-4 2-17 9-28 18-30 23-43 52-49 108-2 18-4 24-10 44-3 8-6 18-7 22-2 14-1 31 4 45 2 9 3 14 0 30-1 7-1 17-1 23 1 11 1 12 6 22 3 7 6 15 8 20 1 4 5 14 8 22 7 18 8 23 5 29s-8 13-14 20c-3 3-9 11-14 17-7 10-10 13-15 17-9 6-20 10-36 14-12 4-29 8-38 11-4 1-11 3-17 5-16 4-52 18-67 26-12 5-14 7-20 14-10 11-16 23-16 32 0 6 0 8 2 10 3 4 6 6 13 7s54 1 80-1z"/></svg>