<svg xmlns="http://www.w3.org/2000/svg" width="1344" height="566"><path d="M0 283V0h1344v566H0V283m494 277c2-3 4-13 3-20-2-10-3-14-10-34-11-32-12-34-22-48-6-6-24-22-38-31-10-7-13-10-13-13 0-2 3-5 6-8 5-5 7-8 10-16 5-12 7-15 15-23 3-3 7-6 12-7 10-4 17-9 19-12s2-5 2-32l-1-28-5-9c-7-12-10-22-15-39-5-22-14-40-23-44-14-7-49-13-67-12-19 2-24 4-38 13-28 18-37 37-39 79-1 9-1 21-2 28-3 26-4 45-7 91 0 9-1 18-2 21s-1 13-1 22c-1 17-1 19-8 40-3 7-4 12-5 21-1 8-2 15-5 25-6 21-6 31-1 35 3 1 63 3 166 3 62 0 67-1 69-2m370-2c47-1 68-1 142 0 33 1 66 1 74 0 17 0 18-1 21-12 1-4 2-10 2-13 1-3 2-11 2-17 3-23 5-56 5-76s0-22-2-30c-7-25-24-58-47-89-13-18-16-22-35-40-10-9-19-18-21-21-1-2-3-7-4-11s-2-8-2-9c-1-2-5-4-13-5-12-2-15-4-20-18-3-10-4-20-1-29 0-3 2-8 2-12 5-21 10-38 11-41 2-5 10-32 10-38 1-5-1-20-4-33-3-12-11-28-16-34-9-8-28-16-44-18-5-1-10-2-12-2-3-1-6-1-11 0-3 1-9 1-13 2-16 2-42 11-53 18-3 2-9 7-14 12-10 10-11 13-10 24 1 9 0 17-5 31-2 5-3 12-4 19-1 14-4 26-9 37-2 5-3 11-4 14 0 4 0 6 3 13 3 4 6 13 9 20 6 19 11 32 14 36 3 5 8 7 17 10 14 3 25 10 29 18 5 9 6 7-17 30l-21 20-2 8c-2 4-3 12-4 17-1 7-3 12-5 17-6 11-13 27-16 36-2 5-4 10-4 11-7 16-11 32-22 91-3 15-7 31-7 34-4 15-4 22-3 25 1 2 2 4 2 5 3 2 36 2 102 0z"/></svg>