<svg xmlns="http://www.w3.org/2000/svg" width="1344" height="566"><path d="M0 283V0h1344v566H0V283m746 190c10-1 20-2 23-2 3-1 8-3 11-3 4-1 9-2 12-3 4-1 11-3 16-4 6-1 12-3 14-4 27-8 43-11 66-9 19 1 20 1 21-1 3-2 3-19 0-33-2-16-3-33-3-52-1-20-1-24-9-34-4-7-5-8-12-10-4-2-10-4-13-5-2-1-7-4-11-7-6-5-11-7-17-8-4-1-8-5-8-7 1-1 3-2 9-2 7-1 9-1 10-3 2-2 2-2 1-11 0-5-1-13-2-19-1-16-7-46-15-74-2-7-5-15-6-20-7-27-10-35-16-49-15-33-31-49-65-66-14-8-22-10-34-10-9 0-19 2-26 6-2 1-9 3-16 4-20 4-27 7-37 19-17 22-24 40-32 92-2 15-3 78-1 102 3 29 3 37 1 38-3 4-14 4-26 2-14-3-30-3-35-1-2 1-7 6-12 11-6 5-12 9-16 11s-11 7-17 12c-5 4-15 11-21 15-7 4-16 10-20 14-10 8-16 10-28 10-5 0-9 1-11 2-3 1-3 1-2 5 1 8 0 13-10 35-5 11-8 19-11 29-1 4-3 10-5 14-1 3-2 7-2 7 1 1 3 2 7 3 4 0 7 0 15-3 19-6 22-6 59-9 32-2 34-2 40 0 4 1 5 1 8-1 2-2 3-2 5-2 1 1 5 2 9 2 5 0 12 1 16 2 5 1 13 2 18 3 4 1 10 2 12 2 2 1 12 1 22 2 17 0 20 0 26-1 7-2 28-3 38-1 3 1 10 1 16 2 9 1 25 4 28 6 2 1 4 2 5 4 3 1 4 2 8 1 2 0 13 0 23-1z"/></svg>