<svg xmlns="http://www.w3.org/2000/svg" width="1344" height="566"><path d="M0 283V0h1344v566H0V283m440 277c170-1 255-1 278 0 30 2 87 2 95 1 10-1 13-4 19-17l6-11v-25l5-10c3-5 8-14 12-20 10-17 17-28 25-45 6-13 8-17 15-24 13-15 16-23 12-32-1-2-3-7-4-11 0-4-2-9-3-12-3-5-8-8-10-7-3 1-9 13-12 23-3 8-4 10-7 13-2 2-5 3-7 4-3 1-6 2-7 2-3 1-6 1-8 0-2-3-1-8 5-18 15-24 16-26 12-33-2-6-6-8-14-7-4 0-10 0-14 1-5 1-6 1-8 0-2-2-1-4 5-13 9-13 12-18 12-21 0-1 1-4 1-5 3-4 2-10-1-14-4-5-15-6-19-2-1 1-4 5-6 8-7 12-21 28-27 31-4 2-5 2-14 2-19-2-19-2-26 8-5 6-16 25-19 33-3 9-8 28-12 45-3 14-7 24-15 39-4 8-9 17-10 21-3 5-11 20-19 34-5 9-12 16-15 16-1 0-5-3-11-9-5-5-11-11-14-13-4-4-5-5-6-10-3-14-4-19-9-29-3-5-6-11-7-13-2-3-8-7-22-15-7-5-10-8-10-10 0-1 2-3 5-6 6-6 8-10 13-27 2-7 4-16 6-20 13-37 16-52 17-82 1-29-3-80-9-110-3-15-9-40-13-51-8-25-20-44-36-59-21-21-36-30-56-34-13-3-25-2-38 1-5 2-13 3-21 4-22 2-31 5-45 17-21 18-34 36-43 62-6 19-11 35-13 44-1 5-3 15-4 21-3 11-4 18-10 45-2 7-4 22-5 32s-3 24-4 30c-1 13-1 33 0 47 3 33 3 41 2 49-2 11-2 12-22 39-7 8-17 26-23 38-9 18-25 59-25 66 0 1 1 7 3 12 8 24 7 22 11 25 4 2 7 2 34 3 15 0 32 1 36 0 3 0 46 0 94-1z"/></svg>