<svg xmlns="http://www.w3.org/2000/svg" width="1344" height="566"><path d="M0 283V0h1344v566H0V283m823 278c30-1 77-1 105-1 100 1 172 0 185-2 9-2 12-5 12-10 0-6-15-49-23-65-2-3-5-11-7-17-7-16-12-24-24-38-3-3-10-13-16-22-6-8-13-18-15-21-11-16-15-26-18-39-1-6-1-6 1-8 1-2 11-5 34-13 5-2 10-3 13-3 8 0 13-8 15-20 0-5 1-11 2-13 0-4 0-6-3-12-7-16-8-21-11-38-4-22-6-27-16-36-9-9-37-26-51-32-17-8-26-13-29-16-4-4-9-15-11-23-8-28-24-61-38-81-11-15-31-34-42-39-15-7-35-8-103-8l-49 1-11 4c-7 2-13 5-14 5-4 2-25 24-33 33-10 11-19 25-26 42-2 6-11 20-20 31-9 12-10 15-10 29 0 15 1 21 9 36 3 6 7 16 9 22 5 13 8 18 12 20 2 1 5 2 6 2 1 1 3 3 5 6 2 2 7 9 11 14 9 11 11 15 14 23s4 10 5 28c1 9 3 18 4 20 1 6 9 13 17 18 3 1 8 5 11 10 4 4 11 10 16 14 12 11 19 21 17 28 0 1-5 13-10 26-10 22-11 24-18 31-5 6-8 11-11 17-4 9-12 33-15 46-1 5-3 15-5 21-6 22-6 27-1 30 2 1 40 2 59 1 7 0 38 0 68-1z"/></svg>