<svg xmlns="http://www.w3.org/2000/svg" width="1344" height="566"><path d="M0 283V0h1344v566H0V283m654 275c39 0 423 0 450 1h43c10-1 19-1 21-1 4 0 6-2 6-7 0-7-2-11-21-51-4-8-10-18-12-22-9-13-30-33-46-44-6-4-36-19-43-22-15-5-43-18-56-26-5-3-13-6-16-8-12-4-16-6-22-8-13-5-42-25-47-34-5-8-4-17 7-37 6-13 12-21 20-30 17-18 26-36 28-53 0-7 0-7-3-12-2-4-3-6-3-10 0-5 4-34 7-52 2-11 2-26 1-34-2-12-8-30-13-38-5-10-19-25-29-32-4-3-11-7-16-10s-11-7-14-8c-6-5-12-7-20-8-6-1-8-1-12 0-3 2-7 2-20 1h-16l-12 3c-12 5-33 15-43 21-9 6-19 20-25 37-5 15-8 29-12 61-1 12-2 23-3 24-1 4-4 6-10 7-14 4-19 16-15 40 3 12 8 22 18 34 6 6 9 12 10 14 3 11 4 65 1 75-1 5-10 12-29 27-16 13-28 20-40 23-9 2-30 10-53 21-5 2-14 6-21 9-52 22-69 33-91 61-20 25-31 45-37 66-3 13-3 18 0 21l2 2 56-1c33 0 62 0 70 1 8 0 19 1 26 0 6 0 21 0 34-1z"/></svg>