<svg xmlns="http://www.w3.org/2000/svg" width="1344" height="566"><path d="M0 283V0h1344v566H0V283m516 278c159 0 189 0 192-1 5-1 7-5 8-12s3-10 10-13c5-2 5-2 5-5 0-2 1-6 1-8 3-6 2-14 0-17-3-4-11-9-14-9-1 0-4-2-7-4-3-3-12-10-20-18-9-7-21-17-27-22-15-13-24-21-27-25-5-6-4-8 6-19 5-5 9-10 10-12s1-12 0-20c-4-24-2-39 7-56 7-14 9-21 11-40 2-30 4-41 8-49 3-7 3-8 3-15 0-6 0-10-2-15-4-14-5-22-5-44 0-55-5-81-20-97-7-8-32-24-45-29-8-3-43-13-50-14-4-1-16-1-34 0-29 0-32 1-50 7-12 4-19 8-30 16-9 5-11 8-17 16-16 21-22 31-27 48-2 6-4 15-6 20-3 11-8 30-11 48-8 47-9 69-8 139l1 35-2 5c-2 4-3 5-17 11-8 4-19 9-23 11-9 3-10 3-30 4-11 0-21 1-22 2-2 1-9 4-16 7-6 3-17 8-24 12-14 7-20 11-28 22-5 8-10 17-11 22-1 1-5 11-11 21-10 21-11 23-35 48-14 14-14 14-15 28-1 6-1 9 1 13 1 4 3 7 4 7 2 1 28 2 112 2 60 0 110 0 111 1 0 0 7 0 16-1h128z"/></svg>