<svg xmlns="http://www.w3.org/2000/svg" width="1344" height="566"><path d="M0 283V0h1344v566H0V283m504 274c21 0 54-2 64-4 9-1 13-8 15-25 1-14 3-22 7-29 1-3 4-9 5-13 1-7 9-22 14-29 4-4 27-24 39-33 10-8 15-13 15-17 0-1-2-6-3-10-2-3-4-9-5-11-5-14-14-26-32-44-13-13-15-15-18-22-3-6-5-9-11-15-8-8-11-13-11-19 0-3 1-5 16-20 9-8 17-17 18-19s3-9 4-16 3-15 4-19 2-9 2-14 1-12 2-17c2-16-2-27-16-37-8-7-20-14-29-17-6-3-9-3-17-3s-9 0-16 3c-9 5-18 12-22 17-4 6-7 14-10 34-4 30-11 46-23 54-4 3-8 7-11 10-5 7-8 9-23 18-6 3-17 10-23 15-13 10-34 30-43 42-6 9-17 28-19 37-1 3-4 11-7 17-2 6-7 20-11 31-3 10-8 21-9 25-2 3-6 11-9 18-8 20-13 31-23 43-11 14-12 18-11 25 0 7 4 13 8 18 3 3 28 16 35 18 2 1 6 3 8 5 2 1 5 3 6 3 24 2 49 2 140 0z"/></svg>