<svg xmlns="http://www.w3.org/2000/svg" width="1344" height="566"><path d="M0 283V0h1344v566H0V283m495 277c18 0 38-1 43-1h26c9 1 57 1 106 1 70 0 93 0 100-1s12-1 27 0c10 1 30 1 44 2 21 0 26 0 29-1s6-2 8-2c5-2 6-3 5-10-1-11-6-26-12-34-2-3-7-15-15-36-7-21-19-53-25-67-7-20-17-52-20-65-2-13-3-27-1-38 1-3 2-13 3-22 2-8 4-24 6-35 8-49 5-73-9-91-2-2-6-8-9-12-9-16-13-20-23-21-13-2-12-3-18 2-3 2-8 5-10 7-4 2-6 4-8 8-4 6-4 10-3 43 1 17 1 24 0 30-2 12-4 14-9 7-4-6-9-8-15-8-7 0-8 2-13 24-2 11-3 17-3 25 0 13 0 13 5 31 5 15 7 19 16 29 13 16 20 31 24 58 2 9 1 10-5 6-3-1-7-5-10-7-5-5-20-12-33-18-4-1-11-4-16-6-18-9-27-12-44-15-13-2-23-7-37-20-5-4-10-9-13-11-8-6-8-16-1-31 6-13 9-20 11-27 2-9 5-19 7-25 1-2 2-11 3-19 1-14 1-26-2-88-1-30-10-55-26-72-14-14-27-21-51-26-22-5-35-5-58 0-17 4-26 8-40 19-17 12-21 16-27 27-10 16-13 29-13 57 0 15-1 22-5 33-3 8-2 21 1 30 6 14 13 25 22 34 8 9 9 12 7 15-1 1-12 4-14 3-1 0-5-3-10-7-9-8-15-10-21-10-2 1-5 2-7 3-3 2-6 7-6 10 0 6 7 23 18 42 5 9 9 19 10 28 0 7-2 11-11 20-7 8-18 14-26 16-3 1-9 4-13 6-3 2-10 6-14 7-5 2-14 6-21 11-7 4-15 9-18 10-8 4-20 11-23 15-5 7-7 12-8 22 0 5-2 14-3 20s-1 18-1 30c-1 33-3 47-9 68-3 7-4 19-3 21 1 5-1 5 110 5 57 1 103 1 104 1 0 1 3 1 7 1 4-1 22-1 40-1z"/></svg>