<svg xmlns="http://www.w3.org/2000/svg" width="1344" height="566"><path d="M0 283V0h1344v566H0V283m813 279c3-1 5-6 6-16 2-22 3-31 2-42-1-12 0-16 2-16s11 9 12 13c1 3 3 11 4 20 1 11 3 17 4 21 2 4 3 8 3 9 0 8 4 9 21 9 11 0 13 0 15-1 1-1 2-3 2-4s-2-5-4-10l-4-8v-79c0-10 0-23-1-30-3-35-3-32 1-61 1-8 2-21 3-30 3-39 3-43 5-47 1-3 3-6 4-9 2-3 3-4 4-4 2 0 3 2 4 7 2 11 7 19 12 19 3-1 4-5 4-24-1-14-1-16-3-20-1-2-3-8-4-13-2-5-4-13-6-19-4-15-5-22-3-30 1-5 1-8 0-15-2-15-8-40-10-46-3-6-11-14-19-20-8-5-9-8-9-16 1-4 2-9 2-12 2-3 2-8 2-18 0-17-1-24-6-29-4-5-8-6-17-6-18 1-25 13-24 42 1 9 0 13-1 16-2 6-9 11-22 18l-12 6-17 1c-19 1-25 3-31 7-8 6-12 15-17 34-2 9-2 8 0 31 0 6 0 8-3 16-6 14-9 34-11 65-1 23 0 45 2 56 3 8 4 27 4 41 0 13 1 28 4 40 9 39 9 48 5 90-4 27-5 47-3 53s5 7 14 7c3-1 7-1 8-2 3-1 7-11 7-15 0-2 1-4 5-8 7-8 8-11 8-26 0-8 1-16 2-23 4-19 5-28 6-37 0-7 1-9 2-10 3-1 4 3 5 36 1 23 0 35-3 51-1 5-1 15-1 21 0 10 0 12 2 14 1 1 2 3 4 3 2 1 39 1 41 0z"/></svg>