<svg xmlns="http://www.w3.org/2000/svg" width="1344" height="566"><path d="M0 283V0h1344v566H0V283m774 277h180c27 1 107-2 115-3 3 0 7-1 8-2 3-2 5-7 5-16v-7l-7-7c-3-4-11-9-16-13s-13-9-18-13c-5-3-15-9-22-14-8-5-20-12-28-17-18-13-19-16-11-26 8-11 25-38 26-44 1-1 1-9 1-18 1-12 1-16 3-19 3-7 8-9 18-9 9 0 17 2 28 8 13 6 20 8 26 8 7-1 11-4 18-12 10-11 12-15 13-29 1-13 3-23 4-26 1-4 1-12 0-18-1-2-2-7-3-10-2-10-7-20-12-24-7-6-12-9-23-12-15-5-25-12-37-27-8-10-14-20-18-30-3-8-6-11-12-14-3-1-8-4-11-6-4-2-8-5-10-6-7-4-22-18-30-30-12-16-19-25-40-45-23-21-27-24-41-33-39-26-69-35-98-31-14 3-18 4-34 12-11 5-14 6-25 9-22 4-30 8-44 21-17 15-25 29-34 58-8 25-11 38-17 63-2 12-4 23-5 25-2 6-6 10-11 11-4 0-4 0-18-8-7-4-10-5-12-3s-1 5 4 17c6 15 11 31 12 41 2 17 4 22 11 29 11 10 21 11 51 5 7-2 13-1 16 2 1 1 4 5 6 9 3 4 9 15 16 24 14 21 15 24 14 43 0 18-1 22-9 26-3 1-6 2-7 2s-5 2-10 4c-4 1-12 4-16 5s-10 3-12 3c-2 1-10 3-16 5-24 5-37 9-61 17-37 13-50 17-64 19-9 0-22 4-25 5-1 1-3 4-5 6-3 5-15 19-18 23-3 2-10 11-24 28-16 20-19 38-7 42 2 1 25 1 82 2h79c0 1 4 1 8 1 4-1 79-1 167-1z"/></svg>