<svg xmlns="http://www.w3.org/2000/svg" width="1344" height="566"><path d="M0 283V0h1344v566H0V283m1028 275c55 0 52 0 54-7 1-7-1-25-5-44-5-29-5-30 3-32 10-4 15-7 19-12 6-8 7-12 7-21s-1-13-10-39c-11-30-13-37-22-54-4-8-5-12-7-21-1-6-3-12-3-13-1-1-5-4-10-6-12-6-27-16-32-22-5-5-12-19-15-30-2-9-5-25-8-51-1-10-3-23-5-28-9-38-35-56-72-50-14 2-28 10-39 22s-14 25-11 51c2 17 4 35 5 38 0 2 1 8 2 13v8l-5 10c-9 15-9 15-8 38v20l-3 6-3 7 1 6c1 4 2 10 2 13 0 4 0 8 1 10s1 7 2 11c0 8 1 9 4 13 3 3 8 11 12 19 12 25 21 44 21 45s2 6 4 10l4 9-1 8c-1 4-1 13-2 20-1 17-2 23-4 30-1 7-1 14 0 17 2 4 6 5 30 5 13 0 24 1 26 1 3 0 8 1 12 0h56z"/></svg>