<svg xmlns="http://www.w3.org/2000/svg" width="1344" height="566"><path d="M0 283V0h1344v566H0V283m296 277c10-1 35-1 56-1h40c2 0 6 0 10 1 4 0 6 0 9-1 2-2 4-2 14-1 11 1 74 2 97 1h117c23 1 134 1 155 0 12 0 18-1 19-2 2-1 2-3 2-8 0-4 1-11 2-15 1-9 1-14-3-21-4-9-11-13-55-34-45-23-69-35-72-39-3-3-3-7 0-14 1-2 4-9 6-14 1-5 5-16 8-23 15-39 24-70 25-93 1-6-2-49-3-59-1-2-2-10-2-17-6-51-12-84-19-102-6-16-12-28-24-45-6-9-25-28-35-35-12-8-39-21-52-26-18-6-27-6-50-1-15 3-18 3-26 7-3 2-10 4-16 5-19 4-30 9-44 24-20 20-34 48-46 92-7 24-14 73-19 123-5 56-3 86 9 141 1 7 2 13 2 15 0 8-18 18-38 21-8 1-17 6-33 15-6 4-17 10-25 14s-19 10-23 13c-5 3-13 8-16 10-12 6-24 16-27 20-1 2-2 7-3 10-1 4-3 12-4 19-2 8-3 14-3 15 2 6 8 7 33 6 10 0 25 0 34-1z"/></svg>