<svg xmlns="http://www.w3.org/2000/svg" width="1344" height="566"><path d="M0 283V0h1344v566H0V283m853 280c14-1 25-1 26-2 1 0 22 0 47-1 25 0 51 0 60-1s39-1 68-2c51 0 52 0 59 2 11 4 32 2 41-3 8-4 10-7 10-14 0-6-4-26-6-36-2-5-3-17-5-42-1-7-1-20-2-27-1-15-4-40-7-52-3-16-5-30-5-35-2-15-12-53-17-63-7-13-20-28-31-35-6-3-25-11-37-15-27-11-37-16-49-27-8-7-8-8-8-25 0-9 0-17 1-19s4-7 7-12c7-9 10-16 11-25 0-6 0-6-4-12l-4-6V95c-1-19-4-33-8-41-2-3-7-9-12-15-8-8-9-9-17-11-6-2-10-3-18-3-5 0-10 0-12 1-1 1-5 2-8 2-15 4-30 12-42 22-4 5-5 7-8 14-2 8-2 9-3 41-1 20-1 34 0 36s4 10 8 18c9 17 12 27 13 37s0 13-7 17c-2 1-7 5-10 7-9 8-22 16-43 27-23 11-34 19-45 29-10 9-23 31-27 45-6 22-13 61-18 93-1 10-3 23-4 28-2 11-2 33 0 41 3 7 12 42 14 53 3 11 7 22 9 24 3 1 33 4 46 3h37m-572-2h73c3 0 12 0 20-1 16-1 19-2 21-9 0-2 2-8 2-13 2-9 9-39 12-51 1-5 1-14 0-21-4-16-4-21-4-40 0-15 0-22-1-26s-3-10-4-14c0-5-3-16-5-26-8-41-13-49-39-68-14-11-19-16-22-21s-3-8 2-17c8-18 10-24 13-39 3-16 3-16 2-35-1-25-3-37-5-44-4-17-17-29-40-38-9-3-26-4-37-2-18 4-33 15-40 29l-3 7-1 19c0 10-1 20-2 21-3 7 0 16 9 35 6 12 7 17 7 28 0 8 0 8-3 11-2 2-4 3-5 3-3 0-8 5-16 15-6 9-17 19-29 28-3 2-7 7-9 10-2 2-10 9-16 15-24 19-32 30-37 52-2 9-2 13-2 32 0 22 0 31-5 49-2 9-2 14-2 22 0 11 0 12 3 20 7 13 11 25 14 36 3 14 11 27 18 31 2 2 36 3 52 2h79z"/></svg>