<svg xmlns="http://www.w3.org/2000/svg" width="1344" height="566"><path d="M0 283V0h1344v566H0V283m625 279h43c33 1 36 1 44-1s12-2 58-2c54 1 55 0 59-5 3-4 3-11 1-29-1-12-1-20-1-33 1-13 1-18-1-22-1-7-5-29-6-41-3-29-4-41-6-52-1-7-3-18-4-25-6-36-7-38-12-44-2-3-15-12-27-20-3-2-8-5-10-7-3-2-5-4-6-4-5 0-27-22-29-28 0-1 0-4 1-7 1-2 2-7 3-11s3-10 5-15c5-11 6-15 7-32 0-15-1-26-5-37-2-5-4-8-11-15-13-13-22-17-44-18-20 0-32 1-44 7-10 5-20 14-24 22-2 5-2 7-3 22 0 16 1 38 3 49 1 7 0 9-5 14-4 3-5 3-10 3-7 0-10 1-14 6-5 5-9 15-13 34-2 10-3 15-6 19-1 3-4 9-5 13-2 5-9 20-16 35-12 25-13 26-20 35-17 18-23 37-20 60 1 9 5 23 8 28 2 5 10 15 12 15 7 3 24-3 42-15 7-4 9-5 10-2 0 1-1 16-3 29s-8 39-10 43c-1 1-2 7-3 12-1 10-1 11 0 13 3 5 16 7 39 6h23z"/></svg>