<svg xmlns="http://www.w3.org/2000/svg" width="1344" height="566"><path d="M0 283V0h1344v566H0V283m480 276c12-1 44-2 111-2 32-1 61-1 65-1 5-1 10-1 16 0 5 1 14 2 20 2s16 1 22 1h24c7-1 54-1 104-2 120-1 114-1 156 0 33 1 37 1 38-1 1-1 1-2 0-3-1-2-27-19-37-25-4-2-11-7-16-10-5-2-11-6-13-7-5-2-22-10-40-19l-12-6-11-12c-6-7-12-14-13-16-3-5-3-10 2-20 2-5 4-10 4-12 1-3 4-9 7-16 2-6 7-15 9-22 9-19 24-48 28-55 5-7 10-12 15-13 12-3 23-12 34-30 3-4 6-9 7-10 6-9 11-26 11-38 0-10-1-13-9-19-7-6-8-8-5-22 1-6 2-14 3-17 0-4 1-12 6-40 1-6 2-19 3-29 2-25 1-30-8-50-4-9-9-18-11-22-4-8-10-17-18-24-13-11-18-13-56-14-15-1-57-1-93-1-88 1-88 1-96 17-2 4-5 9-7 13-7 10-15 32-21 56-2 10-6 32-7 46 0 15-4 34-6 37-1 1-3 3-7 4-11 2-17 11-19 25-1 9-1 18 3 32 4 20 9 29 24 43 10 10 10 10 10 37-1 23-3 43-7 54-3 9-11 24-14 27-4 5-6 5-31 4-16-1-25-1-27 0-4 1-10 7-27 26-12 14-27 28-35 34-3 2-11 6-18 8-6 3-14 7-17 9-7 5-29 18-35 21-3 1-16 9-30 17-28 16-48 28-56 36-5 5-5 5-4 7 2 1 5 1 17 2 22 1 57 1 67 0z"/></svg>