<svg xmlns="http://www.w3.org/2000/svg" width="1344" height="566"><path d="M0 283V0h1344v566H0V283m570 276h120c33 0 34 0 38-2 3-2 5-4 6-6 3-5 4-20 3-32-1-10-2-23-4-50v-25c1-17 2-18 12-17 4 1 17 1 29 1 18 0 27 0 44-2 11-2 22-3 24-4 3-1 26-5 36-6 5-1 18-4 31-8 5-2 10-3 12-3 4-1 18-9 29-17 16-10 28-25 28-35s-14-33-35-56c-13-14-20-20-39-30-16-8-17-9-26-17-5-6-12-11-14-12s-10-3-16-5c-10-2-15-3-30-11-16-7-20-8-24-8-8 0-16-3-42-15-26-14-29-16-31-23-1-2-2-10-3-18 0-7-2-17-2-21-1-4-2-11-3-16-2-16-13-40-24-52-18-18-33-25-70-34-9-2-20-3-24-4-16-1-36 5-54 16-10 6-28 21-37 31-13 15-26 39-34 62-2 5-5 12-6 14-3 6-11 14-19 19-16 10-21 14-30 18-5 2-16 9-25 15-18 12-30 18-44 22-15 5-29 12-34 17s-14 18-18 26c-5 11-8 33-6 50 1 6 2 14 3 17 0 9 3 16 10 24 22 24 32 37 38 50 3 8 4 16 2 48-3 41-5 54-8 67-2 6-5 13-5 15-2 5-2 11-1 13 1 5 3 5 55 4 27-1 60-1 72-1 13 0 36 1 52 1 15 0 30 1 33 1 6 1 25 0 31-1z"/></svg>