<svg xmlns="http://www.w3.org/2000/svg" width="1344" height="566"><path d="M0 283V0h1344v566H0V283m417 278c19 0 36-1 38-1 6-2 8-7 9-22 0-7 1-13 2-13 1-1 10 0 14 3 4 2 16 3 20 3 8-2 16-13 18-27l1-6-4-5c-8-8-9-11-9-16 1-5 0-8-5-10-8-3-16-4-24-3-9 1-11 1-13-5-2-8-1-18 8-51 3-9 3-13 3-23 0-11 0-12-4-23-7-19-10-26-15-34-5-10-16-22-25-28-7-5-9-7-9-11 0-1 3-8 7-15 6-13 7-14 12-17 9-6 9-6 13-30 1-12 1-19 0-23-1-1-2-10-2-20-1-25-5-37-15-43-16-11-31-15-51-15-12 0-13 0-21 3-5 2-11 5-14 6-13 9-19 27-21 61-1 10-2 23-2 28-1 6-1 26-2 44 0 36 0 36-6 44-4 5-11 23-14 35-1 2-2 10-4 16-2 8-3 15-4 28-1 9-2 24-4 33-2 15-2 18-1 28 1 13 5 35 8 44 1 6 3 25 3 34 0 8 2 15 6 19 3 3 3 3 7 3 12-3 16-2 20 4l4 4c4 2 18 3 31 2 6 0 26 0 45-1m920-2c5-4 5 3 6-159V246c-1-5-2-6-7-12-4-4-10-11-13-17-7-10-11-13-17-15-6-1-17-7-21-12-1-1-3-5-5-10-5-12-5-21-2-42s4-24 5-43c1-14 1-16 4-19 4-6 5-13 4-19-1-3-1-7-1-9 0-4-1-5-4-6-5-1-44-5-56-5-18 0-38 4-49 11-9 5-23 21-26 29-1 3 1 51 2 65 3 16 4 20 12 42 6 16 9 19 21 22 5 1 10 6 11 10 0 3 0 5-2 10-4 7-8 12-19 23-9 9-18 23-18 27 0 2-1 5-2 8s-2 6-2 7c0 2-1 5-2 9-2 7-6 18-8 27-1 4-3 9-3 12-3 9-6 29-7 47-2 26-5 52-7 57-5 10-22 29-32 35-6 3-7 3-10 2-7-1-18-5-25-8-7-4-17-7-20-7s-4 2-4 6 1 5 5 10c8 7 8 9 7 14s-10 13-18 17c-3 2-5 3-5 5-2 4 0 6 5 8 2 2 4 4 7 9 2 3 4 7 5 7h7c9-1 10-1 15 5 1 3 4 5 5 5 0 1 4 1 8 1 8 0 25 2 31 4 5 1 11 1 26 0 18-3 24-2 27 0s5 3 19 3c9 1 23 2 30 2 8 0 38 1 67 1 52 0 53-1 56-3m-617 0h15c18-1 66-1 113 0s46 1 49-7c2-4 2-6 2-20 0-9 0-31-1-48-2-51 0-99 6-124 3-14 6-39 6-52 0-9-1-13-3-20-1-5-4-17-6-26-4-20-6-26-13-42-7-18-9-22-16-30-8-11-9-14-9-23s-2-11-11-13c-4 0-8-1-10-2-3-2-11-12-13-18-1-5-2-30 0-41 1-4 1-14 1-23 0-14 0-15-3-21-1-4-5-10-8-14-5-6-7-9-14-13-17-10-15-10-34-10-16 0-17 1-23 3-14 6-28 14-34 20-10 10-12 17-10 34 1 4 1 7-1 11-2 9-2 14 0 20 1 6 1 7 0 15-2 16-2 18 0 21 17 28 25 40 30 42 1 0 6 2 11 3 10 1 14 4 14 8 0 3-1 5-7 12-6 8-12 19-12 22 0 2-1 5-1 8-1 3-3 10-4 15-2 4-6 16-9 26s-6 21-7 24c-1 9-5 28-8 36 0 3-2 10-3 16-1 5-3 13-4 17-3 10-5 20-7 29-1 5-3 15-5 22-2 8-4 19-5 24-2 9-5 20-8 30 0 3-2 9-2 14-1 5-4 18-6 30-2 11-5 25-5 31-1 9-1 10 1 13l1 2 25-1h28z"/></svg>