<svg xmlns="http://www.w3.org/2000/svg" width="1344" height="566"><path d="M0 283V0h1344v566H0V283m776 277c100 1 110 0 112-1 3-3 0-7-24-27-8-6-20-20-29-33-5-8-9-17-11-27-1-6-8-26-10-30s-9-23-11-34c-3-9-9-19-18-28-9-10-15-14-26-16-11-3-30-14-32-18 0-3 1-5 6-15 6-9 13-17 17-20 2 0 5-1 8-1 6 0 12 3 19 12 3 4 7 7 9 8 3 1 3 1 8-2 5-2 9-3 17-2 4 1 5 1 7-2 3-3 3-6-2-21-3-9-4-15-5-22-1-8-1-11-4-16-2-3-4-8-5-11-3-6-5-24-5-35 0-16-6-61-9-77-5-20-9-28-22-44-13-19-25-26-52-31-10-1-29-1-37 0-10 2-42 14-60 23-14 7-23 17-46 49-12 18-16 26-34 67-3 7-7 16-9 19-1 3-3 7-5 9-1 3-4 7-5 9-2 3-5 7-6 9-8 8-8 13-4 24 3 7 13 16 20 19 9 3 13 5 20 11 7 7 10 13 9 18-1 2-4 7-7 12-6 10-8 14-8 21 0 5 0 5-6 11-16 18-34 45-38 57-1 4-5 13-9 22s-9 20-11 25-4 12-6 14c-4 8-9 24-10 34-1 5-3 12-3 16-1 4-2 9-2 13-1 7 0 10 7 11 2 0 59 1 126 0h186z"/></svg>