<svg xmlns="http://www.w3.org/2000/svg" width="1344" height="566"><path d="M0 283V0h1344v566H0V283m849 278c18 0 20 0 22-2 1-1 2-3 2-4s0-6 1-11c1-24 0-33-1-37-2-4-9-9-16-13-2-2-7-5-9-7-10-9-36-25-61-37-21-12-25-14-43-28-27-22-31-26-34-32-5-8-4-20 4-45 5-19 7-22 19-32 6-6 13-12 17-14 6-4 7-6 12-14 7-14 8-18 8-37s-2-56-4-73c-2-19-6-32-17-55-8-15-16-25-33-38-8-6-19-11-31-14-5-1-39-4-49-4-11 0-23 3-31 8-25 14-39 32-52 67-11 26-12 37-5 84 2 12-2 58-6 84-2 14-8 31-13 36-2 2-7 5-14 9-10 5-12 5-27 7-31 5-45 9-55 13-7 3-13 11-16 18-4 11-5 18-6 42 0 23 0 25 2 37 2 7 4 18 5 25 3 17 10 42 14 52 5 11 10 14 30 15 39 2 333 2 387 0z"/></svg>