<svg xmlns="http://www.w3.org/2000/svg" width="1344" height="566"><path d="M0 283V0h1344v566H0V283m678 275c41 0 81 0 87-1 15-1 60-1 101 1 36 1 37 1 37-3 0-3-8-14-16-21-9-8-30-24-36-26-2-1-9-5-15-9-13-7-25-14-41-20-17-8-51-24-59-28-10-6-14-11-14-16 0-7 16-40 29-62 2-4 7-12 11-18 7-14 16-26 20-29 1-1 7-4 12-6 11-5 16-9 22-18 3-3 7-9 11-13 10-13 19-34 20-49 0-8 0-9-2-14-3-7-3-19 1-40 4-24 7-40 8-59 2-24 1-33-4-49-8-28-20-52-31-63-6-7-11-8-24-10-14-2-81-2-145-1-52 1-61 1-68 3-11 2-12 3-24 21-19 27-27 52-33 98-3 15-6 26-9 30-1 2-4 4-9 5-8 2-14 7-17 14-3 6-4 21-3 34 2 16 3 20 8 32 5 9 7 12 15 20 9 10 9 10 10 16 2 14-6 65-13 80-1 2-4 7-6 9l-4 5h-28c-27 1-29 1-33 3-7 3-15 14-35 46-3 4-7 9-10 11-8 6-23 14-29 16-11 3-46 21-51 25-5 5-6 9-6 20 0 13 4 51 5 54s6 7 10 8c3 1 69 3 134 4 26 0 52 0 59 1 7 0 30 1 51 0 20 0 72 0 114-1z"/></svg>