<svg xmlns="http://www.w3.org/2000/svg" width="1344" height="566"><path d="M0 283V0h1344v566H0V283m751 197c9-1 16-2 18-2 4-2 14-5 25-7 9-1 23-5 36-9 4-1 8-2 10-3 3 0 7-1 10-2 5-2 7-3 33-3 35 0 32 2 32-16-1-8-1-16-2-20-1-6-2-21-4-42-1-9 0-13 1-18 1-7 1-7-1-14-4-11-7-13-30-20-8-2-16-5-22-8-1-1-4-3-5-5s-4-7-7-10-5-5-5-6l4-4 3-4-1-9c-1-14-10-76-13-92-10-45-21-76-35-97-6-9-20-23-30-29-9-6-27-15-35-18-9-3-24-4-31-2-3 1-9 3-14 6-9 4-10 4-19 5s-12 2-17 4c-11 6-22 18-31 35-6 10-13 34-17 52 0 4-1 7-1 8-1 1-3 16-5 32-1 10-1 46 0 62 1 18 4 42 5 51 2 10 1 11-9 11-4 0-11-1-15-1-4-1-12-2-18-2-10-1-11-1-15 1-2 2-8 7-12 12-5 5-12 11-16 14-4 2-12 8-18 12-5 4-15 11-21 15-7 4-15 10-18 13-10 9-15 10-25 11h-11c-1 0-5 7-5 9 0 1-6 15-12 28-5 11-10 26-11 34-1 3-2 8-3 10-1 4 0 6 4 8s6 1 18-3c13-4 22-7 25-7 2 0 6-1 10-2 11-2 25-3 30-1 2 1 9 1 19 1 14 1 16 0 20-2s5-2 12-1c4 0 9 1 11 2 5 2 17 5 27 7 15 3 33 4 62 3 35 0 59 1 76 6 2 1 6 3 9 5l5 4 6-1c4 0 14 0 23-1z"/></svg>