<svg xmlns="http://www.w3.org/2000/svg" width="1344" height="566"><path d="M0 283V0h1344v566H0V283m97 277c2-1 7-3 10-3 10-2 16-5 16-10 0-1-1-3-3-5-1-2-3-6-4-9-2-2-6-9-10-14-5-6-8-11-9-16-4-9-3-12 1-15 4-2 7-2 14 0 3 0 8 2 12 3 3 0 8 2 10 3s8 2 12 3c8 0 9 1 19 8 1 2 4 3 6 4 6 3 8 6 8 14 1 4 2 7 2 8 4 3 8 2 19-1 15-5 16-6 23-14 10-10 13-15 17-24 2-5 5-11 6-14 3-5 4-6 4-18 0-13-1-17-9-37l-5-9-10-8c-20-15-20-15-22-24 0-4-2-9-3-10-1-4-7-8-13-9-2-1-9-3-14-4-8-3-9-4-18-12-9-10-11-12-24-19-4-3-9-6-10-7-3-3-8-13-9-20-2-8-2-23-1-31 2-8 2-13 0-20s-7-17-9-20-2-4-2-14c3-38 2-36 7-46 3-9 3-10 4-27 1-9 2-23 3-30l2-13-2-8c-3-13-7-20-19-39-12-18-16-22-31-31-8-5-25-10-31-10-2 0-5-1-7-1-1-1-6-2-10-3-7 0-9 0-12 2l-4 1v274c0 260 0 274 2 275 3 1 17 2 53 1 31 0 37 0 41-1m555 0c14-1 32-1 39-2 19-2 140-2 150 0 17 2 238 4 250 2 2 0 5-1 5-2 3-5-1-13-15-28-4-5-10-12-12-16-7-9-13-15-19-20-10-7-24-19-38-32-15-15-33-31-46-41-4-3-12-9-16-13-23-18-32-22-57-24-12-1-13-1-19-4-12-6-20-17-24-31 0-3-1-11-2-19-1-21 3-30 20-52 10-11 18-23 20-30 4-10 4-28 1-36-1-4-1-16 1-27 1-6 1-16 1-29 0-17 0-19-2-28-8-28-21-44-49-60-17-9-30-14-50-17-45-6-92 9-118 35-6 7-8 10-13 19-6 13-8 21-9 42-1 8-2 18-3 22 0 5-2 18-4 29-1 11-3 26-4 32-2 16-2 31 1 48 3 18 5 26 11 46 11 33 15 40 29 49 5 3 9 7 10 8 2 2 2 2 0 5-2 1-8 5-13 8s-13 7-17 10c-5 3-12 7-17 9-32 16-80 54-98 78-2 4-6 9-9 12-7 9-13 18-19 31-9 18-9 25 1 27 5 1 101 0 134-1z"/></svg>