<svg xmlns="http://www.w3.org/2000/svg" width="1344" height="566"><path d="M0 283V0h1344v566H0V283m708 279c6 0 25 0 42 1 34 0 56-1 59-4 2-2 1-10-2-26-2-8-4-22-5-42-2-16-3-34-4-40-2-22-8-49-13-59-6-12-18-25-31-34-5-3-13-9-18-12s-13-9-18-13c-14-9-28-21-31-24-1-2-5-6-9-10-6-7-9-12-14-22-4-7-4-10 1-20 4-9 8-20 8-25 3-16 8-35 13-45 2-5 4-10 4-11 0 0-1-4-2-7-3-5-3-7-3-16 0-6 1-14 2-18 1-7 1-12-2-28-1-9-4-20-7-25s-15-18-22-23c-4-3-12-7-18-10-10-5-12-5-19-6-9 0-23 1-31 3-3 1-11 3-18 5-18 4-25 8-29 18-2 6-6 12-16 27-5 7-8 13-8 20-1 3-2 8-2 11-1 3-1 10-2 16-1 9-1 12-5 19-3 7-3 8-3 20 0 10 0 14 2 19 3 10 5 12 13 18 10 9 12 13 13 27 0 9 0 10-3 19s-3 11-2 14c3 11 1 13-22 19-25 7-38 12-52 22-9 6-21 17-25 23-6 8-15 26-18 34-5 15-25 74-27 81-1 4-4 12-5 18-2 6-5 15-6 20s-3 12-4 15c0 3-1 12-2 24v19l3 3c3 3 4 4 12 5h39c17-1 50 0 72 0h215z"/></svg>