<svg xmlns="http://www.w3.org/2000/svg" width="1344" height="566"><path d="M0 283V0h1344v566H0V283m661 275c55 0 71-1 89-4 10-2 33-7 35-9 1 0 29-9 41-13 21-6 33-10 45-14 21-7 47-14 62-16 6 0 23-1 37-2 29 0 31-1 31-6 0-3-5-25-7-32-1-4-2-11-2-18-2-20-6-34-19-56-5-7-14-27-18-38-4-9-14-25-20-32-5-5-8-7-15-10-9-5-36-14-59-21s-27-9-40-22c-14-13-17-17-17-22 0-2 3-9 7-19 8-18 18-44 20-56 2-5 7-18 11-24 16-26 17-47 5-115-1-8-3-16-3-17-2-6-7-7-30-8-25-1-169-1-189 0-14 1-15 1-17 4-2 2-3 5-4 12-2 12-2 40 0 54 1 7 2 16 2 28 0 25 1 29 16 60 10 20 12 25 13 31 2 12 1 14-19 49-11 17-12 18-28 24-19 6-24 8-26 10l-3 3 5 11c6 14 8 21 10 29 3 10 3 11-6 40-7 20-11 33-12 41-1 4-4 11-6 16-3 9-5 12-14 29l-3 6v18c0 18 0 19 5 41 1 5 2 12 2 16 1 10 2 12 9 19 5 4 7 6 16 8 9 3 14 5 25 6 2 1 7 1 12 0 5 0 31 0 59-1z"/></svg>