<svg xmlns="http://www.w3.org/2000/svg" width="1344" height="566"><path d="M0 283V0h1344v566H0V283m354 277c175 0 249 0 264 1 18 1 82 1 98 0 29-1 30-2 30-51 0-24 0-25-2-30-4-9-10-14-57-46-21-14-28-21-28-27 0-1 1-6 3-11s5-16 7-25c4-17 10-34 15-44 4-9 8-18 10-28 14-60 15-69 18-99 1-8 3-19 4-25 1-8 1-16 1-33 0-20 0-22-2-32-5-19-7-24-11-32-8-13-16-20-35-32-4-3-9-6-12-8-6-4-41-20-51-23-9-3-25-4-36-1-9 1-10 1-30-1-14-1-34 6-47 17-32 26-48 51-62 98-8 28-12 48-18 83-2 11-3 20-4 20 0 0 0 4-1 8-1 7-4 25-10 53-5 25-12 50-19 62-5 10-14 18-35 28l-11 5-16 1c-16 1-21 2-27 6-4 3-17 9-24 12-11 4-22 10-27 15s-11 12-20 29c-15 25-26 39-56 68-13 12-24 24-25 25-2 6 0 14 4 16 3 1 23 3 27 2 1 0 85 0 185-1z"/></svg>