<svg xmlns="http://www.w3.org/2000/svg" width="1344" height="566"><path d="M0 283V0h1344v566H0V283m543 279c27-1 65-1 83-2 47-1 371 0 380 1h28c17 0 19-1 21-2 2-4 1-10-3-23-3-12-3-13-3-28v-16l-3-2c-2-2-10-7-19-11-21-10-56-27-64-32-4-2-9-5-13-7-7-3-13-10-13-14-1-4 2-49 5-68 5-47 3-126-7-182-2-17-10-48-16-63-12-35-34-63-65-82-11-7-34-18-43-20-15-3-36-1-50 5-6 3-8 3-19 4-22 1-29 5-50 24-10 9-17 19-25 35-16 32-22 62-25 117-1 25 0 58 3 74 1 10 1 15-2 26-3 9-5 13-9 16-6 6-12 15-14 21s-2 10-3 31c0 28 0 32-3 35s-16 8-27 9c-10 1-16 3-21 5-2 1-5 2-5 2-3 0-23 8-51 21-9 4-20 9-26 11-14 6-19 8-21 11s-2 3-1 8c2 10 0 20-11 51-8 20-10 25-11 33-1 6 0 8 4 10 3 1 36 3 44 2h55z"/></svg>