<svg xmlns="http://www.w3.org/2000/svg" width="1344" height="566"><path d="M0 283V0h1344v566H0V283m811 276c12-1 15-1 17-3 4-3 7-8 10-19 4-12 4-15 7-32 2-14 3-18 5-18 1 0 4 5 8 10 9 18 21 30 37 39 4 2 9 5 11 6 10 7 26 9 60 9l15 1 3 3c4 3 4 3 15 4 18 2 58-1 64-4 3-2 5-7 5-13 0-4-1-6-6-15-6-11-11-17-17-20-5-3-11-9-13-14-1-1-2-6-3-10-3-18-10-26-39-42-5-2-10-7-22-19-9-9-20-19-24-23-9-6-9-7-25-28-14-20-14-20-15-37-1-15 0-13-13-43-3-9-7-16-8-17s-3-3-5-4c-9-5-12-9-12-21 0-8 2-24 5-39 4-27 1-90-6-113-4-12-12-25-20-30-7-5-29-13-43-16-15-3-36-3-48 0-20 4-37 13-47 27-10 13-14 22-26 63-2 5-4 14-6 20-4 14-18 57-22 66-8 20-14 31-23 41-3 4-7 8-9 10-1 3-7 9-13 14-5 6-14 16-20 23-11 12-14 17-21 29-2 3-6 10-9 15-4 5-14 24-23 41-15 30-17 34-23 53-13 38-20 75-16 85 2 4 7 9 12 12 18 9 49 10 191 9h112z"/></svg>