<svg xmlns="http://www.w3.org/2000/svg" width="1344" height="566"><path d="M0 283V0h1344v566H0V283m356 277c29-1 43-1 118 1 43 1 80 1 104 1 21-1 82-1 134-1l96-1 2-2c3-3 4-9 3-22-1-21-6-46-16-76-7-19-7-20-11-29-4-7-4-7-3-12 4-16 4-16 1-19-1-1-8-4-14-7s-16-7-22-10c-25-11-42-18-48-20-21-9-26-14-25-32 1-8 5-38 8-61 1-8 1-15 1-26-1-13-5-59-6-63-1-1-1-7-2-14-2-22-7-52-12-64-8-23-16-35-34-54-14-13-27-21-52-29-12-4-13-4-24-4-10 0-11 0-22 4-7 2-15 4-20 4-15 2-22 5-33 14-20 16-34 40-45 80-6 20-11 44-17 90-5 35-5 41-6 62 0 22 0 25 7 55 2 13 0 19-11 24-6 3-10 4-17 5-6 1-11 2-14 3-3 2-8 4-11 5-4 1-12 5-18 8-6 4-20 11-31 17-18 10-19 10-22 15-2 4-3 7-3 13-2 14-5 29-12 57-3 11-6 30-9 55-1 19-1 23 2 27 4 6 7 6 27 7 11 0 20 0 20 1h8c5-1 17-1 29-2z"/></svg>