<svg xmlns="http://www.w3.org/2000/svg" width="1344" height="566"><path d="M0 283V0h1344v566H0V283m824 277c14 0 33 0 41-1 7 0 44-1 81-1 36-1 72-1 80-2 8 0 17 0 25 1 16 2 106 2 111 1 6-2 7-6 1-20-6-16-23-46-37-67-15-22-39-46-61-61-9-5-23-12-37-17-21-7-42-16-57-23-8-4-19-8-25-10-20-6-29-10-40-18-20-14-32-21-38-24-13-6-17-13-18-32 0-9 0-12 3-20 3-13 4-15 10-22 14-15 22-34 22-50 0-3-1-9-1-13-1-5-2-9-1-10 1-6 5-47 5-55 0-13-5-34-9-42-13-23-17-29-21-33-5-6-17-13-30-17-6-2-13-5-17-7-12-6-25-9-41-10-19 0-38 1-44 4-2 1-7 3-10 3-4 1-9 3-11 3-7 3-25 14-30 20-18 18-22 24-24 47-1 4-3 17-5 27-5 23-6 31-6 62-1 40 0 52 13 89 11 34 22 62 30 73 2 3 3 6 3 7 0 2-2 5-4 9-3 5-6 7-14 13-11 7-13 8-26 13-3 1-13 5-20 8-12 5-20 8-54 23-17 7-35 17-46 25-20 14-33 29-49 55-11 20-12 22-17 36-3 10-4 15-5 22 0 12 0 13 11 14 4 0 81 1 171 0h191z"/></svg>