<svg xmlns="http://www.w3.org/2000/svg" width="1344" height="566"><path d="M0 283V0h1344v566H0V283m354 277c118-3 338-3 476 0 29 0 62-2 65-4 8-5 6-20-4-41-11-23-22-34-52-48-8-4-18-9-21-10-4-2-10-4-14-6s-12-5-18-8c-7-3-15-7-18-9s-7-4-9-5c-6-3-12-9-16-16-12-17-12-20-3-39 4-7 9-17 12-22 11-20 14-26 17-36 3-13 4-22 6-67 1-18 1-29 3-33 2-11 2-39-1-60-5-44-17-69-44-96-17-17-36-31-56-39-16-6-15-6-57-6-44 0-46 0-63 7-16 7-25 13-38 25-18 19-35 47-41 68-6 18-6 23-3 65 1 15 0 37-2 44-3 10-4 25-3 35 1 9 4 20 8 27 3 7 18 19 26 21 11 4 18 11 21 20 1 7 1 12-1 15s-32 34-43 44c-11 11-21 16-39 22-8 3-18 6-23 8-13 6-33 14-47 19-43 16-54 22-65 36-9 10-17 24-30 50-14 27-16 35-12 38 3 3 11 3 89 1z"/></svg>