<svg xmlns="http://www.w3.org/2000/svg" width="1344" height="566"><path d="M0 283V0h1344v566H0V283m730 176c15-1 33-4 36-5 1-1 6-2 10-3 12-2 29-6 50-12 23-6 26-7 35-7h21c12 1 13 1 15-1s2-3 2-12c0-5-1-14-2-21-2-8-2-16-3-40-1-28-1-29-3-34-3-6-12-14-18-16s-13-6-14-8c-1-1-2-4-2-5 0-5-3-9-7-10-5-3-5-4 2-5 3 0 6-1 6-2 2-3-2-34-8-56-1-7-4-18-6-24-1-6-3-14-5-19-3-10-5-20-7-27-7-27-10-34-15-47-13-28-26-41-57-59-13-7-20-10-29-11s-22 0-31 3c-3 0-11 2-18 4-15 3-25 7-32 13-5 4-15 18-19 26-6 12-11 35-14 61-1 6-2 13-2 16-2 7-5 43-6 62 0 13 0 24 1 34 1 7 1 18 1 24 0 10 0 10-2 12-4 3-22 6-30 6-4-1-14-1-23-2-17 0-18 0-27 8-2 2-9 7-14 10-5 4-12 8-15 11-3 2-12 8-19 13-7 4-17 11-21 14-11 9-14 10-24 11h-11c-2 0-5 6-5 10 0 5-3 12-10 27-6 12-6 14-14 37-4 12-5 16-4 17 2 2 10 1 22-3 6-2 12-4 14-4 1 0 7-1 13-2 11-2 26-3 59-2 11 1 13 0 16-1 6-3 18-3 30 0 20 5 34 7 55 8 15 0 22 0 27-1 8-2 34-1 61 3 11 2 15 4 20 8 3 3 4 3 6 3 2-1 9-1 15-2z"/></svg>