<svg xmlns="http://www.w3.org/2000/svg" width="1344" height="566"><path d="M0 283V0h1344v566H0V283m522 276c2-2 2-1 3-28 0-14 0-24 1-27 1-2 1-10 2-18 0-15 0-18-6-29-1-2-2-5-2-6-2-5-15-33-20-42-7-12-15-21-26-32l-10-10v-5c0-7 1-10 6-16 2-2 4-6 6-9 2-8 7-18 12-23 2-4 6-7 12-10 5-3 8-6 9-8l2-4-2-20c-1-11-2-22-2-23 0-2-2-7-6-13-4-7-7-12-10-23-9-25-17-39-28-43-11-5-20-7-30-8-12-1-18 0-29 3-19 4-42 22-49 36-5 11-6 18-7 48-1 32 0 125 1 130 1 2 2 5 4 6 6 4 6 5 6 10-1 3-3 12-6 22-5 16-12 49-13 61-1 4-2 13-3 20-2 13-2 15-1 21 2 13 3 17 3 23 0 9 1 14 4 17 2 2 4 2 89 2 87 0 88 0 90-2m288 0c16-1 36-1 66 0 23 1 62 1 86 1 50-1 49-1 52-7 1-4 3-18 3-34 1-11 3-25 4-39 1-6 3-17 4-23 0-6 1-13 1-14 3-12 6-51 6-67 0-17 0-19-2-28-6-19-8-25-17-40-23-39-32-52-48-69-12-12-14-15-16-26 0-6-4-10-8-10-5 0-14-3-17-5-6-6-11-21-10-30 1-6 3-16 6-24 1-3 2-9 3-14 1-4 3-14 6-22 3-12 3-15 3-26s0-12-3-22c-5-13-9-22-14-26-7-8-23-15-38-17s-19-1-49 7c-13 3-21 8-30 17-12 11-12 12-13 27-1 10-1 16-4 22-1 5-3 15-3 22-1 9-3 14-7 26l-4 14 4 10c2 6 5 14 7 17 3 9 12 26 16 30 2 1 6 4 9 5 19 6 24 9 28 17 3 6 2 10-5 18-11 12-21 25-23 31-2 3-3 8-4 15-1 10-3 16-9 29-9 21-16 42-22 74-3 13-7 30-9 36s-7 30-11 49c-3 19-5 27-9 45-5 21-5 26-2 29 2 2 3 3 14 3 14 1 28 1 59-1z"/></svg>