<svg xmlns="http://www.w3.org/2000/svg" width="1344" height="566"><path d="M0 283V0h1344v566H0V283m328 276c50 0 58 0 65 1 4 1 28 1 145-1 58 0 65 0 96 1 13 0 49 1 80 1l55-1 2-2c4-3 4-5-3-40-1-3-2-10-2-14-2-18-6-22-48-41-7-3-26-12-42-20s-33-16-37-18c-8-3-12-7-12-10s12-34 19-49 16-41 19-56c2-9 2-14 2-32 0-22-3-57-5-70-1-3-2-12-2-20-2-15-3-20-10-49-8-33-13-45-26-64-10-16-17-23-34-35-19-13-24-15-44-24-21-8-42-11-58-7-12 3-26 8-32 11-3 2-11 4-16 6-6 1-13 4-16 5-16 7-30 22-43 45-7 13-18 42-23 60-6 22-13 54-15 64-1 6-2 12-3 12 0 0-1 9-3 20s-6 26-7 35c-5 20-7 30-8 48-1 8-3 18-3 21-1 4-1 22-1 41 1 42 2 38-18 48-7 3-20 11-28 15-9 5-24 13-34 18-18 9-28 15-32 19l-7 14c-6 14-8 17-18 31-13 19-18 32-13 36 1 1 3 2 4 2 3 1 87 0 156-1z"/></svg>