<svg xmlns="http://www.w3.org/2000/svg" width="1344" height="566"><path d="M0 283V0h1344v566H0V283m836 278h75l5-4c3-3 4-6 5-10 2-7 5-11 7-10 1 1 3 3 5 7 4 6 7 10 9 11 5 3 17 5 26 5 10 0 16-1 17-4 3-6-2-22-12-37-3-4-6-11-8-16l-6-12c-3-4-10-21-14-30-3-7-7-25-10-40-2-7-4-18-5-23-3-16-5-27-6-46-1-20-3-41-5-54-2-10-4-28-6-51-2-13-3-20-5-27-5-17-5-20 3-40 7-16 9-24 15-46 2-9 2-13 2-23 0-12 0-13-2-18-7-13-23-21-42-21-23 0-44 11-53 26-2 3-5 11-8 18-2 7-6 17-8 21-3 8-4 9-9 12-3 1-9 4-14 5-11 3-13 4-22 12-7 7-24 19-27 19-2 0-14 6-20 10-17 13-39 42-46 59-5 13-5 36 0 52 3 12 6 22 12 46 5 20 6 24 11 34l6 12v11c0 13-1 14-9 18-16 7-18 11-19 47-1 26-2 45-4 58-2 15 1 24 7 27 6 4 14 4 65 3 28 0 68 0 90-1z"/></svg>