<svg xmlns="http://www.w3.org/2000/svg" width="1344" height="566"><path d="M0 283V0h1344v566H0V283m702 16c3-1 6-6 6-11 0-7 2-11 8-17 3-3 7-7 10-8 5-2 7-6 8-14 0-4 1-8 2-11 0-2 1-9 2-14 1-14 2-16 8-12 6 3 8 3 12-5s5-10 6-18c0-5-2-9-14-26-4-6-9-12-10-14-4-7-12-16-16-19-3-1-8-3-15-5-21-4-22-5-23-20-1-14-3-20-10-26s-12-8-16-8c-6 1-15 7-17 11-4 7-2 21 3 31 4 9 7 18 7 22 0 5-3 10-6 12-1 1-3 3-5 6-1 2-4 6-5 7-6 7-7 10-7 21-1 16-3 21-10 41-4 11-7 21-7 22-1 2-2 9-4 15-4 13-4 15 3 17 12 4 17 5 26 3 2 0 5 0 7 1 1 1 6 2 10 3 10 0 12 2 17 9 5 9 8 10 18 9 5 0 10-1 12-2z"/></svg>