<svg xmlns="http://www.w3.org/2000/svg" width="1344" height="566"><path d="M0 283V0h1344v566H0V283m576 277c3-1 28-1 60-2 29 0 76 0 104-1 39-1 59-1 88 0 32 1 38 1 43 0 9-2 9-3 5-12-4-7-6-10-17-20-17-16-31-26-50-35-9-4-19-9-22-10-13-4-48-23-56-31l-5-5v-5c1-7 8-20 30-53 9-13 21-31 26-38 13-22 18-28 28-36s19-18 26-32c9-15 14-27 15-38 1-8 0-14-3-16-1-1-4-3-5-4-4-4-4-9 1-27 13-49 18-79 17-103-1-17-3-27-8-40-8-18-13-28-22-37C821 4 819 4 703 4c-88 0-106 0-120 3-10 2-13 4-21 21-13 26-20 53-27 100-2 12-3 21-4 23-3 3-6 5-13 6-15 2-22 9-24 27-1 9-1 18 3 31 4 19 10 31 22 44 4 5 7 10 8 12 3 9-5 56-11 70-6 13-12 21-18 24-3 2-7 2-32 2-26 1-29 1-33 3-6 2-11 8-20 22l-14 21c-21 28-21 29-21 40 0 7 3 33 6 47 1 3 2 14 4 24 1 10 2 20 3 22 1 4 5 7 10 8 9 2 29 4 37 3 12-1 58-1 68 0 5 1 13 2 19 2 13 2 44 2 51 1z"/></svg>