<svg xmlns="http://www.w3.org/2000/svg" width="1344" height="566"><path d="M0 283V0h1344v566H0V283m376 277c14 0 61-1 103-1 89 0 81-1 123 0 45 1 206 2 215 1 7-1 9-2 11-4l4-3-1-17c0-27-2-34-16-49-12-11-40-32-62-46-15-9-26-16-30-19-4-4-12-17-15-24l-2-4 4-10c2-5 5-11 6-13 5-7 25-29 35-38 11-10 15-16 24-31s24-46 28-58c13-41 16-76 9-105-7-31-35-73-57-84-3-2-12-6-19-8s-17-5-24-8c-17-8-33-11-53-11-17 0-35 5-53 14-25 12-44 31-55 54-5 10-7 17-17 48-5 16-8 22-15 30-12 12-16 25-16 48 0 13 1 14 5 22 4 10 10 19 14 23 2 1 3 4 4 6 2 6-1 38-3 44-1 2-3 4-8 7-9 5-13 8-28 23-17 16-30 26-38 30-3 2-11 5-17 7s-17 6-25 9c-16 7-31 13-39 16-10 3-34 12-42 17-7 3-11 6-17 12-8 8-11 13-16 27-2 4-5 11-7 17-5 14-8 23-13 46-6 26-5 31 4 33 4 1 56 0 99-1z"/></svg>