<svg xmlns="http://www.w3.org/2000/svg" width="1344" height="566"><path d="M0 283V0h1344v566H0V283m738 279c3-1 21-1 45-2 22 0 41-1 42-2h142l2-3 2-2-1-9c-1-5-5-17-8-28-9-26-10-33-11-48s0-53 2-71c1-6 1-19 1-30s1-28 2-39c1-15 1-20 0-26-2-14-11-30-23-43-3-4-16-16-28-27-18-16-23-21-25-24-1-4-1-9-2-33-1-18-1-31-2-36-4-18-14-40-24-52-5-6-14-13-35-27-22-15-26-17-43-19-36-6-51-5-74 4-13 5-24 11-35 21-23 19-44 55-46 79-3 30-4 36-9 42-5 5-8 7-49 27l-33 16-9 9c-13 13-17 21-19 45-1 11-5 34-7 38 0 1-3 11-5 22s-6 24-7 30c-5 18-7 31-14 75-2 9-4 16-5 18-2 4-9 10-22 17-4 2-11 6-14 9-13 8-39 20-55 25-20 6-26 8-55 10-13 1-26 2-29 3-6 0-13-1-19-4-2-1-6-2-8-3-10-1-21-10-26-21-8-17-8-17-11-18-4-2-8 1-13 11-6 10-13 18-18 19-3 1-5 1-9 0-11-4-17-2-26 5-3 2-7 5-10 6-10 5-18 16-14 21 4 4 21 6 86 6 19 1 26 1 31 2 6 2 7 2 21 0 12-1 27-1 93-1 82 0 84 0 94 4 4 2 5 2 104 3 55 1 102 1 106 2 9 1 64 0 70-1z"/></svg>