<svg xmlns="http://www.w3.org/2000/svg" width="1344" height="566"><path d="M0 283V0h1344v566H0V283m474 276c20-1 69-1 110-2h87c6 0 21 0 33 1 15 1 48 1 121 0h137c21 0 63 1 93 1 55 0 56 0 58-2 1-1 2-3 2-3 0-6-11-21-22-30-14-10-34-22-56-33-7-3-24-10-36-16s-28-13-35-15c-6-3-14-6-16-7-7-3-19-13-22-18-4-7-4-12 0-24 2-5 5-10 5-13 9-23 20-51 25-62 7-14 9-15 24-20 12-3 22-11 33-26 12-15 19-31 20-43 0-9-1-13-9-20l-5-5v-6c1-3 3-13 6-21 14-43 20-75 20-101 0-11 0-15-2-25-6-22-14-42-23-54-3-4-11-8-21-9-12-2-158-3-191-2-29 1-39 2-45 6-1 0-4 4-6 9-15 26-24 49-31 81-5 28-8 40-10 43-1 3-6 6-10 6-1 0-4 1-7 2-10 5-14 16-14 38 0 25 6 44 19 59 10 10 10 10 9 30 0 9-1 25-1 36-2 15-3 21-6 31-3 14-9 26-15 32-7 8-7 8-33 7-32-1-30-1-36 3-3 2-12 11-21 20-24 24-31 29-57 40-7 3-20 8-28 11-9 4-25 10-36 14-28 10-56 24-71 37-12 9-30 30-36 42-1 3-1 5 2 7 4 2 50 2 97 1z"/></svg>