<svg xmlns="http://www.w3.org/2000/svg" width="1344" height="566"><path d="M0 283V0h1344v566H0V283m450 277c45 0 121 0 169-1 65 0 95 0 120 1 18 1 46 2 61 2 28 0 29-1 34-3 5-3 9-9 13-19 2-5 2-6 1-14l-1-8 3-8c5-9 10-19 21-35 7-11 17-32 23-46 2-3 6-9 11-15 8-10 12-17 13-23 1-3 0-5-1-9-2-3-4-9-4-13-3-13-8-19-13-16-4 2-11 16-12 22-2 8-6 14-12 16-8 5-13 4-13-3 0-3 7-17 13-26 3-4 4-7 4-11 1-5 1-6-2-9-1-1-4-4-7-5-4-2-5-2-10-1-3 1-7 1-9 1-6 1-6-2-1-9 5-6 10-18 13-27 4-12-5-23-15-20-4 1-9 6-11 11-1 2-7 9-12 15-15 16-18 18-34 17-6 0-13 1-15 1-6 2-16 16-24 35-3 7-10 29-12 36-3 17-9 38-17 53-3 6-6 13-6 14-1 2-19 36-23 42-7 12-12 18-15 18s-8-4-16-11c-5-5-10-10-12-11-6-4-7-9-10-22-1-9-3-13-7-22-7-15-10-17-38-34-2-1-5-3-6-4-3-4-2-5 6-9s11-9 15-26c3-14 8-27 15-44 8-21 10-29 12-59 2-26-1-72-4-91-1-4-2-8-2-10 0-7-8-47-11-58-8-26-18-42-36-61-14-14-25-22-38-28-14-7-21-9-34-10-11 0-14 0-23 2-6 2-13 3-15 3-20 3-29 5-38 10-16 8-32 23-46 45-8 12-19 42-26 70-1 9-4 18-4 21-2 6-7 34-11 60-3 24-5 35-7 44-2 6-2 20-3 59-1 66-1 64-13 80-10 15-26 43-30 52-1 2-5 11-8 19-9 22-14 37-14 41 0 2 1 6 4 10 1 3 4 9 5 13 3 7 5 8 21 8 7 0 19 1 26 1 8 0 19 1 25 0 6 0 48 0 93-1z"/></svg>