<svg xmlns="http://www.w3.org/2000/svg" width="1344" height="566"><path d="M0 283V0h1344v566H0V283m215 279c2-1 20-1 47-2 25 0 53 0 62-1 12-1 19-1 20 0 2 1 39 2 152 3h196c43-1 82-1 89-2 18-2 19-2 31 1 10 2 12 2 43 2 18-1 55-1 82-1 39 0 53-1 63-2 16-2 74-4 96-3 9 0 19 1 22 2 14 3 29 1 41-5 4-2 8-5 9-6 1-3 1-14-1-18 0-2-1-7-2-11-1-5-2-11-3-14-2-8-3-21-4-51-1-29-4-58-7-83-2-9-4-22-4-29-1-6-2-13-3-14-1-2-1-6-2-10-1-3-3-12-4-18-6-19-19-37-33-47-8-6-32-18-49-25-21-8-40-22-43-31-2-5-1-27 1-34 1-3 4-7 6-10 7-8 11-14 13-21 2-10 1-14-4-20-2-3-2-4-2-21 0-21-2-36-7-43-5-9-14-19-17-21-2-1-8-4-13-5-13-4-24-5-34-1-3 1-8 3-11 4-8 2-12 4-21 10-11 7-15 10-18 17-4 8-6 20-7 41 0 10-1 19-2 21-3 9-1 17 7 36 6 13 8 20 10 31 3 14 1 19-6 23-2 1-7 5-10 7-11 9-18 14-41 25-42 20-56 33-71 63-4 7-7 14-8 14-2 2-5-1-8-7-7-13-34-65-38-72-15-25-29-45-40-55-13-13-32-23-49-25-12-2-14-2-35 0-20 2-25 4-35 10-13 8-47 42-53 52-5 9-11 28-15 46-1 6-3 16-5 23s-4 17-4 23c-1 7-3 17-4 23 0 6-2 16-3 21-1 6-2 14-2 21 0 14-2 30-4 33-1 3-8 7-17 10-11 4-21 7-27 9-4 0-10 3-13 4-8 4-17 5-19 3-2-1-2-4-2-14 0-14-3-36-6-50-2-4-3-11-4-15-2-14-8-34-11-40-4-7-13-17-25-26-5-3-12-10-17-14-11-10-12-14-6-25 5-9 10-24 12-33 5-18 5-23 4-40-1-9-2-21-2-27-1-20-5-30-15-40-6-6-17-12-30-17-7-2-9-2-19-2s-14 0-20 2c-16 5-25 11-32 21-6 10-8 17-9 34 0 8-1 17-1 21-2 5-2 6 0 12 0 3 3 10 5 15 10 22 10 22 11 32 0 11 0 12-7 15-6 3-10 7-20 19-3 4-10 12-16 17-12 11-18 17-23 23-2 2-6 6-9 8s-10 9-17 16c-14 13-16 18-20 35-3 13-4 17-5 41 0 18-1 25-3 47-1 7-2 15-2 19 0 10 5 27 13 41 2 4 3 7 3 8 0 2 9 29 11 33 1 3 3 6 4 7 5 5 7 5 35 7 14 0 26 1 27 1 0 0 2 0 4-1z"/></svg>