<svg xmlns="http://www.w3.org/2000/svg" width="1344" height="566"><path d="M0 283V0h1344v566H0V283m260 277c20 0 33-1 34-2s2-2 3-4c1-5 2-8 5-12 4-6 7-14 9-24 0-3 2-8 2-11 1-2 2-7 3-12 2-10 2-11 7-11 2 0 5-1 7-2 5-2 13-4 38-5 19-1 34-4 55-9 11-3 20-6 29-8 4 0 13-4 22-9 8-4 15-7 15-7 1 0 4-2 8-4s8-4 11-5 4-2 6-5c2-5 0-11-5-15-4-4-9-5-14-2-6 3-19 6-26 7h-7l-3-3c-3-4-3-5-3-10 0-8-2-11-5-12-4 0-8 5-14 21-1 4-3 8-4 10-3 3-10 5-23 6-7 1-14 1-18 2-8 0-42-3-46-4-2-1-4-3-5-4-3-3-5-12-6-26-1-7-2-19-4-28s-4-18-4-22c0-7 4-22 8-31 4-7 7-10 15-11 11-1 15-3 20-8 3-3 6-8 8-10 1-3 4-7 5-10 2-2 4-6 5-9 3-6 3-7 4-29 0-15 0-25-1-30-2-12-8-24-16-29-5-3-26-10-35-11-6-1-7-1-15 1-10 3-14 7-24 18-7 9-8 11-12 24-3 10-3 10-8 14-7 6-9 7-28 13-29 9-52 22-76 43-22 18-45 50-56 78-1 2-4 9-6 15-7 16-7 19 2 27 4 4 5 6 8 13 2 5 3 10 3 11 0 2 0 4 1 6s1 11 1 20c0 17 0 17-4 26-1 5-3 9-3 10l-5 5c-2 3-6 10-10 17-5 11-5 11-4 14 3 4 15 15 20 17 3 2 8 3 10 4 2 0 8 1 12 3 16 6 25 9 28 10 2 1 21 1 86-1z"/></svg>