<svg xmlns="http://www.w3.org/2000/svg" width="1344" height="566"><path d="M0 283V0h1344v566H0V283m724 173c4 0 9-1 13-2 4 0 11-1 17-2s12-2 14-2c4-2 13-4 24-7 4 0 11-2 16-4 18-5 39-10 44-10 2-1 10-1 16 0 29 3 28 3 29 0 2-3 2-4 1-14-1-6-2-16-3-21 0-5-1-19-2-32-2-37-2-38-13-50-4-4-6-6-9-7-7-2-12-5-14-8-3-4-3-15 0-19 1-4 1-4-1-26-2-14-3-19-8-38-1-6-3-15-4-22-2-6-4-14-5-18l-4-12c0-4-2-8-2-10-1-2-2-6-3-10-4-22-13-45-24-61-8-13-25-27-48-39-12-7-19-9-28-10-10 0-15 0-55 10-18 4-29 14-40 35-8 15-12 30-14 57-1 7-3 22-5 33-3 24-4 67-2 87 2 22 2 27 1 29s-6 3-16 6c-13 3-14 3-37 3h-23l-4 4c-3 1-9 6-14 10s-11 9-14 11c-2 1-7 5-11 8s-13 9-20 13c-6 4-14 10-17 12-7 6-14 9-23 9-7 0-8 0-10 2-2 3-6 11-6 13 0 1-3 8-7 16-4 9-10 23-13 32s-7 19-8 21c-2 7-1 8 5 8s9-1 21-5c13-4 27-6 54-7 12 0 24 0 26-1 3-1 7-1 10-1s7-1 10-3c7-3 11-2 25 2 6 2 14 3 18 4 5 1 10 2 12 2 8 2 46 3 56 1 7-1 38 1 53 3 17 3 22 4 27 9 3 2 5 3 7 2 1 0 5-1 8-1z"/></svg>