<svg xmlns="http://www.w3.org/2000/svg" width="1344" height="566"><path d="M0 283V0h1344v566H0V283m768 276h54c29 1 61-1 64-2 4-2 6-10 8-30 0-8 0-14-1-18s-1-14-1-26c0-11-1-23-1-27-2-10-6-26-9-34-1-5-4-15-6-22s-4-16-4-18c-2-7-4-12-11-32-3-9-5-19-6-22 0-3-1-7-2-10-1-2-2-5-2-5 0-1-2-8-5-16-6-21-18-40-33-57-8-10-15-15-25-20-9-5-13-9-16-16s-3-14-2-28c4-24 3-38-4-53-10-20-27-33-49-34-10-1-18 0-25 4-4 2-10 4-15 6-9 2-14 5-27 20-9 10-15 19-17 25-3 11 0 37 5 47 3 5 5 14 5 20 0 4-2 8-6 17-2 3-5 11-7 17-2 7-6 17-11 27-4 8-8 17-9 20-3 7-9 19-13 24-1 2-6 8-9 14-10 14-13 17-38 42-19 19-24 24-34 30-18 12-16 11-35 11-9-1-19-1-23-2-4 0-7 0-11 2-2 0-8 2-13 3-10 2-15 3-23 6-4 1-5 2-7 5 0 2-1 7-1 11 0 7 0 8 4 17 7 16 8 16 47 20 6 0 9-1 26-6 30-11 45-13 54-8 2 0 6 5 9 9 14 18 16 19 35 27 7 2 12 3 20 4 7 1 14 2 16 3 3 1 6 2 8 2 3 0 11 4 15 8 2 1 3 3 4 6 0 2 3 7 11 16 6 6 12 13 13 14 6 4 11 6 25 7 8 1 15 1 16 2 2 1 7 1 14 1 6-1 28-1 48-1z"/></svg>