<svg xmlns="http://www.w3.org/2000/svg" width="1344" height="566"><path d="M0 283V0h1344v566H0V283m1054 278c30-1 35-3 34-10-2-9-11-29-22-43-2-2-14-15-26-27-19-20-38-42-51-59-7-10-11-18-12-24 0-6 1-8 7-8 20-3 28-4 38-8 7-2 14-6 16-7 5-4 8-10 11-19 2-8 2-8 1-15-1-3-4-11-8-17-3-6-7-18-10-26s-6-16-7-18c-9-18-31-39-60-59-11-7-14-14-17-34-4-30-8-47-14-63-17-44-28-60-59-85-11-8-20-14-33-18-3-2-9-4-13-5-4-2-10-4-15-5-7-2-9-2-20-1-12 1-19 2-34 5-11 3-41 17-65 32-19 12-44 36-50 49-3 4-8 14-13 21-15 26-18 32-18 43 0 6 5 18 10 23 3 2 5 6 6 7 1 3 6 25 6 29 0 2 1 5 2 7 0 2 2 8 4 14 3 16 6 22 13 36s8 19 10 41c3 19 4 23 14 30 8 7 10 9 13 15 2 2 6 9 11 14 10 11 13 17 16 30 2 5 4 11 5 13s2 5 2 5c0 2-5 7-14 14-8 6-17 16-21 25-6 11-17 59-18 77 0 11 1 16 5 18 3 2 32 3 74 2 42 0 164 0 185 1 31 1 95 1 117 0z"/></svg>