<svg xmlns="http://www.w3.org/2000/svg" width="1344" height="566"><path d="M0 283V0h1344v566H0V283m701 175c3-2 4-5 5-7 1-5 4-18 4-23 1-2 3-8 4-14 2-6 4-13 4-15 0-4 2-16 4-25 3-14 10-24 26-41 7-8 14-16 15-18 4-6 7-20 7-32 1-8 1-10 5-16 4-7 5-12 9-26 2-4 2-10 2-22 0-15 0-17-2-22-1-2-3-5-4-7-3-2-5-8-5-14-1-4-2-9-2-12-1-2-2-7-2-11-2-16-9-27-20-29-7-2-12 0-19 5-8 7-14 16-14 25 0 4-2 16-4 21-1 2-4 5-7 7s-8 5-11 8-8 6-11 9c-3 2-7 5-9 6-2 2-6 5-10 6-14 7-17 9-23 14-5 4-8 6-11 6-5 1-10 6-10 9 0 1 2 4 5 8 5 5 6 5 11 5 4 0 5 0 8 3s4 3 9 0c2-1 3-1 6 1 2 2 4 3 4 3 2 0 4-4 4-6s1-4 1-5c2-2 31-16 33-16 1 0 3 2 4 4 2 5 5 19 5 21-1 2-3 5-5 8-2 2-4 5-4 5 0 1-3 4-6 7-9 10-11 14-12 21-3 25-4 30-5 38-1 5-2 10-3 12-1 10 9 9 15-1 1-2 2-7 3-12 1-10 3-14 11-21 6-6 9-7 11-5 2 3 0 7-8 23-14 28-15 33-16 67v24l-7 12c-3 6-6 13-6 15 0 3 4 8 9 9 5 2 9 1 12-2z"/></svg>