<svg xmlns="http://www.w3.org/2000/svg" width="1344" height="566"><path d="M0 283V0h1344v566H0V283m1148 279c9 0 9 0 13-3 1-2 3-5 3-7 1-1 2-5 3-9 0-4 1-11 2-16 1-10 0-13-5-17-1-1-6-5-11-8-5-4-12-9-15-11-2-2-11-8-18-14s-17-13-22-17c-14-9-19-13-21-16-1-4-1-14 1-32 2-27 3-47 2-84-1-48-5-91-10-132-4-30-15-77-22-94-14-35-42-63-83-78-19-8-28-10-37-11-9 0-9 0-24 6-3 1-9 1-20 1l-16 1-10 4c-12 5-19 9-32 21-16 15-28 32-39 58-8 18-15 44-16 62-1 5-2 14-3 18-2 16-4 34-6 63-3 30-4 57-2 95 1 20 1 21-4 25-3 4-22 10-34 12-22 4-60 13-80 18-8 3-21 7-29 9-21 6-25 9-28 19-2 9-2 10-17 41-7 14-16 33-20 42-4 8-10 20-13 27-9 19-9 23-2 25 4 2 38 2 142 1 44-1 100-1 125 0h61c30-2 42-2 51-1 6 1 43 1 106 1 53 1 96 1 97 1 0 1 18 1 33 0z"/></svg>