<svg xmlns="http://www.w3.org/2000/svg" width="1344" height="566"><path d="M0 283V0h1344v566H0V283m247 277c1-1 3-3 3-4 2-5-1-44-6-75-3-15-4-38-3-40 1-1 3-2 4-3 2-1 4-3 6-7 3-6 3-6 3-17-1-11-1-12 2-19 2-7 2-9 2-14-1-7-4-11-7-11s-7-4-7-7c0-2-1-5-3-8-2-5-2-6-2-19 0-19 2-42 4-43 1-1 5-1 9-2 12-2 14-4 15-16 0-12-1-27-3-37-3-13-3-16 7-32s11-19 11-27c0-5 0-7-2-9-6-8-16-8-24-1-3 3-3 3-12 2-6 0-10 0-14 1-3 1-7 2-8 2s-4 1-5 1c-3 2-3 2-5 21 0 7-2 8-8 10-3 0-8-2-10-4-2-3-4-2-8 1-4 4-7 4-15 0-7-3-8-5-7-11 0-5 1-5 7-9 10-6 10-6 10-25v-16l-3-6c-2-3-6-11-8-18-6-18-8-22-12-25-6-4-18-8-30-9-8-1-10-1-17 0-16 4-26 11-32 22-2 6-2 7-2 13 1 8 4 18 9 27 1 4 5 12 7 18 2 7 6 17 8 22l4 10-1 10c-1 6-2 13-2 16-1 3-1 6-2 8 0 1-2 4-4 7-5 5-7 8-8 16-3 11-3 15 2 21 5 7 11 12 18 18 4 3 9 9 11 12 15 19 25 32 27 32 1 0 3-2 5-5 12-13 20-26 24-42 1-6 3-12 4-13 2-4 27-29 29-29 1 0 2 1 4 1 1 1 5 2 7 2 5 1 9 4 12 8 3 5 2 19 0 20-5 3-9 8-15 19-5 10-14 24-19 31-2 2-7 12-11 23-5 11-11 22-12 24-5 8-13 25-16 32-3 8-3 15 0 27 3 11 4 20 2 27-1 5 0 14 5 33 2 6 4 15 5 18 0 4 2 10 2 13 1 3 2 7 2 8 0 7 9 21 15 25 5 2 9 3 33 3 18 0 23 0 25-1m431-148c2-2 2-3 2-10-1-10-4-37-5-45-1-4-2-8-5-11-2-2-4-6-6-8-5-7-6-14-7-34-1-15-1-19 0-27 1-5 3-13 3-18 2-14 4-23 8-29 5-5 10-10 17-16 3-2 7-6 10-8l4-5-1-5c-1-8-3-11-8-15s-15-11-18-11c-2-1-5-2-8-4-9-5-9-13-1-30 3-7 6-12 6-13 0-2-10-24-13-28-4-6-10-9-18-9s-12 1-18 6c-8 5-8 6-9 30-1 26-1 26-13 38-9 10-15 18-17 23-2 7-1 24 3 37 2 5 2 9 2 16 1 9 6 36 9 44 1 2 2 6 2 10 1 3 2 8 2 12 1 3 2 10 3 15s2 11 3 14c0 3 2 9 3 14 2 5 4 11 5 13 5 13 6 17 9 28 2 6 4 13 4 16 1 2 2 5 2 6 1 5 5 6 30 6 17 0 18 0 20-2z"/></svg>