<svg xmlns="http://www.w3.org/2000/svg" width="1344" height="566"><path d="M0 283V0h1344v566H0V283m1178 276c4-2 4-2 4-6 0-5-2-11-12-34-11-25-15-33-29-50-20-25-43-41-81-57-8-3-40-19-57-28-5-2-13-5-19-7-12-3-18-7-20-10-1-1-1-4-1-6 1-5 8-22 16-38 8-17 21-50 24-61 1-5 3-16 4-24 1-9 3-21 5-28 3-14 4-19 2-30-3-10-4-23-5-42-1-23-3-39-5-46-2-10-16-27-31-40-10-8-16-11-29-16-5-2-11-4-14-6s-6-3-7-3-7-2-14-5l-13-5-7 2c-6 1-10 1-28 1-38-1-44 1-69 24-20 19-30 29-33 36-8 17-10 51-5 79 4 21 5 30 6 44 2 24 5 37 11 49 2 6 2 7 2 22 0 14 0 17-2 26-4 15-8 21-17 29-5 3-10 7-12 9-14 12-39 26-53 32-3 0-9 2-14 4-5 1-13 3-17 5-3 2-16 7-27 12-68 27-89 38-107 57-28 29-44 57-53 94-1 7-1 12 0 15 2 1 4 2 77 2h123c150-1 429 0 439 1 19 1 64 1 68-1z"/></svg>