<svg xmlns="http://www.w3.org/2000/svg" width="1344" height="566"><path d="M0 283V0h1344v566H0V283m721 274c13-1 15-2 20-8 7-6 8-13 8-25-1-10 1-26 5-40 2-6 4-14 5-20 1-11 3-29 4-38 0-9 3-25 7-38l4-16c6-20 8-31 9-42 2-22 3-31 5-40 0-4 1-10 2-13 0-2 1-6 2-7 1-2 4-7 6-12 7-16 10-43 7-58-1-4-2-9-3-12 0-3-1-7-2-8 0-2-1-5-1-8 0-4 0-5-4-9-6-4-9-10-16-32-11-28-14-35-19-42-7-9-13-12-22-12-11 0-30 11-38 21-2 3-2 4-2 18 1 12 1 17 2 20 1 2 2 7 2 10 0 6 0 6-3 10-3 2-7 4-12 6-8 2-9 3-16 10-3 4-9 9-13 11-3 3-9 7-14 11-8 6-14 11-38 26-6 4-12 9-15 13-9 10-13 12-23 13-13 1-18 4-17 11 1 4 15 13 20 13 2 0 7 1 9 1 7 2 17 4 20 4 1 0 4-2 6-4 5-3 5-4 5-7-1-4 0-5 6-5 26-4 39-10 57-23 14-11 17-13 18-11 4 3 5 15 2 27 0 3 0 6 1 9 3 8 2 18-3 23-1 2-6 22-8 33-1 12-1 32 1 45 0 6 2 15 2 21 1 6 2 15 2 21 3 61 5 86 6 95 2 12 3 35 2 45 0 5-1 10 0 11 1 3 8 4 24 2z"/></svg>