<svg xmlns="http://www.w3.org/2000/svg" width="1344" height="566"><path d="M0 283V0h1344v566H0V283m477 137c5-1 10-2 11-3 27-11 26-10 37-11h23c7-1 16-1 24 0s18 2 24 2 13 1 16 2c4 0 22 1 41 1 35 0 41 1 57 4 12 2 27 2 50-3 5 0 12-1 16-2 3 0 9-2 12-2 32-9 43-13 56-19 12-7 19-9 28-10 8 0 11-2 12-6 0-2 0-13-1-25l-1-22-3-6c-2-4-4-8-4-10-1-6-3-7-8-7s-8-2-8-7c0-3-3-12-6-18-2-2-3-6-4-9-1-2-2-5-4-6s-2-3 2-4c1-1 3-2 4-3 1-3 1-6-2-18-1-2-3-10-5-16-1-6-3-15-5-20-2-9-6-26-8-39-4-19-14-46-23-59-7-10-20-23-29-28-12-7-38-15-49-15-7 0-31 4-38 7-32 11-49 30-57 61-2 11-3 26-5 94-1 25-1 26-3 28s-2 2-9 1c-12-3-20-1-32 9-16 14-16 15-22 26-9 15-13 21-16 22-1 1-6 5-11 9-6 4-14 9-27 15-23 12-26 13-38 13-11 0-13 1-16 7-3 4-14 30-18 39-1 4-3 8-4 11-1 2-2 6-3 8-1 6 1 7 16 8 16 2 19 2 30 1z"/></svg>