<svg xmlns="http://www.w3.org/2000/svg" width="1344" height="566"><path d="M0 283V0h1344v566H0V283m1019 186c5-3 8-10 9-20 0-10 3-15 15-33 15-22 20-36 20-52 0-13-5-29-13-39-7-9-7-11 0-15 4-3 8-10 8-16 0-5-2-18-6-30-3-12-7-30-7-38-1-3-2-8-2-10-1-3-2-8-2-12-1-8-3-13-9-26-7-13-13-19-23-24-4-2-10-4-13-5s-8-2-12-3c-4 0-10-1-15-1-11 0-12 1-18 12-3 6-7 10-16 20-10 10-13 13-16 20-5 10-6 16-7 33v13l3 5c3 5 3 7 3 10-1 4-4 8-9 8-3 1-4 0-9-4-5-5-5-5-10-5-8 0-13 3-18 11-9 13-9 15-10 32 0 14 0 16-2 24-2 5-4 10-5 11-1 2-5 5-9 7-8 5-14 10-15 16-1 5-1 29 0 37 1 3 2 7 3 9 3 6 11 10 23 14 6 2 11 4 12 4 1 1 2 3 3 5 2 4 6 6 13 8 3 0 9 2 15 4 5 2 15 5 22 7 6 1 16 4 20 5 5 2 12 4 14 4 2 1 9 3 14 4 15 5 40 12 43 12 2 0 4-1 6-2z"/></svg>