<svg xmlns="http://www.w3.org/2000/svg" width="1344" height="566"><path d="M0 283V0h1344v566H0V283m427 275c20-1 82-2 91-2 41 1 76 1 86 0 11-1 16-1 29 1 13 1 27 1 81 1h287c25 0 29 0 31-1 1-2 1-2 0-5-3-7-12-16-27-29-9-8-37-27-46-32-5-2-11-6-15-8s-9-5-13-7c-4-1-10-4-15-6l-18-9c-11-5-14-7-14-9 0-3 14-15 35-30 4-3 11-8 15-11s11-8 16-11c18-12 32-26 46-45 5-7 13-17 19-24 5-6 11-13 13-16 4-6 13-24 17-37 2-4 8-18 15-30 11-24 23-52 25-65 2-9 1-36-1-52-4-28-17-59-33-77-3-4-7-11-10-16-7-15-15-22-29-26-18-6-61-9-130-8-48 1-64 2-70 5-4 3-18 19-26 30s-17 30-21 41c-20 56-23 61-37 76-10 11-12 14-14 28-2 9-4 27-4 28 1 0 1 5 1 11 0 16-3 24-24 61-3 7-12 21-20 32-8 12-30 37-37 43-9 8-11 9-47 7-23-1-27-1-30 0-3 2-11 10-19 20-9 12-25 26-35 33-5 3-18 10-29 16s-29 16-39 23c-11 6-22 13-26 15-12 7-32 21-44 30s-22 19-32 32c-14 18-14 22 0 24 9 1 65 0 98-1z"/></svg>