<svg xmlns="http://www.w3.org/2000/svg" width="1344" height="566"><path d="M0 283V0h1344v566H0V283m360 277c6-1 52-1 102-2 115-1 110-1 136 1 27 1 220 2 229 0 9-1 11-4 12-12 1-9 0-27-3-34-1-3-3-8-5-10-5-8-30-30-46-40-3-2-9-6-13-9-4-2-10-7-14-9-25-16-32-22-39-33-2-3-4-8-5-10-1-5-1-5 2-11 2-3 10-15 18-25 29-40 36-53 44-90 2-10 6-25 8-34 6-21 9-34 10-55 2-26 0-55-5-69-3-10-11-26-17-34-3-3-12-13-19-20-28-28-39-34-71-36-7-1-15-2-18-2-10-4-22-6-30-6-11 0-26 2-35 4-29 7-63 37-79 70-7 13-9 23-12 54-3 34-4 40-10 49-2 2-4 7-6 10-2 6-2 8-2 22 0 13 0 16 2 23 3 10 7 16 19 28 11 11 15 19 17 28 1 8-1 13-6 16-6 3-11 8-32 28-23 23-35 30-56 35-5 2-15 5-23 8-7 3-19 8-26 10-50 18-61 23-70 30-12 10-16 17-28 50-8 21-16 52-17 64 0 10 1 11 9 12 7 1 66 0 79-1z"/></svg>