<svg xmlns="http://www.w3.org/2000/svg" width="1344" height="566"><path d="M0 283V0h1344v566H0V283m304 277c21-1 39-1 42-1h26c5 0 12 0 15 1 6 1 171 1 197-1 10-1 21-1 32 0 10 1 49 1 87 1 75 0 75 0 77-5 1-2 0-13-2-22-1-4-2-7-2-9 0-1-1-4-2-7-6-14-6-16-6-23 0-9-2-17-5-20-2-3-12-10-16-11-3-1-22-10-55-25-10-5-28-13-38-18-26-11-28-13-25-21 1-2 3-7 3-10 1-4 5-14 9-22 12-27 16-38 22-65 2-8 2-11 2-32 0-12 0-27-1-32-3-27-5-42-6-50-3-29-12-67-22-90-6-15-16-33-25-42-13-15-47-39-65-45-13-5-18-6-41-5-20 0-22 0-31 2-4 2-12 5-17 7s-13 5-19 6c-5 1-13 4-16 5-15 6-30 21-41 42-17 31-30 74-47 151-3 13-6 28-8 35-3 15-9 44-10 57-3 20-4 34-4 59-1 29-1 33-6 36-13 8-60 34-73 40-25 12-31 17-36 28-6 14-8 18-16 31-12 18-22 37-23 44-1 12 0 12 60 12 27 0 65-1 86-1z"/></svg>