<svg xmlns="http://www.w3.org/2000/svg" width="1344" height="566"><path d="M0 283V0h1344v566H0V283m578 276c18 0 55-1 81-1 26-1 59-2 74-2 33 0 111 2 115 2 5 1 109 2 170 2 44 0 55 0 56-1 3-2 2-8 0-14-3-4-12-17-26-34-9-12-14-16-48-44-9-6-20-16-27-22-19-18-65-54-75-59-4-2-6-2-22-3-19-1-24-2-34-8-7-5-11-11-15-21-4-11-5-24-4-36 2-15 6-25 19-46 18-28 23-47 19-66-1-9-1-11 0-27 1-9 2-19 3-22 1-17-5-42-15-57-11-18-36-36-61-44-16-5-27-6-50-6-24 0-34 1-45 5-13 4-30 15-43 28-17 18-23 34-24 63-1 7-2 17-3 23-2 17-4 32-4 40 0 4-1 11-1 15-4 19-3 37 1 57 7 30 10 39 18 58 7 15 11 20 21 27s16 13 16 16c0 6-6 11-37 28-32 18-49 31-78 56-12 11-19 18-29 30-13 18-32 50-32 56 0 8 4 9 30 8 9 0 31 0 50-1z"/></svg>