<svg xmlns="http://www.w3.org/2000/svg" width="1344" height="566"><path d="M0 283V0h1344v566H0V283m744 277c9-2 13-5 15-11 1-4 1-5-2-9-4-5-4-5-5-22-1-14-1-65 1-86 4-44 3-63-3-85-8-33-20-52-45-74-5-4-9-9-10-10-3-5-3-9 6-41 2-7 3-17 4-21 0-9-2-61-3-73-3-23-11-40-26-56-11-10-22-18-36-25-27-13-42-17-64-17-25 0-45 2-58 7-12 4-28 13-37 21-6 5-14 16-20 26-7 14-9 22-15 63-3 22-4 25-10 29-6 6-6 9-4 25 1 7 2 20 3 29 0 17 0 19-5 24-3 3-19 10-32 16-26 10-72 35-88 47-21 14-49 42-65 64-16 21-23 35-29 57-1 5-3 11-4 14-1 5-1 11-1 30 0 15 0 24 1 26 1 3 2 11 2 18 1 16 4 26 8 30 2 2 3 3 18 3h54c59-1 162-1 186 0 13 1 30 1 39 2 9 0 62 1 118 0 78 0 103 0 107-1z"/></svg>