<svg xmlns="http://www.w3.org/2000/svg" width="1344" height="566"><path d="M0 283V0h1344v566H0V283m667 259c7-1 9-2 11-5 2-4 4-4 7 2 4 5 6 5 13 1 5-3 7-3 14-3 9 1 9 1 19-6 2-2 6-4 10-4 3-1 7-2 8-4 2-1 4-2 5-2 3 0 10-3 13-6 5-3 16-8 23-9 4-1 9-2 12-3s7-2 8-2c14-3 23-5 29-8 4-2 16-7 27-11 24-8 49-19 58-25 3-2 9-5 13-7s9-6 12-8c6-5 18-11 21-11 4 0 17-7 20-11l4-4-1-8c0-8-1-9-4-14-2-3-5-8-7-12s-4-8-6-10c-1-1-4-5-7-9-20-33-52-82-66-101-3-4-11-17-19-29s-17-23-19-25-6-5-9-6c-8-2-33-15-41-20-7-5-12-10-12-13 0-2 1-4 2-7 1-2 4-10 6-19l4-15v-26c0-24 0-26-2-30-4-9-15-19-27-23-25-10-29-11-38-11s-10 0-17 3c-15 8-23 18-27 35-2 10-2 17-1 36 1 8 2 22 3 31v17l-7 7c-11 11-19 15-44 23-22 7-40 12-43 12-1 0-6 2-11 5-5 2-11 5-13 6-4 1-21 11-26 15-9 7-21 14-32 19-10 5-27 16-42 27-9 7-14 13-17 20-3 6-6 20-6 28 0 15 7 38 12 42 2 2 5 2 27 2 14 1 25 1 26 1 3 2 10 0 14-4 3-2 6-4 7-4 2-1 7 1 8 3 1 1 5 4 10 8l9 9c1 3 0 19-3 26-1 4-1 5 1 13l2 8-2 14c-3 17-2 26 2 35 2 5 3 9 3 15 0 5 1 11 2 14 4 10 6 15 8 17 3 4 10 7 16 8 3 0 7 2 10 3 3 2 7 5 10 7 6 3 9 4 15 1l5-1 3 2c3 3 4 3 7 3 3-1 7-2 10-2z"/></svg>