<svg xmlns="http://www.w3.org/2000/svg" width="1344" height="566"><path d="M0 283V0h1344v566H0V283m762 279c128 0 129 0 130-2 2-2 2-2-1-7-1-3-4-8-6-11-6-9-16-26-19-31-3-6-9-13-14-16-2-2-7-4-10-5-9-4-19-8-23-9-18-6-28-10-33-13-4-1-10-4-14-5-3-2-16-7-26-13-27-12-34-16-47-22-13-5-16-8-16-15 0-9 7-24 21-45 3-5 7-12 8-17 2-5 4-11 5-13 3-8-5-25-14-28-3-1-7-2-10-2-10-2-15-5-23-18-6-8-10-17-12-26-1-3-3-11-4-16-3-11-3-10-13-13-8-3-16-8-32-24-8-7-16-14-17-15-5-3-22-3-32 1-11 3-37 17-44 22-4 3-9 7-13 9-7 6-13 12-18 20-15 21-17 33-17 88v34l-2 6c-2 4-4 5-9 8-23 13-51 40-66 64-2 4-6 10-9 15s-7 11-8 15c-2 6-5 24-6 36-1 3-2 13-3 22-2 14-2 15-1 18 3 5 5 6 25 7 28 2 31 2 142 1h231z"/></svg>