<svg xmlns="http://www.w3.org/2000/svg" width="1344" height="566"><path d="M0 283V0h1344v566H0V283m504 277c21-1 67-1 108 0 14 1 37 0 52 0 19-1 31-1 42 0 26 2 77 2 88 1 9-1 23-2 78-1 148 1 161 1 164-1 4-2 5-8 2-17-3-10-6-17-11-24-7-10-9-13-12-22-1-4-3-9-4-10-3-3-14-9-18-11-1 0-10-4-19-8-8-4-19-9-23-10-17-7-31-15-35-19s-4-5-4-9c1-4 10-28 18-46 7-15 9-23 11-37 3-20 3-40 2-86-1-56-4-88-8-109-7-36-20-65-36-85-10-12-28-27-42-34-10-5-32-12-44-14-11-1-12-1-21 1-7 1-11 1-22 1-9 0-14 0-19 1-24 6-59 33-74 56-19 29-38 95-53 183-1 8-3 32-5 71-2 36-3 43-6 50-4 9-8 12-20 17-5 2-10 5-11 6-2 0-6 2-10 3-8 2-15 5-31 11-10 4-13 6-27 13-14 9-43 20-60 25-5 1-13 8-16 13-2 5-1 15 2 22 2 4 3 8 3 11 0 6-4 19-8 28s-7 19-7 23c0 7 2 7 22 8 10 0 22 1 26 0 5 0 18 0 28-1z"/></svg>