<svg xmlns="http://www.w3.org/2000/svg" width="1344" height="566"><path d="M0 283V0h1344v566H0V283m561 111c1-1 9-2 17-2 11-1 15-1 23-4 16-6 38-10 56-12 4 0 8-1 9-1 0-1 3 0 6 1 6 2 10 3 28 5 4 1 11 1 14 0h20c20-1 38-3 55-8 28-8 39-9 63-5 6 1 7-1 7-12-1-5-2-13-3-19 0-6-1-13-1-16 0-2-1-8-1-13-2-7-2-8-5-10-2-2-4-4-4-5s1-4 2-7c2-2 3-6 3-8 0-4 3-6 8-6 4 0 5-1 5-3 0-1 2-8 4-14 5-15 7-24 8-45 3-49-4-105-17-131-7-15-26-31-45-39-11-4-29-5-41-1-2 1-4 2-5 2-2 0-4 1-6 1-3 1-7 3-10 4-13 3-26 14-32 26-7 15-8 18-9 46-1 15-2 31-3 37 0 6-1 26-2 47-1 50-2 53-10 55-4 1-25 1-61-1h-12l-12 4c-6 2-14 5-17 6-4 2-7 4-12 8-9 9-11 10-23 9-6-1-12-1-13-2-11-3-18-2-27 4-4 3-9 6-11 7-6 3-7 5-8 14-1 10-3 16-7 25-4 10-3 11 8 13 5 2 8 2 13 1 3 0 11-1 18-1 16-1 16-1 16 11-1 14-3 22-5 27s-2 5 0 7c4 5 13 7 19 5z"/></svg>