<svg xmlns="http://www.w3.org/2000/svg" width="1344" height="566"><path d="M0 283V0h1344v566H0V283m808 277h148c30 1 102-2 108-3 8-2 12-8 10-15-1-5-6-8-24-20-8-6-19-13-24-16-4-3-13-9-19-12-22-13-42-28-42-32 0-3 4-9 12-17 16-18 23-32 25-52 1-7 2-13 3-14 1-2 7-7 9-7s8 3 15 8c11 8 21 12 29 13 10 0 13-1 22-10 9-8 17-21 20-29 2-8 1-40-2-52-2-7-5-12-10-18-3-2-7-7-10-11s-9-10-12-15c-4-4-9-11-12-14-8-13-19-26-27-32-5-4-12-10-17-14-4-5-8-8-9-8-2 0-9-7-17-17-13-15-17-21-22-31-7-13-23-35-35-46-5-5-14-15-20-21-13-15-23-22-50-38-29-18-55-25-79-23-14 1-20 3-36 11-13 6-22 9-34 11-17 3-32 12-49 29-14 14-19 24-28 53-2 9-7 25-11 37-7 23-9 32-9 52 0 13-1 16-8 19-11 5-12 7-7 24 4 11 5 19 3 23-1 2-5 6-9 10-6 7-7 8-7 12 0 2 1 4 4 7 4 4 8 6 20 7 10 0 18-1 27-6 11-6 15-5 28 7 6 5 9 8 12 14 7 11 13 21 16 25 2 2 3 5 4 6 2 3 4 18 4 27 0 14-5 21-16 25-2 0-7 2-10 4-4 2-9 4-12 4-11 3-30 8-42 10-6 2-15 4-18 5-10 3-42 14-48 17-13 6-38 12-51 13-10 1-25 4-27 6-1 1-2 3-4 6-2 5-24 32-35 44-4 4-10 11-12 14-5 7-10 18-10 21s2 7 4 8c3 1 29 2 145 1h246z"/></svg>