<svg xmlns="http://www.w3.org/2000/svg" width="1344" height="566"><path d="M0 283V0h1344v566H0V283m903 279c10 0 10 0 15-4 7-5 13-12 18-18 2-3 6-9 10-13 18-23 19-24 19-33s-1-12-7-17c-7-7-27-20-33-22-6-1-11-5-13-10 0-2-2-9-3-17-2-12-3-17-8-29-3-8-6-16-7-19-2-2-6-9-10-16-4-8-9-16-11-20-3-4-4-9-5-14-2-11-4-14-9-17-3-2-12-7-20-11-18-9-24-14-24-20 0-7 6-13 15-16 11-3 18-9 20-15 1-3 2-7 3-9 2-4 2-9 3-18 1-7 1-14 2-17 0-3 0-5-4-12l-3-9-1-18c0-25-2-30-16-45-8-8-16-13-25-16-6-2-9-2-26-2s-21 0-29 2c-23 6-28 8-38 19-12 13-15 22-17 46-1 17-1 30 2 40 0 3 1 9 2 12 0 7 0 7-7 28-7 17-6 21 0 28 2 1 5 6 7 11 3 6 5 8 8 10 4 3 4 4-1 17-6 13-7 18-9 28-1 4-3 9-4 11-3 8-3 13-1 23 0 5 2 10 2 12 1 2 1 14 2 41 0 34 0 39 1 42 1 2 2 5 2 11 0 4 0 11 1 15 1 10 4 38 4 43 1 2 1 5 1 6 1 2 6 5 9 5 1 0 4 1 8 3s8 4 10 4c3 0 140 1 167 0z"/></svg>