<svg xmlns="http://www.w3.org/2000/svg" width="1344" height="566"><path d="M0 283V0h1344v566H0V283m675 278c49 1 168-1 188-2 7-1 28-1 47-1 20 0 56 0 82-1 34-1 50-1 58 0 31 3 112 2 115-1s0-13-10-32c-25-51-50-83-83-108-13-10-28-18-44-23-29-11-44-16-58-23-8-4-19-8-25-10-27-8-32-11-56-27-11-7-18-11-25-14-13-5-16-9-19-23-2-9-2-20 0-33 1-11 4-18 11-27 13-19 18-36 16-54-1-5-1-9 0-16 3-19 4-25 5-37 1-15 0-23-4-39-3-11-4-14-9-21-3-4-8-13-12-18-3-6-8-12-11-15-5-5-17-11-25-12-4-1-11-3-15-5s-14-6-21-8c-14-3-15-3-34-3-21 0-32 1-39 5-2 1-6 2-9 3-13 3-35 15-44 25-10 11-14 21-16 48-1 8-2 17-5 28-6 23-7 31-7 61 0 39 2 50 16 90 17 46 26 63 38 71 6 5 6 7-2 15-11 11-23 19-42 27-52 21-95 40-105 47-2 1-7 5-11 8-21 14-37 35-56 69-6 12-13 31-14 41 0 8 0 11 4 13s37 3 118 2h103z"/></svg>