<svg xmlns="http://www.w3.org/2000/svg" width="1344" height="566"><path d="M0 283V0h1344v566H0V283m983 277c1-1 3-4 4-8 2-5 2-7 2-22-1-40 0-93 2-100 1-4 2-9 2-11 0-8 3-31 5-43 2-9 2-13 2-22-1-7-1-29-2-50-1-44-1-46-5-63-5-22-8-27-21-42-12-12-12-12 3-25 15-14 22-22 28-34 6-13 12-33 13-43 0-6 0-9-2-13-5-13-13-21-26-28-14-7-33-7-51 0-12 5-17 10-24 25-3 6-8 17-10 23-8 22-15 29-29 29-6 0-9 1-18 4-10 4-33 12-52 18-14 5-31 15-40 24-6 7-12 20-15 32-11 48-31 123-37 138-2 5-2 9-2 14 0 6 0 7 3 11 14 19 16 33 14 79-1 16-1 34-1 40 0 14 0 15 13 21 16 9 18 13 21 32 1 6 2 10 3 11 2 2 5 2 22 3 10 0 23 0 28-1 13-1 132-1 145 1 17 1 23 1 25 0z"/></svg>