<svg xmlns="http://www.w3.org/2000/svg" width="1344" height="566"><path d="M0 283V0h1344v566H0V283m816 275c2-2 3-6 4-13 2-10 2-11 1-25-3-18-7-46-8-53-3-12 0-44 5-65 1-4 3-10 3-14 1-5 3-12 4-16 3-12 5-33 6-56 0-19 0-21 3-29 8-22 10-28 11-35 1-8 1-52-1-66 0-7-3-13-5-13-1 0-8-9-8-11 0-1 2-4 4-6 7-9 8-17 1-30-2-3-8-16-13-27-10-18-11-21-17-26-7-7-17-12-25-12s-20 4-26 10c-10 8-10 11-16 59-1 11-2 17-3 19s-4 4-10 6c-4 2-8 4-9 5-3 2-10 28-12 40 0 3-1 10-2 15s-2 13-2 17c-2 14-8 35-12 43-3 3-6 3-14-2-9-6-17-7-24-7-3 1-7 1-9 0-3-1-7-2-10-2-4-1-7-2-9-3-3-2-10-1-11 1-3 3 2 6 15 11 2 1 7 3 10 5 5 3 16 8 23 11 4 1 5 1 10 0s5-1 9 1c3 1 7 5 10 8 11 12 12 13 15 13 2 0 5-1 6-1 4-3 8-2 13 1 3 2 7 4 9 5 4 1 6 4 6 10 0 7 2 9 9 12 20 9 38 22 43 30 3 7 0 17-15 47-15 32-15 32-22 38-8 7-8 8-5 18 5 18 7 33 7 41-1 4-2 7-4 12-5 7-6 12-5 17 1 2 2 5 3 6 2 2 3 3 13 3h18c6 1 7 2 12 6l5 5h9c7-1 9-1 10-3z"/></svg>