<svg xmlns="http://www.w3.org/2000/svg" width="1344" height="566"><path d="M0 283V0h1344v566H0V283m783 277h39c100 0 269-1 273-2 6-2 8-5 6-13-2-7-6-18-12-32-8-18-16-41-16-47 0-4-3-18-6-23 0-2-2-7-3-11-2-10-8-28-11-35-7-15-17-20-55-32-11-3-23-7-32-10-4-2-14-5-22-8-24-7-27-9-68-41-13-12-27-22-29-24-8-5-12-15-19-48-4-24-3-30 10-56 8-18 9-23 9-47 0-27-7-55-22-80-10-18-32-39-46-43-6-2-9-2-72-3-74 0-72 0-84 8-3 2-9 5-13 7-19 7-30 21-35 42-1 6-1 13-1 33 0 36 1 48 12 79 6 19 12 30 25 50 12 20 14 23 24 32 12 10 22 17 34 24 11 6 14 8 15 14 0 5-1 11-8 20-9 15-14 19-37 38-13 11-33 21-71 36-14 6-30 14-39 21-21 15-28 31-35 91-1 6-2 12-2 15-3 8-3 14-2 24 1 15 3 16 14 19 3 1 26 1 55 1 28 0 68 1 89 1h135z"/></svg>