<svg xmlns="http://www.w3.org/2000/svg" width="1344" height="566"><path d="M0 283V0h1344v566H0V283m482 133c8-1 17-4 24-8 5-3 19-7 25-8 1-1 4-1 6 0 1 1 9 1 17 2 9 0 20 1 33 3 21 3 42 5 79 6 16 0 29 1 38 2 15 2 28 2 33 0 1 0 7-1 14-2 6-1 12-2 15-3 2 0 6-1 9-1s8-1 12-2c4-2 12-4 17-5s16-4 24-7c26-7 30-8 38-9 9 0 10-1 13-5 1-2 1-4 0-21-1-20-2-27-7-38-1-3-3-8-3-11-2-13-6-19-16-27-6-5-7-7-8-14 0-6 0-6 3-10 3-3 3-4 3-7-1-4-7-28-12-44-3-10-6-23-10-43-7-29-22-57-39-70-14-11-34-20-49-23-10-1-19-1-37 4-29 6-42 14-53 33-10 15-15 38-15 65 0 5-1 14-1 21-1 6-2 17-2 24 0 15-1 26-4 29-2 2-3 3-12 3-16 1-20 3-40 22-4 4-6 7-12 18-7 15-7 15-21 27-9 8-16 12-24 15l-14 7c-9 5-19 7-28 7-11 0-14 2-17 10-2 3-4 8-6 12-9 20-18 42-17 45 0 2 3 2 14 3 14 1 23 1 30 0z"/></svg>