<svg xmlns="http://www.w3.org/2000/svg" width="1344" height="566"><path d="M0 283V0h1344v566H0V283m488 129c6-1 16-5 23-9 6-3 15-7 19-9l8-3 2 2c1 1 3 4 5 6 3 3 4 3 7 2 5-1 18 0 28 2 8 2 18 3 32 5 2 0 14 0 25 1 34 0 65 2 70 3 10 2 30 1 51-4 4 0 11-1 14-2 4 0 9-1 11-2 1 0 11-3 20-5 10-2 21-5 26-7 10-2 24-5 36-6s13-1 13-18c0-19-2-35-7-46-2-6-4-14-5-18s-2-7-3-9c-1-1-3-3-3-5-1-1-4-5-8-7-6-5-9-10-9-17 0-3 1-5 4-9 2-2 4-5 4-6-1-1-2-8-4-15s-6-20-8-28c-4-12-5-19-11-45-4-15-12-35-21-47-10-16-18-23-37-33-23-12-35-14-61-8-31 7-43 13-53 27-6 8-9 14-12 24-5 15-6 21-7 47-1 14-2 25-3 26 0 1-1 10-1 20-1 27-2 29-13 29-9 0-17 3-24 8-2 2-7 6-10 8-9 6-13 12-21 27-6 12-7 14-14 21-13 13-22 18-43 27-8 3-21 6-29 6-6 0-10 1-13 4-1 1-5 10-10 20-17 39-17 40-14 43 2 2 5 3 22 3 13 0 15 0 24-3z"/></svg>