<svg xmlns="http://www.w3.org/2000/svg" width="1344" height="566"><path d="M0 283V0h1344v566H0V283m629 276c60 0 101 0 111-1s25-2 34-2c21-2 50-2 61 0 5 0 19 1 33 2 13 1 32 1 42 2 21 1 53 1 73 0 11 0 15-1 16-2 2-2 2-2 1-5-3-7-10-13-23-21-27-16-38-25-53-37-12-11-28-28-29-32-1-6-7-14-10-14-1 0-6-3-10-8-4-4-10-8-12-9s-6-5-10-8c-3-4-10-11-15-16-10-10-14-17-17-29-1-8-1-23 2-41 3-23 3-34 2-44-2-19-9-66-11-74 0-1 0-13-1-26-1-19-1-24-3-34-2-6-5-17-7-26-4-20-7-30-13-40-8-16-21-31-30-37-5-3-19-9-37-15-7-3-31-6-43-6-9 0-10 0-18 4-5 2-12 5-16 5-3 1-11 3-17 6-5 2-11 4-11 4-3 0-8 4-16 12s-11 11-17 23c-7 12-8 15-10 24-3 14-3 42-1 59 2 11 2 11 0 16-1 4-2 8-2 17 0 14 2 19 11 34 4 6 8 14 10 18 2 6 2 7 1 18-1 8-2 14-3 17-1 2-2 7-3 11 0 8-5 19-8 21-1 0-4 1-8 2-13 3-17 7-26 23-7 11-10 16-17 23-6 7-17 14-23 15-2 0-7 1-10 2-3 0-7 2-9 3-6 3-30 8-46 9-7 0-15 1-17 2s-9 5-17 11c-17 13-25 24-37 49-6 13-8 22-9 37-1 13-1 14 2 25 2 6 3 13 3 15 0 5 5 14 10 17 3 2 112 3 142 2 9 0 59 0 111-1z"/></svg>