<svg xmlns="http://www.w3.org/2000/svg" width="1344" height="566"><path d="M0 283V0h1344v566H0V283m500 130c14-5 18-6 30-7 24-1 33-1 43 0 6 1 17 2 23 2s19 1 28 2c8 1 27 1 42 1 25 1 36 2 45 4 12 3 60-4 97-14 27-7 30-8 40-13 8-4 11-4 18-5 5 0 10-1 11-2 5-2 6-11 4-29-1-5-2-12-2-15s-1-8-3-13c-1-3-3-10-3-13-1-4-2-9-3-10-1-2-3-5-3-7-1-2-3-4-5-4-3-2-11-11-13-15-1-1-2-5-2-8-1-5-1-6 2-9 2-3 3-5 3-5s-1-5-2-9c-2-5-3-10-3-12-1-2-3-11-6-20-5-19-9-34-11-46-3-18-12-42-20-54-6-9-16-20-22-24-20-15-44-23-65-21-41 4-64 17-78 44-9 19-11 28-12 83-1 46-1 52-3 55-2 2-3 2-13 2-9 0-11 0-17 3-4 1-9 4-12 7s-9 8-12 11c-5 4-7 7-13 18-4 9-7 14-10 16s-7 6-10 9c-10 9-17 13-26 17-5 2-12 6-17 8-10 5-17 7-27 7s-12 1-15 7c-3 7-16 37-18 42-1 3-3 8-4 11-2 5-2 7-1 8 1 3 13 4 33 4l18-1 14-5z"/></svg>