<svg xmlns="http://www.w3.org/2000/svg" width="1344" height="566"><path d="M0 283V0h1344v566H0V283m700 277c18-2 17-2 54 0h48c24-1 148-1 233-1 66 1 67 1 69-1 1-1 2-3 2-5 0-8-6-31-11-43s-19-35-31-50c-18-23-40-39-78-59-26-13-36-19-49-27-22-14-44-27-60-34-7-3-19-7-30-9-10-1-13-10-12-36 1-14 1-18 6-33 2-10 6-22 7-27 7-17 12-38 12-47 0-3-1-10-3-14-2-8-2-13-3-34-1-22-1-26-4-36-7-28-21-45-48-58-10-6-31-13-42-16-21-5-51-5-72 0-25 7-52 21-66 35-13 14-20 27-22 43v76l1 70 2 8c3 8 5 15 9 26 2 3 3 7 4 8 0 3 7 19 14 33 6 14 10 21 16 28 7 7 7 9-3 18-4 4-14 12-22 19-9 7-19 16-23 19-9 8-22 16-65 41-5 3-14 9-21 13-6 4-18 11-26 16-37 22-47 31-60 53-3 5-5 12-6 14-1 5-1 5 1 7 1 2 3 3 5 3 1 0 60 1 131 1 88 0 133 0 143-1z"/></svg>