<svg xmlns="http://www.w3.org/2000/svg" width="1344" height="566"><path d="M0 283V0h1344v566H0V283m746 165c8-1 17-2 19-2 7-3 16-5 23-6 8-2 20-6 29-9 11-3 33-7 42-7 3 0 13 1 21 2 12 2 15 2 16 1 3-2 2-16-2-44-1-7-2-21-3-31-1-9-1-19-2-21-2-8-12-16-25-20-9-3-10-5-11-15-1-5-1-11-2-14-1-4-1-6 1-9 0-2 1-7 1-13 0-9-2-34-4-40 0-2-1-7-2-11-3-19-5-30-13-65-1-3-3-10-4-14-2-10-9-29-13-38-10-20-24-33-51-48-13-8-22-11-34-12-8 0-11 0-22 3-6 2-16 4-22 5-14 3-23 7-32 15-18 18-26 40-31 87-1 8-2 15-3 15 0 1-3 36-4 61-1 14-1 26 0 34 2 24 3 23-24 29-3 1-8 2-11 3-4 1-10 2-17 2s-14 0-18 1c-12 2-14 4-40 31-7 7-14 13-16 14-10 6-22 14-27 19-9 7-13 9-25 10-9 0-9 1-12 4-5 6-21 42-28 61-5 17-5 17 3 18 4 0 8-1 14-3s11-3 17-4c5 0 13-1 17-2 4 0 15-1 24-2s19-2 23-3c12-3 18-3 28-3 7 0 9 0 14 2 2 1 6 3 8 3 3 0 7 1 11 2 19 5 39 6 73 5 26-1 49 0 56 2 2 1 6 1 9 2 4 1 9 2 11 4 6 3 7 3 38 1z"/></svg>