<svg xmlns="http://www.w3.org/2000/svg" width="1344" height="566"><path d="M0 283V0h1344v566H0V283m1008 278c131-1 131-1 135-11 3-8-2-26-12-40-2-3-9-10-22-21-30-25-38-32-46-38-5-3-14-10-21-15-6-4-15-11-19-14-13-9-20-14-24-18-4-5-14-18-26-36-5-9-13-19-21-29-4-5-9-12-11-16-3-4-7-12-10-17-11-19-12-34-1-42 19-14 28-30 35-60 7-28 8-44 7-73-1-16-1-23-3-27-3-9-16-36-24-47-11-18-18-24-34-34-5-3-11-6-13-8-7-4-17-8-29-9-19-2-86-1-101 2-18 3-23 4-30 7-5 1-10 3-13 5-3 1-8 3-10 4-14 4-31 17-36 27-5 8-12 32-13 42s0 43 2 63c3 30 4 44 5 62 1 26 4 39 12 57 3 7 9 22 14 33 12 33 17 42 26 48 2 1 8 3 14 4 20 5 22 6 29 11 6 4 10 15 7 21-4 6-12 11-41 23-9 3-19 7-21 9-12 5-32 18-36 22s-4 4-4 10c1 4 2 7 6 15 3 5 7 15 11 23 3 8 7 17 9 21 2 3 4 9 4 12 1 6 2 7 7 13 7 8 12 10 24 13 5 1 11 2 14 3 5 1 17 2 40 3 19 1 40 2 46 2h174z"/></svg>