<svg xmlns="http://www.w3.org/2000/svg" width="1344" height="566"><path d="M0 283V0h1344v566H0V283m913 278h163c54 0 53 0 55-6 1-4-3-21-8-30-4-8-5-15-4-24 1-5 1-11 1-12-1-4-9-10-18-14-22-9-53-23-77-35-29-14-34-18-36-25 0-3 2-22 5-53 3-22 2-85-2-129-4-52-14-99-28-131-17-39-42-63-79-77-26-10-37-13-49-13-14 0-21 2-32 6-8 4-11 5-21 6-15 1-22 4-37 18-17 15-24 23-33 45s-12 37-16 72c-2 25-2 26 0 59 1 32 2 40 4 60l1 10-4 9c-2 6-4 10-4 11 0 3-6 16-9 18-1 1-7 6-13 9-16 10-16 10-15 26v29c1 13 1 15 0 17-3 4-6 6-12 7-8 1-33 12-70 29-7 4-18 8-23 10-21 9-22 10-20 19 2 12 1 20-10 52-4 12-7 24-8 27 0 5 0 6 2 8 1 1 4 2 6 2h391z"/></svg>