<svg xmlns="http://www.w3.org/2000/svg" width="1344" height="566"><path d="M0 283V0h1344v566H0V283m918 274c3-4 3-11 0-27-1-7-2-17-2-23 0-9 0-11 3-15 2-5 2-6 2-13-1-8-5-25-9-43-9-36-9-60-1-74 6-10 8-19 8-28 0-7 0-8-4-17-11-21-14-35-14-56 0-14-2-52-4-60s-1-19 1-22c1-1 4-4 8-5 4-2 8-4 10-6 2-1 8-5 14-8 11-5 12-6 15-12 2-3 6-10 10-16 3-6 8-16 12-23l5-12V87c-1-11-2-13-11-27-5-8-10-11-22-16-8-3-9-3-19-3-24 0-35 8-51 39-9 18-11 19-22 31-12 13-13 13-27 13-11 0-12 1-14 3s-3 4-4 9c0 5 0 6-10 16-5 5-13 14-17 20-7 11-15 28-17 34 0 2-1 5-1 6-1 1-3 8-4 14-2 6-4 14-5 16-1 6-2 25-3 79 0 24 0 55-1 67-1 13-1 35-1 48 0 28-1 24 11 47 4 8 9 16 12 19 7 8 12 22 14 39 1 11 3 15 5 16 3 2 35 3 86 3h44l3-3z"/></svg>