<svg xmlns="http://www.w3.org/2000/svg" width="1344" height="566"><path d="M0 283V0h1344v566H0V283m820 276c4-2 5-5 6-15 1-3 2-8 3-10 4-7 3-20-4-49 0-4-1-10-2-13-1-4-1-8-2-8l-2-14c-3-18-4-43-2-58 1-6 2-15 3-20s2-16 4-25c3-14 3-17 3-27-1-14-2-18-11-40l-5-14-1-40c-1-21-1-40-2-41-2-4-2-9-1-14 4-12 4-14 4-25 0-9-1-16-4-33-5-24-9-33-14-37-7-5-13-7-22-8-13-1-15 0-24 10-4 5-8 11-10 14-1 2-3 7-5 10-3 5-3 6-3 17 0 12-1 11 10 18 5 4 8 9 8 15 0 3-1 5-5 10-3 3-6 7-7 9-1 4-5 9-7 9 0 1-3 0-6-2-8-3-12-3-16 1-3 2-3 4-3 8 0 6 2 9 10 13 10 4 11 6 11 11-1 3-2 8-3 11s-2 8-3 11c0 4 0 5 3 7 2 1 5 4 8 7 2 2 4 4 5 4 3 0 10 8 13 14 2 5 2 8 3 18v13c-1 3-6 6-11 6-3 0-8 3-9 5 0 1 0 3 1 4 2 4 12 5 18 2 2 0 4-1 5-1 1 1 7 12 12 26 4 11 5 11 12 18 15 13 19 18 19 24 0 5-3 14-11 31-7 15-10 24-10 30 0 5 4 20 11 43 8 24 12 41 12 56 0 10 1 16 4 18s13 3 17 1z"/></svg>