<svg xmlns="http://www.w3.org/2000/svg" width="1344" height="566"><path d="M0 283V0h1344v566H0V283m739 188c3-1 8-1 10-1 5 0 17-2 28-5 3-1 10-3 15-4 6-1 12-3 14-3 3-1 7-2 10-3 3 0 13-3 23-6l17-4h25c29 1 28 1 28-8 0-4-1-13-2-21-3-26-3-32-3-52-1-28-1-28-12-43-1-3-7-5-13-7-7-2-13-4-18-9-5-6-13-10-19-11s-8-2-8-4 1-3 12-3c16-1 16 0 14-14-1-6-2-14-2-18 0-7-3-23-7-38-2-5-4-14-6-21s-5-18-7-24c-5-18-6-21-8-27-1-6-4-15-7-24-2-8-11-25-17-33-9-15-27-29-52-42-15-7-19-9-30-10-7 0-10 0-18 2-5 2-18 5-27 8-20 4-24 6-31 12-10 8-23 30-27 47-3 9-7 34-9 45 0 3-1 10-2 14-3 14-2 106 1 126 1 6-2 7-12 9-9 1-10 1-23-1-16-3-25-2-31 1-2 0-7 5-11 9s-10 8-14 10-12 8-19 12c-6 5-16 12-22 16-6 3-15 9-19 13-11 9-15 11-26 11-6 0-9 1-12 2-4 2-4 2-2 10 0 4-2 11-11 31-6 14-10 25-10 28 0 2-1 6-2 10l-1 6 2 3c4 3 7 3 17-1 5-2 10-3 11-3s5-1 7-1c8-2 37-4 49-3 15 1 35 1 38-1 2-1 21 0 27 2 2 0 9 2 17 3 7 0 13 1 14 2 4 0 37 3 42 3 4 0 8-1 12-2 6-3 13-4 25-2 4 1 13 2 21 2 13 2 26 5 31 7 1 1 4 3 5 4 2 3 3 3 11 2 5 0 11-1 14-1z"/></svg>