<svg xmlns="http://www.w3.org/2000/svg" width="1344" height="566"><path d="M0 283V0h1344v566H0V283m968 277c3 0 11-1 19-1 15 0 18-1 20-6 1-2 2-10 2-28 1-26 3-47 8-104 4-43 5-69 1-81-3-11-6-20-10-28-4-6-19-33-26-45-5-9-12-17-23-30-10-10-13-15-15-24-3-11-5-13-15-14s-13-3-17-12c-6-11-7-17-5-28 3-11 9-39 12-50 5-16 6-24 5-31-1-9-14-41-18-45-4-3-16-10-25-13-3-1-10-2-15-3-10-1-11-1-21 1-14 3-31 8-39 12-9 5-21 17-25 25-2 4-2 6-2 10 1 5 0 16-4 27-1 5-3 14-4 20 0 7-2 14-2 16-8 20-8 23-4 30 2 2 5 9 7 15s6 15 9 20c5 11 10 15 20 18 9 2 17 7 22 12 7 9 7 12-1 21-3 3-7 7-8 10-2 2-5 7-9 10-7 8-9 12-11 25-2 17-2 18-11 39-7 15-11 26-12 32-1 4-2 11-4 18-1 6-3 15-4 20-1 4-3 14-5 21-6 27-10 45-17 81-2 12-5 28-7 36-4 18-4 19-1 21 2 2 7 2 87 3h104c9 0 20 0 24 1 6 1 13 1 20-1m-453-1c3-1 4-6 5-18 0-5 1-12 2-15 1-4 2-7 2-8 0-2 4-15 6-20s2-7 2-22c0-13 0-17-1-21-1-2-3-7-3-9s-2-7-3-10-3-8-3-11c-4-11-11-29-14-33-4-5-19-19-27-25-10-7-13-10-13-14 0-3 1-4 6-8 4-5 6-7 12-19 7-15 10-19 19-25s9-6 8-34l-2-23-3-6c-4-8-6-12-10-30-3-17-6-24-13-32-5-5-7-6-22-10-14-4-21-5-36-5-12 1-16 1-21 3-18 6-33 18-39 29-7 13-9 51-8 120 1 25 1 49 2 54 0 8 0 9-2 15-2 4-5 9-6 12-7 11-13 23-14 28 0 2-1 8-2 12-6 15-10 30-10 35-3 20-7 46-9 57-3 11-3 16-3 21 1 10 2 12 10 13 3 0 46 1 97 0 70 0 91 0 93-1z"/></svg>