<svg xmlns="http://www.w3.org/2000/svg" width="1344" height="566"><path d="M0 283V0h1344v566H0V283m366 276c13-1 32-1 58 0h199c110 1 115 1 119-1 2-1 4-3 5-5 2-4 4-21 4-43 0-10 1-26 1-38 1-10 3-29 3-40 2-22 2-41-1-54-2-12-11-30-21-44-8-10-30-31-37-35-9-5-14-10-15-13 0-4 3-20 8-37l3-13v-20c0-33-4-62-10-80-10-25-42-55-71-66-5-2-13-4-19-6-11-2-13-2-33-2-31 0-49 3-68 11-12 6-17 10-27 19-19 20-26 38-35 93-3 17-3 19-8 25-6 7-7 10-4 26 1 7 2 17 3 24 1 17-2 22-22 30-5 2-12 5-16 7-13 6-31 15-42 21-6 4-16 9-22 13-27 14-51 35-70 61-15 19-17 22-20 26-1 3-3 7-5 9-2 4-11 26-14 37-3 10-3 35-1 48 2 7 2 12 2 27 0 12 1 18 2 19 0 1 2 2 4 2 5 1 125 0 150-1z"/></svg>