<svg xmlns="http://www.w3.org/2000/svg" width="1344" height="566"><path d="M0 283V0h1344v566H0V283m498 276c3-3 5-13 3-19 0-2-1-5-1-6s-1-4-2-6c0-3-2-7-3-10-1-5-8-25-12-35-5-14-17-29-34-42-5-4-12-9-16-13-12-8-13-10-14-13 0-2 0-3 5-7 4-5 5-7 8-15 5-13 8-17 14-24 4-3 8-6 15-8 10-5 16-9 17-13 1-3 1-11 1-31l-1-28-5-9c-7-11-8-16-12-33-4-18-8-28-14-37-7-11-11-14-25-17-36-10-64-9-83 1-17 9-31 21-37 34-7 14-9 28-12 74-1 11-1 20-1 20-1 1-4 32-5 58-1 14-3 29-4 33-1 5-1 13-1 23 0 17 0 16-9 42-2 7-3 11-4 20s-2 15-5 26c-6 20-6 32-1 35 3 2 53 3 161 3h75l2-3m368-1c35-1 61-1 125 0 83 1 103 1 107-2 1 0 3-2 3-4 6-10 13-92 11-121-1-12-1-15-5-26-9-28-31-67-56-98-8-10-10-12-31-30-13-12-16-16-18-25-2-13-3-13-16-15-11-2-15-5-20-18-3-8-3-11-3-18 0-6 0-10 2-15 1-3 2-8 3-10 2-9 10-40 11-42 0-1 3-9 5-17 3-14 4-18 4-26 0-15-4-31-10-44-3-6-7-13-9-15-3-4-18-12-28-16-4-1-13-3-21-4-10-2-14-2-20-1-4 0-10 1-12 2-13 1-31 7-47 14-6 4-11 7-18 14-5 4-10 10-11 11-1 3-1 6-2 17 0 13 0 14-4 27-3 9-4 15-5 22 0 12-2 21-6 31-4 11-6 18-6 21 0 1 2 6 4 11 2 4 5 12 6 17 8 23 13 36 17 41 5 5 8 6 14 8 10 1 22 7 27 13 4 4 8 12 8 15 0 2-6 8-18 20-9 10-19 19-20 21-4 6-8 16-9 26-1 8-2 10-10 30-14 33-22 57-29 88-1 6-3 14-4 18-4 19-5 23-6 32-1 4-3 13-4 20-1 6-2 14-3 18 0 6 0 7 2 9 2 1 4 2 8 2 10 1 50 0 94-1z"/></svg>