<svg xmlns="http://www.w3.org/2000/svg" width="1344" height="566"><path d="M0 283V0h1344v566H0V283m881 279c6-1 22-1 47 0 26 0 39 0 43-1 12-2 40-3 88-4 46 0 48 0 58 2 5 1 12 2 14 2 2-1 8-1 13-2 10-1 18-4 21-7 1-2 1-3 1-10-1-5-2-12-3-17s-2-10-3-13c0-2-1-6-2-8-1-4-2-22-5-64-1-25-10-89-17-118-7-30-14-45-30-59-9-9-21-15-55-29-19-8-24-11-34-18-11-8-13-12-14-24 0-10 1-25 4-29 1-2 3-5 5-8 6-6 11-17 12-25 0-6 0-7-2-10-6-7-6-7-6-30-1-18-1-21-3-28-4-10-6-14-15-23-8-9-9-9-18-12-7-3-10-3-18-3-9 0-12 0-22 3-12 4-15 5-25 12-13 8-16 11-20 19-3 7-4 14-6 44-1 9-1 20-2 24 0 9 1 12 9 32 3 7 7 17 9 21 3 10 4 23 2 26 0 1-3 3-6 5s-9 6-13 9c-9 8-20 14-42 25-26 13-39 21-49 33-15 17-23 34-30 66s-8 35-10 49c-1 7-3 19-4 26-6 40-6 50-1 71 4 15 4 21-1 31-2 6-3 9-3 14 0 9 2 14 8 20 8 7 11 8 31 9 22 1 82 0 94-1m-639-1h123c20 0 27 0 30-2 5-1 8-1 23 0 19 1 236 2 274 0 27 0 29-1 31-7 1-6 4-32 3-46v-13l-5-11c-6-13-8-17-9-30 0-5-1-13-2-17-1-10-1-23 1-30 0-3 4-11 7-17 6-14 9-27 11-43 1-11 0-88-2-106-2-21-10-41-21-53-15-16-58-32-82-30-36 3-39 4-46 7s-13 7-23 16c-11 9-14 12-25 26-11 15-14 22-20 42-4 12-15 54-16 63-5 26-8 41-12 48-3 6-5 9-18 22-16 15-16 16-24 35-3 6-7 15-10 20-3 6-5 12-5 13 0 4-6 14-9 16-4 2-6 1-9-8-2-6-2-8-3-28 0-23 0-26-9-69-6-25-8-33-12-41s-15-19-29-29c-6-5-14-11-17-14-5-6-5-6-4-10 0-2 2-9 5-15 8-21 9-24 13-47 2-9-1-56-3-67-5-17-16-28-36-36-15-7-28-8-44-4-21 5-33 15-40 32-2 4-2 9-3 23 0 10-1 20-2 23-1 4-1 5 1 12 1 4 4 12 7 18 6 13 8 20 8 30 0 5-1 9-2 10-1 0-4 2-7 4-5 2-7 3-12 10-7 10-19 22-28 30-5 3-11 9-15 13-3 4-7 9-10 10-2 2-9 8-16 15-10 10-13 14-16 20-7 12-11 30-11 44 0 12-3 49-4 56-1 3-1 12-1 20l-1 14 5 13c2 7 6 15 7 18 2 3 4 8 4 12 5 14 11 30 14 33 1 2 5 3 7 4 5 1 49 3 57 2 2 0 17 0 32-1z"/></svg>