<svg xmlns="http://www.w3.org/2000/svg" width="1344" height="566"><path d="M0 283V0h1344v566H0V283m264 277c39-1 36 0 44-16 5-8 7-14 9-22 1-6 3-13 3-15 1-2 2-7 3-10 1-7 4-10 8-10 8 0 63-3 69-4 12-2 23-4 34-7 5-1 11-3 14-3 9-2 20-5 24-7 3-1 10-3 14-5 5-1 14-4 20-7 6-2 13-5 16-6 9-4 16-8 18-11 2-5 1-10-4-13-4-2-5-3-4-5 0-2-2-6-4-6-1-1-4 0-6 1s-5 2-6 2-4 1-6 2c-11 5-15 6-21 6-7 0-10-3-12-13-2-11-2-11-5-11-2 0-4 4-11 21-4 8-5 10-9 13-4 2-18 4-32 5-12 0-47-2-54-4-5-1-10-6-14-14-5-9-8-16-9-28-1-5-2-13-4-18-3-11-3-14 4-27 5-11 9-16 12-14 2 0 6 0 10 1 9 0 11-1 23-12 4-5 11-10 13-12 5-4 5-5 9-19 2-10 7-22 11-27 2-4 2-5 2-13s0-9-4-17c-9-16-24-31-37-35-10-3-26 0-37 6-6 3-11 8-19 19-8 10-12 14-15 14-2 0-5 1-7 3-12 7-15 8-24 9-20 1-36 6-58 17-27 13-35 19-48 32-10 10-20 22-25 29-1 1-4 5-7 9-11 15-36 61-43 78-1 4-3 9-4 11s-3 8-5 12l-3 8 2 2c3 3 8 2 14 0 5-3 5-3 9-16 5-15 5-16 10-15h10c4 0 6 1 7 2 3 2 5 10 5 13 0 4-5 12-8 15-2 2-2 3-1 10 0 8-1 11-6 11-4 0-17 5-17 6s3 2 6 2c12 1 14 4 12 15-1 6-1 8 0 10 1 3 1 7-1 10 0 2-2 6-2 10-2 7-4 10-10 11-6 2-7 3-4 7 3 5 13 16 16 17 1 0 9 1 18 1 9 1 18 2 21 2 7 2 3 2 96 0z"/></svg>