<svg xmlns="http://www.w3.org/2000/svg" width="1344" height="566"><path d="M0 283V0h1344v566H0V283m618 277c11-1 18-1 122 0 89 1 85 1 88-5 2-4 2-21-1-34-3-22-17-65-28-90-3-7-3-8-3-15 1-4 1-9 2-10 0-3-5-8-13-12-4-1-11-5-15-7-5-3-11-5-12-5-1-1-9-4-16-8-7-3-18-8-22-10-19-8-31-14-32-16-3-3-3-16 0-34 1-7 3-21 4-29 1-9 3-18 3-22 4-15 3-35-1-67-1-8-2-20-3-26-3-31-8-56-14-71-10-26-10-27-24-42-17-20-32-30-57-39-15-6-16-6-24-6s-13 1-31 8c-5 2-9 3-13 3-15 0-25 4-38 17-25 24-40 62-52 128-6 38-11 74-12 93-1 18-1 24 2 47 3 20 2 24-3 30-4 5-14 10-23 11-14 2-43 13-80 31-18 9-19 10-25 31-4 12-13 33-24 53-3 7-7 16-10 22-2 6-6 16-9 22s-7 18-10 26c-5 17-5 18 5 22 5 2 7 3 22 3 77 1 94 1 102 0 9-1 75 0 111 2 22 1 120 0 134-1z"/></svg>