<svg xmlns="http://www.w3.org/2000/svg" width="1344" height="566"><path d="M0 283V0h1344v566H0V283m1042 204c1-1 2-4 2-10 2-17 2-17 18-38 5-6 10-13 11-16 2-3 5-7 7-10 4-6 7-14 8-27 0-10 0-10-4-22-5-13-8-20-14-30-7-10-7-14-7-69-1-47-2-66-4-77-1-2-2-6-2-8-1-5-7-14-12-19-4-3-18-10-27-13-6-2-27-4-34-3-5 0-13 3-17 6-2 2-5 7-8 11-2 4-8 13-12 19-5 5-10 15-13 20l-5 9-1 20v20l3 3c1 1 4 3 5 4 3 2 5 6 4 10-1 3-7 5-18 7s-13 1-15-4c-2-6-5-8-10-8-11 0-15 3-24 17-5 8-6 9-6 16 0 5 0 9 1 13 3 6 2 13 0 19-1 3-3 8-4 12-2 7-5 10-10 13-7 4-15 13-16 18-1 3-1 9-1 20 1 25 3 32 12 38 4 3 7 5 22 11 3 2 7 4 9 5 2 2 7 4 12 6 5 1 11 3 13 4 11 3 20 6 27 7 5 1 11 3 14 4 10 3 65 19 70 20 3 1 8 2 10 2 8 3 14 2 16 0z"/></svg>