<svg xmlns="http://www.w3.org/2000/svg" width="1344" height="566"><path d="M0 283V0h1344v566H0V283m894 278c19-1 18-1 18-19-1-15-4-47-6-54 0-2-1-7-2-12 0-9 0-9 3-12 1-2 5-4 7-5 6-2 8-5 10-15 0-3 2-11 4-18 2-14 2-22 0-28-1-2-6-8-11-14-5-5-11-12-13-14-8-9-28-22-43-26-4-1-8-3-9-3 0-1-1-8-1-15-1-10-1-14-3-18-4-9-6-11-17-10-13 0-19 3-21 13-2 6-2 11 0 23 2 11 2 16 1 19-1 1-4 6-9 11-4 5-8 11-9 13-3 6-6 24-6 39 0 10 0 12 3 19 5 12 8 21 9 27 0 2 2 7 4 11 4 8 5 18 2 25-1 2-3 9-5 15-3 12-5 17-13 27-7 7-8 12-4 14 6 4 14 6 24 6h11l3-4c4-4 4-4 8-3 3 1 7 3 10 4 5 3 6 4 19 4 20 1 22 1 36 0z"/></svg>