<svg xmlns="http://www.w3.org/2000/svg" width="1344" height="566"><path d="M0 283V0h1344v566H0V283m614 279c8-1 16-2 17-3 3-2 6-7 11-17 3-5 6-11 7-12 1-2 3-8 4-14 6-31 8-37 27-75 14-26 16-32 13-35-2-1-7-3-31-12-5-2-11-5-14-6-3-2-9-5-14-7-9-3-22-8-40-15-16-7-18-10-18-21 0-9 2-18 10-39 6-19 9-30 10-47 2-20 1-28-2-52-7-45-22-93-38-121-17-28-47-51-83-61-11-3-12-3-29-3h-18l-22 11c-26 13-33 18-43 27-9 9-16 22-22 42-10 31-15 61-21 126-2 15-3 31-4 36-1 4-1 22-2 38 0 30 0 41 4 62 1 5 1 11 1 12-1 4-6 6-21 12-18 5-23 8-42 21s-24 16-38 24c-10 6-12 7-14 11-1 2-2 8-3 12 0 4-4 17-7 29-3 11-6 21-6 23 0 1-1 4-2 8-2 7-4 25-4 33 1 6 1 8 3 10l3 2h35c47 0 77-1 84-2 3-1 6-1 9 0 3 0 17 1 33 1h29c0 1 42 1 92 2 50 0 92 0 92 1 1 1 41 0 54-1z"/></svg>