<svg xmlns="http://www.w3.org/2000/svg" width="1344" height="566"><path d="M0 283V0h1344v566H0V283m804 278h83c177 0 189 0 198-3 1-1 4-3 5-4 1-3 1-3-1-11-2-9-20-58-26-72-4-10-10-20-20-31-9-11-17-23-47-66-10-15-14-26-11-31 2-4 22-11 40-13 6-1 12-2 13-3 3-2 5-7 6-16 0-5 1-11 2-14 0-6 0-9-7-26-3-7-5-14-8-28-6-27-16-40-48-55-9-5-33-21-38-26-7-7-11-17-16-39-2-5-4-13-5-16-5-12-17-39-21-46-14-24-32-42-52-50-14-6-19-6-94-6-79 1-73 0-85 11-4 4-11 12-17 17-9 9-12 12-23 28-16 24-16 24-35 43-14 14-16 17-18 22-6 16-4 26 13 65 4 11 8 21 8 22 4 13 17 36 26 44 6 6 9 7 14 8 4 1 8 5 10 10 2 3 3 7 5 24 2 13 4 17 15 27 5 4 9 8 9 8 0 1 5 6 10 12 22 22 33 39 33 49 0 9-14 39-22 49-14 16-16 21-23 43-5 14-8 26-13 52-4 14-4 16-1 20 2 2 3 2 23 3 22 1 45 1 118-1z"/></svg>