<svg xmlns="http://www.w3.org/2000/svg" width="1344" height="566"><path d="M0 283V0h1344v566H0V283m767 279c1-1 1-2 1-3-2-2-11-6-20-9-4-1-12-4-17-7-5-2-12-6-16-8-9-6-16-10-25-17-10-9-15-15-22-26-12-20-21-29-35-38-16-9-32-15-52-19-18-4-20-5-23-9-3-3-3-4-3-10 1-12 6-16 23-17 13 0 18-2 24-8 8-9 12-17 17-38 2-10 4-16 11-37 1-5 4-11 6-15 1-3 4-8 5-11s2-7 3-8c1-2 2-5 3-6 1-2 3-4 4-5 3-2 3-2 6-1 5 2 15 13 21 23 7 11 11 14 15 8 1-2 2-4 2-7s1-9 2-14c4-22-2-53-18-104-11-35-15-45-27-65-13-22-27-37-45-47-13-7-21-10-43-14-10-2-22-5-28-7-23-6-26-7-35-8-12 0-26 1-43 6-27 7-37 11-50 23-13 11-25 26-34 45-12 24-15 39-12 72 1 8 2 21 3 30s1 17 2 19c0 2 2 8 3 13 4 13 4 19 1 27-2 4-4 9-5 12-5 14-7 26-7 38-1 11-1 12-4 17-2 3-5 9-8 12-3 4-7 9-9 12-6 8-21 23-26 26-3 2-21 6-50 12-17 3-40 9-47 12-9 5-16 11-22 20-6 10-10 19-12 32-1 6-3 16-4 21-1 4-3 15-4 24-2 8-3 16-4 17 0 1-1 7-2 12-1 8-1 10 0 13 2 6 6 8 21 9 10 2 31 2 132 2 161 0 333 1 334 1 0 1 25 1 56 1 48 0 56 0 57-1z"/></svg>