<svg xmlns="http://www.w3.org/2000/svg" width="1344" height="566"><path d="M0 283V0h1344v566H0V283m826 277c7-2 10-5 16-16l5-10v-22l4-9c3-5 10-18 16-29 7-11 16-28 20-38 9-19 10-21 18-29 10-11 13-20 9-29-1-3-2-8-3-12-1-7-3-12-8-18-1-2-3-4-3-5l-2-2c-1-2-3-2-7-2-4 1-6 1-11-2-9-4-11-6-9-10 0-2 1-10 1-18 0-12 0-14-2-17-4-8-15-9-20-3-2 2-3 4-3 5 0 3-2 7-11 18s-13 15-19 17c-4 2-6 2-16-1-12-3-19 3-32 27-8 15-10 22-15 46-3 11-6 24-7 27-4 15-12 35-18 44l-10 20c-9 19-22 38-27 43-3 2-6 0-9-4-2-3-9-11-15-18-28-31-25-25-30-45 0-4-4-12-6-18-6-11-11-18-20-23s-24-15-25-17c-3-3-2-5 5-11 4-3 8-9 16-21 7-10 13-20 15-24 2-3 7-11 11-17 11-16 18-31 19-39 1-10 2-29 0-48-1-13-1-31 0-61 0-37 0-45-2-55-6-41-15-56-58-84-17-11-40-23-50-25-10-3-24-3-31-2-3 1-11 2-18 2-17 1-23 2-35 6-26 8-42 22-59 50-14 23-21 43-29 75-2 10-6 25-8 34-5 21-8 38-11 58-2 16-5 32-10 50-1 5-3 15-4 24 0 8-2 22-4 30-1 8-3 17-3 21 0 5 0 6 5 15 6 12 6 17 1 28-17 29-21 38-37 76-4 9-8 18-10 22-5 11-5 14 1 22 1 2 2 6 3 10 1 9 2 11 7 12 8 2 66 3 156 2 51 0 104 0 117-1 71-1 101-1 144 0 27 1 51 2 54 2s15 1 27 1c17 0 23 0 27-2z"/></svg>