<svg xmlns="http://www.w3.org/2000/svg" width="1344" height="566"><path d="M0 283V0h1344v566H0V283m611 276c26-1 39-1 99 0 48 1 180 1 192-1 6-1 22-1 75-1 14 0 33-3 52-8 5-2 12-3 16-4 14-2 23-11 22-22-1-2-1-8-2-12-1-8-2-10-7-14-8-5-15-4-26 5-7 6-8 7-11 5-1-1-4-7-4-11s-3-9-6-10c-4 0-7 1-9 6-5 9-8 10-14 4-3-3-3-3-24-3-18 0-37-2-45-4-4-1-11-3-16-5-10-2-16-5-18-8-1-1-3-4-3-8-3-8-4-10-9-13-7-4-12-3-29 6-14 8-24 15-33 24-7 7-12 11-24 15-12 5-17 5-21 1-1-1-7-10-11-20-5-9-11-20-14-25-2-4-6-11-9-16s-10-17-15-28c-16-28-20-36-20-38 0-3 18-22 25-26 6-4 15-12 28-24 5-4 10-8 12-9 8-5 12-10 14-22 3-13 8-26 16-43 4-8 9-19 10-24 6-17 8-22 18-41 7-14 10-21 10-23 0-4-1-6-11-19-4-5-10-14-14-20-7-11-16-21-31-33-24-19-58-34-84-36-9 0-26 2-38 5s-39 19-42 24c-1 1-5 6-9 10-12 13-21 27-29 41-11 22-14 26-22 35-12 12-17 14-47 21-19 5-22 7-36 23-13 16-15 20-17 29 0 4-3 12-5 18-4 11-7 23-7 28s3 9 10 14c9 7 10 9 10 12 0 4-6 16-17 33-8 13-15 27-20 41-10 25-14 36-16 39-4 7-9 19-10 25s0 12 5 29c1 4 1 10 1 20 0 15-1 18-4 20s-9-1-21-11c-6-4-14-10-19-14-5-3-11-8-15-11-3-3-10-8-15-11-7-4-11-7-21-17-7-7-16-16-20-21-7-8-8-9-8-13s3-15 9-35c6-17 6-21 5-38-2-25-4-30-13-40-4-3-7-7-8-8-1-4-1-10 1-15 1-4 1-8 1-23 0-18 0-20-2-24-5-9-13-9-21 0s-18 34-18 46c0 7-3 9-16 11-5 1-11 3-14 3-5 1-6 2-12 7-16 16-22 31-25 67-1 15-5 30-8 36-2 5-11 14-15 16-2 0-5 1-8 0-5 0-6 0-11 3-4 2-9 4-11 5-7 3-7 5-3 13 6 9 7 11 8 21 1 11 4 17 9 21 10 7 29 26 40 39 7 7 13 15 14 16 5 5 13 7 54 11 17 1 45 2 141 2 26 0 45 0 49 1s11 2 16 2c16 1 146 0 171-1z"/></svg>