<svg xmlns="http://www.w3.org/2000/svg" width="1344" height="566"><path d="M0 283V0h1344v566H0V283m875 279c128 1 199 0 213 0 24-2 25-3 20-17-2-4-4-12-5-17-3-10-6-15-14-28-7-13-11-25-12-38-1-6 1-23 6-62 4-27 6-56 5-62 0-5-1-8-4-11s-5-3-10 0c-7 3-10 1-13-11-3-14-12-19-18-10-3 5-5 5-11 0-6-7-11-6-18 4-4 7-6 8-10 8s-8 2-12 7c-5 5-6 8-9 19-3 10-5 14-8 14 0 0-13-5-28-11-54-21-61-25-63-29 0-2 1-13 2-17 5-17 8-68 5-91-4-26-13-48-27-63-9-9-42-29-56-35-19-6-50-8-64-4-13 4-36 16-47 26-7 6-18 19-22 27-5 8-9 22-11 32-1 8-3 16-7 33-3 11-4 15-4 24 0 7-1 12-2 15-2 6-2 17 0 31 2 12 2 12 0 15-3 6-15 11-61 26-10 3-22 6-26 8-8 3-15 5-19 4-3-1-5-6-7-23-1-17-2-21-5-24-2-3-6-2-11 2-2 3-4 5-5 5-2 0-4-3-6-8-2-7-6-15-8-18-3-3-7-3-13 2-5 5-5 5-10 2-2 0-4-1-5-1-4 0-8 5-10 14-4 11-6 14-14 16-9 3-9 4-10 24 0 13 0 20 1 26 1 5 2 13 3 17 2 15 5 32 7 39 1 3 3 12 5 18 6 21 5 37-4 60-6 16-11 27-18 37-4 6-7 12-7 13-2 3 2 8 6 9 6 1 28 2 34 1h76c42-1 142 0 164 2h167z"/></svg>