<svg xmlns="http://www.w3.org/2000/svg" width="1344" height="566"><path d="M0 283V0h1344v566H0V283m210 279c1-1 17-1 40-2 49-1 49-1 85 1 17 1 32 1 33 1h160c87-1 168-1 178-2l20-1 8-3c7-4 11-8 10-11l-11-11c-6-5-10-10-10-11 0 0-1-3-2-5s-3-7-3-10c-1-5-3-7-5-9-3-3-3-4-13-4-11 0-19-1-25-4-2-1-5-2-8-2-5-1-14-8-17-12-4-7-6-18-6-35 0-11 0-16-1-18-3-7-3-14-1-30 0-8 2-18 3-21 2-8 2-18 0-52-2-43-3-52-10-73s-15-34-28-48c-13-12-19-15-45-21-7-2-11-2-24-2-14 0-15 0-28 3-7 2-15 5-18 6-6 3-23 15-28 20-15 15-23 43-25 82-1 26-1 67 1 79 1 5 1 16 1 23 1 8 1 20 2 27 3 32-1 39-26 41-8 1-12 1-14 0-1-1-3-4-4-8-2-7-3-10-3-34-1-21-1-28-2-32-3-8-6-22-8-36-3-22-10-39-17-46-2-2-7-7-11-10-8-6-11-9-24-17-5-4-10-8-11-10-2-3 1-7 9-13 9-7 9-9 13-18 2-8 2-9 2-42 0-29 0-35-1-41-1-4-3-11-4-15-2-11-5-17-10-24-10-14-33-24-57-23-18 0-33 5-44 16-13 12-15 20-15 53 1 25 2 28 9 41 6 12 7 17 7 28 0 10-1 12-8 14-3 1-6 3-7 4-2 2-8 8-13 14-12 13-14 15-23 23-4 3-8 8-10 11s-9 10-18 18c-22 19-28 27-33 42-4 14-6 25-7 50-1 13-2 31-3 39-1 10-1 20-1 29l1 13 5 16 6 16 1 14c0 13 1 15 3 18s17 11 23 13c1 0 13 1 26 1s26 1 28 1c3 0 6 0 8-1m628-2c14 0 30 0 34-1 5 0 39-1 75-1 46 0 68 0 75-1 6-1 22-1 55-1 40 1 48 1 56 2 9 2 12 2 23 1 16-1 20-3 23-12 1-5 1-30-1-37-3-12-4-24-5-50-1-34-2-50-5-68-1-8-3-22-4-30-3-25-9-54-13-66-4-14-14-28-24-38-6-6-10-9-22-15-14-7-22-11-37-17-17-6-35-19-37-27v-14c1-15 3-21 11-29 7-9 11-16 12-23 0-6 0-6-3-11l-3-4V95c0-22-1-23-3-31-3-8-4-10-9-15-10-11-26-19-44-22-6-1-8-1-16 1-12 3-19 5-28 11-10 7-13 9-17 17-3 6-4 10-7 32-3 12-5 22-6 25-3 4-2 18 0 29 2 8 2 12 2 31 0 21 0 21-2 26-5 10-20 20-44 31-33 15-41 20-55 32-10 10-19 22-26 38-8 15-9 20-29 104-8 33-9 46-3 70l2 12-2 12c-3 16-3 28 0 36 5 14 10 23 11 25 3 1 30 3 36 2 2 0 15 0 30-1z"/></svg>