<svg xmlns="http://www.w3.org/2000/svg" width="1344" height="566"><path d="M0 283V0h1344v566H0V283m870 276c6-2 8-6 10-23 2-25 1-61-4-82-3-16-9-25-33-43-12-10-18-14-39-28-20-12-29-22-43-47-3-6-7-14-10-18-2-4-4-9-4-10 0-2 2-7 10-20 16-27 33-67 35-84 1-4 2-14 4-21 4-20 6-32 6-45 0-30-6-55-18-73-5-8-20-24-31-32-4-3-11-7-15-9-7-3-7-3-24-4-12-1-19-1-24-3-9-2-27-3-40-1-23 5-54 30-67 55-7 15-10 26-12 56l-1 23-5 10-5 10v15c0 14 1 15 4 21 3 7 11 17 23 28l7 6 2 10c2 6 3 15 4 20 3 19-3 39-15 54-4 4-14 12-22 18-7 5-28 16-33 18-5 1-52 18-62 22-25 11-31 16-37 40-17 57-30 111-32 128 0 5 0 6 2 8 1 1 4 2 5 2h232c159 0 230 0 232-1z"/></svg>