<svg xmlns="http://www.w3.org/2000/svg" width="1344" height="566"><path d="M0 283V0h1344v566H0V283m746 276c39-1 68-2 70-2 5-2 10-8 13-19 3-9 4-15 7-34 0-8 3-20 5-28 3-12 4-14 5-14 2 0 3 1 5 7 7 18 9 22 13 30 10 17 19 26 38 36 4 2 10 6 12 7 6 5 12 6 33 7 16 1 19 1 25 0 4-1 11-2 15-2 7 0 7 1 10 4 1 2 3 4 4 5 2 0 10 1 20 2 15 1 18 1 30-1 7-1 16-2 19-3 5 0 7-1 9-3 3-3 5-10 3-16-2-8-16-26-24-30-5-3-13-11-15-14 0-2-2-8-4-15s-4-14-5-17c-5-8-15-15-35-26-12-7-25-16-35-25-3-3-10-9-15-12-8-5-20-17-32-32-13-15-13-16-13-24 0-9-3-21-7-28-3-6-7-17-10-25-1-3-4-9-6-14l-4-9-1-61c0-63 0-66-4-85-7-29-16-41-38-51s-41-13-63-11c-9 1-14 2-25 5-8 3-15 6-19 9-14 9-28 34-36 64-2 6-4 14-6 19-1 5-4 15-6 23-8 28-16 49-29 79-8 17-24 38-38 50-15 14-26 25-35 37-4 7-12 17-17 24-20 28-48 72-53 83s-12 36-17 59c-3 13-4 34-2 39 3 8 13 11 33 12 23 1 153 1 225 0z"/></svg>