<svg xmlns="http://www.w3.org/2000/svg" width="1344" height="566"><path d="M0 283V0h1344v566H0V283m982 277c2-3 3-10 3-26v-46c0-28 0-35 2-48 1-8 2-20 3-27 2-16 3-26 6-32 1-4 2-9 2-52 0-52-1-71-4-86-5-24-8-29-22-44-8-7-11-12-11-13 0-2 4-6 13-15 14-13 21-21 25-31 7-13 14-39 13-49-1-7-5-17-11-23-7-7-19-15-28-17-19-4-46 3-55 15-5 6-11 18-14 27-6 19-11 27-16 33-6 5-10 7-16 7s-13 2-24 7c-4 1-17 6-29 9-24 8-32 12-43 18-19 13-26 24-33 56-2 8-5 21-7 28l-9 36c-9 36-14 52-20 68-2 6-3 12-1 17 1 1 3 5 6 9s6 10 7 13c3 11 4 30 3 61-2 41-2 46 1 52 2 4 4 6 9 10 9 6 17 14 18 18 1 2 1 7 2 12 0 6 1 9 2 11l2 2h31c82-2 155-2 159-1 2 1 9 2 16 2 6 0 13 1 15 1s3-1 5-2z"/></svg>