<svg xmlns="http://www.w3.org/2000/svg" width="1344" height="566"><path d="M0 283V0h1344v566H0V283m500 277c4-4 3-17-2-32-1-2-2-5-2-6 0-3-6-26-10-36-2-6-5-13-6-16-4-7-16-19-22-23-2-2-7-4-9-6-7-5-19-13-23-14-4-3-7-6-8-10 0-3 0-4 4-9 3-3 7-9 10-16 7-15 14-21 28-28 18-9 18-9 17-33 0-12 0-20 1-26l1-8-5-11c-6-14-8-20-11-34-4-23-9-36-18-46-7-7-16-11-33-14-23-5-31-6-41-5-21 2-34 7-51 22-19 15-25 33-26 74-1 11-2 24-2 29-1 6-2 36-2 68l-2 56-2 8c-2 5-5 12-7 16-8 17-13 31-14 44 0 5-3 16-5 24-5 19-5 26-2 30l2 2 48 1h49s32 1 70 1c69 0 71 0 73-2m376-2c32-1 69-1 125 0 86 1 96 1 101-3 4-5 6-16 11-67 3-33 3-57-1-72-6-27-23-59-51-97-12-15-20-24-31-34-5-4-11-10-15-13-7-7-8-10-12-25-1-5-4-7-13-8-5 0-10-1-11-2-4-2-7-7-11-18-3-9-3-11-3-18 0-4 2-11 3-15 2-5 4-15 6-22s5-20 8-27c10-33 11-39 6-63-3-15-8-29-14-38-6-8-23-17-37-20-4 0-11-2-16-3-9-1-14-1-35 2-11 2-32 9-41 14-8 4-24 16-27 22-4 6-5 8-5 20 0 11 0 15-4 27-2 5-3 12-4 17-3 22-4 28-8 39-6 16-6 19-1 30 2 5 5 13 7 18 4 15 11 34 15 38 1 2 3 4 4 4 3 2 15 6 17 6 1 0 5 2 10 4 7 3 9 5 13 10 6 8 7 12 6 16-1 2-6 7-11 11-6 5-10 9-10 9s-4 5-9 11c-12 12-15 17-16 28-1 6-2 11-4 16-9 22-20 50-23 57-1 5-4 14-6 20-1 5-5 18-7 29-3 10-6 21-6 24-2 7-5 17-7 31-1 6-3 14-3 19-2 11-2 19-1 22 2 1 4 2 28 2h31c3 0 26 0 52-1z"/></svg>