<svg xmlns="http://www.w3.org/2000/svg" width="1344" height="566"><path d="M0 283V0h1344v566H0V283m657 277h229c52-1 98-1 107-2 9 0 18-1 21-1s5-1 7-2c2-3 2-4 2-13 0-6-1-12-1-15-3-14-6-32-7-43 0-8-1-19-2-26-1-9-1-16-1-24 1-14 1-15-8-24-5-5-6-6-13-8-11-3-27-10-46-19-14-7-16-9-21-14-11-12-16-27-18-53-2-31-4-63-5-91-1-33-2-47-5-65-4-24-7-36-14-52-15-34-38-53-84-71-18-7-37-7-82 3-18 3-39 12-47 18-3 3-6 10-8 18-2 6-9 17-16 27-7 9-19 31-23 41-2 6-4 12-4 16-2 12-5 27-8 33-1 4-6 11-10 17s-8 12-9 14c-3 6-4 14-1 26 1 7 2 17 3 30 1 27 3 47 4 51 1 8 10 16 21 20 3 1 7 2 8 3 2 2 5 2 10 2 9-1 10 0 7 6-2 4-5 6-8 6-2 0-10-1-19-2l-15-2-12 3c-11 3-13 3-27 3-16 1-17 1-22 3-2 2-7 5-10 7-7 6-17 13-23 16-4 2-4 2-7 1-4-2-6-2-8 0-1 0-5 3-9 5-9 4-30 16-37 21-2 2-9 8-14 13-12 12-18 15-37 17s-26 3-29 5-5 7-5 16c0 5-1 10-1 12-1 3-2 6-2 8s-2 8-5 14c-2 7-5 14-6 17-1 6-1 19 0 21s14 5 26 6c8 1 20 2 32 2 16 0 21 0 27 2 8 2 27 3 38 1 7-1 52 1 64 2 7 1 20 2 54 1h69z"/></svg>