<svg xmlns="http://www.w3.org/2000/svg" width="1344" height="566"><path d="M0 283V0h1344v566H0V283m305 276c7-1 13-1 14 0 1 0 69 1 159 1 56 0 72 0 77-1 6-1 9-1 20 0 9 1 33 1 85 2h73l3-3c2-2 2-3 2-10-2-24-6-44-13-66-5-15-7-20-16-39l-7-14v-9c0-8 0-8-3-11-4-4-14-8-41-18-30-10-51-19-53-23s-1-14 6-37c0-3 2-9 3-13 0-4 2-12 3-17 2-9 2-12 2-34 0-16 0-28-2-36-1-13-2-19-4-40-3-27-8-58-11-71-6-27-18-48-38-64-14-13-29-21-48-27-9-3-10-3-26-3-11 0-18 0-23 1-4 1-12 3-19 4-13 1-24 4-30 8-17 8-35 26-43 44-4 8-14 35-17 49-8 28-17 79-19 106-1 4-2 13-3 20-5 35-6 43-7 55-1 8-1 20-1 31 1 20 1 23-5 27-4 4-16 9-26 12-14 4-20 7-43 22-12 8-26 16-31 19-11 6-21 13-24 16 0 2-2 6-2 9-1 5-3 10-9 23-8 16-10 20-13 34-6 27-7 49-1 53 3 2 106 2 131 0z"/></svg>