<svg xmlns="http://www.w3.org/2000/svg" width="1344" height="566"><path d="M0 283V0h1344v566H0V283m691 276c74-1 238-1 357 1 108 1 132 1 136-2 2-2 1-10-3-20-5-11-7-14-19-27-5-6-13-15-17-20-9-11-19-20-39-36-7-6-20-16-27-22-22-19-35-29-45-35-5-3-25-18-29-21-2-2-6-4-9-6-6-3-8-3-20-4-13-1-15-1-21-4-4-2-9-5-11-7-3-4-3-4-3-11 0-10 2-35 3-41 2-10 7-19 15-27 9-8 11-12 16-21 9-16 18-48 17-58-1-2-2-7-4-10l-3-6v-30c-1-26-1-31-3-39-5-25-19-43-48-60-12-8-19-11-29-14-12-4-22-5-43-5-23-1-27 0-46 9-20 11-33 21-45 39-10 15-15 36-19 73-1 17-1 22 0 32 0 7 1 16 1 21s0 13 1 20c2 21 13 70 19 83 5 14 7 22 7 31-1 16-1 16-24 27-11 6-26 13-34 17-28 12-55 29-84 52-14 12-19 17-35 36-19 24-26 35-30 52-2 6-4 13-5 16-4 11-2 16 6 18 2 0 4 0 4 1 1 0 15 0 32-1 18 0 54 0 81-1m-593 0h150c4 0 11 0 17-1 20-2 142-3 175-1 9 0 20 1 26 0 7 0 16 0 22 1 14 2 23 0 27-4 4-5 4-8-4-76-1-5-2-14-3-21-2-18-4-29-8-43-4-12-18-41-26-52-7-11-20-22-41-35-7-5-37-20-44-23-8-4-44-21-63-31-21-10-33-18-42-28-8-8-9-11-7-23 3-13 9-32 13-44 4-10 8-14 17-19 14-7 24-18 32-34 6-13 6-28 1-40-2-5-2-8-1-16 3-16 6-38 7-46 1-14-1-17-11-19H213C119 4 96 4 93 5c-5 3-7 7-10 24-4 23-7 54-7 68 1 12 7 55 9 66 5 21 6 25 7 27 0 1 1 5 2 10l2 8-2 3c-3 3-7 4-18 4-5 1-10 2-12 3-5 3-18 14-36 31-8 8-16 16-17 16-2 1-5 5-6 8l-4 5v135c0 118 0 135 2 140 0 3 2 5 3 6s7 1 18 0h74z"/></svg>