<svg xmlns="http://www.w3.org/2000/svg" width="1344" height="566"><path d="M0 283V0h1344v566H0V283m825 278c32-2 81-2 93 0 7 1 13 1 19 0 5 0 20-1 32 0 76 0 114 0 118-1 5-1 9-4 9-7 0-2-3-7-8-13-6-7-7-9-12-24-3-7-8-20-12-28-4-9-7-19-8-21-2-7-12-31-17-43-3-6-6-14-7-18-12-35-27-64-36-71-2-2-13-8-24-13-53-27-54-28-58-35-2-4-2-6-1-39 0-47-1-55-14-78-11-21-18-27-50-47-5-3-21-11-25-12-10-3-44-7-53-5-8 0-25 6-33 10-11 5-23 14-29 20-7 8-18 22-20 27-2 3-6 18-8 27-3 13-4 19-8 27-12 26-11 25-12 45-1 19-1 22-7 26-4 4-9 6-22 11-39 14-56 22-71 36-8 7-11 12-17 36-6 18-12 35-21 53-16 33-25 52-31 62-9 16-13 27-16 42 0 4-2 10-2 14-3 10-3 12 1 15 2 2 4 3 12 4 12 1 118 1 172-1 44 0 68 0 77 2 6 1 62 0 89-1z"/></svg>