<svg xmlns="http://www.w3.org/2000/svg" width="1344" height="566"><path d="M0 283V0h1344v566H0V283m80 277c13-1 31-1 42-1 22 1 58-1 62-3 5-2 5-5 2-29-2-11-4-25-5-31-1-7-2-17-3-24-2-12-4-25-8-52-7-44-21-78-44-101-13-14-30-25-55-37-23-10-26-13-25-25 1-7 4-17 8-24 3-6 3-10 2-16-3-9-2-11 3-19 2-3 5-9 6-13s4-8 5-11c8-10 9-16 2-38-11-32-10-31-10-50s-1-25-6-35C51 39 35 10 32 7c-1-1-3-3-6-3C21 3 7 3 4 4L1 5v553l3 2c2 2 3 2 28 2 15-1 36-1 48-2m1010 0c11 0 12-1 10-9-1-7-7-22-11-27-2-2-7-9-13-15-5-6-12-14-16-18-8-10-14-16-32-31-9-6-20-16-26-21-18-17-34-31-50-43-4-2-12-8-17-12-16-13-25-16-42-16-9 0-19-2-25-5s-16-14-18-20c-7-13-7-33-3-53 3-12 5-16 14-28 4-5 9-12 11-14 5-7 12-22 14-29 2-8 2-21 0-29-3-8-2-17 0-31 2-13 3-31 1-42-3-20-14-39-27-51-14-12-33-22-51-28-15-5-26-6-50-6-29 1-41 4-57 14-34 21-48 43-49 79-1 7-2 16-2 20-1 4-2 18-3 31-2 13-4 30-5 38-3 20-2 29 3 52 3 9 6 20 6 22 1 2 4 11 7 20 13 34 14 35 25 48 8 9 8 12 4 15-3 3-36 21-43 24-18 8-64 43-87 65-7 8-15 17-18 21-2 4-8 11-12 16-8 12-13 20-17 34-6 17-7 21-5 24 3 5 5 5 67 4 95-2 234-2 263-1 5 1 53 1 107 2 53 0 98 1 98 2 1 0 32-1 49-2z"/></svg>