<svg xmlns="http://www.w3.org/2000/svg" width="1344" height="566"><path d="M0 283V0h1344v566H0V283m252 277c43 0 48 0 52-4 5-4 12-21 18-44 3-12 6-22 6-23 3-3 6-3 24-3 33 0 56-2 88-9 11-3 31-9 38-11 3-1 5-2 6-2 2 0 7-2 12-4 6-2 11-3 12-4 2 0 6-2 11-4s12-5 17-7c6-2 8-4 10-6 2-6 1-12-4-15-2-1-4-3-5-5s-3-3-4-4c-2 0-8 1-23 6s-19 6-23 3c-4-1-5-3-7-12-1-5-2-6-3-6-3 0-9 8-12 16-3 10-4 12-10 14-4 2-7 3-26 3-21 0-34-1-52-3-13-2-17-6-25-22-3-6-4-9-5-19-1-6-3-15-5-19-4-11-3-15 2-26 7-13 8-14 20-14 8 0 12 0 14-1 3-2 23-19 28-25 1-1 3-5 4-10 1-7 6-19 13-34 4-8 4-13 1-23-3-9-6-14-15-24-10-10-21-18-27-18-3-1-9 0-15 0-20 3-32 12-46 36-2 2-3 3-8 3-4 1-7 2-12 5-9 5-11 6-18 6s-24 4-35 7c-19 7-55 26-66 36-7 6-29 30-34 38-2 3-6 9-9 13-5 7-12 18-24 41-9 16-21 40-26 54l-3 8 2 2c2 2 4 2 9 2 8-1 12-3 14-9 3-11 9-23 10-24 2-1 6-1 10-1 6 0 7 0 10 2 2 3 4 8 4 15 0 5-1 8-5 14-2 2-3 7-4 10-1 8-3 10-9 10-2 0-4 1-5 2s-1 2 2 4c2 2 5 4 7 6 5 2 5 2 2 11 0 3-1 7-1 10 0 4-1 7-2 11-2 2-3 6-3 8-2 6-4 9-9 11-2 1-4 3-5 3-1 2 1 6 6 11 7 8 8 8 23 9 10 0 15 0 22 3 6 1 12 3 14 3 2 1 11 1 20 0 10 0 34 0 54-1z"/></svg>