<svg xmlns="http://www.w3.org/2000/svg" width="1344" height="566"><path d="M0 283V0h1344v566H0V283m710 279h53c35 0 39 0 41-1 4-3 4-6 2-17-6-29-7-33-8-58-1-18-3-35-6-52 0-4-2-11-2-15-3-17-7-32-12-38-10-13-16-18-30-28-2-2-7-6-12-9-5-4-12-9-17-12-5-4-12-9-16-11-8-7-30-28-33-34-9-14-11-20-12-23 0-3 4-16 12-33 1-2 2-7 2-10 2-11 5-26 9-37l4-12-2-5c-2-6-2-9-2-31v-24l-3-12c-2-7-4-15-6-18-8-16-32-34-51-39-6-2-23-3-29-1-3 0-9 2-15 2-12 2-17 4-31 13-12 8-12 9-19 21-13 23-14 26-15 55 0 22 0 23-6 29-5 6-5 9-3 24 2 19 5 25 18 35 7 5 12 19 11 33-1 4-2 9-3 11-1 3-1 5 0 8 2 7 1 14-2 16-2 1-12 4-24 8-14 3-20 6-31 11-13 7-21 12-31 21-7 8-8 10-16 25-4 9-9 19-10 23-4 9-10 29-13 39-2 5-4 11-4 13-1 2-3 6-4 9s-3 10-5 16c-1 5-4 14-6 20-1 6-4 14-5 18 0 4-2 9-2 12-1 2-1 13-1 25-1 25 0 27 5 31 2 1 7 2 77 2 41 0 75 0 76 1 0 0 37 0 81-1h96z"/></svg>