<svg xmlns="http://www.w3.org/2000/svg" width="1344" height="566"><path d="M0 283V0h1344v566H0V283m818 277c10-1 58-1 106-1 118 0 117 0 121-2 3-2 5-6 7-18 0-6 2-16 3-21 0-6 2-15 2-20 1-4 3-16 4-25 5-29 6-46 6-67v-20l-3-12c-6-20-21-50-35-70-3-4-6-10-9-13-2-4-8-10-13-15-30-30-30-30-34-43-2-9-4-10-11-12-7-1-12-4-16-10-7-11-9-26-5-42 5-19 10-39 12-47 5-14 6-20 7-31 0-14-1-22-8-36-8-18-11-21-26-29-11-5-15-6-24-8-17-3-24-3-46 4-29 8-33 10-44 21-10 11-13 16-12 25 1 5 0 8-3 21-2 10-4 20-5 28-1 10-2 15-6 27-3 8-5 16-5 18s1 6 3 9c2 4 5 11 7 17 4 12 11 29 14 33s10 8 19 10c4 1 8 3 10 3 5 2 12 11 13 16 1 4 1 4-2 9-2 3-5 8-7 10-23 25-26 31-28 47-1 10-1 11-8 26-8 19-16 39-18 47-1 4-3 10-5 15-3 12-10 43-13 63-2 10-4 21-5 25-2 9-3 41-2 49s4 12 11 16c5 3 7 4 14 4 5 0 10 1 12 0 3 0 13 0 22-1m-309-3c8-8 14-25 14-38 0-8-4-30-6-34 0-1-1-4-1-6-1-2-2-5-2-6-1-1-2-6-2-10-2-15-12-38-20-47-4-5-20-17-29-22-4-2-9-6-11-8s-3-3-3-7c0-7 2-12 8-24 7-15 10-18 24-24 6-3 13-7 15-8 4-4 4-6 1-18-1-5-1-12-1-25v-18l-4-7c-7-11-8-14-13-28-4-14-11-29-15-35-8-12-20-16-48-19-21-2-38 2-57 15-14 9-24 22-28 36-3 12-5 58-4 142 0 46 0 45-6 59-5 11-12 31-13 39 0 5-5 23-9 39-2 4-3 13-4 19 0 6-1 13-2 15-1 4-1 13 1 17 1 2 3 4 4 5 3 1 7 2 105 2h102l4-4z"/></svg>