<svg xmlns="http://www.w3.org/2000/svg" width="1344" height="566"><path d="M0 283V0h1344v566H0V283m883 275c3 0 6-1 7-2s2-5 4-9c2-7 2-10 3-27 0-10 1-23 1-28 1-8 1-12 0-23-3-17-6-30-8-37-1-2-2-7-2-10-1-8-4-19-6-26-4-15-6-20-6-23-1-2-2-7-4-12s-4-12-4-16c-1-3-4-13-7-21-3-9-7-19-8-24-5-13-15-34-22-42-9-13-21-24-33-30-11-6-14-8-18-16-2-5-2-7-2-15 0-6 0-13 2-17 3-17 2-40-4-51-9-17-22-29-38-33-14-4-21-3-47 6-11 4-12 5-19 10-23 20-33 37-32 57 0 11 2 17 6 23 5 5 6 8 7 21v9l-3 6c-6 9-10 18-12 28-3 10-9 24-14 32-1 3-4 9-6 13-4 10-6 13-13 23-3 4-9 12-12 17-6 8-11 13-24 25-9 9-21 20-27 25-5 5-11 11-13 11-5 3-20 5-28 5-5-1-7-1-10 1-4 3-5 3-14-2-8-3-8-3-15-3-9 1-11 2-12 7-1 6-2 9-4 10-1 1-8 3-15 5-15 6-15 5-17 9s-1 9 3 17c4 9 9 14 15 17 6 2 24 7 28 7 2 0 32-7 42-9 7-3 25-6 27-5h4c2 1 5 3 8 7 10 12 19 19 33 26 13 5 13 5 22 3 4-1 13 0 22 3 3 1 7 2 8 2 4 1 16 11 17 14 2 2 2 4 1 8v6l9 10c14 15 15 15 39 16 42 2 184 4 191 2z"/></svg>