<svg xmlns="http://www.w3.org/2000/svg" width="1344" height="566"><path d="M0 283V0h1344v566H0V283m638 271c1-1 3-5 4-9 2-6 2-8 1-15-1-5-1-11 0-14 0-3 0-9 1-14v-10s2-3 3-5c4-4 6-8 6-11 0-2 3-8 6-15 7-15 11-32 14-55 2-18 2-18 11-34 2-5 3-9 4-16 1-12 1-31-2-47-1-10-1-17-1-45 0-20 0-35-1-40-2-9-5-14-11-18-2-1-5-4-7-5-2-3-2-4-2-13 3-36 3-37-6-42-12-6-29-7-42-2-7 3-15 10-17 15-1 4 2 17 5 26 2 4 4 9 4 11 1 4 1 4-4 9-6 7-14 18-18 27-5 9-12 15-19 15-4 0-5 2-5 8 1 5 1 6-2 11-2 3-4 7-4 9 0 7 12 22 24 29 9 5 11 9 11 16-1 2-1 11-2 19 0 16 1 25 7 47 8 27 8 30 9 62 1 30 3 50 6 69 1 6 2 16 2 22 0 10 0 11 3 13 4 4 18 5 22 2z"/></svg>