<svg xmlns="http://www.w3.org/2000/svg" width="1344" height="566"><path d="M0 283V0h1344v566H0V283m876 173c15-7 20-8 34-5 5 0 14-2 16-4 1 0 2-3 2-4 0-2 1-6 2-9 3-7 5-7 9 0 3 7 12 15 16 16 2 0 8-2 39-15 12-5 27-13 31-17 3-4 5-7 11-17 2-4 3-9 7-29 1-8 1-12 0-26-1-10-2-22-3-28-1-11-1-11 1-17 3-10 3-13 2-32-2-21-2-26-1-37 2-10-1-21-7-31-5-8-7-10-15-11-22-3-33-5-36-6-1 0-6-1-10-2s-9-2-11-3c-24-10-30-16-44-45-4-7-8-15-9-18-5-12-10-23-15-29-3-3-5-6-5-7v-6c0-4-1-5-3-5s-13 10-18 17c-6 8-8 19-7 29s3 13 10 24c4 5 7 10 8 12 1 5-5 8-17 8-4 0-8-1-10-1-1-1-6-6-10-12-5-6-8-10-11-11-6-2-16-1-21 4-4 3-4 5-1 12 2 4 4 5 7 7 5 3 8 6 13 15 2 5 5 10 7 12 5 5 10 6 39 13 9 2 19 5 22 6 7 2 12 10 15 25 2 9 1 12-10 35-16 33-19 39-22 52-2 10-3 32-1 49 1 5 1 15 2 22 0 15 0 16-9 28-6 8-13 13-28 21-7 4-14 8-15 9-3 3-3 7 0 8 5 3 20 6 29 6s10 0 17-3z"/></svg>