<svg xmlns="http://www.w3.org/2000/svg" width="1344" height="566"><path d="M0 283V0h1344v566H0V283m496 279c10-1 26-2 36-2 27-2 81-2 110-1 45 2 282 1 314-1 16-1 19-2 23-7 2-3 4-6 5-17 3-15 6-27 8-31 5-10 20-11 33-2 7 5 14 9 19 9 5 2 10-1 18-7 19-16 24-20 53-37 5-4 14-8 20-10 16-6 27-11 31-15 10-12 12-44 5-69-4-12-13-25-29-38-29-26-44-36-67-42-13-4-24-10-39-22-19-14-22-20-20-31 1-3 2-9 3-12s3-10 5-16c5-20 4-37-6-55-5-10-9-16-22-30-5-5-10-12-13-16-15-22-48-58-66-71-9-7-26-17-35-21-14-6-15-6-32-6h-16l-10 4c-4 2-11 5-14 5-16 5-20 6-27 10-9 4-16 10-25 19-10 10-20 26-29 46-13 28-19 42-22 48s-5 9-20 26c-10 11-13 16-13 22 0 8 8 12 31 14 19 2 21 3 24 10 6 10 6 14 5 42v26l-5 4c-3 3-6 4-10 6-13 3-20 5-28 8-5 2-12 4-17 6-11 3-20 6-28 10-5 2-11 3-17 4-13 1-15 2-19 10-5 8-14 19-24 30-8 9-10 13-15 26-6 16-26 55-35 67-1 3-6 7-10 10-9 7-19 17-27 28-12 16-17 22-27 31s-16 12-25 14c-5 1-6 2-12 8-12 12-10 14 17 16 7 1 26 1 44 0z"/></svg>