<svg xmlns="http://www.w3.org/2000/svg" width="1344" height="566"><path d="M0 283V0h1344v566H0V283m907 278c17-1 95-2 123-2 6 0 14 0 18 1 7 2 45 1 50 0 6-2 6-4 0-17-3-6-7-18-10-25-6-18-11-28-18-38-7-9-10-15-10-20s-4-9-11-13c-11-5-35-15-52-21-14-4-39-16-43-19-6-6-5-14 3-33 3-6 5-12 6-14 1-3 3-9 5-14 7-17 8-34 7-88-1-45-3-70-9-106-9-59-27-95-62-122-19-15-30-21-47-23-13-2-70-2-77 0-13 2-33 13-47 25-8 7-22 22-27 31-11 17-20 39-26 65-2 7-5 18-6 24-2 7-4 16-4 22-1 7-4 22-5 34-5 29-7 51-10 84-1 13-2 25-2 26-1 1-2 8-2 17-2 18-4 29-8 36-3 8-10 12-29 19-9 4-45 23-64 33-13 8-29 15-40 19-17 6-20 7-22 13-4 6-4 11 0 22l3 9-2 7c-1 4-3 12-6 18-6 17-9 27-10 36 0 7 0 8 2 10 4 4 10 4 73 3h63c4 0 32 0 63 1 72 1 209 1 233 0z"/></svg>