<svg xmlns="http://www.w3.org/2000/svg" width="1344" height="566"><path d="M0 283V0h1344v566H0V283m600 277c33-2 31-2 67 0 39 2 201 1 239-1 28-2 65-2 127 0 34 0 36 0 38-5 1-6-12-22-27-33-25-19-31-23-39-28-5-2-11-6-13-8-3-1-14-7-24-12-18-9-19-10-28-19s-13-15-13-20c0-2 2-8 3-13 2-5 6-15 8-23 3-7 10-22 15-32 5-12 13-28 18-37 4-9 10-20 13-23 4-7 5-8 12-11 15-8 24-18 36-38 7-11 11-22 12-33s0-14-6-19c-10-7-9-7-9-12 1-3 2-10 4-15 8-30 15-76 15-98 0-21-11-60-19-69-3-2-9-4-20-6-9-1-140-2-193-1-40 1-48 2-54 6-4 2-11 18-17 34-5 16-10 42-13 68-2 15-4 26-5 29-1 1-4 2-6 3s-6 1-8 2-6 3-8 5c-10 9-11 38-3 64 5 12 9 19 18 29 9 11 10 12 8 34-1 23-4 41-8 54-4 12-13 31-18 36-6 7-6 7-36 7-19 0-27 0-29 1s-12 14-20 25c-13 20-25 34-33 38-7 4-26 16-38 23-15 10-25 16-46 27-26 14-54 37-70 57-5 7-6 8-3 11 1 1 4 2 12 3 29 2 108 2 161 0z"/></svg>