<svg xmlns="http://www.w3.org/2000/svg" width="1344" height="566"><path d="M0 283V0h1344v566H0V283m746 276c40-1 71-2 73-2 6-2 12-12 16-27 0-3 2-15 3-27 1-11 3-23 3-25 1-3 2-8 3-12 2-10 4-11 7-1 0 3 1 7 2 9s2 6 3 9 4 10 7 16c8 16 18 25 37 35 4 2 8 5 9 5 8 7 14 8 43 10 12 0 16 0 21-1 3-1 8-2 11-2 5 0 8 2 12 8 2 2 3 3 12 4h22c15 0 41-3 44-4 6-5 7-15 1-25-5-8-14-18-20-22-14-9-15-12-19-28-2-14-4-18-11-25-7-6-11-9-28-19-12-6-16-9-29-21-8-7-16-14-17-15-9-5-16-13-29-29-17-21-18-22-18-33 0-10-1-15-10-36-8-18-10-23-15-32l-3-5v-42c0-67-2-96-8-117-8-24-21-36-50-45-14-5-24-6-42-6-12 1-16 1-25 4-25 7-36 17-48 40-6 13-9 20-16 46-2 5-4 11-5 14-2 6-5 17-6 22-4 21-23 66-37 90-7 12-20 28-32 37-16 13-23 21-41 48-49 75-56 86-63 106-10 33-17 71-14 82 1 5 6 9 14 12 5 2 9 2 33 3 41 2 132 2 210 1z"/></svg>