<svg xmlns="http://www.w3.org/2000/svg" width="1344" height="566"><path d="M0 283V0h1344v566H0V283m717 275c7-1 13-1 13 0 1 0 19 0 40-1 30-1 50-1 82 0 64 2 112 3 142 3 26 0 27-1 30-3 2-2 3-2 3-9 0-5 0-11-1-15 0-3-2-17-3-30-2-13-4-29-5-35-3-15-3-24-2-31 1-5 1-6-1-11-1-5-3-6-9-12-15-12-35-25-51-32-25-10-29-13-33-20-2-5-3-13-3-64-1-47-1-54-6-78-1-5-3-15-4-21-5-28-14-56-26-84-8-21-14-31-25-45-13-17-19-23-34-30-22-11-34-16-58-21-24-4-35-2-56 8-14 7-43 24-50 30-5 4-12 13-17 21-3 6-9 22-11 34-3 13-4 53-2 76 1 9 1 24 2 32 0 19-1 23-6 26-5 1-17 1-26-1-8-2-15-1-39 3-11 1-22 2-29 2h-12l-20-7c-12-4-27-10-34-13-19-8-25-8-48-1-19 6-38 11-44 13-12 2-13 3-36 18s-34 28-41 46c-4 13-3 22 5 42 1 3 3 8 4 12 16 42 17 45 27 64s15 27 24 36c6 6 7 7 15 10 4 1 11 3 14 3 3 1 8 2 11 3 7 3 36 13 51 18 31 10 74 27 84 33 5 4 8 9 8 17 2 9 3 11 16 12 5 0 16 0 24-1 19-1 23-1 48 0 12 1 24 1 27 2 5 1 9 1 27 1 2 0 6 0 8 1 4 1 6 1 27-1z"/></svg>