<svg xmlns="http://www.w3.org/2000/svg" width="1344" height="566"><path d="M0 283V0h1344v566H0V283m832 278c33 0 76-1 94-1 60 1 152 0 171-1 24-1 27-2 27-10 0-6-15-48-23-63-1-4-4-11-6-16-6-16-10-24-18-32-13-15-16-19-25-32-4-7-11-17-15-23s-9-14-11-17c-3-7-6-19-6-24 0-3 4-7 6-7s7-2 29-11c5-2 10-3 13-3 6 0 8-2 12-9 3-5 5-25 4-29-1-3-9-24-10-26-1 0-2-5-2-11-3-15-5-25-8-31-3-7-12-16-24-23-4-4-11-8-14-10-3-1-12-6-21-10-20-9-27-13-30-17-4-6-9-15-11-24-3-14-9-28-17-43-13-28-20-39-32-52-13-13-24-21-35-26-12-4-22-5-73-6-60 0-70 0-86 6-13 5-15 6-19 11l-7 7c-3 2-11 10-17 17-12 13-20 25-27 41-4 10-12 24-23 38-3 4-6 9-7 11-1 5-1 24 1 32 0 3 4 11 7 18 3 6 7 15 8 19 6 17 10 22 17 23 2 1 4 2 5 4 2 2 7 9 12 16 13 18 17 26 19 46s3 25 5 31c3 5 8 10 17 15 3 2 7 5 10 9 3 3 10 10 15 14 10 9 13 12 17 19s3 11-8 36c-10 21-11 22-18 31-4 4-9 11-11 14-4 8-12 33-15 47-2 6-4 16-6 23-6 21-6 26-1 29 2 1 36 2 58 1 10 0 45 0 79-1z"/></svg>