<svg xmlns="http://www.w3.org/2000/svg" width="1344" height="566"><path d="M0 283V0h1344v566H0V283m891 277c4-3 3-8-1-17-10-20-21-27-62-38-23-7-33-10-45-12-17-3-19-5-35-25-7-10-10-16-11-22 0-4 0-5 5-14 4-7 9-18 28-54 12-24 15-33 19-54 2-14 1-92-1-112-6-40-23-78-49-105-6-7-10-10-21-17-32-19-45-22-85-25-10-1-22-1-27-1-11 1-32 5-41 8-20 7-44 24-57 39-18 23-25 43-30 80-2 17-3 23-7 40-3 13-5 35-5 48 1 7 2 12 5 21l3 10-1 13v24c0 12 1 14 7 27s9 21 11 28c2 4 4 9 4 12 2 5 2 12 0 17-1 2-6 8-12 14-11 11-13 13-29 15-6 1-19 4-28 6-10 2-25 5-34 7-22 5-63 18-76 25-7 4-9 5-12 10-1 3-5 9-8 14-8 11-9 16-9 24-1 8 2 10 12 13 7 1 22 1 128 2h215c28 0 77 0 108 1 32 0 76 1 98 0 37 0 41 0 43-2z"/></svg>