<svg xmlns="http://www.w3.org/2000/svg" width="1344" height="566"><path d="M0 283V0h1344v566H0V283m732 278c94 0 133 0 138-1 14-2 17-7 18-26 1-22-3-52-8-63s-20-25-42-41c-11-7-21-13-41-26-20-14-22-16-34-38-9-18-9-19-9-26 0-11 6-25 25-54 12-19 18-32 20-39 1-2 2-10 4-17 6-25 7-29 9-46 2-22 1-47-1-56-8-27-21-48-40-65-16-14-30-22-47-24-4-1-14-2-23-4-13-2-18-2-29-2-23 1-37 5-52 16-10 6-29 25-35 33-9 15-15 31-18 54-3 32-5 37-10 48l-5 10v38l5 12c6 10 7 12 14 19 8 7 8 8 10 15 0 4 1 12 2 18v12l-4 6c-4 6-25 27-34 33-10 7-26 14-49 20-4 2-12 4-16 5-5 2-14 5-22 7-25 7-40 12-48 18-10 7-23 34-51 106-4 10-9 23-12 30-4 7-7 15-7 18-1 4-1 4 1 6l2 3h80c43 0 79 1 80 1 0 1 23 1 49 1 27-1 108-1 180-1z"/></svg>