<svg xmlns="http://www.w3.org/2000/svg" width="1344" height="566"><path d="M0 283V0h1344v566H0V283m679 279c19-1 23-2 28-10 2-2 4-6 4-8 1-3 2-7 4-11 3-10 5-20 5-25-1-3-1-5 2-9 3-7 4-13 1-28-3-14-5-19-10-30-4-7-4-8-4-17 0-13 0-13-24-23-7-3-19-8-27-11s-22-9-30-12c-19-6-41-15-46-19-2-1-5-3-6-5-3-7 0-23 10-51 11-30 13-47 9-75-1-9-3-24-5-34-2-20-11-54-17-75-10-28-28-54-49-70-13-10-33-19-53-25-10-3-11-3-29-3l-18-1-23 13c-26 13-31 16-39 23-7 8-11 13-17 25-8 20-14 41-19 69-4 23-5 32-13 108-2 25-2 81 0 95 1 5 2 13 3 16l1 7-3 3c-2 2-7 4-18 8-18 6-24 9-36 18-26 17-34 22-45 28-13 7-14 9-16 25-1 5-2 13-4 18-4 13-8 26-9 32-1 4-2 7-2 8-1 3-4 22-4 30 0 9 0 12 3 13 4 2 59 2 92 1 16-1 31-1 33-1 48 1 175 3 248 3h75c0 1 7 1 16 0h32z"/></svg>