<svg xmlns="http://www.w3.org/2000/svg" width="1344" height="566"><path d="M0 283V0h1344v566H0V283m608 277h101c105-1 97 0 99-8 2-7 1-29-3-45-4-24-17-68-23-79-4-7-5-11-3-20 1-3 1-7 1-8-1-4-9-9-34-19-4-1-12-5-16-7-5-2-13-6-18-8-5-3-15-7-22-10-15-7-20-10-21-16 0-2 1-10 2-19 1-8 3-22 3-31 1-10 3-24 4-32 4-37-6-126-17-157-4-12-14-31-22-42-10-16-23-27-48-40-27-14-40-15-66-5-6 2-11 3-19 4-9 1-11 1-18 5-9 4-17 10-25 20-23 25-34 59-47 136-9 58-10 70-10 96 0 20 1 32 4 43 2 12 1 19-4 24-4 3-7 4-18 5-18 2-38 10-67 26-7 4-16 9-21 11-13 7-15 10-17 27-1 12-5 25-10 39-9 21-23 80-23 94 0 7 2 10 8 13 7 3 68 4 106 1 15 0 138 2 139 4 0 0 95-1 105-2z"/></svg>