<svg xmlns="http://www.w3.org/2000/svg" width="1344" height="566"><path d="M0 283V0h1344v566H0V283m820 277c20-1 83-2 170-1 53 0 66 0 71-3 5-2 7-8 8-22 1-6 3-23 4-38 7-46 8-82 5-99-3-21-22-59-45-92-7-12-11-16-29-33-19-18-20-19-22-25-1-4-2-9-3-11 0-6-3-8-11-10-4 0-9-2-10-3-6-4-14-23-14-32 0-6 3-19 5-26 1-2 3-12 6-23s6-22 6-25c2-6 5-23 5-29 0-11-5-26-14-45-6-12-25-22-46-26-17-2-24-1-44 5-31 8-38 12-47 21-10 10-12 15-13 31-1 10-2 15-4 23-2 7-3 14-4 23-1 10-2 14-6 27-3 8-5 17-5 19 0 3 1 7 4 13 3 5 6 12 7 17s5 14 8 20c8 16 10 18 32 23 5 1 10 6 13 11 1 3 3 6 4 7s2 3 2 4c0 2-9 14-20 25-15 17-18 23-19 38-1 10-1 11-11 33-9 21-17 41-18 47-1 2-2 9-4 14-2 6-3 13-4 16 0 3-2 11-4 18-1 8-4 19-4 26-1 6-3 15-4 18 0 4-1 15-1 23-1 14 0 17 1 22 4 11 9 19 15 20 4 1 16 1 40-1m-307-1c5-5 7-10 8-19 0-10-2-30-4-35-1-3-3-13-6-32-1-10-7-27-11-36-6-12-17-21-42-36-4-3-9-6-10-8-5-5-4-8 8-36 3-7 11-12 25-18 7-3 11-6 12-7 4-5 6-36 3-55-1-8-1-10-6-17-7-12-10-18-14-30-6-22-16-39-27-45-6-4-30-9-44-9-35 0-67 19-79 48l-3 8-2 52c0 30-1 63 0 76 1 50 0 59-6 68-7 13-10 19-12 25-1 4-2 8-3 9 0 1-1 5-2 9 0 4-1 10-2 13-1 4-4 14-6 22-3 15-4 18-4 34-1 9-1 17 0 18 0 1 2 1 4 2h112c107 0 109 0 111-1z"/></svg>