<svg xmlns="http://www.w3.org/2000/svg" width="1344" height="566"><path d="M0 283V0h1344v566H0V283m219 53c2 0 5-1 8-1s5-1 6-1c1-2 1-17 0-23-2-5 0-7 9-7 9-1 15-4 18-8 4-6 5-26 4-50-1-14-1-17 8-28 7-9 10-15 11-21 1-7 0-12-4-15-2-2-3-2-10-2-4 1-10 1-12 2-4 1-6 1-11 0-8-3-16-2-25 2-8 5-9 6-8 18 0 10 0 14-3 15-2 1-21-2-30-6-6-2-10-5-13-8-7-7-7-8 4-17 4-3 6-6 8-10 2-5 2-6 1-18 0-11-1-13-3-17-4-7-8-16-8-19 0-1-1-4-1-5-1-1-2-4-2-7 0-11-8-17-26-23-11-3-28-3-34 0-2 1-5 2-5 2-3 0-10 4-14 7-2 2-5 5-7 9-3 5-3 6-3 15 0 10 1 13 4 15 1 1 7 1 14 2 15 1 26 4 30 8 1 2 4 6 6 8 1 3 4 7 6 9 3 5 11 24 13 33 4 15 4 16-2 28-5 13-7 17-7 22-1 4-1 5 2 9 2 3 9 11 16 17 7 7 13 13 14 16 1 2 2 8 2 17 0 7 1 15 2 16 1 2 18 11 21 11 1 0 4 2 6 3 6 4 9 5 15 2z"/></svg>