<svg xmlns="http://www.w3.org/2000/svg" width="1344" height="566"><path d="M0 283V0h1344v566H0V283m508 275c4-3 9-16 11-33 1-5 2-10 3-13 2-10 0-32-5-44-1-3-4-12-7-19s-8-20-12-27l-8-13-16-17c-10-9-19-18-20-20-3-6-3-9 3-22l9-18c5-10 13-19 22-22 15-6 17-9 14-30-1-6-2-15-3-20 0-11-1-14-7-22-5-7-9-14-15-29-8-22-18-34-33-40l-8-3h-20c-17 0-22 0-28 2-18 5-40 21-47 35-6 11-7 15-8 42-1 13-2 28-2 33-1 6-2 13-1 22 0 7 0 31-1 52-1 36-1 39 0 41s3 3 5 4c4 0 7 2 8 5 0 1-2 10-9 27-2 5-5 19-8 37-3 15-6 34-8 41l-3 14 1 11c1 6 2 13 3 17 0 5 1 7 3 9l3 3h91c88-1 90-1 93-3m381 0c24 0 64 1 89 1 57 1 58 1 60-16 1-4 3-19 5-33 1-13 3-35 5-48 4-34 5-52 5-76l1-20-5-12c-7-20-17-40-36-67-9-13-13-18-29-35-20-20-22-23-24-34 0-6-2-9-7-10-7-1-14-4-16-6-3-2-10-15-11-21-1-8 0-19 7-43 10-36 11-39 12-49 1-8 1-10-1-20s-3-13-7-21c-8-14-13-20-24-26-7-3-12-5-18-6-5-1-11-2-14-3-10-2-22 0-47 9-19 6-24 9-33 19-8 10-9 12-10 25-1 7-2 15-3 21-2 6-4 16-4 22-2 15-3 19-8 33-2 7-4 13-4 15 0 1 4 12 10 23 5 11 11 22 12 25 4 8 8 11 22 15 7 3 13 6 16 7 3 4 8 12 7 14-1 3-11 15-16 21-6 6-16 21-18 26 0 2-1 8-2 14-1 9-1 10-9 26-8 18-14 35-17 44 0 4-2 11-3 16-2 6-3 13-4 17-1 10-5 26-9 47-4 16-6 27-7 34s-4 24-8 40c-5 25-5 31 2 33 2 1 19 1 50 0 26 0 67 0 91-1z"/></svg>