<svg xmlns="http://www.w3.org/2000/svg" width="1344" height="566"><path d="M0 283V0h1344v566H0V283m751 277c3-1 9-1 17 0 7 1 45 1 84 2 70 0 72 0 76-2 10-4 16-12 16-22 0-4 1-6 4-10 1-3 3-6 3-7 0-2-2-5-7-11-10-10-20-23-25-31-12-23-24-37-48-62-11-10-16-14-29-21-5-2-9-5-11-6-5-3-8-11-8-21-2-27-17-37-39-27-12 5-15 9-17 22-1 8 0 22 2 29s13 20 16 20c2 0 8 6 8 8s-1 6-3 11c-2 7-4 15-6 26-2 8-3 27-2 31 1 6 3 5 8-2 4-6 5-9 6-16 1-2 2-4 4-5s2-1 4 1c1 1 3 7 5 14 3 10 4 12 7 16 7 7 6 11-4 18-2 1-6 4-7 5-3 2-6 3-10 0-3-1-6 0-7 3l-5 5c-3 3-5 4-9 4-6 1-9 1-16-3l-6-2-11 5c-5 3-11 5-11 5-1 0-6 1-11 3s-14 4-18 6c-16 4-20 7-16 12 3 2 3 3 25 3 23 1 35 0 41-1z"/></svg>