<svg xmlns="http://www.w3.org/2000/svg" width="1344" height="566"><path d="M0 283V0h1344v566H0V283m1030 196c3-2 4-3 6-15 1-11 4-18 13-30 3-4 7-10 9-14 3-4 6-8 8-10 1-2 4-5 4-8 2-5 5-23 5-29 0-9-4-20-12-35-4-8-7-15-7-15 0-1 1-4 2-6 2-5 3-13 1-19-3-11-6-52-6-72 0-13 0-18-2-26-3-15-6-23-11-29l-4-6c0-1-11-10-17-12-13-6-21-8-38-8-8 0-9 0-13 3-3 2-7 6-10 10-2 3-8 10-13 15-11 11-14 15-19 25-4 9-5 11-6 20-1 6-1 15-1 20 0 9 0 10 3 14 2 2 4 5 5 6 1 3 1 7-2 9-2 2-15 5-18 4-1 0-3-2-5-5-5-7-8-8-18-5-5 2-7 3-11 8-10 13-12 22-10 39 1 9 1 9-2 19-4 15-5 17-9 19-9 4-16 11-19 18-1 4-1 32 0 42 1 11 3 14 11 18 4 1 11 5 17 7 5 2 11 4 12 5 3 4 8 6 17 8 5 1 13 3 18 5 6 2 16 4 22 6 16 4 24 6 38 10 31 9 39 11 47 13 10 2 11 2 15 1z"/></svg>