<svg xmlns="http://www.w3.org/2000/svg" width="1344" height="566"><path d="M0 283V0h1344v566H0V283m788 250c4-1 11-2 16-2 4-1 14-2 21-4s14-3 15-3c2 0 14-3 30-8 13-4 15-5 34-9 11-3 13-3 36-4 21 0 24 0 25-2 4-4 5-32 2-48-1-4-3-14-4-23 0-8-1-17-2-20s-1-8-1-12c0-12-4-16-23-21-6-1-15-3-20-5-5-1-11-2-14-3-6-1-12-4-14-7-2-2-2-2-1-9 2-11 0-21-7-29-5-5-5-6-3-12 1-2 1-3-5-15-7-14-9-19-11-25 0-2-2-8-4-13s-4-10-4-11c0-4-21-64-29-82-4-10-6-15-10-26-6-15-26-39-40-49-8-5-24-12-35-16-18-6-22-6-36-6-11 0-14 0-32 4-21 6-26 7-39 14-23 12-37 29-48 56-9 22-11 37-10 58 1 7 1 18 0 25 0 6 0 23 1 38s2 34 2 41c0 12-1 14-3 17s-19 15-29 19c-3 2-8 6-11 8-4 5-11 15-11 18 0 4-5 8-14 12s-11 5-19 2c-2 0-4 1-11 5-4 2-10 5-13 6-4 1-11 4-16 6-9 3-11 4-17 10-4 4-7 8-9 10-2 3-15 10-20 10-4 0-10 2-13 5-5 6-11 22-11 34 0 6 1 7 9 11 2 2 6 5 9 8l4 5h11c8 1 13 2 15 3s5 2 5 2c1 0 4 1 6 2 4 2 6 2 23 2 20-1 25-1 30-4 2-1 6-3 10-4l6-1 6 2c3 2 8 3 12 4 5 0 9 1 16 5 20 10 28 11 70 12 36 0 68 2 94 5 12 1 26 7 32 13 3 2 4 3 13 3 15 1 27 0 36-2z"/></svg>