<svg xmlns="http://www.w3.org/2000/svg" width="1344" height="566"><path d="M0 283V0h1344v566H0V283m552 275c41-1 108-1 219 0 190 1 213 0 216-2 6-3 9-21 7-42 0-7-1-22-2-32 0-9-1-21-1-26-2-15-3-39-3-60-2-44-2-51-5-67-3-18-6-25-15-36-9-12-31-28-54-41-6-3-13-7-16-9-3-1-8-5-12-7-21-10-30-19-28-28 1-5 6-16 11-25 7-14 15-35 21-61 5-18 6-25 13-57 2-14 6-47 5-50 0-3-1-5-3-7-3-2-5-3-14-4-12 0-271 0-284 1-16 1-18 3-25 27-3 11-3 14-4 28 0 18 1 26 7 38 3 8 11 17 18 21 2 1 5 4 7 6l8 8c3 1 6 4 6 5 2 3 1 8-2 13-5 8-23 25-33 31-15 10-18 12-27 14-18 4-38 12-72 26-38 16-55 26-67 38-6 7-12 20-31 62-6 12-16 34-22 48-7 13-14 28-16 32-1 5-5 12-7 17-7 17-17 49-20 63-3 11-5 31-6 46-1 22 2 29 10 31 4 1 139 0 221-1z"/></svg>