<svg xmlns="http://www.w3.org/2000/svg" width="1344" height="566"><path d="M0 283V0h1344v566H0V283m278 275c18-1 19-2 23-10 5-10 6-14 4-32-1-8-3-26-3-38 0-28-1-26 15-26 6 0 14-1 17-1 3-1 8-2 12-2 6-1 18-3 32-7 4 0 10-1 14-2 5 0 12-2 16-2 4-1 9-2 10-2 3 0 11-2 28-7 5-2 19-13 19-16 0-1-1-4-3-6s-3-4-3-6c0-3-1-4-2-6-3-3-3-3-20 2-8 2-16 2-19-2-3-2-4-7-4-14 0-6-2-11-5-12-3 0-5 2-9 12-2 4-4 9-4 11-3 5-8 11-12 13-4 3-7 3-19 4-22 2-31 2-36-1-3-1-7-2-9-3-3 0-7-1-10-2-8-3-9-5-11-34 0-6-2-17-3-24-2-7-3-15-3-18s2-14 4-23c4-19 5-30 3-38v-7c1-2 11-8 15-9 9-2 18-10 20-17 1-3 2-7 3-9 0-2 2-8 2-13 1-8 1-10-1-18-1-5-2-13-3-18-2-15-3-19-4-23 0-1-1-4-2-7s-2-5-7-9c-14-10-30-15-47-15-19 0-34 9-43 27-2 5-3 6-3 26v20l-3 7c-5 9-11 15-27 27-16 13-50 47-59 60-12 17-19 35-26 68-1 5-3 12-3 14-3 10-3 16-3 39 0 36-3 53-13 66-2 4-3 7 0 15 3 14 10 25 30 48 15 18 16 19 41 19 10 1 22 2 26 2 10 1 65 0 85-1z"/></svg>