<svg xmlns="http://www.w3.org/2000/svg" width="1344" height="566"><path d="M0 283V0h1344v566H0V283m543 275c43-2 68-2 123-2 38 0 73 1 79 1 14 1 151 1 169 0h64c80 2 81 2 84 1 6-2 4-9-4-19-7-8-46-39-64-50-5-4-14-9-20-11-19-9-36-23-40-32-1-4-1-4 0-10 6-18 21-48 38-78 4-7 10-17 13-22 9-17 16-27 22-32 3-2 8-6 11-9 19-15 38-50 38-72 0-5 0-6-4-9-2-2-5-4-7-5s-3-3-3-4c0-3 6-25 6-27 1-1 8-33 10-44 2-15 5-41 5-52 0-19-12-59-22-69-4-4-8-6-21-8-9-2-207-2-221 0-9 1-17 3-20 5s-11 15-14 24c-9 21-17 53-20 81-2 15-4 25-6 28-1 1-4 2-7 3-2 1-6 2-8 2-11 3-18 17-18 36 0 8 3 25 6 35 3 8 12 23 16 28 5 5 9 10 10 16 1 8-3 39-8 61-4 15-18 43-26 47-3 2-4 3-24 3h-28c-8 1-9 1-12 5-3 3-7 9-10 14-25 37-33 45-59 62-5 2-10 6-13 7-15 11-29 20-42 26-32 18-60 38-77 58-10 10-8 12 13 14 15 1 20 1 91-2z"/></svg>