<svg xmlns="http://www.w3.org/2000/svg" width="1344" height="566"><path d="M0 283V0h1344v566H0V283m782 276c8-1 141-2 237-2 27 0 56-1 64-1 10-1 18-1 23 0 5 0 22 1 36 2 27 0 28 0 29-2 2-2 2-2 1-7-2-7-13-32-20-41-7-12-25-30-38-40-8-7-25-17-34-21-12-4-46-15-76-23-15-4-31-9-43-14-4-1-9-3-12-4-7-3-17-8-20-12-5-5-6-10-4-24 1-3 2-15 3-24 2-20 5-39 8-48 3-11 7-16 15-19 19-7 35-29 43-57 1-5 1-11 1-18 1-14-1-18-10-28-6-6-7-7-8-11v-9c2-12 5-57 5-70 0-35-5-63-13-72-4-4-7-5-23-8l-14-2H822c-97 0-113 0-128 2-11 1-20 2-21 3-4 2-9 13-15 30-8 26-11 47-11 78 0 14-4 52-6 55 0 1-1 5-2 9-3 11-3 22 1 38 4 23 8 33 25 63 5 9 9 18 14 30 2 5 4 12 6 16 9 24 10 31 7 34-1 1-6 3-12 4-13 4-27 8-37 12-6 3-9 4-13 8-4 5-19 26-27 38-7 10-22 28-30 36-6 5-17 13-33 24-14 10-27 19-29 20-2 2-7 5-12 9-27 18-34 23-45 31-15 10-16 11-12 14 2 2 3 2 62 1 64-1 82 0 110 1 23 1 158 0 168-1z"/></svg>