<svg xmlns="http://www.w3.org/2000/svg" width="1344" height="566"><path d="M0 283V0h1344v566H0V283m479 136c4-1 13-3 21-6 7-2 16-4 21-5 16-2 40-2 61-1 39 3 56 4 83 5 25 0 38 1 46 3 5 1 18 1 27 0 4-1 15-3 23-4 16-2 22-3 46-9 20-6 26-8 40-14 10-4 14-5 21-6s9-1 11-4c2-2 2-3 2-14-1-21-3-33-5-41-2-4-3-10-3-12 0-8-7-21-12-24s-11-8-12-11c-1-1-2-5-2-8-1-5-1-6 1-8 5-6 5-7-9-56-5-17-8-30-9-40-3-16-14-44-23-56-11-14-21-22-36-30-17-8-31-12-45-11-20 2-38 7-52 14-10 5-22 18-28 29-10 19-11 32-13 91-1 22-1 42-2 44-2 6-2 6-13 6-14 0-20 2-34 14-13 11-14 12-21 28-6 11-8 14-18 20-2 2-6 5-9 8-4 3-11 7-16 10-5 2-14 6-20 9-11 6-17 7-28 7-7 0-8 0-10 2-2 3-20 42-22 49-1 2-1 4-2 4 0 1-2 4-3 7-1 5-1 5 1 7 1 1 5 2 12 2 5 1 10 1 11 1 3 1 12 1 20 0z"/></svg>