<svg xmlns="http://www.w3.org/2000/svg" width="1344" height="566"><path d="M0 283V0h1344v566H0V283m815 277c20-1 87-2 153-1 61 1 78 0 84-3 5-2 6-7 8-27 1-9 3-20 4-27 4-24 8-60 9-87 0-17 0-19-2-27-6-25-22-57-42-86-9-14-18-23-36-40-11-10-14-15-16-25-2-8-3-11-6-11-2-1-5-1-8-2-7-1-10-3-13-8-4-6-8-16-8-22-1-6 1-21 4-31 1-4 3-13 5-18 1-6 3-15 5-20 10-31 9-47-1-70-8-16-11-20-18-25-14-9-32-14-49-14-10 0-47 10-61 16-7 4-20 16-23 24-3 4-3 6-3 14s-1 12-3 22c-3 8-4 17-5 24-1 13-3 20-7 33-5 13-5 18-1 25 2 2 5 10 7 17 4 15 13 33 17 36 5 4 11 7 17 8 9 1 17 6 21 15s2 14-17 34c-14 15-17 21-18 35-1 10-2 14-11 35-12 28-20 49-24 69 0 4-2 11-3 17-3 12-6 26-9 44 0 5-2 12-2 14-3 8-4 37-3 44 3 11 11 18 24 19 8 1 9 1 31-1m-308 0c4-1 11-11 14-20 2-11 0-31-5-52-1-4-3-12-4-18-2-18-10-39-17-48-4-4-21-17-31-24-19-11-20-14-9-36 9-18 15-23 36-32 8-4 10-7 8-19s-3-36-2-39c0-4-1-9-7-18s-9-16-13-28c-3-11-10-26-15-32-8-11-14-14-33-18-17-3-29-3-42 0-27 6-49 24-58 48-2 5-2 8-3 47-1 23-1 45 0 49 0 4 1 19 1 32 1 14 1 30 2 36 1 10 1 11-2 17-5 14-6 18-9 21-7 11-14 29-15 42-1 5-2 12-4 17-6 17-10 36-10 45 0 2 0 8-1 13-1 8-1 9 0 12s3 4 5 5c3 0 211 1 214 0z"/></svg>