<svg xmlns="http://www.w3.org/2000/svg" width="1344" height="566"><path d="M0 283V0h1344v566H0V283m340 278c47-1 134-2 182-1 34 1 120-1 130-2 4-1 20-2 34-2 28-1 48-3 58-6 2-1 8-2 13-3 10-1 18-1 38 4 8 1 17 2 29 3 9 0 21 1 28 2 6 1 23 1 38 1 36 1 34 2 26-24-6-20-12-34-23-48-12-16-16-25-21-49-7-27-9-31-34-54-22-21-26-23-37-26-8-3-30-13-36-17-5-4-7-10-8-26-3-59-7-75-32-138-15-37-26-57-54-96-15-21-47-42-77-51-35-12-36-12-78-11-27 0-35 0-43 4-2 0-12 3-22 5-30 6-36 9-53 25-17 15-34 39-44 57-11 24-18 54-18 79-1 17-1 17 10 29 10 11 11 14 11 27 0 6 0 17-1 25-1 15-1 15 1 25 2 5 5 15 9 22 6 14 6 15 5 34-1 8-1 9 2 23 3 9 4 16 3 17-1 4-3 6-18 17-9 7-16 14-24 23-15 16-33 34-52 51-31 28-51 50-60 67-4 7-4 10-1 13 2 1 5 2 29 2 29 1 28 1 90-1z"/></svg>