<svg xmlns="http://www.w3.org/2000/svg" width="1344" height="566"><path d="M0 283V0h1344v566H0V283m812 277c11 0 42-1 68-2 27 0 65-2 85-2 20-1 41-1 47-1h52c24 0 61 1 82 1 43 2 54 2 57 0s3-6 1-15c-3-13-22-49-35-68-10-15-39-41-55-49-10-4-20-8-46-15-43-11-48-12-60-15-6-2-15-5-20-6-11-3-20-5-35-10-14-5-18-8-20-14-2-8 0-40 3-51 1-4 5-7 12-11 21-10 39-36 43-65 4-18 0-31-9-37-9-5-12-8-12-14-1-3-1-8-1-10 1-2 2-15 3-28 2-25 2-34 0-66-2-24-8-55-12-62-4-8-11-11-29-14-11-2-215-3-241-1-20 1-24 2-30 8-12 13-24 50-28 86-2 14-2 20-2 37 1 11 1 35 2 53 0 21 1 34 2 37 1 2 2 6 2 9 1 3 3 11 5 17 6 21 7 26 10 40 2 7 5 18 7 25 3 7 7 18 9 24 2 7 4 13 4 15 0 4-3 7-17 14-13 8-12 6-31 37-29 47-38 58-65 75-4 3-10 8-13 11-9 8-31 25-50 38-19 14-28 21-29 23s-1 2 1 4c3 2 28 3 152 3 57 0 104 0 104 1 1 0 64-1 89-2z"/></svg>