<svg xmlns="http://www.w3.org/2000/svg" width="1344" height="566"><path d="M0 283V0h1344v566H0V283m530 276h176c164 2 176 2 188 1 13-2 15-3 17-7s1-25-1-37c-5-24-13-33-78-81-3-2-8-5-11-8-15-9-22-18-34-41-9-18-11-23-9-30 2-9 31-62 42-76 6-8 11-20 15-34 2-8 4-18 5-22 8-22 9-33 9-64 0-27 0-34-5-49-5-16-15-30-33-48-21-21-32-27-55-29-6-1-15-2-20-3-17-4-24-4-36-4-15 1-26 4-37 9-35 18-57 46-64 83 0 3-2 12-3 20-2 28-5 36-11 44-7 10-10 24-8 38 2 15 6 22 19 37 6 6 10 11 13 17 3 7 3 7 3 20v15c-1 4-12 15-28 30-16 14-27 23-36 27-4 2-31 10-43 13-7 2-26 6-31 7-10 1-38 6-43 8-12 3-14 5-38 40-5 8-13 19-16 23-10 14-20 28-25 37-3 5-7 12-10 15-7 12-19 32-21 37-1 2-2 6-2 8 1 6 0 6 48 6 23-1 97-1 163-2z"/></svg>