<svg xmlns="http://www.w3.org/2000/svg" width="1344" height="566"><path d="M0 283V0h1344v566H0V283m536 240c22-1 40-3 53-6 8-2 13-3 22-8 11-6 12-6 21-7 5-1 14-2 19-3 7-1 24-1 79-2 106 0 135-1 157-6 8-1 18-3 23-4 5 0 12-2 16-4 7-3 8-3 15-2 5 0 13 1 19 2 5 1 14 2 18 3 8 0 9 0 13-2 3-1 7-4 9-6 3-5 17-32 18-37 1-4-2-6-10-9-7-1-9-2-11-4-6-9-7-9-24-6s-25 6-37 10c-6 3-8 3-9 2-2-2-2-4-1-8 1-2 2-7 3-10 0-6 0-8-2-14-2-7-31-64-41-81s-25-38-33-47c-11-13-30-29-44-37-3-2-9-6-12-9-15-10-42-29-56-37-4-3-16-8-26-12-10-5-25-11-33-14-7-3-15-6-16-7-1 0-10-4-19-8-17-9-23-12-26-20-7-13-17-24-27-29-14-8-28-9-43-5-5 2-7 3-12 9-13 13-21 31-22 47-1 5 0 9 1 16 4 15 10 24 18 29 9 5 19 20 18 26-1 4-14 18-20 22-3 2-8 7-11 12-8 9-17 19-27 27-5 4-9 9-11 11-5 7-24 43-25 47-1 2-5 12-10 23-10 18-10 19-18 26-4 4-10 9-13 12-9 6-11 10-17 22l-5 11v13c0 9 0 16 2 23 1 7 3 14 3 18 1 3 2 7 3 8 1 4 14 15 20 18 5 2 19 5 29 7 9 1 63 1 82 0z"/></svg>