<svg xmlns="http://www.w3.org/2000/svg" width="1344" height="566"><path d="M0 283V0h1344v566H0V283m520 277c15-2 36-3 97-3 26-1 56-1 67-2 12 0 22 0 25 1 11 2 59 4 79 3 18-1 49-1 199-1 44 0 60-1 61-2 1 0 1-2 1-3-1-2-3-4-24-18-29-19-41-26-55-33-8-4-16-8-17-9-3-2-18-20-22-26s-4-11 2-26c12-28 32-69 41-83 6-9 8-12 10-16 4-8 11-14 22-19 17-8 28-21 38-41 7-15 9-22 9-32s-1-13-9-20l-5-5v-6c0-4 1-13 3-20 3-14 8-42 12-65 3-21 3-38 0-51-7-24-18-42-33-55-3-2-9-7-12-10-5-4-8-5-16-8-5-2-12-3-15-4-7-2-110-3-142-2-27 1-37 2-43 5-14 5-33 39-44 76-6 20-8 31-10 57-2 13-4 25-4 26-2 4-5 6-13 8-6 1-12 6-15 12-1 2-3 8-4 13-1 8-1 11 0 19 3 27 12 44 28 57 9 7 9 10 6 38-3 38-11 65-23 78-8 8-9 8-39 5-17-1-18-1-22 0-3 2-10 8-25 23-23 23-30 29-50 37-11 5-30 15-39 20-4 3-16 9-27 15-22 11-54 29-64 36-9 6-25 19-26 23-4 6-2 8 10 9 15 1 75 0 88-1z"/></svg>