<svg xmlns="http://www.w3.org/2000/svg" width="1344" height="566"><path d="M0 283V0h1344v566H0V283m484 129c1 0 4-1 7-1 2-1 10-4 18-8 17-9 30-14 31-13 1 0 1 1 1 3 0 5 4 7 19 8 6 0 17 1 23 2 21 4 30 4 70 5 37 0 50 1 56 3 4 1 22 1 30-1 5 0 15-2 22-3 8-1 18-3 22-4 5-2 13-4 19-5 5-2 13-4 18-6 12-3 22-5 38-6 13 0 14 0 16-3 3-3 4-12 2-23 0-5-1-13-2-18-1-6-2-13-3-17-3-8-5-16-5-22 0-3-1-6-3-9-3-6-6-9-12-12s-8-7-9-14c-1-6-1-7 3-11 2-2 4-4 4-5 0-2-5-27-11-48-5-24-7-29-8-38-2-11-12-35-20-47-11-15-20-23-36-33-22-12-35-15-50-13-14 2-37 8-45 12-17 8-28 23-35 48-2 8-6 37-7 53-1 5-2 12-3 17 0 5-1 13-2 18 0 11-3 22-6 25-1 2-3 2-8 2-9 0-17 3-23 8-2 3-7 6-9 8-7 4-12 12-18 23-7 15-13 23-24 32-9 9-9 9-34 19-13 5-15 5-28 7-12 1-14 3-17 9-4 7-18 39-22 48-3 8-2 9 4 11 4 1 34 0 37-1z"/></svg>