<svg xmlns="http://www.w3.org/2000/svg" width="1344" height="566"><path d="M0 283V0h1344v566H0V283m914 277c3 0 5-4 8-15 4-16 6-18 12-9 2 3 5 7 5 10 5 12 10 15 23 16 15 1 20-3 21-13 0-9-2-16-11-33-5-10-9-21-15-37-7-23-10-34-10-45 0-4-1-14-2-24s-2-23-2-34c0-27-4-65-10-104-4-26-7-37-12-50-6-14-6-17 4-34 11-19 21-50 21-68 0-12-5-25-11-31-5-3-14-8-22-10-14-3-37 1-50 9-11 6-14 11-23 32-3 9-11 22-14 26-3 3-9 6-17 7-9 2-14 5-21 12-7 6-13 10-28 19-17 11-23 16-25 23-5 18-10 32-17 45-9 18-14 33-17 46-1 5-3 15-5 22-2 11-2 15-2 30 0 17 0 19 2 28 2 6 5 14 7 19 1 5 3 10 3 12 0 4-6 16-10 19-1 1-4 4-6 5-5 4-10 13-11 22 0 4-2 13-3 22 0 9-2 20-3 25-2 16-3 44-2 49 3 10 7 11 147 10 51 0 95 0 96-1z"/></svg>