<svg xmlns="http://www.w3.org/2000/svg" width="1344" height="566"><path d="M0 283V0h1344v566H0V283m304 277c23-1 43-1 44-1s5 0 7 1c4 1 6 1 11-1 6-1 17-1 25 1 2 1 18 1 35 1 44 0 165-2 168-3 2 0 13 0 24 1 13 1 47 1 87 1 59 0 66 0 69-1 5-3 5-6 2-21-1-5-3-12-3-14 0-3-2-8-4-12-2-5-2-9-3-18-1-19-4-22-43-40-34-16-59-27-66-31-19-8-24-11-27-13-1-2-2-4-2-5 0-4 9-29 18-49 4-9 11-28 14-42 6-20 6-30 5-54-1-12-2-23-2-26 0-2-1-8-2-14-4-38-10-71-15-89-1-4-3-10-4-14-5-20-17-43-31-59-13-17-49-40-73-48-11-3-12-3-28-4-10 0-18 0-23 1-7 1-26 7-36 12-4 1-10 3-15 4-16 4-25 8-36 19-8 8-15 18-23 33-12 24-21 50-34 97-1 7-3 13-3 14-1 1-16 73-19 88 0 4-2 14-3 21-5 24-7 45-8 77l-1 30-3 3c-1 2-5 5-9 7s-7 4-8 5c-3 2-37 21-53 29-20 10-26 13-30 17-2 1-5 6-7 11-7 15-8 18-13 24-2 4-6 10-9 15-13 19-21 38-17 43 3 3 8 4 17 5 11 1 73 0 127-1z"/></svg>