<svg xmlns="http://www.w3.org/2000/svg" width="1344" height="566"><path d="M0 283V0h1344v566H0V283m1005 275c3-1 6-6 5-9-1-1-2-11-2-23-1-22-1-23-4-30s-7-24-8-38c0-4-1-12-2-17 0-5-1-12-2-15-1-4-2-10-3-12 0-2-1-7-2-11 0-4-1-10-3-13-2-9-5-20-8-38-1-4-2-10-3-15-1-4-2-9-2-11 0-1-1-5-1-8-1-2-3-9-3-14-3-13-5-22-8-28-3-7-14-17-25-22-12-6-20-11-24-14-2-2-5-4-7-5-6-3-15-11-18-16s-3-10 1-18c2-4 4-8 4-9s1-4 2-7 3-10 4-17c2-9 2-12 1-23-1-15-3-25-7-32-4-10-17-21-29-25-5-2-8-2-21-3-14 0-17 0-24 2-10 3-14 5-21 12-13 14-16 29-11 57 1 8 1 9 0 13-1 2-3 4-6 5-10 5-15 13-16 22-3 28-5 41-7 44-2 4-6 7-12 9-5 1-14 6-16 8l-4 4c-2 4-13 36-20 59-3 9-6 19-8 22-5 11-8 22-8 27s3 19 5 23c3 5 12 12 22 17 6 3 7 3 18 3 13 0 15 1 14 7-1 3-2 6-2 8-2 3-4 9-8 23 0 2-3 9-5 16s-5 17-7 22c-4 9-7 16-18 48-2 5-4 12-5 14-1 8-3 8 43 8h90c29 0 62 0 74 1h27c5-2 5-3 6-21 0-14 1-17 2-19 1-1 3-1 3-1 3 1 11 21 13 32 1 4 5 8 9 10 6 1 33 1 37-2z"/></svg>