<svg xmlns="http://www.w3.org/2000/svg" width="1344" height="566"><path d="M0 283V0h1344v566H0V283m855 278c11-1 12-2 12-12 0-6 0-7 3-11l3-5-1-8c-2-10-8-20-13-23-2-2-6-4-8-5-3-1-8-4-12-7-3-3-10-8-14-11-4-2-12-7-17-10s-14-9-20-12c-22-12-27-15-49-33-6-6-15-13-19-16s-9-7-11-9c-3-4-3-5-3-10 0-16 10-53 16-62 3-4 14-13 21-18 8-4 18-15 22-22 7-13 8-24 6-79-1-41-4-53-18-81-7-15-13-24-23-33-12-12-26-19-41-23-10-2-43-4-55-4-13 1-19 3-32 11-12 7-22 18-31 34-13 22-21 40-24 55-1 10-1 23 2 47 2 20 2 53 0 66-1 4-3 12-3 18-2 12-5 19-11 31-6 11-8 13-19 20l-10 5-19 2c-25 4-43 7-49 10-11 5-17 12-22 27-2 7-2 10-2 19v11l10 22c12 23 14 28 17 39 2 11 2 17-2 26-6 14-7 18-7 28 1 12 4 16 10 19 5 2 21 4 32 5s369 0 381-1z"/></svg>