<svg xmlns="http://www.w3.org/2000/svg" width="1344" height="566"><path d="M0 283V0h1344v566H0V283m712 278c4-1 7-2 8-3 3-2 5-9 5-22 1-12 1-15-2-26-2-9-3-13-6-17-2-3-6-10-8-16s-5-12-6-15c-1-2-2-5-2-5 0-1-2-6-5-12-5-10-5-11-5-20v-10l-3-3-8-4c-2-1-7-3-11-5s-13-5-20-8-16-7-20-8c-4-2-12-5-18-7-29-10-44-17-47-22-3-4-4-14-1-27 1-5 5-20 10-33l7-22 1-16c0-19-2-38-11-82-6-31-14-57-27-84-7-16-18-29-38-45-21-16-35-24-54-28-10-2-28-1-34 1-3 1-5 2-6 2s-8 3-16 7-17 8-21 9c-9 2-14 5-21 11-12 10-25 32-33 57-9 25-19 83-24 136-4 39-5 66-4 121 0 9 0 9-2 12-2 2-9 5-17 8-10 5-17 8-35 20l-27 18c-12 5-21 11-24 15-3 3-5 8-5 15 0 4-3 12-10 31-4 11-6 20-10 46-2 13-2 23 0 27s4 4 67 4c33-1 62-1 65-1 14 0 148 1 149 1 0 1 265 0 269 0z"/></svg>