<svg xmlns="http://www.w3.org/2000/svg" width="1344" height="566"><path d="M0 283V0h1344v566H0V283m838 275h146l82 1 2-2c2-1 3-3 3-4 0-3-7-17-12-25-13-20-38-46-63-66-6-5-21-14-28-18-11-6-38-21-50-29-7-5-22-13-34-18-24-13-31-18-53-38-8-8-16-15-18-16s-9-2-20-4c-6-1-9-3-11-12-3-10-4-15-1-19 1-2 5-7 9-12 9-10 16-21 20-31 3-10 3-20 0-31-3-8-2-11 5-32 14-42 17-60 17-90 0-29-2-35-20-58-2-4-7-10-11-13-3-4-7-9-9-12-3-4-5-6-10-9-3-2-7-3-9-3-5 0-16-3-23-6-10-5-19-5-57-5-31 1-34 1-46 3-14 3-17 4-40 16-22 11-28 15-41 27-8 9-10 12-14 19-7 16-10 24-17 66-3 22-7 45-8 52-2 12-2 13-1 37 1 13 2 30 2 36 2 29 6 45 24 82 6 11 12 23 13 27 3 10 4 21 3 26-1 4-6 9-8 9-1 0-4 2-7 4-4 2-13 6-21 9-31 13-58 28-76 41-8 5-37 35-41 40-2 3-7 10-12 18-16 24-20 31-15 36 4 4 8 4 50 4 22-1 51-1 65 0h335z"/></svg>