<svg xmlns="http://www.w3.org/2000/svg" width="1344" height="566"><path d="M0 283V0h1344v566H0V283m919 275c10-3 15-6 33-20 14-11 23-19 25-23 1-2 4-5 6-7s3-5 3-5c0-1-1-4-3-8-4-9-6-9-23-10-60-3-71-4-77-7-2-2-4-7-4-11 0-3-4-8-7-9-2-1-5-2-9-2-6 0-7 0-18 7-15 8-17 9-33 24-11 11-12 12-22 16-14 5-29 10-34 10-4 0-7-4-14-18-14-29-30-64-42-87-10-22-12-26-11-28 1 0 5-3 8-4 6-3 9-5 14-11 4-4 9-9 12-11 6-3 13-9 26-22 4-3 9-8 11-9 9-6 12-11 15-28 2-10 4-15 13-33 4-10 10-24 14-32 9-21 14-32 20-42 9-14 8-18-5-34-4-5-10-13-13-19-13-22-39-43-69-57-34-16-67-16-102 0-8 3-10 5-23 18-21 20-28 30-39 51-6 12-9 16-18 28-11 13-15 16-45 23-22 6-26 8-38 23-15 17-17 22-19 41-1 7-2 14-5 23-4 11-4 12-3 16 1 3 2 5 8 9 10 6 11 8 10 14-1 5-6 13-16 28-9 14-14 24-23 46-9 23-13 30-19 40-6 11-8 19-6 30 2 13 1 24-1 26-3 4-13 1-24-8-4-2-10-6-13-9-8-5-22-17-32-28-4-4-14-14-22-23-9-9-15-16-16-17 0-2 0-5 2-9 3-9 4-13 9-29 4-13 4-15 4-27 0-27-3-38-13-47l-7-7c-1-4-1-9 1-15 4-12 4-42 1-50-2-4-7-7-11-7-6 0-13 7-19 18-3 6-5 9-8 11-5 2-5 3-5 17-1 13-2 14-9 17-2 1-8 2-12 3-5 0-10 2-11 2-6 4-12 11-18 19-11 17-12 21-19 57-1 8-3 18-3 21-1 8-5 15-10 21s-8 7-15 7c-5 0-5 0-10 5-3 3-5 5-5 6s5 8 11 17c8 10 12 17 13 19 4 15 6 20 11 26 3 3 7 8 9 10 2 3 5 6 6 7 3 2 16 18 18 21 1 1 2 5 3 8 4 14 9 18 35 22 27 5 40 5 131 5 56 1 88 1 96 2 10 1 31 1 102 0 141-2 144-2 163-1 11 1 48 1 88 2 38 0 69 0 70 1s23-1 32-3z"/></svg>