<svg xmlns="http://www.w3.org/2000/svg" width="1344" height="566"><path d="M0 283V0h1344v566H0V283m1073 277c6-1 10-6 19-22 9-18 11-22 27-43 19-25 20-27 20-40 0-6 0-7-2-9s-3-2-8-2c-5 1-6 1-10-2-2-2-4-5-5-7-3-8-10-10-19-5-6 3-12 4-15 1-8-6-14-6-23-1-2 1-5 3-7 4s-2 1-5 0c-2-1-3-4-6-11-2-5-6-15-10-23-3-7-6-13-6-14 0 0-2-4-4-9s-6-14-8-19c-7-21-20-42-28-48-6-3-39-21-47-24-7-3-25-13-28-16-2-1-4-5-5-7-2-5-2-7-2-15 1-6 2-15 2-21 4-26 1-60-8-83-5-14-18-31-32-40-24-16-42-25-58-28-10-3-39-4-46-3-16 3-42 16-57 29-9 7-20 20-24 28-3 7-6 21-6 29s-3 15-12 33l-6 14-1 26c0 24-1 26-3 29-3 4-8 6-23 12-33 10-57 21-71 32-4 4-10 8-11 10-3 4-10 21-14 37-4 13-6 21-12 34-2 6-7 17-10 24-6 16-10 24-18 35-7 11-11 13-17 13-7-1-11 1-16 7-3 7-6 7-12 5-2-1-5-2-8-2-3-1-4-1-7 2-3 2-3 3-4 9 0 5 0 8 1 10 1 1 3 6 4 11 1 6 1 8 0 10-1 0-2 1-2 1-1 0-4-3-7-6-7-6-18-14-20-14 0 0-2 1-3 2-3 3-3 10 1 15 4 6 38 39 43 42 3 1 8 2 20 3 8 0 19 1 24 2s19 1 30 1c19 0 22 0 26 1 4 2 28 3 60 2 12-1 39-1 61-1 35 0 41 0 47 2 6 1 8 1 23 0 18-2 114-2 155 0h30c8-2 30-2 34 0s11 2 60 1c32 0 57 0 59-1z"/></svg>