<svg xmlns="http://www.w3.org/2000/svg" width="1344" height="566"><path d="M0 283V0h1344v566H0V283m756 278c113 0 104 1 107-3 2-2 2-3 2-10-1-7-1-8 2-13l2-4-2-6c-1-3-3-7-3-9-2-5-7-12-12-16-2-1-8-6-12-10-10-8-39-27-64-39-16-8-24-14-36-23-8-6-24-19-30-23-11-9-12-11-9-25 2-12 5-23 9-34 2-8 3-9 12-18 6-6 16-17 22-26 13-17 16-21 17-26 2-7 3-27 2-62-1-40-2-46-7-65-7-24-15-37-29-52-19-20-33-27-64-30-40-5-61 1-88 27-15 15-25 30-32 48-4 13-6 34-4 47 4 26 4 30 4 53-1 28-2 34-13 64-7 17-21 45-27 52-3 4-11 7-29 10-19 4-37 9-47 14-11 6-18 19-20 39-2 15 1 46 5 74 1 7 9 39 12 49 3 8 5 12 8 14 5 2 24 3 74 3 24 0 62 1 82 1h62c14 0 61 0 106-1z"/></svg>