<svg xmlns="http://www.w3.org/2000/svg" width="1344" height="566"><path d="M0 283V0h1344v566H0V283m895 278c97 0 130 0 147-3 6 0 9-3 9-7s-8-23-18-42-29-56-38-73c-3-6-7-13-9-16-5-6-14-22-18-31l-9-18c-3-6-8-14-10-18s-4-10-5-12c0-2-2-7-2-11-2-7-2-15 1-19 0-1 4-4 7-6 4-3 7-6 10-11 11-15 15-24 18-46 2-8 5-24 8-34 7-28 8-32 6-55-1-17-1-19-5-31-5-16-7-20-14-35s-14-23-27-35c-28-26-45-33-83-37-11-1-34 0-42 2-6 2-33 5-39 5-7 0-24 4-31 7-6 2-20 11-29 18s-20 23-27 37c-10 21-14 37-16 63 0 15 2 37 5 53 1 5 2 16 3 24 2 28 4 40 12 72 1 5 3 13 4 18 1 6 3 14 4 19s3 14 5 20c5 23 12 32 31 38 6 2 22 4 33 4 2 0 8 6 10 11 4 8 3 10-10 24-11 14-22 27-27 36-3 4-11 13-18 20-17 18-22 28-22 45 0 5 1 8 3 12 3 7 6 9 15 10 14 2 42 4 51 3 5 0 58 0 117-1z"/></svg>