<svg xmlns="http://www.w3.org/2000/svg" width="1344" height="566"><path d="M0 283V0h1344v566H0V283m704 279c31 0 71-1 90 0h54c26-2 25-1 25-14 1-41 1-40-2-43-1-1-6-5-11-9s-12-8-14-11c-9-8-39-25-62-37-8-4-16-8-19-10-4-3-22-16-42-33-17-13-17-15-17-28 1-14 7-38 13-49 1-2 10-12 20-22 18-18 25-26 28-35 2-7 3-25 2-41 0-9-1-23-1-32-1-32-5-47-17-73-9-18-18-29-35-42-7-6-20-12-29-14-18-4-54-6-67-3-16 4-38 21-51 39-10 13-21 39-25 56-2 10-1 30 2 49 3 21 1 61-5 100-2 15-8 31-14 36-8 7-27 14-49 17-8 1-23 4-32 6-22 7-28 12-33 29-8 30-3 88 14 142 3 11 6 15 9 18 4 2 25 3 99 4 100 1 111 1 169 0z"/></svg>