<svg xmlns="http://www.w3.org/2000/svg" width="1344" height="566"><path d="M0 283V0h1344v566H0V283m559 277h45c95 1 187 2 210 1h53c27 0 73-2 87-4 7 0 20-1 35-1 14 0 27-1 31-1 5-1 8-1 18 1 6 1 13 3 16 3 11 3 14 3 24 2 7-1 11-2 13-3 3-3 2-4-3-16-2-5-6-15-8-22-5-17-10-28-18-39-7-9-9-12-9-18-1-5-4-8-9-11-6-4-38-17-54-23-20-7-42-17-45-21-6-6-4-12 9-47 12-30 13-39 13-81 0-79-7-140-20-178-13-36-33-62-65-83-9-6-17-9-25-11s-51-3-67-2-21 2-37 9c-10 5-38 28-48 39-5 7-12 18-16 26-8 19-23 73-28 104-2 9-4 20-5 25-3 19-7 62-9 97-1 23-2 33-6 50-2 14-4 19-8 23-4 3-13 8-23 12-26 12-47 21-60 28-24 14-30 17-48 24-9 3-18 7-19 7-2 1-4 4-5 6-3 6-2 16 1 25l3 6-1 7c-1 4-5 15-9 26-5 15-6 20-7 27 0 8 0 9 2 11 3 2 4 3 20 3 10 0 20 1 24 0 4 0 25 0 48-1z"/></svg>