<svg xmlns="http://www.w3.org/2000/svg" width="1344" height="566"><path d="M0 283V0h1344v566H0V283m1037 280c12-1 33-1 46-2 26-1 28-1 27-7-1-1-3-8-6-14-3-5-6-15-8-21-4-15-12-32-19-41-7-10-9-12-10-19 0-2-1-6-2-7-1-4-7-7-17-10-3-2-10-4-14-6s-14-6-22-9-22-8-31-12c-13-6-17-8-20-11-4-4-4-4-4-9 1-3 3-10 6-17 5-12 10-27 14-38s5-22 4-54c0-77-7-139-22-184-8-25-19-43-36-61-10-9-29-24-37-28-12-6-35-8-73-8-32 1-33 1-48 8-21 10-44 32-57 53-7 13-19 44-23 62-2 8-4 19-6 26-2 6-4 16-5 21 0 5-2 16-3 23-3 18-8 66-9 93-1 12-2 24-3 27 0 2-2 11-3 20-4 31-6 35-14 42-7 6-13 8-23 11-8 2-15 5-23 10-3 2-13 7-22 12-8 5-20 11-26 14-10 6-22 11-37 17-5 1-10 3-11 4-7 3-9 15-4 30 3 9 2 11-4 30-15 40-15 50-3 52 5 1 48 1 91 0h64c40 1 144 2 224 2 43 0 82 1 86 1 10 1 58 1 83 0z"/></svg>