<svg xmlns="http://www.w3.org/2000/svg" width="1344" height="566"><path d="M0 283V0h1344v566H0V283m812 275 36-1 5-2c13-7 26-26 30-44 1-4 3-8 4-9s4 0 17 7c10 5 19 8 24 9 11 3 22 4 26 4 2-1 6 0 9 0 25 6 33 7 50 5 18-3 21-4 23-8 3-5 3-10-1-19-5-13-6-15-13-22-3-3-7-6-7-7-1-1-2-6-2-10-3-14-8-22-24-33-13-10-17-14-24-24-3-5-9-13-14-18-7-7-9-10-10-14-2-7-4-22-4-34 0-14-2-33-4-41-3-10-7-18-15-29-3-5-7-11-9-15-4-7-5-8-15-11-26-6-35-10-39-15-2-1-2-2-1-4 1-3 3-3 16-3h12l5-3c10-6 25-22 25-27 0-2-8-12-17-21-5-5-9-10-19-25-3-3-20-32-27-44-9-17-24-34-36-43-8-6-23-15-29-18-8-3-18-5-32-6-12 0-14 0-21 2-10 3-23 10-32 16-4 2-17 15-30 28-30 30-37 35-73 53-32 16-41 23-37 27 1 1 3 1 11 0 13-1 23-1 25 0 0 1 1 2 1 3 0 3-12 17-28 31-9 8-15 15-16 17-1 4 2 8 11 17 6 6 10 9 18 13 10 5 13 8 17 14s2 14-6 32c-4 10-13 32-16 44-3 8-5 58-6 112 0 35 0 38 2 47 1 6 3 11 3 12 2 3 23 15 32 18s11 5 17 18c5 11 8 14 15 18 2 1 13 3 29 4 12 1 80 1 144-1z"/></svg>