<svg xmlns="http://www.w3.org/2000/svg" width="1344" height="566"><path d="M0 283V0h1344v566H0V283m760 276c105 0 114 0 116-2s2-2 1-5c-2-3-7-8-14-13-6-5-21-22-31-36-11-17-14-21-16-30 0-3-3-11-5-16s-4-9-4-9c0-1-2-6-5-11-5-12-7-16-17-37-7-16-11-22-15-25-2-1-10-3-19-5-22-4-75-23-81-29-4-3 0-11 15-31 12-16 15-17 25-21 25-10 31-18 27-34-2-5-3-19-5-47l-1-18-6-11c-3-6-7-15-8-20-5-14-14-31-24-45-5-7-12-16-15-20-7-10-15-18-23-22-17-8-46-13-62-10-4 1-19 5-34 9-31 9-42 11-57 9-13-1-19-1-23 0-4 2-5 4-7 18-1 5-2 12-3 16 0 3-2 15-4 26-8 50-13 82-16 88-1 2-4 7-7 10-6 6-10 14-10 19 0 3 2 11 4 19 3 12 5 28 5 38-1 13 0 38 3 59 2 15 2 16 1 23-2 8-7 17-14 30-4 5-7 13-9 19l-9 27c-7 18-8 22-11 33 0 5-2 14-4 20-6 23-6 30-1 33s59 3 363 1z"/></svg>