<svg xmlns="http://www.w3.org/2000/svg" width="1344" height="566"><path d="M0 283V0h1344v566H0V283m814 277c12 0 43-1 68-2 26-1 63-2 83-2 20-1 40-1 46-1h53c23 0 59 0 80 1 48 2 53 2 55 0 3-2 2-11 0-19-3-9-19-41-26-52s-18-25-26-32c-11-10-28-22-34-26-9-4-25-9-49-16-40-11-49-13-62-17-6-2-13-4-16-4-6-2-34-11-40-14-7-3-11-6-12-11s-1-17 0-31c2-21 5-26 17-32 5-3 9-6 17-13 9-10 10-12 16-23 9-19 13-38 10-50-3-9-6-13-13-17-3-2-7-4-7-5-3-4-3-11-2-26 3-28 4-53 3-75-2-38-5-62-10-71S953 9 937 6c-9-1-24-1-120-2-118 0-138 0-147 4-5 2-7 3-10 8-11 16-22 50-26 80-1 17-2 31-1 82 1 36 1 37 4 51 2 9 3 16 4 16 0 1 3 14 7 30 6 20 10 36 16 52 4 12 8 24 8 25 0 2-1 5-2 6 0 1-7 5-14 8-15 8-13 6-39 46-23 36-33 48-52 61-7 5-19 14-27 20-16 13-21 16-45 33-23 15-38 27-38 30 0 0 2 2 4 3 3 1 17 1 135 2 72 0 132 0 132 1 1 0 67-1 88-2z"/></svg>