<svg xmlns="http://www.w3.org/2000/svg" width="1344" height="566"><path d="M0 283V0h1344v566H0V283m746 165c8-1 16-2 17-2 1-1 5-2 8-3 12-2 20-4 25-6 2 0 7-2 10-2 3-1 9-3 14-4 22-7 40-8 56-6 13 3 20 3 21 1 2-2 0-24-3-42-1-7-2-21-3-32-1-20-2-25-7-30-3-3-14-9-22-11-3-1-6-3-7-5-3-4-4-22-2-42 0-11-1-28-4-44-4-26-8-45-10-53-1-5-3-12-4-17l-2-10c-1 0-2-4-3-8-3-17-12-39-20-52-10-15-28-29-51-40-14-7-16-7-29-7-9 0-13 0-22 2-5 2-14 4-19 5-16 3-23 6-33 15-17 17-26 42-31 88-1 8-2 15-3 15 0 1-3 36-4 60-1 14-1 26 0 36 1 19 0 21-11 24-2 0-9 2-15 4-11 3-15 3-30 4-25 1-27 2-48 26-8 8-17 16-19 18-3 2-9 6-14 9-5 4-12 9-16 12-9 8-15 10-25 10h-8l-4 4-4 6c0 1-2 6-5 10-11 23-24 58-22 61s10 2 20-1c10-4 21-5 67-9 7-1 15-2 18-2 15-5 28-5 39-1 12 5 33 9 50 10h57c29 0 30 0 42 2 9 2 15 4 18 6 6 3 8 4 38 1z"/></svg>