<svg xmlns="http://www.w3.org/2000/svg" width="1344" height="566"><path d="M0 283V0h1344v566H0V283m694 236c7-6 8-12 7-33-1-14 1-32 3-42 0-2 1-10 1-18 0-20 2-39 3-50 2-10 5-17 12-32 3-5 6-12 7-15 3-7 7-27 7-32 0-6 2-9 4-9 1 0 5 2 8 6 7 6 8 6 11 1 4-6 2-9-6-13-2-1-5-3-6-5-2-2-2-2-1-5 1-2 3-8 4-12 2-5 4-11 5-12 1-3 1-10 1-26 0-21 0-22-2-26-2-3-5-7-7-9-7-5-9-8-10-25-2-16-4-24-7-32-3-9-4-11-10-14-5-2-7-2-15-3-8 0-9 0-13 2-3 2-6 5-8 8-7 12-15 34-16 48-1 8-1 8-8 12-8 6-20 15-28 23-5 5-9 7-11 7-11 3-25 10-30 17-5 6-7 8-11 8-11 0-17 10-10 17 2 2 4 3 7 4 2 0 5 1 7 2 1 1 4 2 6 2 1 0 5 1 7 1 3 1 5 2 10 1 6-1 8-3 8-8 0-4 1-5 5-7 2 0 7-2 10-4 4-1 10-3 12-3 2-1 8-3 12-5 8-3 9-4 11-2 4 5 3 28-1 33-1 1-5 4-8 7-14 9-14 11-8 22l4 6-1 12v24c0 13 0 14 1 14 2 0 3-1 4-5 1-3 5-12 9-21 6-13 8-15 11-17 2-1 3-1 5 0 5 2 5 5 4 14 0 5-1 13-2 19 0 7-1 13-1 16-1 2-3 10-4 17-1 11-1 16 0 29 0 9 0 26 1 38 0 14 0 24 1 26 1 5 1 14 0 29-1 14 0 19 4 21 4 3 8 2 12-1z"/></svg>