<svg xmlns="http://www.w3.org/2000/svg" width="1344" height="566"><path d="M0 283V0h1344v566H0V283m739 276c50 0 64-1 66-2 4-2 10-8 16-17 10-16 15-27 18-48 2-9 4-13 7-13 1 0 4 3 9 9 9 12 30 33 38 39 14 8 44 24 53 26 7 2 30 3 58 4 14 0 32 0 40 1 7 0 24 1 38 1 28 1 29 0 32-6 3-5 2-10-3-18-7-11-13-17-23-24-15-9-20-15-27-36-2-7-5-14-7-16-7-9-25-20-44-27-12-4-14-6-26-16-15-12-20-15-28-20-5-2-9-5-11-6-5-4-38-38-40-43-2-4-3-7-4-14s-2-12-5-21c-3-6-6-15-8-21l-3-11 1-13c2-16 2-92 0-101 0-3-1-11-2-18-1-16-7-37-12-47-9-16-18-23-42-31-17-6-23-7-43-8-44-1-65 9-81 40-5 10-15 40-29 89-15 53-30 88-46 108-4 5-9 12-11 16-3 4-8 9-11 12-7 6-16 15-24 26-5 7-19 24-30 39-10 12-36 46-40 54-10 14-15 28-23 62-6 21-8 37-6 43 2 7 5 8 30 9 21 1 105 0 223-1z"/></svg>