<svg xmlns="http://www.w3.org/2000/svg" width="1344" height="566"><path d="M0 283V0h1344v566H0V283m614 277c5-1 89-1 156 0 32 1 36 1 39-4 4-6 2-33-3-58-5-22-14-51-21-65-5-11-4-9-2-25 1-9-1-10-18-18-8-4-17-8-21-10s-13-6-21-9c-8-4-15-7-15-7-2 0-21-9-25-12-7-4-9-12-6-30 1-13 3-29 6-49 2-16 1-39-2-67-3-23-5-35-6-47-2-22-7-46-11-57-7-18-12-27-23-39-20-24-30-30-58-42-22-8-38-8-57 0-2 1-9 2-14 3-18 2-27 6-39 19-9 8-14 14-20 25-16 26-27 65-35 119-1 8-4 24-5 37-5 33-6 55-3 78 1 8 3 18 3 21 1 3 2 7 2 9 0 10-8 17-25 19-5 1-12 3-17 5-5 1-9 3-10 3s-65 34-68 36c-5 5-7 9-7 22-1 10-1 14-4 23-6 17-7 25-12 52-4 26-7 50-6 55s4 9 8 11c3 1 7 1 18 2 30 0 38 0 59-1 24-1 39-1 85 0 74 2 98 2 134 2 20 0 40 0 44-1z"/></svg>