<svg xmlns="http://www.w3.org/2000/svg" width="1344" height="566"><path d="M0 283V0h1344v566H0V283m394 275h63c29 1 80 1 187 1 88-1 82 0 86-8 2-4 2-6 1-42 0-38 1-76 3-83 1-1 2-3 3-3 0-1 9 0 18 0 24 2 46 0 82-5 5-1 13-2 17-3 12-1 29-5 38-7 34-9 36-9 56-23 14-8 26-22 29-32 1-5 0-9-4-19-5-11-22-34-35-47-12-11-19-16-37-25-11-6-15-9-23-16-5-5-11-10-13-11-5-4-13-7-22-8-6-1-12-3-25-9-15-7-18-8-24-9-4 0-10-1-14-2-8-3-50-23-55-27-5-3-7-9-8-22-1-6-2-15-2-21-1-6-2-13-3-16-1-8-7-29-12-38-5-10-13-20-24-28-15-12-27-17-56-24-6-1-16-3-22-3-14-2-23-1-38 5-20 7-32 15-50 32-9 9-12 14-22 29-7 10-16 29-21 43-3 8-6 16-7 17-3 5-23 18-46 30-13 7-22 12-34 20-13 9-19 12-38 19-20 7-25 9-32 15-9 7-21 26-24 38 0 4-1 13-2 20 0 12 0 17 2 28 2 14 4 20 8 26 3 5 14 17 26 30 7 8 17 22 19 29 3 6 4 14 3 32-1 9-1 20-2 23 0 4-1 14-2 22-2 21-4 30-8 45-6 16-6 22-3 26 4 3 4 3 17 2 6 0 29 0 50-1z"/></svg>