<svg xmlns="http://www.w3.org/2000/svg" width="1344" height="566"><path d="M0 283V0h1344v566H0V283m732 176c15-1 25-3 31-5 3 0 9-2 13-2 3-1 8-2 10-3 3 0 10-2 16-4 7-1 14-3 16-4 2 0 6-1 10-2 3-1 10-3 16-5 9-2 10-2 30-2 26 1 25 2 25-12 0-6-1-15-2-22-2-9-2-18-3-40-1-28-1-29-3-34-3-6-12-14-18-16-11-4-16-8-16-14 0-4-3-8-8-10-4-2-3-3 3-4 3 0 6-1 6-2 2-3-3-38-8-58-1-6-4-14-5-18 0-4-3-13-5-20-5-16-7-24-8-30-7-25-10-35-15-47-11-23-22-37-43-50-11-7-27-16-33-18-11-3-31-3-44 1-3 1-10 3-15 4-16 2-28 8-36 16-3 4-12 17-15 23-6 12-12 35-14 61-1 6-2 13-2 16-2 8-5 41-6 62 0 14 0 25 1 34 1 8 1 19 1 24 0 10 0 10-2 12s-12 4-23 6c-4 1-8 0-14-1-10-2-30-1-34 1-2 0-6 3-9 6s-8 7-11 9c-10 6-12 7-21 13-4 4-12 9-18 13s-14 9-18 13c-12 9-15 10-26 10-5 0-10 1-11 1-2 2-4 6-4 12-1 4-3 10-8 21-8 16-8 18-16 41-6 17-5 18 1 18 5 0 9-1 20-5 4-2 10-3 11-3 2 0 8-1 14-2 11-2 21-3 56-2 13 1 15 0 18-1 5-3 18-3 28 0 18 4 31 6 53 7 17 1 24 1 29 0 9-1 18-1 36 0 21 2 37 5 40 7 2 1 5 3 7 4 3 3 4 3 7 3 2-1 9-1 16-2z"/></svg>