<svg xmlns="http://www.w3.org/2000/svg" width="1344" height="566"><path d="M0 283V0h1344v566H0V283m582 278c114 1 139 0 142-1 4-2 5-5 6-17 0-7 1-14 2-17l1-5-2-4c-3-4-3-5-3-9 1-5 1-5-3-9-3-4-5-9-12-25-10-25-12-30-16-38-4-7-4-8-4-16 0-5 0-10-1-11-1-2-8-6-24-12-7-2-15-6-20-8-16-6-28-11-49-19-25-9-32-13-34-18-2-4-2-5-1-15 0-8 2-15 4-21 2-5 4-12 5-16s3-10 4-14c5-16 5-34 2-60 0-4-1-11-2-16 0-7-2-20-5-39-1-5-3-15-5-22-12-45-29-78-52-100-7-6-11-9-22-14-7-4-15-8-19-9-22-8-46-11-59-8-9 2-27 9-43 17-10 5-13 7-19 13-10 9-17 18-23 31-4 9-10 24-12 31 0 1-2 8-4 14-2 7-4 20-6 28-2 9-4 20-4 24-9 40-12 60-13 87-1 13-1 29-2 36-1 17-2 31-1 52 2 24 2 23-17 31-9 4-16 7-34 19-15 10-26 16-37 21-7 4-14 9-15 13-1 1-2 6-2 11-1 4-1 9-2 11-7 18-15 42-15 45 0 2-1 6-1 9-3 12-5 27-5 36 1 8 1 9 3 11l2 2h47c48 0 75 0 77-1 1-1 4-1 7 0 4 1 37 1 84 1 43 1 79 1 79 2h18c10-1 57-1 105-1z"/></svg>