<svg xmlns="http://www.w3.org/2000/svg" width="1344" height="566"><path d="M0 283V0h1344v566H0V283m932 278c115-1 124-1 130-5 2-1 4-3 5-4 1-3 1-4-1-10-8-25-20-46-47-82-9-11-19-25-23-30-4-6-11-15-14-20-6-7-15-22-15-25 0-1-13-27-18-35-7-11-9-18-10-25v-10c1-2 5-7 10-12 8-8 9-9 15-24 6-14 7-16 9-31 2-8 4-20 6-24 10-37 10-38 11-52 1-30-4-53-17-81-8-16-14-25-28-39-19-18-30-25-51-32-15-4-19-5-54-5-64 1-73 2-100 16-12 6-13 7-24 18-9 9-13 14-18 21-8 13-13 26-17 41-5 20-6 30-4 49 1 9 2 19 2 21 2 10 4 30 5 48 1 19 3 30 9 63 2 11 4 24 5 28 4 31 9 44 18 52 7 7 15 10 36 12 15 2 21 5 21 12 0 4-2 6-15 16-17 15-23 24-37 50-4 9-10 19-13 23-4 8-5 9-5 16s0 9 4 19c5 17 11 28 16 32 9 6 11 7 37 8 13 1 25 1 26 1 2 1 11 0 20 0h126z"/></svg>