<svg xmlns="http://www.w3.org/2000/svg" width="1344" height="566"><path d="M0 283V0h1344v566H0V283m605 277c254 1 261 1 265-2 6-3 8-6 10-17 2-15 2-42 1-55-3-31-6-40-13-50-8-11-34-32-69-54-9-6-13-9-19-17-9-10-18-24-27-43l-6-13 3-8c2-4 9-20 17-35 18-35 22-46 25-64 1-6 3-16 4-21 8-30 8-63 0-89-3-13-12-29-19-38-11-13-30-27-42-33-6-2-8-2-23-3-12-1-19-1-24-3-7-2-9-2-21-2-17 1-26 3-39 10-25 13-43 34-52 59-4 11-5 19-6 42s-2 27-6 35c-5 9-7 20-5 33 1 8 2 11 4 16 3 5 18 21 24 26 1 2 4 5 5 8 3 7 6 22 6 30 0 10-3 25-7 34-4 7-16 20-23 25-2 2-6 5-8 6-5 5-34 19-43 21-3 1-14 5-26 9-39 13-48 17-56 24-9 9-9 9-30 82-8 27-16 56-19 67-2 13-1 18 6 20h4c0 1 32 1 70 0h139z"/></svg>