<svg xmlns="http://www.w3.org/2000/svg" width="1344" height="566"><path d="M0 283V0h1344v566H0V283m596 278c11-1 48-1 101-1 77 0 84 0 87-1 6-3 7-7 6-27 0-19-1-26-8-56-6-23-10-36-15-48l-4-9 1-10c0-10 0-10-2-13-2-1-6-4-11-6-24-12-55-26-56-26 0 0-13-5-23-10s-15-8-16-11c0-2 1-11 9-60 4-24 5-35 5-51 0-15-2-39-3-44-1-2-1-10-2-18-1-18-5-34-15-68-3-12-17-39-24-48-5-7-17-19-25-24-7-5-31-17-41-20-9-3-10-3-19-3-9 1-16 3-29 7-3 2-9 3-16 4-5 0-12 2-14 2-15 6-34 24-45 44-8 14-14 31-21 60-8 35-19 91-22 120-2 18-1 51 1 68 1 6 2 14 2 17-1 6-1 7-4 10-4 3-4 3-15 3-18 2-32 6-58 21-5 3-14 8-21 11-13 7-21 13-24 19-1 2-3 9-4 16-1 6-3 15-5 19-1 4-3 12-4 18-2 9-4 16-10 40-2 6-4 15-5 21s-3 15-5 21c-6 21-4 25 12 30 5 1 26 1 115 1h38c73 3 166 3 189 2z"/></svg>