<svg xmlns="http://www.w3.org/2000/svg" width="1344" height="566"><path d="M0 283V0h1344v566H0V283m1034 198c2-1 4-5 5-16 1-12 3-16 22-40 13-17 13-16 15-26 1-5 2-12 3-17 0-8 0-10-2-18-3-10-8-21-14-31-3-6-4-8-4-15-1-5-2-12-2-17-1-5-1-29-2-53 0-24 0-45-1-46 0-1-1-5-2-10-1-10-3-15-9-23s-21-19-27-19c-1 0-4-1-6-2-4-2-8-2-20-3h-16l-5 3c-4 3-7 5-10 11-3 4-10 12-16 19-9 9-11 12-15 19-4 9-4 10-6 28-1 10-1 19-1 21 1 1 3 5 6 8 6 6 6 9 3 12-4 4-20 8-24 6 0 0-2-2-3-5-3-6-7-8-14-6-3 1-7 2-9 3-3 2-11 12-15 19-2 5-2 6-2 21 1 15 1 16-2 27-1 6-3 12-4 12 0 1-4 5-9 8-11 7-13 11-14 24v23c1 11 1 14 4 19 2 5 3 6 10 9 4 1 11 4 15 5 4 2 9 5 12 7 4 4 7 6 13 7 5 2 9 3 10 3s4 1 6 2c3 1 10 3 16 4 11 3 24 6 64 18 22 6 41 11 45 11 1 0 4-1 5-2z"/></svg>