<svg xmlns="http://www.w3.org/2000/svg" width="1344" height="566"><path d="M0 283V0h1344v566H0V283m869 279c13 0 61-1 107-1 80 0 141-1 146-3 8-2 4-7-22-30-11-10-23-21-26-24-11-14-16-18-27-24-6-3-14-9-19-13-5-3-15-10-22-15-11-7-14-9-17-14l-8-12c-3-4-7-10-8-12-2-2-5-6-6-9-2-2-8-10-14-18s-15-18-20-23c-13-14-12-13-24-47-5-15-4-17 5-23 3-2 7-5 8-7 8-8 16-25 17-35 5-38 6-53 5-74-1-17-3-29-9-47-5-18-11-30-24-46-17-22-28-29-63-41-24-9-27-10-46-11-19 0-28 1-42 6-4 1-16 6-26 10-11 4-23 8-26 9-10 3-27 11-34 16-13 9-28 28-36 45s-11 41-8 65c2 20 4 29 14 55 3 10 3 11 4 31 1 17 1 21 4 30 5 21 24 71 34 92 7 13 15 21 28 25 2 1 4 2 5 3 2 2 2 3-39 22-16 8-33 17-39 22-8 6-17 16-20 21-4 7-6 20-6 41 0 19 1 27 4 30s24 4 90 5c33 1 61 1 61 1 1 1 74 1 99 0z"/></svg>