<svg xmlns="http://www.w3.org/2000/svg" width="1344" height="566"><path d="M0 283V0h1344v566H0V283m992 277c6-1 10-3 11-6 1-2 0-5-3-13-2-5-4-13-5-17-1-5-2-11-3-15-2-4-4-12-5-17s-3-13-4-18c-7-21-10-34-12-45 0-6-2-14-3-18-12-31-16-44-17-50-4-17-7-26-12-38-6-13-10-15-45-23-10-2-25-9-34-14-5-3-14-11-16-15-1-3-1-12 0-20 1-4 2-9 2-13 1-3 2-10 3-15 1-10 1-15-2-39-2-18-6-32-10-39-7-15-20-27-39-36-7-3-8-3-19-3-34 0-63 11-76 28-14 18-17 39-10 63 4 11 5 23 3 30-1 3-3 6-8 11-10 10-19 23-22 34-1 3-4 10-6 16-4 11-6 20-7 30-1 9-3 13-7 17-3 4-4 6-5 12-2 15-5 23-10 29s-5 7-10 23c-3 11-5 16-8 21-9 15-14 27-19 48s-5 45 1 60c3 8 10 16 17 19 11 5 25 5 46 1 14-3 16-2 20 4 4 7 6 9 9 9h152c112 0 150 0 153-1z"/></svg>