<svg xmlns="http://www.w3.org/2000/svg" width="1344" height="566"><path d="M0 283V0h1344v566H0V283m782 279c18-1 51-1 73-2 25 0 49 0 65 1 35 1 143 0 152-2 13-3 13-8-2-46-2-6-6-17-8-24-9-23-12-29-30-52-5-6-12-15-15-21-4-5-12-17-19-27-12-18-17-26-20-36-2-5-2-5 0-9 1-3 3-4 14-9s12-5 24-6c13-1 14-1 17-7 2-4 5-21 5-26 0-1-2-8-4-15-3-6-5-14-6-18-3-12-8-32-11-38-4-7-14-18-23-24-4-3-11-7-18-11-15-8-35-21-40-27s-8-12-14-35c-3-14-6-21-13-38-4-7-8-17-10-21-4-7-14-22-24-34-11-13-31-25-45-27-12-2-43-3-88-2-26 0-50 1-54 1-10 2-14 4-24 13-19 17-27 26-40 44-16 24-19 28-32 42-12 13-16 19-19 28-3 12-1 25 8 48 2 7 5 15 7 18 3 10 16 36 21 44 7 10 10 13 20 18 13 6 14 9 18 35 2 17 4 20 14 28 4 4 9 9 12 13 2 3 9 10 15 16 17 18 27 36 25 44 0 4-7 22-13 34-2 5-6 11-9 15-13 14-18 24-24 49-8 27-11 43-12 51 0 7 0 8 3 11l2 3 19 1c18 1 34 1 103 0z"/></svg>