<svg xmlns="http://www.w3.org/2000/svg" width="1344" height="566"><path d="M0 283V0h1344v566H0V283m702 278c14-1 17-2 19-7 2-4 1-9-1-20-1-5-2-13-3-18 0-5-2-13-3-18-4-14-13-40-17-49-4-6-4-8-4-16 0-11-1-14-7-17-4-3-17-9-40-19-15-7-21-9-40-17-26-10-39-17-41-20-3-5 1-27 7-42 1-4 4-12 5-17 2-4 4-10 5-12 9-16 10-50 4-98-5-30-6-34-15-62-14-39-24-56-45-74-9-8-11-10-29-19-30-15-41-18-63-18-13 0-19 1-30 8-4 2-8 5-10 5-5 2-26 15-34 21-14 10-21 22-31 50-8 23-18 78-24 136-1 9-3 20-4 26-1 7-2 14-3 18 0 3-1 11-2 17-3 24-1 42 7 61 5 13 5 16 0 19-3 2-6 3-29 12-9 3-15 7-34 20-12 9-22 16-33 21-11 7-18 13-18 19-2 12-3 16-8 26-10 23-15 46-15 69 0 9 0 10 2 13l2 2h58c32-1 62-1 68-2 5 0 11-1 13 0 2 0 40 1 85 1 45 1 81 1 82 1 0 1 218 0 226 0z"/></svg>