<svg xmlns="http://www.w3.org/2000/svg" width="1344" height="566"><path d="M0 283V0h1344v566H0V283m865 279h139c78 0 102-1 106-5 2-2 2-2 1-6-1-2-4-10-7-16-3-7-8-17-11-24-4-12-10-22-16-30-2-2-5-8-7-12-3-6-3-9-4-20-1-9-1-16-1-21 2-20 4-33 8-56 4-21 4-25 4-40 0-14 0-17-1-19-4-6-8-5-14 3-2 3-4 6-5 6 0 0-2-1-4-3s-3-4-4-12c-3-12-5-19-8-22-4-4-9-2-13 7-1 2-2 4-4 4-1 0-2-1-4-7-4-10-6-13-10-13s-6 2-10 11c-5 10-7 11-15 6-6-4-9-3-12 1-4 6-5 13-6 28-1 19-1 20-5 22-3 2-7 1-33-10-5-1-9-3-9-3-3 0-38-16-40-18-4-3-4-5-1-18 1-5 3-19 5-29 2-19 2-23 2-43-1-25-2-35-7-49-3-7-5-12-14-26-4-7-12-16-21-22-8-6-29-18-38-21-18-6-25-7-44-7-16 0-18 0-26 2-12 4-30 14-38 20-16 13-29 30-32 43-1 3-3 7-3 9-1 2-2 6-2 8 0 3-1 7-1 9-2 5-7 20-9 27 0 3-1 11-2 18 0 7-2 15-3 19-2 8-1 24 1 33 3 8 2 12 0 15-4 6-21 13-46 20-4 1-9 3-11 4-12 3-20 5-29 5-13 0-12 1-12-28 0-21-1-24-2-26-3-5-8-4-15 4-7 7-8 6-12-11-3-10-6-14-10-15-3 0-4 0-11 10-2 3-5 7-6 7l-6-4c-3-3-6-5-7-5s-3 1-5 3c-3 2-4 6-7 18-1 2-2 5-4 7l-3 3h-8c-8-1-8-1-11 1l-3 6c-1 7 1 28 4 38 2 5 3 11 5 24 2 12 8 37 10 48 1 2 3 10 4 17 1 12 1 14 0 20-6 23-19 54-29 68-10 12-14 21-16 32-1 7 0 10 7 13 5 2 7 2 154 1 83-1 100-1 111 0 10 2 21 2 54 1h122z"/></svg>