<svg xmlns="http://www.w3.org/2000/svg" width="1344" height="566"><path d="M0 283V0h1344v566H0V283m1011 174c5-4 15-15 15-17v-10c0-7 1-8 7-22 4-7 8-16 9-20 2-3 5-8 7-10 1-3 4-8 4-11 3-9 2-26 0-34-2-9-4-12-11-21-10-12-11-16-11-22 0-2 1-12 1-22 4-41 4-43 3-51-2-13-4-20-8-27-1-4-3-8-3-9 0-3-10-18-14-22-5-4-14-8-24-9-10-2-30-1-34 2-5 3-22 22-25 27-1 1-3 5-5 7-9 10-10 13-11 22-1 5-1 18-2 28 0 9-1 18-1 19-1 3-4 2-7 0-4-4-7-4-15 0-8 3-10 6-14 16-5 10-6 16-6 28 0 9 0 12-3 20-2 6-4 11-5 12-1 2-5 4-9 7-11 6-17 16-17 30 0 11 2 19 6 26 5 9 10 12 21 14 4 1 10 3 12 4 3 1 4 2 4 6 0 3 1 4 3 6 2 1 5 2 6 3 1 0 8 3 15 6s16 6 19 6c3 1 14 4 24 7 11 3 25 7 32 9 8 2 15 3 16 4 2 0 6 1 10 1 6 0 7 0 11-3z"/></svg>