<svg xmlns="http://www.w3.org/2000/svg" width="1344" height="566"><path d="M0 283V0h1344v566H0V283m774 279c13-1 26-1 34 0 10 1 17 1 26 0 7-1 19-1 26-1h130c62-1 105-1 108-2 7-1 8-4 8-13-1-10-2-14-12-45-4-13-8-26-9-29-1-2-5-16-10-30-10-31-17-47-25-55-9-11-27-19-62-30-5-1-13-4-18-5-5-2-15-5-23-7-26-8-30-11-58-37-20-17-22-19-34-27s-14-10-19-25c-3-8-3-9-3-25 0-14 0-17 1-20 3-5 8-10 14-14 11-7 15-17 14-39 0-13 0-14-4-26-2-6-6-18-8-25-9-32-19-58-28-71-4-5-10-13-15-18-7-7-10-9-15-11l-6-2-71-1c-79 0-80 0-91 6-11 5-22 17-29 32-9 19-13 42-13 76 0 17 0 23 2 34 7 40 9 47 26 76 17 30 20 35 33 43 14 9 48 40 48 44 0 6-7 16-25 33-15 15-25 23-39 31-23 14-52 30-62 35-15 7-23 13-32 23-8 8-14 18-16 29-2 6-2 36 0 53 1 7 2 17 2 22 1 16 4 18 17 19 5 1 42 1 82 1 41 1 74 1 74 1 1 1 60 0 82 0z"/></svg>