<svg xmlns="http://www.w3.org/2000/svg" width="1344" height="566"><path d="M0 283V0h1344v566H0V283m550 277c3 0 9 0 13-1h17c4 1 34 1 66 1 59-1 60-1 62-5 1-1 1-12 2-25 1-43 2-55 4-58s1-3 24-2c11 1 20 1 40-1 15-1 28-3 30-3 3 0 9-1 14-2 5 0 13-1 16-2 4 0 10-1 14-2 4 0 9-1 13-2s10-3 15-4c22-6 50-19 58-26 9-9 18-23 18-28 0-7-14-32-26-47-15-19-27-30-47-38-16-8-18-9-26-18-5-5-11-11-14-13-5-3-7-4-15-5-7-1-10-2-20-8-7-3-16-8-20-10-8-5-9-5-15-5-4 1-8 0-11-1-15-5-53-26-57-31-2-4-5-13-6-26-4-36-11-61-22-77-7-9-11-14-20-21-14-12-34-19-67-26-12-2-16-2-25-2-23 1-52 15-75 34-6 5-11 12-16 20-1 3-6 10-9 16-9 16-18 36-21 46-4 12-6 16-14 23-11 8-18 13-28 18-5 3-17 10-27 17-18 12-36 22-47 26-22 8-26 11-32 18-6 6-16 22-19 28-5 13-5 42 0 63 2 10 4 13 13 25 8 10 14 20 14 22 0 1 1 4 3 8 1 3 3 8 3 11 1 6 4 12 9 17 7 9 8 17 8 58-1 32-1 35 3 37 1 0 30 0 65 1 73 0 122 1 123 2 0 0 13 0 32-2z"/></svg>