<svg xmlns="http://www.w3.org/2000/svg" width="1344" height="566"><path d="M0 283V0h1344v566H0V283m913 278 21-1 12-5c7-3 14-6 16-7 4-1 10-7 12-12 1-2 2-8 3-13 1-7 1-9 0-12-2-5-10-16-12-18-1 0-9-1-18-1s-21-1-27-2c-7-1-15-1-20-2-12-1-13-2-16-10-4-15-14-17-37-7-14 5-20 10-34 22-12 9-13 10-26 13-16 4-18 4-21 2s-8-12-15-28c-6-14-16-36-31-68-7-14-13-29-14-32l-2-5 6-9c3-5 7-11 9-13 3-2 7-6 10-9 4-3 9-7 11-9s7-6 10-9c4-4 9-8 11-10 8-6 9-7 12-25 2-9 3-18 4-19 0-4 20-45 27-59 3-5 9-16 13-23 11-20 10-22-5-39-5-5-12-14-16-20-9-15-17-23-36-36-17-12-40-22-61-28s-43-4-69 6c-10 4-11 5-22 14-22 20-33 35-47 62-16 32-25 40-47 46-18 5-28 9-32 11-9 6-29 29-31 36 0 2-2 10-2 17-2 10-3 18-5 25-5 15-6 17-3 21 1 2 5 5 8 8 10 7 10 8 10 12-1 5-2 7-14 29-10 17-10 17-16 32-2 7-5 14-6 17-2 3-6 12-9 19-4 8-8 18-9 22-1 7-1 7 1 16 2 11 3 27 1 42-1 11-3 13-8 11-6-1-17-9-28-17-5-5-13-10-16-13-7-4-18-15-53-51l-18-18v-6c1-4 2-8 3-10 0-2 1-5 2-7 0-2 3-11 5-19 5-15 5-17 5-27 0-15-2-28-4-34-1-2-5-8-10-12-6-7-7-8-7-12 0-2 1-7 2-11 4-14 4-42-1-48l-4-4c-3-1-3-1-8 2-4 3-8 7-13 13-4 5-8 11-9 12-2 3-2 4-3 16 0 10-1 13-2 14-2 2-18 6-23 6-9 0-19 8-28 24-9 14-13 27-15 46-1 7-2 15-3 17-1 3-1 10-2 17-1 15-4 23-12 28-5 4-7 7-7 10 0 2 7 11 15 19 6 6 10 16 12 25 1 8 10 27 16 35 2 2 7 8 11 12s7 8 7 9 11 12 14 14c1 0 6 3 12 4 17 6 36 8 79 7 9 0 39 0 66 1 41 1 52 1 58 3 7 1 18 1 96 2 66 0 92 0 101-1 13-2 19-2 46-1 10 1 56 1 104 1 48 1 90 2 94 2s8 1 9 1 11 0 23-1z"/></svg>