<svg xmlns="http://www.w3.org/2000/svg" width="1344" height="566"><path d="M0 283V0h1344v566H0V283m158 275c3-1 9-2 12-3 11-1 15-3 20-10 3-4 8-9 12-12 7-5 29-17 34-18 4-1 6-5 7-14 0-4 3-14 6-23 5-18 7-22 11-27 5-6 8-7 17-7 8 0 10-1 10-5 0-3-3-8-11-18-10-12-19-16-35-16-5-1-10-1-11-2-5-2-11-1-15 1-2 1-6 5-9 9-6 8-9 15-10 31-1 13-2 21-4 24-1 2-6 4-9 4-2 0-3 1-5 1-2 2-13 6-16 6s-6-2-11-6c-2-2-14-9-26-15-27-14-37-19-39-20-1-1-7-5-14-9-8-4-17-10-21-12-13-8-15-9-19-15-3-3-7-9-9-13-4-8-12-19-16-21-1-1-3-1-4 0-2 0-2 1-2 69l1 69 3 1c2 0 4-1 13-12 10-11 13-15 17-22 1-2 5-4 8-6l5-2 3 2c1 1 4 3 5 3 1 1 5 3 9 5 5 2 8 3 12 3s7 1 9 1c3 2 12 13 18 23 2 5 6 10 7 13 2 2 4 7 6 11 1 4 3 8 4 9 1 0 3 4 5 6 4 8 13 15 20 17 4 1 6 1 12 0z"/></svg>