<svg xmlns="http://www.w3.org/2000/svg" width="1344" height="566"><path d="M0 283V0h1344v566H0V283m604 277c14-1 61-1 114-1l91 1 3-3 2-3v-14c0-8 0-18-1-22-3-21-18-72-26-87-4-10-5-12-2-23 1-6 1-6-1-9s-11-8-27-15c-5-2-16-7-25-11-10-4-24-11-32-14-20-9-23-11-25-14s-2-5-2-13c1-10 5-43 7-66 3-18 3-25 2-33 0-4-1-18-2-30-1-22-2-29-6-58-3-20-8-42-13-51-18-42-33-58-69-76-15-7-26-10-35-10-8 0-21 3-30 7-4 2-9 3-18 4-16 1-25 6-37 18-24 24-36 54-47 115-5 29-6 31-7 46-1 7-3 19-4 28-2 13-2 20-2 46 0 28 0 31 2 40 4 20 4 25-3 30-5 4-13 7-23 7-9 1-25 6-41 13-13 5-49 25-53 29-4 3-6 8-7 19-2 10-8 31-14 44-4 11-6 15-10 29-8 30-14 56-14 63 0 5 3 9 8 11 7 3 51 3 115 1 23 0 77 1 119 3 19 1 84 0 113-1z"/></svg>