<svg xmlns="http://www.w3.org/2000/svg" width="1344" height="566"><path d="M0 283V0h1344v566H0V283m884 278c91 0 96 0 138-2 18-1 38-2 44-1 13 0 47 1 84 3 23 1 27 1 48-1 13-1 26-2 30-2 9 0 10-1 10-9-1-8-6-19-18-39-11-19-20-31-29-38-5-5-23-14-45-24-5-2-13-6-17-9-5-3-16-9-25-14-25-13-28-15-42-30-17-19-23-22-39-17-3 0-9 1-13 2-7 0-8 0-11-2-5-5-14-25-15-36 0-5 0-6 4-15 7-13 10-22 11-33 1-15 4-24 17-55 16-37 22-63 22-97 0-12-2-21-8-35-3-9-4-10-11-15-4-4-8-8-9-10s-4-5-5-6c-5-2-7-7-10-14-2-8-6-11-18-11-11 0-13-1-23-10-3-4-8-7-9-8-2-1-7-1-12-1-7 0-11 0-15-2-5-1-8-1-22-1-43 0-60 3-89 17-22 9-45 27-56 44-11 16-13 21-17 47-2 15-6 29-13 51-3 9-5 18-6 22-1 5 0 20 2 30 0 2 0 16 1 31 0 16 0 33 1 38 1 4 2 16 2 25l1 16 6 12c6 12 16 40 18 52 2 10 11 22 26 35 3 3 5 5 5 6 0 5-14 14-37 26-8 4-14 8-22 14-6 4-18 18-22 26-4 6-8 10-18 15-7 3-9 5-12 10-6 9-4 14 7 16 3 0 35 1 72 0 37 0 99 0 139-1z"/></svg>