<svg xmlns="http://www.w3.org/2000/svg" width="1344" height="566"><path d="M0 283V0h1344v566H0V283m489 125c14-5 20-8 34-14 19-10 24-10 22-2 0 3 0 4 3 5 4 3 21 5 44 7 7 1 16 1 21 2 9 1 57 3 58 2 1 0 49-2 67-2 14-1 32-3 42-5 2-1 7-2 9-3 7-1 32-8 39-10 6-2 23-2 34-1 7 1 8 1 9-1 3-3 3-12 1-30-3-20-4-23-8-28l-3-4 1-10c0-9 0-10-4-18-3-7-4-8-10-12-3-3-8-7-10-10-3-5-4-5-15-8-5-1-7-2-6-4s3-2 11-2 9 0 12-2c1-2 2-3 2-4 0-2-4-21-7-32-5-21-7-30-10-46-3-13-5-19-8-27-11-24-22-37-42-51-18-12-29-17-45-18-9 0-12 0-21 2-6 2-16 4-21 5-7 2-11 3-16 6-7 5-16 14-21 23-6 11-12 30-13 43-1 7-4 23-7 35-4 16-5 25-6 40-1 19-2 20-10 18-12-1-13-1-22 5-13 9-23 22-30 38-6 13-20 30-28 34-2 1-7 3-11 4-5 1-13 4-18 6-8 2-11 3-20 4-11 0-16 2-19 7-2 4-11 23-13 30-1 2-3 8-6 14-4 11-5 13-2 15 1 2 3 2 18 2 16 0 17 0 25-3z"/></svg>