<svg xmlns="http://www.w3.org/2000/svg" width="1344" height="566"><path d="M0 283V0h1344v566H0V283m288 278c12-1 46-1 94 0 90 0 91 0 102-1 10-1 12-1 100-1 61 1 132 2 231 4 33 0 33 0 37-6 4-9-4-27-21-45-7-8-16-14-25-18-12-6-38-15-45-17-4-1-12-4-20-6-7-2-19-6-26-8-20-5-23-7-32-17-8-9-13-17-13-21 0-1 2-5 5-9 7-11 21-39 24-48 2-4 8-16 13-28 5-10 12-25 14-31 8-21 13-47 15-82 1-12 2-30 3-38 3-40-2-69-17-104s-24-47-47-64c-14-10-17-12-24-14s-8-3-88-3c-66 0-80 1-84 2-6 1-17 8-28 18-28 22-43 56-48 108-1 16-4 27-6 37-6 17-7 25-7 39s0 15 3 25c4 13 4 18 0 37-3 10-3 16-3 24l-1 11 9 18c11 22 15 32 18 45 4 15 4 15-6 30-9 14-28 38-34 42-7 5-33 15-58 21-24 7-46 13-55 17-24 9-32 12-44 18s-14 7-22 14c-12 13-18 27-17 38 1 9 6 13 16 14 7 1 65 0 87-1z"/></svg>