<svg xmlns="http://www.w3.org/2000/svg" width="1344" height="566"><path d="M0 283V0h1344v566H0V283m734 179c3-1 10-1 16-2 5 0 13-2 17-3s10-2 13-3c12-2 19-4 28-6 6-2 13-4 16-4 4-1 12-3 18-5l12-3h21c21 1 21 1 24-1 2-2 2-3 2-10 0-5-1-13-3-21-3-14-4-44-2-57l1-9-3-7c-2-5-5-9-8-11-4-4-13-9-15-9-1 0-4-1-6-3-4-3-6-5-8-9-2-5-3-6-11-8-4-1-7-3-9-4-3-2-3-2-2-4 2-1 5-2 11-2 5 0 10-1 11-1 0-1 1-4 1-7 0-8-3-32-6-44-9-33-11-40-19-67-1-2-2-7-3-10-3-15-4-19-7-28-4-11-12-27-18-37s-21-24-34-32c-15-10-27-16-35-18-10-2-26-1-40 3-6 1-13 3-16 4-8 0-18 3-24 7-7 3-12 8-18 16-12 18-18 36-21 65-1 7-2 15-3 17 0 2-1 8-1 11-1 4-2 11-3 15-2 12-3 68-1 94 1 19 1 21 0 23-2 1-21 6-27 6-2 0-6-1-9-2-7-2-30-2-34 0-1 1-5 4-9 7-3 3-12 9-18 13-7 5-20 14-29 20-10 6-20 14-24 17-9 8-16 11-25 11h-7l-3 4c-2 2-3 6-4 7 0 4-7 20-11 27-4 8-6 15-12 32-2 7-5 14-6 17-4 7-3 8 4 8 8 0 13-2 22-6 10-4 16-6 27-8 3 0 10-1 14-2s10-1 18 0h24c10 0 13-1 16-2 4-3 16-3 24 0 29 9 57 11 88 8 11-1 15-1 21 0 4 0 14 1 21 2 18 1 32 5 38 9 5 4 5 4 13 3 5 0 11-1 13-1z"/></svg>