<svg xmlns="http://www.w3.org/2000/svg" width="1344" height="566"><path d="M0 283V0h1344v566H0V283m513 278c40 0 95 0 121-1 27 0 63-1 80 0h160l2-2c3-3 3-10-1-25-2-6-3-16-4-22-1-7-2-12-4-15-4-10-8-13-25-19-5-1-17-7-27-12-18-8-22-10-43-18-19-8-20-9-24-12-4-5-6-10-4-21 2-16 3-20 4-30 1-6 2-14 3-17 1-4 3-12 5-17 7-18 14-42 16-58 2-13 2-17 2-47-1-18-1-37-2-42 0-5-2-17-3-25 0-9-2-23-3-32-2-29-5-42-15-60-8-17-17-28-29-36-12-7-44-18-78-27-21-5-33-7-48-7-19 0-31 4-65 21-24 13-34 20-45 35-10 13-26 49-32 69-3 11-4 21-10 67-3 23-6 48-7 56s-2 17-3 21c0 4-1 11-2 15 0 5-1 13-1 18 0 4 0 11-1 16-2 16-4 43-5 60-2 42-5 49-24 67-7 7-16 14-20 17-5 3-15 10-23 16s-19 14-26 18c-6 4-14 9-16 12-5 4-5 5-8 16-5 16-5 21 2 22 1 1 30 1 66 0 35 0 97 0 137-1z"/></svg>