<svg xmlns="http://www.w3.org/2000/svg" width="1344" height="566"><path d="M0 283V0h1344v566H0V283m892 276c21-1 30-1 84 1 9 0 23-2 27-5 7-4 19-23 22-35 2-6 0-23-3-29-2-5-13-16-17-19-4-2-7-1-11 2-2 2-6 5-9 6-8 4-8 5-8 18 1 8 1 11 0 12-1 0-2-1-3-2-7-10-10-11-19-5l-6 4-6-1c-6-1-16-6-26-13-5-2-12-6-21-9-18-6-19-7-27-14-4-5-7-7-10-8-7-2-11 0-27 16-7 7-14 13-16 14-3 2-10 2-14 1-5-2-8-6-15-21-3-8-11-23-17-35s-15-30-21-40c-12-24-20-39-27-50-9-14-9-19-2-25 3-2 11-10 20-18s18-16 21-18c10-7 12-10 15-30 2-18 2-18 13-42l16-32c5-12 12-26 15-31 6-10 7-14 7-19s-1-8-11-19c-4-5-10-13-13-18-8-14-12-19-22-28-22-18-47-31-74-39-22-7-48-7-67 0-19 6-37 18-55 38-10 10-11 11-23 39-10 20-13 26-21 34-7 8-14 11-38 18-10 3-21 7-24 8-6 3-22 17-29 25-6 8-8 12-13 26-2 7-5 18-7 25-7 22-7 28 1 35 7 7 23 13 35 13 5 0 9 2 9 5s-2 7-12 21c-4 7-10 17-13 21-5 11-26 56-31 71-7 18-7 16-4 55 2 22 2 27 1 62-1 29-1 30 1 32 4 4 9 4 43 4 44-1 233-1 234 0 0 1 180 0 198-1m-557-5h62c5-2 3-6-5-16-8-9-55-42-69-48-15-7-19-9-39-30-13-14-19-21-20-23-2-5-1-11 6-32 8-27 9-33 7-53-2-19-4-24-13-32-3-4-7-8-8-10-2-4-2-4-1-11 4-14 5-36 2-47-1-5-6-9-10-9s-11 5-15 12c-9 13-11 18-12 34-1 10-1 13-3 14-2 2-16 5-25 5-4 0-6 1-9 3-7 4-13 12-18 21-7 13-9 20-12 46-5 36-8 49-15 53-1 1-4 3-7 5-4 3-5 3-10 3s-7 1-10 3c-2 1-5 3-8 4-2 1-4 2-5 3-1 2 0 7 3 15 1 2 3 9 3 15 2 12 5 19 13 29 2 2 5 7 7 11 3 5 6 8 12 11 3 3 9 7 13 9 10 8 17 10 46 13s44 4 63 3c10 0 44 0 77-1z"/></svg>