<svg xmlns="http://www.w3.org/2000/svg" width="1344" height="566"><path d="M0 283V0h1344v566H0V283m449 277h191c165-1 315-1 338 0 12 1 29 1 38 1 10-1 23-1 30-2 8 0 15-1 19-2 7-2 16-1 22 2 7 3 31 3 73 2 38-1 41-2 43-7 1-3-1-14-3-28-2-6-4-18-6-26-3-19-4-23-9-28-4-5-7-7-21-10-13-3-14-4-17-8-4-5-10-19-12-25-1-3-3-11-6-18-3-8-7-19-9-26-4-13-21-63-25-75-1-3-5-16-8-27-7-26-9-33-14-46-6-13-9-17-14-20-8-4-13-2-17 6s-5 8-11-4c-13-24-20-35-27-38s-10-3-15 1c-3 2-6 4-7 4s-4-2-7-5c-8-9-16-11-21-7-4 3-6 7-6 14-1 9-2 10-7 9-6 0-10 3-13 8-2 5-2 26 0 37 1 4 3 11 4 16 0 5 3 13 5 18 12 34 13 39 14 48 2 17 4 24 15 40 11 17 19 28 46 63 18 25 26 37 36 57 6 13 14 34 15 43 1 3 1 4-1 6-4 4-8 4-14 1-3-1-10-6-16-9-7-4-17-10-22-13-15-8-22-13-27-19-1-3-3-6-3-6 0-2-15-32-19-39-7-10-36-35-51-44-14-8-15-9-40-8-12 0-31 0-40 1-21 2-43 3-48 1s-5-4-5-19c0-14 2-31 5-51 2-10 3-13 7-20 3-5 5-11 7-19 2-9 2-12 2-22-1-14-4-25-12-50-12-33-17-43-41-88-15-27-17-31-31-44-19-19-45-35-71-43-7-2-23-5-33-6s-29 0-42 2c-5 1-11 2-15 3-9 0-16 2-33 8-40 13-60 29-81 67-13 22-19 43-21 62v10l5 16 5 16v15c-1 35-1 37 4 49 7 19 8 22 9 36 1 15 4 28 9 37 6 11 20 27 38 41 8 6 10 11 10 21 0 9-3 18-11 32-10 18-23 28-43 35-7 2-13 4-14 4-3 0-5-3-6-15-3-16-5-28-10-40-6-17-9-21-18-21-4 0-5 1-8 4-8 8-10 20-10 50 0 21-1 26-5 27-2 0-4-2-7-11-7-20-14-55-15-80-1-16-5-43-7-52-1-4-3-10-4-12-3-5-8-9-12-9-3 0-7 4-8 8-2 7-4 36-5 59 0 25-1 29-5 24-1-2-2-5-3-8 0-2-2-7-3-11-2-4-4-11-6-16-4-10-14-34-18-44-3-7-8-13-13-15s-10-3-13-1c-3 0-5 5-5 9 0 2 3 16 9 37 1 6 3 15 4 19 4 24 9 47 11 53 1 7 1 10-2 9-4-2-17-25-31-56-5-10-10-20-12-22-5-7-15-8-20-2-2 2-2 3-2 8 0 4 0 9 1 11s4 11 6 18c6 18 9 29 12 36 1 3 4 10 6 15 1 4 3 10 4 12 2 4 1 6-2 5-1-1-8-8-15-16-13-15-20-21-27-24-5-2-9-1-12 1-3 4-3 10 1 19 4 13 11 23 37 55 9 11 17 21 18 24 4 5 15 17 19 20 2 1 5 3 6 3 2 1 27 1 55 0 28 0 89 0 134-1z"/></svg>