<svg xmlns="http://www.w3.org/2000/svg" width="1344" height="566"><path d="M0 283V0h1344v566H0V283m625 277h49c22 0 63 1 90 1l50-1 2-2c5-4 5-9 5-26-1-15-2-18-5-33-8-30-16-56-22-68l-4-9 1-8c2-13 2-13-20-23-9-5-17-9-18-9 0 0-9-4-20-9s-24-11-31-14c-20-10-22-11-21-22 1-8 10-56 13-72 5-20 5-33 0-69-1-10-2-24-3-30-1-15-6-40-8-51-2-9-11-31-16-40-9-19-32-41-54-52-10-5-26-11-32-12-9-2-20 0-32 5-5 1-13 3-17 4-20 3-26 5-36 12-11 9-21 23-30 40-10 22-18 48-26 92-12 57-15 73-16 87-2 16-1 47 1 58 3 11 2 16-1 22-3 7-6 8-22 11-6 2-16 4-21 6-15 5-68 29-75 34-5 4-8 10-11 21-1 7-4 15-9 25-7 14-9 20-19 57-2 6-5 17-7 25-8 25-9 31-9 38 0 6 0 7 2 9 2 1 5 2 8 2 3 1 73 1 156 1 83 1 151 1 152 1 0 1 48 0 56-1z"/></svg>