<svg xmlns="http://www.w3.org/2000/svg" width="1344" height="566"><path d="M0 283V0h1344v566H0V283m889 273c2-1 4-5 6-11 2-8 2-9 2-29 0-15 0-22 2-27 1-5 1-9 1-13-2-16-9-57-11-59 0-1 0-6-1-11-1-14-3-26-7-40-2-6-4-14-5-18 0-3-2-9-3-12-3-8-5-15-9-34-1-7-3-16-4-18-4-11-8-21-11-26-5-9-16-23-23-29-5-5-8-6-21-12-7-3-15-11-16-17 0-6 1-21 3-26 1-6 4-26 4-34 0-11-1-17-6-25-11-23-31-33-58-32-7 1-11 2-14 3-2 1-6 2-9 3-8 2-17 7-25 14-18 18-25 32-25 51 0 10 0 10 2 12 4 3 4 6 7 21 2 17 1 21-5 30-6 7-11 17-14 27-2 6-12 27-15 30 0 1-4 8-8 16-5 9-10 18-13 22-15 19-25 30-32 36-3 1-11 8-29 24-7 6-13 10-20 14-13 6-14 6-34 2-15-2-48-5-56-3-9 1-12 4-11 13 2 14 2 13-1 16-2 2-4 3-5 3-6 0-9 5-9 15 0 5 1 7 3 12 2 4 5 8 7 10 3 4 4 4 10 4 3 0 9-1 14-2 5 0 12-2 16-2 13-2 33-7 70-19 25-9 22-9 33 2 7 7 11 11 13 15 2 6 2 7 2 15l-1 9 4 8c2 5 5 9 6 10 3 3 6 2 10-3 7-9 8-9 13-9 13 2 26 2 30 1 6-1 8 0 5 6-3 9-4 16-4 25s0 10 3 14c2 2 4 5 5 5 1 1 5 5 8 9 10 11 10 11 42 15 5 1 26 1 54 0 24 0 52 0 61 1 8 0 27 1 41 1l26-1 2-2z"/></svg>