<svg xmlns="http://www.w3.org/2000/svg" width="1344" height="566"><path d="M0 283V0h1344v566H0V283m686 268c11-5 14-13 16-37 1-13 3-24 6-38 2-7 2-13 5-46 1-8 2-19 2-24 1-4 2-12 2-17 4-37 9-57 16-76 2-4 3-9 3-11 0-8 3-21 6-27 1-3 3-7 4-10 0-2 1-6 2-8 3-8 5-15 6-20s2-6 6-11l6-5-5-4c-5-5-5-5-6-12-1-6-2-9-4-13-1-3-4-10-6-15s-4-11-5-13c-1-3-2-7-3-10-4-15-8-25-15-32-3-4-6-5-11-7-13-4-17-3-29 11-6 6-11 14-14 24-3 6-6 21-6 27 0 7-1 9-7 11-4 2-12 7-25 18-9 7-13 9-28 14-11 3-16 6-24 14-7 7-12 9-17 9-8 0-16 5-16 10s5 13 9 15 5 2 18 1c23-2 24-2 26-9 2-4 10-8 18-10 15-3 31-7 36-9 2-1 5-2 5-2 3 0 5 4 6 10 1 4 2 8 3 10 3 4 2 6-4 10-3 2-4 4-4 5s-1 4-2 5c-6 10-6 9-6 20 0 5 1 12 2 16 0 3 1 9 2 13 0 7 0 9-2 13-2 5-2 7-2 12 1 8-1 18-5 29-3 9-2 21 2 24 3 3 9 2 11 0s4-13 4-20c0-2 3-13 7-25 1-3 3-7 5-9 3-3 3-3 5-2 1 2 2 5 2 60 0 101 1 93-4 107-7 26-7 28-2 33 3 3 7 4 11 1z"/></svg>