<svg xmlns="http://www.w3.org/2000/svg" width="1344" height="566"><path d="M0 283V0h1344v566H0V283m937 276c45-1 50-1 53-3 3-3-1-13-17-44-8-16-12-25-15-35-3-9-7-18-11-26-10-17-20-38-21-43 0-6-11-26-22-43-8-13-10-16-15-25-16-28-22-44-18-51 1-2 6-7 12-13 8-8 11-12 13-17 4-9 7-21 8-33 0-4 1-16 3-24 2-20 4-43 2-53-4-28-4-31-12-51-5-14-7-18-14-29-13-17-31-34-51-44-14-7-18-9-32-11-16-3-48-3-57-1-4 1-11 3-16 4-6 0-15 2-19 3-5 2-14 4-19 5-15 4-26 8-39 17-15 10-27 22-33 34-12 26-17 46-17 74 0 24 1 34 9 61 2 7 6 21 8 33 2 10 5 22 5 24 1 2 3 8 4 12 16 57 24 78 34 89 10 9 20 13 41 14 13 1 16 2 21 8 4 6 10 17 10 19 0 4-2 6-15 20-6 7-15 17-20 24-5 6-14 16-21 24-15 14-19 20-26 37-8 19-10 34-6 38 6 5 12 6 52 7 42 1 185 0 241-1z"/></svg>