<svg xmlns="http://www.w3.org/2000/svg" width="1344" height="566"><path d="M0 283V0h1344v566H0V283m901 278c40-1 75-1 133 0 77 1 86 1 112-2 14-1 16-4 11-15-6-12-13-20-35-43-21-20-28-26-50-42-6-3-12-8-14-10-2-1-7-5-10-7-16-11-21-16-30-26-5-5-10-11-11-13-1-3-17-27-25-39-7-10-16-24-19-31-2-4-6-10-9-15-15-21-20-29-21-33 0-4 0-4 4-8 2-2 8-7 13-12 8-8 9-9 13-18 5-13 6-19 6-52 0-43-3-66-9-86-5-14-6-16-11-25-13-28-28-41-65-61-19-10-33-13-59-13-22 0-38 3-56 11-6 3-25 9-34 11-14 4-33 16-45 29-5 5-13 16-18 25-6 10-10 27-12 45-1 6-2 15-3 19-3 21 0 41 10 70 7 18 10 28 13 39 4 15 5 18 8 27 10 30 18 49 34 76 8 14 14 20 23 24 2 1 5 3 7 4 3 2 7 2 15 3 11 0 14 1 14 3 0 1-5 6-10 12-9 9-12 12-21 17-10 6-13 7-33 23s-27 26-30 45c-1 4 0 12 1 22 1 16 1 17 0 21-2 4-2 12-1 17 2 6 4 7 16 8 18 1 140 1 198 0z"/></svg>