<svg xmlns="http://www.w3.org/2000/svg" width="1344" height="566"><path d="M0 283V0h1344v566H0V283m854 277c6-1 20-1 47 0h69c17 0 39 0 49 1 14 1 27 1 46 0 83-3 84-3 88-7 5-5 1-21-13-57-11-29-17-39-31-56-12-15-37-28-61-32-11-2-30-7-44-12-7-1-17-4-24-6-26-7-35-11-47-23-4-4-9-8-11-8-5-3-12-3-18-2-15 5-19 1-27-20-7-18-6-24 6-38 10-12 16-21 19-31 4-11 5-19 2-29-2-12-1-19 4-39 5-18 9-36 11-52 2-14 1-41-2-51-5-18-7-22-20-35-5-6-10-11-10-12s-3-4-6-7c-6-5-11-8-23-10-11-2-17-5-24-11-9-9-10-9-29-10h-20c-4-2-27 3-33 6-2 1-5 2-6 4-2 1-9 4-18 7-34 12-56 26-70 43-13 17-17 26-21 59-1 13-3 29-5 36-4 21-4 31-1 69 1 18 2 36 3 39 1 9 4 21 10 33 3 6 7 15 9 21s6 16 9 22c6 14 12 29 16 42 1 5 4 13 6 17 5 11 5 13-2 19-12 11-22 17-42 28-12 6-31 17-45 25-13 8-38 28-46 37-12 12-19 27-17 35 2 5 4 5 50 5 61-1 201 1 202 1 1 1 60 0 70-1z"/></svg>