<svg xmlns="http://www.w3.org/2000/svg" width="1344" height="566"><path d="M0 283V0h1344v566H0V283m866 279h129c56 0 86 0 97-1 15-1 16-1 19-3l3-3-3-8c-2-4-4-12-6-17-3-10-9-24-13-30-4-4-6-10-9-18-6-16-6-27-2-56 8-59 11-81 10-89-1-6-5-11-9-11-2 0-4 1-6 3-4 5-7 4-9-3-1-3-2-8-3-11-1-7-6-13-10-13-3 0-5 1-8 6-1 2-3 4-4 6-2 1-2 1-5-2-2-2-5-5-6-7-4-5-11-4-15 4-1 2-3 5-5 7s-4 3-7 3c-9 0-15 8-19 23-1 5-3 10-3 12-1 2-2 4-3 5-2 1-10-1-23-7-7-2-14-5-17-6-7-3-37-15-44-19-8-4-9-6-7-19 6-34 6-36 6-64 0-19 0-30-1-36-4-27-20-56-37-67-3-2-8-5-11-7-6-4-30-17-35-19-6-2-22-5-33-6-25-2-37 2-66 20-10 6-26 23-32 33-5 8-10 22-11 30s-4 19-12 46c-2 5-2 9-2 13 1 3 0 10-1 17-1 12-1 14 3 40 0 5-3 9-11 13-10 5-88 31-92 31-7 0-9-4-11-25-1-17-2-21-5-23-2-3-5-2-11 3-2 2-5 4-5 4-2 0-4-4-7-13-4-11-8-16-12-16-3 0-4 1-8 8-2 3-4 6-6 6-2 1-2 1-5-1-8-8-15-5-18 9-2 11-7 17-12 16s-11 1-13 4c-3 5-2 26 3 48 2 6 4 15 6 24 1 10 4 20 7 30 9 29 10 42 6 61-6 24-15 45-23 57-6 7-6 11-3 13 4 3 26 4 34 3 5-1 11-1 25 0 10 1 19 1 19 0 1 0 64-1 86-1 25 0 104 2 113 3 5 0 31 1 57 0h96z"/></svg>