<svg xmlns="http://www.w3.org/2000/svg" width="1344" height="566"><path d="M0 283V0h1344v566H0V283m866 277c19-1 27-6 29-15 3-10 4-23 3-33-3-25-7-46-11-53-6-13-21-25-69-55-29-18-32-21-38-33-2-4-6-10-9-15-3-4-6-11-7-14-4-10-4-11 18-74 3-7 6-16 7-18 3-7 5-16 5-26 1-5 2-18 3-28 1-23 1-48-1-62-5-24-15-50-27-65-10-14-41-35-60-41-4-1-7-1-18 0-7 0-22 0-33 1-23 0-31 1-45 7-23 9-48 39-58 69-4 13-5 31-2 60 3 17 2 25 0 33-3 8-4 22-2 31 2 10 9 23 15 30 5 4 18 11 21 11s8 4 10 8c1 2 2 7 3 10 2 12-1 17-20 36-15 15-24 22-33 27-8 4-29 12-50 18-18 5-39 11-51 16-28 10-30 12-54 69-5 11-14 32-20 46-5 15-12 31-15 38s-5 12-5 15c0 7-1 7 63 7 30 0 64 1 73 1 22 1 369 0 378-1z"/></svg>