<svg xmlns="http://www.w3.org/2000/svg" width="1344" height="566"><path d="M0 283V0h1344v566H0V283m625 277c138 0 218-1 243-2 64-3 104-3 114-2 6 1 13 1 17 1 11-2 115-1 129 0 7 0 20 1 28 1 12 0 15 0 16-2 4-4 1-16-11-38-14-27-22-39-38-54-19-18-34-26-80-41-6-1-17-5-25-8-24-8-28-10-45-15-17-6-24-9-26-14-1-2-1-5 1-16 2-8 4-17 5-21 6-32 10-46 14-51 2-2 7-6 11-8 15-7 26-19 35-37s12-36 9-49c-2-6-6-10-13-14-3-2-6-4-7-5-2-3-2-9-1-15 5-34 5-37 5-72s0-36-2-52c-3-17-6-23-12-30-5-6-9-8-21-10-9-1-22-1-122-1-101 0-113 0-125 1-8 1-15 3-17 3-6 4-18 27-24 47-5 17-6 28-9 64-3 45-4 52-6 61-2 12-2 18-1 28 1 11 5 24 13 41 3 7 6 15 7 18 2 4 4 10 6 14 5 10 23 64 23 68 1 5-3 7-14 9-19 2-40 8-47 12-5 2-7 4-12 13-4 5-9 13-12 18-11 18-23 35-30 42-4 4-12 11-19 16-12 9-20 15-34 26-5 4-19 13-31 21-25 16-42 29-54 39-9 8-10 10-8 13 3 2 28 3 65 2 15 0 62 0 105-1z"/></svg>