<svg xmlns="http://www.w3.org/2000/svg" width="1344" height="566"><path d="M0 283V0h1344v566H0V283m487 276c15-1 35-2 127-3 50 0 68 0 72 1 7 1 115 2 196 0 60-1 89-1 118 0 28 1 32 1 32-2 0-2-2-4-17-14-18-12-35-21-62-34l-25-13-8-9c-4-5-10-12-13-16-8-10-8-13-1-30 12-31 23-56 36-82 12-23 17-29 24-31 11-4 13-6 22-15 18-18 30-41 31-61 0-11-1-14-8-21-3-3-6-7-7-8 0-4 1-12 7-55 6-36 6-39 6-58 0-21 1-19-12-47-14-27-17-31-34-44-14-10-18-11-60-12-19-1-58-1-89-1-68 1-69 1-80 11-7 6-16 24-26 52-9 26-12 42-15 81-2 19-4 27-7 30 0 1-4 3-6 3-8 3-12 6-15 12-7 14-6 37 2 60 4 11 9 18 20 29 11 10 11 11 11 28 0 24-5 57-10 71-5 10-12 21-17 24l-4 2-15-1c-9-1-20-2-25-2-8 0-9 0-13 3-2 1-7 7-12 13-14 16-33 34-41 39s-16 10-25 13c-4 2-11 6-17 9-6 4-18 11-26 15-8 5-18 10-23 13-4 2-11 6-16 9-12 6-38 23-46 29s-10 9-6 11c2 1 10 2 24 2 35 1 39 1 53-1z"/></svg>