<svg xmlns="http://www.w3.org/2000/svg" width="1344" height="566"><path d="M0 283V0h1344v566H0V283m749 278c10-2 19-6 20-9 1-1 1-4 2-7 0-4 0-5-3-9-3-2-4-5-4-8-2-9-3-14-4-16 0-1-1-5-2-8-2-7-2-9 0-38 1-18 3-39 3-48 2-20 2-44 1-56-2-11-7-24-15-42-6-13-12-21-24-34-4-5-9-10-10-11-4-6-3-10 9-45 5-16 5-17 6-33 2-20 0-54-2-67-8-39-19-55-48-75-15-9-31-16-52-23-8-2-11-2-23-2-15 0-29 2-53 8-25 7-38 14-51 30-14 18-21 34-26 64-1 7-3 17-4 22-2 10-2 11-8 17-8 7-8 8-6 35 3 32 2 39-9 46-6 5-20 12-34 18-38 15-75 36-101 56-13 11-44 41-52 52-16 22-22 33-27 47-2 4-4 12-6 15-8 22-9 44-6 95 1 15 2 20 7 23 2 1 5 1 38 1 20 0 42-1 50-1 22-1 224 1 234 3 3 1 37 1 84 2 44 0 80 0 80 1 1 1 28-1 36-3z"/></svg>