<svg xmlns="http://www.w3.org/2000/svg" width="1344" height="566"><path d="M0 283V0h1344v566H0V283m284 278c34-1 61-1 62-2 1 0 5 0 9 1 6 1 7 1 11 0 3-2 5-2 13-1 14 2 75 2 217 0 6 0 21 0 34 1 16 1 44 1 82 1 52-1 57-1 59-2 4-3 5-6 3-12 0-3-2-11-3-17-2-6-3-13-4-14 0-2-2-8-3-15-1-14-3-19-9-23-4-4-28-16-47-24-3-1-15-7-26-12l-26-13c-16-7-26-12-28-15l-2-3 2-9c3-9 7-19 16-38 8-19 10-25 15-40 7-24 7-29 7-54-1-14-2-29-3-42-2-10-3-24-4-30-4-39-16-88-27-109-4-9-15-25-22-32-15-17-48-37-75-46-9-3-10-3-29-3h-20l-12 4c-8 2-16 5-20 7s-10 4-15 5c-18 4-27 9-39 21-18 18-34 53-47 101-2 6-4 13-5 15-2 7-9 36-10 44-1 4-5 22-8 39-15 70-17 86-17 130-1 28-1 32-5 36-5 4-57 33-80 44-5 2-12 6-16 9-8 5-8 5-18 26-2 5-8 15-13 23-5 7-12 18-14 23-10 20-8 25 11 26 10 1 16 1 106 0z"/></svg>