<svg xmlns="http://www.w3.org/2000/svg" width="1344" height="566"><path d="M0 283V0h1344v566H0V283m645 275c40-1 52-1 77 0 40 2 174 2 192 0 20-3 32-9 49-27 14-14 17-21 14-33-2-8-5-12-9-12h-36c-47-1-54-2-56-10-1-2-1-6-2-8-2-6-5-8-12-9-6 0-8 0-17 5-15 6-21 10-34 24-13 13-15 15-36 21-18 5-20 6-23 3-3-2-5-5-28-54-7-14-17-36-24-50-8-16-13-26-12-27 0-1 3-3 6-5 7-4 12-7 15-13l8-8c6-4 19-15 30-25 3-4 9-9 12-11 6-5 8-9 10-22 3-15 5-21 11-35 6-12 12-27 17-42l11-22c13-22 13-23 13-27 0-5-2-8-10-18-4-4-11-13-15-19-9-13-17-22-28-30-22-17-45-28-68-34-8-2-12-2-24-2-8 0-18 0-22 1-7 1-29 8-32 10-2 1-8 6-14 12-22 20-33 34-47 61-10 19-18 31-24 36-9 7-15 9-39 16-19 5-24 8-38 26-11 15-12 16-13 32-1 11-1 15-4 23-4 11-5 17-5 20 1 2 4 6 7 10 7 8 9 12 7 19-1 4-2 5-12 22-7 11-14 27-23 48-4 10-10 25-14 32-7 14-7 15-7 22 0 5 0 14 1 21 1 17 0 21-8 21-4 0-11-4-20-11-4-4-11-8-14-10-5-3-11-9-22-19-8-8-22-22-30-31-11-10-16-16-17-18 0-4-1-3 9-31 6-20 6-21 7-34 0-10 0-16-1-23-3-14-3-15-12-24-4-5-8-10-8-11-1-1 0-7 2-14 3-11 3-12 3-26-1-9-2-16-2-18-2-4-7-9-10-9-4 0-13 8-18 15-2 4-6 9-8 12l-5 4v13c-1 11-1 13-3 15-3 3-11 5-20 6-12 1-19 7-29 22-7 9-10 16-12 24s-8 42-9 57c-1 11-2 14-5 20-2 4-4 6-10 9-5 2-8 5-8 9 0 3 1 4 6 9 14 15 18 22 19 35 2 10 13 31 26 47 4 4 7 9 8 10 1 7 8 16 13 19 4 2 26 7 38 8 7 1 39 2 103 2 52 1 99 1 105 2 13 1 115 0 180-1z"/></svg>