<svg xmlns="http://www.w3.org/2000/svg" width="1344" height="566"><path d="M0 283V0h1344v566H0V283m344 277c20-1 39-1 41-1 2-1 5-1 9 0 7 2 7 2 11 0 3-2 4-2 16-1 11 1 61 2 89 1h54c22 1 43 1 48 0h22c19 1 125 2 152 1s25-1 25-14c-1-5-1-11 0-15s1-7 0-13c-4-15-9-20-29-30-8-4-17-8-20-9-20-8-77-37-81-40-4-4-4-6-1-13 3-4 4-8 15-40 7-18 14-42 19-65 4-15 4-18 4-31 0-8 0-19-1-25-1-7-2-22-3-36-3-40-11-90-17-106-6-17-16-37-28-53-8-11-21-24-33-33-11-8-40-22-54-26-10-3-11-3-24-3-12 0-17 0-26 2-16 4-21 5-26 8-2 1-10 3-17 5-10 1-14 3-20 6-14 8-28 21-38 36-8 12-18 35-24 53-8 24-17 78-21 111 0 9-1 18-2 20-1 8-4 52-4 64s2 46 4 50c0 1 1 7 2 13s3 16 4 21c3 17 3 20 1 24-3 5-14 10-25 12-17 4-25 8-42 18-4 3-14 8-22 12-7 3-19 10-27 14-7 5-17 10-20 12-11 6-22 15-24 20-1 2-3 8-4 14 0 6-2 16-4 21s-3 10-3 11c0 2 2 4 5 5 1 1 19 1 41 0h78z"/></svg>