<svg xmlns="http://www.w3.org/2000/svg" width="1344" height="566"><path d="M0 283V0h1344v566H0V283m594 278c11-1 51-1 101-1 93 0 88 1 91-7 2-5 3-25 1-39-1-12-10-52-16-67-2-6-5-15-7-19l-4-8 1-11c0-6 0-10-1-12-1-3-7-6-19-11-5-2-16-7-24-11s-20-9-27-12c-16-7-29-13-32-16-4-3-4-7-2-19 1-4 3-13 3-20 1-8 3-18 3-22 6-36 6-40 5-66-2-46-6-72-13-100-5-21-8-27-16-43-11-22-25-38-41-48-12-7-29-16-38-19-14-4-30-3-48 5-3 1-9 3-17 3-13 2-18 4-27 10-5 4-17 15-22 22-7 8-18 29-22 42-10 31-26 109-31 148-2 22-2 55 1 72 2 13 2 19 0 24-3 4-5 5-18 6-14 1-25 4-40 12-65 33-62 31-66 52-1 6-3 15-4 18-1 4-4 16-7 26-2 10-5 22-6 27-2 5-4 14-5 21-2 7-4 18-6 24-3 9-3 14-3 20-1 12 1 13 13 16 9 1 20 2 115 1h45c99 3 158 3 183 2z"/></svg>