<svg xmlns="http://www.w3.org/2000/svg" width="1344" height="566"><path d="M0 283V0h1344v566H0V283m612 277c5-3 13-8 20-10 13-5 31-22 38-37l3-7 1-31c0-26 0-33-1-38-3-12-3-15 5-55 3-10 3-15 3-27 0-17-1-24-4-31-3-5-16-20-25-27-20-14-36-31-36-36 0-2 8-17 13-25 4-4 8-7 19-10 2-1 5-3 6-4 3-4 5-17 6-37 0-16 0-19-2-31-2-7-4-19-4-25-3-21-8-32-16-41-4-5-9-8-24-14-29-12-43-13-64-6-11 3-11 4-23 12-17 11-17 11-24 32-12 35-12 40-14 76 0 23-1 26-6 28-1 0-4 0-7-1-6-2-19-1-31 2-5 2-11 3-12 4-1 0-3 1-5 1-16 3-31 8-34 11-2 1-2 4-3 10-1 8-3 12-5 11 0-1-3-4-7-8-3-5-6-8-7-9-3 0-18 2-21 4-1 0-8 2-14 4-17 5-35 11-39 14-8 6-16 18-26 38-7 13-7 15-8 21 0 9 1 14 6 19 2 3 4 7 5 9 4 10 9 18 10 19s5 3 10 5c12 4 28 14 32 18 3 4 16 32 20 42 1 4 4 13 7 21 5 16 13 33 16 37 3 2 9 14 13 28 2 8 9 12 20 12 4 0 6 3 10 14 4 12 5 13 13 13 4 0 7 1 10 2 4 2 7 2 47 3 24 1 47 1 51 1 5-1 10 0 14 1 5 1 13 1 34 0 25 0 28 0 30-2z"/></svg>