<svg xmlns="http://www.w3.org/2000/svg" width="1344" height="566"><path d="M0 283V0h1344v566H0V283m696 277c134 1 122 1 126-2 4-2 8-8 15-20 6-12 7-17 6-28 0-7 0-8 4-17 3-5 7-13 9-17 12-18 23-41 28-54 2-5 13-22 15-24 1 0 3-3 5-6 5-8 6-13 3-22-2-4-3-10-3-12-1-5-6-13-9-14-1 0-4 1-5 2-5 4-8 2-10-4-1-7-6-10-15-11-6 0-7-1-7-3 0-1 2-5 4-9 4-7 4-9 5-18s1-10-1-13c-2-5-7-8-12-8s-11 5-11 10c-1 4-4 8-12 19-10 13-20 18-30 17-9-2-16 2-25 17-12 18-15 27-25 65-5 21-10 35-22 58-12 25-14 27-21 30-7 4-9 7-11 15-2 9-6 15-8 16-3 0-6-3-9-8-2-5-19-27-29-39-6-7-8-10-12-24-1-4-5-13-8-19-6-13-11-17-28-28-12-7-16-12-16-16 0-1 2-5 4-8 3-4 7-11 10-16s7-13 10-17c3-3 5-8 6-10 1-1 5-6 9-11 8-9 11-15 17-33 7-22 12-42 13-59 1-8 2-22 3-31 6-55 5-97-5-115-5-10-16-21-30-31-38-24-52-31-74-36-6-1-10-1-19 0h-38c-9 0-11 0-21 3-29 10-41 18-55 39-6 10-22 51-27 72 0 2-2 9-4 16-2 8-4 17-5 20-1 4-4 16-6 26-3 9-6 22-7 28-1 7-3 16-4 20-13 60-15 74-17 107 0 15 0 19 1 26 3 11 2 15-7 29-13 22-19 36-33 70-4 10-8 20-10 24-5 10-5 13-1 20 2 5 3 8 3 16 1 7 1 11 2 13 3 3 8 4 20 4 6 0 15 1 20 1h354z"/></svg>