<svg xmlns="http://www.w3.org/2000/svg" width="1344" height="566"><path d="M0 283V0h1344v566H0V283m487 126c14-4 21-7 37-15 11-5 15-6 16-5 1 0 1 2 1 3 0 4 1 6 6 8s8 3 20 3c8 1 23 2 33 3 22 2 110 2 114 1 1-1 13-1 26-2 25 0 32-1 64-10 31-9 29-8 49-8 23 0 23 0 22-12 0-18-3-39-7-47-2-6-2-8-2-18-1-11-1-12-4-18-3-5-4-7-8-8-8-4-11-7-13-12-3-5-5-6-14-8-4 0-7-2-6-4 1-1 5-1 11-1 9 0 9 0 12-3s3-3 2-8c0-5-6-30-11-48-2-6-4-15-5-20-6-28-14-44-28-64-11-15-39-33-57-37-10-2-19-1-30 1-6 2-14 3-18 4-21 3-34 14-45 36-5 10-11 31-11 37 0 1-1 8-3 17-3 15-4 19-7 32-1 5-3 16-3 25-2 22-2 22-16 21h-10l-6 4c-14 10-23 20-31 36-6 14-9 19-18 27-9 9-12 11-23 14-5 1-12 4-17 5-8 4-11 4-28 7-6 1-8 2-11 4-2 3-11 22-18 39-1 4-3 9-4 11-2 5-3 9-1 11 1 0 7 1 15 1 7 0 14 1 15 1 2 0 7-1 12-3z"/></svg>