<svg xmlns="http://www.w3.org/2000/svg" width="1344" height="566"><path d="M0 283V0h1344v566H0V283m736 279c9-1 21-1 27-1 43 1 92 1 111 0 26-1 64-1 105 0 34 1 71 1 82 0 8-1 10-2 12-4s2-3 2-9c-1-10-4-33-5-38-1-3-1-6-1-8 0-4-5-26-9-41-2-6-4-12-4-14-7-31-16-59-23-70-6-12-10-16-27-26-6-3-44-20-54-23-25-8-39-15-50-23-5-4-18-16-30-29-13-12-25-24-28-26s-7-6-9-8c-4-4-4-4-4-12 0-12 2-36 3-40s3-7 11-14c11-11 14-16 17-28 2-16 1-27-6-48l-7-28c-5-23-7-29-13-44-6-16-10-21-17-23-4-1-26-1-109-1-113-1-106-1-112 5-2 3-6 12-11 23-6 16-8 41-6 60 1 6 3 16 4 22 5 41 10 58 25 88 10 21 12 23 23 34 5 6 11 12 13 15 2 2 5 7 8 10 9 12 11 19 7 27-5 10-22 27-33 34-3 1-15 8-28 14-29 13-74 37-78 40-6 5-5 8 6 25 7 11 17 31 20 38 2 7 1 13-4 32-3 8-6 18-7 23-2 13-7 29-9 35-2 2-5 9-8 13-6 10-7 11-5 13 2 1 19 3 33 3 7 0 16 1 22 2 8 1 25 1 66 2 82 1 83 1 100 0z"/></svg>