<svg xmlns="http://www.w3.org/2000/svg" width="1344" height="566"><path d="M0 283V0h1344v566H0V283m763 277h78c42 0 86-1 99-1l22-1 2-3c3-4 3-5-15-54-6-16-6-17-7-30v-13l-5-4c-6-5-56-31-82-42-14-5-37-17-41-20-7-6-11-15-15-36-2-10-2-13-2-41 0-31-1-48-6-73-3-12-5-28-7-40-2-9-8-29-14-44-2-4-4-9-4-10-2-6-10-25-16-35-9-17-21-32-40-48-17-14-30-21-47-25-8-2-30-5-39-5-10 0-19 4-33 15-4 3-8 5-10 6-23 3-39 16-56 45-7 11-11 26-14 44-1 8-3 20-4 27-4 25-5 56-3 123 1 32 3 69 5 74 0 1 0 7 1 15 1 19 1 20-18 28-13 5-31 14-43 21-5 2-14 7-21 11-13 6-20 10-22 15-1 1-2 6-3 10s-3 11-4 15c-6 22-8 29-10 41-2 14-2 18 2 23 5 7 14 9 32 10 52 1 62 1 64 2s4 1 8 0c7-1 35-1 59 1 19 1 207 1 209-1z"/></svg>