<svg xmlns="http://www.w3.org/2000/svg" width="1344" height="566"><path d="M0 283V0h1344v566H0V283m598 277c16-1 31-1 33-1s18 0 35 1c18 1 49 1 69 1 117 0 131 0 171-3 20-1 33-1 81 0 69 1 70 1 72-2 2-2 2-3 0-8-5-10-14-18-41-38-17-13-35-25-50-32-24-12-38-23-41-34-3-6-2-8 6-27 10-27 11-29 30-65 25-46 25-46 37-53 10-6 20-17 29-31 4-7 9-15 10-17 5-9 8-23 6-31 0-5-1-6-6-11-6-6-6-6-6-11 0-4 2-17 8-40 4-16 7-34 10-63 2-19-2-40-11-65-5-12-8-18-12-20-3-2-13-5-22-5-3-1-51-1-108-1-132 0-128-1-138 17-7 11-12 24-16 41-4 14-5 18-9 50-2 15-4 29-5 30-2 3-5 5-10 6-9 1-12 2-15 6-6 6-8 12-7 30 0 12 0 16 2 22 5 19 10 29 20 40 8 9 8 11 8 21 0 18-5 52-10 66-4 11-13 29-18 34-6 7-6 7-36 7-20 0-28 1-30 2-3 2-11 12-20 26-19 28-25 34-60 55-3 2-10 7-14 10-10 6-23 14-38 22-22 12-48 31-66 49-11 11-14 15-12 18 2 4 7 4 44 5 40 1 94 0 130-1z"/></svg>