<svg xmlns="http://www.w3.org/2000/svg" width="1344" height="566"><path d="M0 283V0h1344v566H0V283m592 70c17-2 19-2 23-5 2-2 6-4 9-6 5-2 5-2 12-1 6 1 7 1 8 0 3-2 2-7 0-15-2-4-3-9-3-10s-1-6-2-10c-3-11-5-24-6-34-1-13-7-21-23-31-3-3-7-6-10-8-2-1-6-4-8-5-5-2-22-6-25-6-4 0-12-4-15-8-4-5-13-24-14-30-1-2-2-11-3-18-2-12-2-14-5-20-4-6-5-9-2-20 2-13 3-18 2-26-2-13-10-22-22-26-11-2-21 0-28 7-4 5-7 11-9 22-2 7-3 12-5 14-3 6-11 11-18 12-11 2-24 11-28 19-1 2-3 8-4 12-2 9-2 22 2 47 3 18 3 18-5 36l-5 11v11c1 15 2 25 5 30 1 2 3 7 4 11 1 5 4 12 6 16l4 8c0 1 3 5 7 9 5 6 7 7 11 9 6 1 25 2 30 0 1-1 9-7 17-15 15-14 17-15 21-11 3 2 2 6 0 13-3 7-2 9 2 9 2 0 5 1 7 2 3 0 8 1 12 2 5 1 12 2 17 4 11 2 23 3 41 1z"/></svg>