<svg xmlns="http://www.w3.org/2000/svg" width="1344" height="566"><path d="M0 283V0h1344v566H0V283m485 137c6-1 13-3 14-3 2-1 6-2 9-3s9-2 14-4c7-2 9-2 14-1s7 1 11 0c7-3 18-3 35-1 12 1 22 1 34 1h46c29 0 31 0 43 2 16 4 37 5 48 4 17-2 24-7 23-18-1-4 0-6 2-11 1-3 3-7 4-9 2-7 17-16 26-16 7 0 20 2 23 3 6 3 15 4 27 3 13-2 20-4 22-5 1-2 1-10 0-15-1-2-2-6-2-7 0-4-5-16-10-23-3-6-4-10-2-21 1-6 1-7-1-11-1-2-3-6-5-8-3-5-5-8-6-18 0-4-4-21-8-39-8-30-11-45-14-58-2-9-6-17-10-24-7-10-7-11-9-20-1-13-6-20-19-34-10-9-13-11-19-14-15-7-27-11-39-12-10-1-12-1-22 1-6 1-14 3-18 3-18 4-32 13-43 28-10 15-13 22-17 39-3 12-4 49-4 89 1 39 3 36-15 36-15 0-22 2-32 10-12 9-18 17-23 27-8 15-8 15-24 26-8 5-16 10-18 11-9 4-18 7-23 10-7 5-14 6-27 6-15 0-17 1-27 22-7 14-14 34-14 39 0 1 1 3 2 4s20 10 25 12c3 2 18 1 29-1z"/></svg>