<svg xmlns="http://www.w3.org/2000/svg" width="1344" height="566"><path d="M0 283V0h1344v566H0V283m274 278c3-1 5-1 9 0 5 1 44 1 230 1 123 0 236 0 250-1 31 0 30 0 31-12 1-3 1-7 1-8 1-2 4-2 6 0 1 1 4 4 5 7 4 7 6 7 23 9 22 3 42 4 92 4 60 0 67 0 70-6 1-3 1-19-2-31-6-37-8-59-6-69 2-8 5-12 17-21 15-10 13-10 64-9h73c26 0 30 0 36-1 9-3 16-6 20-10 3-3 4-4 4-8 0-3-1-4-4-7-1-2-3-3-3-3s-11-1-24-1c-24-1-28-1-35-7-2-1-5-4-7-7-3-5-7-7-12-5-2 0-9 3-16 7l-12 5h-10c-11 0-35-4-46-7-7-2-19-7-31-13-7-4-17-12-20-19-5-10-12-37-16-60-3-18-3-18-14-40-9-20-9-20-8-24 0-2 3-6 5-10 6-7 14-21 19-32 12-23 17-40 18-62 0-17-1-28-5-39-6-20-18-32-38-41-9-3-10-3-22-4-11 0-12 0-21 3-13 4-22 9-30 17-6 6-7 7-9 15-2 4-4 12-4 17-2 11-3 15-7 24s-4 14-3 24c2 10 2 17 0 23-3 10-14 25-21 27-1 0-6 0-10-1-8-2-14-1-18 2-1 1-5 7-8 13-5 9-9 14-19 26-21 23-28 33-38 54-7 14-11 27-12 38 0 8 1 23 6 55 3 24 3 25 3 56 1 24 1 34 2 37 1 5 1 5 0 7-2 1-3 1-9-2-9-5-23-14-27-18-1-2-4-5-4-7-3-6-6-32-7-58-1-13-2-34-3-46s-2-27-3-31c0-13-5-50-7-65-6-38-20-81-33-99-6-7-21-21-28-26-9-6-27-14-44-20-14-4-28-7-37-6-23 4-58 17-73 29-9 7-14 14-24 33-6 12-9 16-10 16-2-1-2-1-5-29-1-18-3-24-7-30-6-8-20-17-35-22-6-2-8-2-23-2-10 0-20 0-24 1-8 1-19 7-23 12-5 5-13 21-14 28-2 8-1 24 2 38 1 7 2 17 3 24 0 13 0 13-3 19-2 6-4 7-10 12-6 3-9 6-13 13-9 12-19 23-33 35-6 6-18 17-25 24-19 18-21 22-29 57-5 19-9 39-10 56-1 9 0 16 2 38 5 64 5 65 5 84l-1 18 3 3c3 4 5 4 21 7 6 0 14 1 17 2 7 1 53 0 58-1z"/></svg>