<svg xmlns="http://www.w3.org/2000/svg" width="1344" height="566"><path d="M0 283V0h1344v566H0V283m682 279c5 0 24 0 43 1 34 0 53-1 63-3 6-2 6-3 3-21-6-32-8-41-9-56-1-13-2-17-6-47-1-8-2-17-3-21 0-4-1-13-2-19-4-16-7-23-18-34-12-12-26-25-33-29-3-2-8-6-11-9-3-2-8-6-10-8-3-1-8-5-11-9-4-3-9-7-12-10-7-5-14-13-20-23-8-13-9-18-9-28 0-7 0-9 4-17 2-5 5-12 5-15 2-9 5-25 6-28 2-4 1-7-2-11l-3-5v-29l1-29-4-10c-8-22-18-34-36-44-15-9-19-10-34-10h-12l-19 9c-25 13-34 21-46 41-7 13-8 15-6 25 2 6 2 11 2 19-1 14-2 18-7 23-6 7-6 8-5 21 2 12 4 18 8 27 2 4 3 5 7 8 8 4 16 17 17 28 1 3 2 8 4 11 1 4 2 9 3 13 0 7 0 7-3 10-2 2-5 4-11 5-27 8-39 14-51 23-12 10-16 15-23 29-5 13-14 36-14 39 0 1-1 4-1 6-1 3-3 9-5 14-2 8-10 35-13 44 0 1-2 6-3 11s-4 15-6 24c-3 13-3 16-4 32 0 15 0 20 2 29 3 16 4 18 7 20 4 2 23 3 109 3 42 0 78 0 78 1h41c22-1 44-1 49-1z"/></svg>