<svg xmlns="http://www.w3.org/2000/svg" width="1344" height="566"><path d="M0 283V0h1344v566H0V283m787 276c4-1 41-1 83-2 64 0 181-1 220-1 6 0 20 0 32 1 30 2 42 2 45 0 2-1 2-2 2-7-1-10-14-34-27-50-25-32-50-49-86-60-33-10-40-12-46-14-9-2-21-5-31-9-5-1-11-3-13-4-17-5-36-15-40-21-2-4-3-12-1-22 0-3 2-13 3-22 3-21 7-43 9-51 3-11 5-13 17-19 13-6 19-12 27-24 11-16 16-33 16-52 0-12-2-18-10-25-9-8-9-8-5-42 2-15 3-54 3-67-2-26-8-50-16-56-3-3-7-4-20-6-6 0-12-1-12-2-2-1-221 0-234 1-17 1-25 2-28 4-5 2-13 25-20 51-4 17-5 23-6 54-1 30-3 53-6 59-3 4-4 19-4 28 1 4 2 13 4 20 3 19 7 29 19 49 6 12 12 26 16 38 1 4 5 15 9 25 8 23 9 25 7 28-1 1-4 2-6 3-5 0-9 1-29 7-17 6-23 8-28 13-4 4-16 21-26 36-17 25-34 42-57 57-8 6-20 14-28 19-16 11-29 20-42 28-10 7-31 22-37 27-5 4-5 7-1 8 2 1 44 1 116 0 14-1 37 0 50 0 28 2 169 2 181 0z"/></svg>