<svg xmlns="http://www.w3.org/2000/svg" width="1344" height="566"><path d="M0 283V0h1344v566H0V283m796 278c9-1 25-1 36-2 16 0 19-1 21-2 1-1 2-3 2-4 0-3-8-33-13-45-2-6-2-10-3-18 0-13 1-15 8-15 2 0 8-1 13-2 4 0 10-1 13-2 2 0 6-2 8-3 3-2 8-13 10-22 2-10 3-13 6-15 2 0 3-1 3-2 0 0-4-5-9-11-12-13-14-17-23-45-3-9-6-16-6-17-2-1-3-4-6-12 0-2-2-7-3-12-7-27-18-49-31-58-2-1-9-5-15-8-17-7-28-16-28-21s5-23 8-26c6-9 8-60 2-74-4-10-10-22-16-28-6-7-10-11-17-14-9-5-13-6-32-5-21 0-26 1-36 9-17 12-25 30-27 53 0 10 0 14 2 26 3 16 5 22 12 36 4 6 6 12 6 13 0 4-12 20-19 26-3 2-21 13-22 13s-6 3-11 6c-16 9-25 19-27 31-1 2-2 6-3 10-1 3-2 8-2 10s-1 9-2 15-2 13-2 15-1 6-1 9c-1 3-2 12-3 20-1 7-2 16-2 20-1 4-1 13-2 21v15l3 8c2 5 4 12 6 17 3 13 5 16 16 26 5 5 10 11 11 13 2 3 2 4 1 8-1 2-3 8-5 12-1 4-3 10-4 14-1 5-1 6 1 9 1 2 3 4 5 5 3 2 5 3 49 3 25 0 46 0 48 1 4 1 57 1 80-1z"/></svg>