<svg xmlns="http://www.w3.org/2000/svg" width="1344" height="566"><path d="M0 283V0h1344v566H0V283m767 278c3 0 7-2 9-3 5-2 6-5 6-27 1-19 1-20-1-25-3-6-5-45-5-69 2-48 2-67 1-75-3-22-12-49-19-59-3-3-9-10-15-16-6-7-10-12-11-14-1-3-1-6 1-18 2-16 8-44 11-59 6-22 9-45 8-60-2-29-6-50-12-62-8-17-25-33-51-48-13-7-22-11-41-16-13-3-16-3-28-3s-27 1-49 6c-14 2-31 12-43 24-19 20-30 48-33 87-1 7-2 16-2 20-2 6-2 7-7 11-3 3-6 7-7 9-2 4-2 5-1 14 1 6 2 17 2 26v15l-4 5c-8 12-20 26-28 32-5 4-13 9-21 13-13 7-23 12-37 21-5 3-11 7-14 8-5 3-11 8-28 21-19 14-45 42-62 68-2 4-6 8-8 11-7 10-17 35-22 56-2 11-4 29-4 44 0 19 4 50 8 56s4 6 58 5c65-1 151-1 176 0 11 0 22 1 24 1 6 0 95 1 139 2 22 0 40 0 40 1h32c24 0 33 0 38-2z"/></svg>