<svg xmlns="http://www.w3.org/2000/svg" width="1344" height="566"><path d="M0 283V0h1344v566H0V283m343 277c23-1 43-1 44-1 1-1 4 0 8 1 6 1 6 1 10-1 3-2 4-2 17-1 14 1 53 2 95 1h95c4-1 15-1 23 0 19 1 116 2 147 1 19-1 25-2 27-3s2-2 2-11v-16c2-12-2-23-10-30-5-4-17-11-33-17-24-11-83-41-87-44-3-3-3-6 1-14 1-3 4-10 6-17 2-6 6-15 8-21 4-12 13-41 19-63 5-23 5-37 0-94-5-49-11-89-17-108-3-9-15-33-24-46-10-15-24-30-38-39-13-8-41-22-54-26-9-3-12-3-23-3-9 0-15 0-23 2-16 3-25 6-29 8-1 1-9 3-15 5-19 3-28 8-43 23-16 16-24 28-35 54-4 12-9 26-11 38-1 4-3 12-5 18-3 15-10 61-12 82 0 10-1 21-2 25-2 20-3 51-2 71 1 18 4 42 7 52 0 3 2 10 3 18 2 13 2 13 0 17-1 3-3 4-10 8-4 2-11 5-16 6-17 3-25 7-43 18-5 3-15 8-22 11s-13 7-14 7c-1 2-22 14-34 21-9 5-19 13-21 17-1 1-3 7-3 14-1 6-3 16-5 22l-3 10 2 2c1 2 3 3 4 3 2 1 18 1 38 0h78z"/></svg>