<svg xmlns="http://www.w3.org/2000/svg" width="1344" height="566"><path d="M0 283V0h1344v566H0V283m291 276c20-1 42-1 51-1 23 1 134-1 170-2 38-1 55-1 76-1 7 1 24 1 38 1 13 1 31 1 41 1 20 1 21 1 19-5-1-5-7-19-12-26-10-15-17-20-36-27-15-5-29-11-36-15-6-4-11-6-28-13-35-14-40-16-44-19-2-2-3-4-3-6 0-8 11-31 25-55 5-9 9-13 12-15 4-3 4-3 20-4 19-1 22-1 32-4 12-4 19-9 22-18 2-5 2-7 2-22-1-19 0-26 5-41 1-4 4-13 5-20 3-11 3-14 3-27 0-15 0-19-6-40-1-4-3-12-3-18 0-7-1-15-2-20s-1-16 0-34c0-25 0-26-2-38-3-14-11-35-17-45-7-12-22-26-36-32-9-4-21-7-32-8-13-1-102-1-137 0-17 1-25 1-28 2-8 4-32 23-44 37-18 22-26 38-36 73s-17 60-19 69c-3 15-16 53-26 77-4 12-10 26-12 33-2 6-7 18-10 27s-8 22-10 29c-6 16-6 14-15 33-26 53-31 65-28 69s17 0 29-10c11-9 14-8 12 2-2 9-2 23 0 29 1 2 2 7 3 9 0 8-2 12-14 29-24 31-27 37-25 41l3 3c4 2 28 4 43 3 8 0 30 0 50-1z"/></svg>