<svg xmlns="http://www.w3.org/2000/svg" width="1344" height="566"><path d="M0 283V0h1344v566H0V283m276 278c36-2 116-2 155-1 32 1 41 1 54 0 9-1 20-1 25-1h122c130 1 173 2 191 3h23l3-3c3-2 4-5 4-6 0-10-14-34-27-47-7-7-17-12-44-22-22-8-38-13-60-18-21-5-26-8-36-19-14-16-15-18-7-30 9-12 25-42 29-55 3-6 6-14 7-16 1-3 4-11 7-18 2-7 5-15 6-18 2-3 4-8 4-11 1-4 3-10 5-14 3-9 5-24 6-49 0-10 2-30 3-43 1-25 1-44-1-57-3-15-12-44-22-63-11-22-23-37-42-51-13-10-19-13-27-15-7-1-101-3-136-3-38 1-40 2-60 18-17 15-28 31-37 53-6 15-9 27-11 46-3 26-5 35-9 48-7 24-8 31-8 47 0 17 0 19 6 32l2 6-1 6c-6 19-7 32-5 44 1 3 4 12 8 21 12 24 18 38 20 48 4 11 4 13 1 17-5 9-26 34-33 42l-9 9-18 7c-9 4-23 8-29 9-10 3-34 9-55 16-23 6-60 21-71 29-10 7-22 25-25 38-2 9 1 16 8 20 7 3 37 3 84 1z"/></svg>