<svg xmlns="http://www.w3.org/2000/svg" width="1344" height="566"><path d="M0 283V0h1344v566H0V283m796 278c21-1 67-1 136-1 94 0 140-1 160-3 6 0 8-1 10-3 5-4 5-5-8-38l-12-36c-6-19-9-24-19-34-4-5-9-11-11-14-7-11-15-23-20-30-3-4-6-11-8-14-3-4-6-10-8-12-4-6-10-20-11-25 0-3 0-5 1-6s7-4 14-8c10-4 15-6 20-7 21-3 23-4 28-13 2-5 4-15 4-25 0-5-1-8-4-16-4-11-6-18-8-28-6-35-15-44-66-70-13-7-27-14-29-16-9-6-11-11-22-40-4-12-18-43-24-52-7-13-21-30-31-38-16-13-32-21-44-24-12-2-30-3-69-3-46-1-48 0-68 8-19 8-44 29-57 49-4 7-12 22-16 31-3 8-16 28-23 35-2 3-7 7-10 9-10 7-12 12-8 24 2 7 10 24 18 37 3 5 8 16 14 32 2 5 5 11 8 15 2 4 5 9 6 11 2 5 7 10 14 13 3 2 8 5 11 8 6 6 8 11 10 24 1 4 1 10 2 15 2 13 6 19 16 26 3 2 10 7 15 13 5 5 15 14 21 20s12 13 13 15c2 5 1 11-3 21-7 20-13 30-21 39-13 16-15 20-23 43-5 16-14 52-15 59 0 4 0 5 2 7 3 2 4 2 23 3 24 1 49 1 92-1z"/></svg>