<svg xmlns="http://www.w3.org/2000/svg" width="1344" height="566"><path d="M0 283V0h1344v566H0V283m740 278c75-1 136-3 185-4 49-2 37-2 125-2 38 1 82 1 98 2l28 1 3-2c2-3 2-4 1-7-1-8-4-16-13-33-14-27-23-39-39-53-21-18-32-23-82-39-7-2-18-6-26-9-7-3-20-7-28-9-24-9-28-10-35-14-6-3-8-4-9-7l-2-4 2-14c1-7 3-17 3-21 2-17 5-31 7-36 3-4 6-6 15-11 12-7 24-20 33-37 10-21 12-44 4-55-2-3-4-4-9-6-9-3-9-4-9-18 1-6 2-19 3-30 2-17 2-23 2-52-1-34-1-39-7-64-2-10-10-23-17-27-3-1-13-3-24-5-12-2-223-1-236 1-14 2-22 7-28 19-3 6-11 27-13 37-4 14-10 43-11 58-3 18-5 62-5 81 1 18 2 23 9 41 1 4 6 20 11 34 11 32 11 34 17 48 2 7 6 16 8 22 4 13 5 13-17 19-24 7-29 9-33 14-3 3-11 15-22 33-22 35-29 44-51 58-10 7-21 16-32 25-5 4-18 13-30 22-31 20-51 36-51 39 0 4 3 4 20 5 22 1 180 0 255 0z"/></svg>