<svg xmlns="http://www.w3.org/2000/svg" width="1344" height="566"><path d="M0 283V0h1344v566H0V283m401 278c27-1 58-1 69-1h46c70 0 115 0 132 1 24 1 97 1 102 0 2-1 5-2 6-4 2-3 2-12 1-19-1-4-2-9-2-12-1-6-5-11-15-20-10-8-17-12-30-16-5-2-16-7-23-11s-19-10-25-14c-7-3-14-7-15-9-4-4-4-8 2-22 2-7 6-16 8-22 6-15 11-25 20-35 4-6 8-11 9-15 2-5 7-34 9-54 1-5 2-13 3-17 7-35 11-111 8-147-2-27-7-50-13-60-5-7-17-20-23-24-8-5-37-18-55-25-8-3-24-8-34-11-17-4-21-5-31-6-13 0-26 1-37 5-5 2-16 5-25 8-24 8-33 12-45 19-11 7-19 14-25 22-5 7-12 24-19 44-13 36-17 62-20 114-2 32-4 48-6 60 0 5-2 14-2 18-1 5-2 14-3 20-1 5-2 12-2 16-1 6-3 23-6 38-2 14-3 32-3 43 0 10-2 22-5 29-1 3-5 7-10 11l-23 23c-17 16-30 27-45 37-5 4-11 8-13 9-6 6-10 17-9 22l4 4c7 3 25 3 145 1z"/></svg>