<svg xmlns="http://www.w3.org/2000/svg" width="1344" height="566"><path d="M0 283V0h1344v566H0V283m514 83c4-2 10-5 12-7 8-6 7-6 30-1 3 1 9 1 16 1 6 0 14 1 18 2 14 3 28 4 51 5 13 0 33 1 44 2 17 1 20 1 24 0 3-1 9-2 15-2 9 0 42-5 45-7 1 0 5-1 9-1 4-1 14-3 22-4 17-3 32-4 43-2 8 1 11 0 10-4-2-4-4-37-4-47 0-11 1-12 7-18 6-5 8-6 18-7 13-1 13 1 13-25 0-38-4-97-9-127-2-12-8-31-12-40-7-13-28-30-45-37-8-3-25-4-36-2-11 3-26 8-32 11-13 7-23 21-28 38-3 9-3 10-3 35 0 15 0 30-1 35-1 6 0 13 1 24 2 21 3 54 1 58-3 6-2 6-39 7-18 0-36 0-39 1-8 1-26 9-35 13-3 3-9 7-12 10-10 9-12 9-29 7-5 0-12-1-16-1-6 0-9 1-17 9-5 5-15 9-23 11-3 0-6 2-7 3-3 2-15 27-20 40-5 14-6 19-3 22 1 2 2 2 12 1 9 0 13-1 19-3z"/></svg>