<svg xmlns="http://www.w3.org/2000/svg" width="1344" height="566"><path d="M0 283V0h1344v566H0V283m842 276c4-1 14-1 62-1 63-1 60 0 63-8 1-2 3-7 4-11s3-7 4-8c2-1 5 4 10 14 2 4 5 9 7 10 2 2 3 2 12 2 11-1 16-2 18-6 2-3 2-13-1-27 0-7-2-18-2-24 0-8-1-13-3-17-1-3-2-9-3-13-1-3-2-8-2-11-1-2-2-11-2-21-1-9-3-22-4-28-4-22-4-24-5-38 0-12-1-16-3-24-4-12-9-34-10-44 0-5-1-10-2-11 0-2-1-6-1-10-1-5-3-9-6-17-6-13-13-21-23-25-14-6-32-15-37-19-3-2-6-5-8-8-3-5-3-12-1-25 1-8 1-9 7-15 5-5 6-7 7-11 0-5-1-28-2-37-2-9-6-23-9-30-4-8-15-19-26-24l-8-4-17 1h-17l-9 4c-6 3-9 5-12 9-6 7-12 17-13 24-1 3-2 8-3 12-2 7-2 9 2 28l2 8-6 14-6 12-1 21c-1 18-1 21-3 25-3 6-10 10-22 14-5 1-12 4-17 6-9 4-12 8-12 14-1 5-3 17-5 26-1 11-5 61-5 74 0 6 0 9 2 14 7 20 11 25 25 32 12 7 14 8 14 13 0 8-7 32-14 53-8 21-10 26-11 33-2 11-5 24-7 31-6 15-7 21-5 23 3 2 19 3 59 2 32 0 41 0 45-2z"/></svg>