<svg xmlns="http://www.w3.org/2000/svg" width="1344" height="566"><path d="M0 283V0h1344v566H0V283m802 275h19c5 0 9-5 13-13 5-11 7-21 9-42 1-19 2-25 4-27 2-1 2 0 4 4 13 29 17 34 26 42 6 6 10 8 21 14 4 2 9 5 11 7 2 1 4 3 5 4 4 2 21 3 47 3l26 1 3 3c3 3 4 4 11 5 17 2 61-1 67-4 3-2 5-7 5-13 0-4 0-6-4-13-9-13-13-18-20-22-11-7-13-10-16-25-4-20-8-25-40-44-5-3-13-9-21-17-8-7-18-16-24-21-11-9-20-18-31-34s-12-16-12-30c-1-14 0-12-19-55-1-3-4-6-7-9-7-6-8-10-8-19 3-29 3-102 1-125-2-14-6-31-10-40-7-12-12-16-25-23-14-6-22-9-33-11-32-7-68 1-87 17-14 14-23 34-43 103-9 33-20 62-31 81-9 18-14 25-23 34-34 32-40 38-47 51-6 10-15 24-21 34-15 23-35 58-40 70-9 20-19 62-21 81-1 11 0 16 5 21 5 6 16 9 46 11 34 2 61 3 152 2 51 0 100-1 108-1z"/></svg>