<svg xmlns="http://www.w3.org/2000/svg" width="1344" height="566"><path d="M0 283V0h1344v566H0V283m524 235c4-1 19-2 31-3 33-3 39-4 52-12 1-1 10-3 19-5s19-5 23-6c5-1 7-1 14 0 18 3 23 3 47 2 14 0 41 0 61 1 39 1 77 0 93-3 5 0 14-2 20-2 23-2 25-3 29-6 5-3 14-5 28-5 6 0 18-1 25-1 12-2 15-2 19-5 10-5 21-24 23-37 0-4 0-5-3-7-1-1-3-2-5-2-3 0-10-3-13-5-4-4-6-5-11-5-10 0-31 7-48 16-4 1-9 3-11 3-4 1-5 1-6-1-2-2-2-2-1-11 2-8 2-9 1-14-1-3-4-9-6-14-5-11-21-45-27-61-14-33-23-51-32-65-2-2-8-9-15-16-9-8-15-13-21-16-7-4-28-17-58-35-14-8-39-21-41-21-1 0-4-1-7-3-3-1-12-4-20-7-15-5-30-12-34-15-2-2-16-7-31-10-14-4-18-7-25-17-8-12-21-25-28-28-6-3-8-3-19-4-16 0-20 1-29 10-13 12-22 28-26 49-2 12-2 13-1 22 1 11 3 15 10 19 3 1 4 2 7 1 4 0 4 0 11 7 12 12 17 19 17 22s-9 15-14 19c-6 3-8 5-17 16-4 5-14 16-21 23-10 10-14 15-16 18-3 7-14 25-24 42-2 4-6 10-8 15-7 18-22 43-34 56-7 7-14 20-16 26-2 8-1 15 5 27 5 11 5 11 4 16-2 9 1 13 15 20 10 5 24 9 38 11 19 3 57 3 76 1z"/></svg>