<svg xmlns="http://www.w3.org/2000/svg" width="1344" height="566"><path d="M0 283V0h1344v566H0V283m294 276h37c16 0 19 0 27-1 4 0 10 0 17 1 8 1 18 2 43 1 42 0 153-1 166-1 7 0 48 0 93 1h93c14-1 16-2 16-8 0-4-7-33-10-37-1-3-1-7-1-17-1-14-1-16-9-21-7-6-52-27-64-32-3-1-13-5-23-10-50-24-51-24-51-30 0-2 2-6 4-10 1-3 3-7 3-8 0-2 3-11 11-28 11-25 19-50 23-71 1-11 1-34-1-53-1-5-1-13-2-18-5-47-13-87-21-111-10-28-28-57-41-67-18-13-35-24-45-29-12-5-21-6-54-6-28 1-35 2-44 7-4 2-9 4-14 5-35 6-57 31-74 84-9 25-19 70-26 119-1 6-5 30-12 63-6 34-7 54-4 86 4 39 4 38 1 42-4 5-8 8-15 8-10 2-29 9-41 17-2 2-8 5-12 7-4 3-10 6-14 9-4 2-14 7-22 12-23 11-29 16-31 24-1 4-13 29-18 37-6 10-12 23-13 28 0 5 1 7 6 8 1 1 48 0 122-1z"/></svg>