<svg xmlns="http://www.w3.org/2000/svg" width="1344" height="566"><path d="M0 283V0h1344v566H0V283m748 276c24-1 169-2 266-2 19 0 83 0 143 1s113 1 119 1h34c22-1 24-1 25-3 4-3 2-7-7-11l-18-12c-7-4-21-12-31-17-14-7-22-12-29-18-19-15-54-47-64-60-4-4-12-12-18-19-11-11-50-48-60-57-16-13-39-25-65-34-9-3-19-7-23-9-11-4-50-16-52-16-4 0-30-5-34-7-2 0-5-3-7-4-2-3-2-4-2-11 1-6 1-9 5-17 6-10 8-22 8-36 0-11-1-20-7-36-1-6-4-16-5-23 0-6-2-14-3-18-4-12-24-48-29-53-3-3-14-17-14-18s-15-21-20-26c-9-10-31-25-45-32-19-9-32-12-51-11-13 1-19 2-40 8-10 4-15 5-32 8-7 2-14 4-17 4-16 6-42 33-57 61-4 9-6 13-13 33-4 12-5 15-6 29-2 16-1 23 2 28 2 4 4 9 10 35 4 14 6 23 9 29 2 5 6 14 9 20 6 16 11 26 17 34 4 5 6 6 20 14 21 10 29 16 33 24 2 4 2 6 2 13-1 12-3 15-13 23-19 13-46 38-52 47-11 16-15 39-11 65 2 12 4 34 4 40 0 3 1 7 2 12 2 4 3 8 3 12 0 8 2 9 19 10 10 1 64 0 95-1z"/></svg>