<svg xmlns="http://www.w3.org/2000/svg" width="1344" height="566"><path d="M0 283V0h1344v566H0V283m612 278c21-2 16-2 111-1 55 0 74 0 76-1 5-3 6-5 5-24 0-21 0-25-8-54-6-24-12-42-16-50-3-6-3-7-3-17v-10l-3-3c-2-2-9-6-16-9-6-3-20-9-30-14-17-9-37-18-48-22-7-3-13-7-15-10s-1-14 3-26c1-4 3-14 5-22 2-7 5-19 6-26 5-15 6-26 6-41-1-14-6-72-7-83-4-30-4-32-10-52-5-16-26-46-41-57-20-16-53-31-67-31-7 0-25 4-33 8-4 1-10 2-16 3-11 1-18 4-27 10-16 12-31 32-39 56-7 19-11 37-24 113-9 57-11 85-7 111 3 17 3 21 0 27-4 7-9 10-22 12-16 2-25 5-51 18-23 11-41 22-46 27-4 4-5 6-7 13-2 4-7 16-12 26-7 14-10 22-12 32-2 7-6 20-8 28-6 16-8 33-8 49-1 12 0 15 3 17s51 2 177 2c23 0 57 1 76 1 56 1 88 1 108 0z"/></svg>