<svg xmlns="http://www.w3.org/2000/svg" width="1344" height="566"><path d="M0 283V0h1344v566H0V283m346 277c18-1 40-1 50-1 54 2 98 3 116 1 14-2 270-1 304 0 30 2 45 1 51 0 6-2 7-4 5-16-3-14-6-21-15-35-11-16-19-25-28-29-8-5-34-14-49-19-6-2-15-4-20-6s-16-4-24-6c-20-5-22-6-33-19-17-22-17-23-9-32 12-13 20-24 25-36 8-18 14-35 16-42 1-2 2-6 3-9 0-2 3-10 4-17 2-8 5-18 7-24 4-13 5-30 7-72 2-33 2-64 0-75-2-15-9-38-16-53-9-22-29-50-40-59-9-7-12-7-125-7h-97l-7 3c-11 5-28 25-37 44-11 22-14 34-16 59-3 25-3 26-7 43-5 21-7 32-8 51 0 11 0 19 1 30 1 7 2 19 2 26 0 16 2 31 4 38 1 6 7 18 18 35 7 13 8 16 12 28l2 9-2 4c-1 2-3 5-5 7-1 2-4 6-6 8-2 3-8 11-13 17-12 14-16 17-34 23-6 2-15 5-20 6-4 2-14 4-23 6-45 12-76 22-101 34-9 4-12 6-17 11-12 12-19 26-19 37 0 7 3 22 6 28 3 7 5 8 18 10 13 1 69 1 120-1z"/></svg>