<svg xmlns="http://www.w3.org/2000/svg" width="1344" height="566"><path d="M0 283V0h1344v566H0V283m646 277c117-2 247-3 336-1 19 1 70 1 115 1h82l3-2 2-3-2-7c-5-15-9-23-21-36-7-8-15-17-19-22-8-9-19-19-41-36-8-6-18-15-23-19-14-13-24-21-38-31-8-5-18-13-24-17-15-11-24-17-30-17-2-1-9-2-15-2-12-1-19-3-25-9-5-4-6-8-6-16 1-3 1-13 2-22 2-24 5-32 18-44 11-9 19-24 26-47 7-20 8-30 2-40l-3-6v-29c0-26 0-29-2-39-5-23-17-41-37-55-26-18-44-24-75-26-19-1-29 0-40 3-31 11-56 32-66 57-10 23-14 60-12 103 1 12 1 27 1 33 1 7 2 18 5 31 5 27 9 41 14 52 6 14 8 25 6 35 0 5-2 9-2 11-3 3-13 9-33 18-34 16-52 25-68 36-32 21-49 36-71 63-13 15-22 29-26 38-3 6-11 34-11 37 0 4 4 7 9 8 7 1 17 1 69 0m-558-1h94c51 0 80 0 88-2 4-1 14-1 23-1h71c33-1 55-1 57 0s20 1 40 2c46 0 45 0 45-14 0-8-2-39-4-50-1-4-1-12-2-18-3-28-8-55-13-69-6-16-17-37-24-47-8-11-17-20-34-31-22-14-33-20-73-38-32-14-57-28-66-34-10-7-20-17-21-21-1-5 2-19 8-38 10-29 11-31 24-38 11-6 23-17 29-27 6-13 8-19 8-31 0-8 0-10-2-15-2-4-3-7-3-13 0-7 2-21 5-34 0-3 1-12 2-18 0-13 0-15-7-17-3-1-33-1-123-1C80 4 86 4 83 10c-1 1-2 5-3 9s-3 13-4 20c-5 17-6 26-6 40 0 21 6 65 14 95 6 27 7 32 5 35-2 4-7 5-19 6-11 0-14 2-24 9-7 6-41 42-43 46s-2 5-2 142c0 134 0 138 2 142 1 3 2 5 3 5 1 1 8 1 16 0h66z"/></svg>