<svg xmlns="http://www.w3.org/2000/svg" width="1344" height="566"><path d="M0 283V0h1344v566H0V283m842 277c3-2 4-4 7-22 2-12 3-22 4-39 1-12 1-28 2-34s1-16 2-21c1-16 2-25 5-33 2-7 2-8 2-26l-1-18 4-3c4-4 6-5 8-2 2 2 4 1 7-1 2-3 2-12-1-18-1-3-6-10-12-16-15-18-15-18-17-42-1-7-3-16-3-19-1-3-3-13-5-22-3-22-6-27-20-35-13-7-15-12-8-31 2-9 3-12 3-19 0-10-2-17-4-19-1-1-5-4-10-6-7-3-10-3-18-4-8 0-10 0-13 1-9 5-15 14-17 27-2 9-1 27 2 35 1 3 2 7 3 9 0 3 0 4-11 13-11 8-14 15-19 39-4 25-6 56-3 98 1 26 3 35 8 53 3 9 5 17 9 36 1 5 3 15 5 22 4 18 6 32 6 35-1 4-4 17-7 33-4 17-4 22 2 25 7 4 14 1 17-8 1-2 5-7 7-10 3-3 8-8 10-12 2-3 6-7 8-9 3-4 9-16 9-19 0-2 2-2 3 1 2 4 3 10 4 35 0 12 1 22 1 23l3 3c3 1 26 1 28 0z"/></svg>