<svg xmlns="http://www.w3.org/2000/svg" width="1344" height="566"><path d="M0 283V0h1344v566H0V283m699 276c35-1 68-2 73-2 4-1 14-3 21-5s15-4 17-4 10-3 19-6 20-7 25-9c8-2 53-16 60-18 4-2 32-4 46-4 25 0 43 3 64 9 14 5 25 8 31 8 6 1 10-1 9-5s-18-33-26-44c-12-17-13-21-17-57-3-31-6-40-19-67-5-9-10-19-11-23-1-3-4-10-6-16-6-17-14-31-23-40-7-7-9-8-20-14-17-8-32-15-58-24-22-8-31-14-49-31-16-15-17-17-12-32 10-29 12-36 14-47 5-20 9-33 15-43 12-19 16-40 12-61-4-17-6-18-32-20-21-1-192-1-213 0-13 1-14 1-17 3-2 2-2 3-2 9 1 4 2 18 2 30 2 31 6 46 16 63 13 23 19 38 19 49 0 5-3 12-10 22-17 26-20 30-27 33-5 3-30 13-38 16-8 2-15 6-17 9-2 2-2 3-2 7 1 8 8 26 13 34 3 5 7 13 10 19 12 22 12 24 2 64-3 13-5 24-9 46-1 6-2 21-3 33-1 21-3 38-7 57-3 18-1 39 4 51 3 5 5 7 10 9 4 2 0 2 136 1z"/></svg>