<svg xmlns="http://www.w3.org/2000/svg" width="1344" height="566"><path d="M0 283V0h1344v566H0V283m281 278c10-1 46-1 90-1 128 0 131 0 138-1 5-2 8-2 17-1 10 2 21 2 88 1 29 0 201 2 221 3 15 0 16 0 18-2 8-6 5-18-10-41-8-11-18-22-26-26-18-9-74-27-96-32-15-2-18-4-28-15-11-11-16-19-15-23 1-2 3-6 6-9 3-4 8-13 11-19 4-6 8-14 10-16 2-3 5-11 7-19 3-7 6-17 8-21s4-11 6-14c1-4 3-9 4-11 4-6 7-14 10-28 3-13 4-23 5-54 1-9 2-26 3-40 3-27 2-44-1-62-5-30-23-69-41-90-8-9-27-25-36-30s-19-5-103-5c-74 0-75 0-81 2-9 2-15 6-28 17-12 10-20 21-28 38-12 22-14 33-19 72-2 12-3 20-8 37-6 23-7 33-7 50 1 9 2 17 3 20 2 9 2 20 1 30-1 5-2 13-2 19 0 11 0 11 5 24 3 7 8 17 11 23 8 16 14 32 15 40 2 8 1 8-10 23-4 5-9 12-12 16-7 9-15 16-20 20-8 5-43 17-63 21-29 7-78 24-99 34-10 6-13 7-20 15-14 14-20 30-16 43 4 12 14 14 53 13 13 0 30-1 39-1z"/></svg>