<svg xmlns="http://www.w3.org/2000/svg" width="1344" height="566"><path d="M0 283V0h1344v566H0V283m668 275c23 0 57-1 76 0h168c178-1 170-1 196 1h45c22 0 24-1 26-2 4-6 0-15-18-51-17-31-21-38-32-50-23-24-41-34-90-55-13-5-33-14-43-19-13-7-26-13-34-16-15-5-27-12-41-23-9-7-13-11-14-17-1-7 4-33 9-41 2-6 6-9 15-13 13-6 27-22 33-37 2-6 4-19 4-22-1-2-3-5-6-8-6-7-6-6-1-33 11-54 11-65 4-88-6-16-9-21-23-35-11-11-13-13-24-18-6-4-14-8-18-10-13-9-30-13-40-10-3 1-10 1-16 1-15 1-30 4-45 11-14 6-28 14-31 18-12 15-19 29-25 49-3 11-8 38-10 55-1 9-4 14-9 17-7 3-9 6-12 11-2 5-2 7-2 16 0 15 2 25 10 39 7 14 10 24 14 44 3 14 3 18 3 35s0 20-1 23c-4 6-25 23-43 34-11 6-16 9-25 11s-35 12-62 24c-3 1-10 4-16 6-17 7-43 19-54 26-16 11-35 30-48 50-15 22-25 46-27 66 0 6 0 7 2 9l2 3 63-1c36 0 67 0 74 1 7 0 15 1 18 0 4 0 25 0 48-1z"/></svg>