<svg xmlns="http://www.w3.org/2000/svg" width="1344" height="566"><path d="M0 283V0h1344v566H0V283m627 277h85c89 0 86 1 90-6 1-3 1-7 2-17 0-17-2-30-9-58-6-27-9-36-15-48-4-9-4-10-4-19 0-6 0-11-1-12-2-3-7-6-25-14-9-4-24-11-33-15-9-5-20-10-25-12-20-9-22-10-24-13-3-5-3-10 11-62 2-10 5-24 6-30 2-12 2-13 1-34-1-11-3-30-3-41-5-59-6-65-15-88-6-16-26-44-38-53-21-15-52-30-65-30-6 0-19 3-33 7-6 3-13 4-18 4-17 2-30 10-45 27-18 23-27 45-36 96-12 59-16 85-19 112s-2 42 2 56c6 22 0 30-22 33-19 2-42 12-80 33-20 10-21 12-27 30-3 7-8 19-11 25-7 15-9 20-15 44-2 6-4 13-6 17-4 9-5 17-8 36-2 18-1 29 3 31 1 0 8 0 17 1h165c2 0 38 0 82 1h80c0 1 30 0 33-1z"/></svg>