<svg xmlns="http://www.w3.org/2000/svg" width="1344" height="566"><path d="M0 283V0h1344v566H0V283m676 278h113c16 0 33 0 39-1h108c54 1 111 1 126 1h28l3-3c4-4 3-8-13-52-3-8-3-11-4-22 0-9-1-14-2-16-1-4-12-10-23-14-5-2-21-9-35-16-45-19-52-23-54-31-3-7 0-30 7-54s8-45 7-84c-1-27-1-31-4-53-7-56-17-99-27-125-8-20-20-39-32-52-7-7-29-25-36-29-8-4-15-5-63-5-39 0-47 0-53 1-13 3-27 12-41 26-15 14-21 25-34 56-11 28-16 50-22 94-6 45-6 57-4 70 1 3 2 15 2 24 1 15 1 22-1 36-1 10-3 29-4 43 0 14-2 27-2 29-1 5-4 7-17 13-6 3-12 5-16 6-21 3-25 5-49 17-61 31-75 39-78 43-2 3-2 5-2 13 0 5-1 12-1 16-2 7-9 27-13 37-4 9-7 19-7 23 0 6 2 8 10 8 4 1 8 1 10 1 1 1 24 1 50 0h134z"/></svg>