<svg xmlns="http://www.w3.org/2000/svg" width="1344" height="566"><path d="M0 283V0h1344v566H0V283m554 278c28-1 257-3 278-2 2 0 47 0 99 1s98 1 102 1h44l2-3c3-4 2-9-10-44-3-10-4-13-3-26l1-9-3-3c-3-4-17-12-28-15-15-6-74-34-82-40-3-2-5-4-6-7-2-4-1-22 1-31 14-57 15-65 15-112 0-33 0-44-4-77-7-54-17-89-33-119-11-20-25-35-48-52-17-13-24-16-37-17-15-1-57-1-70 0-22 2-43 12-60 28-14 14-30 43-39 72-9 28-13 45-17 84-2 16-2 29-3 76-1 41-1 58-2 67-1 6-2 18-3 27-1 19-3 27-6 31-1 1-7 4-12 7-9 5-12 5-24 8-7 1-15 3-18 3-14 5-98 48-102 51-3 3-4 8-4 18s-2 18-13 48c-5 11-8 23-9 25-1 6 2 9 9 10 8 1 37 2 44 1 3 0 21 0 41-1z"/></svg>