<svg xmlns="http://www.w3.org/2000/svg" width="1344" height="566"><path d="M0 283V0h1344v566H0V283m554 277c5 0 12-1 14-2h28c35 1 118 0 120-1 3-3 3-7 4-28 1-20 2-42 4-55 1-9-2-8 38-9 29 0 39 0 55-2 11-1 23-2 27-2 18-2 51-8 65-12 12-4 32-14 40-21 13-12 22-24 22-30 0-4-1-5-5-16-7-15-31-48-44-59-8-7-14-10-25-15-11-4-16-9-24-21-6-9-9-12-17-17-3-1-7-4-10-6-4-3-6-4-10-2-3 2-12 0-20-4-24-11-25-11-29-10-12 3-18 1-42-14-8-5-16-10-19-11-2-1-5-3-6-5-2-3-6-27-8-42 0-8-2-14-7-35-3-15-5-20-9-27-12-24-36-39-76-47-21-5-28-5-39-4-14 1-34 8-49 15-8 4-20 13-26 19-9 10-33 49-41 67-1 2-3 8-5 12-1 3-4 9-5 11-1 3-3 6-7 9-11 7-30 19-35 21-11 4-15 6-30 16-17 12-30 18-47 24-25 9-31 13-42 29s-14 24-15 46c0 13 0 17 2 27 1 7 3 14 4 16 2 4 7 12 20 29 2 3 6 7 10 10 7 6 21 23 22 28 2 8-1 54-6 90-1 12-1 23 0 25s7 2 86 3c46 0 90 0 96 1 13 1 28 1 41-1z"/></svg>