<svg xmlns="http://www.w3.org/2000/svg" width="1344" height="566"><path d="M0 283V0h1344v566H0V283m634 276c25-1 437-1 472 0 13 1 29 1 38 0s19-1 21-1c7 0 9-3 9-9-2-8-5-14-21-48-3-6-8-15-10-20-8-13-26-31-43-44-8-6-33-20-44-24-17-6-52-22-62-28-8-4-23-11-41-18-6-2-15-8-27-17-11-8-14-13-12-20 1-2 6-13 13-25 14-25 21-38 28-58 6-15 11-33 11-40 0-2 1-12 3-23 6-41 7-54 5-69-1-9-10-32-15-41-13-21-23-30-54-49-19-11-25-13-38-9-5 1-7 1-13 0-3 0-10-2-15-2-9-1-7-2-29 6-15 6-36 20-46 30-7 6-13 17-15 26-3 9-6 29-9 52-2 28-3 32-5 36-1 4-2 5-7 7-12 5-16 12-16 27 0 17 5 30 17 44 11 12 12 15 13 23s1 36-1 53c-1 14-1 13-31 37-18 15-29 21-43 25-5 1-12 3-17 5-19 8-28 12-38 16-5 3-13 6-16 8-12 4-37 16-44 20-21 11-34 21-48 40-19 24-32 47-37 66-4 13-4 19-1 22l3 2 55-1c31 0 62 0 70 1 7 0 15 1 16 1 2 0 13-1 24-1z"/></svg>