<svg xmlns="http://www.w3.org/2000/svg" width="1344" height="566"><path d="M0 283V0h1344v566H0V283m466 276c3-1 7-8 7-11s2-5 4-5c1 0 3-1 4-1 2-1 7-2 13-2 12-1 14-2 19-6 6-6 12-20 11-25-1-1-5-6-9-11-8-9-8-9-8-13s0-4-4-7c-9-4-20-8-23-8-6 0-8-3-8-15 0-10 2-18 8-39 3-11 3-14 3-26 0-13 0-13-4-26-5-15-11-28-17-38-4-5-13-14-27-25-3-2-5-5-6-6 0-2 2-6 6-14 7-15 8-16 15-21s8-7 11-28c3-17 3-18 2-22s-2-13-3-24c-1-20-3-29-7-35-8-12-32-22-54-24-21-1-45 10-53 25-5 9-7 19-8 39-4 36-4 48-5 80v32l-9 18c-9 19-11 25-12 32-1 3-2 5-2 6-2 4-5 24-6 40-1 10-2 22-3 25-4 20-4 24-4 30 2 15 4 30 7 40 3 8 3 12 4 30 1 11 1 21 2 22 0 1 2 3 4 4 3 3 4 3 14 3h11l4 3c3 4 4 4 12 4 4 0 11 1 16 1h51c32 0 42-1 44-2m872 0c2-2 3-5 4-7V230l-5-8c-6-10-11-14-18-15s-9-3-15-8c-4-5-7-10-10-20-3-8-2-19 1-40 3-22 5-84 3-92-2-6-6-7-25-8-32-2-53-1-73 5-13 4-16 7-24 22-9 16-10 18-8 29 0 5 1 14 1 20 0 14 3 41 6 51 1 3 4 10 5 15 2 5 4 11 5 14 3 7 6 11 16 14 19 8 17 19-5 43-9 9-12 12-15 20-3 5-6 13-7 17-3 14-9 34-12 45-5 13-7 22-8 33-1 6-1 12-2 14s-1 8-1 13c0 22-3 46-6 55-2 4-13 18-20 25s-16 12-19 12-24-7-35-12c-2-1-7-2-9-3-4-1-5-1-7 1-4 3-3 7 4 13 6 7 8 11 6 15-2 5-7 10-14 14-4 3-7 6-8 8s-1 3 1 5c2 1 4 2 5 2 3 0 7 6 8 10 1 6 2 7 9 5 6-1 7-1 10 0 2 1 4 3 4 5 3 4 5 5 14 5 6 0 10 1 17 3 9 3 10 3 26 3 9 0 22 0 28-1 9-1 12-1 15 0 7 2 39 3 100 3h56l2-3m-630 1c8-1 13-1 15 0s7 1 17 0c16-1 40-1 116-1 38 0 49 0 51-1 5-3 6-8 6-24 0-8 0-20-1-26-4-45-4-124 1-152 2-12 5-37 5-44 0-5-3-21-5-28-1-2-2-6-2-8-3-19-10-47-15-57-4-11-10-22-14-26-1-2-4-6-6-9-3-5-3-7-3-14 0-9-2-12-11-13-4 0-8-2-9-2-2-1-5-6-9-11l-5-10-1-11c-1-9-1-14 1-24 1-7 1-20 1-29V54l-4-9c-3-7-6-11-10-15-13-12-19-16-29-18-18-4-35-2-54 8-10 5-14 7-19 13-10 10-11 13-12 32 0 12 0 17-1 21-2 4-2 7-1 16 0 7 0 14-1 20-1 8-1 9 1 12 1 2 5 9 10 17 15 25 18 28 34 31 7 2 9 3 12 6 2 2 4 4 4 5s-3 5-6 10-7 11-8 14c-3 5-4 7-11 31-1 8-5 21-9 30-3 9-6 23-8 31-5 25-11 49-16 69-2 7-4 18-6 26-5 19-7 28-10 38-4 11-14 53-14 56 0 2-1 6-2 9-5 19-9 40-9 45 0 8 2 9 14 9 6 0 16 0 23-1z"/></svg>