<svg xmlns="http://www.w3.org/2000/svg" width="1344" height="566"><path d="M0 283V0h1344v566H0V283m490 278c15-1 47-3 58-4 11 0 124-2 137-1 6 0 14 0 18 1 7 2 204 2 224 0 10-1 22-1 43 0 42 1 56 1 59 0 1-2 1-2-1-4-1-1-3-3-5-4-1-2-7-5-11-9-15-10-28-18-47-27-19-10-27-15-35-25-2-4-6-9-9-11-2-3-5-7-6-10l-2-4 2-9c6-16 22-51 46-95 10-20 14-25 26-31 21-11 33-24 42-45 5-12 7-19 7-30 0-10-1-13-7-18-7-5-7-7-6-19 1-6 2-15 3-20 1-6 3-17 4-24 1-8 3-18 4-22 5-27 4-50-1-66-4-13-19-40-27-49-6-7-23-18-36-24l-8-4-22-1c-13-1-41-1-83-1-75 0-75 0-88 11-15 13-27 37-40 80-3 13-6 30-9 56-1 17-3 25-6 27-1 1-4 3-7 4-12 3-16 9-19 23-2 10-2 15 0 27 3 23 12 40 27 51 9 8 10 11 7 41-4 40-9 57-22 75-7 9-11 10-31 6-15-3-27-3-32 0l-15 15c-29 31-36 37-65 49-6 2-14 6-18 9-8 5-27 15-39 22-8 3-38 20-48 26-16 9-36 25-36 29 0 0 1 2 2 3 3 1 7 1 25 2 32 1 34 1 47 0z"/></svg>