<svg xmlns="http://www.w3.org/2000/svg" width="1344" height="566"><path d="M0 283V0h1344v566H0V283m750 276c62-1 61-1 69-7 4-4 14-17 20-29 3-6 4-10 5-16 1-9 3-15 5-15 1 0 6 6 8 10 1 1 1 4 1 6-1 4 0 7 4 7 2 0 3 1 4 4 3 5 5 7 13 9 3 0 16 6 29 13 25 12 30 13 45 15 8 1 88 3 101 3h30c37 2 43 1 43-7 0-3-4-11-7-16-7-9-10-13-19-18-14-8-19-13-23-21-2-4-5-10-6-13-5-14-8-20-15-26-9-9-15-12-33-19-18-8-28-13-36-20-13-12-16-14-28-21-12-6-13-7-31-25-21-22-25-26-26-33-1-9-3-20-6-26-7-14-12-30-13-34 0-3 0-6 1-9 3-9 5-69 3-94-4-56-13-84-31-96-12-8-39-17-63-21-4-1-7-2-8-3s-3-4-3-7c-2-6-7-11-12-13-7-1-7-2-7-5 0-2-1-2-3-2-3 0-4 0-5 3-1 2-5 7-10 11-9 8-13 14-17 24s-5 13-11 22c-15 22-20 35-31 77-2 6-5 16-6 23-2 6-5 13-6 16-3 13-11 34-18 48-8 16-10 20-29 47-3 4-6 10-8 14s-6 9-12 16c-9 10-14 15-30 35-6 8-16 21-23 30-33 43-43 58-48 74-6 15-14 50-17 66-2 18 0 22 12 23 9 1 172 1 248 0z"/></svg>