<svg xmlns="http://www.w3.org/2000/svg" width="1344" height="566"><path d="M0 283V0h1344v566H0V283m48 276c14-1 73-3 115-3 31-1 37-1 42-6 6-5 8-19 4-36-3-14-6-33-7-48-1-7-2-19-3-26-1-8-2-17-3-20-1-15-9-49-12-60-4-11-12-28-15-34-5-7-13-15-26-27-23-19-25-21-23-30 1-7 2-9 11-23l7-12 1-10c1-12 1-13 6-20 1-2 4-7 5-11 2-4 6-9 9-12 6-6 9-12 9-18s-3-17-10-33c-4-9-7-18-8-20-1-3-1-12-1-27l-1-22-10-21c-5-11-11-23-12-25-2-3-4-5-8-7-4-3-7-3-18-4C79 3 7 2 4 4L1 5v552l2 1c6 3 14 3 45 1m1056-1c2-2 2-2 1-9-1-3-5-12-8-18-4-10-6-12-17-23-6-7-15-17-19-22-8-10-18-19-30-28-4-3-15-13-24-21-24-22-32-29-55-46-3-2-9-7-15-11-16-13-17-13-38-15-10 0-19-1-21-2-8-3-19-13-23-21-7-13-8-33-4-52 3-14 6-18 18-32 10-11 20-30 24-44 2-8 1-17-1-26s-2-17 0-30 3-36 1-46c-4-24-17-44-41-59-27-18-51-25-82-25-27 0-47 5-61 13-30 19-42 35-48 60-3 10-3 16-8 67-1 13-3 31-5 41s-3 20-3 24c0 7 5 38 8 51 3 11 13 38 18 46 3 5 7 9 20 20 10 8 9 12-1 18-3 3-16 10-28 16-26 13-39 21-56 34-28 21-48 39-58 52-4 6-10 13-14 18-12 16-17 24-22 42-6 19-6 22-5 25 3 5 7 5 43 5 70-2 284-3 286-2 0 1 43 1 96 1 52 1 96 1 96 2h37c35-1 37-1 39-3z"/></svg>