<svg xmlns="http://www.w3.org/2000/svg" width="1344" height="566"><path d="M0 283V0h1344v566H0V283m473 276c45-3 80-4 167-3 65 1 154 1 240 1 35-1 77 0 92 0 43 2 50 2 52-1 4-3 2-14-5-28-7-15-36-40-67-58-5-3-19-9-30-14-33-16-37-18-41-22-5-4-5-6-2-16 5-13 11-25 22-42 6-10 14-23 17-29 25-39 28-43 41-57 15-14 19-21 28-38 8-16 11-26 12-36 0-8 0-9-6-17-2-3-2-4-2-11 0-5 1-12 2-16 2-13 3-16 11-64 2-19 3-29 0-43-3-16-7-26-15-38-12-16-20-21-35-22-5-1-56-1-114-1-102 0-107 0-116 2-5 1-10 3-12 4-5 3-11 17-18 41-7 22-7 27-13 68 0 7-2 14-3 15-1 3-6 5-11 5-8 0-16 6-20 13-5 9-5 27-1 46 4 17 9 26 25 44l6 7v13c-1 8-2 17-2 21-1 4-3 12-3 16-5 24-17 51-26 58-5 4-8 5-21 6-18 2-42 5-44 6-3 2-9 10-16 23-18 31-29 44-55 62-3 2-13 10-21 16-8 7-23 17-33 24-35 24-74 55-74 60 0 3 4 5 14 6 11 1 58 1 77-1z"/></svg>