<svg xmlns="http://www.w3.org/2000/svg" width="1344" height="566"><path d="M0 283V0h1344v566H0V283m666 277h34c1 1 22 1 46 1h79c21 1 46 0 62 0 32-2 38-2 92-1 22 1 76 1 121 1l82 1 6-4c13-6 20-16 17-21-2-3-11-11-25-21-7-4-13-9-15-11-2-1-11-8-19-16-21-16-31-24-34-29-3-4-3-5-3-13 0-5 1-11 1-13 1-5 3-37 5-68 1-26 1-43-4-104-3-40-4-52-9-78-6-38-14-66-23-82-6-13-10-19-21-31-17-17-41-31-73-42-12-4-15-4-25-5-11 0-13 0-29 4-45 11-53 14-70 25-13 9-23 19-32 31-11 17-15 28-19 51-2 8-1 35 2 45 2 9 2 25 0 43-1 7-2 22-3 32-2 36-4 55-7 71-1 5-2 15-3 22 0 6-1 13-2 14-2 3-9 9-15 12-3 1-9 3-14 4-5 0-17 3-26 5-24 6-29 7-38 8-5 1-15 2-22 4s-20 4-27 5c-22 3-30 8-42 23-10 14-15 25-20 49-2 8-11 36-14 40-1 2-3 7-6 12-6 9-9 17-10 26 0 10 1 10 16 11 7 1 22 1 34 0 12 0 35-1 53-1z"/></svg>