<svg xmlns="http://www.w3.org/2000/svg" width="1344" height="566"><path d="M0 283V0h1344v566H0V283m716 276c22-2 201-3 428-1 148 1 169 1 172-1 1-2 1-2-1-4-1-2-5-4-8-6-7-3-16-8-39-23-11-6-21-12-29-15-7-3-15-8-19-11-8-6-15-10-28-18-14-8-17-9-29-18-25-18-32-24-57-51-9-9-13-12-26-21-8-5-17-11-21-13-3-2-9-6-13-8-4-3-7-5-7-5-1 0-8-4-16-8-26-15-34-20-48-25-41-18-61-25-85-30-42-8-50-10-55-15-2-2-3-4-3-7s1-6 8-15c7-11 6-30-3-60-7-21-8-24-16-37-6-10-16-31-20-41-6-15-32-50-45-60-15-13-36-22-60-28-32-7-45-7-69 4-6 2-18 7-27 10-19 7-31 14-43 26-18 17-27 32-38 71-7 23-8 31-8 45 2 20 10 48 21 71 3 5 5 11 6 14s4 11 7 18c3 6 6 15 8 18 3 10 5 13 11 17 8 5 9 6 21 10 17 5 29 14 29 22 0 7-4 16-17 38-3 6-6 11-6 11 0 1-1 4-3 8-3 8-6 24-5 37 1 9 4 22 9 34 3 8 14 31 16 33 1 1 4 6 7 11 11 19 12 20 25 23 11 2 56 3 76 0z"/></svg>