<svg xmlns="http://www.w3.org/2000/svg" width="1344" height="566"><path d="M0 283V0h1344v566H0V283m918 275c11 0 31 0 44 1 28 0 37-1 41-5 2-2 2-3 2-12 0-15-9-53-15-66-6-10-17-28-33-52-5-8-12-18-15-24-4-7-9-14-12-18-2-4-6-10-8-13-2-4-6-11-10-17-11-19-16-27-21-38-6-10-7-14-22-41-5-9-8-16-9-21-4-16-4-16-8-18-3-3-7-4-27-10-11-3-16-7-16-11 0-1 1-5 2-9 10-23 16-67 13-88-1-11-6-21-13-27-10-10-33-18-52-21-10-1-16-1-25 2-16 6-26 17-29 33-3 15-2 50 2 69 2 12 2 21 0 25-2 3-10 10-18 13-5 3-12 5-23 7-28 6-75 29-93 46-14 13-45 50-52 61-2 4-7 11-10 16-9 15-13 24-17 36-5 13-6 16-11 22-1 2-5 7-8 12-8 12-20 28-25 34-6 7-26 35-33 46-4 6-9 12-11 15-3 4-7 16-6 19 1 4 12 18 16 21 5 3 10 3 26-3 17-5 23-6 36-4 8 1 9 1 13 6s5 5 17 8c7 2 17 3 23 4 20 2 82 3 224 2h163z"/></svg>