<svg xmlns="http://www.w3.org/2000/svg" width="1344" height="566"><path d="M0 283V0h1344v566H0V283m820 277c0-1 0-2-2-4-7-5-31-16-59-27-4-1-11-4-17-5-20-5-22-6-32-11-4-3-13-8-18-10-11-6-17-12-26-21-6-6-9-10-23-32-9-15-19-23-45-36-16-8-18-9-18-13 0-3 8-23 10-26 1-1 6-4 9-6 9-5 16-12 20-19 3-5 8-21 12-39 3-11 11-35 14-40 3-4 7-7 9-7 1 0 5-1 8-3 5-3 5-3 8-2 2 1 6 4 9 7 9 8 9 7 8-10 0-18 0-19 8-19 5 1 5 1 7-2 2-2 3-5 4-7 1-8-2-30-8-48-2-7-6-18-9-27-14-50-30-80-55-103-16-14-18-15-50-23-10-3-21-6-24-8-4-1-13-3-19-5-10-2-14-2-31-2-23 0-42 1-51 4-8 2-25 8-32 12-16 9-30 26-42 50-14 28-17 48-13 80 1 9 3 20 3 24 1 9 4 24 7 41 2 6 2 8 1 14-1 4-4 11-6 15-4 11-6 20-5 33v11l-5 8c-3 5-8 13-12 18s-8 10-9 12c-7 13-33 24-65 29-22 3-30 5-37 7-19 8-34 24-39 45-4 15-12 80-10 82v25c1 22 1 25 3 28 2 5 12 10 21 10 4 1 111 1 238 1 128 1 232 1 233 1 0 1 29 1 64 0 57 0 65 0 66-2z"/></svg>