<svg xmlns="http://www.w3.org/2000/svg" width="1344" height="566"><path d="M0 283V0h1344v566H0V283m888 274c5-4 7-12 8-38 1-12 1-26 2-30 1-13-3-41-8-56-1-2-2-7-2-10-2-8-5-24-6-27-2-4-6-18-6-22-1-2-3-8-5-14-1-6-3-12-4-14 0-3-3-12-6-20-3-9-7-20-8-24-3-11-13-31-19-40-5-8-18-22-25-28-3-2-8-5-11-6-8-3-13-7-17-15s-5-17-2-33c4-25 2-45-8-60-17-24-42-32-69-22-3 1-9 3-14 5-6 2-10 3-15 8-17 14-28 29-33 45-2 7-2 10-2 16 1 9 4 17 8 21 4 3 6 9 6 20 1 7 1 8-2 13-8 12-8 13-15 34-3 9-7 20-11 25-1 2-4 9-7 15-4 9-8 15-12 22-4 4-9 12-13 17-7 10-12 16-37 39-22 21-27 25-35 27-3 0-10 3-16 5-12 4-14 4-26-1-8-4-9-4-17-4-9 1-11 3-12 9-1 4-5 7-17 10-17 5-17 6-19 9-3 4-2 11 2 19 6 13 9 16 16 18 12 4 25 7 28 7 2 0 25-6 42-11 24-7 31-7 37 0 2 3 7 8 11 12 7 7 9 9 19 13 16 8 19 9 23 7 5-2 12-2 19-1 2 1 7 1 11 2 9 2 11 3 17 8 5 6 7 10 6 17v5l9 11c13 14 13 14 40 16 23 1 93 3 152 3 37 0 41-1 43-2z"/></svg>