<svg xmlns="http://www.w3.org/2000/svg" width="1344" height="566"><path d="M0 283V0h1344v566H0V283m878 278c23 0 51 0 62-1 19-1 22-1 23-3 2-2 2-2 0-5-3-4-15-14-30-24-8-5-16-11-17-13-5-5-7-14-7-27 0-8 0-10 2-14 3-6 6-7 19-5 20 2 25 0 33-13 12-20 20-40 20-47 0-8-2-9-27-20-19-8-21-9-34-11-17-4-30-12-32-20-1-5 7-20 15-25 5-3 5-4 5-6-1-2-1-5-2-7s-1-4 0-11c4-24 5-47 4-58-2-19-13-43-26-57-9-9-16-15-29-21-20-11-31-14-55-15-18-1-33-1-55 3-9 1-14 2-24 6-8 3-15 6-17 7-10 3-14 13-16 35 0 12 0 13-6 26-5 14-5 15-7 29 0 9-1 19-1 23 0 3 0 8-1 10-3 10-5 23-6 33 0 6-1 14-2 18-2 10-1 61 1 68 1 2 2 8 2 13l1 9-3 4c-6 8-7 9-19 7-13-1-16-2-15-7 1-4-1-21-2-26-2-7-6-10-18-16-6-3-12-5-14-5s-4 1-7 4c-3 2-7 5-9 6s-6 3-7 5c-6 7-17 26-19 34-2 5-5 24-6 39-1 8 0 14 4 18 4 2 4 4 6 11 1 5 2 10 3 12 2 3 2 4 2 8-2 10 2 16 10 17 3 1 8 2 12 4 11 5 21 6 97 7 35 1 69 1 76 2 6 0 26 1 43 0 17 0 50 0 73-1z"/></svg>