<svg xmlns="http://www.w3.org/2000/svg" width="1344" height="566"><path d="M0 283V0h1344v566H0V283m625 277c3 0 42-1 87 0 91 0 85 1 89-6 4-8 2-39-4-63-10-39-14-51-19-61-3-6-3-7-3-17s0-11-3-13c-1-2-10-7-20-11-9-4-23-11-32-15-14-7-18-9-36-16-12-5-18-9-20-14-1-4 0-10 4-24 1-5 4-15 6-24 1-8 3-16 4-17 1-2 2-8 4-13 2-10 2-12 2-28 0-21-4-81-8-111-2-13-7-31-11-40s-18-29-25-37c-9-9-17-15-30-23-19-11-38-19-49-19-7 0-21 3-33 8-7 2-12 3-18 3-17 2-32 12-48 34-16 21-24 47-34 105-1 8-3 19-5 26-3 18-8 49-10 68-2 18-3 39-1 50 3 24 3 25 1 31-1 5-2 6-6 8-3 2-7 3-11 4-14 2-17 3-25 6-12 4-50 23-63 31-15 9-17 12-21 23-2 5-7 17-11 27-6 11-10 21-13 30-2 8-6 20-9 28-2 8-4 16-5 24-4 25-4 38 0 43 2 2 3 2 22 2 19 1 77 1 159 1 23 0 59 0 79 1 45 1 109 0 116-1z"/></svg>