<svg xmlns="http://www.w3.org/2000/svg" width="1344" height="566"><path d="M0 283V0h1344v566H0V283m215 279c4-1 39-2 71-2 11 0 28 0 38-1 14-1 17-1 21 0 4 2 25 2 119 3 139 1 133 1 236 0 67-1 86-1 92-3 9-1 11-1 22 2l10 2h35c19-1 57-1 85-1 28-1 54-1 58-2 10-2 41-3 78-3 27 0 33 0 38 2 6 1 21 2 30 0 6-1 19-7 20-10 1-2 1-14 0-20-6-25-8-43-10-89 0-15-4-56-6-68-1-4-2-15-3-25-7-48-15-69-34-87-11-11-25-19-60-33-9-4-14-6-23-13-6-5-12-10-14-13l-3-5v-16c1-18 1-20 9-29 3-4 7-10 9-13 2-6 3-9 3-14 0-6 0-7-4-11l-3-4V93c0-25-1-35-5-44-4-7-12-19-17-22-2-2-13-6-25-9-7-1-8-1-15 0-5 1-11 3-13 4s-8 3-12 4-10 4-18 10c-11 7-12 8-15 15-5 9-5 12-7 40-1 11-2 21-3 23-2 6-1 16 6 31 6 15 9 24 11 34 2 14 1 19-6 23-3 2-8 6-12 9-11 9-18 13-42 25-33 17-47 28-59 46-7 11-13 23-15 29-1 5-5 10-6 10-4 0-16-20-37-59-11-21-26-46-34-58-18-27-44-46-72-50-6-1-28 0-41 2-12 2-26 9-40 22-7 6-27 29-31 36-6 11-12 28-16 51-2 7-4 17-5 23-2 7-4 17-5 24-2 16-3 27-6 40-1 7-2 16-2 21 0 13-2 27-4 32-1 4-3 5-7 8-6 3-19 8-36 13-4 1-13 4-18 6-17 5-19 5-18-9 1-12 0-29-4-47-13-64-13-64-28-78-5-5-11-10-15-13-3-2-6-4-7-5 0-1-3-4-7-7-8-6-12-11-11-17 1-1 3-7 5-12 8-17 10-21 13-33 3-15 4-27 2-45-1-8-2-17-2-20 0-19-8-35-22-44-14-10-27-14-42-14-19 0-36 6-46 17-11 11-14 20-14 39 0 8-1 15-2 18 0 4-1 8-1 11 0 5 4 17 12 33 4 9 4 12 5 19 0 10-1 13-8 16-4 2-7 5-13 12-10 12-24 26-32 33-4 3-8 7-10 10s-6 7-9 10c-10 8-21 17-27 24-6 8-10 16-14 29-2 11-4 31-4 37 1 5-1 29-3 47-1 8-2 19-2 23 0 10 5 27 12 40 2 2 3 6 3 8 2 8 10 31 13 36 2 3 5 6 7 8 4 2 5 2 30 4 14 0 26 1 27 1s3 0 5-1z"/></svg>