<svg xmlns="http://www.w3.org/2000/svg" width="1344" height="566"><path d="M0 283V0h1344v566H0V283m736 277c10-2 14-3 18-7 3-4 3-8 0-15-3-6-4-20-5-61 0-23 0-38 2-61 2-37 1-47-3-66-10-39-16-49-45-77-7-7-14-15-15-16-1-2-1-4 1-11 12-47 13-52 11-90-1-27-3-39-7-51-5-16-11-24-24-39-14-14-41-29-64-35l-11-3h-28c-26 0-29 0-39 2-39 9-66 32-77 70-3 8-5 18-9 46-1 11-3 20-3 22-1 1-3 5-6 7-7 6-7 8-4 29 2 10 3 22 4 28 0 12-1 16-10 22-6 4-28 15-33 16-8 3-62 32-77 42-28 19-72 67-85 92-6 12-8 16-14 42l-3 12v22c1 14 1 24 2 26s2 11 2 21c1 15 1 18 3 23 4 10 1 10 53 9h94c90-1 104-1 136 0 62 2 71 3 150 2 51 0 81 0 86-1z"/></svg>