<svg xmlns="http://www.w3.org/2000/svg" width="1344" height="566"><path d="M0 283V0h1344v566H0V283m625 276c30 0 54-1 55-1 2-2 169-1 171 1 1 0 151 2 193 1h39l3-2c2-2 2-3 1-6-1-9-9-22-17-30-3-4-9-11-13-16-10-12-18-19-42-39-10-9-23-20-29-25-5-5-12-11-14-13s-6-5-9-7c-2-2-6-6-10-8-7-5-29-22-34-26-10-8-17-10-33-10-14 0-20-1-27-6-10-6-13-9-17-19-6-14-7-21-7-36 1-11 1-14 4-24 3-7 5-13 7-15 3-4 15-21 20-30 3-6 8-21 9-31 1-7 1-10 0-15-3-13-3-15-2-26 3-18 3-35 2-44-3-23-13-43-28-56-31-26-64-36-108-33-25 2-37 5-54 16-18 11-30 24-37 39-6 12-7 18-8 37-1 9-2 25-4 35-1 9-3 23-3 30-1 7-2 16-3 21-2 13-2 31 1 46 5 26 7 33 15 54 8 23 15 32 26 40 7 5 11 9 11 13s-5 9-12 13c-50 27-56 31-75 46-38 30-49 40-65 63-13 16-16 22-22 32-4 8-8 22-8 26 0 2 4 6 7 6 1 1 16 1 32 0 17 0 55-1 85-1z"/></svg>