<svg xmlns="http://www.w3.org/2000/svg" width="1344" height="566"><path d="M0 283V0h1344v566H0V283m922 172c8 0 19-2 24-3 8-1 10-2 12-4 3-3 3-3 3-10-1-4-2-9-4-12-10-21-13-28-20-45-4-11-8-21-9-23 0-3-1-6-2-9 0-2-1-5-1-7 1-3 1-3 12-5 2-1 6-1 8-2 4 0 8 3 11 11 3 5 3 7 3 10-1 5 1 11 10 23 0 1 4 5 8 8 6 4 9 6 12 6 2 1 7 2 9 4 5 2 5 2 9 1 3-1 5-3 8-6 1-3 4-7 5-8 1-2 3-6 5-9 1-4 3-8 4-11s1-7 1-31c1-27 1-28 3-32s2-5 2-39c0-25 0-36-1-38-2-5-13-21-18-25s-10-6-24-8c-18-3-27-6-39-12-10-5-12-6-20-14-7-7-10-10-13-18-3-5-7-12-9-16s-7-12-11-20c-9-19-21-35-31-40-6-3-7-3-17-3-14 1-19 3-30 14-9 8-15 19-15 25s12 33 21 46c6 9 7 11 11 13 5 2 6 2 14 1 7 0 9 0 12 1 3 3 6 9 7 18 1 18 4 32 11 54 3 10 3 12 3 21-1 11-2 13-9 13-2 0-6 0-8 1s-8 2-13 2c-11 1-14 3-12 8 0 1 2 5 3 7 1 3 2 9 3 14 1 7 2 9 10 26 6 11 11 23 13 29 6 20 11 27 19 27 7 0 14 9 18 22 2 9 1 12-7 20-6 5-21 15-24 15s-11 6-11 8 3 3 16 4c10 1 17 1 38-2z"/></svg>