<svg xmlns="http://www.w3.org/2000/svg" width="1344" height="566"><path d="M0 283V0h1344v566H0V283m698 277c23-2 22-2 56 0h49c25-1 146-1 232-1 64 1 64 1 66-1s2-6-1-20c-3-19-7-28-19-48-27-45-44-61-95-87-24-13-41-22-46-25-3-2-10-6-15-10-5-3-12-7-16-10-6-4-35-18-41-21-2 0-8-2-13-3-6-1-11-3-13-4-4-2-5-7-6-19-2-24 1-41 11-66 10-24 16-46 15-57-1-3-2-9-4-13-2-6-2-10-3-24-2-40-5-54-14-70-11-19-26-31-57-42-31-12-67-14-99-6-9 2-27 10-40 17-12 7-25 19-33 31-13 19-15 33-12 74 0 10 1 34 1 53 0 44 1 50 11 76 1 3 3 8 4 10 1 3 3 9 5 14 2 4 4 8 4 9 0 0 5 11 12 25 7 13 12 25 12 26s-1 3-2 4c-2 3-20 19-32 28-5 5-12 11-15 14-9 7-22 16-49 32-12 8-28 17-35 22-6 4-17 11-25 15-25 15-44 29-52 41-4 5-10 15-14 23s-2 13 5 13c2 0 59 1 126 1 88 0 129 0 142-1z"/></svg>