<svg xmlns="http://www.w3.org/2000/svg" width="1344" height="566"><path d="M0 283V0h1344v566H0V283m270 278c24-2 117-2 140-1 26 2 37 2 111 0h74c10 0 155 2 215 3h27c3-1 5-6 5-12 0-5-1-7-7-17-4-6-9-14-12-18-12-14-17-16-59-31-29-10-32-11-56-17-18-4-26-9-39-25-4-5-7-11-7-13 0-1 2-5 5-9 2-3 8-14 13-23 4-10 9-19 10-21s4-9 7-16c3-6 7-14 8-17 2-2 5-7 6-11 2-4 5-9 7-13s5-9 5-12c3-10 7-33 8-50 1-10 2-28 3-41 2-17 2-31 2-48 0-22 0-26-2-35-3-12-8-28-15-44-14-34-26-50-52-68S647 5 566 4c-72 0-82 0-92 5-22 12-47 36-56 53-3 7-9 23-12 33-1 5-3 20-5 33-3 26-5 32-10 46-2 5-4 14-6 20-2 10-2 12-2 28 1 15 1 18 3 23 4 9 4 14 2 25-1 6-1 14-1 22 0 17 3 27 13 48 8 17 16 40 16 45s-9 18-22 33c-5 6-11 13-13 16-4 6-13 12-26 18-10 4-14 6-50 15-33 10-38 11-58 19-19 7-41 17-47 21-7 5-15 15-20 25-4 9-5 11-5 16 0 9 4 13 14 14 8 1 63 0 81-1z"/></svg>