<svg xmlns="http://www.w3.org/2000/svg" width="1344" height="566"><path d="M0 283V0h1344v566H0V283m625 276c101-1 110-1 134-4 16-2 49-3 56-2 25 4 28 4 59 4 14 1 38 1 52 2 24 1 55 1 66-1 3 0 6-1 7-2 2-3 1-8-3-13-7-8-14-13-33-22-10-5-22-11-26-14-8-4-35-25-35-26l-8-10c-5-5-10-11-12-14-3-4-6-7-8-8s-6-4-8-6c-3-2-8-6-13-8-11-4-18-10-38-29-4-4-7-10-9-18-2-10-1-17 2-30 11-40 10-36 11-56s0-47-2-62c-3-15-5-33-5-46-1-12-3-25-6-36 0-3-2-12-4-20s-4-18-5-22c-5-15-15-32-28-47-5-6-16-13-25-16-3-1-11-4-18-7s-15-5-20-6c-4-1-12-2-17-3-13-2-19-1-29 4-6 3-11 5-17 6-4 0-11 2-15 4s-10 4-14 5c-5 2-6 3-9 6-2 3-5 6-8 8-6 4-10 10-17 23-8 14-10 23-11 46 0 14 0 19 2 30 2 16 3 17 0 25s-3 21-1 29c3 8 5 13 11 20 4 6 7 14 9 22 1 5 0 26-2 30-1 1-2 6-3 10-1 8-4 16-8 19-1 1-7 3-12 4s-11 2-12 3c-1 0-5 7-10 15-12 21-23 33-36 37-6 1-14 4-25 8-4 2-10 3-14 4-4 0-9 1-10 2-2 1-7 1-12 1s-10 1-13 2c-7 2-31 3-36 2-4-2-4-3-6-11-3-14-3-15-2-24 2-10 4-13 9-15 6-2 8-2 14 0 7 2 11 3 14 0 1-1 4-4 7-8 2-3 5-7 6-9 2-2 2-4 3-13 0-16-3-22-17-36l-7-7v-8c0-10-1-11-14-11-11 0-15 2-26 10-5 5-6 6-7 11-4 12-6 16-10 24-6 8-6 10-8 24-1 6-4 14-5 18-2 5-5 13-6 18-3 14-6 20-16 35-9 14-14 20-38 50-8 10-16 21-17 23-2 2-7 10-11 17-5 7-10 15-12 18s-5 9-8 12c-4 6-13 23-13 26s3 5 7 5 7 0 24 3c6 1 40 2 49 1 2 0 6-5 8-9 1-2 3-7 5-12 2-4 4-9 5-11 1-1 3-6 5-10 1-4 5-13 8-19 3-7 5-13 6-14 1-3 6-12 8-15 3-4 6-3 6 1 0 6-3 26-4 33-3 10-3 14 2 22 2 5 5 11 6 15 2 10 7 19 12 22 1 0 27 1 67 1 36 0 66 0 66 1h7c3-1 53-1 111-1z"/></svg>