<svg xmlns="http://www.w3.org/2000/svg" width="1344" height="566"><path d="M0 283V0h1344v566H0V283m446 278c40 0 61 0 62-1l4-4c3-6 1-31-4-50-1-5-3-15-5-22-5-26-10-39-20-50-6-6-19-16-31-23-8-5-13-10-14-14-1-3-1-5 2-11 8-21 18-33 32-38 11-5 15-7 17-9 2-3 2-4 1-34v-31l-4-7c-7-11-12-22-14-33s-9-26-14-33c-8-11-19-16-45-19-14-2-21-2-32-1-20 4-32 10-46 23-12 13-17 22-20 36-1 8-2 49-4 129 0 22-1 40-1 41-1 0-1 6-1 12l-1 11-5 9c-8 14-12 26-13 40 0 5-2 10-2 12-1 3-4 10-6 18-4 11-4 13-4 23 0 8 0 12 1 16 4 10 0 9 52 10h48c1 1 3 1 4 0h63m372-1c42-2 47-2 78-2 17 0 54 0 83 1h70c17-1 18-1 21-4 4-4 5-8 11-67 3-23 4-42 4-62 0-17 0-20-2-29-4-13-8-22-20-45-18-36-31-54-60-80-6-5-12-11-13-13-4-3-7-10-7-16-1-6-3-11-6-11-1-1-4-1-8-2-7-1-10-3-15-11-3-5-7-15-7-20-1-4 1-19 4-29 2-5 5-15 6-23 2-8 6-21 8-29 4-17 5-31 3-43-2-8-10-28-16-36-2-5-17-13-28-18-7-2-22-5-32-5-14 0-54 12-67 20-7 4-17 14-20 20-2 4-3 7-3 18-1 12-1 17-4 25-2 7-3 14-4 23-1 11-2 15-7 29-3 9-5 18-5 19s2 5 4 10c2 4 6 12 7 18 4 15 11 30 15 34 5 5 13 9 22 10 4 1 8 3 10 4 4 3 14 16 14 18 0 1-2 4-4 7-3 3-5 6-5 6s-5 7-12 14c-16 17-19 23-20 37-1 10-2 13-11 34-4 9-8 21-13 34-6 15-18 63-20 82-1 7-2 15-3 18-2 11-2 38-1 43 3 12 8 20 16 22 1 0 5 1 8 0 3 0 16 0 29-1z"/></svg>