<svg xmlns="http://www.w3.org/2000/svg" width="1344" height="566"><path d="M0 283V0h1344v566H0V283m518 277c185 0 237 0 272 1 18 1 75 1 128 1 91 0 96 0 102-2 4-1 8-3 10-3 2-1 7-2 10-2 7 0 17-2 18-3 3-3-9-5-28-6-18 0-40-2-64-3-18-2-30-4-42-8-4-1-13-1-32-2-15-1-36-2-48-3-25-2-29-3-48-14-7-3-16-8-21-10-10-4-27-11-31-12-10-3-20-7-25-9-3-1-8-3-11-4-11-3-21-8-40-18-18-10-24-14-33-23-7-8-9-11-11-16-4-10-5-14-3-20 3-8 6-17 7-24 3-11 13-51 15-58 1-3 4-10 6-14 4-9 4-10 4-18 0-7 0-10-2-15-4-8-4-11-1-21 2-8 7-17 12-22 5-4 6-6 7-17 1-9 1-15-1-33-3-16-3-32 0-33s7 5 16 24c10 20 18 32 22 35 3 2 6 0 9-4 2-3 2-5 2-12-1-7-8-37-10-41-1-2-11-33-14-45-10-36-10-38-17-52s-9-17-24-33C640 8 638 7 614 5c-22-1-160-2-175 0-10 1-15 3-21 9-10 10-23 34-27 49-8 25-6 58 5 96 1 7 3 14 3 15 0 5-5 17-8 22s-14 15-29 26c-30 24-35 28-39 36-4 7-4 10-3 22 1 15 0 18-6 25-5 5-8 6-25 15-25 12-30 16-39 35-7 14-7 15-8 44 0 15 0 28-1 31 0 2-3 12-5 22-8 35-11 49-14 58s-3 11-4 23c0 16 1 20 6 23 4 3 17 4 37 4 10 0 22 1 27 1 4 0 31 1 58 0 28 0 105 0 172-1z"/></svg>