<svg xmlns="http://www.w3.org/2000/svg" width="1344" height="566"><path d="M0 283V0h1344v566H0V283m690 276c73-1 406 0 430 1 30 2 60 0 63-3 3-2 2-7-9-32-10-21-13-28-20-38-16-24-31-40-51-53-6-4-37-20-45-23-5-1-41-19-55-26-5-3-14-7-21-9-18-6-24-10-23-18 1-5 6-16 15-35 7-15 12-27 19-44 5-11 8-23 11-39 1-8 3-20 5-27 2-14 2-20 0-39 0-5-1-18-2-29-1-18-2-28-5-47-1-4-2-9-4-12-7-13-24-31-38-40-7-5-31-16-40-20-3-1-9-3-12-5-8-3-13-4-23-2-4 0-15 1-26 0-11 0-24 0-28 1-11 1-21 7-35 19-17 15-35 34-38 40-4 7-7 22-8 40 0 17 0 26 4 50 3 16 3 17 2 29-1 13 0 22 2 32 1 7 2 9 8 22 7 15 7 21 4 40-6 25-9 31-21 40-3 3-10 7-14 11-20 15-41 26-58 30-9 3-14 5-27 10-4 2-11 5-16 7-6 2-17 7-25 10s-18 8-23 10c-12 5-32 15-41 21-15 10-35 31-49 51-13 20-26 54-26 68 0 9 2 10 27 9 26 0 98 0 117 1 7 0 20 1 27 0 7 0 29 0 49-1z"/></svg>