<svg xmlns="http://www.w3.org/2000/svg" width="1344" height="566"><path d="M0 283V0h1344v566H0V283m288 276c3-1 6-1 8 0 4 1 196 2 223 1h42c13 0 51 1 84 0 70 0 64 1 64-11 0-3 0-9-1-13-1-3-2-9-2-14-2-11-5-19-10-34-6-21-8-26-14-37l-5-10v-9c1-9 0-13-5-16s-30-13-54-21c-23-9-40-17-43-21-1-1-2-4-2-5 0-7 7-35 13-53 3-9 6-23 7-36 2-15 0-33-4-74-2-12-3-24-3-29-2-17-4-37-7-51-8-40-20-56-65-85-10-6-24-12-34-14-14-3-35-2-46 2-2 1-8 3-13 3-19 2-34 9-48 23-24 25-37 55-47 113-1 7-2 13-2 13-1 0-2 8-4 17-3 19-6 41-8 66-2 16-3 22-5 43-1 4-1 19-2 33 0 14-1 27-1 29-2 4-7 8-23 14-20 7-35 15-49 26-13 10-22 16-36 23s-22 16-22 26c0 1-4 9-8 18-12 23-17 41-19 66 0 10 0 11 2 14l3 4h17c27 1 114 0 119-1z"/></svg>