<svg xmlns="http://www.w3.org/2000/svg" width="1344" height="566"><path d="M0 283V0h1344v566H0V283m600 277c35-2 29-2 65 0 35 1 184 1 212 0 11 0 27-1 37-2 12-1 32-1 74 0 67 1 70 1 72-2 7-6-5-20-36-44-21-15-42-29-58-36-6-3-14-8-18-10-12-8-22-20-22-28 0-3 5-17 14-40 4-8 36-72 43-84 4-6 10-12 17-16 9-6 19-15 25-24 3-5 7-10 8-12 8-12 13-27 13-39 0-9-2-12-7-16-3-2-5-4-5-5-2-3-1-12 5-35 3-13 7-29 7-35 1-6 3-16 4-22 4-31 2-48-10-80-5-14-8-18-12-20-2-2-12-4-21-5-5-1-207-1-214-1-21 3-26 5-30 11-15 24-21 45-28 97-2 12-3 24-4 26-2 6-5 8-13 9-12 2-16 7-20 21-1 5-1 9-1 18 2 25 9 44 24 60 7 9 8 12 8 25-1 14-5 39-7 49-5 20-18 46-26 51-3 2-4 3-30 3-30 0-31 0-37 7-2 3-9 12-15 21s-14 20-18 25c-7 8-9 9-29 22-5 4-14 9-19 13-14 9-29 18-43 25-7 4-17 10-23 14-28 19-58 46-58 54 0 4 5 5 44 6 37 1 96 0 132-1z"/></svg>