<svg xmlns="http://www.w3.org/2000/svg" width="1344" height="566"><path d="M0 283V0h1344v566H0V283m926 278c17-2 17-3 26-10 15-14 33-36 38-48 2-5 2-9-2-15-2-2-7-10-12-18-6-8-11-17-13-21-6-14-8-16-17-25-12-12-29-24-39-28-4-1-12-3-19-4s-15-3-18-3c-3-1-9-3-12-3-10-3-16-5-17-9-1-1-3-7-3-12-1-5-2-11-3-12 0-5-9-14-15-16-5-2-11-1-19 2-9 3-12 6-15 11-2 5-2 6-2 22v16l4 9c6 10 9 14 14 16 4 2 5 6 5 23 1 11 3 21 7 42 3 11 3 24 2 40-1 9-3 18-4 21s-3 7-4 9c-3 10 1 12 30 12 12 0 29 1 38 1 27 1 41 1 50 0z"/></svg>