<svg xmlns="http://www.w3.org/2000/svg" width="1344" height="566"><path d="M0 283V0h1344v566H0V283m268 278c19-1 52-1 74-1s41-1 42-1c0-1 4 0 9 1 7 1 7 1 11-1s5-2 15-1c17 2 54 3 75 2 10-1 39-1 64 0 33 0 47 0 50-1 4-1 11-1 29 0 40 2 109 2 141 1 27-1 29-1 31-3s2-3 1-7v-21c-1-14-1-16-3-21-4-10-10-14-31-24-51-23-94-45-97-48s-3-5 1-14c2-4 4-10 4-13 1-3 6-15 10-27 8-22 12-37 18-64 3-12 3-15 3-30 0-20-3-67-6-90-10-68-12-75-27-103-10-20-18-31-30-43s-24-20-45-31C583 9 568 5 548 6c-14 1-28 4-44 10-4 2-13 5-18 5-17 4-29 10-44 25-13 15-21 27-30 49-13 34-23 82-30 147 0 8-1 19-2 24-2 17-2 71 0 87 3 19 6 36 8 41 0 3 1 9 2 14 1 7 1 8-1 11-3 5-14 10-30 14-14 3-21 6-38 17-5 3-15 8-21 11-7 3-18 10-26 14-7 4-16 10-21 13-12 6-21 13-24 18-2 3-2 6-5 22-1 4-2 10-4 15-6 14-5 16 6 18 8 1 5 1 42 0z"/></svg>