<svg xmlns="http://www.w3.org/2000/svg" width="1344" height="566"><path d="M0 283V0h1344v566H0V283m887 275c8-3 14-24 12-37-1-6 0-19 2-33 0-4 0-9-1-12-1-4-2-13-4-22-1-8-3-18-5-22-1-3-3-11-3-17-1-6-3-14-4-17-2-7-5-16-7-26-1-2-2-7-3-10-2-4-4-13-6-21 0-2-1-5-2-7s-4-11-8-21c-6-20-17-41-25-53-10-14-22-25-34-30-19-10-23-19-19-43 4-23 4-28 3-38-2-13-5-20-12-29-13-17-27-24-49-23-9 1-12 1-18 4-4 1-10 3-13 4-8 2-13 5-27 19-13 13-16 17-20 27-2 7-2 9-2 24-1 18 0 20 5 22 4 3 5 5 6 17 1 10 1 10-1 14-5 8-10 21-14 32-2 8-5 17-9 25l-8 16c-2 8-8 18-16 29-4 5-10 12-12 16-5 7-15 17-33 33-7 6-14 13-16 15-1 2-6 6-10 8l-7 4-9-1c-5-1-13-1-17-2-7-1-8-1-11 2-5 3-7 3-13-2-5-3-6-3-10-3-2 1-6 1-9 2-6 1-7 1-6 8 1 8-2 11-17 16-11 3-16 5-17 9-3 4-2 6 1 15 6 14 8 16 17 18 16 5 33 6 46 2 3 0 10-2 14-3 5-1 15-3 21-4 6-2 13-3 14-3 6 0 11 4 22 14 11 11 16 14 29 21l8 4 4-1c3-2 5-2 11-2 10 1 30 10 37 16 3 3 3 3 3 10v7l11 12c7 7 12 11 14 13 3 1 10 1 23 2 11 1 20 1 21 2 1 0 40 1 86 1 72 0 84 0 87-1z"/></svg>