<svg xmlns="http://www.w3.org/2000/svg" width="1344" height="566"><path d="M0 283V0h1344v566H0V283m690 278c119 0 135 0 198-4 40-2 244-2 277 0l21 1 3-2c1-1 2-3 2-4 0-6-5-21-12-36-10-20-21-37-33-49-23-23-42-35-68-43-7-2-16-4-21-6s-15-5-24-7c-8-2-18-5-22-7-3-1-12-4-19-6-32-10-48-17-52-23-1-1-2-4-3-6-1-7 4-51 7-62 4-11 8-16 17-20 21-9 40-41 42-71 1-18-3-25-14-31-3-2-6-4-7-5-2-3-1-16 2-42 4-33 2-79-3-111-2-10-4-13-11-16-12-6-16-6-140-7-133 0-151 0-158 7-4 3-12 20-17 35-8 28-11 55-13 95-1 39-1 60 1 71 3 14 16 53 35 103 14 34 14 36 6 40-4 2-24 10-30 12-7 2-12 9-27 31-17 25-27 39-35 48-5 6-19 18-28 24-6 3-25 17-34 24-4 3-19 13-32 22-26 17-50 35-52 38-1 2-1 2 0 4 3 2 18 3 87 3 35 0 64 0 65 1h8c3-1 42-1 84-1z"/></svg>