<svg xmlns="http://www.w3.org/2000/svg" width="1344" height="566"><path d="M0 283V0h1344v566H0V283m828 278c7-3 9-5 15-16l4-9v-11c0-8 0-10 3-15 3-9 12-25 21-39 4-7 11-21 16-31 9-20 11-22 19-32 10-11 12-19 9-29-2-4-3-9-3-12-1-6-4-12-8-17-2-2-4-5-5-6-2-3-2-4-9-4-5 0-8 0-12-2-2-2-6-3-8-3-2-1-5-2-6-3-1-2-1-2 1-7 1-3 2-7 3-9 0-1 1-4 2-7 0-2 1-7 1-10 0-11-5-16-15-16-6 0-9 2-10 8-2 4-4 9-12 18-9 11-11 13-16 16s-7 3-11 3c-20-3-20-3-24 1-5 4-10 11-17 24-8 13-12 23-17 49-7 29-12 44-28 74-14 30-26 49-32 54l-3 4-20-21c-12-13-21-22-22-25-1-2-2-7-3-11-2-9-4-15-9-26-6-11-11-16-21-22-16-11-21-14-25-17-3-3-3-4-2-6 0-1 3-2 6-2 4-1 5-1 10 1 5 3 12 4 16 2 8-4 14-14 18-31 14-49 15-52 17-62 2-12 3-51 1-62-1-5-2-15-3-22-1-8-1-17-2-20-1-4-2-16-4-28-5-51-11-77-20-91-17-26-64-61-90-67-10-2-33-1-45 2-4 1-10 2-14 2-14 2-39 10-48 16-9 7-26 28-35 47-4 9-16 38-16 41 0 1-1 3-2 6 0 2-2 9-4 15s-5 17-7 24-5 16-6 21c-4 17-6 23-10 38-10 32-11 38-13 58-3 23-4 60-2 81 1 15 1 16 4 22 2 4 3 6 2 9 0 2-5 12-10 22-6 11-13 24-15 29-5 10-17 38-19 43 0 1-2 7-5 13-2 5-4 11-4 13s1 6 3 9 4 7 5 9c0 2 0 5 1 7 0 1 1 4 3 5 4 4 32 5 158 4 60 0 114 0 119-1 60-1 179 0 198 2 4 0 17 1 29 1 18 0 24 0 28-1z"/></svg>