<svg xmlns="http://www.w3.org/2000/svg" width="1344" height="566"><path d="M0 283V0h1344v566H0V283m770 252c3-1 9-3 11-4 2 0 10-2 16-2 6-1 15-3 19-4 5-1 13-3 18-5 19-5 36-9 50-13 16-4 29-6 50-4 22 1 20 3 21-20 0-13 0-18-1-23-3-9-5-19-7-34 0-7-2-15-2-18-1-3-1-9-1-14 0-8 0-9-3-11-1-2-5-4-8-4-6-3-34-9-41-10-9-1-15-3-17-6-2-2-2-4-2-13 0-13-1-18-5-23-3-4-3-5-2-10 0-5 0-6-9-24s-12-26-14-35c-1-2-2-5-3-6-1-2-4-11-7-20-3-10-8-22-10-28s-6-15-8-21c-13-35-18-46-26-57-14-19-29-30-58-40-27-10-44-11-71-4-22 6-34 11-49 21-21 13-37 39-44 71-3 12-3 20-1 53 0 14 2 36 2 50 2 35 2 44 0 48-2 3-11 10-21 15-8 4-16 9-21 13-5 5-11 15-11 18 0 1-1 3-3 6-4 7-13 10-20 6-3-1-3-1-13 5-9 5-20 10-30 12-7 2-12 6-20 14-8 9-15 13-27 15-9 1-12 3-15 6-2 1-10 19-10 21 0 1-2 5-4 10-2 6-4 11-4 14 0 2 0 5-1 8-3 10-3 14-2 17 4 4 13 5 27 1 12-3 27-4 37-4h16c3 0 9 0 13-1 7-2 9-2 12-1 2 1 4 1 6 0 7-2 23-6 26-6 6-1 20 2 47 13l12 4 42 1c22 1 45 1 50 2s15 1 22 2c27 2 45 7 52 13 5 4 8 5 16 6 12 1 19 1 26 0z"/></svg>