<svg xmlns="http://www.w3.org/2000/svg" width="1344" height="566"><path d="M0 283V0h1344v566H0V283m549 237c38-4 57-7 67-13 6-3 20-7 26-7 2 0 7-1 11-3 6-2 7-2 16-2 6 1 39 1 75 2 69 0 120-1 130-3 3-1 14-3 24-4 18-3 20-3 24-6s5-3 16-3c6 0 17 1 24 2 19 2 23 2 29-2 3-2 6-6 9-10 7-10 15-27 15-31s-3-7-11-8c-8-2-10-3-10-6 0-1-1-3-2-4-3-3-5-3-22 1-16 3-27 6-35 10-13 5-15 4-11-6 2-4 3-9 4-13 1-6 1-7-2-14-3-9-9-22-17-36-4-6-9-15-12-20-2-4-6-11-8-14-1-2-6-9-9-15-23-37-37-54-63-71-15-10-21-13-37-25-23-15-25-16-39-24-7-5-18-10-24-12-6-3-13-6-16-7-4-2-7-3-7-3-1 0-8-3-15-6s-16-7-19-7c-2-1-8-3-12-4-5-2-11-5-14-5-6-3-15-11-18-19-9-16-22-28-39-35-7-2-8-2-19-2-14 1-18 3-26 12-12 14-17 25-20 43-1 8 0 12 3 23 5 12 8 17 18 28s15 18 15 23-10 17-22 26c-2 1-5 4-6 6-4 5-20 22-29 30-4 3-9 9-12 13-5 9-21 39-23 45-2 8-20 41-23 44-1 1-3 5-5 9s-5 7-12 14c-8 8-11 11-14 18-6 11-8 17-6 28 0 4 2 11 3 14 2 5 3 8 3 13 0 9 0 9 10 17 10 9 13 11 20 13 24 7 74 10 117 6z"/></svg>