<svg xmlns="http://www.w3.org/2000/svg" width="1344" height="566"><path d="M0 283V0h1344v566H0V283m802 278c6-2 77-3 152-2 84 1 97 0 102-4 3-3 5-9 6-20 1-5 2-17 4-26 1-9 3-25 4-35 1-11 2-24 3-30 1-5 1-18 1-30 1-22 0-25-9-46-5-15-21-44-27-54-3-3-7-9-9-13-5-8-17-22-31-34-5-5-11-10-13-12-3-4-7-12-7-18-2-10-3-11-14-13-4 0-7-2-9-3-3-2-7-8-10-18-3-8-3-9-3-18 1-6 2-13 3-18 2-4 4-12 6-19 1-6 4-16 5-22 6-20 7-26 7-37 0-13-1-19-9-37-8-17-11-20-25-27-12-5-16-6-27-8-16-2-24-1-49 7-17 5-21 6-27 9-7 4-18 15-22 22-3 6-3 7-3 16 0 8-1 12-3 20-2 6-3 15-4 19-2 21-3 25-7 37-3 8-5 15-5 18 0 2 1 5 3 8s4 10 6 16c4 13 13 34 17 37 3 4 10 8 17 9 12 2 17 6 23 17 3 6 3 6 2 10-3 5-7 10-19 23-14 15-18 21-19 34 0 10-2 17-11 36-12 28-17 41-23 67-1 4-3 12-4 18-3 12-7 36-8 46-1 4-2 9-2 11-1 2-2 12-3 22-1 25 0 31 12 39 3 2 5 3 11 3 12 1 16 1 18 0m-292-3c7-5 12-16 12-28 0-7-3-31-6-40-1-4-3-12-4-18-2-20-11-42-18-50-6-6-21-17-30-22-4-3-10-7-12-9-5-5-5-5-5-9 1-5 10-24 13-29s12-13 18-17c2-1 6-3 10-4s7-3 9-5c3-4 3-2 0-44l-1-19-6-8c-6-11-9-16-14-31-7-22-18-38-30-44-14-6-43-8-60-4-30 7-55 30-60 55-1 5-1 25-1 70 0 54 0 65 1 73 3 15 3 23-1 34-2 5-5 12-7 16-9 16-15 30-16 44 0 6-2 13-5 23-5 14-8 26-9 36 0 4 0 11-1 17 0 10 0 11 2 13 1 1 4 2 5 2s50 1 107 1h105l4-3z"/></svg>