<svg xmlns="http://www.w3.org/2000/svg" width="1344" height="566"><path d="M0 283V0h1344v566H0V283m861 277c50-1 93-1 95-2 6-1 7-3 4-7-2-3-16-13-34-25-7-6-14-11-15-12s-3-4-3-7c-2-7-3-8-10-11-5-2-7-4-9-10-1-3-1-4 1-6 3-2 4-2 13-2 11 0 13-1 17-9 2-3 6-8 9-12 17-18 21-24 25-31 5-11 5-15 0-24-2-4-6-8-10-12-15-13-19-15-40-20-17-4-25-7-29-11s-4-7 3-17c5-8 6-8 12-12 4-1 8-3 8-4 1-1 0-3-2-5s-4-4-4-5l2-8c1-6 1-14 1-36 0-27 0-28-2-37-2-5-6-15-9-22-5-11-7-13-14-20-13-13-36-26-51-29-25-6-36-7-63-5-20 1-22 1-46 9-20 6-22 7-27 12-6 6-7 10-6 29 0 16 0 17-4 32-2 8-5 21-6 27 0 7-2 14-3 17-3 6-4 16-5 41-1 19-1 20-4 25-4 7-16 21-23 26-3 3-8 6-11 8-6 3-7 3-16 4-7 0-12 0-14 1s-5 2-8 3-5 2-8 6c-2 2-7 8-10 11-8 9-13 21-16 34-7 27-8 32-9 39 0 5 0 7 2 10 2 4 7 8 11 8 6 0 9 2 12 8 1 3 3 7 5 9 5 7 6 16 3 28-1 6-1 9 0 10 3 3 63 5 147 4h141z"/></svg>