<svg xmlns="http://www.w3.org/2000/svg" width="1344" height="566"><path d="M0 283V0h1344v566H0V283m801 278h160c103 0 115-1 120-2 7-2 11-5 11-9s-4-16-11-35c-3-9-7-22-9-28-6-15-10-26-14-30-2-2-7-8-11-13-4-6-9-12-11-14-2-3-5-7-6-10-19-27-25-35-29-40-5-7-12-21-15-28-1-6-1-6 0-8 4-7 25-14 41-15 14 0 16-2 18-9 1-3 2-10 2-18v-12l-5-16c-3-8-6-21-8-28-7-23-9-28-20-38-6-6-18-14-31-20-8-4-30-19-36-25-7-6-11-15-16-34-5-20-7-26-22-59-12-23-32-47-51-56-17-9-25-9-104-9-64 1-67 1-74 6-1 1-10 9-20 19-16 16-17 17-30 36-12 19-13 20-30 37-22 23-24 24-23 40 0 12 1 16 14 47 5 11 9 22 9 23 2 6 6 15 12 24 7 12 8 15 14 20 5 6 11 9 15 9 2 0 4 1 7 3 4 4 6 13 8 29 2 15 4 19 12 26 4 3 9 8 11 11l15 15c14 15 21 24 25 33 6 11 6 12 0 27-7 18-12 28-20 38-10 11-16 22-22 42-5 17-15 58-15 64 0 2 1 3 2 5 2 2 4 2 23 3 21 1 42 1 114-1z"/></svg>