<svg xmlns="http://www.w3.org/2000/svg" width="1344" height="566"><path d="M0 283V0h1344v566H0V283m606 277c89-1 389 0 398 1h27c20 0 21-1 23-3 2-3 1-12-4-25l-3-11v-14c1-11 1-13 0-15-2-3-10-8-29-16-8-4-19-9-24-12s-9-5-9-5c-2 0-42-22-46-24-5-5-6-10-5-25 3-38 4-45 5-55 6-41 4-121-4-176-3-17-11-50-16-65-5-13-13-31-20-41-10-14-28-31-45-42-6-3-27-13-38-18-7-2-22-4-31-3-11 0-16 2-24 6-7 3-8 3-20 4-18 1-25 3-37 13-22 16-34 33-46 64-6 15-12 42-14 62 0 5-1 14-2 21-2 16-1 81 1 92 1 6 1 10 0 15-2 12-4 17-14 28-5 5-10 11-11 12-3 7-4 16-3 37 0 24 0 30-5 34-4 4-16 9-22 9s-19 3-25 5c-2 1-8 3-12 5-14 5-33 13-43 17-5 3-15 7-22 9-22 9-22 9-24 13-2 3-2 4-1 8 2 10 0 21-13 56-11 28-12 36-8 38 5 3 16 3 166 1z"/></svg>