<svg xmlns="http://www.w3.org/2000/svg" width="1344" height="566"><path d="M0 283V0h1344v566H0V283m567 276c2-1 16-1 45-1 52 1 98-1 103-3 2 0 3-6 3-17 2-18 5-56 6-60 2-6 3-6 17-5 23 2 41 1 75-3 5 0 16-2 26-3 9-1 22-3 28-4 6-2 13-3 15-3 2-1 6-2 9-3 4-1 10-3 14-4 27-8 40-16 53-32 3-4 6-9 8-12l2-5-1-7c-4-15-24-44-41-61-10-9-16-13-30-20-12-6-16-9-23-18-5-7-12-14-18-17-4-2-23-7-27-7s-10-3-19-10c-18-14-20-15-28-11-2 1-5 2-5 2-5 0-55-27-59-32-2-2-3-4-3-6 0-5-2-21-4-36-1-7-2-15-2-17-2-9-6-24-10-33-13-27-34-43-69-52-24-6-40-8-53-6-16 2-28 5-41 12-26 14-35 22-44 38-5 10-11 21-19 34-7 10-10 18-13 31-3 14-3 14-22 26-2 2-7 5-11 8-10 8-19 12-24 12-4 0-14 5-29 17-13 9-26 17-43 23-20 8-26 13-36 28-8 13-9 15-11 23-3 10-4 33-2 43 1 4 2 10 3 12 0 6 3 12 8 18 6 7 17 31 17 35 0 6 7 18 11 21 2 1 4 3 5 4 2 1 4 4 6 6 5 4 6 9 7 21s1 15-3 55c-1 13-1 16 2 18 2 1 15 1 52 1 26 0 66 0 88 1 45 1 83 0 87-1z"/></svg>