<svg xmlns="http://www.w3.org/2000/svg" width="1344" height="566"><path d="M0 283V0h1344v566H0V283m1063 221c1-2 2-4 2-15 1-8 1-14 2-16 1-1 6-7 12-12 8-8 10-10 13-17 15-32 16-34 17-42 1-9 1-13-3-26-4-12-7-18-15-32-5-8-8-17-9-30-1-4-1-28-1-54-1-45-1-47-3-60-4-20-9-32-15-37-4-5-19-12-27-13-3-1-9-2-11-3-7-2-29-2-34 1-11 4-12 5-16 13s-7 13-11 17l-11 22c-10 19-9 16-11 43 0 10 1 13 8 20 4 4 5 5 5 8 0 2-1 4-3 5-4 3-16 7-23 8-5 0-6 0-8-3-1-1-2-3-2-4s-1-3-3-4c-2-2-3-3-10-3-5 0-8 0-9 1-3 2-14 16-16 21-3 4-3 18 0 26 3 9 3 12-3 25-5 13-5 13-10 17-7 4-15 12-17 17-1 4-1 7-1 19 1 20 4 33 11 41 5 6 10 9 22 12 6 2 9 4 13 8 6 5 9 6 18 8 3 1 9 2 12 4 4 1 11 3 18 5 15 4 25 7 43 13 26 8 30 10 59 17 8 3 14 2 17 0z"/></svg>