<svg xmlns="http://www.w3.org/2000/svg" width="1344" height="566"><path d="M0 283V0h1344v566H0V283m887 275c4-2 5-4 9-14 2-7 2-10 2-18 0-19 0-29 2-37 1-7 1-10 0-17-1-4-2-14-3-21-1-8-2-15-3-17-2-5-5-20-7-36-2-15-4-27-7-36-1-5-3-12-3-15-1-3-2-8-4-11-3-7-4-12-8-33-6-29-21-57-40-74-4-4-8-7-15-10-10-4-16-8-19-14s-3-22 0-30c2-8 4-23 4-34 0-17-5-29-17-40-13-13-21-16-42-16-12 0-14 0-18 2-2 1-7 3-10 4-13 4-15 5-24 13-20 20-29 39-26 57 0 6 1 7 3 8s3 2 3 4c2 15 3 21 3 29 0 10 0 11-6 18-4 4-9 13-12 24-3 9-26 56-32 65-2 2-6 7-8 11-3 3-9 10-13 14-4 6-11 12-17 18-6 4-16 13-23 19-11 11-18 15-28 21-6 3-8 3-18-1-12-4-22-6-44-7-21-1-26-1-31 2-6 3-6 7 0 18 1 4 3 8 3 8 0 3-5 6-12 7-7 2-9 5-9 11s3 12 8 17c6 7 7 7 27 7 19-1 33-2 36-4 1-1 12-3 25-6 13-4 27-7 32-8 11-3 14-3 19 1 5 3 9 8 13 16 3 6 3 8 3 16v10l7 7c3 5 7 8 8 8 2 0 5-3 7-7 1-2 3-4 5-5s3-1 10 0c4 1 12 2 17 2 11 0 16 2 16 5 0 1-1 5-2 9-2 8-2 24 1 28 0 1 4 5 7 8 4 4 8 9 10 11 5 6 8 8 15 9 14 3 30 3 76 3 26 0 55 0 64 1 29 1 63 1 66 0z"/></svg>