<svg xmlns="http://www.w3.org/2000/svg" width="1344" height="566"><path d="M0 283V0h1344v566H0V283m853 278c14 0 14-1 15-12 1-6 1-9 3-12 3-4 3-5 2-12-1-6-2-10-4-14-4-7-7-10-16-14-4-2-10-5-14-8-9-8-32-23-54-35-20-10-24-13-46-32-8-6-18-14-22-17s-7-7-9-9c-2-4-2-5-2-12 2-15 9-43 14-53 4-7 13-15 24-22 14-10 23-22 27-36 1-7 2-22 1-62-1-41-4-56-19-84-8-16-13-23-22-33-13-12-26-19-41-22-18-4-57-6-67-4-11 2-28 13-38 24-8 8-19 26-26 42-12 25-14 36-12 58 1 8 2 19 2 24 2 8 2 17 2 34-1 20-1 25-4 40-4 23-4 24-11 38-7 13-7 14-21 21-9 5-17 7-41 10-21 2-37 7-44 13-10 7-16 22-17 42v12l6 14c12 24 16 34 18 44 3 12 2 16-2 27-4 10-5 19-2 30 2 9 4 12 8 15 4 2 19 5 35 6 17 1 361 0 377-1z"/></svg>