<svg xmlns="http://www.w3.org/2000/svg" width="1344" height="566"><path d="M0 283V0h1344v566H0V283m634 278h135c63 1 79 0 83-3 3-3 3-9 0-23-3-12-7-21-11-28-2-3-15-17-29-31-28-29-32-33-44-50-14-18-13-18-14-32-1-15-6-34-11-44-4-8-4-16-1-26 3-9 6-14 16-21 5-3 10-7 12-9 3-4 13-19 13-20s1-4 3-6c3-4 4-7 5-16 3-18 5-59 3-74-3-32-12-67-24-87-9-14-20-23-36-30-8-4-37-9-55-11-22-2-37 2-56 17-17 13-19 15-29 29-14 19-17 24-21 36-3 11-3 12-4 28 0 13 0 17 2 27 1 6 2 14 3 17 1 8 1 32 0 54v19c2 6 10 12 26 21 7 4 9 7 9 12-1 5-2 5-8 6h-14c-7 1-12 1-16 0-12-2-28-3-52-1-27 1-35 3-43 8s-11 9-16 19c-5 9-8 22-9 39-2 23-1 36 3 69 1 4 3 21 5 38 3 33 5 44 8 56 4 14 5 15 27 16 9 1 17 1 18 1 2 1 12 0 23 0h99z"/></svg>