<svg xmlns="http://www.w3.org/2000/svg" width="1344" height="566"><path d="M0 283V0h1344v566H0V283m808 278c19-1 77-1 128-1 99-1 152-1 164-3 11-2 14-4 13-10s-5-16-12-35c-4-8-9-21-11-28-4-14-10-23-19-33-6-7-19-25-22-29-1-2-4-8-7-12-17-25-27-45-29-54 0-4 0-5 2-7s8-4 19-6c3-1 9-2 12-3 4-1 11-3 15-4 5-1 9-3 11-4 3-2 6-9 7-20 2-16 2-17-4-30-5-13-7-17-8-26-1-8-4-24-5-26-6-11-17-22-33-32-9-5-25-14-28-14 0 0-6-3-13-6-19-10-24-15-31-38-10-30-26-64-38-79-9-12-22-25-30-30-4-3-12-8-19-11-27-14-35-15-84-15-32 0-35 0-40 2-10 3-20 7-35 15-13 7-15 8-25 18-20 19-26 27-36 47-12 23-16 30-32 45-8 8-14 14-15 17-2 6 0 18 8 31 5 8 8 14 20 42 10 24 12 26 18 28 3 1 6 2 7 4 4 5 21 26 22 30 3 5 5 14 6 27 2 24 4 27 21 39 3 2 8 7 11 10s7 8 9 9c3 2 9 8 14 13 7 8 9 11 10 15 2 7 2 10-9 33-7 17-8 19-16 26-12 13-16 23-27 62-4 14-7 28-8 32 0 6 0 7 2 9s4 2 24 3c22 1 31 1 93-1z"/></svg>