<svg xmlns="http://www.w3.org/2000/svg" width="1344" height="566"><path d="M0 283V0h1344v566H0V283m752 280c15-3 116-5 156-3 20 1 38 1 53 0 31-1 32-1 26-22-1-5-4-15-6-22-11-34-12-37-9-74 2-29 1-144-1-152-1-6-8-20-12-27-5-7-34-33-55-50-18-14-19-15-20-39-2-33-4-43-16-66-6-12-7-13-20-26-8-8-16-14-21-18-4-2-11-7-14-10-10-8-13-9-31-13-12-3-18-3-33-4-17 0-19 0-28 2-19 5-26 8-39 17-19 15-34 33-46 58-9 19-10 23-11 40-1 9-2 18-2 20-2 10-9 15-43 32-31 17-36 20-45 27-11 11-14 16-17 41-1 9-4 23-6 33-3 10-6 24-8 33-3 15-7 29-12 47-3 13-9 45-11 70-2 16-4 20-10 25-2 2-8 6-12 8-5 2-10 5-12 7-2 1-10 5-17 8-8 3-19 8-25 11-19 9-39 14-65 17-6 1-13 2-17 2-12 2-20 1-31-2-7-2-15-4-19-5-7-2-8-2-16 0-9 1-9 1-14-1-3-1-7-2-9-2-4 0-36 11-41 14-2 2-5 3-6 4-3 2-4 5-1 7 3 1 24 3 42 4 23 0 40 1 46 4 4 1 6 1 20 0 32-3 62-3 93-2 17 1 40 1 52 1 16 0 23 0 28 2 6 1 21 1 107 2 56 1 104 1 108 2 8 1 63 1 70 0z"/></svg>