<svg xmlns="http://www.w3.org/2000/svg" width="1344" height="566"><path d="M0 283V0h1344v566H0V283m366 279c29-1 66-1 82-1 39 1 166 1 236 0h105c42 0 47 0 50-1 4-2 5-2 15-1 6 1 27 1 48 2 21 0 52 0 69 1 39 0 43 0 47-4l3-3v-12c-1-14-6-44-15-85-1-4-2-10-2-13 0-6 0-6 5-11 11-10 31-27 36-30 11-6 59-14 109-16 26-1 37-3 49-9 9-5 13-9 13-14 0-9-1-10-29-10-25 0-31-1-45-5-11-4-15-4-26 1-11 4-17 5-46 4l-24-1-14-4c-22-7-32-13-37-24-2-3-6-14-9-24-14-41-14-42-25-57-13-19-15-22-11-29 2-3 7-6 17-9 14-5 19-10 31-33 8-16 10-23 10-36 0-23-6-65-10-75-1-2-5-7-8-10-8-9-20-15-35-18-16-3-33-3-42 1-10 5-17 9-26 18-16 16-18 23-14 53 1 9 1 19 1 23-1 13-7 27-18 40-9 11-13 13-24 9-8-3-15-3-19 0-2 2-4 4-8 17-3 6-8 14-19 27-12 14-19 25-26 39-7 16-12 29-13 39-1 8 0 14 3 33 4 17 3 32-1 55-5 21-6 36-3 48 3 11 2 13-5 9-9-4-13-8-17-16-5-9-7-20-8-52-1-35-4-67-7-93-1-6-2-13-3-17-5-51-20-102-37-127-15-22-43-39-77-48-23-6-35-5-59 3-36 13-45 18-57 34-18 24-24 49-23 90 1 11 0 26 0 36-2 27 0 83 5 125 1 8 1 14 0 23-1 14-2 16-8 19-3 1-9 4-16 7-13 7-16 8-32 13-7 2-15 4-19 5-10 3-17 4-19 2-3-3-4-18-1-35 1-15 2-14-3-33-2-5-5-21-7-36-4-31-5-39-12-58-3-9-4-16-5-21-1-10 2-14 19-31 12-12 14-14 19-24 12-22 14-29 10-45-1-5-3-16-4-24-4-33-10-42-33-53-17-8-22-10-44-10-18 0-20 1-26 3-10 3-17 7-20 13-9 15-12 44-8 70 0 6 1 14 2 18 0 10-1 14-10 21-7 6-10 10-13 21-3 6-5 9-12 14-8 5-22 19-25 24-1 3-3 9-4 15-2 12-5 18-20 45-13 25-19 41-23 63-2 10-2 14-3 65 0 33 0 60-1 67-1 12-1 33 0 35 1 4 8 6 38 8 2 1 34 1 70 0h118z"/></svg>