<svg xmlns="http://www.w3.org/2000/svg" width="1344" height="566"><path d="M0 283V0h1344v566H0V283m816 275c2-2 3-4 3-8 1-2 2-6 3-8 2-5 2-12 1-25-3-20-6-39-8-52-2-14-3-29-1-39 1-3 1-9 2-13 0-4 2-11 3-17 2-14 6-33 7-40 0-2 1-11 2-19 2-21 2-23 11-40 10-21 12-27 13-41 0-13-1-23-5-33-2-5-3-10-4-19-2-15-3-16-17-31-14-14-14-15-13-25 1-5 2-12 3-16 2-6 2-10 2-25 0-16 0-18-2-23-3-7-8-12-17-16-5-3-6-3-15-3-14 1-21 3-28 10-9 9-9 10-10 42v29l-3 3c-3 2-5 3-10 4-8 2-14 4-16 8s-7 20-8 27c0 4-1 7-2 7 0 1-3 17-6 35-2 14-3 18-8 29-6 13-7 14-16 10-7-2-9-2-17-2-11 1-13 2-13 6s2 6 10 12c7 5 7 5 15 5 5 0 10 1 11 1 2 1 7 5 12 10l8 7h5c2-1 6-1 8-2 2 0 4 0 7 4 3 2 7 4 8 4 5 2 6 3 7 11 0 10 1 11 21 19 8 4 16 8 17 9 13 9 19 17 19 23 0 5-6 19-13 32-4 6-8 14-9 18-8 18-10 21-16 27-8 8-8 8-5 21 1 5 1 13 1 24l1 16-4 7c-3 4-4 8-4 11 0 4 4 14 7 15 2 1 18 3 26 3h7l5 6 5 5h9c8 0 8 0 11-3z"/></svg>