<svg xmlns="http://www.w3.org/2000/svg" width="1344" height="566"><path d="M0 283V0h1344v566H0V283m918 275c7-3 21-10 24-14 1-1 3-3 5-4 6-4 23-21 26-26 1-2 4-6 5-8 4-4 4-6 1-13-4-8-6-8-25-9-72 0-77-1-78-14-2-9-7-14-16-14-4 0-7 1-18 7-13 6-14 7-28 21-13 13-15 15-22 18-8 4-28 10-35 12-6 1-8-2-24-35-8-16-22-45-31-63-11-24-16-34-15-35 0-1 4-3 8-5 6-3 9-6 14-11 4-4 8-9 11-10 5-4 18-15 28-25 4-4 9-8 11-10 7-5 10-10 12-22 3-16 4-20 13-40 5-9 10-22 12-28 5-13 11-26 20-42 3-6 6-13 6-15 1-4-1-10-7-17-9-11-11-14-16-22-7-11-21-25-34-35-20-14-50-28-69-31-12-2-34-1-46 2-16 5-27 10-33 15-3 3-7 7-9 8-5 4-22 22-27 29-4 6-13 21-13 23 0 1-11 21-17 28-8 12-16 19-27 22-3 1-12 4-19 6-18 4-25 7-32 15-8 8-19 22-21 28-1 2-2 8-2 14-1 11-3 22-7 32-5 12-4 17 6 24 7 5 8 7 8 12-1 6-4 11-11 22-14 21-17 27-31 61-3 9-9 22-13 29l-6 12v22c0 21 0 22-2 24-4 4-13 2-25-8-4-3-10-7-13-9-4-3-11-9-20-18-7-7-22-21-31-31l-18-18v-5c1-2 3-11 5-18 11-31 11-30 10-49 0-17-1-26-5-32-1-2-5-7-9-11-7-8-7-8-7-12 1-3 2-7 3-11 2-6 2-9 2-24 0-10 0-18-1-20-1-5-7-10-11-10s-12 7-16 15c-3 3-7 8-9 11-6 6-6 6-6 20-1 10-1 11-3 13-2 3-11 5-22 7-11 1-22 12-33 34-5 9-6 14-10 42-6 36-6 36-9 43-4 7-7 10-14 11-5 1-7 3-9 7-2 5-1 7 8 17 11 12 13 14 15 25 1 5 3 12 5 14 2 4 19 28 29 40 2 3 4 7 6 11 2 7 8 14 12 17 4 1 27 6 40 8 6 1 40 2 102 2 62 1 96 1 102 2 10 1 106 1 189-1 41-1 54-1 71 0 19 1 136 3 170 2 15 0 19 0 26-2z"/></svg>