<svg xmlns="http://www.w3.org/2000/svg" width="1344" height="566"><path d="M0 283V0h1344v566H0V283m294 276c8-1 12-1 15 0 2 1 28 1 68 1h201c36 1 66 0 72-3 8-3 14-10 18-20 2-5 4-11 5-15 2-3 4-11 6-18 4-18 8-37 14-56 5-21 6-28 2-32-3-3-9-6-17-9-4-1-14-4-21-7-7-4-18-8-23-10s-18-7-28-12c-9-4-21-9-25-10-4-2-9-5-11-7l-4-4v-8c0-9 2-27 4-31 3-8 10-38 11-48 3-22 3-24 1-40-2-9-3-19-3-22-3-20-16-62-30-94-4-10-14-27-22-37-13-18-28-30-53-42-16-8-20-9-38-12-13-1-14-1-26 1-15 1-16 2-36 14-6 4-15 9-19 11-23 12-39 40-49 82-8 37-14 86-16 141-1 14-1 32-2 40-1 24 2 36 12 56 6 11 6 12 5 14-1 3-6 6-15 9-12 4-32 15-46 25-23 17-26 19-35 24-5 2-11 7-14 10-6 5-6 6-6 12-1 8-2 11-8 28-3 7-5 15-6 19s-2 9-3 11c-1 6-4 24-4 30s2 10 5 10c5 1 110 0 121-1z"/></svg>