<svg xmlns="http://www.w3.org/2000/svg" width="1344" height="566"><path d="M0 283V0h1344v566H0V283m889 274c3-2 6-9 8-15 3-13 3-16 2-20-1-6-1-20 1-28 1-9 1-14-1-22 0-4-2-12-3-18 0-5-2-15-4-22-2-8-4-18-5-23-1-13-5-28-11-48-2-7-4-14-5-17 0-2-2-8-4-14-1-5-4-15-6-22-4-14-5-19-11-31-7-13-17-28-25-37-9-8-15-12-22-15-7-2-14-9-18-16-4-8-4-18-1-30 3-11 4-31 2-40-2-16-16-34-30-41-9-5-14-6-25-6-10 0-15 1-24 5-4 2-9 3-12 4-8 2-13 5-25 17-14 15-18 22-21 34-1 11-1 15 0 19 1 2 2 7 3 12 1 4 2 11 4 15s3 11 4 14v7l-5 6c-5 7-6 10-11 24-3 10-10 27-14 33-2 4-5 11-7 14-3 9-6 15-11 22-12 16-19 24-22 29-2 2-8 8-14 13-5 5-16 15-24 23-16 15-22 19-27 19-2 0-8-2-13-4-8-3-11-3-25-4s-17-1-23 0c-5 2-9 2-12 2-3-1-5-1-5 0-1 0 1 3 3 6 3 5 4 8 0 13-2 3-5 5-15 7-6 2-11 4-12 4-3 3 1 15 8 23 1 1 6 3 10 5 7 3 8 4 21 4 8 0 20-1 26-2 6 0 20-1 31-2l19-1 8 4c11 6 14 8 19 15 4 7 10 12 19 19l5 3 5-2c7-3 14-3 26-1 9 1 10 1 15 0 6-2 9-2 11 0 2 1 2 2 1 9-1 3-1 10 0 15v10l12 14c11 11 13 13 17 14 8 3 33 4 78 5 23 0 56 0 72 1 17 0 37 1 45 1 13 0 15-1 18-3z"/></svg>