<svg xmlns="http://www.w3.org/2000/svg" width="1344" height="566"><path d="M0 283V0h1344v566H0V283m960 125c2-3 4-14 8-50 3-23 5-35 6-39 1-3 1-12 1-22 1-20 1-19-10-32-7-7-12-17-13-29-1-7-2-13-7-30-1-4-2-7-2-8s-1-4-2-7c-1-2-2-7-2-9-2-11-9-28-14-33-4-3-12-6-20-7-14-2-25 2-35 13-4 3-8 8-9 10-2 4-4 23-4 37 0 9-1 11-7 17-10 10-13 17-15 29-1 7-2 10-6 18-3 6-7 14-8 18-2 5-5 8-8 11-2 3-6 7-9 10l-5 6-1 9c0 10 1 22 4 32 1 6 3 7 10 8 8 2 15 4 18 7 3 2 4 2 6 2 4-1 6 0 6 5 0 7 4 10 23 15 5 1 11 3 15 4 3 1 7 2 8 2s5 1 9 2c19 6 27 8 45 12 15 2 16 2 18-1z"/></svg>