<svg xmlns="http://www.w3.org/2000/svg" width="1344" height="566"><path d="M0 283V0h1344v566H0V283m734 279c12-1 26-6 30-10 2-2 2-3 2-7s-1-5-5-7c-2-1-4-2-5-2 0-1 0-4-1-8 0-5-1-11-1-14-2-10-2-58 1-92 3-33 2-49-1-65-2-11-9-31-13-39-7-13-18-28-35-44-6-6-10-11-11-12 0-3 4-20 10-44 3-10 3-11 3-24-3-67-3-72-7-86-3-10-8-19-15-29-12-14-25-23-48-35-28-13-40-15-81-12-22 2-31 4-41 8-18 7-31 16-41 30-12 16-18 33-22 55-1 7-3 18-4 23-3 20-4 23-9 28-3 3-5 6-5 8-1 2 0 11 1 20 3 22 3 40 0 45-4 6-11 10-38 21-14 5-49 23-57 28-4 2-10 6-15 9-16 10-27 18-49 40-16 15-35 38-42 50-8 13-13 25-18 42-6 23-7 32-4 55 0 8 2 22 2 32 1 18 3 26 6 30l3 2 37 1c22 0 45 0 55-1 25-2 33-2 102-1 59 1 121 3 126 4 2 0 39 0 83 1 44 0 81 0 81 1 1 0 15 0 26-1z"/></svg>