<svg xmlns="http://www.w3.org/2000/svg" width="1344" height="566"><path d="M0 283V0h1344v566H0V283m762 250c4-1 10-2 12-3s7-2 10-2c3-1 7-2 10-3 2 0 5-1 6-1 2 0 6-1 9-2s10-3 15-4c6-1 13-3 16-4 7-2 15-4 24-6 4-1 12-3 18-5 12-3 13-3 31-3 13 0 21 0 25 1 10 2 10 2 11-12 0-12-1-34-4-42 0-3-1-12-2-19s-1-14-2-15c0-1-1-6-1-11-1-12-3-16-9-20-3-1-13-4-24-7-32-8-32-8-31-28 0-13 0-13-3-16-1-2-3-3-4-3s-3-1-5-3c-3-2-3-3-2-6 0-2 2-3 5-4 6-2 7-3 5-8-1-2-3-7-5-11-1-4-5-12-7-18-3-6-6-15-7-20-2-4-6-15-9-24-3-8-9-24-13-35s-8-24-10-29c-2-4-5-12-6-16-2-5-4-10-5-12-9-15-12-19-19-27-18-19-32-28-66-40-16-5-24-5-49 1-8 2-21 5-28 6-17 4-22 6-32 13s-13 11-20 26c-6 13-10 24-14 40-3 10-3 13-4 29 0 10 0 32-1 49 0 23 0 38 1 52 2 27 3 25-27 41-8 5-20 12-24 16-4 3-12 18-12 21 0 2-1 5-3 7-5 8-14 11-20 7-3-1-3-1-5 1-5 4-18 10-29 15-18 6-21 7-28 17l-8 8c-6 3-15 6-20 6-11 0-16 4-20 15-2 5-4 10-5 13-2 4-6 13-9 24-6 19-6 21-3 25 2 2 3 2 9 2 15 0 31-1 36-4 3-1 7-2 9-2 2-1 6-2 10-3 5-2 6-2 12-1 5 1 8 1 16 0 4-1 13-1 19-1 7 0 13 0 19-2 5-1 10-1 14-1 13 2 27 4 32 7 4 1 7 2 8 2s4 1 8 2c5 2 8 2 49 2 37 1 46 1 51 2 4 1 13 2 20 3 24 1 38 5 51 15 4 4 9 6 10 6 7 2 9 2 12 1 3 0 8-1 12-2z"/></svg>