<svg xmlns="http://www.w3.org/2000/svg" width="1344" height="566"><path d="M0 283V0h1344v566H0V283m770 279c16-1 179-2 206-1 22 1 116-1 118-2 3-2 3-6 1-12-1-4-3-11-5-15-1-5-5-14-8-20-15-27-15-30-15-49 0-16 2-28 12-59 7-26 12-48 12-60 0-4 0-6-2-8l-4-2c-1 0-4 2-7 5s-6 5-6 5c-3 0-8-12-9-21-1-8-1-8-4-12-3-3-7-3-10 0-1 1-3 4-5 7-3 7-5 9-7 9s-3-1-6-8c-2-4-4-9-5-10-5-3-11 0-17 9-2 4-4 7-5 8s-4 1-7 1c-4 0-6 1-9 3-3 3-7 10-8 14-1 1-2 6-4 9-4 8-5 9-12 3-2-3-6-6-8-7-4-2-30-13-53-23-17-7-27-12-29-15s-3-8-1-18c7-32 9-86 3-108-4-17-14-35-23-45-6-5-20-15-41-26-21-12-28-14-56-16-13 0-14 0-21 2-29 9-65 37-74 57-3 7-8 22-8 27-2 8-5 18-9 32-5 14-5 15-6 30-1 26 0 35 0 44 1 9 1 10-1 12-1 2-4 4-7 5-5 3-31 12-52 18-24 8-31 10-39 15-5 3-9 4-10 3-3-1-5-5-6-17-1-11-3-15-6-17-3-1-5 0-9 5-2 5-6 7-9 7-2-1-5-7-8-17-2-5-4-9-6-11-5-5-8-4-13 6-2 3-5 6-6 7-3 1-3 1-6-1-12-9-17-5-19 14-1 10-2 13-5 16-2 3-4 2-12-1-5-2-7-2-9-1-3 1-5 7-5 12 0 10 9 41 25 89 11 30 12 35 10 45-1 4-2 11-4 15-4 13-13 33-20 43-7 11-9 14-7 18 1 4 6 6 20 6 11 1 15 1 22-1 8-1 12-2 19-1h44c52-1 163 0 167 1 2 1 7 2 10 2 11 1 59 1 74 0z"/></svg>