<svg xmlns="http://www.w3.org/2000/svg" width="1344" height="566"><path d="M0 283V0h1344v566H0V283m1163 276c12 0 14-1 16-2 3-3 3-4-1-14s-23-48-26-53c-2-2-4-6-5-8-8-15-29-35-46-47-8-6-37-21-47-24-11-4-26-11-52-24-13-7-28-13-34-15-5-2-12-5-15-6-8-4-22-15-24-19s-1-10 2-15c1-3 5-9 7-13 33-58 35-66 46-147 5-37 5-44-5-72-4-13-10-24-15-32-13-16-25-26-39-33-5-2-13-7-18-10-11-7-17-9-26-7-4 1-8 1-10 2-2 0-7-1-12-1-5-1-14-2-20-2-10 0-11 0-17 3-4 2-8 4-11 4-5 2-23 14-31 20-4 3-8 6-10 8-5 4-15 19-17 26-3 8-5 27-6 59-2 32-2 33-11 41s-11 12-12 23c-1 17 5 31 17 46 9 11 10 14 11 23 2 16-2 51-6 57-3 6-36 31-54 42-6 3-12 6-21 8-11 4-42 16-57 23-4 2-12 5-18 7-38 15-58 27-75 43-26 26-45 57-52 84-3 11-3 20 0 23 2 2-15 2 165 2 249-1 458 0 474 1 18 1 23 1 55-1z"/></svg>