<svg xmlns="http://www.w3.org/2000/svg" width="1344" height="566"><path d="M0 283V0h1344v566H0V283m891 278c5-3 10-8 12-12 3-5 5-24 5-38v-11l-4-9c-5-11-12-21-20-32-4-5-12-19-22-39-9-18-18-33-19-35-4-6-29-64-32-72-2-9-1-23 2-29 4-8 8-21 7-22 0-1-4-3-8-5-10-5-10-6-12-36l-1-24-5-15c-3-8-6-17-8-20-2-4-6-10-8-14-5-10-10-14-18-19-7-3-11-7-11-11 0-3-6-9-10-11-2-1-6-2-9-3-14-3-28 4-58 30-12 10-14 10-24 9-5-1-14-1-20-2-12-1-17-2-19-6 0-1-2-9-2-19-5-44-17-71-42-87-10-6-27-12-41-15-15-3-39-2-52 1-14 4-38 15-50 24s-23 25-29 43l-3 10v28c0 27 0 29-2 36s-2 9-1 16c2 14 14 36 29 50 9 9 10 10 11 16 2 10 4 21 4 26 0 6-2 11-8 16-11 12-21 21-30 30-6 4-13 11-17 15-6 5-10 8-18 11-5 2-12 6-14 7-3 2-8 3-10 4-5 1-18 7-33 15-4 2-11 5-15 7-17 7-22 14-24 37-1 6-2 16-4 22-4 17-6 27-7 44-1 20-4 37-6 41s-5 15-5 19c0 6 4 14 9 19 8 8 13 9 39 10 17 0 22 0 24-1s26-2 70-2c3 0 17 0 31 1s39 1 57 1h76c22-1 48-1 61 0h67c74-2 121-2 140 1 24 3 72 3 77 0z"/></svg>