<svg xmlns="http://www.w3.org/2000/svg" width="1344" height="566"><path d="M0 283V0h1344v566H0V283m518 78c4 0 10-1 14-2 5 0 10-1 13-2 2-1 7-2 10-2 2-1 8-2 12-3 10-2 28-1 39 1 7 2 16 2 36 3 15 1 30 1 32 2 3 0 11 1 18 1 11-1 13-1 16-3 3-1 7-2 10-3 4-1 5-1 8 0 5 2 11 2 19 0 3 0 11-2 17-2 6-1 13-2 15-3 2 0 6-1 9-2 4 0 9-1 11-2 7-2 24-3 37-2 10 0 13 0 14-1s1-5-1-16c-1-20-1-27 1-34 3-9 8-18 11-20 2-1 8-1 19-1 17 0 17 0 20-2 2-3 2-3 2-19 0-43-2-88-3-95-1-4-3-12-4-18-3-20-9-42-15-53-4-7-14-18-23-23-11-8-20-12-31-13-10-2-41 5-53 11-13 7-22 19-28 35-2 7-2 9-3 33 0 14-1 30-2 35-1 9-1 11 1 26 3 26 3 48-2 54-1 2-3 2-5 2s-15 0-30-1c-15 0-30-1-33-2l-7-1-14 6c-7 3-16 7-20 9-3 1-7 4-9 5-9 7-16 8-27 5-4-1-10-1-15-1-8 0-12 1-18 6-2 2-6 5-10 6-6 3-7 3-24 4-18 1-20 1-22 6-2 3 1 8 5 10s5 6 3 12c-4 17-9 40-11 46-1 4-2 8-1 8 2 2 7 2 19 0z"/></svg>