<svg xmlns="http://www.w3.org/2000/svg" width="1344" height="566"><path d="M0 283V0h1344v566H0V283m247 276c2-3 2-3 2-20-1-28-8-66-15-81-2-4-4-9-4-11 0-3 3-7 5-7 1 0 4-1 6-3 4-3 4-3 4-8 0-3-1-9-2-13 0-4-1-14-2-26 0-10-1-23-2-28-1-10-4-29-5-43-1-5-1-10-2-11 0-4 2-6 8-6 2 0 7-1 10-2 6-2 7-3 9-7 1-3 2-8 3-12 1-3 2-10 3-13 1-6 1-10 1-21-1-17-1-18 11-31 8-9 12-15 13-23 1-4 1-4-2-7-2-2-4-3-11-4-9 0-10-1-14-9-5-11-13-16-21-12-5 2-8 7-8 13-1 3-2 6-3 8-2 2-3 2-6 1-5 0-8 1-11 6s-2 9 0 16c3 5 5 16 4 21-1 4-3 7-5 7 0 0-3-2-7-5-9-7-15-10-29-18-22-10-24-14-12-22 8-5 11-8 12-12 1-2 1-9 1-16v-14l-5-8c-2-4-4-9-4-11 0-1-1-5-2-9-1-3-2-7-2-9 0-4-3-10-7-13-15-11-38-15-56-9-18 7-24 14-26 30s0 17 18 20c14 2 20 4 23 10 10 16 17 29 19 38 1 3 3 9 5 14s4 9 4 10c0 0-1 3-2 5-1 3-4 10-6 16-2 7-4 15-6 17-3 8-3 8 17 22 8 6 20 17 22 21 0 2 1 4 1 6 0 4 2 9 6 10s5 4 5 9c-1 15 0 19 8 21 2 0 5 2 7 4 2 1 6 4 9 6 9 5 10 8 10 21-1 11-2 15-6 18 0 1-2 3-3 5-1 3-5 7-8 10l-7 7c-1 2-1 2-2 1s-2-2-2-3 0-2-1-3c-2 0-4 2-4 4 0 1-1 4-2 6-3 4-8 19-9 28-2 10-1 22 2 32 2 9 16 48 21 60s10 21 13 25c4 3 8 4 25 4 11 0 12 0 14-2z"/></svg>