<svg xmlns="http://www.w3.org/2000/svg" width="1344" height="566"><path d="M0 283V0h1344v566H0V283m366 277c10-1 116-2 204-2 3 0 15 0 26 1 23 1 219 2 230 0 13-1 15-4 14-23 0-21-3-30-14-41-12-13-32-28-66-51-22-15-26-17-32-24-7-7-13-17-13-22 0-4 8-18 19-34 17-23 19-27 27-43 9-17 10-21 13-35 1-6 3-14 4-18s3-16 6-27c7-30 9-39 8-68 0-20 0-27-2-37-6-34-17-52-50-81-22-20-35-25-63-27-8-1-18-2-23-3-15-4-42-4-58 1-36 9-76 51-85 89-2 9-4 20-5 47-2 26-3 31-9 42-8 14-9 26-6 42 2 15 6 22 20 36 7 7 13 14 14 15 2 5 5 19 5 22l-9 9c-5 4-16 14-25 22-17 17-23 22-37 30-7 3-12 5-19 7-6 2-16 5-23 8-12 5-25 10-58 22-24 8-35 14-44 22-5 6-8 9-11 16-12 27-22 57-28 87-2 15-1 18 10 19 9 1 64 0 80-1z"/></svg>