<svg xmlns="http://www.w3.org/2000/svg" width="1344" height="566"><path d="M0 283V0h1344v566H0V283m1335 280c3-1 5-2 6-4 1-3 1-14 1-188 0-148 0-185-1-186-2-2-7-3-13-2-4 1-10 1-20 0-19-2-30 0-41 5-13 5-18 10-23 21-3 5-5 11-6 12 0 1-2 7-5 12s-6 14-8 20-5 14-8 17l-4 7 1 15c0 9 0 17 1 19 1 3 0 17-2 20-1 2-9 6-16 8-14 3-27 9-30 14-1 1-3 4-5 6-2 3-8 11-13 18-5 8-11 16-15 20-11 10-11 12-3 30 6 12 6 16 3 23-1 3-2 7-3 14 0 6-1 12-1 14-3 10-5 23-5 29 0 12 6 20 20 28 11 6 35 13 44 13 7 0 10 2 12 8 2 3 3 4 6 5 8 2 121 4 128 2z"/></svg>