<svg xmlns="http://www.w3.org/2000/svg" width="1344" height="566"><path d="M0 283V0h1344v566H0V283m720 278c18-1 20-2 23-11 2-6 2-9 2-36s0-29-2-34c-3-8-9-14-25-25-41-28-47-32-51-37-7-7-8-9-5-25 9-41 11-49 18-64 8-19 9-23 16-56 1-6 3-14 4-19s3-15 4-22c8-43 13-79 12-96-2-24-7-48-13-59-5-8-13-17-21-23-18-13-32-21-56-30-28-12-38-14-58-11-6 1-11 2-15 1-16-2-30 0-45 6-19 9-49 40-61 65-8 16-24 73-31 108-1 8-3 21-5 28s-5 24-7 37c-7 35-14 64-17 73-1 4-3 11-4 15-3 15-5 18-37 35-11 7-14 7-31 8l-16 1-13 6c-7 4-17 9-22 11-17 6-21 8-28 16-3 3-10 14-16 23-6 10-13 21-16 25-9 12-24 27-45 45-10 10-20 18-21 20-4 9-1 21 5 23 3 2 32 2 199 1 203 0 254 0 278 1 21 1 84 1 100 0z"/></svg>