<svg xmlns="http://www.w3.org/2000/svg" width="1344" height="566"><path d="M0 283V0h1344v566H0V283m551 276c4-1 6-1 14 0 5 1 22 1 39 1h42c34 0 45 0 48-1 7-2 7-4 8-39 1-32 2-40 5-42 1-1 6-1 21 0 21 0 73-2 78-4 1 0 7-1 12-1 5-1 11-2 14-3 2 0 9-2 15-2 5-1 12-2 16-2 3-1 7-2 9-2s6-1 9-2 6-2 7-2c2 0 22-10 30-15 11-7 19-16 24-26 3-4 5-9 5-10 0-4-12-28-19-37-2-3-4-7-5-8-3-5-16-18-24-25-6-4-11-8-23-14-14-7-15-7-27-18-6-7-13-13-15-14-3-1-9-3-15-4s-13-3-15-5c-3-1-11-6-18-10l-13-7h-10l-9-1-12-6c-6-3-17-9-24-13-6-3-12-7-13-8-4-3-5-7-6-25 0-9-1-17-1-18-1 0-2-6-4-14-8-42-24-66-54-81-13-7-25-11-48-15-22-5-25-5-34-4-28 4-66 25-82 47-12 16-23 37-31 58-3 7-5 16-6 19s-2 6-2 8c-3 4-18 15-35 26-5 3-12 8-16 11-26 19-42 28-68 39-6 3-14 7-17 9-6 5-15 17-21 28-5 10-6 17-6 40 1 25 2 30 16 53 7 11 12 18 22 28 5 6 8 10 9 13 2 5 1 45-1 59-2 12-2 31-1 34 2 5 6 5 31 5 33-1 64 0 109 1 65 1 86 1 92-1z"/></svg>