<svg xmlns="http://www.w3.org/2000/svg" width="1344" height="566"><path d="M0 283V0h1344v566H0V283m549 277c22-2 25-2 69-1 19 0 41 0 51-1 10 0 23-1 30-1 12 0 13 0 15-2 3-2 3-3 4-18 1-9 1-19 2-23 0-5 1-14 2-20 1-13 2-19 4-19h33c17-1 36-1 41-2 6 0 19-2 28-3 43-5 56-7 90-19 11-3 23-9 30-15 6-6 17-19 20-25 2-5 2-6 1-11-4-21-37-64-58-76-3-2-10-6-15-8-10-4-17-11-23-20-8-10-19-16-36-18-9-1-11-2-21-9-4-3-10-6-15-8-8-4-8-4-13-3-9 2-8 2-46-19-7-5-15-9-18-11-5-3-7-6-7-16-1-11-4-31-6-45-5-32-17-53-37-68-13-9-26-15-50-20-29-6-34-7-54-3-18 3-23 5-42 16-18 11-28 21-36 37-1 3-7 12-12 20-11 18-12 19-17 36-2 8-4 16-5 17 0 1-4 4-8 7-3 3-8 6-9 7s-7 5-13 9c-10 7-14 9-25 12-4 1-17 9-31 19-11 8-22 15-35 19-22 9-29 14-39 29-11 18-13 23-14 44 0 12 0 17 2 27 2 14 4 18 9 26 9 11 14 27 14 39 0 10 3 27 5 30s3 3 12 5c7 1 10 3 12 9 4 7 4 16-1 51-2 17-1 18 1 22l3 3h59c48 0 116 1 128 2 1 0 10-1 21-2z"/></svg>