<svg xmlns="http://www.w3.org/2000/svg" width="1344" height="566"><path d="M0 283V0h1344v566H0V283m256 279c2-1 32-1 65-2 55-1 64-1 95 0 21 2 39 2 46 2 7-1 39-1 71-2 32 0 59 0 59-1 0 0 17 1 38 1 20 1 59 1 86 1 26 1 64 1 83 2h37c4-1 7-8 7-14-1-5-14-25-23-35-11-12-18-16-64-31-17-6-31-10-42-13-23-5-32-9-41-22-12-14-12-17-6-25 2-3 7-14 12-23 5-10 11-21 13-24 1-4 5-11 7-17s6-13 8-15l6-12c1-3 4-9 5-11 7-11 11-32 14-67 0-14 2-35 3-46 2-17 2-25 2-42-1-29-3-39-14-67-15-39-29-58-56-77-25-17-22-17-99-18-67 0-82 0-90 4-10 5-27 17-37 26-14 14-21 25-28 44-6 16-9 27-11 50-4 26-4 28-10 45-6 19-8 28-9 41 0 14 1 24 5 34 3 7 3 8 3 15-1 4-2 11-2 15-2 6-2 9-1 19 1 13 3 19 8 30 4 9 11 27 13 31 3 9 7 24 7 28s-5 13-17 27c-5 5-10 12-12 15-11 14-13 15-26 21-15 8-16 8-51 18-41 11-43 12-58 17-18 7-24 9-39 16-11 6-13 7-20 14-6 6-9 10-12 17-6 12-8 18-5 23 2 5 6 7 12 8s61 1 68 0z"/></svg>