<svg xmlns="http://www.w3.org/2000/svg" width="1344" height="566"><path d="M0 283V0h1344v566H0V283m642 277h258c77-1 110-1 116-3 7-2 8-14 2-43-3-17-4-23-4-38-1-10-2-21-2-25-2-15-2-16 0-22 1-6 1-6 0-9-3-6-12-15-18-18-3-1-6-2-7-2s-31-12-33-13c0 0-6-3-13-6-11-5-14-7-18-12-9-9-15-22-18-36 0-5-1-9-2-10 0-1-1-11-1-22-1-12-2-33-2-48-1-14-2-36-3-49-2-46-8-76-21-102-14-30-34-47-71-62-27-11-33-12-57-10-37 5-79 18-86 27-2 2-5 8-7 14-6 15-8 19-19 36-14 20-20 33-25 52-3 9-5 17-6 19-1 8-2 11-11 30-5 10-9 21-10 24-2 10-1 28 4 46 4 15 6 28 7 39 2 22 7 27 35 33 7 1 14 3 15 4 2 2 0 5-7 11-8 6-14 9-19 9-4 0-5-1-6-4-2-6-10-7-26-4-7 1-14 2-25 2-20 0-22 1-39 16-8 6-13 10-17 12-3 1-3 1-6-1-6-5-6-5-14 0-3 2-9 5-12 8-8 4-12 7-22 11-12 5-20 11-24 18-2 5-6 8-13 11l-5 3-22-1c-21-1-34 0-39 2-2 1-4 2-6 4-3 4-2 5 6 10 10 6 12 9 9 16 0 2-2 7-3 11-1 5-5 14-9 22-3 7-6 13-6 14 0 0-2 5-4 9-4 10-6 16-6 18 1 3 22 4 60 4 20 0 39 0 42 1 4 0 23 1 43 1 26 0 42 0 55 1 25 3 23 3 63 2h49z"/></svg>