<svg xmlns="http://www.w3.org/2000/svg" width="1344" height="566"><path d="M0 283V0h1344v566H0V283m295 276h66c6 0 13 0 16 1 3 0 23 1 48 0 51-1 52-1 95 0 22 0 39 0 47-1 9-1 18-1 39 0 14 1 59 1 98 1 66 0 73 0 76-1l4-4c0-3-1-11-3-16 0-3-2-8-3-11 0-4-2-10-3-12-2-5-2-8-2-18-1-14-2-16-9-21-6-5-57-30-65-33-1 0-11-4-22-10-11-5-23-10-27-12-11-5-20-10-21-12-3-3-2-5 1-14 2-5 4-9 4-10s4-10 9-21c13-28 17-41 23-63 2-11 2-12 2-38 0-19 0-31-1-42-1-8-3-21-4-28-3-33-11-69-17-86-1-3-3-8-3-10-6-16-22-43-33-54-6-6-40-29-49-34-12-6-19-6-53-6-30 1-36 2-45 7-5 2-10 3-17 4-10 2-19 6-28 13-13 9-26 26-33 42-9 18-18 48-24 78-2 6-4 14-4 18-1 3-4 19-7 36-3 18-7 39-9 49-6 31-8 45-10 56-2 16-2 45 0 64 1 8 2 19 3 25 0 10 0 11-2 14-3 5-8 7-17 8-11 2-25 7-39 16-8 5-16 9-18 11-3 1-7 3-9 5-3 1-12 7-22 12-17 9-24 13-27 17-1 1-3 5-5 10-5 11-12 26-20 39-11 21-13 28-6 32 4 1 5 1 126-1z"/></svg>