<svg xmlns="http://www.w3.org/2000/svg" width="1344" height="566"><path d="M0 283V0h1344v566H0V283m604 278c20-1 47-1 149-1 52 1 54 1 56-1 5-3 5-7 5-23-1-20-6-45-15-70-1-4-3-11-5-15-2-5-5-13-7-18-4-9-5-10-2-21s2-11-26-23c-9-4-26-11-37-16-12-6-24-11-28-12-8-4-14-7-16-11-5-6-4-20 5-79 2-17 1-33-5-89-1-7-2-16-2-20-2-15-8-47-11-58-9-22-16-33-35-53-13-14-27-22-52-30-12-5-23-6-31-5-3 1-11 3-18 5-6 2-14 4-18 4-17 2-24 6-38 18-27 26-42 68-53 146-10 71-10 102-3 129 3 10 3 22 1 25-3 5-17 11-27 12-5 0-11 2-14 3-3 2-8 4-11 5-6 1-67 32-70 35-4 3-6 9-6 20 0 12-1 20-5 32-7 24-10 44-13 78-1 20-1 21 1 25 1 2 3 4 5 5 4 2 19 3 114 2 20 0 52 0 72 1 52 1 117 1 140 0z"/></svg>