<svg xmlns="http://www.w3.org/2000/svg" width="1344" height="566"><path d="M0 283V0h1344v566H0V283m1185 278h25c4 0 125 0 127-1 1 0 3-2 4-3 1-3 2-14 2-169 0-91 0-167-1-169-1-4-1-4-8-7-3 0-6-2-8-4-3-2-9-13-12-20-2-5-3-16-2-22 4-30 6-61 6-68-1-14-5-25-9-34-3-4-6-10-8-14-5-11-4-10-28-12-14-1-42 0-49 1-4 1-15 10-19 16-2 2-6 8-9 11-9 11-10 14-10 40-1 22 1 47 4 58 5 17 13 39 16 43 1 2 6 5 13 8 14 7 16 11 12 19-2 6-13 19-21 26-9 9-16 22-18 35-1 4-4 12-5 19-2 6-4 14-5 18-1 3-3 10-4 14-4 15-8 34-9 56-2 36-4 50-6 56-6 12-32 34-41 34-2 0-8-2-14-4-32-13-33-13-37-11-1 2-2 3-2 6s1 4 7 10c7 8 7 10 4 16l-7 7c-8 6-13 11-14 13-1 3 1 7 5 8 3 0 6 3 8 8 3 5 5 6 12 5h6l4 5c5 5 5 5 13 7 9 1 32 1 78-1m-709-1c3-3 5-9 5-13 0-2 1-3 2-4 2-2 3-2 8-1 3 1 8 2 10 3 2 0 7 1 11 1 8 0 11-2 14-13 3-9 4-14 2-18-2-3-13-14-19-17-2-2-7-6-10-10-4-4-8-8-11-9-6-3-8-8-8-17 0-8 3-24 8-38 3-11 3-12 3-26 0-13 0-14-3-25-2-6-4-12-4-13 0-2-5-14-10-23s-15-19-24-27c-7-5-13-10-13-12 0 0 1-2 2-3 1-2 5-8 8-14 6-12 7-13 12-16 7-3 8-7 10-18 3-16 3-28 2-37-1-5-2-13-2-20 0-15-1-23-5-31-3-8-8-12-19-18-11-5-16-7-31-9-11-1-13-1-22 1-11 1-21 5-28 11-11 8-16 22-18 51-2 24-4 51-5 87l-1 28-9 18c-7 14-9 21-11 26 0 5-2 9-2 10s-2 7-4 14c-2 9-3 15-3 26-1 7-2 18-3 23-4 17-5 30-3 43 1 15 3 25 7 36 2 9 4 19 4 28 0 7 2 11 6 16 3 3 3 3 17 3 8 1 9 1 13 4l4 3 46 1c80 1 72 1 74-1m444 0c14-2 14-4 13-42-1-37-2-44-5-57-5-23-5-52 0-101 3-31 3-32 2-42-1-5-3-15-4-22-4-14-5-19-7-32-3-23-16-53-29-70-4-5-6-11-7-20 0-10-2-12-11-13-4 0-8-1-9-2-3-1-11-14-13-19-2-8-2-29 0-48 1-9 1-22 1-27 0-8 0-10-3-17-4-10-10-18-18-25-9-8-11-9-21-12-17-5-37-2-59 9-11 6-14 8-19 13-3 4-7 9-8 12-2 4-2 5-2 18 0 10 0 15-2 21-1 6-1 10-1 18 1 7 1 13-1 20-2 12-2 11 6 23 3 5 8 12 11 17 2 4 7 11 10 14 6 6 9 7 22 10 4 1 6 2 10 5 6 7 5 11-4 26-6 9-9 14-10 21s-4 18-13 44c-3 11-7 24-8 28-1 5-4 18-6 28-7 29-17 71-24 95-2 6-5 19-8 31-3 10-6 23-7 26-1 4-3 12-5 18-1 5-3 12-3 14-3 8-6 24-6 29s0 6 2 8c3 2 3 2 20 1 20-1 114-1 156 1 30 1 48 0 60-1z"/></svg>