<svg xmlns="http://www.w3.org/2000/svg" width="1344" height="566"><path d="M0 283V0h1344v566H0V283m508 276c7-1 18-1 27 1 2 1 7 1 14 0 12-1 18-4 26-10 3-3 5-5 6-5 2 0 2-3 0-7l-2-4 2-4c1-2 4-8 8-12 3-5 6-11 7-14 4-11 7-13 12-6 5 6 6 6 11 4 2 0 6-1 8-1 8 0 14-5 24-19 2-3 5-7 7-8 7-7 14-23 21-49 2-8 6-17 11-29l4-12c1-4 4-14 7-21 3-8 6-14 6-15s2-6 4-12c3-10 3-13 3-23v-11l-5-10c-3-5-6-10-7-11-3-2-9-1-13 1-2 1-8 6-13 10-7 6-13 10-21 14l-11 6h-9c-7-1-10-2-11-3s-4-5-7-10c-6-11-14-19-23-24-39-20-38-19-38-23 0-8 5-15 18-25 8-6 11-9 18-22 5-9 7-15 9-38 0-11 2-25 3-31 6-34 3-46-15-64-13-13-19-17-27-20-4-2-10-4-12-5-3-1-12-3-20-3-15-2-16-2-23 0-28 7-41 22-52 62-6 23-9 35-13 66-4 22-8 46-9 50-1 5-1 11 0 13s3 4 5 7c2 2 4 5 4 5 0 2-7 11-22 30-4 5-9 11-10 14-3 5-6 18-6 25 0 5 2 29 5 44 0 7 1 19 1 32 0 14 1 25 2 32 0 5 2 15 2 22 2 13 5 34 7 40 0 2 1 8 2 14 1 5 2 13 2 17 1 5 2 13 3 19v12l5 4c2 2 6 5 7 6 3 2 15 3 41 3 17 0 23 0 27-2z"/></svg>