<svg xmlns="http://www.w3.org/2000/svg" width="1344" height="566"><path d="M0 283V0h1344v566H0V283m770 275h144c96 0 101-1 103-2 1-2 1-2-1-7-11-19-33-40-59-56-13-7-33-17-53-24-27-10-28-11-47-20-20-10-23-12-23-21 0-6 3-12 9-21 13-16 21-27 35-49 20-29 30-42 39-50 10-8 19-17 26-29 11-18 18-36 18-46 0-3-1-5-4-9-6-5-7-8-7-12 0-2 4-20 12-50 7-31 10-55 7-74-2-18-8-37-13-48-4-7-11-18-17-24-5-5-6-6-13-9-8-2-11-2-34-3-32-1-130-1-162 0-36 1-42 3-51 16-15 21-25 52-36 114-2 8-7 13-17 16s-13 6-17 16c-2 8-2 10-2 24s0 15 3 27c5 15 10 24 19 35 4 5 7 10 8 12 1 5 0 22-4 39-1 6-2 13-3 15 0 4-4 18-7 25-3 8-9 18-14 23-4 4-6 5-10 6-7 1-37 3-43 2-7-1-15 1-19 3l-7 7c-31 42-43 53-74 70-4 2-9 6-13 9-3 2-10 7-15 11-13 10-15 12-18 17s-4 16-2 36c1 18 3 24 8 26 4 2 37 4 63 4 30 0 152 2 153 2 0 1 22 1 48 0 25 0 66-1 90-1z"/></svg>