<svg xmlns="http://www.w3.org/2000/svg" width="1344" height="566"><path d="M0 283V0h1344v566H0V283m703 277c9-1 24-1 35-1 24 1 55 1 131 0 32-1 92-1 133 0 82 1 121 1 124-2 2-2 1-7-3-20-6-25-11-35-25-56-26-37-49-57-92-79-17-8-41-21-48-25-3-2-11-7-18-11-18-11-41-24-49-27-4-2-12-4-18-4-20-4-23-5-26-11-3-7-5-31-3-44 1-2 1-8 2-12s3-15 5-24 4-20 5-24c0-5 2-10 2-12 1-4 2-15 2-46 0-37-1-42-2-50-7-31-16-46-36-58-24-15-51-24-79-26-22-1-43 1-59 6-32 11-53 26-68 46-11 15-13 30-10 58 1 8 1 14 0 28-1 10-1 32-2 49 0 28 0 33 2 42 3 15 10 36 18 53 2 6 6 14 8 19 7 17 13 26 25 33 5 3 7 4 7 7 0 2-1 4-16 17-8 8-19 17-22 21-4 3-10 8-13 11-7 8-19 18-39 31-18 12-50 36-70 52-25 21-43 43-43 53 0 7-7 7 117 7 71 0 115-1 125-1z"/></svg>