<svg xmlns="http://www.w3.org/2000/svg" width="1344" height="566"><path d="M0 283V0h1344v566H0V283m949 275c18-5 19-5 22-8 4-5 9-19 9-25 0-4-1-6-4-11-6-8-13-16-15-17-1-1-10-2-20-2-11-1-21-2-24-2-3-1-8-2-12-2-9 0-20-2-23-4-1 0-2-3-3-5-3-12-5-14-15-15-7 0-9 0-17 3-16 6-21 9-40 26-9 9-12 10-27 14s-19 4-22 1c-2-2-7-12-12-23-14-29-28-59-40-84-9-18-11-23-11-25 1-2 3-5 5-7 3-2 7-6 9-9 2-4 6-8 8-10 6-3 18-14 27-23 3-4 9-9 13-11 3-2 7-6 8-8s3-10 5-19c3-14 4-18 9-30 3-8 8-18 10-22 8-20 16-39 24-52 11-19 11-21-4-37-4-4-11-12-15-18-8-13-15-20-25-28-13-10-20-15-34-22-32-16-55-20-81-16-9 2-26 7-32 11-5 2-15 11-30 26-14 14-21 24-32 45-12 25-19 34-30 41-4 3-18 8-28 11-20 4-27 9-41 25-13 16-15 20-15 32 0 11-2 21-6 31-1 4-2 8-2 12v6l7 8c12 11 12 13-2 35-10 18-14 26-29 62-2 6-7 16-10 22-7 14-8 18-5 33 2 12 3 30 1 33s-3 4-7 4c-5 0-10-3-22-12-6-5-13-10-16-12-6-3-22-18-51-49-21-21-20-19-13-40 3-8 6-20 8-26 3-11 3-11 2-24 0-15-2-29-5-33-1-2-5-7-9-11-8-9-9-10-4-24 2-8 2-10 2-25s0-16-2-20c-3-5-8-9-12-8s-12 9-17 16c-2 3-5 8-8 10-4 5-6 10-6 20s-2 13-8 16c-3 1-9 2-13 3-10 1-17 6-24 15-11 15-18 30-20 48-1 6-3 15-4 20 0 6-2 15-2 21-1 9-1 11-4 18-4 7-7 10-13 10-4 0-8 2-10 5-2 5-1 7 6 16 13 15 15 17 17 27 2 9 3 11 10 23 10 15 14 20 23 31 4 4 8 10 9 12 3 7 7 12 11 14 5 3 27 9 40 10 5 1 44 1 90 2 60 0 86 0 101 2 17 1 33 1 103 1 120-1 176-1 236 0h149l12-2z"/></svg>