<svg xmlns="http://www.w3.org/2000/svg" width="1344" height="566"><path d="M0 283V0h1344v566H0V283m502 276c10-1 45-1 253-1 55 1 311-1 312-2 1 0 9 0 18 1 10 0 27 1 38 2 20 0 21 0 23-2 4-4 3-8-8-23-18-23-41-37-104-61-28-11-37-14-45-18-4-1-8-3-9-3-3 0-24-12-32-17-11-9-13-12-13-18 2-9 24-74 31-87 6-13 8-14 20-17 9-3 16-7 23-14 20-18 34-46 32-63-1-6-4-12-9-15-3-2-6-7-6-11 0-2 2-10 4-18 11-34 16-60 20-94 1-17-13-67-25-83-1-2-4-4-6-5-10-5-14-5-104-6-126-1-141 0-149 8s-24 44-29 64c-1 5-4 18-6 29-8 41-9 43-21 49-6 3-7 4-10 10-5 11-6 26-3 46 2 17 7 29 16 41 8 11 10 16 11 33 3 35-2 73-11 91-2 5-4 7-10 10-4 2-5 2-26 2-29-1-27-1-47 19-17 16-30 28-37 33-5 3-28 14-35 16-2 1-8 4-14 6-13 7-31 14-50 21-20 6-26 9-43 19-23 12-39 26-51 43-5 7-6 11-4 13 1 0 8 1 16 2 11 2 19 2 47 1 18 0 38-1 43-1z"/></svg>