<svg xmlns="http://www.w3.org/2000/svg" width="1344" height="566"><path d="M0 283V0h1344v566H0V283m846 278c20 0 20-1 20-12 0-7 0-8 3-12l3-5-2-8c-2-8-7-17-10-20-1-1-4-3-8-5s-10-6-14-9c-3-3-13-10-20-15-8-4-15-9-16-10-1 0-9-5-18-9-18-10-25-16-42-30-6-5-16-13-22-18-14-10-15-11-14-20 0-15 9-50 15-59 3-5 13-14 23-20 8-6 16-14 21-22 7-12 7-17 6-66-1-39-1-42-3-53-4-15-6-21-13-38-8-17-12-24-23-34-13-13-27-21-43-24-9-2-39-5-51-5-16 0-23 2-38 12-11 8-20 18-28 31-13 21-21 39-25 55-2 9-1 31 1 47 1 6 2 19 2 33 0 21 0 25-2 38-5 31-5 31-10 41-8 16-8 17-21 23-9 5-12 6-18 7-66 8-74 12-82 38-6 16-5 24 5 43 14 24 20 38 23 52 2 9 1 15-5 28-5 10-7 19-7 27s2 12 7 15c5 1 21 4 34 5 12 1 348 0 372-1z"/></svg>