<svg xmlns="http://www.w3.org/2000/svg" width="1344" height="566"><path d="M0 283V0h1344v566H0V283m698 277c9-1 17-1 18-1 2 0 17 0 34 1h50c18-1 148-1 246-1 44 1 57 1 59 0s2-2 2-7c0-16-9-43-18-58-19-32-37-52-58-67-16-11-21-14-51-29-17-9-33-18-37-20-4-3-11-7-16-10-5-4-12-8-15-10s-14-7-24-13c-17-9-24-11-41-14-5 0-9-4-11-10-3-11-2-37 2-53 1-3 2-9 3-11 0-2 3-13 7-24 10-33 12-44 8-61-2-7-2-12-3-28 0-23 0-28-4-41-5-22-16-38-34-50-12-7-13-8-30-15s-31-10-48-11c-32-3-60 3-90 19-18 10-31 23-40 38-7 13-10 29-8 50 1 7 1 19 1 28-1 8-1 29-2 47 0 42 0 45 12 76 11 30 21 53 29 62 2 3 6 7 9 10 7 6 7 8-3 17-5 4-19 17-31 27-23 19-36 28-54 39-9 5-16 10-38 23-7 5-19 13-26 17-40 25-51 34-62 50-8 12-10 17-10 23 0 5 2 6 8 7 8 1 249 1 266 0z"/></svg>