<svg xmlns="http://www.w3.org/2000/svg" width="1344" height="566"><path d="M0 283V0h1344v566H0V283m735 280c10-1 22-5 26-8 3-2 7-9 7-11 0-1-2-4-3-5-3-3-4-5-4-10-1-9-3-18-3-20-1-1-2-4-2-8-2-8-1-36 2-67 3-29 4-59 2-71-3-11-6-22-12-35-7-18-12-25-28-44-13-13-13-14-13-19 0-2 1-9 3-14l9-27c6-21 6-30 4-50 0-8-1-21-2-30-3-43-11-61-36-81-13-11-39-24-57-29-20-7-31-7-58-3-47 8-68 19-86 49-8 13-13 28-16 50-1 6-3 17-4 23l-2 11-6 7c-3 3-6 7-6 9-1 1-1 6 0 11 2 17 3 47 2 51-3 10-10 15-54 33-27 11-63 32-87 50-18 14-47 43-59 61-14 20-18 27-24 45-2 5-4 10-4 11-1 1-2 7-4 12-5 20-4 90 1 99 3 7 1 6 51 5 67-1 205 0 253 2 22 0 41 1 41 2 0 0 34 0 74 1 40 0 74 0 74 1 1 0 11 0 21-1z"/></svg>