<svg xmlns="http://www.w3.org/2000/svg" width="1344" height="566"><path d="M0 283V0h1344v566H0V283m404 278c20 0 50 0 66 1 35 0 33 1 33-13 0-5-1-11-1-13-3-8-5-15-6-24-2-19-10-40-18-51-6-7-17-16-32-25-2-1-7-4-11-6-9-6-13-10-13-14 0-2 2-5 4-9 3-3 7-10 9-15 6-14 14-22 28-28 9-4 15-9 17-12 1-2 1-11 1-30v-28l-4-8c-6-11-9-20-11-33-4-21-7-30-15-41-8-12-15-16-38-21-26-5-37-5-55-1-9 2-16 5-24 10-21 14-31 29-35 52-2 11-5 90-6 138l-1 48-5 14c-12 25-13 28-16 38-2 6-3 13-3 16s-1 9-2 13c-5 17-7 26-7 32 1 10 1 10 25 10 10-1 32 0 48 0h72m691-3c4 0 8-1 8-2 4-3 8-13 9-25 0-4 1-13 2-19 2-19 3-38 4-61 0-18 0-23-1-29-7-30-26-64-56-104-11-15-19-24-38-40-6-6-12-12-13-14s-3-7-4-11c-1-5-3-9-3-10-2-1-5-2-11-3-14-2-15-3-21-21-5-13-5-18-1-29 1-3 3-10 4-15 2-12 7-30 9-36 3-7 9-27 10-35 1-7 1-12-2-28-2-13-4-19-9-29-6-13-11-18-22-23-12-6-36-12-49-11-19 0-53 9-67 17-8 5-23 19-26 24-2 4-3 5-3 18 0 12 0 13-4 25-3 10-4 16-5 27-2 14-4 23-8 33-5 13-5 17-1 25 2 4 5 12 7 19 5 14 10 29 13 36 3 6 7 8 19 12 15 4 19 6 24 12 7 6 11 15 11 18-1 3-4 6-15 16-5 4-11 9-12 12-2 2-7 7-10 11-7 6-8 9-11 26-1 4-4 11-5 15-6 12-19 47-22 58-10 33-12 39-16 59-2 6-4 14-5 17-1 5-8 45-10 54 0 6 2 11 6 12 1 0 37 0 79-1h94c35 0 132 1 132 2h6c4-1 9-1 13-2z"/></svg>