<svg xmlns="http://www.w3.org/2000/svg" width="1344" height="566"><path d="M0 283V0h1344v566H0V283m773 277c28-2 46-7 89-20 36-11 46-13 69-16 13-1 24-1 42-1 27 1 25 0 49 9 19 7 31 10 42 10 8 0 10-2 7-9-3-12-9-25-31-61-6-9-7-14-8-41-1-31-4-47-9-59-2-5-5-13-6-16-2-4-5-11-7-16s-6-13-8-19c-5-14-14-33-19-42-8-14-17-21-41-29-5-2-14-6-19-8s-13-5-18-7c-27-9-38-14-51-25-20-16-30-27-30-33 0-1 2-9 5-18 6-17 9-26 12-43 3-16 7-29 11-34 6-8 12-21 14-29 2-10 1-32-1-37-3-6-7-9-12-11-5-1-13-1-124-1-126 0-126-1-128 4-1 1-1 5-1 8 1 4 1 15 2 24 1 10 2 21 2 24 2 12 7 25 17 43 12 22 14 28 17 37 2 8 3 15 1 18-3 7-21 33-27 39-6 7-7 8-17 13-14 6-22 9-33 13-17 6-21 9-21 16 0 6 8 27 15 39 6 11 15 30 16 35 2 8 1 18-4 43-7 29-11 51-12 60-1 2-1 15-2 30-1 14-2 30-3 34-4 29-4 32-3 49 3 18 3 20 12 24l6 3 38-1h89c28 0 54 0 57 1 8 1 11 1 23 0z"/></svg>