<svg xmlns="http://www.w3.org/2000/svg" width="1344" height="566"><path d="M0 283V0h1344v566H0V283m889 276c4-2 10-9 13-15 2-5 2-17-1-24-3-8-7-18-8-20-2-2-13-24-17-32-2-5-5-15-7-21-3-13-6-19-10-25-2-2-7-9-12-16-9-12-16-18-26-24-8-5-10-7-10-11s-2-12-7-19c-2-3-5-10-7-15-6-15-13-19-31-16-10 2-15 5-20 11-4 5-5 13-5 25 1 8 1 11 4 15 3 8 10 15 18 21 10 7 12 11 13 25 2 21 0 40-4 49-4 8-12 12-26 13-9 0-20-2-32-6-2 0-7-1-10-1-6 0-7 0-9 2-4 3-5 8-5 17 0 5 0 6 2 9 3 2 9 3 18 1 4-1 7-1 15 2 6 1 12 3 14 4 6 2 9 1 19-3 11-5 15-5 19-1 3 3 4 5 5 11 2 12-1 17-12 20-4 2-5 2-8 8-2 3-4 5-8 8-3 2-6 4-6 5 0 0 1 2 2 3 3 1 6 1 33 1 17-1 38-1 47 0 26 1 55 1 59-1z"/></svg>