<svg xmlns="http://www.w3.org/2000/svg" width="1344" height="566"><path d="M0 283V0h1344v566H0V283m763 278c2-1 6-1 16 0 15 0 37 1 49 0h41c18 0 58 0 87-1 31 0 64 1 76 1 28 2 67 0 70-2 5-5 1-23-13-67-3-10-12-44-16-58-1-4-3-11-5-14-1-4-3-10-4-14-3-10-5-14-11-27-11-21-15-24-58-39-26-9-45-15-58-18-11-3-19-5-24-9-7-4-18-14-29-25-6-5-15-14-21-19-15-13-15-13-15-33 0-9 0-19 1-21 0-3 3-9 6-15 10-16 11-21 12-36 0-15-1-21-6-37-2-5-6-17-9-27-12-38-22-58-39-78-8-9-12-13-19-16-6-2-56-3-104-2-44 0-58 1-64 4-11 4-35 39-43 62-3 11-4 23-2 49 2 21 5 35 9 50 1 4 3 11 4 15 2 5 4 14 5 20 1 5 4 15 6 20 3 10 5 14 18 39 9 15 12 21 18 35 3 6 8 16 12 21 3 5 6 10 7 12 1 4-3 11-10 18-7 6-25 19-34 23-2 1-12 8-23 14-21 14-21 15-20 25 0 7-2 22-8 41-4 13-6 21-10 41-3 15-7 23-22 41-8 10-9 12-8 15 1 5 5 5 31 6 13 0 27 1 30 2 7 1 44 3 72 4 9 0 24 0 32 1 22 1 70 0 73-1z"/></svg>