<svg xmlns="http://www.w3.org/2000/svg" width="1344" height="566"><path d="M0 283V0h1344v566H0V283m736 278c21-3 28-3 36-2 10 2 23 2 78 1 49-2 136-1 158 0 18 1 64 0 67-2 2-1 3-3 4-4 3-7-1-32-13-80-7-28-8-31-10-39 0-4-2-12-3-17-2-4-4-13-6-18-1-6-4-14-5-18-4-9-13-22-18-26-7-6-57-28-73-33-5-1-19-6-31-11-15-6-21-11-48-37-19-19-25-25-34-31-10-6-11-7-13-13-3-10-5-22-3-34 2-20 5-24 17-32 7-5 13-13 15-21 4-13 3-33-2-50-2-5-5-15-6-22-4-19-8-33-13-46-6-15-7-16-12-19-4-2-7-2-31-3-35-1-173-1-185 0-16 2-19 5-25 28-3 10-3 15-4 32-1 22-1 38 3 62 4 25 9 41 19 57 3 5 7 13 10 18 7 15 15 25 22 28 4 2 7 5 11 9 9 11 23 29 24 33 2 6-2 12-17 28-15 15-23 20-43 30-17 7-58 28-74 37-13 7-22 13-27 18-3 4-9 14-11 20-5 12-5 15-6 50-1 28-1 37-3 45-3 18-11 39-14 41-1 0-5 1-10 1-7 1-9 1-22-3-16-5-21-7-38-15-20-9-28-13-34-14-14-3-22-14-30-40-4-15-7-33-9-63-2-39-5-55-12-67-6-9-12-26-14-40l-5-10c-7-12-16-18-22-15-3 3-5 6-7 17-3 12-3 13 1 24l2 10c-1 3-16 9-24 11-5 0-11 2-15 3-15 6-20 12-22 26 0 4-1 11-3 17l-2 12 1 14c1 9 3 23 5 32 3 20 2 23-4 29-4 4-10 6-23 8-12 2-18 1-31-4-26-11-29-11-45-11-15-1-17 0-35 6-27 11-54 33-63 52-4 8-4 9-4 17-1 11 1 14 8 17 5 3 14 3 38 1h43c122 4 219 4 274 2 18 0 50-1 69-1 33-1 36-1 41 1 7 3 25 4 40 3 7-1 27-1 56 0 25 1 62 1 82 1 21 0 40 1 43 1 6 1 26 0 37-1z"/></svg>