<svg xmlns="http://www.w3.org/2000/svg" width="1344" height="566"><path d="M0 283V0h1344v566H0V283m294 276c3-1 8-1 16 0 6 1 79 1 198 1 192 1 190 1 205-3 8-2 10-9 5-23-2-6-2-10-3-24-1-15-1-16-5-26-2-5-5-13-7-17s-5-12-7-17c-4-8-4-9-5-18 0-6-1-11-2-13-1-3-5-5-13-8-37-16-46-20-51-23-3-1-12-5-19-8-16-6-33-14-36-17s-3-9 1-26c3-12 8-28 13-42 7-18 7-18 8-39 0-17 0-20-3-36-1-10-3-21-3-24-1-5-7-31-11-46-10-36-21-62-32-78-6-8-20-21-29-28-9-6-30-16-42-21-13-4-20-5-35-5h-13l-14 6c-8 4-18 9-22 10-12 5-26 13-34 21-9 10-22 40-28 65-6 22-14 76-16 107-1 7-1 20-2 27-4 54-4 72 3 96 4 17 5 21 2 25-2 3-13 8-22 11-18 5-29 10-41 18-20 15-35 25-44 30-11 5-16 10-18 14-1 1-2 6-2 10-1 4-3 11-5 17-2 5-4 13-6 16-5 17-12 53-11 62 1 3 2 5 4 6 2 2 3 2 62 2 33-1 62-1 64-2z"/></svg>