<svg xmlns="http://www.w3.org/2000/svg" width="1344" height="566"><path d="M0 283V0h1344v566H0V283m1163 277c15 0 16 0 19-2l2-3-2-7c-4-14-10-25-17-33-4-3-11-12-17-19-12-14-25-26-46-42-8-7-18-15-22-19-19-17-33-28-48-37-3-3-13-10-21-15-8-6-17-12-20-13s-9-2-19-3c-12-1-14-1-20-4-9-4-13-9-13-18 0-26 8-52 20-67s21-36 27-64c2-11 2-18 0-24-1-2-1-10-2-29 0-14-1-29-2-33-5-33-18-53-48-72-17-11-33-17-53-20-11-2-40-1-50 2-20 5-38 16-53 31-14 16-21 32-26 61-1 10-3 22-3 28-1 5-3 12-4 14-3 10-4 16-1 28 1 3 1 9 2 15 2 17 6 35 10 43 3 5 14 37 20 56 5 16 5 19 6 29v14c-1 2-3 4-5 5-5 3-42 21-57 27-19 9-47 26-70 44-22 18-29 26-53 54-6 7-18 27-21 35s-7 22-8 26c0 5 2 9 7 11 3 1 11 1 75 1 39 0 80 0 92-1 27-1 175-1 224 0 20 1 67 1 103 1 36 1 66 1 66 2h6c3-1 13-1 22-2M50 558c8-1 89 0 112 1 22 1 99 0 126-2 12-1 140-1 191 0 41 1 41 1 53-1 10-1 14-3 15-6 0-2-1-10-2-18-3-17-5-30-8-50-4-32-5-37-7-46-3-15-6-21-17-44-15-29-21-37-37-48-11-8-35-23-42-26-15-7-36-17-41-19-12-5-59-30-67-35-11-8-23-18-25-23-4-7-2-19 5-45 5-21 9-27 19-32 15-8 26-19 34-36 3-7 3-9 4-17 0-8 0-11-2-18l-2-8 2-10c1-5 3-11 4-13 6-17 8-45 4-52s3-6-109-6H117l-3 3c-3 3-6 11-10 32-10 51-9 86 3 130 6 23 8 40 4 43-1 2-7 4-12 4s-16 6-29 18c-16 14-30 26-37 30-3 1-10 5-15 7-6 2-12 5-12 6-5 5-5 3-5 143 0 122 0 132 2 135 3 5 3 5 23 4 9 0 20-1 24-1z"/></svg>