<svg xmlns="http://www.w3.org/2000/svg" width="1344" height="566"><path d="M0 283V0h1344v566H0V283m886 275c5-2 6-5 9-16 1-8 2-13 2-31 0-12 0-24 1-27 1-4 1-8-1-24-2-10-4-25-6-34-1-8-3-19-4-26-1-14-3-26-7-35-1-5-3-12-4-17 0-5-2-10-3-13-2-4-6-18-7-25-3-26-12-48-26-68-10-13-15-17-27-23-11-5-18-11-21-16-2-4-2-6-2-15 1-5 1-11 2-12 1-4 5-26 6-34 1-16-5-32-17-44-7-7-15-12-26-15-8-3-28-3-33 0-3 0-9 3-14 4-4 2-10 4-12 5-7 4-24 23-30 33-3 6-6 19-6 27 0 7 2 15 5 18 3 4 5 16 5 29 0 9-1 11-7 17-5 7-9 14-13 25-3 9-13 30-15 33-1 1-5 7-9 14-8 16-12 23-19 31-12 14-19 21-29 29-7 4-16 12-22 17-20 15-38 22-53 21-47-4-57-5-64-3-8 2-8 4-9 15 0 12-1 17-6 20-7 4-8 10-3 19 6 12 14 15 24 11 3-1 6-2 7-2s6-2 10-4c9-3 13-4 35-6 11-1 13-1 24-6 6-2 14-5 18-5 4-1 13-3 19-5 10-3 14-3 21-3 10 1 11 2 4 6s-7 7 0 14c5 5 6 7 8 14 2 4 4 10 6 13 4 8 4 10-1 15-7 6-8 10-5 16 3 5 7 9 11 9 1 0 5-2 9-6 12-11 15-13 22-13s14 3 15 7c0 1 0 5-1 8-1 4-2 9-1 13 1 11-1 9 22 34 3 3 6 5 9 6 13 3 18 3 74 4 31 0 62 0 69 1 21 1 63 1 66 0z"/></svg>