<svg xmlns="http://www.w3.org/2000/svg" width="1344" height="566"><path d="M0 283V0h1344v566H0V283m248 279c1-1 2-5 2-7 2-9-3-62-5-68-1-2-2-7-3-11 0-3-1-10-2-13-1-7-1-7 0-12 2-4 2-5 1-8-1-1-2-7-3-13-1-5-1-12-2-14-1-3-1-21-2-39 0-24-1-35-2-40 0-4-1-12-2-19 0-6-1-14-2-16-2-7-2-17-1-18 1-2 3-2 12-1 11 0 12 0 17-3 10-5 9-4 10-38v-31l3-6c2-3 5-8 8-11 8-11 10-14 10-22 1-5 1-8 0-10-3-5-5-5-26-8-6 0-8-2-10-10-2-7-9-14-14-16s-11 0-14 4c-2 2-3 5-4 9-2 8-6 15-11 18-7 5-7 6-1 17 2 5 5 12 7 15 4 7 4 14 1 22-5 8-6 9-12 3-6-5-15-10-22-13-3-1-9-3-13-5-3-1-8-3-9-4-4-5-2-12 6-16 7-4 12-11 12-20 0-8-3-21-6-26-4-6-12-21-14-25-2-5-1-14 3-20 2-4 6-7 20-16 14-10 20-19 17-31 0-2-2-5-7-9-6-5-6-5-13-5-4 0-8 1-13 3-10 4-13 5-17 4-3 0-4 0-6 2-3 3-7 9-9 16-2 8-8 23-10 26-1 1-3 5-4 9-2 7-4 11-10 26-6 14-7 16-10 18-8 4-9 6-9 12 0 5-1 8-3 11-2 2-3 5-3 7 0 9-11 38-18 48-2 2-6 9-9 14-4 5-10 13-15 18-7 7-17 15-20 15l-8 6c-10 7-12 11-11 23 1 4 1 25 2 46l1 38 5 14c2 7 7 21 10 30s7 19 8 22c1 4 2 9 2 18 1 18-1 29-6 44-2 7-4 13-4 14 0 2-1 7-3 12-1 5-2 12-3 19 0 10 0 11 2 13 5 5 14 5 104 3 44-1 60 0 65 3 2 1 4 3 6 3 1 0 15 1 29 1 27 0 27 0 28-2z"/></svg>