<svg xmlns="http://www.w3.org/2000/svg" width="1344" height="566"><path d="M0 283V0h1344v566H0V283m294 276h37c15 0 20 0 27-1 4 0 11 0 17 1 8 2 17 2 51 1h78c21 0 48 0 60-1 15-1 28-1 44 0 31 1 168 2 173 0 4-1 5-2 5-8 0-5-7-30-10-38-1-2-1-7-1-14 0-14-1-18-7-22-5-4-21-12-34-18-3-1-11-5-16-7-5-3-12-6-15-7-4-1-13-5-22-9l-26-13c-13-5-22-10-25-13s-3-7 2-15c1-3 3-7 3-8 0-2 2-8 15-37 6-15 13-38 17-53 2-12 2-14 2-33 0-18-1-36-6-68-3-23-5-40-7-48-7-27-8-33-11-42-8-21-17-38-31-56-6-8-15-15-39-31-22-14-29-16-71-15-28 1-36 2-44 8-3 1-7 3-13 4-12 2-17 4-25 9-26 15-43 47-57 101-6 24-10 46-17 86-3 19-8 47-11 62s-5 31-6 36c-2 14-2 44 0 64 4 32 4 32 1 37-4 5-7 7-14 8-12 1-24 6-43 17-31 19-35 21-45 26-25 12-29 16-33 27-3 8-11 24-18 37-7 11-11 20-12 26-1 3-1 4 1 6 1 1 3 2 4 2 2 1 57 0 122-1z"/></svg>