<svg xmlns="http://www.w3.org/2000/svg" width="1344" height="566"><path d="M0 283V0h1344v566H0V283m480 277c32-1 94-3 100-3 2 0 34 0 72 1 87 1 115 1 278-1 166-1 155-1 191 1 21 1 31 1 32 0 5-3 3-11-8-25-17-20-36-32-73-48-9-3-20-8-26-10s-15-6-20-8-11-4-14-5c-6-2-39-16-46-19-7-4-23-16-26-20-1-2-2-5-2-6 0-5 21-68 28-84s9-18 22-22c10-3 16-6 24-14 21-21 34-50 29-67-1-2-3-6-7-10-8-8-9-10-3-29 9-28 14-51 18-83 2-20 1-30-8-58-8-29-15-39-26-42-10-3-28-4-125-4-84 0-99 0-105 1-15 3-16 4-20 9-5 6-13 21-19 36-7 20-9 27-15 60-6 34-8 39-17 44-3 1-7 3-8 4-3 4-7 11-8 19-2 8-1 32 2 42 1 9 8 24 15 33 7 11 9 15 11 32 3 30 1 60-5 80-2 10-4 13-8 17-5 5-5 5-31 6-22 1-24 1-28 3-2 1-14 12-26 23-12 12-24 23-27 25-7 5-24 13-33 16-4 2-11 5-16 7-18 9-35 15-56 23-13 4-34 14-47 22-15 9-30 22-41 36-10 14-9 15 18 18 5 1 27 1 54 0z"/></svg>