<svg xmlns="http://www.w3.org/2000/svg" width="1344" height="566"><path d="M0 283V0h1344v566H0V283m795 222c6-4 4-4 31-4 12-1 19-3 21-8 1-5-1-23-3-33-2-5-5-17-6-26-5-22-8-28-15-36-4-3-8-8-10-11-6-9-14-16-29-24-22-12-25-17-25-39 0-7 0-14-1-16-3-11-21-18-35-13-7 1-13 6-16 11-2 4-3 25-1 35 1 12 5 18 13 27 10 10 11 12 8 23-2 8-2 11-2 33l1 24-4 8c-5 9-7 10-17 8-3-2-9-3-12-3-4 0-5 0-8 3-5 4-8 11-8 19 0 5 0 6 2 8 2 3 3 3 9 3 4 0 9 0 12-1 2 0 8-1 13 0 7 1 10 1 16 4 4 2 9 4 10 4s5-1 8-3c6-2 7-2 15-1 5 1 10 1 11 1 1 1 3 1 6 2s5 2 7 5c1 2 3 4 3 4 1 0 4-2 6-4z"/></svg>