<svg xmlns="http://www.w3.org/2000/svg" width="1344" height="566"><path d="M0 283V0h1344v566H0V283m306 276h34c2 0 4 0 7 1 4 1 5 1 7 0 3-2 5-2 16-1 7 1 30 1 51 1h91c32 0 57 0 63-1 8-1 18-1 37 0 39 2 162 2 166 0 5-1 6-3 6-9 0-5-6-28-8-36-1-2-2-7-2-14 0-13-1-16-6-21-6-4-33-18-61-30-6-3-17-8-24-11s-15-7-17-8c-6-2-30-14-34-17-2-1-4-3-5-5-1-3-1-4 2-11 2-4 6-13 9-19s7-17 10-24c11-23 18-47 21-68 2-10 1-43-1-60-1-7-3-19-4-28-3-22-6-40-8-50-6-25-8-31-11-41-11-28-28-56-40-66-22-16-34-24-46-30s-24-7-55-7c-27 1-34 2-44 8-3 1-10 4-16 5-39 10-60 38-78 103-6 20-12 53-15 72-2 11-8 46-12 64-11 64-12 66-11 98 1 14 1 31 2 39 0 13 0 14-2 18s-5 6-12 7c-5 1-19 7-27 11-4 2-14 8-23 14-10 6-24 13-31 17-29 15-32 18-36 27-3 8-13 28-21 40-13 22-14 31-5 33 2 1 66 0 133-1z"/></svg>