<svg xmlns="http://www.w3.org/2000/svg" width="1344" height="566"><path d="M0 283V0h1344v566H0V283m856 277h124c99 0 140-1 146-3 4-2 5-5 3-14-2-17-15-50-26-72-12-25-24-37-45-47-12-6-22-9-48-15-9-2-22-6-30-9-7-2-18-5-24-6-22-3-29-6-42-19-4-4-10-8-13-10-7-4-11-5-20-3-13 4-16 3-22-9-7-11-10-22-10-31s0-9 10-20c12-12 19-25 23-40 2-9 2-14-2-24-3-8-3-14 1-26 4-16 9-44 10-56 1-7 1-19 1-27-1-14-1-17-4-29-5-17-7-21-17-33-5-5-12-14-16-19-9-11-13-13-27-15-11-1-17-3-22-7-8-7-8-7-34-8-24 0-25 0-34 3-4 2-12 5-16 7s-11 5-14 6c-22 7-54 22-63 30-11 9-22 25-27 37-4 9-6 17-7 35-1 8-2 26-3 38-2 23-2 46 0 66 0 5 1 15 2 24 1 19 5 34 11 49 3 6 8 19 12 27 3 9 9 24 14 32 4 9 9 20 11 26s5 13 7 17c1 4 3 8 3 9 0 6-25 25-49 38-30 16-48 26-64 38-24 18-41 37-44 50 0 3 0 4 2 7l3 3h105c57 0 105 0 105 1h53c29-1 64-1 77-1z"/></svg>