<svg xmlns="http://www.w3.org/2000/svg" width="1344" height="566"><path d="M0 283V0h1344v566H0V283m1090 277c7 0 10-1 11-2 2-2-1-14-7-26-4-7-7-12-13-19-4-4-11-12-15-17-12-14-22-24-40-38-10-8-24-20-31-27-13-12-32-28-43-35-3-3-11-9-18-14-16-12-19-13-40-15-21-1-25-3-34-12-12-11-16-22-15-41 0-14 3-32 6-38 1-3 6-9 10-14 10-12 15-19 20-30 7-13 9-30 5-41-2-7-2-21 0-31 5-25 3-52-6-69-8-15-17-25-34-36-29-19-50-25-88-24-26 1-38 4-54 14-28 16-41 32-48 56-1 5-2 13-3 25-1 10-1 20-2 23-1 4-2 16-3 27s-3 24-3 29c-5 28-5 34 2 62 2 8 5 18 6 21 0 3 3 11 5 17 3 6 6 15 9 21 5 14 7 18 16 27 4 5 8 10 9 11 1 3-5 8-15 13-4 2-12 6-16 9-5 3-12 6-15 8-25 11-86 59-101 80-2 3-8 10-12 15-14 19-17 25-24 47-5 15-5 18-1 21 2 2 2 3 21 3 11 0 43-1 71-1 141-2 165-2 206-1 23 1 75 1 117 2 42 0 86 1 98 1 22 1 49 1 69-1M64 560c10-1 37-1 61-1 40-1 44-1 46-3 1-1 3-3 3-4 1-4 1-19 0-25-1-5-2-16-5-37-1-6-2-15-3-20-4-36-12-82-17-98-15-42-39-69-83-90-10-5-15-8-17-11-3-3-3-4-3-11 1-8 3-17 9-27 3-8 4-11 1-17-2-8-1-12 6-21 1-2 3-6 4-10s4-9 6-12c10-12 10-16-1-48l-7-23V81c-1-24-1-25-9-38-2-4-5-9-7-12C35 9 33 6 30 5 26 3 9 2 5 4L1 5v553l3 1c2 2 5 2 22 2 12 0 28 0 38-1z"/></svg>