<svg xmlns="http://www.w3.org/2000/svg" width="1344" height="566"><path d="M0 283V0h1344v566H0V283m346 278c54-2 197-3 248-1 48 1 216 1 225 0 15-2 17-4 18-19 0-13-2-29-5-37-5-12-27-32-63-56-17-11-25-16-29-18-9-4-16-11-23-24-9-14-10-17-6-26 5-9 27-37 44-54 18-18 23-26 35-52 2-6 6-16 9-22 11-26 16-55 16-88 0-22-1-33-7-48-8-18-19-35-34-52-15-15-25-21-46-25-6-1-17-4-24-7-19-6-28-7-46-7-13 0-18 0-23 1-24 7-43 17-59 32-20 20-28 35-38 74-7 29-8 31-18 43-11 13-14 23-13 45 1 12 1 13 4 19 3 8 8 15 16 24 8 8 8 11 8 32-1 22-1 22-13 29-9 4-12 7-32 25-9 8-18 16-22 19-8 6-20 12-30 15-4 1-12 4-18 6-18 8-31 13-42 17-25 9-33 12-44 18-10 4-12 6-19 13-6 6-8 9-12 16-4 10-13 33-17 47-4 13-11 42-12 48 0 5 1 10 4 12 5 2 22 2 68 1z"/></svg>