<svg xmlns="http://www.w3.org/2000/svg" width="1344" height="566"><path d="M0 283V0h1344v566H0V283m856 278c1-1 3-2 3-4 0-3-7-16-12-22-4-5-8-7-25-13-26-9-39-13-57-17-23-5-27-7-33-13-5-5-23-30-25-35-1-3-1-4 0-9 1-6 8-20 13-28 2-3 6-9 8-14 2-4 7-12 11-18 8-11 10-15 15-29 5-12 7-27 7-47 0-16-3-65-5-82-4-24-12-52-23-75-7-15-21-32-37-44s-40-21-74-28c-10-3-35-4-46-3-18 2-40 8-56 17-22 11-40 28-51 47-10 19-15 36-19 67-2 10-4 21-4 24-1 3-3 13-5 23-4 20-4 36-2 48 1 4 3 12 4 17 0 5 2 10 2 11 1 2 1 11 2 25 0 17 0 25 2 32l1 9 6 6c7 6 10 12 11 24 1 9 1 10 0 13-5 8-16 17-27 21-3 1-12 3-20 4-20 3-37 6-52 11l-20 5c-14 3-43 12-55 18-9 5-14 10-21 20-9 13-12 25-8 32 1 2 2 3 7 5 5 1 10 1 57 1h92c111 0 238 1 279 2 62 1 153 0 157-1z"/></svg>