<svg xmlns="http://www.w3.org/2000/svg" width="1344" height="566"><path d="M0 283V0h1344v566H0V283m873 275h121c39 0 40 0 40-4 0-5-24-26-54-47-20-14-32-21-58-32-30-14-39-18-45-24s-9-11-8-16c2-9 16-35 32-60 6-8 16-24 22-34 13-23 17-28 29-37 5-4 13-10 16-15 8-9 22-33 26-43 3-10 4-27 2-32-2-4-3-18-1-28 1-3 4-18 6-33 3-23 3-29 3-45 0-9 0-22-1-27-3-21-15-53-23-61-9-9-20-13-38-15-6-1-48-1-108-1-87 1-97 1-103 2-8 3-13 5-17 10-7 7-17 33-24 59-4 11-6 21-9 40-4 31-4 31-16 34-11 4-14 6-18 12-6 9-7 25-3 44 3 18 10 31 22 43 4 5 8 10 9 11 2 4 1 17-2 36-7 38-15 62-26 71l-4 4h-19c-10 0-21 0-25-1-9-2-13 0-21 6-3 3-10 10-16 17-21 26-40 40-62 48-3 1-9 5-15 8-27 18-41 25-63 33-13 4-32 14-34 16-2 3-2 14-1 32s2 21 9 25c3 1 6 2 76 2 97 0 171 1 192 2 9 0 54 1 102 0h107z"/></svg>