<svg xmlns="http://www.w3.org/2000/svg" width="1344" height="566"><path d="M0 283V0h1344v566H0V283m1075 277c3-2 4-7 1-13 0-3-2-7-2-9-1-3-2-9-3-13-4-12-8-34-11-51-3-26-9-51-20-80-3-9-7-22-7-26-2-13-9-39-12-44-3-6-9-12-13-14-5-3-19-7-25-8-3 0-11-1-17-3-16-4-42-17-54-27-4-3-9-7-11-8-5-3-8-7-8-14 0-6 1-8 5-11 4-2 5-3 5-6 0-5 4-12 10-17 7-6 8-10 7-29 0-15 0-22-6-56-4-23-10-33-26-46-12-10-24-15-38-19-9-2-12-2-24-2-13 1-34 4-44 7-19 5-34 20-43 40-5 10-6 17-6 29 0 11 1 19 6 36 2 7 3 15 4 21 0 11-1 14-9 18-14 7-20 14-30 34-8 16-10 23-16 56-3 14-7 26-13 36-7 12-8 14-9 22-2 7-2 9-6 12l-5 5c-5 1-7 4-11 16-5 17-8 23-13 29-10 13-14 19-20 34-10 23-15 37-18 58-1 10-1 13 0 20 1 9 3 15 7 17 5 4 46 5 94 2 11 0 11 0 16 3l4 3h309c46 0 50 0 52-2z"/></svg>