<svg xmlns="http://www.w3.org/2000/svg" width="1344" height="566"><path d="M0 283V0h1344v566H0V283m682 276c69-1 203-2 252-1 76 2 205 3 223 2 25 0 25 0 23-9-4-15-9-25-24-41-6-7-14-16-17-20-6-7-19-18-37-33-7-5-17-13-22-19-14-12-21-18-43-34-9-7-21-16-25-19-5-4-12-8-16-10-7-4-7-4-21-5-12-1-14-1-20-4-8-4-14-10-16-15-2-4-2-5-1-20 3-40 5-51 15-55 4-2 13-13 17-18 11-17 18-39 18-55 0-8 0-9-4-15l-4-6v-32c0-29 0-32-2-40-1-4-3-10-4-13-4-8-12-20-20-27-13-13-39-27-56-32-18-6-54-6-68-2-8 3-23 10-31 14-3 2-8 7-13 10-14 12-22 25-28 43-7 20-7 29-7 89 0 37 0 54 1 59 1 6 3 12 12 47 2 8 6 17 10 26l8 15-1 10c0 5 0 11-1 12-1 2-12 8-42 22-12 6-27 13-34 17-34 18-70 47-89 70-18 22-21 25-26 34-7 10-8 12-14 30-5 17-5 22 0 25 2 1 26 3 29 2 2 0 36-1 78-2m-454 0c15-1 26-1 30-3 5-1 12-1 47-1 23 0 51 0 63-1 13 0 29 0 36 1 8 1 24 1 36 2 19 1 23 1 25-1 4-2 5-7 5-17-2-22-3-33-8-71-1-8-2-17-3-21-2-22-9-47-21-71-10-20-18-31-36-44-15-11-39-26-51-31-5-2-16-7-23-10-7-4-16-7-19-9-4-1-13-5-21-10-25-12-34-18-37-25-2-5-1-7 7-28 0-2 2-7 4-11 2-3 4-9 5-12 5-12 13-21 22-23 7-1 17-7 23-13 11-12 18-26 20-37 2-10 1-15-4-22-4-7-4-10-1-21 0-4 1-9 1-10s1-8 3-14c2-7 4-19 5-27 3-20 2-22-8-25H206C79 4 86 4 82 9c0 2-2 6-3 11-3 10-4 12-12 20-8 9-11 14-12 25-2 16 0 31 9 58 2 6 5 13 5 17 3 11 5 40 5 52 0 16-1 18-20 20-27 3-29 4-39 15-7 7-11 14-13 22-1 4-1 49-1 153v148l2 4c2 4 3 5 7 5 2 1 16 0 30 0 23-1 111 0 113 1 0 1 51 0 75-1z"/></svg>