<svg xmlns="http://www.w3.org/2000/svg" width="1344" height="566"><path d="M0 283V0h1344v566H0V283m480 136c4-1 11-3 16-4 19-7 20-7 38-8s19-1 80 3c12 0 35 1 50 1 26 1 39 2 47 4 5 1 18 1 26 0 4-1 15-3 24-4 10-1 23-4 33-6 8-2 18-5 21-6 11-2 21-5 31-10s17-7 24-7c4 0 6-1 8-3l3-2v-12c-2-23-3-32-5-41-2-4-3-10-3-13 0-4-1-7-4-14-4-7-5-8-9-11-3-2-7-4-9-6-3-3-3-5-4-11s-1-7 2-11c2-2 3-5 3-5 0-1-1-6-2-11-15-53-18-65-20-78-4-17-11-37-20-51-11-16-25-28-42-36-20-9-34-11-56-7-34 6-53 17-66 41-9 17-11 34-13 93-1 20-1 39-2 41s-2 4-3 5-6 1-11 1c-13 0-20 3-33 14-12 11-14 13-20 26-5 12-9 17-15 20-2 1-7 5-11 8-5 5-10 8-15 11-4 2-13 6-20 9-13 7-18 8-30 8-4 0-8 0-9 1-2 1-8 12-18 36-3 8-7 16-8 19-1 2-2 6-3 9 0 3 0 4 2 5 5 2 31 3 43 2z"/></svg>