<svg xmlns="http://www.w3.org/2000/svg" width="1344" height="566"><path d="M0 283V0h1344v566H0V283m623 278c17-1 19-1 24-3 7-3 11-8 13-16 1-2 3-9 5-14 1-5 4-13 4-17 1-4 3-9 4-10 0-2 1-4 1-6 0-3 10-28 20-48 9-20 13-29 13-33s-3-6-11-9c-10-3-34-12-48-18-6-3-12-5-13-5-5-2-18-7-35-14-14-6-18-8-20-11-4-4-4-4-4-11s4-25 6-28c1-2 9-26 11-34 1-4 3-15 4-25 2-19 2-32-1-51 0-5-2-12-2-16-1-4-2-9-3-13s-4-12-5-19c-10-33-21-61-35-82-5-8-20-22-29-30-11-7-35-19-48-23s-27-5-39-4c-9 1-10 1-34 13-34 17-44 26-53 46-11 21-16 40-23 86-3 18-10 87-12 114-1 22-1 62 1 74 1 5 2 12 3 15l1 7-3 3c-2 3-6 5-13 6-24 8-29 10-52 27-5 3-10 7-12 8-1 1-4 2-6 4-2 1-8 5-14 8-15 8-16 10-19 25 0 5-2 14-4 19-6 18-8 27-9 33 0 3-1 7-2 8s-2 8-3 15c-2 16-1 23 3 27l2 2h38c20 0 47-1 60-1 25-1 23-1 48-1 52 2 157 3 192 3h41c0 1 31 0 58-1z"/></svg>