<svg xmlns="http://www.w3.org/2000/svg" width="1344" height="566"><path d="M0 283V0h1344v566H0V283m771 196c5-2 17-5 29-8 8-1 22-5 24-5 0-1 9-3 19-6 15-4 19-4 30-5 7 0 18 0 24 1 13 1 17 0 19-3 1-3 1-15 0-25-1-5-2-12-3-16s-2-21-2-37l-1-30-2-4c-5-7-23-16-31-16-5 0-16-3-20-6-1 0-3-3-5-6-1-3-4-7-6-10-4-4-5-7-2-11 2-3 2-6 1-14 0-3-1-11-2-18-2-21-7-55-11-72-1-5-3-13-4-20-4-15-7-27-10-34-1-4-3-8-3-10-3-7-11-25-14-31-9-17-25-30-50-42-16-8-25-11-38-11-11 0-16 1-26 7-5 3-8 4-12 4-23 0-39 11-53 38-7 12-14 35-17 55-1 3-2 9-3 12-3 18-4 28-5 55 0 18 0 33 1 39 1 7 2 17 2 24 1 6 2 16 3 20 1 9 1 9-1 11-3 3-9 2-23 0-6-1-16-2-21-2-8 0-9 0-14 3-2 2-8 8-12 13-8 8-12 12-23 20-15 12-20 15-29 21-7 4-15 9-19 13-11 9-14 10-27 11-11 1-12 1-14 7-1 2-4 10-8 19-8 15-14 32-16 40-1 3-3 10-6 14-2 5-4 10-4 11 1 1 3 1 10 1 7-1 10-2 19-5 16-7 23-9 34-10 6-1 13-2 16-3 5-1 7-1 13 0 10 3 13 2 31-1 14-3 16-3 23-2 3 0 10 2 14 4 5 2 13 4 18 5 6 1 10 2 11 2 1 1 7 2 15 2 8 1 18 1 23 2 6 1 10 1 14 0 9-2 32-2 45-1 28 3 39 5 46 9 3 2 4 2 10 2 4-1 9 0 12 0 6 1 26 1 31-1z"/></svg>