<svg xmlns="http://www.w3.org/2000/svg" width="1344" height="566"><path d="M0 283V0h1344v566H0V283m472 278h263l25-1 4-4 4-4 16 2c9 1 27 3 40 4 12 0 29 2 36 2 16 2 50 2 112 0 31 0 37-1 40-2 3-2 11-15 13-22 1-4 1-6-5-15-6-7-5-17 1-21 2-1 4-1 10 0 14 2 43 10 71 21 3 1 7 2 9 2s5 1 7 2c8 3 31 11 36 12 14 3 33 3 44-1 3-1 8-2 11-2 6-1 18-5 21-7 0-1 1-2 1-3 0-4-4-6-23-10-7-2-21-9-28-14-7-6-9-9-8-14 0-2 0-3-2-5-3-1-7-1-26-2-12 0-25-1-27-2-15-3-49-16-64-23-11-6-29-22-39-35-7-9-15-35-19-64-2-9-5-25-8-35-3-12-6-26-7-32-2-7-5-15-6-19-5-8-14-23-19-29-2-2-5-6-6-8-1-3-1-3 0-6 1-1 4-2 6-3 13-3 18-5 21-9 9-7 23-32 29-47 2-8 2-9 2-23-1-16-3-41-5-56-1-6-2-13-2-16 0-16-25-32-58-35-12-1-30 0-37 3-17 7-34 24-39 39-2 7-2 9-3 36l-1 29-3 7c-2 5-5 11-7 15-4 8-18 22-22 24-1 1-6 2-10 2-11 1-14 4-22 16-5 8-15 18-35 37-18 17-35 42-42 63-2 8-2 9-2 32 0 18 0 28 1 36 4 27 5 38 6 72 1 28 1 34 2 38 2 3 2 5 1 6-2 2-6 1-21-8-5-3-14-7-20-11-19-10-27-16-30-23-4-8-5-18-6-52 0-31-1-47-5-90-7-69-16-111-32-143-6-11-11-19-21-29-11-10-19-15-37-24-30-14-48-17-69-13-11 3-34 10-49 16-11 5-11 5-22-3-12-10-21-15-33-19-19-6-36-5-53 4-10 6-17 13-24 25-8 13-10 22-10 36 0 12 1 19 4 32 2 7 2 9 1 13-3 10-12 24-23 34-5 4-14 13-21 20-8 7-19 17-26 22-26 22-38 35-44 51-6 17-12 39-14 52-5 34-5 63-2 80 3 12 4 23 5 54 0 28 1 30 3 33 3 4 7 6 18 9 13 4 23 5 30 4 4 0 114-1 244-1z"/></svg>