<svg xmlns="http://www.w3.org/2000/svg" width="1344" height="566"><path d="M0 283V0h1344v566H0V283m1339 277 3-3v-19c1-11 1-94 1-184 0-153-1-165-2-167-2-1-3-1-14 0-7 1-15 2-18 3s-8 3-12 4c-7 3-14 7-18 11s-10 15-17 31c-6 16-7 18-8 22 0 5-6 15-11 22-5 6-5 9-5 13 2 11 3 17 4 32 1 24 0 25-17 27-10 1-17 3-20 5 0 1-3 4-4 8-5 8-9 10-18 11-7 0-8 1-11 4-2 2-5 5-7 8-1 2-3 6-5 8-1 1-4 6-5 10-2 4-5 9-7 12-3 6-3 14 1 24 4 12 5 18 3 23-1 2-2 8-2 13-1 7-1 9 1 12 3 4 3 5-1 18-3 12-4 21-2 25 4 7 16 18 24 22 3 2 11 3 25 6 9 2 39 3 91 3h48l3-4z"/></svg>