<svg xmlns="http://www.w3.org/2000/svg" width="1344" height="566"><path d="M0 283V0h1344v566H0V283m704 276c8-4 13-8 15-14 1-3 2-8 4-10 1-3 3-9 3-14 1-4 3-11 4-13 1-6 1-9-5-33-4-17-7-25-13-35-3-6-3-7-3-14 0-11-3-16-13-20-22-10-29-13-40-17-7-3-21-8-30-11-21-8-38-15-44-18-5-4-7-7-7-13 0-10 2-19 9-39 11-32 13-44 9-76-3-38-6-51-13-80-13-47-13-50-24-67-9-14-18-25-27-32-11-9-16-12-31-19-24-11-44-16-64-15l-8 1-25 12c-39 20-46 26-57 50-15 34-22 73-31 174-2 18-2 31-2 54 0 31 0 32 2 48 3 13 3 18 2 19-2 3-7 6-17 9-18 6-26 10-39 19-27 18-34 22-39 25-17 9-20 12-21 25-1 4-3 15-6 24s-6 20-6 24c-1 3-2 8-3 9-2 5-4 21-5 32 0 10 0 11 2 13l3 3 32 1c20 0 41 0 59-1 14-1 29-1 33-1h34c62 2 117 3 234 3h122l6-3z"/></svg>