<svg xmlns="http://www.w3.org/2000/svg" width="1344" height="566"><path d="M0 283V0h1344v566H0V283m1093 277c7 0 10-1 10-2 3-4-6-27-14-38-3-3-8-9-13-14-4-5-11-13-15-18-7-9-20-21-28-26-8-6-19-15-31-26-19-18-32-29-53-44-4-3-10-8-14-11-11-9-20-13-31-14-5-1-12-1-16-1-18 0-35-14-41-35-2-8-1-27 1-40 3-13 6-19 14-29 4-4 9-11 13-16 13-21 18-39 13-57-2-9-2-14 0-32 2-15 3-33 1-44-3-23-17-43-39-57-30-20-51-26-85-26-27 0-43 4-61 15-27 16-40 32-47 57-1 5-3 16-3 28-1 12-2 24-3 28 0 3-2 13-2 22-1 10-2 18-3 19 0 1-1 8-2 15-3 21-3 25 3 60 3 16 6 25 8 28 0 1 4 9 7 18 4 8 8 17 10 19 1 1 7 6 12 10 14 9 16 13 8 19-3 3-12 8-46 25-18 9-35 21-62 42-18 15-30 27-38 37-3 5-10 13-13 18-14 17-18 25-25 48-4 14-4 16 0 19 2 2 2 3 22 3 11 0 42-1 70-1 127-2 162-2 206-1 25 1 79 1 121 2 42 0 85 1 96 1 20 1 53 0 70-1m-988-2c61-2 65-2 67-5 3-2 5-18 5-26-1-3-2-10-4-16-4-12-7-31-9-49-3-20-12-73-15-84-6-28-18-52-35-68-6-7-22-20-34-27-3-2-7-6-10-8-4-5-4-5-4-11 1-5 2-8 7-17 7-13 8-16 5-24-1-4-2-7-2-7s2-4 5-8c6-7 11-16 11-19 0-2 3-7 8-12 9-10 10-18 5-32-1-4-5-12-7-17-7-18-10-32-8-48s1-19-12-45C65 11 62 7 54 4 47 2 8 2 4 4L1 5v551l2 1c1 1 5 2 7 2 6 1 41 0 95-1z"/></svg>