<svg xmlns="http://www.w3.org/2000/svg" width="1344" height="566"><path d="M0 283V0h1344v566H0V283m662 276c19-1 52-1 112 0h114c32 0 33 0 36-6 3-4 3-19 2-27s-7-19-13-25c-7-7-25-23-30-26-2-2-7-5-11-8s-11-8-16-11-11-8-15-11c-7-5-17-14-18-18s1-7 7-9c12-4 13-5 13-8 0-2-1-3-6-7-3-2-8-5-11-8-3-2-9-6-13-8-10-5-18-13-18-16s2-6 12-22c4-7 11-18 14-24 5-10 13-23 21-34 7-11 9-15 14-39 2-12 5-27 6-32 4-13 5-28 5-57-1-21-1-27-3-34-8-36-25-60-58-82-15-10-26-13-44-13-4 0-14-1-21-2-16-3-24-4-38-1-40 6-78 37-91 75-4 10-7 29-8 48 0 22-2 29-7 40-4 7-5 10-6 18-2 12 0 26 3 35 6 12 16 24 26 29 7 3 9 7 11 15 1 6 2 25 0 27-1 2-9 10-25 23-6 5-13 11-16 14-9 8-21 16-26 19-2 1-13 4-22 6-10 2-22 5-28 7-11 3-21 5-37 7-32 6-41 12-58 44-4 7-10 18-15 25-14 23-15 24-17 29-6 15-12 34-15 48-3 12 0 18 8 20 5 1 251 0 282-1z"/></svg>