<svg xmlns="http://www.w3.org/2000/svg" width="1344" height="566"><path d="M0 283V0h1344v566H0V283m696 277h148c12-1 33-1 48-1h58c29 0 65-1 68-3 6-2 6-14 1-43-3-15-4-24-4-31 0-5-1-15-2-21-1-15-1-27 0-32 2-6-1-11-7-18-5-6-6-6-16-9-15-6-23-9-42-18-16-7-19-9-24-14-10-10-16-25-18-44-3-27-3-30-6-96-3-71-8-100-22-128s-33-45-69-60c-20-9-24-10-43-10-15 0-27 1-53 7-21 4-43 12-48 17-3 2-6 8-10 20-3 11-6 16-13 24-6 8-15 25-20 34-6 13-8 20-9 35l-1 13-6 12c-3 7-8 16-11 21s-6 11-7 13c-2 6-1 14 1 22 3 7 3 9 2 27 0 12 0 20 1 23 1 2 1 10 2 17 0 14 2 19 7 26 2 3 13 9 16 9 1 0 4 1 6 2 3 2 5 2 10 1 8 0 12 1 12 4 0 1-3 5-6 8-4 5-7 6-11 7-8 3-10 2-14-2-7-6-13-7-32-3-5 1-11 1-21 1-7-1-14 0-16 0-2 1-7 4-12 8-13 10-26 18-29 18-1 0-3-1-5-2-1-2-3-3-4-3-3 0-14 6-23 13-4 4-11 7-15 9-5 2-11 5-14 7-6 3-15 12-15 14s-6 7-12 11l-7 3-21-1c-20 0-34 1-38 3-1 0-2 2-3 4-3 5-2 5 6 11 6 4 8 8 6 14-1 2-2 6-3 10-1 3-3 11-5 16s-5 11-6 13c0 3-3 8-5 13-2 4-4 8-4 9 0 0-1 3-2 4-2 6-1 7 10 7 5 1 21 1 34 2s29 2 36 2c6 0 14 1 18 2 10 1 23 1 33 0 4-1 10-1 12-1 26 0 37 1 45 2 16 2 38 3 76 2h98z"/></svg>