<svg xmlns="http://www.w3.org/2000/svg" width="1344" height="566"><path d="M0 283V0h1344v566H0V283m292 278c11-1 18-1 24 0 4 1 23 1 49 1 50-1 19-1 212 0 236 0 239 0 245-2 4-2 6-2 14-1 11 1 136 3 149 2 15-1 17-4 17-24 0-8-1-18-3-29-4-30-7-55-7-62 0-12 2-16 18-29 20-17 24-19 38-21 30-6 67-9 96-9 27 0 35-1 47-6 11-6 15-9 17-13 1-4 1-7-3-9-3-1-8-1-32-2-31-1-33-1-42-7-6-5-8-5-17-2-14 4-24 6-39 7-19 0-31-1-45-6-15-5-37-17-42-23-5-5-8-14-14-36-3-10-6-20-6-22-2-5-12-22-17-29-4-7-8-14-8-16 0-1 1-3 3-5s4-3 11-5c6-1 11-3 14-5 11-8 31-37 32-50 1-3 0-13 0-23-1-10-2-24-2-31-1-13-3-27-6-34-2-7-11-17-18-21-16-8-45-12-63-8-11 2-21 8-32 18-7 6-10 10-12 15l-3 6-1 24c-1 25-3 36-7 45s-10 18-17 25c-6 5-7 6-11 6-2 0-8-1-13-3-10-4-17-4-22-1-3 2-4 4-8 18-2 8-5 12-17 27-17 19-26 35-35 58-7 16-8 22-6 40 2 27 1 40-9 73-5 16-7 20-8 20-5 0-7-9-8-34-3-63-10-128-18-163-3-12-11-37-17-49-10-24-27-43-51-54-16-9-40-16-55-18-8-1-11-1-19 0-11 3-42 12-51 16-21 10-35 27-44 53-6 17-6 23-7 73v47c-1 0 0 11 0 24 1 13 1 34 2 47 0 13 1 32 2 43 1 19 1 20-1 24s-6 7-15 10c-3 1-9 3-12 5-10 6-25 9-30 8-3-1-4-6-5-21 0-9-1-18-2-22-2-13-6-49-6-54 0-3-1-12-2-21-2-13-2-15-7-24-9-22-10-25-10-34-1-11 0-13 10-23 6-6 8-8 16-26 12-24 12-25 8-50-1-10-3-21-4-24 0-8-4-21-6-25-6-12-26-25-47-30-11-2-32-2-41 0-12 4-24 12-29 21-10 16-10 44-2 71 3 11 3 19 1 24-1 2-5 7-9 11-8 8-17 21-22 32-6 11-13 20-30 39-8 9-18 21-21 25-6 8-17 27-21 35-7 13-14 39-16 53-2 16-1 42 3 70 4 27 4 31 3 47-1 9-1 20-2 24 0 9 0 10 2 12 3 4 11 6 28 8 10 1 97 0 114-1z"/></svg>