<svg xmlns="http://www.w3.org/2000/svg" width="1344" height="566"><path d="M0 283V0h1344v566H0V283m484 277c33-3 54-3 137-3 49 0 95 0 103 1 15 1 128 1 177-1h77c21 1 43 1 49 2 14 2 85 1 88-1 3-1 3-4 2-8-3-4-18-19-27-24-24-15-67-37-100-51-28-11-31-13-43-25-11-10-11-11-11-15 0-5 3-17 9-31 2-5 6-17 10-27 9-28 18-48 26-59 4-6 4-6 11-8 10-3 16-6 23-12 16-15 27-34 31-52 3-17 2-21-6-28-10-7-10-8-2-34 8-29 11-44 15-69 4-28 2-46-11-82-6-19-11-24-28-27-9-2-15-2-99-3-97 0-135 1-143 4-6 2-9 5-16 19-12 26-16 41-26 97-1 9-3 18-4 19-2 4-5 6-10 7-10 1-17 8-20 20-1 4-1 12-1 19 0 26 6 42 21 58 4 5 9 10 9 12 3 6 2 50-1 71-1 9-6 28-9 35-5 13-12 23-19 28l-4 2h-26c-24-1-27-1-31 1s-10 9-24 25c-15 18-22 25-31 31-8 6-59 32-84 43-7 4-15 7-18 9-11 5-37 22-47 30-9 8-18 18-18 21s1 4 13 5c21 2 42 2 58 1z"/></svg>