<svg xmlns="http://www.w3.org/2000/svg" width="1344" height="566"><path d="M0 283V0h1344v566H0V283m348 278c45-1 151-2 186-1 25 1 104-1 119-2 6-1 23-1 39-2 15 0 34-1 42-2 17-1 64-2 71 0 2 0 10 1 17 1s20 1 30 2c9 0 28 1 41 1 25 0 25 0 28-2l2-3-2-12c-5-19-12-35-21-46-8-11-17-25-19-30-1-3-3-12-5-20-7-31-11-37-38-63-18-18-23-21-38-24-13-4-28-11-33-16-6-5-7-8-8-26 0-39-5-65-17-98-23-64-34-87-57-120-16-22-24-32-37-41-21-15-35-22-62-30-23-6-28-7-63-7-32 0-32 0-49 5-5 1-14 3-22 5-15 2-18 3-26 7s-17 10-27 21c-9 8-26 29-32 39-16 25-27 63-27 93 0 13 1 16 11 26 5 4 9 9 10 11 2 4 2 18 0 34s-2 31 0 38c1 3 5 12 9 19l6 14-1 10c-2 14-1 23 3 36 5 15 5 17 0 22-3 2-9 6-14 10-5 3-13 11-19 16-32 34-42 44-60 60-31 28-50 49-57 64-3 6-3 7 0 10 2 1 5 2 24 2 24 1 28 1 96-1z"/></svg>