<svg xmlns="http://www.w3.org/2000/svg" width="1344" height="566"><path d="M0 283V0h1344v566H0V283m558 277c42-1 80-1 82 0h112c25 2 67 1 72 0 5-2 6-5 6-20-1-25-5-55-10-74 0-4-1-9-2-12-3-17-8-29-18-41-11-12-34-31-48-39-21-11-50-30-59-38-7-6-23-31-27-40-2-5-2-6-1-11 1-6 7-22 10-30 2-5 5-15 6-25 2-16 5-28 8-32 2-3 2-5 2-11s-1-10-2-14c-2-5-2-7-2-19 1-8 1-16 1-20 1-4 0-10-1-14 0-3-2-12-3-19-3-19-6-26-17-39-12-14-41-28-60-27-17 0-43 9-61 21-3 3-9 6-13 8-5 2-6 4-9 8-1 2-6 10-11 17-8 14-12 20-14 27-1 2-2 14-2 28s-1 26-1 27c-1 1-3 3-5 4-5 3-6 6-6 16 0 25 8 43 23 50 3 1 4 3 6 8 6 12 9 26 10 42 0 15 0 19-6 25-5 6-11 9-27 13-21 5-33 9-47 17-19 10-36 24-43 35-8 14-18 36-23 53-5 14-7 22-9 27-2 4-3 7-9 26-3 10-6 20-9 24-2 4-3 8-7 30-4 14-4 15-1 18l2 3 67-1c37 0 103 0 146-1z"/></svg>