<svg xmlns="http://www.w3.org/2000/svg" width="1344" height="566"><path d="M0 283V0h1344v566H0V283m620 275c18-1 37-1 81 0 82 2 131 2 147 1h45c30 1 32 1 41-1 5-1 12-3 16-5 6-3 30-18 38-24 8-7 17-16 17-18 0-1-2-4-4-6-3-3-6-7-7-10-2-3-4-5-5-6-7-3-15-4-28-5-8 0-20-2-26-3s-17-3-23-4c-19-2-22-4-25-13-3-10-10-15-21-14-6 1-10 2-23 10-10 6-17 11-28 21-10 10-19 14-38 20-12 4-13 4-16 3-2-1-16-28-44-84-4-8-10-19-13-26-4-6-8-14-9-17-1-5-1-5 0-7 1-1 3-2 3-2 3 0 14-8 18-13 2-4 6-6 11-9 4-3 9-6 10-8 1-1 7-6 12-10s9-7 9-8 3-3 7-5c8-6 12-10 14-17 7-25 9-30 19-50 3-7 9-20 12-29 4-9 10-23 15-31 11-20 11-21 12-26 0-5 0-5-10-17-5-7-12-17-15-23-8-12-23-27-38-38-12-8-14-9-30-17-22-10-33-13-52-13-15 0-32 3-42 8-16 6-24 12-36 24-19 19-27 30-36 48-13 25-26 41-42 46-3 2-14 5-22 7-9 2-18 5-20 5-5 3-11 8-16 13-2 3-6 9-9 13-8 8-10 12-12 23-1 5-3 12-4 15-1 4-3 13-4 19-3 15-2 18 9 25s11 8-8 37c-15 23-19 30-30 59-6 13-12 29-15 35-8 13-9 19-6 32 3 21 4 31 1 36-1 2-2 3-4 3-5 0-8-1-18-8-4-3-12-8-17-12-13-8-24-18-52-45-22-23-24-25-24-28 0-2 1-5 2-7 3-10 10-32 12-40s2-9 1-25c-2-26-3-30-14-42-4-3-7-8-8-9 0-2 1-6 3-12 2-8 2-9 2-25 0-15 0-17-2-21-2-6-7-9-12-9-6 0-12 7-22 22-6 10-7 12-8 26l-1 11-3 2c-2 1-10 3-17 5-15 3-18 4-26 15-11 13-17 28-19 48s-6 42-8 46c-2 5-9 14-13 16-2 1-6 1-12 1-5 0-10 1-12 1-1 1-7 1-13 1-8 0-12 0-14 1-3 2-6 6-6 8 0 4 6 8 15 13 11 5 12 7 15 22 3 13 3 14 9 19 3 2 7 5 9 7 2 1 8 5 12 8 8 7 29 25 32 29 1 1 3 6 5 10 2 9 5 13 11 16 5 3 37 8 56 10 6 1 51 1 100 2 49 0 90 1 92 1 6 1 140 0 169-1z"/></svg>