<svg xmlns="http://www.w3.org/2000/svg" width="1344" height="566"><path d="M0 283V0h1344v566H0V283m745 277c54-2 193-3 321-1 41 0 82 1 92 0 16 0 17 0 20-2l2-3-2-7c-14-37-14-38-19-47-12-21-23-36-36-48-19-19-26-23-73-49-8-5-18-10-22-13-3-3-9-6-13-8s-11-7-16-10c-14-10-37-22-51-28-9-4-22-8-35-9s-16-6-17-29c0-14 1-21 4-36 5-21 13-63 14-73 1-6 1-24 1-41 0-27 0-30-2-40-4-21-14-40-25-51-5-5-22-16-32-21-26-13-75-18-108-9-31 7-49 16-67 34-10 9-15 18-18 27-2 7-2 8-1 25 1 26 1 38-2 51-1 7-2 15-2 18 0 10 2 62 3 69 2 15 14 49 25 71 9 19 15 27 21 34 4 3 6 6 6 7 0 2-17 20-31 31-7 6-12 11-30 27-5 4-12 9-14 11s-11 8-18 15c-18 14-41 31-52 38-5 4-10 5-15 7-11 3-13 4-19 11-7 8-8 10-8 16 0 3-1 7-4 13-2 4-4 9-4 12-1 4-1 4 1 6s3 3 22 3c26 1 175 0 204-1m-596-2c22-1 40-2 41-2 4-2 61-2 70-1h28c26-2 64-1 110 0 41 1 40 2 38-6 0-5-7-22-13-36-5-9-8-18-11-27-1-2-3-6-4-9-2-6-4-10-8-23-3-7-13-37-16-44-11-35-21-52-44-75-11-11-17-16-26-22-12-8-31-17-50-24-21-8-66-26-81-34-20-10-35-20-39-28-4-7-6-19-6-37s1-18 10-29c22-23 29-42 24-66-1-10-1-10 1-21 3-18 4-31 4-47 0-13-1-14-3-16-6-6-4-6-88-7H5L1 5v545l2 3c1 2 3 4 4 5 5 2 78 2 142 0z"/></svg>