<svg xmlns="http://www.w3.org/2000/svg" width="1344" height="566"><path d="M0 283V0h1344v566H0V283m1008 275c11-1 12-2 13-16 1-9 1-12-1-22-1-7-3-17-4-24-1-6-2-19-3-29s-2-22-3-27c-1-8-1-15 2-20 2-4 1-5-6-14-3-5-10-9-22-13-28-11-56-24-61-30-6-7-12-20-13-26-1-3-2-8-2-11-3-9-5-26-6-49-1-12-2-26-2-31-1-5-1-21-2-36 0-45-4-67-13-92-8-25-17-39-30-52-13-12-28-22-49-30s-19-7-38-8c-13 0-18 0-25 1-4 1-13 3-19 3-25 4-29 5-48 15-15 7-17 9-20 17-2 3-4 10-7 14-2 5-7 15-10 21-11 18-20 35-23 42-2 7-3 13-5 33-2 16-4 20-13 34-12 17-13 19-13 25 0 4 1 8 2 12 2 3 3 9 4 14 1 4 1 9 2 11s1 8 1 12c0 6 1 11 2 14s1 10 2 18c1 21 2 22 24 34 7 4 13 8 13 8 3 2-1 3-7 1-10-2-29-2-38 0-4 1-15 3-24 3-21 1-25 2-35 12-5 4-10 7-15 10l-7 3-5-3c-5-2-5-2-9 0-2 1-9 5-14 9s-12 8-15 9c-2 2-9 5-14 7-10 5-13 8-24 21-2 2-6 5-10 7-7 4-8 4-14 3-11-2-44-1-51 1-6 2-9 6-8 9 1 1 4 4 9 6 5 3 8 5 9 8s1 3-1 12c-4 12-10 26-12 30 0 1-2 6-4 10s-3 9-4 10c-4 7-10 23-10 25 0 4 2 4 30 4 23 0 29 0 36-1 7-2 9-2 22 0 21 2 41 1 52-2 5-2 13-4 18-5 5 0 10-1 11-1 2-1 16 1 30 4 27 7 34 7 110 7 49 1 71 1 77 2 4 1 22 1 40 2 46 1 241 0 250-1z"/></svg>