<svg xmlns="http://www.w3.org/2000/svg" width="1344" height="566"><path d="M0 283V0h1344v566H0V283m825 276c6-2 7-4 14-19 6-10 6-11 6-22 1-15 1-15 13-36 16-26 22-38 26-49 6-13 10-21 18-29 7-9 10-16 10-22-1-6-4-22-6-27-1-1-4-5-6-7l-4-6c0-4-3-5-8-4-4 0-4 0-7-2-1-2-5-4-7-5-3-1-5-3-6-4 0 0 0-4 1-7 1-4 2-10 2-17v-11l-4-5c-4-4-5-4-10-4-4 0-6 0-8 2-1 2-2 4-2 5-1 1-1 4-1 5-1 2-13 19-20 26-2 1-5 4-8 5-5 3-5 3-17 1h-7c-6 2-15 12-25 30-6 12-9 21-16 48-6 27-16 54-24 67-2 3-6 11-9 17-13 26-25 45-30 45-2 0-6-4-10-12-2-2-7-8-11-13s-10-12-14-16c-3-4-7-9-8-10-4-4-6-6-8-18-1-8-3-13-8-22-6-12-6-13-13-19-3-3-11-8-16-12-14-9-15-11-10-19 2-2 6-10 10-18 10-17 16-28 27-42 18-24 23-40 25-75 0-20 2-36 4-48 1-7 2-20 3-30 1-11 1-22 1-26 1-4 0-14 0-23-2-30-6-42-22-56-7-7-12-10-34-24-20-13-41-22-58-25-6-2-10-2-19-1-6 1-16 1-21 1-27-1-27-1-38 3-21 7-35 14-43 24-13 13-19 24-28 51-8 21-11 31-19 64-3 14-7 28-8 31 0 3-2 11-4 17-1 6-4 19-6 28-12 47-17 81-19 118 0 13 0 18 1 23 4 11 2 19-6 31-6 8-21 39-27 55-7 15-13 31-18 42-4 8-4 12 0 19 2 4 3 7 4 13 1 10 2 12 9 13 11 2 70 3 162 2 51 0 108 0 126-1 70-1 187 0 189 3h19c16 0 19-1 23-3z"/></svg>