<svg xmlns="http://www.w3.org/2000/svg" width="1344" height="566"><path d="M0 283V0h1344v566H0V283m490 277c3-1 17-1 30-2 12 0 32 0 43-1s38-1 59-1c22 0 44 0 49-1 6 0 11 0 17 1 9 2 30 3 142 2 54 0 82-1 90-1 9-1 19-2 36-1 67 2 68 2 70 1 2-3 1-5-9-11-15-11-35-22-55-32-23-11-32-17-37-23-2-2-6-7-9-11-14-15-14-19-3-45l4-8c0-3 33-70 40-82 6-10 9-14 16-16 16-6 31-20 42-41 7-13 11-31 10-43-1-4-2-5-8-11-4-4-7-8-8-9 0-2 1-9 2-17 2-7 4-18 5-24 0-6 2-18 4-28 6-35 6-59 0-73s-16-33-21-40c-8-13-26-27-39-31-4-2-8-3-9-4-4-2-64-4-119-4-49 1-52 1-61 3-8 2-10 3-15 7-9 8-13 13-19 26-12 24-21 52-25 72-1 6-3 20-4 31-2 30-4 39-10 41-8 1-10 2-14 5-4 4-7 9-8 17-3 11-2 25 4 44 4 15 7 20 19 32 6 6 11 12 12 13 3 9-1 58-7 78-5 16-13 30-19 34-4 2-10 3-30 0-17-1-23-1-28 3-2 1-9 8-15 15-25 28-39 39-57 46-5 2-16 7-25 12-8 5-22 13-32 19-45 24-61 33-78 46-8 6-9 8-4 10s61 4 74 2z"/></svg>