<svg xmlns="http://www.w3.org/2000/svg" width="1344" height="566"><path d="M0 283V0h1344v566H0V283m887 274c6-3 9-15 9-41 1-11 1-23 2-27 1-5 1-9 0-19-3-17-3-20-7-31-2-4-4-15-5-22-3-13-6-23-9-31 0-2-1-6-2-8 0-3-2-9-3-14-2-5-4-11-5-15s-3-12-6-19c-2-7-5-17-7-22-5-18-13-35-22-48-7-11-24-28-30-31-15-6-16-6-20-11-6-10-7-20-4-38 3-22 2-39-3-52-11-22-30-35-52-35-8 0-19 2-25 5-1 1-5 2-8 3-7 1-12 4-21 11-8 7-17 17-22 26-9 14-12 34-7 41 8 14 9 15 10 27 2 14 2 15-4 24-4 5-8 15-10 23-2 6-10 25-13 30-2 3-5 10-8 16-2 5-6 13-8 16-3 4-8 11-11 15-12 17-13 18-27 31-7 8-19 19-25 25-10 10-13 13-21 16-4 3-12 7-15 9l-7 5-13-1c-7 0-18 0-24-1-11-1-13-1-18 4-1 2-6 4-12 5-19 6-22 9-22 18 0 4 1 6 4 13 7 13 9 15 29 20 12 4 14 4 26 0 10-3 31-8 42-11 4-1 10-2 13-2h5l10 10c12 13 17 16 31 23 9 3 13 4 16 4 16-1 20 0 28 2 5 2 12 5 16 8 3 2 7 4 7 4 1 0 2 2 3 3 2 3 2 5 1 8 0 3 0 4 5 10 19 22 19 22 44 23 50 3 191 3 195 1z"/></svg>