<svg xmlns="http://www.w3.org/2000/svg" width="1344" height="566"><path d="M0 283V0h1344v566H0V283m678 279c25 0 47-1 52 0 24 2 75 1 79-2 1-1 2-13 0-18-1-4-4-33-6-54-1-19-5-49-7-57 0-4-1-9-2-12-1-8-6-18-10-25-5-8-26-29-32-31-3-2-17-11-40-26-1-1-5-3-7-5-8-5-17-13-24-20-5-5-8-10-12-19-4-6-6-12-7-14 0-1 2-8 5-15 7-21 12-39 15-54 0-4 3-10 6-17 3-6 5-11 5-13 0-1-1-4-2-7-3-8-3-19-2-34 1-11 1-17 0-24-2-13-5-28-7-32-2-5-17-20-26-25-5-3-9-6-10-6 0 0-4-2-9-4-16-7-35-5-75 7-16 5-18 6-19 12-1 4-5 10-11 19-5 7-10 15-12 18-3 6-6 19-8 33-1 12-4 21-7 29-3 5-3 7-3 18-1 21 3 28 17 40 5 3 6 5 9 11l3 7v19c0 18 0 18-2 23-2 3-3 6-3 8 0 5-4 7-27 13-29 7-42 13-60 26-7 6-16 15-20 21-4 7-13 24-15 30-1 2-3 6-4 9-6 15-12 33-18 53-1 4-3 10-4 12-2 5-13 39-16 48-4 16-6 29-6 40 0 10 0 11 2 13 1 2 4 3 6 4 3 0 44 1 93 1 91 0 170 1 171 2h4c2-1 23-1 46-2z"/></svg>