<svg xmlns="http://www.w3.org/2000/svg" width="1344" height="566"><path d="M0 283V0h1344v566H0V283m765 189c9-2 18-4 28-7 3 0 10-2 17-3 6-2 13-4 17-5s11-3 17-5l10-3 27-1h28c3 0 3-10 0-42-3-24-4-35-4-46 0-22-4-29-21-40-21-14-32-20-38-22-3 0-6-2-7-3-2-2-2-2-1-3s5-2 8-2c9-1 9-2 9-18-1-17-4-35-6-45-1-4-2-10-2-12-1-2-2-8-4-13-2-10-8-28-10-36-1-4-3-11-4-16-4-15-8-26-17-45-13-27-29-42-60-58-15-8-23-10-35-10-8 0-18 3-27 7-2 1-9 3-14 3-18 3-25 6-34 15-14 15-24 36-30 64-7 33-8 44-8 86 0 35 1 60 3 78 1 7 1 8 0 10-3 2-17 3-31 0-12-2-24-3-28-1-2 1-8 6-14 11-6 6-11 10-15 12-3 1-7 3-9 5-12 9-20 15-30 21-6 4-15 10-19 13-11 9-16 11-27 11-13 0-18 3-15 10 1 1 1 4 0 5 0 5-7 20-11 29-2 4-5 13-7 20-6 17-8 22-8 24-1 2 1 4 6 6 4 1 5 1 12-1 16-6 46-10 73-10h18c2 0 6 0 9 1 4 0 6 0 9-1 2-1 4-2 5-1 1 0 6 1 11 1 10 1 30 4 42 6 4 1 17 2 28 3 17 0 20 0 25-1 4-2 8-2 16-2 30 2 60 6 65 10 3 3 4 3 24 3 17 0 22 0 29-2z"/></svg>