<svg xmlns="http://www.w3.org/2000/svg" width="1344" height="566"><path d="M0 283V0h1344v566H0V283m544 274c5-1 8-4 13-8l6-6-1-3c-3-6-3-8 2-21 3-6 6-17 8-23 4-14 5-15 10-13 7 5 27 6 33 3 4-2 8-6 10-10 1-1 5-8 10-14 7-9 10-14 12-20 5-11 10-30 12-45 3-13 3-14 10-29 7-13 9-16 14-20 4-3 6-6 9-12 3-7 3-8 3-15 0-17 0-31 1-35 1-3 1-5 0-5-1-2-9 2-13 6-5 4-16 9-20 9-9-2-11-2-16 1-2 1-6 4-9 6-2 1-7 5-11 8-4 2-12 8-18 12s-11 8-12 8c-2 0-4-2-9-10-3-6-7-12-7-14-3-6-8-16-11-20-4-4-9-8-22-14-5-3-13-7-16-9-4-2-9-5-12-6-6-2-9-6-9-13 0-4 1-5 3-7s5-4 7-5c16-7 15-7 26-28 4-8 9-16 10-18 3-4 5-8 10-32 8-33 8-53 3-65-2-4-12-13-30-27-13-9-21-13-30-15-4-1-9-2-12-3s-8-1-14-1c-7 0-10 0-19 3-12 5-16 7-22 14-16 17-31 72-36 121 0 4-1 11-1 14-1 4-2 13-2 20-1 6-2 13-3 16 0 4 2 8 8 12 2 1 4 3 5 4 0 3-3 11-7 16-2 2-6 9-9 15-6 14-6 14-4 41 4 49 4 64 0 73 0 3-1 10-2 17-1 18 4 39 11 54 3 6 8 31 8 40 0 5 1 12 1 17 1 5 2 12 2 16s1 8 1 10c2 3 8 8 13 10s44 3 55 1c8-1 10-1 25 1 19 2 26 2 36-2z"/></svg>