<svg xmlns="http://www.w3.org/2000/svg" width="1344" height="566"><path d="M0 283V0h1344v566H0V283m856 279h102c24 1 110-1 128-2 9 0 11-1 13-2 2-3 1-7-1-15-2-3-4-11-6-17-2-5-5-14-9-19-8-15-10-19-12-29-4-18-2-39 7-69 6-19 11-39 11-44 1-3 2-8 3-11 1-9 1-17-1-20-3-5-7-5-12 2-4 4-6 4-9 0-4-4-5-6-6-15s-3-12-7-15c-3-1-3-1-6 1-1 1-4 5-7 10-3 6-4 8-6 8s-3 0-4-3c-1-4-5-13-7-16-5-5-11-1-19 11-2 3-3 5-6 5-13 1-19 8-23 24-2 6-5 12-6 12s-3-1-6-3c-2-2-8-4-12-6s-12-5-18-8-15-6-20-9c-18-7-37-15-39-18s-3-9 0-20c4-21 6-66 4-89-2-24-6-34-16-51-7-10-13-16-19-20-2-1-8-4-11-7-10-6-31-17-37-20-11-4-20-6-37-6-12-1-18-1-21 0-14 4-34 14-48 25-9 7-24 24-27 31-4 9-10 26-10 29 0 2-1 6-1 8-1 3-3 9-4 13s-3 11-5 16c-2 7-3 12-3 23-1 9-1 19-2 24 0 5 0 12 1 16 3 15 3 16-1 20-1 2-5 4-8 5-12 5-34 12-47 16-27 9-33 10-40 14-13 6-15 5-18-13-2-14-3-18-5-19-2-3-4-2-9 3-3 3-6 4-8 4-4 0-5-2-8-12s-5-15-9-17c-3-2-6-1-11 6-2 3-5 6-6 7l-3 2-3-2c-1-1-4-3-6-4-3-1-3-1-6 0-4 3-6 7-7 19-1 13-3 17-6 19-2 1-4 1-9-2-9-5-14-4-16 3-1 5 0 17 4 28 1 5 3 11 4 15s3 9 4 12c3 9 9 29 14 45 7 19 9 27 9 35 0 16-12 48-25 68-9 13-10 17-4 21 5 2 27 3 38 1 6-2 9-2 19-1 13 1 14 1 42 1 53-2 159-1 175 1 8 2 18 2 46 1h114z"/></svg>