<svg xmlns="http://www.w3.org/2000/svg" width="1344" height="566"><path d="M0 283V0h1344v566H0V283m1054 218c4-1 5-6 5-16 0-14 0-15 14-29 10-11 14-16 17-24 0-2 3-7 6-11 2-4 5-9 6-10 2-2 2-5 2-15 0-11 0-12-3-22-4-10-10-23-16-35-2-4-5-11-6-15-2-9-2-13-3-64-1-48-1-54-3-63-5-22-10-32-21-40-3-2-17-7-19-7-1 0-5-1-8-2-4-1-10-2-19-2-12-1-13-1-20 1-5 2-9 4-11 5-3 3-7 10-7 12 0 1-2 5-5 9-7 8-15 21-21 31-4 7-4 8-5 14 0 4 0 14-1 21 0 16 0 16 8 23 7 5 8 8 5 11s-5 4-17 7c-10 2-10 2-12 0-1-1-3-4-5-6-2-6-6-8-12-8-7 0-12 3-18 10-11 14-13 23-9 38 1 5 2 9 2 11 0 4-4 23-6 25-1 2-4 5-7 7-7 4-13 10-17 16-2 4-2 5-2 17 0 9 0 16 2 24 4 19 7 23 24 31 6 3 11 6 13 7 7 5 17 9 24 10 5 1 12 2 17 4s13 4 18 5c18 5 25 7 38 11 31 10 51 16 62 19 8 1 8 1 10 0z"/></svg>