<svg xmlns="http://www.w3.org/2000/svg" width="1344" height="566"><path d="M0 283V0h1344v566H0V283m652 272c5-1 18-2 30-2 25-1 36-2 40-4 1-1 5-2 8-3 4 0 7-2 10-4 6-4 16-9 25-12 5-1 12-4 16-6s10-5 13-7c4-2 8-4 9-4s6-2 11-5c9-4 11-5 20-6 11-1 22-5 48-18 14-7 30-19 37-29 6-8 21-24 27-30 7-7 17-14 30-22 11-6 14-9 14-10 0-3-7-8-24-18-6-3-14-11-22-21-3-4-5-7-6-7s-28-29-39-42c-4-5-14-16-22-26-18-21-25-29-28-35-3-5-8-10-16-13-26-13-39-20-40-22 0-1 1-5 4-11 3-5 5-12 6-15s2-9 4-14c3-8 3-9 3-23-1-12-1-16 1-21 1-8 1-12-3-20-3-6-8-11-20-18-18-11-34-16-47-16-6 0-8 0-17 4-7 4-11 7-17 12-10 11-10 11-10 52-1 20-1 34-2 36 0 2-1 5-2 8-2 6-7 11-17 17-12 8-20 11-62 27-20 7-39 18-45 25-10 10-27 27-39 37-6 5-16 14-22 20-6 5-12 11-14 12-2 2-5 5-6 8-4 6-9 25-10 35 0 10 1 16 9 29 6 10 6 10 7 19 1 11 3 17 8 19 3 2 4 2 8 1 3-1 10-1 16-1 10 0 11 0 18 3 9 4 15 11 21 22 6 12 6 16-1 24-2 3-4 7-5 8-1 3 2 7 8 11 7 4 9 7 12 15 3 13 5 16 14 24 6 6 11 9 19 13l10 5h11c6 0 15-1 19-1z"/></svg>