<svg xmlns="http://www.w3.org/2000/svg" width="1344" height="566"><path d="M0 283V0h1344v566H0V283m521 275c2-2 2-3 3-32v-43c0-12 0-12-5-23-5-13-19-41-25-52-5-7-18-23-25-29-11-9-12-19-5-33 1-2 3-6 3-8 1-1 3-6 4-10 5-10 13-18 24-24 7-3 9-5 10-8 2-4 2-4 0-26-1-7-2-15-2-17 0-5-2-10-7-18-4-5-9-16-13-27-4-10-10-21-16-29-4-6-11-10-24-15s-42-2-57 5c-13 6-28 18-35 28-3 4-6 12-8 20-2 9-4 106-3 167 0 4 3 6 9 6 5 0 8 2 8 4 0 1-1 6-3 11-7 21-14 51-19 89-3 21-4 28-2 35 1 3 2 9 3 13 0 11 2 15 5 17s6 2 91 2c87 0 87-1 89-3m301 1c17-1 46-1 65-1 115 2 122 2 130-2 4-2 6-7 7-22 1-16 6-51 7-58s5-38 6-50c0-5 1-16 2-25 2-28 1-40-5-58-5-16-17-37-29-55-3-4-6-9-8-13-5-8-15-20-29-34-6-6-11-13-12-15s-2-6-3-10c0-4-2-8-2-9-1-1-6-3-12-4l-9-3-4-5c-7-10-8-16-8-26 1-5 2-13 3-19 18-71 18-71 7-98-7-17-10-21-21-27s-14-7-28-9l-12-2-12 2c-7 2-15 4-18 5s-8 2-11 3c-9 2-17 7-26 15-10 11-13 15-13 25 0 8-2 21-4 28-2 4-4 14-5 25 0 5-2 11-5 19-5 15-5 19-2 27 2 3 5 9 7 14 1 4 5 11 7 15s5 9 6 11c1 3 4 6 5 7 2 2 15 7 22 9 4 1 13 9 16 13 0 2 1 4 1 5 0 3-4 10-11 17-7 8-17 22-20 27-1 3-2 7-3 14-1 11-2 15-12 37-4 9-8 19-9 24-4 11-10 34-11 39 0 2-1 8-2 13s-3 14-4 20c-2 7-4 15-4 17-1 2-3 10-4 16s-4 18-5 26c-2 8-4 18-5 22 0 4-2 14-4 22-4 19-4 25 1 28 4 2 26 2 80 0z"/></svg>