<svg xmlns="http://www.w3.org/2000/svg" width="1344" height="566"><path d="M0 283V0h1344v566H0V283m827 277c7-2 10-5 16-16l5-10v-11c0-11 0-12 3-19 4-8 10-19 21-37 3-5 10-19 16-30 8-18 10-22 16-28 7-8 12-18 12-23 0-2-1-6-2-8 0-3-2-8-2-12-2-9-4-14-8-18-1-1-3-4-4-6s-2-3-9-3c-6-1-16-4-18-7 0-1-1-10-1-20 0-15 0-18-1-21-3-4-10-7-15-7-4 1-9 6-9 9s-1 5-12 18c-11 14-17 19-25 18-3 0-6 0-7-1s-5-1-8-1c-6 0-6 0-11 4-10 10-22 34-27 53-1 4-3 14-5 23-7 27-15 51-25 67l-9 18c-9 18-23 39-28 42-2 1-3 1-5 0-1-1-2-3-2-3 0-1-5-6-11-12-27-29-30-33-31-43-2-12-11-31-17-39-4-4-5-4-23-16-15-10-15-11-8-16 13-12 20-21 38-53 14-24 19-35 22-44 2-8 3-33 1-46-2-22-3-41-4-81-1-43-2-48-7-68-4-13-8-22-16-31-15-19-57-47-81-55-8-3-24-5-30-5-30 4-50 7-51 8-1 0-4 1-7 2-3 0-11 3-16 6-13 5-21 12-31 25-19 24-32 56-42 97-2 7-4 16-5 20-5 16-9 41-13 72-1 14-5 36-9 49-1 4-3 12-4 18 0 6-2 16-4 22-9 34-9 34-1 46l5 7v16l-11 22c-10 18-23 46-33 72-2 3-4 9-5 12-4 8-4 12 0 19 3 4 4 7 5 11 1 8 2 11 7 12 11 3 125 3 254 1 22 0 56 0 75-1 38 0 135 2 142 3 2 0 15 1 27 1 18 0 24 0 28-2z"/></svg>