<svg xmlns="http://www.w3.org/2000/svg" width="1344" height="566"><path d="M0 283V0h1344v566H0V283m352 275c71 0 119 0 156-2 9 0 33 1 55 1 22 1 56 2 76 2 35 0 36 0 38-2 3-3 3-8-1-19-4-16-13-31-23-43-7-7-14-11-32-17-6-2-16-6-23-9-15-6-26-11-31-12-2-1-5-2-7-3s-9-4-16-6c-6-2-14-5-16-6-3-1-9-3-14-5-11-4-13-6-13-12 1-6 6-19 11-28 12-19 14-23 18-26 5-5 7-5 25-8 25-4 35-7 43-15 8-7 9-11 10-38 1-23 1-24 5-43 7-28 7-31 7-41-1-7-2-13-6-24-6-20-7-23-8-32-2-19-4-34-5-37-1-1-2-12-2-25-1-29-5-46-14-66-5-9-8-13-18-22S552 9 538 6c-11-2-15-2-66-2-61 0-111 1-120 3-4 1-8 2-10 3-6 3-27 24-36 36-8 10-18 28-22 40-3 7-13 41-17 56-2 6-5 16-6 22-2 6-6 21-9 34-7 26-11 42-14 47-1 2-5 11-8 21-9 24-19 44-29 62-4 8-11 20-14 27-6 14-14 25-37 56-10 13-12 17-12 20s2 4 10 5c8 0 11 2 15 7 5 7 15 13 28 16 2 1 5 2 6 4 2 3 3 19 2 21-3 5-10 14-22 26-21 22-26 29-26 38 0 7 3 9 23 11 1 1 25 1 52 0 27 0 84 0 126-1z"/></svg>