<svg xmlns="http://www.w3.org/2000/svg" width="1344" height="566"><path d="M0 283V0h1344v566H0V283m997 276c12 0 23-1 24-2 3-1 5-8 5-15s-3-33-6-62c-3-24-4-30-1-36 2-8 1-12-2-19-5-9-11-14-43-30-9-4-18-8-20-9-6-1-11-4-14-8-4-5-12-13-14-14-4-1-7-4-7-7s3-6 7-8c2 0 3-2 3-3 1-3 4-35 5-49 2-26-3-67-13-107-1-8-5-24-8-35-5-22-9-34-19-57-4-7-9-16-12-21-8-12-21-26-32-33-14-9-36-19-62-27-9-2-13-3-20-3-10 0-14 1-44 15-4 2-12 5-18 7s-12 5-14 6c-10 6-27 28-35 45-4 10-11 32-12 41-1 8 0 22 3 46 2 16 3 53 3 68-1 18-1 25 1 40 1 11 1 17 0 27-1 13-1 26 1 41l1 8-3 8c-2 4-4 8-4 9 0 3-8 15-11 19-6 4-10 6-19 7h-7l-3-3c-2-2-4-6-5-8-3-9-7-16-10-18s-29-9-40-11c-4-1-9-1-12-1-5 1-6 1-8-2-4-4-3-4-23 5-17 8-24 13-29 20-3 5-20 22-22 22 0 0-6 4-12 9-12 10-16 12-24 15-3 1-10 4-15 6-10 5-10 4-25 2-10-1-11-2-13-5-1-2-3-4-5-5l-4-2-3 2c-2 2-6 4-10 4-4 1-8 2-9 3s-6 2-12 3c-9 1-17 5-21 9-2 2-2 5 1 5 13 4 17 6 20 8 7 5 10 7 16 8 8 1 19 7 19 10 1 2 1 7 1 13 1 11 1 12-3 23-2 7-5 17-5 22-2 10-2 10 0 12 1 1 2 3 3 3 5 2 80 3 119 1 23-1 24-1 53 2 5 1 24 1 44 2 20 0 41 1 47 1 8 1 21 1 44 0 28-1 33-1 43 1 10 1 23 1 83 2 60 0 117 0 118 1 0 1 69 0 89-1z"/></svg>