<svg xmlns="http://www.w3.org/2000/svg" width="1344" height="566"><path d="M0 283V0h1344v566H0V283m850 274c73 0 295 0 375 1 43 0 63 0 65-1 3-1 4-4 1-6-2-2-22-12-23-12-2 0-32-17-43-24-4-3-10-8-15-12s-12-8-21-13c-20-10-28-15-44-31-14-13-15-14-25-19-15-7-21-13-38-30-24-26-38-38-54-47-10-6-34-19-41-24-22-12-36-20-48-25-42-20-50-23-61-26-22-7-41-15-49-21-6-5-7-12-4-24 2-6 2-8 2-34 0-24 0-29-2-38-7-35-24-79-38-100-6-8-19-21-28-27-29-20-70-24-105-12-3 2-8 3-11 3-15 0-36 12-53 29-12 12-19 23-25 37-15 35-17 51-10 95 4 32 11 60 16 72 2 6 7 13 10 17s7 10 8 13c4 6 19 20 24 23 2 1 5 1 7 1 3-1 6-1 8-2h4l15 14c16 17 20 22 20 26 0 2-2 6-6 11-8 11-12 18-15 27-6 17-6 26-1 44 2 9 4 15 13 32l11 22v8c0 8 0 9-3 16-5 11-5 19 1 29 6 8 5 8 51 9h41c0 1 8 1 17 1 9-1 42-1 74-2z"/></svg>