<svg xmlns="http://www.w3.org/2000/svg" width="1344" height="566"><path d="M0 283V0h1344v566H0V283m728 280c5-1 27-1 49-2 22 0 41-1 42-2 1 0 31-1 67-1 72 0 72 0 74-5 1-5-3-27-9-45-4-10-7-25-7-31 0-2 1-13 2-23s2-26 3-36c1-9 2-20 2-24 1-3 1-20 2-37 0-17 0-35 1-39 1-9 1-22 0-28-2-7-7-18-12-26s-18-21-36-36c-23-21-26-24-28-31-1-2-2-13-3-24-1-24-3-30-8-44-10-26-25-42-53-59-7-5-16-10-19-12-8-6-9-6-24-9-12-3-18-3-31-4-24-1-35 2-57 15-13 8-20 13-28 21-11 13-31 45-37 60-1 3-3 12-4 19-2 14-5 20-10 26-5 4-9 7-37 21-32 17-40 21-48 29-13 11-17 21-19 40-1 6-2 15-3 20-3 15-15 63-22 90-4 19-8 38-11 58 0 7-2 17-4 23-1 6-2 14-2 18 0 8-1 12-4 30-4 21-6 32-4 37 2 7 5 8 24 9 9 1 50 1 92 1s81 0 88 1c17 1 63 1 74 0z"/></svg>