<svg xmlns="http://www.w3.org/2000/svg" width="1344" height="566"><path d="M0 283V0h1344v566H0V283m868 278c10-1 20-2 21-2 1-1 1-3 0-10 0-11 0-12 9-14 9-3 9-3 9-27v-20l3-5c2-3 5-8 7-11 1-4 4-10 6-13 3-6 4-8 4-12 0-9-2-18-6-29-10-25-17-36-42-58-17-15-25-25-27-30-1-3-1-12 0-51 1-37 1-42-6-61-8-24-19-43-32-55-14-14-26-21-38-22-5-1-17-2-27-4-15-2-21-2-31-2-18 1-25 4-50 17-2 1-11 6-21 11-19 9-31 17-35 23-1 3-1 6-2 19v15l-4 12c-6 15-10 31-11 45-2 14-3 19-10 42-4 14-4 16-4 28 0 7 1 17 1 23 2 12 0 19-7 40-2 7-4 15-5 18-1 9 0 41 2 52 2 9 2 21 1 54 0 20 0 21 2 23s3 2 34 3c43 0 78 1 113 2 37 1 119 0 146-1z"/></svg>