<svg xmlns="http://www.w3.org/2000/svg" width="1344" height="566"><path d="M0 283V0h1344v566H0V283m690 17c13-3 15-6 26-25 7-15 9-18 10-26s8-22 12-25c3-3 4-4 9-4s6 0 8-3c1-1 2-5 2-8 1-2 2-7 3-10 1-5 1-6-1-12-1-4-4-9-5-11-6-9-12-18-15-24s-9-14-11-17c-4-4-9-6-18-9-11-3-19-6-22-9-1-2-2-4-2-12-1-14-3-19-9-26-6-6-11-9-16-9-8 0-20 8-22 15-1 3-1 5 0 10 1 4 2 8 3 11 0 2 2 6 3 8 3 6 7 17 7 22 0 2-1 4-6 8-7 6-14 15-16 20-1 1-2 5-2 8-1 3-1 10-2 15-1 11-4 21-8 34-2 5-5 14-7 19-1 4-3 12-5 16-1 4-2 9-2 12-1 5 2 8 12 10 11 3 14 3 18 2 3-2 7-2 12-1 1 1 6 2 11 2 9 2 11 3 16 12 3 5 6 8 9 8 1 0 4-1 8-1z"/></svg>