<svg xmlns="http://www.w3.org/2000/svg" width="1344" height="566"><path d="M0 283V0h1344v566H0V283m511 277c17-1 44-2 60-3 35-1 162-1 178 0 17 1 90 2 139 1 23-1 44-1 46-1 3 0 28 0 56 1 74 1 72 1 75-1 6-6-2-18-25-35-8-7-18-14-22-18-10-8-27-19-44-27-7-4-14-8-17-10-2-2-4-3-4-3-2 0-14-13-16-16-2-4-1-10 3-22 5-16 24-56 31-66 1-1 6-11 12-20 15-26 19-32 27-38 4-3 9-7 12-9 18-17 34-50 34-70 0-7-2-10-8-13-7-4-7-3-1-29 13-51 18-93 13-116-4-21-14-46-19-53-8-8-22-9-147-8-118 0-114-1-125 18-7 13-16 37-20 58-2 7-4 21-5 32-2 11-3 22-4 24-2 6-6 10-14 12-6 2-8 3-12 7-8 9-11 25-7 47 4 21 9 32 20 45 10 12 10 12 10 30-1 27-6 50-16 69-13 26-13 27-38 27-19 0-35 1-39 4-4 1-8 6-20 24-13 20-13 20-18 26-7 9-19 19-37 31-7 4-18 11-25 16-7 4-16 10-21 13-16 8-36 20-45 27-16 12-39 33-41 38-1 3-1 3 1 5s4 2 9 2c4 0 10 1 13 1 10 1 17 1 51 0z"/></svg>