<svg xmlns="http://www.w3.org/2000/svg" width="1344" height="566"><path d="M0 283V0h1344v566H0V283m672 275c42 0 84 0 97-1 24-1 67-1 112 1 24 1 26 1 28 0 2-3 0-8-12-20-16-15-26-22-76-48-8-4-17-8-19-9-11-5-59-29-63-32-5-4-8-8-8-12 0-6 10-27 22-48 4-7 11-19 15-26 9-16 17-29 23-34 2-2 7-5 11-7s9-4 12-6c7-5 16-16 21-23 2-3 6-10 9-14s6-10 7-13c3-9 4-24 4-36-1-6-1-19 0-34 1-12 2-30 3-40s2-20 2-23c2-10 3-42 2-50-1-6-2-10-10-31-8-20-14-29-28-39-12-9-13-9-124-9-99 0-105 0-118 5-11 3-22 22-34 59-5 16-7 25-11 49-3 23-5 33-8 37-1 3-5 5-10 6-7 2-13 5-16 10-3 4-7 19-7 27 0 6 4 28 6 34 4 13 10 22 21 34l8 8v9c0 5 0 11-1 14-1 4-2 12-3 19-2 19-6 36-10 45-3 4-9 10-11 10h-54l-4 2c-6 3-8 6-22 24-19 24-23 29-31 35-9 7-11 8-41 21-35 15-50 23-54 29-2 3-2 14-1 39 2 23 3 27 7 31 4 3 19 6 23 5h98c59 1 84 2 103 3 3 1 19 1 36 0 18 0 66 0 106-1z"/></svg>