<svg xmlns="http://www.w3.org/2000/svg" width="1344" height="566"><path d="M0 283V0h1344v566H0V283m554 275c6-3 10-6 14-12 3-5 3-5 2-9s-1-5 6-23c3-6 4-10 8-24 1-6 2-7 4-7s5 1 6 2c3 2 5 2 14 2 12 0 13 0 19-10 3-3 6-8 7-10 12-15 23-37 26-51s4-16 6-22c3-9 9-20 12-24 1-1 3-5 4-8 2-5 3-7 8-11 11-9 15-20 15-43 1-16 1-17-1-18-2-3-4-2-9 4-4 4-5 4-9 4-3 0-7 1-11 2-6 2-6 2-10 0-4-1-4-1-10 1-3 1-8 4-12 7s-9 8-13 11c-4 2-10 7-14 11-10 8-12 8-16 0-1-2-3-6-5-9-2-4-5-8-5-10-1-6-7-19-10-24-2-2-6-6-9-8-7-4-36-19-42-21s-8-5-8-13c0-5 1-8 3-10 2-3 8-7 14-8s10-4 17-17c12-22 16-35 20-56 0-5 2-12 3-14 2-5 2-7 2-22 0-18-1-26-6-34-5-9-32-30-49-38-5-3-19-5-28-5-8 0-22 4-31 9-12 7-22 22-30 45-6 19-11 38-12 49-1 2-2 8-3 12 0 4-1 12-2 18s-2 14-2 19c-1 5-2 11-3 15 0 3-2 10-3 16-3 13-3 12 6 17 3 2 6 4 6 5 2 3-1 9-6 18-3 3-7 11-9 16-5 9-5 10-5 19 0 4 1 14 2 21 1 8 1 18 1 34v23l-3 6c-3 5-3 6-3 22-1 16-1 17 1 28 3 12 11 31 15 35l3 6c2 5 6 30 7 42 1 17 3 29 5 32 0 1 3 4 7 7l5 3 24 1c20 1 25 0 29-1 5-1 12-1 29 1 12 2 25 2 29-1z"/></svg>