<svg xmlns="http://www.w3.org/2000/svg" width="1344" height="566"><path d="M0 283V0h1344v566H0V283m907 277c21-1 65 0 106 0 59 1 73 1 89-1 12 0 22-1 24-2 16-3 12-16-11-40-6-6-16-16-21-22-10-11-25-23-41-35-21-15-47-38-55-48-2-3-6-9-9-14s-10-16-14-24c-5-8-12-20-17-28-4-8-8-15-8-16-1-1-5-7-8-14-4-6-10-15-13-20-11-17-11-19 5-34 10-10 11-11 16-20 5-11 7-20 9-33 0-5 1-11 1-13 2-12 3-21 3-38 0-25-3-43-11-65-15-40-32-59-71-79-10-4-13-5-21-6-16-2-79 1-102 5-5 0-30 7-38 10-9 3-21 12-35 25-15 16-18 23-22 54-2 26-1 58 3 82 2 10 3 25 4 35 2 29 4 38 16 68 7 19 12 34 19 57 5 15 7 23 10 25 4 5 22 12 38 15 9 1 10 1 10 3 0 3-4 5-15 9-25 9-59 29-72 42-16 16-21 37-22 90 0 31 0 32 14 33 9 1 194 0 239-1z"/></svg>