<svg xmlns="http://www.w3.org/2000/svg" width="1344" height="566"><path d="M0 283V0h1344v566H0V283m348 277c5 0 10 0 12-1s7-1 19 1c15 1 23 1 57 0h78c22 0 50 0 61-1 15-1 26-1 39 0 10 1 50 1 89 1 71 0 71 0 74-2 2-1 3-2 3-8 0-4-1-8-2-12 0-3-2-8-2-11s-2-9-4-13c-3-7-3-9-4-19 0-7-1-13-2-15-2-4-9-9-19-14-6-3-34-16-44-20-3-2-12-6-20-10-9-4-17-8-18-8-6-2-33-15-35-17-4-3-4-8-1-14 1-3 3-8 4-11 1-4 5-13 8-19 12-25 20-50 23-70 3-17 2-49-2-85-1-6-2-16-3-22-2-22-8-53-15-74-7-23-21-49-33-63-14-15-46-37-65-43-11-5-18-5-43-5-25 1-30 2-45 9-4 2-12 4-18 6-15 4-23 7-32 14-18 15-33 43-47 88-4 10-17 65-21 84-2 9-4 20-6 26-7 35-10 49-12 63-1 9-3 18-3 20-1 3-1 21-2 45 0 37 0 40-2 44-1 3-3 4-17 11-8 4-23 12-32 18-10 5-25 14-34 18s-19 10-23 13c-7 5-7 5-14 20-4 9-11 20-15 27-9 13-17 29-20 37-1 6-1 6 1 8 5 5 3 5 93 4h94z"/></svg>