<svg xmlns="http://www.w3.org/2000/svg" width="1344" height="566"><path d="M0 283V0h1344v566H0V283m723 279c110-1 145-1 151-2 4-1 13-1 20-1h16c22 0 53 0 68 1 10 1 27 1 40 1 27-1 29-2 29-11 0-4-3-16-7-29-2-6-6-17-8-25s-5-17-6-21c-1-3-2-7-2-8 0-2-10-36-13-45-1-4-4-13-6-19-9-36-18-49-35-55-11-3-65-16-94-21-6-1-15-3-19-5-10-3-45-24-54-31-6-4-7-6-8-9-2-10-1-15 9-33 15-29 21-54 21-90 0-37-7-58-27-81-16-18-34-28-62-35-33-8-53-10-71-8-12 1-17 3-32 13-5 3-12 7-15 9-19 11-34 31-40 53-5 19-9 48-9 65 0 14 11 53 21 73 9 17 14 23 30 34 18 11 19 12 21 28 3 11 2 31 0 36-3 5-26 26-38 33-13 9-18 12-32 17-14 6-19 8-31 16-5 4-13 10-17 13-12 8-32 28-36 36-6 11-6 16-7 55 0 43-1 41 15 44 10 2 43 3 66 2h162z"/></svg>