<svg xmlns="http://www.w3.org/2000/svg" width="1344" height="566"><path d="M0 283V0h1344v566H0V283m988 276c27-1 29-1 31-3 2-1 2-3 1-22-1-14-1-23-2-26-3-8-5-23-6-39-1-7-1-17-2-21-1-10-2-26-1-32 1-5 1-6-2-11-5-8-8-10-53-25-35-13-35-13-40-28-3-8-3-12-4-21 0-6-1-17-1-25-1-7-2-17-3-21 0-4-1-14-2-22s-3-29-4-46c-5-76-7-90-23-120-10-21-31-43-51-52-17-9-38-17-49-18-12-2-21-1-38 2-35 7-50 12-62 19-13 8-16 11-26 32-6 10-12 23-15 28-16 28-19 36-20 64l-1 19-4 8c-2 5-6 11-8 14-10 14-11 20-6 31 1 4 2 9 2 12 1 4 1 10 1 15 1 7 1 9 0 12-3 5-2 9 0 16 2 5 2 9 2 18 0 11 0 13 2 18 2 2 4 6 5 7 2 1 5 3 7 5 2 1 5 3 6 4 2 1 3 3 2 3 0 1-8 1-14 0-3-1-6-1-16 1s-12 2-21 1c-6-1-13-1-15 0-6 0-15 4-23 9-10 7-12 8-20 10-5 0-10 1-12 1-5 0-10 3-23 12-8 7-12 10-23 14-13 6-19 10-27 22-1 2-5 4-9 6l-8 4h-21c-25-1-36-1-40 2s-5 6-3 9c1 0 5 3 10 5 9 4 10 5 9 13-1 5-7 24-18 49-2 5-5 11-5 13l-5 10c-3 4-4 7-4 11v6h3c2 0 6 0 8 1 6 1 42 0 60-3 8 0 15-1 17-1 1 1 6 0 10 0 3-1 11-1 16-1 6-1 14-1 18-2s12-1 16-2c7 0 11-2 15-3 6-3 6-3 15-2 5 1 13 3 19 5 6 1 15 4 21 4 6 1 15 3 20 4 9 1 17 1 46 1h100l20 3 18 3 87 1h88c0 1 6 1 14 1 7-1 26-1 41-2z"/></svg>