<svg xmlns="http://www.w3.org/2000/svg" width="1344" height="566"><path d="M0 283V0h1344v566H0V283m671 278c15-1 32-1 69 0 65 1 191 1 193 0 2-2 1-4-3-12s-8-13-18-17c-12-7-45-16-76-24-17-3-28-7-32-12-3-2-13-15-16-19-3-5-1-10 9-30 11-24 25-48 29-54 2-3 4-7 5-10 4-9 7-30 9-53 2-28 2-86 0-99-7-49-33-97-69-126-14-11-35-20-64-25-29-6-52-7-69-3-3 1-10 3-14 4-23 5-42 16-60 33-16 14-25 29-33 51-4 10-6 21-8 33-2 28-5 45-10 70-2 11-3 31 0 41 0 4 2 11 2 15 1 5 2 11 3 12 1 4 1 10 0 19-1 6-1 8 0 13 1 4 2 9 2 13 1 4 2 9 3 12s2 6 2 7 2 6 4 11c4 12 7 27 7 34-1 6-6 16-12 23-8 9-30 18-56 24-27 5-67 18-96 30-13 6-24 16-30 26-2 6-3 7-1 9 4 3 16 3 63 2 35-1 60-1 96 0 76 2 106 3 107 3 1 1 36 0 64-1z"/></svg>