<svg xmlns="http://www.w3.org/2000/svg" width="1344" height="566"><path d="M0 283V0h1344v566H0V283m234 279c12-1 23-1 27-2s7-1 9 0c4 2 427 2 436 0 10-1 11-2 14-8 3-8 4-13 2-18-1-2-3-9-4-16-2-15-4-20-10-23-3-2-4-2-9-2-9 1-19-1-24-5-2-2-4-3-8-3s-5 0-7-3c-3-4-3-11 0-20 2-8 4-22 5-37 0-6 0-10-1-14s-3-10-3-15c-3-14-7-28-10-33-7-11-12-36-17-82-1-16-7-41-12-54-5-16-14-28-26-37-23-18-40-26-68-34-6-2-10-2-22-2-11 0-17 0-22 1-19 5-43 18-53 28-6 5-13 17-17 26-3 9-7 33-8 53-1 8-1 21-2 28-2 23-2 44-1 67 2 44 2 42 0 45s-5 2-6-3c-3-14-9-38-11-49-2-13-8-35-10-40-4-6-8-12-13-17-3-2-10-9-16-15-5-6-12-12-13-13-4-2-6-5-5-8 0-1 2-4 4-6 7-9 11-22 14-46 2-15 2-19 1-35-1-21-5-43-10-52-3-6-12-15-19-19-11-7-34-12-49-11-16 1-32 8-41 17-11 11-13 17-12 50v25l5 12c8 15 9 21 9 31 0 11-1 14-7 16-4 1-6 3-13 11-5 5-16 16-24 25-8 8-17 17-19 20-3 4-11 11-17 16-13 11-24 23-27 28-6 13-10 28-11 50-1 9-2 29-3 45-3 33-2 42 2 58 4 17 5 24 5 35 0 14 1 18 4 22 3 3 14 8 25 11 3 2 43 3 58 2h30m933-1c6-1 12-2 14-3 5-2 12-10 15-16 2-4 2-22 0-26-4-11-8-35-10-60-1-21-7-73-9-89-1-4-2-10-3-13 0-9-5-32-8-43-8-33-25-57-54-71-3-1-11-5-18-7-27-11-45-22-50-31-2-4-1-12 2-23 2-7 4-10 8-14 6-8 14-20 15-24 2-5 1-7-2-13l-3-5 1-13c2-16 2-27 0-36-2-11-4-13-10-20-14-13-38-24-53-24-9 0-13 1-26 7-20 10-26 19-35 57 0 4-3 11-5 15-5 13-5 25 0 41 5 13 7 23 8 32 0 12 0 13-11 18-3 2-7 4-9 6-1 1-4 3-7 4-2 1-5 3-7 4-6 6-16 10-38 20-29 12-45 24-59 44-14 21-16 28-34 90-10 37-16 64-16 74 0 3 1 12 2 19 2 16 1 24-4 36-5 10-6 16-4 19 1 1 3 5 6 8 6 8 7 11 8 19 0 9 2 13 5 15s24 3 78 1h59c44 1 64 1 93 0 34-2 123-1 131 0 4 1 8 1 11 2 5 1 8 1 19 0z"/></svg>