<svg xmlns="http://www.w3.org/2000/svg" width="1344" height="566"><path d="M0 283V0h1344v566H0V283m938 277c24-1 44-1 46-1 1 1 27 1 58 1 46 0 60 0 73-1 10-1 19-3 20-4 4-1 5-6 5-14 0-13-6-28-16-38-8-9-48-42-63-53-8-5-15-11-17-12-1-2-9-8-18-14-23-16-29-23-44-46-16-23-20-28-30-40-10-13-29-42-32-50-2-7-3-18-1-23 1-2 4-5 6-7 10-8 19-18 23-26 3-5 8-19 9-23 0-3 2-11 3-18 3-13 4-25 6-58 1-22 1-22-17-59-7-16-17-31-24-38-7-6-26-19-36-23-14-8-14-7-71-7-45 0-52 0-62 1-22 4-32 7-42 13-2 1-9 4-16 6-6 2-13 5-16 7-4 2-5 3-12 18-4 9-9 18-10 22-2 7-4 28-4 46 0 21 4 55 7 73 1 3 2 11 3 19 3 36 7 51 22 85 2 7 6 16 8 21 7 20 14 30 25 37 5 3 7 3 16 4 25 2 37 10 37 24 0 4-1 5-4 8-5 5-11 7-34 17-21 8-39 18-60 32-10 7-15 14-17 22-1 5-1 6 2 18 4 13 9 24 14 29l3 6c1 6 5 13 11 19 8 9 17 14 28 15 4 1 10 1 12 2 10 3 33 6 49 7 10 0 21 1 24 2 9 1 69 3 83 2 5 0 29 0 53-1z"/></svg>