<svg xmlns="http://www.w3.org/2000/svg" width="1344" height="566"><path d="M0 283V0h1344v566H0V283m476 138c12-2 16-4 26-8 5-2 10-4 11-5 9-1 59-2 71 0 21 2 34 3 70 4 37 0 38 0 54 3 13 3 18 3 24 3 13-1 32-4 34-5 1-1 5-1 8-2 4 0 8-1 11-2 2-1 7-2 10-3 5-1 14-3 27-6 9-3 18-7 24-11 7-5 17-8 26-9 6-1 9-1 10-3 3-3 4-14 2-25 0-4-1-12-1-17 0-9-1-12-6-19-2-2-3-5-3-5 0-3-3-5-7-5-5 0-7-2-7-10-1-8-3-13-7-19-2-5-2-6-2-16 1-6 0-11 0-13-2-6-4-15-7-27-1-7-4-17-5-23-2-6-4-18-6-26-4-19-6-26-12-42s-10-24-15-31c-6-7-17-17-23-22-9-6-33-15-46-17-18-3-52 5-70 18-10 6-18 16-24 29-10 20-11 32-13 100-1 38-1 42-3 44s-5 2-11 1c-9-3-17 0-30 9-12 10-18 17-23 27-8 14-12 19-16 22-3 1-8 5-12 8-9 7-44 25-53 27-4 0-8 1-12 0-8 0-12 1-16 6-2 3-3 5-3 5 0 1-2 6-5 11-6 12-12 28-15 40-2 5-2 5 0 7 1 1 3 2 4 2 2 0 6 1 11 3 10 3 17 4 30 2z"/></svg>