<svg xmlns="http://www.w3.org/2000/svg" width="1344" height="566"><path d="M0 283V0h1344v566H0V283m944 276c21-1 39-1 40-2 4 0 7-3 7-5 0-4-6-17-18-40-8-17-13-27-15-36-4-12-9-22-16-34-6-10-15-32-16-38 0-4-1-7-5-13-3-4-7-12-10-17-4-5-8-13-11-17-13-21-26-45-28-54-2-8-2-17-1-20 1-2 5-7 10-12 10-10 12-13 15-22s4-14 5-27c1-6 2-17 2-24 1-7 2-20 3-30 0-14 0-20-2-34-1-10-3-19-3-20-1-2-2-6-3-8-4-15-8-25-14-34s-15-21-22-28c-12-11-35-25-50-31-3-1-11-3-16-4-14-2-43-1-55 2-5 1-13 3-18 3-9 1-31 6-47 11s-30 13-44 27c-17 16-28 40-33 71-2 10-2 15-2 31 1 20 3 33 9 52 4 13 10 36 10 40s5 23 12 46c1 4 3 10 4 14 8 27 18 51 26 59 9 10 18 13 40 15 14 1 17 2 21 7 4 4 11 19 11 21 0 4-3 8-14 19-6 6-14 17-19 23s-15 18-23 26c-11 11-14 15-18 22-5 9-7 18-9 30-1 10-1 13 3 20 3 4 5 5 16 9 8 2 10 2 32 3 34 1 204 0 246-1z"/></svg>