<svg xmlns="http://www.w3.org/2000/svg" width="1344" height="566"><path d="M0 283V0h1344v566H0V283m665 279h63c22 0 28 0 34-1 5-1 11-2 13-3 9-1 12-6 9-14-1-2-2-9-3-16-2-28-3-36-6-47-5-20-7-49-5-69 1-5 1-18 2-28 0-17 0-22-2-36-2-20-5-30-9-42-5-11-9-17-22-31-14-14-16-17-16-23 0-7 4-23 9-39 8-23 8-26 9-57 0-28 0-29-2-44-5-24-9-35-20-49-12-15-37-30-68-40-21-7-25-7-51-7-22 0-23 0-34 3-17 4-22 6-32 13-13 9-25 20-31 30-10 15-17 34-19 48-3 25-6 45-7 46s-3 3-5 4c-8 5-8 5-8 28v21l-5 8c-5 11-17 27-24 33-6 6-11 8-22 13-11 4-38 20-57 33-4 3-10 7-13 9-19 12-46 38-59 56-16 21-26 36-30 44-7 13-14 39-18 59-2 19-2 29 1 69 1 15 4 21 11 25l4 2 80-1c113-1 179-1 191 1 15 2 53 3 81 2h61z"/></svg>