<svg xmlns="http://www.w3.org/2000/svg" width="1344" height="566"><path d="M0 283V0h1344v566H0V283m738 276c65-1 67-1 70-3 6-2 9-6 15-16 10-16 13-22 17-43 2-8 3-15 4-16 2-1 2-1 4 1 1 1 7 7 12 14 6 6 11 12 11 13 1 0 5 4 9 9 6 6 8 8 18 14 17 10 37 19 46 21 10 3 32 4 60 4 14 0 34 1 50 2 14 0 34 1 44 1h18l3-3c2-3 3-4 3-8 0-9-13-26-27-35-16-9-20-15-29-37-2-8-6-15-7-17-8-10-23-18-47-28-13-5-19-9-31-19-9-8-18-14-25-17-2-1-7-5-11-7-8-7-38-38-40-43-1-2-2-8-3-14-2-7-3-13-6-19-4-9-10-27-11-33-1-2 0-6 1-10 2-9 3-50 3-78-1-26-4-52-9-70-5-23-16-39-31-46-18-8-38-13-62-16-5 0-11-1-14-2-22-5-22-6-30-2-2 1-5 1-7 1-8-1-12 4-18 22-2 5-6 14-9 22-6 11-8 16-14 33-1 3-3 9-4 14-1 4-3 10-4 14-1 3-3 9-4 14-8 29-19 62-26 77-12 27-32 57-51 78-7 6-14 15-16 18-3 4-9 12-13 17-21 27-56 73-61 81-7 12-8 13-11 24-5 12-12 40-15 54-2 12-3 24-1 28 2 3 3 4 6 5 9 3 83 3 243 1z"/></svg>