<svg xmlns="http://www.w3.org/2000/svg" width="1344" height="566"><path d="M0 283V0h1344v566H0V283m500 277c17-2 71-3 118-4h57c7-1 12-1 21 1 10 1 20 1 113 1 68 0 107 0 114-1 13-1 31-1 58 0s43 1 45 0c4-3 2-5-23-21-17-11-23-15-38-22-23-10-28-14-38-27-18-22-16-20-16-25 1-10 25-62 43-96 18-32 17-31 28-36 23-11 42-33 48-58 2-10 3-19 2-25 0-5-1-6-7-12s-6-6-6-11c0-3 1-11 2-18s3-19 5-28c1-9 3-20 3-24 2-11 4-25 5-38 1-14-2-26-8-40-4-10-17-33-21-38-7-7-25-20-35-25-9-4-12-5-20-6-25-2-52-3-106-3-50 1-55 1-62 3-9 2-10 3-18 10-12 10-19 25-32 60-9 25-11 37-15 77-3 24-5 27-15 30-3 1-7 3-9 5-13 11-13 47 0 74 4 7 6 10 15 19 5 5 10 11 11 13 2 4 1 22-1 41-4 35-9 50-22 66-5 6-8 7-17 7-5-1-14-2-22-3-12-1-13-1-18 0-5 2-7 3-19 16-29 32-38 38-62 48-7 3-15 7-18 9-10 6-26 15-38 21-31 16-68 38-80 49-9 8-8 10 6 11s62 1 72 0z"/></svg>