<svg xmlns="http://www.w3.org/2000/svg" width="1344" height="566"><path d="M0 283V0h1344v566H0V283m618 277h37c50 1 115 0 138-2 5 0 8 0 11 1 6 3 21 3 31 2 5-1 12-1 17-1h118c100 0 109 0 114-1 4-1 7-3 9-5s2-3 2-9c-2-14-8-43-11-51-1-2-3-8-5-12-1-4-5-13-8-20-4-10-5-13-6-19 0-10-2-12-12-18-7-5-32-17-57-28-10-4-19-9-21-10-1-1-12-6-24-12s-23-12-24-14c-2-2-2-2-1-4 3-4 7-6 16-7l8-1 8-8c8-9 16-14 21-14 4 0 9-4 12-10 4-6 6-8 14-10 3-1 7-3 8-3 1-1 3-2 5-3s4-3 5-5c0-2 3-4 4-4 6-3 10-9 10-15 0-3-1-5-4-9-2-2-5-7-7-11-3-5-4-6-4-12 0-3-1-8-1-11-3-9-5-12-29-41-8-9-14-20-16-29-4-14-14-32-25-45-9-12-42-44-54-52-18-15-43-23-68-23-12 0-17 1-32 9-5 2-9 3-12 3s-9 0-12 1c-15 2-23 7-38 21-9 10-14 19-21 40-5 14-14 48-16 58-2 13-4 26-5 36-2 26-7 42-12 45-1 0-4 1-8 1-8 1-15 5-16 8-2 5 1 10 8 13 5 2 10 3 26 5 11 2 23 3 26 3 8 0 14 3 23 12 8 8 8 9 8 31v16l-4 6c-3 5-4 6-13 9-12 6-31 13-36 15-10 3-43 16-59 23-12 6-25 10-43 14-5 1-10 3-11 4s-4 4-5 7c-2 4-6 10-9 14-18 25-32 53-41 80-2 5-5 13-7 19-7 17-6 21 4 22 3 1 19 1 36 2h31c0 1 18 0 27-1z"/></svg>