<svg xmlns="http://www.w3.org/2000/svg" width="1344" height="566"><path d="M0 283V0h1344v566H0V283m1072 278c11-1 21-2 22-2 2-1 2-1 2-7-1-12-8-24-23-40-4-5-10-12-13-16-9-11-20-22-43-40-5-4-15-13-22-20-17-15-24-22-51-42-28-20-31-22-47-23-13-1-22-2-27-4-8-2-19-15-24-28-3-8-3-10-4-22 0-11 0-15 2-24 3-16 4-18 15-32 8-10 15-22 20-35 4-11 5-22 3-33-2-9-2-18 0-31s2-38 0-48-9-24-15-32c-10-14-30-28-50-37-21-9-40-11-67-10-31 2-47 7-69 25-8 7-15 14-22 26-6 8-10 23-11 38-1 4-2 16-3 27s-3 28-3 39c-1 10-1 19-1 20-4 14-4 18-4 28 0 7 0 14 1 18s2 9 2 12c4 25 20 67 30 76 2 1 7 5 11 7 9 5 12 9 12 14 0 3-1 4-3 7-3 3-27 16-44 24-18 9-30 17-57 39-30 24-41 36-64 68-7 10-14 22-17 34-4 13-4 17-1 21 3 2 4 2 16 2h16c1 0 28 0 59-1 30 0 76-1 102-2 32-1 58-1 88 0 23 0 61 1 84 1 92 2 177 3 177 4 1 0 3 0 23-1z"/></svg>