<svg xmlns="http://www.w3.org/2000/svg" width="1344" height="566"><path d="M0 283V0h1344v566H0V283m887 275c4-2 5-3 9-13 2-7 2-9 3-28 0-13 0-23 1-28 2-8 2-13-1-29-1-4-2-11-3-14 0-4-1-10-2-14-3-10-5-19-6-31-1-6-1-12-2-12 0 0-1-5-1-11-1-5-3-12-4-14 0-2-2-9-3-14-2-5-3-11-4-13-4-6-5-11-9-29-4-23-12-43-23-58-14-20-21-26-35-31-7-3-12-7-16-13-2-4-2-5-2-15 0-7 0-13 2-19 2-10 4-28 3-36-1-11-7-25-14-33-6-6-17-13-24-15-6-2-8-2-20-2-14 0-15 0-20 3-4 1-9 3-11 4-12 3-19 8-32 24-9 11-13 18-15 29-3 12-2 22 3 27 2 2 3 4 3 6 0 1 1 6 2 10 1 9 1 21 0 24-1 1-3 5-6 8-5 7-10 18-11 25-1 5-28 58-34 66-2 4-6 8-8 11-2 2-7 8-10 12-5 6-12 13-19 19s-17 15-24 21c-6 5-13 11-16 13-6 4-14 8-16 8-1 0-6-2-11-4-11-5-21-7-45-8s-30-1-34 3-2 13 5 21c2 3 3 5 3 5 0 3-4 5-10 7-9 3-10 4-10 10 0 5 2 8 8 15 5 5 7 6 32 7 16 0 20 0 26-1 13-4 18-5 36-8 11-2 22-5 25-5 6-1 10-1 15 2 4 2 10 8 13 14 3 5 4 15 3 19-1 1-1 3-1 5 1 2 15 14 17 14 1 0 4-2 7-5 4-4 5-5 9-5 3 0 6 0 8 1s9 1 15 2c10 0 13 1 15 2l2 3-1 7c-1 4-2 12-2 18v9l6 7c4 4 9 9 12 13 6 7 9 9 16 10 14 3 31 3 76 3 26 0 55 0 65 1 34 1 62 1 65 0z"/></svg>