<svg xmlns="http://www.w3.org/2000/svg" width="1344" height="566"><path d="M0 283V0h1344v566H0V283m520 276c8-1 53-2 68-2 4 0 38 0 76 1h106c67 0 298-1 312-2 7 0 24 0 36 1 13 0 32 1 43 2 18 0 19 0 21-2 4-4 2-11-8-24-13-16-30-28-54-40-14-7-23-10-58-23l-44-16c-4-3-13-6-18-8-12-4-18-7-28-14-11-8-20-16-23-21-1-4-1-4 1-14 4-16 16-57 22-75 5-15 7-17 18-20 4-1 9-3 13-5 13-8 30-31 36-50 3-6 3-10 3-17 0-9-2-14-8-22-3-3-5-6-6-8-1-3 1-10 5-28 3-14 8-40 11-65 2-12 1-35-2-46-2-9-4-16-11-35-6-15-8-17-23-20-9-1-17-2-116-2S785 5 776 6c-5 1-10 3-11 3-4 2-13 15-17 24-11 24-18 48-22 75-3 16-6 27-15 44s-10 21-10 38c0 23 4 41 16 66 4 9 7 21 12 46 4 21 4 22 4 42 1 28-2 39-10 44-3 2-5 3-24 3-27 1-27 1-46 20-32 32-42 39-63 47-5 2-14 5-20 8-21 10-34 15-48 21-43 16-63 27-80 44-8 9-16 20-16 23s5 5 15 6c12 1 67 0 79-1z"/></svg>