<svg xmlns="http://www.w3.org/2000/svg" width="1344" height="566"><path d="M0 283V0h1344v566H0V283m864 276c5-1 14-2 19-3s13-2 18-3 13-2 18-3 13-3 17-3c11-2 49-5 64-5 7 0 11 0 12-1s2-5 2-17c1-13 1-17-1-26-4-19-4-23-6-43 0-11-1-24-2-28-1-5-1-9 0-12 2-8 1-11-2-16-7-12-15-18-28-20-3-1-9-2-13-4-5-2-10-4-12-4-6-2-20-9-21-11-1-1-1-2 0-5 3-6 3-7-3-11-3-2-7-4-8-4-3 0-8-5-8-8 0-1 1-2 2-3 2-2 4-2 13-2 16 1 16 1 15-16-1-16-3-23-13-48-1-3-3-7-4-9 0-3-3-9-4-14-2-4-4-10-5-12s-2-6-3-8c-3-8-6-16-7-21-1-2-2-6-3-8s-3-8-6-13c-4-12-6-16-10-26-1-4-4-11-6-14-6-16-18-39-27-51-6-8-24-26-28-29-2-1-6-3-8-5-7-6-12-9-20-12-23-11-44-14-60-9-8 2-22 6-38 10-19 4-32 10-42 18-11 9-22 28-28 46-4 13-10 38-12 48 0 2-1 7-2 10 0 2-1 9-1 14-1 4-2 10-2 12-1 2-2 11-3 20-2 14-2 24-3 75 0 48-1 58-2 59-1 2-2 2-9 2-4-1-12-1-16-2h-10l-10 5c-5 2-13 7-18 11-4 3-9 7-12 8-2 1-4 2-5 3-1 2-12 7-15 7-1 0-4-1-6-1-2-1-5-1-6-1-1 1-8 5-14 9-9 7-13 9-18 11-4 1-12 5-17 7-9 5-11 6-14 10-6 9-8 11-14 14-5 2-7 2-20 3-20 1-25 4-20 12 2 4 3 11 1 15-1 2-3 8-4 13-2 6-4 13-5 16s-2 9-3 12c-1 7-1 7 0 11 2 3 2 3 0 8-2 4-2 6-1 8 0 4 3 7 6 7 1 0 3 1 5 3s4 2 11 2h33c6-1 16-1 23 0 10 1 13 0 17-1 2 0 7-1 11-1 5 0 7-1 11-3 5-3 16-4 32-4 10 0 13 0 25 3 25 7 47 10 65 9 37-3 87-3 108 0 20 4 25 5 36 10 13 7 13 7 55 8 42 2 48 2 59 1z"/></svg>