<svg xmlns="http://www.w3.org/2000/svg" width="1344" height="566"><path d="M0 283V0h1344v566H0V283m885 275c8-2 11-15 11-47 0-13 0-25 1-29 1-5 1-10 0-22-2-16-5-39-8-50 0-4-1-10-2-14 0-9-3-21-6-32-2-7-4-15-5-18-1-4-2-9-3-11-2-5-5-14-6-26-3-14-5-23-9-33-7-17-11-23-22-38-8-9-10-11-23-17-15-8-20-13-22-22-1-3 3-31 5-39 1-3 1-11 1-20 1-17-1-22-7-32-9-14-19-21-34-25-7-2-10-2-20-2-11 1-13 1-19 4-4 1-9 3-11 4s-6 2-8 3c-5 3-23 20-27 27-8 11-11 25-9 43 1 11 1 12 3 14 4 2 5 9 5 24v10l-6 7c-7 8-10 13-14 27-3 9-11 26-15 32-1 1-4 7-7 14-7 13-12 21-22 32-10 12-16 17-26 24-5 3-11 8-14 10-2 2-9 7-15 11-13 9-22 12-39 13-6 1-15 1-19 2s-13 1-26 0c-23-1-31 0-35 4-2 2-2 2-1 10 0 11-1 17-7 23-3 4-4 6-4 8 0 5 3 11 8 15 6 5 11 5 19 1 8-6 16-8 29-9 29-3 32-3 51-11 2-1 7-2 12-3 4 0 9-1 11-2 11-3 39-5 42-3 0 1 1 3 1 6 0 6 2 11 5 14 5 6 8 14 8 23s1 12 5 16c2 3 2 4 2 10-2 12 2 14 17 6 10-4 12-5 16-3s4 4 2 11c-1 4-1 9-1 16 0 11 2 14 9 20 2 2 6 6 8 9 6 8 10 10 23 12 11 2 14 2 49 2 45 0 64 0 98 1 39 1 47 1 51 0z"/></svg>