<svg xmlns="http://www.w3.org/2000/svg" width="1344" height="566"><path d="M0 283V0h1344v566H0V283m754 279c82 0 132 0 148-2 10-1 11-4 9-19-1-3-2-13-3-22s-3-16-3-17c-1-1-4-3-7-5-5-2-7-4-7-8 0-5-8-15-19-23-6-4-26-13-42-20-24-9-32-14-48-29-11-10-30-32-33-38-1-3-1-3 2-12 4-10 10-21 14-24 2-2 4-3 15-5 5-1 7-2 10-5 4-3 5-5 7-14 4-14 7-29 10-45 2-11 2-16 2-27-1-23-4-35-11-49-11-23-24-37-43-47-9-4-33-13-36-13-2 0-4-1-7-2-6-2-17-4-24-4-12 0-41 6-50 10-7 3-24 17-31 26-10 12-13 23-13 47 0 8 0 17-1 21 0 3-1 10-2 15s-2 10-3 12c-2 3-2 5-2 8 1 4-1 15-5 23-1 4-3 10-3 18-1 7-2 13-3 14 0 1-2 4-5 5-3 3-4 5-6 9-1 4-2 6-6 9-5 4-10 11-17 27-3 6-9 17-14 26-11 20-14 28-18 40-3 11-5 26-4 34 0 6 5 15 11 20 2 2 5 5 7 6 1 1 2 3 2 5 1 1 2 5 2 7 1 2 2 12 2 22 0 14 1 17 2 19 4 3 16 5 48 6 17 1 31 1 31 2 1 0 32 0 70-1h74z"/></svg>