<svg xmlns="http://www.w3.org/2000/svg" width="1344" height="566"><path d="M0 283V0h1344v566H0V283m780 248c6-2 9-3 13-2 6 0 17-2 37-7 3-1 11-3 16-4 6-2 16-4 22-6 25-7 31-8 41-9h27c20 1 20 2 21-13 1-11 0-23-3-36-1-5-2-11-3-15 0-4-1-10-2-14 0-4-1-15-2-23-1-17-2-20-7-22-5-1-13-4-18-5-2 0-6-1-8-2-2 0-10-2-17-3-13-3-19-5-19-7v-13c-1-12-3-19-9-25-3-4-3-5-3-8 1-4 0-6-7-22-9-19-10-20-14-37-5-14-19-54-25-68-2-7-5-15-6-18-1-2-4-9-6-14-2-6-5-12-5-13-1-5-10-18-17-26-10-13-27-24-44-31-35-13-48-14-84-5-13 3-18 5-30 11-15 8-23 14-32 24-14 17-25 42-28 66-1 8 0 52 2 94 1 11 1 24 2 29 0 12 0 16-4 20-3 4-12 10-20 14-15 8-23 15-30 27-5 9-7 11-13 13-6 3-9 2-13 0-3-2-4-2-16 5-5 2-15 7-22 9s-14 5-16 6c-1 1-6 5-10 9-9 10-15 13-24 13-12 0-15 3-22 17-2 4-6 12-8 18-2 7-4 13-5 14 0 1-1 4-2 7 0 3-1 8-3 12-3 10-3 15 1 19 3 3 3 3 10 3 19-2 23-3 26-5 3-1 5-2 6-2 2 0 4-1 7-1 8-3 16-4 24-3 7 1 16 1 25-2 3-1 5-1 7 0 3 1 4 1 8-1 3 0 7-2 10-3 8-2 18-2 25-1 4 1 10 3 15 4 4 0 9 2 10 3 2 1 6 3 18 7 7 2 26 4 50 4 12 0 29 1 38 1 35 2 46 3 50 4 2 0 7 1 10 1 8 1 20 6 25 10 2 2 5 4 6 4 2 1 10 1 20 1 16-1 18-1 25-3z"/></svg>