<svg xmlns="http://www.w3.org/2000/svg" width="1344" height="566"><path d="M0 283V0h1344v566H0V283m636 279c15-1 33-1 40-2 10-1 16-1 23 0 6 1 50 1 117 2 102 0 107 0 109-2 3-2 2-6-2-15-6-12-11-16-21-21-13-7-39-15-60-20-24-6-38-10-44-13-4-1-7-5-13-12-5-6-9-12-10-15l-2-4 3-8c1-4 6-15 11-25 19-38 27-57 33-82 6-23 6-30 6-82 0-42 0-49-1-57-5-25-20-57-37-80-3-5-11-13-16-18-8-8-12-11-23-17-14-9-23-13-39-17-18-4-31-5-57-5-22 0-26 0-36 2-15 3-25 6-37 12-17 8-38 29-50 48-10 16-17 40-19 59-2 22-3 31-6 49-2 10-4 22-5 29-1 11-1 10 4 35 0 4 1 12 1 19 0 14 5 45 10 66 1 4 2 9 2 12 1 4 2 10 3 14s3 11 3 15c0 7 0 8-2 13-7 14-21 24-39 30-2 0-11 2-18 4-7 1-16 3-20 5-5 2-8 3-32 10-49 13-72 24-78 35-2 5-8 14-12 19s-5 8-3 11c2 4 7 5 53 4 94-1 215 0 217 2 0 1 5 1 11 1 5-1 22-1 36-1z"/></svg>