<svg xmlns="http://www.w3.org/2000/svg" width="1344" height="566"><path d="M0 283V0h1344v566H0V283m880 277h106c107 1 140 0 150-3 6-2 7-7 2-15-4-8-8-14-25-33-19-21-28-29-53-48-34-25-52-41-59-53-3-4-7-11-10-16-2-5-7-14-10-19s-8-14-10-19c-12-24-15-30-21-40-14-22-17-28-17-33 0-6 1-7 14-18 17-13 22-27 25-69 0-13-2-48-4-64-4-27-12-49-25-67-7-11-21-23-38-34-20-13-26-16-38-18-12-3-45-3-55 0-5 0-14 2-21 3-9 1-17 2-25 5-7 2-16 5-21 5-22 4-51 27-65 50-10 18-14 41-13 81 1 24 2 38 7 56 2 7 5 21 10 43 3 13 8 27 15 45 3 8 9 22 12 31 8 19 18 39 22 44 1 2 4 4 6 6 2 1 5 3 7 4 2 2 7 4 10 5 11 4 12 6 2 11-4 2-8 4-10 6-3 5-10 10-13 10-4 0-39 25-46 33-9 9-14 22-18 41 0 4-2 10-3 13-2 4-2 6-1 17v24c0 11 1 11 3 14l3 2 72 1c39 0 74 1 77 0 4 0 29 0 58-1z"/></svg>