<svg xmlns="http://www.w3.org/2000/svg" width="1344" height="566"><path d="M0 283V0h1344v566H0V283m669 279c4-1 31-1 61-1 50 0 68 0 152-3 15-1 43-1 60-1s50 0 72-1c30-1 47-1 61 0 11 0 40 1 63 2 40 0 42 0 44-1 4-4 2-13-11-38-13-24-19-34-30-51-14-21-26-35-38-46-28-25-46-35-87-46-6-2-17-5-24-8-21-7-41-14-46-15-11-1-29-7-36-12-26-14-43-21-51-19-3 0-7-2-13-6s-17-30-20-48c-2-11-2-48 0-59 5-24 9-74 6-88-3-23-5-30-12-43-3-7-5-10-11-16-4-3-12-11-17-17-10-9-12-10-20-14-9-4-11-5-17-5-3 0-9-1-13-1-11-3-35-3-50-2-7 1-18 2-25 3-16 2-22 3-29 7-3 2-10 6-16 9-7 3-13 7-14 9-9 10-17 24-19 34-3 10-3 26-2 39 1 9 1 13 0 18-6 40-6 50 4 85 8 28 15 44 36 77 3 6 8 14 11 18 8 14 17 26 21 30 2 2 8 6 12 8 10 5 11 6 9 10-1 3-13 14-22 20-3 2-19 10-35 18-17 9-33 17-36 19s-10 6-16 9c-17 9-34 22-53 40-9 9-19 18-22 21-9 7-14 14-16 24 0 5-3 14-5 20-2 7-3 12-3 14 1 3 5 5 13 6 13 3 168 3 184 1z"/></svg>