<svg xmlns="http://www.w3.org/2000/svg" width="1344" height="566"><path d="M0 283V0h1344v566H0V283m300 276c9 0 16-1 18-1 1-1 5 0 10 0 10 2 200 3 222 1 10-1 20-1 35 0 12 1 53 1 92 2 68 0 70 0 72-2 3-3 3-7 1-23-3-24-8-40-19-70l-14-28c-4-6-4-6-3-16 0-9 0-10-2-11-2-2-9-5-22-10-4-2-10-4-12-5-3-1-11-4-18-7-51-18-61-22-63-26-2-5 1-31 6-43 0-2 2-7 3-11s3-10 4-14c2-7 5-28 5-39 0-8-2-29-7-62-1-7-2-18-3-22-4-32-10-61-15-75-7-18-22-34-45-50-17-11-45-22-60-24-9-1-29 1-35 3-2 0-9 3-16 5-13 4-29 11-37 17-13 10-21 18-25 27-5 11-11 26-14 37-8 26-18 91-20 128-1 10-1 21-2 25s-1 22-2 41c0 30 0 38 1 48 2 12 2 17 0 21s-14 10-25 12-25 9-36 16c-18 14-33 23-44 29-19 10-22 13-23 26 0 4-2 9-2 11-8 18-15 44-20 77 0 4 1 9 2 12 2 1 4 2 18 2 21 1 75 0 95-1z"/></svg>