<svg xmlns="http://www.w3.org/2000/svg" width="1344" height="566"><path d="M0 283V0h1344v566H0V283m697 277c31 0 34 0 36-2 2-3 2-12 0-28 0-7-1-17-2-23 0-9 0-11 2-15s6-7 10-7c1 0 10 5 19 11 7 5 42 23 48 25 2 1 9 3 15 4 16 3 19 3 39-7 16-7 17-8 25-16 5-5 13-15 19-22 9-13 24-36 27-43 2-5 7-33 7-39 0-5 0-6-4-9-5-5-8-5-23 1l-11 6h-13c-9 0-14 0-18 1-9 3-13 3-16 2-4-2-11-10-12-14 0-2-1-9 0-17 0-13 0-14-2-16-1-2-4-4-7-4-3-1-6-4-9-7s-7-5-8-6c-2 0-8 1-15 2s-14 1-18 1c-21-2-28-3-32-4-3-2-8-2-18-2-17 0-23 1-43 6-16 4-18 4-19-1 0-3 1-8 10-40 3-10 6-21 6-25 2-8 5-28 5-36 0-6-2-26-4-32-1-3-2-9-2-14-4-20-13-62-16-75-2-4-4-12-6-17-3-12-6-19-13-31-12-20-23-31-44-45-22-15-31-18-54-17-13 1-17 1-26 3-5 2-14 4-20 4-17 2-28 7-42 21-19 19-30 44-39 86-4 22-7 64-7 103 0 26 3 53 11 85 1 8 1 16 0 20-3 4-7 7-16 11-10 5-18 9-31 19-14 10-21 16-29 25-10 10-14 15-14 21-1 7 0 24 5 49 3 22 3 23 3 46 0 19 0 25-1 30-3 11-2 19 2 15 3-2 5 0 5 2 0 3 3 6 7 6 3 0 11 4 15 7 3 2 4 3 21 3 29 1 259 0 297-1z"/></svg>