<svg xmlns="http://www.w3.org/2000/svg" width="1344" height="566"><path d="M0 283V0h1344v566H0V283m364 278c4-1 11-2 15-3 7-1 7-1 11 1l4 2h91c3 0 77 0 165 1h201c43 0 43 0 46-2 4-2 4-2 10-1 13 4 90 3 97-2 5-3 5-5-1-44 0-6-1-14-2-19s-2-13-2-18c-4-22-3-25 2-33 7-9 17-11 46-7 8 2 20 3 25 4 9 1 45 7 57 10 12 2 23 9 28 16 1 2 6 7 11 12 10 9 13 10 20 8 5-1 16-9 24-16 5-5 8-7 14-10 7-3 13-7 13-9 0-4-7-10-14-12-3-2-10-5-13-7-4-1-12-4-18-6-5-2-11-4-13-5-3-3-29-12-40-14-8-1-14-4-22-8-7-3-12-5-12-5-3 0-19-8-29-15-6-4-16-9-21-11-21-9-34-18-49-36-13-16-18-24-43-66-5-8-12-19-15-23-10-13-12-20-8-28 1-2 7-8 13-14 17-16 25-28 33-51 6-18 9-33 9-41-2-18-20-39-39-45-6-2-9-2-20-2-12 1-15 1-23 4-9 3-10 4-17 11-9 9-13 16-18 31-6 17-11 26-25 41-9 10-12 12-27 13-17 3-19 4-25 12-4 5-10 11-19 19-8 5-17 14-21 18s-8 7-9 7c-2 0-4-4-7-17-7-23-12-38-20-56-15-31-33-46-69-59-20-7-29-8-47-8-13 0-16 0-22 2-20 6-43 16-51 21-15 11-29 33-36 56-2 8-2 11-2 23 0 8 0 20 1 26 1 7 1 26 2 42s1 31 2 33c0 2 0 11 1 21 1 18 6 44 10 58 9 25 12 34 12 37 0 5-3 8-11 8-4 1-9 2-14 5-19 8-31 12-41 15-19 5-35 11-41 16-4 3-9 14-12 23-9 39-14 55-17 55-2 0-3-4-8-22-5-17-6-24-8-66-1-13-2-30-3-36 0-6-1-17-2-23-4-38-4-41-9-62-9-32-13-46-18-58-6-16-6-15 8-30 14-13 18-19 26-35 5-11 5-11 5-19 0-9-4-35-7-44-4-14-12-23-27-30-16-8-19-9-35-8-30 0-47 8-52 26-2 8-3 31-2 53 1 11 1 14 0 17-3 6-8 11-15 15-8 5-12 9-16 17-4 10-4 10-13 16-4 4-10 9-14 13-7 7-10 12-12 25-3 10-5 19-9 28-4 11-10 34-14 54-2 9-4 19-4 23-3 14-4 25-4 39 1 18 3 44 4 56 1 4 2 15 3 22 1 9 1 24 1 40 0 18 1 25 2 27 1 3 4 5 9 5 6 1 179 0 186-1z"/></svg>