<svg xmlns="http://www.w3.org/2000/svg" width="1344" height="566"><path d="M0 283V0h1344v566H0V283m572 110c11-1 14-2 20-5 8-5 19-8 34-12l12-3 6 3c3 2 8 3 10 4 2 0 6 1 7 1 1 1 9 1 16 2 8 1 18 2 23 2 8 1 11 1 20 0 6-1 16-2 21-2 14-1 27-3 52-10 20-5 25-6 36-6 7 0 15 1 19 2 11 2 11 2 11-13-1-6-2-16-2-22-3-22-4-32-3-43 1-6 2-11 2-12 1 0 3-2 5-2 7-2 7-3 7-10 0-3 0-7 1-8 2-4 5-20 7-37 3-23 3-57 1-72-3-19-7-38-9-48-8-29-20-44-46-58-18-8-25-9-46-5-28 5-33 8-45 19-13 14-19 29-21 55-3 39-4 65-5 97-1 36-2 43-6 46-2 2-5 2-34 2-18 0-36 1-41 1-7 1-19 4-24 6-1 0-5 2-8 3-6 1-7 2-12 7-3 4-7 7-10 9-5 3-8 2-26-2-7-2-14-3-15-3-7 0-22 7-32 15-3 2-3 3-3 10 0 4-1 12-2 17-2 12-3 11 19 10 10-1 19-2 21-3 5-1 6-1 10 2 5 6 4 8-4 24-8 15-9 20-5 24 1 2 3 5 4 7 2 3 4 5 7 7 5 2 11 3 28 1z"/></svg>