<svg xmlns="http://www.w3.org/2000/svg" width="1344" height="566"><path d="M0 283V0h1344v566H0V283m292 276c9-1 17-1 17 0 1 0 54 1 239 1 109 0 116 0 125-1 5-1 10-3 12-4 3-3 6-10 8-16 1-2 3-9 6-14 3-8 4-12 5-18 1-5 2-10 2-13 1-5 1-21 0-31-1-8-1-9-5-18-1-3-2-9-3-13-1-17-2-18-22-26-4-1-13-5-20-8s-18-8-22-9c-53-21-60-25-64-30-2-3-2-4-2-17 1-13 3-23 11-53 5-15 7-35 7-47-2-15-6-43-9-55-6-25-22-69-29-83-14-25-24-37-44-52-8-6-33-21-41-24-5-2-28-6-38-6s-26 3-31 6c-2 1-7 4-12 6-4 3-10 6-12 8-3 1-9 5-13 7-26 15-43 49-52 103-9 53-15 121-15 166 0 23 2 34 12 49 7 13 6 16-13 23-21 7-35 15-65 38-2 1-9 5-14 9-10 5-18 11-20 15-1 1-1 6-2 10-1 6-2 11-6 22-4 7-7 16-7 19-1 4-3 11-4 17-3 12-5 31-4 35 2 5 2 6 57 5 28 0 59 0 68-1z"/></svg>