<svg xmlns="http://www.w3.org/2000/svg" width="1344" height="566"><path d="M0 283V0h1344v566H0V283m750 249c8-1 18-3 26-6 7-2 20-5 30-7 3 0 10-2 14-4 5-1 12-3 15-4 11-2 24-6 39-11 8-3 16-5 17-5s3-1 5-2c3-2 5-2 24-2 17-1 20-1 22-2 3-3 4-19 2-37-1-9-3-22-4-31-1-17-4-28-7-31-2 0-6-2-10-3-24-6-33-10-38-16-3-3-3-4-3-9 0-7-4-27-6-31 0-2-2-3-4-4-5-1-12-6-12-7 0-3 4-5 10-6 7-1 8-2 6-10-1-3-3-7-3-8-1-1-3-7-5-12s-4-12-6-16c-1-4-3-9-3-12-5-16-7-24-20-63-18-52-17-49-24-61-10-19-24-34-41-44-7-3-28-13-38-16s-12-3-22-3c-8 0-14 0-18 1-3 1-12 3-20 5-34 6-46 12-57 26-8 10-18 36-23 55-2 11-3 16-4 34-3 33-3 39-3 80-1 46 0 43-9 47-8 3-43 23-48 28-6 5-9 10-14 21-2 5-4 10-6 11-5 5-14 6-20 3-4-1-4-1-9 1-3 2-9 5-13 8-4 2-10 5-14 6-14 5-21 10-28 21-2 3-5 5-10 7-7 4-9 4-15 4-12 0-13 2-22 22-9 22-13 44-8 47 2 2 12 4 17 4 3-1 4-1 7 2 5 3 8 4 16 2 3-1 10-3 15-4 8-3 9-3 16-2 9 1 23 0 42-3 2 0 6-2 8-3 9-3 34-1 45 5 3 2 8 3 10 4 2 0 4 1 5 1 1 1 7 2 13 3 9 2 14 2 30 2 43-1 59 0 69 1 6 0 14 1 18 1 13 1 27 5 36 10 2 1 6 5 9 7 4 5 8 6 13 7 0 0 4 0 8-1z"/></svg>