<svg xmlns="http://www.w3.org/2000/svg" width="1344" height="566"><path d="M0 283V0h1344v566H0V283m530 277c5-1 9-1 14 0 8 1 89 2 119 1h21l4-3c5-4 8-10 10-16 1-3 3-7 5-10 6-7 8-12 8-20 0-9-2-24-6-35-1-5-3-11-3-13-1-2-4-9-6-14-4-9-5-10-5-20-1-11-2-14-7-17-2-1-15-7-34-15-7-3-18-7-24-10-7-3-16-7-22-9-14-6-23-11-26-15-2-3-2-4-2-10 1-7 7-27 13-38 2-4 5-12 7-17 4-10 4-10 5-32 2-17 2-22 0-30 0-5-2-14-3-21 0-6-2-15-3-19 0-4-1-9-1-11-1-4-3-12-7-32s-11-42-17-58c-9-21-25-42-42-54-14-11-35-21-51-25-12-2-33-1-41 2-3 2-11 4-17 6-29 7-42 15-56 33-8 10-13 20-19 37-9 29-19 78-22 120-4 48-4 59-4 84 0 19 0 29 1 36 4 19 5 30 4 32-1 4-8 9-18 14-9 5-13 6-30 12-11 3-16 6-29 15-25 18-29 21-43 29-11 7-17 12-19 16-1 1-2 6-2 10-1 6-2 10-6 20-5 14-9 28-10 37-1 4-2 11-3 18-3 14-3 16 0 20l3 2h53c32 0 60 0 67-1s13-1 14 0c1 0 44 1 154 1 31 1 57 1 58 1 0 1 3 1 18-1z"/></svg>