<svg xmlns="http://www.w3.org/2000/svg" width="1344" height="566"><path d="M0 283V0h1344v566H0V283m1040 277c30 0 47 0 60-1 20-2 24-3 27-7 2-2 2-3 1-7 0-7-4-16-7-22-5-8-12-15-24-24-14-10-26-22-34-31-12-16-20-22-61-50-11-8-20-19-33-40-3-5-7-12-8-14-2-2-5-7-6-9-5-9-17-21-23-24-12-6-23-14-24-17-2-4-2-10 0-20 2-13 6-19 15-23 11-6 23-16 26-22 1-1 3-7 4-12 3-9 3-12 4-31 1-12 1-24 2-26 3-13 2-58-1-70-1-2-2-6-2-8-1-1-2-5-3-8-1-2-3-8-5-12-8-23-23-41-50-61-19-14-20-14-46-14-12-1-32-1-46-1-40-2-66 1-83 10-10 5-22 13-29 20-3 3-9 11-14 18-18 27-24 54-23 98 1 26 4 44 12 63 1 3 3 9 3 13 2 13 6 29 14 51 5 11 10 27 13 34 7 20 19 43 26 51 3 4 5 7 5 8 0 2-3 4-12 8-4 2-11 5-16 7-36 15-60 29-66 38-4 8-4 10 12 25 10 9 17 18 25 29 7 9 13 16 14 17 3 3 5 7 6 13 1 3 3 10 6 15 3 9 5 10 9 14 3 2 6 5 7 6 0 3 7 10 10 12 2 1 6 2 8 2 9 2 50 3 157 2h150z"/></svg>