<svg xmlns="http://www.w3.org/2000/svg" width="1344" height="566"><path d="M0 283V0h1344v566H0V283m877 278c1 0 22-1 47-1s52 0 60-1c9 0 40-1 70-2 53 0 55 0 60 2 11 4 33 2 44-3 9-5 10-6 8-21-1-6-3-14-3-16-5-17-7-31-10-71-1-20-5-50-9-74-1-6-3-16-4-23-4-25-12-56-17-64-5-12-18-26-28-32-7-5-27-14-50-23-7-3-16-7-19-8-9-5-21-15-24-19-2-3-2-4-2-21v-20c1-1 3-5 5-8 8-9 11-16 12-25 0-9 0-12-4-16-3-4-3-4-3-20-2-34-4-40-18-55-10-10-11-10-18-13-10-3-23-4-32-2-4 1-8 3-10 3-10 2-25 10-36 19-6 5-11 14-12 23-1 3-2 16-2 29-1 13-1 26-2 29 0 7 1 12 9 28 8 15 13 30 14 40 0 9-1 11-7 15-2 1-6 5-10 8-12 11-23 17-45 28-36 17-50 30-65 60-3 5-6 14-7 19-5 18-11 52-16 84-2 12-4 25-5 30-1 6-1 13-1 24 0 13 0 15 3 24 3 13 4 24 0 34-2 6-3 9-3 16 0 9 1 12 6 16 7 6 11 7 23 8 16 1 100 0 101-1m-620-1h105c26 0 30 0 33-2 3-1 5-1 9 0 10 2 37 3 175 3l141-1 2-2c4-3 4-7 1-18-2-5-5-16-6-23-2-7-5-15-5-17-1-2-3-7-4-12-2-13-5-17-20-32s-17-17-18-32c0-12-3-30-5-39-1-6-1-10 1-17 0-1 2-5 5-8 4-6 5-8 5-13 1-4 2-8 3-10s2-8 2-13c1-7 2-13 4-18 1-3 3-8 4-10 1-5 1-8-3-16-4-9-6-18-7-33-2-19-5-29-15-49-8-17-18-27-34-34-11-6-18-8-33-11-11-2-13-2-27-1-10 1-16 2-21 3-17 6-35 21-42 34-9 15-16 39-21 63-1 8-3 17-3 20-3 12-6 31-7 46-4 37-10 53-22 66-5 4-13 16-17 25-3 5-6 12-9 21-5 16-10 30-13 31-5 4-9-10-9-37-1-21-2-24-7-50-2-7-3-15-4-18-2-12-6-26-10-35-5-11-12-19-29-31-13-10-21-17-22-22 0-3 2-10 8-26 2-5 6-17 8-26 3-16 3-17 3-32-2-46-5-58-18-70-7-7-16-12-29-17-7-2-9-2-20-2-9 0-13 0-19 2-12 3-21 8-28 15-10 11-12 17-13 40 0 10-1 19-2 22-1 4-1 5 1 12 1 4 5 13 8 20l6 14 1 10c0 7 0 11-1 13-1 1-3 3-6 4-6 3-11 8-18 17-5 8-12 14-25 25-6 4-11 10-13 12-2 3-8 9-14 14-16 13-25 23-29 31-7 13-11 31-11 52 0 17-2 33-5 49s-3 23-2 31c1 6 8 25 13 34 1 3 3 8 4 11 5 20 11 32 17 36 3 2 39 3 54 2 5 0 29 0 53-1z"/></svg>