<svg xmlns="http://www.w3.org/2000/svg" width="1344" height="566"><path d="M0 283V0h1344v566H0V283m276 278c4-1 6-1 11 0s54 1 240 1h267l3-3 3-3 14 2c12 2 15 2 35 1 15 0 23 0 27 1s25 1 58 1c58 1 57 1 60-5 2-4 1-16-2-36-1-7-3-19-4-27s-3-18-4-21c0-4-1-12-2-18-1-16 0-18 12-27 5-4 12-8 15-10l5-3h37c23 0 45 0 59 1 26 2 54 1 63-1 18-3 28-13 22-22-3-4-7-5-30-7-27-1-31-2-37-9-12-13-11-13-40-2-10 4-33 3-56-2-21-5-50-24-57-38-4-6-8-24-11-43-3-21-4-24-8-33-1-4-5-12-7-17-4-10-5-15-3-18 1-1 4-6 7-10 8-9 18-31 23-48 6-21 8-49 5-65-5-22-12-36-21-45-7-7-8-8-24-14-10-4-11-4-23-4-11 0-13 0-24 4-14 5-22 9-30 17-5 6-8 11-11 19-1 5-1 9-2 42 0 43 1 41-11 52-9 9-11 10-19 10-4-1-10-1-15-2h-8l-4 4c-2 2-5 7-6 11-5 12-9 18-21 34-22 27-33 47-40 70-2 9-2 11-2 28 0 13 0 22 1 28 3 14 4 45 2 54-1 4-1 15-2 25 0 16 0 18 2 26 2 9 2 12-1 12s-23-13-28-19c-7-8-9-17-10-59-1-35-5-86-7-101-1-3-1-10-2-16-4-38-10-65-22-98-2-8-10-23-14-28-5-8-19-22-27-27-11-8-27-15-48-22-12-4-18-5-28-5-22 0-67 17-82 31-14 13-27 37-30 60-2 7-2 21-2 80-1 74-1 77-4 73-2-2-6-12-11-31-5-14-6-18-13-27-3-4-6-9-7-12l-5-5c-6-1-8-6-4-14 1-4 3-6 7-8 9-6 18-20 23-35 2-7 2-9 2-28 0-27-2-47-4-55-1-5-3-8-7-12-9-10-26-19-41-22-3-1-12-1-21-1-22 0-30 2-42 15-7 7-9 11-12 18-2 8-2 29 0 47 2 9 2 20 2 28 1 16-1 21-8 26-6 3-12 9-14 13-5 8-18 22-30 34-7 6-19 18-27 25-12 13-14 15-18 23-4 9-11 33-16 56-6 26-8 40-6 56 0 6 1 20 2 30s2 26 3 36 3 26 3 36c1 19 1 22 7 24 7 4 30 6 65 6 17-1 28-1 30-2z"/></svg>