<svg xmlns="http://www.w3.org/2000/svg" width="1344" height="566"><path d="M0 283V0h1344v566H0V283m544 278h100c53 1 75 0 79-2 3-2 5-7 5-16 0-5 1-11 2-15 1-6 1-7-1-11-1-2-2-6-2-9 0-4-1-6-6-14-2-2-6-11-9-20-10-25-11-27-15-35-4-7-4-8-4-18 0-14 3-12-45-30-4-2-12-5-16-7s-14-6-22-9c-35-12-38-14-43-19-2-1-3-4-4-6-2-6 1-22 5-36 10-32 12-37 13-48 1-13 0-33-6-66-12-68-25-105-48-135-22-28-42-40-81-46-23-4-40 0-74 15-12 5-16 8-23 15-19 22-33 55-41 101-5 31-6 36-8 43-4 24-8 61-10 89-1 10-1 25-2 33-1 9-1 19 0 26 1 17 1 28 0 31-3 4-5 6-14 9-12 5-19 9-38 21-10 7-23 15-30 18-8 4-15 8-16 9-5 4-7 8-8 18-1 6-2 12-6 22-8 21-10 29-10 32 0 1-1 5-1 8-3 9-5 25-5 35-1 11 1 14 6 16 2 1 83 1 122 0 17-1 169 1 170 2h20c12-1 41-1 66-1z"/></svg>