<svg xmlns="http://www.w3.org/2000/svg" width="1344" height="566"><path d="M0 283V0h1344v566H0V283m831 278c6-2 10-6 14-15 4-6 4-9 3-24 0-4 0-6 4-13 4-9 10-19 21-36 4-6 9-17 12-23 4-7 8-16 10-20s6-10 11-16c12-14 16-24 11-32-1-1-3-7-4-11-2-14-8-21-13-18-4 2-12 17-13 22-1 10-10 19-18 19-4 0-6-1-6-4s8-18 13-26c4-6 4-7 4-13 0-7-2-10-9-13-4-1-7-1-20 0-1 0-3 0-3-1-1-2-1-3 2-6 4-4 12-19 14-27 1-6 1-14-2-18-2-3-7-5-12-4-6 0-9 2-12 9-3 5-18 23-25 28-4 4-9 5-24 6s-17 1-21 7c-3 4-13 22-16 28-3 7-10 27-11 34-2 8-7 28-9 32 0 3-2 6-2 8-1 1-3 8-6 14-4 6-6 11-6 12s-3 7-9 18c-3 5-7 13-10 19-8 13-13 21-18 23-3 1-3 1-6 0-6-3-29-25-30-28 0-2-2-8-3-14-1-7-3-13-7-20-6-13-10-17-25-26-19-12-20-14-12-19 9-5 13-10 17-23 2-6 7-21 11-34 9-27 11-37 14-54 2-16 2-56 0-73-1-6-2-16-3-21 0-4-1-11-2-15 0-3-1-10-2-16-1-11-7-42-9-48-1-3-3-8-4-11-3-11-10-25-16-34-17-26-46-49-72-57-9-3-32-4-42-1-3 1-12 3-21 5-32 5-37 7-54 25-7 7-14 15-17 18-2 3-5 8-7 11-5 6-8 14-14 33-8 22-8 24-13 43-4 16-11 54-15 89-2 10-4 21-5 24-2 9-3 33-3 66 0 29-1 50-3 57-1 3-7 13-14 24-7 10-15 23-18 29-6 9-16 32-16 34 0 0-2 7-5 14-9 25-10 26-10 30 0 2 2 6 3 10 2 3 4 8 4 11 1 3 2 6 5 8l3 3 24 1h150c158-2 262-1 292 0 27 2 68 2 75 0z"/></svg>