<svg xmlns="http://www.w3.org/2000/svg" width="1344" height="566"><path d="M0 283V0h1344v566H0V283m998 164c1-1 3-4 4-6s5-9 9-15c8-10 8-10 8-20 1-6 2-11 7-23 3-9 8-19 10-24 6-9 7-15 7-29 0-7-1-11-2-15-2-7-4-10-14-21-4-5-8-11-10-14-3-5-3-6-4-19-1-16-3-31-4-37 0-3-1-7-1-11-2-16-7-35-12-45-3-7-14-17-22-20-3-2-7-4-9-5-5-3-10-3-20 0-5 2-9 3-10 3-2 0-11 5-14 7-4 4-8 11-12 20s-5 19-5 36c0 7-1 11-2 18-3 9-5 12-12 16-6 3-8 6-14 16-4 6-5 9-6 17-1 6-3 16-5 23-2 6-3 13-3 14 0 3-4 7-10 10-5 3-13 11-16 16-1 3-1 6-1 15 0 13 0 16 7 24 5 8 9 11 16 13 10 2 10 2 12 5 2 2 2 3 1 7-2 7 0 10 7 12 3 1 7 2 8 3 6 4 25 13 30 14 7 0 24 5 36 8 5 2 12 3 16 4s9 2 12 2c7 2 16 2 18 1z"/></svg>