<svg xmlns="http://www.w3.org/2000/svg" width="1344" height="566"><path d="M0 283V0h1344v566H0V283m277 276c3-1 4-1 7 0s26 1 114 1h198c68 1 80 1 83-3 2-2 2-3 2-14 0-14-1-16-8-24-6-7-8-13-4-20 1-4 1-5-2-16-2-6-5-14-7-18s-2-8-3-16c-1-14-3-16-25-25-6-2-18-8-26-12-9-4-16-7-17-7 0 0-29-13-40-18-5-3-8-6-8-11 0-4 15-49 22-64 4-8 6-18 9-33 2-12 2-14 1-35-1-13-1-26-2-28 0-3-1-17-2-31-3-65-12-90-40-116-17-16-34-27-50-34-12-5-19-7-31-8-11-1-20 0-38 5-7 2-18 5-24 6-19 4-31 12-43 27-15 19-26 47-33 83-8 46-13 83-16 105 0 9-1 16-2 17 0 2-1 11-2 22-2 15-2 24-2 52-1 37 0 34-10 40-5 3-12 6-30 13-9 4-21 10-29 16-12 9-22 16-35 24s-23 16-25 21c0 1-1 4-2 6 0 3-4 11-8 20-9 17-13 28-16 44-3 14-2 24 2 29 3 4 1 4 77 4 47-1 63-1 65-2z"/></svg>