<svg xmlns="http://www.w3.org/2000/svg" width="1344" height="566"><path d="M0 283V0h1344v566H0V283m758 277c11-1 27-2 36-2 30-2 49-2 57 0 6 1 15 1 39 2h36c13 1 91-1 94-2 2-1 4-2 5-4 2-3 1-20-1-38-1-8-3-20-3-24-1-5-2-13-3-18s-1-13-1-28c0-18-1-21-2-24-3-4-9-9-24-19-2-1-7-5-11-7-9-6-14-9-26-13-19-7-21-8-26-12-7-6-9-9-9-15 3-19 5-74 3-88-4-36-7-52-10-64 0-3-1-8-2-10-1-3-2-10-4-14-1-5-3-12-4-16-2-11-11-37-17-50-11-26-21-41-35-57-14-13-20-18-36-26-17-8-26-11-56-16-4-1-10-3-14-4-7-1-13-1-24 2-15 4-35 16-51 31-13 12-19 20-25 32-10 21-13 39-13 74 0 12 0 28 1 36 2 24 1 43-1 46s-6 5-15 7c-9 1-16 1-23-1-7-1-14-1-21 0-26 7-47 11-60 10-7-1-38-8-48-12-11-4-21-6-30-6-10 0-11 0-38 10-7 3-15 6-18 6-2 1-7 3-11 4-10 3-15 5-35 19-12 8-29 23-33 28-4 6-7 12-10 21-2 6-2 9-2 18 0 13 1 18 11 36 4 7 7 13 7 14 0 0 6 12 13 27 16 32 22 41 37 53 9 8 14 11 25 14 3 0 11 3 18 5 8 2 18 5 23 7 33 9 43 12 48 14 2 1 9 3 15 6 26 9 38 15 44 21 4 4 4 5 6 13 0 8 3 10 12 12 5 1 35 1 80 1 41 1 76 1 78 2 5 1 26 1 54-1z"/></svg>