<svg xmlns="http://www.w3.org/2000/svg" width="1344" height="566"><path d="M0 283V0h1344v566H0V283m354 277c44 0 56 0 72-2 5 0 12 0 19 1 8 2 17 2 43 1h257c37 0 72-1 75-3 1-1 2-2 2-3 1-2 2-8 3-14 2-13 2-18-2-26s-12-13-58-36c-20-10-38-19-39-20-27-14-30-16-31-19-2-3-1-4 7-26 3-9 6-18 7-22 1-3 3-12 6-20 9-22 13-38 17-62 2-13 2-14 1-38 0-13-2-28-2-35-3-17-6-42-7-48 0-8-3-23-8-43-7-36-23-66-47-91-14-15-24-22-46-32-32-16-46-18-77-12-18 4-19 5-30 8-3 2-11 4-15 5-17 4-30 12-44 27-24 28-44 81-52 146-2 16-5 48-7 61 0 4-1 13-2 20-2 23-1 55 4 84 3 19 4 27 7 41 3 17 2 20-3 25-6 4-19 10-29 12-16 3-18 4-48 23-4 3-14 8-21 11-13 7-27 16-42 25-17 11-18 13-20 29-1 5-3 13-3 17-3 12-2 15 4 17 2 1 17 1 35 0 17 0 50-1 74-1z"/></svg>