<svg xmlns="http://www.w3.org/2000/svg" width="1344" height="566"><path d="M0 283V0h1344v566H0V283m510 275c3-2 8-21 10-34 0-3 1-9 2-13 2-10 1-21-1-33-4-16-25-61-33-72l-17-17c-8-8-15-15-16-17-3-6-3-10 4-23 3-7 7-15 8-18 1-4 4-8 8-12 5-6 8-8 14-11 11-5 14-8 14-16 0-3-1-10-2-15 0-5-1-14-2-19 0-11-1-13-8-22-4-5-8-13-14-27-8-22-17-33-30-39-4-2-10-4-13-5-11-2-37 0-51 4-7 2-12 5-23 13s-16 14-20 22c-5 11-6 16-7 40 0 17-1 25-2 33-2 9-2 11-1 21 0 7 1 16 1 21-1 4-1 23-1 40l-1 32 2 3c2 1 4 2 5 2 2 0 4 1 5 2 2 2 2 2 1 8-1 4-3 12-6 20s-5 19-7 30c-2 9-3 17-4 18 0 1-1 8-3 16-1 8-3 17-4 21-1 8-1 15 0 20 1 2 1 8 2 13 1 11 2 13 6 16 2 1 12 1 92 1 85-1 90-1 92-3m386 0c21 0 58 1 82 1 42 1 43 1 48-1 4-2 7-3 8-5 2-3 4-18 6-38 1-6 2-18 3-27 4-35 6-50 7-62 4-43 3-55-2-72-6-19-17-38-34-65-10-14-14-19-30-36-21-21-23-25-25-35 0-7-3-10-11-12-3 0-8-2-10-4-4-2-6-4-9-12-6-10-6-14-3-28 1-10 3-16 11-43 7-26 9-36 6-49-2-11-1-11-8-23-8-14-12-19-24-25-8-4-12-5-23-7-18-4-27-3-57 7-18 6-22 9-31 19-8 9-9 12-10 25-1 9-2 15-4 24-2 6-3 15-4 21-1 13-3 19-7 31-2 6-4 12-4 14 0 4 23 51 26 55 3 3 8 6 18 9s14 4 17 7 6 9 6 12-7 13-16 22c-7 7-16 22-18 26 0 2-1 8-2 14-1 9-1 11-7 24-7 15-13 28-16 38s-9 36-10 41c0 3-1 10-2 15-5 22-6 30-8 35 0 2-2 11-3 19-2 8-4 18-5 21 0 4-1 10-2 14s-2 13-4 21c-3 16-4 25-2 27 1 1 3 2 5 3 1 1 23 1 56 0 30 0 72 0 92-1z"/></svg>