<svg xmlns="http://www.w3.org/2000/svg" width="1344" height="566"><path d="M0 283V0h1344v566H0V283m339 279c18-1 25-1 32-3l8-2 5 2c4 2 5 2 78 2h350c70 0 74 0 78-1 2-1 5-2 6-2 13 4 17 4 35 4 21 0 34-1 40-4 7-3 10-10 19-38 2-5 4-12 5-16 1-3 3-8 4-12l4-12c3-12 9-37 12-56 3-20 5-27 10-32l3-3h10c9 1 13 1 26 6 8 3 17 5 19 5 3 0 7-1 13-5 9-4 18-7 25-7 5 0 43-4 56-6 5-1 15-3 23-4s21-3 30-5c8-1 21-2 29-3 13 0 15 0 23 2 9 3 9 3 36 1 12 0 17-1 18-2 2-1 3-9 4-21 1-37 1-40-1-46 0-4-2-7-3-8-2-3-11-3-28 1-13 2-16 3-25 7-15 7-29 11-57 13-28 3-32 3-56 2-14-1-28-2-33-2-17 0-33-4-72-17-34-11-49-19-68-39-9-9-16-15-23-20-13-8-20-15-21-18-1-6 1-8 20-27s25-26 31-40c4-7 10-25 12-35 7-26-7-50-36-65-8-4-10-4-17-5-16-1-33 4-46 12-10 7-17 18-24 37-8 21-14 30-29 46-14 13-15 14-33 14-17 1-20 2-25 10-1 2-10 12-20 22-16 16-23 24-32 37-7 10-7 9-13-15-9-37-23-72-35-88-26-33-90-55-129-42-12 4-37 15-44 20-17 11-28 27-37 52-3 9-3 12-4 24 0 8 0 18 2 29 1 11 1 26 2 44 0 32 0 38 9 81 4 21 7 34 11 45 9 26 8 27-7 30-4 0-12 2-16 4-13 6-30 13-37 14-9 2-25 8-35 13-4 2-8 4-9 6-4 5-8 14-9 21-1 6-6 23-12 41-4 13-6 13-11 0-2-5-4-13-6-17-3-9-3-10-4-32 0-23-2-48-7-83-1-7-2-18-3-24-1-11-6-33-10-50-2-5-4-15-6-22-1-8-3-17-4-22-4-10-4-14-4-18 1-1 4-6 8-9 5-5 9-11 12-16s9-14 13-20 7-13 8-15c0-2-1-9-3-21-2-10-3-20-4-24-3-17-7-25-16-32-8-6-11-8-19-11-13-5-29-6-46-4-13 2-24 8-28 18-6 11-7 32-6 56 1 9 1 12 0 17-3 10-6 14-16 19-10 6-18 13-21 22-2 4-4 8-9 14-17 19-19 22-22 33-2 4-6 14-9 21-12 25-16 38-23 82-1 7-3 16-4 21-2 11-1 21 2 59 5 44 5 56 1 96 0 6 0 7 1 10 3 4 10 6 24 7 18 1 132 0 160-1z"/></svg>