<svg xmlns="http://www.w3.org/2000/svg" width="1344" height="566"><path d="M0 283V0h1344v566H0V283m332 278c7-1 15-2 17-2 4-1 16-1 34-1 28 0 29 0 31-2 4-3 5-6 7-25 3-17 4-20 7-18 1 0 4 0 7 1 5 0 6 0 10-2 3-2 6-3 8-3 1 0 4 0 4-1 2 0 8-11 8-14s-4-8-12-17c-3-3-7-8-9-11-3-7-6-11-12-13-3 0-5-2-6-2-2-3-5-13-6-19 0-6 3-26 5-34 3-7 4-19 3-25-1-3-1-7-1-10 0-2-1-6-1-7-1-2-3-8-4-13-6-20-16-35-30-46-12-10-17-14-17-15s2-4 4-6c1-3 5-9 7-14 4-9 5-10 10-13 7-5 8-7 10-15 1-5 3-24 3-28 0-19-3-42-5-50-3-12-4-14-19-22-12-6-14-7-25-10-18-3-25-3-40 4-17 6-23 19-27 50-3 25-5 98-4 108 1 4 1 5-2 9-12 15-17 28-24 57-3 11-4 18-5 33 0 6-1 14-2 18s-1 15-1 25c0 21 2 35 6 48 3 8 3 9 3 28v36c-1 22-2 20 23 21 11 0 22 1 26 1s12 0 19-1m968 0c4-2 5-7 7-23 0-8 1-19 2-24 1-11 3-68 3-110 0-57-3-78-17-118-8-20-15-31-36-52-9-10-18-20-20-23-6-8-12-12-18-14-7-1-13-5-15-9-6-9-11-32-11-42 1-3 1-13 2-22 1-12 1-19 0-30-1-13-1-15-5-25-6-16-8-19-17-23-13-6-16-7-29-7-16 0-25 2-38 9-8 4-11 6-17 12-14 15-18 22-15 35 1 5 2 12 2 17 0 16 4 43 8 54 1 2 3 7 5 10 1 2 3 8 4 12 2 9 5 12 14 15 7 3 12 8 12 11 0 6-4 12-18 25-12 12-13 13-13 17s-4 20-10 34c-1 4-3 11-4 13s-2 9-4 14-3 13-4 17c0 5-1 16-3 24-2 9-4 22-4 28-3 39-4 42-8 49s-19 22-26 25l-6 3-13-4c-7-2-15-5-16-6-5-2-15-3-17-1-4 3-4 6 3 13 3 3 5 7 5 8 0 4-8 14-18 22-3 3-5 5-5 6l6 8c4 4 9 9 11 12s5 6 5 6c1 0 3-1 4-1 3-2 13-2 16-1 1 1 2 3 2 5 1 5 2 6 12 6 5 0 12 0 16 1 10 1 12 3 12 12 0 4 1 6 1 7 1 1 8 2 21 3 15 1 35 2 88 2 38 0 69 0 69 1 1 1 75 0 77-1m-488-2h48l32 1 2-2c3-3 3-4 3-12 0-11-1-28-4-42-1-14-3-92-2-108 1-12 4-45 4-54 1-4 2-14 3-23 2-29-1-50-12-71-6-13-10-19-21-33-12-14-16-18-27-26-12-10-16-14-19-20-3-5-5-6-12-9-3-1-6-2-8-5-6-8-6-9-7-28 0-10 0-19-1-22s-1-7-1-12c2-13-2-35-6-44-3-5-12-14-19-17-8-4-19-5-30-4-16 2-35 16-42 29-2 5-2 6-2 22 0 17 1 26 4 41 2 10 7 19 18 37 17 26 18 29 16 35-1 2-5 9-11 15-14 17-14 17-16 27-2 8-6 19-13 37-4 9-13 50-18 77-4 18-10 50-17 80-1 8-2 15-2 23 0 6-1 16-1 21-1 4-2 13-3 20 0 6-2 18-3 27l-2 17 2 8c2 6 4 10 6 12l3 3 47-1c29 0 49 0 53 1 3 1 12 1 23 0h35z"/></svg>