<svg xmlns="http://www.w3.org/2000/svg" width="1344" height="566"><path d="M0 283V0h1344v566H0V283m670 277c32-1 62-1 66-2 5 0 10-1 11-1 0 0 3-1 4-3 5-4 5-7 2-14-2-4-2-8-2-16-1-6-2-15-3-20-1-7-1-12 0-52 1-74 1-78-2-94-6-27-9-36-18-50-7-10-27-29-43-40-3-1-6-4-7-6-2-3-2-11 1-21 1-4 4-14 6-23 6-22 6-25 6-49 0-52-9-80-35-105-11-11-18-16-35-24-21-11-42-15-71-15-34 1-56 8-76 23-25 19-37 45-42 90-3 24-5 29-9 32s-7 9-7 14c0 2 1 10 3 18 1 9 2 21 3 29 0 11 0 13-2 17-3 6-11 12-22 18-34 16-61 30-89 46-12 7-26 19-42 36-15 16-21 24-35 42-9 12-12 18-17 33-8 24-8 26-8 42 0 14 1 24 4 38 1 7 1 9 0 19-1 6-1 16-1 22 0 10 0 10 2 13l3 2 71-1c39 0 76 0 83-1h36c31-1 100 1 111 2 12 2 57 3 80 2 9 0 43-1 74-1z"/></svg>