<svg xmlns="http://www.w3.org/2000/svg" width="1344" height="566"><path d="M0 283V0h1344v566H0V283m881 277c8-1 12-2 15-7 1-2 1-5 1-24s0-29-4-63c0-7 0-7 3-10s5-7 5-12c0-2 2-8 6-17 8-18 9-25 5-33-2-2-6-8-10-13-4-4-9-10-11-14-8-10-12-14-22-19-21-11-25-13-26-13 0-1-1-4-1-8-1-9-3-20-4-24-2-6-9-10-18-10-11 0-17 4-20 16-1 7-1 8 1 18 2 6 3 13 3 15 0 5-4 11-12 20-4 4-8 9-9 11-3 6-7 38-7 59-1 17 0 19 11 33 4 4 8 10 9 12 3 5 5 22 5 34-1 9-1 12-4 21-2 6-4 12-5 14-1 8 5 12 16 12 6 0 6 0 9-3 2-2 3-3 4-3s3 2 5 4c4 3 5 4 12 5 8 1 29 1 43-1z"/></svg>