<svg xmlns="http://www.w3.org/2000/svg" width="1344" height="566"><path d="M0 283V0h1344v566H0V283m802 278c25-2 240-1 272 1l12 1 3-3c6-5 7-8 6-15-1-9-2-11-6-16-2-3-3-7-4-11-1-10 0-16 7-39 3-11 6-17 21-51 8-17 10-32 6-39-2-4-6-5-10-3-2 0-5 1-6 1-2 0-6-5-9-12s-7-10-11-10c-2 0-4 1-8 5-3 3-7 5-8 5s-5-2-8-5c-3-2-6-4-8-5-4-1-8 2-15 10l-8 7h-9c-5 1-10 1-11 0-1 0-3-4-5-8-5-9-19-29-24-33-4-4-13-9-35-18-26-11-30-13-40-18-14-8-15-8-14-25 0-7 0-18 1-24 1-15 1-40 0-55-4-26-10-42-23-58-10-11-18-17-39-28-19-11-31-16-40-18-9-1-37-1-46 0-9 3-33 15-43 22-10 8-26 26-31 36-4 8-7 19-7 27 0 5-1 9-3 16-5 12-9 22-13 28-3 4-3 5-3 13 0 5 0 14 1 21 0 6 1 16 1 22 0 9 0 11-2 13-3 4-5 5-29 13-35 12-52 19-67 30-14 10-16 14-22 39-2 9-6 17-8 18 0 0-3-1-5-3-7-7-13-5-19 6-4 8-6 9-8 4-3-7-11-20-14-22s-7-3-9 0c-1 1-3 4-4 7-2 3-5 6-6 7-2 1-3 1-5 0-1-1-4-3-6-5-4-3-7-3-10 1-2 2-3 4-3 9-2 9-3 13-6 15-2 1-3 1-9 0-10-2-12-1-14 2-3 3-3 14 0 22 4 13 22 47 37 73 13 22 14 24 12 36-1 4-2 9-1 10 1 2 3 3 15 4s53 0 68-2c11-1 166 0 174 1 3 1 7 2 10 2 4 1 69 0 88-1z"/></svg>