<svg xmlns="http://www.w3.org/2000/svg" width="1344" height="566"><path d="M0 283V0h1344v566H0V283m688 15c3-1 7-2 9-2 3 0 6-1 9-2 4-2 5-4 8-9 3-6 6-20 8-35 1-10 6-19 12-24 4-3 5-3 11-3 5 0 6 0 8-2 3-3 5-11 5-22 0-10-1-13-12-31-3-6-8-15-10-18-5-8-14-18-18-20-1 0-6-2-11-3-11-4-18-7-19-10-1-1-2-6-2-11-1-14-4-21-10-27-7-6-11-8-16-8-8 0-17 6-20 13-2 4-2 4-1 11 1 4 2 8 2 10 0 1 2 5 4 10 2 4 4 10 5 14 1 7 0 9-5 15-4 4-16 18-18 21 0 1-1 7-2 14-1 6-1 13-2 14-1 2-1 5-1 7 0 5-2 11-5 22-2 3-4 9-4 12-2 5-4 12-6 18-1 1-2 6-3 10-3 11-3 12 12 17 4 1 9 3 11 4l5 1 4-3c4-4 5-4 8-3 2 0 7 1 12 1 4 1 9 2 10 3 2 1 6 5 9 10 4 4 7 7 8 7s3-1 5-1z"/></svg>