<svg xmlns="http://www.w3.org/2000/svg" width="1344" height="566"><path d="M0 283V0h1344v566H0V283m816 277c14-1 56-1 136-1 91 0 115-1 117-2 5-3 6-10 11-46 6-47 8-84 6-102-2-16-10-36-27-67-9-17-22-36-29-44-2-3-13-14-23-23-20-19-22-22-23-33-2-8-4-11-12-11-4-1-8-2-9-3-4-1-8-9-12-18-5-12-4-22 2-42 1-3 3-12 5-20 2-9 6-21 8-28 1-8 3-18 4-23 1-9 1-11-1-20-2-12-12-34-17-40-3-4-21-14-30-17-3-1-11-3-18-3-13-2-13-2-23 0-22 4-48 13-57 19-8 5-16 14-19 20-2 5-2 7-2 14 0 10-1 17-5 31-2 6-3 15-4 23-1 11-2 15-6 27-3 9-5 17-5 19s2 6 4 10 5 12 7 19c4 15 10 29 15 34 4 4 12 8 21 9 9 2 10 3 17 11 8 10 9 11 6 15-1 1-4 5-6 8s-8 9-12 14c-16 17-20 24-22 39 0 9-1 12-10 33-3 6-6 15-8 20-3 6-5 13-6 15-2 5-9 28-12 41-6 25-7 31-8 42-1 6-3 14-3 18-1 7-1 36 1 43 1 6 5 14 8 16 3 3 9 5 15 4 3 0 15-1 26-1m-309-1c5-3 6-8 4-25-1-11-2-19-4-28-2-6-4-16-5-21-6-29-9-36-18-47-6-7-18-16-33-26-10-7-12-9-13-15-1-4 0-5 7-20 8-15 9-17 14-21 3-2 8-5 11-7 3-1 8-3 10-4 3-1 6-4 8-5 2-3 2-4 1-9 0-8-1-10 0-35v-20l-5-10c-7-12-10-21-12-31-2-8-8-23-12-29-7-12-16-18-34-21-32-7-52-5-74 6-14 7-29 23-35 38-3 8-4 17-5 51-1 16-1 41-2 56-1 14-1 42-2 62 0 23 0 36-1 37-1 2-4 7-7 11-6 11-11 28-11 37 0 7-1 10-7 29-7 21-7 24-3 39 2 7 3 8 22 8 10 1 31 1 47 1h93c59 0 64 0 66-1z"/></svg>