<svg xmlns="http://www.w3.org/2000/svg" width="1344" height="566"><path d="M0 283V0h1344v566H0V283m863 76c6-4 12-10 14-15 1-2 2-9 3-14 1-4 1-12 2-16 1-10 1-29 0-32-1-2-3-5-5-8-9-10-10-12-14-61-1-15-4-31-7-38-4-10-11-18-20-22-6-3-7-3-19-3s-13 0-19 3-8 5-12 12c-3 3-3 6-5 18-1 15-1 16-1 25 1 6-2 10-8 10-5 0-12 4-14 8-1 2-2 7-3 18-2 13-2 15-4 19-2 2-4 6-5 8-3 8-5 11-14 16-5 2-10 5-11 7-4 3-7 13-8 25-1 16 2 18 20 20 10 1 27 4 46 9 3 1 10 2 15 3s10 1 10 2c1 0 13 2 30 5 3 1 8 2 10 3 9 2 14 1 19-2z"/></svg>