<svg xmlns="http://www.w3.org/2000/svg" width="1344" height="566"><path d="M0 283V0h1344v566H0V283m494 278c2 0 4-5 5-12 0-6-2-20-5-27-3-5-5-14-9-26-7-21-16-36-28-47-8-7-22-18-30-23-14-9-15-12-6-21 3-4 6-8 7-11 6-18 17-30 33-36 6-2 15-8 16-11 1-2 2-9 1-30v-28l-5-9c-8-14-9-16-13-34-6-21-10-31-16-40-8-10-14-13-42-19-23-4-46-3-60 3-6 3-20 12-27 18-12 11-20 28-22 48-1 7-2 20-3 30-1 11-2 27-3 36-2 29-3 38-5 62 0 14-2 26-2 28-1 3-1 13-1 23-1 10-1 19-1 20-1 0-2 3-2 6-1 3-4 10-6 15-3 8-3 11-4 21-1 9-2 15-5 25-6 22-6 32-1 37 2 1 13 1 48 2 40 0 182 1 186 0m370-3c46-1 69-1 140 0 58 1 89 1 92-1 4-2 6-10 9-34 4-30 5-50 5-79v-28l-3-11c-8-21-16-39-28-58-19-30-31-45-48-61-27-25-27-25-30-39-2-8-3-10-12-11s-15-4-17-7c-1-1-3-6-5-10-3-8-3-9-3-18 0-7 0-12 2-17 2-10 4-16 8-32 2-7 4-15 5-18s4-13 6-21l4-17-1-11c-2-16-4-27-10-39s-10-17-21-23-21-9-37-12c-12-1-13-1-26 0-15 2-20 3-36 9-17 6-24 10-36 21-11 12-12 14-11 25 1 9 0 15-5 30-2 6-4 14-4 20-2 16-3 22-8 34-6 17-6 20-1 30 2 4 5 12 7 18 5 17 10 28 13 35 3 6 4 7 10 10 3 1 7 3 10 4 5 0 19 7 23 11 4 3 9 12 9 14s-7 9-19 21c-10 10-20 20-21 22-3 5-7 15-7 23-1 7-4 17-6 20s-13 29-15 34c-1 3-4 9-6 16-5 14-10 33-16 62-1 6-3 15-4 20-1 4-3 13-4 20-8 42-8 40-5 45 1 3 3 4 10 4 9 1 54 0 92-1z"/></svg>