<svg xmlns="http://www.w3.org/2000/svg" width="1344" height="566"><path d="M0 283V0h1344v566H0V283m572 107c6-1 13-2 15-2 3 0 10-1 15-2 6-1 15-3 20-3 5-1 15-4 23-5 7-2 17-5 21-6 12-2 33-2 48 0 25 4 28 4 41 3 7 0 16-1 19-2 2 0 9-2 15-4 6-1 14-3 19-4 7-2 11-2 22-2 7 0 16 0 19 1 5 1 6 1 8 0 1-2 1-8 0-20-1-4-2-13-2-19-1-11-3-25-5-31-1-2-1-6-1-8 0-5 0-6 5-10 4-4 4-4 4-8-1-3 0-8 1-12 0-4 2-15 4-24 2-15 2-19 2-44 1-57-7-91-25-120-4-8-10-13-22-19-16-8-20-9-36-9-12 0-15 0-24 2-22 6-34 13-42 24-11 14-12 18-13 59 0 18-1 36-2 41-1 6-1 15 0 32 0 12 1 30 1 39v16l-3 3-3 2-35-1c-36-1-39-1-48 3-12 6-18 9-23 14-3 3-8 7-12 8-5 4-6 4-13 4-5 0-12-1-15-2-4 0-10-1-13-1-5 0-5 0-12 7s-12 10-23 12c-6 1-9 2-11 3-2 2-2 3-1 9 0 8-1 20-5 41-2 11-2 15 1 18 1 2 3 2 17 2 13 0 16 0 21-2 3-1 8-2 11-3 5 0 6 0 9 2 2 3 2 3 2 9-1 6-1 7 1 8 3 3 5 3 25 1z"/></svg>