<svg xmlns="http://www.w3.org/2000/svg" width="1344" height="566"><path d="M0 283V0h1344v566H0V283m620 277h98c95 1 92 1 95-4 1-1 1-8 1-16 0-21-5-47-14-74-2-4-4-10-5-14s-4-11-7-17c-5-11-6-12-3-19 1-6 1-11 0-14-1-2-4-3-21-11-15-6-46-20-55-24-5-2-12-5-15-6-8-4-14-8-17-12-3-5-2-23 6-74 2-15 1-39-3-73-2-15-3-31-4-37-2-19-7-47-11-58-5-15-12-30-19-39-22-26-36-37-67-47-10-4-13-4-22-5-10 0-11 0-24 4-10 4-17 5-24 6-5 1-11 2-13 2-17 6-39 30-49 54-12 28-20 59-27 112-1 4-2 12-3 18-4 31-5 70-3 89 1 5 3 13 4 17 3 11 3 20 0 25s-14 11-25 12c-6 1-12 2-18 5-4 1-9 3-9 3-2 0-65 31-70 35-4 2-5 7-6 22-1 13-1 17-5 32-3 10-6 24-7 31-3 16-8 60-7 65s5 10 10 11c3 1 17 1 39 1 122 0 146 0 164 1 21 1 122 0 136-1z"/></svg>