<svg xmlns="http://www.w3.org/2000/svg" width="1344" height="566"><path d="M0 283V0h1344v566H0V283m863 277c33-1 41-1 55-3 22-3 40-4 64-4 20-1 21-1 26-3 9-4 9-5 10-20 0-11 0-14-3-28-2-9-4-21-4-27-2-26-4-41-5-43-1-4-1-12 1-16 2-8 2-9-1-14-5-9-19-20-30-21-2-1-6-2-10-3-22-7-29-10-32-13-2-2-2-2 0-5 2-5 1-9-4-11-1-1-4-2-6-3s-5-2-6-2c-2-1-4-2-5-3-2-2-3-7-1-9s11-3 19-2c6 0 7 0 9-2 1-1 2-2 2-4 0-4-5-21-15-52-10-30-16-51-22-80-4-18-6-25-8-33-1-4-3-11-5-17-10-36-20-57-36-72-12-12-36-27-54-35-27-11-45-11-70-3-7 1-18 4-25 6-13 2-24 6-38 13s-23 19-34 46c-6 14-8 23-9 43 0 8 0 19-1 24s-2 15-3 23c0 8-2 18-3 23-3 11-3 26-1 74 1 23 1 47 1 54 0 17-2 20-13 18-3-1-16-1-28-1l-22-1-7 4c-4 3-11 8-17 12-7 6-13 9-18 11-7 3-10 3-16 1-3-1-4-1-9 2-4 2-9 5-12 7-6 5-9 6-25 14-9 3-12 5-17 10-4 4-8 8-9 10s-5 4-8 6c-6 3-8 3-15 3-4 0-11 0-16-1-13-2-32 2-32 6 0 2 2 4 4 4s5 1 8 3c7 5 8 8 5 22-1 7-3 15-6 20-2 5-4 11-4 14s-1 7-2 9c-1 3-1 3 1 6 2 2 3 5 3 8 1 2 1 4 1 5 0 2-1 3-5 5-5 3-8 5-8 7s5 4 11 5c5 1 9 0 17-1 5-1 12-1 16-2 4 0 8-1 11-2s6-1 14 0c14 1 41 0 49-1 4-1 8-2 10-3 7-2 19-4 29-5 8 0 9 0 27 5s29 8 54 11c17 2 30 2 48 0 27-3 78-1 96 3 12 3 20 4 32 6 15 3 16 3 39 2h58z"/></svg>