<svg xmlns="http://www.w3.org/2000/svg" width="1344" height="566"><path d="M0 283V0h1344v566H0V283m693 17c8-1 15-5 18-9 2-4 7-18 8-27 4-26 4-28 11-35 4-4 8-5 15-5s9-2 12-11c3-12 0-26-8-38-1-2-3-5-3-5 0-1-3-7-7-14-9-15-17-24-23-26-12-3-23-8-27-11-2-3-3-4-3-8 0-7-2-19-4-24-1-2-4-6-6-9-10-10-24-9-33 2-5 5-6 8-4 16 1 4 2 8 2 9s2 6 3 9c4 8 6 14 6 20 0 3-1 4-4 8-8 7-20 23-20 26-1 2-1 8-2 14-3 24-3 27-7 37-3 10-5 15-8 26-1 4-2 7-3 8 0 1-1 5-2 9-2 7-2 8-1 10s4 4 7 5c11 4 17 6 20 10s6 4 6-1c0-3 1-5 2-6 2-2 3-2 8-1 4 0 9 1 13 1 7 1 10 3 16 11 6 9 8 11 10 11 2-1 5-1 8-2z"/></svg>