<svg xmlns="http://www.w3.org/2000/svg" width="1344" height="566"><path d="M0 283V0h1344v566H0V283m340 276c14-1 63-1 109-2 83 0 98 0 100-1 1-1 26-1 57 0s80 1 110 2c29 0 64 0 78 1 29 1 64 0 69-2 8-3 6-19-7-51-7-18-16-28-29-37-6-4-10-6-65-34-18-9-32-17-36-20-9-8-31-38-31-43s4-13 16-36c10-21 18-41 25-62 4-14 5-19 6-41 1-12 2-28 2-34 2-16 2-51 0-63-6-40-15-62-34-85-9-10-18-18-36-30-24-17-24-17-72-17-35 0-55 1-66 3-2 1-9 3-14 6-12 6-26 17-35 28-13 14-25 35-31 50-5 15-6 33-4 67 3 26 2 33 0 42-8 21-5 47 5 65 6 9 11 14 24 20 16 8 18 9 23 23 3 11 3 13-4 21-9 11-43 44-52 51-11 8-19 12-32 16-10 3-15 5-38 14-6 3-16 7-22 9-19 6-46 17-54 22-7 4-15 12-19 19-2 2-6 9-10 15-3 6-10 16-13 22-15 21-31 52-31 57 0 4 1 5 5 6 3 1 76 0 106-1z"/></svg>