<svg xmlns="http://www.w3.org/2000/svg" width="1344" height="566"><path d="M0 283V0h1344v566H0V283m813 275c17 0 19-1 24-8 3-4 10-33 12-49 1-12 3-14 8-6 9 16 22 29 39 39 4 2 8 5 9 6 5 4 14 5 43 5 15 0 27 1 28 1 1 1 3 3 3 5 2 4 4 5 17 6 25 2 25 2 36 0 6-1 14-2 17-3 5 0 7-1 9-3 3-3 4-3 4-10 0-8-1-8-8-20-5-10-7-12-12-15-12-8-15-12-18-24-3-19-9-26-37-42-9-5-17-13-32-29-5-6-12-13-16-16-5-4-9-8-12-13-23-35-22-33-22-49s-1-21-9-38c-3-7-7-16-9-19-2-6-4-7-7-9-7-4-13-13-15-25-1-6 1-19 5-34 5-17 5-22 4-39-2-26-4-47-5-56-4-21-13-40-25-50-4-4-7-5-19-9-8-3-16-5-19-6-8-2-27-4-39-4s-14 0-24 3c-13 5-23 11-33 20-15 15-23 32-34 80-10 38-22 73-34 96-4 9-6 12-11 16-19 17-25 23-31 29-3 4-9 12-14 17-10 12-14 19-26 42-19 35-38 83-44 110-1 5-3 16-5 25-6 26-8 45-6 53 1 2 3 6 5 8 4 3 15 10 22 12 6 1 25 3 62 4 25 1 194 0 219-1z"/></svg>