<svg xmlns="http://www.w3.org/2000/svg" width="1344" height="566"><path d="M0 283V0h1344v566H0V283m883 275c6-1 8-3 11-12 2-5 2-10 3-31 1-14 1-27 2-29 1-6-4-39-8-52-2-4-3-10-3-13-1-7-5-24-6-26s-2-5-6-19c0-4-2-11-4-16-2-4-3-11-4-14-1-5-5-18-11-31 0-2-1-6-2-8-1-6-7-19-12-30-11-23-28-41-45-49-9-4-13-8-17-15-3-5-3-7-3-15 0-5 1-14 2-20 5-28 0-47-15-65-5-6-14-13-22-15-3-1-9-3-14-3-10-1-19 1-38 7-14 5-20 10-33 24-15 18-20 34-17 55 1 5 2 7 5 10 5 5 6 10 7 21v11l-5 10c-4 5-7 13-9 18-1 5-3 12-4 15-2 6-6 16-12 26-1 2-4 8-6 14-3 5-6 12-8 14-2 3-4 5-5 7-15 22-19 27-47 52-8 7-15 14-15 14 0 1-10 9-14 11s-15 3-25 3c-6 0-9 1-10 2-2 2-8 1-16-3-6-2-9-3-11-3-2 1-5 1-8 2-4 0-7 2-7 5 0 4-3 9-6 10-1 1-8 3-14 6-14 4-18 7-17 14 1 5 7 18 11 22 4 5 24 11 35 11 5 0 17-2 44-8 26-6 30-6 36 2 13 15 18 18 33 26l15 7 4-1c8-4 25 0 39 8 3 2 7 4 8 5 2 0 4 2 5 4 1 3 1 4 0 8l-1 5 10 11c8 8 12 12 15 14 3 1 9 2 24 2 43 2 184 4 191 2z"/></svg>