<svg xmlns="http://www.w3.org/2000/svg" width="1344" height="566"><path d="M0 283V0h1344v566H0V283m819 274c2-2 3-4 3-6 0-3 2-10 5-18 2-6 2-6 1-24-2-17-3-24-7-47-2-14-2-40 0-52 2-8 5-31 7-40 0-6 2-18 5-29 1-5 1-12 1-22 1-16 0-19-7-32-4-8-5-15-5-26 0-5-1-14-1-20-4-25-4-28-3-34 0-7 0-7-6-19-7-15-7-16-4-36 2-17 2-37 0-48-3-15-7-21-14-25-8-4-31-7-37-4-4 3-16 15-18 20-2 3-5 8-7 12l-4 6-1 13c0 11 0 13 2 17 1 2 2 4 3 4 2 2 1 6-3 8-5 4-9 7-12 12-2 6-6 21-8 39-1 16-6 35-10 44-4 6-13 19-16 20-1 1-4 1-9-1-6-2-10-2-15-2-11 1-14 5-9 13 4 6 10 10 18 12 12 3 17 5 23 7 8 4 11 4 15 0 2-1 6-4 9-6 3-3 9-7 12-10 11-9 13-10 18-5 6 5 8 12 9 22 0 12 3 38 4 41 2 3 6 6 14 11 6 3 19 16 21 21 3 6 3 8-7 30-9 19-10 25-10 47 1 21 1 21-7 32-5 6-6 7-11 9-3 1-7 3-7 4-5 5 15 10 25 5 6-2 12-3 14-1 3 2 4 8 5 33 0 14 1 23 2 25 2 3 4 4 12 4 7-1 7-1 10-4z"/></svg>