<svg xmlns="http://www.w3.org/2000/svg" width="1344" height="566"><path d="M0 283V0h1344v566H0V283m501 277c4-4 3-16-3-31 0-2-2-8-2-13-2-16-8-36-16-50-2-2-6-7-9-11-7-6-28-20-41-28-12-6-13-10-6-19 3-3 7-11 10-17 5-11 6-12 13-18 4-3 12-8 17-11 9-4 15-8 15-11v-57l-5-11c-4-8-6-14-8-22-6-32-8-37-15-48-8-12-17-17-41-22-27-6-48-5-64 2-13 5-32 21-39 33-8 13-12 32-13 71 0 15-1 32-2 39-1 9-1 27-1 58l-1 44-3 8c-2 5-5 13-8 18-7 16-12 33-12 40 0 3-2 12-4 20-7 25-7 34-1 36 1 1 10 1 21 1 11-1 32-1 48 0 16 0 60 1 98 1 67 0 70-1 72-2m593-2c3 0 7-1 8-1 5-2 8-16 10-35 0-6 1-15 2-20 0-5 2-19 3-31 2-40 0-57-14-86-16-33-44-74-64-92-6-5-15-14-20-19l-11-10-2-10c-3-11-4-13-15-14-10-1-13-3-15-6s-7-17-9-25c-1-5 0-16 2-21 1-1 2-4 2-7 1-2 2-6 3-9 0-4 2-10 3-14 0-3 3-13 6-21 9-26 9-29 9-41 0-23-8-50-19-63-5-5-21-13-31-15-4-1-11-3-16-4-4-1-11-1-15-1-19 0-54 9-67 17-8 5-22 17-26 22-3 5-3 5-3 19-1 13-1 16-4 25-2 7-4 16-5 21-2 19-4 29-8 39-5 14-6 18-1 27 2 4 5 11 7 17 6 22 13 39 17 43 3 2 16 7 19 7 4 0 18 8 21 12 4 5 9 13 9 15 0 4-3 7-13 16-6 5-11 10-11 10s-4 5-9 11c-9 9-10 11-12 17-1 3-2 9-3 13 0 3-3 10-5 14-7 17-18 46-21 58-2 4-5 14-7 21-4 14-6 21-9 33-1 5-3 14-5 20-1 5-3 16-5 24-1 7-3 17-4 21-2 12-1 20 1 22l2 2h69c38-1 81-1 96-1 35-1 141 1 142 2h6c2-1 8-1 12-2z"/></svg>