<svg xmlns="http://www.w3.org/2000/svg" width="1344" height="566"><path d="M0 283V0h1344v566H0V283m766 276h42c1 1 19 1 39 0 40-1 40-1 43-6 3-6 4-18 5-43v-31c2-8-1-19-11-49-3-11-5-19-8-31-5-21-7-26-13-45-3-10-7-21-7-25-2-6-5-17-9-30-3-8-14-31-19-38-7-11-18-24-24-29-4-3-10-7-14-9-11-5-12-7-15-14-5-10-6-16-4-31 3-15 3-31 1-40-4-15-15-31-27-39-14-9-40-11-52-3-2 1-7 3-11 4-5 1-9 2-10 3-7 4-24 21-31 31-7 9-7 13-7 30 0 19 0 23 5 28 4 5 5 9 5 19 0 8 0 9-5 18-3 5-6 13-8 19-3 9-6 18-23 54-3 5-7 12-9 16-3 4-6 8-8 10-9 14-20 26-40 46s-24 24-36 31c-7 5-14 9-16 10-3 1-25 1-38-1-7-1-8-1-15 2l-12 4c-13 2-24 5-25 7-2 2-3 4-3 9 0 7 0 9 3 17 6 14 10 17 32 20 16 3 21 2 37-2 32-11 49-13 56-10 2 1 6 6 10 11 10 13 12 15 20 19 16 8 21 10 34 10 13 1 20 3 33 9 8 4 9 6 10 13 0 4 1 5 5 9 2 3 7 8 11 12 9 11 12 12 33 13 10 0 19 1 20 2s5 1 10 1c3-1 24-1 46-1z"/></svg>