<svg xmlns="http://www.w3.org/2000/svg" width="1344" height="566"><path d="M0 283V0h1344v566H0V283m776 276c49-1 57-2 65-5 7-3 10-6 17-15 9-12 12-18 14-29 3-15 5-17 11-13 2 2 6 3 9 4s9 2 14 4c9 2 28 6 38 7 9 0 10 1 11 4 2 7 4 7 14 6 6-1 10-1 13 0 5 1 20 0 27-2 2 0 8-1 11-2 9 0 11-1 13-6 2-6 1-11-4-22-6-13-8-15-14-20-7-4-9-9-9-19-2-15-7-23-26-36-11-6-18-13-24-21-2-4-8-11-13-17-11-14-12-15-16-29-3-12-3-14-4-37-1-31-1-31-16-51-5-6-9-13-10-15-3-4-5-6-21-10-21-6-28-10-28-15 0-1 1-5 3-8 3-5 3-7 4-15 0-6 0-12-1-17-2-9-3-11-6-38-4-22-11-55-16-70-6-16-13-23-32-33-27-15-41-19-58-19-11 0-12 0-23 4-7 3-15 7-19 9-11 7-26 21-48 49-15 19-24 29-40 44-11 12-21 22-22 24-2 4-3 7 0 14 5 14 5 22 0 39-1 6-2 12-2 17s-1 11-3 18c-1 5-3 14-3 19-1 9-2 12-8 27-10 25-19 49-22 65-1 5-3 17-4 25 0 9-1 17-2 17 0 1-1 9-1 18-1 9-1 19-2 21-1 6 0 56 1 62 2 7 4 12 7 14 1 1 6 4 12 7 14 7 19 11 24 18s7 8 15 10c7 1 10 3 16 8s14 8 31 9c23 3 38 3 127 1z"/></svg>