<svg xmlns="http://www.w3.org/2000/svg" width="1344" height="566"><path d="M0 283V0h1344v566H0V283m981 278c17-1 16 1 16-32-1-21-1-26-2-29-4-9-6-20-8-40-1-25-5-52-9-66-1-3-2-8-3-10 0-2-1-9-3-14-4-14-7-28-7-32 0-2-1-6-2-10 0-4-2-11-2-16-5-29-7-34-14-45-6-8-11-11-25-17-9-4-16-7-20-10-1-1-4-3-7-4-11-5-18-21-14-32 1-2 2-6 2-8 0-3 1-7 2-10 7-17 8-39 4-57-4-13-7-19-15-27-13-13-23-16-44-16-23 0-34 3-45 14-8 7-13 16-14 29-1 8-1 11 1 22 3 16 2 18-6 25-9 7-10 9-13 17-3 9-5 17-6 33-1 8-3 15-3 17-1 2-5 4-16 9-10 4-13 6-14 11-1 3-2 6-3 8s-3 9-5 15c-16 43-17 48-24 63-5 12-6 20-4 32s7 19 20 24c10 5 14 6 27 4 14-2 15-1 10 14-3 12-13 40-17 52-3 7-6 16-8 21-1 4-2 9-3 9-2 4-14 40-15 46 0 3 0 4 3 6 2 1 6 1 87 1 57 0 93 0 109 1 28 2 26 2 42 0 12-1 13-1 17 1 5 2 14 2 31 1z"/></svg>