<svg xmlns="http://www.w3.org/2000/svg" width="1344" height="566"><path d="M0 283V0h1344v566H0V283m694 19c5-1 8-1 9-3 1-1 3-6 5-11 3-12 4-15 14-24 4-4 7-9 8-11 1-5 4-15 7-22s9-14 12-14 7-5 10-14c2-5 3-11 3-12 0-3-4-16-6-18-3-2-17-23-18-27-3-4-11-13-15-16-2-1-7-3-11-3-12-3-22-7-24-10-1-1-2-4-2-13-1-14-2-18-9-24-6-7-11-9-17-9-7 1-16 6-18 12-2 3-2 4-1 13 1 8 2 12 5 18 5 10 7 20 7 24-1 1-4 5-7 8-4 4-7 8-8 10-1 1-3 4-5 7-3 4-3 5-4 15-1 7-1 12-1 13-1 0-1 4-2 8s-3 13-6 20c-2 7-6 17-8 23s-4 13-5 16c-1 2-2 7-3 9 0 4 0 5 2 7s4 3 6 3c1 1 5 2 9 3 5 2 8 2 10 2 5-2 11-1 23 0 12 2 13 2 18 11 2 5 5 7 7 8 4 2 6 2 15 1z"/></svg>