<svg xmlns="http://www.w3.org/2000/svg" width="1344" height="566"><path d="M0 283V0h1344v566H0V283m824 276c14-2 106-1 136 1 27 1 30 1 33-4 2-4 10-7 25-9 4 0 6-1 8-3s2-3 2-13c0-6-1-14-2-20-4-21-9-47-12-63-1-8-3-17-3-18-2-4-9-49-10-61-1-7-2-18-3-25 0-7-2-21-3-32-5-72-8-85-20-103-3-4-7-10-8-12l-2-4 2-3 6-6c17-12 33-29 39-43 2-5 5-14 7-20 3-10 3-13 3-21-1-7-1-10-4-15-4-9-11-17-19-21-17-8-35-9-52-3-18 7-21 10-37 47-1 5-4 9-5 11-1 1-3 4-6 7-2 3-6 7-7 8-3 2-4 2-14 1h-10l-8 4c-4 2-18 7-31 12-32 10-41 15-54 26-5 4-14 17-17 25-1 2-4 10-5 19-4 16-7 28-12 49-1 6-5 20-8 32-5 24-8 34-12 45-4 13-4 17 2 28 3 5 5 11 6 14 2 12 1 35-4 87 0 10-1 20-1 21 1 5 4 8 16 12 21 9 22 10 27 32 2 12 4 17 6 18 3 0 31 2 36 1 2 0 9-1 15-1z"/></svg>