<svg xmlns="http://www.w3.org/2000/svg" width="1344" height="566"><path d="M0 283V0h1344v566H0V283m712 278c4-1 9-2 11-3s4-7 4-15c0-3 1-10 2-14 1-7 1-8-1-11-1-2-2-6-2-10-1-6-1-7-4-11-4-4-8-15-19-44-1-3-4-9-6-13-4-7-4-8-4-17 0-11 0-12-6-15-4-3-51-22-75-31-42-16-47-18-49-26-2-6 0-23 4-33 1-3 4-13 6-20s5-16 6-18c1-3 1-10 2-20 0-13 0-18-2-31-2-18-5-36-8-46 0-4-1-8-2-10-3-19-14-56-21-72-12-28-28-49-46-61-19-13-40-20-66-22-13 0-30 3-46 9-2 1-7 3-10 5-19 7-19 7-27 15-24 23-38 59-48 122-1 5-3 14-4 20-5 26-9 64-11 95-1 9-1 24-2 32s-1 18 0 25c1 6 1 16 1 21 0 13-1 14-17 21-7 2-14 6-16 7-1 1-9 6-18 12-17 11-23 14-36 21-16 8-20 13-20 24 0 5-1 9-5 18-6 19-11 33-11 36 0 1-1 6-2 10-5 19-6 40-3 46 2 4 4 4 61 3h66c10 0 169 1 170 1 0 1 246 0 254 0z"/></svg>