<svg xmlns="http://www.w3.org/2000/svg" width="1344" height="566"><path d="M0 283V0h1344v566H0V283m775 252c6-1 12-2 13-3 2 0 6-1 10-1 9-1 50-10 59-13 2 0 6-2 9-3 3 0 8-2 12-3 30-9 26-8 54-9 23 0 26 0 28-2 3-4 4-31 2-42-2-6-5-31-9-64-1-12-3-13-22-18-40-10-44-12-45-16-1 0-1-5 0-10 0-7 0-9-2-14-1-4-3-7-5-8-8-5-10-10-5-14 1-1 2-3 2-4l-6-14c-11-25-20-50-20-55 0-1-1-3-2-5 0-2-4-11-8-21-8-24-10-29-15-40-2-6-5-13-6-16-6-15-8-21-13-29-8-12-11-17-20-25-14-14-31-22-60-31-8-2-10-2-26-2s-17 0-30 3c-17 5-29 9-37 13-25 13-39 29-51 61-8 20-8 26-8 64 0 19 1 41 1 48 1 8 1 24 2 34 0 26 0 26-15 37-7 4-14 8-18 10-8 4-13 10-19 21-2 4-5 9-7 10-1 1-6 3-10 5l-8 2-6-2c-5-1-5-1-9 0-2 1-6 4-9 6-4 3-10 5-29 12-8 4-12 7-19 15s-14 12-27 13c-7 1-8 1-11 4-2 2-6 7-8 11-5 10-12 31-13 39-1 3-2 8-2 11-3 9-3 12-1 17 5 8 11 9 24 6 5-2 10-3 11-3s5-1 9-3c10-5 15-5 33-6 9 0 18 0 21-1 4-1 6-1 9 0 4 1 9 0 18-4 2 0 7-2 11-3 8-1 8-1 12 1 2 1 7 2 12 3 6 1 10 2 17 5 19 10 27 12 74 12 19 0 35 0 35 1 0 0 11 1 23 1 28 2 36 3 43 6 7 2 13 5 15 7 4 5 7 6 29 7 1 0 7-1 13-1z"/></svg>