<svg xmlns="http://www.w3.org/2000/svg" width="1344" height="566"><path d="M0 283V0h1344v566H0V283m528 278c10-2 14-2 18-1 3 1 26 1 71 1 65 0 67 0 74-2 9-3 14-8 16-15 0-3 2-9 3-13 4-11 5-21 3-29-6-20-14-41-20-51-4-9-4-9-4-19 0-13-1-15-21-23-6-3-22-10-36-16s-28-12-31-13c-12-5-28-13-31-16-2-3-2-4-2-10 2-13 10-40 17-58 6-14 6-16 7-30 1-17 1-32-1-47-6-36-7-43-11-57-10-39-20-69-30-86-5-9-19-24-29-31-9-7-29-17-47-23-13-4-14-4-29-5-16 0-12-1-38 10-4 2-12 5-17 6-9 4-15 7-24 14-11 8-15 15-22 28-10 22-17 45-22 75-4 21-10 69-12 92 0 10-2 22-2 26-1 5-1 19-1 36l-1 28 5 17c6 19 6 22 2 26-3 3-18 10-26 12-3 1-7 3-9 3-3 1-5 2-6 2-4 0-16 7-28 16-15 11-30 21-40 27-16 8-20 13-21 25-1 7-4 16-9 27-4 10-8 24-10 45-2 15-3 19-2 22 2 7 0 7 67 6 32 0 61 0 64-1s9-1 17 0c6 1 54 1 107 1 52 1 95 1 96 1 1 1 1 1 15 0z"/></svg>