<svg xmlns="http://www.w3.org/2000/svg" width="1344" height="566"><path d="M0 283V0h1344v566H0V283m981 275 3-3-1-14c-1-33 0-76 4-103 0-5 1-14 1-20 0-7 1-14 3-24 4-21 5-36 5-82-1-43-1-48-7-68-2-11-7-22-11-27-2-2-7-8-13-12-10-9-13-13-12-16 1-1 6-7 13-12 18-18 26-32 33-57 3-15 3-15 2-23-2-13-9-25-18-31-11-6-35-10-48-7-19 4-34 19-40 39-2 8-11 28-15 32-5 6-10 9-19 9-6 1-9 2-16 4-5 3-15 6-23 9-40 11-47 14-60 24-18 13-25 26-32 63-2 9-6 25-9 37-5 21-9 44-10 60-1 8-4 21-7 28-2 7-2 14 2 25s4 13 0 47c-1 10-2 23-3 28-1 13-2 48-2 51 1 2 6 8 14 16 7 7 15 16 18 20 4 5 6 7 9 8s11 1 33 0c38-1 165 0 179 1 5 0 13 1 17 1 7 0 7 0 10-3z"/></svg>