<svg xmlns="http://www.w3.org/2000/svg" width="1344" height="566"><path d="M0 283V0h1344v566H0V283m676 276h105c88 0 94-1 95-2 1-2-1-4-12-16-14-13-24-26-35-42-6-10-9-15-10-23-1-7-6-21-13-36-3-5-7-15-10-22-11-28-18-40-27-43-2-1-9-3-16-4s-13-2-13-3c-1 0-5-2-11-4-12-4-29-11-36-15-9-5-9-7 2-26 8-16 16-24 29-31s18-11 20-17c2-4 2-6 2-36-1-35-1-37-7-53-2-4-5-13-7-20-7-23-14-38-27-59-5-10-10-16-15-22-10-9-12-10-32-15-12-2-16-2-30-2-16 0-17 0-25 3-28 10-48 19-55 25-2 3-9 10-14 17-13 18-25 35-28 40l-10 15c-13 19-25 40-33 58-2 6-5 13-6 15-2 2-5 9-7 15-2 5-5 13-7 16-6 11-10 27-14 50-1 7-3 16-4 21-3 14-3 16-1 25 2 8 2 11 2 52v44l-3 17c-3 18-9 46-13 59-3 11-3 16 1 18 2 1 9 2 17 2 19 1 233 0 248-1z"/></svg>