<svg xmlns="http://www.w3.org/2000/svg" width="1344" height="566"><path d="M0 283V0h1344v566H0V283m1207 277c16-1 20-2 24-4 2-1 4-2 4-3 0 0-3-4-6-9-11-15-18-35-25-76-1-8-5-16-9-20-2-3-11-7-20-9-7-2-13-5-17-10-4-4-14-25-19-39-8-24-25-87-29-110-1-4-3-17-4-29-5-51-9-66-19-71-4-2-5-2-8-1-5 2-6 5-8 17-1 11-2 14-4 13-1-1-3-11-8-30-3-14-8-27-12-32-6-6-14-7-19-2-3 2-3 4-4 10-1 4-2 8-3 8 0 0-3-4-5-8-4-7-5-9-9-11-2-2-5-3-7-3-6 0-13 7-16 15-1 4-4 8-7 11-14 16-20 42-17 85 3 46 4 52 7 61l7 14c8 14 31 51 49 79 20 29 33 52 37 61 1 3 4 9 5 13 4 12 10 27 14 35 9 19 9 27 0 27-5 0-9-3-23-16-12-9-29-22-41-28-10-6-26-18-32-25-6-6-8-9-15-27-3-6-6-13-8-16-7-11-45-42-58-49-12-5-17-5-53-4-17 1-38 1-47 1h-16l-3-2c-2-3-2-4-2-12 2-19 7-33 15-43 3-3 6-8 8-12 3-6 3-6 3-19 0-8 1-16 1-18 1-4 1-7-1-17-4-15-4-18-12-42-4-10-9-24-12-31-3-6-8-18-11-25-9-22-14-31-35-64-23-36-44-54-77-65-38-14-51-15-86-8-7 2-19 4-26 4-33 4-49 10-69 25-9 7-23 20-29 28s-18 30-22 42c-7 17-8 23-8 41v16l4 6c2 4 5 9 5 11 2 6 1 18-1 35-1 8-1 17-1 22 1 8 1 11 5 19 6 14 7 21 7 38 0 27 6 41 30 67 16 17 17 19 17 33 0 7-1 10-3 15-4 11-9 16-18 24-9 9-17 13-25 15s-8 1-11-18c-1-9-3-17-3-20-4-9-11-25-14-30-8-11-20-10-26 3-3 5-4 16-4 43 0 21 0 25-2 26-2 2-4-1-8-8-7-16-10-30-16-67-3-15-3-16-5-35-1-20-4-38-7-46-2-6-7-10-12-10-4 0-8 3-9 8-2 6-4 23-5 39-2 23-3 37-4 38-1 3-3-1-10-22-2-7-4-17-6-22-8-33-10-38-16-44-6-5-12-6-17-4-5 3-6 8-3 35 0 9 2 24 4 33 1 8 3 18 3 22 1 4 2 10 3 14 1 7 1 13-1 14-2 0-13-25-23-55-5-14-10-20-19-22-4 0-9 2-11 5-1 2-1 6-1 11 0 8 2 19 8 41 1 3 3 8 3 12 3 9 7 23 9 29 1 2 3 7 4 11s2 8 3 10 1 3 0 4c-1 2-6-3-21-20-14-17-18-21-24-24-10-5-17-4-19 4-1 6 5 23 14 38 7 10 25 35 50 66 4 5 9 13 12 18 7 9 15 17 21 20 4 2 5 2 25 2h170c82-1 150-1 152-1 1 0 23 0 48 1 31 1 53 1 68 0 24-1 96-1 238 0 85 0 96 0 104-1 13-2 18-2 22 0 2 1 7 2 13 2 13 1 66 0 90-1z"/></svg>