<svg xmlns="http://www.w3.org/2000/svg" width="1344" height="566"><path d="M0 283V0h1344v566H0V283m680 278h409c17 0 18-4 9-29-4-12-5-20-3-29 0-2 1-6 1-7 0-4-7-9-21-15-32-15-100-49-105-53-7-5-7-11-3-44s5-40 6-57c1-28-3-98-7-129-1-9-3-21-5-28-1-7-3-17-4-22-4-19-9-33-18-51-9-19-16-29-28-41-18-18-31-25-61-36-19-7-29-8-42-8-11 1-12 1-22 6s-11 5-23 6c-14 1-22 3-33 11-8 5-21 19-26 27-13 20-25 54-28 82-2 16-3 100-1 118 2 28 2 30-6 49-6 13-9 16-25 24-6 4-12 8-14 9l-2 3v17c1 10 1 23 2 29v14c-1 4-5 6-14 7-4 1-10 3-13 4s-10 3-15 5c-12 5-35 15-47 20-5 2-15 6-21 9-15 5-16 6-15 12 2 14-1 32-12 60-3 9-6 19-7 23-2 7-2 8-1 11 1 1 3 2 4 3 5 1 33 2 41 1 5 0 72 0 150-1z"/></svg>