<svg xmlns="http://www.w3.org/2000/svg" width="1344" height="566"><path d="M0 283V0h1344v566H0V283m746 279c16-1 57-1 92-1 79-1 95-2 97-4 1-1 2-3 2-5 0-3-11-35-17-50-8-19-8-19-8-30 1-10 1-10-2-14-4-4-17-12-40-23-11-6-20-10-20-10-1 0-7-3-15-6-17-8-42-20-50-23-9-4-15-11-18-20-6-15-7-23-6-49 1-51 1-71-2-86-1-8-3-22-4-30-3-20-5-27-20-69-13-36-35-65-66-86-10-7-25-13-44-17-11-2-14-2-27-2-14 1-15 1-22 4-5 2-11 6-15 8-10 7-12 8-21 9-16 4-27 12-37 27-6 9-14 26-18 37-4 9-8 26-8 30 0 1-1 9-2 17-6 42-5 142 2 201 0 7 1 17 1 22 0 8 0 9-2 11s-5 4-8 5c-8 2-40 17-46 21-3 2-14 8-24 13-11 5-21 10-22 11-4 4-5 7-6 17-1 5-3 12-3 16-6 25-7 29-5 35 2 4 8 10 15 14 4 2 11 6 17 9s15 8 21 11l11 4 15 1h41c15 1 36 1 46 2 29 1 184 1 218 0z"/></svg>