<svg xmlns="http://www.w3.org/2000/svg" width="1344" height="566"><path d="M0 283V0h1344v566H0V283m796 278c43-1 108-2 193-1 58 0 101-1 108-3 2-1 5-2 6-4 2-2 2-2 1-7 0-3-5-17-10-32-6-14-11-31-13-36-4-15-8-23-17-33-9-9-27-35-46-66-10-16-13-23-14-31 0-5 0-6 3-9 3-4 25-14 33-15 22-3 26-7 29-26 2-13 3-13-5-30-2-7-5-16-6-23-4-23-8-31-17-40s-23-18-50-32c-35-17-38-20-45-41-8-25-26-61-38-78-17-24-42-43-63-47-12-2-49-3-87-3-32 1-36 1-43 3-11 3-26 10-31 15-3 2-7 5-10 8-3 2-10 9-15 15-11 12-19 25-25 41-5 10-17 29-27 42-3 4-6 9-8 13-2 6-2 8-2 16l1 8 9 19c6 11 12 25 14 32 2 6 6 15 8 18 5 10 13 23 17 26 14 11 19 16 21 18 3 6 4 9 7 34 2 14 6 21 17 26 2 1 8 7 13 12s15 14 21 20c18 16 19 21 12 38-9 22-14 31-21 38-13 15-17 22-24 46-4 12-16 60-16 62 0 1 1 3 2 4 2 3 3 3 21 4 20 1 40 1 97-1z"/></svg>