<svg xmlns="http://www.w3.org/2000/svg" width="1344" height="566"><path d="M0 283V0h1344v566H0V283m366 277c5-1 4-1 199 0h569c12-1 32-1 46-1 25-1 34-1 51-3 15-2 18-4 18-12 0-3-1-4-6-10-4-3-11-9-15-12-6-4-11-8-13-11-6-9-13-30-18-51-6-28-8-35-13-38-3-2-5-2-21-6-9-2-11-3-14-6-5-4-10-13-14-26-2-5-5-12-6-14-9-18-36-99-45-135-6-24-14-52-18-61-3-9-9-14-15-14-4 0-7 1-11 6-2 3-3 3-4 2-3-2-6-9-10-18-5-15-11-22-17-24-6-1-11 2-15 9-2 3-4 5-5 5 0 0-2-2-3-4-4-5-10-10-13-10-5 0-12 6-14 14-1 4-4 10-7 14-12 13-15 43-10 88 1 7 2 18 3 24 2 18 3 23 7 32 8 15 34 54 61 89 22 28 36 52 44 75 2 3 7 14 12 24 9 20 12 30 10 32-1 1-2 2-3 2-3 0-20-9-30-16-10-8-25-17-40-25-10-6-24-17-28-23-2-2-6-10-9-18-3-9-7-18-9-20-4-8-20-22-42-38-24-17-28-18-72-16-37 3-56 3-61 2-8-2-10-11-7-31 1-7 3-15 3-17 1-3 2-8 3-11 0-4 3-10 9-18 1-2 3-6 4-9 4-15 6-22 8-23 4-4 2-19-5-38-2-6-6-16-8-21-1-6-7-19-12-31-6-11-12-25-14-31-7-16-26-49-42-72-21-29-54-51-88-56-9-2-52-2-73 0-18 1-42 5-52 9-9 3-28 13-37 21-9 7-23 22-27 28-6 8-19 35-23 44-4 11-7 26-7 38 0 11 1 15 5 21 1 1 3 5 4 9 2 7 2 9 2 22-1 8-1 17-2 20-1 4-1 10-1 15 0 9 0 10 5 21 7 16 7 18 7 32 0 17 1 27 5 36 5 12 12 22 27 37 11 11 13 14 15 19 3 9 3 12-6 32l-4 12-12 11c-11 11-12 12-20 15-5 2-11 4-13 5-6 3-8 2-10-2-1-1-2-11-3-21-1-21-2-25-12-45-8-16-12-20-18-20-4 0-6 1-8 3-8 7-10 22-8 54 1 10 1 20 1 21-1 5-4 5-6 0-6-10-19-59-22-82-6-48-8-62-11-70-3-7-7-10-12-10-10 0-13 11-15 50 0 12-1 24-2 25-1 4-3 5-4 2 0-1-1-4-2-6-2-5-5-15-8-25-12-42-14-47-23-50-7-3-13-2-16 3-1 3-1 6-1 20 1 15 1 22 6 50 1 11 1 16 0 16-1 1-4-4-7-10 0-2-2-6-3-8-1-3-3-7-4-10-3-10-8-19-11-21-1-1-4-2-7-2-7 0-11 2-13 8-2 4-2 6-2 13 1 4 2 10 2 13 1 3 3 13 5 23 2 9 5 20 6 24 3 8 4 11 2 14s-4 2-6-1c-1-2-6-7-11-12-11-11-16-14-23-11-8 5-8 15 2 36 4 9 15 28 21 38 3 3 9 13 14 20s11 16 14 20c2 4 9 14 15 23 18 26 27 34 41 36 8 1 69 0 76-1z"/></svg>