<svg xmlns="http://www.w3.org/2000/svg" width="1344" height="566"><path d="M0 283V0h1344v566H0V283m751 277c14-1 32-2 41-2 23-2 50-2 56 0 5 2 23 2 92 2 26 0 76-2 81-3 1 0 3-1 4-3 2-4 2-18 0-35-1-6-3-19-3-27-1-9-3-21-4-27-1-7-1-14 0-21 0-11-1-19-5-24-2-4-12-11-23-17-1-1-7-5-13-8s-17-9-24-12c-8-3-16-6-18-7-5-2-16-15-16-18 0-2 1-5 3-7 3-6 5-15 6-45 1-35-3-69-12-104-19-73-32-106-53-134-17-23-44-39-76-47-29-7-43-9-53-6-9 3-24 9-30 12-3 2-8 4-10 5-11 4-23 11-30 18-9 8-11 12-17 24-12 28-14 35-13 78 0 19 0 36 1 41s1 15 2 23c0 15 0 15-2 18-5 5-13 7-31 9-8 1-13 1-21 0-9-1-11-1-16 0-17 5-39 10-50 11-21 2-42-1-65-9-7-2-13-3-21-4-13-2-19 0-35 7-10 5-15 7-32 12-6 1-26 12-35 18-10 7-30 24-33 28-8 11-17 37-17 48 0 10 9 31 21 50 4 5 9 15 12 21 9 18 15 28 20 34 3 5 5 6 12 10 10 5 14 8 16 14 2 5 5 6 17 9 6 2 15 5 20 7 9 3 29 7 44 10 3 1 7 1 8 2 1 0 5 1 8 1 6 1 19 5 44 15 20 7 22 9 24 16 1 4 6 10 10 12 4 3 11 3 56 4 24 0 50 0 57 1 22 1 75 1 103 0z"/></svg>