<svg xmlns="http://www.w3.org/2000/svg" width="1344" height="566"><path d="M0 283V0h1344v566H0V283m790 278c4-1 12-1 17-1s21-1 37-1c15-1 48-2 73-2 25-1 54-1 64-2h89c23 0 57 0 76 1 44 2 53 2 56 0 6-3 3-17-11-44-17-33-24-43-40-58-27-27-40-34-87-46-44-11-50-13-78-20-23-7-44-13-48-16-1 0-3-3-4-4-2-3-2-5-2-23 1-21 2-30 6-35 1-1 5-4 10-7 12-6 26-20 32-33 10-18 14-36 12-49-1-11-4-16-11-20-12-7-12-7-9-41 4-40 3-76-2-108-4-19-5-24-8-29-5-10-12-14-29-17-10-1-25-2-132-2H680l-7 3c-6 2-8 3-11 7-12 13-25 52-28 83-2 19-2 28-2 77 1 28 2 43 3 48 2 14 4 21 8 38 3 9 6 23 8 30 2 8 7 25 11 38 10 30 10 30 6 34-2 2-8 6-14 9s-12 7-13 9c-3 2-6 8-18 28-18 29-32 49-42 59-4 4-16 12-24 17-2 2-7 6-11 9-3 3-8 8-12 11-3 2-10 8-16 12-5 5-14 12-20 16-19 14-29 21-29 23-1 1 0 2 1 3 2 2 3 3 113 3 61 0 130 1 155 1 29 0 46 0 52-1z"/></svg>