<svg xmlns="http://www.w3.org/2000/svg" width="1344" height="566"><path d="M0 283V0h1344v566H0V283m1176 276c3-1 4-3 7-8 2-4 4-8 5-9 3-4 4-10 3-12-1-4-7-10-26-25-24-18-29-23-42-35-6-5-13-11-16-14-5-4-10-10-11-15-1-2-2-26-2-68-1-41-1-72-2-83s-2-26-2-34c-2-34-4-53-10-84-7-34-10-45-18-66-12-29-36-56-64-70-23-11-44-18-59-19-11 0-15 0-29 5-3 1-10 2-16 3-18 2-25 4-33 8-19 10-37 28-53 51-11 16-18 35-20 54-1 7-1 17 0 49 1 22 2 51 3 65 0 29 3 65 7 84 1 8 1 16 0 19-2 2-3 3-7 4-12 4-28 7-34 7-8 0-16 1-39 4-10 2-28 4-40 5-42 4-51 6-63 14-13 8-34 31-46 49-2 3-9 11-15 18-9 12-11 14-18 17-16 8-28 15-35 20-9 6-22 20-26 27-3 7-5 21-4 27 1 8 2 10 6 12s-9 2 226 1h137c21 0 46 0 57-1 15-1 20-1 24 0 3 1 32 2 111 2 123 1 139 1 144-2z"/></svg>