<svg xmlns="http://www.w3.org/2000/svg" width="1344" height="566"><path d="M0 283V0h1344v566H0V283m691 278h135c29 1 41 0 45-3 1 0 2-3 3-5 1-5 1-56-1-59 0-1-2-5-2-9-1-4-3-9-4-11-2-6-18-23-31-32-8-7-34-24-55-38-16-9-22-16-29-30-3-6-7-13-9-17-5-8-6-15-4-22s9-23 18-37c3-6 7-13 9-16 1-2 5-8 7-12 8-12 9-13 11-28 2-7 4-17 6-22 7-23 9-38 9-66 0-17 0-23-1-30-5-25-20-48-44-70-8-7-13-10-20-14-12-6-16-7-30-8-6 0-15-2-20-3-6-1-13-2-16-3-7 0-29 2-37 4-14 3-30 13-44 27-24 23-34 45-37 83-2 24-3 30-10 42l-6 10 1 16c0 18 1 23 9 37 5 7 8 12 13 16 9 9 10 11 11 31 0 14 0 15-2 20-5 9-37 40-48 45-5 3-31 13-40 15-5 1-15 4-24 7-8 3-18 6-23 7-13 4-27 9-35 13-9 5-17 16-27 40-3 8-7 16-8 18-1 3-4 9-6 14-1 5-5 14-7 19-2 6-6 16-9 24-15 37-16 40-12 44l2 2h62c34 0 77 0 97 1h203z"/></svg>