<svg xmlns="http://www.w3.org/2000/svg" width="1344" height="566"><path d="M0 283V0h1344v566H0V283m1102 276c5-1 3-11-4-25-5-11-9-17-21-30-5-5-11-12-13-14-8-10-19-21-32-31-7-5-19-16-28-24-23-21-39-34-49-41-2-2-11-9-24-19-9-7-14-8-32-9l-17-1-8-4c-14-8-21-17-25-33-2-10-1-28 2-40 3-11 6-17 15-28 17-18 27-41 27-58 0-4-1-10-2-14-2-9-3-18 0-29 2-13 3-35 1-45-3-18-11-35-23-47-10-10-28-22-43-28-21-9-30-10-56-10-37 0-51 4-78 24-13 9-23 22-28 34-5 11-8 33-14 99-1 6-2 17-4 26-2 11-2 17-2 24 1 16 7 46 12 60s12 31 13 35c2 3 11 12 19 17 12 8 13 13 3 20-5 3-28 16-43 23-28 14-82 57-100 79-21 27-29 39-32 48-5 13-9 28-10 32 0 4 0 5 2 7l3 3 51-1c134-1 460 0 461 2 1 0 77-1 79-2M3 560c0-1 0-1-1-2-1 0-1 0-1 1s0 1 1 1h1m55-2c9-1 39-1 68-2 28-1 54-1 59-2 14-1 15-3 17-20 0-9-1-17-4-34-2-6-4-17-4-25-2-16-3-25-8-55-7-47-18-80-30-98-6-8-12-14-28-27-13-11-18-16-19-20-1-5 2-17 7-24 2-1 5-6 7-11l4-8-1-8c-1-8-1-10 7-21 2-3 5-8 6-11 1-4 3-7 7-11 8-8 9-12 9-19 0-8-2-15-9-30-9-19-10-25-9-48 0-14 0-20-1-23-2-7-23-48-26-50-1-2-4-4-6-4-5-3-24-4-47-4-11 0-20 0-22-1C32 1 8 2 3 4L1 5v276c0 234 0 276 1 276s2 1 3 2 4 1 19 1c10-1 26-1 34-2z"/></svg>