<svg xmlns="http://www.w3.org/2000/svg" width="1344" height="566"><path d="M0 283V0h1344v566H0V283m609 277h92c102 0 95 0 97-8 2-7 2-32 0-44-4-22-16-65-22-76s-6-14-4-23c1-8 1-9 0-12-3-3-6-5-17-10-5-2-18-8-29-13-12-5-26-12-32-14-26-11-29-14-30-20-1-2 0-11 1-20 2-9 4-24 5-34 1-9 2-20 3-25 2-16 1-50-2-67-1-3-2-13-2-22-1-10-2-18-2-18-1 0-1-5-2-10-3-30-19-72-34-90-7-9-15-17-22-22-8-6-29-17-39-21-16-6-32-5-52 3-3 1-10 2-15 3-13 1-19 3-27 9-19 12-34 33-43 58-10 26-26 102-31 149-3 24-3 65-1 79 5 25 1 31-22 33-14 1-29 7-49 18-8 5-20 11-26 14-9 5-14 8-19 13-6 5-6 6-6 12-2 13-3 21-5 27-3 9-9 28-10 35-1 3-3 14-6 24-6 25-11 51-11 57 0 11 5 13 35 14 22 1 80 1 82-1 1 0 39 1 112 3 31 1 132 0 133-1z"/></svg>