<svg xmlns="http://www.w3.org/2000/svg" width="1344" height="566"><path d="M0 283V0h1344v566H0V283m1017 277c67 0 114 0 117-1 3 0 7-1 8-2 7-7 4-27-6-41-6-9-10-13-50-46-5-4-14-11-21-16-17-12-21-15-30-22-4-3-12-9-18-13-12-9-21-17-27-27-3-3-11-15-18-26s-15-23-19-27c-5-6-14-21-21-34-4-7-5-17-4-24 2-7 5-11 15-19 5-4 11-10 13-13 6-7 12-22 14-31 10-43 10-45 10-68 0-10 0-22-1-26-4-25-5-26-11-39-8-16-11-20-21-33s-20-21-31-28c-5-3-12-7-15-9-3-1-9-4-13-6-8-2-10-2-38-3-30 0-53 1-63 4-3 0-10 1-16 2-13 1-24 4-33 8-3 2-9 5-14 7-11 3-13 4-21 10-6 5-12 12-17 21-7 12-9 19-11 42-1 14 1 61 5 90 1 9 1 18 1 24-1 19 2 36 8 52 5 12 22 60 26 73 8 24 12 28 41 37 8 3 17 7 18 9 3 3 2 9 0 13s-4 4-40 22c-37 17-56 30-56 37 0 3 2 7 6 11 5 5 12 14 15 20 1 3 4 7 6 10 5 5 8 12 12 26 2 9 3 12 5 15 2 2 4 5 5 6s4 3 6 4c3 1 8 4 12 6 5 2 11 3 16 4s32 1 65 2c31 0 57 0 57 1 0 0 5 0 11-1 7 0 62 0 123-1z"/></svg>