<svg xmlns="http://www.w3.org/2000/svg" width="1344" height="566"><path d="M0 283V0h1344v566H0V283m359 276c65 0 124 0 133-1h50c20 1 56 1 80 1s53 0 64 1h31c13-1 15-1 17-7 1-2 1-15 1-35 1-19 1-37 2-42 4-32 5-66 3-82-2-11-7-30-11-38-5-10-10-17-27-34-16-15-20-20-20-24 0-3 2-12 8-36 2-8 5-17 5-21 3-15 0-59-5-79-3-13-9-28-15-36-12-19-41-41-66-49-9-3-25-6-36-8-14-1-47 3-63 8-32 9-57 33-68 64-3 11-5 18-8 42-4 28-4 29-10 35-6 8-7 12-4 28 2 11 4 36 3 41-2 10-5 13-46 31-19 8-44 22-65 35-19 11-45 35-58 52-2 3-8 10-12 15-15 19-27 41-33 58-7 24-9 35-9 52 0 13 0 15 2 20 4 10 7 11 27 10 7 0 65 0 130-1z"/></svg>