<svg xmlns="http://www.w3.org/2000/svg" width="1344" height="566"><path d="M0 283V0h1344v566H0V283m478 277c4-2 31-2 42 0 8 1 28 1 96 0h156c33 1 44 1 50 0 8-2 76-2 103-1 20 1 87 0 93-2 2-1 4-2 5-4 2-4 1-15-1-27-3-16-5-31-6-48-1-10-1-19-2-22-1-5-1-13 0-19 1-2 1-6 2-7 0-2-1-5-5-12-5-11-11-16-18-18-2-1-7-3-11-4-3-2-7-4-10-4-5-2-27-13-34-17-3-1-9-7-14-11-7-8-8-9-8-12 2-6 2-10 1-15-1-2-2-7-2-9-1-8-3-45-4-86-1-42-2-52-5-78-7-53-24-86-56-106-26-18-49-26-69-26-16 0-48 5-67 11-30 9-36 13-43 31-4 8-9 17-16 28-19 28-25 42-27 58-3 30-4 35-16 50-4 6-8 12-9 14-3 6-3 15 0 22 3 6 5 26 3 37-1 5-1 9 0 15 0 3 1 12 1 19s0 14 1 16c2 6 9 12 19 16 11 4 13 5 14 8 0 4-2 4-12 3-12-2-25-2-33 0-3 0-12 3-20 4-8 2-20 5-26 7-7 1-17 4-22 4-17 3-20 5-35 15-8 5-18 11-23 14-24 14-31 19-36 27-4 8-6 9-17 13l-9 3h-22c-20 1-23 1-27 3-6 2-9 6-9 11 0 2 1 4 4 8 5 5 6 10 4 14-1 1-2 5-2 8-1 3-2 9-4 14-4 14-5 17-6 26l-1 8 2 4c4 6 9 8 26 9 8 1 22 1 32 1 16 0 17 0 23 2 11 6 12 6 30 6 10 0 18 0 20-1z"/></svg>