<svg xmlns="http://www.w3.org/2000/svg" width="1344" height="566"><path d="M0 283V0h1344v566H0V283m680 278c147-1 136 0 142-7 3-3 10-14 15-26l4-8v-12l1-12 4-9c2-5 6-12 9-17 7-12 22-40 24-46 4-10 8-18 16-28 10-14 12-18 10-24-1-3-2-9-4-14-4-15-6-17-14-14-5 2-8 1-8-4 0-3-5-8-9-9-3-1-6-1-11 0-3 0-7 1-7 0-2-1-1-4 4-11 10-15 12-26 8-34-3-5-6-7-11-7-3 0-5 1-7 3s-3 4-3 5c0 4-15 24-23 30-7 6-12 7-19 6-4 0-6 0-9 1-9 5-25 30-31 48-3 9-7 22-7 26-1 4-7 25-9 31-6 15-27 57-31 62-2 2-6 4-8 6-7 3-10 6-12 14-2 9-4 11-7 11-2 0-3-2-6-7-7-11-18-26-30-39-5-5-8-10-10-19-3-14-12-32-19-39-2-2-10-8-16-12-17-11-18-14-14-21 2-2 5-8 9-15 8-15 20-36 25-41 2-3 4-7 6-8 1-2 4-7 6-10 7-9 9-16 11-31 1-7 3-17 4-24 3-14 5-45 5-62 0-8 0-16 1-18 1-3 1-14 2-26 1-35-2-49-11-63-7-11-17-20-28-27-5-2-13-7-18-11-17-12-40-22-59-24-2-1-10 0-18 1-10 1-15 1-21 0-12-2-21-1-28 2-4 1-10 3-12 4-9 2-21 8-28 13-9 7-20 21-24 32-1 2-4 7-6 12-8 19-18 55-28 95-1 8-4 17-5 21-3 16-5 23-7 31-3 20-7 40-11 56-3 14-4 20-6 42-2 31-2 35 0 46s1 17-5 25c-12 20-20 35-35 72-4 10-8 21-10 24-1 3-3 7-4 10-1 4-1 4 2 11 3 6 3 8 3 19 1 18 1 18 24 19 8 0 23 0 34 1h320z"/></svg>