<svg xmlns="http://www.w3.org/2000/svg" width="1344" height="566"><path d="M0 283V0h1344v566H0V283m732 169c2-1 8-1 13-1s11-1 13-1c6-2 17-5 24-6 2-1 7-2 10-3 2 0 7-2 10-3 4 0 9-2 12-3 5-1 12-3 23-5 9-3 29-3 39-2 19 2 20 2 21 0 2-2 2-4 1-15-1-6-2-16-3-21 0-5-2-19-2-31-1-30-3-37-7-41-1-1-4-4-6-7-4-7-6-8-14-10-11-3-12-5-12-16 0-5 0-10 1-12 2-4 0-31-3-45-2-6-4-19-6-28-3-15-6-28-10-40-2-7-5-20-6-23-1-8-7-28-12-39-8-18-22-36-35-45-14-9-17-10-25-14-14-8-18-9-32-9-10 0-13 0-23 3-7 2-16 4-20 4-28 5-43 22-55 59-2 6-4 24-8 56-1 6-1 13-2 16-1 9-3 59-2 74 1 22 1 36 0 37-2 1-9 3-25 7-12 3-14 3-22 3-12-1-29 0-33 3-2 1-8 6-14 11s-12 10-14 11c-1 1-7 5-11 8-4 4-12 9-18 13-6 3-13 8-16 11-9 8-17 11-26 11-5 0-7 0-9 2-2 1-6 11-19 41-2 4-5 12-6 16-2 5-4 13-6 17-2 8-2 8 0 10 1 2 2 2 7 2 4-1 10-2 14-3 6-3 10-3 21-4 19-1 57-4 69-6 4 0 8-1 9-2 3-2 4-2 12-2 5 1 11 2 14 3 6 3 21 6 32 7 5 1 13 2 18 2 12 1 29 1 33 0 5-2 18-2 32-1 33 5 43 7 49 10 4 3 5 3 13 2 5 0 11-1 12-1z"/></svg>