<svg xmlns="http://www.w3.org/2000/svg" width="1344" height="566"><path d="M0 283V0h1344v566H0V283m764 278c72-1 100-2 124-3 16-1 80-3 88-3 102 0 150 1 173 2 20 1 30 1 31 0 5-3 4-12-4-29-13-26-23-42-36-55-8-9-23-21-31-26s-26-13-39-16c-18-6-50-17-64-22s-18-6-34-12c-13-4-21-8-24-12-3-3-3-7 0-29 5-37 7-42 12-46 1-1 5-4 10-6 15-9 25-20 35-40 6-12 7-17 8-31 0-10 0-12-2-17-3-6-4-8-12-11-10-5-10-6-6-41 3-19 4-74 2-91-1-14-6-36-8-42-1-2-4-7-7-11-7-9-11-11-26-14-9-1-20-1-106-2-93 0-127 1-141 3-15 3-24 14-32 39-7 23-13 49-15 74-3 21-5 70-5 85 1 15 3 23 11 46 2 6 6 21 9 31 7 22 10 35 15 46 6 16 9 26 9 28 0 4-4 6-27 13-20 7-21 7-40 40-22 36-33 50-52 62-14 10-24 17-32 24-7 7-21 16-35 26-21 13-42 29-45 34-1 2-1 2 0 4 2 1 5 2 18 2 18 1 185 0 278 0z"/></svg>