<svg xmlns="http://www.w3.org/2000/svg" width="1344" height="566"><path d="M0 283V0h1344v566H0V283m775 276c30-1 36-1 39-3 4-2 7-8 12-25 4-15 6-18 10-16 2 0 9 6 16 12 15 13 27 21 36 25 6 3 8 3 22 4 9 0 38 1 65 1 26 1 54 2 62 2 13 1 73 0 82-1 8-1 8-3-2-12-8-9-10-13-16-26-2-5-4-11-6-15-6-16-32-34-56-40-9-2-18-5-27-11-14-11-18-13-22-15-2-1-6-4-9-7-3-2-10-7-16-10-19-10-27-16-41-30-19-18-25-26-27-32-1-2-5-13-9-23-9-23-10-29-6-38 3-5 3-7 4-32 1-18 2-30 1-37-3-30-3-37-6-57-3-33-7-51-10-58-4-9-16-23-23-27-6-3-8-4-34-11-25-6-42-7-62-1-4 2-12 4-17 5-13 4-19 7-28 15-8 8-18 23-26 38-13 24-30 48-44 64-9 9-26 25-45 44-19 17-29 29-30 38-1 4 1 19 3 26 2 4 4 10 5 14 2 11 4 14 18 18 9 3 20 9 22 12 1 3-1 6-12 19-13 16-28 34-36 47-4 6-10 14-13 18-17 22-26 35-29 41-6 11-11 32-17 67l-1 11 2 3 3 2 25 1c43 1 204 1 243 0z"/></svg>