<svg xmlns="http://www.w3.org/2000/svg" width="1344" height="566"><path d="M0 283V0h1344v566H0V283m771 275c6-1 12-2 13-3 2-1 6-2 9-2 7-2 7-2 59-19 20-7 40-14 44-15 9-3 32-6 50-7 27-2 33-4 32-9-1-1-6-10-13-21-6-10-16-26-21-35-15-27-17-29-32-34-4-1-14-4-22-7-12-3-19-5-45-11-12-2-23-8-39-21-14-11-19-18-19-24 0-1 3-10 7-19 7-16 11-26 14-39 1-3 4-10 7-14 11-21 13-25 15-48 1-14 0-22-4-37-1-5-4-16-6-25-6-23-10-36-12-40-11-21-40-45-68-55-7-3-10-3-22-4-8 0-16 0-24 1-6 1-14 2-18 2-29 0-54 14-73 42-13 19-18 50-15 88 0 8 1 21 2 30 2 21 6 38 10 44 5 5 14 25 15 33s1 12-3 23c-2 6-3 9-9 16-3 5-9 12-12 16s-7 9-9 12c-5 5-10 12-23 36-5 11-12 22-14 25-5 7-21 24-32 33-13 12-14 18-6 47 10 32 11 34 19 36 10 3 25 4 123 6 6 1 34 1 61 0 38 0 53 0 61-1z"/></svg>