<svg xmlns="http://www.w3.org/2000/svg" width="1344" height="566"><path d="M0 283V0h1344v566H0V283m822 278c5 0 8-1 9-2 3-2 3-3 3-14 0-7 0-15-1-19-1-3-1-10-2-16-1-11-4-26-6-38-1-4-2-8-3-10-2-13-8-31-14-39-4-6-20-22-27-27-3-2-9-6-13-10-5-3-14-9-20-12-7-4-15-9-18-11-3-1-8-5-12-7-14-8-26-16-32-23-3-3-12-15-19-26l-13-19v-5c1-8 8-28 11-31 1-2 3-4 4-6 1-3 4-16 4-25 1-9 4-21 6-27 2-4 2-4-1-9-3-7-5-17-6-39-2-40-4-51-15-71-10-22-18-31-33-38-11-5-19-8-33-9l-12-1-9 3c-4 1-11 4-15 4-8 3-24 9-29 13-3 2-8 4-11 6-4 2-8 5-10 7-4 3-10 13-12 18-1 4-6 15-12 28-3 8-3 10-4 21-1 8-1 18 0 28 1 18 1 18-7 26l-5 5v7c0 11 3 25 8 34 5 10 7 12 15 17 7 4 9 6 13 15 6 15 10 27 11 40 0 8 0 11-2 17-1 3-3 7-4 8-2 3-8 5-22 9-28 9-46 16-61 26-13 8-27 23-33 33-5 9-12 23-15 32-1 2-4 10-6 16-2 7-5 16-6 20-1 5-3 12-4 16-1 3-3 10-4 14-1 3-3 9-4 13s-3 10-4 15c-2 4-4 11-6 15-2 6-5 17-5 23 0 1 1 3 2 4 2 2 2 2 77 2 41-1 83-1 94-2 34-2 277 0 279 3 1 0 22-1 34-2z"/></svg>