<svg xmlns="http://www.w3.org/2000/svg" width="1344" height="566"><path d="M0 283V0h1344v566H0V283m895 195c3-6 4-11 6-24 6-33 7-37 11-41 6-5 7-9 8-24 0-12 1-14 2-15 2-2 7 0 14 6 3 3 8 5 11 6 6 2 6 2 10 1 2-2 4-3 5-7 2-4 2-5 1-13-1-10-2-13-6-21-4-10-8-15-12-20-12-11-19-22-28-40s-12-28-14-38c-1-4-2-7-3-8 0-1-1-4-2-7-2-11-5-22-7-26-3-6-8-9-20-15-9-5-11-6-13-10-3-5-3-13-1-21 3-8 3-11-2-23-3-8-6-12-10-17-9-9-14-11-26-12-9 0-10 0-13 2-9 5-18 18-20 30-1 5-1 7 0 11 1 3 3 9 3 14 2 8 3 10 6 16 6 9 7 8-19 32-6 6-9 10-12 15-4 9-9 24-11 35-1 8-1 10 0 15 1 3 2 11 2 17 1 10 1 13 3 15 1 1 6 4 14 7 18 8 22 12 28 24 19 34 27 50 35 69 5 12 11 24 12 27 5 9 14 20 25 30 7 5 12 10 14 13s4 5 4 5c1 0 3-4 5-8z"/></svg>