<svg xmlns="http://www.w3.org/2000/svg" width="1344" height="566"><path d="M0 283V0h1344v566H0V283m598 278c9-1 30-1 46-1 109 0 142 0 145-1 4-2 6-5 7-17 2-19-2-44-14-83-4-15-6-22-11-31l-3-8 1-11c0-8 0-10-1-12-2-3-9-7-22-12-5-2-16-7-25-11-16-8-23-11-37-17-16-7-24-12-24-18 0-1 1-10 3-20 7-41 9-69 9-91-1-18-1-23-6-61-8-61-24-103-50-127-9-9-17-14-32-22-17-8-24-10-35-11-10 0-19 2-34 7-4 2-11 3-17 4-8 1-12 2-18 4-21 11-41 36-51 68-5 15-12 43-17 69-2 12-5 26-6 32-3 15-7 42-8 58-2 17-1 53 1 65 2 10 2 17 1 22-3 5-9 7-21 8-15 1-28 6-48 17-7 3-19 10-27 14-19 10-20 11-24 16-2 4-3 7-4 17-1 8-3 17-5 23s-5 16-6 23c-2 6-6 23-9 38-10 39-10 41-11 50 0 10 1 12 13 15 7 2 9 2 56 2h60c10 0 40 0 102 2 40 1 103 1 122 0z"/></svg>