<svg xmlns="http://www.w3.org/2000/svg" width="1344" height="566"><path d="M0 283V0h1344v566H0V283m707 277c2 0 6-1 8-1 10-2 13-10 9-27-2-6-3-14-4-23-1-14 0-13-11-40-2-6-4-12-4-13l-4-8c-3-6-3-9-4-16 0-4 0-9-1-10 0-4-6-8-12-11-16-8-27-12-39-17-7-4-16-7-19-8-3-2-12-5-20-9-25-10-34-15-37-21-3-7 0-25 9-50 3-8 6-18 7-22 3-7 5-25 5-41 0-9-5-43-8-57-1-4-3-12-5-18-6-27-23-72-33-87-5-8-21-23-32-30-10-7-34-20-45-24-15-5-38-7-54-3-10 2-12 3-20 8-39 22-47 28-55 40-16 26-25 59-34 126-3 19-5 40-6 52-1 3-2 10-2 14-2 13-4 44-4 56 0 18 2 29 9 42 7 14 7 14 3 18-2 3-6 4-25 12-10 3-20 9-31 17-15 11-29 20-36 24-17 9-22 14-23 25-1 7-2 10-8 24-8 19-15 50-15 68 0 4 1 5 3 8l2 3h40c22 0 50-1 63-1 26-1 30-1 46-1 7 1 62 1 122 1 59 1 109 1 109 2 1 0 152-1 156-2z"/></svg>