<svg xmlns="http://www.w3.org/2000/svg" width="1344" height="566"><path d="M0 283V0h1344v566H0V283m722 278c19-1 22-3 25-12 1-5 2-11 3-21 1-7 1-17 2-22 0-10-1-18-5-23s-15-14-38-29c-25-17-48-35-50-38s-2-4 6-13c2-3 5-10 7-15 4-10 5-12 16-36 3-8 8-21 10-28 5-18 6-26 11-72 0-9 2-21 3-26 2-13 3-47 2-72-1-30-5-50-13-65-4-8-9-16-15-22-16-15-63-45-81-52-10-3-26-4-35-1-5 2-10 2-24 3-29 1-38 4-54 18-20 17-24 20-27 25-6 6-27 50-30 60-11 35-16 59-26 119-2 14-4 43-4 57s2 35 5 44c2 11-2 17-15 19-10 2-24 6-38 14-8 3-17 7-20 8-3 0-13 1-22 2l-17 1-7 4c-7 4-13 7-31 15-10 5-13 6-18 11-10 10-14 16-20 34-10 26-10 27-16 36-10 15-24 32-47 57-6 7-11 13-12 14 0 2 0 3 2 4 2 3-4 3 205 2 228-2 201-2 293 1 28 1 54 0 75-1z"/></svg>