<svg xmlns="http://www.w3.org/2000/svg" width="1344" height="566"><path d="M0 283V0h1344v566H0V283m576 108c20-1 55-7 62-9 10-4 30-9 38-10 3-1 13-1 22-2 14-1 16-1 22 1 4 1 9 2 11 2 1 0 5 1 8 2 4 2 6 2 17 2 12-1 20-2 28-5 1 0 6-2 10-3 5-1 12-3 16-4 8-2 29-2 39 0 8 2 9 1 9-10 0-5-1-12-1-14-1-2-1-10-2-17-1-15-3-23-5-28-4-8 0-21 6-22 4 0 5-2 5-8 0-2 1-9 2-13 3-12 6-37 7-53 1-26-5-80-11-100-7-25-22-44-43-54-8-4-22-8-31-8-12 0-39 7-50 13-13 7-23 21-27 38-2 6-2 12-3 43-1 20-1 54-1 76 0 30-1 40-2 42-3 5-14 8-33 6h-31c-17 0-18 0-24 2-4 2-8 4-9 4-1 1-3 3-6 4-2 1-7 4-11 7-3 2-9 5-11 7-5 2-7 2-16 2-6-1-12-1-13-2-2-1-7-1-11-2h-7l-6 6c-3 3-8 7-10 9-5 2-6 2-21 3-17 1-19 1-20 4-2 3-1 4 7 13l9 8v7c0 4-1 9-1 12-1 3-2 9-2 15v10l4 3c5 4 15 5 31 3 6-1 14-1 17-2 4 0 5 0 7 2s3 5 0 10c-1 2-1 4 0 6 1 3 9 6 13 6 3-1 11-1 18-2z"/></svg>