<svg xmlns="http://www.w3.org/2000/svg" width="1344" height="566"><path d="M0 283V0h1344v566H0V283m711 279h121c54 1 58 1 62 0 4-2 6-2 16-1 19 2 26 2 47 1 22-1 24-1 27-7 2-4 1-15-3-43-7-49-15-85-28-129-17-53-28-95-33-118-1-6-4-17-7-25-6-18-7-22-5-26 1-2 5-9 9-15 15-21 20-33 27-63 5-22 5-23 4-31-2-10-5-17-12-23-14-13-32-18-54-13-21 4-35 15-44 33-3 6-6 14-7 18-2 5-4 10-5 12-1 3-3 7-4 10-4 11-7 17-10 19-2 1-9 3-15 5-13 3-17 5-23 14-4 6-12 13-19 17-3 1-3 1-5 0-1-2-3-6-4-9-4-13-11-32-17-43-11-23-27-40-51-51-7-4-29-13-31-13-1 0-4-1-8-2-5-2-9-2-23-2h-16l-10 3c-5 3-15 6-22 8-21 6-28 10-37 22-10 12-21 33-25 50-5 17-7 59-7 116 0 34 0 45 1 53 1 4 3 17 4 27s3 25 5 32c3 16 2 18-2 21-3 2-5 3-16 3-10 1-14 1-19 3-3 2-8 3-10 3-5 1-6 1-10-8-3-4-5-7-10-10-7-6-11-12-15-26-3-8-5-14-8-18s-5-9-8-18c-16-52-22-67-31-84-10-19-10-22 4-31 5-2 10-6 13-8 8-8 16-24 18-40 1-6 1-10 0-18-1-5-3-14-4-20-3-23-5-28-14-37-11-9-24-14-41-16-13-1-28 0-36 3-12 4-21 14-25 25-2 7-2 22-1 36 2 15 2 27 1 31-2 4-6 8-16 15s-10 6-33 49c-3 5-7 12-10 15-19 28-34 61-38 84-1 4-2 13-4 20-5 27-5 28-5 110 0 83 0 81 6 86 5 3 15 4 86 4 50 0 68-1 75-2s11-1 13 0c3 1 32 1 99 1 52 1 95 1 96 1 0 1 19 1 42 1 23-1 70-1 105-1z"/></svg>