<svg xmlns="http://www.w3.org/2000/svg" width="1344" height="566"><path d="M0 283V0h1344v566H0V283m765 277c10-2 26-2 108-1 138 1 214 1 221-1 12-2 14-2 20 0l5 3h47c54 0 70-1 76-5 2-2 1-3-2-6-9-11-15-31-22-73-3-23-4-24-25-33-16-7-19-10-26-24-5-11-14-37-17-50-1-5-4-17-6-26-12-52-14-64-17-104-2-31-4-45-8-53-3-5-6-7-11-7s-10 4-12 10c-2 8-5 9-7 4-1-1-3-10-5-18-1-9-4-18-5-22-5-14-17-17-28-8-2 2-4 4-5 4 0 0-3-2-7-4-9-7-15-6-22 2l-4 6c0 3-6 13-10 18-6 7-13 20-16 30-2 6-4 18-4 28-1 15 2 72 4 79 1 8 10 26 20 43 4 7 10 16 12 21 8 13 15 25 28 44 16 25 23 37 31 61 4 13 10 29 15 40 4 10 7 22 7 25-1 2-2 3-3 4-3 0-12-4-19-10-29-26-26-24-66-51-9-5-16-11-22-17-10-9-11-11-16-22-3-7-7-16-8-19-2-5-5-9-9-14-13-13-43-37-55-43-9-5-13-5-54-4-60 2-58 2-61-4-1-3-1-4 0-13 2-17 6-29 11-32 2-1 6-5 9-9 8-9 9-12 9-35 0-17 0-18-4-33-2-8-4-17-4-18 0-2-1-6-3-9-1-3-4-10-6-16-3-7-8-18-12-26-4-9-8-19-10-23-10-23-19-39-42-73-9-15-23-30-35-39-8-5-24-14-32-16-2-1-7-3-12-5-10-4-29-7-40-7-5 0-14 1-20 1-7 1-16 2-20 2-5 0-12 1-15 2-4 0-9 1-11 1-5 0-30 6-37 9-20 8-46 29-59 46-4 7-18 32-22 44-6 14-8 25-8 39v13l3 6c10 15 10 16 7 46s-3 30 4 48l4 12 1 18c1 29 4 39 18 57 4 4 10 13 14 17 11 15 13 17 12 30 0 12-1 16-7 24-8 10-29 25-36 25-3 0-3-1-8-14-6-16-15-34-18-36-4-3-10-4-14-1-8 6-12 21-12 53 0 10 0 19-1 21-3 13-9 7-17-15-7-21-12-54-15-91-2-42-5-51-14-56-5-3-7-3-10 1-3 3-4 5-6 13-2 11-5 30-6 53-2 18-3 21-5 18-1-1-2-4-2-6-1-3-2-7-3-10-2-5-7-24-12-43-7-28-12-34-25-34-6 0-9 3-10 10 0 6 2 36 5 56 6 33 7 47 5 48-1 0-7-11-9-18-1-3-3-8-4-11s-4-10-5-15c-9-24-13-29-23-29-5 0-9 2-11 7-1 4-1 9 1 20 1 11 12 52 14 57 1 2 2 8 4 13s4 12 5 14c1 3 2 7 2 9 1 3 1 4-1 4s-4-2-20-22c-11-14-19-22-24-24-2-1-6-2-8-2-5 0-5 0-8 3-3 4-4 6-1 14 4 15 16 35 39 65 9 12 20 26 26 35 7 11 15 20 20 22 4 2 6 2 26 2h39c25-2 294-1 338 0 20 1 37 1 37 2 1 0 40-1 52-2z"/></svg>