<svg xmlns="http://www.w3.org/2000/svg" width="1344" height="566"><path d="M0 283V0h1344v566H0V283m550 278c4-1 10-1 14-2 5-1 14-1 28 0 11 0 31 1 44 1 76-1 69-1 71-3 3-3 3-4 3-20 2-34 3-61 4-64 1-2 2-4 3-4 1-1 7-1 15 0 15 1 45 0 62-2 6-1 17-2 24-3 8-1 15-1 18-2 2 0 8-1 14-2 10-1 13-2 34-9 6-1 12-3 13-3 3-1 19-8 31-14 3-2 7-5 10-7 9-7 21-24 21-30 0-2-1-5-3-8-1-3-4-8-4-11-1-3-4-7-5-9-2-2-8-9-14-16-17-22-28-31-48-39-13-6-14-7-26-19-7-6-15-13-17-14s-8-3-14-4c-8-1-12-3-21-7-6-4-13-7-15-9-8-6-13-7-19-6-6 0-7 0-16-4-8-3-26-12-46-23-6-4-8-6-8-19-2-19-7-49-12-64-4-13-13-28-21-37-6-6-17-15-24-18-15-9-44-16-71-19-17-2-47 7-69 21-11 7-23 20-28 28-2 4-5 10-8 14-9 17-22 43-24 50-4 13-6 17-14 23-13 10-20 15-28 19-5 2-18 10-29 17-23 15-33 20-47 26-23 8-31 13-42 30-9 14-11 19-12 35-2 21 2 46 8 56 1 2 7 11 13 19s11 15 11 15c0 1 2 3 5 6 6 8 10 15 14 29 5 14 6 23 4 51-1 12-1 28-1 34 0 10 0 11 2 13s3 2 82 3c44 0 86 0 94 1 8 0 20 1 26 0h18z"/></svg>