<svg xmlns="http://www.w3.org/2000/svg" width="1344" height="566"><path d="M0 283V0h1344v566H0V283m875 275c11-2 24-8 26-11 2-2 5-9 6-15 0-2 2-8 3-13 2-7 2-10 2-20-1-12-1-13-5-21-6-12-15-24-32-41-8-8-17-18-19-21-3-4-9-13-15-20-13-16-28-38-33-50l-4-9v-24c-1-20-1-24 0-28 3-7 2-8-2-12-4-3-6-8-7-15-1-2-1-15-1-28-1-36-5-55-14-77-7-17-11-20-23-21-3-1-7-2-9-3-3-1-4-3-14-18-4-7-9-12-12-12s-10 4-15 9c-3 3-10 9-15 13-11 6-18 13-32 25-7 7-11 9-23 11-11 2-15 0-17-7-1-2-1-11-2-20-2-33-6-50-15-68-8-16-17-26-32-35-8-4-24-10-37-12-25-4-45-2-69 7-16 6-22 9-31 17-15 11-19 16-25 27-9 20-9 23-10 55 0 26 0 28-2 33-4 12-2 25 8 42 8 14 13 20 22 29 10 8 9 7 14 28 4 15 4 20 1 27-2 3-6 8-9 11-3 4-9 11-14 17-11 12-18 19-26 24-3 2-8 6-12 9-3 3-8 7-12 9s-8 4-9 5c-2 1-8 4-13 7-6 2-13 6-16 8-8 7-22 15-28 18-14 8-19 17-20 40 0 11 0 16 1 22 1 5 3 14 3 21 1 12 3 22 6 32 1 2 1 11 1 24 1 23 1 24 7 29 5 5 12 5 57 5 22-1 43-1 47-2 9-1 70-2 101-1 15 1 29 1 31 1 44 0 66 0 67 1 1 0 99 0 127-1 30-1 80 0 96 2 18 1 35 1 48-3z"/></svg>