<svg xmlns="http://www.w3.org/2000/svg" width="1344" height="566"><path d="M0 283V0h1344v566H0V283m348 278c12-1 24-2 27-2 4-1 5-1 8 0 2 1 8 2 33 2h36c39 0 76 0 92 1 12 0 35 1 53 0 39-1 185 0 223 0 37 1 76 0 80-3 3-1 4-1 10 0 9 2 85 2 90 0s5-4 3-15c-6-25-26-82-34-98-3-5-15-44-16-53-1-2-3-10-5-18-4-19-13-67-18-97-4-26-6-33-11-48-2-5-3-10-3-11 0-4 3-8 10-17 14-17 21-29 26-47 4-12 8-29 9-37 2-21-7-38-25-47-10-5-16-6-29-6-17 1-28 5-39 13-10 8-16 18-22 36-2 6-5 14-7 17-2 4-4 10-5 13-1 4-3 9-5 11-4 6-8 8-21 11-11 3-18 7-21 12s-8 11-16 18c-4 3-9 7-11 9-5 4-9 4-10-1-7-25-14-46-22-62-15-29-33-44-68-57-17-6-22-7-36-9-15-1-26 0-37 3-4 2-13 5-22 8-21 8-27 12-37 24-11 12-22 35-25 50-1 10-2 53 0 123 0 30 0 36 3 46 1 7 2 15 2 17 2 11 4 21 8 33 7 22 7 23-8 26-4 1-10 3-14 5s-10 4-13 5c-3 0-8 2-11 3s-8 3-10 4c-24 7-43 14-53 20-5 2-5 2-7 1-1-3-2-16-2-38 0-17 0-23-5-60-3-22-18-70-27-89-5-10-8-19-8-23 0-6 3-10 12-15 12-7 22-21 28-37 3-10 4-15 1-29-4-24-10-43-19-52-6-7-11-10-24-14-18-6-42-5-56 3-17 9-22 29-17 62 3 23-1 31-19 43-6 4-11 9-14 17-2 3-5 8-7 11-2 2-7 10-10 17-4 6-8 15-11 18-11 18-15 23-19 27-6 7-8 12-15 46-3 14-7 30-12 49-2 9-3 19 0 34 1 11 2 32 4 90 1 38 2 48 4 52 4 4 6 5 19 6 16 1 118 0 145-1z"/></svg>