<svg xmlns="http://www.w3.org/2000/svg" width="1344" height="566"><path d="M0 283V0h1344v566H0V283m706 278c15-2 22-4 24-6s2-5 2-22c0-21 0-21 3-26l2-5-2-2c-1-1-3-2-3-2-3 0-7-4-9-9-2-3-5-9-7-15-6-17-12-29-16-37-4-7-4-8-4-17s0-10-2-12c-2-3-23-12-56-25-12-4-21-8-28-11-4-2-12-5-18-7-14-5-21-10-23-14s-3-13-1-23c1-6 2-8 9-32 6-19 8-41 6-56 0-5-2-15-2-23-2-14-5-30-8-39 0-2-2-9-4-14-8-33-22-66-36-87-8-13-25-29-36-36-16-9-30-16-41-19-9-2-11-2-27-2h-17l-10 6c-6 3-16 8-24 11-19 9-28 15-38 30-4 5-16 28-19 37-5 15-13 52-15 70-1 3-2 9-2 14-5 32-6 39-8 55-4 31-5 62-5 95 0 30-1 32-3 35-1 2-7 5-17 10-8 4-19 10-24 14-11 7-13 8-21 14-3 2-11 7-19 11-9 4-14 7-17 10-4 5-4 5-4 14-1 8-2 12-5 21-5 13-8 22-10 31-1 3-2 8-3 10-2 7-4 28-4 37 0 10 1 13 6 15 3 1 117 1 122-1 2-1 4-1 7 0 2 1 28 1 77 2h74s55 1 123 1c84 0 127 0 133-1z"/></svg>