<svg xmlns="http://www.w3.org/2000/svg" width="1344" height="566"><path d="M0 283V0h1344v566H0V283m538 278h82c76 0 87-1 92-4 2-1 4-3 4-5 1-1 1-12 1-25l-1-23-6-15c-3-8-7-17-8-20s-4-10-7-16l-6-11v-10c0-14-1-15-28-26-2-1-16-7-30-13s-28-12-32-14c-11-4-29-13-31-16-2-2-2-3-2-9 2-12 12-47 19-62 4-10 6-19 7-37 0-14 0-16-4-43-6-41-15-76-28-109-9-24-18-38-33-51-11-9-19-14-35-21-26-12-38-15-58-14l-10 1-14 6c-8 4-18 8-22 10-13 5-25 13-35 23-9 10-21 39-27 63-7 27-15 83-18 128-1 12-2 22-2 23-1 1-1 8-2 17-1 19 1 46 4 57 3 10 6 23 6 25 0 3-4 7-10 10-3 2-20 8-31 11-7 2-16 8-31 18-15 11-21 15-37 25-17 10-20 13-21 25-1 7-4 16-9 30-6 13-8 22-11 47-2 12-2 16-1 18 2 7-1 7 68 6h69c24 0 213 1 213 2 0 0 4 0 8-1h17z"/></svg>