<svg xmlns="http://www.w3.org/2000/svg" width="1344" height="566"><path d="M0 283V0h1344v566H0V283m934 277c153-1 165-1 172-5 5-2 6-7 5-14-1-6-5-15-8-22-2-4-4-12-5-19-1-5-6-10-14-16-7-5-21-14-54-34-16-9-28-18-30-21-2-4 0-6 12-17 13-12 14-15 19-30 3-13 9-27 14-33 4-4 20-15 27-18 4-2 9-2 17 0 5 2 8 0 13-7 2-2 6-8 9-12 9-11 11-13 12-21 0-7 0-9-3-16-1-4-4-12-7-17-5-9-5-10-20-23-8-7-21-19-29-26-7-8-18-19-24-24-7-5-12-11-13-11-1-1-5-5-10-9-8-7-23-20-38-34-4-3-11-11-15-16-19-24-23-28-35-41-21-22-51-42-74-48-11-3-27-6-35-6-15 0-35 6-49 15-5 2-10 4-19 7-8 1-15 4-18 5-10 5-27 21-34 32-8 13-12 25-17 60-3 25-4 41-4 49 2 12 1 48 0 63-1 9-2 21-2 27 0 16 3 52 5 62 0 4 1 12 1 16 0 7 0 8-2 11-4 6-5 9-5 14 1 8 0 10-13 16-6 3-12 6-15 7-4 2-15 7-17 9-3 2-28 12-41 17-7 2-20 5-28 7-16 4-18 5-21 9-4 6-15 22-23 30-20 24-25 32-32 50-2 5-5 13-7 17-3 7-4 10-2 13s6 3 28 4h429z"/></svg>