<svg xmlns="http://www.w3.org/2000/svg" width="1344" height="566"><path d="M0 283V0h1344v566H0V283m804 278c11-2 73-3 152-2 91 1 100 0 104-5 1-4 4-13 5-24 1-5 3-24 5-42 5-42 6-52 6-73 0-19 0-22-7-40-6-17-23-49-31-62-2-3-6-9-9-13s-11-13-25-27c-22-21-24-25-26-37-1-7-4-10-11-10-8-1-12-4-16-10-9-16-10-29-5-46 1-4 4-16 6-25 3-9 6-22 8-29 7-25 6-40-4-60-2-4-4-9-5-12-5-9-12-15-29-22-8-3-24-6-33-6-10 0-48 10-62 17-6 3-18 14-22 22-3 5-3 6-4 17 0 8 0 12-3 21-2 7-4 16-5 25-1 12-2 17-6 29-3 9-5 17-5 19s1 6 3 9c4 6 6 12 9 25 1 3 5 10 8 16 5 10 6 12 10 15 3 1 8 3 11 4 7 1 14 4 18 7 3 2 10 15 10 18 0 4-6 12-20 26-14 16-17 21-18 35-1 11-2 14-9 30-12 26-17 41-21 55-10 38-15 62-17 80-1 5-2 10-2 11-1 2-3 19-3 37 0 5 3 14 6 17 6 8 9 9 16 10 12 1 17 1 21 0m-293-2c9-6 13-20 10-39-1-8-3-18-6-29 0-4-2-12-3-19-2-12-7-29-12-39-4-8-19-22-34-30-8-5-17-11-19-13-2-3-1-6 1-12 2-2 4-8 5-12 4-11 6-14 13-21 6-5 10-7 23-13 8-3 8-4 8-26 0-11 0-24-1-30-1-10-1-10-6-19-7-10-9-14-13-29-2-6-6-15-9-20-3-9-6-12-12-18s-8-7-14-9c-8-3-29-6-37-6s-26 3-34 6c-12 5-23 13-31 22-8 10-11 14-14 24-2 8-2 9-3 57 0 26 0 63 1 82 1 34 1 35-1 44-2 7-3 12-8 21-8 14-13 27-14 39-1 5-2 13-5 20-6 18-8 29-9 49 0 16 0 18 2 19 1 1 3 2 4 2s50 1 108 1h106l4-2z"/></svg>