<svg xmlns="http://www.w3.org/2000/svg" width="1344" height="566"><path d="M0 283V0h1344v566H0V283m911 277h114c65 1 85 1 109-2 18-2 15-10-18-48-18-20-35-36-51-47-35-24-58-45-63-60-3-5-6-10-21-32-14-20-18-25-26-33-16-17-25-36-25-51 0-5 0-6 5-9 18-17 23-23 28-40 2-7 2-13 4-32 0-13 1-28 1-35 0-9-2-29-3-36-9-41-19-61-38-82-10-9-19-16-33-24-20-11-31-15-48-18-14-2-23-1-42 2-20 3-26 5-40 10-6 3-12 4-18 5-8 1-11 2-21 7-25 13-46 33-53 53-5 14-9 41-11 70 0 18 1 30 6 49 8 31 10 38 12 51 4 18 6 25 13 42 10 27 24 55 33 68 3 6 9 11 12 11 0 0 3 1 5 2s9 3 15 4c17 3 18 5 14 14-3 5-5 7-19 15-4 3-10 5-12 7-10 4-37 24-45 31-14 14-21 34-20 58 0 8 0 14-1 18s-2 8-1 17c1 10 1 11 3 13l2 2 65 1h93c15 0 49-1 75-1z"/></svg>