<svg xmlns="http://www.w3.org/2000/svg" width="1344" height="566"><path d="M0 283V0h1344v566H0V283m294 279c13-1 33-1 46-2 23-1 39-1 124 0 30 0 61 0 68-1h55c27 1 46 1 57 0 19-1 173 0 190 2 8 1 18 1 26 0 12 0 14 0 16-3 3-3 3-9-1-21-3-12-7-22-13-30-3-4-6-10-9-13-5-9-15-18-22-22-10-5-23-10-35-14-6-1-15-4-21-6-18-6-25-8-38-11-7-1-15-3-17-4-4-2-9-8-22-25-8-12-8-13 2-23 4-5 11-14 15-20 6-10 9-14 12-25 3-7 7-18 9-23 2-6 5-14 6-20 2-5 4-12 5-14 8-24 11-40 11-67 0-8 1-25 1-40 2-30 2-49 1-60-4-28-13-55-27-78-7-11-18-26-23-30-9-8-2-8-126-8-105 0-112 1-116 2-12 5-31 34-41 61-4 11-6 24-7 45-1 22-2 29-7 48l-3 14v24c1 16 1 25 2 30 2 8 2 11 1 34-1 22-1 25 0 30 3 9 7 18 16 32 4 7 9 16 11 20 4 10 6 20 4 23-1 3-24 32-29 38-9 9-26 16-66 26-37 10-44 12-65 19-13 5-29 11-38 15-13 6-15 7-22 13-12 13-19 26-19 38 0 7 2 22 4 30 1 3 2 7 2 8 1 4 5 6 16 7 5 1 11 1 13 1 2 1 10 1 17 0h37z"/></svg>