<svg xmlns="http://www.w3.org/2000/svg" width="1344" height="566"><path d="M0 283V0h1344v566H0V283m855 278c7 0 13-3 16-7 5-5 7-11 14-44 1-8 3-17 5-22 1-5 3-11 4-15 3-11 7-20 12-30 3-5 6-10 6-11 1-1 3-4 4-7l10-15c8-12 20-33 20-36 0-2-3-5-10-12-5-6-10-12-11-14-4-7-3-15 9-54 6-20 8-41 6-46-1-1-3-3-5-4-4-1-9-1-31-2-23-1-26-1-30-3-8-3-16-15-22-35-2-5-4-12-5-15-2-5-2-7-1-13v-8l-6-4c-4-3-9-7-13-9-7-5-11-9-12-14-2-10-3-13-8-19-4-3-8-6-12-8-13-6-16-16-12-41 2-19 2-24 0-34-3-10-6-17-9-20s-20-6-32-5c-14 0-20 2-30 12-8 8-9 10-14 20-3 6-9 17-13 25-15 28-23 58-26 95-1 6-3 21-5 32-8 49-10 79-10 117 1 29 1 28-9 29s-18 3-49 14c-16 6-35 12-42 14-23 8-23 7-23 20 0 6 0 9-3 18-2 6-6 14-8 18s-5 10-6 13c0 3-3 12-6 19-9 29-13 52-12 72 2 23 3 25 18 27 6 1 42 1 92 2 45 0 94 1 107 1 28 1 144 0 152-1z"/></svg>