<svg xmlns="http://www.w3.org/2000/svg" width="1344" height="566"><path d="M0 283V0h1344v566H0V283m832 278c9 0 16-1 18-2 3-2 3-5 0-19-1-8-4-18-5-23-1-6-3-12-6-18-8-18-12-31-12-43 0-8-5-13-23-22-26-13-64-31-81-38-4-2-14-7-23-11-16-8-17-9-19-13-2-5-2-6-2-33 0-22 0-31 2-44 3-24 3-41-1-59-2-7-4-20-5-29-2-9-4-18-5-22-15-49-23-70-33-87-15-21-25-34-39-45-17-14-32-21-53-27-8-2-14-2-26-3-21 0-26 1-48 13-6 3-15 7-19 9-11 4-15 6-22 13-21 21-34 58-39 107-3 28-3 86-1 119 3 32 5 54 6 64 2 9 3 21 5 33 0 8 0 9-10 12-4 1-9 3-11 3-9 3-82 37-91 42-5 3-5 5-4 20 1 16 3 19 10 28 11 13 52 41 70 49 5 2 13 5 17 6 4 2 11 5 14 7 12 6 24 11 31 12 3 1 15 1 26 2 11 0 20 0 20 1 1 0 343-1 359-2z"/></svg>