<svg xmlns="http://www.w3.org/2000/svg" width="1344" height="566"><path d="M0 283V0h1344v566H0V283m777 278h274c45-1 46-1 46-7 0-2-1-7-3-12-1-4-3-10-4-13-1-5-8-20-15-31-6-9-10-30-8-44 1-11 6-33 12-50 7-24 13-51 13-60 0-4-1-6-3-8s-3-3-4-3-4 2-7 5-6 5-6 5c-3-1-8-13-8-20-1-8-4-13-8-14-4-2-7 1-11 9-7 13-9 13-13 1-6-15-14-16-22-1-4 7-5 8-10 8s-9 2-12 5c-4 3-8 10-9 15-1 6-5 14-7 15-1 0-4-2-7-5-3-2-8-5-11-7-2-1-10-4-17-7-6-3-16-8-21-9-16-7-38-17-41-19-3-3-3-10-1-21 5-20 5-27 6-52 0-31-1-49-5-60-4-15-15-34-23-41-7-7-42-28-56-34-9-4-16-5-34-6-20-1-24-1-36 4-10 4-26 14-36 22-8 7-21 20-25 27-4 6-10 25-12 33-2 10-4 20-5 24-6 13-7 22-8 36-1 8-1 18-2 23 0 6 0 11 1 17 1 4 2 10 2 12 0 6-6 10-29 18-13 5-15 5-52 17-5 1-12 4-17 7-5 2-10 4-11 4-5 0-7-5-9-19 0-9-2-14-5-14-3-1-6 0-10 7-4 6-7 7-9 4-1-1-3-6-5-12-4-13-7-19-11-20-3-1-5 1-9 8-3 6-6 9-9 9 0 0-3-2-5-4-3-2-6-4-7-4-3 0-9 6-9 9-1 22-2 29-7 31-1 0-4-1-8-3-9-5-12-5-15-1-2 2-2 3-2 11 1 9 3 20 9 36 1 5 3 11 4 13 5 17 9 29 13 41 7 21 10 33 10 39-2 16-15 48-25 63-6 8-9 13-8 17s5 5 19 6c12 1 13 1 21-1 7-2 10-2 19-2 7 1 15 1 20 1h95c87 0 90 0 113 3 6 1 74 0 75-1z"/></svg>