<svg xmlns="http://www.w3.org/2000/svg" width="1344" height="566"><path d="M0 283V0h1344v566H0V283m871 277c3-1 5-2 6-4 2-3 2-5 2-26-1-24-3-42-7-54-6-16-28-36-79-68-11-7-22-15-27-20-3-4-8-12-18-30-5-11-5-12-5-18 0-10 3-18 16-41s15-26 21-36c3-5 5-9 6-14l7-28c7-28 8-38 9-59 1-45-10-72-39-101-24-22-34-27-61-29-7 0-17-2-20-2-16-4-33-3-49 1-28 7-60 36-71 64-6 15-8 26-10 55-1 19-3 27-8 34-6 10-7 20-5 37 2 16 10 30 23 40 4 3 7 7 8 8 0 1 2 5 3 10 3 11 3 25 1 30-5 9-30 33-44 42-7 5-12 7-26 12-9 3-21 7-26 9-35 10-65 19-73 24-9 4-15 11-21 24-7 13-21 44-25 57-2 5-5 12-6 15-2 4-5 10-6 15-2 5-7 16-10 24-8 19-9 24-6 27 2 2 2 2 63 2 33 0 72 1 85 1 41 1 388 0 392-1z"/></svg>