<svg xmlns="http://www.w3.org/2000/svg" width="1344" height="566"><path d="M0 283V0h1344v566H0V283m456 278c33 1 55 1 152 0 67 0 75-1 78-2 2-2 8-3 17-5 3 0 6-1 8-4 3-2 8-5 12-7 5-3 7-5 9-8s2-3 1-7c-2-3-2-3-1-7 3-6 2-14-2-18-4-5-7-6-14-6h-6l-6 6-6 6c-1 0-3-1-5-3-3-4-7-6-15-8-3-1-7-3-8-4s-5-7-8-13c-3-7-7-14-9-16-5-7-25-21-45-32-10-7-14-10-26-19-4-3-9-7-12-8-2-1-4-3-4-4-2-4 0-12 7-21 3-3 6-8 8-12 4-8 7-13 13-21 3-3 7-7 8-9 2-3 11-8 14-8s12-4 16-7c5-4 8-11 11-26 1-8 2-15 3-16 1-2 1-7 2-11 0-7 2-18 5-29 0-4 3-9 4-12 2-3 4-7 5-9 0-5-4-21-9-34-6-13-6-18-4-33 2-19 3-50 1-59-3-17-9-30-16-38-11-12-41-29-69-38-29-10-31-10-60-9-31 1-46 4-64 12-6 3-16 8-20 11-11 6-25 19-28 27-3 5-12 30-15 40-3 9-6 23-8 28-6 27-10 44-12 56s-7 38-11 61c-3 16-5 28-8 45-2 14-8 43-11 57-6 26-7 28-14 47-2 7-16 17-34 25-14 6-16 7-30 21-7 6-18 16-25 23-20 17-26 27-35 51-4 13-9 29-10 36 0 6 1 9 5 11 2 1 52 1 123 0h148z"/></svg>