<svg xmlns="http://www.w3.org/2000/svg" width="1344" height="566"><path d="M0 283V0h1344v566H0V283m795 272c57-2 61-2 61-12 0-4-3-15-7-22-1-3-2-7-2-9 0-4 1-5 6-10 4-4 6-6 6-8 0-3 2-5 13-10 8-5 32-20 37-24 1-2 3-5 5-8 3-6 3-14 1-28-2-7-2-15-2-30 0-24-1-32-6-41-8-12-15-16-36-17-29-2-48-5-55-9-6-2-13-10-14-14s0-13 2-35c1-6 3-16 3-22 4-26 1-50-9-75-10-24-22-39-40-50-19-9-40-15-56-15-11 0-46 6-52 8-2 1-8 3-12 5-10 4-47 20-53 23-5 3-9 7-12 11-2 5-7 17-7 21 0 1-1 6-3 12-2 9-3 12-9 30-5 16-8 35-9 54-2 35-2 58-1 71 1 7 1 18 1 25 1 17 3 28 12 47 12 25 13 27 15 48 3 20 6 30 16 44 5 7 9 14 10 16s2 3 6 3c6 0 7 1 5 7-2 7 1 9 9 5 4-1 5-1 11 3s75 8 117 7c7 0 29-1 49-1z"/></svg>