<svg xmlns="http://www.w3.org/2000/svg" width="1344" height="566"><path d="M0 283V0h1344v566H0V283m479 136c4-1 12-3 20-6l13-5 14-1c9-1 20-1 26-2 5 0 15 0 22 1 36 3 63 5 92 5 26 1 36 2 44 4 6 2 20 1 34-1 7-1 17-3 22-3 9-1 12-2 37-8 24-6 37-10 45-13 7-3 10-3 19-4 6 0 11 0 13-1 3 0 4-5 4-15-1-5-1-15-2-24-1-17-2-23-5-29-1-2-2-5-3-8-2-6-5-9-10-9-4 1-4 0-7-8-1-4-4-10-6-14-2-3-4-8-5-9-1-3-3-4-6-5-7-2-8-3-7-4 0-1 2-1 6 0 5 0 6 0 9-3l3-3-1-6c-1-6-3-15-7-31-8-29-11-44-13-54-3-18-13-43-22-56-7-9-19-22-26-27-13-8-37-16-50-16-4 0-13 1-22 2-15 3-28 7-40 14-15 9-29 29-33 51-3 10-3 14-4 46-1 48-3 69-5 72-1 2-2 2-13 2s-12 0-17 2c-3 2-8 6-12 9-16 12-16 13-21 24-7 13-11 19-17 24-2 2-8 6-11 9-5 4-12 9-25 15-23 11-27 12-36 12-5 1-10 1-11 1-4 0-8 5-16 25-5 11-9 20-9 21l-4 10c-2 6-4 11-3 12 1 4 29 6 46 4z"/></svg>