<svg xmlns="http://www.w3.org/2000/svg" width="1344" height="566"><path d="M0 283V0h1344v566H0V283m919 277c11-1 17-3 18-5 2-2-1-6-12-19-7-8-8-11-10-16-3-8-3-12 0-14 2-2 3-2 9-1s9 1 11 0c1-1 8-2 15-3 17-4 25-7 36-15 7-5 9-10 9-18 0-9-1-13-7-21-2-3-5-8-6-9-3-6-26-27-46-42-26-21-34-30-34-39 0-5 3-13 6-16 3-4 3-5 2-10 0-5 0-9 2-17 5-17 9-37 10-45 1-16-6-41-18-66-8-15-15-22-32-30-9-5-19-8-31-11-12-2-46-2-63 1-7 1-19 3-27 4-27 4-51 15-57 25 0 2-1 8-2 16 0 7-1 14-2 15s-4 10-7 19c-4 12-5 19-6 26-2 24-4 35-7 42-8 21-8 23-9 35-1 11-1 12-4 17-4 7-19 24-26 30-6 4-18 11-22 11-1 0-4-1-6-2-6-2-10-1-15 3-2 2-6 5-8 6-7 4-9 5-16 18-11 20-16 48-14 79 1 19 3 27 7 32 4 4 7 5 22 6 6 1 11 2 12 2 0 1 2 3 2 5 3 5 6 6 23 7 23 2 290 1 303 0z"/></svg>