<svg xmlns="http://www.w3.org/2000/svg" width="1344" height="566"><path d="M0 283V0h1344v566H0V283m508 275h349c49 0 105 0 125 1h76c35 0 40 0 41-2 4-3 1-11-8-21-9-9-21-17-45-31-10-5-61-31-62-31-2 0-38-17-41-19-6-4-18-16-20-19 0-2-1-4-1-6 0-4 3-14 7-24 2-3 4-9 5-12 15-38 26-62 33-70 3-4 5-5 11-7 15-5 27-13 38-29 9-12 18-30 19-39 2-12 0-15-11-26-2-1-3-3-3-5 0-3 3-15 10-36 9-30 14-53 17-80 1-14 0-22-5-43-5-17-8-25-13-34-9-16-14-18-34-20-13-1-195-2-210-1-13 1-20 4-24 8s-19 36-23 48c-5 13-9 30-12 46s-7 32-9 35c-1 4-5 6-11 6-10 2-16 8-20 20-2 9-1 37 2 48 3 12 9 23 18 32 10 11 10 11 7 47-2 31-4 40-9 56-5 15-16 31-23 35-4 1-16 1-39 0l-17-1-5 3c-4 2-10 7-22 20-17 19-23 25-34 31s-46 22-75 34c-34 13-64 28-79 41-15 12-34 37-32 42 1 3 3 3 18 4 18 1 97 0 111-1z"/></svg>