<svg xmlns="http://www.w3.org/2000/svg" width="1344" height="566"><path d="M0 283V0h1344v566H0V283m739 276c3-3 3-8 0-27-5-34-14-64-28-89l-6-10v-11c0-13 0-13-31-24-19-7-23-9-41-16-13-5-23-10-25-13s-1-13 4-29c2-7 5-17 6-22 5-16 6-23 6-51 0-17 0-28-1-34-1-5-2-12-2-17-4-45-14-101-22-119-9-19-20-32-41-47-16-11-24-15-36-19-20-6-35-7-50-3-3 0-13 2-21 3-11 2-17 3-22 5-21 9-32 18-46 42-7 13-9 17-13 28-7 23-12 44-16 64-3 20-9 55-10 67-1 7-3 19-4 25 0 6-2 17-2 24-1 7-2 16-3 21s-1 20-1 34c0 23 0 25-2 28-2 5-12 10-33 17-18 6-21 8-43 23-17 12-22 15-31 20-11 6-20 12-21 14s-2 6-3 10c-1 6-4 12-9 24-11 21-16 41-16 66 0 10 0 11 2 14l2 3 64-1c42 0 65 0 69-1s6-1 10 0 38 1 117 1h124c6 0 40 0 74 1 94 1 98 1 101-1z"/></svg>