<svg xmlns="http://www.w3.org/2000/svg" width="1344" height="566"><path d="M0 283V0h1344v566H0V283m734 189c3-1 8-1 12-1 5 0 27-4 29-6 1 0 8-2 25-6 6-1 16-3 33-8 22-6 25-6 50-6l23 1 2-2 2-3-2-16c0-8-1-19-2-23-1-3-2-18-2-32-1-30-1-33-5-38-1-2-3-5-4-7-3-5-6-8-14-10-10-3-16-6-20-11-4-4-10-7-19-9-8-2-10-4-8-6 1-2 4-2 12-2 9 0 11 0 13-2s2-2 1-9c-1-4-2-13-2-20-1-10-2-17-5-29-2-9-5-22-7-29-2-8-6-20-8-26-5-18-6-21-8-27-4-19-14-42-24-57-9-15-28-30-53-42-16-8-20-10-33-9-8 0-11 0-22 3-6 2-17 5-24 7s-15 4-18 6c-15 7-31 32-36 55-3 12-7 30-7 40-1 4-2 10-3 14-1 7-1 15-1 59 0 33 0 55 1 62 1 14 1 14-8 16-9 1-14 1-28-1-12-2-24-2-29 0-1 1-6 5-10 9-5 5-10 9-13 11-6 3-17 10-25 15-3 3-11 8-17 12-7 4-16 10-20 14-10 9-15 11-26 11-6 0-9 1-12 2-4 2-4 2-2 10 0 4-2 11-11 31-6 14-10 25-10 29 0 1-1 6-2 9-2 6-2 6 0 8 3 4 6 4 17 1 6-2 12-4 13-4 2 0 5-1 7-1 6-3 38-4 49-3 12 1 34 1 37-1 2-1 17 0 24 1 3 1 10 2 14 3 5 1 14 2 20 2 5 1 17 2 26 3 17 1 21 1 30-2 5-2 12-2 24-1 5 1 14 2 18 2 12 1 26 4 32 7 2 1 5 3 7 5 3 3 3 3 19 1z"/></svg>