<svg xmlns="http://www.w3.org/2000/svg" width="1344" height="566"><path d="M0 283V0h1344v566H0V283m992 274c34-1 33 0 32-13-1-10-5-47-7-59-3-19-4-35-3-43 1-7 1-9 0-13-2-6-9-14-17-20-3-1-8-5-12-8-10-8-19-12-35-17-19-7-27-11-31-16-5-5-5-7-1-15 2-5 3-9 4-19 1-14 1-50-1-60 0-4-1-12-2-18-1-7-2-16-3-21-7-41-8-44-21-79-13-33-29-65-41-83-14-21-39-40-60-46-12-3-32-5-45-5-16 1-38 5-47 10-11 5-44 27-52 35-15 15-23 34-26 66-3 18-1 32 6 51 4 13 6 30 7 51 0 17 0 20-1 25-3 8-5 9-19 7-13-1-21-1-45 1-20 1-28 0-36-5-6-3-23-12-28-13-2 0-11-4-20-7-9-4-20-8-25-10l-9-2-11 1c-6 1-15 3-19 5-4 1-15 3-23 5-28 6-37 8-39 9 0 1-2 4-3 7-2 3-7 9-14 16-24 27-29 36-30 55v12l4 13c8 21 13 34 14 37 0 1 3 8 6 17 3 8 6 18 8 23 5 13 17 37 21 41 3 4 15 13 23 18 4 2 16 5 33 7 6 1 19 4 30 7 10 3 20 6 22 7 18 5 24 7 35 11 7 2 18 7 25 10 6 3 13 6 14 6 5 2 10 5 13 10 3 3 5 5 7 6 1 0 8 0 16-1 8 0 15-1 18 0 14 2 104 4 148 3 4 0 15 0 25 1h215z"/></svg>