<svg xmlns="http://www.w3.org/2000/svg" width="1344" height="566"><path d="M0 283V0h1344v566H0V283m788 278c44-1 141-1 208 1 40 1 96 1 99 0 1-1 3-2 4-4 2-6 1-12-5-26-1-3-1-4 0-10 1-3 3-10 4-14 2-4 4-9 5-12 1-2 3-8 6-13 25-49 26-52 28-63 1-10-2-16-10-15-3 0-4 0-8-3-2-2-6-6-7-9-5-9-10-10-19-4-7 5-11 5-17 1-3-2-5-3-9-3-5 0-8 2-13 7-6 6-11 8-19 8-5 0-8 0-10-2-3-1-6-8-10-20-2-4-5-11-6-14-5-9-19-30-23-34-5-3-24-13-45-22-30-12-38-18-40-26-1-7-1-18 1-30 1-13 1-50 0-62-1-9-4-22-7-29-5-11-14-23-22-31-12-10-40-28-53-33-12-5-15-6-35-8-19-1-20-1-29 1-11 2-23 7-33 14-4 2-10 5-12 7-11 6-29 27-35 42-2 7-5 19-5 25s-5 19-12 34l-6 13v28c0 26 0 29-1 31-3 5-5 6-30 14-46 16-58 21-73 36-8 7-10 11-18 44-6 19-10 29-14 33-2 1-5 2-8 2-7 1-12 5-16 10-5 7-7 7-11-1-5-8-10-12-15-12-3 0-3 0-12 10l-4 4-6-3c-4-2-7-3-9-3-4 0-9 6-9 12 0 2-1 5-2 7-2 5-6 6-15 6-7 0-12 2-13 6v8c1 5 2 9 9 21 4 9 11 20 15 26 23 35 32 44 45 49 8 3 27 4 142 4 83 0 104 0 107 1 10 3 18 3 73 1z"/></svg>