<svg xmlns="http://www.w3.org/2000/svg" width="1344" height="566"><path d="M0 283V0h1344v566H0V283m499 276c1-1 2-5 3-8 1-5 1-7 0-13-1-4-3-10-4-13-1-2-2-5-2-6 0-4-12-37-17-47-6-10-20-24-40-39-16-12-19-15-19-18 0-1 2-4 4-7 4-4 6-7 8-14 5-14 7-17 14-23 4-4 7-6 13-8 8-4 15-8 18-12 2-3 2-4 2-31v-28l-5-10c-6-11-9-20-12-33-6-29-15-46-29-52-6-3-21-7-38-10-8-1-13-1-22-1-20 1-32 5-47 17-16 11-26 25-30 43-2 7-3 23-6 66 0 7-2 19-2 25-1 6-3 24-4 39-1 16-3 32-4 37-1 7-1 12-1 23 1 15 1 14-9 42-2 7-3 12-4 20-1 10-2 14-7 33-4 12-4 23-1 27l3 2 48 1c26 0 79 1 118 1h70l2-3m368-1c33-1 60-1 125 0 80 1 100 1 105-1 6-2 9-13 11-35 5-47 6-85 4-99-4-29-29-76-62-117-8-10-9-11-29-29-13-12-16-15-19-26 0-3-1-7-2-8 0-3-5-5-13-5-12-2-16-5-21-20-3-10-4-19-1-28 0-3 2-8 2-11 7-29 9-35 11-42 3-9 10-32 10-38 1-5-1-22-3-33-2-10-10-27-15-33-4-5-20-14-30-17-13-3-28-5-39-5-20 2-46 9-61 17-8 5-22 17-26 23-3 4-3 4-3 19-1 15-1 16-4 26-3 9-4 15-5 26-2 13-4 20-9 35-4 11-4 16 1 27 3 5 6 14 8 18 1 5 4 15 7 22 5 14 10 20 18 22 17 4 25 8 31 14 4 5 8 13 8 16 0 1-7 9-19 21-23 22-25 26-28 42-1 12-2 15-10 33-12 26-22 58-28 86-2 9-5 19-5 22-1 2-2 6-3 8 0 3-1 7-2 10 0 3-2 10-2 15-1 5-3 16-4 24-3 13-3 14-2 18 2 3 3 4 10 4 7 1 52 0 94-1z"/></svg>