<svg xmlns="http://www.w3.org/2000/svg" width="1344" height="566"><path d="M0 283V0h1344v566H0V283m710 280c10-1 35-1 57-1 31 0 41-1 47-2 7-1 20-1 81-1 40-1 74-1 75-1 1-1 3-2 4-4 1-3 1-4-1-12-3-13-5-21-9-34-9-31-10-36-8-58 1-9 2-25 3-36 1-12 1-22 2-23 0-2 2-84 2-98 0-7-1-10-4-19-2-6-5-13-7-16-3-6-15-18-36-37-28-25-28-24-30-29-2-4-2-7-3-19-1-18-3-39-6-48-2-9-9-25-14-34-4-8-14-19-21-23-13-10-40-27-45-29-10-4-27-7-52-9-17-2-37 3-53 12s-25 15-33 24c-11 12-15 17-26 38-11 22-13 28-14 48 0 7-1 14-2 16-3 7-10 12-34 24-41 21-50 26-61 37-9 10-12 16-14 35-4 24-5 29-14 64l-7 28c-2 7-6 21-9 29 0 3-1 8-2 13-1 4-1 10-2 12-2 11-5 30-6 38 0 5-1 11-1 12-1 2-1 11-2 20 0 15-2 35-4 39-1 2-2 7-5 22-3 13 0 18 9 20 3 0 49 0 103 1 54 0 101 0 105 1 11 1 18 1 37 0z"/></svg>