<svg xmlns="http://www.w3.org/2000/svg" width="1344" height="566"><path d="M0 283V0h1344v566H0V283m830 277c7-2 10-4 14-13 4-8 5-12 4-22-1-5-1-7 2-12 3-7 14-27 23-41 3-6 11-19 16-30 9-18 11-22 17-28 8-10 13-18 13-24 0-2-1-6-3-9-1-2-3-7-3-11-1-7-5-14-9-17-2-1-2-1-4 0-4 2-12 17-13 22-1 7-6 15-12 18-7 3-10 3-13 0-1-2-1-2 0-6 1-3 8-15 15-26 2-4 3-7 3-11s0-5-4-8c-5-5-9-5-23-4-6 1-7 1-8 0 0-2 1-5 6-10 2-3 5-9 8-14 3-7 4-11 5-16 0-6 0-8-2-11-3-4-7-6-13-5s-9 3-11 8c-3 5-20 25-26 30-5 4-11 5-24 5-17 0-18 1-29 19-10 18-15 31-22 60-5 22-6 26-23 60-5 11-21 39-25 45-5 8-9 12-12 12-2 0-8-5-13-10-3-2-7-6-11-9-7-6-9-9-11-23-2-12-9-28-16-35-2-2-8-7-14-11-12-8-15-11-15-13 0-1 3-4 6-7 9-8 11-12 17-31 3-8 7-22 10-30 10-32 13-50 12-88-1-14-1-28-2-31 0-3-2-12-2-20-1-8-2-16-3-18s-1-8-2-14c-2-16-8-42-14-61-3-10-13-30-19-38-6-10-26-30-38-38-18-13-32-19-51-20-11 0-12 0-26 3-8 2-18 4-21 5-17 3-24 4-32 8-6 3-9 6-17 13-9 10-20 24-25 32-2 3-5 9-7 15-15 34-24 72-33 126-2 17-5 32-7 42-4 18-4 34-3 73 1 35 1 36-1 46-2 12-1 10-19 37-17 24-25 41-33 62-3 9-7 20-9 25-6 15-6 17-1 29 3 5 5 11 6 13s3 4 4 5c7 3 40 4 158 2 123-1 285-1 313 1 27 2 64 1 72-1z"/></svg>