<svg xmlns="http://www.w3.org/2000/svg" width="1344" height="566"><path d="M0 283V0h1344v566H0V283m486 118c2-1 8-2 12-4 9-2 11-2 30-2 18-1 22-1 25-2 6-3 13-2 38 5 10 2 22 3 40 3 58 0 80 0 87 2 4 1 6 1 10 0 3-1 10-1 16-2 16-2 25-3 30-4 2-1 9-3 14-4 14-3 18-4 24-5 10-3 26-4 33-4 4 1 10 1 13 2 7 0 8 0 9-2 2-1 2-3 0-21-1-11-3-24-3-30-2-11-2-12-6-15-3-3-5-4-10-4-3-1-7-2-10-3l-4-3v-14c-1-22-3-26-16-27-7-1-10-3-10-6 0-4 2-4 12-4 4 0 8-1 9-1 2-2 1-14-4-50-1-6-2-15-2-19-2-13-8-41-13-53-1-4-5-12-8-18-4-9-6-12-12-18-4-3-10-8-13-10-2-2-6-5-9-6-7-5-23-12-30-14-8-1-20-1-29 2-2 0-9 2-15 3-22 4-37 17-47 40-5 10-8 31-13 77-1 6-1 15-2 20s-1 15-2 22c-1 14-3 18-7 19-1 1-5 2-9 3s-11 2-16 3c-9 1-10 1-15 0-6-3-11-2-20 2-8 4-14 9-15 12-1 2-2 6-3 10-3 15-9 33-14 39-4 4-12 8-25 12-5 2-12 4-15 5s-7 2-8 2c-4 0-11 4-13 7-6 11-22 49-22 54 0 4 2 4 18 3 11 0 18-1 20-2z"/></svg>