<svg xmlns="http://www.w3.org/2000/svg" width="1344" height="566"><path d="M0 283V0h1344v566H0V283m922 271c3-1 5-1 14 0s11 1 15-1c7-2 9-3 18-12 6-7 9-11 15-22 4-7 7-14 7-15 0-2-3-5-5-5-5-1-9-14-9-29 0-9 0-10-4-20-2-7-4-13-4-17-1-4-2-8-5-14-5-11-11-14-40-24-11-3-14-4-26-4-7-1-15-1-16-2-2 0-6-1-10-2-9-1-24-5-26-6-3-2-5-6-5-13-2-11-3-14-6-19-6-6-13-8-21-8-7 1-15 4-21 9-6 4-8 21-4 38 3 12 8 19 16 25 8 5 13 10 16 17 6 18 14 33 25 48 3 5 7 10 8 12 3 4 5 6 12 10 5 2 6 3 7 7 0 2 2 7 3 11s2 9 2 13c0 7 2 10 7 12 2 1 6 4 8 7s5 5 6 5c6 1 19 1 23-1z"/></svg>