<svg xmlns="http://www.w3.org/2000/svg" width="1344" height="566"><path d="M0 283V0h1344v566H0V283m874 275c15 0 16-1 19-13 2-6 2-14 3-36 1-41 0-53-9-79-1-5-3-11-3-13-1-5-5-19-7-25 0-2-2-9-4-15-1-6-4-15-5-20-2-5-4-12-5-15 0-4-2-9-3-13-4-11-8-20-11-31-7-22-19-41-35-57-9-9-12-11-20-15-10-5-14-9-18-16-3-8-4-17-1-32 4-21 2-38-4-51-6-14-19-27-32-31-6-3-9-3-19-3s-12 0-20 3c-5 2-11 4-15 5-11 3-21 10-33 25-5 5-9 11-11 14-2 4-6 19-6 26 0 6 4 17 7 23 3 5 6 19 6 28 0 4-1 5-4 10-5 6-8 15-12 30-1 2-5 12-9 21-4 8-9 18-10 21-2 6-5 10-15 26-13 18-20 26-46 51-18 17-26 24-31 27-4 2-10 6-15 8l-8 5-19-1c-28-1-29-1-34 2-3 2-12 5-25 7-8 2-11 4-12 9-2 6-1 10 3 19 4 11 9 16 19 19 19 5 25 6 32 5 3-1 10-2 14-4s11-4 15-5 10-3 13-3c5-2 21-4 25-3 2 1 6 5 12 12 10 13 14 15 29 21 11 4 13 5 26 4 2 0 10 0 19 1 11 0 16 1 18 2 3 2 9 15 9 22 0 5 0 5 8 14 16 18 16 18 40 19 41 2 165 4 184 2z"/></svg>