<svg xmlns="http://www.w3.org/2000/svg" width="1344" height="566"><path d="M0 283V0h1344v566H0V283m626 277h48c23 0 62 1 88 1 45 0 46-1 49-3 4-3 5-5 5-22 0-11-1-18-2-26-3-14-10-42-15-56-2-7-4-13-4-13 0-1-2-5-4-10-4-10-4-9-2-23 1-7-2-9-20-18-9-4-18-8-19-9-1 0-10-4-18-8-9-4-18-8-19-9-6-1-31-14-33-17-3-3-3-8 0-21 1-5 4-19 6-31s5-27 7-34c2-11 2-15 2-28 0-9 0-20-1-27-1-6-2-15-3-22-3-37-7-65-12-77-8-23-12-31-20-43-10-14-22-26-35-34-17-10-32-17-44-19-6-2-8-2-16 0-5 0-13 3-18 5-6 2-11 3-18 4-17 2-25 5-36 14-16 12-29 35-39 63-6 20-10 34-16 67-2 8-5 27-8 42-8 41-10 67-8 89 4 28 4 34-1 40-3 3-12 6-24 8-14 2-32 9-72 29-24 11-26 13-31 34-2 5-5 14-8 20-7 14-14 34-19 55-1 4-5 18-8 31-8 26-10 36-8 41 1 4 2 5 6 6 3 1 29 1 145 2h143c0 1 76 0 82-1z"/></svg>