<svg xmlns="http://www.w3.org/2000/svg" width="1344" height="566"><path d="M0 283V0h1344v566H0V283m576 276c17 0 54-1 82-1 56-2 129-2 176 0 42 1 141 3 195 2 42 0 45 0 47-2 2-1 2-2 2-5-1-7-5-13-20-32-3-4-8-11-11-14-6-8-18-18-39-34-7-6-18-15-23-20-29-26-75-62-87-68-4-2-7-2-20-3-12 0-15 0-22-3-15-5-22-12-27-28-5-15-5-28-2-44 2-9 8-22 12-28 8-9 12-17 18-28 8-19 10-30 8-45-2-9-2-10 0-27 1-19 1-41-1-51-1-7-6-19-11-27-10-18-40-39-64-46-19-6-36-8-61-6-21 1-32 4-44 10-11 6-26 18-33 26-16 19-21 31-22 59-1 9-2 23-3 30s-2 19-3 26c0 7-1 19-3 26-4 24-3 30 6 72 5 20 16 47 23 56 2 3 7 8 12 11 14 10 17 15 14 21-2 3-20 14-44 27-14 8-39 25-54 37-31 26-41 36-59 64-9 13-19 32-20 37 0 3 0 4 2 6 2 3 9 4 28 3 9 0 30 0 48-1z"/></svg>