<svg xmlns="http://www.w3.org/2000/svg" width="1344" height="566"><path d="M0 283V0h1344v566H0V283m645 277h131c31 1 45 1 47 0 3-1 88-2 113-1 13 1 27 1 43 0 38-2 39-2 42-5 4-4 3-20-4-49 0-4-2-15-2-24-1-10-1-21-2-25-1-8-1-21 0-26 1-7 0-11-7-19-6-6-7-6-16-9-18-7-23-9-40-17s-19-9-24-15c-8-7-14-18-17-30-2-8-3-17-5-49-1-9-1-18-2-21 0-2 0-18-1-35-2-56-6-89-13-112-3-10-12-28-18-36-6-10-21-24-30-29-14-9-41-22-54-25-15-4-62 1-88 10-12 3-29 12-33 16-1 2-3 8-5 14-4 12-5 14-17 29-9 12-18 28-22 39-5 11-5 13-7 28-2 18-4 23-17 42-11 18-12 22-8 37 3 7 3 11 4 28 0 11 1 23 1 27 1 5 2 13 2 19 1 11 3 16 8 21 5 6 18 10 35 12 9 1 10 2 6 8s-8 9-15 12c-9 3-17 2-17-3 0-1-1-3-3-4-2-2-3-2-12-1-5 0-11 1-12 1-2 1-13 2-24 2-18 0-20 1-22 3-2 1-8 5-13 10-13 10-23 16-26 14-1 0-2-1-4-2s-2-1-5 1c-2 2-5 3-7 4-1 1-6 3-11 6-4 3-11 8-16 12-13 8-13 8-21 14-4 3-8 7-9 8-2 3-11 8-19 10-3 1-11 2-18 3-13 0-24 2-26 5-3 2-4 11-4 18 1 5 1 8 0 11s-2 7-2 9c0 1-1 6-3 10-1 3-2 7-3 8 0 2-1 5-3 8-2 5-2 8 0 18 0 4 1 5 4 5 1 1 5 2 7 3 7 3 17 4 42 5 20 1 25 1 30 3 8 2 19 3 32 1 5-1 10-1 11-1 23 0 37 1 46 2 7 1 15 2 19 2h104z"/></svg>