<svg xmlns="http://www.w3.org/2000/svg" width="1344" height="566"><path d="M0 283V0h1344v566H0V283m243 277c21 0 41-1 44-1 7-1 10-4 10-9 1-2 2-6 4-9 1-3 2-6 2-8 0-1 1-9 3-17 1-7 3-19 4-25 2-14 3-15 13-16 3-1 7-2 8-2 2-1 10-1 18-1 17 0 37-3 56-8 7-2 20-4 28-6 16-3 25-6 31-9 2-2 9-5 15-9 14-7 23-13 25-18 0-1-1-4-2-6-2-2-3-4-3-6 0-3-3-6-5-6s-6 2-10 3c-10 5-20 8-25 8-3 0-5-1-7-3-3-3-3-4-3-9 0-8-2-14-4-14-3-1-5 0-7 5-4 9-12 26-14 27-1 1-4 3-8 4-13 4-68 4-75-1-2-1-4-3-5-4 0-1-1-9-2-18 0-9-2-21-4-28-5-26-5-25-4-43s3-32 7-35c0-1 3-2 6-3 9-1 15-2 19-4 6-4 11-12 17-25l5-12v-28c0-29 0-31-5-44-4-9-7-11-19-15-18-6-22-6-34-6-8 0-12 0-18 2s-7 2-13 9c-7 9-11 18-15 32-3 12-5 15-11 21-5 5-8 7-28 15-25 10-45 24-71 49-14 15-22 25-34 47-3 5-11 25-11 26 0 0-1 2-1 4-1 2-3 7-4 11-2 6-2 8-1 16 1 4 3 14 5 22 7 19 7 24 7 44-1 17-2 25-5 30-1 1-4 4-7 6-5 3-6 5-9 11-6 14-5 18 9 34 14 15 14 15 35 17 8 1 18 3 22 4 12 3 13 3 23 2 5 0 27 0 48-1z"/></svg>