<svg xmlns="http://www.w3.org/2000/svg" width="1344" height="566"><path d="M0 283V0h1344v566H0V283m706 278c2 0 18-1 34-1s61 0 99-1h148c43 0 86 1 96 0 24 0 24 1 16-23-9-30-13-39-24-58-26-44-52-67-102-89-16-8-50-26-57-30-4-4-16-10-33-20-12-7-27-14-37-15-3-1-9-2-12-2-12-2-14-5-15-23-1-17 1-25 8-40 6-13 7-16 11-29 5-16 6-18 5-31 0-12 0-13-3-20-5-10-7-16-8-33-1-31-4-45-13-62-10-21-28-33-65-46-18-6-24-6-49-6-20 0-24 0-33 2-26 6-53 20-70 38-12 12-20 26-25 44-2 9-2 37 0 54 2 15 4 33 4 56 2 35 4 47 13 66 2 6 7 18 11 27 3 9 9 23 13 31 6 11 7 17 8 21v5l-6 7c-14 14-47 38-84 60-7 4-23 15-38 24-14 10-28 19-31 21-12 7-28 20-32 25-7 8-16 25-18 33s-1 9 3 12c2 2 8 2 84 3 46 0 97 1 115 1 37 1 80 0 87-1m-644-2c31-1 64-1 93 1 14 0 34 1 45 1 26 0 82-2 100-3 8-1 27-1 41-2 25 0 28 0 30-2s2-2 2-7c0-9-4-29-10-45 0-2-1-5-2-8 0-2-2-9-4-16-4-15-7-26-11-45-7-31-16-52-29-70-11-16-17-22-30-32-20-15-39-25-59-32-10-3-39-18-43-22-1-1-2-2-2-3s3-5 7-9c5-5 8-10 11-16 2-5 6-12 9-16 2-4 5-10 6-15 2-4 4-11 6-14 2-4 5-10 6-14 2-5 4-8 8-12 7-6 10-13 10-19 0-2-1-10-2-17-4-28-4-31 3-50 1-5 4-12 5-17 2-11 1-17-10-47-6-16-8-19-12-22-3-1-11-2-112-2C58 4 8 4 5 5H1v550l3 3 3 3h17c10-1 27-1 38-2z"/></svg>