<svg xmlns="http://www.w3.org/2000/svg" width="1344" height="566"><path d="M0 283V0h1344v566H0V283m678 268c11-2 21-4 33-5 8-1 14-2 15-2 2-1 5-4 8-6 5-4 7-7 11-15 3-6 5-12 6-15 3-10 7-29 7-31 0-3 5-19 9-27 6-11 17-20 50-39 5-3 12-7 15-8 12-5 12-8 0-22-4-6-9-13-11-15-1-3-6-11-12-17-12-15-30-44-42-68l-8-17-14-14c-17-16-17-16-9-27 3-3 7-9 9-13 4-6 4-6 5-18 0-7 1-15 2-18 1-4 1-14 1-26-1-18-1-21-3-26-4-11-15-21-33-28-13-6-22-8-32-8-11 1-15 3-25 13-15 14-18 20-19 42-2 37-3 43-7 47-2 2-18 13-28 17-5 3-16 7-26 10-13 3-38 13-47 19-4 3-10 7-13 10-12 10-50 62-59 80-3 7-9 24-11 35-1 11-1 18 1 28 2 8 2 9 1 12-3 4-12 16-18 23-3 4-8 10-11 15s-8 11-10 15c-7 9-10 15-10 21s1 10 6 14c1 2 4 5 4 7 1 2 3 5 5 6 3 2 6 8 6 12 0 2 1 4 3 6 1 2 3 6 5 9 1 3 3 5 4 6 1 0 6 1 12 1 27 2 31 3 42 12 5 3 9 5 18 6 7 1 165 0 170-1z"/></svg>