<svg xmlns="http://www.w3.org/2000/svg" width="1344" height="566"><path d="M0 283V0h1344v566H0V283m774 276c45-1 43-1 47-9 3-5 8-21 10-27 1-6 3-13 5-15 2-1 2-1 6 1 2 2 9 7 15 13 23 21 37 30 53 33 5 1 15 1 34 2 15 0 48 1 73 1 46 1 108 1 118 0 8-1 10-3 5-7-1-1-5-4-9-5-15-6-27-18-32-34-3-10-9-21-14-26-11-12-30-22-52-28-7-2-11-3-21-10-7-5-16-12-21-17-9-8-11-9-26-16-5-2-11-5-13-7-15-12-34-29-44-40-7-8-8-9-12-22-3-7-7-19-10-26-5-12-6-18-8-27 0-5 2-18 8-35 5-16 5-27 3-51-8-79-10-88-26-107-11-12-22-18-48-23-12-3-17-3-29-3-13 0-15 0-28 3-33 8-35 9-45 19-9 8-14 15-27 41-20 39-28 51-46 70-13 13-25 24-39 34-13 10-23 19-24 22s-1 4 0 8c0 2 1 6 1 8 0 4 1 5 4 8 4 3 4 4 6 12 0 4 2 10 3 13 2 4 2 6 2 11-1 4-1 8 0 9s5 3 10 5c17 7 17 8 7 19-13 14-25 29-61 74-13 16-25 34-29 41-1 3-4 9-5 12 0 4-2 11-4 17-2 5-4 16-5 24-2 7-4 16-4 18-2 8-1 12 1 15 2 1 5 2 33 2 59 1 198 1 238 0z"/></svg>