<svg xmlns="http://www.w3.org/2000/svg" width="1344" height="566"><path d="M0 283V0h1344v566H0V283m847 278c25-1 50-1 55-1 25 0 76 1 97 1 24 1 60 0 66-2 5-2 6-5 3-21-1-9-5-22-13-42-6-15-7-20-11-35-2-5-5-15-8-22s-9-23-13-36c-11-33-22-53-32-60-5-4-11-8-37-22-33-18-37-20-41-28-1-3-1-6-1-21 1-27 0-54-1-61-2-9-5-18-10-30-11-22-22-34-43-45-3-3-8-6-10-7-13-9-31-14-49-15-4-1-12-2-16-2-15-2-40 5-59 18-9 6-27 24-32 33-6 9-12 26-13 40-1 5-4 14-14 34-5 11-5 15-7 32-1 11-3 17-5 22-3 3-11 7-21 11-21 7-30 10-41 16-14 6-23 12-32 21-8 7-11 13-15 28-6 21-14 42-21 55-2 6-7 16-10 22-7 16-12 28-16 35-6 9-15 27-17 34-3 9-7 27-8 34 0 6 0 7 2 9 4 5 7 5 109 4 132-1 141-1 149 1 7 2 21 2 115 0z"/></svg>