<svg xmlns="http://www.w3.org/2000/svg" width="1344" height="566"><path d="M0 283V0h1344v566H0V283m556 277c12-1 13-1 92-1 42 0 61 0 64-1 5-2 6-4 5-20v-42c1-24 1-29 3-30 1-1 5-2 34-2 21 0 35 0 40-1s13-1 18-2c4 0 13-1 19-2 10-1 16-2 55-12 8-2 19-5 24-7 14-6 27-10 33-12 7-1 10-3 13-7 2-2 7-15 9-22 3-10-5-28-17-42-3-3-7-8-9-11-16-21-26-30-51-42-11-5-15-7-20-12-9-10-17-16-22-18-2-1-8-3-13-3-9-1-10-2-21-8-26-15-24-14-36-15-10-1-12-1-21-6-12-5-37-19-42-23-5-3-6-7-7-20 0-6-1-15-2-19-7-34-10-44-14-54-8-19-27-38-49-47-14-6-53-14-68-14-8 0-25 4-34 7-9 4-28 13-34 17-13 9-20 18-29 35l-11 22c-5 8-13 25-19 40-1 2-3 5-5 8-5 5-26 19-39 26-5 2-14 7-19 11-5 3-12 8-16 11-8 5-19 11-33 16-6 2-14 6-18 7-11 4-18 10-26 22-12 18-14 23-15 45 0 11 0 15 2 26 3 17 6 23 14 33 16 21 19 26 21 39 2 8 4 14 10 19 4 4 5 5 6 11 1 3 2 9 3 12 2 7 2 10 2 29v37c-1 15-1 17 1 19l2 2 88 1c49 0 92 1 96 1 6 1 18 1 36-1z"/></svg>