<svg xmlns="http://www.w3.org/2000/svg" width="1344" height="566"><path d="M0 283V0h1344v566H0V283m868 277c17-1 17-1 17-12 0-9 1-11 8-15 7-3 9-7 9-14-1-3-1-6-3-8-2-3-3-6-1-10 1-1 2-4 2-5s3-8 6-15 7-15 8-17c1-3 4-9 6-14 4-8 4-9 4-17 0-14-6-37-14-48-8-12-18-21-41-36-16-11-24-18-27-24-3-5-3-7-3-15 0-6 0-14 1-19 2-18 3-49 2-57-2-13-8-33-13-44-7-15-14-24-23-34-18-17-31-22-61-27-15-2-21-2-36-1-17 3-23 5-43 14-6 3-14 6-18 8-25 10-34 15-42 23l-4 5v12c-1 11-1 12-7 28-3 9-6 18-7 19-2 3-5 19-6 29-1 13-3 22-7 36-5 17-6 24-6 37 1 6 2 15 3 19 2 12 2 22-3 41-4 15-4 18-4 30 0 7 1 16 1 21 1 4 2 10 2 14 1 3 2 8 3 11 1 7 1 19-1 51-1 16 0 25 3 28 1 1 3 3 5 4 4 2 9 2 39 2 19 0 47 1 61 1 31 1 170 0 190-1z"/></svg>