<svg xmlns="http://www.w3.org/2000/svg" width="1344" height="566"><path d="M0 283V0h1344v566H0V283m884 275c5-1 7-4 10-15 2-6 2-12 3-21v-30c1-14 1-18-1-30-1-7-3-17-5-23s-5-16-6-23c-1-6-3-15-5-20-1-5-3-11-4-14-2-11-5-21-7-24 0-1-2-6-3-10-1-8-5-21-9-30-1-2-4-10-5-16-6-18-14-35-24-47-2-3-8-10-13-15-7-7-10-9-18-13-14-7-19-13-21-26-1-5-1-8 0-17 4-24 4-27 3-37-1-9-4-19-8-25-5-8-11-15-17-19-10-7-16-9-29-10-11 0-14 0-28 5-4 2-9 4-12 5-9 2-22 13-33 27-11 13-14 23-14 37 0 9 0 10 3 14 5 8 8 16 9 27 1 12 1 13-6 22-3 5-6 12-10 27-2 7-9 22-14 29-1 2-4 8-6 13-2 6-5 12-9 18-4 4-9 11-11 15-8 11-14 18-37 41-26 26-29 28-54 41l-5 2-22-1c-24-1-25-1-30 3-1 1-6 3-11 5-22 6-24 8-24 19 1 5 2 8 6 15s5 9 10 11c2 2 10 5 17 7l13 3 7-1c4-1 8-2 10-3 3-1 22-7 38-11 4-1 11-2 14-2 5 0 5 0 8 3 5 7 17 18 21 21 2 1 10 5 17 8 12 6 12 6 26 4 6 0 8 0 19 3 10 3 13 5 16 7 2 2 4 4 5 4 2 0 5 6 5 11s1 6 11 19c12 14 14 14 38 15 43 2 185 4 192 2z"/></svg>