<svg xmlns="http://www.w3.org/2000/svg" width="1344" height="566"><path d="M0 283V0h1344v566H0V283m770 200c3-1 11-3 18-5s15-3 17-4 7-2 10-3c3 0 9-2 13-3s11-3 15-4 9-2 11-3c3-1 14-1 33-2h30s1-1 2-3c2-4 1-21-1-34-3-14-5-37-5-54-1-15-1-16-3-19-3-3-17-11-19-11-1 0-4-1-6-2s-5-2-6-2c-3 0-16-7-18-9 0-1-2-4-4-8-3-5-11-14-13-14l-2-2c-1-3 0-6 3-7 1 0 3-1 4-2 2-2 2-1-1-28-4-30-5-39-7-52-2-7-3-15-4-17 0-6-6-30-10-43-5-18-9-31-16-44-5-11-7-14-17-25-8-9-14-15-19-19-9-6-23-14-32-18-6-2-19-5-27-5-6 0-18 3-25 7-4 2-7 3-13 4-5 0-11 1-14 1-16 4-29 17-41 41-4 10-7 17-12 38-6 31-7 32-9 51 0 4-1 21-2 37-1 25-1 32 1 55 1 27 1 31-1 32-1 1-6 0-11 0-5-1-15-1-24-1-14 0-15 0-19 2l-14 14c-15 15-34 29-52 40-9 5-18 12-21 14-8 8-16 11-25 11-7 0-7 0-11 3-5 6-24 48-28 65-1 4-3 10-4 12-4 7-2 10 7 10 4 0 8-1 18-6 2 0 6-1 9-2 4 0 13-2 21-4 14-2 17-2 31-2 13 1 16 1 20 0 2-1 7-2 9-2 3 0 6-1 7-1 6-3 20-3 27 1 8 4 43 11 59 11h57c19 0 29 0 32 1s10 2 15 2c7 2 10 2 13 5 4 2 5 3 16 3 24 1 32 1 38 0z"/></svg>