<svg xmlns="http://www.w3.org/2000/svg" width="1344" height="566"><path d="M0 283V0h1344v566H0V283m487 130c7-2 15-5 25-10 8-4 16-7 16-7 1 0 3-2 6-4 8-6 13-5 10 1-1 2-1 2 2 5 3 2 4 3 6 2h4c4 0 20 2 24 3 11 3 34 5 67 6 38 0 47 1 54 2 18 3 28 2 55-3 5 0 12-1 16-2 4 0 9-1 10-2 2-1 10-3 19-5s21-5 25-6c10-3 18-4 34-6 14-1 15-1 17-5 1-3 2-19 0-28-1-4-1-10-2-15s-2-12-4-18c-2-5-4-11-4-16-1-7-2-8-5-13-3-4-6-7-10-9-6-5-9-10-9-16 0-4 1-6 3-9 2-2 4-5 4-6s-5-23-14-57c-2-7-5-18-6-24-5-27-19-56-36-71-11-11-33-23-48-26-12-4-30-2-54 5-29 9-43 25-51 59-2 8-4 22-4 39-1 7-2 18-2 23-1 5-2 15-2 23-1 13-3 22-6 24-1 0-4 1-8 1-7 0-16 2-21 7-2 1-7 5-11 8-10 8-14 13-21 27-6 12-7 13-18 24-13 12-19 16-37 23-12 5-24 8-33 8-4 0-7 1-9 2-3 2-9 11-9 14 0 0-2 5-4 9-2 5-5 11-6 14-1 2-3 8-5 13-4 8-5 14-3 16 3 1 8 2 21 2 12 0 16 0 24-2z"/></svg>