<svg xmlns="http://www.w3.org/2000/svg" width="1344" height="566"><path d="M0 283V0h1344v566H0V283m822 278c2-1 12-1 22-2 16 0 19-1 20-2 3-3 3-2-5-31 0-2-2-8-3-13-5-13-7-24-7-28 0-2 1-6 2-8l3-5 7 1c15 0 17 0 24-1 9-2 13-5 17-10 4-6 6-14 6-24s-1-14-9-22c-15-17-19-25-17-42 1-17-1-20-11-15-4 3-5 3-6 2-2-2-5-10-8-20-2-8-9-24-12-29-1-2-3-6-4-10-7-11-14-21-20-25-3-1-8-3-12-4-15-5-25-12-28-18-1-4-1-7 5-25 9-27 14-67 11-79-3-9-11-21-21-31-16-16-22-18-52-16-17 1-18 1-24 4-15 8-29 26-32 45-2 10-2 28 0 38 1 4 1 9 0 15 0 8 0 11 2 18 3 8 4 10 8 14 3 4 4 6 4 8 0 3-7 15-15 23-5 6-7 7-31 23-21 15-25 19-26 30-1 3-2 9-3 14 0 4-1 14-1 22-1 7-2 18-3 23-2 14-2 76 0 84 1 3 2 10 2 15 1 13 2 15 8 23 9 14 10 16 10 27 0 8 0 9 2 13 2 2 4 5 5 8 5 10 9 10 52 10 44-1 47 0 56 1s77 0 84-1z"/></svg>