<svg xmlns="http://www.w3.org/2000/svg" width="1344" height="566"><path d="M0 283V0h1344v566H0V283m653 277h131c26 0 42 0 44-1s25-1 70 0c37 0 68 1 68 0h27c32-1 31 0 30-14 0-5 0-13-1-17-2-9-4-20-5-35-1-6-2-17-2-23-2-24-2-27 0-34 1-7 1-7-1-12-3-7-10-18-14-21-2-2-25-11-27-11 0 0-4-2-9-4s-11-5-14-6c-17-7-17-7-29-18-7-7-7-9-4-15 2-4 2-4 1-11-3-16-3-23-4-78-1-57-2-70-4-91-1-6-2-13-3-16-2-23-10-46-22-64-12-17-22-27-41-38-20-12-38-19-58-20-17-2-53 5-82 15-14 5-15 5-22 10-6 5-10 11-19 28-30 56-29 55-35 90-4 24-5 27-13 47-4 10-4 16-1 30 2 9 2 12 2 45s0 35 2 39c2 6 6 9 15 15 4 2 7 4 7 6 0 1-2 1-20 2-14 0-20 0-24 1-19 6-58 14-74 16-9 1-11 1-14 4-9 6-26 17-38 24-22 13-27 17-38 30-3 4-6 6-10 8-5 2-6 2-32 3-26 0-27 1-31 3-7 3-9 6-10 12 0 5 0 5 5 10 5 6 6 8 4 15-1 2-3 7-4 12-1 4-3 10-5 12-3 6-7 17-8 22-1 2-2 6-3 8-4 8-5 13-1 13 2 1 6 2 9 2 6 2 15 2 40 2 31 1 32 1 39 3l7 3h24c33-1 52-1 92 0h44c6 0 33 0 61-1z"/></svg>