<svg xmlns="http://www.w3.org/2000/svg" width="1344" height="566"><path d="M0 283V0h1344v566H0V283m356 277c7-1 46-1 86-2h103c16 0 41 0 55 1 34 1 215 2 224 0 9-1 12-3 13-12s-1-26-3-34c-1-3-4-8-6-12-7-9-31-29-46-39-3-1-9-5-13-8s-9-6-10-7c-8-4-33-22-37-27-7-7-13-18-13-23s3-10 19-31c19-26 25-34 32-50 6-13 9-20 14-44 2-9 6-22 9-31 7-27 11-52 10-81-1-28-3-39-10-55-7-18-19-33-40-51-25-23-33-26-60-28-12-1-16-1-24-4-14-4-20-5-37-4-18 1-23 2-33 5-33 13-70 52-78 84-3 11-4 17-6 43-1 13-2 25-3 27-1 3-4 11-8 18-7 16-8 22-7 41 2 17 5 24 18 38 14 16 20 33 16 45-1 2-5 6-9 10-5 4-15 13-22 21-7 7-17 15-21 19-10 8-26 16-35 17-8 2-15 5-24 9-6 3-28 11-68 25-16 6-27 11-35 19-7 8-11 15-17 31-2 4-4 10-5 13-5 10-10 28-16 57-3 10-2 15 0 18 1 2 3 3 9 3 10 1 63 0 78-1z"/></svg>