<svg xmlns="http://www.w3.org/2000/svg" width="1344" height="566"><path d="M0 283V0h1344v566H0V283m1014 278c130-1 135-1 135-9 0-5-4-12-15-25-15-18-42-44-57-55-7-4-17-12-23-17s-14-10-16-12c-19-12-31-26-43-47-3-6-9-15-12-19-12-18-22-34-26-41-2-5-9-15-14-23-14-22-15-26-13-31 1-2 4-5 7-7 12-10 20-21 25-39 2-8 2-12 3-39 0-31-1-56-3-65-1-3-2-7-2-10-1-4-5-17-8-26-3-8-12-24-19-33-6-8-17-19-26-26-15-12-40-23-56-26-14-2-30-2-45-1-15 2-25 5-43 12-6 2-16 6-23 8-34 9-57 27-71 54-5 11-10 27-11 41-1 6-2 18-3 26-2 24-1 41 7 65 6 19 9 30 13 46 7 27 21 63 34 86 3 5 7 13 9 18 6 11 11 15 23 21 8 4 10 4 19 5 7 1 12 2 13 2 5 4-8 20-21 26-9 5-32 20-46 31-12 9-18 15-23 24-5 12-6 22-6 41 1 26 4 38 12 42 5 3 19 4 121 3h204z"/></svg>