<svg xmlns="http://www.w3.org/2000/svg" width="1344" height="566"><path d="M0 283V0h1344v566H0V283m293 276c3-1 8-1 14 0s95 1 199 2c163 0 190 0 203-1 13-2 17-2 18-4 2-1 2-5 3-24 1-24 1-25-4-29-1-1-3-6-5-11-3-10-15-40-20-51-3-7-3-7-3-18v-11l-4-3c-2-2-6-4-8-5s-6-2-10-4c-6-3-32-13-42-16-60-23-63-25-66-32-3-8 2-38 12-66 4-13 7-29 7-37 0-11-4-36-12-68-6-23-7-28-15-53-14-40-24-59-42-73-17-13-47-31-62-36-5-2-9-2-20-3-23-1-29 1-46 9-12 6-21 11-34 20-25 15-42 52-50 111-6 43-9 91-9 141 0 31 0 38 7 55 2 6 4 13 5 16 0 6 0 6-3 9-1 1-5 3-7 4-33 12-34 12-43 19-33 23-32 22-59 37-6 3-8 8-8 17 0 6-1 10-6 26-3 11-11 41-12 48-1 3-1 11-2 17 0 11 0 11 2 14l2 2h58c36-1 60-1 62-2z"/></svg>