<svg xmlns="http://www.w3.org/2000/svg" width="1344" height="566"><path d="M0 283V0h1344v566H0V283m322 276c66-2 331-2 419 0 81 1 105 1 108-3 4-3 2-17-3-31-1-3-4-11-7-17s-7-15-8-18c-7-20-20-29-79-60-2-1-9-4-15-7-28-14-36-21-52-48-9-14-10-17-10-23 0-5 1-7 8-21 4-9 11-23 15-31 7-17 11-25 17-33s8-18 7-41c0-11 1-33 1-50 2-46 0-66-9-93-6-20-15-36-27-48-10-9-29-24-36-27-6-3-8-3-20-4-17-1-62-1-99 0l-27 1-6 3c-5 2-10 6-17 13-33 31-48 66-44 105 4 40 4 44-1 59-6 20-3 47 9 64 5 9 8 11 22 18 6 3 12 7 13 8 4 5 9 22 9 29v7l-8 9c-15 17-45 47-52 51-9 6-11 7-58 24-10 3-22 7-26 9l-12 4c-2 1-11 4-18 7-31 12-34 15-50 45-5 12-11 23-13 25-10 17-35 63-36 67 0 2 0 4 1 6 2 1 3 2 16 2 8 0 21 1 29 0 8 0 35 0 59-1z"/></svg>