<svg xmlns="http://www.w3.org/2000/svg" width="1344" height="566"><path d="M0 283V0h1344v566H0V283m372 278c8-1 40-2 171-1h577c42 1 77 0 92-2 26-3 29-3 32-6 2-2 2-2 1-5-2-4-7-9-19-18-6-4-11-9-13-11-7-11-14-30-21-58-6-22-7-25-12-29-3-3-6-4-15-6-6-2-13-3-15-4-3 0-5-1-8-4-4-4-10-16-13-26-2-4-4-10-6-13-4-8-12-30-15-40-2-4-6-17-10-29-10-31-20-66-25-90-1-9-7-27-12-36-4-9-9-13-14-13-4 0-5 1-7 3-3 3-4 5-4 12-1 7-3 6-8-5-8-17-18-34-21-38-6-8-15-8-21 0-4 6-6 6-10 1-1-2-4-5-6-7-9-6-16-2-19 11-2 8-5 12-9 12-3 0-9 5-10 11-3 7-4 16-4 27 0 14 3 38 5 49 5 18 6 25 7 37 1 17 4 23 23 51 17 24 30 43 59 80 12 16 26 41 37 71 8 19 9 23 6 25s-6 0-19-8c-16-11-19-12-32-20-14-7-24-15-28-20-2-2-5-7-7-11-1-4-5-14-9-22-7-13-7-14-16-22-19-19-43-36-54-39-8-3-23-3-61-1-34 2-49 2-53 0-4-3-5-8-4-20 2-20 8-39 14-49 4-5 5-8 7-16 3-14 5-18 9-22l3-4-2-14c-3-12-4-16-8-26-3-6-7-15-9-20-1-5-5-15-9-22-3-8-8-20-11-27-10-24-16-36-38-71-20-32-44-51-81-63-6-2-15-4-18-5-8-1-44-1-65 0-16 1-46 6-56 10-16 6-33 17-47 31-12 12-16 17-27 39-14 28-17 38-17 60l-1 13 4 6c7 11 8 22 5 45 0 7-1 17-2 22 0 9 0 10 2 16 8 19 8 19 9 37 0 34 4 45 31 75 11 12 14 17 14 26 0 13-5 28-11 37-4 5-15 14-22 19-2 2-9 4-14 7-14 5-14 5-15-19-2-16-2-20-5-28-5-12-13-29-18-33-6-5-13-3-18 5-5 6-5 13-5 44 1 24 1 28 0 29-2 1-3 1-5-1-4-4-11-27-14-44-4-26-6-39-6-49-1-6-2-15-3-20 0-5-1-14-2-20-2-14-4-22-9-26-6-6-11-5-16 3-2 5-3 7-4 33-2 25-4 37-5 38-2 2-4-2-8-15-3-8-5-16-6-18-3-15-9-37-11-41-3-6-9-11-14-12-5-2-8-1-11 3-4 5-4 9 0 48 1 5 2 16 3 25 0 8 1 16 1 16-1 3-3 2-4 0 0-1-2-6-5-13-2-6-5-14-6-17-4-12-7-17-10-21-4-3-5-3-9-3-5 0-6 1-9 3-5 4-5 8-3 23 3 20 10 51 13 61 4 11 5 19 2 20-2 0-3-1-12-12-16-21-22-26-31-26-6 0-9 3-9 9 0 13 12 39 30 66 3 5 12 18 20 29 8 12 15 23 16 25 2 2 7 10 11 17 10 15 19 25 25 28 3 1 7 3 9 3 10 1 63 1 73 0z"/></svg>