<svg xmlns="http://www.w3.org/2000/svg" width="1344" height="566"><path d="M0 283V0h1344v566H0V283m609 277c2 0 41-1 87 0 82 0 83 0 86-2 4-3 5-7 5-25 0-19-1-28-8-58-7-26-10-36-15-47-4-8-5-11-4-22 2-11 4-9-41-30-11-6-26-12-32-15-15-6-27-12-30-15s-4-6-2-16c1-4 3-16 4-26 2-11 4-27 6-36 2-13 2-20 2-34 0-36-5-80-13-111-5-22-6-25-15-43-11-24-23-38-41-50-11-7-30-16-38-19-15-5-32-4-49 4-4 1-9 2-16 3-11 1-12 1-21 6-8 4-11 6-19 14-27 26-37 55-56 159-2 12-5 26-5 31-4 27-5 67-1 85 1 9 1 20-1 24s-6 5-16 5-11 0-23 4c-8 2-9 3-46 22-24 12-30 16-34 23-1 2-4 10-5 18-2 9-6 25-9 37-4 11-8 27-9 34-2 8-5 21-8 30-5 22-6 27-6 34s2 12 5 12c9 3 46 4 125 3h44c101 3 191 3 199 1z"/></svg>