<svg xmlns="http://www.w3.org/2000/svg" width="1344" height="566"><path d="M0 283V0h1344v566H0V283m242 277h372c40 0 73 0 74-1 1 0 3-2 4-3 1-3 1-4-1-12-2-15-6-29-16-57-5-12-5-14-5-23 0-12-1-15-7-20-4-3-21-12-38-18-4-2-10-4-13-6s-12-6-19-9c-24-11-43-21-45-24-2-2-2-3-2-7 1-6 14-41 21-58 7-14 10-24 13-38s3-20 0-56c-1-15-3-34-3-43-1-16-4-40-8-53-4-15-15-35-28-50-25-31-51-46-83-51-19-2-29-1-44 5-5 2-15 5-21 7-16 3-24 7-33 17-11 10-17 19-24 32-6 14-12 29-16 46-4 19-11 56-13 70-6 43-8 55-10 64-3 16-6 52-6 67 0 7 0 19 1 26v14l-3 3c-4 5-14 10-29 15-17 5-24 9-37 18-6 4-19 12-28 17-22 13-29 20-31 28 0 6-2 9-10 24-7 12-7 14-12 33-4 16-5 21-5 29s0 9 2 12l3 2 19 1h33c8 0 30 0 48-1z"/></svg>