<svg xmlns="http://www.w3.org/2000/svg" width="1344" height="566"><path d="M0 283V0h1344v566H0V283m916 276c3 0 21 0 39-1 30-1 33-1 35-2 1-1 2-3 2-5 0-4-6-16-18-41-9-17-14-28-16-36-4-11-8-20-19-40-4-8-12-29-13-35 0-6-6-16-21-39-14-21-25-40-31-52-3-5-5-11-6-17-2-13-1-14 10-25 7-6 10-9 12-14 4-8 8-22 9-35 0-6 2-16 2-23 3-23 2-67-1-82-5-18-11-34-19-47-13-20-27-33-51-47-14-8-20-10-33-11-16-2-50 0-66 2-7 1-15 2-17 2s-7 1-10 1c-4 1-11 3-16 4-14 3-32 11-42 17-27 18-45 50-51 90-2 15 0 47 4 63 0 3 3 11 5 18 5 15 7 24 11 43 3 12 6 24 13 47 1 4 3 9 4 13 7 24 18 48 25 55 9 9 19 12 40 14 9 1 15 2 17 2 5 3 13 15 15 24 1 5 0 7-12 21-6 6-14 15-18 21-4 5-14 16-22 24-21 22-24 27-25 44-1 16 4 27 15 38 8 8 10 9 25 9 5 0 14 1 20 1 11 1 193 0 204-1z"/></svg>