<svg xmlns="http://www.w3.org/2000/svg" width="1344" height="566"><path d="M0 283V0h1344v566H0V283m873 173c8-2 17-8 20-12 3-6 9-12 13-13 2-1 6-1 10-1s6-1 10-2c7-5 10-4 14 5 5 10 16 18 23 17 5-1 48-19 52-21 1-1 4-3 7-5s6-4 7-5c4-4 6-18 7-41s1-25 4-41c1-7 1-12 1-19-1-8-1-10 1-16 2-7 2-9 3-46v-39l-3-6c-4-9-9-14-13-16-3-1-10-3-16-3-18-3-35-6-44-8-9-3-22-10-27-14-7-6-15-20-24-41-6-17-12-28-16-33-5-5-8-5-9-1-1 1-3 6-5 9-3 7-3 8-3 13 1 10 5 17 15 32 6 9 7 11 7 16 0 6-1 7-14 11-13 5-18 6-34 7-17 1-19 0-21-13 0-8-3-14-6-16-4-2-8-1-11 2-4 3-4 10-3 24 1 16 2 17 23 30 5 3 11 5 25 9 9 2 13 2 30 3h20l2 3c3 3 3 7 2 14-1 5-4 13-18 41-10 19-19 37-21 39-5 6-7 12-7 19 0 3 0 9-1 14-1 7-1 10 2 21 3 18 3 18-5 45-5 15-7 19-14 23-4 2-8 3-10 4s-5 2-6 3c-2 3-1 5 6 7 3 1 5 2 6 2 1 2 14 1 21-1z"/></svg>