<svg xmlns="http://www.w3.org/2000/svg" width="1344" height="566"><path d="M0 283V0h1344v566H0V283m852 279c67 0 69 0 73-2 3-1 6-3 8-5 4-3 6-3 12 2 2 2 5 4 7 4 5 2 84 2 119 1 34-2 36-2 38-7 1-2-1-9-7-22-3-6-5-12-5-13 0 0-3-8-7-16-11-21-14-31-15-45 0-9 0-12 3-26 2-8 5-22 8-31 12-37 15-49 15-60 0-13-5-17-13-13-3 2-6 3-7 3-3-1-7-6-7-12-1-7-4-13-8-14-4-3-5-2-12 2-6 5-9 5-14 2-7-6-9-6-12-5-4 1-6 3-14 13-2 2-4 3-7 3-6 1-12 5-16 10l-4 6c0 1-1 4-3 6-4 6-6 5-14-3-6-7-6-7-26-16-11-4-22-9-24-10-17-6-38-16-40-19s-3-12-1-20c2-12 4-40 4-61 0-19 0-23-2-36-3-13-4-17-8-26-6-12-12-21-17-26-2-2-10-7-17-12-7-4-16-9-19-11-11-7-24-13-34-15-7-2-13-2-26-3-17 0-19 0-25 2-8 3-24 11-33 17-13 8-32 28-37 39-3 5-8 21-9 27 0 8-4 21-9 36-4 13-4 14-4 26 0 6 0 14-1 16-1 4-1 10 0 20 0 20 0 21-17 27-4 2-13 5-21 7-26 9-51 17-56 20-3 1-7 4-11 6-9 7-13 5-14-6-2-12-5-18-10-17-2 1-5 4-8 8-4 4-6 6-7 6-3-1-6-6-10-15-3-9-6-14-11-14-3 0-6 2-10 9-5 8-6 8-12 4-5-3-8-4-12-1-3 2-4 6-5 17-1 10-3 15-6 17-1 1-3 1-6-1-2-1-6-2-8-2-5 0-6 0-8 3s-2 4-2 13c1 18 11 49 27 89 9 22 10 27 10 38-1 11-3 18-10 31-1 3-3 7-4 9 0 3-4 8-8 13-12 17-12 28 0 31 6 2 27 2 34 0 4-1 8-1 17 0 7 1 44 1 108 1 80-1 98-1 106 0 8 2 19 2 52 1h112z"/></svg>