<svg xmlns="http://www.w3.org/2000/svg" width="1344" height="566"><path d="M0 283V0h1344v566H0V283m843 274c2-2 3-7 3-16 0-8-4-24-14-52-8-22-10-31-9-47 1-11 5-38 8-52 3-15 6-34 6-43 0-8-2-27-4-33s-1-19 2-35c5-30 4-64-3-86-2-6-3-8-10-16-5-4-9-9-10-11s-2-7-2-22c-1-20-2-31-6-43-5-14-19-26-31-26-10 0-25 5-29 9-1 1-2 5-4 8-1 5-2 10-3 21-1 14-1 19 3 28 0 1 2 6 3 10 1 7 1 8 0 10s-4 4-6 6c-7 4-14 10-16 14-3 3-3 5-4 17-4 51-4 49-6 55-2 3-3 6-3 7 0 4-3 9-8 14-2 3-5 7-6 9-2 5-7 13-9 14s-3 1-6-1c-4-2-4-2-10-1-3 0-7 1-8 1-5 0-3 5 3 8 2 2 8 4 13 5l8 2 9-2c5-2 11-4 15-4 6-1 6-1 11 2 3 1 9 4 14 5 4 1 9 3 10 3 5 1 6 5 2 24 0 4-1 12-1 17 0 10-2 19-8 44-3 9-3 11-3 36v26l3 12c2 6 4 14 4 17 3 9 5 18 7 23 2 6 2 22 0 28-2 5-2 10 0 12 3 4 18 1 23-4 3-3 3-4 5-19 1-9 0-30-3-48-3-13-3-38 0-45 0-2 1-6 2-8 0-4 1-4 3-4s3 4 3 22 2 24 14 49c7 12 11 22 14 32 3 8 5 15 5 16 0 2 4 9 7 11 3 3 4 3 12 3 7 0 8 0 10-2z"/></svg>