<svg xmlns="http://www.w3.org/2000/svg" width="1344" height="566"><path d="M0 283V0h1344v566H0V283m990 276c29-1 29-1 32-5 3-3 3-4 3-12 0-9-1-24-4-36-2-11-4-50-4-58 1-3 2-9 3-12 1-5 1-5-1-9-2-6-8-13-13-15-2-1-6-3-8-5-9-5-39-18-51-22-7-2-8-3-14-11-3-5-7-9-9-10-5-2-7-6-5-10 1-2 2-3 8-4 5-1 7-4 7-12 1-3 2-14 3-22 2-14 2-20 2-34-1-9-2-21-2-25-1-4-2-10-3-14-2-22-16-98-20-112-3-10-10-27-15-37-15-33-39-52-87-71-30-11-34-11-82 3-12 4-25 9-35 14-15 7-27 24-37 53-6 14-7 20-8 32-1 13-1 25 3 43 2 12 2 19 3 40 1 27 2 36 5 46 5 21 5 21 5 36 0 32-4 72-7 77-3 4-14 5-23 3-3-1-11 0-25 1-18 1-20 1-22 0-4-2-7-12-8-24-2-8-2-10-5-12-1-2-5-4-8-5s-10-4-15-7c-6-3-12-7-14-8l-5-2-9 3c-9 3-15 4-20 2-8-4-12-2-22 7-12 11-16 13-21 15-9 3-20 10-37 23-8 7-17 13-20 15-5 2-6 2-27 3h-22l-10 3c-20 6-32 14-46 30-13 14-18 23-18 31 0 4 0 5 3 7 1 1 3 2 5 3 1 0 6 1 10 2s14 3 21 3c10 1 16 2 25 5 11 3 12 3 17 9 4 3 6 7 7 9 1 5 3 5 8 3 5-3 12-4 14-2 3 2 2 6-1 11-4 6-9 24-9 29 0 6 3 11 6 12 1 1 3 3 4 5 2 3 3 4 8 6 4 2 7 2 16 2 7 0 14 0 17 1 4 1 13 1 36 1 40-1 52-2 60-6 6-2 8-3 19-1 9 1 10 0 9-13 0-9 0-11-2-16-2-2-3-7-4-11 0-5 0-6 2-7 2-2 2-2 13 0 6 1 9 5 9 11 0 4 0 5-6 10-7 7-8 8-8 15 0 5 1 7 6 7 2 1 9 3 15 5 11 4 13 4 16 3 1-1 4-1 5 0 4 0 7-2 7-6s4-11 5-11 2 2 2 4c1 3 4 9 5 10 1 0 14 1 25 1 2 0 7 0 9-1 4-2 6-3 9-8 2-4 4-6 8-8 5-2 6-2 10-1 2 0 5 1 7 1 3 0 5 1 11 8 7 8 8 8 12 8 2 0 5 0 6-1s3 0 7 1c3 1 7 2 10 2 7 0 26 2 29 3 1 0 9 1 18 2s23 3 31 4c14 2 33 3 61 4 15 1 93 0 115-1z"/></svg>