<svg xmlns="http://www.w3.org/2000/svg" width="1344" height="566"><path d="M0 283V0h1344v566H0V283m786 279c37 1 53 0 60-1 3-1 11-1 20 0h52c21 0 62-1 91 0 30 0 63 0 75-1 21-1 21-1 24-3 2-4 3-10 1-17s-9-26-12-32c-1-3-3-8-4-10-1-3-3-9-5-12-1-4-3-9-3-11-1-3-6-17-18-50-2-7-6-18-10-24-10-24-16-28-67-44-5-1-15-4-22-7-8-2-19-5-25-7-24-6-28-9-69-46-5-4-14-11-19-15-11-8-14-11-19-25-3-9-3-10-4-25 0-21 0-25 5-30 2-2 6-6 10-9 12-8 16-16 15-38v-15l-5-14c-3-9-7-21-8-28-8-27-17-49-25-61-12-19-20-27-30-30-7-2-9-2-82-2-69 0-75 0-81 1-12 4-20 9-28 19-6 9-11 19-14 31-4 14-5 25-6 48 0 21 1 35 5 55 5 23 9 34 22 59 18 35 22 41 35 48 3 2 10 7 14 11 10 8 29 28 30 32 0 1-1 4-4 10-3 7-6 11-19 25-16 17-26 25-40 33-27 16-53 30-60 34-22 11-39 25-45 39-7 14-8 17-7 38 0 11 0 25 1 32 1 6 1 16 2 22 0 5 1 11 2 12 2 3 5 5 12 6 3 1 39 1 84 1 43 1 78 1 78 1h93z"/></svg>