<svg xmlns="http://www.w3.org/2000/svg" width="1344" height="566"><path d="M0 283V0h1344v566H0V283m614 277c4-1 14-1 32-1 15 1 51 1 80 1 58 0 57 0 60-6 2-5 3-24 2-35-3-28-15-75-23-93l-4-8v-9c1-15 2-15-39-34-9-4-20-9-24-11-15-5-31-13-34-15-1-1-3-3-4-5-2-4-2-5-1-12 6-48 9-76 9-88 0-11-3-62-5-72 0-4-2-13-3-20-1-13-7-38-10-48-1-4-6-14-11-23-10-20-21-35-32-43-15-11-38-22-53-26-12-3-25-2-40 5-5 1-10 2-17 3-18 2-28 7-43 22-18 20-28 40-38 79-2 7-5 17-5 21-1 4-3 13-4 20-2 6-4 15-4 20-1 5-3 14-4 22-7 34-10 65-8 90 1 8 1 17 2 20 1 2 1 7 1 12 0 6 0 8-2 11s-3 4-16 4c-13 1-27 5-42 13-61 30-62 31-64 49-1 8-5 23-6 26 0 1-3 9-5 19s-6 23-8 30c-1 7-4 18-6 26-2 7-4 16-5 20-3 9-4 22-3 27 1 4 4 6 13 7 10 1 65 2 98 1h42c7 1 41 1 75 2 34 0 62 0 62 1 1 0 81-1 87-2z"/></svg>