<svg xmlns="http://www.w3.org/2000/svg" width="1344" height="566"><path d="M0 283V0h1344v566H0V283m366 277c18-2 203-2 228-1 24 1 219 2 230 1 8-1 12-3 13-6 4-7 3-34-2-46-2-5-4-8-10-15-14-13-39-32-65-48-4-3-8-6-10-7-1-1-5-4-9-6-5-3-11-8-14-12-7-7-14-19-14-23s8-18 16-30c4-5 9-13 13-18s9-14 13-20c3-6 7-14 10-18 3-7 5-11 8-24 2-9 7-26 9-37 7-26 9-33 11-49 1-16 1-35 0-51-4-41-17-66-53-96-21-18-32-23-65-26-6-1-15-2-19-3-17-4-45-3-60 1-23 7-51 29-68 54-13 20-17 34-20 69-3 31-4 37-10 51-6 11-9 22-9 30s3 22 6 29c2 6 5 10 11 17 7 8 9 12 13 20 4 10 6 16 6 22 0 3-1 4-9 12-5 5-17 15-25 24-22 20-37 30-54 33-4 1-13 4-19 7-13 5-36 14-62 23-32 12-44 21-53 39-17 35-32 95-27 102 1 2 4 3 7 3 6 1 68 0 83-1z"/></svg>