<svg xmlns="http://www.w3.org/2000/svg" width="1344" height="566"><path d="M0 283V0h1344v566H0V283m667 279c5-1 37-1 82-2 41 0 86 0 99-1 30-1 171-3 198-3 12 0 46 0 77 1 55 1 56 1 58-1 2-1 2-2 2-7-1-4-3-10-12-27-13-27-20-38-32-56-20-28-34-43-55-59-14-10-36-21-56-26-15-5-34-11-58-19-13-4-25-8-29-9-10-2-25-7-32-11-4-2-14-7-21-11-14-7-15-7-24-8-11-1-15-2-20-7-5-6-16-34-18-48s-2-47 1-62c1-7 2-15 2-18 1-3 2-11 3-17 2-9 2-15 2-31 0-17 0-21-2-33-2-9-5-17-8-24-5-12-6-14-25-31-3-3-7-8-9-10-4-4-6-6-14-10s-11-4-21-6c-6 0-14-1-17-2s-13-1-22-2c-14 0-17 0-31 2-9 2-20 3-25 4-6 0-12 2-15 2-4 2-31 16-34 18-3 3-12 15-16 23-6 12-7 18-7 45 0 20 0 26-2 34-3 13-4 33-4 40 2 11 11 51 17 66 6 17 34 68 47 86 8 10 12 13 25 19 3 1 7 3 8 4 2 2 2 2 1 5-2 4-10 11-20 18-3 3-19 11-34 19-16 8-32 16-37 19s-13 8-19 11c-20 11-44 30-60 47-3 3-8 8-12 11-12 8-16 15-18 27-1 4-2 12-4 17-3 11-4 16-2 18 3 4 12 5 40 6 42 1 145 0 153-1z"/></svg>