<svg xmlns="http://www.w3.org/2000/svg" width="1344" height="566"><path d="M0 283V0h1344v566H0V283m1030 279c70-1 91-1 93-2 2-2 1-6-3-16-2-5-5-12-6-16-3-10-6-17-11-29s-5-12-13-25c-4-6-7-12-8-16-2-6-3-7-6-11-5-3-20-10-40-18-19-7-39-15-50-21-8-4-13-8-14-12-1-1 1-7 3-13s5-16 7-23c1-6 4-13 5-16 5-13 7-43 6-78-1-34-3-49-8-85-7-51-15-83-27-106-13-24-24-37-42-50-6-4-13-9-15-11-8-6-13-7-31-8-9 0-25 0-34-1-23-1-49 0-55 2-25 8-56 39-68 67-9 20-23 71-28 104-9 50-10 61-14 136-1 11-2 23-2 27-1 4-2 12-3 17-2 15-3 18-8 23-6 7-15 11-26 13-11 3-21 7-35 17-7 4-15 9-17 11-3 1-8 4-11 6-8 5-30 16-45 21-19 8-21 11-16 28 1 7 2 11 2 14-1 4-6 18-11 31-4 13-7 22-7 28 0 5 0 6 2 8 3 2 4 2 20 3 9 1 21 1 28 1 10-1 34-1 139-1 62 0 58 0 75 1 16 1 111 1 274 0z"/></svg>