<svg xmlns="http://www.w3.org/2000/svg" width="1344" height="566"><path d="M0 283V0h1344v566H0V283m815 277c5-1 7-4 8-13 1-4 3-9 4-11s2-6 3-9c0-5-2-28-5-45-6-40-6-50-1-84 0-6 2-17 3-26s3-22 4-29c4-17 4-31 1-42-1-3-4-11-7-17l-5-10-1-21c0-11-2-25-3-30-1-7-1-11 0-18 1-10 0-14-6-25-3-5-3-6-3-17 0-6 0-17 1-23 1-9 0-16-1-28-2-26-3-30-13-35-10-6-29-9-36-6-5 2-15 13-18 19-2 2-6 8-8 12l-5 8-1 11v11l3 6c2 2 5 6 6 7 2 3 1 6-4 8-6 3-12 11-14 17-2 5-4 16-6 34-3 16-8 35-12 44-2 5-5 9-10 14-7 7-9 8-16 6-4-2-28-2-29 0-1 1-2 3-2 5 0 5 3 8 13 15 8 5 14 7 21 7 3 0 8 1 11 2 8 2 11 1 18-4 7-4 23-17 30-23 3-3 5-5 6-5 2 0 7 8 10 15 1 5 3 10 3 17 1 6 1 13 2 15 0 3 1 11 2 17 1 7 1 12 2 14 1 1 6 5 10 7 13 9 26 23 26 29 0 3-3 11-10 25-8 18-9 25-7 48 2 19 2 19-4 28-7 11-6 13 4 12 14-1 16 3 17 41 1 22 1 23 3 25 2 3 3 3 7 3 3 0 7 0 9-1z"/></svg>