<svg xmlns="http://www.w3.org/2000/svg" width="1344" height="566"><path d="M0 283V0h1344v566H0V283m564 277h62c5 0 84 1 156 1 41 1 88 0 118-2 17-1 173-3 210-2 34 1 62 1 65 0 4-1 6-5 5-9-2-6-10-17-20-27-14-14-28-23-51-34-14-6-24-10-29-12-1 0-7-2-12-4s-15-6-22-9c-8-3-17-6-22-8-4-2-13-6-19-8-21-6-39-16-56-30-13-10-15-14-15-20 0-5 7-41 16-80 7-34 8-34 21-41 11-6 17-12 24-22 7-11 11-19 14-28 2-6 3-10 3-20 0-12-1-13-3-17-2-2-5-6-8-8-5-4-7-8-7-14 0-3 2-17 4-32 5-44 5-76 0-93-4-13-15-27-24-31-5-2-17-4-30-5-13-2-191-1-206 0-8 0-16 2-19 3-5 1-6 2-11 10-6 11-10 22-15 45-4 22-6 31-7 57-1 27-3 38-7 47s-5 14-5 24c0 18 6 42 16 60 5 10 9 20 21 56 9 27 10 31 11 45 1 22-3 36-10 41-3 2-4 2-22 2-16 0-19 0-23 2-5 3-12 9-30 29-20 23-24 26-47 36-8 3-20 9-28 13-7 4-19 9-26 11-16 7-49 24-60 32-11 7-34 30-36 35-1 3-1 3 0 5 3 2 28 4 50 3 9 0 43 0 74-1z"/></svg>