<svg xmlns="http://www.w3.org/2000/svg" width="1344" height="566"><path d="M0 283V0h1344v566H0V283m908 278h93c47 0 64 0 110-2 15 0 17-1 19-2 0-2 1-3 1-4 0-3-9-14-20-24-17-14-25-21-31-28-7-9-22-21-35-30-18-11-44-31-49-37-1-2-7-8-12-13-4-5-11-14-14-19-3-4-8-12-11-16-3-5-7-11-9-14-2-4-6-9-10-13-7-8-11-16-17-29-2-6-5-15-8-20-3-7-4-11-4-14 0-5 0-5 8-14 18-17 23-37 25-87 0-24-1-41-6-59-5-21-10-31-23-51-5-8-9-12-17-18-14-13-21-17-40-25-30-12-32-13-56-12-17 0-21 0-31 2-26 5-73 24-93 38-15 10-34 32-41 48-4 9-7 24-8 40 0 11 0 16 2 26 3 16 7 29 12 37 6 10 9 21 10 41 1 9 2 20 3 25 3 18 12 43 27 77s21 41 36 49c5 2 9 5 9 6 2 3-3 6-24 16-32 16-50 29-62 43-6 6-8 11-9 19-1 3-1 8-2 11-1 2-1 12-2 24 0 18 0 20 2 23 1 2 3 3 6 4 2 1 23 1 66 2 34 0 62 1 63 1 0 1 33 1 142-1z"/></svg>