<svg xmlns="http://www.w3.org/2000/svg" width="1344" height="566"><path d="M0 283V0h1344v566H0V283m742 275c1-2 2-4 2-6 0-4-6-39-9-50-1-6-3-13-4-16s-3-7-4-10c-5-14-8-20-11-27-11-20-10-18-9-26 0-11-1-13-10-17-11-4-20-8-37-14-8-2-17-6-20-7s-10-4-15-6c-18-8-20-10-18-23 1-5 4-13 5-19 10-31 11-39 11-69 0-23-1-39-4-68-1-5-2-16-3-24-4-32-9-55-16-74-4-11-14-26-26-38-25-24-41-32-70-38-11-2-25-1-35 2-4 1-9 2-10 2-2 0-9 1-15 2-10 2-13 3-23 8-16 8-25 17-37 37-8 13-10 16-13 29-11 34-21 85-27 134-1 10-3 22-4 28-4 30-6 64-5 88 0 15 0 16-13 22-5 3-15 7-21 9-15 4-22 8-35 17-17 12-33 22-42 27-10 6-17 11-20 15-1 1-2 5-2 9-1 4-2 9-6 17-11 22-13 30-17 55-3 21-2 29 3 32 3 2 126 1 133-1 3-1 6-1 10 0s34 1 117 1h122c6 0 42 0 81 1 102 1 94 1 97-2z"/></svg>