<svg xmlns="http://www.w3.org/2000/svg" width="1344" height="566"><path d="M0 283V0h1344v566H0V283m709 278c3-1 9-1 13-1 4 1 28 1 52 0 56-1 108-1 228-1l95 1 2-2c2-2 2-3 1-9-1-3-1-7-2-7 0-1-1-4-2-7-5-24-13-40-31-67-15-24-32-40-51-53-11-7-31-19-41-23-19-8-51-26-62-33-2-2-9-6-14-9-30-18-38-21-53-24-18-2-20-5-20-30 0-21 2-30 13-60 9-24 11-36 11-50-1-8-1-11-4-18s-3-8-4-28c-1-21-1-24-5-38-6-25-23-45-47-57-9-5-30-12-43-15-11-2-13-2-34-2-18 0-24 0-31 1-26 6-55 20-70 35-16 16-24 32-26 52-1 8-1 14 0 32 2 13 2 38 3 59 0 20 0 39 1 43 3 15 12 39 34 84 7 14 13 27 13 28 2 7-7 16-46 48-11 9-32 23-46 32-10 5-25 15-34 21-5 3-15 10-23 15s-17 10-19 12c-14 8-26 17-32 24-10 10-21 30-21 38 0 4 4 8 9 8 6 1 221 3 254 2 15 0 29-1 32-1m-641-2c22-1 48-2 58-2 9-1 21-1 26-1h54c24 0 48 0 54-1 11-1 18-1 72 1 27 1 30 1 32-1 3-2 4-6 1-13-3-12-9-32-11-37-1-3-4-12-6-21-3-8-7-22-10-31s-6-22-8-30c-12-43-22-62-46-86-17-18-36-29-60-38-7-2-15-5-19-7-3-2-14-6-23-10-18-9-28-15-34-20-4-3-4-4-4-8 1-2 3-9 6-14 3-6 5-11 5-11 0-1 4-9 8-19 28-57 36-80 39-110 2-21 4-34 6-42 2-6 2-10 2-24s0-16-2-20c-2-6-5-7-18-9C178 4 8 3 4 5L1 6v551l2 1c3 2 14 3 21 2 3 0 22 0 44-1z"/></svg>