<svg xmlns="http://www.w3.org/2000/svg" width="1344" height="566"><path d="M0 283V0h1344v566H0V283m299 278c15-1 53-1 90-1 120 1 118 1 127-2l7-2 13 1c12 2 21 2 71 2 74 0 222 0 224 1 0 1 7 1 15 1 19 0 20 0 20-10 0-9-4-21-8-28-13-18-16-22-21-27-9-9-18-13-54-25-28-10-43-14-60-17-8-1-15-6-21-14-3-3-6-7-8-9-10-11-10-16-3-25 7-8 19-28 22-34 1-2 4-10 6-17 3-7 7-17 8-22 4-10 8-21 16-49 5-20 8-37 8-54 0-4 0-11 1-15 2-18 3-61 2-75-1-18-6-36-12-54-5-12-20-38-30-52-9-13-25-24-37-27-10-2-49-3-121-3h-70l-5 3c-21 10-39 31-51 60-8 18-11 29-13 53-2 20-3 28-9 50-3 7-5 15-5 17-2 9 0 51 3 69 1 3 1 11 0 20-1 22 1 28 20 64 6 12 11 24 12 34 1 3 1 4-5 13-3 4-9 12-12 17-4 5-9 11-11 14-4 6-7 8-14 12s-46 16-71 22c-39 10-55 16-83 28-12 5-16 7-21 11-7 7-13 16-18 25-4 7-4 8-4 16 1 10 4 20 7 24 1 1 5 3 7 4 13 3 30 3 88 1z"/></svg>