<svg xmlns="http://www.w3.org/2000/svg" width="1344" height="566"><path d="M0 283V0h1344v566H0V283m761 276c13-1 23-1 105-1 49 1 105 1 123 2 41 0 102-1 110-3 6-1 6-1 13 1l6 3h46c57 0 74-1 76-7 0 0-1-3-3-5-8-12-14-33-19-62-3-21-4-25-6-29-2-5-8-10-13-11-2-1-8-3-13-6-11-5-16-10-22-22-5-12-14-36-15-45-1-4-3-11-4-16-2-5-4-16-6-24-11-49-12-53-14-83-3-42-4-50-8-61-4-10-13-13-19-7-3 3-5 7-6 21l-2 10c-3 4-6-5-9-24-4-35-6-43-13-47s-16-2-22 6c-2 2-4 4-5 4s-3-2-4-4c-3-4-8-8-12-8-7 0-13 6-17 18-2 4-5 9-9 13-3 4-7 10-10 16-8 17-11 36-8 64 0 10 1 26 1 36 1 21 3 27 12 44 10 19 33 59 44 75 25 37 28 43 45 89 3 9 7 20 9 25 6 14 6 23 2 25-3 0-12-4-18-10-22-19-33-28-48-37-6-4-13-8-16-10-9-6-21-16-28-24-6-7-11-15-15-27-8-18-10-22-30-38-18-15-33-26-41-30-5-2-6-2-20-2-9 0-30 0-47 1-18 1-34 2-37 1-6 0-9-4-9-10 0-10 5-39 8-44 0-1 3-5 6-8 6-9 9-16 10-29 1-6 1-13 2-16 1-5 1-7-1-15-1-5-3-13-4-18-3-18-13-42-36-93-9-19-14-27-38-63-16-25-39-43-67-53-32-11-38-12-67-10-11 1-22 2-26 2-11 0-46 7-58 11-18 6-43 26-58 43-4 6-9 14-14 25-15 30-19 42-19 63l-1 13 5 6c8 13 8 19 5 49-3 23-2 26 4 43l6 14v18c0 15 0 17 2 26 4 14 9 21 20 36 12 14 19 25 21 30 1 2 1 7 1 13-1 9-1 10-4 16-5 9-17 21-28 27-12 7-15 7-18-4-1-7-2-10-9-26-6-13-9-17-13-20-7-3-14 0-19 9-4 8-4 13-4 41 0 24-1 27-2 29-5 7-9 1-16-19-6-19-12-50-14-76-4-50-5-58-10-65-3-5-7-7-11-7s-7 4-9 11c-3 9-6 33-7 53-1 19-2 24-4 24-1 0-2-3-3-6 0-2-2-7-3-11-3-8-7-22-10-33-9-37-10-39-18-43-2-1-6-2-9-2-5 0-9 3-10 9-1 5 2 34 5 53 1 9 3 20 3 23 1 4 2 12 3 18 2 15 0 17-6 4-1-3-4-9-5-12-1-4-3-9-4-11s-3-7-4-10c-4-13-6-18-8-22-5-12-20-14-26-5-2 3-2 13 0 22 5 20 12 49 14 55 4 11 11 31 12 36 1 3 1 4 0 5-1 2-3 0-22-23-13-16-17-20-23-23-8-4-14-3-17 2-7 9 7 37 40 79 5 7 14 19 20 28 12 16 21 26 27 29 3 2 5 2 24 2 12 0 37 0 56-1 65-2 357 0 360 3 1 0 35-1 47-3z"/></svg>