<svg xmlns="http://www.w3.org/2000/svg" width="1344" height="566"><path d="M0 283V0h1344v566H0V283m786 278c18 0 48 0 68-1h57c31 1 121 1 147 0 22-1 28-2 31-5s2-10-4-27c-8-23-13-36-17-50-3-8-6-15-7-18-4-4-16-19-21-26-3-2-6-7-9-11-2-4-6-9-8-13-3-3-5-7-6-9-2-1-6-7-9-12-13-17-14-18-19-28-5-12-6-17-1-20 2-2 4-4 6-4 5-3 25-9 33-10 12-2 12-2 14-5 1-3 2-7 2-18 0-14-1-18-6-32-1-2-4-11-6-19-8-29-11-37-19-46-5-5-16-12-28-19-11-7-37-23-40-27-5-4-8-12-13-29-4-19-6-24-14-40-12-27-15-33-27-48-17-21-36-34-57-37-11-2-129-2-139 0-11 2-15 5-34 23-17 16-17 17-32 38-12 19-17 24-29 38-18 19-18 18-20 26-3 7-3 18-1 27 2 7 8 23 14 36 2 6 6 15 8 21 5 13 17 33 23 41 4 4 12 8 16 8 7 0 14 9 16 22 1 4 2 12 3 17 2 14 5 19 16 27 3 2 7 5 9 8 2 2 10 11 18 20 12 13 15 16 19 23 3 6 4 10 4 12 0 5-7 23-14 36-3 6-7 13-13 19-14 17-19 32-30 81-5 21-6 26-4 29 2 1 4 2 23 3 11 0 31 1 44 0 14 0 39 0 56-1z"/></svg>