<svg xmlns="http://www.w3.org/2000/svg" width="1344" height="566"><path d="M0 283V0h1344v566H0V283m752 277c66-1 166-2 261-1l86 1 2-2c3-3 3-6-1-17-1-5-4-13-5-17-6-17-11-31-19-42-1-3-4-8-6-11-9-16-27-37-41-48-16-14-35-25-53-33-6-2-18-8-27-12-18-10-26-14-57-33-9-6-32-17-39-19-3-1-12-3-19-4-15-3-20-5-22-10-3-5-4-15-4-22 1-5 2-8 7-17 8-15 11-20 13-32 4-15 5-26 5-36-1-9-2-14-10-27-4-6-6-13-8-30-1-17-3-26-8-39-4-12-6-17-14-26-9-12-23-23-37-29-27-12-51-17-74-14-36 4-57 12-80 30-24 20-39 44-43 69-2 10-1 30 1 44 1 5 3 14 3 19 1 4 3 13 4 20 2 13 5 28 6 44 2 12 5 27 8 39 2 9 12 30 17 38 6 9 14 24 14 29 1 5 0 8-6 14-5 4-34 23-48 31-6 3-17 10-25 15s-18 12-23 14c-5 3-11 7-14 9-6 4-32 17-38 19-2 1-5 1-5 1-3-1-2-7 1-16 4-12 8-20 18-31 4-5 9-11 11-14 4-5 14-25 17-33 4-10 14-31 17-35 4-6 5-9 5-22s-1-15-9-26c-7-9-10-16-10-22 0-5 1-7 9-19 9-14 11-18 7-22-2-2-3-2-9-2-8 1-14 4-31 18-6 4-14 11-18 14s-8 7-10 9c-6 8-7 8-41 29-11 6-15 10-17 15-1 3-2 17-3 33-3 44-4 54-10 74-2 7-7 16-10 17-2 1-5-3-6-10-3-15-14-42-22-55-14-22-28-36-53-53-8-6-38-20-53-26-24-9-56-25-60-29-2-3 0-5 11-6 13-1 20-4 25-10 6-6 21-35 29-56 7-20 8-22 13-26 2-2 5-5 6-8 3-5 2-11-1-33-4-20-4-29-1-36 4-9 7-28 7-34-1-9-14-47-18-50-5-6 1-5-124-6C16 4 7 4 4 6L1 7v545l3 4 3 4 10-1c18 0 84-1 117-2 35-1 77-2 102-1h34c10-1 20-1 24 0 7 1 64 1 91 0 15 0 28 0 73 3s201 3 294 1z"/></svg>