<svg xmlns="http://www.w3.org/2000/svg" width="1344" height="566"><path d="M0 283V0h1344v566H0V283m676 278h393c10 0 10 0 13-3 4-4 4-5-3-24-5-14-5-16-1-30l1-7-4-4c-2-2-11-7-19-11l-22-11c-3-2-12-6-20-10-21-11-50-26-55-29-8-6-8-9-5-38 6-48 5-46 5-92 0-41 0-51-3-88-1-13-5-39-5-42-1 0-2-5-3-10-5-30-20-71-35-91-19-26-41-41-83-55-10-4-13-4-24-5-16 0-22 1-33 6-8 4-10 4-21 5-19 2-29 6-46 22-11 11-15 17-22 32-11 21-17 42-22 79-2 15-2 18-2 64 1 27 1 54 2 61v10l-4 11c-3 5-6 12-7 14-3 5-10 10-17 13-7 4-15 9-17 13-3 4-4 17-2 35 2 13 3 31 1 33-1 1-5 3-7 3-11 0-46 12-78 26-6 3-12 5-13 5-9 3-26 10-28 11-2 2-2 3-2 6 2 13 2 19 0 28-2 4-3 8-3 9s-3 10-7 20c-12 32-14 37-11 42 3 3 22 4 55 3 15 0 85 0 154-1z"/></svg>