<svg xmlns="http://www.w3.org/2000/svg" width="1344" height="566"><path d="M0 283V0h1344v566H0V283m1030 276c6-1 15-2 20-3 7 0 9-1 11-3 3-3 5-8 4-14 0-4-7-17-13-24-2-3-6-7-10-9-9-6-12-10-15-24-4-16-7-21-23-31-2-2-7-5-10-7-10-5-14-8-33-27-10-10-21-21-25-24-3-3-9-10-12-15-4-6-9-13-11-16-8-11-9-15-9-28 0-14-2-20-9-36-2-6-6-14-7-18-3-7-3-7-10-12-6-3-8-6-10-9-4-9-4-23 2-47 3-10 4-28 2-56-2-48-9-72-24-89-4-4-10-7-24-11-19-7-29-8-50-8-18 0-20 0-28 2-24 7-40 20-51 42-5 11-12 33-20 63-1 5-4 14-6 21-11 37-15 47-25 67-6 12-7 14-14 22-5 4-11 11-14 14l-17 17c-14 16-25 31-37 50-12 22-15 28-26 54-14 31-17 37-22 56-7 22-9 32-12 48-3 18-3 21-2 28 0 5 1 6 5 11 5 4 7 5 18 9l13 5 20 1c33 2 153 2 213 1 61-1 60-1 65-7 4-5 14-44 14-54 0-5 2-9 3-9s4 4 7 9c10 18 22 30 38 38 4 2 8 5 10 6 8 6 24 8 55 8h17l3 4c1 2 3 4 4 5 1 0 9 0 16 1 7 0 14 1 15 1 2 0 8-1 14-2z"/></svg>