<svg xmlns="http://www.w3.org/2000/svg" width="1344" height="566"><path d="M0 283V0h1344v566H0V283m390 276c46-1 117 0 139 1 13 1 19 1 28 0 8-1 34-1 89-1 68-1 77-1 82-2 4-1 8-2 9-2 3-1 7-6 7-10 0-1-2-4-5-7s-5-7-6-9c-1-3-1-15-1-40 0-35 0-36 2-38s2-2 19-1c11 0 22 1 27 0 5 0 16-1 24-2 9-1 18-2 20-2s11-1 18-2c8-1 17-2 20-2 4-1 11-2 16-3 27-4 36-6 52-15 21-10 32-20 41-33 4-7 4-9 4-14 0-14-28-53-53-74-6-4-13-8-23-13-14-7-14-7-22-16-11-12-14-15-21-16-11-2-19-5-36-14-22-10-23-11-35-11-9 0-10 0-18-5-5-2-14-7-20-11s-14-8-17-10c-7-4-9-6-10-20-3-27-4-40-6-49-7-31-18-50-37-64-18-13-36-19-65-24-35-5-58 1-92 25-11 8-17 13-27 27-12 17-22 36-30 56-2 7-5 15-6 17-4 7-25 23-42 32-6 3-15 7-19 10-3 3-10 7-14 10-11 7-27 15-37 19-13 4-23 9-28 12-10 6-22 23-28 37-3 9-5 30-3 47 2 21 4 27 15 41 3 4 6 9 8 12 2 2 6 7 9 10 4 4 7 9 11 16 7 14 8 19 8 49 0 27-1 39-7 67-3 17-4 19-1 21 2 2 5 3 15 2 5 0 25 0 46-1z"/></svg>