<svg xmlns="http://www.w3.org/2000/svg" width="1344" height="566"><path d="M0 283V0h1344v566H0V283m1016 274 4-4c2-4 2-24 0-33-1-3-3-11-4-16-1-6-2-17-3-29-1-11-2-23-2-27-2-9-2-19 0-24s1-7-5-15-7-9-28-16c-12-5-22-9-39-17-9-5-13-7-16-11-9-9-13-20-18-44-1-6-3-20-4-43-1-9-2-21-2-26-1-5-1-26-2-47 0-21-1-42-2-47-1-10-5-26-7-30 0-1-1-4-2-6-1-7-13-31-19-40-13-18-39-39-51-42-2 0-7-2-12-4-16-6-22-7-38-7-15 0-24 1-49 6s-37 9-52 18c-8 5-9 6-13 18-5 11-10 21-24 45-5 10-11 20-12 24-3 7-6 21-7 37-1 13-3 18-15 35-5 7-10 15-10 17-1 5-1 12 3 19 1 4 2 8 2 11 0 2 1 8 2 12s2 10 2 16c0 5 0 10 1 11 1 2 2 10 2 17 1 15 2 20 7 24 3 4 11 9 13 9 1 0 3 1 6 3 2 1 6 3 8 3 4 1 7 3 6 5-1 1-7 1-20 0-18 0-21 0-30 2-7 1-13 2-24 2-18 0-21 1-33 11-5 4-11 8-14 10-5 2-6 2-10 1-9-3-12-2-28 10-5 4-12 8-15 9-22 10-26 13-34 24-2 4-5 6-10 9l-6 3-21-1c-22 0-39 1-43 4-1 0-3 2-4 3-2 4 0 6 7 10 8 4 11 8 11 12-1 6-10 29-14 38-2 5-4 9-4 10 0 0-1 3-2 5-3 6-11 26-11 28 0 4 14 6 48 5 29-1 38-1 47 0 8 1 26 1 36-1 27-4 29-4 34-2 7 1 11 1 16 0 3-1 5-1 9 0 3 1 11 3 19 4 19 3 64 4 94 2 15-1 25-1 36 0 8 1 49 1 90 2 42 0 77 0 78 1h88c84-1 87-1 90-3z"/></svg>