<svg xmlns="http://www.w3.org/2000/svg" width="1344" height="566"><path d="M0 283V0h1344v566H0V283m545 274c8-5 15-15 15-20 0-3 2-8 4-14 3-5 7-16 9-24 3-8 6-15 7-16s2-1 6 1 7 2 15 3c13 0 17-1 21-8 2-2 7-9 12-15 10-13 11-14 16-25 6-16 10-32 11-43 1-10 3-16 6-22 2-2 5-8 7-13 4-7 6-10 10-13 4-2 6-5 9-11l4-9 1-22v-24c-1-2-6-1-10 3-3 1-8 5-13 7-8 4-9 4-11 3-7-3-11-2-19 4-4 2-11 7-16 11-5 3-13 9-17 13-12 10-15 12-16 10-1-1-6-10-11-20-6-11-11-21-13-24-3-5-14-12-29-20-6-3-13-6-15-8-3-2-6-3-7-3s-3-1-4-3c-2-3-3-4-3-8 0-5 0-6 4-9 3-2 6-5 9-6 8-4 12-8 19-18 12-20 18-33 22-55 0-5 2-12 3-16 2-10 4-31 4-40-1-12-3-14-16-27-25-22-31-26-50-30-20-4-25-4-38 0-14 5-18 7-25 13-8 10-16 27-24 56-4 13-9 43-11 60-1 6-1 14-2 17 0 3-1 10-2 16 0 7-1 13-2 15s-1 6-1 9c0 5 0 5 10 13 5 3 4 6-3 17-8 12-12 19-14 26-2 6-2 8-2 22 1 8 2 21 3 30 2 21 2 46-1 52-1 4-1 7-1 23 0 18 0 19 3 30 2 6 4 12 5 13 3 4 6 11 6 19 1 4 2 10 3 14 0 3 1 11 2 18s1 15 2 17c0 3 1 8 1 11 0 9 4 16 11 20 4 2 40 3 48 2 6-1 30-1 41 1 4 0 10 1 14 0 6 0 8 0 13-3z"/></svg>