<svg xmlns="http://www.w3.org/2000/svg" width="1344" height="566"><path d="M0 283V0h1344v566H0V283m284 276c2-1 4-1 10 0 5 1 25 1 96 1h212c69 1 82 1 87-2 3-2 4-3 4-9 0-4 0-9-1-10-1-2-2-12-2-22l-1-18-3-5c-3-5-5-9-11-26-1-4-4-11-6-15-3-6-3-9-3-13 0-16-4-19-34-31-46-18-65-27-70-32-1-2-2-4-2-6 0-4 4-18 12-43 7-23 9-30 10-47 2-15 2-31 0-45 0-4-2-18-3-30-7-75-9-89-15-105-6-17-15-27-34-42-24-18-38-26-54-30-6-2-10-2-24-2s-17 0-24 2c-3 1-13 3-20 4-21 5-28 8-45 24-19 19-34 47-42 81-2 11-5 28-8 54-2 10-4 23-5 28 0 5-2 20-4 33-1 13-3 29-4 35-3 16-5 44-5 63s0 21-6 26c-4 3-9 5-21 10-19 7-35 16-47 26-9 7-19 14-32 20-6 4-12 8-16 12-7 6-7 7-8 14-2 7-6 16-13 27-7 13-16 49-15 62 1 7 4 12 9 12 1 1 32 1 68 1 50-1 67-1 70-2z"/></svg>