<svg xmlns="http://www.w3.org/2000/svg" width="1344" height="566"><path d="M0 283V0h1344v566H0V283m822 279c14 0 21 0 28-2 8-1 20-1 58-2 46 0 62 0 102 4 14 1 25 1 40 1 24-1 29-2 32-5 2-2 2-3 2-13 0-9-1-16-4-33-5-23-13-61-18-87-2-9-4-18-5-22-2-11-27-86-32-98-5-13-20-28-34-36-2 0-8-3-14-5s-13-5-15-6c-6-2-31-13-51-20-8-3-17-7-20-9-9-6-24-18-35-30-16-17-17-19-12-37 1-6 4-19 5-28 5-28 6-29 13-39 2-2 5-8 7-11 8-17 8-47 1-64-6-13-12-15-41-16-24-1-190-1-211 0-13 0-14 1-16 3-3 2-3 3-3 8 0 3 1 9 1 14 3 14 5 28 6 38 1 11 4 27 7 35 1 2 4 10 7 17 7 16 14 37 17 50 2 12 1 20-2 28-1 3-4 9-5 11-1 4-4 8-11 15-11 12-14 13-39 23-20 7-34 14-37 17-2 2-3 3-3 7 0 8 7 26 14 39 8 13 17 31 19 38 4 10 2 24-8 54-1 5-4 14-5 19s-4 15-6 21c-1 6-3 13-4 16 0 2-1 9-2 13-1 8-1 13 0 29s0 22-1 28c-2 14-2 18-1 20 2 4 10 7 18 10 10 2 40 3 74 2 33-1 83-1 99 1 14 2 43 3 55 2h30z"/></svg>