<svg xmlns="http://www.w3.org/2000/svg" width="1344" height="566"><path d="M0 283V0h1344v566H0V283m734 172c4-1 13-2 19-3s12-2 13-2c1-1 5-2 8-3 9-2 19-4 24-5 12-3 15-4 22-6 28-8 34-9 50-7 25 3 26 3 27 0 2-3 2-10-2-39-1-8-2-19-2-25s0-16-1-24c-1-15-2-19-11-29-5-5-7-6-13-8-10-3-12-6-13-15-1-7-1-8 1-11s2-3 0-26c-2-14-3-19-8-38-1-6-3-15-4-20s-3-14-5-20-4-13-5-16c0-3-1-8-2-10s-2-8-3-13c-5-18-13-39-22-53-6-9-17-21-29-28-14-9-29-17-36-20-8-2-25-2-38 1l-16 4c-31 6-41 13-54 40-7 15-11 29-14 57 0 9-1 16-2 17 0 1-1 9-2 19-3 25-4 65-2 85 3 20 2 24 0 26-1 1-8 4-16 6-13 3-14 3-36 3-26 1-24 0-38 12-5 4-11 9-14 11s-9 6-14 9c-4 4-12 9-18 13-5 3-13 8-16 12-10 8-16 10-26 10-7 0-8 0-10 2-2 3-6 11-6 13 0 1-3 8-7 16-4 9-8 18-10 22-3 10-9 26-11 31-3 10 3 11 28 2 11-4 20-5 50-6 38-1 43-2 48-5 4-2 5-2 10-2 4 1 10 2 15 4s13 3 19 4c5 1 10 1 10 2 4 2 49 3 56 1 6-2 42 1 58 3 14 3 18 4 23 9 3 2 4 2 10 2 4-1 11-2 15-2z"/></svg>