<svg xmlns="http://www.w3.org/2000/svg" width="1344" height="566"><path d="M0 283V0h1344v566H0V283m484 113c5-2 11-3 20-4 28-2 48-6 58-10 5-2 11-2 30 1 17 3 39 4 71 5 19 0 32 0 37 1s11 1 17 1c5-1 13-1 17-1 15-1 27-3 54-10 7-2 14-4 16-4 3-1 9-2 12-3 10-2 24-2 30 0 8 3 13 3 15 2 1-2 1-9-1-21-1-7-3-44-3-63 0-6 0-6 3-9 8-5 8-5 8-10 0-3 0-7 1-8 0-2 2-10 3-18 2-14 2-20 2-49s0-34-2-46c-7-42-9-53-17-68-7-13-14-22-21-27-10-6-32-17-38-18-18-4-62 8-74 19-6 6-14 18-17 26-2 7-2 9-3 38-1 17-1 35-2 41-1 9 0 32 1 34 1 1 4 26 5 37 0 5 0 7-1 9-3 4-6 4-25-1-10-3-17-4-22-4-6 0-28 4-36 6-1 0-5 2-8 2-6 2-7 3-20 22-5 8-10 13-15 16-3 1-7 4-9 5-2 2-5 5-8 7-2 1-5 4-7 5-4 3-4 3-9 3-8-2-10-6-6-17 2-5 3-7 10-13s9-8 11-13c2-8 4-20 3-24-1-6-5-9-9-6-3 3-4 2-9-2-2-2-5-5-7-6-4-3-18-5-23-4-3 0-6 0-10-1-2-1-7-2-10-2-4 0-6 0-8 3-2 2-3 4-3 5s-2 4-3 7c-2 3-5 9-7 13-3 7-3 8-3 19 0 9 0 14 1 19 2 6 2 6 0 9-1 3-3 4-6 5-8 2-13 5-19 12-6 6-8 10-7 12 1 1 4 3 7 5 8 4 12 7 16 11 3 3 3 4 3 12-1 5-2 12-3 16-3 10-6 21-7 27 0 5 1 8 5 8 7 2 15 1 22-1z"/></svg>