<svg xmlns="http://www.w3.org/2000/svg" width="1344" height="566"><path d="M0 283V0h1344v566H0V283m246 278c4-4 4-14 2-27 0-6-1-15-2-20-1-4-1-10-2-12-1-3-2-10-3-16-3-18-4-21-8-27-2-5-3-7-3-11 0-5 0-5 4-9 6-6 6-5 3-32-2-16-2-20-1-29 1-8 1-12 0-22-1-7-2-18-3-24-1-12-3-27-4-30s1-3 11-3c11-1 17-3 20-8 3-7 6-38 4-51-1-8-1-8 1-13 2-3 7-10 12-15 8-9 9-11 11-17 2-7 2-7 0-11-2-6-5-7-17-7h-10l-7-6c-8-8-10-9-15-9s-11 5-14 11c-2 4-4 6-6 8-3 1-4 3-6 8-4 8-4 15-1 20 2 5 4 14 3 18-1 5-5 5-10 0-8-6-22-14-33-18-11-5-15-9-15-13 0-2 2-4 7-7 11-7 13-9 13-18 1-3 1-11 1-16-1-9-1-10-5-17-2-5-4-9-4-11s-1-7-2-10-2-7-2-9c0-8-11-17-26-20-17-5-23-5-37 0-13 5-17 8-22 16-3 5-3 6-3 16 0 6 0 11 1 13 0 1 3 3 6 4 8 2 13 5 15 8 1 2 6 8 11 13 8 8 9 10 13 19 2 5 6 14 9 18l5 9-2 6c-1 4-3 11-5 17-3 14-4 16-9 20-5 2-7 5-7 10-1 2 0 4 3 10 3 4 6 10 7 12 2 3 4 6 6 7s4 4 6 7c1 3 2 5 3 5s4 3 9 7c8 8 13 17 14 26 1 8 3 8 14 9 15 1 15 1 17 3 1 1 3 6 5 10 4 7 5 9 9 11 3 2 4 3 4 5 0 1-1 4-2 5-3 2-5 7-8 15-2 4-7 9-14 11-4 1-5 2-6 7-1 2-2 8-3 12-1 8-2 9-8 11-10 2-12 27-4 47 2 4 4 11 6 15 3 10 15 36 22 49 5 11 9 16 13 19 3 2 12 3 28 3 8 0 9 0 11-2z"/></svg>