<svg xmlns="http://www.w3.org/2000/svg" width="1344" height="566"><path d="M0 283V0h1344v566H0V283m780 279c32-2 97-3 170-2 82 0 157-1 167-3 8-2 10-4 10-10-2-9-15-44-24-65-4-9-9-19-11-22-2-8-7-14-16-25-4-4-8-9-11-13-2-4-6-10-9-14-23-33-29-43-32-55-2-13-2-13 17-20 11-4 21-6 30-6 4 0 5 0 7-3 6-7 9-16 10-30 0-8 0-9-3-16-4-7-7-15-11-32-6-25-9-32-17-42-3-3-8-7-11-8-3-2-8-5-12-8-4-2-16-8-27-14-26-13-28-15-33-26-3-5-5-11-6-14-3-14-11-34-20-51-14-28-26-45-45-61-10-8-14-10-23-13-14-4-22-5-82-5h-58l-12 5c-7 2-14 5-16 7-2 1-11 10-21 19-14 14-18 19-24 28-4 6-10 17-13 24s-10 19-15 26c-12 19-13 20-15 32-2 13-1 21 5 37 3 7 6 17 8 23 4 12 9 24 12 26 1 1 4 4 6 5 7 4 20 15 26 24 9 12 10 16 13 47 0 6 2 13 3 15 2 6 7 11 14 15 4 2 8 6 11 9 3 4 8 9 11 11 17 16 24 25 24 32 0 2-3 10-8 20-4 9-9 20-10 24-4 11-6 13-12 19-10 11-18 33-26 69-1 7-3 16-4 21-3 15-2 19 7 19 28 1 38 1 39 1 1 1 17 1 37 0z"/></svg>