<svg xmlns="http://www.w3.org/2000/svg" width="1344" height="566"><path d="M0 283V0h1344v566H0V283m615 277c3-1 39-1 89 0 89 0 90 0 94-4 1-3 3-25 2-32-3-28-15-75-23-95l-4-8v-11c1-9 1-12 0-13-1-2-27-15-32-16-1-1-4-2-5-3-2-1-10-5-18-8-9-4-21-9-28-12-20-9-22-12-20-29 1-10 5-49 8-71 0-9 1-19 1-21-1-2-2-15-4-27-1-12-3-26-3-30-1-3-2-11-2-16-2-15-6-43-7-49-5-17-11-30-22-45-8-12-22-26-30-32-18-13-49-25-63-25-6 0-16 2-27 6-5 2-12 3-18 4-17 2-26 7-41 22-17 19-30 45-39 83-3 11-11 52-12 61-1 2-2 12-4 21-2 8-4 26-5 40-2 20-2 28-2 53 1 29 1 30-1 34-3 5-8 8-18 9-12 1-26 7-62 26-6 3-15 7-19 9-8 4-15 10-18 14 0 2-2 8-2 14-1 11-2 16-7 32-6 21-12 51-15 84-3 22-2 26 5 30s18 5 65 4c55-1 67 0 123 1 27 1 56 1 65 1 30 1 94 0 99-1z"/></svg>