<svg xmlns="http://www.w3.org/2000/svg" width="1344" height="566"><path d="M0 283V0h1344v566H0V283m1266 278c3-1 7-1 8-2 3-2 8-11 13-21 2-5 6-14 9-19s6-12 8-16c4-11 5-13 10-19 8-8 15-27 15-37 0-5-5-20-11-32-2-4-6-10-11-16-20-23-25-37-29-84-1-9-2-18-3-21 0-2-2-14-3-26-2-13-4-25-4-27s-1-6-2-9c0-4-1-9-2-12 0-2-1-7-1-9-1-4-2-7-8-14-8-11-13-16-17-18-2-1-6-3-8-5-3-2-7-3-9-4-3 0-6-1-7-2-6-2-26-3-37-2-16 2-33 7-37 12-3 5-17 34-21 45-1 5-3 8-8 12-8 8-9 13-9 44 0 25-1 25-3 27-1 2-4 3-6 4-10 3-13 4-22 13-10 11-21 26-28 39-5 9-5 12-2 24 0 5 1 10 1 12 0 5-6 16-9 16s-14 6-18 10c-8 8-8 11-4 33 0 5 1 11 2 13 0 1 1 4 3 6 2 3 14 12 21 17s21 8 39 10c6 0 10 1 11 2 2 2 0 10-6 27-2 6-4 13-5 15 0 5 0 5 3 8 2 2 5 4 6 4s2 1 4 1c1 1 22 1 87 1h90z"/></svg>