<svg xmlns="http://www.w3.org/2000/svg" width="1344" height="566"><path d="M0 283V0h1344v566H0V283m757 276c12-1 61-1 108-1 48 0 94 0 104-1s27-1 39-1c37 1 77 1 93 0 9 0 32 0 53 1 42 2 40 2 40-6-1-7-8-22-15-32-9-14-29-35-39-42-13-9-39-20-69-29-4-2-15-5-25-8s-22-7-27-8c-10-3-16-5-23-7-2-1-7-3-12-4-13-5-24-10-28-15l-4-4v-12c1-16 8-50 12-59s6-10 18-16c8-4 11-6 18-13 8-9 17-24 22-36 6-13 8-32 4-42-1-2-5-6-9-10-8-8-9-11-7-27 5-28 7-53 8-73 0-19 0-23-2-35-3-18-6-32-10-39-2-4-5-11-8-16-7-14-8-15-25-18-8-1-27-1-117-2-111 0-123 0-135 4-7 2-11 7-18 21-8 17-12 29-18 49-5 22-7 34-8 62-1 27-3 43-7 53-4 11-4 17-3 30 2 21 7 40 16 61 2 8 7 22 10 32 4 9 8 24 10 32 7 19 7 20 4 24-2 1-5 4-9 5s-11 4-16 6c-4 2-11 5-14 6-6 2-16 12-25 25-27 41-41 56-72 77-7 5-16 11-20 14s-13 9-19 13c-16 10-20 13-24 17-2 1-8 6-13 9-5 4-11 8-12 9-2 3-2 3-1 5 2 1 9 2 105 2h105c0 1 34 0 65-1z"/></svg>