<svg xmlns="http://www.w3.org/2000/svg" width="1344" height="566"><path d="M0 283V0h1344v566H0V283m262 276c13-1 26-1 28-2 3 0 7-4 8-7 0-2 1-6 2-9 1-4 2-11 3-32 1-32 2-45 3-47 2-3 5-3 16-4 22 0 50-3 71-8 3-1 8-2 12-2 4-1 8-2 10-2 2-1 7-1 12-2 12-1 19-4 39-13 8-4 15-10 14-12-1-1-3-2-7-3-9-1-11-3-7-9 1-3 1-3 0-5-3-1-8-1-20 2-7 1-8 1-10 0-5-2-7-6-8-13-1-10-8-14-11-7-11 24-14 29-23 31-6 2-32 2-47 1-14-1-20-3-30-9-5-4-6-7-7-19 0-6-2-17-3-24-4-17-5-33-4-42 1-5 3-14 7-30 1-5 2-12 2-15 0-10 1-11 9-12 4-1 8-2 12-5 11-6 13-11 19-31 3-14 3-14 1-21-1-4-2-10-2-24-1-24-2-26-16-39-6-5-8-6-15-8-17-6-34-6-44-2-10 5-15 9-20 16-6 9-8 14-9 31-3 25-5 29-34 49-25 16-39 29-61 55-9 10-11 12-19 29-5 10-9 19-9 19 0 1-1 5-3 9-2 8-4 15-9 29-3 12-4 36-2 46 3 11 3 15 2 30-1 19-3 25-9 31-3 3-5 7-6 11-2 8-2 10 0 13 1 2 3 5 5 9 10 15 28 35 35 39 3 2 6 3 16 4 7 0 18 1 25 2 6 1 17 2 24 2 14 2 16 2 60 0z"/></svg>