<svg xmlns="http://www.w3.org/2000/svg" width="1344" height="566"><path d="M0 283V0h1344v566H0V283m682 276c78-1 149-2 196-1 29 0 55 1 57 1h51c64 1 186 2 189 1 4-2 4-4 2-12-3-12-8-22-17-32-27-31-37-42-62-61-5-4-14-11-18-16-16-15-26-22-68-53-21-16-20-16-41-17-10-1-13-1-18-4-8-4-15-11-17-17-1-5-1-27 1-38 4-26 5-28 15-36 9-8 15-15 20-25 7-12 11-23 13-34 3-14 3-17-3-28l-4-9 1-26c0-30-1-39-6-52-9-23-24-38-53-53-22-11-37-14-67-14-24 1-29 2-46 11-18 10-31 20-40 34-13 20-18 42-18 86 0 12-1 31-1 44-1 25-1 41 2 52 1 2 3 9 5 14 1 6 4 15 5 22 4 14 7 22 13 32 7 12 7 14 7 23 0 7-1 8-3 11-1 1-10 6-19 10-70 34-76 38-107 62-27 22-57 57-69 80-4 7-12 33-12 37s3 9 6 9c3 1 69 0 106-1m-634-1c22-1 18-1 70 1 63 2 130 0 136-3 3-2 143-2 152 0 3 0 15 1 26 2h20l2-2c3-3 3-4 3-11 0-11-2-37-6-65-8-64-10-71-22-98-11-24-18-35-30-46-11-10-29-22-44-30-5-3-19-9-49-22-8-3-21-9-28-13-27-12-36-19-36-26 0-2 10-21 19-38 13-21 19-29 32-37 15-10 30-32 34-50 2-11 2-14-2-23l-3-7 1-17c1-10 3-23 4-30s2-17 2-22c1-10 0-12-8-15-5-1-13-2-121-2H85l-3 4c-2 2-3 5-4 11-5 19-6 22-14 24-10 3-15 8-18 20-5 21 1 44 16 61 4 5 7 10 8 12 4 7 1 56-4 66-3 5-7 7-18 8-16 2-29 4-32 6-4 1-9 8-11 13-3 7-4 32-4 181v142l3 4c3 4 5 4 18 3 5 0 17 0 26-1z"/></svg>