<svg xmlns="http://www.w3.org/2000/svg" width="1344" height="566"><path d="M0 283V0h1344v566H0V283m1013 182c3-2 9-9 12-13 1-2 2-7 2-13 1-9 3-14 9-24 2-2 4-7 6-10 4-10 8-18 11-22s3-7 5-16c1-10 1-13 0-21-1-10-3-15-11-27-6-10-7-13-4-17 4-7 5-19 3-34-4-22-5-30-6-40-1-25-15-59-27-69-5-5-14-9-18-9-1 0-6-1-10-2-6-1-10-2-20-1-14 1-15 1-18 11-2 5-4 8-8 12-3 2-6 7-8 10s-6 7-8 10c-9 7-11 13-12 33-1 14-1 18 1 24 1 7 1 11-2 13-2 3-4 2-10-2-6-3-7-4-15-1-7 2-11 6-17 18l-4 9-1 16c-1 12-1 17-3 24-3 10-3 11-9 14s-17 12-19 16c-3 9-2 34 2 43s9 12 26 16c6 2 11 4 12 4 0 1 1 3 2 5 0 4 5 8 12 9 2 1 8 3 13 5 8 3 12 4 39 12 10 2 24 6 31 8 14 4 31 9 35 9 3 1 6 1 9 0z"/></svg>