<svg xmlns="http://www.w3.org/2000/svg" width="1344" height="566"><path d="M0 283V0h1344v566H0V283m458 140c8-2 11-5 13-10 1-7 10-12 31-17 12-3 17-3 33-4 19 0 19 0 25-3 5-3 6-3 13-3 4 1 10 2 13 3 9 2 28 3 71 3 21 1 40 1 42 2 14 3 58-1 80-7 6-2 13-4 15-4 3-1 7-2 9-2 20-7 29-7 52-3 3 0 6 1 7 0 3-1 3 0-2-58 0-5-1-17-2-25l-1-16 3-3c4-3 4-6 4-24 1-9 1-23 1-32 2-25 0-47-6-90-3-18-11-42-18-53-8-14-13-18-25-25-16-9-18-10-27-13-11-3-17-3-31 1-26 7-36 11-46 22-8 8-11 13-15 23-5 14-7 25-7 45 0 11-1 22-2 26 0 5-1 22-2 40-2 45-2 46-15 46-5 0-10 0-13-1-5-1-6-2-12-8-4-4-9-9-12-10-2-2-4-4-4-5-1-3-4-5-10-5-5 0-6 0-11 6-6 5-7 6-13 6-3 1-8 2-11 3s-7 2-9 2c-3 1-6 2-7 3-2 0-5 1-8 1-5 0-5 0-10 5-4 4-6 6-13 8-12 5-17 11-19 24-1 10-3 16-5 19-2 6-20 19-25 19-3 0-21 9-24 12-2 2 0 4 5 6 6 1 7 3 6 7 0 2-4 11-8 19-4 9-9 19-10 23-1 3-3 8-5 11-3 9-9 26-9 31-1 9 2 10 14 5z"/></svg>