<svg xmlns="http://www.w3.org/2000/svg" width="1344" height="566"><path d="M0 283V0h1344v566H0V283m614 277c6-1 144 0 157 1 4 0 13 0 19-1 10 0 12-1 14-3l4-3v-14c0-11 0-16-2-30-3-16-8-36-12-50-2-3-4-9-4-13-1-4-4-11-7-15-4-9-4-10-4-15 2-14 2-17 1-19s-22-13-43-22c-23-10-27-12-35-15-28-11-30-14-24-55 1-11 3-24 4-30 3-24 2-39-3-78 0-4-2-16-3-26-1-9-3-19-3-22-1-2-2-12-4-21-4-32-14-52-40-79-12-12-25-20-47-28-14-6-21-7-32-7-9 1-12 1-20 5-8 2-13 4-19 4-12 1-17 3-25 7-11 6-27 23-36 39-15 27-25 60-34 116-1 8-3 22-5 31-6 39-6 75-1 99 1 3 1 10 1 14 0 6 0 7-2 10-3 4-12 8-21 9-11 2-28 8-52 21-11 6-25 13-30 16-10 5-15 9-18 14 0 2-2 9-3 16s-4 20-6 28c-8 32-14 66-16 96 0 10 1 14 9 17 4 2 7 2 28 3h28c1 0 12 0 22-1 26-1 50-1 78 0 12 1 40 1 62 2h42c0 1 79 0 82-1z"/></svg>