<svg xmlns="http://www.w3.org/2000/svg" width="1344" height="566"><path d="M0 283V0h1344v566H0V283m806 277h148c141-1 148-1 153-5 3-3 4-10 4-21-1-10-2-15-9-29-2-5-5-12-6-16-1-3-3-8-4-10-3-5-15-16-23-21-4-2-12-7-17-10s-13-8-19-11c-24-14-31-20-30-25 1-2 3-6 6-9 3-4 6-8 7-9 0-2 1-10 1-18 1-14 1-16 6-28 7-21 9-23 35-30 15-4 19-4 32-5 17-1 18-1 22-9 6-12 3-16-20-31-15-9-46-42-62-65-2-3-5-9-8-12-2-3-4-7-5-9-1-3-11-16-18-25-3-3-9-11-13-17s-10-14-13-18c-4-4-9-11-12-15-15-22-33-44-44-54s-32-22-47-27c-19-7-44-9-59-5-9 2-20 6-28 10-2 2-10 4-17 5-18 4-26 8-39 21-17 17-21 25-30 70-2 10-6 23-7 30-5 15-5 19-4 28 1 4 2 16 3 26 2 22 5 36 9 45 2 6 3 8 9 13 14 13 18 17 22 22 2 4 5 9 7 12l6 12c4 7 4 10 5 21s1 13 0 17c-2 6-8 12-16 18-4 2-19 7-35 11-20 6-46 15-64 23-14 7-28 11-60 18-4 1-8 3-10 3-1 1-5 7-9 13-10 15-16 24-28 40-11 14-15 21-19 30-1 4-5 14-10 23-4 8-7 15-7 16 0 0 1 2 2 3 2 2 3 2 10 2 4 0 10 1 13 1 5 1 11 2 31 1 13 0 45-1 71 0 25 0 72 0 104 1h59c0 1 3 1 6 0 4 0 13 0 21-1z"/></svg>