<svg xmlns="http://www.w3.org/2000/svg" width="1344" height="566"><path d="M0 283V0h1344v566H0V283m542 276h65c21 0 24 0 26-1s3-3 3-4c1-1 1-5 2-8 1-8 0-9-7-13-10-4-16-13-18-25s-6-20-23-40c-10-12-10-12-20-17-5-3-16-9-22-13-7-5-18-11-23-14-21-11-23-16-12-30 2-2 5-7 7-10 4-6 13-20 18-26 2-3 5-8 8-12 5-10 7-11 21-12 13 0 19-3 25-8 8-7 9-10 11-27 1-5 2-11 2-14 1-4 2-9 1-14 0-7 0-10 2-15 1-4 2-11 2-14 1-6 2-9 5-14 5-9 5-13-3-33-12-30-11-25-11-66 0-31-1-37-2-45-4-19-12-35-20-42-4-4-16-10-43-22-34-15-37-16-82-16-48 0-66 2-70 8-1 1-4 4-8 7-14 9-30 23-37 33-4 6-10 19-13 28-8 24-12 43-21 104 0 3-2 12-3 18-2 14-5 32-7 48-1 5-2 12-3 14 0 3-1 9-1 14-1 4-2 13-3 20-4 22-5 31-6 40-1 10-7 39-10 52-1 3-2 8-3 11 0 5 0 6 2 9 2 1 5 4 8 5 4 1 6 1 25-1 7 0 10 1 10 6 0 2-3 10-7 18s-9 17-10 20c-16 37-26 58-34 72-2 4-4 9-5 12-2 12 5 15 38 18 11 1 228 0 246-1z"/></svg>