<svg xmlns="http://www.w3.org/2000/svg" width="1344" height="566"><path d="M0 283V0h1344v566H0V283m515 276c68-3 206-4 233-2 17 2 150 1 170 0 9-1 18-1 20-1 5 1 99 3 114 2 6 0 11-1 12-1 8-4-2-18-25-37-28-22-44-33-63-43-10-5-12-6-22-13-7-5-17-15-18-19-1-7 5-28 16-51 8-17 34-63 43-77 4-5 8-9 12-12 11-9 25-24 31-34 9-16 14-28 16-42 1-7 1-8 0-11-1-2-3-5-5-6-6-4-7-6-7-10 0-3 2-11 4-18 5-20 8-35 11-53 2-18 4-48 3-54-3-20-6-31-14-51-5-12-8-15-17-18-15-4-16-4-122-4-100 0-113 0-124 3-7 2-10 5-16 15-11 19-20 51-25 88-3 23-5 31-10 35-1 1-5 3-8 4-11 3-16 9-19 22-2 8-2 17-1 29 4 22 10 36 23 50 10 10 10 12 7 36-1 16-5 36-9 46-4 11-14 31-18 35-5 5-9 6-26 6-13 0-25 1-35 3-5 0-11 7-24 26-25 37-25 37-71 67-11 8-24 16-28 18-21 12-38 23-45 28-17 12-40 34-42 38-1 4 3 6 11 6 4 0 10 1 13 1 7 1 22 1 55-1z"/></svg>