<svg xmlns="http://www.w3.org/2000/svg" width="1344" height="566"><path d="M0 283V0h1344v566H0V283m410 276h233c70-1 77-1 80-2l4-4c1-2 1-15 1-47 1-50 2-75 5-78 1-1 5-2 33-2 26 0 35 0 44-1 6-1 22-4 36-6 33-5 44-8 66-14 4-1 8-2 9-2 4-1 28-16 35-22 4-3 8-8 11-11 11-16 11-19 4-34-9-19-34-49-50-60-4-3-14-9-21-13-9-4-17-9-20-12-5-5-13-12-17-14-4-3-15-7-20-7-5-1-16-5-20-8-1-1-7-4-13-6-9-5-10-5-20-6-13-1-15-2-41-15-28-14-32-17-35-23 0-2-2-11-3-21-1-22-3-33-7-47-4-12-5-15-10-24-6-10-13-18-22-26-15-11-29-17-55-22-33-6-41-6-61 1-16 6-39 20-50 31-10 10-32 47-38 62-6 16-9 24-11 27-3 4-11 9-22 15-5 3-13 7-18 10-6 3-12 6-15 7s-11 6-19 11c-21 13-30 18-50 25-21 7-29 11-35 17-5 7-15 23-18 31-2 7-4 22-4 33 0 7 4 25 8 35 4 9 15 25 27 37 12 11 26 28 29 36 2 4 2 6 2 26-1 12-1 26-2 32s-2 17-3 25c-1 17-3 26-9 43-2 6-4 13-4 14 0 8 5 10 18 9h68z"/></svg>