<svg xmlns="http://www.w3.org/2000/svg" width="1344" height="566"><path d="M0 283V0h1344v566H0V283m511 276c42-3 170-4 228-1 13 1 44 1 69 0h209c28 1 33 1 35-3 3-5-1-16-11-26-3-3-12-11-20-17s-17-14-20-16c-7-6-29-20-40-25-4-2-10-5-14-6-13-4-26-13-29-19-3-5-2-11 7-33 8-18 11-24 27-50 4-6 9-14 11-17 1-2 7-11 12-20 8-12 12-17 22-26 13-13 18-19 25-32 7-11 11-20 13-30 3-13 2-19-4-25-3-3-5-8-5-12 0-2 2-14 5-26 10-38 15-72 14-91-2-22-10-44-23-58-14-16-22-20-42-22-13-1-187 0-199 1-21 2-25 4-32 18-12 23-22 60-25 91-1 16-2 20-4 26s-4 7-13 9c-13 2-18 8-22 21-3 14 0 39 8 56 5 10 9 16 17 24 8 9 9 11 7 26-3 27-10 54-19 72-11 21-14 23-38 24-21 2-34 3-38 6-5 3-10 9-19 25-9 14-19 28-24 34-4 4-57 44-65 49-1 1-9 6-18 11-27 17-41 28-64 48-8 7-9 9-8 11 1 3 5 4 23 5 20 1 37 1 64-2z"/></svg>