<svg xmlns="http://www.w3.org/2000/svg" width="1344" height="566"><path d="M0 283V0h1344v566H0V283m717 277c3 0 7-1 10-2 10-1 12-5 10-20-1-5-2-12-2-16 0-6 0-8 4-15l3-7-2-2c-2-2-4-3-5-4-3-2-11-16-13-24-2-7-10-24-13-30-4-6-4-6-4-15 0-10-1-14-4-17-3-2-63-26-85-34-9-3-30-12-35-14-1-1-4-4-6-5-3-4-3-5-3-11 0-11 5-30 13-50 6-18 7-32 5-60-3-29-5-39-11-62-10-42-26-80-42-102-7-9-24-26-33-32-19-12-36-17-59-19-21-2-21-2-53 15-31 16-36 20-45 34-8 10-17 32-21 50-3 10-10 51-12 66-1 5-1 12-2 15-2 9-5 46-7 77-2 35-3 61 0 78 2 17 1 19-1 23-2 1-5 3-8 4-27 10-28 11-57 30-10 7-23 15-29 18-13 7-16 11-16 19 0 7-3 19-7 31-2 5-5 15-7 23-1 8-4 17-5 20 0 3-1 11-2 18 0 14 0 18 5 20 4 1 104 1 117-1 7-1 11-1 15 0 11 2 398 3 407 1z"/></svg>