<svg xmlns="http://www.w3.org/2000/svg" width="1344" height="566"><path d="M0 283V0h1344v566H0V283m816 87c2-2 13-27 16-38 4-13 2-33-6-50-4-8-5-9-5-17s0-9-2-13l-3-6-1-30c-1-23-1-31-3-34-1-4-1-6 1-8 3-3 7-14 7-19 0-7-2-14-8-33-7-22-11-27-20-34l-6-4h-10c-6 0-12 0-14 1-6 2-10 6-13 13-2 4-5 11-8 16l-4 9 1 10c0 13 1 15 9 19 5 2 8 7 10 14 1 6 0 8-8 16-9 11-11 15-12 23 0 4-1 9-2 10-3 5-9 5-21-1-7-4-7-4-12-3-4 0-6 1-9 4-3 2-3 3-3 8s0 7 3 9c2 2 4 3 7 3 4 0 6 1 9 3 3 3 4 4 7 12 1 5 3 10 4 12 9 18 10 19 24 23 10 3 13 6 13 13 0 4 0 5-5 8-6 6-5 9 3 12 4 1 5 5 5 13 0 10 2 13 13 17 5 3 11 6 14 8 2 1 8 5 11 7 4 2 9 5 11 7 4 2 5 3 7 0z"/></svg>