<svg xmlns="http://www.w3.org/2000/svg" width="1344" height="566"><path d="M0 283V0h1344v566H0V283m881 275c6-2 8-3 8-5 3-7-5-25-16-40-6-9-16-27-20-36-2-3-4-8-6-11s-9-17-16-30-15-28-17-33c-6-10-13-24-17-35s-5-21-3-33c4-29 8-43 13-54 2-3 4-7 4-8 0-2-2-4-5-7-7-6-9-10-10-25-2-29-3-34-6-46-4-12-5-14-12-17-6-2-8-5-10-14-2-10-4-13-9-17-8-7-19-7-35 2-15 7-19 10-23 16-2 2-7 8-11 12-9 9-10 12-10 25 1 6 2 9 4 15 5 11 5 11-15 26-10 7-12 10-14 14s-2 5-1 12c1 4 4 13 6 19 3 7 6 15 7 18 1 4 3 10 4 14 3 9 12 23 18 28 3 2 8 7 12 10 10 7 11 9 9 11-1 2-10-1-24-8-13-6-28-11-42-14s-18-5-28-12c-9-5-27-22-29-27-3-5-2-15 1-24 2-3 4-8 6-11 1-3 3-10 5-16 1-6 3-15 5-20 3-8 3-10 4-27 0-34-3-91-6-107-9-41-30-64-71-75-13-3-23-4-39-4-24 1-42 6-56 16-25 18-29 22-38 40-8 16-9 20-10 47-1 23-1 24-3 30-4 8-5 20-3 29 1 3 4 13 7 21l6 15-3 6c-4 7-4 13-1 24 1 4 2 9 3 10 0 1 3 8 6 14 4 9 5 13 6 19 0 6 0 7-3 11-7 10-16 20-19 21-1 0-4 2-7 5-5 4-28 16-31 16 0 0-5 2-10 5s-12 6-17 8-14 7-20 10c-6 4-16 9-22 12-20 10-24 16-29 40-2 8-4 18-6 23-4 17-7 32-8 46s-1 15-6 31c-10 30-11 33-5 35s21 3 40 2c20-2 93-2 189-1 29 1 64 1 77 0h57c58 1 183 1 188 0 3-1 10-1 52 2h30c15 0 18-1 25-3z"/></svg>