<svg xmlns="http://www.w3.org/2000/svg" width="1344" height="566"><path d="M0 283V0h1344v566H0V283m878 278h91c97 0 117 0 122-1 2 0 11-1 18-1 15-1 19-2 20-6 1-5-4-11-20-27-9-9-17-18-19-20-10-12-45-41-59-48-4-2-13-7-20-12-11-7-15-10-25-21-7-8-13-15-16-21-3-4-6-10-7-12-2-2-6-10-9-18-8-15-15-26-18-31-5-6-16-24-21-34-4-8-5-11-5-14 0-5 3-16 6-25 8-21 14-38 16-50 3-14 4-46 2-60-5-28-12-44-32-73-6-8-23-26-33-33-12-9-33-18-53-23-12-3-29-4-36-2-5 2-16 4-42 10-13 3-49 13-58 17-10 4-28 13-35 18-20 14-32 37-36 68-2 13-2 38-1 51 1 15 7 47 10 54 2 5 4 16 6 28 2 17 5 31 8 41 12 35 15 45 17 57 2 14 5 21 10 26 9 7 18 9 45 7l20-1 5 2c2 1 5 4 6 5 2 3 2 3 1 6-2 3-6 6-17 10-16 7-42 19-52 25-19 11-40 30-45 41-2 5-3 9-6 28-1 10-1 12 1 20 0 5 2 11 3 12 3 6 15 7 93 7 36 0 65 1 66 1 0 1 67 0 99-1z"/></svg>