<svg xmlns="http://www.w3.org/2000/svg" width="1344" height="566"><path d="M0 283V0h1344v566H0V283m628 276c82-2 184-2 228-1 21 1 39 2 41 1 2 0 36 0 76 1s82 1 93 0c28 0 27 0 22-15-4-9-9-16-19-28-6-6-11-13-13-15-4-7-21-22-37-35-8-6-21-17-28-24-13-12-25-22-33-28-2-2-8-6-12-10-35-27-37-28-58-28-14 0-21-2-28-7-10-7-14-13-19-27-3-8-3-10-4-23v-14l4-12c4-11 5-14 14-28 13-18 17-27 20-41 3-11 4-18 1-29-1-7-1-9 0-21 4-36 3-46-2-62-7-21-19-36-38-49-26-17-48-23-80-23-22 0-33 1-46 6-15 4-33 16-44 28-17 17-23 34-24 62-1 7-2 20-3 27-1 8-3 22-4 32 0 9-2 22-3 29-2 16-1 29 3 49 4 19 6 26 11 41 10 26 14 34 27 43 9 6 12 9 12 13 0 8-3 10-32 26-24 13-32 17-43 25-17 12-45 36-55 46-11 11-31 36-39 49-10 17-16 37-12 41 4 3 2 3 124 1z"/></svg>