<svg xmlns="http://www.w3.org/2000/svg" width="1344" height="566"><path d="M0 283V0h1344v566H0V283m203 279c8-1 31-1 51-1 35-1 38-1 40-3 6-4 18-29 21-42 1-7 5-20 7-22s3-2 8-2c3 0 8-1 11-1 2-1 13-2 23-3 19-1 40-4 49-7 9-2 18-5 26-7 5-1 11-3 13-4 3 0 7-1 8-2 3 0 9-3 17-6 2-1 5-2 6-2s5-2 9-4 10-4 12-5c14-4 24-9 26-13s-1-10-6-10c-1 0-4-1-5-2-2-1-2-2-2-5 2-8-4-8-22 1-10 5-12 5-17 5-10 0-13-3-14-15-1-7-3-9-6-6-1 1-2 2-2 3 0 2-5 16-8 21-4 8-5 9-33 12-14 1-18 1-32 0-17-1-28-3-33-7-1-1-4-5-6-9-4-6-4-8-5-20-1-7-3-17-4-23-1-5-2-12-2-14 0-6 12-33 16-35 1-1 5-1 11 0 11 0 12 0 20-9 4-4 11-12 16-17 10-10 10-11 11-20 1-5 3-16 6-26 2-6 2-10 2-18v-11l-4-7c-5-7-20-22-26-24-5-3-14-4-26-4-10 1-11 1-18 4-9 5-18 14-24 23-5 9-10 15-21 21-8 5-9 5-19 6-23 2-35 6-59 17-11 5-23 13-32 19-12 8-30 27-47 51-11 17-33 59-33 65s2 7 8 4 7-2 11 2c3 5 13 34 14 42s-1 35-2 41c-2 4-3 7-8 11-4 4-8 9-10 13s-4 6-8 9c-6 4-6 6 0 13 9 11 10 11 34 15 3 1 10 3 13 5 11 4 21 5 45 3z"/></svg>