<svg xmlns="http://www.w3.org/2000/svg" width="1344" height="566"><path d="M0 283V0h1344v566H0V283m635 277c23-1 59-1 79-2 49-1 138 0 211 1 32 1 99 1 148 1 84 0 90 0 92-1 4-2 4-5 1-14-5-16-9-23-27-41-6-6-13-14-16-18l-11-11c-4-3-10-8-14-11-14-11-27-23-36-31-15-14-32-28-45-37-2-2-9-7-14-11-19-15-22-16-43-17-13-1-14-1-19-4-7-4-13-10-16-16-1-3-3-8-4-12-1-9-1-12 3-39 2-11 5-17 13-23 11-10 21-22 27-35 6-12 8-17 9-26s1-14-3-24c-4-8-4-13-2-33 2-15 2-34 1-43-2-13-10-27-23-42-10-12-37-28-55-33-16-5-28-6-48-6-18 0-25 1-37 5-9 3-24 11-32 17-13 9-25 25-30 39-2 7-6 24-7 37-1 6-1 12-2 13 0 1-1 13-2 25 0 12-2 27-2 33-4 25-4 37-3 50 2 13 9 42 14 54 3 10 10 24 17 33 9 15 10 19 5 24-3 3-35 19-53 27-21 9-51 29-74 48-24 20-41 39-59 66-5 8-7 11-12 28-3 10-6 20-6 21 0 4 3 7 6 8 4 1 24 1 69 0m-424-2c9-1 17-2 19-2 5-1 127-2 131-1 2 1 14 1 26 2 26 0 28 0 31-6 1-3 1-15 0-26-1-4-2-14-3-22-6-64-9-87-14-103-5-17-17-43-25-54-13-19-36-36-70-52-21-11-27-14-27-17 0-1 3-7 6-14s6-12 6-13c0 0 3-5 6-11 7-11 8-15 6-24-1-8 0-14 3-17 1-1 4-6 7-12s6-11 8-12 4-4 6-7c4-7 4-16-1-31-2-6-4-13-5-15-3-10-4-17-5-39-1-28-1-28-15-54-7-15-9-18-13-20l-4-4H163C96 3 37 3 32 4 19 4 15 5 11 8l-3 3 1 13c0 16 1 23 9 53 13 53 18 72 23 102 2 12 1 19-6 33-5 9-7 12-16 21-8 8-11 12-13 17-2 3-3 6-4 6-1 1-1 43-1 148v148l3 3 3 3h29c16 0 36 0 45 1 21 1 110 0 130-1z"/></svg>