<svg xmlns="http://www.w3.org/2000/svg" width="1344" height="566"><path d="M0 283V0h1344v566H0V283m452 278h48c29 2 53 1 55-3 1-2-7-8-14-11-11-4-14-9-16-22-1-10 1-26 5-37 3-7 5-17 5-23 0-5-3-19-5-27 0-2-1-6-1-8s-1-6-2-10c-1-3-2-9-3-12 0-6-5-20-10-27-1-2-5-6-8-9-6-6-7-7-24-18-10-7-12-8-12-13-1-4-1-4 3-7 3-2 5-6 8-10 5-12 8-15 16-20 5-3 9-6 10-7 1-4 3-12 4-30 1-14 1-16 0-20-2-5-2-7-4-27-2-23-5-33-11-41-5-5-8-6-16-9-3-1-8-3-12-4-10-5-26-7-39-7-13 1-18 2-28 7-16 10-29 26-31 40v40c-1 39-2 84-4 100-2 11-4 15-14 29-7 9-15 25-17 34-2 8-4 13-8 29-2 6-5 18-6 25s-3 17-4 21c-4 25-5 57-2 69 3 8 3 8 43 9 20 0 40 1 46 0 7 0 28 0 48-1m402-1c16-1 29-1 30-1 0 1 20 1 43 2 41 1 42 1 46-1 2-1 6-2 8-2 8 0 11-2 14-7 2-4 2-6 3-27 1-24 2-48 4-80 1-11 1-37 1-58 0-45 2-38-14-72-10-23-26-52-35-64-3-4-10-12-16-18-13-14-15-17-16-27-1-9-3-12-8-12s-14-3-17-6c-4-3-8-12-9-17s2-26 5-37c5-17 9-37 9-46 0-17-10-45-19-54-4-3-16-10-22-12-9-2-19-3-27-1-17 2-30 6-42 12-9 4-22 15-25 22-3 5-3 6-3 13 0 5-1 11-3 20-2 7-3 16-3 20-1 4-2 11-3 15-2 7-4 18-6 25 0 2 1 4 3 9 2 4 5 11 7 16 8 25 14 31 32 38 4 1 9 3 11 5 4 4 8 10 8 15 0 6-6 16-18 28-7 7-9 13-10 26s-3 19-7 30c-5 11-12 31-13 38-1 4-2 10-3 14-1 3-3 12-4 18-1 7-4 24-7 38-7 37-10 52-10 60-2 11-4 27-6 32 0 3-1 8-1 10 0 3-1 10-2 15-2 12-3 18-1 20 1 0 3 1 6 1 2 0 6 1 8 1 3 1 70 0 112-1z"/></svg>