<svg xmlns="http://www.w3.org/2000/svg" width="1344" height="566"><path d="M0 283V0h1344v566H0V283m671 278c19-1 25-4 29-18 1-3 3-8 5-10 7-9 9-18 6-35-2-12-9-34-17-51-4-8-4-9-5-19 0-6-1-12-2-13-2-3-15-9-43-20-7-3-16-6-19-8-3-1-11-4-19-7-23-9-32-15-32-22 0-5 6-24 11-35 11-24 13-34 14-61 0-22 0-23-3-44-8-55-16-95-24-116-9-25-24-46-43-60-9-7-27-16-37-20-18-6-40-7-51-3-3 1-8 3-11 4-30 6-37 9-50 19-9 7-15 13-23 25-8 13-15 31-21 61-9 37-13 70-15 118-1 12-1 28-2 36-1 11-1 22 0 36 1 20 0 41-2 50-2 7-21 19-37 24-19 6-20 6-37 18-2 1-6 4-9 6-11 9-20 16-24 18-30 18-33 21-33 33 0 5-1 10-5 21-4 13-7 24-8 39-1 3-2 9-3 13-2 9-1 15 1 18 1 2 3 2 20 2h62c23-1 45-1 48-1 59 0 158 1 189 1 51 0 50 0 95 1h95z"/></svg>