<svg xmlns="http://www.w3.org/2000/svg" width="1344" height="566"><path d="M0 283V0h1344v566H0V283m246 278c50-1 50-1 55-6 1-1 4-7 7-13 4-8 6-13 7-19 3-13 8-30 10-32s3-2 11-3c9 0 54-3 62-4 6 0 24-4 30-5 5-2 20-5 30-7 4-1 10-3 13-4s7-3 9-3c4-1 7-2 20-6 2-1 7-3 9-3 10-3 18-8 24-14 4-4 6-7 6-9 0-3-3-5-6-5-5 0-6-2-5-6 0-2 0-3-1-4-3-2-4-2-8 0-2 1-5 2-7 2-3 0-7 2-11 4s-9 3-14 3c-6 0-7 0-9-2-3-2-3-4-3-8 0-5-2-11-4-11-3 0-6 4-9 13-8 18-10 19-24 21-19 2-61 0-74-3-6-2-10-4-13-9-3-6-8-18-8-25-2-9-5-25-7-31-2-5-2-7-1-10 1-5 10-22 13-26 2-3 4-4 13-2s13 0 24-11l15-15 6-5 2-9c3-14 7-26 11-33 3-4 3-6 3-9 0-12-12-31-26-43-10-8-13-9-26-10-10 0-12 0-17 2-15 5-19 9-32 27-6 9-7 10-11 10-1 0-6 3-11 6-10 5-11 5-22 7-13 1-29 5-38 9-4 1-12 5-20 9-39 20-48 27-83 75-3 5-18 32-24 45-13 25-17 40-12 46 2 3 5 2 7-1 0-1 2-6 4-10 3-7 4-7 8-9 5-2 6-2 11 0 6 3 8 9 11 29 1 10 1 12 0 28-2 21-4 28-8 34-5 7-6 9-7 15s-5 11-10 13c-6 2-5 6 4 15 8 8 9 9 21 9 5 0 14 1 20 2 14 3 17 3 28 2 5 0 31 0 57-1z"/></svg>