<svg xmlns="http://www.w3.org/2000/svg" width="1344" height="566"><path d="M0 283V0h1344v566H0V283m489 75c2-1 5-3 7-4 3-3 21-15 23-16 4-1 7 1 9 5s3 5 9 5c4 0 9 2 12 3 5 2 7 2 23 3 10 0 21 0 27-1 10-1 11-1 15-5 8-8 10-8 20-9 12-1 12-1 9-11-2-7-5-20-7-30-1-3-2-9-2-12-1-4-2-10-2-14 0-11-8-22-22-30-3-2-8-5-12-8-7-5-13-7-26-10-17-4-19-6-27-20-7-12-8-18-10-34-1-15-2-17-7-21s-6-6-5-10c2-9 5-26 5-33 0-9-2-14-7-21-9-11-30-13-41-4-7 4-10 11-12 23 0 5-2 11-3 13-3 6-11 11-19 13-5 0-18 7-24 12-4 4-5 6-7 13-4 11-3 15 1 44 3 25 3 32-3 46-6 11-6 10-4 39 0 11 0 12 3 15 1 2 3 5 4 9 0 3 2 8 4 12 2 3 4 8 4 11 0 5 1 5 4 6 2 1 4 2 5 4s3 5 5 8c4 4 4 5 11 6 3 1 10 1 15 2 4 0 10 1 12 1 7 2 8 2 13 0z"/></svg>