<svg xmlns="http://www.w3.org/2000/svg" width="1344" height="566"><path d="M0 283V0h1344v566H0V283m250 277c22 0 53 0 69-1h57c5 0 12 0 14 1 6 1 63 1 150 0 25-1 50-1 55-1s22 0 38 1c16 0 53 1 83 1l54-1 2-2c3-3 4-7 2-12-1-1-2-9-4-16-1-7-2-16-3-18 0-2-1-7-1-9 0-15-7-21-44-38-6-3-22-10-34-16-24-12-35-17-49-24-5-2-10-5-11-6-1-3-1-3 3-14s9-24 16-40c6-13 14-38 18-52 2-11 2-13 2-36 0-25-1-49-5-71-1-7-2-16-2-21-2-18-13-65-21-84-7-16-20-36-31-46-12-11-33-26-46-32-31-14-54-18-75-13-12 3-23 7-30 10-5 3-16 6-23 7-7 2-19 9-28 16-23 22-37 52-53 116-4 15-8 34-10 43-1 8-2 15-3 15 0 0-1 9-3 20-2 10-5 25-7 33-3 15-7 34-7 44-1 4-2 14-3 22-1 15-1 34 1 62 1 17-1 19-20 28l-14 7c-6 4-36 21-53 29-26 13-28 15-36 34-4 7-9 17-12 21-12 19-19 32-19 37 0 2 1 4 2 5 2 1 4 2 18 2h19c2 0 22 0 44-1z"/></svg>