<svg xmlns="http://www.w3.org/2000/svg" width="1344" height="566"><path d="M0 283V0h1344v566H0V283m720 277c16-1 47-1 67-2 42 0 44 0 52-6s12-11 17-22c5-10 5-12 7-22 1-12 2-16 6-16 3 0 10 5 15 10s6 6 11 7c3 1 10 3 16 5 12 4 24 5 35 5 10-1 12 0 14 6 1 6 2 6 24 7 18 0 20-1 29-3 4-1 11-2 14-3 7 0 11-3 13-9 2-5 1-9-5-20-6-10-11-16-17-19-5-3-8-9-9-19s-3-16-8-22c-2-3-18-15-26-20-6-4-12-9-20-19-4-5-11-13-16-18-12-13-20-27-24-42-2-7-2-12-2-25 0-26-1-30-17-50-10-14-11-15-34-23-16-6-19-7-24-11s-5-6-2-11c2-3 3-5 3-20 0-14 0-18 2-23 6-20 6-15 1-48-1-7-2-17-3-21 0-5-2-12-3-17-2-5-4-13-6-18-2-6-4-12-5-14-7-11-23-22-43-28-31-11-49-9-69 5-12 9-25 25-33 42-12 23-27 67-33 100-6 28-9 37-14 44-4 7-8 11-24 19-9 3-17 8-20 10-4 3-5 5-9 24-2 7-5 15-12 30-26 54-27 56-33 81-6 24-12 58-14 83-1 15-1 39 0 44 2 6 6 10 17 16 12 6 22 9 37 10 11 1 14 2 18 8 3 6 7 10 10 11 5 3 6 3 81 5 3 0 19 0 36-1z"/></svg>