<svg xmlns="http://www.w3.org/2000/svg" width="1344" height="566"><path d="M0 283V0h1344v566H0V283m944 275c4-1 8-2 10-2 6 0 9-3 9-11 0-10-5-31-15-69-4-16-6-21-8-32-3-9-13-35-21-54-9-20-13-31-18-46-6-15-8-20-14-29-1-3-5-10-8-16-6-13-15-29-22-39-3-4-7-9-8-12-1-2-3-4-4-6-1-1-4-3-5-5-6-9-27-24-42-32-9-5-17-10-19-13s-1-5 3-20c8-25 11-72 6-90-3-10-6-16-14-23-11-10-27-17-47-19-16-2-31 2-44 13-8 6-12 13-14 25-1 8-1 28 0 52 1 15 1 18 4 26 4 12 4 14-4 22-7 8-10 9-26 13-7 2-17 4-22 5-23 6-63 30-80 46-8 9-13 16-34 48-22 31-24 36-31 60-3 8-5 13-9 19-2 2-3 5-3 5 0 3-9 16-14 22-11 11-13 15-41 63-7 12-24 50-24 53 0 7 9 15 25 24 5 2 9 5 10 6s12 7 23 12c7 4 22 4 91 4 67-1 332-1 358-1 9 1 15 1 16 1 1 2 30 1 36 0z"/></svg>