<svg xmlns="http://www.w3.org/2000/svg" width="1344" height="566"><path d="M0 283V0h1344v566H0V283m706 277c12 0 16-2 18-5 2-4 1-14-2-25-2-5-3-15-4-21-1-7-2-15-3-20-4-12-11-32-15-39-3-6-3-9-4-18-1-11-1-13-5-17-3-2-55-25-81-36-21-7-39-16-42-20-4-4-4-6-1-19 2-11 13-41 17-52 4-9 6-17 7-36 0-14-2-35-4-47-1-4-2-9-2-13-1-4-2-10-3-14s-2-8-2-9-2-7-4-14-6-19-9-28c-16-50-39-75-87-97-18-8-22-9-40-10-20 0-29 1-37 5-3 2-8 5-11 6-8 4-29 17-36 22-13 10-26 30-33 58-6 18-14 64-17 90-1 6-2 13-2 17 0 3-2 12-2 21-1 9-3 20-3 25-5 29-6 68-3 82 1 3 4 10 7 16 4 8 5 12 5 13-1 3-7 6-17 10-23 8-27 10-39 19-22 16-33 23-44 29-14 8-19 13-19 24 0 4-2 9-9 25-7 17-14 48-14 66 0 6 0 7 3 10l2 3h56c30-1 61-1 68-2 8-1 13-1 16 0 2 0 18 1 35 1 18 0 71 1 119 1 97 1 229 0 241-1z"/></svg>