<svg xmlns="http://www.w3.org/2000/svg" width="1344" height="566"><path d="M0 283V0h1344v566H0V283m281 276c3-1 5-1 12 0 8 1 33 1 115 1 59 0 107 0 111-1h24c26 2 133 2 139 0 7-2 7-3 6-29 0-12 0-24-1-26 0-1-2-5-4-8-5-6-6-9-10-21-2-6-6-15-8-19-4-8-4-9-4-16 0-16-2-18-59-40-20-8-43-20-46-24s-1-10 16-62c9-25 10-44 7-85-2-16-3-29-4-30 0-1-1-12-1-25-5-67-12-86-40-110-29-23-43-32-67-37-14-3-29-3-43 2-5 1-14 4-20 5-15 3-21 6-31 12-28 19-47 51-55 94-6 26-14 81-16 110-1 7-2 17-3 23-4 21-6 43-7 72-1 21-1 23-3 27-4 6-8 9-22 15-27 11-33 14-48 26-15 11-17 13-31 20-19 12-25 18-26 29-1 2-2 6-3 8s-5 9-8 16c-9 17-15 39-16 56 0 11 1 15 6 18 4 2 136 1 140-1z"/></svg>