<svg xmlns="http://www.w3.org/2000/svg" width="1344" height="566"><path d="M0 283V0h1344v566H0V283m358 278c36-1 70-1 76-1 15 1 40 1 120 0 45 0 60 0 70 1 14 2 92 2 98 0 4-2 6-5 6-15 1-7 1-9 4-12 3-5 3-4-5-15-2-3-5-7-6-9-2-3-2-3-6-3-7 0-16-3-20-7-2-1-6-4-10-5-12-4-19-7-27-12-5-3-10-5-12-6-1-1-8-4-15-8s-17-9-23-11c-22-9-31-17-31-25 0-7 2-14 5-20 2-3 4-7 4-8s1-4 1-5c2-2 27-16 30-16 2 0 6-1 9-3 4-2 10-5 14-6 7-4 14-10 17-15s4-15 3-22c0-7 2-35 5-54 1-8 1-19 1-31 0-16 0-21-2-35-3-16-3-18-3-50-1-30-1-36-3-48-5-36-12-48-31-60-9-6-41-22-57-29-26-11-54-18-73-18-6 0-17 1-24 2-14 2-15 3-47 18-7 4-19 9-25 12-17 7-20 8-25 15-7 7-9 12-13 24-8 20-20 60-21 68-1 4-2 15-4 24s-4 24-5 34c-1 9-2 17-3 18 0 2-3 22-4 37-1 7-2 17-3 22-2 18-3 34-4 53-1 22-3 37-6 51-1 4-2 12-3 17s-3 15-5 23c-9 39-10 41-22 54-5 5-11 12-14 15-10 13-25 26-33 32-11 7-16 13-17 17-2 7 0 9 9 11 5 2 26 3 46 2 11 0 49-1 84-1z"/></svg>