<svg xmlns="http://www.w3.org/2000/svg" width="1344" height="566"><path d="M0 283V0h1344v566H0V283m868 276c17-1 62-1 101-1h70l2-2c3-3 3-9 1-18-3-10-13-41-15-48-2-4-4-10-5-15-6-25-7-25-14-47-10-27-16-39-23-46-7-6-37-14-101-26-26-5-37-10-63-25-7-3-15-8-19-10-17-10-18-12-18-32 0-14 0-15 2-20 5-8 8-12 15-17 8-5 13-11 14-16 1-2 1-8 1-13 0-17-3-28-20-76-4-11-12-27-18-36-7-10-21-29-27-36-8-10-21-18-34-22-8-2-25-2-39 0-9 1-11 1-20-2-15-3-24-3-35 3-12 6-18 12-27 29-6 14-12 29-18 52-5 17-6 26-9 44-1 12-1 14 0 23 1 6 2 15 3 21 1 13 4 24 6 30 3 5 7 8 17 14 14 9 31 26 36 36 6 10 12 37 11 43-1 9-10 21-29 41-17 18-28 24-53 35-6 2-14 7-28 17-25 17-35 25-45 35-12 13-14 18-17 44-2 18-3 30-1 34s3 5 8 6c11 3 327 3 391 1z"/></svg>