<svg xmlns="http://www.w3.org/2000/svg" width="1344" height="566"><path d="M0 283V0h1344v566H0V283m474 276c7-1 118-2 186-1 31 1 80 1 111 1 85-1 121-1 151 0s32 1 45-6c9-4 14-8 17-15 4-8 5-15 5-32 0-28-5-40-26-59-9-9-15-12-29-17-4-2-11-5-14-6-3-2-8-5-11-6-4-3-8-6-25-20-19-15-25-20-32-25-14-9-36-33-41-42-2-7-4-16-4-26v-7l7-8c20-21 24-26 24-35 0-3-1-8-2-10-1-5-1-17 0-25 3-8 2-20 0-26-6-19-22-30-58-42-4-1-11-2-15-3-8 0-9 0-13 2-11 7-19 10-26 13-4 1-9 2-10 3-1 0-6 2-12 3-13 3-14 2-17-15-1-4-1-8-2-10s-1-6-1-9c0-14-6-42-13-57-11-26-26-39-53-48-13-5-33-8-46-8-23 0-46 7-66 19-8 6-21 18-27 26-16 21-19 39-15 76l1 15-2 7c-4 11-3 23 1 33 5 14 17 31 24 37 9 7 19 22 21 31 2 11 4 25 3 30-2 12-14 30-30 47-6 6-26 20-40 28-3 2-8 5-10 7s-8 6-13 8c-7 4-10 6-18 15-9 9-13 12-20 16-11 7-14 10-17 18-3 6-3 7-3 24 0 22 1 33 7 59 0 5 2 12 2 16 2 18 3 20 5 22s3 3 37 3c41 1 56 0 64-1z"/></svg>