<svg xmlns="http://www.w3.org/2000/svg" width="1344" height="566"><path d="M0 283V0h1344v566H0V283m433 277c31 0 51-1 55-2 3-1 6-2 8-4 2-3 2-4 2-14-1-7-2-15-2-19-1-6-1-7 1-11 1-2 5-7 10-11 6-5 10-11 13-15 7-12 12-18 29-35 17-18 20-20 35-28 10-6 14-9 12-11-1-2-18-11-27-14-3-1-7-3-9-4-2-2-7-5-10-7-6-3-10-7-18-15-9-9-11-13-17-24-11-20-15-28-16-32 0-4 0-4 4-8 2-2 6-4 8-5s8-3 12-5c8-2 9-3 23-17 16-16 18-18 19-31 1-5 2-11 3-14 2-6 5-30 5-44 1-10-2-16-8-23-10-10-26-19-44-23-9-3-11-3-16-2-12 2-28 14-33 24-4 7-7 16-9 30-1 14-5 31-8 37-1 3-5 8-8 13-4 4-8 10-11 13-4 6-20 19-34 29-15 10-25 20-29 30-2 4-4 10-5 12s-2 10-4 17c-3 18-16 56-22 68-4 8-11 17-19 24-5 5-12 13-18 23-12 16-19 23-30 35-6 6-7 8-8 12-2 7-1 17 2 23 4 7 14 15 25 21 2 1 5 3 7 5l3 4h40c22-1 62-1 89-2z"/></svg>