<svg xmlns="http://www.w3.org/2000/svg" width="1344" height="566"><path d="M0 283V0h1344v566H0V283m670 275c27-1 64-1 96-1 66 1 273 1 292 0 9 0 22 0 31 1 19 1 39 2 64 1 20 0 23-1 25-6 1-3-2-13-8-24-2-4-8-15-12-23-12-26-17-33-30-46-11-12-23-22-33-29-6-4-30-16-38-19-16-6-35-15-57-26-14-7-31-15-37-17s-14-5-17-7c-9-5-24-16-30-22-10-9-11-12-8-28 2-10 5-22 8-28 3-4 8-9 15-12 11-5 25-20 31-33 4-7 6-21 6-26-1-2-3-5-6-8-4-4-5-6-5-8s2-13 4-24c7-37 8-46 8-62-1-15-3-22-11-39-4-8-5-10-17-22-9-9-15-14-19-17-38-21-41-22-54-22-31 2-38 3-46 4-10 2-14 4-30 11-13 7-22 12-25 16-1 1-4 5-6 8-5 8-11 18-14 26-5 15-10 42-14 72 0 8-3 11-10 15-7 3-12 8-13 14-1 3-1 9-1 17 1 17 3 23 14 41 6 9 9 20 12 37 2 13 4 39 3 50l-1 8-7 7c-7 7-28 23-38 29-8 5-13 8-25 11-9 3-27 10-46 18-5 2-17 7-26 11-43 18-60 27-77 43-25 25-45 57-52 82-4 15-4 23-1 26 2 2 3 2 60 1 33 0 64 0 73 1 8 0 18 1 22 0 3 0 26 0 50-1z"/></svg>