<svg xmlns="http://www.w3.org/2000/svg" width="1344" height="566"><path d="M0 283V0h1344v566H0V283m1131 276c4 0 4-4-1-13-7-14-13-20-35-31-8-5-13-13-17-27-2-7-8-18-11-21-5-6-16-15-23-19-5-3-19-8-28-10-7-2-18-9-32-22-11-10-15-13-24-18-8-3-14-7-18-12-10-8-39-39-41-42 0-1-1-5-2-10-2-11-3-15-12-31-4-8-8-16-9-19s-2-7-3-9c-2-3-2-5-2-8 1-6 9-30 12-35 3-7 4-18 4-45 0-25-1-40-4-59-4-19-8-28-19-39-8-9-13-11-38-21-20-8-29-10-40-10-5 0-11 1-13 1-2 1-5 1-7 0-4 0-11 3-29 15-20 13-27 22-35 39-5 10-16 47-22 75-3 12-9 31-12 40-8 22-25 54-38 71-5 6-10 15-13 20-3 7-6 11-14 20-6 6-14 15-18 21-5 6-12 14-15 19-4 5-15 17-23 28-39 50-39 50-47 81-7 27-10 43-11 55 0 11 0 11 2 13s4 3 8 3c9 2 299 0 306-1 3-1 7-2 9-2 6-3 13-5 23-6 8-1 13-2 17-3 5-2 8-3 18-3 16 0 21 0 41 6 22 7 24 7 104 7 40 1 63 1 71 2 11 2 35 2 41 0z"/></svg>