<svg xmlns="http://www.w3.org/2000/svg" width="1344" height="566"><path d="M0 283V0h1344v566H0V283m733 278h23c23 1 82 1 95-1 11-1 14-3 17-8 3-7 4-13 4-28-1-17-3-25-15-61-5-15-9-29-9-31-1-3-2-10-4-15s-4-13-4-17c-1-4-4-15-7-24-8-26-13-46-15-61 0-7-3-16-6-19-1-1-10-6-18-10-14-7-18-10-23-15-10-9-11-12-12-24 0-7 0-11 1-15 2-5 2-6-5-21-4-10-5-17-3-27 4-15 1-34-6-50-6-12-18-21-34-27-14-4-32-3-58 4-16 4-25 9-30 15-9 10-10 23-5 40 1 3 1 9 1 14 0 15-3 22-14 29-4 3-13 10-17 13s-8 14-9 27c-1 14-4 22-10 35-4 9-6 11-9 13s-5 5-7 10c-3 5-7 13-11 19-4 7-7 14-8 16-3 6-6 22-7 35-1 7-1 14-2 15-1 2 2 16 5 21s5 7 12 8c11 2 22 0 44-10 6-3 11-5 12-4 1 0 3 2 4 3 1 3 1 9 2 73 0 78 0 75 7 77 2 1 13 2 26 2 26 1 90 0 95-1z"/></svg>