<svg xmlns="http://www.w3.org/2000/svg" width="1344" height="566"><path d="M0 283V0h1344v566H0V283m821 274h101c88 2 174 2 177 0 4-2 4-5-1-14-5-10-12-20-27-37-19-21-39-37-79-59-9-6-24-15-31-20-14-11-20-14-36-21-12-5-21-12-29-21-9-11-23-24-29-27-2-2-9-4-14-5-15-3-17-5-18-13-1-9 2-12 15-25 22-20 31-36 31-55 0-7-2-10-7-14-6-4-7-6-7-10 0-3 4-24 6-36 8-33 9-72 3-93-3-10-5-16-6-23 0-2-1-7-2-10-2-7-14-29-18-34-10-12-23-18-49-25-12-3-13-3-30-3-13 0-18 0-23 2-3 1-9 2-13 3-12 1-24 6-36 14-2 1-11 6-21 11-9 5-20 11-23 14-3 2-7 6-10 8-7 5-18 21-26 37-9 16-17 55-20 100-1 19-1 78 1 92 4 28 16 65 27 82 11 16 13 24 5 31-3 3-20 12-39 20-6 3-11 5-12 5s-28 12-35 16c-30 16-48 29-67 48-9 10-12 14-21 29-10 17-14 27-13 29 3 4 3 5 59 4 28 0 56 0 61 1 11 1 191 0 256-1z"/></svg>