<svg xmlns="http://www.w3.org/2000/svg" width="1344" height="566"><path d="M0 283V0h1344v566H0V283m931 109c3-2 5-5 7-14 0-5 2-10 3-12 1-3 2-8 3-14 0-4 2-15 4-22 5-20 4-27-4-45-3-8-6-13-10-17-11-12-16-21-18-36-1-4-3-10-3-13-1-3-2-9-2-13-1-4-2-10-3-12 0-3-1-7-1-8 0-4-5-17-10-22-5-7-13-13-21-16-7-2-9-2-21 0-2 0-6 1-8 1-8 2-19 14-20 23-1 3-2 7-3 9s-1 7-1 19v16l-3 2c-4 3-12 10-12 12-1 1-2 5-2 10-1 4-3 10-5 15-2 3-5 10-6 14-5 12-9 19-15 26-8 7-9 10-11 19-2 8-2 16 0 27 2 12 3 14 15 16 6 2 12 4 16 6 5 3 18 6 53 14 5 1 12 3 16 4 11 3 22 6 32 8 20 4 26 5 30 3z"/></svg>