<svg xmlns="http://www.w3.org/2000/svg" width="1344" height="566"><path d="M0 283V0h1344v566H0V283m768 278h24c7 1 16 1 24 0h140c119 1 132 1 136-1 5-2 6-5 5-13-1-6-7-30-14-53-6-23-10-39-13-50-1-6-3-13-3-15-1-2-4-12-7-21-6-19-15-37-22-45-6-7-13-11-36-20-30-12-53-20-70-24s-25-9-50-33c-7-7-18-18-24-23-7-7-10-10-11-13-1-4-1-36 0-42 0-2 2-7 4-10 11-17 14-28 14-44 0-12-1-17-7-35-3-9-6-21-8-28-9-29-19-50-31-66-8-12-10-14-17-18-5-2-6-2-28-3-29-1-86-1-121 0-25 1-29 1-33 3-6 2-11 8-20 21-12 18-19 37-21 52 0 9 3 49 5 60 0 3 3 12 5 19 1 7 5 20 7 29 5 23 9 38 14 47 2 4 8 16 13 27 6 10 12 22 14 27 4 9 7 16 15 27 3 6 4 10 2 15-2 3-20 18-28 22-3 2-14 9-24 15s-21 13-25 15c-9 6-9 7-9 19 0 11-2 19-9 43-2 9-6 23-8 32-3 19-6 24-18 39-10 13-16 22-16 25 0 4 3 11 6 12 2 1 11 2 27 2 14 0 33 2 42 2 10 1 33 3 52 3 18 1 36 1 40 2 8 1 66 0 84-1z"/></svg>