<svg xmlns="http://www.w3.org/2000/svg" width="1344" height="566"><path d="M0 283V0h1344v566H0V283m874 279h128c73 0 102 0 107-3 3-1 3-6 0-14-2-4-4-11-5-16-3-9-9-21-13-27-6-8-12-24-14-37-1-9-1-19 6-59 9-60 9-75 2-79-3-2-5-1-9 2-5 6-9 3-12-10-2-9-4-13-7-15-5-4-9-2-13 7-2 4-5 6-7 4-1-1-3-4-5-7-3-5-5-7-9-7s-7 3-11 10c-2 3-4 6-4 7-1 0-3 0-6 1-10 0-16 8-19 25-4 18-4 18-20 12-23-9-37-14-43-17-3-1-10-4-15-6-11-5-17-8-18-11 0-2 1-9 2-17 5-27 6-30 5-61 0-39-1-48-13-71-11-22-20-30-53-48-20-10-33-14-58-15-14 0-15 0-23 2-8 3-25 12-37 19-11 8-23 21-31 34-3 6-10 23-11 31s-3 16-8 33c-5 15-5 17-4 24 0 5 0 9-2 15-2 9-1 25 1 36 3 8 2 9-1 13-4 6-9 8-48 21-50 16-51 17-55 13-3-2-4-6-5-25-2-26-6-31-16-20-6 7-8 5-13-8-3-8-5-13-9-14-4-2-7 0-11 7-4 8-6 9-12 4-4-4-7-5-10-3s-5 5-6 14c-2 9-4 13-7 15-2 2-3 2-7 1-10-3-14 0-15 8-1 6 0 21 3 31 1 4 3 12 4 19 1 6 3 12 3 14 1 3 2 7 3 10 0 4 2 10 3 14s3 12 5 16c4 15 6 30 6 35-4 27-14 58-25 75-3 5-5 9-5 10s1 3 2 3c4 3 25 4 35 3h24c9 1 18 1 20 0 3 0 59-1 85-1 25 0 111 2 117 3h154z"/></svg>