<svg xmlns="http://www.w3.org/2000/svg" width="1344" height="566"><path d="M0 283V0h1344v566H0V283m416 278c19-1 21-2 24-7 1-4 4-23 4-30 0-4 1-6 2-7 2-2 2-2 9 1 6 2 20 5 26 5 5 0 10-6 15-17s5-14 2-17c-3-2-11-11-12-13-1 0-1-3 0-6 1-5 1-5-2-8-4-4-9-7-14-7-2 0-8 1-12 2-5 1-10 2-10 1-3-1-5-8-5-17s1-16 7-39c2-9 2-12 2-24 0-14 0-15-3-25-5-12-13-30-19-38-3-3-10-11-16-17-7-6-12-11-13-13 0-2 1-5 6-16 7-12 8-13 13-17 3-2 6-5 7-6 2-3 3-10 5-24 1-11 1-15 0-23 0-5-1-15-2-22-1-25-5-33-22-43-10-6-14-7-29-10s-20-2-34 3c-15 5-22 13-28 28-3 9-6 29-7 49-1 9-1 19-2 23-1 5-1 40-1 65 0 4 0 6-5 13-5 9-9 19-12 28 0 3-2 9-3 13-4 15-6 26-7 40-1 15-2 28-4 41-1 5-1 10 0 15 0 4 1 12 2 16 0 5 2 15 3 21 3 11 3 13 4 37 1 20 1 25 2 28 3 6 5 8 10 10 3 1 7 3 9 5 5 2 8 2 26 3 22 1 58 0 84-1m921 0c6-3 5 3 5-140V290l-2-5-2-6c0-2-12-23-17-28-2-3-11-12-19-21-9-8-18-18-22-22-5-5-8-8-13-10-4-2-9-4-10-4-4 0-9-5-12-10-1-2-3-7-4-12-3-10-3-31-1-42 2-5 2-10 2-26V86l-3-6c-1-3-4-9-5-12-3-8-9-17-14-23-11-13-41-13-74-1-7 2-16 13-24 27-2 5-2 6-2 25-1 42 3 65 19 97 2 4 6 7 14 10s10 5 10 11c0 7-4 14-16 26-17 19-17 18-21 36-1 4-4 14-7 23-2 7-5 15-6 22-1 3-3 9-4 13-1 3-3 11-3 16-1 6-2 14-2 18-1 4-2 17-3 29-1 21-2 33-4 38-2 4-13 19-19 24-6 6-17 13-19 13s-11-3-25-8c-23-9-26-9-26-1 0 4 1 5 6 11 6 5 6 6 6 11 0 6-1 7-9 13-17 10-18 15-7 19 4 2 6 5 8 12 1 2 2 4 2 5 1 0 4-1 6-2s5-2 6-2c4 0 9 4 11 8 1 2 3 4 3 4 1 1 9 2 19 2 10 1 18 3 20 4 2 0 4 3 5 5s3 4 4 4c5 3 23 3 125 4 61 0 112 0 112 1 1 1 9 0 12-1m-658-3h84c86 2 117 2 120 0 2 0 4-2 5-4 2-3 2-9 1-70-1-37 2-95 6-138 1-11 1-28 1-40 0-18 0-20-2-30-2-6-4-13-5-14 0-2-2-7-4-10-1-4-5-12-8-17-4-5-9-15-13-21-6-14-11-21-19-30-9-9-11-13-12-20-1-3-1-6-2-7 0-3-5-5-11-5-7-1-12-6-16-14-3-6-4-7-4-20 0-8 0-17 1-21 4-22 4-27 4-36-1-9-1-10-5-18-4-9-11-16-18-19-3-1-9-3-12-5-4-2-10-4-12-4-7-1-22 1-28 3-11 4-23 12-32 20-10 11-12 15-12 31 0 5-1 13-2 17-1 7-1 8 1 17 1 5 3 12 4 17 3 18 5 26 10 35 2 5 7 13 9 18 3 5 6 11 8 13 6 5 5 10-1 16-3 4-6 12-7 22-2 13-2 15-13 44-2 6-6 21-7 33-1 5-2 14-4 21-1 6-3 13-3 17-2 9-9 40-11 51-6 30-9 44-11 56-6 33-10 54-11 60 0 4-2 14-4 24-4 21-4 25-1 28 2 2 3 2 9 2 4-1 16-1 27-2z"/></svg>