<svg xmlns="http://www.w3.org/2000/svg" width="1344" height="566"><path d="M0 283V0h1344v566H0V283m598 277c26-1 45-1 62 0 21 1 80 1 145 1 11 0 36 0 56-1 59-2 122-2 167-1 44 1 49 1 51-3 4-7-4-19-20-33-8-7-35-25-51-35-12-7-38-20-48-25-10-4-14-7-24-18-9-9-14-17-14-21 0-7 16-52 29-82 3-6 7-15 10-21 5-12 10-21 14-26 1-2 6-5 12-8 13-6 17-9 26-21 8-12 13-20 17-35 6-17 5-27-3-33s-9-8-9-12c0-3 1-9 2-14 12-58 16-98 12-120-3-13-8-29-12-36-7-12-11-12-105-12H804c-39 1-52 2-57 6-6 4-17 31-22 54-1 5-3 15-4 23-2 19-5 40-6 46-2 6-6 9-13 12-12 5-16 14-15 35 0 17 2 28 10 44 4 8 7 12 14 19 11 12 11 11 10 40-1 22-3 36-7 53-4 15-15 34-22 38-2 1-12 1-29 1h-26l-6 6c-3 3-11 13-17 22-7 9-16 20-20 25-6 7-9 9-19 14-6 4-15 8-19 11-15 10-20 13-28 17-5 3-12 7-16 10-3 2-10 6-15 8-24 12-48 31-67 54-14 16-11 17 30 19 24 1 85 0 138-1z"/></svg>