<svg xmlns="http://www.w3.org/2000/svg" width="1344" height="566"><path d="M0 283V0h1344v566H0V283m265 277c36 0 33 1 44-18 3-6 5-11 6-17 4-14 8-31 10-35 1-1 3-2 12-2 51-3 65-4 69-5 3-1 9-2 13-2 4-1 12-3 17-4 5-2 13-4 18-5 5 0 13-2 17-4s10-4 13-4l12-4c4-2 10-4 12-5 3 0 9-2 12-4 4-2 8-4 10-4 1-1 4-3 6-6 3-3 4-5 4-7 0-4-3-7-7-7-2 0-4-2-4-5 0-2-1-4-1-5-2-1-5-1-8 0-1 1-4 2-7 2-3 1-9 3-14 5-11 4-15 4-19 0-3-3-4-4-5-13 0-6-2-9-4-9-2 1-6 10-11 21-4 9-8 13-14 15s-57 2-70 0c-16-2-20-4-25-14-5-9-7-16-9-27-1-11-4-24-6-27s-1-7 3-17c8-18 11-22 17-21 11 2 15 2 18 0 2-1 10-8 18-15 14-14 15-15 15-19 2-11 8-29 13-36 3-4 3-5 3-11-1-17-24-46-40-51-3 0-9-1-14-1-19 0-33 8-45 25-5 9-10 14-13 14-1 0-6 2-11 5-10 6-13 7-24 7-16 2-30 6-52 16-39 19-50 29-78 66-7 8-12 17-17 26-3 5-6 10-7 11-11 19-18 35-24 51-6 18-6 18-2 22 2 2 4 4 6 4 4 0 5-1 7-8 3-10 6-17 8-19 2-3 10-3 14-1 4 1 5 3 7 8 3 5 3 6 3 27-1 20-1 21-3 23-2 3-2 4-2 13 0 6-1 10-2 13-1 2-3 6-4 10-2 4-3 8-3 10-1 5-5 10-10 11-6 2-7 3-4 8 4 6 12 14 15 16 2 1 6 1 13 1 6 0 15 1 21 2 8 2 13 2 42 1 18 0 45 0 61-1z"/></svg>