<svg xmlns="http://www.w3.org/2000/svg" width="1344" height="566"><path d="M0 283V0h1344v566H0V283m791 278c18-1 63-1 146 0 12 0 37 0 57 1 20 0 50 1 68 0h32l3-2c4-4 4-10 0-21-2-5-4-10-4-11 0-9 12-37 23-56 9-15 17-34 20-41 1-4 2-10 2-14 0-5 0-6-3-8-2-2-6-2-10 0-3 0-8-5-11-12-6-11-10-12-20-6-7 5-12 5-18 1-7-6-12-5-23 5l-6 6h-9c-9 0-10 0-12-2-3-3-6-10-10-22-5-14-9-22-19-37-6-9-9-13-13-15-6-4-28-15-46-22-20-9-32-16-35-21-2-3-2-5-2-14 0-6 1-15 2-20 2-12 2-48 0-61-2-16-8-33-14-43-10-15-30-32-56-45-19-10-28-12-56-13-15-1-23 0-35 4-13 5-34 18-43 27-16 14-26 35-26 52 0 8-4 20-12 37l-7 14v27c0 30 0 32-6 36-2 2-11 6-23 9-45 15-62 24-78 39-5 5-8 12-12 28-5 18-11 36-14 41-4 10-6 12-14 14-5 2-7 3-13 9-3 3-6 6-7 6s-3-2-5-4c-6-10-12-15-17-14l-7 7c-3 3-6 6-7 6s-4-1-7-2-6-2-8-2c-4 0-8 4-8 9-2 13-5 15-18 16-8 0-9 1-11 3s-2 4-2 10c1 6 1 8 9 21 4 9 10 19 13 23 3 5 7 11 8 13 13 18 26 32 36 37 11 5 14 5 191 5 44 0 59 0 62 1 6 3 30 3 75 1z"/></svg>