<svg xmlns="http://www.w3.org/2000/svg" width="1344" height="566"><path d="M0 283V0h1344v566H0V283m801 277c8-1 12-5 18-21 2-4 5-11 6-13 2-5 2-7 2-18v-12l4-9c2-5 6-12 7-15 12-19 20-32 27-46 5-11 10-19 16-27 16-21 17-25 12-36-1-3-4-10-5-13-2-13-8-20-13-18-4 1-12 18-12 23 0 7-5 13-11 16-9 5-16 3-15-3 1-5 7-16 13-25 5-7 5-8 5-14 0-9-3-13-10-14-5-1-16 0-22 2s-7-4-1-11c6-8 11-17 13-28 2-6 2-7 1-10-2-5-7-8-13-8s-9 2-12 8-20 28-25 32c-6 5-10 6-16 6-3-1-8-1-11-2h-6l-5 5c-5 5-17 24-20 33-3 7-8 23-12 41-6 22-10 35-14 43l-14 28c-10 23-16 32-25 45-4 6-5 7-8 7s-5-1-11-7c-3-4-9-10-12-12-6-5-8-9-11-22-1-5-3-10-7-18-7-14-10-17-20-23-21-12-21-12-16-19 4-5 5-8 11-27 3-9 7-21 9-28 8-19 12-34 14-46 5-38 3-78-7-138-3-17-6-31-12-49-10-27-18-42-37-60-18-18-30-25-48-31-13-3-29-4-45-1-6 1-15 3-19 3-15 2-24 5-44 16-11 6-19 13-27 25-6 9-17 31-19 38-1 4-4 12-6 18s-5 18-7 27-4 21-6 28c-11 54-15 76-17 104-1 9-1 21-1 26v40l1 30-4 8c-3 7-9 18-16 28-6 9-17 26-22 36-9 18-26 60-26 65 0 1-1 6-3 10-4 10-3 11 4 14 2 2 7 6 11 9 11 12-4 10 133 10h149c37-2 162-1 192 1 15 1 59 0 65-1z"/></svg>