<svg xmlns="http://www.w3.org/2000/svg" width="1344" height="566"><path d="M0 283V0h1344v566H0V283m615 277c3-1 21-1 40 0 79 1 147 1 151 0 5-2 6-5 6-20 0-7-1-17-2-23-3-25-16-67-24-84-5-9-5-9-2-26 0-4 0-5-3-8-2-3-13-8-37-18-4-2-13-6-20-10-8-3-15-6-18-7-6-2-21-10-25-12-4-4-5-8-5-18 0-7 3-33 7-58 2-15 1-36-2-64-1-13-2-26-3-29 0-3-1-10-2-15 0-4-2-19-4-32-7-42-16-60-43-87-12-12-27-21-50-29-12-4-13-4-25-4s-13 0-22 3c-7 3-13 4-20 5-17 2-25 6-38 17-16 16-27 35-38 67-6 19-14 54-18 83 0 6-2 20-4 32-4 27-5 49-4 66 1 14 1 14 5 30 3 16 2 23-6 28-6 3-11 5-21 6-5 1-10 2-11 3-2 0-7 2-11 4-5 2-18 8-28 14-12 6-25 13-30 16-6 3-12 6-13 8-4 3-6 10-6 22-1 5-2 14-4 20s-4 16-6 21c-4 17-9 54-11 75 0 14 1 18 7 21 5 3 15 3 57 3 36-1 128 0 163 1 37 1 112 0 120-1z"/></svg>