<svg xmlns="http://www.w3.org/2000/svg" width="1344" height="566"><path d="M0 283V0h1344v566H0V283m775 270c3-3 4-3 9-3 7 1 11-1 14-4 2-4 4-4 7 0 4 5 8 7 15 7 5 0 7 0 9-2l3-2-1-21c0-18 0-22-2-26s-2-7-2-17c0-9-1-14-3-25-2-7-4-17-5-22-3-10-2-12 0-16 3-3 7-12 7-16 0-2 0-4-1-6s0-4 2-11c2-5 3-11 3-13 0-6-3-17-5-22-5-9-8-13-24-21-10-5-14-8-15-10-1-1-2-8-2-14-1-17-4-23-14-26-3-1-5-1-9 1-7 2-11 6-12 14-1 6 0 20 3 24 1 3 1 7 0 10-4 7-11 16-14 18-2 2-5 4-6 5-1 2-5 5-8 6-9 7-12 17-11 39 1 9 1 14 3 16 1 2 2 7 3 12 4 15 7 20 15 17 2-1 5-1 5-1 2 1 6 8 7 13 0 2 1 6 2 9 0 3 1 14 2 27l1 21 5 14c3 7 6 16 7 19 1 5 4 9 6 9 1 0 3-1 6-3z"/></svg>