<svg xmlns="http://www.w3.org/2000/svg" width="1344" height="566"><path d="M0 283V0h1344v566H0V283m490 133c4-1 10-4 14-5 15-6 60-9 77-5 2 1 10 1 17 2 8 0 20 1 28 2s25 1 38 1c24 0 32 1 45 4 9 1 19 1 29 0 4-1 13-3 20-4 15-1 30-5 50-10 26-7 30-8 40-12 7-4 10-4 18-5 12-1 15-2 16-6 0-3 0-22-2-37-1-9-2-15-4-20s-3-10-3-12c0-6-7-17-11-17 0 0-2-1-3-3-1-1-4-5-6-8-3-3-5-7-6-9 0-1-1-4-1-6-1-4-1-4 4-10l2-3-2-9c-2-5-4-15-6-22-1-6-4-16-6-22-4-16-8-33-8-36 0-9-12-40-20-52-5-9-18-22-25-27-6-5-18-11-27-14-16-5-24-6-46-3-34 5-55 19-68 44-8 17-10 28-11 78-1 22-1 43-1 48-1 8-2 13-4 13h-12c-8 0-10 0-16 3-4 1-8 4-10 6-3 2-7 6-10 8-9 7-10 8-17 21-6 13-8 16-21 27-13 10-16 12-21 14-3 1-10 5-17 8-14 7-22 9-30 9-7-1-11 0-14 4-1 1-5 9-9 18-5 13-8 19-15 37-3 7-2 9 0 10 3 2 16 3 32 3 14-1 17-1 22-3z"/></svg>