<svg xmlns="http://www.w3.org/2000/svg" width="1344" height="566"><path d="M0 283V0h1344v566H0V283m111 277c47-1 64-2 76-5 8-1 97-1 117 1 11 1 17 1 27 0 12-1 15-2 18-5 3-2 3-10 0-26-3-15-6-31-7-40 0-3-1-10-2-15 0-6-1-14-2-18-7-48-9-59-18-82-7-17-10-23-17-33-10-15-22-24-55-44-20-11-21-12-21-15 0-1 3-8 7-15 5-6 8-12 8-12 0-1 3-6 6-11l6-10v-24l4-6c2-3 4-8 5-10 2-7 4-11 9-16 6-5 8-8 9-14 1-7 0-13-6-32-6-18-8-30-8-50 0-11 0-17-2-22-2-8-19-42-22-46-7-6 0-6-123-6C26 4 7 4 4 5L1 6v272c0 216 0 272 1 274 4 7 4 7 23 7 10 0 22 1 25 1 11 1 11 1 61 0m485-1c19 0 59-1 90-1 30 0 57 0 59-1 2 0 35 0 73 1 37 0 97 1 134 1 36 0 82 1 102 1 43 1 78-1 79-3 2-2-1-12-7-24-5-12-10-19-23-32-6-6-12-14-14-16-6-8-25-25-42-38-4-2-13-10-21-17-15-14-28-24-39-32-4-3-15-11-23-17-9-7-18-13-22-15-5-2-6-2-17-2-7 0-13-1-17-1-12-3-22-11-27-22l-3-6v-17c0-18 1-30 5-38 1-3 6-9 11-14 13-15 22-29 27-45 4-11 5-20 2-29-3-12-4-20-1-33 1-8 2-16 2-29 0-19-1-20-3-28-8-23-23-39-51-56-8-6-25-12-40-15-11-2-14-2-33-2s-21 0-32 2c-29 8-57 30-68 55-5 12-8 27-13 88-1 9-3 22-5 30-3 18-3 35 0 57 4 22 6 28 13 45 9 23 10 25 21 36 11 10 12 12 8 16-1 1-17 9-35 18-31 15-56 30-67 39-2 2-8 6-12 9-21 15-37 30-49 48-5 6-11 14-14 16-4 6-9 14-12 20-3 5-13 40-13 44 0 8 5 9 30 8 7 0 29 0 47-1z"/></svg>