<svg xmlns="http://www.w3.org/2000/svg" width="1344" height="566"><path d="M0 283V0h1344v566H0V283m576 275c50-2 113-1 173 0 46 1 132 1 154-1 9-1 33-1 53-1h42c36 0 116 0 137 1l16 1 3-2c2-3 2-4 0-16-2-11-16-38-29-54-11-15-29-29-47-38-9-4-40-16-54-20-6-2-16-5-22-7-6-3-16-6-20-7-13-4-31-13-36-18s-7-10-5-21c1-5 2-12 3-16 2-9 5-26 7-43 3-18 7-31 12-35 1-1 5-4 10-6 10-5 18-12 25-22 13-19 21-48 17-66-1-6-6-12-13-16-8-3-8-5-8-18 1-6 1-18 2-26 2-20 2-62 0-73-2-18-6-36-8-39-2-4-6-6-24-8l-16-3H848c-125-1-155 0-163 6-4 3-12 19-15 34-5 19-7 36-8 72-1 31-2 43-6 58-2 8-2 17-1 26 3 18 12 42 24 64 6 12 13 27 18 42 2 7 6 17 8 22 6 17 7 20 7 23-1 4-5 5-16 7-10 2-41 12-46 15-4 3-11 12-25 33-25 39-32 46-66 70-8 6-19 13-25 18-6 4-14 10-17 12-14 10-28 20-39 28-27 20-29 23-18 25 4 1 58 1 116-1z"/></svg>