<svg xmlns="http://www.w3.org/2000/svg" width="1344" height="566"><path d="M0 283V0h1344v566H0V283m537 275c7-1 14-3 16-4 1-1 4-2 5-2 2 0 8-6 8-8 0-1-1-3-3-5-4-5-4-7-1-16 4-11 7-19 9-28 2-11 3-12 7-10 2 0 10 1 17 2 19 1 21 0 29-12 3-5 8-11 10-15 8-9 9-12 14-24 5-14 9-30 12-44 2-10 3-13 9-25 4-7 10-16 13-19 9-10 11-16 10-30-1-6-1-16-1-22 0-11 0-11-2-11s-6 2-9 4c-4 3-8 5-9 5-2 1-4 2-6 2-3 1-5 1-7 0-2 0-5-1-6-1-3 0-9 3-14 7-7 5-32 22-37 25-4 2-5 2-7 1-4-2-10-11-16-23-8-18-14-24-32-33-7-3-15-8-18-10-2-1-7-4-9-5-7-3-11-10-8-14 2-3 14-12 16-12 4 0 16-17 23-35 2-4 4-10 5-12 2-5 8-21 8-24 0 0 1-7 3-14 3-11 3-14 3-29 0-20-1-26-6-32-2-2-11-9-20-17-17-13-26-18-34-20-2 0-7-1-11-2-15-4-29-2-45 5-14 6-25 25-34 57-6 18-10 39-12 55-1 5-1 12-2 15-1 4-1 12-2 18-1 7-2 17-3 24-3 16-3 15 4 23 4 3 7 7 7 8s-2 5-5 10c-3 4-7 12-10 17l-6 10 1 13c0 7 0 20 1 29 1 8 2 27 3 43 0 26 0 29-1 33-5 10-4 30 2 44 1 4 3 9 4 12 4 10 7 31 9 54 0 12 1 24 3 30 1 4 6 9 12 11 2 1 10 2 24 3 16 0 21 0 30-2 10-1 12-1 26 0 8 1 15 2 16 2 2 1 3 1 4 1s7-1 13-3z"/></svg>