<svg xmlns="http://www.w3.org/2000/svg" width="1344" height="566"><path d="M0 283V0h1344v566H0V283m635 15c1-1 1-5 1-9 1-9 1-9 3-10 1-1 3-1 6 0 2 1 7 1 12 2 8 1 8 1 12 5 3 2 5 4 7 5 1 1 7 1 14 1 12 0 13 0 15-2s3-5 4-9c1-3 2-8 3-12 0-4 1-10 2-15 1-9 4-18 7-21 4-4 11-7 20-8 8 0 8-1 10-3 2-3 2-5 2-15l1-13-13-24c-16-33-19-36-35-41-3-1-8-3-12-4-7-4-10-7-10-14 0-25-10-39-26-39-5 0-13 4-17 9-3 3-3 3-3 15 1 11 1 13 4 19 4 8 6 18 4 22-1 1-5 7-10 11-12 11-15 17-16 29-4 36-5 39-7 48-2 5-3 12-4 19s-2 14-2 16c-2 9 0 16 5 18 3 1 13 11 13 13s5 9 7 9c1 0 2-1 3-2z"/></svg>