<svg xmlns="http://www.w3.org/2000/svg" width="1344" height="566"><path d="M0 283V0h1344v566H0V283m390 278c9-1 128-2 254-2 58 0 495 1 508 1 17 1 59-1 80-3 7-1 14-1 16-2 8 0 10-3 10-11 0-4-1-7-3-11-2-5-4-7-16-15-22-16-22-16-30-32-4-8-9-21-12-28s-7-18-8-23c-5-11-7-15-10-17-2-1-9-4-17-7-21-7-20-6-33-27-5-9-23-44-23-46 0-1-9-26-22-58-4-13-12-34-16-47-7-25-18-50-23-55-9-10-19-7-21 5-1 6-2 8-5 8-1 0-8-10-11-16-2-3-5-9-7-12s-6-9-9-14c-5-7-7-9-10-10-3-2-5-2-8-1-2 1-5 2-6 4-3 4-6 7-7 7s-4-2-6-5c-3-3-6-6-8-7-4-3-10-3-13 0-4 3-5 5-6 13-1 9-2 10-8 10-5 0-9 3-11 9-2 5-1 20 1 33 1 6 3 14 4 19 0 5 4 19 9 32 4 12 8 27 9 33 3 15 7 22 24 44 8 12 18 24 20 28 3 4 12 13 19 21 24 27 34 39 41 50s20 33 20 34 2 6 5 13c7 15 7 20 0 20-3 0-14-5-20-9-3-1-9-5-15-8-17-7-28-16-34-25-1-3-6-11-9-17-3-7-8-15-10-19-5-7-17-18-35-31-20-15-26-17-42-18-10-1-39 1-62 4-20 3-41 3-46 1-3-2-5-7-5-13 0-9 6-40 11-57 0-1 3-4 7-8 5-5 6-6 9-14 4-14 3-28-4-54-9-31-20-62-32-86-4-9-10-21-12-26-18-37-47-69-76-85-13-8-40-16-56-19-12-1-32 0-46 3-4 0-9 1-12 1-5 0-34 7-46 10-10 4-30 13-36 18-16 10-32 30-44 55-13 24-16 37-16 55 0 12 0 13 3 18 5 11 6 17 6 36 0 8 0 18-1 22-2 11-2 19 1 26 9 23 9 24 10 39s3 27 6 33c5 12 16 27 31 41 7 7 13 13 14 15 4 7 4 16 0 25-6 19-11 27-22 37-8 7-12 9-34 19l-7 3-2-2c-2-3-3-8-2-30 0-17-1-28-6-41-5-16-10-27-14-29-7-4-13-2-19 6-4 7-5 12-6 38 0 27 0 32-3 35-2 1-2 1-5-2-2-1-4-5-5-10-4-14-6-21-10-59-1-7-3-17-4-23 0-5-2-16-3-25-2-30-4-37-10-42-6-6-13-3-16 6-1 4-2 15-5 42-2 29-2 31-4 32-2 0-5-5-10-21-2-6-6-17-9-25-2-7-5-14-5-16-2-6-8-18-11-21-6-7-16-9-21-5-4 5-4 10 2 36 3 13 5 28 6 33s3 14 4 19c6 38 5 42-6 24-3-6-6-10-6-10 0-2-24-51-26-54-4-6-14-9-19-5-6 4-6 12-2 27 10 32 14 48 17 54 2 3 4 9 4 11 1 3 1 7 2 8 1 5-4 2-19-13-16-15-21-18-29-20-6 0-10 2-11 8s5 19 15 34c4 7 17 24 21 28 2 3 5 7 7 9 1 2 5 7 8 11 11 12 19 22 24 28 6 9 17 26 23 35 5 9 13 18 18 20 1 1 5 2 8 2 9 1 70 1 82 0z"/></svg>