<svg xmlns="http://www.w3.org/2000/svg" width="1344" height="566"><path d="M0 283V0h1344v566H0V283m920 278c8 0 31 0 50 1h52c10-1 43-1 74-2 64 0 114-1 119-3 6-2 8-4 6-15-1-11-7-31-11-42-6-15-15-34-20-42-8-12-21-27-27-31-9-8-28-15-55-23-5-2-21-7-34-11s-27-8-29-9c-10-2-21-8-34-19-18-15-21-16-39-13-9 2-9 2-12 0-7-4-18-28-18-40 0-5 1-7 14-24s18-32 16-47c-3-17-3-19 4-44 13-43 16-77 8-93-2-4-2-7-2-15 0-13-1-17-7-27-2-3-5-10-6-13-3-11-7-17-15-27-6-7-8-8-13-10-9-4-26-5-67-6-43 0-49 0-59 5-4 2-8 4-10 4-13 4-29 12-39 18-32 19-41 27-51 47-4 10-6 16-7 34 0 12-1 16-6 34-8 36-10 45-8 72 3 60 3 58 9 74 2 6 8 20 12 32 14 42 16 46 23 62 4 9 10 21 13 26 6 11 6 10-6 21-15 12-25 19-35 24-6 3-15 8-21 12-6 3-16 10-23 14-10 6-14 10-28 25-10 10-21 20-24 23-5 4-8 7-10 10-3 6-3 12 0 15 4 4 9 4 36 4 13-1 53-1 88 0 64 1 160 0 192-1z"/></svg>