<svg xmlns="http://www.w3.org/2000/svg" width="1344" height="566"><path d="M0 283V0h1344v566H0V283m920 274c13-3 17-5 33-17 15-11 25-19 28-25 1-2 3-5 5-6 1-2 2-4 2-5 0-3-6-14-8-15-1-1-8-1-15-2-8 0-17-1-21-2-4 0-12-1-17-1-13 0-31-2-36-5-5-2-6-4-8-10-1-9-6-13-17-13-4 0-8 1-10 2-16 8-20 11-26 15-3 2-10 9-16 14-11 11-17 15-37 21-17 5-20 6-23 3-2-3-6-10-13-26-5-10-22-46-40-82-11-24-11-23 0-28 7-3 9-5 13-10 3-4 7-8 11-10 6-4 11-8 27-23 4-3 10-8 13-10 8-5 10-9 13-24 2-12 5-19 16-42 7-12 13-25 15-30 3-8 10-20 16-31 7-10 10-18 10-21 0-4-4-11-12-20-3-3-7-9-10-13-11-18-14-22-21-29-10-10-24-20-38-28-28-15-51-21-74-19-18 2-27 4-44 13-9 5-11 6-24 19-16 16-25 27-33 43s-11 21-20 32c-12 14-17 16-46 24-17 4-23 6-30 12-4 4-20 24-22 28-2 3-6 18-7 31-1 5-3 12-4 16-5 14-4 19 9 26 4 2 8 4 8 6 2 3-1 10-14 29-15 22-20 31-31 59-5 12-12 27-16 33-5 11-6 13-7 19 0 5 0 11 1 16 3 13 3 23 0 25-2 2-7 2-12-1-8-3-34-22-41-29-4-3-9-8-11-9-3-3-32-34-40-43-3-3-5-6-5-8s3-11 6-21c10-29 9-28 9-47-1-26-3-32-14-42-9-10-10-11-7-19 4-13 5-19 5-34-1-15-2-19-7-23-2-2-4-3-7-3-4 0-5 1-10 6-4 3-8 8-10 12-2 5-5 8-8 10-5 4-6 7-6 20 0 6 0 9-2 11-2 3-9 6-18 7-10 1-13 3-20 11-5 5-12 16-16 24-4 7-7 17-9 30-3 22-6 42-7 44-2 4-6 8-10 12-4 2-5 3-9 3-3 0-7-1-9-1-3-1-4-1-9 1-5 1-7 1-17 0-13-2-15-1-19 6s-4 8-1 13 7 9 16 12c15 6 18 11 18 25 0 13 3 16 15 18 3 1 16 10 24 16 3 2 8 7 12 10 8 6 15 13 15 16 1 1 2 5 3 9 4 13 9 16 35 20 7 1 15 3 18 3 13 2 118 4 174 3 15 0 30 0 38 1 12 1 32 1 100 0 47-1 96-2 108-2h43c11 1 55 1 98 2 42 0 77 1 78 1 1 2 19 0 29-3z"/></svg>