<svg xmlns="http://www.w3.org/2000/svg" width="1344" height="566"><path d="M0 283V0h1344v566H0V283m877 279c159 1 201 0 216-1 21-1 22-2 16-17-2-4-4-11-5-15-2-7-7-19-16-33-1-4-4-11-6-16-3-9-3-10-3-26 0-11 0-21 1-26s3-15 3-22c1-6 3-18 4-27 3-21 4-41 2-46-2-7-8-9-14-4-6 4-7 3-13-16-1-7-5-11-9-11-3 0-6 2-11 9-1 2-2 2-4 1-1 0-3-3-4-4-1-2-3-4-4-5-5-3-11 0-14 7-4 6-7 9-13 9-8 0-15 9-19 28-3 11-5 12-9 11-4 0-18-5-27-9-3-2-10-5-16-7-5-2-13-6-18-8s-10-4-12-4c-11-4-16-9-16-13 0-2 1-8 2-14 5-28 8-67 5-88-3-28-16-56-32-70-10-9-43-28-55-32-17-5-43-7-56-5-4 1-9 3-12 4-6 3-27 14-33 18-9 7-23 22-29 33-3 7-10 26-10 30 0 3-3 17-8 35-5 16-5 19-5 25 1 4 0 9 0 13-2 7-2 14 0 30s1 18-6 22c-5 3-21 9-31 12-8 3-48 16-55 19-12 5-16 4-18-3-1-2-2-10-3-19 0-9-1-17-2-18-1-4-5-8-7-8 0 0-3 2-6 5-3 2-5 4-6 4-2 0-4-3-6-10-3-10-7-16-10-18-4-1-5-1-10 5s-6 6-12 3c-5-3-6-3-10 1-2 2-4 4-5 10-4 12-6 15-14 16-6 2-7 2-9 5-3 6-2 28 1 45 1 6 2 14 4 26 1 9 5 24 8 35 4 13 7 26 8 33 1 17-13 60-25 78-9 12-10 16-4 18 3 2 18 3 26 3h82c16-1 36-1 45-1 24 0 112 2 122 3 5 0 31 1 58 0h109z"/></svg>