<svg xmlns="http://www.w3.org/2000/svg" width="1344" height="566"><path d="M0 283V0h1344v566H0V283m867 278c11-2 13-4 13-22 0-28-4-57-9-68-5-10-27-30-48-44-3-2-7-5-9-6-1-1-8-6-16-10-16-11-27-19-31-24-4-4-11-18-19-34s-7-22 20-67c3-7 8-15 10-18 6-7 9-15 11-23 0-4 3-15 5-24 7-29 8-38 8-63 1-25 0-32-5-46-7-21-20-39-42-58-18-15-29-20-51-21-6-1-15-2-22-3-18-4-43-2-58 4-12 5-29 18-40 30-20 23-28 41-30 76-2 27-3 37-7 43-6 10-8 14-7 27 0 23 7 39 24 53 6 5 7 7 9 12 1 4 2 9 3 13 3 18 1 22-19 42-21 20-29 25-50 32-9 4-21 8-27 9-6 2-13 4-16 5-4 1-11 3-17 5-48 15-51 17-64 43-9 18-18 41-24 54-1 5-5 15-8 21-3 7-5 12-5 13 0 0-3 8-7 17s-8 18-8 21c-1 5-1 5 1 8l2 2h60c33 0 70 1 83 1 26 1 383 0 390 0z"/></svg>