<svg xmlns="http://www.w3.org/2000/svg" width="1344" height="566"><path d="M0 283V0h1344v566H0V283m779 279c31-2 43-2 167-2 172-1 179-1 179-11 0-7-13-42-23-63-5-9-10-20-12-25-3-6-7-12-12-18-4-4-12-15-18-24s-14-21-18-26c-11-16-17-28-19-41-2-7 0-8 23-14 5-1 10-2 18-2 11 0 12 0 14-2 3-3 8-16 9-26 2-11 1-15-2-25-2-5-5-16-7-24-5-17-9-31-13-38-5-10-25-25-44-34-3-2-10-5-15-8-4-3-11-6-14-9-9-4-15-9-17-15-3-4-3-7-12-35-10-32-33-69-54-88-8-8-24-18-33-21-13-5-32-6-80-6-39 0-41 0-50 2-12 3-29 9-34 13-25 20-44 43-58 72-3 6-8 15-12 19-15 22-16 24-18 35-2 6-2 10-2 19 1 12 1 13 5 23 2 5 6 16 9 24 6 21 12 30 20 30 4 0 8 3 17 12 15 14 18 23 19 47 2 27 4 32 20 41 3 2 7 6 11 11 3 4 9 9 12 11 7 6 17 17 19 21 2 7 1 10-7 29-4 10-8 19-8 20-3 8-8 17-13 22-3 4-7 9-8 13-4 7-12 31-15 45-1 6-3 14-4 18-5 21-5 26 0 28 1 0 11 1 23 1 12 1 22 1 23 1 1 1 11 1 34 0z"/></svg>