<svg xmlns="http://www.w3.org/2000/svg" width="1344" height="566"><path d="M0 283V0h1344v566H0V283m1101 278c5-2 27-19 33-25 10-12 14-26 9-30-3-2-4-2-14 0-4 0-6-2-8-9-3-10-7-11-20-6-5 2-9 3-10 2-1 0-4-2-7-5-3-2-8-6-13-8-8-4-9-5-14-13-5-10-9-17-14-30-1-4-5-13-8-20s-7-17-9-23c-8-20-17-43-23-53-9-17-11-19-46-36-42-22-44-23-48-30-2-4-2-18 0-39 2-18 1-42-2-55-2-10-8-24-14-35-8-13-15-20-33-32-32-20-42-24-76-26-10 0-14 0-21 1-15 4-31 10-44 19-11 7-27 24-34 36-3 5-7 19-8 30-1 10-3 14-12 32-8 18-9 25-8 46 0 12 0 13-2 17s-4 5-10 8c-4 2-10 5-13 6-9 2-38 13-48 17-14 7-31 20-36 28-2 2-5 11-7 18-13 42-32 84-56 125-6 11-9 17-16 37-2 4-3 10-4 15-1 11-2 13-7 16-5 4-5 4-14 1-6-2-7-2-9-1-2 2-1 4 4 6 6 2 23 3 27 1 3-2 20-1 24 1 2 1 9 2 16 3 6 1 16 2 21 4 18 4 33 5 113 5 61-1 74-1 78 1 3 1 8 1 21 0h114c36-1 51-1 55 0 3 1 10 1 15 1 15 0 32 0 49 1 23 1 126 1 129-1z"/></svg>