<svg xmlns="http://www.w3.org/2000/svg" width="1344" height="566"><path d="M0 283V0h1344v566H0V283m284 276c8 0 15-1 16-2 3 0 5-4 5-9 1-3 2-6 3-8s2-3 1-8c-1-2-1-8-2-13s-2-11-3-14c0-4-2-12-2-19-1-8-1-17-2-22-2-14 0-16 14-17 8-1 23-3 25-5 0 0 4 0 8-1 8-1 13-2 29-6 5-1 13-3 18-3 24-2 49-10 58-18 3-2 7-9 7-11 0-1-2-4-3-6-2-3-4-6-4-7l-2-2c-2-2-3-2-23 0-7 1-13 2-15 2-1-1-3-3-5-6-2-4-3-5-3-10s0-6-3-9c-2-3-3-3-5-2s-9 14-13 23c-1 4-3 9-5 10-4 4-14 7-32 8-13 1-16 1-26 0-15-3-21-4-24-7s-3-3-5-37c-1-7-1-16-2-18-1-7-1-23 0-32 3-15 5-30 6-38 0-8 0-9-3-13-4-6-4-7 0-11 2-2 4-3 10-3 5-1 9-2 11-2 5-3 11-10 14-17 7-16 5-41-6-82-2-7-4-10-11-16-13-10-23-13-44-13l-15-1-7 4c-11 5-16 11-21 21-5 9-5 10-5 17 0 5 1 14 2 21l1 13-4 9c-6 11-10 15-28 31-22 19-42 40-52 56-7 10-10 16-12 21 0 2-2 7-4 11-2 5-4 13-4 18-2 14-4 23-6 30-1 6-2 13-4 34-1 6-2 16-3 23s-3 15-3 19c-1 3-1 6-1 7-1 1-2 6-3 12-2 12-1 24 2 36 2 8 3 10 13 21 2 3 7 9 10 13 8 10 21 23 26 25 3 2 9 2 30 3 35 1 90 1 106 0z"/></svg>