<svg xmlns="http://www.w3.org/2000/svg" width="1344" height="566"><path d="M0 283V0h1344v566H0V283m810 277c13-1 80-1 100 0 19 1 42 0 46-3 3-1 4-3 6-9 2-7 2-8 1-21-1-8-2-23-2-33-1-10-1-19-2-19-2-4-7-44-10-75-2-26-2-37-1-42 2-6 2-6 0-12-6-16-8-26-9-44-2-18-2-21-7-34-6-20-12-28-27-37-24-14-31-21-34-30-1-6 0-12 5-30l3-13v-17c-1-9-1-19-2-23-5-24-10-36-18-45-16-18-43-31-58-28-3 0-6 1-8 4-3 2-8 6-13 8-12 9-19 17-24 33-3 7-3 26-1 33 1 2 2 7 3 11 1 9-2 13-12 26-6 6-8 11-9 27 0 14-1 24-4 28-2 4-9 10-14 11-2 1-8 3-12 5-7 2-10 3-19 4h-12l-13 7c-13 6-14 6-22 7-16 1-28 5-33 11-3 3-3 5 1 9 4 5 13 7 28 7 13 0 15 0 32-7 15-5 16-5 15 4 0 3 0 9-1 13-1 8-3 26-5 40-1 5-2 14-2 20-1 6-2 12-1 14 2 11 9 26 16 32 1 2 7 6 12 9 14 9 14 9 14 16 0 6-3 23-8 37-4 15-5 17-8 28-1 7-4 17-5 24s-4 19-5 27c-4 17-4 24-3 26 1 1 4 2 11 2 15 1 98 0 111-1z"/></svg>